<svg xmlns="http://www.w3.org/2000/svg" height="1024" preserveAspectRatio="none" style="display: block;" version="1.1" viewBox="0 0 2048 2048" width="1024">
<defs>
	<linearGradient gradientUnits="userSpaceOnUse" id="Gradient1" x1="187.322" x2="194.329" y1="836.77" y2="828.876">
		<stop class="stop0" offset="0" stop-color="rgb(48,0,0)" stop-opacity="1"></stop>
		<stop class="stop1" offset="1" stop-color="rgb(74,25,12)" stop-opacity="1"></stop>
	</linearGradient>
	<linearGradient gradientUnits="userSpaceOnUse" id="Gradient2" x1="739.234" x2="747.422" y1="593.731" y2="570.932">
		<stop class="stop0" offset="0" stop-color="rgb(240,237,212)" stop-opacity="1"></stop>
		<stop class="stop1" offset="1" stop-color="rgb(249,233,218)" stop-opacity="1"></stop>
	</linearGradient>
	<linearGradient gradientUnits="userSpaceOnUse" id="Gradient3" x1="1028.46" x2="1074.9" y1="749.943" y2="729.9">
		<stop class="stop0" offset="0" stop-color="rgb(243,242,224)" stop-opacity="1"></stop>
		<stop class="stop1" offset="1" stop-color="rgb(255,250,248)" stop-opacity="1"></stop>
	</linearGradient>
	<linearGradient gradientUnits="userSpaceOnUse" id="Gradient4" x1="1118.97" x2="1117.11" y1="622.728" y2="616.111">
		<stop class="stop0" offset="0" stop-color="rgb(68,0,0)" stop-opacity="1"></stop>
		<stop class="stop1" offset="1" stop-color="rgb(78,25,5)" stop-opacity="1"></stop>
	</linearGradient>
	<linearGradient gradientUnits="userSpaceOnUse" id="Gradient5" x1="949.763" x2="936.302" y1="619.17" y2="584.417">
		<stop class="stop0" offset="0" stop-color="rgb(244,244,221)" stop-opacity="1"></stop>
		<stop class="stop1" offset="1" stop-color="rgb(253,248,242)" stop-opacity="1"></stop>
	</linearGradient>
	<linearGradient gradientUnits="userSpaceOnUse" id="Gradient6" x1="1491.98" x2="1526.9" y1="869.265" y2="827.741">
		<stop class="stop0" offset="0" stop-color="rgb(21,2,0)" stop-opacity="1"></stop>
		<stop class="stop1" offset="1" stop-color="rgb(65,4,1)" stop-opacity="1"></stop>
	</linearGradient>
</defs>
<path d="M 0 0 L 2048 0 L 2048 2048 L 0 2048 L 0 0 z" fill="rgb(254,253,249)" transform="translate(0,0)"></path>
<path d="M 677.896 533.465 C 675.5 515.18 669.377 469.907 672.926 453.408 C 676.309 437.682 703.852 409.463 717.763 401.348 C 738.126 389.47 949.497 370.301 982.739 369.95 C 995.12 369.819 1006.65 371.013 1018.61 374.236 C 1048.63 382.324 1076.23 398.046 1104.9 409.746 C 1129.74 419.878 1157.62 425.89 1180.59 439.983 C 1191.04 446.392 1200.99 456.192 1206.8 467.063 C 1209.63 472.381 1210.04 478.884 1210.11 484.823 C 1210.26 497.787 1207.23 511.297 1205.98 524.233 C 1204.65 538.05 1206.19 550.845 1201.88 564.32 L 1209.84 569.571 C 1212.61 574.875 1214.62 579.055 1215.77 584.951 L 1217.65 586.55 C 1221.59 585.979 1223.54 584.717 1226.39 588.134 C 1235.31 597.211 1236.71 596.362 1233.07 609.114 C 1272.31 636.205 1312.96 663.588 1345.95 698.377 C 1329.11 716.875 1313.98 719.434 1291.59 729.407 C 1287.49 731.23 1284.46 730.651 1279.99 730.14 C 1273.36 738.028 1266.42 746.059 1260.21 754.244 C 1287.97 865.882 1280.36 998.628 1279.95 1113.18 C 1300.46 1112.73 1321.6 1112.24 1341.93 1115.69 C 1393.52 1086.5 1444.63 1063.47 1504.91 1059.28 C 1526.93 1023.94 1539.96 988.452 1553.82 949.565 C 1477.82 894.785 1464.7 869.053 1448.32 776.615 L 1448.25 772.87 L 1449.4 772.041 C 1457.91 776.24 1466.17 782.65 1474.04 786.801 C 1514.67 808.246 1538.09 841.196 1553.52 883.926 C 1555.39 889.106 1558.83 907.778 1562.06 910.296 L 1564.41 911.702 C 1565 914.21 1565.15 915.188 1565.41 917.752 L 1565.21 919.339 C 1565.56 918.936 1565.91 918.534 1566.26 918.131 C 1573.58 904.97 1579.09 893.012 1587.37 880.238 C 1610.77 844.112 1639.58 825.454 1677.53 806.77 C 1687.66 801.785 1700.89 794.367 1711.56 790.727 C 1702.19 895.239 1652.79 920.922 1559.43 949.219 C 1552.43 966.981 1546.18 984.851 1538.91 1002.47 C 1530.85 1021.99 1521.28 1040.28 1511.57 1059 C 1574.9 1058.73 1624.21 1072.74 1680.97 1099.78 C 1696.29 1102.9 1715.52 1102.65 1730.7 1104.56 C 1759.47 1108.19 1787.31 1112.54 1815.2 1120.8 C 1849.28 1130.9 1908.35 1150.98 1909.34 1194.36 C 1909.63 1206.65 1905.51 1221.48 1902.97 1233.54 C 1892.87 1282.21 1876.9 1315.51 1853.79 1358.57 C 1869.96 1367.47 1995.45 1437.13 1996.92 1441.66 C 1990.16 1458.22 1875.41 1510.8 1857.19 1518.29 C 1768.2 1554.88 1673.43 1575.89 1580.97 1601.2 L 1211.84 1699.49 C 1188.54 1705.59 1164.72 1713.09 1141.66 1718.96 C 1144.2 1725.49 1144.11 1729.81 1144.44 1736.75 C 1150.36 1737.01 1156.01 1736.15 1161.85 1735.41 C 1186.94 1732.22 1212.2 1730.32 1237.37 1727.95 C 1289.78 1723.43 1342.28 1719.94 1394.83 1717.46 C 1462.3 1714.28 1529.93 1713.4 1597.43 1712.22 C 1613.47 1711.94 1650.36 1714.03 1663.44 1711.93 C 1674.21 1710.2 1710.2 1698.27 1722.53 1694.5 C 1762.52 1682.54 1802.43 1670.35 1842.28 1657.93 C 1878.29 1646.6 1938.88 1619.15 1971.26 1647.98 C 1981.79 1657.35 1978.86 1677.8 1968.43 1686.25 C 1938.48 1709.85 1938.34 1732.69 1892.76 1716.38 C 1807.32 1740.95 1722.24 1766.73 1637.53 1793.7 L 1274.85 1906.02 L 1100.89 1962.45 C 1069.14 1972.87 1037.67 1983.7 1005.45 1992.73 C 986.055 1998.99 959.749 1991.39 953.596 1970.05 C 948.547 1952.54 978.391 1939 990.966 1934.09 C 1076.83 1900.58 1165.34 1872.59 1253 1844.47 L 1527.73 1756.21 C 1550.25 1749.03 1572.72 1741.17 1595.27 1734.2 C 1503.3 1732.21 1393.6 1738.85 1301.55 1744.57 C 1268.03 1746.65 1234.53 1749.06 1201.05 1751.78 C 1185.02 1753.06 1160.79 1754.42 1145.51 1756.97 C 1144.49 1779.79 1133.11 1792.52 1118.07 1808.76 C 1087.27 1842.02 1051.39 1872.46 1011.22 1893.78 C 1007.41 1895.8 999.363 1900.93 996.204 1897 C 997.947 1892.64 1013.58 1886.45 1019.34 1882.88 C 1045.15 1866.85 1069.4 1848.99 1090.63 1827.17 C 1056.73 1840.86 1045.12 1838.15 1011.85 1842.23 C 989.602 1860.24 912.652 1921.74 888.303 1927.36 L 886.747 1926.08 C 888.595 1918.74 912.957 1908.16 919.595 1903.48 C 931.968 1894.77 995.983 1853.58 999.878 1842.36 L 995.349 1841.11 L 994.669 1839.51 C 996.93 1834.41 1002.57 1828.57 1006.41 1824.11 C 972.463 1848.36 961.723 1840.47 926.327 1851.89 C 909.627 1857.28 822.663 1935.21 808.249 1933.42 C 806.479 1930.86 806.756 1932.26 806.9 1929.28 C 812.762 1923.94 821.398 1919.98 828.134 1915.61 C 858.85 1895.7 886.521 1871.72 916.447 1850.64 C 910.535 1851.23 896.665 1853.62 892.549 1850.33 C 891.8 1844.51 898.983 1836.33 902.217 1829.63 C 894.182 1837.72 887.057 1844.99 877.401 1851.29 C 848.507 1870.13 822.856 1890.96 792.307 1907.5 C 770.142 1919.5 747.061 1930.25 725.151 1942.45 L 722.907 1942.2 L 721.736 1940.27 C 722.971 1937.5 723.959 1936.26 726.819 1934.81 C 765.989 1914.85 811.517 1894.59 845.604 1866.22 C 829.994 1870.4 808.142 1872.19 795.638 1876.62 C 791.67 1878.02 767.989 1894.9 759.763 1899.33 C 712.394 1925.2 662.44 1946.03 610.724 1961.48 C 604.254 1963.35 588.209 1968.39 582.358 1966.31 C 586.375 1960.97 611.014 1954.66 618.826 1952.19 C 666.97 1936.97 743.241 1906.2 784.567 1877.59 C 780.064 1878.49 776.178 1879.71 771.734 1878.93 C 768.829 1874.56 787.986 1845.73 791.295 1838.72 C 775.775 1855.32 765.616 1865.83 744.818 1875.79 C 716.073 1889.56 686.378 1891.28 656.379 1898.13 C 647.017 1900.27 623.087 1914.56 611.951 1919.42 C 563.599 1940.4 513.964 1958.28 463.347 1972.97 C 455.757 1975.22 430.557 1984.47 424.714 1979.74 C 426.234 1976.94 428.871 1976.04 431.971 1975.26 C 494.105 1959.61 554.656 1937.18 613.401 1911.7 C 628.465 1905.17 643.066 1896.88 658.052 1890.09 C 661.158 1884.44 663.757 1879.81 666.298 1873.88 C 659.238 1878.78 646.677 1887.52 639.505 1890.9 C 624.066 1898.18 565.741 1915.62 550.931 1913.37 C 545.878 1909.2 553.641 1900.8 556.667 1896.65 C 547.455 1899.63 537.915 1902.58 529.038 1906.44 C 514.36 1912.81 499.306 1921.93 484.647 1927.97 C 431.406 1949.92 376.205 1970.09 319.254 1979.82 C 312.579 1980.96 299.263 1983.37 293.26 1982.86 L 291.721 1981.88 L 292.031 1980.1 C 296.258 1977.73 325.18 1973.24 332.4 1971.77 C 343.293 1969.6 354.101 1967.02 364.8 1964.03 C 401.405 1953.48 437.319 1940.68 472.337 1925.68 C 466.219 1926.68 449.757 1929.78 444.171 1929.09 C 438.22 1920.89 458.85 1882.13 462.862 1871.62 C 455.218 1881.73 446.526 1892.68 435.99 1899.96 C 389.561 1932.08 331.388 1945.38 276.789 1956.13 C 267.525 1957.96 236.622 1965.24 228.687 1962.96 C 232.488 1957.4 272.456 1951.42 281.894 1949.5 C 307.369 1944.41 332.529 1937.86 357.251 1929.88 C 375.975 1923.66 450.082 1894.62 450.533 1874.75 C 445.873 1872.94 434.642 1879.9 430.13 1882.44 C 392.589 1903.65 338.993 1901.6 296.924 1896.76 C 261.015 1892.62 257.549 1894.61 221.684 1903.8 C 198.256 1909.8 174.915 1916.13 151.668 1922.79 C 131.869 1928.4 109.877 1935.1 89.3448 1936.32 C 97.7912 1931.46 106.996 1929.13 116.332 1926.58 C 147.538 1918.04 178.54 1908.89 209.855 1900.76 C 227.681 1896.13 245.926 1892.22 263.355 1886.35 C 272.092 1881.96 280.611 1872.44 287.973 1866.19 C 307.349 1849.74 328.441 1834.2 352.951 1826.53 C 373.891 1819.97 405.711 1813.54 427.381 1819.62 L 427.017 1816.96 C 417.85 1814.34 403.303 1811.69 397.865 1804.59 C 397.128 1800.38 397.254 1801.85 399.338 1797.29 C 404.353 1793.1 407.796 1793.16 413.585 1789.88 C 359.049 1792.26 296.537 1805.4 242.982 1816.96 C 238.288 1817.98 226.428 1820.82 222.58 1818.36 C 227.957 1814.23 249.225 1810.06 257.066 1808.26 C 315.646 1794.75 374.867 1784.92 434.978 1782.38 C 442.894 1781.23 451.323 1779.64 459.11 1778 C 490.982 1771.29 515.278 1771.76 546.143 1781.47 C 539.957 1776.56 528.724 1768.4 525.122 1761.25 C 520.393 1751.87 529.578 1750.28 536.346 1748.99 L 537.308 1746.07 C 466.661 1744.08 397.251 1753.07 327.313 1761.48 C 323.491 1761.94 317.156 1763.2 313.77 1762.1 L 313.523 1760.57 C 317.682 1755.76 332.935 1756.43 339.449 1754.94 C 343.408 1754.03 350.046 1753.35 354.303 1752.74 C 408.59 1745.04 463.28 1740.16 518.124 1739.51 C 532.366 1739.35 546.788 1740.71 561.038 1740.97 C 599.211 1740.87 627.683 1740.6 664.492 1753.76 C 659.97 1747.57 650.449 1737.67 648.105 1730.88 C 650.793 1727.02 665.714 1725.74 672.341 1723.44 L 672.119 1722.15 C 664.615 1722.12 635.343 1717.73 626.288 1716.6 C 600.952 1713.34 575.503 1711.03 549.993 1709.68 C 528.299 1708.51 506.572 1708.07 484.849 1708.35 C 476.071 1708.51 448.02 1709.72 441.085 1708.76 L 440.555 1707.73 C 457.12 1695.05 594.423 1706.57 620.227 1710.21 C 634.475 1712.22 665.359 1715.72 679.998 1719.47 C 690.78 1722.18 702.995 1721.66 714.18 1721.68 C 679.302 1710.7 643.717 1701.06 609.832 1686.81 C 562.944 1667.09 520.205 1640.47 475.232 1617.12 C 425.476 1591.28 377.662 1563.31 328.988 1535.59 L 197.708 1460.98 C 160.562 1439.55 124.046 1419.14 89.8289 1392.96 C 83.3244 1387.98 56.5787 1372.73 55.0645 1366.09 C 56.9864 1363.35 60.1862 1362.95 63.9887 1361.98 C 94.2299 1354.3 125.069 1348.56 155.418 1341.22 C 273.372 1312.97 391.665 1286.14 510.27 1260.76 C 531.367 1256.07 579.571 1248.13 597.887 1241.78 L 599.158 1241.34 C 599.017 1209.01 597.292 1176.38 597.028 1143.93 C 595.524 1056.47 598.603 968.986 606.251 881.846 C 610.316 837.044 614.711 791.88 626.868 748.434 C 615.119 744.564 601.279 737.192 589.943 731.681 C 579.379 726.633 568.702 721.826 557.921 717.264 C 572.143 696.128 607.47 660.291 625.244 641.634 C 643.64 622.325 654.958 614.902 670.957 590.893 C 660.936 576.251 658.975 572.68 669.525 558.207 C 668.388 545.076 669.881 543.515 677.896 533.465 z" fill="rgb(62,8,2)" transform="translate(0,0)"></path>
<path d="M 1569.84 920.18 C 1598.22 867.453 1619.39 841.342 1673.96 814.338 C 1684.12 809.309 1695.07 802.874 1705.7 797.881 C 1699.37 842.22 1690.88 875.917 1652.7 903.638 C 1639.37 913.317 1577.8 944.775 1562.05 941.693 C 1560.36 938.411 1562.75 934.325 1564.22 931.086 L 1569.84 920.18 z" fill="rgb(222,213,192)" transform="translate(0,0)"></path>
<path d="M 1677.8 831.837 C 1678.9 832.956 1678.46 832.193 1678.46 834.398 C 1668.21 852.615 1585.49 927.903 1567.13 941.037 L 1566.41 940.125 C 1568.82 932.774 1596 910.862 1603.53 903.933 C 1628.99 880.638 1653.76 856.596 1677.8 831.837 z" fill="rgb(62,8,2)" transform="translate(0,0)"></path>
<path d="M 1448.32 776.615 L 1448.25 772.87 L 1449.4 772.041 C 1457.91 776.24 1466.17 782.65 1474.04 786.801 C 1514.67 808.246 1538.09 841.196 1553.52 883.926 C 1555.39 889.106 1558.83 907.778 1562.06 910.296 L 1564.41 911.702 C 1565 914.21 1565.15 915.188 1565.41 917.752 L 1565.21 919.339 L 1569.84 920.18 L 1564.22 931.086 C 1562.1 929.714 1562.39 929.802 1560.57 927.952 C 1560.02 931.115 1560.05 932.89 1558.02 935.367 C 1552.89 934.085 1499.28 835.697 1481.22 821.693 C 1501.8 852.912 1519.04 883.597 1539.06 915.067 C 1545.42 925.057 1550.71 934.895 1557.63 944.653 C 1545.95 938.653 1527.06 924.192 1517.41 915.549 C 1485.68 887.104 1469.07 853.94 1460.26 812.707 C 1457.95 801.884 1454.24 790.764 1453.59 779.354 C 1451.99 777.019 1451.8 777.64 1448.32 776.615 z" fill="rgb(222,213,192)" transform="translate(0,0)"></path>
<path d="M 1448.32 776.615 L 1448.25 772.87 L 1449.4 772.041 C 1457.91 776.24 1466.17 782.65 1474.04 786.801 C 1514.67 808.246 1538.09 841.196 1553.52 883.926 C 1555.39 889.106 1558.83 907.778 1562.06 910.296 L 1564.41 911.702 C 1565 914.21 1565.15 915.188 1565.41 917.752 L 1565.21 919.339 L 1569.84 920.18 L 1564.22 931.086 C 1562.1 929.714 1562.39 929.802 1560.57 927.952 C 1560.34 926.085 1560 924.016 1559.55 922.169 C 1550.27 883.828 1532.86 838.171 1502.17 811.982 C 1490.78 802.262 1466.9 787.836 1453.59 779.354 C 1451.99 777.019 1451.8 777.64 1448.32 776.615 z" fill="url(#Gradient6)" transform="translate(0,0)"></path>
<path d="M 423.853 1792.24 C 458.319 1780.7 511.773 1771.47 544.677 1788.76 C 600.658 1818.17 544.028 1826.41 516.164 1830.94 C 473.567 1837.87 443.12 1812.22 404.705 1801.77 C 401.673 1800.84 401.821 1800.06 399.338 1797.29 C 404.353 1793.1 407.796 1793.16 413.585 1789.88 C 417.361 1788.57 419.268 1790.39 423.853 1792.24 z" fill="rgb(240,232,213)" transform="translate(0,0)"></path>
<path d="M 413.585 1789.88 C 417.361 1788.57 419.268 1790.39 423.853 1792.24 C 416.033 1795.44 411.791 1797.13 404.705 1801.77 C 401.673 1800.84 401.821 1800.06 399.338 1797.29 C 404.353 1793.1 407.796 1793.16 413.585 1789.88 z" fill="rgb(78,24,11)" transform="translate(0,0)"></path>
<path d="M 450.221 1826.58 C 467.035 1832.61 480.381 1837.81 498.287 1839.93 C 484.311 1848.82 475.382 1851.02 459.242 1855.77 C 461.536 1851.83 464.023 1847.85 465.842 1843.69 C 460.558 1838.44 454.925 1832.56 449.149 1827.95 L 450.221 1826.58 z" fill="rgb(222,213,192)" transform="translate(0,0)"></path>
<path d="M 1226.39 588.134 C 1225.7 591.979 1225.65 593.299 1222.11 594.827 C 1218.64 587.515 1219.86 593.13 1212.44 588.733 C 1214.43 589.685 1214.23 589.983 1216.07 589.887 L 1214.66 585.505 L 1215.77 584.951 L 1217.65 586.55 C 1221.59 585.979 1223.54 584.717 1226.39 588.134 z" fill="rgb(62,8,2)" transform="translate(0,0)"></path>
<path d="M 427.017 1816.96 C 434.84 1819.95 442.577 1823.16 450.221 1826.58 L 449.149 1827.95 C 441.054 1824.42 435.773 1822.11 427.381 1819.62 L 427.017 1816.96 z" fill="rgb(159,126,108)" transform="translate(0,0)"></path>
<path d="M 537.308 1746.07 C 540.456 1746.16 542.115 1745.57 543.998 1747.14 C 540.793 1748.69 539.807 1748.61 536.346 1748.99 L 537.308 1746.07 z" fill="rgb(240,232,213)" transform="translate(0,0)"></path>
<path d="M 812.002 742.227 C 828.826 754.177 841.063 766.415 854.421 781.998 C 862.672 791.624 873.364 804.92 882.906 812.885 C 883.764 848.522 897.39 853.225 926.584 866.084 C 889.735 927.571 840.347 979.887 835.55 1055.19 C 834.997 1063.87 826.998 1096.85 844.04 1093.68 C 852.82 1092.05 854.58 1085.02 854.935 1077.12 C 855.846 1056.89 857.769 1036.65 863.627 1017.13 C 876.845 975.049 902 938.655 927.044 902.916 C 934.782 891.867 941.649 879.089 949.855 868.511 L 950.722 867.404 C 1001.93 854.73 1013.19 832.729 1055.06 807.449 C 1054.89 816.38 1051.27 835.605 1057.62 840.794 C 1086.34 864.262 1115.52 823.956 1130.72 805.419 C 1141.03 792.857 1150.46 782.19 1159.95 774.108 L 1161.02 773.206 C 1165.13 779.231 1167.66 783.165 1172.66 788.474 C 1194.6 794.198 1211.58 786.61 1231.75 777.829 C 1237.26 803.413 1241.41 853.505 1243.33 879.653 C 1251.29 988.159 1248.98 1099.68 1243.75 1208.3 C 1241.28 1259.43 1239.19 1315.33 1232.61 1365.61 C 1227.01 1408.47 1213.56 1461.2 1176.77 1486.97 C 1162 1497.32 1146.69 1503.94 1129.81 1510.54 C 1043.7 1543.68 940.77 1549.44 850.157 1536.23 C 779.881 1525.98 676.927 1497.71 656.342 1420.52 C 637.413 1349.53 634.648 1273.47 632.403 1200.29 C 629.3 1099.14 631.124 997.414 637.813 896.44 C 640.702 852.588 648.747 805.912 655.598 762.365 C 667.615 770.863 692.91 785.324 707.612 787.246 L 709.599 788.563 C 713.281 789.888 725.413 793.224 726.789 796.268 L 730.043 797.095 C 738.238 794.989 763.97 809.638 779.904 800.461 C 794.76 791.904 807.576 757.787 812.002 742.227 z" fill="rgb(254,253,249)" transform="translate(0,0)"></path>
<path d="M 709.599 788.563 C 713.281 789.888 725.413 793.224 726.789 796.268 C 723.251 810.679 720.525 833.756 718.044 848.862 C 702.471 943.708 703.275 1039.29 703.472 1135.11 C 703.268 1179.37 704.248 1223.63 706.412 1267.84 C 708.343 1314.79 711.419 1367.94 721.399 1413.94 C 717.475 1406.55 712.431 1391.69 709.9 1383.13 C 686.499 1303.98 684.944 1220.91 684.613 1139.28 C 684.064 1077.46 686.076 1015.66 690.642 954.014 C 694.871 900.832 703.151 842.125 709.599 788.563 z" fill="rgb(254,253,249)" transform="translate(0,0)"></path>
<path d="M 707.612 787.246 L 709.599 788.563 C 703.151 842.125 694.871 900.832 690.642 954.014 C 686.076 1015.66 684.064 1077.46 684.613 1139.28 C 684.944 1220.91 686.499 1303.98 709.9 1383.13 C 712.431 1391.69 717.475 1406.55 721.399 1413.94 C 711.419 1367.94 708.343 1314.79 706.412 1267.84 C 704.248 1223.63 703.268 1179.37 703.472 1135.11 C 703.275 1039.29 702.471 943.708 718.044 848.862 C 720.525 833.756 723.251 810.679 726.789 796.268 L 730.043 797.095 C 726.669 809.743 722.66 841.538 720.458 855.505 C 707.594 937.098 706.813 1018.89 706.926 1101.28 C 706.403 1163.33 707.727 1225.38 710.896 1287.36 C 712.718 1325.73 715.623 1360.34 721.889 1398.32 C 722.797 1403.82 726.415 1417.97 724.292 1421.76 L 722.218 1421.56 C 712.954 1413.47 702.811 1372.31 699.82 1359.55 C 682.684 1286.48 681.021 1211.93 681.001 1137.3 C 680.975 1043.13 684.995 949.142 698.407 855.82 C 700.526 841.07 704.365 798.227 707.612 787.246 z" fill="rgb(78,24,11)" transform="translate(0,0)"></path>
<path d="M 1186.71 1024.24 C 1216.5 1026.71 1221.37 1072.41 1188.51 1078.6 C 1183.72 1078.22 1180.06 1077.81 1175.89 1075.2 C 1169.39 1071.11 1164.85 1064.54 1163.31 1057.01 C 1161.66 1049.55 1163.18 1041.73 1167.5 1035.42 C 1172.67 1028.03 1178.26 1025.68 1186.71 1024.24 z" fill="rgb(78,24,11)" transform="translate(0,0)"></path>
<path d="M 1182.08 1028.09 C 1202.37 1026.95 1211.5 1042.22 1205.95 1061.76 C 1204.05 1068.45 1198.1 1072.14 1191.88 1074.77 C 1163.18 1076.6 1155.54 1041.46 1182.08 1028.09 z" fill="rgb(254,253,249)" transform="translate(0,0)"></path>
<path d="M 1107.2 930.173 C 1118.79 929.357 1127.69 933.453 1132.59 944.552 C 1135.73 951.589 1135.83 959.607 1132.87 966.721 C 1129.27 975.259 1124.2 978.977 1116.08 982.445 C 1105.54 983.581 1096.22 979.316 1091.27 969.684 C 1087.78 962.786 1087.31 954.752 1089.96 947.493 C 1093.3 938.229 1098.63 934.026 1107.2 930.173 z" fill="rgb(78,24,11)" transform="translate(0,0)"></path>
<path d="M 1107.24 933.068 C 1116.41 932.493 1123.28 934.94 1128.29 943.254 C 1131.81 949.183 1132.71 956.308 1130.77 962.926 C 1128.23 971.431 1123.6 975.23 1116.11 979.055 C 1099.64 979.351 1094.51 972.512 1090.59 957.484 C 1093.19 944.553 1095.56 939.472 1107.24 933.068 z" fill="rgb(254,253,249)" transform="translate(0,0)"></path>
<path d="M 1175.38 1308.06 C 1208.07 1306.94 1211.39 1351.2 1181.45 1361.11 C 1178.19 1361.04 1176.58 1360.85 1173.41 1359.8 C 1166.59 1357.62 1161 1352.69 1157.99 1346.21 C 1154.77 1339.24 1154.62 1331.25 1157.56 1324.16 C 1161.32 1315.16 1166.7 1311.36 1175.38 1308.06 z" fill="rgb(78,24,11)" transform="translate(0,0)"></path>
<path d="M 1175.06 1311.04 C 1202.81 1309.59 1207.83 1346.05 1182.52 1357.77 C 1179.75 1357.86 1178.1 1357.78 1175.36 1357.04 C 1169.44 1355.41 1164.46 1351.41 1161.6 1345.98 C 1158.57 1340.18 1157.99 1333.4 1159.98 1327.17 C 1162.66 1318.89 1167.64 1314.8 1175.06 1311.04 z" fill="rgb(254,253,249)" transform="translate(0,0)"></path>
<path d="M 1118.54 1132.08 C 1150.31 1130.36 1152.21 1176.88 1123.1 1184.48 C 1119.21 1184.34 1116.24 1184.24 1112.62 1182.65 C 1106.25 1179.85 1101.33 1174.55 1099 1167.99 C 1092.79 1150.92 1102.36 1137.51 1118.54 1132.08 z" fill="rgb(78,24,11)" transform="translate(0,0)"></path>
<path d="M 1118.2 1135.2 C 1145.99 1134.75 1148.2 1173.08 1122.99 1181.32 C 1113.29 1180.95 1106.13 1177.03 1102.31 1167.61 C 1099.67 1161.19 1099.85 1153.95 1102.82 1147.67 C 1106.33 1140.35 1110.96 1137.79 1118.2 1135.2 z" fill="rgb(254,253,249)" transform="translate(0,0)"></path>
<path d="M 1183.86 857.063 C 1192.72 858.366 1199.13 863.76 1201.24 872.623 C 1202.69 878.621 1201.57 884.954 1198.15 890.092 C 1194.3 895.778 1190.67 896.646 1184.37 897.981 C 1181.65 897.657 1178.16 896.968 1175.77 895.643 C 1171.15 893.038 1167.77 888.688 1166.39 883.569 C 1164.78 877.634 1165.76 871.292 1169.1 866.126 C 1173.01 860.002 1177.23 858.601 1183.86 857.063 z" fill="rgb(62,8,2)" transform="translate(0,0)"></path>
<path d="M 1180.13 861.072 C 1182.1 860.976 1185.19 860.807 1187.06 861.38 C 1191.31 862.641 1194.88 865.549 1196.97 869.457 C 1199.17 873.624 1199.62 878.499 1198.2 882.996 C 1196.29 889.221 1193.31 891.162 1187.9 894.019 C 1167.35 895.527 1161.45 872.35 1180.13 861.072 z" fill="rgb(254,253,249)" transform="translate(0,0)"></path>
<path d="M 1194.79 1179.03 C 1203.16 1178.11 1209 1179.4 1213.26 1187.55 C 1215.44 1191.7 1215.85 1196.56 1214.39 1201.03 C 1212.67 1206.33 1210.09 1208.55 1205.43 1211.1 C 1184.76 1215.08 1179.22 1192.14 1194.79 1179.03 z" fill="rgb(78,24,11)" transform="translate(0,0)"></path>
<path d="M 1195.96 1181.93 C 1212.88 1182.15 1217.25 1199.04 1204.17 1208.11 C 1186.06 1209.19 1184.81 1192.04 1195.96 1181.93 z" fill="rgb(254,253,249)" transform="translate(0,0)"></path>
<path d="M 1213.91 957.981 C 1217.93 956.67 1222.35 957.635 1225.45 960.502 C 1228.56 963.37 1229.88 967.693 1228.9 971.807 C 1227.91 975.92 1224.78 979.181 1220.71 980.333 C 1214.59 982.067 1208.21 978.582 1206.35 972.494 C 1204.5 966.406 1207.86 959.954 1213.91 957.981 z" fill="rgb(78,24,11)" transform="translate(0,0)"></path>
<path d="M 1215.12 960.913 C 1219.64 959.801 1224.22 962.533 1225.39 967.044 C 1226.56 971.555 1223.89 976.168 1219.39 977.395 C 1216.43 978.203 1213.27 977.357 1211.11 975.179 C 1208.94 973.001 1208.12 969.83 1208.95 966.876 C 1209.78 963.923 1212.14 961.645 1215.12 960.913 z" fill="rgb(254,253,249)" transform="translate(0,0)"></path>
<path d="M 1897.98 1219.91 C 1898.71 1220.62 1899.06 1220.64 1898.87 1221.71 C 1887.66 1284.5 1856.71 1351.75 1816.53 1400.85 C 1774.43 1452.31 1713.74 1470.07 1651.24 1479.14 C 1633.23 1481.76 1615.68 1484.49 1597.6 1485.92 C 1505.96 1491.54 1374.1 1482.62 1301.58 1421.25 C 1287.87 1408.05 1276.82 1392.89 1269.73 1375.13 C 1266.24 1366.41 1266.76 1360.52 1267.77 1351.45 C 1269.38 1337.12 1270.95 1322.76 1272.24 1308.39 C 1274.16 1287 1275.67 1265.58 1276.77 1244.13 C 1312.02 1253.38 1347.09 1261.72 1383.15 1267.18 C 1506.38 1285.83 1753.63 1291.32 1866.67 1239.42 C 1878.03 1234.2 1887.96 1227.28 1897.98 1219.91 z" fill="rgb(254,253,249)" transform="translate(0,0)"></path>
<path d="M 1404.38 1317.74 C 1404.45 1317.8 1404.53 1317.85 1404.59 1317.92 C 1408.76 1322.34 1417.49 1397.31 1418.33 1407.5 C 1412.22 1401.78 1404.5 1331.06 1404.38 1317.74 z" fill="rgb(78,24,11)" transform="translate(0,0)"></path>
<path d="M 1446.1 1320.66 C 1451.38 1333.46 1452.18 1398.97 1451.87 1415.36 C 1451.36 1414.75 1450.85 1414.13 1450.35 1413.52 C 1448.79 1389.29 1444.85 1343.2 1446.1 1320.66 z" fill="rgb(78,24,11)" transform="translate(0,0)"></path>
<path d="M 1481.77 1325.59 C 1487.52 1338.19 1492.04 1408.78 1490.75 1424.26 C 1488.84 1421.95 1481.51 1332.53 1481.77 1325.59 z" fill="rgb(78,24,11)" transform="translate(0,0)"></path>
<path d="M 1520.16 1336.71 C 1523.45 1353.71 1527.51 1413.94 1526.79 1431.48 C 1526.7 1431.41 1526.6 1431.36 1526.52 1431.27 C 1521.35 1425.75 1520.06 1348.85 1520.16 1336.71 z" fill="rgb(78,24,11)" transform="translate(0,0)"></path>
<path d="M 1560.07 1366.58 C 1559.75 1361.53 1559.76 1360.72 1560.92 1355.82 L 1561.79 1355.74 L 1561.9 1358.96 C 1562.94 1376.03 1565.49 1420.79 1560.03 1435.15 C 1560.1 1414.66 1560.96 1386.52 1560.07 1366.58 z" fill="rgb(78,24,11)" transform="translate(0,0)"></path>
<path d="M 1560.07 1366.58 C 1559.75 1361.53 1559.76 1360.72 1560.92 1355.82 L 1561.79 1355.74 L 1561.9 1358.96 L 1560.07 1366.58 z" fill="rgb(167,146,144)" transform="translate(0,0)"></path>
<path d="M 1601.33 1387.78 C 1605.31 1392.31 1603.4 1425.01 1600.63 1432.27 C 1597.02 1428.09 1600.25 1394.6 1601.33 1387.78 z" fill="rgb(78,24,11)" transform="translate(0,0)"></path>
<path d="M 1279.33 1163.96 C 1324.82 1129.3 1381.79 1097.16 1435.99 1079.51 C 1511.27 1055 1581.21 1063.74 1652.97 1094.66 C 1665.05 1099.86 1677.06 1104.5 1688.9 1110.58 C 1667.66 1109.23 1649.85 1108.13 1628.53 1111.31 C 1611.38 1113.87 1573.07 1124.17 1562.32 1138.71 L 1564.66 1141.56 C 1565.2 1141.42 1566.52 1141.14 1566.94 1140.91 C 1599.1 1118.24 1636.7 1113.65 1675.07 1115.79 C 1724.77 1118.55 1769.12 1144.53 1809.76 1171.22 C 1826.83 1182.42 1845.21 1194.34 1860.53 1207.78 C 1841.28 1219.09 1795.82 1230.12 1772.93 1234.57 C 1615.13 1265.25 1432.71 1254.26 1277.71 1214.37 C 1278.04 1197.75 1278.91 1180.71 1279.33 1163.96 z" fill="rgb(254,253,249)" transform="translate(0,0)"></path>
<path d="M 1513.98 1146.89 C 1458.78 1121.19 1381.65 1139.62 1329.78 1168.03 C 1325.18 1170.55 1322.26 1174.78 1316.82 1174.95 L 1315.63 1172.91 L 1316.38 1170.45 C 1328.25 1157.75 1381.75 1139.42 1398.86 1135.01 C 1427.44 1127.64 1496.46 1124.39 1520.21 1145.23 C 1527.47 1143.39 1531.55 1142.62 1538.74 1141.37 C 1545.4 1140.22 1557.93 1140.74 1562.32 1138.71 L 1564.66 1141.56 C 1565.2 1141.42 1566.52 1141.14 1566.94 1140.91 C 1602.59 1140.76 1681.72 1172.89 1702.19 1201.82 C 1692.89 1196.36 1684.34 1189.86 1674.76 1184.18 C 1621.74 1152.7 1553.02 1129.34 1495.1 1162.13 C 1492.81 1163.42 1493.37 1163.62 1490.31 1164.09 L 1488.41 1162.68 L 1488.6 1160.81 C 1493.7 1155.15 1506.7 1150.08 1513.98 1146.89 z" fill="rgb(62,8,2)" transform="translate(0,0)"></path>
<path d="M 1457.46 1200.61 L 1458.66 1201.84 C 1459.35 1207.31 1457.74 1212.37 1455.8 1217.43 L 1454.81 1216.61 C 1453.67 1213.88 1456.57 1204.42 1457.46 1200.61 z" fill="rgb(78,24,11)" transform="translate(0,0)"></path>
<path d="M 298.935 1317.26 C 355.281 1343.41 409.705 1376.45 465.657 1404.03 C 524.659 1433.12 582.896 1463.73 642.761 1491.15 C 650.126 1494.52 657.214 1502.18 662.931 1508.04 C 703.974 1550.1 767.662 1557.39 820.971 1577.75 C 855.497 1590.86 889.333 1605.73 922.346 1622.28 C 932.558 1627.4 942.618 1632.82 952.621 1638.34 C 970.203 1648.03 988.728 1655.82 1006.52 1665.09 C 996.031 1665.8 981.322 1665.47 971.156 1667.51 C 969.041 1667.93 968.761 1669.33 968.036 1670.88 C 969.212 1678.18 978.816 1686.38 984.3 1691.89 C 981.335 1690.54 978.353 1689.23 975.354 1687.96 C 952.27 1678.26 884.633 1665.37 862.395 1674.4 C 863.182 1683.77 881.033 1705.99 887.045 1714.36 C 877.088 1709.93 861.602 1706.47 853.163 1701.25 C 832.354 1688.4 812.17 1672.02 789.625 1661.86 C 761.819 1649.32 733.891 1637.03 706.119 1624.27 C 669.168 1607.3 632.623 1589.46 596.517 1570.76 C 494.785 1518.14 393.751 1464.18 293.441 1408.9 C 255.64 1387.72 219.441 1364.85 181.671 1343.89 C 220.536 1334.26 260.051 1326.62 298.935 1317.26 z" fill="rgb(222,213,192)" transform="translate(0,0)"></path>
<path d="M 171.537 1346.08 C 180.312 1346.96 238.714 1383.36 251.615 1390.99 C 280.489 1408 309.637 1424.55 339.047 1440.61 C 444.415 1498.18 550.75 1553.96 658.007 1607.92 C 688.663 1622.9 719.56 1637.39 750.688 1651.37 C 759.55 1655.41 810.411 1677.11 811.871 1683.16 C 794.791 1691.03 719.372 1676.12 698.712 1672.27 C 690.483 1670.74 661.2 1661.25 655.958 1663.96 L 655.922 1665.41 C 670.53 1676.82 794.953 1698.03 813.202 1689.02 L 816.242 1687.17 C 821.713 1686.18 837.087 1696.99 842.473 1700.29 C 821.32 1699.39 787.086 1697.32 767.068 1707.16 C 755.298 1712.94 770.156 1725.66 775.294 1730.88 C 749.099 1718.62 712.864 1710.11 684.224 1701.37 C 654.265 1692.07 624.937 1680.84 596.423 1667.76 C 556.123 1649.62 521.035 1630.53 482.45 1609.5 C 433.783 1583.24 385.558 1556.18 337.796 1528.31 C 275.557 1492.62 210.878 1458.73 149.249 1421.49 C 123.088 1405.68 95.7217 1385.68 69.9083 1368.73 C 100.162 1364.75 142.198 1354.15 171.537 1346.08 z" fill="rgb(191,180,154)" transform="translate(0,0)"></path>
<path d="M 1254.4 760.581 C 1274.39 874.23 1273.96 977.516 1271.31 1092.61 C 1269.74 1160.64 1270.01 1231.35 1264.52 1299.48 C 1260.31 1351.67 1255.92 1420.09 1232.46 1467.69 C 1225.38 1482.04 1213.27 1495.77 1201.18 1505.97 C 1141.22 1554.88 1059.44 1568.35 983.852 1573.92 C 876.266 1581.86 735.939 1567.42 656.278 1486.53 C 643.393 1473.45 627.298 1431.21 623.427 1413.16 C 609.757 1349.41 606.891 1282.38 605.706 1217.31 C 602.129 1101.08 603.048 980.024 614.378 864.294 C 617.141 834.75 621.215 805.343 626.588 776.161 C 628.883 764.001 634.792 747.504 635.41 736.373 C 637.808 739.869 640.178 743.383 642.52 746.916 C 644.848 750.785 646.945 755.041 650.585 757.662 C 649.502 767.82 646.883 780.194 645.458 790.785 C 641.566 819.71 636.353 849.46 634.089 878.512 C 627.96 957.197 625.449 1037.28 625.86 1116.21 C 626.334 1207.51 627.135 1301.77 643.941 1391.65 C 652.1 1435.29 666.58 1468.87 705.739 1493.03 C 806.971 1555.47 950.241 1560.91 1063.79 1537.91 C 1113.92 1526.56 1180.64 1508.49 1209.7 1462.68 C 1235.85 1421.48 1239.47 1366.67 1242.91 1319.52 C 1245.89 1280.24 1247.85 1240.88 1248.8 1201.5 C 1252.05 1103.09 1255.05 1005.72 1248.89 907.279 C 1246.07 862.251 1244.16 819.987 1234.87 775.361 C 1241.34 770.753 1248.05 765.427 1254.4 760.581 z" fill="rgb(222,213,192)" transform="translate(0,0)"></path>
<path d="M 958.952 377.581 C 973.694 376.269 996.144 375.425 1010.25 379 C 1041.3 387.371 1070.46 402.356 1100.31 414.443 C 1130.19 426.541 1163.47 433.838 1188.38 454.776 C 1155.03 471.94 1080.96 493.258 1043.56 501.876 C 1026.39 505.833 994.726 505.404 976.507 505.988 C 953.986 506.71 927.803 498.841 906.48 501.899 L 905.059 502.113 C 893.057 504.507 886.339 508.338 876.366 514.952 C 817.371 508.506 765.516 496.972 719.321 458.771 C 710.15 451.186 698.257 441.716 686.303 440.567 C 694.066 430.557 713.18 408.293 724.783 404.681 C 747.296 397.672 775.112 395.847 798.864 393.141 C 852.112 386.839 905.487 381.652 958.952 377.581 z" fill="rgb(254,253,249)" transform="translate(0,0)"></path>
<path d="M 1919.83 1641.33 C 1962.3 1636.45 1991 1660.34 1936.93 1678.29 C 1917.63 1684.69 1897.68 1689.94 1878.21 1695.89 L 1719.39 1744.05 L 1360.74 1855.65 L 1110.83 1935.44 C 1078.97 1945.55 1037.99 1960.94 1006.56 1968.69 C 988.687 1972.28 974.542 1972.6 958.567 1962.27 C 967.467 1951.61 979.545 1944.71 992.349 1939.69 C 1043.68 1919.56 1095.88 1902.45 1147.88 1884.71 C 1280.16 1840.72 1412.86 1798.02 1545.96 1756.6 C 1632.4 1728.1 1719.26 1700.91 1806.52 1675.03 L 1879.98 1652 C 1891.59 1648.49 1908.17 1643.06 1919.83 1641.33 z" fill="rgb(240,232,213)" transform="translate(0,0)"></path>
<path d="M 1258.69 1412.59 C 1266.92 1414.28 1280.35 1414.99 1286.84 1419.32 C 1292.75 1423.28 1301.09 1430.38 1306.75 1435.04 C 1339.33 1461.87 1380.86 1468.86 1417.73 1487.39 C 1442.49 1499.83 1466.86 1512.57 1491.39 1525.32 L 1603.73 1582.99 L 1544.19 1598.69 C 1520.24 1603.12 1482.36 1614.06 1457.72 1620.25 C 1429.97 1604.1 1402.04 1590.22 1373.61 1575.37 C 1323.47 1548.94 1273.08 1522.97 1222.46 1497.47 C 1242.78 1474.62 1253.27 1442.17 1258.69 1412.59 z" fill="rgb(191,180,154)" transform="translate(0,0)"></path>
<path d="M 1104.92 1564.17 C 1114.17 1564.76 1281.68 1652.5 1301.98 1662.32 C 1294.98 1664.26 1287.53 1666.04 1280.46 1667.75 C 1231.06 1679.66 1182.69 1695.86 1133.14 1707.2 C 1113.44 1686.31 1082.2 1676.88 1055.06 1670.23 C 1043.72 1667.68 1022.08 1667.54 1014.18 1664.34 C 983.447 1651.86 950.535 1631.31 921.094 1617.1 C 902.41 1608.19 883.529 1599.7 864.465 1591.63 C 852.96 1586.76 836.739 1580.52 826.133 1574.7 C 918.679 1592.08 1013.94 1588.48 1104.92 1564.17 z" fill="rgb(191,180,154)" transform="translate(0,0)"></path>
<path d="M 468.9 1280.29 C 470.921 1279.9 473.055 1279.45 475.028 1280.31 C 519.293 1299.66 561.04 1324.37 605.735 1342.82 C 610.692 1403 616.961 1430.41 642.641 1484.97 C 634.795 1482.16 614.02 1471.5 605.705 1467.49 C 581.162 1455.77 556.719 1443.83 532.381 1431.69 C 457.564 1397.41 379.723 1351.24 304.659 1314.77 C 359.608 1304.26 414.364 1292.77 468.9 1280.29 z" fill="rgb(191,180,154)" transform="translate(0,0)"></path>
<path d="M 676.236 596.226 C 688.65 605.129 698.429 608.535 710.604 615.82 C 742.012 634.613 776.221 649.753 811.877 658.818 C 794.192 682.93 779.703 700.903 765.869 727.714 C 749.715 759.023 780.72 775.337 775.022 794.412 C 764.191 806.694 693.12 776.583 677.839 769.716 C 672.038 767.11 663.134 759.136 657.085 755.995 L 656.565 756.247 L 656.343 755.342 L 652.996 755.246 L 650.585 757.662 C 646.945 755.041 644.848 750.785 642.52 746.916 C 645.305 746.469 645.48 746.209 648.181 745.171 C 629.203 718.561 606.282 703.415 572.584 709.859 C 600.614 671.22 644.547 634.578 676.236 596.226 z" fill="rgb(254,253,249)" transform="translate(0,0)"></path>
<path d="M 677.427 702.862 C 679.085 703.09 679.646 703.148 681.347 702.919 C 682.331 704.371 682.958 705.784 684.41 706.695 C 676.181 722.365 664.268 741 657.085 755.995 L 656.565 756.247 L 656.343 755.342 L 652.996 755.246 L 650.585 757.662 C 646.945 755.041 644.848 750.785 642.52 746.916 C 645.305 746.469 645.48 746.209 648.181 745.171 C 655.792 737.587 669.808 713.154 677.427 702.862 z" fill="rgb(62,8,2)" transform="translate(0,0)"></path>
<path d="M 678.482 708.114 C 678.389 710.958 656.858 747.146 653.44 753.888 L 652.131 750.016 C 653.079 746.276 674.909 713.302 678.482 708.114 z" fill="rgb(191,180,154)" transform="translate(0,0)"></path>
<path d="M 677.427 702.862 C 685.076 689.299 692.579 675.654 699.936 661.929 C 704.634 653.14 710.001 641.503 716.009 633.862 C 711.724 651.949 693.401 689.394 684.41 706.695 C 682.958 705.784 682.331 704.371 681.347 702.919 C 679.646 703.148 679.085 703.09 677.427 702.862 z" fill="rgb(62,8,2)" transform="translate(0,0)"></path>
<path d="M 1218.64 1501.74 C 1227.29 1504.9 1248.64 1516.46 1257.97 1521.16 C 1288.37 1536.31 1318.57 1551.87 1348.55 1567.83 L 1408.44 1598.93 C 1421.57 1605.69 1439.53 1614.42 1451.24 1622.64 L 1336.72 1652.87 C 1327.32 1655.43 1317.86 1657.77 1308.35 1659.88 C 1298.56 1656.31 1285.28 1648.97 1275.72 1644.02 L 1225.56 1618 C 1188.07 1598.53 1149.98 1580.51 1112.71 1561.05 C 1155.99 1547.52 1185.12 1532.58 1218.64 1501.74 z" fill="rgb(222,213,192)" transform="translate(0,0)"></path>
<path d="M 908.983 658.914 C 933.509 660.193 959.358 655.452 983.889 653.376 C 993.192 652.589 1001.27 650.633 1010.59 652.479 L 1009.56 653.864 C 986.808 663.885 892.21 678.436 875.002 652.776 C 836.493 593.113 850.131 486.087 944.031 511.745 C 974.571 520.09 1038.66 594.247 1036 623.864 C 1032.35 618.781 1028.58 613.782 1024.7 608.871 L 1023.27 610.873 L 1021.91 610.712 C 1011 611.946 1007.29 612.882 996.389 612.336 L 998.975 611.816 C 991.564 611.463 987.003 613.955 979.887 616.218 L 981.738 619.757 C 981.283 620.273 972.685 623.272 969.089 625.786 L 969.043 627.331 C 956.129 634.909 942.538 642.652 929.94 650.623 L 926.015 648.862 C 922.337 652.964 914.133 656.416 908.983 658.914 z" fill="rgb(62,8,2)" transform="translate(0,0)"></path>
<path d="M 908.983 658.914 C 933.509 660.193 959.358 655.452 983.889 653.376 C 993.192 652.589 1001.27 650.633 1010.59 652.479 L 1009.56 653.864 C 986.808 663.885 892.21 678.436 875.002 652.776 C 836.493 593.113 850.131 486.087 944.031 511.745 C 974.571 520.09 1038.66 594.247 1036 623.864 C 1032.35 618.781 1028.58 613.782 1024.7 608.871 C 1005.1 573.154 981.349 531.109 939.319 518.893 C 912.772 511.178 877.069 519.8 868.581 553.599 C 863.5 573.832 869.267 643.84 896.51 656.742 C 900.489 658.627 917.234 648.348 926.015 648.862 C 922.337 652.964 914.133 656.416 908.983 658.914 z" fill="rgb(254,253,249)" transform="translate(0,0)"></path>
<path d="M 1015.48 603.087 L 1021.91 610.712 C 1011 611.946 1007.29 612.882 996.389 612.336 L 998.975 611.816 C 991.564 611.463 987.003 613.955 979.887 616.218 C 951.941 624.512 911.324 632.112 882.684 630.249 C 881.081 627.018 879.492 622.864 878.079 619.469 C 908.176 624.55 984.856 611.723 1015.48 603.087 z" fill="rgb(254,253,249)" transform="translate(0,0)"></path>
<path d="M 914.497 522.295 C 957.142 519.106 985.968 554.354 1006.74 586.81 C 991.962 587.125 974.008 589.959 959.008 591.802 C 930.579 596.458 903.665 598.259 874.997 599.878 C 868.059 563.802 870.473 528.635 914.497 522.295 z" fill="rgb(254,253,249)" transform="translate(0,0)"></path>
<path d="M 1006.71 592.435 L 1008.07 592.223 C 1010.83 593.778 1010.63 594.018 1012.31 596.815 L 1011.92 598.395 C 959.821 611.337 935.418 611.573 883.249 613.66 C 878.326 613.435 878.942 614.294 876.41 611.685 C 875.779 608.09 875.43 609.638 876.887 606.794 C 882.61 603.392 900.562 604.228 908.781 603.449 C 941.483 600.336 974.13 596.664 1006.71 592.435 z" fill="url(#Gradient5)" transform="translate(0,0)"></path>
<path d="M 959.515 626.274 L 960.245 626.354 L 959.551 627.459 C 943.236 636.136 911.977 651.677 893.429 646.237 C 890.878 643.631 888.291 639.943 886.06 636.977 C 913.983 637.316 933.196 633.241 959.515 626.274 z" fill="rgb(240,232,213)" transform="translate(0,0)"></path>
<path d="M 685.433 446.955 C 687.588 446.886 690.869 446.693 692.73 447.829 C 717.201 462.765 739.173 483.565 765.562 495.535 C 797.615 510.075 835.146 515.571 869.697 521.462 C 850.453 543.499 849.779 558.452 849.941 586.629 C 850.034 589.997 850.373 593.33 850.657 596.688 C 840.018 595.689 820.483 594.036 808.698 592.297 C 785.721 588.905 703.984 575.385 689.175 559.196 C 685.157 554.805 675.87 466.727 678.149 455.732 C 679.252 450.413 680.864 449.845 685.433 446.955 z" fill="rgb(254,253,249)" transform="translate(0,0)"></path>
<path d="M 1691.41 1108.35 C 1705.82 1107.02 1730.64 1110.51 1745.45 1112.98 C 1792.34 1120.8 1847.25 1130.57 1885.36 1161.04 C 1899.16 1172.07 1902.73 1182.58 1903.69 1199.48 C 1860.83 1294.49 1485.12 1273.74 1394.03 1261.85 C 1360.01 1257.29 1326.31 1250.55 1293.16 1241.67 L 1276.92 1237.49 L 1277.22 1220.14 C 1401.18 1256.08 1566.39 1264.98 1695.1 1252.58 C 1736.7 1248.57 1847.2 1234.14 1878.55 1201.56 C 1881.55 1198.43 1883.75 1191.53 1882.69 1186.88 C 1876.43 1159.58 1825.01 1149.04 1801.55 1142.98 C 1791.16 1140.29 1774.87 1139.27 1765.31 1136.23 C 1750.02 1131 1736.4 1123.11 1720.91 1118.16 C 1713.55 1115.81 1696.47 1112.84 1691.41 1108.35 z" fill="rgb(254,253,249)" transform="translate(0,0)"></path>
<path d="M 1418.48 1481.87 C 1423.83 1482.3 1431.27 1483.78 1436.76 1484.76 C 1500.76 1496.17 1561.75 1495.21 1626.13 1489.76 C 1649.05 1501.55 1672.03 1513.21 1695.09 1524.74 C 1708.69 1531.49 1725.41 1539.12 1738.3 1546.64 C 1730.64 1548.97 1722.56 1551.12 1714.83 1553.31 C 1679.85 1562.42 1646.19 1572.21 1610.82 1580.92 C 1598.02 1573.23 1576.44 1562.9 1562.46 1555.81 C 1528.87 1539.14 1495.42 1522.17 1462.12 1504.91 C 1448.41 1497.78 1431.55 1489.53 1418.48 1481.87 z" fill="rgb(240,232,213)" transform="translate(0,0)"></path>
<path d="M 1793.54 1431.76 C 1802.26 1434.03 1875.43 1482.42 1890.23 1490.82 C 1842.84 1514.34 1794.81 1530 1744.19 1544.83 L 1735.49 1539.58 C 1702.32 1522.85 1666.94 1504.36 1633.73 1488.52 C 1680.55 1480.89 1729.44 1474.22 1770.5 1448.3 C 1778.41 1443.31 1786.06 1437.39 1793.54 1431.76 z" fill="rgb(191,180,154)" transform="translate(0,0)"></path>
<path d="M 819.582 661.025 C 847.041 672.368 905.53 677.222 935.309 673.83 C 947.671 672.421 966.115 669.128 977.507 668.564 L 979.317 668.486 C 968.503 674.819 957.294 681.36 947.426 689.07 C 913.831 715.317 888.03 761.477 882.424 803.606 C 878.006 799.285 873.075 793.404 868.913 788.684 C 856.313 774.044 809.958 720.538 786.359 728.362 C 767.608 734.579 785.719 763.939 792.031 775.553 C 788.942 783.523 786.741 786.685 781.804 793.291 C 780.168 777.721 767.277 757.79 767.215 747.705 C 767.071 724.296 805.283 677.915 819.582 661.025 z" fill="rgb(254,253,249)" transform="translate(0,0)"></path>
<path d="M 1060.43 594.533 C 1055.87 594.518 1055.46 595.31 1052.43 593.211 C 1051.13 588.055 1057.17 569.868 1059.1 563.598 C 1074.07 514.854 1136.36 486.52 1181.56 510.843 C 1198.2 519.793 1204.25 545.172 1196.34 561.807 C 1194.14 566.865 1190.26 571.785 1187.78 576.898 C 1176.31 583.665 1167.05 591.481 1154.46 594.502 C 1131.28 600.928 1114.41 608.103 1090.05 612.052 L 1088.15 612.469 C 1083.41 613.527 1061.87 620.874 1059.58 620.769 C 1059.39 619.121 1059.18 617.475 1058.96 615.831 C 1058.55 614.957 1057.28 607.623 1056.71 605.657 L 1056.21 606.644 L 1049.69 606.578 C 1050.15 603.01 1050.23 602.41 1051.3 599.018 C 1054.55 596.684 1054.71 597.457 1059.48 597.134 L 1060.43 594.533 z" fill="rgb(62,8,2)" transform="translate(0,0)"></path>
<path d="M 1060.43 594.533 C 1055.87 594.518 1055.46 595.31 1052.43 593.211 C 1051.13 588.055 1057.17 569.868 1059.1 563.598 C 1074.07 514.854 1136.36 486.52 1181.56 510.843 C 1198.2 519.793 1204.25 545.172 1196.34 561.807 C 1194.14 566.865 1190.26 571.785 1187.78 576.898 C 1176.31 583.665 1167.05 591.481 1154.46 594.502 L 1152.16 592.166 C 1177.34 585.975 1207.58 534.827 1174.94 517.91 C 1143.67 501.707 1092.2 516.264 1076.02 548.763 C 1068.54 563.553 1061.98 578.586 1060.43 594.533 z" fill="rgb(254,253,249)" transform="translate(0,0)"></path>
<path d="M 1058.96 615.831 C 1065.62 612.12 1081.69 610.086 1089.25 610.395 L 1090.05 612.052 L 1088.15 612.469 C 1083.41 613.527 1061.87 620.874 1059.58 620.769 C 1059.39 619.121 1059.18 617.475 1058.96 615.831 z" fill="rgb(240,232,213)" transform="translate(0,0)"></path>
<path d="M 1089.25 610.395 C 1104.1 606.218 1130.59 601.828 1143.02 596.213 L 1152.16 592.166 L 1154.46 594.502 C 1131.28 600.928 1114.41 608.103 1090.05 612.052 L 1089.25 610.395 z" fill="rgb(222,213,192)" transform="translate(0,0)"></path>
<path d="M 1049.69 606.578 C 1050.15 603.01 1050.23 602.41 1051.3 599.018 C 1054.55 596.684 1054.71 597.457 1059.48 597.134 L 1056.71 605.657 L 1056.21 606.644 L 1049.69 606.578 z" fill="rgb(254,253,249)" transform="translate(0,0)"></path>
<path d="M 1135.19 518.358 C 1152.01 515.788 1178.69 517.474 1182.6 538.986 C 1184.66 550.267 1178.17 559.31 1171.98 568.069 C 1153.46 569.476 1135.13 568.404 1115.76 570.228 C 1100.28 571.746 1085.49 573.91 1070.09 576.139 C 1082.31 541.207 1097.58 523.444 1135.19 518.358 z" fill="rgb(254,253,249)" transform="translate(0,0)"></path>
<path d="M 1154.71 584.225 C 1155.31 584.403 1155.92 584.58 1156.52 584.758 C 1140.01 595.585 1087.92 604.206 1066.23 607.874 C 1064.34 608.032 1065.33 608.154 1063.31 607.29 C 1062.54 604.042 1063.9 599.863 1064.68 596.431 C 1093.36 591.013 1129.64 589.671 1154.71 584.225 z" fill="rgb(254,253,249)" transform="translate(0,0)"></path>
<path d="M 1134.64 574.425 C 1140.19 574.187 1162.21 572.051 1165.17 575.569 C 1160.05 582.08 1142.01 581.468 1133.73 582.019 C 1121.75 582.817 1110.67 583.705 1098.76 585.419 C 1092.61 586.163 1070.19 590.842 1066.62 587.808 C 1067.12 577.087 1124.37 575.001 1134.64 574.425 z" fill="rgb(254,253,249)" transform="translate(0,0)"></path>
<path d="M 1971.39 1659.7 C 1976.37 1680.69 1952.51 1690.64 1936.57 1695.81 C 1883.62 1713.01 1829.95 1727.93 1776.81 1744.44 L 1298.22 1892.92 C 1235.24 1912.42 1172.48 1932.58 1109.93 1953.4 C 1087.09 1961.14 1064.19 1968.71 1041.24 1976.11 C 1016.81 1984.01 987.828 1997.86 965.371 1979.45 C 962.976 1976.73 960.302 1972.44 958.23 1969.34 C 972.955 1976.02 987.769 1978.73 1003.7 1975.16 C 1024.84 1970.42 1046.43 1963.09 1067.06 1956.35 L 1139.98 1932.64 L 1336.82 1869.3 L 1747.29 1741.5 C 1809.74 1722.35 1873.14 1704.58 1935.43 1684.68 C 1952.43 1679.25 1962.74 1676.61 1971.39 1659.7 z" fill="rgb(222,213,192)" transform="translate(0,0)"></path>
<path d="M 1132.38 645.444 C 1144.25 652.966 1155.8 662.233 1167.63 669.325 C 1197.83 687.428 1228.59 705.585 1260.67 720.141 C 1265.69 722.419 1271.26 724.624 1276.06 727.226 C 1262.86 742.959 1250.09 759.668 1232.14 770.279 C 1213.63 781.228 1195.08 788.171 1173.53 783.399 L 1175.72 780.812 C 1175.74 773.322 1138.75 707.573 1131.95 697.162 C 1124.35 685.533 1108.75 665.462 1100.48 653.357 C 1110.95 650.723 1121.89 647.782 1132.38 645.444 z" fill="rgb(254,253,249)" transform="translate(0,0)"></path>
<path d="M 1050.78 659.161 C 1059.87 658.659 1074.06 658.317 1082.71 657.127 C 1111.21 689.732 1132.8 733.608 1157.72 767.137 C 1148.55 776.239 1139.85 785.805 1131.67 795.798 C 1117.71 812.564 1098.96 841.746 1075.01 841.723 C 1069.05 841.717 1060.33 838.448 1059.67 831.569 L 1060.35 830.706 L 1062.63 831.391 C 1070.76 825.775 1079.14 809.899 1082.34 800.59 C 1073.32 788.202 1069.58 774.51 1066.83 759.624 C 1060.75 726.667 1053.79 692.505 1050.78 659.161 z" fill="rgb(254,253,249)" transform="translate(0,0)"></path>
<path d="M 1848.47 1366.52 C 1858.37 1374.54 1870.91 1380.65 1881.67 1387.35 C 1911.77 1406.11 1949.11 1423.08 1978.16 1442.66 C 1961 1454.61 1935.97 1468.51 1917.27 1477.65 C 1910.65 1480.98 1903.45 1484.06 1896.66 1487.1 C 1882.07 1479.97 1865.45 1468.97 1851.55 1460.24 L 1798.25 1427.29 C 1823.42 1403.24 1829.03 1394.3 1848.47 1366.52 z" fill="rgb(240,232,213)" transform="translate(0,0)"></path>
<path d="M 1226.13 612.226 C 1240.48 616.643 1326.22 684.459 1337.87 698.875 C 1326.43 708.139 1310.67 715.74 1296.3 718.996 C 1287 716.392 1281.75 714.302 1272.75 710.545 C 1235.84 693.003 1181.94 667.489 1150.79 640.542 C 1175.89 632.64 1201.71 622.261 1226.13 612.226 z" fill="rgb(254,253,249)" transform="translate(0,0)"></path>
<path d="M 1020.5 670.024 L 1021.54 670.353 C 1021.62 676.302 1009.73 698.117 1006.9 704.971 C 986.57 754.271 963.594 800.787 937.838 847.59 C 928.414 845.509 923.9 844.315 915.648 839.306 C 884.425 808.996 925.726 726.502 955.947 706.044 C 975.455 692.838 999.178 680.371 1020.5 670.024 z" fill="rgb(254,253,249)" transform="translate(0,0)"></path>
<path d="M 403.503 1822.45 C 426.138 1822.51 444.76 1826.28 458.242 1846.45 C 455.417 1852.38 450.754 1858.89 445.562 1862.93 C 407.099 1892.85 375.097 1895.8 330.249 1893.09 C 311.398 1892.62 291.203 1890.14 272.411 1888.03 C 309.516 1849.12 349.201 1825.1 403.503 1822.45 z" fill="rgb(240,232,213)" transform="translate(0,0)"></path>
<path d="M 1192.4 459.157 C 1209 474.145 1202.41 499.159 1199.31 518.781 C 1169.39 487.638 1128.09 491.071 1091.67 511.769 C 1068.73 524.808 1054.41 552.732 1048.63 578.148 C 1039.27 580.89 1035.66 581.476 1026.08 582.609 C 1022.37 576.83 1017.87 570.842 1013.82 565.233 C 996.367 543.2 985.75 529.487 962.504 512.986 C 981.48 513.061 1020.89 512.676 1038.94 509.138 C 1076.98 501.68 1159.93 477.71 1192.4 459.157 z" fill="rgb(254,253,249)" transform="translate(0,0)"></path>
<path d="M 892.595 1775.32 C 898.705 1774.3 910.076 1775.73 916.61 1776.41 C 917.022 1794.58 910.117 1805.62 899.83 1820.39 C 874.629 1856.56 840.109 1862.09 800.157 1869.25 L 777.917 1873.54 C 814.788 1818.54 817.898 1787.75 892.595 1775.32 z" fill="rgb(240,232,213)" transform="translate(0,0)"></path>
<path d="M 1007.66 1758.41 C 1014.84 1757.7 1020.4 1757.94 1027.6 1758.13 C 1028.43 1758.63 1029.25 1759.15 1030.05 1759.69 C 1043.98 1768.99 1028.08 1788.85 1021.2 1798.09 C 996.737 1830.98 969.152 1837.87 930.202 1842.71 C 920.227 1844.05 910.385 1844.74 900.362 1845.53 C 909.989 1829 917.318 1808.76 930.456 1793.84 C 952.427 1768.9 975.757 1760.91 1007.66 1758.41 z" fill="rgb(240,232,213)" transform="translate(0,0)"></path>
<path d="M 775.918 1793.38 C 808.372 1788.82 802.566 1807.41 789.927 1827.37 C 764.95 1866.81 733.047 1876.45 689.748 1885.28 C 681.452 1886.97 673.767 1888.22 665.392 1889.51 C 691.024 1833.21 711.226 1801.73 775.918 1793.38 z" fill="rgb(240,232,213)" transform="translate(0,0)"></path>
<path d="M 979.926 1672.44 C 1024.22 1669.81 1103.18 1681.53 1132.18 1718.38 C 1140.18 1728.55 1139.26 1733.7 1127.75 1739.28 C 1116.3 1743.3 1100.54 1744.28 1088.42 1744.06 C 1040.7 1743.17 1006.38 1707.26 975.758 1674.9 L 975.997 1673.37 L 979.926 1672.44 z" fill="rgb(240,232,213)" transform="translate(0,0)"></path>
<path d="M 870.059 1678.99 C 875.15 1678.95 880.24 1679.01 885.328 1679.19 C 923.591 1680.46 962.966 1685.24 995.434 1707.11 C 1006.08 1714.28 1035.65 1730.19 1016.13 1743.93 C 998.775 1753.56 974.595 1754.9 955.476 1750.9 C 916.202 1742.7 891.091 1710.23 870.059 1678.99 z" fill="rgb(240,232,213)" transform="translate(0,0)"></path>
<path d="M 664.511 1813.4 C 694.504 1809.25 691.462 1825.12 680.199 1843.95 C 657.097 1882.58 623.724 1892.83 582.563 1902.27 C 573.676 1904.43 566.255 1905.44 557.249 1906.72 C 585.124 1849.4 595.582 1821.01 664.511 1813.4 z" fill="rgb(240,232,213)" transform="translate(0,0)"></path>
<path d="M 1114.52 1751.39 C 1151.19 1746.17 1140.98 1770.42 1125.96 1789.51 C 1099.47 1823.17 1072.16 1829.03 1032.11 1833.73 C 1021.63 1835.02 1014.66 1835.15 1004.22 1835.28 C 1014.88 1821.59 1021.31 1805.99 1032.67 1792.29 C 1057.3 1762.59 1078.59 1755.63 1114.52 1751.39 z" fill="rgb(240,232,213)" transform="translate(0,0)"></path>
<path d="M 700.625 1727.42 C 726.005 1724.51 764.727 1730.91 785.954 1745.71 C 792.352 1750.17 801.008 1757.15 802.275 1765.28 C 802.778 1768.39 801.858 1771.56 799.77 1773.92 C 791.613 1783.28 771.556 1786.26 759.758 1787.27 C 753.754 1788.09 745.112 1788.27 739.103 1787.59 C 694.07 1782.49 681.154 1764.24 654.991 1733.22 C 671.953 1729.65 683.585 1728.61 700.625 1727.42 z" fill="rgb(240,232,213)" transform="translate(0,0)"></path>
<path d="M 580.54 1748.41 C 603.069 1745.53 639.696 1749.1 659.759 1758.99 C 716.643 1787.05 676.435 1801.45 638.836 1804.63 C 630.205 1804.7 621.595 1803.78 613.17 1801.91 C 590.059 1796.98 542.103 1777.01 529.215 1756.94 C 543.196 1752.62 566.167 1749.23 580.54 1748.41 z" fill="rgb(240,232,213)" transform="translate(0,0)"></path>
<path d="M 554.798 1832.4 C 561.628 1832.84 570.241 1834.76 572.472 1842.59 C 574.214 1848.7 571.68 1857.65 568.221 1862.88 C 545.329 1897.47 504.372 1910.77 465.946 1919.78 C 459.444 1921.19 454.312 1921.3 447.689 1921.66 C 457.689 1896.11 469.095 1866.95 493.24 1851.66 C 510.877 1840.49 534.109 1834.03 554.798 1832.4 z" fill="rgb(240,232,213)" transform="translate(0,0)"></path>
<path d="M 807.657 1706.44 C 837.833 1704.13 873.59 1711.61 898.962 1728.49 C 910.572 1736.22 912.83 1740.39 915.257 1752.75 C 904.369 1763.64 894.812 1764.29 880.244 1765.87 C 836.316 1770.11 798.869 1754.33 771.909 1718.61 C 770.135 1716.26 770.078 1715.32 770.74 1712.75 C 778.173 1707.17 797.771 1706.99 807.657 1706.44 z" fill="rgb(240,232,213)" transform="translate(0,0)"></path>
<path d="M 596.219 1251.19 C 598.398 1251 597.306 1250.81 599.449 1251.97 C 601.833 1279.67 602.675 1308.47 605.215 1337.25 C 582.155 1327.94 552.846 1312.45 530.279 1301.06 C 514.191 1292.64 497.402 1285.61 481.312 1276.97 C 519.75 1268.99 558.057 1260.39 596.219 1251.19 z" fill="rgb(222,213,192)" transform="translate(0,0)"></path>
<path d="M 1034.16 684.577 C 1040.8 698.548 1049.56 773.45 1053.5 793.867 C 1029.53 808.374 1005.57 825.355 981.011 837.922 C 975.305 840.96 971.22 842.443 965.182 844.717 C 998.959 785.365 1012.99 750.752 1034.16 684.577 z" fill="rgb(254,253,249)" transform="translate(0,0)"></path>
<path d="M 1580.14 1718.5 C 1601.07 1717.98 1620.82 1718.34 1641.71 1718.79 C 1613.28 1728.24 1602.84 1727.77 1573.48 1727.94 C 1556.48 1728.02 1539.48 1728.27 1522.49 1728.68 C 1488.93 1729.43 1455.39 1730.56 1421.86 1732.06 C 1381.2 1733.68 1342.11 1736.47 1301.5 1739.09 C 1265.7 1741.1 1229.94 1743.69 1194.22 1746.86 C 1179.25 1747.56 1161.59 1749.72 1146.48 1751.21 C 1144.15 1748.53 1141.52 1745.89 1139.05 1743.33 C 1151.55 1742.64 1167.36 1740.48 1180.18 1739.19 C 1211.77 1735.81 1243.41 1732.87 1275.08 1730.38 C 1376.6 1722.9 1478.35 1718.94 1580.14 1718.5 z" fill="rgb(222,213,192)" transform="translate(0,0)"></path>
<path d="M 1035.67 656.848 L 1035.97 657.175 C 1036.66 659.89 1027.94 685.558 1026.54 690.048 C 1007.03 753.633 978.667 814.154 942.279 869.828 C 915.207 911.669 888.645 943.626 868.173 990.005 C 859.706 1009.1 853.799 1029.24 850.605 1049.88 C 848.908 1060.79 850.623 1074.01 848.294 1084.73 C 847.707 1087.42 843.856 1088.5 841.192 1089.71 C 840.901 1089.24 839.991 1087.85 839.954 1087.41 C 832.181 992.183 900.194 925.802 943.074 849.066 C 968.822 802.991 992.218 756.719 1012.8 708.107 C 1020.04 690.994 1027.28 673.404 1035.67 656.848 z" fill="rgb(254,253,249)" transform="translate(0,0)"></path>
<path d="M 1191.39 597.692 C 1196.27 596.776 1204.19 594.779 1208.55 596.732 C 1196.56 605.693 1107 635.018 1091.4 635.972 C 1082.11 638.769 1065.83 641.061 1055.91 642.476 L 1047.59 639.956 C 1046.78 637.381 1046.82 637.526 1045.18 635.369 C 1042.04 636.63 1037.97 638.728 1034.97 636.916 C 1035.81 634.11 1039.36 632.261 1041.94 630.456 C 1049 628.021 1062.25 623.61 1069.23 623.23 C 1082.07 619.916 1095 617.765 1107.86 614.116 C 1133 606.983 1152.78 598.448 1179.66 597.92 C 1180.49 597.673 1189.94 597.638 1191.39 597.692 z" fill="url(#Gradient4)" transform="translate(0,0)"></path>
<path d="M 1069.23 623.23 C 1082.07 619.916 1095 617.765 1107.86 614.116 C 1133 606.983 1152.78 598.448 1179.66 597.92 C 1169.08 604.954 1101.62 624.19 1086.24 626.697 C 1083.48 626.095 1078.66 626.023 1075.65 625.882 C 1073.09 625.044 1071.65 624.329 1069.23 623.23 z" fill="rgb(240,232,213)" transform="translate(0,0)"></path>
<path d="M 1191.39 597.692 C 1196.27 596.776 1204.19 594.779 1208.55 596.732 C 1196.56 605.693 1107 635.018 1091.4 635.972 L 1090.68 634.652 L 1091.42 632.629 C 1093.84 630.169 1102.42 628.935 1106.05 628.187 C 1136.17 621.98 1163.17 609.543 1191.39 597.692 z" fill="rgb(240,232,213)" transform="translate(0,0)"></path>
<path d="M 1041.94 630.456 C 1049 628.021 1062.25 623.61 1069.23 623.23 C 1071.65 624.329 1073.09 625.044 1075.65 625.882 C 1078.66 626.023 1083.48 626.095 1086.24 626.697 L 1082.5 628.734 C 1074.93 630.992 1063.58 634.001 1055.78 634.279 L 1053.58 634.195 L 1051.98 635.978 L 1052.49 637.732 L 1053.74 638.406 L 1047.59 639.956 C 1046.78 637.381 1046.82 637.526 1045.18 635.369 C 1042.04 636.63 1037.97 638.728 1034.97 636.916 C 1035.81 634.11 1039.36 632.261 1041.94 630.456 z" fill="rgb(78,24,11)" transform="translate(0,0)"></path>
<path d="M 1041.94 630.456 C 1049 628.021 1062.25 623.61 1069.23 623.23 C 1071.65 624.329 1073.09 625.044 1075.65 625.882 C 1060.9 625.793 1057.98 627.867 1045.18 635.369 C 1042.04 636.63 1037.97 638.728 1034.97 636.916 C 1035.81 634.11 1039.36 632.261 1041.94 630.456 z" fill="rgb(240,232,213)" transform="translate(0,0)"></path>
<path d="M 1055.78 634.279 C 1061.76 628.591 1074.65 627.215 1082.5 628.734 C 1074.93 630.992 1063.58 634.001 1055.78 634.279 z" fill="rgb(240,232,213)" transform="translate(0,0)"></path>
<path d="M 1053.74 638.406 C 1061.07 637.929 1085.83 632.16 1090.68 634.652 L 1091.4 635.972 C 1082.11 638.769 1065.83 641.061 1055.91 642.476 L 1047.59 639.956 L 1053.74 638.406 z" fill="rgb(240,232,213)" transform="translate(0,0)"></path>
<path d="M 1022.2 654.059 C 1023.42 654.327 1024.68 655.348 1025.87 656.103 C 1026.48 657.927 1027.07 658.679 1025.59 659.671 C 1016.72 665.614 996.564 675.929 987.301 680.533 C 951.345 698.407 928.844 716.667 912.992 754.452 C 902.91 780.744 892.277 805.624 903.051 833.35 C 909.601 850.206 930.814 848.271 933.358 855.058 L 931.022 859.458 C 866.637 842.65 887.422 787.751 909.504 743.972 C 929.565 704.2 979.569 666.094 1022.2 654.059 z" fill="rgb(254,253,249)" transform="translate(0,0)"></path>
<path d="M 671.444 566.497 C 674.501 568.867 676.688 576.643 678.134 580.644 C 709.61 605.469 767.058 609.113 806.399 613.759 C 821.165 615.503 838.989 613.171 853.692 616.66 C 855.276 619.23 854.831 620.928 854.676 623.978 C 810.469 624.491 737.725 618.539 696.449 602.146 C 687.447 598.57 672.12 587.479 669.882 577.962 C 668.483 572.011 668.908 571.893 671.444 566.497 z" fill="rgb(240,232,213)" transform="translate(0,0)"></path>
<path d="M 969.043 627.331 C 986.59 621.625 1006.22 616.559 1024.81 616.934 C 1027.85 620.881 1031.14 625.383 1034.32 629.139 C 1031.48 631.391 1028.22 633.842 1025.5 636.191 C 1001.89 633.318 989.256 634.589 965.708 639.164 C 960.52 640.172 956.047 639.224 950.607 641.599 L 950.647 643.15 C 954.362 646.007 960.4 644.835 964.988 644.167 C 987.188 640.93 1007.21 638.94 1029.68 642.139 C 1026.18 644.095 1022.65 646.004 1019.1 647.864 C 1008.8 646.428 1006.68 646.519 997.472 646.681 C 985.816 646.886 934.784 655.494 927.699 652.867 L 929.94 650.623 C 942.538 642.652 956.129 634.909 969.043 627.331 z" fill="rgb(240,232,213)" transform="translate(0,0)"></path>
<path d="M 1777.21 1145.03 C 1796.6 1144.5 1830.96 1155.87 1848.78 1163.67 C 1864.24 1170.44 1882.45 1180.88 1872.41 1199.98 L 1868.34 1203.68 C 1862.4 1204.08 1848.01 1188.2 1841.06 1183.44 C 1820.59 1169.32 1799.27 1156.49 1777.21 1145.03 z" fill="rgb(254,253,249)" transform="translate(0,0)"></path>
<path d="M 1222.19 595.715 C 1225.95 596.719 1227.43 597.137 1228.2 600.867 C 1227.82 601.578 1227.19 602.878 1226.55 603.234 C 1178.48 629.746 1104.64 649.006 1051.77 653.218 C 1049.56 653.503 1049.55 653.398 1047.29 653.255 L 1046.21 651.831 C 1050.92 645.758 1071.82 645.231 1079.53 643.626 C 1127 633.75 1179.81 619.725 1222.19 595.715 z" fill="rgb(254,253,249)" transform="translate(0,0)"></path>
<path d="M 1059.67 831.569 C 1058.1 821.838 1060.83 808.296 1059.39 797.955 C 1055.99 773.302 1052.7 748.481 1048.71 723.941 C 1046.38 709.623 1035.14 667.915 1043.29 655.49 C 1047.6 661.632 1058.27 761.808 1065.46 776.172 C 1066.47 778.186 1070.09 788.885 1070.26 791.259 L 1070.46 792.824 C 1071.47 800.416 1075.71 809.841 1066.65 815.933 C 1065.51 821.794 1061.48 822.28 1060.35 830.706 L 1059.67 831.569 z" fill="url(#Gradient3)" transform="translate(0,0)"></path>
<path d="M 1066.65 815.933 C 1067.23 804.263 1064.82 799.948 1065.12 790.907 L 1066.56 789.708 L 1070.26 791.259 L 1070.46 792.824 C 1071.47 800.416 1075.71 809.841 1066.65 815.933 z" fill="rgb(62,8,2)" transform="translate(0,0)"></path>
<path d="M 809.57 601.254 C 771.875 600.511 716.66 592.601 683.596 573.584 C 675.416 568.879 670.464 551.61 677.806 543.32 C 681.475 551.157 680.217 556.289 685.084 564.993 C 712.494 583.544 785.923 596.916 818.786 599.282 C 815.087 601.089 813.8 600.913 809.57 601.254 z" fill="url(#Gradient2)" transform="translate(0,0)"></path>
<path d="M 553.662 1786.63 C 562.6 1788.02 572.789 1795.99 581.456 1799.66 C 598.429 1806.84 613.467 1809.39 631.451 1811.3 C 626.309 1813.8 620.338 1816.2 615.013 1818.47 C 602.751 1821.87 579.991 1823.7 566.52 1825.12 C 588.545 1810.11 567.419 1798.09 553.662 1786.63 z" fill="rgb(222,213,192)" transform="translate(0,0)"></path>
<path d="M 726.435 618.217 C 755.759 620.308 768.548 632.782 795.573 642.112 C 818.155 649.908 847.139 656.048 870.919 659.565 C 875.645 663.727 877.004 664.363 882.453 667.191 C 841.59 666.17 762.514 638.434 726.435 618.217 z" fill="rgb(254,253,249)" transform="translate(0,0)"></path>
<path d="M 1279.47 1119.28 C 1299.9 1118.65 1314.61 1118.1 1335.03 1120.31 L 1323.54 1126.7 L 1306.33 1136.76 C 1297.1 1136.7 1288.26 1136.78 1279.09 1137.96 L 1279.47 1119.28 z" fill="rgb(254,253,249)" transform="translate(0,0)"></path>
<path d="M 578.161 713.275 C 580.283 713.152 582.407 713.074 584.533 713.042 C 597.346 712.889 615.285 719.047 625.072 727.567 C 628.304 730.38 631.252 737.938 627.421 741.631 L 624.785 741.193 C 620.032 739.764 572.229 717.74 571.121 716.543 C 573.117 714.486 575.167 714.287 578.161 713.275 z" fill="rgb(222,213,192)" transform="translate(0,0)"></path>
<path d="M 771.372 625.07 C 797.519 626.29 821.587 629.446 849.416 630.212 L 840.761 635.836 C 835.539 639.334 830.525 642.049 825.038 645.093 C 809.124 641.162 785.008 634.116 771.372 625.07 z" fill="rgb(240,232,213)" transform="translate(0,0)"></path>
<path d="M 852.899 1773.43 C 857.22 1772.98 864.226 1773.11 868.757 1773.05 C 861.354 1775.78 853.639 1780.21 846.251 1782.57 C 834.413 1786.35 818.098 1788.46 805.761 1789.88 C 800.084 1789.27 793.901 1789.08 788.164 1788.78 C 814.071 1774.16 822.444 1775.31 852.899 1773.43 z" fill="rgb(240,232,213)" transform="translate(0,0)"></path>
<path d="M 1162.91 766.109 C 1140.89 733.876 1121.74 699.596 1098.15 668.332 C 1095.99 665.467 1090.88 659.133 1090.84 655.725 L 1092.88 655.184 C 1098.76 657.144 1104.22 668.902 1108.31 674.007 C 1131.43 702.855 1146.97 733.019 1164.39 765.518 L 1162.91 766.109 z" fill="rgb(254,253,249)" transform="translate(0,0)"></path>
<path d="M 939.592 1755.39 C 945.058 1754.41 962.775 1757.18 969.493 1757.91 L 962.605 1761.37 C 952.219 1766.62 942.647 1766.46 931.191 1767.24 C 921.727 1768.57 911.504 1768.9 901.949 1769.19 C 909.71 1764.53 911.951 1763.02 918.821 1757.12 C 925.817 1757.21 932.64 1756.21 939.592 1755.39 z" fill="rgb(240,232,213)" transform="translate(0,0)"></path>
<path d="M 710.293 1790.37 C 715.728 1790.05 732.576 1793.58 738.741 1794.77 C 726.044 1799.14 709.625 1802.03 696.266 1804.73 C 684.093 1806.74 684.926 1809.18 671.98 1805.93 C 687.616 1797.26 692.778 1792.56 710.293 1790.37 z" fill="rgb(222,213,192)" transform="translate(0,0)"></path>
<path d="M 787.073 733.992 C 796.017 733.157 799.463 735.214 807.602 738.66 C 804.636 747.841 801.589 754.891 797.805 763.707 C 796.822 766.041 796.95 766.223 795.17 767.947 C 790.469 763.575 785.223 750.937 783.97 744.478 C 783.01 739.525 784.34 737.661 787.073 733.992 z" fill="rgb(191,180,154)" transform="translate(0,0)"></path>
<path d="M 1140.89 641.408 C 1150.23 645.678 1168.89 661.962 1179.58 668.224 C 1212.05 687.244 1244.43 705.033 1279.46 719.057 C 1283.88 720.825 1289.33 720.239 1292.02 724.293 L 1289.96 727.163 C 1287.71 726.79 1288 726.608 1285.92 725.755 C 1241.04 707.318 1198.41 683.189 1158.01 656.424 C 1154.26 653.939 1141.58 646.05 1139 643.52 L 1140.89 641.408 z" fill="rgb(240,232,213)" transform="translate(0,0)"></path>
<path d="M 1035.62 811.564 L 1036.3 813.208 C 1022.03 821.767 972.631 863.089 956.297 859.131 L 956.285 857.465 C 962.034 849.425 970.603 848.993 979.337 845.119 C 999.626 836.121 1016.93 823.361 1035.62 811.564 z" fill="rgb(240,232,213)" transform="translate(0,0)"></path>
<path d="M 1028.8 1740.46 C 1038.11 1739.55 1058.52 1743.23 1066.1 1748.42 C 1063.75 1750.08 1058.96 1750.02 1055.81 1750.26 C 1045.6 1751.61 1029.9 1751.86 1019.59 1751.91 C 1023.4 1747.94 1025.57 1744.85 1028.8 1740.46 z" fill="rgb(240,232,213)" transform="translate(0,0)"></path>
<path d="M 841.185 605.61 C 844.721 605.557 849.01 604.766 851.151 607.807 C 843.256 612.539 781.25 605.681 768.405 604.699 C 766.245 604.534 740.19 599.241 739.562 598.837 L 740.633 598.468 C 743.694 600.048 769.923 602.591 775.121 603.113 C 789.006 604.49 802.952 605.182 816.906 605.187 C 820.331 603.156 821.2 603.138 825.177 602.223 L 829.851 602.606 C 834.113 604.403 837.736 604.044 841.185 605.61 z" fill="rgb(222,213,192)" transform="translate(0,0)"></path>
<path d="M 825.177 602.223 L 829.851 602.606 C 834.113 604.403 837.736 604.044 841.185 605.61 L 816.906 605.187 C 820.331 603.156 821.2 603.138 825.177 602.223 z" fill="rgb(62,8,2)" transform="translate(0,0)"></path>
<path d="M 856.531 633.74 C 858.004 633.905 857.144 633.671 858.925 634.93 C 857.178 636.866 857.424 636.57 855.036 637.468 C 855.709 637.67 860.282 639.13 860.361 639.242 C 863.067 643.082 867.328 650.266 869.576 654.024 L 857.77 652.104 C 849.968 650.674 842.186 649.136 834.426 647.49 C 841.82 642.948 849.188 638.365 856.531 633.74 z" fill="rgb(254,253,249)" transform="translate(0,0)"></path>
<path d="M 600.982 1827.46 L 601.737 1828.32 L 597.545 1832.03 C 591.231 1837.56 587.569 1841.8 581.909 1848.11 L 577.552 1839.95 C 573.254 1835.08 572.3 1834.4 567.013 1830.73 C 578.005 1830.21 589.967 1828.66 600.982 1827.46 z" fill="rgb(222,213,192)" transform="translate(0,0)"></path>
<path d="M 1269.69 1391.89 L 1270.76 1392.2 C 1273.43 1395.09 1279.28 1407.18 1281.45 1411.39 C 1279.02 1412.49 1276.89 1411.62 1273.71 1411.21 L 1259.57 1409.04 C 1260.06 1404.87 1260.86 1400.29 1261.5 1396.1 L 1269.69 1391.89 z" fill="rgb(222,213,192)" transform="translate(0,0)"></path>
<path d="M 1943.67 1700.01 L 1944.66 1700.01 L 1945.48 1701.04 C 1937.45 1714.46 1919.08 1715.59 1905.45 1714.79 L 1901.57 1713.68 L 1901.38 1712.94 C 1914.29 1708.5 1929.97 1704.49 1943.67 1700.01 z" fill="rgb(240,232,213)" transform="translate(0,0)"></path>
<path d="M 829.414 1791.8 L 831.917 1792.35 C 831.673 1793.64 819.712 1803.54 817.748 1805.45 C 811.834 1811.22 807.448 1816.64 802.559 1823.25 C 801.575 1819.61 807.106 1808.25 805.501 1797.38 C 819.233 1800.58 815.453 1796.39 829.414 1791.8 z" fill="rgb(254,253,249)" transform="translate(0,0)"></path>
<path d="M 1207.35 580.487 C 1209.49 581.588 1210.39 586.566 1211.36 589.558 C 1200.3 589.53 1183.73 592.013 1172.24 593.435 C 1170.93 593.792 1170.72 593.607 1169.29 593.517 C 1191.2 579.887 1191.78 587.223 1207.35 580.487 z" fill="rgb(240,232,213)" transform="translate(0,0)"></path>
<path d="M 1070.61 1754.53 L 1072.49 1754.41 C 1069.96 1757.44 1065.06 1758.17 1061.21 1760.43 C 1054.78 1764.2 1048.57 1768.57 1042.41 1772.74 C 1043.15 1766.11 1042.01 1764.61 1039.79 1758.21 C 1041.91 1756.67 1065.59 1755.04 1070.61 1754.53 z" fill="rgb(254,253,249)" transform="translate(0,0)"></path>
<path d="M 938.982 1772.42 C 939.744 1772.27 942.396 1772.12 943.264 1772.05 L 943.59 1773.23 C 939.639 1778.21 928.378 1786.92 921.986 1793.81 C 918.991 1790.15 928.523 1783.4 917.452 1774.63 C 924.246 1773.46 932.051 1772.99 938.982 1772.42 z" fill="rgb(240,232,213)" transform="translate(0,0)"></path>
<path d="M 1032 596.255 L 1030.25 589.42 C 1031.74 587.568 1043.96 586.538 1046.5 587.23 C 1046.65 591.069 1046.51 591.224 1045.73 594.821 L 1045.19 598.928 C 1043.76 601.407 1043.21 603.055 1040.66 604.276 C 1039.65 603.206 1038.65 602.314 1037.49 601.385 L 1035.25 602.056 C 1032.83 601.303 1032.67 598.471 1032 596.255 z" fill="rgb(254,253,249)" transform="translate(0,0)"></path>
<path d="M 1032 596.255 C 1036.98 595.898 1040.75 595.55 1045.73 594.821 L 1045.19 598.928 C 1043.76 601.407 1043.21 603.055 1040.66 604.276 C 1039.65 603.206 1038.65 602.314 1037.49 601.385 L 1035.25 602.056 C 1032.83 601.303 1032.67 598.471 1032 596.255 z" fill="rgb(78,24,11)" transform="translate(0,0)"></path>
<path d="M 717.544 1806.46 C 717.673 1805.28 696.582 1825.13 695.846 1825.58 L 695.788 1823.36 C 695.103 1817.64 693.663 1816.31 690.024 1812 C 699.013 1809.95 708.47 1808.24 717.544 1806.46 z" fill="rgb(222,213,192)" transform="translate(0,0)"></path>
<path d="M 1294.71 1141.5 L 1297.24 1141.22 L 1298.2 1141.99 C 1295.45 1145.48 1286.49 1151.73 1282.48 1154.73 C 1281.1 1155.88 1281.95 1155.49 1279.81 1155.57 C 1278.46 1151.93 1278.96 1146.23 1279.03 1142.15 C 1284.26 1141.97 1289.49 1141.75 1294.71 1141.5 z" fill="rgb(254,253,249)" transform="translate(0,0)"></path>
<path d="M 807.655 1759.41 C 813.345 1762.9 821.423 1766.08 827.72 1768.71 L 826.777 1769.56 C 822.088 1770.06 813.55 1772.57 810.374 1771.43 C 808.543 1768.91 808.271 1762.8 807.655 1759.41 z" fill="rgb(240,232,213)" transform="translate(0,0)"></path>
<path d="M 474.576 1857.09 L 475.312 1857.23 L 475.584 1858.6 C 470.016 1867.26 468.714 1868.18 459.176 1865.59 C 456.409 1865.83 457.644 1866.19 455.304 1865.06 C 458.25 1861.05 469.485 1858.53 474.576 1857.09 z" fill="rgb(240,232,213)" transform="translate(0,0)"></path>
<path d="M 1045.19 598.928 C 1045.06 602.357 1043.17 623.923 1041.82 625.285 C 1040.18 614.71 1041.07 611.184 1035.25 602.056 L 1037.49 601.385 C 1038.65 602.314 1039.65 603.206 1040.66 604.276 C 1043.21 603.055 1043.76 601.407 1045.19 598.928 z" fill="rgb(222,213,192)" transform="translate(0,0)"></path>
<path d="M 1034.16 642.917 C 1037.02 643.013 1040.53 642.941 1043.23 643.654 C 1038.58 648.083 1035.79 651.964 1029.56 652.69 L 1027.97 651.42 C 1027.81 646.131 1030.03 645.292 1034.16 642.917 z" fill="rgb(254,253,249)" transform="translate(0,0)"></path>
<path d="M 1049.69 606.578 L 1056.21 606.644 C 1053.23 614.269 1050.08 621.823 1046.75 629.3 C 1047.13 622.608 1048.71 613.421 1049.69 606.578 z" fill="rgb(240,232,213)" transform="translate(0,0)"></path>
<path d="M 563.336 1879.99 C 563.348 1883.83 563.29 1883.67 561.907 1887.01 C 558.396 1890.4 553.776 1891.51 549.055 1893.2 L 549.047 1893.04 C 550.056 1890.39 560.439 1882.39 563.336 1879.99 z" fill="rgb(240,232,213)" transform="translate(0,0)"></path>
<path d="M 1263.92 1375.59 C 1265.93 1379.09 1268.95 1384.6 1268.13 1388.59 C 1264.98 1388.43 1266.04 1388.75 1263.23 1387.56 C 1261.46 1384.07 1263.07 1379.66 1263.92 1375.59 z" fill="rgb(222,213,192)" transform="translate(0,0)"></path>
<path d="M 818.786 599.282 C 823.626 599.556 829.304 599.567 833.855 600.912 L 833.295 601.864 L 829.851 602.606 L 825.177 602.223 C 819.588 602.075 815.106 601.756 809.57 601.254 C 813.8 600.913 815.087 601.089 818.786 599.282 z" fill="rgb(222,213,192)" transform="translate(0,0)"></path>
<path d="M 1035.62 811.564 C 1039.93 807.935 1045.75 804.946 1050.92 802.783 C 1047.61 806.388 1040.73 811.12 1036.3 813.208 L 1035.62 811.564 z" fill="rgb(159,126,108)" transform="translate(0,0)"></path>
<path d="M 1164.39 765.518 C 1167.48 770.644 1170.88 778.921 1175.72 780.812 L 1173.53 783.399 C 1169.32 778.321 1166.13 771.922 1162.91 766.109 L 1164.39 765.518 z" fill="rgb(167,146,144)" transform="translate(0,0)"></path>
<path d="M 694.194 586.192 C 699.84 587.498 706.645 589.606 711.86 592.08 C 705.423 591.677 698.671 590.978 694.194 586.192 z" fill="rgb(191,180,154)" transform="translate(0,0)"></path>
<path d="M 239.786 681.782 C 195.124 667.1 153.443 636.069 131.884 592.357 C 111.898 551.835 109.507 496.68 117.766 451.991 C 117.822 451.689 118.546 450.374 118.721 450.042 C 123.403 449.751 155.925 478.853 162.435 484.448 C 201.993 518.444 222.981 554.081 235.484 604.464 C 236.829 609.883 240.685 632.148 242.914 635.334 L 244 634.923 C 247.429 617.257 248.94 586.474 252.108 566.055 C 254.501 550.687 257.257 535.377 260.372 520.139 C 265.267 496.319 268.584 487.048 261.823 463.361 C 260.01 457.008 260.793 444.729 260.036 438.032 C 260.198 358.55 287.772 304.615 354.497 260.97 C 359.712 257.558 370.549 249.616 376.094 248.617 C 378.087 249.808 379.07 251.068 379.314 253.554 C 384.731 308.65 379.602 365.581 347.563 412.484 C 333.38 433.249 319.015 448.492 299.69 464.085 C 292.307 470.188 278.683 480.264 272.698 486.578 C 263.224 527.34 249.364 607.051 248.725 648.003 L 249.203 647.039 C 252.903 639.388 255.491 630.773 258.758 622.981 C 287.844 553.604 347.676 513.935 415.698 488.709 C 418.458 487.686 420.551 486.932 423.392 487.811 C 424.628 492.921 422.836 500.474 421.952 505.814 C 417.283 534.018 408.438 559.258 393.746 583.932 C 364.755 632.616 313.071 664.418 259.075 678.37 C 254.797 679.476 250.093 680.196 245.906 681.362 C 245.61 727.837 247.379 770.825 254.379 816.91 C 257.427 836.978 267.032 869.408 268.318 886.629 L 270.313 885.97 C 268.178 834.455 279.304 781.328 315.086 742.513 C 333.323 722.729 365.857 698.568 391.013 687.764 C 392.296 788.743 369.531 857.676 277.096 910.526 C 289.668 945.725 303.902 980.308 319.75 1014.16 C 326.575 1028.86 337.996 1047.87 342.863 1062 C 343.892 1065.66 344.99 1069.69 348.387 1071.71 C 344.659 1053.76 345.464 1026.95 348.438 1008.66 C 358.991 943.779 387.915 910.573 438.004 873.29 C 443.979 900.358 445.53 928.215 442.596 955.778 C 435.454 1020.99 407.466 1046.38 359.762 1084.5 C 370.797 1106.72 425.921 1166.96 429.024 1178.75 L 428.372 1179.74 C 418.454 1176.94 360.75 1096.72 350.825 1082.39 C 274.906 1096.86 180.165 1060.19 143.25 991.606 C 139.756 985.114 130.319 966.871 132.072 960.183 C 135.062 959.037 137.188 958.937 140.475 959.157 C 195.609 962.851 249.36 980.886 292.558 1015.93 C 309.532 1029.7 325.134 1046.55 339.622 1062.26 C 332.551 1048.28 324.004 1034.54 316.659 1019.86 C 297.691 981.692 281.704 942.114 268.844 901.48 C 256.889 899.34 245.178 898.026 233.189 895.353 C 131.103 872.587 95.2097 813.771 78.7243 716.33 C 168.286 734.328 222.746 788.452 258.069 867.238 C 258.432 867.726 258.795 868.214 259.159 868.703 C 254.567 839.144 247.553 817.884 244.345 785 C 242.351 765.216 241.217 745.355 240.946 725.472 C 240.663 712.26 240.865 694.665 239.786 681.782 z" fill="rgb(62,8,2)" transform="translate(0,0)"></path>
<path d="M 136.957 964.347 C 197.387 967.626 251.067 987.606 297.734 1026.82 C 311.909 1038.73 324.446 1052.5 337.187 1065.94 C 339.503 1068.43 343.111 1071.76 344.281 1074.77 L 342.656 1075.85 C 300.307 1057.27 257.508 1031.65 216.279 1010.3 C 203.491 1003.68 192.489 997.248 179.154 991.26 L 180.517 992.389 C 201.163 1009.65 239.937 1029.32 264.034 1041.97 C 289.195 1055.19 315.025 1068.14 340.759 1080.19 C 298.563 1081.2 257.583 1075.8 219.559 1056.54 C 181.702 1037.37 150.374 1005.01 136.957 964.347 z" fill="rgb(222,213,192)" transform="translate(0,0)"></path>
<path d="M 342.863 1062 C 343.892 1065.66 344.99 1069.69 348.387 1071.71 L 349.014 1073.43 C 347.395 1075.15 346.799 1075.7 344.959 1077.18 C 342.833 1076.61 343.462 1077.24 342.656 1075.85 L 344.281 1074.77 C 343.111 1071.76 339.503 1068.43 337.187 1065.94 L 338.491 1063.29 C 340.341 1062.66 341.032 1062.46 342.863 1062 z" fill="rgb(62,8,2)" transform="translate(0,0)"></path>
<path d="M 270.313 885.97 C 271.031 889.335 271.383 890.086 270.743 893.547 L 269.673 893.875 C 268.435 890.899 268.534 889.782 268.318 886.629 L 270.313 885.97 z" fill="rgb(159,126,108)" transform="translate(0,0)"></path>
<path d="M 121.946 455.653 C 141.652 475.447 163.046 489.296 182.354 511.056 C 215.21 548.087 229.364 587.759 237.274 636.122 C 239.382 649.014 242.642 660.993 241.913 674.278 C 239.696 675.68 239.769 675.9 237.356 676.659 C 236.831 676.1 236.307 675.54 235.782 674.981 C 230.065 674.854 221.441 669.844 216.274 667.226 C 130.456 623.741 108.418 547.706 121.946 455.653 z" fill="rgb(222,213,192)" transform="translate(0,0)"></path>
<path d="M 139.643 499.55 C 149.295 514.884 157.771 533.927 166.942 549.708 C 180.898 573.724 195.635 597.805 209.255 621.911 C 213.867 630.074 236.48 668.68 241.913 674.278 C 239.696 675.68 239.769 675.9 237.356 676.659 C 236.831 676.1 236.307 675.54 235.782 674.981 C 217.945 647.431 144.85 525.069 139.643 499.55 z" fill="rgb(62,8,2)" transform="translate(0,0)"></path>
<path d="M 85.3084 723.137 C 161.534 736.595 222.118 798.026 251.896 866.557 C 254.611 872.804 261.121 884.672 262.242 890.915 L 260.677 891.52 L 256.368 889.494 L 257.17 892.504 L 253.801 893.828 C 245.751 893.397 236.564 891.055 228.685 889.28 C 140.373 869.396 97.3991 810.619 85.3084 723.137 z" fill="rgb(222,213,192)" transform="translate(0,0)"></path>
<path d="M 253.801 893.828 C 240.183 883.196 226.954 873.474 213.965 861.951 C 186.805 837.858 162.817 810.844 138.143 784.283 C 131.787 777.441 126.926 771.993 122.191 763.949 C 154.067 795.091 184.235 827.552 216.738 857.808 C 228.232 868.507 243.791 879.821 256.368 889.494 L 257.17 892.504 L 253.801 893.828 z" fill="url(#Gradient1)" transform="translate(0,0)"></path>
<path d="M 246.629 671.452 C 269.572 575.004 329.907 527.48 418.122 493.452 C 408.919 552.632 391.131 596.475 341.147 634.047 C 321.905 648.511 275.721 673.832 251.891 674.614 L 250.478 672.601 C 248.862 672.252 248.158 672.157 246.629 671.452 z" fill="rgb(222,213,192)" transform="translate(0,0)"></path>
<path d="M 246.629 671.452 L 248.041 670.094 C 251.302 666.926 254.886 662.866 257.861 659.434 C 291.676 620.427 327.64 585.051 368.927 553.927 C 373.755 550.287 377.156 547.395 382.603 544.523 C 364.932 563.466 342.282 580.023 324.527 596.704 C 312.493 608.01 255.199 664.428 251.891 674.614 L 250.478 672.601 C 248.862 672.252 248.158 672.157 246.629 671.452 z" fill="rgb(62,8,2)" transform="translate(0,0)"></path>
<path d="M 372.904 255.757 L 373.743 256.376 C 376.416 261.176 375.16 311.696 374.229 320.411 C 365.672 400.502 329.126 433.524 272.549 480.518 C 279 467.031 283.791 445.26 289.267 430.246 C 300.073 400.622 313.317 371.972 327.831 343.97 C 331.446 336.995 348.24 312.017 347.173 306.839 C 343.129 311.167 335.181 324.372 331.75 329.95 C 302.583 377.371 284.874 425.384 269.712 478.548 C 264.043 443.216 263.975 414.518 271.981 379.483 C 285.642 319.7 322.791 286.843 372.904 255.757 z" fill="rgb(222,213,192)" transform="translate(0,0)"></path>
<path d="M 275.566 897.925 C 273.613 839.601 278.6 790.846 320.141 744.578 C 333.833 729.328 367.032 705.465 385.977 696.385 C 385.737 718.048 386.29 727.998 381.684 760.059 C 373.424 817.551 331.986 876.248 278.928 903.305 C 278.634 903.291 278.34 903.276 278.046 903.262 C 277.563 900.979 277.497 902.052 278.073 900.036 C 277.008 898.369 277.488 898.985 275.566 897.925 z" fill="rgb(222,213,192)" transform="translate(0,0)"></path>
<path d="M 357.112 749.73 C 349.833 764.826 340.331 778.891 331.536 793.095 C 314.09 821.275 300.302 850.696 286.621 880.801 C 284.306 885.894 280.854 895.673 278.073 900.036 C 277.008 898.369 277.488 898.985 275.566 897.925 C 296.443 845.81 321.648 793.746 357.112 749.73 z" fill="rgb(62,8,2)" transform="translate(0,0)"></path>
<path d="M 353.202 1075.15 C 345.372 1027.73 355.722 970.66 383.943 931.24 C 395.35 915.306 417.62 892.96 434.498 883.002 C 441.174 937.283 441.16 990.556 405.586 1035.92 C 391.133 1054.35 375.46 1065.88 356.953 1079.78 C 360.118 1073.14 363.417 1062.79 366.042 1055.62 C 371.007 1042.22 376.089 1028.85 381.289 1015.54 C 391.843 988.74 402.868 966.83 414.876 941.042 C 395.329 965.342 378.104 1011.21 366.773 1040.28 C 363.56 1048.52 357.376 1068.39 353.202 1075.15 z" fill="rgb(222,213,192)" transform="translate(0,0)"></path>
<path d="M 1458.43 400.386 C 1416.28 394.167 1373.7 371.24 1348 336.772 C 1341.32 327.761 1335.54 318.117 1330.74 307.979 C 1324.93 295.68 1307.16 244.128 1308.34 231.468 C 1311.64 228.265 1326.67 233.655 1331.29 235.035 C 1364.94 245.101 1397.38 262.668 1421.88 288.12 C 1446.36 313.717 1462.4 356.75 1461.09 392.256 L 1461.03 393.687 C 1476.14 417.779 1491.42 440.651 1505.22 465.57 C 1516.5 485.926 1525.41 509.69 1536.72 529.115 C 1534.88 515.794 1532.44 500.108 1532.48 486.95 C 1532.6 444.423 1551.39 401.961 1577.32 368.904 C 1582.53 362.258 1587.94 354.596 1594.81 349.518 L 1596.73 349.281 C 1603.6 356.795 1614.77 404.368 1616.37 415.4 C 1617.79 424.86 1618.28 434.435 1617.85 443.991 C 1615.81 486.981 1596.35 521.895 1564.54 550.337 C 1559.68 554.765 1554.44 558.757 1548.87 562.267 C 1570.08 626.732 1578.91 666.604 1583.87 732.802 C 1596.48 666.299 1608.95 626.087 1668.55 587.083 C 1677.41 581.28 1686.35 574.626 1695.94 569.774 C 1700.6 601.66 1706.23 629.366 1695.91 660.987 C 1679.13 712.391 1629.65 735.782 1585.97 760.759 C 1583.64 792.509 1582.62 823.281 1577.31 854.928 C 1573.73 876.253 1567.94 896.02 1565.41 917.752 C 1565.15 915.188 1565 914.21 1564.41 911.702 L 1562.06 910.296 C 1571.14 861.886 1580.14 812.587 1580.17 763.09 C 1528.81 752.116 1476.77 735.301 1446.04 689.377 C 1439.29 679.293 1414.38 623.885 1417.36 612.661 C 1421.63 612.37 1432.75 615.84 1437.77 617.063 C 1474.24 625.95 1502.58 638.08 1530.98 663.187 C 1556.22 685.498 1563.36 699.242 1578.39 727.448 C 1575.29 680.066 1564.1 615.706 1546.68 571.25 C 1508.73 573.573 1474.04 567.705 1439.02 552.621 C 1393.28 532.92 1369.83 501.715 1349.48 457.332 C 1421.66 462.162 1477.81 478.964 1531.64 530.738 C 1508.51 482.267 1490.86 444.371 1458.43 400.386 z" fill="rgb(62,8,2)" transform="translate(0,0)"></path>
<path d="M 1312.78 235.263 C 1328.84 238.335 1354.93 248.504 1369.31 255.701 C 1423.83 282.986 1453.75 328.496 1456.5 389.507 C 1429.64 353.015 1398.76 319.655 1364.45 290.056 C 1361.13 287.216 1352.76 279.453 1349.19 278.888 L 1349.68 280.929 C 1379.8 309.372 1410.29 337.75 1435.59 370.618 C 1442.03 378.976 1448.73 387.238 1455.26 395.528 C 1359.13 369.534 1335.85 326.53 1312.78 235.263 z" fill="rgb(222,213,192)" transform="translate(0,0)"></path>
<path d="M 1422.11 617.989 C 1474.2 630.588 1507.29 642.956 1545.32 684.347 C 1558.99 699.218 1580.66 732.133 1579.42 752.804 L 1578.27 756.884 L 1578.78 758.258 C 1576.07 759.101 1570.46 757.331 1567.59 756.653 C 1544.94 751.414 1523.11 743.114 1502.7 731.98 C 1450.25 703.991 1438.45 672.013 1422.11 617.989 z" fill="rgb(222,213,192)" transform="translate(0,0)"></path>
<path d="M 1458.16 650.409 C 1473.15 661.004 1488.87 677.291 1503.31 689.321 C 1517.14 700.854 1531.48 711.339 1545.29 722.728 C 1556.67 732.119 1566.38 744.886 1579.42 752.804 L 1578.27 756.884 C 1541.49 722.263 1489.16 690.148 1458.16 650.409 z" fill="rgb(62,8,2)" transform="translate(0,0)"></path>
<path d="M 1586.6 748.393 C 1588.48 738.753 1589.35 728.503 1591.4 719.222 C 1605.24 656.564 1617.33 627.576 1671.53 591.154 C 1678.34 586.591 1685.28 582.241 1692.36 578.111 C 1698.28 619.376 1701.64 653.944 1675.02 689.949 C 1669.65 697.115 1663.52 703.669 1656.72 709.494 C 1644.68 719.91 1601.58 749.722 1587.19 753.367 L 1585.3 752.727 L 1586.6 748.393 z" fill="rgb(222,213,192)" transform="translate(0,0)"></path>
<path d="M 1586.6 748.393 C 1604.59 723.885 1621.25 698.421 1636.49 672.114 C 1643.06 660.965 1658.88 630.253 1665.88 622.882 C 1661.39 632.703 1651.83 653.366 1646.76 662.368 C 1637.9 678.084 1597.66 746.687 1585.3 752.727 L 1586.6 748.393 z" fill="rgb(62,8,2)" transform="translate(0,0)"></path>
<path d="M 1594.51 356.717 C 1598.86 362.647 1601.23 374.714 1603.52 381.878 C 1613.08 411.818 1616.54 440.319 1608.73 471.08 C 1601.48 499.622 1586.1 522.457 1565.05 542.864 C 1560.52 547.333 1554.21 553.473 1548.81 556.685 L 1547.36 555.743 C 1546.72 553.751 1546.21 550.823 1546.98 548.818 C 1562.05 509.401 1569.5 468.359 1578.97 427.22 C 1580.53 419.156 1581.69 412.793 1582.57 404.657 C 1576.54 418.444 1572.35 440.066 1568.67 454.926 C 1561.47 484.021 1554.5 515.61 1544.05 543.683 C 1525.48 474.767 1545.17 407.789 1594.51 356.717 z" fill="rgb(222,213,192)" transform="translate(0,0)"></path>
<path d="M 1356.7 462.557 C 1386.07 465.088 1406.86 468.184 1435.74 477.608 C 1466.56 487.663 1526.61 521.953 1541.01 551.043 C 1512.37 537.417 1483.01 527.314 1453.55 515.502 C 1441.65 510.732 1410.61 495.128 1399.98 492.788 C 1405.45 496.596 1409.15 498.695 1415 501.911 C 1441.39 515.106 1467.51 526.947 1495.4 536.525 C 1511.05 541.898 1526.64 548.869 1541.77 555.534 L 1544.72 566.246 C 1514.89 567.679 1482.18 563.41 1454.15 553.442 C 1405.97 536.304 1378.39 507.987 1356.7 462.557 z" fill="rgb(222,213,192)" transform="translate(0,0)"></path>
<path d="M 1789.35 1816.35 C 1839.62 1812.45 1877.89 1837.27 1916.26 1866.75 C 1924.97 1873.45 1934.42 1881.27 1941.6 1889.51 C 1899.64 1906.99 1879.89 1916.9 1834.22 1925.97 C 1790.32 1932.86 1734.93 1927.84 1712.78 1882.61 C 1707.17 1889.8 1703.66 1893.2 1696.28 1898.28 C 1699.02 1891.08 1720.19 1858.42 1725.91 1850.65 C 1740.72 1830.52 1764.77 1819.45 1789.35 1816.35 z" fill="rgb(62,8,2)" transform="translate(0,0)"></path>
<path d="M 1795.39 1857.41 C 1839.2 1854.03 1886.28 1869.95 1924.79 1889.88 C 1906.27 1901.87 1863.5 1914.83 1841.17 1919.76 C 1792.41 1929.47 1745.3 1926.25 1716.19 1880.74 C 1741.78 1864.05 1765.58 1859.59 1795.39 1857.41 z" fill="rgb(191,180,154)" transform="translate(0,0)"></path>
<path d="M 1791.42 1821.32 C 1837.08 1814.92 1901.79 1856.02 1932.4 1888.44 C 1913.72 1877.61 1886.48 1867.22 1865.9 1860.79 C 1811.34 1847.27 1766.82 1848.41 1716.54 1874.29 C 1737.27 1841.54 1751.41 1827.32 1791.42 1821.32 z" fill="rgb(222,213,192)" transform="translate(0,0)"></path>
<path d="M 108.107 1648.08 C 109.173 1642.39 108.796 1636.76 110.95 1631.06 C 127.889 1586.19 174.002 1567.64 218.919 1574.82 C 230.699 1576.8 242.186 1580.25 253.11 1585.08 C 271.32 1593.01 328.222 1627.49 339.716 1642.98 C 339.307 1648.46 317.66 1655.15 312.184 1656.95 C 249.97 1677.39 163.32 1707.54 110.406 1652.85 C 108.78 1650.81 108.909 1650.62 108.107 1648.08 z" fill="rgb(62,8,2)" transform="translate(0,0)"></path>
<path d="M 203.855 1613.41 C 248.581 1607.74 288.754 1628.33 329.26 1644.7 C 298.273 1657.38 266.165 1667.13 233.356 1673.81 C 193.533 1681.42 142.516 1684.03 114.661 1648.56 C 142.852 1625.61 168.54 1617.07 203.855 1613.41 z" fill="rgb(191,180,154)" transform="translate(0,0)"></path>
<path d="M 198.022 1578.42 C 241.204 1579 271.135 1598.33 305.607 1622.11 C 312.913 1627.15 324.966 1635.05 330.614 1641.55 C 310.47 1629.79 264.771 1613.19 242.229 1609.19 C 190.514 1603.03 155.505 1614.47 113.891 1642.9 C 122.239 1599.82 156.976 1580.77 198.022 1578.42 z" fill="rgb(222,213,192)" transform="translate(0,0)"></path>
<path d="M 1781.44 309.939 C 1772.65 306.173 1760.93 285.718 1757.39 276.742 C 1748.87 255.142 1749.63 233.267 1758.92 212.082 C 1762.17 204.876 1766.01 197.95 1770.39 191.375 C 1776.11 182.891 1812.6 137.29 1820.35 134.73 C 1826.91 138.492 1837.83 177.034 1841.72 190.023 C 1853.66 229.896 1855.45 296.307 1806.36 312.94 C 1806.07 312.972 1805.79 313.004 1805.5 313.037 C 1801.08 311.904 1790.93 312.229 1781.44 309.939 z" fill="rgb(62,8,2)" transform="translate(0,0)"></path>
<path d="M 1813.7 147.804 L 1814.21 148.314 C 1815.86 152.28 1810.65 186.913 1809.92 194.113 C 1806.01 232.62 1795.15 269.917 1782.98 306.521 C 1777.8 301.299 1776.19 299.202 1771.94 293.217 C 1732.4 237.853 1775.55 187.564 1813.7 147.804 z" fill="rgb(191,180,154)" transform="translate(0,0)"></path>
<path d="M 1819.25 142.55 C 1820.77 143.643 1820.95 143.959 1821.73 145.761 C 1840.29 188.598 1865.21 280.352 1808.76 306.497 C 1799.9 309.265 1796.76 309.221 1787.92 308.341 C 1806.58 249.397 1817.49 205.748 1819.25 142.55 z" fill="rgb(222,213,192)" transform="translate(0,0)"></path>
<path d="M 879.034 121.323 C 880.563 121.202 880.637 121.402 882.201 121.771 C 882.358 122.088 882.515 122.406 882.672 122.724 C 882.907 170.371 867.403 238.497 814.89 253.4 C 793.179 259.562 777.848 255.401 763.452 247.634 C 754.04 254.209 746.41 259.022 736.352 264.447 L 732.712 265.373 L 731.736 264.072 C 733.581 259.659 755.141 246.229 760.3 242.769 C 735.345 161.12 813.402 131.765 879.034 121.323 z" fill="rgb(62,8,2)" transform="translate(0,0)"></path>
<path d="M 876.429 128.684 C 884.798 136.268 863.752 278.648 773.151 247.122 C 769.961 245.242 768.984 245.511 768.224 242.902 C 805.462 207.233 839.554 164.957 876.429 128.684 z" fill="rgb(191,180,154)" transform="translate(0,0)"></path>
<path d="M 870.575 128.373 L 871.163 128.337 L 871.729 129.202 C 867.387 133.81 853.281 148.164 849.496 151.446 C 837.051 162.238 772.047 237.574 763.952 239.489 C 741.839 167.837 811.767 136.77 870.575 128.373 z" fill="rgb(222,213,192)" transform="translate(0,0)"></path>
<path d="M 1876.38 675.832 L 1876.96 676.04 C 1881.95 682.15 1883.87 733.728 1883.95 743.552 C 1884.25 780.65 1864.82 809.089 1824.31 808.078 C 1819.93 814.808 1806.77 836.161 1801.23 840.103 L 1799.46 839.61 L 1798.87 837.535 C 1804.96 828.778 1816.4 813.065 1819.8 803.767 C 1778.84 745.993 1826.42 702.343 1876.38 675.832 z" fill="rgb(62,8,2)" transform="translate(0,0)"></path>
<path d="M 1823.4 800.586 C 1822.91 799.899 1822.43 799.207 1821.95 798.512 C 1812.15 784.236 1806.81 764.946 1810.58 747.864 C 1817.2 717.831 1844.52 700.739 1868.1 685.173 L 1869.14 689.912 C 1866.88 692.874 1858.24 717.729 1856.73 722.318 C 1847.38 750.674 1837.54 774.311 1823.4 800.586 z" fill="rgb(222,213,192)" transform="translate(0,0)"></path>
<path d="M 1868.1 685.173 C 1872.27 683.078 1870.43 682.998 1873.83 683.946 C 1879.22 692.72 1879.26 734.614 1879.2 746.553 C 1879.05 779.233 1860.88 802.955 1826.64 803.66 C 1841.81 776.36 1850.02 754.957 1859.62 725.268 C 1863.03 714.719 1868.58 702.062 1869.6 691.041 L 1869.14 689.912 L 1868.1 685.173 z" fill="rgb(191,180,154)" transform="translate(0,0)"></path>
<path d="M 1871.56 440.951 C 1887.9 436.978 1904.38 446.986 1908.39 463.322 C 1912.39 479.659 1902.41 496.153 1886.09 500.19 C 1869.71 504.237 1853.16 494.227 1849.15 477.847 C 1845.13 461.466 1855.17 444.936 1871.56 440.951 z" fill="rgb(62,8,2)" transform="translate(0,0)"></path>
<path d="M 1875.73 444.745 C 1890.01 443.106 1902.92 453.345 1904.58 467.623 C 1906.23 481.901 1896.01 494.82 1881.73 496.49 C 1867.43 498.163 1854.49 487.919 1852.83 473.619 C 1851.17 459.319 1861.43 446.386 1875.73 444.745 z" fill="rgb(240,232,213)" transform="translate(0,0)"></path>
<path d="M 185.841 1169.46 C 202.431 1167.38 217.573 1179.13 219.674 1195.72 C 221.775 1212.3 210.04 1227.46 193.455 1229.57 C 176.847 1231.69 161.669 1219.94 159.565 1203.33 C 157.461 1186.72 169.229 1171.55 185.841 1169.46 z" fill="rgb(62,8,2)" transform="translate(0,0)"></path>
<path d="M 185.559 1174.41 C 199.466 1172.18 212.542 1181.67 214.729 1195.58 C 216.917 1209.49 207.383 1222.54 193.462 1224.68 C 179.608 1226.81 166.642 1217.33 164.465 1203.48 C 162.288 1189.64 171.721 1176.64 185.559 1174.41 z" fill="rgb(240,232,213)" transform="translate(0,0)"></path>
<path d="M 1066.49 162.799 C 1082.91 162.053 1096.91 174.58 1097.99 190.983 C 1099.07 207.387 1086.83 221.641 1070.45 223.053 C 1059.56 223.993 1049.01 218.969 1042.87 209.92 C 1036.73 200.871 1035.96 189.21 1040.86 179.434 C 1045.76 169.659 1055.56 163.296 1066.49 162.799 z" fill="rgb(62,8,2)" transform="translate(0,0)"></path>
<path d="M 1061.64 167.817 C 1070.68 165.75 1080.12 168.7 1086.37 175.541 C 1092.63 182.382 1094.71 192.056 1091.84 200.866 C 1088.97 209.677 1081.58 216.263 1072.5 218.107 C 1058.7 220.911 1045.21 212.093 1042.24 198.326 C 1039.26 184.559 1047.91 170.96 1061.64 167.817 z" fill="rgb(240,232,213)" transform="translate(0,0)"></path>
<path d="M 535.605 377.032 C 551.812 375.112 566.513 386.674 568.468 402.876 C 570.423 419.078 558.893 433.804 542.695 435.794 C 526.448 437.79 511.667 426.217 509.706 409.965 C 507.745 393.714 519.35 378.958 535.605 377.032 z" fill="rgb(62,8,2)" transform="translate(0,0)"></path>
<path d="M 532.848 382.151 C 541.589 379.948 550.84 382.619 557.062 389.143 C 563.283 395.667 565.513 405.034 562.897 413.661 C 560.281 422.288 553.226 428.84 544.428 430.811 C 531.075 433.802 517.798 425.507 514.63 412.195 C 511.461 398.883 519.579 385.496 532.848 382.151 z" fill="rgb(240,232,213)" transform="translate(0,0)"></path>
<path d="M 142.287 152.976 C 156.142 152.46 155.968 137.557 166.486 136.753 L 168.448 138.724 C 172.163 145.029 174.576 152.28 177.135 159.172 C 203.102 169.502 197.644 169.842 180.751 185.235 C 179.167 191.823 177.406 203.762 175.325 208.938 L 173.589 209.979 C 167.141 208.018 162.048 200.759 156.047 196.343 C 147.1 198.717 139.904 200.704 130.711 201.768 C 133.373 193.947 136.264 186.206 139.378 178.553 C 136.474 172.084 127.247 161.976 126.606 157.142 C 129.161 151.977 136.915 153.097 142.287 152.976 z" fill="rgb(62,8,2)" transform="translate(0,0)"></path>
<path d="M 137.258 157.86 C 151.68 161.692 156.876 149.577 165.309 142.009 C 168.262 148.922 169.977 154.08 172.264 161.277 C 178.736 165.245 183.505 167.207 190.515 170.238 C 186.245 173.892 182.248 177.307 177.805 180.76 C 175.148 188.421 173.777 195.757 172.4 203.747 C 157.266 190.437 156.965 191.186 137.402 196.252 C 139.583 190.971 141.793 185.702 144.033 180.446 C 141.995 174.085 132.78 162.354 134.023 158.349 L 137.258 157.86 z" fill="rgb(240,232,213)" transform="translate(0,0)"></path>
<path d="M 566.851 127.533 C 581.063 124.213 595.261 133.101 598.484 147.336 C 601.708 161.57 592.725 175.707 578.469 178.835 C 564.348 181.933 550.374 173.054 547.181 158.954 C 543.988 144.854 552.773 130.821 566.851 127.533 z" fill="rgb(62,8,2)" transform="translate(0,0)"></path>
<path d="M 567.631 131.783 C 579.447 128.942 591.325 136.237 594.134 148.061 C 596.944 159.885 589.616 171.743 577.784 174.52 C 565.998 177.286 554.196 169.993 551.398 158.215 C 548.599 146.436 555.86 134.614 567.631 131.783 z" fill="rgb(254,253,249)" transform="translate(0,0)"></path>
<path d="M 1912.08 933.766 C 1925.93 932.023 1938.63 941.693 1940.63 955.511 C 1942.63 969.329 1933.2 982.206 1919.42 984.466 C 1910.28 985.967 1901.03 982.411 1895.25 975.169 C 1889.47 967.927 1888.05 958.127 1891.54 949.541 C 1895.03 940.956 1902.88 934.923 1912.08 933.766 z" fill="rgb(62,8,2)" transform="translate(0,0)"></path>
<path d="M 1910.48 938.732 C 1917.89 937.014 1925.65 939.413 1930.8 945.013 C 1935.94 950.612 1937.68 958.546 1935.34 965.782 C 1933 973.019 1926.95 978.438 1919.51 979.97 C 1908.19 982.298 1897.1 975.094 1894.63 963.806 C 1892.16 952.518 1899.23 941.343 1910.48 938.732 z" fill="rgb(240,232,213)" transform="translate(0,0)"></path>
<path d="M 1781.44 309.939 C 1790.93 312.229 1801.08 311.904 1805.5 313.037 C 1798 314.848 1793.06 314.273 1785.65 313.16 C 1783.23 322.05 1780.27 334.811 1775.74 342.37 L 1774.51 342.517 C 1773.89 333.17 1778.7 319.293 1781.44 309.939 z" fill="rgb(62,8,2)" transform="translate(0,0)"></path>
<path d="M 108.107 1648.08 C 108.909 1650.62 108.78 1650.81 110.406 1652.85 C 104.087 1659.58 100.297 1664.24 92.582 1669.34 C 96.444 1660.69 101.026 1654.42 108.107 1648.08 z" fill="rgb(78,24,11)" transform="translate(0,0)"></path>
<metadata><recraft-signature>{"signed_by": "recraft", "signature_b64": "2wUM4LGFbPwo+gHdgIJ46cz0Hp1ur4cItaFFHwIF5VmQbJsE6HZHLAesF3p7kjy7SDTTQN8aQUalZNI+FqiwBA==", "signing_algo": "Ed25519", "generation_timestamp": 1778091869, "identifier": "632d7950-39a8-4061-b63d-965230f6ad59"}</recraft-signature></metadata></svg>