<svg xmlns="http://www.w3.org/2000/svg" height="1024" preserveAspectRatio="none" style="display: block;" version="1.1" viewBox="0 0 2048 2048" width="1024">
<path d="M 0 0 L 2048 0 L 2048 2048 L 0 2048 L 0 0 z" fill="rgb(252,251,243)" transform="translate(0,0)"></path>
<path d="M 1079.9 470.374 C 1080.83 435.721 1080.27 399.95 1080.36 365.195 L 1080.93 176.248 L 1081.03 101.082 C 1081.03 92.2431 1079.07 67.9217 1083.75 62.0475 L 1085.26 62.0295 C 1087.61 66.1759 1086.67 112.903 1086.66 121.426 L 1086.51 215.087 L 1086.13 471.028 C 1117.97 477.179 1140.31 483.374 1171.02 494.659 C 1172.34 395.496 1172.69 296.321 1172.04 197.151 L 1171.9 108.372 C 1171.87 94.5657 1171.7 80.7362 1171.93 66.9369 C 1171.96 64.6429 1173.7 61.5622 1176.34 61.5177 C 1177.94 64.0407 1178.15 69.3001 1178.12 72.3666 C 1177.56 122.673 1177.79 173.124 1177.81 223.428 C 1178.11 314.677 1177.93 405.928 1177.27 497.175 C 1201.38 507.806 1230.55 523.161 1241.04 549.27 C 1246.99 564.07 1245.88 601.538 1245.99 618.524 C 1259.27 611.805 1271.65 605.593 1285.5 600.051 C 1286.54 490.712 1286.9 381.367 1286.56 272.024 L 1286.76 141.637 C 1286.75 131.904 1285.42 68.9946 1288 62.9458 C 1290.75 61.9644 1289.42 61.9417 1292.12 62.9504 C 1293.72 65.9086 1292.92 142.536 1292.92 152.341 L 1292.86 335.438 C 1292.81 421.21 1294.69 513.066 1291.96 598.183 C 1300.39 596.139 1306.67 594.729 1315.22 593.436 C 1314.08 457.161 1313.77 320.881 1314.28 184.602 L 1314.72 108.513 C 1314.79 98.103 1314.28 71.2543 1316.5 62.9487 L 1317.73 61.6943 C 1322.35 66.1668 1321.84 74.9591 1322.06 81.2721 C 1355.45 92.4607 1391.27 102.721 1425.18 113.111 C 1490.64 132.99 1555.96 153.314 1621.14 174.081 C 1621.2 160.067 1620.2 73.2259 1623.5 66.4308 L 1624.89 66.1484 C 1627.23 68.8532 1627.31 71.2545 1627.36 75.1763 C 1627.66 100.603 1627.55 126.259 1627.56 151.686 L 1627.94 291.821 L 1627.98 801.313 L 1670.16 815.799 L 1670.99 273.993 C 1671.14 234.051 1671.07 194.109 1670.77 154.168 C 1670.43 127.348 1669.88 100.297 1669.93 73.4463 C 1669.94 70.0476 1670.4 67.7544 1672.8 65.2888 L 1674.64 65.5192 C 1676.09 67.7328 1676.64 69.4369 1676.68 72.0785 C 1677.31 112.017 1675.92 152.227 1676.89 192.146 C 1709.02 200.823 1739.28 210.692 1770.98 220.515 L 1885.28 254.952 C 1907.69 261.746 1929.12 269.101 1951.75 275.563 L 1952.02 136.379 L 1951.93 95.3395 C 1951.87 88.7848 1950.35 70.1433 1955.07 65.9875 C 1960.08 69.0295 1958.12 120.347 1958.17 129.583 L 1957.85 320.278 L 1958.37 696.875 L 1958.05 843.635 C 1957.98 865.494 1958.98 905.792 1956.9 925.357 C 1787.2 860.584 1612.24 803.815 1440.88 743.258 C 1407.33 731.404 1372.63 719.983 1338.56 709.746 C 1316.49 730.205 1298.38 741.438 1268.49 747.633 C 1275.49 761.073 1280.77 773.042 1286.46 787.158 C 1316.49 790.515 1346.68 792.249 1376.89 792.35 C 1397.99 792.433 1450.57 786.606 1464.7 805.873 C 1478.51 824.716 1460.69 837.255 1441.6 840.948 C 1443.06 837.111 1444.93 833.385 1444.7 829.367 C 1438.3 816.398 1381.61 815.707 1366.83 815.997 C 1387.95 824.875 1414.84 833.375 1436.95 841.333 C 1483.32 858.342 1529.86 874.89 1576.56 890.973 L 1909.16 1008.8 C 1917.48 1011.82 1951.25 1021.36 1955.69 1025.8 L 1956.38 1028.16 C 1954.91 1029.65 1955.65 1029.46 1953.79 1029.53 C 1945.33 1029.84 1849.14 993.566 1835.47 988.574 C 1814.31 980.85 1792.75 974.36 1771.51 966.882 L 1504.24 873.206 C 1452.34 854.894 1400.9 834.139 1348.72 816.751 C 1339.38 813.64 1304.63 812.467 1293.14 811.585 C 1302.08 832.773 1310.3 860.292 1311.3 883.343 C 1383.93 913.472 1460.93 937.909 1534.9 964.626 L 1784.11 1056.1 L 1886.97 1093.99 C 1895.41 1097.08 1954.32 1118.07 1956.57 1121.94 L 1956.3 1124.07 C 1954.24 1125.15 1953.3 1125.42 1950.57 1124.51 C 1924.14 1115.69 1897.75 1104.65 1871.74 1095.18 L 1656.32 1015.6 L 1423.52 932.76 L 1357.95 908.747 C 1342.6 903.093 1327.46 898.102 1312.69 890.953 C 1319.68 944.912 1320.79 1024.86 1320.39 1079.16 C 1343.06 1087.32 1366.58 1097.73 1389.54 1103.98 C 1395.35 1105.56 1421.96 1101.94 1429.42 1101.4 C 1478.55 1097.85 1519.84 1103.73 1568.18 1112.92 C 1640.96 1126.76 1709.22 1155.14 1776.96 1184.85 C 1825.8 1205.72 1873.58 1228.98 1920.14 1254.54 C 1926.79 1258.28 1953.67 1272.22 1956.11 1277.02 L 1955.55 1278.7 C 1954.12 1279.37 1952.99 1279.96 1951.49 1280.46 C 1949.83 1284.66 1949.65 1350.78 1951.12 1353.11 C 1955.16 1354.06 1953.78 1352.98 1955.97 1355.61 C 1955.4 1359.48 1952.16 1361.5 1949.09 1363.85 C 1951.19 1369.21 1952.67 1396.81 1950.27 1401.77 L 1951.07 1407.56 L 1951.04 1555.83 C 1951.08 1565.8 1950.04 1600.78 1951.04 1607.76 C 1951.17 1609.41 1951.59 1613.3 1951.47 1614.76 C 1951.18 1619.96 1950.18 1636.08 1951.19 1640.87 C 1952.63 1643.62 1952.67 1643.41 1952.67 1646.47 C 1950.53 1650.33 1945.21 1653.46 1941.2 1655.23 C 1896.01 1675.28 1851.47 1696.53 1806.32 1716.73 L 1553.29 1829.07 L 1421.46 1889.36 C 1401.74 1898.15 1373.35 1911.69 1353.14 1916.93 C 1319.53 1925.95 1284.01 1924.85 1251.02 1913.77 C 1182.57 1890.75 1111.36 1862.99 1043.56 1837.6 L 766.243 1734.6 C 721.056 1717.72 675.382 1699.44 630.091 1683.06 L 321.485 1574.66 L 227.832 1541.99 C 205.818 1534.51 182.641 1526.91 160.947 1518.6 C 147.639 1513 134.631 1505.27 128.468 1491.32 C 123.071 1479.26 123.324 1453.57 127.303 1441.32 C 133.045 1423.64 169.547 1412.69 185.96 1406.08 C 325.148 1349.94 467.153 1299.23 605.86 1242.03 C 603.263 1164.24 603.411 1086.38 606.306 1008.59 C 611.451 880.06 623.209 819.838 684.609 704.524 C 677.214 694.556 677.085 685.973 677.317 673.92 C 677.571 660.723 676.028 646.512 684.017 635.336 C 684.035 621.161 683.524 601.468 684.644 587.765 C 685.747 585.785 685.347 584.386 685.335 581.849 C 683.956 564.212 687.721 544.481 699.874 530.997 C 744.361 481.641 853.046 468.345 915.279 462.777 C 969.272 457.946 1027.48 462.042 1079.9 470.374 z" fill="rgb(108,48,23)" transform="translate(0,0)"></path>
<path d="M 1888.38 1465.84 C 1906.06 1446.68 1931.03 1424.29 1951.07 1407.56 L 1951.04 1555.83 C 1951.08 1565.8 1950.04 1600.78 1951.04 1607.76 C 1944.3 1609.72 1926.94 1618.17 1919.29 1621.59 L 1860.83 1647.33 L 1507.7 1803.63 C 1457.52 1825.55 1407.09 1849.5 1355.83 1868.94 C 1340.44 1874.77 1317.53 1875.23 1301.31 1874.79 C 1277.26 1874.13 1253.87 1864.99 1231.34 1857.08 C 1212.51 1850.6 1193.77 1843.84 1175.13 1836.81 C 1157.75 1830.14 1138.5 1822.09 1120.9 1816.6 C 1145.31 1803.67 1170.57 1793.65 1195.7 1782.32 C 1227.71 1767.89 1259.55 1753.8 1291.84 1740 C 1353.72 1763.58 1432.22 1756.05 1491.86 1728.57 C 1520.7 1715.29 1548.63 1693.59 1560.23 1663.14 C 1586.61 1652.21 1621.84 1643.42 1649.92 1635.65 C 1691.04 1624.24 1732.25 1613.12 1773.53 1602.29 C 1821.15 1590.22 1871.06 1578.82 1914.22 1554.21 C 1930.85 1544.73 1958.24 1519.94 1938.66 1499.25 C 1934.19 1494.52 1922.97 1493.72 1916.5 1492.71 C 1903.01 1490.61 1895.34 1476.32 1888.38 1465.84 z" fill="rgb(234,221,191)" transform="translate(0,0)"></path>
<path d="M 1910.55 1257.95 C 1918.28 1261.85 1945.6 1275.28 1951.49 1280.46 C 1949.83 1284.66 1949.65 1350.78 1951.12 1353.11 C 1945.82 1359.3 1913.34 1382.71 1903.96 1390.87 C 1858.32 1430.58 1783.49 1497.34 1752.84 1549.49 C 1725.17 1558.04 1694.83 1569.62 1667.34 1579.51 C 1670.01 1564.37 1673.42 1549.38 1677.57 1534.58 C 1710.14 1419.29 1807.54 1315.44 1910.55 1257.95 z" fill="rgb(252,251,243)" transform="translate(0,0)"></path>
<path d="M 1117.08 1822.47 C 1170.71 1839.9 1253.64 1881.49 1307.26 1881.94 C 1324.01 1882.08 1341.55 1880.65 1357.59 1875.56 C 1373.8 1870.42 1389.4 1862.98 1405.05 1856.34 C 1440.47 1841.31 1475.4 1825.22 1510.78 1810.13 C 1658.52 1747.08 1804.41 1679.39 1951.47 1614.76 C 1951.18 1619.96 1950.18 1636.08 1951.19 1640.87 C 1947.49 1643.64 1942.36 1646.01 1938.09 1647.97 C 1901.81 1664.65 1865.43 1681.36 1829.11 1697.94 C 1736.03 1740.52 1642.59 1782.31 1548.8 1823.32 L 1433.87 1875.46 C 1393.47 1893.93 1360.55 1913.04 1314.66 1915.34 C 1271.2 1917.52 1251.82 1907.1 1212.03 1892.48 C 1180.37 1880.86 1148.64 1869.44 1116.84 1858.23 L 1117.08 1822.47 z" fill="rgb(234,221,191)" transform="translate(0,0)"></path>
<path d="M 1949.09 1363.85 C 1951.19 1369.21 1952.67 1396.81 1950.27 1401.77 C 1949.2 1401.9 1948.14 1402.02 1947.07 1402.15 C 1927.54 1417.03 1893.14 1451.11 1877.41 1466.31 C 1854.95 1488.02 1840 1506.43 1822.1 1527.84 C 1806.98 1531.25 1779.23 1540.41 1763.9 1545.09 C 1768.07 1537.41 1780.89 1521.91 1786.91 1514.77 C 1832.97 1460.17 1892.13 1406.63 1949.09 1363.85 z" fill="rgb(252,251,243)" transform="translate(0,0)"></path>
<path d="M 689.213 707.433 C 767.327 759.85 856.147 763.898 946.789 770.166 L 946.842 771.608 C 947.67 790.121 954.632 818.167 969.652 830.061 C 1012 863.594 1060.69 810.932 1085.34 781.812 C 1050.67 855.482 1015.38 922.224 987.558 999.66 C 963.696 1066.08 955.993 1130.06 975.004 1199.47 C 980.464 1219.4 995.201 1261.55 1018.58 1229.55 C 1025.61 1219.78 1022.68 1212.4 1019.62 1201.36 C 992.645 1104.22 1016.99 994.012 1055.46 903.354 C 1086.58 902.149 1116.14 895.62 1148.59 895.455 C 1158.53 974.887 1168.43 1043 1217.89 1108.92 C 1229.9 1124.92 1261.47 1169.99 1280.71 1174.25 C 1283.64 1174.9 1282.04 1173.49 1284.99 1175.56 C 1285.7 1184.76 1284.54 1200.65 1284.11 1210.53 C 1283.47 1226.48 1282.92 1242.44 1282.46 1258.4 C 1280.91 1310.28 1278.42 1362.13 1274.97 1413.92 C 1272.93 1444.45 1270.95 1475.73 1265.97 1505.91 C 1263.91 1518.39 1254.68 1527.98 1244.47 1534.72 C 1219.59 1551.12 1189.55 1564.01 1161.36 1573.47 C 1059.04 1607.18 949.935 1614.86 843.903 1595.83 C 790.42 1585.77 732.598 1565.62 686.574 1535.97 C 669.466 1524.95 662.65 1519.44 658.481 1499.07 C 652.687 1470.76 650.044 1442.7 647.766 1413.91 C 639.054 1301.13 635.601 1188.02 637.419 1074.92 C 638.253 1014.14 636.963 933.709 650.167 875.18 C 653.254 876.702 656.356 878.195 659.471 879.658 C 764.406 928.832 891.365 914.206 1003.68 907.852 C 1008.45 907.583 1023.68 907.743 1025.47 903.127 C 1020.55 897.07 975.303 901.769 965.464 902.273 C 856.151 907.881 753.829 916.018 652.243 868.389 C 657.685 840.827 669.318 815.433 679.864 789.707 C 683.83 780.032 704.385 739.104 703.281 732.08 L 701.892 732.414 L 702.738 733.688 L 702.768 733.051 C 698.783 734.172 697.816 738.144 695.817 741.83 C 666.33 802.405 640.554 861.502 636.006 929.726 C 629.761 1023.43 630.233 1117.19 631.893 1211.02 C 633.341 1292.85 637.261 1374.87 645.721 1456.29 C 647.085 1469.36 652.028 1509.05 658.305 1518.13 C 684.543 1556.09 775.717 1587.28 818.222 1597.25 C 949.848 1628.1 1121.64 1613.25 1239.99 1545.06 C 1253.65 1537.2 1268.51 1526.42 1271.52 1510.79 C 1277.28 1480.89 1279.29 1449.13 1281.38 1418.88 C 1285.48 1361.01 1288.27 1303.06 1289.74 1245.07 C 1290.8 1212.36 1291.68 1180.96 1295.46 1148.4 C 1297.03 1134.91 1295.4 1111.09 1295.54 1096.47 C 1296.46 1045.17 1295.59 993.853 1292.94 942.612 C 1291.39 915.766 1289.79 886.905 1285.55 860.381 C 1282.48 841.216 1272.08 823.82 1262.03 807.532 C 1269.53 808.831 1277.57 809.895 1285.15 811.074 C 1318.41 880.124 1312.83 1081.43 1310.8 1161.49 C 1309.15 1243.43 1305.48 1325.32 1299.8 1407.08 C 1297.91 1435.69 1294.24 1502.51 1285.34 1528.29 C 1276.13 1554.94 1218.84 1580.16 1192.53 1590.24 C 1038.34 1649.06 864.531 1647.46 713.291 1580.15 C 629.746 1542.97 634.395 1520.1 626.121 1437.17 C 619.096 1364.92 615.032 1292.4 613.939 1219.81 C 611.983 1156.83 611.946 1093.81 613.829 1030.83 C 615.503 981.298 617.314 923.255 626.611 874.96 C 637.153 820.195 666.179 758.054 689.213 707.433 z" fill="rgb(252,251,243)" transform="translate(0,0)"></path>
<path d="M 677.955 845.947 C 682.037 847.485 687.764 851.234 692.323 853.191 C 715.022 862.929 739.145 865.832 763.59 866.965 C 769.845 867.254 783.896 866.332 788.996 868.037 C 791.415 870.717 790.78 869.154 790.706 872.98 C 755.265 873.119 713.951 871.66 680.926 854.839 C 677.908 853.302 676.862 851.571 676.152 848.624 L 677.955 845.947 z" fill="rgb(108,48,23)" transform="translate(0,0)"></path>
<path d="M 703.931 843.149 C 709.373 842.477 740.298 847.32 746.032 850.712 C 747.188 851.396 746.868 853.192 747.004 855.034 C 736.749 855.391 715.176 852.109 705.476 846.718 C 703.912 845.849 704.309 845.307 703.931 843.149 z" fill="rgb(108,48,23)" transform="translate(0,0)"></path>
<path d="M 829.65 865.446 C 833.097 865.584 831.502 865.13 834.546 867.06 L 834.584 868.742 C 830.069 872.31 816.157 872.534 809.753 873.012 C 807.802 872.95 805.89 872.785 803.944 872.642 C 802.386 870.821 802.781 871.902 802.949 869.334 C 807.039 865.528 823.277 865.761 829.65 865.446 z" fill="rgb(108,48,23)" transform="translate(0,0)"></path>
<path d="M 1082.48 1278.38 C 1084.93 1277.15 1087.87 1277.43 1090.05 1279.09 C 1092.23 1280.75 1093.28 1283.5 1092.76 1286.2 C 1092.23 1288.89 1090.22 1291.05 1087.57 1291.76 C 1084 1292.73 1080.29 1290.83 1078.97 1287.38 C 1077.65 1283.92 1079.17 1280.03 1082.48 1278.38 z" fill="rgb(108,48,23)" transform="translate(0,0)"></path>
<path d="M 724.115 1303.75 C 727.753 1302.27 731.895 1304.03 733.369 1307.67 C 734.843 1311.3 733.092 1315.45 729.457 1316.92 C 725.817 1318.4 721.667 1316.65 720.191 1313.01 C 718.715 1309.37 720.473 1305.22 724.115 1303.75 z" fill="rgb(108,48,23)" transform="translate(0,0)"></path>
<path d="M 971.64 1511.61 C 975.238 1510.35 979.179 1512.2 980.513 1515.77 C 981.848 1519.34 980.087 1523.32 976.55 1524.74 C 974.188 1525.68 971.501 1525.28 969.526 1523.67 C 967.551 1522.07 966.599 1519.52 967.038 1517.02 C 967.477 1514.51 969.238 1512.44 971.64 1511.61 z" fill="rgb(108,48,23)" transform="translate(0,0)"></path>
<path d="M 739.218 780.693 C 741.962 780.904 741.63 780.908 744.306 781.622 C 749.412 786.527 747.497 790.135 743.762 795.148 C 742.668 795.048 740.359 794.555 739.327 794.362 C 733.404 789.52 735.479 786.186 739.218 780.693 z" fill="rgb(108,48,23)" transform="translate(0,0)"></path>
<path d="M 877.185 978.426 C 879.232 977.522 881.612 977.825 883.368 979.213 C 885.124 980.601 885.968 982.846 885.562 985.047 C 885.155 987.248 883.565 989.044 881.429 989.713 C 878.372 990.671 875.099 989.075 873.971 986.076 C 872.843 983.077 874.254 979.72 877.185 978.426 z" fill="rgb(108,48,23)" transform="translate(0,0)"></path>
<path d="M 700.099 1141.5 C 702.01 1140.48 704.32 1140.58 706.142 1141.74 C 707.963 1142.91 709.012 1144.97 708.886 1147.13 C 708.76 1149.29 707.478 1151.22 705.533 1152.17 C 702.597 1153.6 699.055 1152.41 697.572 1149.5 C 696.09 1146.59 697.214 1143.03 700.099 1141.5 z" fill="rgb(108,48,23)" transform="translate(0,0)"></path>
<path d="M 708.625 947.336 C 713.195 948.799 714.343 949.319 716.058 953.937 C 715.642 958.084 715.141 958.304 712.312 961.657 C 708.387 959.676 706.921 958.714 705.501 954.618 C 705.703 950.649 706.182 950.377 708.625 947.336 z" fill="rgb(108,48,23)" transform="translate(0,0)"></path>
<path d="M 1164.13 1464.71 C 1165.85 1463.69 1167.99 1463.68 1169.73 1464.68 C 1171.46 1465.68 1172.52 1467.54 1172.5 1469.54 C 1172.48 1471.54 1171.37 1473.37 1169.62 1474.33 C 1166.97 1475.78 1163.65 1474.84 1162.15 1472.22 C 1160.66 1469.59 1161.54 1466.26 1164.13 1464.71 z" fill="rgb(108,48,23)" transform="translate(0,0)"></path>
<path d="M 798.596 1195.85 C 800.829 1194.03 804.105 1194.35 805.955 1196.55 C 807.806 1198.75 807.548 1202.03 805.376 1203.92 C 803.938 1205.17 801.939 1205.55 800.145 1204.91 C 798.352 1204.26 797.044 1202.71 796.723 1200.83 C 796.402 1198.95 797.118 1197.05 798.596 1195.85 z" fill="rgb(108,48,23)" transform="translate(0,0)"></path>
<path d="M 805.962 1416.39 C 809.832 1417.2 810.336 1418.22 811.875 1421.47 C 811.864 1425.35 811.353 1425.79 809.408 1429.06 C 805.253 1428.3 804.367 1427.77 802.887 1424.06 C 803.186 1420.16 803.852 1419.6 805.962 1416.39 z" fill="rgb(108,48,23)" transform="translate(0,0)"></path>
<path d="M 817.931 1328.63 C 820.328 1327.48 823.208 1328.43 824.446 1330.78 C 825.683 1333.14 824.834 1336.05 822.525 1337.37 C 820.957 1338.27 819.024 1338.24 817.486 1337.29 C 815.947 1336.34 815.048 1334.63 815.141 1332.83 C 815.233 1331.02 816.304 1329.42 817.931 1328.63 z" fill="rgb(108,48,23)" transform="translate(0,0)"></path>
<path d="M 1183.26 1267.23 C 1185.85 1266.71 1188.38 1268.34 1188.99 1270.91 C 1189.59 1273.48 1188.05 1276.07 1185.5 1276.77 C 1183.78 1277.24 1181.93 1276.73 1180.69 1275.44 C 1179.44 1274.15 1179 1272.28 1179.54 1270.57 C 1180.07 1268.86 1181.5 1267.58 1183.26 1267.23 z" fill="rgb(108,48,23)" transform="translate(0,0)"></path>
<path d="M 1187.37 1377.72 C 1189.71 1376.7 1192.44 1377.65 1193.62 1379.91 C 1194.81 1382.17 1194.05 1384.96 1191.88 1386.3 C 1190.33 1387.26 1188.38 1387.27 1186.82 1386.34 C 1185.27 1385.4 1184.36 1383.68 1184.47 1381.86 C 1184.59 1380.05 1185.71 1378.45 1187.37 1377.72 z" fill="rgb(108,48,23)" transform="translate(0,0)"></path>
<path d="M 1087.13 1534.85 C 1089.66 1534.04 1092.37 1535.4 1093.22 1537.91 C 1094.08 1540.42 1092.76 1543.16 1090.26 1544.05 C 1088.61 1544.64 1086.76 1544.3 1085.44 1543.15 C 1084.11 1542 1083.51 1540.22 1083.86 1538.5 C 1084.21 1536.78 1085.46 1535.38 1087.13 1534.85 z" fill="rgb(108,48,23)" transform="translate(0,0)"></path>
<path d="M 1117.97 1421.65 C 1120.41 1420.83 1123.06 1422.08 1123.98 1424.49 C 1124.9 1426.89 1123.76 1429.59 1121.39 1430.61 C 1119.78 1431.3 1117.91 1431.06 1116.53 1429.97 C 1115.14 1428.88 1114.47 1427.11 1114.77 1425.38 C 1115.07 1423.65 1116.3 1422.21 1117.97 1421.65 z" fill="rgb(108,48,23)" transform="translate(0,0)"></path>
<path d="M 1049.25 1363.41 C 1051.61 1362.24 1054.48 1363.21 1055.64 1365.58 C 1056.81 1367.95 1055.83 1370.81 1053.45 1371.97 C 1051.09 1373.12 1048.25 1372.14 1047.09 1369.79 C 1045.93 1367.43 1046.9 1364.58 1049.25 1363.41 z" fill="rgb(108,48,23)" transform="translate(0,0)"></path>
<path d="M 826.325 1074.72 C 828.304 1073.23 831.097 1073.53 832.72 1075.4 C 834.344 1077.27 834.246 1080.07 832.497 1081.82 C 831.249 1083.07 829.409 1083.52 827.727 1082.98 C 826.045 1082.45 824.802 1081.02 824.507 1079.28 C 824.212 1077.54 824.913 1075.78 826.325 1074.72 z" fill="rgb(108,48,23)" transform="translate(0,0)"></path>
<path d="M 725.232 1468.46 C 727.483 1467.33 730.23 1468.22 731.375 1470.47 C 732.521 1472.72 731.632 1475.47 729.389 1476.62 C 727.134 1477.78 724.367 1476.89 723.216 1474.63 C 722.065 1472.37 722.969 1469.6 725.232 1468.46 z" fill="rgb(108,48,23)" transform="translate(0,0)"></path>
<path d="M 1113.17 951.822 C 1115.64 951.753 1117.71 953.691 1117.79 956.161 C 1117.88 958.632 1115.96 960.71 1113.49 960.814 C 1110.99 960.919 1108.89 958.972 1108.8 956.477 C 1108.71 953.982 1110.68 951.893 1113.17 951.822 z" fill="rgb(108,48,23)" transform="translate(0,0)"></path>
<path d="M 882.929 1162.43 C 884.395 1161.55 886.24 1161.58 887.671 1162.52 C 889.103 1163.46 889.866 1165.14 889.633 1166.84 C 889.4 1168.54 888.212 1169.95 886.579 1170.47 C 884.433 1171.15 882.115 1170.12 881.184 1168.07 C 880.252 1166.02 881.002 1163.6 882.929 1162.43 z" fill="rgb(108,48,23)" transform="translate(0,0)"></path>
<path d="M 1102.15 1072.63 C 1103.51 1071.78 1105.23 1071.74 1106.63 1072.53 C 1108.03 1073.33 1108.88 1074.82 1108.85 1076.43 C 1108.81 1078.04 1107.89 1079.5 1106.46 1080.23 C 1104.38 1081.29 1101.83 1080.52 1100.68 1078.49 C 1099.52 1076.46 1100.17 1073.88 1102.15 1072.63 z" fill="rgb(108,48,23)" transform="translate(0,0)"></path>
<path d="M 1051.85 1476.95 C 1054.18 1476.28 1056.61 1477.61 1057.29 1479.93 C 1057.98 1482.25 1056.67 1484.69 1054.36 1485.39 C 1052.02 1486.11 1049.54 1484.78 1048.84 1482.43 C 1048.15 1480.09 1049.5 1477.62 1051.85 1476.95 z" fill="rgb(108,48,23)" transform="translate(0,0)"></path>
<path d="M 1133.74 1183.41 C 1137.93 1183.97 1137.16 1183.24 1139.89 1185.57 C 1140.53 1188.82 1139.85 1189.6 1138.48 1192.61 C 1134.66 1192.77 1136.32 1193.26 1133.25 1191.42 C 1132.15 1188.21 1132.9 1186.72 1133.74 1183.41 z" fill="rgb(108,48,23)" transform="translate(0,0)"></path>
<path d="M 715.551 1026.6 C 717.168 1025.24 719.572 1025.41 720.984 1026.98 C 722.397 1028.55 722.308 1030.96 720.784 1032.42 C 719.753 1033.41 718.264 1033.76 716.901 1033.33 C 715.537 1032.9 714.515 1031.77 714.234 1030.37 C 713.953 1028.96 714.458 1027.52 715.551 1026.6 z" fill="rgb(108,48,23)" transform="translate(0,0)"></path>
<path d="M 1321.05 133.273 C 1420.2 166.73 1522.08 193.221 1621.01 226.006 C 1622.33 407.23 1622.67 588.46 1622.04 769.688 L 1611.79 766.207 C 1578.61 752.862 1529.75 737.575 1495.42 726.291 C 1450.02 711.348 1404.76 695.973 1359.65 680.167 C 1379.88 638.519 1380.75 592.698 1321.29 592.844 C 1319 542.739 1320.73 481.547 1320.69 430.424 C 1320.28 331.374 1320.4 232.322 1321.05 133.273 z" fill="rgb(252,251,243)" transform="translate(0,0)"></path>
<path d="M 1677.64 244.373 L 1874.45 305.264 C 1900.36 313.182 1925.48 321.477 1951.65 328.628 C 1952.57 453.953 1952.64 579.283 1951.86 704.609 L 1951.95 825.521 C 1951.92 838.292 1952.52 873.278 1950.79 884.459 C 1917.68 876.045 1885.54 862.005 1853.25 851.381 C 1794.35 832.007 1735.62 807.551 1676.62 789.106 L 1677.06 410.053 C 1676.81 354.826 1677 299.597 1677.64 244.373 z" fill="rgb(252,251,243)" transform="translate(0,0)"></path>
<path d="M 604.288 1250.92 C 604.976 1251.16 606.064 1251.44 606.093 1252.44 C 606.38 1262.15 606.684 1271.87 607.026 1281.58 C 608.404 1314.84 610.403 1348.07 613.02 1381.26 C 595.438 1390.28 560.822 1402.31 541.18 1410.37 L 391.571 1471.07 C 360.434 1483.51 321.936 1497.85 291.912 1511.97 C 255.757 1500.76 217.536 1486.89 180.955 1475.07 C 164.976 1469.51 108.521 1447.33 149.1 1429.46 C 197.374 1408.21 247.386 1390.09 296.552 1370.87 L 604.288 1250.92 z" fill="rgb(234,221,191)" transform="translate(0,0)"></path>
<path d="M 1471.32 1538.01 C 1476.51 1538.39 1498.69 1549.43 1504.96 1551.84 C 1547.6 1568.19 1589.46 1581.78 1633.9 1592.37 C 1606.4 1603.13 1569.89 1612.51 1545.01 1628.93 C 1516.84 1605.77 1419.83 1624.64 1385.54 1635.76 C 1371.61 1631.83 1361.16 1627.6 1344.81 1630.97 C 1311.26 1637.88 1255.02 1668.05 1260.66 1709.36 C 1262.29 1721.3 1275.98 1730.77 1286.03 1736.92 C 1246.43 1749.59 1190.68 1778.74 1149.67 1795.17 C 1137.34 1800.3 1125.22 1806.64 1113.27 1812.64 C 1098.97 1808.46 1078.5 1800.39 1064.3 1795.01 L 958.46 1753.74 C 1058.31 1709.21 1158.76 1666.03 1259.78 1624.23 C 1304.55 1604.84 1349.61 1586.1 1394.92 1568.03 C 1417.75 1558.73 1448.4 1545.45 1471.32 1538.01 z" fill="rgb(234,221,191)" transform="translate(0,0)"></path>
<path d="M 1305.6 1444.38 C 1346.95 1473.72 1417.36 1514.75 1464.75 1533.53 C 1439.16 1542.5 1413.16 1553.47 1387.99 1563.78 C 1345.92 1580.99 1303.99 1598.53 1262.2 1616.41 C 1158.34 1659.44 1055.01 1703.75 952.24 1749.33 C 951.294 1749.67 949.036 1750.63 947.988 1750.24 C 898.552 1731.89 845.985 1714.72 797.351 1694.69 C 824.817 1680.88 855.539 1670.04 883.842 1657.81 C 895.691 1652.69 912.266 1646.53 923.14 1640.15 C 1021.71 1647.26 1123.16 1628.96 1214.24 1591.09 C 1303.3 1554.06 1297.29 1530.85 1305.6 1444.38 z" fill="rgb(234,221,191)" transform="translate(0,0)"></path>
<path d="M 1749.82 1181.94 C 1759.15 1184.52 1778.31 1193.57 1787.49 1197.69 C 1809.48 1207.47 1831.4 1217.44 1853.24 1227.57 C 1838.08 1237.45 1823.29 1247.88 1808.92 1258.86 C 1722.82 1325.65 1650.34 1420.18 1627.2 1528.22 C 1625.93 1534.12 1624.98 1539.9 1624.23 1545.87 C 1622.42 1557.2 1622 1570.41 1621.47 1581.96 C 1598.79 1575.52 1576.26 1568.59 1553.88 1561.19 C 1553.41 1549.79 1553.53 1538.38 1554.24 1526.99 C 1563.24 1399.14 1655.48 1263.92 1749.82 1181.94 z" fill="rgb(252,251,243)" transform="translate(0,0)"></path>
<path d="M 932.387 470.564 C 1008.27 465.788 1102.53 474.755 1173.27 503.613 C 1247.79 534.01 1265.32 582.245 1178.33 612.861 C 1188.45 606.53 1199.4 599.481 1208.07 591.154 C 1215.49 584.028 1220.79 576.222 1221.09 565.575 C 1221.37 555.916 1213.68 544.839 1206.87 538.476 C 1158.04 492.817 1038.86 482.945 974.001 482.374 C 905.049 481.767 768.955 491.81 715.311 539.878 C 708.843 545.673 703.861 556.595 704.486 565.53 C 704.855 574.412 710.951 582.204 717.485 587.56 C 759.181 621.746 803.396 633.629 856.109 640.328 C 916.305 647.979 975.884 649.215 1036.62 643.818 C 1082.97 640.385 1128 633.38 1172.49 619.734 C 1200.65 611.099 1218.15 605.883 1238.05 582.429 L 1238.17 613.75 C 1238.3 615.884 1239.01 622.341 1237.22 623.498 C 1199.95 647.588 1168.62 676.228 1135.08 705.148 C 1114.73 691.442 1100.04 675.949 1075.32 668.195 C 1047.76 659.549 1009.46 657.183 983.017 670.548 C 963.716 680.303 955.834 693.781 949.628 713.512 C 927.838 713.228 906.085 711.642 884.484 708.763 C 853.496 704.658 713.25 680.651 692.952 641.334 C 690.184 635.972 691.187 584.453 691.207 574.33 C 710.864 605.944 735.161 611.397 765.035 630.489 C 774.658 636.638 784.831 645.394 793.998 652.449 C 808.281 663.545 823.847 672.884 840.359 680.266 C 868.634 692.576 898.806 699.963 929.57 702.108 C 933.487 702.356 942.475 703.037 945.926 701.72 C 940.821 699.245 923.092 698.336 916.109 697.159 C 876.451 690.476 836.79 675.575 803.634 652.643 C 791.651 644.174 779.807 633.048 767.508 625.31 C 753.368 616.141 737.001 608.889 723.283 599.212 C 649.946 547.476 733.848 507.547 781.779 493.539 C 833.787 478.34 879.042 472.642 932.387 470.564 z" fill="rgb(252,251,243)" transform="translate(0,0)"></path>
<path d="M 1766.16 1552.11 C 1766.56 1552.52 1766.98 1552.91 1767.37 1553.34 C 1777.86 1564.87 1781.54 1577.01 1780.96 1592.31 C 1753.6 1598.48 1718.56 1609.23 1690.89 1616.8 C 1649.01 1628.26 1596.49 1640.62 1557.22 1657.26 C 1546.16 1681.53 1527.5 1701.53 1504.05 1714.22 C 1450.39 1743.73 1371.78 1755.82 1312.71 1739.45 C 1237.36 1718.57 1265.58 1671.06 1319.42 1645.97 C 1369.55 1623.31 1378.44 1648.14 1422.15 1657.27 C 1443.15 1661.66 1497.36 1661.66 1519.33 1658.96 L 1519.34 1657.61 C 1510.86 1651.38 1504.01 1652.49 1493.84 1653.05 C 1458.87 1654.98 1424.32 1654.6 1391.78 1640.15 C 1420.86 1628.63 1497.24 1619.37 1528.15 1627.82 C 1538.45 1630.64 1544.64 1640.76 1552.4 1640.86 L 1553.63 1639.66 C 1552.66 1637.42 1552.11 1635.98 1551.34 1633.66 C 1557.38 1624.74 1740.39 1560.94 1766.16 1552.11 z" fill="rgb(252,251,243)" transform="translate(0,0)"></path>
<path d="M 1540.16 1646.54 L 1542.03 1647.61 C 1542.36 1649.46 1542.38 1650.42 1541.7 1652.23 C 1536.1 1667.1 1508.31 1682.8 1494.78 1689.18 C 1442 1714.07 1345.7 1735.47 1289.71 1715.22 C 1287.24 1713.27 1286.48 1712.92 1285.37 1709.88 L 1286.49 1708.44 C 1291.5 1707.58 1297.77 1710.9 1302.88 1711.85 C 1312 1713.54 1321.58 1713.76 1330.83 1713.85 C 1389 1714.42 1463.96 1700.15 1513.56 1668.43 C 1523.47 1662.09 1531.78 1654.73 1540.16 1646.54 z" fill="rgb(108,48,23)" transform="translate(0,0)"></path>
<path d="M 1390.14 1664.51 C 1394.09 1664.39 1397.46 1667.35 1397.83 1671.29 C 1398.21 1675.22 1395.47 1678.78 1391.57 1679.41 C 1388.81 1679.86 1386.03 1678.73 1384.36 1676.49 C 1382.69 1674.25 1382.4 1671.27 1383.61 1668.75 C 1384.83 1666.23 1387.34 1664.6 1390.14 1664.51 z" fill="rgb(108,48,23)" transform="translate(0,0)"></path>
<path d="M 1296.82 1678.68 C 1299.16 1678.84 1301.26 1679.08 1303.32 1680.34 C 1305.61 1681.74 1306.14 1683.58 1306.78 1686 C 1305.59 1689.77 1304.98 1689.8 1301.86 1691.96 C 1299.51 1691.93 1297 1691.79 1294.97 1690.41 C 1292.69 1688.85 1292.61 1687.59 1292.22 1685.11 C 1292.95 1681.99 1294.55 1680.73 1296.82 1678.68 z" fill="rgb(108,48,23)" transform="translate(0,0)"></path>
<path d="M 1339.53 1660.64 C 1343.14 1660.91 1345.78 1661.66 1348.21 1664.45 C 1348.47 1667.86 1347.82 1668.08 1345.88 1670.76 C 1344.43 1670.83 1342.36 1671.1 1340.98 1670.74 C 1338.45 1670.07 1338.05 1669.19 1336.9 1667.11 C 1336.97 1664.02 1337.79 1663.03 1339.53 1660.64 z" fill="rgb(108,48,23)" transform="translate(0,0)"></path>
<path d="M 1619.45 1133.63 C 1644.14 1140.43 1666.65 1147.42 1690.23 1157.26 C 1686.05 1163.04 1678.8 1170.4 1673.72 1175.71 C 1580.85 1272.9 1492.09 1397.13 1498.52 1538.03 C 1498.07 1538.55 1497.61 1539.06 1497.16 1539.58 C 1471.3 1529.6 1449.14 1518.1 1424.24 1506.21 C 1421.63 1389.08 1491.42 1280.95 1565.22 1195.59 C 1583.18 1174.81 1601.68 1154.61 1619.45 1133.63 z" fill="rgb(252,251,243)" transform="translate(0,0)"></path>
<path d="M 612.029 1388.07 C 613.961 1390.34 614.395 1404.4 614.758 1408.54 C 617.385 1438.59 620.142 1469.43 625.532 1499.14 C 605.84 1505.88 466.401 1560.18 455.104 1569.14 C 421.077 1557.03 386.951 1545.2 352.727 1533.66 C 335.018 1527.33 317.098 1521.75 299.367 1515.39 C 311.502 1511.08 327.873 1503.8 340.147 1498.83 L 433.28 1460.92 C 492.241 1437.02 553.87 1413.73 612.029 1388.07 z" fill="rgb(234,221,191)" transform="translate(0,0)"></path>
<path d="M 1492.25 1110.75 C 1514.07 1111.78 1542.09 1116.25 1563.71 1120.41 C 1556.99 1129.5 1545.29 1141.09 1537.29 1149.58 C 1525.81 1161.71 1514.64 1174.13 1503.79 1186.83 C 1438.35 1263.17 1381.33 1352.94 1378.21 1456.6 C 1377.96 1464.64 1378.11 1472.81 1378.17 1480.86 C 1358.21 1471.1 1324.32 1448.94 1306.78 1435.62 C 1307.76 1396.02 1310.76 1381.52 1325.65 1344.45 C 1351.34 1280.48 1389.17 1224.57 1434.6 1172.96 C 1453.25 1151.79 1473.13 1131.45 1492.25 1110.75 z" fill="rgb(252,251,243)" transform="translate(0,0)"></path>
<path d="M 955.255 490.539 C 985.759 489.321 1016.31 490.454 1046.64 493.928 C 1095.07 499.289 1172.94 510.553 1207.37 548.594 C 1224.74 567.788 1209.75 582.649 1193.56 594.671 C 1172.6 570.716 1096.82 554.008 1064.53 550.93 C 1056.37 550.152 1025.48 548.423 1020.85 546.693 C 1006.57 541.347 982.632 527.464 968.518 519.999 C 951.837 510.85 941.245 521.119 927.31 530.343 C 918.963 535.868 911.106 541.672 902.603 547.011 C 841.546 547.938 784.43 555.944 732.726 590.608 C 730.325 588.828 727.967 586.991 725.654 585.099 C 690.549 556.191 728.962 532.683 756.533 522.213 C 819.402 498.339 888.435 491.711 955.255 490.539 z" fill="rgb(252,251,243)" transform="translate(0,0)"></path>
<path d="M 954.069 522.792 C 957.035 522.789 961.971 524.686 964.643 526.151 C 1014.29 553.381 1065.24 577.986 1114.92 605.141 C 1124.19 610.207 1134.1 614.744 1143.62 619.28 C 1098.33 630.73 1034.21 636.678 987.425 638.062 C 930.584 639.163 850.625 637.56 796.407 620.395 C 805.673 613.24 819.109 605.823 829.348 599.834 C 846.009 590.123 862.598 580.29 879.114 570.336 C 902.387 556.052 931.065 534.924 954.069 522.792 z" fill="rgb(252,251,243)" transform="translate(0,0)"></path>
<path d="M 985.791 570.432 C 991.017 571.311 999.077 581.41 1000.66 586.385 C 990.458 587.797 986.094 579.46 985.791 570.432 z" fill="rgb(108,48,23)" transform="translate(0,0)"></path>
<path d="M 910.685 587.593 C 915.318 592.842 917.2 598.665 915.943 605.559 C 905.543 604.136 908.335 595.115 910.685 587.593 z" fill="rgb(108,48,23)" transform="translate(0,0)"></path>
<path d="M 941.721 562.166 L 944.556 562.715 C 948.485 566.99 947.172 574.007 946.926 580.095 C 944.5 579.29 944.48 579.135 942.364 577.629 C 939.223 571.902 940.519 568.742 941.721 562.166 z" fill="rgb(108,48,23)" transform="translate(0,0)"></path>
<path d="M 958.064 587.285 L 960.13 588.362 C 963.822 593.931 964.203 598.543 960.625 604.171 C 952.418 599.786 955.098 594.209 958.064 587.285 z" fill="rgb(108,48,23)" transform="translate(0,0)"></path>
<path d="M 1025.79 582.388 C 1030.34 583.381 1035.57 592.641 1037.26 596.75 C 1026.82 598.278 1026.74 590.227 1025.79 582.388 z" fill="rgb(108,48,23)" transform="translate(0,0)"></path>
<path d="M 1696.75 1159.72 C 1707.18 1161.9 1733.96 1173.94 1743.64 1178.91 C 1735.88 1186.56 1727.71 1193.8 1720.02 1201.59 C 1640.19 1282.53 1571.29 1383.19 1551.37 1497.03 C 1547.76 1517.61 1547.61 1535.3 1547.6 1555.75 L 1546.86 1557.49 C 1542.42 1558.23 1512.05 1545.66 1505.35 1543.03 C 1504.8 1536.2 1504.44 1529.35 1504.27 1522.5 C 1502.32 1400.47 1583.84 1280.11 1663.81 1194.65 C 1674.74 1182.97 1685.62 1171.21 1696.75 1159.72 z" fill="rgb(234,221,191)" transform="translate(0,0)"></path>
<path d="M 1859.07 1231.81 C 1865.05 1232.72 1896.97 1250.39 1904.18 1254.41 C 1785.19 1323.04 1684.49 1439.7 1661.72 1578.02 C 1661.88 1584.16 1651.23 1586.39 1646.05 1588.36 L 1627.9 1583.47 C 1628.07 1560.92 1630.86 1538.46 1636.23 1516.55 C 1665.73 1399.74 1756.71 1292.73 1859.07 1231.81 z" fill="rgb(234,221,191)" transform="translate(0,0)"></path>
<path d="M 1570.7 1121.77 C 1583.68 1124.14 1600.71 1127.16 1613.14 1130.7 C 1605.58 1141.8 1592.96 1155.43 1583.98 1165.42 C 1570.57 1180.14 1557.42 1195.11 1544.55 1210.31 C 1481.51 1285.89 1419.8 1390.75 1417.88 1491.75 C 1417.93 1496.14 1418.08 1497.65 1417.2 1501.86 C 1412.06 1500.57 1390.47 1488.44 1384.68 1485.26 C 1378.22 1369 1439.3 1269.67 1512.89 1185.54 C 1530.07 1165.9 1556.39 1140.17 1570.7 1121.77 z" fill="rgb(234,221,191)" transform="translate(0,0)"></path>
<path d="M 1277.56 865.962 L 1278.86 866.601 C 1282.7 873.966 1285.11 926.463 1285.92 938.699 C 1290.01 1000.19 1289.18 1062.38 1288.75 1123.97 C 1275.04 1106.18 1263.62 1091.14 1251.29 1072.45 C 1227.85 1038.59 1210.67 1000.81 1200.56 960.887 C 1195.56 940.571 1191.25 913.263 1187.24 892.284 C 1227.55 884.644 1237.49 884.431 1277.56 865.962 z" fill="rgb(252,251,243)" transform="translate(0,0)"></path>
<path d="M 623.677 1504.98 C 627.182 1505.39 628.736 1516.05 630.039 1519.95 C 642.016 1555.76 679.246 1573.1 710.47 1588.81 C 678.351 1600.08 646.685 1612.61 615.546 1626.36 C 598.708 1620.7 581.961 1614.77 565.309 1608.57 C 560.455 1607.16 554.348 1605.06 549.607 1603.26 C 521.033 1592.41 489.268 1584.15 461.312 1572.21 C 470.563 1566.41 497.871 1556.57 509.396 1551.73 C 547.254 1535.86 586.067 1521.55 623.677 1504.98 z" fill="rgb(234,221,191)" transform="translate(0,0)"></path>
<path d="M 717.128 1592.09 C 723.8 1593.83 730.697 1597.08 737.228 1599.49 C 750.442 1604.48 763.808 1609.06 777.305 1613.23 C 820.774 1626.45 865.878 1633.81 910.862 1639.54 C 876.087 1652.07 842.089 1667.27 808.312 1682.27 C 801.636 1684.91 795.078 1688.22 788.526 1691.18 C 760.808 1682.1 733.669 1671.47 706.316 1661.36 C 678.282 1651 650.123 1641.26 622.602 1629.57 C 653.876 1616.28 685.668 1604.81 717.128 1592.09 z" fill="rgb(234,221,191)" transform="translate(0,0)"></path>
<path d="M 1133.42 748.526 C 1136.83 750.789 1142.36 764.528 1144.29 769.297 C 1160.78 809.989 1172.17 850.446 1180.19 893.483 C 1186.34 926.443 1192.65 968.304 1204.3 999.202 C 1217.53 1034.27 1240.92 1071.45 1262.47 1101.91 C 1270.93 1113.86 1280.59 1125.22 1289.2 1137.5 C 1289.22 1147.61 1291.27 1161.84 1281.5 1167.37 C 1268.63 1163.03 1248.3 1134.81 1238.74 1123.87 C 1193.29 1071.92 1171.27 1008.43 1162.37 940.799 C 1158.44 910.912 1153.95 880.217 1148.62 850.514 C 1143.52 821.174 1126.95 790.232 1123.41 762.929 C 1125.84 756.259 1126.35 751.203 1133.42 748.526 z" fill="rgb(252,251,243)" transform="translate(0,0)"></path>
<path d="M 1321.44 88.3227 C 1326.4 89.2854 1340.65 94.2539 1346.01 95.9066 L 1391.61 109.569 L 1530.88 152.317 C 1559.51 161.323 1592.18 172.872 1621.04 179.838 L 1621 219.585 C 1594.95 210.257 1564.06 201.844 1537.22 193.852 L 1442.16 164.645 C 1403.78 152.972 1358.48 136.231 1321.28 126.379 C 1321.2 113.694 1321.26 101.007 1321.44 88.3227 z" fill="rgb(252,251,243)" transform="translate(0,0)"></path>
<path d="M 1677.59 198.882 C 1711.13 208.132 1743.27 218.73 1776.48 228.888 L 1878.44 259.279 C 1901.78 266.333 1927.85 276.579 1950.96 281.744 C 1952.35 293.246 1951.77 309.348 1951.66 321.238 C 1935.71 319.411 1896.73 305.213 1879.12 300.176 C 1812.05 280.99 1745.21 256.512 1678.02 238.126 C 1678.13 225.043 1677.99 211.959 1677.59 198.882 z" fill="rgb(252,251,243)" transform="translate(0,0)"></path>
<path d="M 1452.76 1109.43 C 1463.5 1108.97 1474.76 1109.66 1485.54 1110.09 C 1418.74 1175.77 1358.1 1249.51 1322.02 1336.74 C 1319.01 1344.73 1315.74 1354.22 1311.87 1361.7 C 1312.54 1339.21 1313.34 1316.72 1314.26 1294.23 C 1314.48 1288.66 1315.17 1262.28 1316.26 1258.84 C 1332.25 1208.1 1388.46 1150.84 1420.5 1111.13 L 1452.76 1109.43 z" fill="rgb(234,221,191)" transform="translate(0,0)"></path>
<path d="M 1319.56 600.376 C 1323.2 600.225 1326.84 600.234 1330.47 600.403 C 1353.17 601.607 1367.14 615.575 1364.91 638.556 C 1357.99 709.755 1285.42 749.774 1219.41 746.273 C 1207.39 745.635 1168.99 737.722 1161.69 729.256 L 1162.41 727.096 C 1161.85 723.222 1161.16 722.645 1158.93 719.201 L 1158.23 718.129 C 1187.96 700.088 1213.86 679.833 1241.98 662.383 L 1242.08 692.838 C 1235.86 696.45 1229.49 699.813 1223.01 702.919 C 1213.32 707.497 1193.11 714.598 1184.19 720.879 C 1183.37 721.455 1184 722.869 1184.26 724.247 C 1198.02 739.868 1243.98 734.648 1262.66 728.09 C 1270.94 724.913 1279.03 721.262 1286.9 717.157 C 1315.76 702.048 1334.75 684.579 1344.56 652.793 C 1357.39 611.222 1315.45 620.175 1291.99 629.342 C 1241.36 649.116 1200.2 684.569 1154.32 712.859 C 1149.62 711.574 1143.41 710.502 1138.53 709.512 C 1190.59 666.836 1251.02 608.829 1319.56 600.376 z" fill="rgb(252,251,243)" transform="translate(0,0)"></path>
<path d="M 1115.85 744.751 L 1121.72 749.559 C 1107.83 775.962 1095.71 803.462 1082.29 830.005 C 1057.88 878.273 1038.05 923.358 1022.53 975.142 C 997.575 1058.38 991.645 1132.68 1015.63 1216.8 C 1012.42 1225.84 1008.9 1236.89 997.463 1230.86 C 984.285 1214.69 979.161 1185.73 975.978 1165.88 C 965.341 1099.56 977.99 1042.64 1002.5 981.022 C 1021.99 932.045 1042.9 884.36 1066.52 836.824 C 1083.45 802.745 1092.2 775.888 1115.85 744.751 z" fill="rgb(252,251,243)" transform="translate(0,0)"></path>
<path d="M 1153.78 775.013 C 1183.83 795.054 1217.28 801.363 1252.18 807.48 C 1265.1 824.758 1271 837.024 1277.62 857.276 C 1270.43 861.97 1267.89 862.83 1259.86 866.026 C 1228.02 878.199 1219.23 880.058 1185.48 885.323 C 1179.04 847.691 1167.1 810.762 1153.78 775.013 z" fill="rgb(252,251,243)" transform="translate(0,0)"></path>
<path d="M 1019.1 668.411 C 1068.2 662.794 1096.08 684.975 1132.04 710.998 C 1125.8 712.84 1123.57 713.901 1117.77 716.692 C 1097.22 705.221 1075.11 693.71 1053.46 687.222 C 1011.81 675.002 968.258 685.612 965.994 736.789 C 965.202 754.691 974.054 802.115 986.472 815.319 C 1004.41 834.392 1042.78 801.902 1056.79 788.563 C 1076.62 768.593 1094.23 744.658 1112.97 723.112 C 1112.96 728.882 1113.06 732.164 1113.63 737.94 C 1108.06 744.379 1103.02 751.941 1097.48 758.898 C 1075.7 786.205 1040.11 828.241 1004.07 833.693 C 995.379 835.231 981.733 832.092 975.173 825.591 C 946.117 796.799 944.928 721.805 968.72 690.094 C 980.457 674.451 1001.29 669.997 1019.1 668.411 z" fill="rgb(252,251,243)" transform="translate(0,0)"></path>
<path d="M 1676.41 796.937 C 1698.86 801.682 1735.73 817.318 1758.9 825.107 C 1823.06 846.678 1886.7 871.267 1951.21 891.833 L 1950.99 915.588 C 1927.38 907.609 1903.01 898.197 1879.37 889.811 L 1746.84 843.415 C 1723.39 835.181 1699.53 825.22 1675.94 818.064 C 1676.06 811.021 1676.22 803.979 1676.41 796.937 z" fill="rgb(252,251,243)" transform="translate(0,0)"></path>
<path d="M 1356.24 686.207 C 1367.98 689.844 1379.63 693.712 1391.21 697.828 C 1467.7 725.011 1546.14 748.609 1622.19 776.928 L 1622.01 798.67 L 1613.57 795.919 C 1523.82 764.051 1433.59 733.555 1342.92 704.439 C 1347.72 698.44 1351.83 692.502 1356.24 686.207 z" fill="rgb(252,251,243)" transform="translate(0,0)"></path>
<path d="M 951.931 1760.16 C 964.061 1763.26 975.843 1768.36 987.494 1772.9 L 1044.14 1795.12 C 1065.25 1803.25 1088.92 1809.51 1108.82 1820.05 C 1112.25 1826.94 1109.88 1846.66 1109.66 1854.88 C 1093.62 1851.19 1077.19 1842.75 1061.66 1836.97 C 1024.97 1823.71 988.385 1810.14 951.923 1796.24 L 951.931 1760.16 z" fill="rgb(234,221,191)" transform="translate(0,0)"></path>
<path d="M 618.744 1635.4 C 640.231 1645.16 662.893 1653.06 684.99 1661.33 L 781.124 1696.98 L 781.086 1731.9 C 727.097 1710.72 672.128 1691.44 617.651 1671.51 L 618.744 1635.4 z" fill="rgb(234,221,191)" transform="translate(0,0)"></path>
<path d="M 787.847 1698.92 C 839.845 1719.1 892.186 1738.38 944.846 1756.76 C 946.48 1768.81 945.723 1781.52 945.416 1793.68 C 935.723 1793.03 893.267 1774.32 880.711 1769.52 C 849.991 1757.78 819.01 1746.79 788.342 1734.89 L 787.847 1698.92 z" fill="rgb(234,221,191)" transform="translate(0,0)"></path>
<path d="M 296.099 1521.77 L 397.993 1557 C 409.168 1560.84 441.766 1571.25 451.027 1576.61 C 450.806 1588.12 451.372 1600.54 451.59 1612.13 C 399.479 1595.19 348.122 1575.07 296.041 1558.33 C 295.943 1546.14 295.962 1533.96 296.099 1521.77 z" fill="rgb(234,221,191)" transform="translate(0,0)"></path>
<path d="M 132.935 1458.36 C 138.223 1461.33 147.314 1469.34 152.267 1471.5 C 168.209 1478.46 186.489 1484.3 202.955 1489.82 L 289.008 1518.61 L 288.924 1555.61 C 268.86 1549.99 243.52 1539.53 222.734 1533.01 C 202.758 1525.18 181.044 1520.13 161.559 1511.14 C 133.856 1498.35 132.628 1484.75 132.935 1458.36 z" fill="rgb(234,221,191)" transform="translate(0,0)"></path>
<path d="M 458.301 1578.6 C 471.437 1584.02 485.184 1588.41 498.564 1593.24 C 535.982 1606.74 573.728 1619.29 611.098 1632.92 C 611.084 1645.03 611.112 1657.13 610.545 1669.23 C 592.853 1662.4 574.666 1656.45 556.826 1649.99 C 524.114 1637.86 491.229 1626.2 458.182 1615.02 C 458.105 1602.88 458.144 1590.74 458.301 1578.6 z" fill="rgb(234,221,191)" transform="translate(0,0)"></path>
<path d="M 1117.38 772.732 C 1119.26 774.86 1133.55 821.764 1135.5 828.012 C 1140.91 845.431 1144.6 870.252 1147.39 888.424 C 1127.95 889.408 1108.55 891.066 1089.22 893.396 C 1079.69 894.628 1068.6 895.382 1058.93 896.278 C 1077.85 854.831 1097.33 813.645 1117.38 772.732 z" fill="rgb(252,251,243)" transform="translate(0,0)"></path>
<path d="M 1897.77 1510.39 C 1905.78 1509.55 1933.25 1507.52 1937.95 1516.78 C 1938.91 1518.67 1938.14 1523.49 1936.71 1525.38 C 1915.97 1552.8 1871.86 1567.48 1840.18 1576.85 L 1819.02 1582.54 C 1818.61 1560.51 1816.07 1557.7 1803.57 1540.51 C 1815.69 1536.8 1829.19 1533.38 1840.93 1529.12 C 1861.96 1521.5 1875.25 1512.92 1897.77 1510.39 z" fill="rgb(252,251,243)" transform="translate(0,0)"></path>
<path d="M 686.097 648.678 C 716.923 688.559 829.391 709.174 877.799 715.85 C 898.196 718.662 927.938 719.71 948.841 720.33 C 947.684 728.868 947.121 734.989 946.729 743.594 C 939.683 744.988 922.833 742.341 915.297 741.646 C 882.703 738.636 851.341 731.732 819.466 724.329 C 773.589 713.675 721.383 699.433 685.344 667.713 C 685.221 660.242 685.363 656.105 686.097 648.678 z" fill="rgb(252,251,243)" transform="translate(0,0)"></path>
<path d="M 1400.88 1112.59 C 1405.09 1112.14 1410.07 1111.98 1414.36 1111.73 C 1372.97 1156.54 1353.14 1178.55 1321.6 1230.62 C 1319.99 1233.69 1318.96 1234.98 1316.92 1237.7 C 1316.9 1214.02 1317.78 1189.91 1318.01 1166.12 C 1327.32 1150.69 1340.67 1136.46 1350.82 1119.42 C 1367.46 1116.82 1384.15 1114.55 1400.88 1112.59 z" fill="rgb(234,221,191)" transform="translate(0,0)"></path>
<path d="M 685.335 677.456 C 749.804 721.57 825.784 736.227 902.276 747.362 C 909.107 748.356 942.688 750.101 945.493 751.439 C 947.104 754.463 946.471 759.024 946.36 762.635 C 876.408 759.861 802.761 751.141 736.853 725.94 C 721.715 720.152 697.482 707.942 686.334 696.025 C 685.058 688.9 685.264 684.688 685.335 677.456 z" fill="rgb(252,251,243)" transform="translate(0,0)"></path>
<path d="M 887.628 553.476 L 889.562 553.356 L 889.596 554.473 C 860.046 576.641 818.733 594.448 786.985 617.964 C 775.195 614.59 765.6 609.655 754.824 603.907 L 737.364 594.547 C 778.457 565.565 838.566 557.224 887.628 553.476 z" fill="rgb(252,251,243)" transform="translate(0,0)"></path>
<path d="M 1144.18 748.753 C 1152.54 748.654 1203.63 773.682 1215.74 778.579 C 1224.44 782.004 1233.36 784.809 1242.46 786.976 C 1286.71 797.717 1333.18 799.246 1378.68 799.987 C 1401.49 800.359 1431.63 795.153 1453.09 805.971 C 1462.64 810.782 1463.23 818.335 1457.54 826.994 C 1455.25 828.744 1455.81 828.524 1453.25 829.653 C 1452.44 828.149 1451.58 826.698 1450.6 825.298 C 1436.56 805.313 1340.36 808.522 1313.9 806.592 C 1287.78 804.728 1261.76 801.621 1235.94 797.281 C 1209.83 792.752 1164.28 781.092 1146.37 757.849 C 1143.98 754.75 1143.47 752.253 1144.18 748.753 z" fill="rgb(252,251,243)" transform="translate(0,0)"></path>
<path d="M 1077.86 708.367 C 1089.58 706.409 1099.85 714.442 1110.34 720.514 C 1107 722.967 1099.75 728.401 1096.21 729.853 C 1071.33 740.057 1032.77 744.573 1006.14 745.12 C 994.324 745.43 984.443 745.334 972.629 744.923 C 972.668 735.657 973.002 729.634 974.405 720.557 C 1012.53 717.64 1040.15 714.11 1077.86 708.367 z" fill="rgb(252,251,243)" transform="translate(0,0)"></path>
<path d="M 1035.89 555.043 C 1082.47 554.902 1151.26 573.751 1190.76 597.019 C 1187.17 599.343 1183.31 601.65 1179.65 603.916 C 1171.55 608.687 1163.06 612.757 1154.26 616.081 C 1132.15 606.7 1113.37 596.128 1092.3 584.831 C 1073.62 574.82 1054.17 565.942 1035.89 555.043 z" fill="rgb(252,251,243)" transform="translate(0,0)"></path>
<path d="M 1284.01 641.017 C 1287.37 644.322 1285.7 667.613 1285.01 672.916 C 1296.44 676.759 1308.13 680.432 1319.61 684.152 C 1304.51 699.217 1296.2 704.565 1277.39 714.235 C 1271.3 717.013 1264.99 720.196 1258.55 721.891 C 1245.64 718.573 1249.08 671.724 1248.96 658.662 C 1260.51 652.519 1272.2 646.636 1284.01 641.017 z" fill="rgb(252,251,243)" transform="translate(0,0)"></path>
<path d="M 1068.93 762.345 L 1071.59 761.902 L 1072.42 762.608 C 1071.25 764.045 1070.04 765.446 1068.78 766.807 C 1055.01 781.808 1010.07 828.807 989.262 808.971 C 982.455 796.337 980.439 784.844 977.239 770.968 C 1009.43 771.068 1037.46 767.923 1068.93 762.345 z" fill="rgb(252,251,243)" transform="translate(0,0)"></path>
<path d="M 1320.03 629.403 C 1324.26 629.016 1331.92 627.946 1335.35 630.606 C 1348.18 640.55 1330.2 669.364 1324.4 678.921 C 1315.69 675.685 1306.69 672.894 1297.83 670.038 L 1294.56 668.774 C 1291.22 665.142 1291.87 644.507 1291.7 638.354 C 1298.34 634.119 1305.21 632.629 1312.74 630.657 C 1313.17 636.07 1313.44 645.397 1316.32 649.669 L 1318.44 649.633 C 1324.09 643.93 1317.17 635.75 1320.03 629.403 z" fill="rgb(252,251,243)" transform="translate(0,0)"></path>
<path d="M 1257.95 750.388 C 1258.55 750.267 1260.17 750.332 1260.87 750.335 C 1265.31 754.756 1275.87 779.663 1277.96 786.575 C 1257.31 782.883 1244.64 781.093 1224.23 774.613 C 1212.1 770.242 1200.32 764.945 1189 758.768 C 1211.82 754.893 1234.66 754.117 1257.95 750.388 z" fill="rgb(252,251,243)" transform="translate(0,0)"></path>
<path d="M 1882.88 1470.74 C 1886.82 1474 1894.36 1489.36 1901.55 1493.98 C 1915.61 1503.03 1921.49 1496.14 1936.28 1505.38 L 1937.52 1506.17 C 1914.76 1502.02 1900.62 1501.87 1878.31 1507.58 C 1863.64 1512.7 1850.33 1518.79 1835.19 1522.96 C 1851.75 1502 1863.85 1489.72 1882.88 1470.74 z" fill="rgb(234,221,191)" transform="translate(0,0)"></path>
<path d="M 1015.57 689.318 C 1036.18 687.798 1055.28 694.4 1074.08 701.668 C 1060.3 704.713 1048.17 707.134 1034.04 708.772 C 1015.91 711.517 995.746 712.898 977.338 714.334 C 987.611 696.735 995.362 692.112 1015.57 689.318 z" fill="rgb(252,251,243)" transform="translate(0,0)"></path>
<path d="M 1086.54 739.177 L 1089.15 738.907 L 1090.16 739.988 C 1088.24 744.665 1083.73 749.286 1080.34 753.277 C 1040.2 761.601 1017.9 762.725 977.135 764.987 C 974.22 762.84 973.69 755.037 973.06 751.149 C 1019.97 752.305 1040.37 749.463 1086.54 739.177 z" fill="rgb(252,251,243)" transform="translate(0,0)"></path>
<path d="M 1795.44 1543.06 C 1808.15 1543.92 1812.21 1574.38 1812.7 1583.93 L 1790.28 1589.64 L 1788.04 1589.8 C 1786.34 1586.29 1789.28 1580.07 1786.64 1573.96 C 1782.86 1565.19 1778.29 1558.61 1773.13 1550.68 C 1781.18 1546.92 1786.85 1545.41 1795.44 1543.06 z" fill="rgb(252,251,243)" transform="translate(0,0)"></path>
<path d="M 1319.69 1086.6 C 1339.1 1093.38 1358.35 1100.63 1377.41 1108.35 C 1374.05 1109 1369.62 1109.51 1366.14 1110.01 C 1358.09 1110.69 1325.58 1116.12 1318.99 1118.2 L 1319.69 1086.6 z" fill="rgb(234,221,191)" transform="translate(0,0)"></path>
<path d="M 1240.81 700.912 C 1241.45 702.344 1243.47 718.663 1243.29 720.327 C 1241.71 734.667 1208.53 726.366 1199.14 724.702 C 1195.52 723.799 1196.86 724.71 1194.5 722.527 C 1199.02 718.695 1231.94 705.774 1240.81 700.912 z" fill="rgb(252,251,243)" transform="translate(0,0)"></path>
<path d="M 1139.22 716.622 C 1146.43 716.643 1157.12 720.14 1152.27 729.609 C 1147.71 738.521 1141.49 740 1132.85 743.021 C 1117.2 743.517 1118.6 733.985 1119.26 722.326 C 1130.58 716.729 1130.17 719.579 1139.22 716.622 z" fill="rgb(252,251,243)" transform="translate(0,0)"></path>
<path d="M 1136.57 720.407 C 1140.94 721.734 1141.19 721.878 1143.42 725.082 C 1143.78 729.037 1142.93 730.057 1141.25 733.629 L 1138.48 733.852 C 1132.63 730.588 1134.28 725.641 1136.57 720.407 z" fill="rgb(108,48,23)" transform="translate(0,0)"></path>
<path d="M 1336.91 1121.39 C 1339.31 1120.93 1339.06 1121.09 1341.59 1121.21 L 1342.49 1122.66 C 1341.55 1129.09 1326.33 1146.78 1321.21 1153.47 L 1319.83 1155.19 L 1318.85 1155.07 C 1317.75 1150.38 1318.89 1130.31 1319.05 1124.23 C 1323.7 1123.13 1331.89 1122.13 1336.91 1121.39 z" fill="rgb(234,221,191)" transform="translate(0,0)"></path>
<path d="M 1157.18 736.715 C 1172.54 741.207 1182.67 745.959 1200.22 750.544 L 1195.93 751.652 C 1193.73 751.936 1179.14 753.843 1177.78 753.711 C 1171.98 753.145 1156.73 745.741 1151.96 742.429 C 1153.04 739.718 1154.76 738.831 1157.18 736.715 z" fill="rgb(252,251,243)" transform="translate(0,0)"></path>
<path d="M 523.668 472.595 C 525.871 473.428 526.6 473.842 528.859 474.272 C 523.11 481.377 443.839 578.131 444.445 576.422 L 443.088 577.734 C 438.26 582.334 436.217 582.323 431.749 589.148 L 432.592 590.179 C 420.821 604.839 407.827 618.413 395.613 633.784 C 423.1 638.985 446.156 644.356 472.012 655.614 C 482.127 651.621 493.894 647.91 504.317 644.082 C 538.958 631.129 573.795 618.702 608.814 606.808 C 621.998 602.238 675.878 581.259 685.335 581.849 C 685.347 584.386 685.747 585.785 684.644 587.765 C 678.649 588.247 658.963 596.086 652.133 598.577 L 599.403 617.65 C 560.896 631.53 516.689 645.702 479.374 660.591 C 481.091 661.477 482.774 662.426 484.419 663.438 C 492.696 668.582 510.919 682.189 511.857 692.555 C 513.336 708.897 514.487 738.038 510.69 754.145 C 509.966 757.217 503.062 767.007 501.233 769.672 L 501.614 1027.75 L 501.71 1099.08 C 501.702 1109.08 502.175 1136.96 500.176 1144.54 C 485.632 1199.69 377.447 1211.53 332.759 1211.53 C 277.24 1211.53 163.667 1204.08 145.321 1141.78 C 142.881 1133.5 144.077 1070.31 144.071 1058.16 L 143.87 876.833 C 123.216 885.362 93.0138 900.921 72.9056 907.053 L 73.4833 906.815 L 69.8932 906.153 C 70.8427 902.764 74.7357 898.759 77.8754 897.523 C 100.139 888.76 121.959 878.654 143.769 868.82 C 143.19 845.002 144.226 820.755 143.948 796.891 C 143.857 789.084 143.738 779.647 144.888 771.976 C 134.03 758.451 133.964 750.893 134.634 733.724 C 135.062 722.746 133.96 710.204 134.656 699.466 C 136.728 667.511 180.967 651.691 206.48 643.517 C 254.633 628.485 306.766 625.444 356.608 629.011 C 347.34 597.757 336.96 570.472 327.183 540.129 C 323.03 537.426 320.464 540.384 314.127 537.174 L 314.535 536.001 L 317.249 535.371 L 316.744 533.169 L 317.173 532.109 L 319.626 531.581 C 320.826 534.846 319.809 533.597 322.83 535.418 L 322.965 536.88 C 325.44 535.598 326.254 535.221 328.553 533.539 L 329.17 539.496 L 330.456 540.439 L 330.808 540.382 C 334.435 547.347 338.052 559.401 340.912 567.061 C 348.616 587.696 354.969 608.554 361.41 629.604 C 370.662 630.533 379.669 631.408 388.884 632.737 C 399.817 621.586 420.373 595.248 428.964 587.615 L 429.772 588.179 C 430.8 580.62 434.489 583.076 437.634 576.416 C 438.621 574.325 437.374 575.426 439.573 573.505 C 443.964 569.754 454.905 556.729 459.06 551.824 C 473.399 534.815 487.475 517.586 501.284 500.145 C 506.947 493.041 517.698 478.692 523.668 472.595 z" fill="rgb(108,48,23)" transform="translate(0,0)"></path>
<path d="M 151.082 975.9 C 195.116 993.182 238.403 1034.77 289.318 1046.64 C 373.611 1066.31 406.088 985.098 494.564 1006.73 L 494.892 1090.8 C 494.923 1109.04 497.563 1136 489.394 1151.93 C 445.567 1221.95 222.093 1217.84 166.033 1162.17 C 145.833 1142.11 151.149 1105.27 151.152 1079.37 L 151.082 975.9 z" fill="rgb(234,221,191)" transform="translate(0,0)"></path>
<path d="M 448.576 843.374 C 463.601 841.148 481.128 845.076 494.886 851.127 L 494.842 999.664 C 428.201 984.407 395.54 1022.35 337.515 1040.09 C 291.491 1054.16 235.386 1016.96 196.828 993.625 C 184.303 985.398 164.611 974.667 151.101 968.937 L 151.029 845.107 C 217.634 873.658 259.531 924.785 335.416 886.815 C 367.631 870.696 413.383 847.658 448.576 843.374 z" fill="rgb(252,251,243)" transform="translate(0,0)"></path>
<path d="M 291.295 635.5 C 343.504 630.088 448.619 641.655 487.618 673.597 C 559.124 732.162 386.316 756.945 356.247 758.924 C 294.687 763.529 213.186 758.267 159.168 725.386 C 144.426 716.412 133.674 697.572 148.04 683.216 C 182.116 649.164 245.128 639.57 291.295 635.5 z" fill="rgb(252,251,243)" transform="translate(0,0)"></path>
<path d="M 304.778 656.581 C 349.408 652.879 404.344 659.132 445.966 675.465 C 453.565 678.447 481.177 695.641 470.222 704.849 C 443.315 727.464 392.009 734.99 357.76 737.149 C 316.2 741.785 236.193 738.645 200.823 714.131 C 196.533 710.991 191.357 704.558 191.141 699.005 C 190.451 681.25 218.312 672.064 231.477 667.811 C 255.205 660.145 280.196 658.093 304.778 656.581 z" fill="rgb(108,48,23)" transform="translate(0,0)"></path>
<path d="M 307.023 660.426 C 338.448 657.795 404.139 662.726 431.898 681.613 C 442.275 688.672 439.54 691.425 440.81 699.915 L 443.746 699.596 C 449.473 694.104 439.479 682.599 435.213 678.34 C 448.606 684.119 453.688 687.438 463.48 698.406 C 447.278 719.414 400.347 726.853 375.231 730.954 C 324.42 737.919 248.826 737.695 203.454 710.731 C 186.054 700.391 200.065 685.183 213.744 679.227 C 244.357 665.9 274.243 662.376 307.023 660.426 z" fill="rgb(252,251,243)" transform="translate(0,0)"></path>
<path d="M 493.196 775.028 C 495.204 777.329 494.675 835.362 494.759 844.251 C 421.573 817.78 375.819 867.275 310.036 889.318 C 258.74 906.507 217.278 872.181 173.821 849.064 C 166.552 845.094 158.915 841.835 151.019 839.334 L 150.781 776.243 C 225.9 829.225 416.225 823.425 493.196 775.028 z" fill="rgb(234,221,191)" transform="translate(0,0)"></path>
<path d="M 504.881 718.842 C 506.776 726.865 505.757 749.928 500.648 757.097 C 498.507 760.101 492.771 766.058 489.595 768.456 C 425.347 816.977 194.012 822.889 143.702 758.754 C 141.464 747.237 141.904 731.849 141.849 719.856 C 208.109 786.927 435.244 780.277 504.881 718.842 z" fill="rgb(252,251,243)" transform="translate(0,0)"></path>
<path d="M 361.205 1753.56 C 289.532 1721.29 230.657 1691.95 201.528 1612.75 C 199.541 1607.34 197.351 1602.8 198.008 1596.93 C 209.286 1579.81 285.832 1639.98 297.824 1651.63 C 324.852 1677.89 363.197 1718.48 375.072 1754.28 C 413.519 1769.48 452.16 1784.18 490.987 1798.38 C 449.597 1766 416.101 1735.13 395.361 1685.39 C 391.451 1676.01 381.335 1660.5 386.948 1650.16 C 388.236 1647.78 392.595 1647.14 395.102 1647.28 C 425.025 1653.01 459.348 1685.7 477.306 1707.28 C 504.553 1740.02 513.026 1765.59 515.101 1806.47 C 537.15 1814.7 559.86 1822.52 582.071 1830.45 C 603.371 1838.05 630.979 1849.76 652.422 1855.42 C 625.328 1833.84 595.102 1810.43 575.828 1781.44 C 566.486 1767.39 531.38 1712.78 537.392 1698.53 C 546.307 1691.16 560.45 1699.8 569.129 1704.3 C 599.368 1719.89 625.813 1741.93 646.596 1768.87 C 661.429 1787.98 683.648 1827.69 685.09 1855.06 C 685.118 1855.6 682.878 1860.94 682.466 1861.91 L 682.839 1864.05 C 690.942 1869.74 786.288 1897.73 801.945 1903.02 C 805.412 1904.19 832 1909.44 838.607 1911.17 L 839.788 1911.36 L 841.853 1908.89 L 842.837 1909.34 L 844.781 1911.29 L 845.742 1910.95 L 845.806 1908.62 L 846.514 1907.44 C 848.866 1909.83 851.437 1912.35 853.7 1914.8 C 855.985 1916.92 855.152 1916.03 858.904 1916.91 C 866.012 1920.14 896.575 1927.82 905.5 1930.16 C 936.296 1938.23 967.119 1946.21 998.041 1953.78 C 1005.5 1955.6 1027.37 1957.59 1030.84 1963.1 L 1029.46 1964.57 C 1026.12 1965.43 1021.7 1965.95 1018.37 1965.04 C 966.012 1950.68 906.629 1940.42 855.647 1922.53 C 821.922 1956.12 768.773 1967.3 721.988 1975.48 C 700.37 1977.21 649.79 1986.43 631.882 1977.42 C 615.799 1969.34 668.958 1943.07 673.437 1941.17 C 729.711 1917.37 789.801 1915.04 849.85 1920.34 C 833.465 1913.28 815.825 1913.59 799.107 1908.41 C 759.702 1896.19 716.28 1884.64 677.956 1869.53 C 652.979 1899.15 585.184 1918.98 547.553 1925.85 C 528.244 1929.37 460.754 1940.05 446.237 1932.31 C 437.999 1920.57 476.714 1903.4 485.128 1899.34 C 537.028 1874.36 594.548 1859.91 652.341 1862.18 C 624.581 1852.51 596.932 1842.52 569.398 1832.22 C 551.095 1825.36 523.933 1814.37 505.429 1809.44 C 477.609 1850.2 406.604 1884.82 358.493 1893.13 C 347.488 1895.03 315.973 1900.5 306.454 1895.91 C 294.548 1881.3 371.061 1837.4 381.174 1832.44 C 423.572 1811.65 458.488 1808.64 504.332 1808.09 C 461.038 1791.29 419.105 1779.91 375.036 1761.03 C 350.357 1787.62 277.627 1801.48 242.043 1802.97 C 226.973 1803.6 173.08 1802.99 164.271 1789.07 C 164.676 1785.76 167.489 1783.3 170.149 1781.49 C 215.722 1750.41 289.921 1743.44 342.512 1750.64 C 348.758 1751.52 354.99 1752.49 361.205 1753.56 z" fill="rgb(108,48,23)" transform="translate(0,0)"></path>
<path d="M 652.341 1862.18 L 653.887 1863.13 C 657.799 1857.89 660.514 1863.12 664.839 1864.62 C 662.02 1865.77 661.35 1865.08 659.513 1865.76 L 659.238 1867.16 C 618.313 1882.81 574.479 1895.77 531.967 1906.63 C 526.335 1908.07 506.932 1911.49 503.132 1913.36 C 540.406 1908.93 576.575 1898.08 612.042 1886.18 C 628.317 1880.72 644.33 1876.03 659.975 1868.81 C 666.209 1866.58 667.445 1866.67 674.049 1867.86 C 675.759 1868.08 674.748 1867.91 677.174 1868.41 L 677.956 1869.53 C 652.979 1899.15 585.184 1918.98 547.553 1925.85 C 528.244 1929.37 460.754 1940.05 446.237 1932.31 C 437.999 1920.57 476.714 1903.4 485.128 1899.34 C 537.028 1874.36 594.548 1859.91 652.341 1862.18 z" fill="rgb(252,251,243)" transform="translate(0,0)"></path>
<path d="M 652.341 1862.18 L 653.887 1863.13 C 657.799 1857.89 660.514 1863.12 664.839 1864.62 C 662.02 1865.77 661.35 1865.08 659.513 1865.76 C 646.319 1866.03 630.546 1865.14 617.671 1866.56 C 570.135 1871.77 522.851 1885.3 480.05 1906.71 C 472.938 1910.27 451.925 1920.58 448.909 1927.77 C 452.672 1934.27 479.986 1930.25 488.155 1929.42 C 545.391 1923.54 604.544 1912 654.964 1883.03 C 661.929 1879.03 669.498 1874.21 674.049 1867.86 C 675.759 1868.08 674.748 1867.91 677.174 1868.41 L 677.956 1869.53 C 652.979 1899.15 585.184 1918.98 547.553 1925.85 C 528.244 1929.37 460.754 1940.05 446.237 1932.31 C 437.999 1920.57 476.714 1903.4 485.128 1899.34 C 537.028 1874.36 594.548 1859.91 652.341 1862.18 z" fill="rgb(108,48,23)" transform="translate(0,0)"></path>
<path d="M 680.393 1859.78 C 680.489 1860.84 680.015 1861.45 679.526 1862.64 C 675.983 1863.7 672.421 1861.87 669.193 1859.87 C 619.094 1828.92 576.58 1784.33 551.551 1730.68 C 548.2 1723.49 538.263 1707.63 541.952 1700.88 C 542.914 1700.45 545.91 1699.21 546.839 1699.55 C 604.918 1721.36 650.524 1770.03 673.601 1827.25 C 677.373 1836.61 680.244 1847.48 680.448 1856.95 L 680.393 1859.78 z" fill="rgb(252,251,243)" transform="translate(0,0)"></path>
<path d="M 573.364 1735.32 C 607.339 1769.82 638.592 1812.2 670.158 1848.92 C 673.554 1852.87 675.644 1854.77 680.448 1856.95 L 680.393 1859.78 C 669.464 1853.77 646.395 1825.04 637.797 1813.53 C 621.414 1791.6 584.157 1758.51 573.364 1735.32 z" fill="rgb(108,48,23)" transform="translate(0,0)"></path>
<path d="M 201.144 1597.43 C 205.26 1597.96 209.258 1599.31 213.103 1600.85 C 270.925 1623.93 344.646 1694.63 369.136 1751.75 C 357.443 1746.05 347.03 1734.02 336.736 1725.68 C 304.787 1699.8 271.178 1676.96 243.236 1646.48 C 241.22 1644.04 237.95 1639.02 235.074 1638.13 C 249.678 1671.68 328.596 1717.19 356.669 1746.49 C 338.99 1739.1 321.782 1730.63 305.142 1721.12 C 256.262 1692.86 216.106 1653.54 201.144 1597.43 z" fill="rgb(252,251,243)" transform="translate(0,0)"></path>
<path d="M 505.336 1802.39 C 471.795 1781.88 424.026 1734.4 407.793 1700 C 403.321 1690.53 387.822 1663.48 390.639 1654.4 C 401.551 1645.64 435.236 1672.61 443.277 1679.66 C 470.488 1703.5 496.803 1734.13 506.041 1769.83 C 509.23 1782.16 510.155 1793.99 511.271 1806.54 C 486.055 1761 459.42 1729.52 424.614 1691.35 L 423.67 1693.28 C 428.113 1697.55 438.484 1710.5 442.976 1715.82 C 466.634 1743.87 487.024 1770.67 505.336 1802.39 z" fill="rgb(252,251,243)" transform="translate(0,0)"></path>
<path d="M 423.67 1693.28 C 421.331 1690.86 418.155 1688.24 417.519 1685.15 C 420.195 1685.75 422.612 1689.12 424.614 1691.35 L 423.67 1693.28 z" fill="rgb(161,132,113)" transform="translate(0,0)"></path>
<path d="M 168.053 1788.78 C 169.592 1787.29 172.951 1784.12 174.628 1783.12 C 224.733 1753.29 305.856 1746.15 360.946 1756.52 L 361.485 1758.45 C 365.509 1757.16 365.756 1756.93 369.736 1757.8 L 370.538 1759.25 C 365.584 1766.71 341.192 1777 332.941 1780.12 C 291.139 1795.96 208.724 1807.18 168.053 1788.78 z" fill="rgb(252,251,243)" transform="translate(0,0)"></path>
<path d="M 360.946 1756.52 L 361.485 1758.45 C 345.659 1762.9 326.671 1765.87 310.382 1768.81 C 275.177 1775.15 244.958 1780.69 209.002 1779.49 C 220.984 1778.14 233.426 1778.24 245.231 1776.85 C 272.657 1773.48 299.945 1768.46 327.163 1763.68 C 335.831 1762.16 353.136 1759.77 360.946 1756.52 z" fill="rgb(117,78,62)" transform="translate(0,0)"></path>
<path d="M 486.589 1812.5 C 488.13 1812.29 489.376 1812.48 490.912 1812.66 C 481.98 1819.28 469.473 1823.91 459.441 1828.92 C 433.099 1842.07 406.806 1856.27 379.187 1866.59 C 368.791 1870.47 348.057 1874.26 339.943 1879.7 L 340.343 1880.02 C 385.96 1868.4 418.108 1852.15 459.777 1831.45 C 472.312 1825.22 484.614 1817.87 497.538 1812.56 L 498.797 1812.04 C 492.357 1819.79 485.444 1826.56 477.532 1832.8 C 429.885 1870.41 368.479 1893.55 307.758 1893.18 C 309.665 1890.21 311.86 1887.44 314.311 1884.9 C 349.316 1848.17 401.421 1822.63 451.352 1814.84 C 463.074 1813.01 474.757 1812.77 486.589 1812.5 z" fill="rgb(252,251,243)" transform="translate(0,0)"></path>
<path d="M 780.194 1922.58 C 800.728 1920.38 822.865 1921.42 843.455 1922.57 C 814.142 1928.08 785.068 1937.16 755.989 1943.99 C 735.496 1948.8 697.387 1954.01 679.883 1962.01 C 693.954 1960.71 708.211 1957.18 722.016 1954.2 C 751.484 1947.86 780.865 1940.44 810.096 1933.07 C 815.93 1931.6 842.172 1923.19 846.305 1924.44 L 845.454 1926.55 C 842.964 1928.57 840.403 1930.5 837.777 1932.34 C 796.201 1961.52 719.945 1973 669.61 1975.92 C 660.405 1976.45 648.6 1978.45 639.676 1976.4 C 636.982 1975.77 635.915 1975.26 634.498 1972.92 C 634.894 1971.39 635.376 1970.43 636.44 1969.25 C 663.698 1939.06 739.682 1925.96 780.194 1922.58 z" fill="rgb(252,251,243)" transform="translate(0,0)"></path>
<path d="M 637.324 307.69 C 618.074 241.463 656.027 169.832 718.788 140.839 C 720.543 140.029 722.921 140.712 724.643 141.331 C 731.415 151.349 725.993 188.553 724.167 200.415 C 717.524 243.556 682.539 291.649 641.219 308.168 C 629.943 329.889 618.184 348.62 605.267 369.389 C 655.436 329.265 724.434 313.457 788.389 312.231 C 790.511 312.191 792.462 313.274 794.058 314.589 C 794.915 317.393 795.241 319.766 793.452 322.551 C 775.156 351.045 736.236 369.47 706.148 378.307 C 669.698 388.859 631.423 391.553 593.854 386.211 C 575.421 413.049 557.121 436.376 538.605 462.388 C 585.151 438.171 652.618 420.477 704.373 435.228 C 739.938 445.365 685.304 472.675 674.999 477.397 C 634.277 496.06 569.155 500.527 530.113 474.268 L 528.859 474.272 C 526.6 473.842 525.871 473.428 523.668 472.595 L 523.951 470.272 L 524.91 466.698 L 527.433 466.335 C 529.961 465.517 529.764 465.008 531.832 462.77 C 533.363 461.036 535.483 458.035 536.939 456.092 C 553.414 434.419 576.209 406.047 589.544 382.834 C 555.836 369.853 528.534 288.214 530.576 254.289 C 531.023 246.866 529.776 231.639 538.157 228.123 C 547.712 228.954 561.939 243.785 567.96 250.999 C 595.731 284.276 601.589 323.115 597.761 365.175 C 597.496 368.403 597.091 371.618 596.546 374.81 C 610.317 355.96 624.22 328.005 637.324 307.69 z" fill="rgb(108,48,23)" transform="translate(0,0)"></path>
<path d="M 539.514 464.463 C 586.137 442.779 653.797 424.572 705.498 439.744 C 707.999 440.478 710.345 441.841 711.743 444.117 C 711.582 447.99 709.475 450.521 706.426 452.918 C 657.74 491.2 588.659 497.169 533.142 472.485 C 533.932 472.331 563.821 471.838 567.323 471.743 C 600.376 470.842 630 468.491 662.057 459.063 C 667.607 457.431 677.221 455.245 682.136 452.086 C 682.341 451.848 682.547 451.611 682.752 451.373 L 683.177 451.974 L 684.067 451.217 L 681.325 452.6 L 682.006 451.286 C 669.432 453.681 657.137 457.97 644.644 460.586 C 625.907 464.509 606.975 467.191 587.889 468.307 C 569.919 469.358 551.738 471.546 533.803 469.587 C 533.503 469.533 533.202 469.479 532.902 469.424 C 534.978 467.286 537.042 466.1 539.514 464.463 z" fill="rgb(252,251,243)" transform="translate(0,0)"></path>
<path d="M 536.939 456.092 C 540.605 460.069 539.061 457.969 539.514 464.463 C 537.042 466.1 534.978 467.286 532.902 469.424 L 532.624 471.665 L 530.113 474.268 L 528.859 474.272 C 526.6 473.842 525.871 473.428 523.668 472.595 L 523.951 470.272 L 524.91 466.698 L 527.433 466.335 C 529.961 465.517 529.764 465.008 531.832 462.77 C 533.363 461.036 535.483 458.035 536.939 456.092 z" fill="rgb(81,31,12)" transform="translate(0,0)"></path>
<path d="M 718.469 143.802 L 720.962 144.044 C 727.639 149.748 722.508 190.313 720.804 199.525 C 711.809 248.138 684.353 275.331 645.057 302.311 C 658.152 274.385 674.742 248.461 686.55 219.875 C 689.853 211.879 696.133 201.712 698.27 193.674 L 696.799 193.564 C 689.828 203.066 677.855 231.519 671.605 244.041 C 662.592 262.101 647.751 286.898 640.444 304.87 C 621.142 240.429 662.39 174.211 718.469 143.802 z" fill="rgb(252,251,243)" transform="translate(0,0)"></path>
<path d="M 772.128 316.579 C 778.654 315.874 785.43 315.863 792.006 315.709 C 781.933 341.327 742.404 360.453 718.091 369.264 C 679.109 383.391 641.924 385.948 601.157 382.863 C 618.805 376.658 639.833 371.664 658.104 366.306 C 689.733 357.162 721.128 347.23 752.261 336.519 C 755.54 335.456 763.396 332.987 766.035 331.357 C 757.425 330.591 617.511 376.025 598.558 381.104 C 599.384 380.011 600.253 378.949 601.16 377.922 C 623.185 353.222 682.794 331.009 714.994 324.315 C 733.656 320.435 753.05 318.056 772.128 316.579 z" fill="rgb(252,251,243)" transform="translate(0,0)"></path>
<path d="M 538.03 230.822 C 553.041 235.371 570.181 258.308 577.566 271.432 C 591.303 295.847 595.503 318.731 595.246 346.523 C 595.132 358.892 595.709 366.009 592.35 377.888 C 592.193 377.67 592.037 377.452 591.881 377.235 L 591.123 376.132 C 587.926 371.578 585.939 367.831 583.688 362.732 C 569.428 330.43 559.566 296.562 549.366 262.846 C 549.104 261.98 547.947 261.223 547.248 260.696 C 549.282 289.121 576.367 357.32 590.873 382.134 C 555.414 355.016 524.196 274.358 538.03 230.822 z" fill="rgb(252,251,243)" transform="translate(0,0)"></path>
<path d="M 216.93 273.449 C 221.079 261.078 221.615 248.704 223.228 233.492 C 227.321 194.914 239.077 148.52 271.388 123.482 C 273.63 121.745 276.639 122.586 278.983 123.425 C 284.492 129.193 283.812 137.67 283.734 145.596 C 283.321 187.665 265.145 234.759 236.016 265.275 C 231.575 269.928 218.785 276.929 219.857 281.761 C 224.503 302.691 244.208 329.317 253.655 348.845 C 260.601 363.201 265.868 372.105 271.09 385.398 C 282.493 343.583 297.651 279.355 336.236 252.669 C 338.822 250.88 341.437 250.128 344.536 249.907 C 360.071 255.754 342.534 300.851 338.172 311.337 C 324.481 344.252 304.241 371.167 274.677 391.236 C 291.057 431.083 313.924 475.468 323.189 517.136 C 333.461 462.809 346.93 404.073 395.293 368.921 C 399.572 365.811 403.968 362.908 409.372 362.828 C 427.85 370.597 398.117 439.392 391.919 451.171 C 381.936 470.143 370.178 488.503 356.886 505.379 C 350.515 513.572 338.106 523.345 332.08 532.653 C 329.798 536.177 330.445 536.473 330.808 540.382 L 330.456 540.439 L 329.17 539.496 L 328.553 533.539 C 326.254 535.221 325.44 535.598 322.965 536.88 L 322.83 535.418 L 323.038 533.743 C 321.534 530.034 320.175 522.056 319.318 517.828 C 310.011 486.292 298.59 455.419 285.134 425.417 C 281.503 417.191 276.092 404.17 271.663 396.643 C 234.971 406.174 198.203 393.193 166.207 375.329 C 153.699 368.345 105.816 332.971 113.791 316.785 C 119.453 312.673 125.494 313.316 132.238 314.546 C 186.757 324.493 232.184 352.659 269.551 392.251 C 258.293 361.921 239.188 332.925 224.644 303.95 C 221.892 298.465 218.736 292.38 215.732 287.059 C 205.719 280.54 194.352 276.249 184.277 270.025 C 147.815 247.5 115.8 213.755 107.197 170.39 C 101.472 141.533 98.5838 116.424 133.598 142.638 C 181.558 178.543 204.101 215.215 216.93 273.449 z" fill="rgb(108,48,23)" transform="translate(0,0)"></path>
<path d="M 328.362 521.9 C 327.401 480.871 353.931 411.739 383.79 383.377 C 389.661 377.799 398.816 367.92 407.051 366.619 C 412.846 369.442 410.902 379.428 409.99 385.051 C 404.076 421.479 386.626 455.707 365.589 485.694 C 354.232 501.977 343.587 512.403 330.994 527.017 C 340.609 510.407 397.334 399.487 397.018 388.776 C 392.46 392.824 384.24 414.005 380.912 420.591 C 369.132 443.901 357.693 467.484 346.283 490.977 C 343.749 496.195 331.473 518.847 330.415 522.599 L 328.362 521.9 z" fill="rgb(252,251,243)" transform="translate(0,0)"></path>
<path d="M 319.318 517.828 L 321.161 516.965 L 328.362 521.9 L 330.415 522.599 L 331.436 523.985 C 329.772 528.448 329.281 529.067 326.312 532.827 L 323.038 533.743 C 321.534 530.034 320.175 522.056 319.318 517.828 z" fill="rgb(81,31,12)" transform="translate(0,0)"></path>
<path d="M 109.612 134.369 C 127.997 138.285 145.371 156.381 158.722 168.76 C 186.469 194.485 209.044 241.624 213.731 279.228 C 194.669 258.847 174.464 230.021 157.715 207.379 C 152.275 200.027 127.988 159.426 124.52 156.448 L 124.914 159.464 C 140.354 191.772 168.02 228.171 190.504 255.99 C 196.185 263.018 202.979 273.117 210.236 278.385 C 212.24 279.841 211.566 278.718 213.09 280.95 L 211.487 281.071 C 204.28 276.897 196.469 273.567 189.445 269.107 C 158.112 249.213 128.199 220.571 115.752 184.794 C 110.835 170.664 105.914 149.082 109.612 134.369 z" fill="rgb(252,251,243)" transform="translate(0,0)"></path>
<path d="M 118.924 317.151 C 170.713 317.746 227.643 355.1 263.821 390.435 C 233.072 382.94 204.812 367.947 176.529 354.103 C 167.232 349.552 154.963 341.75 145.767 338.187 L 145.418 338.874 L 149.258 342.5 C 182.949 361.353 230.488 386.494 268.161 394.318 C 227.831 398.273 201.968 391.321 166.471 370.162 C 155.376 363.549 109.461 332.022 118.924 317.151 z" fill="rgb(252,251,243)" transform="translate(0,0)"></path>
<path d="M 275.661 124.652 C 281.24 129.678 279.388 153.959 278.558 161.565 C 274.608 197.715 255.94 244.413 227.434 267.796 C 234.298 253.149 267.85 172.496 266.145 160.159 L 264.882 159.889 L 263.026 162.196 C 256.964 186.68 233.403 252.203 219.869 273.099 C 224.748 255.912 225.823 237.203 228.715 219.576 C 234.433 184.719 247.193 147.38 275.661 124.652 z" fill="rgb(252,251,243)" transform="translate(0,0)"></path>
<path d="M 340.8 253.526 C 342.402 254.123 342.714 254.51 344.16 255.483 C 346.405 259.906 346.301 262.709 345.52 267.661 C 338.214 313.945 314.71 355.877 277.908 384.339 C 293.43 366.974 329.784 300.365 336.796 277.288 C 332.24 277.095 325.314 296.382 322.595 300.665 C 310.675 319.444 290.504 369.277 275.097 382.931 C 283.91 341.486 305.095 278.109 340.8 253.526 z" fill="rgb(252,251,243)" transform="translate(0,0)"></path>
<path d="M 838.607 1911.17 L 837.879 1910.63 C 822.452 1899.27 805.595 1890.55 790.631 1878.36 C 766.632 1858.81 706.722 1792.83 702.377 1763.76 C 701.906 1760.6 702.033 1758.56 703.703 1755.76 C 712.036 1749.44 731.076 1760.54 739.014 1765.05 C 773.343 1784.77 803.257 1811.33 826.905 1843.08 C 840.009 1860.95 858.915 1894.04 858.904 1916.91 C 855.152 1916.03 855.985 1916.92 853.7 1914.8 C 851.437 1912.35 848.866 1909.83 846.514 1907.44 L 845.806 1908.62 L 845.742 1910.95 L 844.781 1911.29 L 842.837 1909.34 L 841.853 1908.89 L 839.788 1911.36 L 838.607 1911.17 z" fill="rgb(252,251,243)" transform="translate(0,0)"></path>
<path d="M 838.607 1911.17 L 837.879 1910.63 C 822.452 1899.27 805.595 1890.55 790.631 1878.36 C 766.632 1858.81 706.722 1792.83 702.377 1763.76 C 701.906 1760.6 702.033 1758.56 703.703 1755.76 C 712.036 1749.44 731.076 1760.54 739.014 1765.05 C 773.343 1784.77 803.257 1811.33 826.905 1843.08 C 840.009 1860.95 858.915 1894.04 858.904 1916.91 C 855.152 1916.03 855.985 1916.92 853.7 1914.8 C 854.533 1908.99 853.983 1904.6 851.698 1898.95 C 826.708 1837.16 781.244 1790.34 721.415 1761.07 C 716.918 1758.87 711.966 1757.05 707.334 1758.8 C 704.813 1763.1 708.081 1768.97 710.369 1773.15 C 741.802 1830.6 787.61 1873.65 841.853 1908.89 L 839.788 1911.36 L 838.607 1911.17 z" fill="rgb(108,48,23)" transform="translate(0,0)"></path>
<path d="M 736.392 1786.24 C 744.954 1793.24 753.153 1802.7 761.331 1810.25 C 793.55 1840 818.6 1874.04 846.514 1907.44 L 845.806 1908.62 L 845.742 1910.95 L 844.781 1911.29 L 842.837 1909.34 C 843.855 1900.44 746.525 1802.37 736.392 1786.24 z" fill="rgb(108,48,23)" transform="translate(0,0)"></path>
<path d="M 444.445 576.422 C 481.19 552.995 582.997 510.759 619.655 546.28 C 591.837 589.329 497.516 605.226 450.979 590.838 C 444.239 588.755 437.4 585.278 432.592 590.179 L 431.749 589.148 C 436.217 582.323 438.26 582.334 443.088 577.734 L 444.445 576.422 z" fill="rgb(108,48,23)" transform="translate(0,0)"></path>
<path d="M 566.295 537.39 C 575.476 536.535 609.413 536.71 611.996 547.575 C 609.212 555.779 592.478 564.636 585.038 568.785 C 545.086 591.064 489.967 597.738 445.995 584.78 C 483.532 580.271 520.707 573.142 557.25 563.445 C 564.27 561.458 588.124 555.742 591.873 550.878 C 590.3 550.461 498.97 576.053 486.827 576.15 C 481.252 576.194 445.32 582.948 437.706 584.534 C 473.563 560.679 523.308 542.346 566.295 537.39 z" fill="rgb(252,251,243)" transform="translate(0,0)"></path>
<path d="M 327.183 540.129 C 290.458 547.229 236.271 521.929 209.125 498.774 C 196.562 488.058 182.992 471.742 177.922 455.644 C 177.204 453.361 174.975 448.338 175.148 446.059 C 175.307 443.819 176.523 441.789 178.422 440.592 C 200.208 426.627 291.26 492.923 304.445 513.293 C 308.34 519.309 315.996 524.62 319.626 531.581 L 317.173 532.109 L 316.744 533.169 L 317.249 535.371 L 314.535 536.001 L 314.127 537.174 C 320.464 540.384 323.03 537.426 327.183 540.129 z" fill="rgb(252,251,243)" transform="translate(0,0)"></path>
<path d="M 327.183 540.129 C 290.458 547.229 236.271 521.929 209.125 498.774 C 196.562 488.058 182.992 471.742 177.922 455.644 C 177.204 453.361 174.975 448.338 175.148 446.059 C 175.307 443.819 176.523 441.789 178.422 440.592 C 200.208 426.627 291.26 492.923 304.445 513.293 C 308.34 519.309 315.996 524.62 319.626 531.581 L 317.173 532.109 C 286.147 494.83 234.892 451.683 184.886 442.273 C 183.2 441.956 181.835 442.612 180.425 443.456 C 178.559 447.855 180.019 451.877 181.845 456.107 C 201.927 502.631 265.867 535.116 314.127 537.174 C 320.464 540.384 323.03 537.426 327.183 540.129 z" fill="rgb(108,48,23)" transform="translate(0,0)"></path>
<path d="M 314.535 536.001 C 279.965 523.048 251.494 503.954 222.492 481.425 C 217.704 477.706 207.779 470.62 205.311 465.547 C 206.024 465.505 221.309 477.753 223.791 479.481 C 251.287 498.622 284.983 522.781 316.744 533.169 L 317.249 535.371 L 314.535 536.001 z" fill="rgb(108,48,23)" transform="translate(0,0)"></path>
<path d="M 523.951 470.272 C 485.645 435.577 469.121 359.527 483.953 310.447 C 484.858 307.451 486.997 306.23 489.674 305.316 C 508.551 308.281 534.917 396.449 534.956 416.084 C 534.988 432.532 534.497 446.529 531.832 462.77 C 529.764 465.008 529.961 465.517 527.433 466.335 L 524.91 466.698 L 523.951 470.272 z" fill="rgb(252,251,243)" transform="translate(0,0)"></path>
<path d="M 523.951 470.272 C 485.645 435.577 469.121 359.527 483.953 310.447 C 484.858 307.451 486.997 306.23 489.674 305.316 C 508.551 308.281 534.917 396.449 534.956 416.084 C 534.988 432.532 534.497 446.529 531.832 462.77 C 529.764 465.008 529.961 465.517 527.433 466.335 C 522.731 452.341 514.52 436.232 509.39 422.618 C 502.617 404.643 492.647 358.387 493.254 339.965 L 493.923 340.186 C 502.231 366.319 501.556 398.034 513.796 424.28 C 519.221 435.914 525.331 451.019 529.43 463.089 C 534.871 436.525 530.256 399.779 522.161 374.125 C 518.487 362.48 500.754 315.82 489.93 310.085 L 488.356 311.048 C 485.316 317.219 483.406 332.468 483.137 339.428 C 481.342 385.858 493.659 431.832 524.91 466.698 L 523.951 470.272 z" fill="rgb(108,48,23)" transform="translate(0,0)"></path>
<path d="M 428.964 587.615 C 404.001 552.922 410.789 492.49 422.77 454.74 C 425.632 445.724 429.577 432.147 435.642 424.812 C 442.073 422.768 446.077 430.73 447.924 435.897 C 464.669 482.754 458.142 528.454 439.573 573.505 C 437.374 575.426 438.621 574.325 437.634 576.416 C 434.489 583.076 430.8 580.62 429.772 588.179 L 428.964 587.615 z" fill="rgb(108,48,23)" transform="translate(0,0)"></path>
<path d="M 437.243 427.58 C 447.472 437.042 450.016 459.328 451.428 472.535 C 455.609 511.668 447.865 546.283 433.052 582.287 C 433.163 562.751 433.725 543.221 434.739 523.711 C 435.561 510.427 439.466 473.857 437.652 462.581 L 436.053 462.373 C 433.58 506.428 429.976 540.182 430.166 584.887 C 417.728 554.934 413.287 527.675 418.211 495.305 C 421.158 475.933 426.591 444.179 437.243 427.58 z" fill="rgb(252,251,243)" transform="translate(0,0)"></path>
<metadata><recraft-signature>{"signed_by": "recraft", "signature_b64": "bBYPCeszjZkrOtNbmkDs155+kW7OI60+WtCgdtJ57fYu9jpfcabZYx3YjOJr8vqlDIu9KWnTxxfuDqHHt1FnDA==", "signing_algo": "Ed25519", "generation_timestamp": 1778091869, "identifier": "c0163947-bd73-452a-a824-9d7bff2104fa"}</recraft-signature></metadata></svg>