<svg xmlns="http://www.w3.org/2000/svg" height="1024" preserveAspectRatio="none" style="display: block;" version="1.1" viewBox="0 0 2048 2048" width="1024">
<defs>
	<linearGradient gradientUnits="userSpaceOnUse" id="Gradient1" x1="446.895" x2="482.021" y1="1565.07" y2="1515.87">
		<stop class="stop0" offset="0" stop-color="rgb(252,238,222)" stop-opacity="1"></stop>
		<stop class="stop1" offset="1" stop-color="rgb(255,255,255)" stop-opacity="1"></stop>
	</linearGradient>
	<linearGradient gradientUnits="userSpaceOnUse" id="Gradient2" x1="473.879" x2="368.823" y1="1708.56" y2="1696.55">
		<stop class="stop0" offset="0" stop-color="rgb(239,222,206)" stop-opacity="1"></stop>
		<stop class="stop1" offset="1" stop-color="rgb(255,255,255)" stop-opacity="1"></stop>
	</linearGradient>
	<linearGradient gradientUnits="userSpaceOnUse" id="Gradient3" x1="482.741" x2="279.78" y1="1784.05" y2="1766.43">
		<stop class="stop0" offset="0" stop-color="rgb(225,206,186)" stop-opacity="1"></stop>
		<stop class="stop1" offset="1" stop-color="rgb(255,248,244)" stop-opacity="1"></stop>
	</linearGradient>
	<linearGradient gradientUnits="userSpaceOnUse" id="Gradient4" x1="1718.72" x2="1797.01" y1="791.433" y2="841.659">
		<stop class="stop0" offset="0" stop-color="rgb(250,234,215)" stop-opacity="1"></stop>
		<stop class="stop1" offset="1" stop-color="rgb(255,255,251)" stop-opacity="1"></stop>
	</linearGradient>
	<linearGradient gradientUnits="userSpaceOnUse" id="Gradient5" x1="462.899" x2="555.701" y1="660.946" y2="537.275">
		<stop class="stop0" offset="0" stop-color="rgb(233,192,154)" stop-opacity="1"></stop>
		<stop class="stop1" offset="1" stop-color="rgb(254,253,235)" stop-opacity="1"></stop>
	</linearGradient>
</defs>
<path d="M 0 0 L 2048 0 L 2048 2048 L 0 2048 L 0 0 z" fill="rgb(255,255,255)" transform="translate(0,0)"></path>
<path d="M 1313.97 1086.2 C 1335.99 1077.07 1433.37 1022.65 1447.88 1024.34 C 1475.76 1027.58 1511.85 1068.2 1529.11 1089.04 C 1553.34 1071.74 1650.73 997.507 1681.68 1047.61 C 1699.16 1075.9 1643.78 1116.87 1622.01 1126.15 C 1605.29 1133.28 1582.59 1145.18 1563.2 1154.21 L 1567.22 1166.92 C 1571.85 1183.6 1579.29 1212.26 1579.09 1229.26 L 1579.01 1243.07 C 1591.12 1246.54 1602.1 1251.19 1614.02 1255.67 C 1750.67 1307.05 1871.49 1392.61 1958.59 1510.44 C 1959.98 1512.32 1959.56 1513.62 1959.35 1515.65 C 1957.07 1518.42 1954.9 1518.62 1951.41 1519.65 C 1951.55 1520.02 1951.69 1520.39 1951.83 1520.76 C 1951.73 1528.62 1973.03 1540.76 1971.24 1546.5 C 1956.96 1555.21 1943.87 1559.49 1928.35 1565.5 L 1879.22 1584.47 C 1802.96 1613.39 1726.52 1641.82 1649.89 1669.76 L 984.373 1921.88 C 910.426 1897.79 819.284 1830.45 769.419 1771.03 C 750.849 1748.9 728.994 1718.49 709.393 1694.55 C 699.128 1681.98 688.618 1669.61 677.87 1657.44 C 673.506 1652.6 656.139 1632.47 652.251 1629.36 C 634.444 1632.93 608.154 1635.14 602.662 1612.83 C 602.675 1611.43 602.736 1610.03 602.845 1608.63 C 604.408 1588.19 627.659 1566.26 642.161 1553.62 C 615.15 1524.35 577.798 1500.21 545.431 1477.44 C 521.918 1491.32 501.477 1501.39 474.567 1507.11 C 468.166 1505.98 468.542 1505.07 465.334 1511.23 L 465.341 1506.87 L 464.101 1505.66 C 459.616 1508.92 459.775 1514.86 455.533 1518.35 C 456.776 1514.02 458.898 1509.41 460.663 1505.21 C 457.142 1498.67 454.252 1490.37 451.573 1483.33 C 442.502 1475.96 430.42 1459.72 421.189 1451.71 C 398.016 1431.62 367.185 1412.54 340.379 1399.12 C 288.658 1373.23 274.15 1392.29 225.139 1410.85 C 209.586 1416.74 191.615 1418.81 176.057 1411.02 C 164.371 1405.17 149.319 1391.59 145.036 1379.03 L 142.021 1379.48 C 138.596 1378.19 139.831 1379.29 138.151 1376.09 C 138.017 1357.07 164.557 1330.6 181.625 1324.14 C 248.632 1298.78 317.989 1279.85 386.644 1259.36 C 568.335 1205.43 751.533 1156.71 936.011 1113.26 C 1038.56 1089.3 1145.4 1064.44 1249.43 1047.98 C 1264.86 1055.19 1297.41 1076.28 1313.97 1086.2 z" fill="rgb(67,24,12)" transform="translate(0,0)"></path>
<path d="M 938.595 1887.99 C 955.789 1882.94 981.196 1871.36 999.022 1864.76 L 1143.85 1811.67 L 1594.18 1647.36 L 1716.65 1601.68 C 1794.35 1572.19 1871.48 1542.85 1951.41 1519.65 C 1951.55 1520.02 1951.69 1520.39 1951.83 1520.76 C 1951.73 1528.62 1973.03 1540.76 1971.24 1546.5 C 1956.96 1555.21 1943.87 1559.49 1928.35 1565.5 L 1879.22 1584.47 C 1802.96 1613.39 1726.52 1641.82 1649.89 1669.76 L 984.373 1921.88 C 910.426 1897.79 819.284 1830.45 769.419 1771.03 C 750.849 1748.9 728.994 1718.49 709.393 1694.55 C 699.128 1681.98 688.618 1669.61 677.87 1657.44 C 673.506 1652.6 656.139 1632.47 652.251 1629.36 C 669.329 1625.82 680.704 1622.25 696.621 1616.1 C 718.963 1640.76 741.242 1666.08 760.218 1693.47 C 811.791 1767.92 847.641 1852.55 938.595 1887.99 z" fill="rgb(233,212,193)" transform="translate(0,0)"></path>
<path d="M 145.036 1379.03 C 160.209 1367.09 260.141 1341.76 284.802 1336.14 C 331.299 1351.43 395.538 1380.42 434.751 1410.02 C 438.326 1429.96 442.589 1449.08 447.932 1468.62 C 449.189 1473.21 450.774 1478.74 451.573 1483.33 C 442.502 1475.96 430.42 1459.72 421.189 1451.71 C 398.016 1431.62 367.185 1412.54 340.379 1399.12 C 288.658 1373.23 274.15 1392.29 225.139 1410.85 C 209.586 1416.74 191.615 1418.81 176.057 1411.02 C 164.371 1405.17 149.319 1391.59 145.036 1379.03 z" fill="rgb(233,212,193)" transform="translate(0,0)"></path>
<path d="M 1578.45 1250.5 C 1596.52 1255.86 1623.2 1267.35 1641.3 1274.82 C 1727.1 1310.2 1811.07 1363.36 1877.37 1428.42 C 1903.9 1454.46 1927.88 1483.71 1951.11 1512.52 C 1914.18 1522.51 1877.26 1535.43 1841.16 1548.14 C 1747.75 1581.02 1655.52 1617.17 1562.58 1651.43 L 1104.47 1818.56 C 1063.29 1833.28 1022.22 1848.28 981.252 1863.57 C 968.223 1869.31 952.066 1875.34 938.598 1879.8 C 846.569 1838.5 824.399 1773.15 770.697 1696.11 C 749.516 1665.73 727.589 1641.17 703.596 1612.96 C 734.809 1598.24 750.714 1583.01 778.715 1565.76 C 802.35 1594.76 834.866 1636.16 873.217 1643.51 C 888.947 1646.52 929.134 1623.47 945.45 1615.39 C 979.584 1598.86 1013.37 1581.62 1046.79 1563.68 L 1317.58 1418.42 L 1477.29 1332.82 L 1535.86 1301.69 C 1568.49 1284.26 1572.64 1288.52 1578.45 1250.5 z" fill="rgb(246,239,220)" transform="translate(0,0)"></path>
<path d="M 1525.19 1418.61 C 1529.98 1418.33 1540.08 1421.72 1545.66 1423.55 C 1597.65 1440.59 1648.64 1465.65 1693.41 1497.03 C 1695.26 1498.33 1694.74 1500.35 1694.67 1502.27 C 1687.4 1502.25 1660.77 1484.77 1653.66 1480.42 C 1620.33 1460.02 1585.15 1444.86 1548.49 1431.54 C 1540.29 1428.56 1525.6 1427.9 1525.19 1418.61 z" fill="rgb(67,24,12)" transform="translate(0,0)"></path>
<path d="M 1582.32 1396.85 C 1602.16 1401.04 1664.31 1423.99 1681.03 1438.88 C 1682.02 1439.76 1681.28 1441.76 1681 1443.49 C 1676.6 1442.87 1639.12 1423.82 1631.08 1420.21 C 1617.44 1414.09 1592.44 1408.25 1581.61 1402.96 C 1580.47 1400.02 1580.94 1400.76 1582.32 1396.85 z" fill="rgb(67,24,12)" transform="translate(0,0)"></path>
<path d="M 1612.96 1371.64 C 1627.29 1373.23 1660.81 1387.79 1672.61 1396.63 C 1673.44 1397.25 1672.45 1400.01 1672.24 1400.98 C 1660.1 1397.53 1628.45 1383.14 1614.56 1378.07 C 1612.52 1377.33 1612.97 1373.87 1612.96 1371.64 z" fill="rgb(67,24,12)" transform="translate(0,0)"></path>
<path d="M 1241.92 1645.53 C 1244.02 1645.71 1246.63 1646.29 1248.11 1647.86 C 1254.86 1655.05 1286.6 1684.7 1287.19 1692.39 C 1280.46 1691.94 1277.01 1687.65 1270.83 1681.44 C 1261.55 1672.13 1249.6 1659.82 1241.96 1648.95 C 1241.95 1647.81 1241.94 1646.67 1241.92 1645.53 z" fill="rgb(67,24,12)" transform="translate(0,0)"></path>
<path d="M 1218.71 1660.97 C 1223.92 1662.8 1248.57 1687.86 1252.31 1693.86 C 1253.25 1695.37 1252.34 1696.27 1251.57 1698.57 C 1244.09 1696.49 1221.47 1672.1 1217.31 1664.61 C 1216.71 1663.54 1218.11 1661.99 1218.71 1660.97 z" fill="rgb(67,24,12)" transform="translate(0,0)"></path>
<path d="M 1288.13 1654.35 C 1293.58 1656.42 1303.85 1664.35 1309.22 1667.63 C 1313.55 1670.28 1313.93 1671.3 1314.74 1675.63 C 1306.34 1674.81 1298.84 1670.56 1292.6 1664.91 C 1288.06 1660.8 1288.25 1659.5 1288.13 1654.35 z" fill="rgb(67,24,12)" transform="translate(0,0)"></path>
<path d="M 1441.69 1031.07 C 1451.83 1030.33 1459.94 1034.84 1468.42 1040.63 C 1537.89 1088.01 1583.77 1186.21 1567.95 1269.83 C 1566.85 1275.61 1563.13 1277.91 1558.37 1280.86 C 1547.7 1287.48 1536.03 1293.52 1524.95 1299.46 L 1463.26 1332.2 L 1311.18 1413.73 C 1276.94 1431.82 1243.46 1450.91 1209.49 1469.08 C 1111.05 1522.3 1011.73 1573.88 911.589 1623.82 L 915.53 1612.9 C 930.023 1537.22 845.227 1390.37 771.57 1367.72 C 801.256 1350.4 831.354 1335.7 862.037 1320.32 L 987.898 1257.63 L 1259.4 1121.53 C 1319.49 1091.6 1382.15 1061.81 1441.69 1031.07 z" fill="rgb(246,239,220)" transform="translate(0,0)"></path>
<path d="M 223.956 1317.4 C 287.822 1293.12 363.496 1273.87 429.712 1254.3 C 606.514 1202.2 784.841 1155.43 964.453 1114.04 C 1026.67 1099.35 1089.12 1085.67 1151.78 1073.02 C 1176.11 1068.08 1224.68 1057.8 1248 1055.63 C 1264.35 1064.32 1289.87 1079.91 1305.47 1090.17 C 1291.54 1098.38 1271.35 1107.69 1256.57 1115.03 L 1170.25 1158 L 875.038 1305.72 C 843.549 1321.59 812.192 1337.73 780.97 1354.12 C 759.732 1365.35 734.381 1373.09 729.555 1399.02 C 723.493 1431.59 732.163 1472.63 738.378 1504.94 C 710.238 1518.54 673.473 1532.46 648.577 1549.25 C 629.389 1528.98 594.202 1501.76 571.617 1485.41 L 552.121 1473.37 C 570.69 1453.66 579.908 1450.9 591.825 1423.65 C 593.829 1417.45 595.239 1414.37 592.384 1408.57 C 570.738 1388.27 498.776 1458.44 482.724 1473.72 C 494.894 1449.93 506.66 1421.44 517.206 1396.62 C 548.929 1385.37 565.889 1334.22 569.368 1303.91 C 572.207 1279.18 567.521 1270.1 543.883 1286.8 C 513.919 1307.97 490.904 1361.8 510.187 1395.93 C 502.479 1415.78 490.674 1441.61 481.515 1461.11 C 486.471 1428.61 477.566 1387.24 458.744 1360.09 C 454.877 1354.51 442.374 1342.07 436.268 1349.9 C 427.723 1360.85 432.112 1388.59 434.042 1401.36 C 384.353 1364.89 285.79 1321.18 223.956 1317.4 z" fill="rgb(246,239,220)" transform="translate(0,0)"></path>
<path d="M 591.825 1423.65 C 604.606 1439.51 579.581 1470 571.617 1485.41 L 552.121 1473.37 C 570.69 1453.66 579.908 1450.9 591.825 1423.65 z" fill="rgb(233,212,193)" transform="translate(0,0)"></path>
<path d="M 759.307 1373.16 C 767.867 1372.63 775.486 1374.69 782.957 1379.19 C 839.907 1413.45 883.64 1485.83 902.628 1548.6 C 908.168 1568.38 915.597 1603.91 904.145 1622.93 C 890.443 1645.68 863.707 1634.27 847.106 1624.26 C 827.486 1612.34 798.995 1580.31 784.866 1561.18 C 790.367 1557.26 816.129 1542.2 816.86 1537.04 C 819.712 1516.89 797.646 1489.57 778.939 1482.67 C 765.657 1491.97 759.268 1495.54 744.658 1502.08 C 742.458 1492.35 740.103 1478.89 739.104 1469.01 C 735.958 1437.91 722.163 1389.13 759.307 1373.16 z" fill="rgb(233,212,193)" transform="translate(0,0)"></path>
<path d="M 778.73 1491.85 C 794.042 1493.47 807.181 1521.14 811.762 1534.07 C 798.918 1544.11 782.331 1554.13 768.843 1563.77 C 728.215 1592.81 694.622 1616.16 643.235 1623.89 C 608.069 1628.44 600.585 1611.84 620.624 1585.22 C 659.148 1534.03 727.006 1525.06 778.73 1491.85 z" fill="rgb(233,212,193)" transform="translate(0,0)"></path>
<path d="M 1639.16 1039.35 C 1657.77 1037.25 1685.17 1041.82 1676.1 1066.53 C 1661.65 1105.89 1604.58 1127.09 1569.33 1144.32 L 1560.71 1147.89 C 1553.46 1129.45 1543.07 1112.37 1532.84 1095.49 C 1562.62 1071.49 1600.96 1044.81 1639.16 1039.35 z" fill="rgb(233,212,193)" transform="translate(0,0)"></path>
<path d="M 581.274 1412.24 C 582.945 1412.13 584.166 1412.26 585.84 1412.35 L 586.902 1414.02 C 586.272 1420.46 582.805 1428.36 579.362 1433.81 C 558.656 1466.6 515.982 1490.26 479.23 1499.03 C 476.492 1499.16 476.141 1499.54 473.985 1498.06 C 472.319 1488.6 494.911 1469.73 502.213 1463.51 C 523.229 1445.59 553.498 1416.65 581.274 1412.24 z" fill="rgb(233,212,193)" transform="translate(0,0)"></path>
<path d="M 441.471 1353.29 C 448.559 1356.18 455.809 1366.23 459.102 1373.16 C 479.534 1416.18 480.455 1451.01 466.707 1494.76 L 465.444 1499.35 L 464.279 1499.68 C 462.731 1496.45 460.551 1490.18 459.767 1486.81 C 453.222 1458.66 428.204 1377.63 441.471 1353.29 z" fill="rgb(233,212,193)" transform="translate(0,0)"></path>
<path d="M 559.89 1284.7 C 561.023 1285.23 562.151 1286 562.298 1287.4 C 565.707 1319.99 546.402 1376.57 515.307 1390.18 C 511.087 1383.44 509.937 1377.44 509.685 1369.47 C 508.631 1336.05 529.932 1299.83 559.89 1284.7 z" fill="rgb(233,212,193)" transform="translate(0,0)"></path>
<path d="M 206.319 1323.49 C 229.682 1323.02 248.114 1326.74 270.471 1333.02 C 245.587 1337.8 214.561 1346.18 190.518 1353.94 C 175.741 1359.15 161.027 1364.55 146.382 1370.12 C 156.693 1346.43 180.295 1326.63 206.319 1323.49 z" fill="rgb(246,239,220)" transform="translate(0,0)"></path>
<path d="M 667.012 214.971 C 667.557 213.598 668.103 212.239 668.706 210.89 C 684.972 174.513 730.126 74.437 767.758 60.6753 C 774.355 58.263 781.722 58.0128 788.147 61.1261 C 792.971 63.4633 796.058 67.6443 797.731 72.6535 C 810.702 111.487 770.77 184.26 752.575 219.006 C 866.014 228.539 985.024 254.478 1086.4 307.908 C 1137.1 334.632 1196.76 380.133 1197.29 442.931 C 1197.21 480.983 1186.41 518.537 1175.86 554.684 C 1138.33 683.223 1075.56 792.346 983.941 889.438 C 995.236 913.191 1002.93 925.411 992.363 952.256 C 964.877 1022.11 881.768 1056.41 814.665 1073.52 C 692.258 1104.73 559.179 1097.94 439.84 1057.59 C 388.323 1039.73 321.481 994.854 298.705 944.379 C 296.08 938.562 294.871 927.138 292.045 919.275 C 281.194 909.248 270.54 899.009 260.091 888.564 C 181.61 810.145 129.877 707.073 95.2678 602.715 C 87.5117 579.329 80.0955 556.102 74.4376 532.095 C 68.178 505.535 61.3294 477.704 61.4734 450.292 C 61.6648 413.846 76.3651 384.573 101.883 359.271 C 212.341 249.746 450.441 219.938 600.214 215.077 C 622.433 214.355 644.781 214.873 667.012 214.971 z" fill="rgb(67,24,12)" transform="translate(0,0)"></path>
<path d="M 292.045 919.275 C 315.322 937.627 340.49 957.883 366.341 972.722 C 523.494 1062.93 722.324 1059.61 879.001 970.066 C 916.929 948.389 952.347 919.183 983.941 889.438 C 995.236 913.191 1002.93 925.411 992.363 952.256 C 964.877 1022.11 881.768 1056.41 814.665 1073.52 C 692.258 1104.73 559.179 1097.94 439.84 1057.59 C 388.323 1039.73 321.481 994.854 298.705 944.379 C 296.08 938.562 294.871 927.138 292.045 919.275 z" fill="rgb(233,212,193)" transform="translate(0,0)"></path>
<path d="M 679.029 373.429 C 738.362 374.316 807.383 383.704 852.528 424.327 C 887.813 456.079 902.165 464.809 949.699 472.775 C 994.064 480.211 1031.02 523.997 1058.22 557.581 C 944.524 609.28 834.559 625.786 710.766 636.844 C 694.359 637.23 676.291 638.828 659.395 639.454 C 632.856 640.391 606.296 640.566 579.746 639.978 C 589.985 608.381 590.441 591.578 583.451 559.892 C 589.312 549.93 592.356 545.257 592.897 534.284 C 593.817 515.612 636.752 412.123 646.941 406.086 C 647.398 407.702 647.82 410.698 649.001 410.995 C 653.769 412.192 662.67 412.641 667.692 413.278 C 680.935 414.921 693.981 417.884 706.635 422.121 C 733.83 431.08 759.091 445.088 781.093 463.411 C 788.826 469.906 798.798 480.081 806.662 485.487 L 809.225 484.891 L 809.733 482.985 C 806.854 474.746 789.287 459.677 782.295 454.464 C 756.561 435.275 727.344 419.713 696.187 411.579 C 679.552 407.235 664.619 405.606 647.666 404.106 C 652.784 394.102 657.995 384.146 663.298 374.238 L 679.029 373.429 z" fill="rgb(246,239,220)" transform="translate(0,0)"></path>
<path d="M 864.935 511.541 C 870.344 512.881 884.933 519.986 889.818 522.588 C 906.453 531.447 984.749 565.671 980.324 584.14 C 973.469 582.667 961.154 568.867 953.752 564.395 C 925.871 547.55 896.118 534.165 867.814 518.215 C 865.069 516.669 865.177 514.22 864.935 511.541 z" fill="rgb(67,24,12)" transform="translate(0,0)"></path>
<path d="M 964.37 505.906 C 971.231 509.008 981.624 513.092 987.928 517.173 C 990.268 518.688 989.766 520.56 989.733 522.871 C 982.562 521.418 967.759 517.03 963.523 510.491 C 962.894 509.521 964.01 507.098 964.37 505.906 z" fill="rgb(67,24,12)" transform="translate(0,0)"></path>
<path d="M 662.181 504.585 C 667.334 506.343 679.869 511.905 684.157 515.615 C 685.204 516.521 684.708 517.781 684.609 519.602 C 676.098 517.861 659.717 515.96 662.181 504.585 z" fill="rgb(67,24,12)" transform="translate(0,0)"></path>
<path d="M 674.925 582.93 C 681.667 583.523 698.418 586.901 696.457 595.932 C 689.581 595.329 675.445 590.879 674.925 582.93 z" fill="rgb(67,24,12)" transform="translate(0,0)"></path>
<path d="M 744.826 404.77 C 750.937 404.5 764.307 408.433 767.638 414.21 C 758.619 416.458 747.874 414.528 744.826 404.77 z" fill="rgb(67,24,12)" transform="translate(0,0)"></path>
<path d="M 725.02 495.851 C 732.205 497.028 743.197 497.364 742.295 506.271 C 740.968 506.154 739.643 506.008 738.322 505.834 C 731.12 504.859 722.98 504.484 725.02 495.851 z" fill="rgb(67,24,12)" transform="translate(0,0)"></path>
<path d="M 814.94 553.706 C 818.508 554.16 826.571 556.587 829.029 559.285 C 831.924 562.463 831.076 562.07 830.756 566.043 C 823.321 564.433 813.264 563.163 814.94 553.706 z" fill="rgb(67,24,12)" transform="translate(0,0)"></path>
<path d="M 696.066 460.885 C 700.892 462.536 708.741 464.045 710.579 468.898 L 708.678 472.148 C 703.95 471.089 698.334 470.313 695.069 466.959 C 694.122 463.658 694.331 464.836 696.066 460.885 z" fill="rgb(67,24,12)" transform="translate(0,0)"></path>
<path d="M 886.469 579.16 C 892.47 578.15 901.523 578.249 906.298 582.405 L 906.465 584.943 C 900.386 587.066 889.124 586.174 886.469 579.16 z" fill="rgb(67,24,12)" transform="translate(0,0)"></path>
<path d="M 768.792 584.762 C 777.936 584.883 783.981 585.312 783.687 595.479 C 776.222 593.514 770.542 592.947 768.792 584.762 z" fill="rgb(67,24,12)" transform="translate(0,0)"></path>
<path d="M 846.074 454.729 C 850.877 455.417 859.075 456.92 861.921 461.033 L 861.187 464.081 C 854.81 464.195 844.911 463.217 846.074 454.729 z" fill="rgb(67,24,12)" transform="translate(0,0)"></path>
<path d="M 811.233 429.725 C 818.4 429.651 823.94 432.959 828.298 438.465 C 820.154 440.893 813.691 438.246 811.233 429.725 z" fill="rgb(67,24,12)" transform="translate(0,0)"></path>
<path d="M 888.204 487.7 C 893.762 489.317 902.53 492.209 901.4 498.928 C 894.571 498.366 887.084 495.673 888.204 487.7 z" fill="rgb(67,24,12)" transform="translate(0,0)"></path>
<path d="M 645.094 587.554 C 652.282 588.58 655.845 589.889 655.244 597.811 C 651.052 597.593 650.134 597.484 646.833 595.165 C 644.586 591.736 644.915 591.566 645.094 587.554 z" fill="rgb(67,24,12)" transform="translate(0,0)"></path>
<path d="M 604.736 221.443 C 624.309 220.942 643.891 220.81 663.469 221.049 C 659.685 230.492 655.568 239.798 651.126 248.95 C 596.604 249.629 542.263 250.983 487.974 256.541 C 387.63 266.814 229.687 298.855 149.685 365.309 C 126.539 384.536 105.073 409.618 102.523 440.869 C 100.385 467.082 112.645 491.777 129.41 511.169 C 147.391 531.967 171.51 547.665 195.537 560.699 C 297.254 615.878 425.723 636.134 539.89 644.618 C 692.495 655.959 1000.24 628.954 1119.16 525.588 C 1140.82 506.762 1160.53 480.566 1162.44 450.92 C 1163.91 428.113 1152.2 405.341 1137.53 388.604 C 1125.38 374.751 1110.05 364.058 1094.59 354.227 C 1018.33 305.707 907.353 274.988 818.605 260.538 C 790.822 256.014 762.628 254.125 734.575 252.136 C 739.168 242.745 743.434 233.765 748.765 224.742 C 753.888 225.417 759.051 225.794 764.202 226.232 C 794.504 230.244 824.638 233.444 854.766 238.906 C 946.137 255.469 1072.04 292.282 1142.67 354.443 C 1169.15 377.747 1188.99 404.681 1191.09 440.946 C 1192.93 472.638 1181.61 499.132 1160.69 522.599 C 1137.97 548.088 1108.62 566.374 1078.66 582.149 C 961.425 643.882 818.479 666.342 687.495 674.282 C 532.353 683.687 353.421 662.985 211.494 597.234 C 179.323 582.33 146.847 564.878 120.262 541.131 C 94.3684 518.003 70.7937 486.869 68.9849 451.004 C 67.5178 421.912 78.5999 394.504 98.0883 373.146 C 207.624 253.107 451.499 229.227 604.736 221.443 z" fill="rgb(246,239,220)" transform="translate(0,0)"></path>
<path d="M 559.335 382.575 C 570.627 381.727 581.957 381.483 593.275 381.843 C 587.916 394.262 581.876 406.375 575.182 418.128 C 566.28 417.359 557.315 417.841 548.547 419.562 C 523.995 424.254 492 438.368 471.14 452.313 C 440.116 473.758 406.311 481.559 371.177 492.212 C 357.464 496.37 297.615 522.731 291.495 531.629 L 292.183 533.35 C 296.406 534.042 357.906 503.886 371.026 500.272 C 410.627 489.365 448.275 477.3 482.464 453.777 C 505.597 437.861 543.828 425.152 571.829 424.592 C 554.274 453.756 538.197 479.593 515.297 505.216 C 508.316 513.028 516.469 518.826 500.717 523.986 C 460.102 537.955 419.596 583.045 397.346 619.381 C 311.104 602.021 251.331 585.204 175.641 540.985 C 178.244 537.47 182.111 532.377 185.142 529.305 C 235.977 478.185 303.208 424.575 374.004 404.356 C 428.451 388.806 502.161 385.826 559.335 382.575 z" fill="rgb(246,239,220)" transform="translate(0,0)"></path>
<path d="M 379.352 551.173 C 383.627 550.721 385.899 549.973 389.164 552.416 L 388.498 554.197 C 384.769 557.55 382.404 557.746 377.593 559.06 C 373.268 560.166 371.111 561.152 367.188 559.612 L 366.679 557.841 C 369.768 552.468 373.731 552.373 379.352 551.173 z" fill="rgb(67,24,12)" transform="translate(0,0)"></path>
<path d="M 471.202 503.149 C 474.043 502.459 472.914 502.566 475.921 503.178 C 476.625 505.883 476.589 504.491 475.265 507.414 C 468.417 512.201 466.736 511.65 458.382 512.65 C 455.832 512.534 456.385 512.438 453.853 511.423 L 453.912 509.705 C 456.387 506.1 466.725 504.196 471.202 503.149 z" fill="rgb(67,24,12)" transform="translate(0,0)"></path>
<path d="M 397.863 432.215 C 402.654 431.985 408.886 431.216 411.221 436.193 C 408.853 439.136 409.586 438.222 405.508 439.698 C 401.023 440.995 396.274 441.59 393.989 436.713 C 395.393 433.265 394.407 434.875 397.863 432.215 z" fill="rgb(67,24,12)" transform="translate(0,0)"></path>
<path d="M 309.366 469.932 C 313.435 471.168 312.832 470.298 314.887 473.079 L 313.962 475.335 C 309.691 478.838 308.144 479.147 303.002 481.12 C 299.318 481.093 300.865 481.651 298.061 479.872 L 298.304 478.119 C 301.439 474.505 305.282 472.51 309.366 469.932 z" fill="rgb(67,24,12)" transform="translate(0,0)"></path>
<path d="M 237.304 522.908 C 241.563 522.875 241.929 522.501 244.467 524.648 C 244.278 527.851 243.076 528.687 240.959 531.146 C 237.152 530.957 236.197 531.093 233.676 528.971 C 234.053 525.423 234.329 526.206 237.304 522.908 z" fill="rgb(67,24,12)" transform="translate(0,0)"></path>
<path d="M 841.689 664.452 L 843.376 664.328 L 844.367 665.998 C 844.26 673.293 840.02 705.021 838.506 714.239 C 821.854 812.779 796.697 917.623 738.977 1000.72 C 720.83 1026.84 705.166 1023.33 675.978 1027.2 C 673.487 1027.04 674.476 1027.49 672.868 1026.23 C 674.317 1021.19 680.573 1009.69 683.091 1003.94 C 689.905 988.26 695.641 972.13 700.26 955.665 C 718.9 888.975 729.422 813.811 735.989 744.79 C 738.168 721.891 738.187 699.433 739.825 676.896 C 751.527 674.945 768.395 673.637 780.526 672.274 C 800.945 669.92 821.335 667.313 841.689 664.452 z" fill="rgb(246,239,220)" transform="translate(0,0)"></path>
<path d="M 185.623 592.992 C 189.226 594.074 195.264 597.089 198.84 598.892 C 228.919 614.059 259.245 625.074 291.2 635.754 C 313.243 753.644 360.702 928.102 460.488 1005.05 C 454.569 1004.13 444.403 999.609 438.44 997.388 C 407.968 986.035 388.259 974.874 363.457 953.68 C 281.081 883.289 233.839 775.838 203.544 674.136 C 196.906 651.849 187.375 615.763 185.623 592.992 z" fill="rgb(246,239,220)" transform="translate(0,0)"></path>
<path d="M 951.908 639.185 L 954.843 639.031 C 957.28 642.939 951.354 668.91 950.178 674.816 C 932.735 762.47 903.532 849.629 855.814 925.68 C 837.78 954.422 812.93 986.64 783.481 1004.43 C 777.386 1007.84 745.321 1014.95 737.245 1016.75 C 734.851 1017.08 735.887 1017.39 733.978 1016.38 C 736.815 1011.15 741.731 1007.9 745.395 1002.9 C 754.305 990.741 762.011 978.765 769.019 965.37 C 805.403 895.825 826.464 815.013 841.326 738.326 C 845.86 714.935 848.078 686.42 851.363 662.535 C 885.181 656.116 918.723 648.326 951.908 639.185 z" fill="rgb(246,239,220)" transform="translate(0,0)"></path>
<path d="M 517.114 678.54 C 537.228 679.776 557.355 680.787 577.492 681.575 C 592.365 682.054 607.334 681.773 622.145 682.758 C 623.784 731.696 623.045 782.459 623.013 831.549 C 622.661 898.008 623.007 964.47 624.052 1030.92 L 584.823 1030.52 C 546.172 945.327 533.188 848.318 523.504 755.904 C 521.135 733.302 517.464 700.448 517.114 678.54 z" fill="rgb(246,239,220)" transform="translate(0,0)"></path>
<path d="M 298.778 637.896 C 336.006 647.546 365.456 655.388 403.752 663.434 C 414.092 759.937 436.501 868.04 479.606 955.766 C 490.365 977.663 507.672 1002.24 522.761 1021.21 C 491.171 1015.29 477.688 1014.36 453.959 991.884 C 375.138 917.21 337.636 806.671 312.251 703.822 C 308.617 689.098 299.247 651.832 298.778 637.896 z" fill="rgb(246,239,220)" transform="translate(0,0)"></path>
<path d="M 731.295 677.514 L 732.15 677.808 C 732.536 678.487 733.025 679.23 733.034 679.951 C 733.232 695.025 732.052 716.257 730.843 730.692 C 724.154 810.598 706.222 961.623 662.643 1028.79 C 652.439 1030.01 640.73 1030.45 630.369 1031.07 C 629.599 1025.02 629.826 1001.64 629.739 994.33 C 629.343 962.105 629.351 929.876 629.763 897.651 L 628.96 683.012 C 641.32 681.836 657.897 681.916 670.767 681.397 C 690.964 680.469 711.144 679.174 731.295 677.514 z" fill="rgb(246,239,220)" transform="translate(0,0)"></path>
<path d="M 1070.32 593.872 L 1071.42 594.208 C 1072.33 597.791 1068.75 612.173 1067.73 616.654 C 1058.73 657.751 1046.69 698.126 1031.73 737.448 C 1007.7 802.684 972.127 863.067 926.721 915.713 C 888.192 959.813 862.93 970.614 810.744 994.145 L 809.718 993.964 C 810.5 991.108 821.591 981.319 824.315 978.166 C 899.874 890.728 948.922 747.984 963.617 635.893 C 1002.96 624.813 1033.91 611.524 1070.32 593.872 z" fill="rgb(246,239,220)" transform="translate(0,0)"></path>
<path d="M 411.338 664.669 C 426.162 667.237 440.027 670.115 455.499 672.093 C 471.227 674.103 493.273 676.215 508.539 678.15 C 511.939 684.559 513.625 722.423 514.08 727.722 C 523.103 832.941 537.403 931.929 576.861 1030.29 C 566.989 1028.87 535.502 1025.71 529.904 1019.34 C 454.684 933.811 420.065 770.07 411.338 664.669 z" fill="rgb(246,239,220)" transform="translate(0,0)"></path>
<path d="M 772.27 66.1356 C 775.236 65.7471 778.799 65.2521 781.74 66.0175 C 785.518 67.0007 788.825 69.6742 790.678 73.0938 C 794.005 79.2312 793.819 87.1354 793.44 93.935 C 789.884 157.665 719.027 263.41 685.762 320.171 C 668.921 349.53 652.512 379.136 636.541 408.977 C 616.344 446.997 599.819 483.02 587.78 524.402 C 581.427 514.145 577.157 510.548 567.229 504.551 C 554.687 498.795 539.587 499.483 526.282 501.487 C 579.172 440.133 607.933 368.289 638.779 294.68 C 649.044 270.187 661.478 238.802 673.674 215.486 C 694.05 176.528 730.28 81.141 772.27 66.1356 z" fill="rgb(246,239,220)" transform="translate(0,0)"></path>
<path d="M 73.368 494.525 C 76.1145 496.955 88.8864 517.924 93.1126 523.167 C 116.637 552.353 144.175 569.704 176.327 587.287 C 179.151 614.418 190.166 650.421 198.073 676.659 C 230.277 783.518 272.988 885.296 360.516 958.174 C 356.071 957.328 354.579 956.014 350.885 953.611 C 194.733 852.063 110.21 672.392 73.368 494.525 z" fill="rgb(246,239,220)" transform="translate(0,0)"></path>
<path d="M 1180.66 505.789 C 1180.75 506.739 1180.92 508.09 1180.7 508.982 C 1146.79 649.554 1078.28 784.445 975.277 886.978 C 959.127 903.054 940.264 917.839 922.991 932.021 C 922.31 929.79 941.571 908.476 944.44 904.979 C 950.901 897.005 957.154 888.866 963.193 880.569 C 1013.52 810.102 1046.34 727.489 1067.69 643.914 C 1071.39 629.439 1077.41 603.728 1079.01 589.146 C 1120.02 567.925 1154.86 544.908 1180.66 505.789 z" fill="rgb(246,239,220)" transform="translate(0,0)"></path>
<path d="M 1079.37 353.323 C 1098.92 362.86 1126.6 384.02 1139.29 401.235 C 1179.63 455.967 1137.52 505.835 1091.63 538.132 C 1082.24 544.104 1074.09 548.685 1064.37 554.018 C 1053.49 541.206 1042.73 528.293 1032.09 515.282 C 1034.27 512.33 1036.39 509.334 1038.45 506.296 C 1073.93 454.673 1091.1 416.357 1079.37 353.323 z" fill="rgb(246,239,220)" transform="translate(0,0)"></path>
<path d="M 518.148 527.349 C 526.859 526.51 540.515 528.534 548.646 531.859 C 588.399 548.114 585.082 606.911 572.086 639.545 C 564.227 639.768 553.702 639.134 545.659 638.883 C 548.541 602.976 540.007 572.903 499.946 563.794 C 476.311 558.42 458.558 570.477 441.416 584.965 C 436.538 589.089 418.548 606.146 417.33 612.348 C 423.375 612.639 442.554 593.365 448.627 587.955 C 460.865 577.92 474.092 569.523 490.444 570.089 C 523.205 571.222 541.362 597.765 538.997 628.649 C 538.766 631.675 538.597 635.084 536.182 637.133 C 518.899 640.196 424.564 624.387 404.078 620.48 C 429.148 581.772 470.352 534.376 518.148 527.349 z" fill="url(#Gradient5)" transform="translate(0,0)"></path>
<path d="M 934.362 293.711 C 957.849 300.664 981.152 308.227 1004.25 316.391 C 1018.26 368.835 1001.71 430.5 963.747 469.159 C 953.056 471.107 905.205 455.182 894.014 449.685 C 928.474 397.586 946.796 357.336 934.362 293.711 z" fill="rgb(246,239,220)" transform="translate(0,0)"></path>
<path d="M 180.655 350.975 C 181.085 351.561 182.179 392.262 183.493 399.083 C 189.773 431.696 201.937 460.581 217.829 489.533 C 196.938 507.806 187.752 516.134 169.967 537.81 L 155.647 526.965 C 77.8191 464.041 104.856 398.823 180.655 350.975 z" fill="rgb(246,239,220)" transform="translate(0,0)"></path>
<path d="M 1012.49 320.074 C 1029.01 325.913 1055.85 339.574 1071.25 347.474 C 1089.09 410.804 1065.41 459.472 1028.89 510.342 L 1027.88 511.006 C 1024.75 510.27 1018.12 503.41 1015.19 500.713 C 1001.17 487.794 986.158 479.686 969.121 471.423 C 970.275 470.103 971.418 468.772 972.55 467.432 C 1014.25 417.993 1017.75 380.527 1012.49 320.074 z" fill="rgb(246,239,220)" transform="translate(0,0)"></path>
<path d="M 261.435 312.918 L 262.274 313.061 L 263.008 314.52 C 256.688 362.337 268.132 393.713 287.932 436.451 C 280.027 441.508 225.291 483.23 222.615 483.986 L 220.633 481.612 C 198.456 443.371 180.037 390.363 189.54 346.035 C 211.946 332.145 236.951 322.296 261.435 312.918 z" fill="rgb(246,239,220)" transform="translate(0,0)"></path>
<path d="M 858.431 274.734 C 881.449 280.292 905.693 285.485 928.189 292.337 C 940.71 346.772 923.692 391.768 895.72 437.439 L 889.489 446.607 C 868.1 430.189 854.879 417.229 831.22 401.649 C 834.205 396.766 837.05 391.799 839.751 386.753 C 856.178 355.711 869.201 309.436 858.431 274.734 z" fill="rgb(246,239,220)" transform="translate(0,0)"></path>
<path d="M 569.852 257.431 C 579.675 256.797 591.094 257.016 601.047 256.974 C 591.488 282.521 601.065 326.675 606.637 353.812 C 604.012 360.736 600.337 368.235 597.189 375.034 C 582.54 374.438 567.869 374.665 553.245 375.715 L 534.906 376.934 C 521.026 345.16 509.513 294.643 517.34 260.777 C 534.502 259.082 552.57 258.369 569.852 257.431 z" fill="rgb(246,239,220)" transform="translate(0,0)"></path>
<path d="M 776.565 261.753 C 802.279 265.377 827.128 268.544 852.584 273.916 C 863.097 317.197 849.474 355.047 829.434 392.671 L 825.994 398.525 C 802.179 385.558 784.102 379.8 757.788 374.351 C 776.097 335.188 783.502 304.803 776.565 261.753 z" fill="rgb(246,239,220)" transform="translate(0,0)"></path>
<path d="M 337.44 290.178 L 339.912 290.322 C 340.926 292.603 339.747 300.785 339.837 304.581 C 340.152 314.814 341.064 325.02 342.57 335.147 C 346.27 359.304 353.336 379.075 362.833 401.203 C 336.55 410.264 317.52 419.759 293.688 433.43 C 271.826 394.046 264.524 354.93 269.399 310.426 C 288.42 302.421 317.408 294.858 337.44 290.178 z" fill="rgb(246,239,220)" transform="translate(0,0)"></path>
<path d="M 419.861 273.343 C 423.472 272.774 421.947 272.379 424.926 273.533 C 426.308 277.346 424.603 281.499 424.538 285.62 C 423.996 319.948 434.285 353.087 446.504 384.671 C 421.631 386.265 397.017 390.659 373.13 397.771 C 370.683 398.415 371.578 398.349 368.983 398.077 C 356.963 383.138 338.933 305.481 347.965 288.922 C 354.559 284.589 409.568 275.185 419.861 273.343 z" fill="rgb(246,239,220)" transform="translate(0,0)"></path>
<path d="M 503.714 261.421 C 507.558 261.036 507.157 260.478 510.112 261.892 C 511.709 266.242 508.934 273.013 508.613 277.965 C 506.349 312.816 517.721 344.591 527.775 377.218 C 506.108 379.813 479.016 381.591 456.986 383.229 C 455.77 383.455 454.834 383.312 453.559 383.267 C 449.688 378.693 447.006 369.561 445.012 363.824 C 434.711 334.186 428.254 303.08 431.515 271.615 C 455.418 267.147 479.508 263.746 503.714 261.421 z" fill="rgb(246,239,220)" transform="translate(0,0)"></path>
<path d="M 730.603 258.327 C 744.568 259.133 758.524 260.086 772.469 261.188 C 775.588 301.736 771.097 336.995 751.249 373.263 C 739.806 370.904 725.058 369.437 713.412 368.409 C 697.859 366.971 682.57 367.161 666.981 367.303 C 675.99 349.119 689.093 327.667 699.364 309.978 C 708.637 294.008 720.224 272.988 730.603 258.327 z" fill="rgb(246,239,220)" transform="translate(0,0)"></path>
<path d="M 604.725 256.996 C 619.169 256.538 633.366 256.782 647.813 256.954 L 622.075 319.405 C 618.441 327.987 614.622 336.489 610.621 344.906 C 605.32 317.14 600.486 284.871 604.725 256.996 z" fill="rgb(246,239,220)" transform="translate(0,0)"></path>
<path d="M 532.492 506.215 C 557.013 503.434 577.67 512.394 585.205 537.292 C 584.255 540.751 583.066 547.658 580.653 549.738 L 578.823 549.489 L 575.834 545.364 C 551.563 512.989 524.466 526.787 516.296 518.141 C 514.513 510.302 526.793 507.201 532.492 506.215 z" fill="rgb(246,239,220)" transform="translate(0,0)"></path>
<path d="M 1366.02 763.091 C 1389.19 712.968 1424.74 652.006 1483.88 640.589 C 1528.61 653.599 1468.2 693.521 1453.41 705.758 C 1434.05 721.741 1414.97 738.073 1396.2 754.748 C 1422.19 750.303 1445.19 748.493 1471.43 746.152 C 1487.35 708.15 1532.18 670.515 1570.09 654.466 C 1580.89 649.892 1596.94 644.426 1608.25 648.89 C 1619.68 653.405 1623.15 665.881 1612.44 673.733 C 1596.96 685.075 1579.66 693.043 1563.77 703.76 C 1543.46 716.87 1521.79 734.749 1500.88 746.164 C 1528.76 744.402 1551.63 745.913 1579.4 749.501 C 1592.16 721.538 1637.17 697.636 1664.69 687.448 C 1681.99 681.041 1708.17 672.456 1726.17 681.026 C 1730.25 682.965 1734.35 686.127 1735.95 690.505 C 1737.09 693.608 1736.97 696.806 1735.53 699.788 C 1728.87 713.579 1667.43 731.362 1651.16 737.905 C 1639.24 742.701 1627.33 748.85 1616.37 755.545 C 1638.52 758.771 1656.59 762.603 1677.79 770.616 C 1685.43 764.679 1693.76 758.303 1702.7 754.137 C 1729.17 741.796 1758.39 735.004 1787.58 733.063 C 1805.83 731.85 1829.45 735.147 1842.31 749.775 C 1848.31 757.166 1837.37 764.342 1831.85 766.73 C 1817.63 772.884 1801.2 772.885 1786 774.697 C 1765.46 777.145 1742.98 778.253 1723.02 783.846 C 1755.21 800.959 1779.32 810.1 1811.34 830.811 C 1831.25 826.46 1833.32 830.954 1850.78 840.529 C 1867.53 849.714 1923.04 895.819 1904.27 917.375 C 1904.08 921.472 1904.33 923.093 1902.6 926.675 C 1892.11 935.533 1849.42 921.119 1837.07 916.541 C 1829.88 913.876 1809.03 903.67 1802.75 903.176 L 1801.45 905.193 C 1799.98 912.326 1799.7 914.476 1794.45 919.329 C 1776.05 923.963 1728.24 905.54 1708.52 901.799 C 1682.62 896.885 1658.57 889.558 1634.35 879.232 C 1632.81 881.284 1631.24 883.31 1629.26 884.966 C 1622.96 890.237 1557.41 882.905 1548.59 879 C 1543.58 876.782 1542.18 870.902 1536.19 870.308 C 1536 875.033 1538.79 878.27 1536.41 881.944 C 1534.29 885.228 1528.79 888.003 1525.07 888.395 C 1506.01 890.4 1485.43 887.676 1466.25 888.287 C 1441.16 889.127 1416.52 893.453 1391.52 895.854 C 1370.1 897.911 1345.7 895.433 1324.78 898.735 C 1320.08 909.348 1317.66 913.25 1305.57 913.191 C 1265.51 913.317 1225.55 914.491 1185.55 917.864 C 1154.31 920.499 1126.85 943.439 1101.89 959.779 C 1091.02 966.903 1040.72 1008.31 1032.51 1009.01 C 1027.55 1003.23 1038.3 989.619 1041.78 984.375 C 1068.49 944.159 1105.1 914.557 1144 886.788 C 1151.01 881.787 1167.34 875.492 1171.97 870.617 C 1165.53 867.295 1156.97 861.641 1151.31 857.123 C 1151.25 856.593 1149.26 850.311 1148.99 849.419 C 1146.8 799.796 1189.74 704.812 1246.84 692.541 C 1255.07 691.527 1264 698.243 1263.72 706.821 C 1263.53 712.608 1260.03 719.348 1256.92 724.236 C 1246.08 741.262 1232.86 757.152 1220.51 773.111 C 1205.24 793.159 1190.08 813.292 1175.04 833.51 C 1204.38 818.269 1229.06 805.128 1260.64 795.084 C 1266.47 755.763 1310.18 693.506 1340.8 670.615 C 1349.5 664.105 1362.19 656.311 1373.45 658.221 C 1377.39 658.889 1380.6 661.017 1382.73 664.406 C 1385.37 668.611 1386.2 674.285 1385.09 679.107 C 1383.01 688.092 1309.45 766.321 1297 780.761 C 1317.05 773.863 1345.18 766.302 1366.02 763.091 z" fill="rgb(67,24,12)" transform="translate(0,0)"></path>
<path d="M 1383.03 764.75 C 1401.41 761.431 1426.41 754.865 1444.77 755.174 C 1447.89 758.558 1471.87 765.051 1476.7 765.744 C 1499.08 802.846 1543.31 841.305 1582.53 858.854 C 1640.2 884.661 1635.4 846.546 1596.81 816.199 C 1565.95 791.926 1546.08 779.536 1511.18 761.86 C 1522.88 759.348 1553.94 780.563 1564.4 787.913 C 1572.39 787.901 1582.62 787.65 1589.35 782.932 C 1608.51 818.038 1651.59 870.379 1690.85 881.542 C 1693.03 882.159 1695.25 882.671 1697.48 883.077 C 1706.69 879.844 1714.86 872.799 1709.46 862.58 C 1696.56 838.208 1667.44 810.94 1646.88 793.248 C 1653.93 792.632 1661.08 793.532 1668.14 794.139 L 1675.85 800.562 C 1681.33 796.88 1683.29 794.598 1689.96 794.842 C 1704.16 836.396 1744.82 917.113 1794.45 919.329 C 1776.05 923.963 1728.24 905.54 1708.52 901.799 C 1682.62 896.885 1658.57 889.558 1634.35 879.232 C 1632.81 881.284 1631.24 883.31 1629.26 884.966 C 1622.96 890.237 1557.41 882.905 1548.59 879 C 1543.58 876.782 1542.18 870.902 1536.19 870.308 C 1536 875.033 1538.79 878.27 1536.41 881.944 C 1534.29 885.228 1528.79 888.003 1525.07 888.395 C 1506.01 890.4 1485.43 887.676 1466.25 888.287 C 1441.16 889.127 1416.52 893.453 1391.52 895.854 C 1370.1 897.911 1345.7 895.433 1324.78 898.735 C 1320.08 909.348 1317.66 913.25 1305.57 913.191 C 1265.51 913.317 1225.55 914.491 1185.55 917.864 C 1154.31 920.499 1126.85 943.439 1101.89 959.779 C 1091.02 966.903 1040.72 1008.31 1032.51 1009.01 C 1027.55 1003.23 1038.3 989.619 1041.78 984.375 C 1068.49 944.159 1105.1 914.557 1144 886.788 C 1151.01 881.787 1167.34 875.492 1171.97 870.617 C 1183.08 877.014 1194.73 882.422 1206.78 886.782 C 1231.79 895.977 1282.29 909.52 1309.68 899.463 C 1325.13 893.789 1317.25 875.723 1303.37 869.979 C 1268.65 855.62 1228.06 847.056 1190.84 841.184 C 1195.2 838.704 1204.92 839.006 1208.91 837.623 C 1216.85 834.876 1272.43 825.749 1276.72 822.886 C 1290.82 834.927 1306.88 846.802 1323.8 854.269 C 1340.73 862.499 1389.6 882.679 1406.47 874.485 C 1441.39 857.517 1380.85 830.424 1367.23 823.559 C 1348.31 814.022 1329.31 806.014 1308.53 799.083 C 1320.65 797.167 1364.44 788.209 1372.99 780.701 C 1383.35 793.623 1388.28 801.606 1401.15 813.703 C 1428.34 839.253 1477.13 869.848 1515.51 868.9 C 1536.71 858.018 1518.73 840.254 1506.49 830.688 C 1471.27 803.152 1426.66 775.942 1383.03 764.75 z" fill="rgb(233,212,193)" transform="translate(0,0)"></path>
<path d="M 1754.95 828.388 C 1765.98 831.658 1791.28 839.954 1801.54 839.771 C 1804.53 847.389 1807.41 853.647 1812.19 860.347 C 1828.85 883.735 1873.61 920.722 1904.27 917.375 C 1904.08 921.472 1904.33 923.093 1902.6 926.675 C 1892.11 935.533 1849.42 921.119 1837.07 916.541 C 1829.88 913.876 1809.03 903.67 1802.75 903.176 L 1801.45 905.193 C 1799.79 886.344 1767.08 845.305 1754.95 828.388 z" fill="rgb(233,212,193)" transform="translate(0,0)"></path>
<path d="M 1493.05 753.364 C 1516.25 750.574 1555.94 751.843 1578.9 755.515 C 1582.08 765.82 1585.17 773.075 1589.35 782.932 C 1582.62 787.65 1572.39 787.901 1564.4 787.913 C 1553.94 780.563 1522.88 759.348 1511.18 761.86 L 1493.05 753.364 z" fill="rgb(255,255,255)" transform="translate(0,0)"></path>
<path d="M 1646.88 793.248 C 1637.47 785.878 1629.16 779.781 1619.11 773.263 C 1610.74 767.835 1599.74 761.607 1592.14 755.515 C 1614.02 763.213 1625.93 763.79 1648.63 767.521 C 1659.13 769.246 1674.05 774.743 1684.34 778.561 C 1686 783.55 1687.97 790.11 1689.96 794.842 C 1683.29 794.598 1681.33 796.88 1675.85 800.562 L 1668.14 794.139 C 1661.08 793.532 1653.93 792.632 1646.88 793.248 z" fill="rgb(255,255,255)" transform="translate(0,0)"></path>
<path d="M 1257.83 803.198 C 1264.28 810.369 1269.81 816.151 1276.72 822.886 C 1272.43 825.749 1216.85 834.876 1208.91 837.623 C 1204.92 839.006 1195.2 838.704 1190.84 841.184 C 1185.88 840.98 1181.07 840.399 1176.14 839.875 C 1187.62 835.045 1201.64 827.07 1213.2 821.418 C 1228.91 813.737 1241.46 808.944 1257.83 803.198 z" fill="rgb(255,255,255)" transform="translate(0,0)"></path>
<path d="M 1282.6 793.187 C 1300.84 783.813 1345.13 773.49 1365.66 769.944 L 1372.99 780.701 C 1364.44 788.209 1320.65 797.167 1308.53 799.083 C 1299.93 796.923 1291.29 794.958 1282.6 793.187 z" fill="rgb(255,255,255)" transform="translate(0,0)"></path>
<path d="M 1714.23 787.476 C 1728.09 791.935 1793.72 824.971 1804 833.549 L 1804.53 834.849 C 1803.55 836.501 1802.56 838.142 1801.54 839.771 C 1791.28 839.954 1765.98 831.658 1754.95 828.388 C 1740.03 811.817 1731.48 802.009 1714.23 787.476 z" fill="url(#Gradient4)" transform="translate(0,0)"></path>
<path d="M 1444.77 755.174 C 1452.99 754.338 1463.87 752.919 1471.92 752.782 C 1473.42 757.248 1474.71 761.465 1476.7 765.744 C 1471.87 765.051 1447.89 758.558 1444.77 755.174 z" fill="rgb(255,255,255)" transform="translate(0,0)"></path>
<path d="M 1372.64 766.655 C 1396.7 772.5 1526.14 830.741 1518.44 861.071 C 1498.88 867.052 1469.08 851.274 1452.19 842.27 C 1418.42 824.255 1391.67 799.937 1372.64 766.655 z" fill="rgb(233,212,193)" transform="translate(0,0)"></path>
<path d="M 1245.97 699.056 C 1257.96 699.61 1259.45 706.246 1254.08 715.874 C 1241.09 739.146 1222.6 759.513 1206.56 780.673 C 1192.08 799.778 1178.42 819.498 1163.46 838.115 L 1155.64 845.589 C 1157.55 816.963 1165.54 789.073 1179.08 763.78 C 1193.11 737.447 1216.33 708.141 1245.97 699.056 z" fill="rgb(233,212,193)" transform="translate(0,0)"></path>
<path d="M 1478.24 754.702 C 1512.43 763.355 1591.08 812.327 1613.54 842.332 C 1618.11 848.427 1619.42 852.663 1618.02 859.881 C 1610.28 862.31 1601.82 859.971 1594.59 856.759 C 1552.67 838.122 1496.33 796.673 1478.24 754.702 z" fill="rgb(233,212,193)" transform="translate(0,0)"></path>
<path d="M 1266.94 799.383 C 1300.51 795.233 1361.05 826.317 1391.02 844.204 C 1398.8 848.844 1415.14 857.243 1406.91 867.646 C 1406.25 867.822 1405.59 867.982 1404.92 868.126 C 1378.24 873.783 1321.64 847.833 1299.93 832.509 C 1293.06 827.659 1266.82 808.154 1265.36 800.677 L 1266.94 799.383 z" fill="rgb(233,212,193)" transform="translate(0,0)"></path>
<path d="M 1693.15 781.414 C 1719.47 792.868 1796.03 879.5 1794.11 910.104 C 1752.11 920.517 1701.21 814.161 1693.15 781.414 z" fill="rgb(233,212,193)" transform="translate(0,0)"></path>
<path d="M 1169.29 846.004 C 1188.34 844.749 1235.87 856.383 1255.67 861.103 C 1269.93 864.504 1303.94 872.705 1311.57 885.555 C 1312.21 892.405 1306.93 894.074 1301.24 895.957 C 1249.38 898.673 1200.76 882.005 1157.66 854.239 C 1161.06 851.437 1165.59 848.529 1169.29 846.004 z" fill="rgb(233,212,193)" transform="translate(0,0)"></path>
<path d="M 1363.35 665.245 C 1371.88 664.412 1381.32 664.065 1379.22 676.789 C 1378.59 679.905 1376.12 683.244 1374.05 685.585 C 1351.32 711.223 1327.04 735.36 1305.14 761.749 C 1298.62 769.606 1289.4 780.93 1281.32 786.863 C 1276.78 789.083 1275.14 789.927 1270.36 791.333 L 1269 790.532 C 1268.49 786.733 1271.18 778.934 1272.8 775.39 C 1290.58 736.49 1323.61 682.228 1363.35 665.245 z" fill="rgb(233,212,193)" transform="translate(0,0)"></path>
<path d="M 1586.76 760.757 C 1590.88 762.058 1599.72 768.208 1604.27 770.994 C 1640.39 793.098 1676.5 825.658 1701.42 860.058 C 1704.69 864.566 1704.84 868.158 1703.54 873.16 C 1696.13 877.515 1685 873.404 1678.39 869.272 C 1645.21 848.521 1597.31 798.326 1586.76 760.757 z" fill="rgb(233,212,193)" transform="translate(0,0)"></path>
<path d="M 1698.42 685.263 C 1707.64 684.021 1728.1 683.629 1729.91 695.449 C 1726.35 705.39 1698.94 712.01 1688.79 716.071 C 1664.25 725.887 1638.33 734.816 1615.72 748.769 L 1607.71 754.207 C 1599.21 752.539 1594.64 751.409 1586.44 748.732 C 1603.97 718.571 1665.29 691.47 1698.42 685.263 z" fill="rgb(233,212,193)" transform="translate(0,0)"></path>
<path d="M 1474.37 649.181 C 1480.97 648.238 1486.71 647.702 1491.78 652.517 C 1496.27 663.29 1482 674.455 1474.34 680.404 C 1444.68 703.448 1416.85 727.679 1389.19 753.049 C 1383.83 756.805 1381.86 757.183 1375.74 759.113 C 1375.98 758.465 1376.22 757.819 1376.47 757.176 C 1388.95 725.37 1415.76 686.519 1443.52 665.96 C 1453.04 658.901 1463.59 653.914 1474.37 649.181 z" fill="rgb(233,212,193)" transform="translate(0,0)"></path>
<path d="M 1594.45 654.229 C 1601.5 653.678 1610.72 654.86 1612.71 662.832 C 1612.32 663.994 1611.94 665.156 1611.55 666.318 C 1598.03 676.505 1573.49 689.318 1560.6 698.13 C 1537.07 714.21 1518.05 728.289 1494.25 743.045 C 1490.37 745.5 1485.26 747.914 1480.57 746.731 L 1479.84 745.143 C 1480.6 739.772 1482.1 736.237 1485.29 731.779 C 1508.8 698.996 1554.39 662.03 1594.45 654.229 z" fill="rgb(233,212,193)" transform="translate(0,0)"></path>
<path d="M 1782.53 740.412 C 1793.31 738.791 1837.99 740.292 1834.69 756.917 C 1826.93 766.455 1796.9 766.97 1784.2 768.192 C 1767.47 769.695 1750.79 771.733 1734.19 774.301 C 1725.64 776.154 1713.08 778.466 1705.14 781.272 L 1687.57 771.631 C 1713.67 752.002 1750.46 743.058 1782.53 740.412 z" fill="rgb(233,212,193)" transform="translate(0,0)"></path>
<path d="M 1821.43 836.174 C 1846.59 837.319 1889.67 877.3 1899.85 900.544 C 1901.19 903.612 1901.85 906.215 1900.61 909.373 C 1897.11 911.581 1897.8 910.838 1892.91 910.847 C 1862.65 901.171 1819.84 871.496 1809.32 840.806 C 1813.77 838.74 1816.76 837.718 1821.43 836.174 z" fill="rgb(233,212,193)" transform="translate(0,0)"></path>
<path d="M 379.723 1671.97 C 376.853 1659.56 375.082 1628.51 375.599 1615.53 C 376.682 1588.34 363.456 1476.7 387.036 1461.95 C 398.82 1459.73 407.704 1481.45 411.331 1490.26 C 438.461 1497.69 434.012 1529.04 443.626 1546.32 C 447.674 1537.2 451.149 1527.21 455.533 1518.35 C 459.775 1514.86 459.616 1508.92 464.101 1505.66 L 465.341 1506.87 L 465.334 1511.23 C 468.542 1505.07 468.166 1505.98 474.567 1507.11 C 501.477 1501.39 521.918 1491.32 545.431 1477.44 C 577.798 1500.21 615.15 1524.35 642.161 1553.62 C 627.659 1566.26 604.408 1588.19 602.845 1608.63 C 602.736 1610.03 602.675 1611.43 602.662 1612.83 C 602.494 1612.2 601.41 1608.89 601.281 1608.8 C 588.948 1599.89 571.365 1582.57 560.656 1574.25 C 554.117 1578.54 532.686 1589.33 531.039 1591.95 C 539.979 1593.47 544.568 1594.37 543.8 1604.82 C 564.145 1627.9 538.567 1650.45 521.476 1665.92 C 510.98 1675.43 499.969 1681.41 487.246 1687.22 C 484.994 1688.25 481.797 1689.94 480.335 1691.95 C 487.954 1698.23 486.065 1705.08 481.621 1712.67 C 495.168 1726.11 489.726 1744.85 476.355 1755.39 C 457.919 1769.91 436.611 1784.83 415.247 1794.28 C 421.176 1800.22 421.655 1801.97 418.542 1809.75 C 421.014 1815.81 425.615 1825.04 422.261 1831.03 C 406.079 1856.39 369.209 1879.91 341.934 1890.71 C 316.655 1900.72 278.766 1910.42 251.977 1904.11 C 241.256 1901.59 247.419 1881.9 249.065 1874.19 C 245.241 1870.99 244.312 1867.56 241.474 1863.45 C 235.644 1867.31 228.786 1875.88 223.717 1880.62 C 205.584 1897.58 128.076 1956.7 106.023 1953.85 L 105.708 1951.9 C 106.747 1950.15 108.929 1947.82 110.83 1947.01 C 154.673 1928.31 199.474 1895.96 233.117 1862.33 C 232.057 1807.63 226.953 1751.85 239.769 1697.81 C 244.122 1679.46 261.257 1664.05 274.739 1686.66 C 277.962 1692.07 279.28 1705.98 279.586 1712.54 C 281.774 1759.4 265.768 1803.06 251.6 1846.84 C 256.978 1840.17 264.202 1833.3 269.986 1826.75 C 284.755 1810.02 300.828 1792.17 312.845 1773.4 C 311.973 1754.23 309.835 1730.89 307.862 1711.59 C 304.156 1675.33 297.792 1637.21 304.741 1600.84 C 306.57 1593.27 309.526 1579.07 316.599 1574.96 C 324.797 1570.19 334.257 1580.73 337.028 1587.6 C 356.114 1634.92 349.59 1696.08 333.279 1743.14 C 341.672 1732.87 375.535 1683.17 379.723 1671.97 z" fill="rgb(67,24,12)" transform="translate(0,0)"></path>
<path d="M 545.431 1477.44 C 577.798 1500.21 615.15 1524.35 642.161 1553.62 C 627.659 1566.26 604.408 1588.19 602.845 1608.63 C 602.736 1610.03 602.675 1611.43 602.662 1612.83 C 602.494 1612.2 601.41 1608.89 601.281 1608.8 C 588.948 1599.89 571.365 1582.57 560.656 1574.25 C 554.117 1578.54 532.686 1589.33 531.039 1591.95 C 530.667 1592.08 530.295 1592.22 529.923 1592.35 C 501.654 1596.85 477.575 1617.01 452.262 1626.52 L 422.381 1643.83 C 420.366 1645.68 399.495 1657.71 395.971 1659.77 C 401.556 1651.09 431.429 1591.44 432.503 1590.72 C 442.76 1592.27 471.302 1587 481.345 1583.52 C 511.402 1573.02 550.707 1555.47 565.856 1525.28 C 579.378 1498.34 551.193 1503.68 536.319 1510.35 C 522.644 1516.48 510.562 1522.04 497.465 1528.73 C 488.878 1520.95 476.79 1521.65 474.567 1507.11 C 501.477 1501.39 521.918 1491.32 545.431 1477.44 z" fill="rgb(233,212,193)" transform="translate(0,0)"></path>
<path d="M 431.023 1612.3 C 440.082 1619.75 444.106 1620.58 452.262 1626.52 L 422.381 1643.83 C 422.916 1634.79 427.921 1620.9 431.023 1612.3 z" fill="rgb(255,255,255)" transform="translate(0,0)"></path>
<path d="M 316.877 1780 C 322.988 1782.33 325.101 1783.57 332.197 1783.31 C 383.121 1781.49 450.144 1753.67 481.621 1712.67 C 495.168 1726.11 489.726 1744.85 476.355 1755.39 C 457.919 1769.91 436.611 1784.83 415.247 1794.28 C 408.501 1794.16 400.71 1793.55 394.04 1794.54 C 350.275 1801.02 308.098 1822.1 268.032 1839.13 C 283.622 1821.68 303.371 1798.52 316.877 1780 z" fill="url(#Gradient3)" transform="translate(0,0)"></path>
<path d="M 249.065 1874.19 L 249.993 1874.34 L 251.542 1874.57 C 298.346 1881.86 389.33 1846.06 418.542 1809.75 C 421.014 1815.81 425.615 1825.04 422.261 1831.03 C 406.079 1856.39 369.209 1879.91 341.934 1890.71 C 316.655 1900.72 278.766 1910.42 251.977 1904.11 C 241.256 1901.59 247.419 1881.9 249.065 1874.19 z" fill="rgb(233,212,193)" transform="translate(0,0)"></path>
<path d="M 453.608 1676.26 C 460.553 1676.12 466.76 1671.48 470.837 1675.04 L 473.945 1687.89 L 471.475 1690.37 L 474.149 1688.77 L 475.037 1691.14 C 472.284 1690.97 472.566 1690.85 469.839 1689.99 C 468.058 1691.59 468.457 1690.68 468.143 1692.46 C 433.991 1699.35 395.315 1719.96 364.009 1735.8 C 363.585 1723.25 382.447 1696.94 389.956 1684.61 C 413.286 1687.41 431.408 1682.72 453.608 1676.26 z" fill="url(#Gradient2)" transform="translate(0,0)"></path>
<path d="M 543.8 1604.82 C 564.145 1627.9 538.567 1650.45 521.476 1665.92 C 510.98 1675.43 499.969 1681.41 487.246 1687.22 C 484.994 1688.25 481.797 1689.94 480.335 1691.95 C 476.316 1692.49 472.21 1692.41 468.143 1692.46 C 468.457 1690.68 468.058 1691.59 469.839 1689.99 C 472.566 1690.85 472.284 1690.97 475.037 1691.14 L 474.149 1688.77 L 471.475 1690.37 L 473.945 1687.89 L 470.837 1675.04 C 466.76 1671.48 460.553 1676.12 453.608 1676.26 C 490.032 1662.05 525.062 1640.49 543.8 1604.82 z" fill="rgb(233,212,193)" transform="translate(0,0)"></path>
<path d="M 411.331 1490.26 C 438.461 1497.69 434.012 1529.04 443.626 1546.32 C 438.172 1560.62 431.19 1575.84 424.988 1589.92 C 420.848 1599.31 412.565 1620.44 406.972 1628.29 C 414.975 1581.7 422.022 1537.07 411.331 1490.26 z" fill="rgb(233,212,193)" transform="translate(0,0)"></path>
<path d="M 465.334 1511.23 C 468.542 1505.07 468.166 1505.98 474.567 1507.11 C 476.79 1521.65 488.878 1520.95 497.465 1528.73 C 494.417 1530.54 476.335 1541.64 474.398 1542.46 L 453.021 1558.23 C 449.456 1561.06 444.566 1565.9 441.114 1569.11 C 445.785 1556.6 463.314 1520.32 465.334 1511.23 z" fill="url(#Gradient1)" transform="translate(0,0)"></path>
<path d="M 453.021 1558.23 C 452.841 1551.03 453.111 1547.71 460.408 1543.69 C 463.588 1541.93 470.93 1541.22 474.398 1542.46 L 453.021 1558.23 z" fill="rgb(233,212,193)" transform="translate(0,0)"></path>
<path d="M 382.362 1682.05 C 384.868 1683.06 387.382 1683.8 389.956 1684.61 C 382.447 1696.94 363.585 1723.25 364.009 1735.8 C 355.142 1740.73 347.097 1745.25 338.475 1750.66 C 342.751 1742.47 350.058 1732.45 355.28 1724.54 C 364.48 1710.49 373.508 1696.32 382.362 1682.05 z" fill="rgb(233,212,193)" transform="translate(0,0)"></path>
<path d="M 405.748 1800.46 C 409.803 1800.2 411.333 1799.65 413.219 1803.18 C 412.881 1807.21 409.774 1810.35 406.98 1813.08 C 374.903 1844.49 300.987 1869.41 256.887 1869.02 C 252.289 1867.83 251.425 1867.86 249.455 1863.8 C 249.713 1861.19 250.303 1859.68 251.98 1857.72 C 265.567 1841.85 346.237 1813.24 370.526 1806.61 C 382.043 1803.44 393.838 1801.38 405.748 1800.46 z" fill="rgb(233,212,193)" transform="translate(0,0)"></path>
<path d="M 467.185 1699.2 C 471.348 1698.77 472.113 1698.48 476.053 1699.5 C 480.615 1703.7 476.015 1709.23 472.559 1712.98 C 436.589 1752.02 385.49 1772.46 333.238 1776.81 C 328.494 1776.91 325.343 1777.9 322.635 1773.7 C 322.74 1772.23 322.915 1771.03 323.719 1769.75 C 335.351 1751.3 443.127 1704.09 467.185 1699.2 z" fill="rgb(233,212,193)" transform="translate(0,0)"></path>
<path d="M 388.254 1468.29 C 395.095 1469.89 400.622 1479.46 402.567 1485.5 C 416.19 1527.82 409.627 1613.18 391.598 1653.42 L 384.21 1665.25 C 382.888 1646.23 381.99 1618.63 381.87 1599.81 C 381.672 1568.6 373.937 1494.27 388.254 1468.29 z" fill="rgb(233,212,193)" transform="translate(0,0)"></path>
<path d="M 320.209 1580.49 L 323.405 1581.13 C 340.975 1594.04 341.559 1640.15 341.567 1659.36 C 341.582 1693.57 334.043 1722.73 322.727 1754.43 L 318.27 1764.93 C 317.019 1745.11 315.568 1725.31 313.918 1705.52 C 311.259 1675.46 300.643 1605.32 320.209 1580.49 z" fill="rgb(233,212,193)" transform="translate(0,0)"></path>
<path d="M 529.346 1599.12 C 533.546 1599.17 535.147 1598.73 536.463 1602.95 C 533.902 1615.53 511.279 1634.99 501.628 1642.91 C 476.185 1663.76 428.226 1682.56 394.817 1678.12 C 390.89 1676.92 388.509 1676.68 387.044 1672.7 C 387.177 1672.43 387.31 1672.16 387.443 1671.9 C 417.106 1653.8 500.712 1605.32 529.346 1599.12 z" fill="rgb(233,212,193)" transform="translate(0,0)"></path>
<path d="M 254.914 1682.9 C 261.58 1682.14 267.774 1685.24 269.356 1691.83 C 280.117 1736.69 262.186 1800.72 246.172 1842.48 C 244.236 1846.36 241.279 1850.88 238.968 1854.66 C 239.241 1817.3 231.513 1708.41 254.914 1682.9 z" fill="rgb(233,212,193)" transform="translate(0,0)"></path>
<path d="M 555.083 1511.1 C 557.86 1510.99 558.297 1511.1 561.058 1511.34 C 566.637 1516.59 555.413 1532.18 551.103 1536.59 C 525.967 1562.25 480.866 1581.19 445.513 1583.27 C 442.078 1583.32 439.937 1584.01 437.935 1581.27 C 438.114 1580.41 438.316 1579.08 438.896 1578.51 C 467.055 1550.81 519.111 1522.28 555.083 1511.1 z" fill="rgb(233,212,193)" transform="translate(0,0)"></path>
<path d="M 1567.22 1166.92 C 1596.3 1159.64 1624.43 1145.33 1654.41 1143.06 C 1658.35 1142.76 1668.54 1146.87 1669.27 1151.67 C 1670.23 1157.95 1665.81 1163.94 1662.17 1168.75 C 1646.4 1187.84 1625.94 1203.29 1604.92 1216.14 C 1598.81 1219.87 1582.22 1225.88 1579.09 1229.26 C 1579.29 1212.26 1571.85 1183.6 1567.22 1166.92 z" fill="rgb(233,212,193)" transform="translate(0,0)"></path>
<path d="M 1151.31 857.123 C 1140.65 863.361 1128.54 872.897 1118.66 880.381 C 1077.64 911.44 1041.72 949.111 1021.21 996.919 C 1020.54 998.481 1018.8 998.194 1017.44 998.286 C 1013.28 993.087 1025.22 973.487 1028.21 968.221 C 1057.33 916.999 1103.49 884.26 1148.99 849.419 C 1149.26 850.311 1151.25 856.593 1151.31 857.123 z" fill="rgb(67,24,12)" transform="translate(0,0)"></path>
<metadata><recraft-signature>{"signed_by": "recraft", "signature_b64": "z6VNwoVHLKFDZu/Qb9WkJCFrB2PnyLH4l3CJa6wEB/fiCkQYM6X5NYrT2r1hMnFR1iRzy7zRdX/40ERzLz1bAQ==", "signing_algo": "Ed25519", "generation_timestamp": 1778091869, "identifier": "3368c4de-1397-461c-a522-10825bf3759c"}</recraft-signature></metadata></svg>