<svg xmlns="http://www.w3.org/2000/svg" height="1024" preserveAspectRatio="none" style="display: block;" version="1.1" viewBox="0 0 2048 2048" width="1024">
<defs>
	<linearGradient gradientUnits="userSpaceOnUse" id="Gradient1" x1="684.839" x2="666.902" y1="696.908" y2="689.947">
		<stop class="stop0" offset="0" stop-color="rgb(0,0,0)" stop-opacity="1"></stop>
		<stop class="stop1" offset="1" stop-color="rgb(41,22,15)" stop-opacity="1"></stop>
	</linearGradient>
</defs>
<path d="M 0 0 L 2048 0 L 2048 2048 L 0 2048 L 0 0 z" fill="rgb(254,254,250)" transform="translate(0,0)"></path>
<path d="M 306.808 1008.21 C 200.024 891.174 136.948 730.883 105.601 577.439 C 97.6292 538.42 89.1409 522.749 91.2427 480.125 C 95.2137 399.591 136.86 333.499 194.604 280.095 C 227.848 249.349 264.183 227.132 303.774 205.685 C 457.225 122.559 657.01 95.321 830.569 103.559 C 1015.76 112.349 1247.09 168.316 1376.54 310.79 C 1424.6 363.687 1456.08 428.733 1452.58 501.677 C 1451.16 531.158 1445.59 546.721 1439.58 574.054 C 1433.18 603.124 1427.23 628.642 1418.44 657.423 C 1409.79 685.778 1399.74 712.712 1390.16 740.649 C 1415.51 753.202 1438.69 762.955 1464.38 774.423 C 1504.3 792.667 1544.41 810.477 1584.71 827.852 L 1842.78 943.264 C 1893.26 965.89 1945.57 991.009 1996.83 1012.35 C 1999.45 1013.44 2001.03 1015.19 2001.98 1017.82 C 2000.09 1020.87 2001.37 1019.9 1998.18 1021.01 C 1990.39 1018.73 1981.87 1014.45 1974.32 1011.25 C 1939.28 996.393 1905.38 979.281 1870.47 964.165 L 1520.54 808.861 L 1423.48 765.645 C 1412.49 760.767 1397.4 752.826 1386.92 748.867 C 1375.97 774.876 1365.05 802.381 1352.99 827.735 C 1327.92 880.407 1296.4 933.424 1261.63 980.287 C 1235.68 1015.26 1195.84 1053.19 1161.59 1080.26 C 1147.53 1091.2 1132.96 1101.48 1117.93 1111.05 C 1109.36 1116.52 1097.41 1123.35 1089.61 1128.97 C 1072.03 1164.74 1041.86 1185.1 1007.46 1203.37 C 1007.57 1206.15 1007.53 1207.08 1007.26 1209.85 C 1005.95 1211.29 1005.27 1212.07 1003.65 1213.2 C 959.146 1244.42 920.68 1259.36 869.478 1275.11 C 740.183 1315.11 603.584 1325.7 469.667 1306.13 C 379.914 1292.69 127.121 1224.14 216.167 1084.24 C 237.413 1050.86 275.557 1030.93 306.808 1008.21 z" fill="rgb(58,38,35)" transform="translate(0,0)"></path>
<path d="M 306.808 1008.21 C 332.995 1037.01 359.183 1063.04 390.025 1086.95 C 403.41 1097.39 417.301 1107.18 431.648 1116.26 C 435.069 1118.45 457.68 1132.33 458.341 1133.37 C 494.8 1190.57 543.267 1212.4 609.708 1231.34 C 704.596 1258.4 819.721 1258.2 916.582 1235.53 C 930.994 1232.25 945.762 1227.79 959.697 1222.97 C 975.542 1217.48 992.661 1211.19 1007.46 1203.37 C 1007.57 1206.15 1007.53 1207.08 1007.26 1209.85 C 1005.95 1211.29 1005.27 1212.07 1003.65 1213.2 C 959.146 1244.42 920.68 1259.36 869.478 1275.11 C 740.183 1315.11 603.584 1325.7 469.667 1306.13 C 379.914 1292.69 127.121 1224.14 216.167 1084.24 C 237.413 1050.86 275.557 1030.93 306.808 1008.21 z" fill="rgb(249,241,220)" transform="translate(0,0)"></path>
<path d="M 721.963 111.425 C 722.448 111.393 722.933 111.36 723.418 111.327 C 933.882 105.733 1173.83 144.714 1338.39 285.114 C 1456.09 385.537 1485.45 539.213 1375.08 658.014 C 1237.64 805.965 1018.09 858.081 823.752 868.301 C 822.856 868.382 821.96 868.452 821.062 868.514 C 622.076 880.759 363.326 830.751 208.087 698.608 C 153.483 652.128 102.118 575.206 100.48 502.134 C 95.4146 276.075 365.237 165.719 549.998 130.432 C 607.294 119.577 665.444 114.673 721.963 111.425 z" fill="rgb(254,254,250)" transform="translate(0,0)"></path>
<path d="M 710.565 145.428 C 712.207 145.314 713.851 145.231 715.496 145.181 C 768.473 143.441 846.468 144.507 898.15 150.861 C 1043.81 168.77 1204.48 213.547 1314.05 316.128 C 1357.45 356.814 1400.26 421.337 1399.81 482.704 C 1397.93 733.67 1028.62 823.754 835.491 829.215 C 834.782 829.286 834.073 829.345 833.362 829.393 C 641.384 842.617 383.794 800.28 233.468 670.721 C 130.054 581.593 111.658 441.31 206.866 337.414 C 329.401 203.698 536.671 155.106 710.565 145.428 z" fill="rgb(58,38,35)" transform="translate(0,0)"></path>
<path d="M 788.991 430.074 C 849.114 399.655 942.737 434.05 990.942 473.9 C 998.334 480.011 1004.94 486.112 1013.26 491.06 C 1003.43 472.747 980.316 458.031 963.234 447.11 C 978.747 446.699 994.264 447.746 1009.58 450.236 C 1063.84 459.203 1106.68 485.793 1130.22 536.393 C 1133.79 544.078 1137.51 552.243 1142.49 559.118 L 1143.3 560.22 C 1140.63 550.609 1137.15 540.268 1134.14 530.688 C 1158.38 545.305 1181.74 574.177 1189.94 601.753 C 1191.5 607.004 1194.28 626.321 1197.95 628.824 L 1199.21 627.425 C 1200.34 612.787 1189.46 583.249 1183.4 569.158 C 1234.11 602.72 1248.16 634.627 1277.3 685.712 C 1260.87 700.628 1141.51 767.798 1127.14 761.693 L 1125.34 763.711 C 1111.71 772.183 1059.3 785.963 1042.24 790.28 C 870.266 832.387 690.836 833.721 518.26 794.174 C 508.626 791.93 438.659 775.07 435.574 770.016 C 432.88 769.309 434.064 770.015 432.361 767.19 C 431.893 768.589 432.277 767.739 430.813 769.524 C 424.088 768.114 406.601 760.981 399.658 758.174 C 359.188 741.818 326.215 726.644 289.906 702.287 C 315.445 625.998 374.081 551.23 438.651 503.61 C 449.436 495.656 466.849 489.434 479.691 485.88 C 471.829 493.682 442.86 523.928 445.165 535.449 C 445.484 535.292 462.483 512.187 464.864 509.425 C 473.046 500.075 482.059 491.486 491.794 483.764 C 518.905 462.337 563.51 440.739 598.591 438.441 C 611.292 437.609 623.571 439.136 636.187 440.593 C 629.653 445.457 601.146 466.011 603.421 474.48 C 606.621 473.145 616.198 463.523 620.06 460.352 C 626.119 455.387 632.498 450.827 639.157 446.702 C 703.686 407.305 767.208 433.511 835.817 446.536 C 847.914 448.833 860.528 453.727 872.731 456.721 C 852.345 441.196 814.541 434.687 788.991 430.074 z" fill="rgb(249,241,220)" transform="translate(0,0)"></path>
<path d="M 917.551 592.042 C 996.699 601.373 1070.88 665.266 1112.01 730.949 C 1117.21 739.254 1124.3 752.315 1127.14 761.693 L 1125.34 763.711 C 1125.27 763.558 1125.2 763.405 1125.14 763.252 C 1101.25 717.727 1060.82 673.484 1020.53 641.956 C 1005.41 630.119 984.731 618.759 967.655 610.189 C 952.484 602.574 933.507 598.249 917.551 592.042 z" fill="rgb(58,38,35)" transform="translate(0,0)"></path>
<path d="M 550.532 547.766 C 543.736 556.296 535.177 563.057 528.336 571.729 C 482.406 629.705 450.643 697.602 435.574 770.016 C 432.88 769.309 434.064 770.015 432.361 767.19 C 442.849 705.924 467.281 649.345 502.717 598.46 C 515.754 579.738 530.32 559.197 550.532 547.766 z" fill="rgb(6,2,1)" transform="translate(0,0)"></path>
<path d="M 724.947 593.622 L 726.212 594.373 C 724.508 598.786 715.725 609.893 712.476 614.853 C 705.961 625.012 699.801 635.396 694.008 645.985 C 671.454 687.106 653.239 731.756 644.678 778.165 C 643.347 785.377 642.837 792.131 641.23 799.376 L 639.594 798.627 C 638.475 741.553 683.158 633.27 724.947 593.622 z" fill="url(#Gradient1)" transform="translate(0,0)"></path>
<path d="M 424.05 579.429 C 431.465 579.895 437.739 581.49 444.839 583.452 C 423.079 586.095 418.658 582.996 395.753 591.599 C 391.646 593.422 387.844 595.57 383.417 595.436 L 383.712 594.004 C 395.223 584.832 409.66 580.855 424.05 579.429 z" fill="rgb(6,2,1)" transform="translate(0,0)"></path>
<path d="M 905.23 511.969 C 911.68 511.959 941.973 524.372 945.715 529.952 C 936.753 530.291 908.69 520.622 905.23 511.969 z" fill="rgb(6,2,1)" transform="translate(0,0)"></path>
<path d="M 1090.18 572.904 C 1099.15 573.173 1116.94 589.217 1118.52 597.841 C 1112.09 596.147 1091.09 578.648 1090.18 572.904 z" fill="rgb(6,2,1)" transform="translate(0,0)"></path>
<path d="M 841.379 703.232 C 849.907 703.859 863.574 706.913 871.525 710.2 C 874.877 711.586 874.784 712.694 875.777 715.476 C 870.355 715.222 845.047 709.893 841.235 705.972 L 841.379 703.232 z" fill="rgb(6,2,1)" transform="translate(0,0)"></path>
<path d="M 448.29 610.394 C 454.088 610.031 468.206 608.974 472.455 613.125 L 471.812 614.774 L 467.971 615.715 C 462.508 615.904 444.109 617.263 440.767 613.359 C 444.054 610.336 443.114 611.279 448.29 610.394 z" fill="rgb(6,2,1)" transform="translate(0,0)"></path>
<path d="M 1096.87 662.789 C 1104.93 663.475 1121.31 672.765 1126.56 679.049 L 1126.27 681.759 C 1119.82 680.253 1106.53 672.212 1100.57 668.493 C 1097.16 666.365 1097.45 665.86 1096.87 662.789 z" fill="rgb(6,2,1)" transform="translate(0,0)"></path>
<path d="M 734.283 770.214 C 742.233 769.31 764.182 773.151 767.598 781.144 C 761.127 781.309 736.965 776.858 734.283 770.214 z" fill="rgb(6,2,1)" transform="translate(0,0)"></path>
<path d="M 334.922 677.004 C 342.965 676.663 362.903 682.574 366.887 689.98 C 358.76 690.852 339.007 684.494 334.922 677.004 z" fill="rgb(6,2,1)" transform="translate(0,0)"></path>
<path d="M 733.711 529.931 C 742.161 530.497 761.323 534.779 766.222 542.155 C 757.429 542.579 744.995 538.348 736.915 534.588 C 733.975 533.22 734.583 532.915 733.711 529.931 z" fill="rgb(6,2,1)" transform="translate(0,0)"></path>
<path d="M 1188.43 651.358 C 1195.88 653.36 1209.88 673.001 1210.23 680.947 C 1204.18 676.016 1187.97 658.897 1188.43 651.358 z" fill="rgb(6,2,1)" transform="translate(0,0)"></path>
<path d="M 634.647 583.278 C 643.275 582.102 659.955 585.098 663.513 593.89 C 654.169 594.537 647.219 589.61 638.294 586.837 C 635.087 585.841 635.837 586.042 634.647 583.278 z" fill="rgb(6,2,1)" transform="translate(0,0)"></path>
<path d="M 550.705 651.779 C 557.516 651.509 574.271 654.357 577.539 660.863 C 571.532 661.623 556.462 659.663 551.697 655.749 C 550.526 654.787 550.89 653.783 550.705 651.779 z" fill="rgb(6,2,1)" transform="translate(0,0)"></path>
<path d="M 959.866 737.195 C 967.339 736.503 986.138 738.115 987.969 747.066 C 983.677 746.969 964.303 742.286 960.444 739.89 L 959.866 737.195 z" fill="rgb(6,2,1)" transform="translate(0,0)"></path>
<path d="M 689.862 666.746 C 697.07 667.01 710.827 671.454 713.149 679.022 C 708.476 678.428 697.274 675.766 693.383 673.02 C 689.831 670.513 690.444 670.357 689.862 666.746 z" fill="rgb(6,2,1)" transform="translate(0,0)"></path>
<path d="M 543.911 742.219 C 549.646 742.181 560.625 743.397 565.244 746.8 C 567.155 748.208 566.443 747.975 567.017 751.029 C 561.684 750.732 549.975 749.189 545.485 746.132 C 543.817 744.997 544.371 744.827 543.911 742.219 z" fill="rgb(6,2,1)" transform="translate(0,0)"></path>
<path d="M 486.612 686.877 C 493.132 686.919 499.903 685.737 500.712 693.633 C 496.398 693.565 493.299 693.741 489.07 692.637 C 486.432 690.349 487.261 691.263 486.612 686.877 z" fill="rgb(6,2,1)" transform="translate(0,0)"></path>
<path d="M 1043.25 489.812 C 1045.24 490.364 1047.17 491.142 1048.99 492.132 C 1053.61 494.651 1057.93 498.03 1059.46 503.179 C 1053.01 500.182 1044.19 497.427 1043.25 489.812 z" fill="rgb(6,2,1)" transform="translate(0,0)"></path>
<path d="M 746.097 152.5 C 766.843 151.683 789.142 152.505 809.971 153.266 C 901.5 156.041 992.274 170.772 1079.98 197.084 C 1186.91 229.707 1313.74 296.482 1367.46 398.965 C 1394.98 451.458 1397.23 496.862 1379.83 552.51 C 1371.83 516.638 1355.28 486.064 1330.25 459.212 C 1201 320.547 986.856 274.613 805.705 265.163 C 658.49 262.768 504.57 285.805 370.022 348.744 C 285.459 388.3 193.344 454.71 161.428 546.358 C 140.467 461.368 164.01 392.221 224.463 331.054 C 351.715 202.299 572.406 155.391 746.097 152.5 z" fill="rgb(224,217,196)" transform="translate(0,0)"></path>
<path d="M 755.658 269.443 C 755.786 269.437 755.913 269.431 756.041 269.425 C 938.481 268.358 1166.51 313.548 1304.84 440.808 C 1336.03 469.498 1372.14 516.036 1374.64 559.827 C 1375.56 575.999 1354.2 609.606 1342.85 621.422 C 1332.35 595.552 1315.13 570.124 1295.37 550.529 C 1167.37 423.565 957.051 374.843 783.981 371.829 C 595.369 369.756 353.568 421.512 228.255 577.086 C 218.404 589.315 206.306 608.172 200.852 622.95 C 184.914 601.681 171.632 578.301 164.18 552.649 C 175.633 515.763 192.871 490.361 218.792 461.924 C 309.325 362.604 454.309 312.582 582.675 287.246 C 636.51 276.621 700.937 271.697 755.658 269.443 z" fill="rgb(224,217,196)" transform="translate(0,0)"></path>
<path d="M 757.05 376.442 C 867.729 373.162 1002.59 396.785 1105.32 437.803 C 1179.79 467.535 1266.53 515.747 1314.79 581.802 C 1325.39 596.317 1332.53 610.455 1339.6 626.707 C 1320.26 648.207 1306.77 664.293 1282.34 681.864 C 1258.82 647.51 1245.71 611.024 1211.68 583.375 C 1198.89 572.981 1187.62 565.98 1173.95 557.012 C 1166.26 551.963 1157.6 539.59 1149.56 534.095 C 1145.06 529.921 1134.01 525.5 1130.38 520.971 C 1115.68 502.62 1105.8 485.353 1085.41 471.871 C 1051.7 449.589 996.052 435.655 956.277 442.75 C 917.48 421.147 857.605 405.824 813.879 415.288 C 804.864 417.239 781.587 427.864 776.724 427.493 C 716.775 417.952 701.62 411.674 644.656 436.333 C 598.448 426.46 560.746 435.597 519.984 458.476 C 510.009 464.075 500.151 472.113 489.799 476.676 C 480.285 480.87 469.238 482.137 459.43 486.168 C 401.625 509.925 334.141 594.012 305.269 649.371 C 296.73 665.745 291.959 682.747 284.965 699.603 C 251.708 675.062 229.803 658.503 203.417 626.095 C 212.2 604.154 234.717 573.523 251.517 556.239 C 378.276 425.824 583.064 381.503 757.05 376.442 z" fill="rgb(224,217,196)" transform="translate(0,0)"></path>
<path d="M 1422.63 607.762 C 1423.46 618.391 1388.22 720.804 1382.5 736.189 C 1377.06 750.801 1362.8 784.232 1355.93 800.569 C 1350.62 813.176 1329.07 827.406 1317.41 836.225 C 1250.81 886.587 1175.6 923.24 1096.78 950.635 C 983.242 989.09 863.868 1007.43 744.026 1004.84 C 563.557 1000.11 359.695 941.526 216.184 828.322 C 207.86 821.756 189.306 807.617 184.548 798.658 C 169.966 771.201 159.996 739.469 149.815 710.02 C 142.558 686.143 134.859 662.252 129.036 637.988 C 126.349 626.792 123.627 615.912 120.136 604.933 C 155.872 664.604 200.882 711.738 260.361 749.175 C 472.02 882.395 775.844 903.215 1015.09 852.7 C 1148.27 824.58 1298.83 762.531 1388.2 656.735 C 1401.74 640.696 1411.43 625.263 1422.63 607.762 z" fill="rgb(224,217,196)" transform="translate(0,0)"></path>
<path d="M 191.94 815.013 C 218.503 836.463 250.347 861.404 279.921 878.686 C 571.649 1049.16 954.412 1052 1249.43 887.716 C 1283.34 868.83 1315.5 844.211 1346.25 821.101 C 1335.82 841.32 1326.04 861.14 1315.36 881.422 C 1310.19 890.688 1278.72 943.924 1273.14 948.435 C 1225.9 986.613 1141.79 1023.92 1086.44 1044.02 C 853.583 1127.59 597.063 1115.27 373.283 1009.77 C 356.843 1002.06 282.271 963.123 273.663 953.451 C 250.676 927.622 203.459 846.86 191.94 815.013 z" fill="rgb(224,217,196)" transform="translate(0,0)"></path>
<path d="M 279.217 962.83 C 281.016 963.744 280.471 963.38 281.987 964.455 C 295.576 974.088 310.446 982.021 325.053 990.025 C 392.213 1026.19 463.468 1054.17 537.29 1073.37 C 716.626 1119.4 905.545 1111.6 1080.47 1050.94 C 1146.46 1027.71 1202.39 1000.24 1262.58 964.942 C 1245.44 986.549 1234.36 1000.58 1215.08 1020.22 C 1199.94 1035.57 1184.08 1050.2 1167.56 1064.06 C 942.913 1251.2 575.287 1250.59 358.084 1049.26 C 329.396 1022.67 304.189 992.877 279.217 962.83 z" fill="rgb(224,217,196)" transform="translate(0,0)"></path>
<path d="M 1076.19 1135.1 L 1076.47 1136.18 C 1073.84 1141.52 1063.64 1152.47 1059.21 1156.69 C 987.033 1225.55 861.52 1243.63 766.39 1243.92 C 679.768 1244.19 549.228 1221.81 486.735 1158.18 C 481.397 1151.86 476.136 1145.47 470.953 1139.02 C 480.208 1143.95 489.391 1148.73 499.032 1152.99 C 655.705 1222.12 836.878 1230.36 997.554 1169.45 C 1024.8 1159.12 1051.1 1149.44 1076.19 1135.1 z" fill="rgb(224,217,196)" transform="translate(0,0)"></path>
<path d="M 1448.02 1211.4 C 1477.46 1200.36 1506.99 1187.26 1536.07 1175.07 C 1564.71 1163.2 1593.45 1151.57 1622.28 1140.17 C 1637.62 1134.01 1693.59 1108.8 1708.39 1111.98 C 1742.26 1119.26 1775.49 1159.05 1795.08 1186.18 C 1821.22 1168.76 1845.36 1153.62 1875.81 1142.44 C 1904.55 1131.88 1956.93 1112.09 1987.15 1124.38 C 1994.33 1127.3 2002.25 1135.66 2004.41 1143.21 C 2007.73 1154.85 2004.6 1162.57 1999.4 1172.49 C 2003.05 1174.96 2004.06 1175.26 2006.13 1178.95 L 2005.95 1181.01 C 2005.03 1181.65 2004.3 1182.31 2003.31 1182.64 C 1997.15 1189.77 1993.08 1199.73 1987.16 1206.09 C 1949.98 1246.04 1893.37 1286.55 1842.82 1306.96 L 1842.48 1308.8 C 1844.66 1332 1848.91 1368.69 1833.76 1389.17 C 1828.99 1395.61 1814.14 1400.63 1806.27 1404.93 C 1871.67 1435.68 1934.9 1477.83 1997.47 1514.14 C 2005.8 1518.97 2002.65 1530.14 2002.43 1538.14 C 2001.1 1550.27 2002.68 1561.14 1989.12 1566.17 C 1936.19 1585.77 1883.15 1605.97 1830.26 1625.65 L 1552.98 1730.78 L 1202.62 1862.63 C 1147.96 1883.72 1093 1904 1037.74 1923.46 C 1013.82 1932.03 982.573 1944.37 958.813 1951.25 C 957.095 1952.77 955.262 1954.36 952.86 1954.77 C 911.483 1961.89 857.349 1935.95 820.398 1918.38 C 808.367 1912.15 794.363 1907.15 782.817 1900.25 C 753.101 1882.49 722.874 1865.71 692.829 1848.55 C 676.525 1839.24 661.291 1827.83 644.873 1818.6 C 601.647 1823.79 541.84 1838.2 531.886 1777.32 C 531.26 1773.56 531.338 1754.53 528.946 1752.96 C 451.475 1702.15 368.83 1656.66 296.533 1598.37 C 284.832 1588.94 286.082 1571.15 285.879 1557.21 C 295.019 1551.11 314.327 1539.48 325.543 1540.01 C 337.971 1533.91 356.195 1528.34 369.523 1524 L 439.569 1501.46 L 692.532 1419.43 L 1072.83 1291.85 L 1327.21 1203.16 C 1393.85 1180.54 1383.99 1179.85 1448.02 1211.4 z" fill="rgb(58,38,35)" transform="translate(0,0)"></path>
<path d="M 285.879 1557.21 C 295.019 1551.11 314.327 1539.48 325.543 1540.01 C 319.04 1547.42 317.786 1577.94 321.923 1586.29 C 327.63 1591.09 341.096 1598.47 347.913 1602.51 C 363.437 1611.91 379.105 1621.07 394.912 1629.99 L 501.134 1691.28 C 525.274 1705.09 552.331 1719.67 575.716 1734.49 C 565.894 1743.05 557.757 1750.9 556.97 1764.77 C 555.608 1788.77 575.026 1806.89 598.468 1806.33 C 621.898 1805.77 647.58 1798.41 669.488 1790.35 C 747.642 1829.44 823.832 1877.76 901.378 1918.53 C 920.926 1928.8 939.902 1939.87 958.813 1951.25 C 957.095 1952.77 955.262 1954.36 952.86 1954.77 C 911.483 1961.89 857.349 1935.95 820.398 1918.38 C 808.367 1912.15 794.363 1907.15 782.817 1900.25 C 753.101 1882.49 722.874 1865.71 692.829 1848.55 C 676.525 1839.24 661.291 1827.83 644.873 1818.6 C 601.647 1823.79 541.84 1838.2 531.886 1777.32 C 531.26 1773.56 531.338 1754.53 528.946 1752.96 C 451.475 1702.15 368.83 1656.66 296.533 1598.37 C 284.832 1588.94 286.082 1571.15 285.879 1557.21 z" fill="rgb(249,241,220)" transform="translate(0,0)"></path>
<path d="M 1991.77 1183 L 2003.31 1182.64 C 1997.15 1189.77 1993.08 1199.73 1987.16 1206.09 C 1949.98 1246.04 1893.37 1286.55 1842.82 1306.96 L 1842.48 1308.8 C 1839.65 1293.6 1836.27 1278.51 1832.35 1263.56 C 1843.6 1260.52 1855.23 1258.28 1866.37 1254.49 C 1914.64 1238.04 1955.02 1218.98 1991.77 1183 z" fill="rgb(249,241,220)" transform="translate(0,0)"></path>
<path d="M 1999.4 1172.49 C 2003.05 1174.96 2004.06 1175.26 2006.13 1178.95 L 2005.95 1181.01 C 2005.03 1181.65 2004.3 1182.31 2003.31 1182.64 L 1991.77 1183 C 1994.23 1180.08 1997.13 1175.7 1999.4 1172.49 z" fill="rgb(224,217,196)" transform="translate(0,0)"></path>
<path d="M 1703.3 1119.22 C 1708.87 1119.38 1716.58 1122.75 1721.54 1125.51 C 1768.14 1151.52 1809.48 1218.76 1824.15 1268.33 C 1833.93 1301.35 1843 1355.83 1825.8 1387.05 C 1813.62 1392.93 1796.89 1399.36 1784.02 1404.93 L 1674.97 1451.82 C 1552.78 1505.44 1430.17 1558.1 1307.16 1609.79 L 1065.8 1713.63 C 1017.87 1734.08 967.888 1756.87 918.656 1773.15 L 922.039 1766.65 C 968.479 1670.03 876.954 1527.16 789.438 1481.65 C 814.924 1469.83 845.362 1461.19 871.648 1450.61 C 914.79 1433.24 958.143 1416.38 1001.37 1399.24 L 1450.98 1219.83 C 1515.3 1194.43 1578.61 1165.17 1643.49 1141.14 C 1659.88 1135.07 1687.36 1122.02 1703.3 1119.22 z" fill="rgb(254,254,250)" transform="translate(0,0)"></path>
<path d="M 1608.55 1490.8 C 1615.65 1490.83 1636.28 1537.63 1641.76 1546.63 C 1656 1570.59 1674.95 1592.68 1696.1 1610.8 C 1703.29 1616.96 1712.97 1620.57 1719.8 1627.37 C 1703.14 1632.15 1681.39 1640.97 1664.9 1647.21 L 1568.04 1684.23 C 1555.77 1688.92 1530.44 1699.71 1519.29 1702.31 C 1499.74 1692.67 1469.74 1688.83 1447.9 1683.69 C 1401.05 1672.67 1355.04 1661.89 1311.49 1640.81 C 1304.44 1637.4 1295.03 1633.46 1289.49 1628.12 L 1289.61 1626.61 C 1301.11 1621.24 1314.54 1615.92 1326.32 1611.04 C 1357.74 1598.23 1388.65 1584.38 1420.01 1571.61 C 1460.54 1589.28 1503.65 1602.83 1546.33 1614.18 C 1567.29 1619.76 1596.09 1627.13 1617.71 1629.09 C 1601.79 1622.96 1585.46 1619.83 1569.38 1614.82 C 1525.55 1601.15 1469.53 1589.32 1429.02 1567.98 C 1443.78 1559.73 1474.49 1548.11 1491.15 1541.08 C 1530.4 1524.59 1569.53 1507.83 1608.55 1490.8 z" fill="rgb(249,241,220)" transform="translate(0,0)"></path>
<path d="M 538.187 1477.12 C 574.997 1484.31 598 1484.5 636.04 1495.73 C 678.477 1508.26 704.157 1524.46 743.089 1540.48 C 742.27 1576.48 751.922 1610.5 763.919 1643.9 C 751.112 1649.15 736.002 1654.2 722.897 1658.8 C 722.565 1658.66 722.233 1658.52 721.901 1658.38 L 720.259 1657.65 C 709.674 1652.99 694.557 1641.84 684.082 1635.36 C 670.476 1626.95 658.693 1620.5 644.48 1613.03 C 578.904 1578.45 508.219 1554.58 435.103 1542.33 C 413.167 1538.45 389.323 1537.14 368.902 1533.22 C 377.428 1529.3 390.797 1525.21 399.983 1522.16 C 418.968 1515.87 438 1509.72 457.077 1503.71 C 483.484 1495.27 511.697 1484.38 538.187 1477.12 z" fill="rgb(249,241,220)" transform="translate(0,0)"></path>
<path d="M 1714.43 1445.1 C 1722.3 1452.87 1733.99 1464.97 1742.52 1471.43 C 1781.32 1500.84 1827.55 1518.81 1873.7 1532.97 C 1886.43 1536.87 1913.99 1541.57 1923.24 1547.19 L 1923.26 1548.66 C 1915.69 1553.27 1891.61 1561.82 1882.39 1565.33 L 1799.25 1596.54 C 1775.2 1605.14 1751.53 1614.4 1727.59 1623.3 C 1717.35 1616.44 1709.85 1613.31 1698.7 1604.87 C 1655.74 1572.37 1643.34 1530 1616.36 1487.71 C 1648.76 1472.83 1681.45 1458.63 1714.43 1445.1 z" fill="rgb(249,241,220)" transform="translate(0,0)"></path>
<path d="M 361.912 1535.19 C 367.031 1542.53 385.142 1540.54 393.691 1541.69 C 408.643 1543.69 423.458 1545.74 438.316 1548.4 C 518.19 1562.09 594.997 1589.86 665.156 1630.42 C 682.191 1640.19 697.998 1651.23 714.715 1661.52 C 696.178 1669.29 677.811 1677.46 659.627 1686.03 C 643.098 1693.79 630.433 1700.94 614.705 1710.11 C 600.923 1704.85 583.115 1693.2 569.815 1685.35 C 551.266 1674.55 532.654 1663.85 513.981 1653.27 L 386.048 1579.81 C 369.999 1570.38 344.7 1557.35 330.283 1546.73 C 339.158 1541.73 351.953 1538.24 361.912 1535.19 z" fill="rgb(249,241,220)" transform="translate(0,0)"></path>
<path d="M 1279.73 1630.89 C 1285.24 1633.55 1290.91 1637.25 1296.5 1640.12 C 1354.94 1670.15 1420.46 1682.85 1484.02 1697.22 C 1489.44 1698.44 1504.54 1701.51 1507.78 1705.65 C 1504.09 1708.06 1458.67 1724.83 1452.02 1726.5 C 1434.41 1730.93 1367.47 1762.16 1354.46 1761.87 C 1340.39 1754.07 1316.92 1751.2 1301.05 1747.76 C 1253.9 1737.52 1161.9 1726.19 1121.91 1700.26 C 1134.06 1693.37 1161.29 1682.34 1175.38 1676.15 C 1210.04 1660.78 1244.83 1645.69 1279.73 1630.89 z" fill="rgb(249,241,220)" transform="translate(0,0)"></path>
<path d="M 1113.63 1702.97 C 1117.08 1703.67 1130.07 1712.39 1135.55 1714.53 C 1203.95 1741.27 1277.07 1744.49 1347.25 1764.89 C 1303.25 1782.8 1254.69 1799.84 1209.82 1817 C 1195.3 1822.74 1181.12 1828.39 1166.39 1833.56 C 1160.36 1827.43 1143.49 1820.73 1134.8 1816.24 C 1089.37 1792.81 1041.25 1769.12 991.892 1755.04 C 1028.82 1737.03 1075.22 1718.98 1113.63 1702.97 z" fill="rgb(249,241,220)" transform="translate(0,0)"></path>
<path d="M 805.093 1637.12 C 832.974 1635.35 847.826 1664.66 836.261 1689.05 C 827.889 1695.32 804.355 1707.85 793.383 1714.38 C 743.231 1744.21 673.754 1790.7 615.082 1796.78 C 611.478 1797.31 606.287 1798.46 602.944 1797.6 C 611.06 1775.43 612.184 1741.57 581.986 1737.86 C 604.141 1726.56 627.405 1710.01 649.994 1699.17 C 697.539 1676.35 754.751 1653.43 805.093 1637.12 z" fill="rgb(249,241,220)" transform="translate(0,0)"></path>
<path d="M 725.345 1763.79 C 728.854 1764.1 753.914 1773.96 760.111 1775.95 C 853.666 1806.04 951.921 1814.24 1045.45 1844.43 C 1059.37 1848.92 1076.99 1853.65 1089.56 1860.61 C 1075.87 1866.37 1061.16 1871.75 1047.22 1877.08 C 1032.01 1883.08 1015.8 1888.73 1000.42 1894.48 C 988.253 1899.02 973.177 1905.18 960.999 1908.49 C 954.974 1905.77 940.744 1896.62 934.576 1892.88 C 920.757 1884.41 906.742 1876.26 892.544 1868.44 C 833.6 1834.73 774.023 1802.14 713.844 1770.69 L 725.345 1763.79 z" fill="rgb(249,241,220)" transform="translate(0,0)"></path>
<path d="M 1800.95 1407.94 C 1810.34 1415.03 1829.34 1425.26 1840.26 1431.5 L 1938.09 1486.54 C 1953.29 1495.2 1981.19 1510.69 1994.19 1521.44 C 1983.38 1527.86 1947.29 1541.25 1934.31 1545.51 L 1921.5 1539.83 C 1904.76 1533.92 1886.31 1530.45 1869.13 1525.18 C 1829.77 1513.12 1789.02 1497.35 1755.33 1473.25 C 1743.34 1464.67 1731.45 1452.76 1720.91 1442.54 C 1747.37 1430.51 1774.06 1418.97 1800.95 1407.94 z" fill="rgb(249,241,220)" transform="translate(0,0)"></path>
<path d="M 787.67 1726.77 C 790.676 1728.81 802.958 1740.37 806.538 1743.5 C 820.138 1755.17 835.249 1764.95 851.463 1772.59 C 906.653 1798.05 930.67 1777.65 984.359 1758.14 C 994.165 1760.49 1005.89 1765.63 1015.72 1768.8 C 1066.8 1785.24 1111.49 1811.91 1159.42 1835.16 L 1125.7 1847.99 C 1116.76 1851.44 1107.72 1854.64 1098.61 1857.58 C 1086.57 1851.47 1065.15 1844.74 1052.03 1840.43 C 985.007 1818.38 915.54 1807.46 846.778 1792.97 C 830.919 1789.63 811.617 1783.94 795.835 1779.59 C 776.562 1774.27 752.175 1768.4 734.327 1760.07 C 750.032 1749.36 771.163 1737.18 787.67 1726.77 z" fill="rgb(249,241,220)" transform="translate(0,0)"></path>
<path d="M 782.818 1510.01 C 845.875 1550.88 908.216 1635.91 895.465 1715.91 C 892.507 1734.47 882.734 1741.02 865.535 1735.58 C 847.606 1728.6 836.115 1719.87 821.721 1707.31 C 828.379 1703.38 839.135 1697.75 842.985 1691.32 C 853.674 1673.47 845.799 1645.66 827.488 1635.73 C 815.783 1629.38 807.68 1630.33 795.787 1633.61 C 777.587 1596.25 765.787 1550.13 782.818 1510.01 z" fill="rgb(254,254,250)" transform="translate(0,0)"></path>
<path d="M 1937.36 1133.33 C 1944.22 1132.75 1957.36 1131.39 1962.64 1135.53 C 2033.09 1190.81 1876.16 1243.45 1843.65 1253.12 L 1829.44 1256.89 C 1819.8 1232.03 1812.6 1216.31 1799.65 1193.19 C 1829.43 1168.6 1898.89 1139.12 1937.36 1133.33 z" fill="rgb(254,254,250)" transform="translate(0,0)"></path>
<path d="M 704.877 1423.14 C 707.574 1422.94 715.368 1425.39 718.532 1426.04 C 753.665 1433.29 786.584 1446.34 818.983 1461.68 C 776.389 1481.19 746.552 1475.09 742.759 1534.34 C 724.841 1526.14 707.333 1517.57 689.252 1509.41 C 659.135 1496.08 627.581 1486.28 595.216 1480.2 C 580.548 1477.53 565.747 1476.41 551.148 1473.36 C 602.196 1456.03 653.442 1439.29 704.877 1423.14 z" fill="rgb(249,241,220)" transform="translate(0,0)"></path>
<path d="M 776.887 1485.92 C 790.67 1487.76 810.898 1501.63 821.505 1510.62 C 875.372 1556.27 917.365 1623.63 925.711 1694.54 C 928.659 1719.59 925.464 1750.1 910.489 1771.75 C 907.895 1775.49 901.334 1777.65 896.898 1777.38 C 860.036 1775.11 820.534 1747.05 795.299 1722.93 C 802.324 1716.78 805.789 1714.26 814.691 1710.87 C 832.481 1725.77 861.264 1749.78 886.079 1742.79 C 909.472 1725.94 905.82 1680.45 899.636 1656.46 C 884.59 1598.1 847.346 1551.07 800.342 1514.84 C 792.542 1508.03 779.151 1496.13 774.103 1513.23 C 761.236 1556.79 770.231 1595.5 788.828 1635.11 L 770.919 1640.9 C 756.231 1609.27 744.061 1545.73 753.917 1511.95 C 757.833 1498.53 765.141 1492.07 776.887 1485.92 z" fill="rgb(249,241,220)" transform="translate(0,0)"></path>
<path d="M 966.579 1335.33 C 974.981 1339.32 1010.45 1345.15 1021.1 1347.57 C 1038.78 1351.6 1055.36 1356.15 1072.9 1360.95 C 1022.25 1383.23 971.937 1402.14 920.433 1422.28 L 908.307 1417.56 C 872.19 1404.86 834.773 1398.46 796.974 1393.4 C 819.177 1385 842.78 1377.69 865.346 1369.94 C 899.006 1358.16 932.752 1346.62 966.579 1335.33 z" fill="rgb(249,241,220)" transform="translate(0,0)"></path>
<path d="M 1253.02 1237.1 C 1262.08 1241.82 1290.15 1244.97 1302.08 1247.69 C 1314.26 1250.47 1323.12 1252.83 1335.36 1256.57 L 1197.62 1312.12 L 1188.24 1308.56 C 1168.66 1301.24 1124.15 1293.45 1102.27 1289.7 L 1253.02 1237.1 z" fill="rgb(249,241,220)" transform="translate(0,0)"></path>
<path d="M 327.382 1555.45 C 337.487 1560.19 359.516 1573.75 369.855 1579.77 L 450.907 1626.87 L 560.604 1689.18 C 575.383 1697.64 590.758 1705.85 605.116 1714.9 L 596.542 1720.38 L 582.881 1729.7 C 562.643 1716.65 539.06 1703.53 518.038 1691.38 C 483.982 1671.57 449.785 1652 415.449 1632.67 C 387.336 1616.8 355.696 1596.45 328.361 1581.73 L 327.382 1555.45 z" fill="rgb(249,241,220)" transform="translate(0,0)"></path>
<path d="M 705.139 1774.8 C 714.579 1776.42 931.36 1898.39 954.035 1914.16 C 957.423 1924.59 957.107 1928.54 956.909 1939.28 C 952.329 1937.12 946.939 1934.06 942.393 1931.61 C 935.768 1928.34 928.352 1924.38 921.97 1920.65 C 843.264 1874.63 759.68 1833.25 681.683 1786.28 C 688.024 1782.52 698.231 1778.06 705.139 1774.8 z" fill="rgb(249,241,220)" transform="translate(0,0)"></path>
<path d="M 1093.08 1293.08 C 1107.98 1293.24 1172.58 1309.25 1189.05 1314.92 C 1182.79 1317.79 1175.81 1320.56 1169.35 1323.07 C 1140.46 1334.3 1111.97 1346.88 1082.76 1357.2 C 1080.77 1357.9 1077.72 1357.02 1075.76 1356.4 C 1057.66 1351.46 1040.13 1346.18 1021.73 1342.27 C 1006.29 1338.98 990.122 1336.99 974.93 1333.21 C 1012.68 1320.18 1055.25 1305 1093.08 1293.08 z" fill="rgb(249,241,220)" transform="translate(0,0)"></path>
<path d="M 784.593 1396.97 C 795.158 1399.93 817.393 1402.4 829.229 1404.16 C 858.587 1408.54 882.982 1414.2 910.664 1425.41 C 896.234 1433.85 854.534 1448.15 837.241 1454.49 L 825.679 1458.61 C 788.986 1438.82 754.084 1429.14 714.152 1419.62 L 784.593 1396.97 z" fill="rgb(249,241,220)" transform="translate(0,0)"></path>
<path d="M 1385.17 1193.22 C 1395.92 1193.47 1427.5 1209.35 1437.95 1215.09 C 1411.47 1226.11 1368.93 1244.62 1342.56 1252.91 L 1320.78 1246.68 C 1299.55 1241.4 1280.98 1238.4 1259.47 1234.97 C 1289.32 1223.08 1321.1 1213.8 1351.43 1203.18 C 1362.05 1199.46 1374.23 1195.52 1385.17 1193.22 z" fill="rgb(249,241,220)" transform="translate(0,0)"></path>
<path d="M 1353.44 1770.89 C 1355.52 1771.4 1354.54 1770.94 1356.1 1772.92 C 1357.21 1782.33 1352.07 1791.77 1347.43 1799.64 C 1325.1 1809.66 1294.4 1820.05 1270.86 1828.7 L 1171.54 1865.84 L 1170.12 1865.39 C 1169.05 1862.4 1172.63 1845.64 1172.81 1839.56 L 1353.44 1770.89 z" fill="rgb(249,241,220)" transform="translate(0,0)"></path>
<path d="M 1923.19 1557.09 C 1925.6 1559.66 1919.67 1579.59 1918.69 1583.29 C 1894.41 1593.97 1867.14 1603.45 1842.22 1612.91 L 1731.22 1655.22 L 1730.58 1654.7 C 1729.38 1652.28 1731.49 1634.61 1731.75 1629.74 C 1795.87 1606.35 1859.69 1582.13 1923.19 1557.09 z" fill="rgb(249,241,220)" transform="translate(0,0)"></path>
<path d="M 1720.48 1633.87 L 1723.2 1634.27 C 1725.43 1639.01 1722.04 1653.18 1720.95 1659.08 C 1657.61 1682.52 1594.44 1706.41 1531.44 1730.74 L 1530.34 1730.4 C 1531.54 1720.53 1531.14 1716.66 1528.39 1707.58 C 1592.35 1682.69 1656.55 1659.21 1720.48 1633.87 z" fill="rgb(249,241,220)" transform="translate(0,0)"></path>
<path d="M 1520.03 1710.04 C 1526.91 1715.12 1525.79 1732.33 1516.58 1736.25 C 1499.26 1743.62 1481.61 1750.07 1464 1756.71 L 1359.63 1795.91 L 1358.52 1795.05 C 1362.07 1787.12 1363.27 1777.09 1360.58 1768.8 C 1365.22 1765.78 1389.03 1758.22 1396.08 1755.59 L 1520.03 1710.04 z" fill="rgb(249,241,220)" transform="translate(0,0)"></path>
<path d="M 1098.93 1864.97 L 1100.14 1865.55 C 1107.26 1876.03 1099.79 1885.14 1093.74 1894.26 C 1087.23 1897.13 1079.15 1900.16 1072.41 1902.44 C 1036.9 1914.45 1001.13 1929.67 965.319 1940.41 C 964.888 1940.28 964.458 1940.15 964.027 1940.02 C 964.935 1931.49 964.565 1922.88 962.927 1914.46 C 975.708 1911.86 996.645 1903.6 1009.39 1898.95 C 1039.44 1888.17 1069.29 1876.84 1098.93 1864.97 z" fill="rgb(249,241,220)" transform="translate(0,0)"></path>
<path d="M 1993.83 1529.94 C 1996.65 1534.25 1993.21 1548.96 1992.24 1554.28 C 1981.72 1561.06 1941.22 1576.81 1928.31 1580.1 L 1927.82 1579.63 C 1926.72 1576.72 1931.84 1557.94 1932.9 1553.48 C 1953.33 1545.27 1973.26 1539.86 1993.83 1529.94 z" fill="rgb(249,241,220)" transform="translate(0,0)"></path>
<path d="M 1163.99 1842.1 L 1164.97 1843.49 C 1165.84 1851.87 1163.33 1860.3 1161.38 1868.48 C 1148.63 1875.11 1116.78 1886.63 1103 1891.1 C 1113.23 1875.01 1107.07 1879.55 1107.75 1863.34 C 1113.96 1859.86 1154.57 1845.6 1163.99 1842.1 z" fill="rgb(249,241,220)" transform="translate(0,0)"></path>
<path d="M 577.294 1745.93 C 603.175 1745.34 608.696 1788.63 589.789 1796.88 C 565.734 1792.04 553.915 1760.88 577.294 1745.93 z" fill="rgb(254,254,250)" transform="translate(0,0)"></path>
<path d="M 1965.51 1128.05 C 1978.2 1127.58 1992.94 1134.14 1996.24 1147.63 C 1998.61 1157.33 1994.64 1164.44 1989.87 1172.5 C 1988.22 1174.98 1987.94 1175.28 1985.84 1177.41 C 1984.26 1169.9 1988.74 1161.41 1986.1 1152.05 C 1982.49 1139.26 1975.98 1134.4 1965.51 1128.05 z" fill="rgb(254,254,250)" transform="translate(0,0)"></path>
<path d="M 355.314 1813.41 C 387.994 1809.32 429.123 1822.72 457.922 1836.85 C 422.841 1829.29 399.881 1816.87 359.749 1819.44 C 330.795 1821.64 302.943 1827.84 274.926 1835.29 C 269.11 1836.83 263.616 1838.43 257.643 1839.27 C 284.383 1825.74 325.787 1816.06 355.314 1813.41 z" fill="rgb(58,38,35)" transform="translate(0,0)"></path>
<path d="M 1562.43 1031.42 C 1610.41 1027.58 1671.15 1037.27 1714.85 1056.82 C 1703.55 1054.89 1689.82 1051.59 1678.42 1049.17 C 1643.7 1041.33 1617.75 1037.73 1581.89 1036.72 C 1567.64 1036.32 1532.21 1037.2 1519.71 1034.76 C 1533.92 1033.32 1548.17 1032.21 1562.43 1031.42 z" fill="rgb(58,38,35)" transform="translate(0,0)"></path>
<path d="M 1747.31 1784.4 C 1779.9 1781.1 1842.4 1789.28 1873.7 1798.9 C 1863.73 1799.15 1833.57 1795.36 1822.24 1794.26 C 1793.51 1790.61 1763.97 1789.77 1735.01 1789.77 C 1725.44 1789.77 1700.29 1792.93 1693.77 1792.37 C 1700.98 1789.31 1738.23 1785.15 1747.31 1784.4 z" fill="rgb(58,38,35)" transform="translate(0,0)"></path>
<path d="M 1651.75 1815.43 C 1681.01 1813.61 1743.67 1820.88 1768.47 1835.72 C 1763.47 1835.29 1759.05 1834.58 1754.11 1833.81 C 1720.8 1828.02 1687.2 1821.46 1653.45 1818.64 C 1647.58 1818.15 1641.83 1818.22 1636.03 1817.12 C 1640.64 1815.71 1646.8 1815.71 1651.75 1815.43 z" fill="rgb(58,38,35)" transform="translate(0,0)"></path>
<path d="M 1498.02 1056.43 C 1518.06 1055.14 1549.62 1057.56 1568.34 1064.82 C 1548.32 1063.87 1527.41 1062.09 1507.55 1061.99 C 1485.67 1061.85 1462.11 1063.92 1440.97 1069.27 C 1460.72 1059.59 1476.59 1057.59 1498.02 1056.43 z" fill="rgb(58,38,35)" transform="translate(0,0)"></path>
<path d="M 210.72 1638.44 C 221.067 1638.09 231.895 1638.39 242.081 1640.34 C 207.98 1642.82 187.514 1645.33 154.818 1653.53 C 145.649 1656.46 137.443 1657.91 127.96 1659.26 C 152.401 1644.41 182.735 1640.07 210.72 1638.44 z" fill="rgb(58,38,35)" transform="translate(0,0)"></path>
<path d="M 150.278 1673.41 C 166.874 1671.68 185.09 1673.24 201.304 1676.88 C 200.94 1676.94 200.576 1677.01 200.213 1677.07 L 198.389 1677.37 C 185.407 1679.57 158.855 1679.66 144.989 1680.12 C 130.451 1681.04 109.739 1682.9 95.7445 1682.36 C 116.43 1677.05 129.144 1674.96 150.278 1673.41 z" fill="rgb(58,38,35)" transform="translate(0,0)"></path>
<path d="M 301.615 1365.4 C 321.403 1365.3 337.777 1368.14 356.119 1375.5 C 350.34 1375.38 346.573 1375.32 340.764 1374.49 C 334.868 1373.88 290.699 1368.99 288.06 1367.33 C 292.398 1365.6 296.884 1365.7 301.615 1365.4 z" fill="rgb(58,38,35)" transform="translate(0,0)"></path>
<metadata><recraft-signature>{"signed_by": "recraft", "signature_b64": "pZoPllo+EDHk4ekYeAPVGFoKSXfGz6N+dLAxu+1MKmRgPGOV6Y2B6oPISFrWsRmy9Vh/wOO35CNnwp+seFm4Cw==", "signing_algo": "Ed25519", "generation_timestamp": 1778091869, "identifier": "29a0c16f-b31e-49aa-aa95-ef22222fcbb1"}</recraft-signature></metadata></svg>