<svg xmlns="http://www.w3.org/2000/svg" height="1024" preserveAspectRatio="none" style="display: block;" version="1.1" viewBox="0 0 2048 2048" width="1024">
<path d="M 0 0 L 2048 0 L 2048 2048 L 0 2048 L 0 0 z" fill="rgb(253,251,244)" transform="translate(0,0)"></path>
<path d="M 1281.52 132.482 C 1421.43 130.997 1574.55 151.172 1705.4 202.512 C 1779.2 232.172 1863.85 278.342 1898.28 353.562 C 1917.32 395.151 1903.55 447.711 1893.69 490.238 C 1885.5 525.282 1876.59 560.152 1866.95 594.825 C 1812.91 793.482 1764.52 970.981 1556.35 1057.7 C 1557.86 1062.04 1559.32 1066.4 1560.74 1070.77 C 1562.25 1075.5 1564.05 1083.18 1561.1 1087.19 C 1551.61 1100.12 1507.58 1114.32 1492.96 1118.32 C 1371.05 1151.71 1236.35 1155.61 1113.18 1126.89 C 1081.31 1119.46 1048.34 1109.86 1019.93 1094.25 C 1020.47 1084.05 1023.34 1072.58 1025.67 1062.55 C 966.428 1033.97 948.643 1021.74 899.147 978.541 C 881.947 996.002 862.218 1010.7 844.205 1029.53 C 824.294 1050.35 807.822 1073.68 789.024 1093.71 C 789.924 1095.71 790.845 1097.69 791.787 1099.66 C 820.655 1159.92 918.407 1172.27 977.275 1186.32 C 1020.19 1196.56 1067.43 1203.25 1109.14 1217.93 C 1135.27 1209.21 1161.54 1200.91 1187.94 1193.02 C 1203.12 1188.42 1219.43 1182.79 1235.01 1180.46 C 1286.81 1172.68 1326.18 1219.98 1351.88 1257.54 C 1359.13 1250.3 1368.51 1245.55 1377.59 1240.92 C 1423.9 1217.26 1502.75 1193.67 1552.89 1209.79 C 1560.66 1206.22 1567.23 1203.05 1576.07 1202.81 C 1598.98 1202.18 1615.5 1224.25 1614.96 1245.91 C 1614.6 1260.03 1608.1 1267.47 1598.73 1276.78 C 1628.56 1277.78 1643.72 1280.39 1675.11 1278.32 C 1752.79 1273.19 1837.23 1248.06 1913.4 1270.32 C 1935.78 1276.86 1956.36 1287.46 1967.57 1308.46 C 1956.96 1322.91 1907.26 1356.31 1890.1 1369.1 C 1864.13 1388.44 1834.87 1409.94 1808.18 1428.75 C 1766.61 1457.94 1724.07 1485.6 1681.06 1512.61 C 1664.77 1522.84 1650.12 1535.31 1633.16 1544.41 C 1615.09 1554.12 1597.9 1565.8 1579.95 1575.67 C 1538.62 1598.39 1496.06 1619.07 1453.64 1639.66 C 1314.71 1709.56 1174.97 1777.84 1034.44 1844.47 C 1007.57 1857.54 980.848 1870.9 954.277 1884.56 C 939.68 1892.12 907.163 1909.24 892.267 1914.12 C 870.204 1898.24 842.197 1867.97 819.479 1856.47 C 780.531 1836.74 728.845 1833.04 688.69 1813.27 C 659.619 1798.95 641.717 1777.65 615.518 1762.21 C 579.873 1771.82 545.633 1784.18 510.401 1794.84 C 497.031 1798.89 464.004 1811.23 452.028 1807.24 C 413.52 1794.43 382.048 1749.85 363.299 1715.93 C 289.849 1745.57 213.355 1761.92 134.324 1767.47 C 121.959 1769.08 112.204 1775.54 100.201 1768.73 C 80.8519 1757.76 67.0502 1719.67 78.5992 1700.15 C 81.2885 1695.61 104.978 1684.26 111.452 1680.15 C 123.449 1672.54 136.433 1663.53 148.852 1656.34 C 206.356 1622.81 269.508 1600.08 335.191 1589.28 C 321.875 1550.95 324.007 1494.33 360.434 1468.92 C 331.254 1439.71 308.482 1414.45 276.379 1388.01 C 253.411 1367.36 226.081 1353.68 200.903 1336.6 C 178.675 1321.51 141.819 1286.97 132.132 1261.38 C 137.485 1244.9 150.896 1221.91 159.566 1206.33 C 194.621 1142.45 234.965 1081.61 280.176 1024.46 C 335.194 954.274 415.759 874.095 507.758 864.224 C 521.669 862.668 536.237 862.67 550.27 863.025 C 633.438 865.127 714.894 852.84 797.309 842.789 C 751.921 756.945 726.554 645.63 701.207 551.498 C 691.106 505.793 669.314 449.874 668.592 403.394 C 667.125 309.094 781.085 241.781 855.678 210.974 C 990.157 155.433 1137.8 134.867 1281.52 132.482 z" fill="rgb(112,72,73)" transform="translate(0,0)"></path>
<path d="M 1276.9 143.485 C 1457.82 141.064 1700.32 174.493 1844.59 298.039 C 1872.27 321.744 1896.91 361.13 1897.89 398.108 C 1898.81 432.614 1878.8 468.571 1854.56 492.237 C 1728.3 618.013 1467.34 653.127 1298.75 655.333 C 1145.82 657.139 992.189 637.484 849.952 577.341 C 783.347 549.177 682.865 486.279 679.039 404.317 C 675.665 332.048 758.071 270.868 817.224 240.911 C 957.679 169.779 1120.77 147.774 1276.9 143.485 z" fill="rgb(253,251,244)" transform="translate(0,0)"></path>
<path d="M 1237.65 176.44 C 1402.54 169.766 1671.58 196.367 1801.77 309.51 C 1826.19 330.728 1848.04 359.957 1849.72 393.524 C 1851.39 426.748 1834.44 456.463 1812.95 480.522 C 1799.68 495.387 1773.26 516.062 1755.42 525.717 C 1667.05 573.553 1538.21 600.632 1439.18 612.175 C 1405.96 615.773 1372.63 618.28 1339.25 619.693 L 1336.09 619.869 C 1183 628.199 972.12 607 836.946 533.273 C 816.163 521.938 796.236 509.594 778.606 493.645 C 752.25 469.801 729.571 439.019 728.11 402.217 C 726.9 371.737 742.842 343.215 762.928 321.389 C 863.206 212.426 1096.5 181.81 1237.65 176.44 z" fill="rgb(112,72,73)" transform="translate(0,0)"></path>
<path d="M 1299.6 284.432 C 1334.57 282.953 1362.68 298.241 1386.92 322.394 C 1391.49 326.951 1400.37 336.889 1405.88 338.773 L 1406.52 337.45 C 1402.13 324.044 1390.56 314.108 1380.73 304.12 C 1407.74 300.44 1435.17 301.199 1461.93 306.365 C 1498.91 313.635 1529.25 329.758 1550.65 361.748 C 1541.67 358.152 1482.55 338.092 1476.59 340.465 L 1476.97 341.943 C 1488.6 352.249 1601.11 390.034 1624.38 400.871 C 1677.53 425.626 1731.03 455.34 1754.22 513.351 C 1651.99 569.406 1514.3 595.59 1398.76 605.219 C 1261.32 618.534 1122.63 609.068 988.285 577.202 C 940.467 565.605 885.577 548.38 842.624 523.905 C 850.962 508.697 860.427 491.24 870.994 478.325 C 908.858 432.048 966.065 401.528 1025.9 397.529 C 1030.44 397.226 1046.52 397.226 1048.86 395.106 L 1048.78 392.919 C 1042.54 385.42 1007.81 390.947 998.924 392.749 C 1019.57 381.637 1053.23 363.375 1075.41 360.907 C 1115.94 356.397 1130.28 350.806 1165.57 329.481 C 1205.54 305.334 1252.24 286.606 1299.6 284.432 z" fill="rgb(253,251,244)" transform="translate(0,0)"></path>
<path d="M 1269.91 338.423 C 1276.02 338.454 1282.6 337.58 1287.19 341.369 L 1287.17 342.971 C 1284 344.745 1263.82 346.895 1258.76 347.658 C 1194.94 357.305 1150.27 401.529 1117.14 454.049 C 1114.86 457.955 1112.56 462.693 1108.47 464.59 L 1107.97 462.873 C 1112.28 442.113 1132.87 413.753 1147.08 398.35 C 1179.56 363.159 1221.71 340.525 1269.91 338.423 z" fill="rgb(112,72,73)" transform="translate(0,0)"></path>
<path d="M 1454.04 388.971 C 1486.59 390.166 1524.46 415.212 1538.93 444.335 C 1542.29 451.083 1548.43 461.365 1546.06 468.726 C 1542.41 465.406 1537.98 457.809 1535.09 453.378 C 1526.62 440.356 1518.95 429.594 1506.47 420.106 C 1501.11 416.004 1495.37 412.432 1489.33 409.439 C 1479.84 404.741 1461.79 398.937 1453.59 392.807 C 1452.65 392.107 1453.56 390.584 1454.04 388.971 z" fill="rgb(112,72,73)" transform="translate(0,0)"></path>
<path d="M 1360.56 383.267 C 1364.93 383.057 1370.6 383.458 1370.78 388.711 C 1365.65 391.917 1347.5 395.908 1340.41 399.192 C 1316.13 410.448 1303.06 431.686 1293.22 455.078 C 1292.02 458.13 1291.21 461.101 1288.02 461.957 L 1286.94 459.977 C 1286.37 448.175 1296.57 426.51 1303.5 417.119 C 1317.22 398.65 1337.77 386.456 1360.56 383.267 z" fill="rgb(112,72,73)" transform="translate(0,0)"></path>
<path d="M 1035.39 428.913 L 1037.12 429.996 C 1037.09 435.1 1024.22 442.263 1019.04 446.545 C 991.22 469.541 983.347 488.578 969.209 519.737 C 968.377 519.552 967.818 519.013 967.023 518.473 C 965.156 511.102 971.821 492.154 975.123 485.005 C 987.08 459.127 1008.73 438.983 1035.39 428.913 z" fill="rgb(112,72,73)" transform="translate(0,0)"></path>
<path d="M 1539.79 408.925 C 1575.06 411.71 1610.91 451.949 1605.12 488.644 L 1603.02 488.708 C 1599.67 485.275 1592.27 456.58 1583.96 447.13 C 1578.59 439.67 1571.85 434.149 1565.13 428.177 C 1558.63 422.404 1543.47 415.986 1539.79 408.925 z" fill="rgb(112,72,73)" transform="translate(0,0)"></path>
<path d="M 1402.86 512.375 C 1406.59 512.632 1410.02 512.719 1412.95 515.012 L 1412.83 516.866 C 1409.72 518.81 1406.47 519.586 1402.82 520.301 C 1384.98 523.799 1373.91 536.649 1364.85 551.74 C 1363.62 553.846 1362.67 555.312 1360.37 555.686 L 1359.54 554.013 C 1360 531.159 1381.07 514.6 1402.86 512.375 z" fill="rgb(112,72,73)" transform="translate(0,0)"></path>
<path d="M 1639.88 441.704 C 1664.28 443.047 1677.12 482.489 1675.76 503.591 C 1671.06 502.151 1668.16 493.527 1667.66 489.257 C 1665.63 471.845 1644.58 454.361 1639.88 441.704 z" fill="rgb(112,72,73)" transform="translate(0,0)"></path>
<path d="M 1439.21 472.406 C 1449.71 471.692 1460.97 473.886 1470.82 477.459 C 1476.79 479.627 1497.41 487.809 1497.56 494.82 C 1494.01 495.797 1494.38 495.134 1490.11 493.666 C 1469.33 484.776 1451.42 479.773 1429.02 478.428 C 1426.75 478.292 1426.55 477.64 1425.61 475.994 L 1426.39 474.608 C 1430.61 472.594 1434.49 472.747 1439.21 472.406 z" fill="rgb(112,72,73)" transform="translate(0,0)"></path>
<path d="M 1216.86 428.285 C 1220.89 429.016 1220.08 428.304 1222.91 430.612 C 1222.68 434.475 1218.05 436.017 1213.98 437.759 C 1195.21 445.791 1189.36 454.821 1178.31 471.537 L 1176.36 472.995 L 1174.79 472.743 C 1173.45 468.297 1177.49 461.014 1179.23 456.814 C 1185.52 441.613 1200.53 430.238 1216.86 428.285 z" fill="rgb(112,72,73)" transform="translate(0,0)"></path>
<path d="M 936.18 462.173 L 938.974 462.375 C 939.347 465.243 932.969 470.077 930.634 472.113 C 914.331 486.329 907.272 498.21 898.829 517.664 L 897.863 518.78 L 896.58 518.422 C 894.578 498.253 914.435 465.459 936.18 462.173 z" fill="rgb(112,72,73)" transform="translate(0,0)"></path>
<path d="M 1037.7 502.357 C 1044.19 504.812 1049.89 522.66 1056.34 528.307 C 1063.39 534.479 1073.22 539.061 1081.11 544.044 L 1081.44 546.225 C 1060.27 549.905 1035.04 524.285 1037.7 502.357 z" fill="rgb(112,72,73)" transform="translate(0,0)"></path>
<path d="M 1228.82 522.672 C 1245.28 524.613 1264.9 548.03 1263.29 564.462 C 1258.09 562.998 1250.06 549.659 1246.32 544.768 C 1241.48 538.442 1229.63 529.311 1228.82 522.672 z" fill="rgb(112,72,73)" transform="translate(0,0)"></path>
<path d="M 1509.64 534.372 C 1515.6 534.406 1518.86 534.097 1524.04 536.905 L 1524.24 538.373 C 1518.2 542.561 1503.67 542.912 1494.7 545.298 L 1493.3 545.676 C 1489.3 547.272 1487.07 548.669 1482.95 548.297 L 1481.96 547.114 C 1484.83 538.741 1501.67 535.161 1509.64 534.372 z" fill="rgb(112,72,73)" transform="translate(0,0)"></path>
<path d="M 1237.44 183.428 C 1250.04 182.545 1267.86 182.76 1280.86 182.632 C 1348.66 182.124 1416.39 186.936 1483.44 197.023 C 1552.87 207.122 1631.01 226.161 1694.49 254.377 C 1774.56 289.968 1890.52 366.906 1813.19 463.373 C 1797.86 482.502 1782.32 493.61 1762.8 507.946 C 1761.58 504.981 1760.33 502.031 1759.04 499.096 C 1726.16 424.817 1637.11 394.199 1566.85 367.168 C 1554.67 347.355 1545.39 334.859 1526.71 320.718 C 1487.82 291.265 1416.85 286.651 1369.72 294.305 C 1354.9 284.257 1346.12 280.258 1328.95 276.223 C 1271.37 265.977 1220.87 287.98 1171.19 314.477 C 1150.83 325.333 1131.31 341.003 1107.99 344.732 C 1086.98 347.609 1068.68 350.939 1048.73 358.457 C 1023.45 367.981 1002.83 380.97 979.596 394.043 C 967.831 400.662 950.53 405.047 937.354 412.085 C 907.655 427.95 881.917 446.828 861.454 474.02 C 850.118 488.708 842.739 503.755 835.311 520.655 C 760.869 479.226 700.12 405.941 771.244 328.103 C 812.901 283.035 869.142 257.566 925.773 237.245 C 1026.97 200.932 1130.65 188.277 1237.44 183.428 z" fill="rgb(222,202,181)" transform="translate(0,0)"></path>
<path d="M 687.909 463.779 C 689.499 465.513 690.039 466.728 691.245 468.649 C 758.005 574.963 915.897 618.278 1030.58 644.836 C 1031.38 683.269 1034.69 716.376 1038.7 754.277 C 983.731 741.422 914.224 713.833 865.065 686.514 C 861.717 666.168 858.904 621.139 851.515 605.651 C 849.389 626.476 853.965 658.999 856.331 680.764 C 832.391 666.097 810.474 650.991 789.539 632.188 C 783.5 626.764 777.54 621.253 771.004 616.432 C 785.47 648.116 829.198 672.577 857.427 692.045 C 873.497 790.508 912.845 906.068 987.512 977.219 C 990.158 979.74 994.432 983.031 998.142 982.727 C 998.659 980.228 963.097 939.545 958.013 932.337 C 907.938 861.343 880.732 780.911 865.41 696.04 C 922.655 727.974 976.788 746.004 1039.64 762.584 L 1040.59 769.602 C 1051.95 851.28 1073.97 931.854 1114.09 1004.34 C 1118.22 1011.79 1136.97 1044.73 1146.75 1042.29 C 1148.65 1037.32 1134.58 1022.78 1130.82 1016.91 C 1082.49 941.468 1061.11 852.623 1047.56 765.159 C 1069.7 768.439 1094.21 775.668 1117.77 779.209 C 1166.24 786.494 1210.36 789.612 1258.91 792.068 C 1258.92 854.308 1260 916.543 1262.17 978.745 C 1262.71 993 1263.4 1007.25 1264.23 1021.49 C 1264.66 1030.35 1264.04 1049.58 1269.82 1055.82 L 1271.42 1055.62 C 1272.78 1052.76 1273.14 1049.98 1273.01 1046.8 C 1269.6 962.444 1265.91 876.81 1266.54 792.464 C 1341.78 791.861 1399.34 787.19 1473.33 774.052 C 1463.84 856.855 1454.01 932.681 1422.83 1011.08 C 1416.22 1027.69 1408.52 1040.31 1401.45 1056 C 1403.17 1058.71 1402.01 1057.78 1405 1058.91 C 1411.59 1056.81 1421.22 1034.99 1423.9 1028.68 C 1449.24 969.008 1463.83 905.148 1473.09 841.161 C 1476.41 818.265 1478.8 795.283 1482.12 772.419 C 1548.3 759.332 1615.25 740.686 1675.58 709.927 C 1669.7 774.266 1643.97 865.242 1614.14 922.336 C 1602.15 945.561 1588.24 967.739 1572.55 988.635 C 1569.54 992.658 1557.92 1006.92 1557.62 1010.04 C 1559.6 1012.8 1558.31 1012 1561.57 1012.61 C 1573.84 1005.79 1594.61 971.668 1602.11 959.438 C 1629.56 915.213 1653.11 852.932 1665.97 802.61 C 1673.68 772.46 1678.99 736.216 1683.82 705.354 C 1719.69 687.087 1755.54 669.242 1784.98 640.758 C 1789.89 636.002 1802.72 623.823 1802.8 616.902 L 1801.19 615.638 C 1792.93 616.449 1780.27 635.471 1770.93 643.201 C 1743.85 665.609 1716.14 681.043 1684.73 696.342 C 1685.8 676.381 1693.46 629.559 1687.02 612.526 C 1681.7 637.931 1680.76 673.029 1676.9 699.98 C 1615.39 731.993 1550.21 750.879 1482.76 765.106 C 1483.07 747.639 1488.75 670.361 1482.7 660.103 C 1479.69 666.049 1475.6 751.417 1474.53 766.383 C 1405.88 778.551 1336.32 784.739 1266.6 784.877 C 1266.22 756.979 1266.68 716.679 1261 689.729 C 1256.12 704.051 1258.09 765.068 1258.21 784.321 C 1187.1 782.504 1116.39 773.127 1047.26 756.349 C 1042.18 727.574 1038.98 676.98 1036.78 646.016 C 1183.53 672.818 1345.28 672.928 1493.36 651.498 C 1604.45 635.423 1744.66 596.411 1834.83 525.584 C 1854.85 509.86 1873.76 487.131 1888.91 466.886 C 1851.7 597.599 1823.94 752.169 1756.26 870.149 C 1692.45 981.368 1578.74 1053.05 1455.13 1080.32 C 1338.11 1106.14 1195.85 1105.86 1079.9 1070.15 C 1042.47 1058.45 1006.58 1042.3 972.996 1022.03 C 935.52 998.965 912.183 975.846 882.242 944.814 C 768.388 826.806 743.811 662.568 701.619 511.027 C 697.214 495.203 691.754 479.855 687.909 463.779 z" fill="rgb(253,251,244)" transform="translate(0,0)"></path>
<path d="M 385.218 1468.57 C 408.16 1460.14 433.941 1452.67 457.479 1444.83 L 595.525 1398.39 C 723.147 1354.83 851.235 1312.64 979.766 1271.84 C 1054.42 1248.16 1128.64 1223.03 1203.71 1200.82 C 1227.07 1193.9 1248.8 1184.14 1272.53 1196.66 C 1367.71 1246.87 1407.56 1389.99 1371.83 1487.58 C 1364.75 1506.94 1314.74 1520.65 1295.61 1527.33 C 1274.14 1534.88 1252.62 1542.3 1231.05 1549.57 C 1186.1 1564.25 1139.8 1576.62 1095.03 1591.35 L 679.174 1728.41 C 616.634 1749.3 553.955 1769.77 491.141 1789.83 C 529.904 1720.04 514.385 1634.6 479.125 1566.62 C 458.835 1527.5 431.442 1485.67 388.052 1470.01 L 385.218 1468.57 z" fill="rgb(253,251,244)" transform="translate(0,0)"></path>
<path d="M 1272.12 1230.78 C 1291.15 1230.08 1315.32 1269.19 1323.48 1283.88 C 1331.58 1298.21 1338.12 1313.36 1342.99 1329.08 C 1353.33 1362.94 1360.38 1425.67 1350.42 1460.72 C 1345.21 1461.36 1343.68 1459.54 1344.54 1454.32 C 1348.59 1429.7 1349.09 1406.53 1346.47 1381.47 C 1341.78 1337.35 1324.93 1294.31 1298.52 1258.68 C 1291.63 1249.38 1277.58 1240.18 1272.12 1230.78 z" fill="rgb(112,72,73)" transform="translate(0,0)"></path>
<path d="M 1224.06 1240.54 C 1233.6 1242.72 1244.9 1261.01 1250.42 1269.57 C 1278.63 1313.27 1294.65 1362.27 1300.95 1413.73 C 1302.01 1422.4 1303.22 1436.65 1301.51 1444.79 C 1298.23 1445.48 1299.74 1445.67 1296.81 1444.37 C 1293.8 1439.37 1293.8 1416.98 1293.05 1409.93 C 1288.43 1366.87 1273.99 1328.13 1254.12 1289.96 C 1248.34 1278.87 1224.73 1249.14 1224.06 1240.54 z" fill="rgb(112,72,73)" transform="translate(0,0)"></path>
<path d="M 1107.97 1271.29 L 1108.34 1271.56 C 1105.11 1275.86 821.272 1371.21 789.01 1382.83 C 741.309 1400.02 645.126 1434.85 594.559 1451.04 L 593.989 1450.7 C 599.821 1443.65 1064.64 1284.13 1107.97 1271.29 z" fill="rgb(112,72,73)" transform="translate(0,0)"></path>
<path d="M 570.859 1463.75 C 575.296 1465.79 581.504 1472.76 584.775 1476.47 C 618.417 1514.61 638.207 1611.01 633.517 1661.77 L 631.064 1661.92 C 628.151 1658.47 628.427 1643.58 627.843 1637.97 C 624.753 1610.43 619.773 1583.13 612.939 1556.27 C 601.245 1511.63 591.739 1500.89 570.859 1463.75 z" fill="rgb(112,72,73)" transform="translate(0,0)"></path>
<path d="M 547.22 1488.56 C 551.501 1490.93 556.776 1499.24 559.298 1503.48 C 584.956 1546.55 611.941 1649.68 599.705 1696.22 C 599.276 1696.7 597.81 1697.96 597.274 1698.43 C 595.77 1696.6 596.321 1687.6 596.344 1684.51 C 596.886 1613.43 576.404 1552.33 547.22 1488.56 z" fill="rgb(112,72,73)" transform="translate(0,0)"></path>
<path d="M 1212.48 1277.43 C 1222.51 1279.31 1238.54 1311.19 1244.07 1321.29 C 1254.07 1339.57 1273.18 1387.14 1266.75 1407.39 L 1265.78 1407.56 C 1266.21 1408.23 1253.08 1362.93 1252.61 1360.04 C 1249.34 1339.91 1213.42 1288.91 1212.48 1277.43 z" fill="rgb(112,72,73)" transform="translate(0,0)"></path>
<path d="M 799.918 848.609 C 800.424 849.043 825.226 889.213 828.672 894.144 C 808.776 907.061 789.632 922.563 771.076 937.353 C 631.459 1048.64 521.375 1217.15 545.804 1403.09 C 530.834 1407.27 512.283 1414.54 497.225 1419.72 L 407.394 1450.29 L 383.426 1432.92 C 365.717 1420.6 349.31 1410.65 331.147 1399.17 C 349.01 1207.33 447.637 1032.36 586.379 902.1 C 597.34 891.81 608.554 881.79 619.76 871.772 C 631.56 870.838 643.506 870.632 655.552 869.625 C 688.989 866.864 722.313 862.882 755.459 857.687 C 768.643 855.667 788.144 853.39 799.918 848.609 z" fill="rgb(253,251,244)" transform="translate(0,0)"></path>
<path d="M 1396.24 1399.88 C 1449.89 1417.1 1554.88 1446.2 1593.86 1486.27 C 1608.73 1501.55 1615.37 1518.64 1615.16 1539.85 C 1603.44 1548.64 1572.99 1564.96 1559.74 1572.47 C 1492.55 1610.59 1421.47 1641.84 1352.36 1676.96 C 1345.74 1680.35 1338.71 1683.54 1331.97 1686.71 C 1291.29 1655.94 1234.85 1633.04 1188.21 1613.42 C 1172.39 1606.76 1153.76 1599.47 1138.78 1591.66 C 1184.82 1575.03 1232.33 1561.21 1278.44 1544.71 C 1307.54 1533.62 1352.66 1525.82 1375.59 1504.07 C 1395.13 1485.53 1395.63 1424.88 1396.24 1399.88 z" fill="rgb(253,251,244)" transform="translate(0,0)"></path>
<path d="M 508.237 873.302 C 510.755 872.925 509.54 872.801 511.886 873.633 C 510.062 877.949 502.117 884.135 498.542 887.617 C 476.816 908.782 456.008 931.188 435.909 953.861 C 336.616 1064.6 266.698 1198.48 232.56 1343.24 C 217.102 1334 195.985 1320.03 182.597 1308.35 C 169.851 1297.35 149.928 1276.06 142.599 1261.35 C 166.3 1210.76 203.105 1150.23 234.888 1104.27 C 288.774 1026.36 358.359 934.768 445.373 892.114 C 464.245 882.863 487.701 877.117 508.237 873.302 z" fill="rgb(253,251,244)" transform="translate(0,0)"></path>
<path d="M 839.6 1688.11 C 843.034 1687.86 865.865 1698.73 871.42 1700.97 C 941.036 1729.02 1006.92 1763.3 1055.58 1821.74 C 1004.06 1847.86 940.95 1877.05 892.353 1907.2 C 882.318 1884.97 876.462 1861.88 860.51 1842.2 C 840.243 1817.21 803.928 1806.8 774.112 1799.07 C 726.645 1785.33 700.008 1774.29 657.981 1747.42 C 694.541 1734.37 731.411 1722.2 768.559 1710.93 C 774.551 1718.19 806.341 1731.49 816.091 1734.91 C 851.416 1747.3 882.291 1773.89 914.813 1789.1 C 890.783 1759.73 811.648 1724.33 776.802 1708.93 C 795.166 1701.15 820.473 1693.32 839.6 1688.11 z" fill="rgb(253,251,244)" transform="translate(0,0)"></path>
<path d="M 782.847 1102.77 C 784.734 1104.86 789.194 1113.47 791.326 1116.87 C 820.417 1163.29 900.475 1180.85 951.478 1192.13 C 950.58 1215.66 945.941 1246.54 943.794 1271.18 C 896.104 1285.86 848.773 1302.08 801.262 1317.48 C 759.731 1331.65 715.067 1345.3 674.414 1360.04 C 692.326 1255.67 725.528 1190.42 782.847 1102.77 z" fill="rgb(253,251,244)" transform="translate(0,0)"></path>
<path d="M 1038.22 1623.01 C 1044.61 1622 1234.35 1714.54 1253.2 1726.45 C 1239.49 1732.69 1224.19 1741.15 1210.32 1747.88 L 1098.89 1801.96 L 1087.17 1807.29 C 1076.7 1792.77 1063 1774.69 1049.22 1763.26 C 1008.82 1729.73 935.007 1689.3 885.954 1672.21 C 898.57 1668.43 912.334 1663.33 925.1 1659.24 L 1038.22 1623.01 z" fill="rgb(253,251,244)" transform="translate(0,0)"></path>
<path d="M 381.745 1594.45 C 389.22 1594.15 391.962 1594.41 399.428 1595.37 L 400.259 1596.06 C 414.29 1608.01 419.428 1621.4 421.402 1639.18 C 425.158 1673.02 409.875 1680.67 382.624 1694.85 C 328.902 1722.82 267.473 1737.53 208.2 1748.52 C 195.597 1750.86 179.949 1754.02 167.245 1754.97 L 155.921 1755.86 C 166.026 1724.74 161.332 1695.23 128.204 1680.82 C 198.933 1634.78 297.058 1598.66 381.745 1594.45 z" fill="rgb(253,251,244)" transform="translate(0,0)"></path>
<path d="M 400.298 1662.71 L 403.013 1663.02 L 403.636 1664.56 C 403.4 1664.9 403.165 1665.23 402.929 1665.56 C 352.262 1708.14 234.912 1738.74 176.241 1741.59 C 174.542 1740.76 174.344 1740.5 172.805 1739.38 L 173.175 1738.03 C 177.072 1736.16 202.89 1732.1 209.3 1730.82 C 225.867 1727.46 242.354 1723.71 258.746 1719.58 C 288.113 1712.07 324.441 1699.62 352.218 1687.42 C 367.744 1680.6 384.817 1670.57 400.298 1662.71 z" fill="rgb(112,72,73)" transform="translate(0,0)"></path>
<path d="M 1568.65 1298.72 C 1651.41 1348.21 1741.46 1338.76 1808.68 1415.14 C 1801.81 1421.56 1785.21 1432.32 1777.11 1438.26 C 1751.01 1457.4 1723.85 1475.01 1697.09 1493.17 C 1689.89 1498.21 1684.42 1501.95 1676.84 1506.3 C 1658.36 1434.89 1599.55 1407.44 1538.37 1378.79 C 1515.55 1367.94 1492.56 1357.48 1469.39 1347.39 C 1512.4 1336.05 1532.87 1323.37 1568.65 1298.72 z" fill="rgb(253,251,244)" transform="translate(0,0)"></path>
<path d="M 342.73 1587.23 C 334.986 1558.59 334.681 1524.6 347.67 1497.06 C 355.277 1480.93 369.138 1473.77 385.218 1468.57 L 388.052 1470.01 C 385.41 1470.93 386.275 1470.08 384.86 1472.01 C 388.398 1476.56 406.086 1485.1 411.525 1489.97 C 429.876 1506.39 447.992 1531.05 459.758 1552.34 C 492.11 1612.21 512.213 1688.72 493.944 1755.77 C 488.676 1775.1 474.363 1806 449.875 1796.18 C 419.318 1783.93 387.229 1740.57 373.616 1712.2 C 388.345 1702.85 410.087 1692.72 421.4 1680.05 C 441.295 1657.77 432.104 1610.81 410.964 1592.21 C 396.562 1579.55 360.447 1585.72 342.73 1587.23 z" fill="rgb(253,251,244)" transform="translate(0,0)"></path>
<path d="M 374.558 1494.07 C 385.582 1493.31 396.28 1497.86 404.715 1504.78 C 469.081 1557.51 515.775 1711.76 463.434 1782.24 L 460.769 1782.24 L 462.683 1783.05 L 460.636 1782.95 L 460.591 1783.7 C 461.831 1776.41 467.801 1768.03 470.57 1760.87 C 475.04 1749.31 476.975 1738.3 478.85 1726.15 C 483.336 1655.58 462.128 1585.79 419.146 1529.65 C 409.387 1517.15 396.977 1503.75 380.313 1501.54 C 353.144 1497.96 345.166 1549.46 341.237 1552.58 L 340.289 1550.83 C 339.295 1526.65 350.178 1501.94 374.558 1494.07 z" fill="rgb(112,72,73)" transform="translate(0,0)"></path>
<path d="M 831.594 901.763 C 835.504 902.981 852.401 928.303 855.738 933.031 C 806.87 968.192 773.254 995.996 733.583 1042.16 C 663.922 1123.22 610.116 1225.15 596.741 1332.02 C 594.723 1348.14 592.402 1371.01 593.643 1386.95 L 569.2 1395.12 L 552.286 1400.76 C 546.835 1364.85 550.038 1320.06 555.8 1284.44 C 578.57 1143.64 675.788 1023.87 783.859 936.456 C 798.79 924.379 815.654 912.947 831.594 901.763 z" fill="rgb(253,251,244)" transform="translate(0,0)"></path>
<path d="M 528.866 872.391 C 541.555 872.78 554.249 872.995 566.944 873.037 C 548.901 890.11 530.033 903.564 511.183 922.646 C 423.917 1010.99 351.781 1132.07 312.038 1249.62 C 305.823 1268.22 300.287 1287.04 295.442 1306.05 C 293.57 1313.56 282.423 1367.74 279.964 1371.9 C 271.181 1367.16 247.448 1354.01 240.717 1347.97 C 243.53 1327.99 249.71 1307.44 255.59 1287.93 C 297.064 1150.25 382.898 1013.69 484.66 912.746 C 498.919 898.601 513.235 884.819 528.866 872.391 z" fill="rgb(253,251,244)" transform="translate(0,0)"></path>
<path d="M 1512.83 1215.42 C 1525.72 1214.82 1538.54 1215.73 1550.83 1219.81 C 1563.97 1237.56 1572.92 1262.33 1566.32 1284.14 C 1526.89 1323.1 1465.34 1338.09 1412.83 1348.78 C 1406.51 1350.19 1398.13 1351.36 1391.6 1352.45 C 1387.23 1339.95 1383.97 1325.85 1379.44 1312.88 C 1372.94 1294.2 1366.19 1281.87 1356.63 1265.02 C 1406.57 1235.45 1454.99 1219.35 1512.83 1215.42 z" fill="rgb(253,251,244)" transform="translate(0,0)"></path>
<path d="M 1544.09 1250.54 C 1548.57 1252.89 1550.9 1257.89 1551.59 1262.71 C 1554.1 1280.22 1538.36 1291.59 1525.27 1299.73 C 1502.82 1313.7 1477.29 1322.42 1451.63 1328.37 C 1441.57 1330.67 1430.51 1332 1420.28 1333.47 C 1417.15 1333.65 1418.62 1333.94 1415.74 1332.46 C 1417.41 1326.51 1442.53 1323.8 1449.33 1322.1 C 1480.56 1314.29 1514.83 1303.27 1538.01 1279.8 C 1546.07 1271.64 1544.76 1260.81 1544.09 1250.54 z" fill="rgb(112,72,73)" transform="translate(0,0)"></path>
<path d="M 604.524 872.503 L 606.236 872.672 C 605.35 876.919 588.32 890.937 583.955 894.964 C 471.147 999.038 383.725 1133.55 344.452 1282.64 C 334.985 1318.58 325.531 1356.41 322.475 1393.8 C 315.801 1390.47 309.002 1386.46 302.483 1382.76 L 288.87 1375.92 C 290.725 1366.82 292.182 1357.56 294.018 1348.5 C 326.822 1186.62 412.176 1028.74 531.023 913.956 C 545.473 899.999 562.574 887.431 577.194 873.018 C 586.224 872.976 595.476 872.683 604.524 872.503 z" fill="rgb(222,202,181)" transform="translate(0,0)"></path>
<path d="M 1546.52 1061.92 L 1547.1 1062.06 C 1549.71 1064.55 1552.91 1078.09 1554.24 1082.64 C 1522.83 1102.45 1481.28 1113.3 1445.09 1121.14 C 1310.53 1150.07 1170.58 1141.19 1040.76 1095.46 L 1030.05 1091.26 C 1031.31 1083.08 1033.42 1074.09 1035.15 1065.94 C 1178.14 1124.41 1403.8 1121.1 1546.52 1061.92 z" fill="rgb(222,202,181)" transform="translate(0,0)"></path>
<path d="M 1646.65 1290.42 C 1653.2 1290.13 1660.43 1290.28 1667.05 1290.31 C 1691.44 1290.6 1715.82 1291.29 1740.18 1292.38 C 1789.37 1294.26 1885.83 1297 1921.73 1333.32 C 1912.97 1341.13 1895.55 1352.92 1885.46 1360.15 C 1868.42 1372.35 1851.3 1384.43 1834.1 1396.4 C 1827.53 1388.59 1821.04 1380.78 1812.91 1374.37 C 1772.41 1342.44 1720.23 1330.86 1674.86 1308.08 C 1667.1 1304.19 1652.45 1298 1646.57 1292.34 L 1646.65 1290.42 z" fill="rgb(253,251,244)" transform="translate(0,0)"></path>
<path d="M 1460.56 1349.14 C 1471.24 1351.64 1495.67 1366.28 1507.17 1371.84 C 1556.49 1395.66 1611.73 1416.67 1647.37 1460.16 C 1659.59 1475.07 1665.43 1490.69 1670.23 1509.15 C 1664 1512.39 1657.57 1516.15 1651.41 1519.61 C 1646.91 1506.14 1643.75 1499.24 1636.72 1486.88 C 1598.52 1430.46 1531.49 1412.39 1470.76 1391.09 C 1454.26 1385.3 1438.66 1380.25 1421.67 1376.22 C 1415.08 1374.66 1397.25 1370.7 1393.39 1366.49 L 1393.62 1364.34 C 1410.52 1358.9 1440.63 1354.42 1460.56 1349.14 z" fill="rgb(253,251,244)" transform="translate(0,0)"></path>
<path d="M 1088.58 1606.93 C 1090.41 1607.13 1137.69 1628.29 1142.75 1630.56 C 1173.67 1644.59 1204.33 1659.2 1234.7 1674.39 C 1252.48 1683.22 1277.01 1694.49 1291.44 1707.61 C 1282.12 1711.83 1271.9 1717.81 1262.18 1721.27 C 1259.89 1722.09 1259.63 1721.33 1257.82 1720.15 C 1239.2 1707.17 1202.23 1689.78 1181.16 1679.76 C 1137.89 1658.98 1094.23 1639.02 1050.21 1619.88 C 1062.16 1616.37 1076.66 1611.02 1088.58 1606.93 z" fill="rgb(253,251,244)" transform="translate(0,0)"></path>
<path d="M 646.795 1751.1 C 648.394 1751.07 685.149 1773.06 691.077 1776.57 C 731.242 1800.34 774.312 1805.64 817.034 1822.23 C 849.52 1834.85 860.265 1851.58 872.964 1882.8 L 861.537 1873.21 C 848.59 1862.49 837.027 1853.39 821.757 1846.06 C 784.225 1828.06 741.151 1824.88 703.159 1808.41 C 675.82 1796.56 651.245 1775.77 627.982 1757.3 L 646.795 1751.1 z" fill="rgb(222,202,181)" transform="translate(0,0)"></path>
<path d="M 1394.86 1375.52 C 1427.38 1385.1 1459.64 1395.55 1491.6 1406.87 C 1559.01 1430.23 1617.89 1449.89 1645.28 1522.68 L 1637.56 1526.94 L 1622.66 1535.75 C 1622.1 1523.75 1619.9 1511.19 1614.24 1500.47 C 1590.47 1455.39 1519.93 1433.25 1474.24 1418.19 L 1396.16 1393.27 L 1394.86 1375.52 z" fill="rgb(222,202,181)" transform="translate(0,0)"></path>
<path d="M 877.247 1676.14 C 884.754 1678.45 914.214 1693.08 923.043 1697.18 C 981.599 1724.35 1043.11 1754.31 1079.46 1810.16 C 1075.35 1812.62 1069.05 1816.88 1064.46 1817.44 C 1062.42 1817.69 1062.58 1816.98 1060.39 1815.12 C 1029.25 1773.12 965.769 1735.29 918.681 1713.38 C 897.154 1703.37 873.593 1694.82 852.216 1684.01 C 860.231 1681.06 869.021 1678.6 877.247 1676.14 z" fill="rgb(253,251,244)" transform="translate(0,0)"></path>
<path d="M 1720.22 1283.37 C 1782.11 1277.28 1844.99 1261.61 1906.61 1278.57 C 1925.49 1283.77 1944.96 1291.52 1956.62 1307.97 C 1947.38 1315.01 1938.02 1321.89 1928.54 1328.6 C 1886.86 1288.1 1791.38 1284.31 1735.37 1285.14 C 1733.32 1285.17 1731.28 1285.22 1729.24 1285.28 C 1725.03 1284.98 1723.9 1285.16 1720.22 1283.37 z" fill="rgb(222,202,181)" transform="translate(0,0)"></path>
<path d="M 1124.18 1596.06 C 1126.28 1595.76 1128.09 1596.03 1130.02 1596.94 C 1193.87 1627.12 1266.14 1649.59 1324.31 1689.97 C 1316.58 1694.2 1308.25 1698.35 1300.38 1702.39 C 1299.94 1702.58 1297.86 1702.77 1297.69 1702.65 C 1290.14 1697.41 1272.06 1684.91 1265.04 1681.16 C 1227.02 1660.86 1188.99 1642.18 1149.6 1624.77 C 1133.14 1617.52 1116.64 1611.5 1100.33 1604.02 C 1107.16 1601.29 1117 1598.4 1124.18 1596.06 z" fill="rgb(222,202,181)" transform="translate(0,0)"></path>
<path d="M 1590.34 1282.92 C 1598.98 1285.8 1632.31 1291.76 1641.09 1292.04 C 1648.96 1301.52 1659.08 1306.91 1669.75 1312.89 C 1726.98 1344.92 1782.96 1348.8 1827.38 1401.54 C 1824.1 1404.11 1818.38 1409.1 1814.38 1409.23 C 1761.04 1352.29 1719.68 1347.34 1648.44 1323.51 C 1624.77 1315.6 1597.97 1304.39 1574.8 1294.49 L 1590.34 1282.92 z" fill="rgb(253,251,244)" transform="translate(0,0)"></path>
<path d="M 665.103 1155.57 C 685.195 1165.46 706.274 1173.21 727.99 1178.68 C 719.43 1194.34 711.152 1210.16 703.163 1226.12 C 685.97 1221.83 658.256 1211.33 641.621 1204.75 C 647.553 1188.15 656.355 1170.82 665.103 1155.57 z" fill="rgb(222,202,181)" transform="translate(0,0)"></path>
<path d="M 637.868 1211.57 C 658.918 1217.07 674.086 1227.25 701.243 1232.87 C 694.015 1249.61 689.248 1262.17 683.673 1279.47 C 662.338 1272.71 640.805 1266.58 619.103 1261.1 C 624.277 1244.52 631.306 1227.63 637.868 1211.57 z" fill="rgb(222,202,181)" transform="translate(0,0)"></path>
<path d="M 984.969 1199.37 C 998.66 1201.44 1017.07 1205.9 1030.97 1208.82 C 1050.6 1212.94 1073.3 1217.54 1092.1 1223.89 C 1081.51 1226.94 1070.75 1230.54 1060.23 1233.91 C 1033.69 1242.84 1006.62 1250.38 979.745 1258.34 C 982.383 1238.51 984.94 1219.38 984.969 1199.37 z" fill="rgb(253,251,244)" transform="translate(0,0)"></path>
<path d="M 695.922 1105.63 C 715.343 1114.37 734.153 1123.78 753.814 1132.48 C 750.174 1139.21 732.656 1171.71 729.439 1173.76 C 709.096 1165.92 688.855 1157.81 668.721 1149.44 C 678.047 1132.58 684.806 1121.34 695.922 1105.63 z" fill="rgb(222,202,181)" transform="translate(0,0)"></path>
<path d="M 617.394 1269.4 C 638.719 1275.44 660.116 1281.23 681.578 1286.76 C 677.156 1301.39 673.735 1316.63 670.198 1331.52 C 661.422 1331.5 616.778 1321.24 606.625 1318.75 C 610.564 1301.79 612.78 1286.9 617.394 1269.4 z" fill="rgb(222,202,181)" transform="translate(0,0)"></path>
<path d="M 767.587 1017.62 C 784.278 1026.75 803.109 1034.16 820.526 1043.7 C 816.585 1048.3 791.719 1080.25 788.88 1081.14 C 772.556 1071.96 751.162 1062.83 733.863 1055.03 C 742.34 1042.86 756.994 1028.24 767.587 1017.62 z" fill="rgb(222,202,181)" transform="translate(0,0)"></path>
<path d="M 728.609 1061.6 C 734.729 1063.2 776.044 1084.05 783.817 1087.88 C 780.214 1093.32 760.582 1123.8 757.535 1124.63 C 738.431 1115.91 719.13 1107.23 699.369 1100.12 C 708.662 1087.01 718.119 1073.77 728.609 1061.6 z" fill="rgb(222,202,181)" transform="translate(0,0)"></path>
<path d="M 810.507 977.772 C 815.261 978.463 853.237 998.624 860.45 1002.24 C 855.331 1007.27 828.542 1035.74 825.521 1036.98 C 808.548 1027.63 790.878 1019.61 772.669 1012.98 C 786.109 999.078 795.697 990.086 810.507 977.772 z" fill="rgb(222,202,181)" transform="translate(0,0)"></path>
<path d="M 605.767 1327.49 C 628.97 1333.1 645.424 1336.67 668.986 1340.42 C 667.418 1349.21 666.296 1354.85 663.809 1363.37 L 649.744 1368.08 L 601.019 1384.26 C 600.989 1365.87 603.618 1345.8 605.767 1327.49 z" fill="rgb(222,202,181)" transform="translate(0,0)"></path>
<path d="M 117.692 1688.87 C 125.872 1689.26 136.3 1693.71 141.319 1700.48 C 154.408 1718.13 149.056 1737.45 146.237 1757.1 C 137.884 1757.06 131.05 1756.82 122.751 1758.23 C 119.041 1759.19 118.182 1759.45 114.407 1759.63 C 115.167 1750.97 119.878 1746.08 118.421 1735.36 C 115.987 1717.46 109.651 1708.94 93.7588 1702.72 C 99.361 1698.39 111.099 1692.46 117.692 1688.87 z" fill="rgb(253,251,244)" transform="translate(0,0)"></path>
<path d="M 860.238 938.796 C 864.046 940.391 891.089 968.628 893.955 972.979 L 867.193 997.201 L 856.349 991.524 C 842.411 984.263 831.184 978.069 816.234 972.974 C 830.289 961.457 845.792 950.105 860.238 938.796 z" fill="rgb(222,202,181)" transform="translate(0,0)"></path>
<path d="M 1571.88 1212.2 C 1598.83 1210.98 1614.99 1239.95 1598.8 1262.16 C 1596.97 1264.67 1591.19 1268.72 1588.5 1270.73 L 1580.66 1276.34 C 1581.05 1261.92 1577.48 1244.49 1570.58 1231.56 C 1568.49 1227.64 1562.15 1219.6 1561.54 1216.18 C 1565.39 1213.49 1567.19 1213.38 1571.88 1212.2 z" fill="rgb(253,251,244)" transform="translate(0,0)"></path>
<path d="M 294.456 1391.91 C 308.02 1395.6 383.41 1442.12 394.363 1453.1 C 393.44 1455.48 392.991 1454.95 389.747 1456.39 C 381.371 1459.06 375.356 1461.4 367.213 1464.79 C 353.52 1446.27 311.89 1406.89 294.456 1391.91 z" fill="rgb(222,202,181)" transform="translate(0,0)"></path>
<path d="M 958.93 1193.59 C 965.243 1194.7 972.008 1196.4 978.297 1197.87 C 977.725 1209.15 972.754 1251.36 970.526 1261.24 L 953.871 1266.96 C 955.054 1243.07 957.483 1217.81 958.93 1193.59 z" fill="rgb(253,251,244)" transform="translate(0,0)"></path>
<path d="M 86.5553 1707.54 C 88.1421 1708.06 89.713 1708.62 91.2659 1709.24 C 110.141 1716.86 112.966 1740.69 105.512 1757.68 L 103.722 1758.47 C 88.8145 1751.48 82.7901 1722.53 86.5553 1707.54 z" fill="rgb(253,251,244)" transform="translate(0,0)"></path>
<path d="M 1729.24 1285.28 C 1723.42 1285.88 1716.84 1286.67 1711.2 1285.05 C 1714.03 1283.76 1717.08 1283.71 1720.22 1283.37 C 1723.9 1285.16 1725.03 1284.98 1729.24 1285.28 z" fill="rgb(180,150,147)" transform="translate(0,0)"></path>
<path d="M 388.08 709.411 C 445.457 703.275 513.423 726.665 571.878 725.533 C 582.502 725.327 620.492 723.082 626.678 727.884 L 626.302 729.426 C 618.941 732.971 606.052 732.164 597.662 732.173 C 570.845 732.44 544.039 730.912 517.426 727.598 C 460.292 720.841 421.085 712.553 362.922 720.29 C 341.909 723.034 318.47 729.659 297.377 733.535 C 249.549 742.324 208.602 741.245 161.057 732.121 C 150.123 730.023 138.302 729.772 126.829 727.081 C 148.182 723.808 170.476 728.077 192.142 730.073 C 211.018 731.981 230.017 732.379 248.957 731.264 C 295.709 728.463 338.192 713.332 388.08 709.411 z" fill="rgb(112,72,73)" transform="translate(0,0)"></path>
<path d="M 1916.27 721.415 C 1926.93 720.284 1975.25 719.295 1981.86 724.716 C 1978.83 727.645 1935.48 727.884 1927.52 728.158 C 1919.66 728.709 1864.68 731.793 1862.03 728.432 C 1867.94 722.96 1905.77 722.119 1916.27 721.415 z" fill="rgb(112,72,73)" transform="translate(0,0)"></path>
<metadata><recraft-signature>{"signed_by": "recraft", "signature_b64": "kBrwBYDfPpVXxfdEUL0HJE9CvQlEtQEtqJtVLZyHcr2SK+trcBiBl3I3S0q81LdgeuIvFdoJw+4HEw7lUnWKDg==", "signing_algo": "Ed25519", "generation_timestamp": 1778091869, "identifier": "022c0f67-f325-40a7-baf3-86c6e88d1f41"}</recraft-signature></metadata></svg>