<svg xmlns="http://www.w3.org/2000/svg" height="1024" preserveAspectRatio="none" style="display: block;" version="1.1" viewBox="0 0 2048 2048" width="1024">
<path d="M 0 0 L 2048 0 L 2048 2048 L 0 2048 L 0 0 z" fill="rgb(255,255,255)" transform="translate(0,0)"></path>
<path d="M 1271.51 114.773 C 1285.83 104.704 1306.71 96.8421 1324.39 98.8507 C 1353.93 102.207 1367.28 117.055 1384.63 138.377 C 1408.41 129.077 1421.65 137.173 1438.13 153.322 C 1454.99 154.475 1471.82 154.58 1488.89 155.875 C 1567.46 161.835 1645.22 171.127 1721.76 190.433 C 1761.7 200.508 1801.05 211.246 1838.51 228.821 C 1872.43 245.02 1923.88 272.679 1937.85 309.358 C 1942.62 321.863 1940.31 344.773 1939.16 358.161 C 1932.59 434.718 1908.26 509.589 1875.88 578.941 C 1869.94 591.643 1862.63 605.055 1856.29 617.76 L 1962.72 659.296 C 1972.33 663.11 2004.62 672.621 2008.14 680.057 L 2007.1 682.143 C 2003.66 683.042 2002.67 681.866 1998.54 680.452 C 1996.94 696.094 1998.41 719.681 1998.11 736.029 C 1997.97 743.565 1997.89 768.542 1998.76 775.272 C 2002.05 774.847 2004.37 774.081 2007.18 775.628 C 2007.4 779.869 2001.25 781.35 1997.84 782.694 C 1998.62 798.225 1998.91 813.776 1998.71 829.325 C 1998.61 835.985 1996.63 865.42 1999.62 869.515 C 2002.05 869.77 2003.08 869.801 2005.53 869.752 L 2007.57 873.642 C 2006.33 876.283 2005.64 876.434 2002.18 877.898 C 1978.97 887.712 1955.44 897.311 1932.16 906.951 C 1886.14 926.479 1839.89 945.459 1793.42 963.886 C 1714.43 995.621 1636.35 1031.85 1556.98 1063.04 C 1512.92 1080.35 1470.72 1104.07 1426.84 1122.06 C 1421.17 1124.46 1415.59 1127.14 1410.14 1130.01 C 1481.39 1114.32 1526.99 1114.13 1591.09 1154.71 C 1667.54 1203.1 1713.3 1284.85 1731.89 1371.6 C 1733.92 1381.07 1740.8 1415.35 1734.88 1423.74 C 1732.07 1427.73 1710.94 1436.7 1704.77 1439.55 C 1779.92 1450.94 1857.1 1450.19 1931.49 1470.08 C 1941.09 1472.64 1958.08 1474.81 1965.98 1480.25 L 1966.87 1482.16 C 1965.25 1483.67 1886.81 1516.23 1878.08 1520.19 C 1802.41 1554.58 1725.62 1594.04 1651.73 1632.22 C 1508.4 1707.56 1366.87 1786.29 1227.27 1868.34 L 1091.41 1949.13 C 1073.82 1959.74 1056.14 1970.19 1038.35 1980.47 C 1029.06 1985.88 1017.3 1993.19 1007.75 1997.72 C 953.929 1964.24 853.795 1932.22 791.849 1913.04 C 740.173 1897.11 688.336 1881.71 636.346 1866.84 C 520.816 1834.39 402.994 1803.55 291.346 1759.3 C 257.707 1745.97 215.211 1729.95 183.503 1712.8 C 192.946 1703.8 212.234 1693.31 224.127 1686.32 C 286.893 1649.73 352.122 1617.54 419.344 1589.98 C 439.119 1535.87 471.261 1485.89 522.628 1457.73 C 574.794 1429.14 631.126 1405.07 684.565 1378.6 C 703.814 1369.06 724.721 1361.03 744.557 1352.78 C 696.515 1328.73 639.854 1306.52 590.238 1284.63 L 234.51 1127.89 L 124.94 1079.78 C 113.774 1074.97 44.6972 1046.75 40.9637 1041.15 C 41.3058 1037.93 40.6373 1039.24 43.0143 1037.08 C 44.5537 1037.42 46.4116 1037.78 47.8986 1038.2 C 50.3648 1034.35 48.4549 959.765 47.923 950.776 C 43.497 948.4 42.7901 948.379 40.7471 944.45 L 41.421 942.72 C 45.744 941.698 44.4193 942.02 49.217 943.386 C 51.6954 940.311 54.9879 930.948 58.0857 926.207 C 65.2126 915.3 75.1252 907.952 78.3698 895.229 C 52.9755 877.44 76.0933 859.278 91.8524 844.197 C 125.286 812.202 211.226 761.888 256.816 786.812 C 258.047 777.281 259.512 760.675 270.397 756.948 C 327.239 737.484 382.237 713.521 437.808 690.701 L 775 550.289 C 751.232 493.017 731.271 436.105 725.283 373.919 C 722.093 340.791 719.757 310.146 742.298 283.062 C 813.77 197.184 1073.43 162.394 1181.83 151.862 C 1208.17 126.023 1230.67 101.049 1271.51 114.773 z" fill="rgb(1,0,0)" transform="translate(0,0)"></path>
<path d="M 1998.76 775.272 C 2002.05 774.847 2004.37 774.081 2007.18 775.628 C 2007.4 779.869 2001.25 781.35 1997.84 782.694 C 1998.62 798.225 1998.91 813.776 1998.71 829.325 C 1998.61 835.985 1996.63 865.42 1999.62 869.515 C 2002.05 869.77 2003.08 869.801 2005.53 869.752 L 2007.57 873.642 C 2006.33 876.283 2005.64 876.434 2002.18 877.898 C 1978.97 887.712 1955.44 897.311 1932.16 906.951 C 1886.14 926.479 1839.89 945.459 1793.42 963.886 C 1714.43 995.621 1636.35 1031.85 1556.98 1063.04 C 1512.92 1080.35 1470.72 1104.07 1426.84 1122.06 C 1421.17 1124.46 1415.59 1127.14 1410.14 1130.01 C 1481.39 1114.32 1526.99 1114.13 1591.09 1154.71 C 1667.54 1203.1 1713.3 1284.85 1731.89 1371.6 C 1733.92 1381.07 1740.8 1415.35 1734.88 1423.74 C 1732.07 1427.73 1710.94 1436.7 1704.77 1439.55 C 1779.92 1450.94 1857.1 1450.19 1931.49 1470.08 C 1941.09 1472.64 1958.08 1474.81 1965.98 1480.25 L 1966.87 1482.16 C 1965.25 1483.67 1886.81 1516.23 1878.08 1520.19 C 1802.41 1554.58 1725.62 1594.04 1651.73 1632.22 C 1508.4 1707.56 1366.87 1786.29 1227.27 1868.34 L 1091.41 1949.13 C 1073.82 1959.74 1056.14 1970.19 1038.35 1980.47 C 1029.06 1985.88 1017.3 1993.19 1007.75 1997.72 C 953.929 1964.24 853.795 1932.22 791.849 1913.04 C 740.173 1897.11 688.336 1881.71 636.346 1866.84 C 520.816 1834.39 402.994 1803.55 291.346 1759.3 C 257.707 1745.97 215.211 1729.95 183.503 1712.8 C 192.946 1703.8 212.234 1693.31 224.127 1686.32 C 286.893 1649.73 352.122 1617.54 419.344 1589.98 C 439.119 1535.87 471.261 1485.89 522.628 1457.73 C 574.794 1429.14 631.126 1405.07 684.565 1378.6 C 703.814 1369.06 724.721 1361.03 744.557 1352.78 C 696.515 1328.73 639.854 1306.52 590.238 1284.63 L 234.51 1127.89 L 124.94 1079.78 C 113.774 1074.97 44.6972 1046.75 40.9637 1041.15 C 41.3058 1037.93 40.6373 1039.24 43.0143 1037.08 C 44.5537 1037.42 46.4116 1037.78 47.8986 1038.2 C 50.3648 1034.35 48.4549 959.765 47.923 950.776 C 43.497 948.4 42.7901 948.379 40.7471 944.45 L 41.421 942.72 C 45.744 941.698 44.4193 942.02 49.217 943.386 C 52.9635 946.648 139.138 983.478 151.484 989.041 C 222.13 1020.48 293.023 1051.37 364.157 1081.69 L 577.02 1174.82 L 704.943 1230.88 C 735.531 1244.19 769.477 1257.78 798.474 1273.66 L 1998.76 775.272 z" fill="rgb(1,0,0)" transform="translate(0,0)"></path>
<path d="M 801.193 1279.8 C 817.685 1271.48 845.985 1261.02 863.703 1253.69 L 981.535 1204.59 L 1415.42 1026.28 C 1555.84 968.41 1695.83 909.518 1835.39 849.61 C 1888.17 827.541 1944.54 803.001 1997.84 782.694 C 1998.62 798.225 1998.91 813.776 1998.71 829.325 C 1998.61 835.985 1996.63 865.42 1999.62 869.515 C 2002.05 869.77 2003.08 869.801 2005.53 869.752 C 1997.04 871.46 1964.49 886.424 1954.01 890.926 L 1871.42 925.413 C 1762.4 969.997 1653.67 1015.31 1545.24 1061.35 C 1493 1083.95 1439.58 1109.74 1387.46 1133.01 C 1375.58 1138.31 1345.58 1142.94 1331.33 1146.54 C 1283.81 1158.29 1236.5 1170.86 1189.41 1184.22 C 1157.45 1193.53 1125.31 1203.52 1094.1 1215.05 C 996.026 1251.28 895.714 1286.34 800.31 1329.21 C 800.426 1315.03 799.613 1292.88 801.193 1279.8 z" fill="rgb(243,230,200)" transform="translate(0,0)"></path>
<path d="M 47.923 950.776 C 64.6497 956.508 85.0883 966.116 101.675 973.437 L 195.759 1015.34 L 443.026 1122.68 L 705.473 1237.4 C 724.339 1245.84 781.055 1268.92 795.491 1279 C 795.118 1296.43 795.02 1313.86 795.199 1331.29 C 781.537 1337.15 766.179 1344.13 752.421 1349.35 C 706.176 1327.15 652.607 1305.68 604.98 1284.84 L 225.856 1117.85 L 120.272 1071.18 C 112.789 1067.9 49.3316 1041.33 47.8986 1038.2 C 50.3648 1034.35 48.4549 959.765 47.923 950.776 z" fill="rgb(243,230,200)" transform="translate(0,0)"></path>
<path d="M 1649.72 1465.06 C 1661.19 1469.8 1704.49 1471.04 1719.15 1472.09 C 1782.68 1476.66 1842.46 1488.94 1904.71 1501.61 C 1873.18 1514.68 1848.44 1527.5 1817.87 1542.48 C 1783.57 1558.89 1749.47 1575.71 1715.58 1592.96 C 1563.97 1670.09 1414.74 1751.79 1268.07 1837.95 L 1114.7 1927.93 C 1098.48 1937.32 1075.72 1952.63 1059.4 1960.33 C 1050.69 1957.21 1041.81 1951.61 1033.31 1947.69 C 946.065 1907.47 854.314 1880.95 761.911 1855.97 L 583.98 1808.19 C 537.971 1795.7 492.177 1782.44 446.619 1768.4 C 424.299 1761.37 402.297 1753.48 379.972 1746.35 C 353.338 1737.12 327.154 1727.91 301.482 1716.23 C 279.774 1706.36 257.541 1695.94 235.555 1686.87 C 275.228 1664.17 315.824 1643.12 357.238 1623.78 C 375.198 1615.37 398.006 1604.2 416.893 1599.19 C 417.286 1604.26 418.014 1609.06 419.897 1613.9 C 424.936 1626.1 446.254 1646.2 460.102 1642.55 C 474.399 1638.3 488.565 1631.93 502.102 1625.62 C 561.566 1597.87 623.308 1574.69 682.779 1547.06 C 689.596 1552.59 696.085 1558.51 702.213 1564.79 C 748.601 1612.2 781.98 1679.49 790.366 1745.61 C 792.381 1761.49 791.156 1777.78 791.041 1793.83 C 801.836 1811.55 823.767 1821.63 842.219 1829.69 C 856.133 1825.59 888.042 1810.02 902.646 1803.56 L 1040.5 1741.41 L 1411.49 1573.84 L 1560.82 1505.33 L 1613.9 1480.9 C 1624.96 1475.79 1638.57 1469.05 1649.72 1465.06 z" fill="rgb(243,230,200)" transform="translate(0,0)"></path>
<path d="M 1160.21 1199.05 L 1161.57 1199.36 C 1159.9 1202.51 1141.93 1216.25 1137.82 1219.85 C 1021.28 1321.98 950.481 1470.4 940.288 1624.6 C 936.984 1674.58 945.232 1729.35 941.023 1779.95 C 912.885 1792.26 884.915 1804.95 857.121 1818.01 C 859.267 1810.68 860.427 1803.1 861.005 1795.5 C 865.347 1738.35 853.344 1680.69 830.501 1628.37 C 824.225 1614 816.811 1600.14 809.336 1586.35 C 780.104 1533.98 729.222 1483.13 674.89 1457.14 C 639.298 1440.11 608.291 1436.55 569.474 1440.54 C 696.038 1377.88 825.588 1321.45 957.661 1271.44 C 1020.41 1247.32 1096.43 1218.65 1160.21 1199.05 z" fill="rgb(243,230,200)" transform="translate(0,0)"></path>
<path d="M 1475.69 1125.43 C 1495.96 1124.56 1516.22 1127.4 1535.46 1133.83 C 1515.86 1140.04 1495.07 1150.98 1476.9 1160.54 C 1286.9 1260.58 1162.65 1465.45 1163.12 1679.2 C 1132.09 1692.99 1101.75 1707.48 1070.57 1721.04 L 1027.06 1740.63 C 1026.01 1705.04 1026.12 1672.11 1030.1 1636.61 C 1043.18 1519.78 1096.57 1395.03 1174.64 1306.67 C 1227.4 1246.39 1291.02 1196.58 1362.2 1159.82 C 1404.92 1137.34 1426.79 1128.42 1475.69 1125.43 z" fill="rgb(243,230,200)" transform="translate(0,0)"></path>
<path d="M 1542.91 1137.27 C 1573.5 1148.67 1595.47 1162.85 1619.68 1184.11 C 1603.82 1188.23 1589.39 1194.76 1574.62 1201.71 C 1512.55 1231.62 1457.22 1273.87 1412.03 1325.87 C 1357.04 1387.55 1316.47 1460.71 1293.28 1540.02 C 1285.43 1567.01 1278.92 1597.88 1280.64 1625.91 C 1261.97 1634.97 1239.57 1644.27 1220.39 1653 C 1202.8 1661.6 1184.97 1669.68 1166.9 1677.21 C 1165.25 1582.94 1198.09 1472.3 1245.66 1391.39 C 1298.49 1299.56 1375.02 1223.62 1467.26 1171.51 C 1487.95 1159.73 1519.95 1143.23 1542.91 1137.27 z" fill="rgb(243,230,200)" transform="translate(0,0)"></path>
<path d="M 1388.89 1140.37 L 1391.24 1140.31 C 1385.13 1144.22 1376.25 1147.36 1369.53 1150.68 C 1307.86 1181.11 1250.05 1221.97 1201.42 1271.11 C 1101.46 1370.73 1039.05 1501.87 1024.79 1642.28 C 1021.17 1677.74 1021.86 1706.96 1022.04 1742.71 C 997.19 1754.17 972.268 1765.47 947.277 1776.62 C 945.761 1771.14 946.418 1756.42 946.436 1750.03 C 946.508 1735.46 946.397 1720.89 946.103 1706.32 C 945.393 1681.49 943.561 1645.51 945.25 1621.15 C 952.394 1518.19 990.553 1412.35 1049.29 1327.63 C 1078.68 1285.27 1113.63 1247.06 1153.21 1214.02 C 1158.2 1209.78 1175.12 1195.21 1180.07 1193.25 C 1193.51 1187.9 1216.23 1182.11 1230.8 1178.49 C 1282.31 1165.71 1336.93 1149.76 1388.89 1140.37 z" fill="rgb(243,230,200)" transform="translate(0,0)"></path>
<path d="M 1678.93 1254.07 C 1681.89 1256.09 1686.19 1264.27 1690.4 1272.64 C 1710.83 1313.21 1732.25 1372.5 1730.08 1417.75 C 1729.84 1422.89 1700.96 1434.42 1692 1438.52 L 1634.91 1464.77 C 1564.86 1496.94 1491.91 1529.18 1422.56 1562.01 C 1411.57 1567.42 1398.61 1572.91 1387.32 1577.99 C 1391.33 1550.57 1407.14 1513.99 1419.82 1488.9 C 1470.22 1389.23 1571.38 1289.17 1678.93 1254.07 z" fill="rgb(243,230,200)" transform="translate(0,0)"></path>
<path d="M 1622.31 1188.08 C 1632.55 1189.64 1671.16 1238.83 1676.44 1250.29 C 1620.65 1269.74 1569.63 1300.81 1526.75 1341.45 C 1466.96 1398.38 1418.72 1464.86 1391.8 1543.44 C 1387.77 1555.19 1384.05 1567.18 1383.7 1579.66 C 1364.29 1588.84 1342.76 1597.99 1322.99 1606.96 C 1310.28 1612.93 1296.62 1618.7 1283.71 1624.39 C 1279.81 1568.74 1318.66 1477.63 1344.86 1429.17 C 1398.65 1329.69 1510.8 1219.27 1622.31 1188.08 z" fill="rgb(243,230,200)" transform="translate(0,0)"></path>
<path d="M 587.622 1444.42 C 647.314 1438.1 715.439 1480.97 755.027 1523.01 C 819.742 1591.72 858.18 1688.63 856.386 1783.17 C 856.23 1791.41 856.258 1824.75 840.584 1821.67 C 825.11 1816.94 805.879 1805.95 796.552 1792.26 C 799.008 1732.48 787.056 1685.64 759.524 1632.65 C 737.154 1591.2 703.01 1548.87 661.251 1526.36 C 634.734 1512.07 603.115 1507.01 574.01 1515.8 C 531.055 1528.77 497.174 1566.04 476.609 1604.76 C 471.97 1613.49 470.261 1623.85 465.332 1632.39 C 463.746 1635.14 461.543 1636.57 458.393 1637.05 C 452.356 1637.99 445.683 1633.88 441.133 1630.39 C 432.725 1623.94 425.123 1614.7 424.035 1603.82 C 421.619 1579.67 456.427 1525.22 472.393 1506.67 C 501.953 1472.32 541.984 1447.89 587.622 1444.42 z" fill="rgb(243,230,200)" transform="translate(0,0)"></path>
<path d="M 592.64 1518.35 C 622.32 1513.98 653.505 1526.12 676.874 1543.77 C 661.193 1551.27 641.263 1559.13 624.922 1566.01 C 593.583 1579.02 562.377 1592.35 531.307 1606 C 515.712 1613.22 486.829 1627.39 471.785 1632.32 C 489.451 1579.51 534.93 1526.39 592.64 1518.35 z" fill="rgb(243,230,200)" transform="translate(0,0)"></path>
<path d="M 651.545 1830.15 C 672.419 1834.76 699.104 1842.78 720.246 1848.42 C 769.56 1861.18 818.637 1874.83 867.454 1889.38 C 853.522 1896.66 838.401 1905.41 824.475 1913.06 C 822.538 1914.4 822.317 1914.43 820.095 1915.3 C 807.609 1912.23 793.546 1907.13 780.975 1903.41 L 690.279 1876.72 L 641.183 1862.26 C 636.328 1860.84 613.875 1855.39 612.721 1851.98 C 618.091 1845.24 642.519 1834.23 651.545 1830.15 z" fill="rgb(243,230,200)" transform="translate(0,0)"></path>
<path d="M 871.117 1891.31 C 911.254 1903.43 950.86 1917.23 989.83 1932.7 C 971.914 1940.57 957.803 1947.44 940.313 1956.44 C 935.959 1957.55 895.407 1941.03 887.564 1938.16 C 866.317 1930.55 844.898 1923.42 823.325 1916.78 C 839.984 1910.05 855.605 1900.38 871.117 1891.31 z" fill="rgb(243,230,200)" transform="translate(0,0)"></path>
<path d="M 285.691 1713.96 C 289.917 1714.53 309.532 1723.79 314.883 1726.13 C 344.665 1739.14 376.871 1747.59 406.712 1759.97 C 402.227 1762.36 371.563 1781.64 369.743 1781.92 C 327.262 1767.88 287.301 1749.51 246.124 1734.8 C 261.072 1724.99 269.563 1721.03 285.691 1713.96 z" fill="rgb(243,230,200)" transform="translate(0,0)"></path>
<path d="M 410.781 1761.9 C 412.728 1761.64 523.624 1794.95 535.052 1798.28 C 524.407 1804.69 508.307 1813.28 500.274 1822.23 C 463.409 1812.47 411.727 1796.3 376.005 1783.67 C 384.471 1776.59 400.831 1766.57 410.781 1761.9 z" fill="rgb(243,230,200)" transform="translate(0,0)"></path>
<path d="M 540.545 1799.11 C 575.397 1809.45 610.424 1819.19 645.61 1828.32 C 636.696 1831.97 613.499 1843.82 607.735 1851.63 L 607.508 1852.15 C 600.388 1852.37 514.758 1826.59 502.878 1822.75 C 515.188 1813.88 529.893 1807.3 540.545 1799.11 z" fill="rgb(243,230,200)" transform="translate(0,0)"></path>
<path d="M 994.22 1934.32 C 1016.95 1943.81 1034.02 1951.7 1056.04 1962.93 C 1040.79 1972.03 1022.65 1983.43 1006.7 1990.79 C 992.009 1978.92 962.387 1968.05 944.253 1958.7 C 960.852 1949.94 978.456 1942.91 994.22 1934.32 z" fill="rgb(243,230,200)" transform="translate(0,0)"></path>
<path d="M 1772.27 1452.95 C 1779.27 1452.35 1803.72 1455.55 1811.84 1456.62 C 1836.3 1459.87 1863.83 1462.22 1887.83 1467.52 C 1875.92 1471.63 1862.7 1478.23 1851.25 1483.7 C 1849.65 1484.52 1847.4 1485.36 1845.6 1485.08 C 1809.43 1479.37 1773.97 1474.15 1737.54 1470.06 C 1750.67 1462.88 1758.28 1458.59 1772.27 1452.95 z" fill="rgb(243,230,200)" transform="translate(0,0)"></path>
<path d="M 231.79 1688.83 C 234.677 1688.86 275.264 1708.48 280.946 1711.09 C 264.748 1718.44 258.629 1721.48 243.877 1732.11 L 242.932 1732.76 C 236.563 1732 202.239 1715.59 195.576 1711.53 C 205.69 1703.72 220.65 1695.32 231.79 1688.83 z" fill="rgb(243,230,200)" transform="translate(0,0)"></path>
<path d="M 1890.64 1468.14 C 1906.6 1470.31 1937.05 1476.64 1952.27 1481.15 C 1939.81 1487.01 1926.54 1491.79 1913.35 1498.07 C 1908.95 1500.02 1861.07 1488.65 1851.61 1487.21 C 1864.59 1481.11 1878.09 1475 1890.64 1468.14 z" fill="rgb(243,230,200)" transform="translate(0,0)"></path>
<path d="M 1692.54 1445.03 C 1701.66 1444.84 1714.7 1447.06 1724.07 1447.96 C 1738.19 1449.32 1752.33 1450.68 1766.46 1452.01 C 1761.84 1453.88 1757.51 1456.02 1753.05 1457.98 C 1746.42 1460.88 1736.2 1470.04 1729.76 1469.35 L 1653.05 1463.41 L 1692.54 1445.03 z" fill="rgb(243,230,200)" transform="translate(0,0)"></path>
<path d="M 288.813 758.093 C 315.712 745.806 348.545 733.797 376.264 722.317 L 570.83 642.124 C 638.28 614.61 709.821 581.295 777.353 555.994 L 803.289 607.519 C 763.219 625.769 721.324 643.274 680.866 660.884 L 467.876 753.553 L 381.223 790.62 C 372.477 794.328 354.88 799.397 347.95 804.56 C 313.334 830.354 301.983 886.327 316.186 925.496 C 325.797 952 346.775 971.839 375.804 962.582 C 394.007 956.778 410.824 949.581 428.346 942.061 C 452.277 931.629 476.289 921.384 500.38 911.327 L 758.287 801.448 C 803.573 782.003 850.699 760.443 896.62 742.912 C 936.34 789.925 987.752 833.634 1040.67 865.16 C 1058.62 875.853 1078.76 884.992 1097.74 893.883 C 1097.52 896.059 1097.46 898.248 1097.54 900.433 C 1098.41 923.025 1116.07 934.598 1135.19 943.002 C 1220.63 980.541 1322.41 981.211 1413.64 971.28 C 1452.07 967.097 1537.08 950.774 1562.75 922.766 C 1563.4 915.003 1564.47 899.777 1563.3 892.508 C 1652.12 855.949 1734.38 786.052 1794.56 711.649 C 1814.86 686.549 1836.4 650.705 1853.16 623.12 C 1900.21 641.255 1952.19 660.921 1998.54 680.452 C 1996.94 696.094 1998.41 719.681 1998.11 736.029 C 1997.97 743.565 1997.89 768.542 1998.76 775.272 L 798.474 1273.66 C 769.477 1257.78 735.531 1244.19 704.943 1230.88 L 577.02 1174.82 L 364.157 1081.69 C 293.023 1051.37 222.13 1020.48 151.484 989.041 C 139.138 983.478 52.9635 946.648 49.217 943.386 C 51.6954 940.311 54.9879 930.948 58.0857 926.207 C 65.2126 915.3 75.1252 907.952 78.3698 895.229 C 118.194 909.56 183.182 880.325 219.021 860.67 C 233.843 852.542 256.063 835.091 261.896 818.371 C 263.81 812.884 263.531 805.568 265.05 799.412 C 274.414 805.666 282.572 808.881 291.84 799.527 C 296.915 794.346 299.703 787.348 299.58 780.097 C 299.355 770.388 295.322 764.664 288.813 758.093 z" fill="rgb(243,230,200)" transform="translate(0,0)"></path>
<path d="M 1309.32 104.244 C 1333.89 102.319 1354.22 112.131 1370.74 130.127 C 1372.36 131.888 1379.04 143.569 1380.58 143.602 C 1388.92 144.107 1403 138.103 1411.12 141.234 C 1433.95 150.045 1447.04 176.041 1461.97 193.933 C 1467.94 201.093 1472.32 209.982 1476.6 217.586 C 1482.28 227.658 1484.58 240.008 1490.69 249.625 L 1492.3 249.314 C 1492.65 243.094 1485.23 226.349 1482.67 219.547 C 1528.78 212.214 1580.2 252.024 1595.45 293.822 C 1597.04 298.179 1597.83 302.735 1600.25 306.645 L 1601.8 306.341 C 1602.83 304.423 1603.08 302.287 1602.47 300.183 C 1587.71 249.842 1534.21 207.997 1481.17 216.308 C 1474.42 204.077 1469.05 195.198 1461.08 183.845 C 1514.34 176.863 1577.97 193.196 1599.36 247.661 L 1600.55 247.096 C 1621.03 237.395 1634.52 237.509 1654.35 248.213 C 1676.53 260.189 1692.45 276.748 1702.92 299.546 C 1728.29 292.514 1746.42 300.274 1755.92 327.043 C 1757.93 332.702 1757.15 338.191 1756.77 344.142 C 1784.6 357.459 1792.62 373.45 1800.42 402.833 C 1737.7 427.317 1660.58 445.83 1594.34 456.239 C 1368.36 492.099 1076.76 494.206 862.016 407.571 C 862.072 385.689 874.146 354.767 896.668 345.092 C 898.939 344.117 902.706 344.186 904.974 345.362 C 906.281 347.831 906.906 348.863 908.501 351.156 C 911.576 352.006 910.203 352.273 912.79 350.879 C 915.625 341.788 908.925 343.587 907.929 336.449 C 907.119 330.652 907.191 321.795 907.103 315.719 C 913.485 305.149 926.014 296.229 937.402 291.791 C 960.801 282.673 973.899 281.863 996.857 291.157 C 1009.67 270.835 1036.12 240.635 1062.7 244.322 C 1077.78 196.183 1114.45 167.699 1165.74 180.288 C 1163.83 184.218 1160.99 188.035 1163 192.136 C 1167.88 190.812 1173.34 176.778 1176.41 171.668 C 1193.6 143.1 1224.9 109.828 1261.87 117.562 C 1268.72 118.995 1275.71 123.173 1283.34 124.477 L 1284.19 123.51 C 1282.38 120.572 1279.79 119.47 1276.78 117.644 C 1288.35 110.528 1296 106.489 1309.32 104.244 z" fill="rgb(243,230,200)" transform="translate(0,0)"></path>
<path d="M 1176.03 227.171 C 1180.7 227.115 1180 226.416 1183.35 228.484 C 1181.1 231.161 1161.72 232.565 1146.66 251.809 C 1136.37 264.963 1126.95 303.081 1125.25 304.952 L 1123.85 303.669 C 1122.49 296.148 1125.62 284.457 1127.56 277.195 C 1090.03 272.769 1063.97 300.852 1044.92 329.194 C 1006.8 313.451 976.367 327.49 948.828 355.798 C 942.753 363.307 932.784 378.063 926.291 383.373 C 935.07 360.875 956.529 338.301 978.104 327.599 C 1001.19 316.149 1019.84 315.928 1043.79 323.634 C 1053 307.289 1066.35 293.652 1082.49 284.093 C 1097.12 275.48 1111.49 270.38 1128.35 274.73 C 1138.92 251.315 1149.84 233.747 1176.03 227.171 z" fill="rgb(1,0,0)" transform="translate(0,0)"></path>
<path d="M 1617.77 289.202 C 1653.27 288.136 1672.65 319.528 1679.84 350.511 C 1680.69 354.164 1679.74 367.579 1677.5 370.4 C 1675.9 368.136 1676.58 366.586 1676.61 363.119 C 1675.71 332.27 1655.49 293.908 1620.34 292.599 C 1616.03 292.438 1612.07 294.637 1607.33 294.395 L 1607.66 292.701 C 1611.27 290.284 1613.42 290.168 1617.77 289.202 z" fill="rgb(1,0,0)" transform="translate(0,0)"></path>
<path d="M 1463.91 344.26 C 1507.67 340.575 1475.57 384.93 1469.2 384.261 C 1468.72 376.114 1481.49 369.017 1483.73 356.014 C 1466.17 334.365 1444.11 358.978 1429.24 369.249 C 1436.78 355.326 1448.56 347.521 1463.91 344.26 z" fill="rgb(1,0,0)" transform="translate(0,0)"></path>
<path d="M 1406.19 230.306 C 1425.08 233.146 1471.52 262.22 1467.25 283.279 C 1464.84 281.849 1461.63 275.494 1459.61 272.596 C 1454.61 265.382 1448.69 258.848 1442 253.159 C 1424.05 237.594 1420.94 241.495 1406.5 232.572 L 1406.19 230.306 z" fill="rgb(1,0,0)" transform="translate(0,0)"></path>
<path d="M 1598.64 352.295 C 1613.91 353.763 1627.79 372.585 1624.02 386.117 C 1621.04 384.953 1618.16 371.094 1614.63 366.766 C 1610.6 361.829 1611 361.923 1605.35 357.99 L 1604.29 357.263 C 1598.12 356.262 1595.69 356.377 1590.17 359.565 C 1579.84 365.536 1580.27 374.16 1576.3 382.742 L 1574.7 382.75 C 1570.53 376.844 1573.58 372.168 1577.66 366.782 C 1583.97 358.471 1587.98 354.142 1598.64 352.295 z" fill="rgb(1,0,0)" transform="translate(0,0)"></path>
<path d="M 1465.77 259.368 C 1494.55 255.489 1530.38 287.824 1532.7 316.679 C 1529.41 315.819 1527.58 307.926 1525.79 303.912 C 1517.53 284.834 1501.22 270.541 1481.23 264.822 C 1476.21 263.383 1469.8 262.648 1465.77 259.368 z" fill="rgb(1,0,0)" transform="translate(0,0)"></path>
<path d="M 1308.56 166.164 C 1322.62 164.722 1336.47 171.81 1343.96 184.857 C 1345.04 186.743 1343.49 189.043 1342.53 190.641 C 1337.17 188.86 1337.13 171.282 1314.92 169.332 L 1313.75 169.24 C 1300.57 171.717 1290.59 177.712 1286 191.252 C 1285.2 193.614 1285.27 194.457 1283.38 196.123 L 1281.7 195.038 C 1277.35 182.474 1298.32 169.569 1308.56 166.164 z" fill="rgb(1,0,0)" transform="translate(0,0)"></path>
<path d="M 1118.9 379.838 C 1128.78 381.371 1139.8 392.66 1142.86 401.685 C 1142.49 404.731 1143.22 403.64 1141.15 405.368 C 1134.49 401.937 1129.94 376.365 1115.28 388.096 C 1105.87 402.227 1111.62 414.127 1108.52 421.134 L 1107.11 419.975 C 1102.12 406.033 1106.47 388.493 1118.9 379.838 z" fill="rgb(1,0,0)" transform="translate(0,0)"></path>
<path d="M 1719.49 375.993 C 1724.04 376.042 1726.41 376.238 1730.19 379.222 C 1734.32 382.485 1738.5 394.395 1735.61 398.633 C 1729.46 394.192 1732.86 365.967 1706.18 389.483 C 1698.7 397.568 1697.51 401.809 1691.36 409.045 L 1689.78 409.174 L 1688.59 407.318 C 1690.68 395.899 1709.02 380.378 1719.49 375.993 z" fill="rgb(1,0,0)" transform="translate(0,0)"></path>
<path d="M 1312.5 411.002 C 1329.14 410.16 1341.75 419.571 1349.48 433.91 L 1348.88 434.412 C 1337.77 427.401 1337.14 421.313 1323.12 415.181 C 1297.43 411.783 1292.93 436.16 1285.75 437.792 C 1287.27 425.935 1302.11 414.992 1312.5 411.002 z" fill="rgb(1,0,0)" transform="translate(0,0)"></path>
<path d="M 991.397 377.102 C 1000.38 378.498 1004.24 381.373 1009.91 388.863 C 1012.25 391.949 1017.18 401.385 1016.47 405.319 C 1013.71 403.553 1006.39 389.233 998.553 382.377 C 979.086 376.381 979.468 399.46 973.387 404.248 C 971.124 403.482 972.164 404.132 970.707 401.461 C 970.483 392.063 982.135 379.872 991.397 377.102 z" fill="rgb(1,0,0)" transform="translate(0,0)"></path>
<path d="M 1320.46 260.243 C 1328.73 261.097 1337.18 264.374 1337.65 273.902 L 1336.55 274.323 C 1321.81 261.274 1317.05 258.863 1304.34 276.642 C 1301.61 281.85 1299.84 294.175 1295.61 296.218 C 1290.47 283.158 1306.1 263.595 1320.46 260.243 z" fill="rgb(1,0,0)" transform="translate(0,0)"></path>
<path d="M 1228.1 330.094 C 1241.27 330.561 1252.29 344.535 1250.13 356.682 C 1246.73 356.081 1245.82 342.264 1234 333.941 C 1215.11 335.114 1218.91 347.605 1212.34 359.167 C 1210.26 358.721 1211.26 359.065 1209.45 357.077 C 1208.11 347.558 1219.43 334.024 1228.1 330.094 z" fill="rgb(1,0,0)" transform="translate(0,0)"></path>
<path d="M 1188.24 573.59 C 1238.62 579.385 1289.29 582.404 1340 582.632 C 1387.71 582.502 1430.97 579.262 1478.39 575.481 C 1472.22 675.008 1457.13 772.454 1419.44 865.248 C 1411.69 884.182 1393.52 916.657 1379.13 931.259 C 1353.14 934.885 1295.79 932.891 1268.72 931.759 C 1257.09 904.132 1245.7 882.048 1235.91 852.828 C 1205.76 762.75 1194.2 667.905 1188.24 573.59 z" fill="rgb(243,230,200)" transform="translate(0,0)"></path>
<path d="M 805.357 613.928 C 808.088 614.634 816.291 629.665 818.318 632.944 C 840.264 668.433 863.952 706.491 891.747 737.67 C 860.648 751.569 828.339 764.538 796.986 778.121 L 422.249 938.626 C 409.892 943.885 397.582 949.255 385.322 954.738 C 414.137 925.29 424.203 868.189 410.227 829.525 C 404.462 813.575 394.816 804.511 379.459 797.934 C 408.511 783.901 446.301 769.014 476.434 756.122 L 625.86 691.475 L 738.37 642.114 C 760.132 632.577 783.178 622.028 805.357 613.928 z" fill="rgb(243,230,200)" transform="translate(0,0)"></path>
<path d="M 1710.75 527.204 C 1713.11 528.707 1707.32 561.273 1706.63 565.968 C 1689.71 681.172 1643.49 788.41 1556.57 867.922 C 1533.91 888.65 1525.06 904.029 1492.85 912.256 C 1458.15 921.118 1424.92 925.84 1389.46 930.363 L 1388.87 929.829 C 1389.95 925.198 1403.73 906.425 1407.06 900.082 C 1458.84 801.583 1473.86 684.781 1482.63 575.288 C 1488.57 574.411 1494.67 573.581 1500.65 572.876 C 1572.07 564.448 1641.75 546.839 1710.75 527.204 z" fill="rgb(243,230,200)" transform="translate(0,0)"></path>
<path d="M 1932.37 353.682 C 1934.52 360.765 1926.8 411.258 1922.49 420.474 C 1920.02 425.747 1902.94 436.466 1896.88 440.059 C 1833.1 477.584 1765.07 505.546 1694.28 527.431 C 1423.91 611.007 1124.3 590.17 861.826 488.388 C 833.076 477.239 805.177 464.264 777.672 450.517 C 763.938 443.653 752.723 433.547 739.765 426.991 L 736.946 413.23 C 734.041 392.899 731.288 375.398 730.252 354.92 C 741.189 372.089 756.133 385.45 772.855 396.851 C 933.424 506.325 1242.19 523.091 1434.72 512.383 C 1500.02 508.713 1565.02 500.97 1629.35 489.202 C 1716.48 472.837 1880.23 429.855 1932.37 353.682 z" fill="rgb(243,230,200)" transform="translate(0,0)"></path>
<path d="M 947.92 523.197 C 1003.92 538.845 1059.1 553.185 1116.44 563.3 C 1138.61 567.212 1162.48 569.519 1185.02 572.964 C 1185.12 586.216 1186.54 601.61 1187.54 614.914 C 1194.42 706.228 1210.46 798.126 1243.08 883.964 C 1249.14 899.896 1256.98 915.328 1263.45 931.168 C 1242.54 929.303 1164.19 917.724 1150.16 905.788 C 1040.18 812.25 972.249 663.819 947.92 523.197 z" fill="rgb(243,230,200)" transform="translate(0,0)"></path>
<path d="M 1170.61 159.429 C 1173 159.005 1172.86 158.92 1175.16 159.577 C 1175.62 163.073 1169.82 171.412 1167.68 174.938 C 1149.78 169.722 1130.79 169.677 1113.47 177.163 C 1103.81 181.336 1093.88 189.918 1083.56 191.98 C 1074.92 193.705 1065.15 194.75 1056.38 195.971 C 1040.3 198.169 1024.27 200.682 1008.29 203.507 C 948.597 214.075 820.37 243.797 779.701 290.839 C 770.392 301.607 764.094 315.558 765.423 330.04 C 767.205 349.452 781.373 365.252 795.857 376.974 C 829.945 404.562 873.974 420.034 915.344 432.964 C 1090.96 487.855 1305.39 495.796 1487.97 476.839 C 1579.08 467.381 1828.05 429.67 1885.71 357.596 C 1894.09 347.114 1899.2 334.816 1897.5 321.181 C 1895.14 302.377 1880.15 287.664 1865.74 276.786 C 1802.58 229.119 1680.02 203.148 1603.15 191.822 C 1583.68 188.955 1564.02 187.514 1544.49 185.188 C 1516.28 181.828 1487.64 174.949 1459.05 179.125 C 1458.63 179.187 1458.2 179.259 1457.78 179.327 C 1453.21 172.5 1448.6 166.358 1443.67 159.802 C 1469.82 161.292 1497.82 162.414 1523.76 164.762 C 1559.18 166.669 1594.43 172.13 1629.37 178.043 C 1716.96 192.867 1824.82 215.634 1897.03 270.343 C 1913.37 282.723 1931.7 298.707 1934.22 320.397 C 1935.98 335.459 1929.4 348.866 1920.44 360.459 C 1885.12 406.177 1787.22 443.056 1731.93 459.05 C 1675.2 475.462 1615.42 487.458 1556.83 494.946 C 1353.81 520.893 1089.16 514.879 895.613 448.612 C 850.087 433.025 804.59 414.384 766.31 384.48 C 750.754 372.327 732.622 354.733 730.423 334.034 C 728.567 316.557 736.175 299.306 747.161 286.117 C 813.719 206.212 1068.57 168.881 1170.61 159.429 z" fill="rgb(243,230,200)" transform="translate(0,0)"></path>
<path d="M 741.438 432.736 C 745.718 434.969 753.976 441.19 758.561 444.093 C 767.145 449.528 774.613 453.672 783.733 458.161 C 816.236 474.134 849.939 488.865 883.873 501.584 C 903.003 508.755 923.217 514.552 942.573 521.439 C 944.356 527.002 945.327 532.425 946.591 538.102 C 972.253 653.436 1016.43 769.689 1096.46 858.598 C 1110.93 874.678 1126.42 889.298 1141.23 905.003 C 1127.02 901.783 1110.78 892.993 1097.42 887.195 C 942.266 819.852 833.25 676.094 770.047 523.218 C 758.631 495.606 747.012 462.276 741.438 432.736 z" fill="rgb(243,230,200)" transform="translate(0,0)"></path>
<path d="M 1920.83 429.029 C 1921.45 450.152 1891.04 529.767 1882.14 550.584 C 1826.79 680.066 1735.78 789.238 1613.81 860.912 C 1586.37 877.04 1561.01 886.867 1532.06 898.734 C 1532.32 897.12 1557.63 872.678 1560.1 870.423 C 1641.64 796.044 1685.83 697.369 1707.25 590.429 C 1711.16 570.954 1711.85 544.355 1717.24 525.842 C 1730.92 519.465 1753.42 512.926 1768.43 506.569 C 1821.24 484.198 1874.76 463.658 1920.83 429.029 z" fill="rgb(243,230,200)" transform="translate(0,0)"></path>
<path d="M 1081 197.584 C 1080.43 200.221 1066.45 218.047 1064.35 222.762 C 1062.12 227.784 1060.05 233.878 1057.53 238.701 C 1057.55 238.661 1044.24 242.234 1043.12 242.889 C 1022.34 252.21 1007.27 266.498 993.584 284.324 C 959.103 272.242 926.981 285.138 903.082 311.067 C 902.773 320.311 902.943 329.578 903.03 338.829 C 872.707 346.794 857.469 376.128 856.868 405.744 C 836.164 396.147 824.016 389.392 805.502 376.661 C 804.891 376.22 804.285 375.772 803.686 375.316 C 789.266 364.287 772.778 349.507 770.645 330.29 C 769.345 318.573 774.583 306.481 781.765 297.46 C 827.628 239.849 1008.46 206.126 1081 197.584 z" fill="rgb(243,230,200)" transform="translate(0,0)"></path>
<path d="M 1552.2 191.276 C 1570.52 193.258 1588.88 195.11 1607.09 197.885 C 1677.64 208.631 1839.93 242.166 1883.13 301.894 C 1889.72 311.008 1892.87 320.761 1890.82 331.983 C 1887.41 350.646 1875.06 362.051 1860.4 372.481 C 1841.55 384.676 1827.31 392.086 1806.71 400.804 C 1797.96 370.334 1790.16 357.142 1763.94 340.041 C 1764.57 311.127 1736.67 283.462 1706.99 292.751 C 1695.88 271.952 1678.77 254.982 1657.87 244.056 C 1638.18 233.7 1625.26 232.78 1604.23 239.212 C 1591.76 216.662 1575.05 202.42 1552.2 191.276 z" fill="rgb(243,230,200)" transform="translate(0,0)"></path>
<path d="M 1555.58 895.966 C 1558.74 898.194 1557.06 917.42 1556.84 922.026 C 1537.02 938.454 1483.54 952.146 1457.79 957.66 C 1373.1 975.799 1182.09 981.33 1112.8 921.574 C 1108.27 916.884 1101.33 905.467 1103.8 898.921 C 1108.68 897.263 1125 905.132 1131.12 907.517 C 1252.39 954.772 1437.44 949.458 1555.58 895.966 z" fill="rgb(243,230,200)" transform="translate(0,0)"></path>
<path d="M 361.271 803.145 C 383.988 801.746 397.93 811.596 405.696 833.276 C 419.038 870.523 406.805 943.866 365.402 958.986 C 306.293 964.213 295.885 837.588 361.271 803.145 z" fill="rgb(243,230,200)" transform="translate(0,0)"></path>
<path d="M 226.651 785.397 C 260.987 783.024 267.315 810.721 246.618 831.689 C 216.368 862.336 148.656 891.361 105.648 893.275 C 97.0749 893.367 85.9781 893.648 78.7768 888.455 C 69.9963 882.125 74.7577 870.873 80.5667 864.324 C 116.568 823.74 172.411 791.202 226.651 785.397 z" fill="rgb(243,230,200)" transform="translate(0,0)"></path>
<path d="M 274.496 760.802 C 295.696 765.635 302.119 786.508 283.176 798.242 C 261.728 802.502 256.839 774.259 274.496 760.802 z" fill="rgb(243,230,200)" transform="translate(0,0)"></path>
<metadata><recraft-signature>{"signed_by": "recraft", "signature_b64": "yqz94tMSNUTPr0+JC3/oVxVLFARobNhVNZViPBarMpFtd+tOpsB06zgBvbL2o1Ewtfsp1d+9Vp5g/+HdEbs3DA==", "signing_algo": "Ed25519", "generation_timestamp": 1778091869, "identifier": "05097ed7-2af5-471d-9a52-0d5bd14aea20"}</recraft-signature></metadata></svg>