<svg xmlns="http://www.w3.org/2000/svg" height="1024" preserveAspectRatio="none" style="display: block;" version="1.1" viewBox="0 0 2048 2048" width="1024">
<path d="M 0 0 L 1788.29 0 L 2048 0 L 2048 1290.88 L 2048 1295.85 L 2048 2048 L 622.837 2048 L 528.955 2048 L 0 2048 L 0 1679.1 L 0 529.462 L 0 0 z" fill="rgb(5,4,3)" transform="translate(0,0)"></path>
<path d="M 1788.29 0 L 2048 0 L 2048 1290.88 L 2048 1295.85 L 2048 2048 L 622.837 2048 L 528.955 2048 L 0 2048 L 0 1679.1 L 0 529.462 L 0.6954 528.969 L 1.04786 533.405 C 1.98285 560.622 1.29419 590.051 1.17457 617.415 C 0.85656 667.749 0.895061 718.084 1.29007 768.418 C 1.3615 773.874 0.726979 802.663 1.84842 806.101 L 1.65186 812.234 C 1.03773 815.816 0.788295 846.045 1.26594 849.924 C 39.2179 832.327 77.0652 814.505 114.806 796.459 C 194.029 759.364 273.02 721.774 351.774 683.693 L 993.546 374.958 C 1007.39 401.554 1019.57 429.547 1032.23 456.796 C 1018.74 464.278 1004.39 471.231 991.35 479.614 C 915.825 528.163 848.182 601.549 836.102 693.815 C 834.304 707.552 834.761 720.611 835.067 734.292 L 731.911 781.849 C 716.24 789.184 693.767 798.926 679.621 807.765 C 656.004 771.819 623.998 751.562 584.63 736.598 C 507.163 707.208 421.193 709.794 345.633 743.789 C 286.463 770.695 250.559 809.745 256.903 875.834 C 261.71 925.91 271.064 956.532 292.536 1001.91 C 278.768 1007.5 259.809 1017.78 246.236 1024.61 L 172.6 1061.2 C 138.888 1077.8 105.301 1094.67 71.8431 1111.78 C 59.9194 1117.81 33.1424 1130 24.0875 1137.18 L 24.9678 1137.2 L 25.2039 1136.16 L 24.1464 1137.29 C 33.3597 1137.71 268.986 1016.54 293.993 1004.59 C 317.216 1039.83 339.43 1061.09 375.47 1082.52 C 359.781 1089.57 341.909 1099.58 326.014 1107.32 L 90.4976 1223.75 C 65.1001 1236.55 31.099 1251.31 7.79855 1267.8 C -2.35883 1274.99 2.92368 1346.47 2.47489 1361.27 C 2.24871 1368.72 7.67348 1379.23 13.1063 1384.5 C 40.8358 1411.38 74.6499 1432.64 106.605 1454.19 C 142.747 1478.27 178.529 1501.57 214.472 1525.6 C 242.32 1544.22 277.637 1564.42 303.107 1584.94 L 152.763 1663.93 C 141.12 1670.06 74.5959 1703.51 69.7456 1709.65 C 77.3928 1709.19 279.884 1601.36 307.775 1587.52 L 513.604 1723.84 C 551.704 1748.99 593.077 1778.79 633.984 1798.92 C 649.335 1806.48 670.458 1809.96 687.593 1807.42 C 694.967 1806.3 702.166 1804.23 709.012 1801.27 C 730.472 1792.2 762.069 1774.2 783.615 1762.81 L 920.065 1690.28 L 1106.95 1591.62 C 1297.45 1492.42 1487.28 1391.92 1676.4 1290.12 C 1748.61 1251.71 1822.02 1214.97 1893.98 1175.95 C 1921.76 1162.24 1916.11 1142.77 1917.27 1118.12 C 1919.64 1067.42 1915.02 1062.42 1872.29 1035.26 C 1877.69 1024.2 1888.57 1008.36 1895.12 996.058 C 1919.21 951.177 1937.66 903.499 1950.08 854.102 C 1953.34 841.478 1956.28 819.123 1960.24 808.421 C 2017.67 653.277 1921.16 529.928 1784.17 460.253 C 1612.11 372.745 1394.85 357.584 1205.44 394.272 C 1166.53 401.808 1125.05 414.925 1086.61 427.104 C 1075.04 401.755 1063.68 376.309 1052.53 350.769 C 1073.61 339.502 1099.72 328.569 1121.64 318.414 L 1228.56 267.886 L 1599.1 91.7348 L 1712.27 38.4391 C 1733.31 28.7577 1769.29 13.4738 1788.14 2.53396 C 1788.94 1.40344 1788.6 2.17732 1788.29 0 z" fill="rgb(254,252,238)" transform="translate(0,0)"></path>
<path d="M 622.789 2047.29 C 629.972 2045.35 647.409 2035.37 654.801 2031.45 L 715.896 1999.12 L 979.511 1861.24 L 1735.16 1461.72 L 1936.15 1355.49 C 1973.02 1336.04 2011.78 1316.3 2048 1295.85 L 2048 2048 L 622.837 2048 L 622.789 2047.29 z" fill="rgb(239,229,195)" transform="translate(0,0)"></path>
<path d="M 1.36402 1675.27 C 14.7974 1686.62 45.8321 1706.59 61.8241 1717.81 L 198.189 1813.63 C 266.774 1862.93 335.71 1911.74 404.992 1960.05 L 485.418 2016.16 C 499.429 2025.99 514.909 2038.29 529.111 2047.18 L 528.955 2048 L 0 2048 L 0 1679.1 L 1.36402 1675.27 z" fill="rgb(239,229,195)" transform="translate(0,0)"></path>
<path d="M 622.789 2047.29 C 621.731 2046.41 621.392 2045.87 620.507 2044.81 L 621.289 2042.9 C 634.229 2033.79 651.844 2025.44 665.987 2018 C 691.79 2004.34 717.675 1990.83 743.641 1977.48 L 980.965 1853.24 L 1822.61 1408.39 L 2004.53 1312.49 C 2018.1 1305.29 2031.48 1297.7 2045.1 1290.59 C 2046.07 1290.69 2047.03 1290.78 2048 1290.88 L 2048 1295.85 C 2011.78 1316.3 1973.02 1336.04 1936.15 1355.49 L 1735.16 1461.72 L 979.511 1861.24 L 715.896 1999.12 L 654.801 2031.45 C 647.409 2035.37 629.972 2045.35 622.789 2047.29 z" fill="rgb(5,4,3)" transform="translate(0,0)"></path>
<path d="M 1.36402 1675.27 L 2.00539 1671.98 C 6.59677 1670.07 17.3794 1679.92 21.9876 1683.04 C 42.7435 1697.04 63.2935 1711.34 83.6312 1725.94 C 129.742 1759.17 177.59 1790.43 223.341 1824.23 C 227.631 1827.4 231.989 1830.59 236.397 1833.58 C 239.092 1832.05 252.575 1824.51 254.86 1823.67 C 270.302 1817.99 384.813 1752.76 392.876 1753.72 C 385.558 1762.31 261.02 1824.21 240.677 1835.53 C 333.845 1905.98 433.144 1969.56 527.038 2039.08 C 529.283 2040.74 531.433 2042.63 532.192 2045.39 C 530.474 2046.79 531.174 2046.44 529.111 2047.18 C 514.909 2038.29 499.429 2025.99 485.418 2016.16 L 404.992 1960.05 C 335.71 1911.74 266.774 1862.93 198.189 1813.63 L 61.8241 1717.81 C 45.8321 1706.59 14.7974 1686.62 1.36402 1675.27 z" fill="rgb(5,4,3)" transform="translate(0,0)"></path>
<path d="M 2045.71 1125.92 L 2047.27 1128.99 C 2046.97 1129.59 2046.66 1130.19 2046.36 1130.78 C 2022.27 1143.26 1984.18 1163.7 1961.7 1175.99 C 1582.07 1382.27 1200.24 1584.48 816.285 1782.59 C 692.325 1846.58 568.704 1911.22 445.426 1976.51 C 444.665 1975.56 445.129 1976.25 444.523 1974.17 C 449.153 1967.93 645.526 1867.66 671.25 1854.11 C 1008.24 1679.41 1344.26 1502.82 1679.27 1324.34 C 1801.89 1259.09 1924.04 1192.95 2045.71 1125.92 z" fill="rgb(5,4,3)" transform="translate(0,0)"></path>
<path d="M 1860.02 111.918 C 1861.09 112.612 1860.43 112.08 1861.57 113.928 C 1858.97 117.617 1826.71 131.523 1819.95 134.812 C 1778.69 155.353 1737.27 175.56 1695.68 195.432 L 1355.46 360.728 L 1354.32 360.549 L 1354.42 358.839 C 1360.55 353.094 1405.77 332.704 1415.73 327.97 L 1496.48 289.056 C 1617.26 229.202 1738.45 170.155 1860.02 111.918 z" fill="rgb(5,4,3)" transform="translate(0,0)"></path>
<path d="M 1896.29 293.839 C 1897.95 294.317 1897.13 293.863 1898.53 295.529 C 1897.44 297.058 1897.11 297.349 1895.39 298.212 C 1835.61 328.199 1775.27 357.053 1715.77 387.606 C 1703.19 394.068 1690.22 400.96 1677.32 406.616 C 1676.01 406.759 1676.8 406.811 1675.06 405.928 C 1677.46 400.613 1703.83 389.127 1711.02 385.523 C 1732.53 374.645 1754.1 363.901 1775.75 353.292 C 1815.23 333.983 1856.74 312.049 1896.29 293.839 z" fill="rgb(5,4,3)" transform="translate(0,0)"></path>
<path d="M 2030.2 460.757 C 2033.21 460.674 2031.87 460.303 2034.39 461.807 C 2032.42 465.584 1999.53 481.22 1993.93 484.07 C 1962.97 499.708 1932.15 515.636 1901.48 531.854 C 1899.45 533.209 1900.56 532.902 1898.13 532.788 L 1897.69 531.104 C 1899.6 526.485 1934.26 510.017 1940.93 506.59 C 1970.8 491.536 2000.56 476.258 2030.2 460.757 z" fill="rgb(5,4,3)" transform="translate(0,0)"></path>
<path d="M 0 0 L 1788.29 0 C 1788.6 2.17732 1788.94 1.40344 1788.14 2.53396 C 1782.11 1.94888 1777.72 1.83254 1771.7 1.75336 C 1761.01 8.29354 1748.71 13.3647 1737.28 18.6386 C 1720.83 26.2357 1704.42 33.9308 1688.06 41.7235 C 1629.33 70.1883 1570.39 98.2237 1511.25 125.827 L 1156.93 294.417 C 1121.13 311.526 1085.19 328.34 1049.12 344.855 C 1045.91 339.827 1042.94 335.202 1036.24 334.23 C 1024.92 332.587 1011.68 338.516 1002.74 343.926 C 989.169 352.138 991.911 367.255 987.766 369.748 C 977.954 375.65 962.391 382.529 951.688 387.587 C 927.98 398.782 904.373 410.189 880.869 421.806 C 872.112 410.793 871.029 406.463 858.698 399.391 C 845.09 408.503 805.054 425.255 788.266 433.72 C 743.555 456.265 698.106 478.098 652.801 499.432 L 253.711 691.337 L 106.456 760.995 C 76.1931 775.101 29.4197 795.419 1.65186 812.234 L 1.84842 806.101 C 0.726979 802.663 1.3615 773.874 1.29007 768.418 C 0.895061 718.084 0.85656 667.749 1.17457 617.415 C 1.29419 590.051 1.98285 560.622 1.04786 533.405 L 0.6954 528.969 L 0 529.462 L 0 0 z" fill="rgb(239,229,195)" transform="translate(0,0)"></path>
<path d="M 843.718 221.664 C 859.65 217.676 879.303 212.266 893.091 203.771 C 933.627 177.159 949.906 147.671 996.54 127.906 C 1051.51 104.607 1130.21 125.731 1080.39 197.281 C 1045.88 246.84 969.667 246.821 917.813 264.878 C 903.479 269.869 886.468 280.354 874.377 290.647 C 883.1 324.364 887.157 373.868 858.698 399.391 C 845.09 408.503 805.054 425.255 788.266 433.72 C 743.555 456.265 698.106 478.098 652.801 499.432 L 253.711 691.337 L 106.456 760.995 C 76.1931 775.101 29.4197 795.419 1.65186 812.234 L 1.84842 806.101 C 0.726979 802.663 1.3615 773.874 1.29007 768.418 C 0.895061 718.084 0.85656 667.749 1.17457 617.415 C 1.29419 590.051 1.98285 560.622 1.04786 533.405 L 0.6954 528.969 C 0.93801 528.173 1.68397 526.802 2.0812 525.997 C 9.67133 522.101 18.5524 518.817 26.4048 514.913 C 61.9292 497.254 98.2786 481.211 134.156 464.352 L 401.174 338.363 L 609.286 239.469 L 684.493 203.278 C 706.072 192.756 747.81 168.372 771.458 170.531 C 802.236 173.339 825.184 198.936 843.718 221.664 z" fill="rgb(205,169,139)" transform="translate(0,0)"></path>
<path d="M 843.718 221.664 C 859.65 217.676 879.303 212.266 893.091 203.771 C 933.627 177.159 949.906 147.671 996.54 127.906 C 1051.51 104.607 1130.21 125.731 1080.39 197.281 C 1045.88 246.84 969.667 246.821 917.813 264.878 C 903.479 269.869 886.468 280.354 874.377 290.647 C 883.1 324.364 887.157 373.868 858.698 399.391 C 845.09 408.503 805.054 425.255 788.266 433.72 C 743.555 456.265 698.106 478.098 652.801 499.432 L 253.711 691.337 L 106.456 760.995 C 76.1931 775.101 29.4197 795.419 1.65186 812.234 L 1.84842 806.101 C 30.7011 789.25 65.3174 774.004 95.8138 759.727 L 221.618 700.186 L 653.777 492.493 L 784.801 428.653 L 829.598 407.276 C 844.796 400.025 861.135 394.399 867.594 377.01 C 880.679 340.223 871.945 304.244 859.965 267.694 C 847.684 230.222 801.386 165.883 754.419 178.148 C 738.52 182.299 703.886 200.968 687.275 209.092 L 575.505 262.988 L 197.188 441.598 L 59.2117 505.895 C 41.0065 514.334 20.3495 525.957 2.18113 532.976 L 1.04786 533.405 L 0.6954 528.969 C 0.93801 528.173 1.68397 526.802 2.0812 525.997 C 9.67133 522.101 18.5524 518.817 26.4048 514.913 C 61.9292 497.254 98.2786 481.211 134.156 464.352 L 401.174 338.363 L 609.286 239.469 L 684.493 203.278 C 706.072 192.756 747.81 168.372 771.458 170.531 C 802.236 173.339 825.184 198.936 843.718 221.664 z" fill="rgb(5,4,3)" transform="translate(0,0)"></path>
<path d="M 1040.03 124.446 C 1056.78 124.693 1075.73 127.032 1085.65 142.463 C 1097.25 160.518 1083.69 184.84 1071.37 198.745 C 1035.44 239.303 976.266 241.001 927.579 255.293 C 912.917 259.597 901.45 264.957 888.163 272.334 C 882.953 275.561 877.626 280.09 872.794 283.963 C 865.497 261.94 858.576 247.858 847.448 227.905 C 864.837 222.688 884.093 217.053 899.5 207.042 C 918.628 194.613 934.961 178.258 952.01 163.089 C 976.928 140.918 1006.55 127.037 1040.03 124.446 z" fill="rgb(205,169,139)" transform="translate(0,0)"></path>
<path d="M 800.632 233.144 C 803.032 233.056 802.042 232.759 803.693 233.63 C 799.66 236.227 777.971 242.542 772.027 244.528 C 756.447 249.717 740.97 255.208 725.604 260.998 C 684.208 276.536 634.995 297.828 594.233 316.322 C 404.305 401.902 225.171 509.656 60.5679 637.336 C 59.7485 637.84 59.1179 637.91 58.1467 638.186 C 65.7055 628.214 117.559 589.638 129.191 581.015 C 201.298 527.871 276.558 479.142 354.556 435.095 C 456.835 375.597 563.112 323.255 672.625 278.445 C 708.525 263.923 763.283 241.904 800.632 233.144 z" fill="rgb(5,4,3)" transform="translate(0,0)"></path>
<path d="M 749.968 311.103 C 750.578 311.012 750.078 311.036 752.043 311.294 C 750.265 312.874 694.272 334.998 687.419 337.896 C 636.478 359.434 586.509 383.202 537.657 409.132 C 421.332 469.368 311.464 541.329 209.762 623.892 C 168.203 658.044 131.058 692.647 91.847 729.273 L 90.7715 730.095 L 90.36 729.186 C 96.2507 720.329 134.601 685.38 144.654 675.838 C 171.013 650.821 203.791 623.925 232.401 601.241 C 344.846 512.84 466.808 437.269 596.023 375.931 C 641.735 353.813 701.581 326.692 749.968 311.103 z" fill="rgb(5,4,3)" transform="translate(0,0)"></path>
<path d="M 1.65186 812.234 C 29.4197 795.419 76.1931 775.101 106.456 760.995 L 253.711 691.337 L 652.801 499.432 C 698.106 478.098 743.555 456.265 788.266 433.72 C 805.054 425.255 845.09 408.503 858.698 399.391 C 871.029 406.463 872.112 410.793 880.869 421.806 C 857.523 434.888 829.128 447.638 804.85 459.467 L 661.837 528.711 L 187.842 756.103 L 65.8556 813.624 C 58.0877 817.195 6.95161 840.448 2.29261 843.952 L 1.26594 849.924 C 0.788295 846.045 1.03773 815.816 1.65186 812.234 z" fill="rgb(205,169,139)" transform="translate(0,0)"></path>
<path d="M 896.788 961.945 C 899.506 963.141 919.629 1003.31 923.15 1009.33 C 930.71 1022.12 938.827 1034.58 947.478 1046.67 C 979.83 1092.54 1018.36 1133.73 1061.97 1169.07 C 1067.78 1173.82 1106.15 1201.33 1106.92 1202.53 C 1133.62 1244.62 1170.34 1266.18 1214.05 1286.92 C 1182.14 1302.01 1149.79 1319.5 1117.88 1334.84 C 1116.64 1335.43 1115.88 1336.69 1115.27 1337.88 L 1116.41 1338.69 C 1122.24 1337.6 1142.44 1326.4 1148.95 1323.16 C 1171.69 1311.84 1194.3 1299.15 1217.32 1288.38 C 1238.31 1298.25 1274.7 1307.23 1297.09 1312.43 C 1277.22 1320.37 1238.93 1341.5 1218.28 1352.21 C 1167.57 1378.3 1117.02 1404.72 1066.64 1431.45 C 935.964 1498.74 805.997 1567.4 676.761 1637.42 C 665.097 1643.67 586.187 1684.27 581.335 1690.03 L 582.389 1690.56 C 593.44 1687.41 624.696 1668.85 635.782 1662.89 L 769.393 1591.26 L 1061.74 1437.88 C 1116.14 1408.97 1170.76 1380.46 1225.58 1352.36 C 1250.86 1339.43 1276.78 1325.74 1302.37 1313.64 C 1376.71 1327.84 1437.18 1326.33 1511.36 1310.22 C 1489.6 1324.24 1461.13 1338.37 1437.97 1350.62 L 1295.9 1425.04 L 756.599 1710.63 C 738.912 1720.19 718.079 1732.25 698.916 1737.77 C 654.322 1750.6 614.995 1719.48 579.666 1697.14 C 547.782 1676.98 516.649 1653.23 483.943 1634.41 C 548.324 1601.1 612.734 1565.49 676.907 1531.55 L 739.386 1498.03 C 747.14 1493.81 759.987 1488.57 766.442 1483.35 L 766.271 1482.13 C 761.955 1481.59 703.544 1513.94 694.396 1518.83 L 594.359 1571.95 L 526.072 1608.25 C 511.592 1615.9 496.054 1623.6 482.183 1632.08 C 460.726 1615.8 436.005 1601.66 413.706 1586.38 C 399.187 1576.43 383.444 1568.07 369.264 1557.53 C 387.002 1545.96 409.261 1536 428.419 1526.11 C 444.938 1538.29 460.04 1548.59 480.378 1553.25 C 502.747 1558.3 526.207 1554.11 545.451 1541.64 C 573.135 1523.81 576.767 1495.53 558.774 1469.26 C 567.591 1465.37 581.961 1457.06 591.043 1452.28 L 657.754 1417.29 C 704.636 1393.32 751.324 1368.97 797.812 1344.24 C 809.702 1337.96 842.239 1322.71 849.918 1315.25 C 838.509 1318.38 816.449 1330.78 805.012 1336.77 L 736.486 1372.71 C 708.826 1387.23 681.058 1402 653.277 1416.26 C 620.764 1432.94 588.688 1448.56 557.236 1467.31 C 504.146 1409.14 413.298 1376.86 336.528 1405.39 C 328.539 1409.1 321.847 1414.92 313.928 1418.88 C 285.303 1433.19 256.109 1450.69 226.775 1463.23 C 205.068 1450.87 177.358 1430.17 155.762 1416.31 C 139.096 1405.61 107.42 1387.41 93.273 1375.67 C 107.777 1363.58 138.105 1349.39 155.727 1340.35 C 187.885 1324.08 219.928 1307.58 251.854 1290.86 C 349.847 1239.83 448.224 1189.55 546.977 1140.01 L 703.097 1060.4 C 767.423 1027.11 831.988 994.295 896.788 961.945 z" fill="rgb(205,169,139)" transform="translate(0,0)"></path>
<path d="M 837.806 1214.95 L 838.495 1215.58 L 838.285 1217.22 C 833.55 1221.15 814.441 1230.65 807.758 1234.13 C 790.394 1243.11 773.092 1252.21 755.852 1261.42 C 663.818 1310.37 568.222 1357.54 477.47 1408.24 L 476.392 1407.14 C 479.045 1401.23 592.784 1342.94 607.003 1335.5 L 837.806 1214.95 z" fill="rgb(5,4,3)" transform="translate(0,0)"></path>
<path d="M 833.553 1080.94 L 834.331 1081.57 L 834.4 1082.98 C 830.105 1086.7 814.576 1094.07 808.848 1096.99 L 760.964 1121.45 L 571.068 1218.9 C 570.384 1218.09 570.736 1218.68 570.76 1216.87 C 576.821 1211.38 594.821 1203.38 603.116 1199.04 C 631.561 1183.96 660.189 1169.23 688.994 1154.86 C 736.738 1130.69 785.652 1103.93 833.553 1080.94 z" fill="rgb(5,4,3)" transform="translate(0,0)"></path>
<path d="M 1033.64 1314.02 L 1034.52 1314.93 C 1033.03 1318.82 1014.91 1326.6 1009.88 1329.23 C 992.453 1338.51 974.947 1347.64 957.362 1356.62 L 821.333 1426.64 L 820.354 1424.65 C 824.638 1419.35 1017.05 1321.77 1033.64 1314.02 z" fill="rgb(5,4,3)" transform="translate(0,0)"></path>
<path d="M 465.066 1285.85 L 467.543 1285.97 L 468.2 1287 C 463.627 1292.33 309.482 1368.17 287.941 1380.18 L 286.527 1380.5 L 286.136 1379.11 C 287.502 1377.48 288.411 1376.43 290.334 1375.41 C 334.215 1352.19 378.772 1330.32 422.682 1307.14 C 436.504 1299.85 450.845 1292.26 465.066 1285.85 z" fill="rgb(5,4,3)" transform="translate(0,0)"></path>
<path d="M 1384.23 626.397 C 1404.89 624.674 1436.38 632.004 1457.54 635.174 C 1492.39 640.29 1527.28 645.159 1562.2 649.779 C 1579.11 652.127 1598.09 650.234 1613.06 654.509 C 1619.98 656.484 1630.83 672.339 1638.77 676.503 C 1654.8 684.915 1672.15 690.495 1687.89 699.54 C 1713.25 714.121 1732.84 735.2 1754.12 754.841 C 1764.06 764.019 1776.86 773.417 1785.98 782.963 C 1818.08 816.541 1831.56 858.758 1830.84 904.478 C 1825.1 911.841 1815.26 919.847 1807.53 925.384 C 1614.93 1063.23 1297.14 1069.33 1089.45 975.048 C 1046.19 955.289 1016.87 936.396 981.295 904.611 C 977.101 825.486 1019.74 765.986 1082.27 722.749 C 1105.48 824.368 1142.73 960.814 1244.54 1013.9 C 1249.16 1016.31 1258.59 1020.08 1263.58 1018.19 C 1266.2 1015.68 1266.96 1007.46 1267.69 1003.33 C 1274.82 998.309 1284.19 991.9 1293.93 995.619 C 1301.87 998.655 1297.92 1007.3 1300.53 1013.74 L 1302.31 1014.28 C 1322.23 1000.51 1334.69 971.14 1339.49 948.198 C 1362.22 839.694 1317.12 751.047 1260.58 662.297 C 1302.61 651.965 1344.32 629.766 1384.23 626.397 z" fill="rgb(239,229,195)" transform="translate(0,0)"></path>
<path d="M 1354.7 774.023 C 1362.93 774.389 1374.66 780.138 1382.8 781.883 C 1405.67 786.789 1428.11 791.097 1449.03 802.244 C 1473.64 815.356 1490.55 840.55 1509.98 859.931 C 1518.99 868.918 1529.39 873.581 1537.47 885.318 C 1544.36 895.333 1546.3 911.822 1553.38 919.634 C 1561.97 929.116 1575.32 931.66 1582.95 944.603 C 1588.89 954.663 1589.21 963.612 1592.72 974.312 C 1594.4 979.444 1596.42 983.268 1598.18 989.221 C 1589.24 982.862 1585.4 966.072 1583.45 955.741 C 1579.67 935.652 1559.36 934.345 1548.32 919.097 C 1542.42 910.94 1539.74 897.428 1534.61 889.876 C 1528.92 881.51 1515.61 871.745 1508.25 863.91 C 1479.17 832.936 1463.52 806.573 1420.27 794.768 C 1400.14 789.273 1373.51 784.365 1355.46 774.531 C 1355.21 774.361 1354.95 774.192 1354.7 774.023 z" fill="rgb(5,4,3)" transform="translate(0,0)"></path>
<path d="M 1502.51 763.251 C 1510.63 764.597 1527.57 769.228 1536.09 771.369 C 1569.5 779.87 1602.68 788.696 1635 800.895 C 1673.8 815.54 1682.19 858.581 1712.01 882.567 C 1723.13 891.512 1730.88 906.775 1736.06 919.814 C 1724.88 911.422 1724.17 897.587 1712.93 887.997 C 1707.29 882.642 1699.42 877.686 1694.75 871.426 C 1678.25 849.243 1665.46 820.499 1639.73 807.181 C 1630.07 802.183 1615.07 798.083 1604.41 794.771 C 1585.61 788.865 1566.75 783.182 1547.82 777.723 C 1534.68 774.048 1521.34 770.654 1508.24 766.873 C 1503.84 765.605 1503.94 766.053 1502.51 763.251 z" fill="rgb(5,4,3)" transform="translate(0,0)"></path>
<path d="M 1581.51 656.465 C 1584.67 656.287 1583.36 655.823 1585.67 657.558 L 1585.82 659.323 C 1581.32 663.175 1522.34 665.187 1511.91 669.806 C 1510.54 670.414 1500.16 672.831 1498.25 673.35 L 1495.62 673.738 L 1495.13 672.388 C 1512.8 661.198 1559.99 658.348 1581.51 656.465 z" fill="rgb(5,4,3)" transform="translate(0,0)"></path>
<path d="M 1087.22 800.584 C 1091.76 811.825 1066 849.006 1060.72 860.752 C 1055.2 873.053 1052.15 878.743 1047.89 892.368 C 1045.25 885.631 1059.57 854.235 1063.57 847.492 C 1072.99 831.597 1080.47 817.88 1087.22 800.584 z" fill="rgb(5,4,3)" transform="translate(0,0)"></path>
<path d="M 1570.22 703.171 C 1589.01 708.608 1610.63 710.233 1613.88 734.289 C 1610.94 731.973 1605.36 718.881 1598.01 714.312 C 1587.37 707.696 1577.45 712.183 1570.22 703.171 z" fill="rgb(5,4,3)" transform="translate(0,0)"></path>
<path d="M 1740.33 779.711 C 1753.3 780.207 1761.49 793.378 1764.8 804.706 C 1761.39 803.474 1753.77 791.647 1750.26 788.301 C 1746.81 785.02 1744.14 782.659 1740.33 779.711 z" fill="rgb(5,4,3)" transform="translate(0,0)"></path>
<path d="M 1788.05 841.543 L 1791.44 842.188 C 1797.7 846.821 1801.62 858.048 1803.24 865.484 C 1798.08 864.239 1791.18 847.136 1788.05 841.543 z" fill="rgb(5,4,3)" transform="translate(0,0)"></path>
<path d="M 1409.78 743.396 L 1412.18 743.719 L 1412.31 744.651 C 1408.14 746.334 1389.93 748.554 1383.74 749.664 L 1380.18 748.701 L 1379.81 747.708 C 1383.93 744.646 1403.55 743.877 1409.78 743.396 z" fill="rgb(5,4,3)" transform="translate(0,0)"></path>
<path d="M 1447.17 708.347 C 1452.52 707.836 1459.25 708.171 1464.72 708.265 C 1457.17 710.662 1445.38 711.766 1437.23 712.812 C 1433.6 713.598 1431.74 713.932 1428.06 714.286 L 1427.28 713.62 C 1434.14 710.167 1439.76 709.374 1447.17 708.347 z" fill="rgb(5,4,3)" transform="translate(0,0)"></path>
<path d="M 1463.12 930.811 C 1470.11 931.142 1484.34 939.123 1486.61 946.044 C 1481.45 945.195 1467.21 934.777 1463.12 930.811 z" fill="rgb(5,4,3)" transform="translate(0,0)"></path>
<path d="M 1355.56 695.402 C 1360.27 695.079 1361.08 694.788 1365.46 696.141 C 1363.09 697.547 1350.51 698.64 1346.98 699.017 C 1341.74 699.72 1340 699.714 1334.7 699.457 L 1334.55 698.91 C 1341.47 696.427 1348.25 696.128 1355.56 695.402 z" fill="rgb(5,4,3)" transform="translate(0,0)"></path>
<path d="M 1392.09 900.064 C 1397.99 901.407 1408.08 907.068 1410.06 913.192 C 1405.69 913.16 1393.17 904.509 1392.09 900.064 z" fill="rgb(5,4,3)" transform="translate(0,0)"></path>
<path d="M 1405.82 851.865 C 1413.35 853.978 1423.54 859.834 1427.26 866.898 C 1422.52 867.155 1409.68 855.546 1405.82 851.865 z" fill="rgb(5,4,3)" transform="translate(0,0)"></path>
<path d="M 1375.28 957.733 C 1380.9 958.08 1395.2 968.843 1399.06 973.127 C 1393.4 971.73 1378.73 963.285 1375.28 957.733 z" fill="rgb(5,4,3)" transform="translate(0,0)"></path>
<path d="M 1674.99 742.945 C 1683.04 743.018 1686.74 745.82 1689.96 753.277 C 1683.14 753.091 1678.47 748.359 1674.99 742.945 z" fill="rgb(5,4,3)" transform="translate(0,0)"></path>
<path d="M 1744.16 848.625 C 1755.19 850.427 1755.28 861.113 1754.75 870.212 C 1750.91 864.877 1751.07 857.394 1744.16 848.625 z" fill="rgb(5,4,3)" transform="translate(0,0)"></path>
<path d="M 1655.91 911.77 C 1665.15 913.471 1671.05 920.221 1672.56 929.363 C 1671.14 928.372 1659.87 915.48 1655.91 911.77 z" fill="rgb(5,4,3)" transform="translate(0,0)"></path>
<path d="M 1601.52 877.6 C 1610.67 878.626 1612.03 886.879 1611.09 894.446 L 1609.8 894.458 C 1606.94 886.45 1605.88 884.532 1601.52 877.6 z" fill="rgb(5,4,3)" transform="translate(0,0)"></path>
<path d="M 1432.41 999.693 C 1433.73 999.813 1434.92 999.882 1436.2 1000.29 C 1441.09 1001.87 1445.14 1005.37 1447.42 1009.97 C 1440.93 1008.44 1436.6 1004.59 1432.41 999.693 z" fill="rgb(5,4,3)" transform="translate(0,0)"></path>
<path d="M 1552.08 832.946 C 1559.15 834.476 1561.73 839.684 1563.15 846.151 C 1560.14 843.52 1553.51 836.532 1552.08 832.946 z" fill="rgb(5,4,3)" transform="translate(0,0)"></path>
<path d="M 1143.75 966.114 C 1145.64 966.292 1147.53 966.562 1149.4 966.923 C 1153.81 967.813 1154.29 969.055 1156.38 972.354 C 1151.39 971.538 1145.31 971.201 1143.75 966.114 z" fill="rgb(5,4,3)" transform="translate(0,0)"></path>
<path d="M 1030.95 814.452 L 1032.41 815.211 C 1027.7 820.807 1027.44 824.66 1029.94 831.222 C 1028.51 831.416 1028.99 831.183 1027.15 829.915 C 1024.65 823.267 1025.76 819.293 1030.95 814.452 z" fill="rgb(5,4,3)" transform="translate(0,0)"></path>
<path d="M 1355.51 813.194 C 1361.09 814.815 1364.47 815.52 1367.48 820.447 C 1363.08 818.966 1356.89 817.804 1355.51 813.194 z" fill="rgb(5,4,3)" transform="translate(0,0)"></path>
<path d="M 1362.37 422.426 C 1379.43 421.148 1406.32 421.456 1423.78 422.014 C 1570.42 426.696 1753.79 462.958 1858.65 574.235 C 1899.64 617.731 1923.72 669.401 1921.07 729.972 C 1918.01 799.887 1887.24 852.482 1837.15 899.004 C 1836.96 894.49 1836.69 889.98 1836.34 885.476 C 1831.64 828.66 1809.68 794.141 1767.59 758.378 C 1743.81 737.93 1723.56 714.071 1696.23 697.652 C 1677.81 686.585 1657.13 680.727 1638.72 669.673 C 1630.92 664.329 1626.01 655.457 1618.06 650.307 C 1610.18 645.203 1600.74 646.535 1591.71 645.932 C 1582.67 645.663 1573.77 645.141 1564.77 644.312 C 1511.62 639.417 1456.55 626.854 1403.85 621.467 C 1394.07 620.457 1384.2 620.601 1374.44 621.899 C 1344.23 626.064 1317.9 638.845 1289.43 648.705 C 1278.52 652.482 1268.55 654.859 1257.39 657.423 C 1228.13 616.096 1194.93 575.354 1160.16 538.466 C 1145.37 522.766 1128.82 509.275 1113.34 494.553 C 1113.46 483.295 1110.74 480.737 1105.59 470.155 C 1194.66 439.369 1267.52 426.501 1362.37 422.426 z" fill="rgb(239,229,195)" transform="translate(0,0)"></path>
<path d="M 1947.51 835.765 C 1949.1 860.267 1904.08 967.124 1890.63 992.307 C 1770.51 1217.2 1489.24 1334.5 1245.4 1259.17 C 1108.67 1216.92 987.745 1117.74 920.027 991.483 C 892.075 940.324 879.155 897.576 866.159 841.555 C 876.266 856.082 884.061 870.219 895.319 884.966 C 932.231 933.316 981.961 969.987 1035.4 998.184 C 1087.17 1025.71 1142.24 1046.5 1199.28 1060.07 C 1436.76 1117.78 1820.25 1077.14 1947.51 835.765 z" fill="rgb(239,229,195)" transform="translate(0,0)"></path>
<path d="M 1364.75 381.44 C 1459.1 375.37 1598.9 395.227 1687.05 425.26 C 1787.61 459.968 1900.53 520.649 1948.17 620.841 C 2025.8 784.114 1893.26 941.442 1750.16 1006.69 C 1629.01 1064.75 1498.87 1081.09 1365.64 1075.62 C 1182.2 1068.71 951.512 1000.52 864.189 822.902 C 790.055 672.108 899.814 526.495 1034.41 462.919 C 1039.98 472.807 1044.48 481.831 1048.57 492.404 C 1039.19 499.371 1022.68 508.805 1012.29 515.521 C 987.158 531.778 969.904 545.656 948.983 566.968 C 910.141 608.409 888.011 651.261 883.358 709 C 873.954 825.689 970.064 918.748 1064.72 970.337 C 1285.58 1090.7 1777.05 1075.43 1903.83 821.936 C 1929.71 769.75 1933.94 709.456 1915.6 654.169 C 1889.8 578.369 1815.03 518.432 1743.6 485.345 C 1577.98 408.63 1379.26 401.81 1201.96 435.911 C 1168.65 442.319 1134.54 453.865 1102.76 464.849 C 1097.99 454.333 1093.46 443.706 1089.18 432.977 C 1109.56 424.947 1130.52 419.547 1151.42 413.226 C 1221.1 392.151 1292.28 385.196 1364.75 381.44 z" fill="rgb(239,229,195)" transform="translate(0,0)"></path>
<path d="M 457.87 722.579 C 517.724 717.781 595.564 736.38 642.553 775.077 C 664.356 793.219 686.708 820.793 688.03 850.201 C 691.012 916.587 627.703 960.571 571.059 978.986 C 542.73 988.196 518.483 992.128 488.265 994.576 C 431.086 1000.62 352.049 976.656 308.184 939.827 C 261.537 900.663 241.565 842.224 286.498 792.871 C 330.003 745.087 395.179 726.18 457.87 722.579 z" fill="rgb(239,229,195)" transform="translate(0,0)"></path>
<path d="M 453.596 737.42 C 454.628 737.325 455.66 737.245 456.694 737.18 C 520.07 733.671 588.231 748.75 636.763 791.514 C 677.027 826.992 679.433 879.06 642.097 917.53 C 604.405 956.367 544.698 975.576 491.751 977.172 C 429.742 980.397 366.76 966.949 317.693 926.827 C 296.909 910.287 273.366 875.276 278.059 847.203 C 291.116 769.094 387.968 742.715 453.596 737.42 z" fill="rgb(5,4,3)" transform="translate(0,0)"></path>
<path d="M 456.573 742.587 C 519.385 737.258 600.65 757.601 643.328 806.001 C 678.745 846.165 663.254 894.399 625.529 925.916 C 623.727 923.053 620.909 919.294 618.572 916.756 C 582.722 877.823 537.532 866.565 487.248 863.515 C 431.353 860.283 359.581 879.14 323.892 925.213 C 248.78 857.756 286.082 794.656 369.809 760.098 C 399.57 747.815 424.495 744.199 456.573 742.587 z" fill="rgb(239,229,195)" transform="translate(0,0)"></path>
<path d="M 457.208 868.583 C 509.074 862.112 591.395 880.592 620.791 928.301 C 586.546 957.924 536.136 968.558 492.25 971.958 C 433.106 975.097 376.142 963.057 327.806 927.514 C 352.644 891.025 415.473 871.876 457.208 868.583 z" fill="rgb(239,229,195)" transform="translate(0,0)"></path>
<path d="M 865.539 872.809 L 866.384 872.806 C 868.91 874.636 871.176 885.744 872.353 889.925 C 879.013 913.582 887.405 935.818 896.826 958.486 C 881.14 964.864 851.307 981.188 834.702 989.513 L 684.966 1065.88 C 530.669 1143.39 376.966 1222.08 223.87 1301.93 C 205.621 1311.41 99.7076 1363.27 88.7941 1374.59 C 74.8889 1365.28 62.8747 1355.9 49.9633 1345.35 C 39.5006 1335.7 26.7996 1324.64 19.6971 1312.08 C 13.1062 1300.43 0.784745 1277.27 16.83 1267.75 C 30.6478 1259.56 46.1749 1252.51 60.6476 1245.26 C 86.9715 1231.77 113.41 1218.49 139.961 1205.44 L 382.38 1086.04 C 386.515 1088.26 393.233 1091.11 397.594 1092.8 C 452.059 1113.4 512.48 1111.51 565.549 1087.54 C 614.559 1065.4 649.225 1023.81 667.887 973.893 C 691.429 959.911 716.442 948.173 740.718 935.605 C 782.084 914.19 824.241 894.255 865.539 872.809 z" fill="rgb(205,169,139)" transform="translate(0,0)"></path>
<path d="M 226.731 1216.96 L 228.61 1217.27 L 229.283 1218.45 C 226.69 1221.2 183.569 1241.05 176.009 1244.79 L 35.4554 1314.64 L 34.7023 1314.67 L 34.7742 1313.55 C 41.4969 1307.93 60.0301 1299.06 68.5529 1294.76 C 89.4775 1284.15 110.524 1273.77 131.688 1263.64 C 164.628 1247.53 192.632 1232.05 226.731 1216.96 z" fill="rgb(5,4,3)" transform="translate(0,0)"></path>
<path d="M 1910.46 1102.72 C 1912.25 1111.8 1912.59 1151 1905.69 1158.54 C 1898.57 1166.32 1892.43 1169.41 1883.12 1174.45 L 933.633 1676.29 L 802.769 1745.56 C 773.699 1761.12 744.225 1776.44 715.133 1791.87 C 664.599 1818.67 624.596 1790.23 581.171 1761.54 C 581.044 1741.6 578.216 1724.96 579.635 1704.18 C 612.857 1724.09 655.864 1756.6 696.504 1744.58 C 728.726 1735.06 769.401 1709.91 799.892 1693.84 C 860.629 1662.51 921.016 1630.51 981.044 1597.84 L 1479.16 1334.67 L 1516.74 1315.01 C 1537.73 1303.76 1548.42 1298.34 1571.56 1291.8 C 1589.96 1286.6 1610.94 1273.11 1628.36 1264.88 C 1646.46 1256.32 1660.07 1241.11 1676.15 1229.89 C 1690.15 1221.77 1708.92 1213.74 1723.81 1206.09 L 1837.23 1147.93 C 1855.88 1138.51 1874.98 1129.36 1893.25 1119.18 C 1901.25 1114.72 1905.63 1110.62 1910.46 1102.72 z" fill="rgb(205,169,139)" transform="translate(0,0)"></path>
<path d="M 1046.01 501.848 C 1046.25 501.992 1052.5 510.341 1055.71 512.886 C 1052.71 582.388 1065.79 650.501 1081.1 718.018 C 1065.89 726.595 1052.81 737.228 1040.2 749.216 C 997.157 790.156 976.169 839.919 974.732 899.118 C 966.718 891.331 958.877 883.37 951.213 875.238 C 861.411 775.344 869.77 639.765 971.873 552.828 C 995.581 532.641 1019.71 518.176 1046.01 501.848 z" fill="rgb(239,229,195)" transform="translate(0,0)"></path>
<path d="M 265.412 894.426 C 267.901 896.476 275.332 911.273 278.723 915.763 C 298.554 942.026 320.198 958.178 349.31 972.165 C 421.201 1005.93 503.587 1009.63 578.216 982.451 C 624.913 965.853 662.489 941.02 684.257 895.5 C 679.363 923.983 671.271 948.485 661.069 975.47 C 631.107 1045.31 582.156 1086.34 506.37 1098.63 C 453.424 1107.08 399.291 1094.13 355.901 1062.63 C 296.258 1019.14 276.51 964.069 265.412 894.426 z" fill="rgb(239,229,195)" transform="translate(0,0)"></path>
<path d="M 333.53 1024.65 C 338.334 1027.16 359.343 1048.71 369.906 1054.69 C 388.445 1065.72 407.982 1074.9 429.023 1079.99 C 438.221 1082.22 449.969 1082.29 458.682 1085.6 C 426.685 1091.37 345.728 1054.93 333.53 1024.65 z" fill="rgb(5,4,3)" transform="translate(0,0)"></path>
<path d="M 93.1731 1382.79 C 137.144 1410.54 180.623 1439.06 223.591 1468.34 C 223.593 1475.75 223.335 1519.47 226.051 1522.91 L 228.531 1522.67 C 230.552 1519.52 227.95 1479.56 227.884 1471.54 C 257.607 1489.85 286.973 1508.73 315.965 1528.18 C 331.117 1538.26 348.686 1549.47 362.814 1560.47 C 363.084 1571.66 364.468 1605.54 366.585 1615.99 L 367.85 1616.7 C 369.026 1615.4 370.679 1612.86 370.568 1611.15 C 369.557 1595.71 369.096 1579.76 368.707 1564.32 C 398.652 1584.1 428.771 1602.61 459.063 1622.85 C 468.793 1628.94 478.888 1636.41 487.882 1643.5 C 488.85 1661.53 488.6 1682.42 489.079 1700.85 C 358.064 1612.28 226.208 1524.96 93.5293 1438.9 C 94.6278 1420.19 91.8976 1401.64 93.1731 1382.79 z" fill="rgb(205,169,139)" transform="translate(0,0)"></path>
<path d="M 833.223 739.963 C 835.661 740.906 836.961 755.657 837.466 758.762 C 840.911 779.956 847.999 799.725 854.998 819.907 C 801.835 846.414 751.875 871.425 697.981 896.75 L 690.299 900.833 C 695.592 861.638 697.789 846.483 681.64 810.409 C 689.362 806.164 697.38 802.016 705.412 798.389 C 747.826 779.238 789.906 756.872 833.223 739.963 z" fill="rgb(254,252,238)" transform="translate(0,0)"></path>
<path d="M 1200.58 677.153 L 1202.07 676.986 C 1203.46 677.76 1203.86 678.026 1204.68 679.42 C 1258.02 770.182 1313.99 880.207 1290.19 987.968 C 1287.43 981.193 1284.59 974.449 1281.68 967.735 C 1269.07 938.26 1253.75 908.459 1241.48 879.218 C 1215.25 816.743 1186.41 750.571 1163.72 686.907 C 1175.93 683.373 1188.22 680.121 1200.58 677.153 z" fill="rgb(239,229,195)" transform="translate(0,0)"></path>
<path d="M 1118.12 1208.59 C 1122.93 1210.16 1139.57 1221.09 1145.73 1224.4 C 1318.54 1317.3 1506.97 1304.76 1678.73 1214.14 C 1673.95 1220.63 1670.56 1225.21 1665.14 1231.11 C 1659.81 1236.72 1650.65 1244.32 1644.02 1248.58 C 1572.17 1294.63 1476.55 1318.48 1391.53 1317.59 C 1304.91 1316.69 1169.43 1283.31 1118.12 1208.59 z" fill="rgb(239,229,195)" transform="translate(0,0)"></path>
<path d="M 1157.87 689.14 C 1159.39 690.899 1186.89 761.93 1190.1 769.694 C 1207.06 810.619 1224.2 852.973 1242.24 893.721 C 1257.21 927.516 1273.8 955.803 1283.58 991.545 C 1276.05 986.687 1271.26 982.283 1264.61 976.308 C 1195.86 914.146 1143.96 790.057 1127.83 700.096 L 1157.87 689.14 z" fill="rgb(239,229,195)" transform="translate(0,0)"></path>
<path d="M 364.277 1454.4 C 418.982 1448.24 524.181 1477.8 553.431 1526.29 C 544.849 1535.45 537.479 1539.57 526.273 1544.6 C 475.11 1564.41 436.288 1522.58 397.113 1496.7 C 378.743 1484.57 359.163 1471.23 341.745 1457.88 C 350.592 1455.96 355.284 1455.21 364.277 1454.4 z" fill="rgb(254,252,238)" transform="translate(0,0)"></path>
<path d="M 313.11 1422.8 L 314.455 1423.53 C 310.726 1443.77 310.05 1441.79 326.56 1454.08 C 358.243 1477.67 391.947 1499.03 423.104 1523.23 C 415.44 1528.9 376.866 1547.57 365.052 1554.29 L 353.235 1546.29 C 313.269 1521.68 270.291 1491.4 229.871 1465.33 C 252.438 1455.82 290.616 1434.66 313.11 1422.8 z" fill="rgb(205,169,139)" transform="translate(0,0)"></path>
<path d="M 854.507 826.785 L 856.488 827.683 C 859.135 833.375 864.983 861.104 866.89 869.141 L 754.974 924.957 C 727.916 938.459 704.637 949.478 678.407 964.699 L 669.445 969.648 C 677.326 948.37 682.454 930.545 688.849 908.641 C 709.057 896.069 748.444 879.051 771.256 868.122 C 799.255 854.708 826.793 840.052 854.507 826.785 z" fill="rgb(205,169,139)" transform="translate(0,0)"></path>
<path d="M 1868.08 1040.45 C 1874.96 1043.42 1883.83 1050.69 1890.23 1054.87 C 1911.36 1068.65 1920.9 1094.39 1896.1 1110.92 C 1878.67 1122.54 1857.41 1131.45 1838.27 1141.21 C 1795.46 1162.79 1752.84 1184.75 1710.42 1207.08 C 1700.04 1212.5 1689.48 1217.56 1678.76 1222.26 C 1692.25 1204.62 1700.52 1201.6 1718.79 1189.65 C 1730.16 1182.16 1741.16 1174.12 1751.74 1165.55 C 1800.74 1126.25 1831.43 1091.37 1868.08 1040.45 z" fill="rgb(205,169,139)" transform="translate(0,0)"></path>
<path d="M 1030.33 339.287 C 1044.76 338.388 1049.19 355.814 1053.98 366.882 C 1069.9 403.63 1086.98 440.224 1101.87 477.376 C 1089.87 483.954 1082.08 486.893 1068.76 489.177 C 1064.21 489.777 1058.76 489.871 1054.1 490.078 C 1037.28 459.607 1024.31 425.48 1008.55 394.239 C 1005.33 387.849 997.362 371.531 996.3 364.808 C 993.776 348.831 1018.07 341.256 1030.33 339.287 z" fill="rgb(239,229,195)" transform="translate(0,0)"></path>
<path d="M 1253.69 663.297 C 1254.02 663.736 1254.35 664.174 1254.68 664.613 C 1309.06 745.597 1352.81 837.369 1335.95 937.504 C 1332.91 955.539 1321.27 992.296 1306.41 1002.72 L 1304.97 1001.65 C 1309.22 991.146 1316.85 973.106 1319.25 962.613 C 1341.58 864.585 1280.05 749.542 1233.29 668.707 L 1253.69 663.297 z" fill="rgb(239,229,195)" transform="translate(0,0)"></path>
<path d="M 1226.92 670.254 C 1231.28 673.845 1239.81 690.445 1242.95 696.137 C 1287.44 776.681 1348.66 903.606 1301.88 993.516 L 1300.72 993.286 C 1300.33 992.798 1296.99 988.544 1296.99 988.386 C 1296.93 979.981 1299.12 965.315 1299.73 957.365 C 1301.69 931.279 1300.31 905.049 1295.62 879.312 C 1282.03 806.519 1244.86 738.603 1208.03 675.148 L 1226.92 670.254 z" fill="rgb(239,229,195)" transform="translate(0,0)"></path>
<path d="M 1120.95 702.872 C 1124.28 703.928 1125.83 716.904 1126.79 720.908 C 1129.54 732.368 1132.59 743.755 1135.93 755.059 C 1156.88 825.6 1189.53 902.193 1238.43 958.344 C 1250.53 972.227 1261.58 980.937 1274.67 993.185 C 1269.91 996.164 1266.38 998.901 1260.88 998.733 C 1248.98 993.229 1234.14 979.71 1225.29 970.16 C 1160.09 899.807 1129.2 801.18 1104.65 710.829 L 1120.95 702.872 z" fill="rgb(239,229,195)" transform="translate(0,0)"></path>
<path d="M 1097.87 713.902 C 1101.79 714.446 1106.92 740.334 1108.47 745.425 C 1135.1 832.963 1167.93 928.467 1238.73 990.559 C 1244 995.178 1260.87 1004.09 1259.33 1011.05 C 1255.2 1012.15 1257.32 1012 1252.71 1010.86 C 1246.42 1008.4 1238.29 1004.72 1232.7 1000.99 C 1142.71 941.002 1109.29 817.293 1086.85 719.456 L 1097.87 713.902 z" fill="rgb(239,229,195)" transform="translate(0,0)"></path>
<path d="M 493.81 1646.8 C 514.959 1659.03 552.62 1685.91 573.537 1700.36 C 573.61 1719.85 574.681 1739.32 576.747 1758.7 C 570.721 1756.06 554.167 1744.51 548.389 1740.62 C 530.219 1728.38 512.634 1715.84 494.032 1704.15 L 493.81 1646.8 z" fill="rgb(205,169,139)" transform="translate(0,0)"></path>
<path d="M 1097.07 508.973 C 1103.57 511.106 1190.67 655.132 1200.63 672.378 C 1195.83 673.295 1190.71 674.597 1185.91 675.712 L 1161.89 682.845 C 1155.7 667.006 1091.57 509.869 1091.15 511.247 L 1097.07 508.973 z" fill="rgb(239,229,195)" transform="translate(0,0)"></path>
<path d="M 403.906 1400.77 C 433.175 1402.37 448.316 1407.36 475.028 1416.79 C 474.976 1433.07 475.051 1449.35 475.253 1465.62 C 455.133 1458.69 426.652 1452.76 405.565 1449.97 C 404.012 1434.75 404.011 1416.04 403.906 1400.77 z" fill="rgb(205,169,139)" transform="translate(0,0)"></path>
<path d="M 389.555 1400.42 L 399.136 1400.16 C 399.292 1416.02 399.714 1434.27 401.336 1449.92 C 387.301 1448.21 372.214 1448.83 358.154 1450.33 C 351.134 1451.08 340.25 1455.3 334.365 1452.18 L 331.92 1450.36 C 327.797 1447.27 319.187 1441.65 318.154 1437.04 C 311.624 1407.9 373.09 1401.25 389.555 1400.42 z" fill="rgb(205,169,139)" transform="translate(0,0)"></path>
<path d="M 1083.51 513.294 C 1087.34 514.376 1088.05 515.65 1089.53 519.564 C 1110.39 575.016 1136.71 628.963 1156.41 684.772 L 1147.46 687.876 L 1126.48 695.439 C 1122.01 682.378 1118.4 665.426 1115.19 651.753 L 1099.46 584.926 L 1088.31 538.769 C 1086.91 533.045 1082.52 518.392 1083.51 513.294 z" fill="rgb(239,229,195)" transform="translate(0,0)"></path>
<path d="M 480.089 1418.66 C 508.102 1432.18 532.056 1447.32 552.297 1471.25 C 553.468 1482.73 553.182 1503.07 553.287 1515.03 C 530.982 1490.73 512.126 1480.05 481.083 1467.95 C 480.838 1451.52 480.507 1435.09 480.089 1418.66 z" fill="rgb(205,169,139)" transform="translate(0,0)"></path>
<path d="M 34.9225 1339.79 C 47.315 1351.33 72.1143 1371.51 86.8211 1378.37 C 87.1216 1397.47 88.3933 1416.26 87.9143 1435.3 C 67.4398 1421.12 50.0719 1407.71 30.5885 1392.58 L 33.1633 1391.45 C 36.0089 1388.56 35.6101 1388.77 35.5408 1383.52 C 35.348 1368.92 34.8247 1354.41 34.9225 1339.79 z" fill="rgb(205,169,139)" transform="translate(0,0)"></path>
<path d="M 1072.15 516.575 C 1073.99 516.686 1075.63 516.848 1077.46 517.028 C 1079.36 519.606 1116.76 679.749 1120.84 696.28 C 1118.87 699.387 1118.32 698.831 1114.31 700.725 L 1103.61 705.625 C 1088.45 638.906 1076.96 585.978 1072.15 516.575 z" fill="rgb(239,229,195)" transform="translate(0,0)"></path>
<path d="M 1109.7 498.945 C 1127.18 507.389 1248.97 644.826 1249.71 658.751 L 1247.78 659.762 L 1229.69 664.129 C 1212.11 637.894 1195.27 610.419 1176.55 585.054 C 1163.99 568.133 1151.12 551.442 1137.96 534.988 C 1133.32 529.206 1111.66 503.4 1109.7 498.945 z" fill="rgb(239,229,195)" transform="translate(0,0)"></path>
<path d="M 1104.74 506.003 C 1117.57 510.296 1218.35 649.381 1223.34 665.333 L 1221.73 666.38 L 1206.02 670.806 C 1194.37 650.99 1181.64 632.038 1169.59 612.497 L 1125.66 539.67 C 1121.48 532.896 1106.13 511.277 1104.74 506.003 z" fill="rgb(239,229,195)" transform="translate(0,0)"></path>
<path d="M 1060.85 514.332 L 1065.44 516.171 C 1068.23 519.6 1069.03 545.091 1069.86 552.153 C 1073.72 585.091 1079.35 617.432 1085.9 649.841 C 1087.57 658.1 1098.47 703.313 1098.35 708.128 L 1096.65 709.618 L 1086.27 715.025 C 1068.96 649.546 1060.41 582.06 1060.85 514.332 z" fill="rgb(239,229,195)" transform="translate(0,0)"></path>
<path d="M 8.09127 1301.35 C 14.2571 1314.7 20.1326 1323.53 29.1256 1335.07 C 29.8058 1351.3 29.3055 1367.91 29.9903 1384.16 C 30.2087 1389.34 30.313 1389.03 33.1633 1391.45 L 30.5885 1392.58 C 5.6598 1372.11 6.86693 1360.8 7.71568 1330.09 C 7.96797 1320.96 7.96264 1310.55 8.09127 1301.35 z" fill="rgb(205,169,139)" transform="translate(0,0)"></path>
<path d="M 1102.63 480.773 C 1120.99 500.671 1073.9 513.915 1059.49 509.458 C 1055.45 506.373 1051.63 502.874 1050.63 497.666 C 1052.58 494.541 1059.22 495.185 1063.79 494.745 C 1079.33 493.248 1089.88 489.468 1102.63 480.773 z" fill="rgb(239,229,195)" transform="translate(0,0)"></path>
<path d="M 556.231 1476.81 C 557.728 1478.23 558.768 1480.39 559.493 1482.29 C 564.708 1495.95 565.484 1503.63 560.074 1516.7 C 558.984 1518.73 559.541 1518.13 557.566 1519.42 C 557.032 1516.54 556.614 1483.83 556.231 1476.81 z" fill="rgb(205,169,139)" transform="translate(0,0)"></path>
<metadata><recraft-signature>{"signed_by": "recraft", "signature_b64": "+OBpcfvpRrHHpdN87022v9xGV2Z3LdMR0FHXjRpUBu27BQzjUNo7LjcLQptXlBtoF6BTwQ5bkNRzZ2HgF0yhCA==", "signing_algo": "Ed25519", "generation_timestamp": 1778092908, "identifier": "7596da36-812f-4710-822d-a2ba5c456618"}</recraft-signature></metadata></svg>