<svg xmlns="http://www.w3.org/2000/svg" height="1024" preserveAspectRatio="none" style="display: block;" version="1.1" viewBox="0 0 2048 2048" width="1024">
<path d="M 0 0 L 2048 0 L 2048 2048 L 0 2048 L 0 0 z" fill="rgb(248,242,227)" transform="translate(0,0)"></path>
<path d="M 1114.84 755.869 C 1114.88 741.24 1113 726.593 1113.05 712.157 C 1113.22 666.595 1114.22 612.74 1125.65 568.465 C 1150.03 475.952 1199.41 390.862 1245.58 307.786 C 1250.37 299.17 1254.79 281.284 1258.17 271.346 C 1278.96 210.188 1313.38 160.47 1378.06 142.546 C 1411.47 133.289 1442.1 129.023 1476.47 123.704 C 1510.46 118.695 1544.21 112.177 1577.62 104.169 C 1610.48 96.288 1643.1 87.4708 1675.45 77.7279 C 1693.01 72.3758 1710.52 66.848 1727.97 61.1453 C 1738.12 57.8003 1774.33 43.6301 1783.19 44.9306 L 1784.11 46.3035 C 1783.37 48.4615 1782.51 50.0821 1780.12 50.952 C 1702.93 79.1304 1619.89 105.419 1539.39 120.467 C 1514.72 124.955 1489.98 129.054 1465.18 132.764 C 1347.59 151.191 1300.67 163.258 1261.36 285.818 C 1279.38 263.141 1302.05 244.58 1327.83 231.378 C 1333.92 228.197 1345.08 222.116 1351.91 223.651 L 1353.06 224.884 C 1351.15 228.959 1324.97 239.68 1318.08 244.276 C 1301.62 255.244 1287.88 265.436 1274.71 280.415 C 1247.77 311.053 1229.1 351.725 1210.19 387.403 C 1138.99 521.771 1115.16 594.446 1122.38 747.853 C 1150.96 718.917 1179.88 690.33 1209.14 662.096 C 1214.38 657.052 1234.08 584.007 1238.73 570.293 C 1228.63 576.145 1193.73 594.205 1183.24 585.255 L 1182.27 582.846 C 1184.1 580.512 1186.18 580.579 1189.16 580.174 C 1262.16 570.24 1325.42 474.977 1337.67 409.767 C 1331.76 405.522 1317.89 396.98 1315.98 390.568 L 1317.17 389.377 C 1322.28 389.439 1341.76 404.345 1348.72 407.846 C 1376.05 421.583 1403.75 437.537 1431.1 450.831 L 1430.49 449.586 C 1419.93 428.311 1350.64 336.536 1353.84 322.63 C 1360.97 323.613 1385.47 365.637 1391.35 374.965 C 1404.44 395.713 1417.34 416.692 1431.42 436.836 C 1428.15 417.586 1425.37 403.086 1420.12 384.277 C 1412.93 359.411 1405.11 334.73 1396.67 310.26 C 1393.78 301.961 1378.66 262.414 1380.56 256.989 L 1382.55 256.706 C 1384.59 258.473 1391.75 275.03 1393.26 278.774 C 1417.38 338.349 1439.51 406.547 1445.03 470.782 C 1447.45 498.867 1445.81 535.716 1425.59 556.797 C 1404.91 578.552 1378.72 593.483 1355.11 611.712 C 1307.21 648.688 1268.43 709.42 1269.94 771.573 C 1270.19 781.753 1276.43 814.451 1290.57 810.411 C 1311.78 804.351 1324.2 771.856 1337.77 755.781 C 1343.92 748.551 1377.61 710.506 1386.36 715.377 C 1385.43 721.11 1374.09 729.387 1369.07 733.777 C 1350.86 749.699 1338.44 766.084 1326.08 786.692 C 1348.73 770.029 1366.93 751.298 1388.11 734.334 C 1449.38 685.274 1508.61 636.368 1565.48 582.202 C 1577.51 570.742 1588.9 558.164 1600.53 546.223 L 1665.64 480.364 C 1735.87 408.101 1798.84 343.534 1897.33 313.156 C 1899.39 300.819 1901.97 286.939 1902.92 274.652 C 1907.51 215.341 1893.97 156.17 1858.84 107.626 C 1844.77 88.1964 1830.99 74.1027 1814.49 56.8821 C 1812.28 54.5692 1812.5 54.7866 1812.76 52.8767 C 1819.11 51.8197 1841.42 76.3891 1846.52 81.6479 C 1905.05 141.988 1923.23 229.136 1906.32 310.381 C 1922.73 306.514 1976.18 293.262 1990.73 298.233 C 1996.64 304.073 1989.62 309.721 1983.74 310.521 C 1943.15 316.047 1905.46 324.283 1867.01 339.2 C 1846.48 346.982 1826.89 357.064 1808.63 369.254 C 1758.39 403.06 1708.62 459.493 1664.98 501.733 C 1648.91 517.289 1624.34 540.24 1610.59 556.423 C 1614.13 591.47 1619.54 616.509 1612.35 653.184 C 1606.53 682.882 1597.83 717.417 1562.22 723.815 C 1559.72 724.212 1556.31 723.747 1554.39 721.906 C 1556.45 714.097 1570.06 714.431 1574.46 711.5 C 1611.87 686.553 1610.74 601.907 1602.52 566.027 C 1589.02 579.206 1574.81 592.512 1561.68 605.936 C 1564.7 638.589 1561.6 664.987 1555.01 696.968 C 1549.33 724.513 1532.37 771.126 1495.54 746.247 C 1490.22 761.485 1485.43 780.977 1470.05 788.282 C 1462.01 792.037 1452.82 792.467 1444.47 789.477 C 1423.71 782.051 1414.46 753.255 1407.62 734.364 C 1400.82 739.346 1391.27 747.455 1385.19 753.517 C 1390.34 780.416 1389.53 800.172 1384.98 827.821 C 1379.51 861.133 1353.38 895.362 1317.8 868.709 C 1301.93 856.815 1291.36 836.352 1284.8 817.48 C 1270.03 825.87 1237.82 849.251 1226.1 861.387 C 1246.3 865.536 1266.29 871.081 1286.27 876.211 C 1391.9 903.336 1583.54 963.198 1645.37 1056.61 C 1664.81 1085.99 1669.34 1117.41 1662.22 1151.52 C 1652.23 1199.38 1633.61 1244.5 1612.32 1288.32 C 1538.73 1439.85 1424.03 1580.77 1301.43 1695.73 C 1273.35 1722.06 1236.49 1756.91 1204.4 1777.79 C 1179.75 1793.83 1146.52 1800.14 1118.25 1807.07 C 1018.33 1831.91 915.54 1843.26 812.611 1840.8 C 784.989 1840.29 759.314 1837.92 732.21 1836.8 C 694.577 1831.5 659.341 1827.81 621.262 1821.29 C 563.323 1811.35 506.121 1797.5 450.044 1779.86 C 429.436 1773.52 403.457 1766.26 385.188 1755.29 C 371.684 1747.19 360.377 1730.1 348.883 1718.75 L 347.881 1717.77 C 319.224 1686.27 289.873 1647.03 265.491 1612.19 C 173.759 1481.11 102.732 1336.52 66.6228 1180.15 C 47.3483 1096.69 27.9734 1034.08 102.124 971.401 C 142.183 937.541 187.244 914.297 236.146 895.529 C 438.356 817.38 696.996 800.603 911.836 812.947 C 941.328 814.784 970.791 817.062 1000.21 819.782 C 1012.61 820.834 1032.89 823.17 1044.92 823.198 C 1060.47 811.579 1101.38 771.723 1114.84 755.869 z" fill="rgb(141,77,61)" transform="translate(0,0)"></path>
<path d="M 861.413 909.82 C 869.23 913.611 880.043 917.23 888.34 920.575 C 907.241 928.197 926.518 935.391 945.226 943.492 C 1010.85 972.121 1073.64 1006.86 1132.76 1047.26 C 1107.16 1151.17 1080.7 1254.13 1058.9 1358.93 C 1046.78 1359.12 1032.78 1360.45 1020.26 1360.9 C 993.296 1361.78 966.322 1362.23 939.345 1362.26 C 869.716 1361.93 800.129 1358.77 730.757 1352.79 C 708.62 1349.7 680.621 1347.89 657.491 1345.19 C 618.072 1340.38 578.813 1334.34 539.772 1327.07 C 509.242 1321.6 478.036 1316.18 448.229 1307.52 C 462.462 1277.69 494.999 1238.22 516.414 1212.9 C 587.823 1128.92 667.95 1052.77 755.446 985.719 C 791.684 957.961 825.452 935.97 861.413 909.82 z" fill="rgb(226,214,175)" transform="translate(0,0)"></path>
<path d="M 728.963 821.43 C 804.236 818.944 884.801 822.947 960.019 828.582 C 979.027 830.007 1011.99 831.909 1029.44 835.51 C 1006.88 853.533 999.391 851.054 971.512 849.619 C 963.114 849.187 944.841 851.836 936.916 855.154 C 893.991 873.127 858.511 906.567 818.207 929.384 L 795.109 929.144 C 611.827 927.996 423.892 936.437 250.106 1002.36 C 215.021 1015.67 171.313 1036.91 144.486 1063.11 C 130.71 1076.71 119.702 1093.11 120.341 1113.26 C 120.524 1119.01 121.282 1128.33 129.247 1127.01 C 130.586 1123.16 127.038 1117.01 127.213 1111.99 C 128.777 1067.31 191.444 1035.84 226.18 1020.82 C 361.824 962.17 516.003 942.647 662.5 937.971 C 711.164 936.597 759.85 936.164 808.531 936.671 C 801.134 943.035 788.62 951.693 780.446 957.759 C 765.014 969.29 749.695 980.972 734.492 992.804 C 692.513 1025.66 634.731 1076.56 597.61 1114.65 C 580.478 1115.45 554.976 1119.43 537.148 1121.89 C 447.075 1134.32 352.752 1157.73 269.494 1194.4 C 249.282 1203.3 232.3 1215.1 214.27 1227.46 C 175.239 1209.74 135.532 1185.4 103.767 1156.53 C 81.149 1135.98 60.1341 1107.72 58.8024 1076.03 C 57.4782 1044.52 71.8979 1017.76 92.8494 995.092 C 184.736 895.682 410.275 850.182 542.165 834.465 C 604.28 827.063 666.505 823.947 728.963 821.43 z" fill="rgb(248,242,227)" transform="translate(0,0)"></path>
<path d="M 68.0642 1132.82 C 71.8051 1136.12 75.1243 1141.5 78.4115 1145.43 C 85.953 1154.45 93.509 1162.34 102.509 1169.92 C 284.5 1323.18 668.523 1370.03 902.26 1374.83 C 973.367 1375.85 1044.48 1373.56 1115.38 1367.97 C 1268.76 1354.8 1536.77 1310.92 1641.01 1187.05 C 1629.32 1220.5 1619.51 1244.9 1604.57 1276.74 C 1593.39 1301.81 1574.23 1339.78 1558.83 1362.26 C 1523.59 1378.99 1484.32 1394.58 1447.92 1408.45 C 1321.15 1456.75 1184.19 1484.85 1048.68 1492.77 C 806.094 1506.76 558.233 1479.37 326.843 1404.2 C 251.776 1379.81 189.139 1344.51 118.912 1311.65 C 98.9928 1253.05 79.8474 1193.81 68.0642 1132.82 z" fill="rgb(248,242,227)" transform="translate(0,0)"></path>
<path d="M 122.586 1321.3 C 127.873 1323.11 165.098 1344.05 173.784 1348.31 C 210.758 1366.09 248.351 1382.56 286.493 1397.69 C 363.495 1427.94 461.947 1453 543.875 1467.74 C 865.407 1525.56 1213.56 1525.11 1516.25 1388.81 C 1528.4 1383.34 1540.39 1377.83 1552.64 1372.5 C 1537.81 1397.59 1518.63 1422.7 1501.78 1446.79 C 1489.6 1464.12 1438.47 1535.9 1422.59 1543 C 1411.58 1547.92 1398.81 1551.05 1387.27 1554.72 C 1353.68 1565.47 1319.7 1574.98 1285.41 1583.24 C 1055.82 1639.03 830.518 1638.23 599.173 1595.24 C 548.653 1586.24 498.54 1575.09 448.971 1561.81 C 404.338 1549.57 338.31 1528.97 295.55 1511.94 C 272.229 1502.5 249.032 1492.75 225.963 1482.71 C 214.144 1477.52 202.688 1471.8 190.675 1467.13 C 161.595 1415.48 144.153 1377.02 122.586 1321.3 z" fill="rgb(248,242,227)" transform="translate(0,0)"></path>
<path d="M 1212.92 872.76 C 1220.23 875.514 1230.07 877.116 1237.86 878.837 C 1310.84 894.967 1384.42 916.401 1453.74 944.53 C 1527.22 974.352 1688.15 1051.01 1645.64 1153.42 C 1617.7 1220.74 1512.85 1262.95 1449.28 1288.25 C 1441.24 1280.8 1417.31 1266.07 1407.44 1260.18 C 1335.66 1217.3 1256.23 1191.68 1175.75 1170.41 L 1156.43 1165.36 C 1161.56 1134.64 1167.47 1100.91 1174.98 1070.77 C 1182.26 1041.54 1186.01 1016.21 1189.15 986.391 C 1279.23 1006.56 1368.59 1030.96 1451.36 1072.52 C 1487.75 1090.8 1521.06 1111.09 1550.84 1138.64 C 1553.41 1141.01 1556.78 1142.49 1559.46 1139.66 C 1558.2 1129.43 1519.19 1102.85 1508.1 1095.87 C 1432.98 1048.55 1348.32 1017.88 1262.59 996.114 C 1238.26 989.937 1211.81 982.735 1187 979.436 C 1182.42 962.614 1170.98 951.403 1172.94 931.503 C 1175.07 909.736 1197.09 886.082 1212.92 872.76 z" fill="rgb(248,242,227)" transform="translate(0,0)"></path>
<path d="M 261.648 1586.66 C 266.646 1588.16 277.845 1593.34 283.29 1595.69 C 297.341 1601.89 311.524 1607.79 325.829 1613.37 C 376.595 1632.63 428.208 1649.57 480.509 1664.14 C 556.629 1684.41 634.181 1698.84 712.492 1707.33 C 906.325 1726.65 1145.02 1706.89 1331.76 1648.71 C 1311.97 1669.03 1292.16 1686.51 1271 1705.33 C 1248.58 1725.59 1222.51 1748.88 1197.97 1766.33 C 1176.67 1781.47 1133.72 1790.25 1107.6 1796.58 C 942.554 1835.77 771.043 1839.24 604.548 1806.76 C 547.038 1795.47 490.279 1780.65 434.594 1762.37 C 420.733 1757.75 403.423 1753.01 391.367 1744.81 C 363.858 1726.11 283.95 1619.68 261.648 1586.66 z" fill="rgb(248,242,227)" transform="translate(0,0)"></path>
<path d="M 194.411 1475.58 C 389.955 1572.12 665.289 1628.95 884 1633.82 C 984.291 1635.56 1084.54 1628.36 1183.55 1612.31 C 1240.01 1602.64 1295.9 1589.86 1350.95 1574.01 C 1373.65 1567.39 1395.8 1559.54 1418.38 1552.53 C 1407.49 1566.21 1396.1 1579.48 1384.22 1592.31 C 1369.99 1607.66 1355.09 1624.61 1340.42 1639.32 C 1331.44 1640.65 1317.27 1645.3 1307.93 1647.95 C 1293.67 1651.94 1279.34 1655.7 1264.96 1659.22 C 1222.16 1669.97 1178.89 1678.78 1135.3 1685.62 C 870.795 1731.3 598.924 1706.41 347.114 1613.46 C 332.116 1608.02 263.073 1581.66 255.731 1574.08 C 245.4 1563.41 201.409 1490.54 194.411 1475.58 z" fill="rgb(248,242,227)" transform="translate(0,0)"></path>
<path d="M 1435 497.802 L 1436.18 498.171 C 1437.53 501.014 1436.98 499.841 1436.91 502.809 C 1436.12 548.036 1400.82 569.722 1367.25 592.857 C 1306.37 634.805 1264.97 691.163 1260.81 766.921 C 1217.59 798.566 1162.56 842.903 1135.87 890.271 C 1121.74 915.343 1132.16 937.41 1140.83 961.213 C 1149.05 983.812 1140.27 1015.79 1135.29 1039.24 C 1125.38 1031.19 1107.98 1020.51 1097.04 1013.66 C 1059.02 989.747 1019.5 968.301 978.722 949.457 C 945.47 933.223 904.495 916.255 868.976 906.082 C 886.563 892.392 924.682 866.729 945.023 860.573 C 975.583 851.324 998.39 868.103 1027.33 847.321 C 1078 810.94 1117.48 764.018 1161.24 720.187 C 1204.82 676.757 1250.46 635.457 1298.02 596.429 C 1341.14 560.806 1386.32 525.36 1435 497.802 z" fill="rgb(243,190,107)" transform="translate(0,0)"></path>
<path d="M 1070.55 874.14 C 1099.31 873.134 1097.51 907.725 1069.89 916.082 C 1041.3 917.178 1041.45 883.642 1070.55 874.14 z" fill="rgb(141,77,61)" transform="translate(0,0)"></path>
<path d="M 1071.56 882.068 C 1092.08 884.634 1083.8 903.644 1067.56 908.169 C 1048.66 904.739 1055.44 887.514 1071.56 882.068 z" fill="rgb(243,190,107)" transform="translate(0,0)"></path>
<path d="M 1155.05 1172.03 C 1170.29 1176.88 1189.15 1180.83 1205.51 1185.87 C 1288.36 1211.4 1370.14 1238.51 1440.04 1291.31 C 1416.58 1300.33 1388.59 1308.17 1364.21 1314.12 C 1285.16 1335.86 1203.37 1346.01 1122.13 1355.21 L 1155.05 1172.03 z" fill="rgb(248,242,227)" transform="translate(0,0)"></path>
<path d="M 572.556 1125.4 C 575.174 1124.93 583.78 1124.73 586.868 1124.58 C 546.621 1165.44 464.108 1255.09 442.09 1306.7 C 387.881 1294.11 338.886 1277.71 286.711 1259.05 C 262.845 1249.77 245.012 1242.24 221.826 1231.23 C 268.841 1190.64 402.776 1154.35 464.304 1141.82 C 500.125 1134.74 536.245 1129.26 572.556 1125.4 z" fill="rgb(248,242,227)" transform="translate(0,0)"></path>
<path d="M 1140.12 1051.6 C 1149.28 1057.9 1158.26 1064.46 1167.03 1071.28 C 1163.93 1083.56 1160.87 1095.97 1158.62 1108.43 C 1147.39 1170.76 1135.42 1232.96 1123.89 1295.23 C 1120.18 1315.27 1117.78 1336.01 1113.54 1355.89 C 1106.01 1356.37 1098.49 1356.79 1090.96 1357.15 C 1082.79 1357.85 1074.38 1358.33 1066.19 1358.9 C 1074.76 1325.91 1081.17 1290.35 1089.6 1256.98 C 1096.78 1228.56 1103.99 1200 1110.93 1171.54 C 1120.45 1131.51 1130.18 1091.53 1140.12 1051.6 z" fill="rgb(226,214,175)" transform="translate(0,0)"></path>
<path d="M 1343.68 413.991 C 1364.67 426.085 1387.7 435.818 1408.57 448.352 C 1418.15 454.101 1426.25 461.528 1435.8 467.042 C 1436.5 475.135 1436.8 482.085 1437.01 490.216 C 1418.6 496.487 1390.58 515.573 1374.84 526.696 C 1378.96 513.627 1392.02 473.934 1386.51 462.752 C 1381.33 465.875 1380.09 477.454 1378.98 483.2 C 1376.43 493.158 1366.23 525.324 1366.54 533.217 C 1348.64 544.586 1324.89 565 1308.7 579.323 C 1312.56 558.97 1315.83 537.004 1317.29 516.317 C 1318.39 511.167 1314.82 490.247 1316.4 486.882 C 1328.46 461.241 1340.41 443.07 1343.68 413.991 z" fill="rgb(248,242,227)" transform="translate(0,0)"></path>
<path d="M 1260.91 775.999 C 1264.07 779.777 1262.84 797.096 1275.15 812.805 L 1267.47 817.887 C 1238.25 837.378 1185.12 879.58 1170.58 910.586 C 1165.66 921.041 1163.75 932.662 1165.08 944.142 C 1166.74 958.867 1179.65 973.266 1180.08 986.528 C 1180.85 1009.56 1173.66 1039.11 1169.09 1062.04 L 1160.5 1055.29 L 1142.19 1042.69 C 1146.73 1018.01 1153.94 1002.47 1152.27 975.833 C 1151.13 957.655 1135.2 928.949 1137.65 916.643 C 1149.28 858.184 1219.51 812.582 1260.91 775.999 z" fill="rgb(243,190,107)" transform="translate(0,0)"></path>
<path d="M 1376.07 759.884 L 1377.42 760.901 C 1381.81 770.386 1378.08 810.628 1376.03 821.604 C 1369.37 857.272 1348.16 889.112 1313.84 853.22 C 1304.14 841.17 1298.89 831.905 1291.81 818.283 C 1305.99 814.597 1307.58 808.104 1317.89 803.093 C 1340.99 791.865 1355.22 774.828 1374.93 760.692 L 1376.07 759.884 z" fill="rgb(248,242,227)" transform="translate(0,0)"></path>
<path d="M 1489.09 669.817 C 1491.97 672.352 1491.83 687.958 1491.64 692.484 C 1490.42 719.577 1489.54 757.56 1470.06 778.555 C 1457.41 792.193 1442.96 781.484 1434.16 770.408 C 1421.77 752.843 1422.93 748.919 1415.86 731.624 L 1415.15 729.905 C 1427.6 718.767 1442.85 708.07 1455.95 697.467 C 1467.2 688.361 1477.91 678.969 1489.09 669.817 z" fill="rgb(248,242,227)" transform="translate(0,0)"></path>
<path d="M 1552.83 614.835 C 1558.2 639.333 1548.47 766.419 1501.88 741.423 C 1500.49 740.353 1497.46 738.416 1497.61 736.416 C 1499.55 711.459 1501.53 687.465 1497.84 662.443 C 1515.96 648.139 1534.9 630.103 1552.83 614.835 z" fill="rgb(248,242,227)" transform="translate(0,0)"></path>
<path d="M 1306.68 501.738 L 1307.56 502.64 C 1312.01 523.236 1301.11 567.832 1296.71 589.042 C 1273.52 604.815 1248.13 629.214 1226.22 647.965 L 1225.5 647.069 C 1234.35 620.83 1241.67 591.745 1247.56 564.73 C 1273.79 542.657 1286.95 530.314 1306.68 501.738 z" fill="rgb(248,242,227)" transform="translate(0,0)"></path>
<path d="M 1899.45 1445.18 C 1906.94 1446.99 1907.87 1448.31 1912.56 1454.56 C 1916.16 1479.59 1919.02 1505.75 1922.3 1530.8 C 1928.99 1581.95 1945.51 1632.6 1954.16 1682.66 C 1962.17 1737.61 1924.28 1782.06 1879.13 1806.1 C 1773.91 1862.1 1656.52 1859.24 1541.27 1868.59 C 1485.35 1873.02 1428.02 1883.41 1372.4 1888.19 C 1286.85 1895.55 1207.8 1902.87 1125.47 1929.8 C 1077.47 1945.5 1022.54 1962.94 971.893 1965.58 C 939.191 1967.41 906.433 1963.15 875.286 1953.02 C 856.905 1947.05 839.923 1940.06 821.071 1934.59 C 815.956 1933.49 810.67 1932.3 804.854 1931.77 C 793.833 1930.77 756.096 1934.61 769.872 1912.39 C 778.99 1897.68 809.057 1903.63 823.812 1906.34 C 849.366 1911.02 873.473 1923.03 898.92 1929.55 C 919.023 1934.87 939.762 1937.4 960.554 1937.07 C 1042.7 1935.7 1123.3 1895.14 1203.59 1880.02 C 1246.54 1871.94 1286.93 1868 1330.23 1864.34 C 1351.03 1862.58 1386.03 1860.95 1405.84 1857.56 C 1422.34 1823.76 1435.21 1789 1448.98 1753.83 C 1481.46 1671.48 1546.87 1604 1629.13 1569.51 C 1710.45 1535.41 1819.87 1548.4 1875.43 1465.37 C 1882.66 1454.56 1886.84 1449.08 1899.45 1445.18 z" fill="rgb(141,77,61)" transform="translate(0,0)"></path>
<path d="M 1402.65 1876.76 C 1420.82 1854.75 1438.38 1803.1 1448.6 1776.74 C 1453.85 1763.54 1459.48 1750.5 1465.48 1737.63 C 1499.49 1664.65 1559.74 1607.15 1634.23 1576.59 C 1686.8 1555.23 1745.16 1553.12 1798.09 1533.44 C 1821.17 1524.3 1842.28 1511.04 1861.28 1495.17 C 1872.9 1485.45 1878.43 1475.82 1886.64 1463.44 C 1896.54 1448.5 1905.52 1451.87 1906.71 1469.23 C 1909.5 1509.87 1916.6 1549.96 1924.47 1589.87 C 1931.64 1626.42 1946.8 1660.91 1946.71 1698.54 C 1946.64 1727.77 1933.35 1752.19 1912.34 1771.86 C 1853.87 1826.59 1722.63 1851.62 1645.44 1853.04 C 1659.03 1850.5 1674.97 1847.92 1688.16 1844.54 C 1750.71 1828.51 1815.61 1796.59 1852.9 1742.04 C 1895.89 1679.14 1903.21 1592.47 1902.15 1518.37 C 1901.99 1507.64 1901.55 1473.08 1900.02 1464.25 L 1898.37 1462.09 L 1896.34 1461.95 C 1890.32 1467.88 1895.2 1519.43 1894.94 1532.44 C 1893.3 1613.21 1883.75 1703.57 1824.3 1764.2 C 1793.18 1795.64 1762.56 1809.1 1723.39 1825.58 L 1722.46 1823.49 L 1723.28 1823.13 C 1779 1798.49 1821.51 1749.36 1843.38 1693.08 C 1848.75 1679.26 1853.3 1664.76 1856.33 1650.25 C 1860.13 1632.1 1869.84 1553.27 1862.28 1538.74 C 1861.14 1536.54 1860.24 1535.69 1857.93 1534.93 C 1842.65 1537.38 1810 1562.66 1791.65 1568.6 C 1715.75 1593.21 1649.86 1604.16 1583.59 1652.13 C 1518.04 1699.58 1485.75 1754.21 1448.29 1824.04 C 1443.81 1832.38 1424.66 1860.37 1423.56 1867.03 C 1426.45 1869.15 1424.9 1868.74 1428.31 1868.5 C 1437.08 1863.12 1477.47 1788.71 1485.64 1774.08 C 1530.89 1693.01 1604.83 1635.66 1692.6 1607.06 C 1720.92 1597.84 1752.14 1590.45 1780.98 1581.66 C 1793.73 1577.77 1822.04 1559.7 1831.02 1558.45 L 1831.69 1559.5 C 1832.81 1566.33 1822.97 1578.07 1817.16 1581.08 L 1815.14 1580.85 C 1815.18 1578.47 1815.07 1578.98 1815.62 1576.67 C 1770.49 1623.57 1742.68 1626.8 1683.74 1648.63 C 1601.95 1678.93 1549.19 1721.59 1501.14 1793.76 C 1494.44 1803.81 1464.46 1845.29 1462.09 1854.98 C 1463.49 1857.61 1462.49 1856.56 1465.47 1857.94 C 1468.14 1857.27 1469.86 1855.43 1471.3 1853.16 C 1494.67 1816.35 1518.35 1780.22 1547.06 1747.28 C 1585.73 1702.91 1636.12 1675.18 1690.51 1654.71 C 1717.74 1644.34 1747.51 1634.91 1773.54 1621.59 C 1783.29 1616.61 1798.36 1604.42 1806.91 1597.42 C 1806.21 1598.87 1805.72 1599.92 1805.12 1601.41 C 1813.88 1596 1831.81 1571.21 1839.13 1562.53 C 1843.8 1556.98 1847.9 1549.65 1853.27 1544.41 L 1854.7 1544.94 C 1857.46 1552.61 1856.07 1565.19 1856.13 1573.45 C 1856.71 1658.13 1825.98 1745.5 1754.4 1795.87 C 1691.29 1840.28 1606.84 1848.51 1532.69 1858.85 C 1489.03 1864.93 1446.6 1871.85 1402.65 1876.76 z" fill="rgb(248,242,227)" transform="translate(0,0)"></path>
<path d="M 1831.69 1559.5 C 1832.81 1566.33 1822.97 1578.07 1817.16 1581.08 L 1815.14 1580.85 C 1815.18 1578.47 1815.07 1578.98 1815.62 1576.67 L 1831.69 1559.5 z" fill="rgb(166,102,81)" transform="translate(0,0)"></path>
<path d="M 1831.43 1581.12 C 1837.98 1580.7 1847.66 1581.12 1845.42 1591.02 C 1836.69 1629.59 1825.89 1671.93 1800.55 1703.27 C 1743.94 1773.26 1647.34 1803.39 1563.38 1825.24 C 1552.84 1828.05 1542.21 1830.46 1531.49 1832.49 C 1522.61 1834.2 1513.24 1834.34 1506.42 1840.3 C 1503.41 1842.09 1501.38 1842.62 1498.07 1841.84 C 1495.99 1839.17 1496.55 1836.33 1498.89 1834.35 C 1507.68 1826.88 1514.63 1818.29 1520.93 1808.71 C 1561.54 1747.02 1615.41 1699.8 1684.78 1673.1 C 1713.05 1662.23 1744.64 1651.26 1770.42 1634.72 C 1795.11 1619.41 1810.4 1599.9 1831.43 1581.12 z" fill="rgb(141,77,61)" transform="translate(0,0)"></path>
<path d="M 1828.84 1591.8 C 1829.36 1597.15 1819.43 1618.6 1816.66 1624.65 C 1792.65 1675.74 1752.48 1717.5 1702.37 1743.48 C 1675.84 1757.33 1641.32 1769.93 1613.49 1782.79 C 1583.93 1796.46 1550.93 1813.31 1520.72 1824.48 C 1520.61 1820.08 1538.85 1797.44 1542.71 1792.26 C 1579.91 1741.54 1630.89 1702.58 1689.6 1680.03 C 1715.63 1669.75 1742.46 1660.94 1766.53 1646.72 C 1792.15 1631.59 1808.57 1612.52 1828.84 1591.8 z" fill="rgb(248,242,227)" transform="translate(0,0)"></path>
<path d="M 1831.65 1610 L 1832.33 1610.64 C 1828.01 1637.74 1811.05 1677.25 1794.12 1698.46 C 1751.58 1751.77 1676.89 1784.21 1612.54 1803.11 C 1595.96 1807.98 1579.23 1814.05 1562.33 1816.33 L 1561.69 1815.66 C 1562.17 1815.01 1664.8 1768.5 1674.36 1764.8 C 1752.09 1734.76 1798.78 1685.93 1831.65 1610 z" fill="rgb(248,242,227)" transform="translate(0,0)"></path>
<path d="M 1395.61 1866.43 C 1398.46 1866.35 1397.41 1865.81 1399.14 1867.4 C 1399.22 1874.47 1395.96 1877.79 1388.82 1878.76 C 1380.44 1879.9 1371.61 1880.18 1363.13 1880.91 L 1303.25 1886.03 C 1249.86 1890.57 1211.33 1897.23 1159.65 1910.86 C 1092.88 1928.47 1026.23 1957.72 956.897 1957.73 C 927.886 1957.73 902.96 1952.25 875.442 1943.81 C 840.834 1933.19 819.043 1920.56 782.236 1923.21 C 778.598 1923.73 777.685 1923.48 775.847 1920.7 C 775.995 1918.2 776.113 1917.53 777.882 1915.56 C 794.391 1897.16 883.164 1934.29 907.485 1939.31 C 929.002 1943.63 950.994 1945.09 972.892 1943.65 C 1047.07 1939.47 1108.53 1909.6 1178.77 1893.09 C 1245.33 1877.45 1326.61 1871.22 1395.61 1866.43 z" fill="rgb(248,242,227)" transform="translate(0,0)"></path>
<path d="M 1722.46 1823.49 L 1723.39 1825.58 C 1718.38 1827.68 1684.43 1840.96 1681.27 1838.3 C 1695.69 1834.74 1708.74 1829.07 1722.46 1823.49 z" fill="rgb(197,152,140)" transform="translate(0,0)"></path>
<path d="M 347.881 1717.77 L 348.883 1718.75 C 360.377 1730.1 371.684 1747.19 385.188 1755.29 C 403.457 1766.26 429.436 1773.52 450.044 1779.86 C 506.121 1797.5 563.323 1811.35 621.262 1821.29 C 659.341 1827.81 694.577 1831.5 732.21 1836.8 C 722.371 1836.81 710.323 1839.01 700.155 1839.79 C 604.768 1847.06 511.513 1833.25 416.602 1827.35 C 409.711 1826.92 358.31 1827.55 355.82 1825.89 C 355.259 1822.99 355.147 1824.44 356.948 1821.52 C 371.334 1814.01 457.266 1822.32 477.3 1820.93 L 477.564 1819.87 C 473.823 1818.13 455.621 1816.34 450.475 1815.74 C 409.62 1811.02 366.167 1805.48 325.054 1807.52 C 319.102 1807.82 315.104 1808.63 310.68 1804.75 C 310.32 1801.53 309.955 1802.99 311.998 1800.28 C 320.302 1795.89 344.904 1796.17 355.104 1796.01 L 356.046 1793.17 C 327.573 1790.42 289.306 1791.25 261.95 1800.39 C 240.249 1807.65 250.31 1820.26 246.639 1828.53 C 233.363 1830.65 227.772 1800.53 263.91 1788.28 C 298.905 1776.4 328.054 1781.03 359.318 1773.56 C 332.75 1771.23 304.639 1775.32 277.959 1773.89 C 275.616 1773.76 274.719 1773.03 273.515 1771.21 L 274.467 1768.99 C 281.811 1762.6 295.209 1763.05 305.053 1762.11 C 326.647 1760.24 348.258 1758.57 369.883 1757.09 C 321.149 1746.41 255.146 1755.33 212.216 1782.94 C 205.169 1787.47 192.72 1800.92 186.81 1801.7 C 184.348 1800.04 185.27 1801.17 184.372 1797.92 C 184.892 1794.75 186.079 1793.03 188.356 1790.79 C 227.226 1752.5 292.368 1739.87 344.395 1737.72 L 344.53 1737.13 C 325.618 1732.15 275.427 1733.44 257.363 1738.09 C 228.09 1745.62 151.77 1766.8 162.53 1809.01 C 160.299 1811.94 158.832 1811.8 155.711 1811.17 C 146.518 1803.46 152.79 1786.58 158.166 1778.45 C 165.207 1767.81 178.765 1759.93 189.732 1753.92 C 237.576 1727.71 292.532 1715.83 346.818 1718.2 C 347.172 1718.06 347.527 1717.91 347.881 1717.77 z" fill="rgb(243,190,107)" transform="translate(0,0)"></path>
<path d="M 356.046 1793.17 C 360.064 1793.42 368.107 1793.69 371.817 1794.2 L 372.445 1795.73 L 374.324 1795.1 L 373.318 1794.48 L 374.28 1795.19 L 373.262 1795.56 L 373.212 1794.43 L 371.807 1795.79 C 365.933 1796.05 360.977 1796.09 355.104 1796.01 L 356.046 1793.17 z" fill="rgb(226,214,175)" transform="translate(0,0)"></path>
<path d="M 236.823 1690.28 C 241.238 1689.7 245.092 1691.35 245.511 1696.09 C 242.855 1700.36 221.317 1704.81 215.639 1706.41 C 203.131 1709.98 190.84 1714.28 178.829 1719.28 C 158.156 1728.01 144.597 1738.86 128.098 1753.31 C 124.754 1755.53 124.607 1755.03 121.204 1753.49 L 120.438 1751.25 C 122.06 1744.57 132.501 1736.83 137.851 1732.73 C 165.329 1711.67 202.87 1697.27 236.823 1690.28 z" fill="rgb(243,190,107)" transform="translate(0,0)"></path>
<path d="M 63.2118 1748.08 C 64.3829 1743.07 65.7355 1737.76 72.2309 1739.25 C 74.0539 1742.79 73.5119 1740.86 73.0653 1745.43 C 66.7579 1783.72 96.4585 1793.63 98.9031 1803.86 L 97.6155 1805.6 C 91.0257 1807.29 81.2917 1798.2 77.4115 1793.62 C 65.0852 1779.08 61.934 1766.86 63.2118 1748.08 z" fill="rgb(243,190,107)" transform="translate(0,0)"></path>
<path d="M 1838.7 1916.46 C 1842.3 1916.07 1843.97 1916.01 1845.99 1919.16 L 1844.81 1921.11 C 1835.01 1926.3 1804.02 1927.53 1790.56 1930.39 L 1789.27 1930.68 C 1787.85 1930.94 1786.56 1930.65 1785.02 1930.51 C 1781.7 1927.81 1782.42 1929.41 1781.72 1926.08 C 1787.26 1920.67 1828.95 1917.44 1838.7 1916.46 z" fill="rgb(141,77,61)" transform="translate(0,0)"></path>
<path d="M 136.015 1694.91 C 138.743 1697.13 139.563 1698.24 139.412 1701.53 C 135.555 1704.76 107.339 1719.2 102.286 1721.55 C 99.8592 1720.56 100.714 1720.95 98.721 1718.92 C 97.2736 1708.52 127.63 1698.24 136.015 1694.91 z" fill="rgb(243,190,107)" transform="translate(0,0)"></path>
<path d="M 1559.56 1957.42 C 1563.37 1957.75 1564.37 1957.61 1566.37 1959.94 L 1565.57 1961.75 C 1558.62 1965.82 1527.19 1967.03 1517.82 1967.26 C 1513.7 1967.1 1511.81 1967.79 1510.81 1963.54 C 1515.62 1957.51 1550.05 1957.88 1559.56 1957.42 z" fill="rgb(141,77,61)" transform="translate(0,0)"></path>
<path d="M 1724.63 1892.04 C 1734.61 1891.64 1764.94 1892.13 1773.3 1896.27 C 1775.44 1899.33 1774.86 1897.64 1774.75 1901.63 C 1766.47 1902.2 1736.94 1901.55 1727.98 1898.14 C 1725.34 1897.14 1725.21 1894.48 1724.63 1892.04 z" fill="rgb(141,77,61)" transform="translate(0,0)"></path>
<path d="M 204.137 1660.15 L 208.334 1660.49 C 210.66 1663.21 210.124 1661.68 210.084 1665.2 C 206.383 1670.32 185.723 1675.33 178.274 1677.58 C 174.342 1677.99 175.868 1678.57 173.272 1676.64 C 172.408 1673.06 172.261 1674.74 173.603 1671.41 C 179.779 1665.68 195.458 1662.5 204.137 1660.15 z" fill="rgb(243,190,107)" transform="translate(0,0)"></path>
<path d="M 1647.56 1953.2 C 1655.87 1952.45 1683.1 1950.93 1688.53 1956.53 L 1688.23 1959.85 C 1680.65 1960.51 1650.71 1961.99 1646.88 1956.01 L 1647.56 1953.2 z" fill="rgb(141,77,61)" transform="translate(0,0)"></path>
<path d="M 1626.46 1925.39 C 1628.93 1925.28 1631.4 1925.26 1633.87 1925.33 C 1638.32 1925.49 1640.65 1926.2 1643.74 1929.53 L 1643.43 1931.56 C 1640.42 1933.96 1637.72 1933.59 1633.77 1933.81 C 1628.07 1933.74 1616.87 1934.44 1613.41 1929.37 L 1614.45 1927.64 C 1618.38 1925.42 1621.87 1925.68 1626.46 1925.39 z" fill="rgb(141,77,61)" transform="translate(0,0)"></path>
<path d="M 1885.01 1901.35 C 1887.7 1901.01 1889.31 1901.12 1892 1901.15 C 1894.81 1902.89 1894.06 1901.69 1895.02 1904.32 C 1891.71 1908.49 1876.76 1909.8 1870.83 1910.71 C 1867.08 1911.31 1861.88 1912.91 1859.32 1909.69 C 1862.6 1904.42 1879.01 1902.3 1885.01 1901.35 z" fill="rgb(141,77,61)" transform="translate(0,0)"></path>
<path d="M 1441.9 1951.31 C 1447.33 1951.04 1465.51 1949.21 1468.88 1953.56 C 1467.21 1956.05 1467.2 1955.39 1463.76 1956.65 C 1456.95 1958.03 1440.41 1959.63 1435.21 1954.74 C 1438.16 1951.71 1437.3 1952.64 1441.9 1951.31 z" fill="rgb(141,77,61)" transform="translate(0,0)"></path>
<path d="M 1803.49 1959.57 C 1810.77 1958.96 1818.12 1957.79 1824.9 1960.76 L 1825.41 1962.4 C 1823.57 1964.7 1821.44 1964.85 1818.52 1965.64 C 1812.79 1966.63 1802.33 1968.82 1798.76 1963.06 L 1800.18 1959.92 L 1803.49 1959.57 z" fill="rgb(141,77,61)" transform="translate(0,0)"></path>
<path d="M 1917.59 1923.43 C 1920.71 1923.11 1922.89 1923.29 1925.77 1924.45 L 1925.2 1926.24 C 1918.01 1930.73 1916.21 1930.36 1907.76 1931.25 L 1906.76 1931.41 C 1902.66 1932.03 1899.88 1932.62 1896.58 1930.2 L 1897.54 1928.62 C 1905.73 1923.81 1908.1 1924.23 1917.59 1923.43 z" fill="rgb(141,77,61)" transform="translate(0,0)"></path>
<path d="M 1716.05 1918.22 C 1721.52 1917.96 1722.8 1917.61 1727.16 1920.6 L 1727.48 1922.33 C 1725.78 1924.95 1724.25 1925.08 1721.25 1926.12 C 1717.07 1926.16 1711.06 1926.3 1709.54 1921.72 C 1711.25 1919.24 1713.1 1919.1 1716.05 1918.22 z" fill="rgb(141,77,61)" transform="translate(0,0)"></path>
<path d="M 1729.99 1957.23 C 1735.77 1956.56 1742.23 1955.53 1746.63 1959.65 L 1746.57 1962.75 C 1741.52 1963.9 1736.78 1964.96 1731.95 1962.98 C 1729.27 1960.07 1730.14 1961.82 1729.99 1957.23 z" fill="rgb(141,77,61)" transform="translate(0,0)"></path>
<metadata><recraft-signature>{"signed_by": "recraft", "signature_b64": "BLYsxt80bzdkSg8rh7blc/T3nN4HbjdVNoZs/Vq3avDkzONLNOrpRtM3bo1G2xlU/OHKe7pNazPrMpQa+2w9DQ==", "signing_algo": "Ed25519", "generation_timestamp": 1778092919, "identifier": "6ea919a5-9238-4094-a8fc-152882684dea"}</recraft-signature></metadata></svg>