<svg xmlns="http://www.w3.org/2000/svg" height="1024" preserveAspectRatio="none" style="display: block;" version="1.1" viewBox="0 0 2048 2048" width="1024">
<defs>
	<linearGradient gradientUnits="userSpaceOnUse" id="Gradient1" x1="941.25" x2="919.291" y1="322.279" y2="313.927">
		<stop class="stop0" offset="0" stop-color="rgb(12,0,0)" stop-opacity="1"></stop>
		<stop class="stop1" offset="1" stop-color="rgb(52,0,0)" stop-opacity="1"></stop>
	</linearGradient>
	<linearGradient gradientUnits="userSpaceOnUse" id="Gradient2" x1="1302.98" x2="1272.45" y1="1096.77" y2="1162.53">
		<stop class="stop0" offset="0" stop-color="rgb(30,0,0)" stop-opacity="1"></stop>
		<stop class="stop1" offset="1" stop-color="rgb(47,0,0)" stop-opacity="1"></stop>
	</linearGradient>
</defs>
<path d="M 0 0 L 938.298 0 L 994.716 0 L 1002.09 0 L 2048 0 L 2048 2048 L 0 2048 L 0 0 z" fill="rgb(255,255,255)" transform="translate(0,0)"></path>
<path d="M 1996.4 846.206 C 1998.75 847.531 2001.29 848.623 2002.13 851.383 C 2002.84 853.763 2005.22 1151.75 2002.1 1171.99 C 2020.64 1188.8 2023.26 1200.99 2004.85 1220.15 C 2003.52 1221.53 2002.16 1222.88 2000.78 1224.21 C 2002.88 1228.23 2003.13 1229.9 2003.25 1234.55 C 2004.21 1273.33 2003.52 1312.28 2003.56 1351.05 C 2004.1 1419 2004.27 1486.96 2004.07 1554.92 L 2003.96 1744.76 C 2003.97 1780.04 2004.11 1815.07 2003.59 1850.5 C 2003.76 1884.2 1994.5 1920.89 1965.16 1941.01 C 1948.22 1952.62 1923.82 1959.07 1903.54 1965.03 C 1852.17 1980.11 1798.52 2005.27 1745.53 2011.95 C 1716.23 2015.65 1680.68 2003.3 1652.52 1996.58 C 1574.64 1977.91 1495.69 1969.35 1415.64 1972.28 C 1394.02 1973.07 1372.41 1972.69 1350.97 1976.07 C 1317.16 1980.72 1284.95 1991.35 1251.94 1999.24 C 1219.88 2006.7 1187.83 2012.93 1155.8 2020.69 C 1107.19 2032.46 1052.96 2046.75 1002.46 2044.56 C 834.976 2037.3 673.535 1983.81 506.513 1971.71 C 485.263 1970.17 463.159 1965.89 442.16 1962.55 C 292.538 1938.92 142.301 1869.9 66.3337 1732.28 C 45.3596 1693.94 24.9357 1619.35 24.85 1575.15 C 38.1289 1569.13 55.4352 1562.95 69.3138 1557.52 C 100.783 1544.98 132.439 1532.92 164.269 1521.33 L 404.589 1432.77 L 686.499 1330.98 L 761.584 1304.3 C 776.899 1298.8 792.129 1292.58 807.663 1287.86 C 793.593 1319.93 802.586 1349.16 819.698 1377.59 C 776.324 1393.3 732.757 1408.47 689.008 1423.11 C 677.609 1426.98 612.846 1447.39 609.222 1453.76 C 610.174 1456.2 612.862 1458.75 615.218 1459.7 C 660.517 1478.02 708.075 1495.93 753.537 1513.56 L 928.96 1580.96 L 987.801 1604.01 C 1015.13 1614.72 1036.81 1625.88 1065.79 1612.49 C 1081.17 1605.39 1096.02 1596.94 1110.93 1588.95 C 1144.17 1571.3 1177.29 1553.43 1210.29 1535.34 C 1307.01 1482.67 1404.58 1433.49 1496.89 1372.74 C 1506.34 1366.52 1536.74 1349.43 1510.59 1337.95 C 1490.19 1329 1467.58 1322.13 1446.32 1315.15 L 1356.12 1285.73 C 1331.08 1277.73 1303.18 1269.29 1278.77 1259.41 C 1303.13 1250.57 1326.91 1242.02 1340.31 1218.38 C 1352.28 1197.26 1352.29 1174.97 1346.35 1152.07 C 1347.69 1149.43 1347.77 1147.43 1348.33 1144.46 L 1349.68 1144.4 C 1353.21 1147.02 1354.65 1148.61 1358.82 1149.41 C 1363.29 1148.24 1361.43 1149.31 1364.7 1146.19 C 1369.5 1132.85 1348.2 1105.71 1338.88 1096.62 C 1378.49 1079.24 1427.23 1063.72 1468.33 1047.87 L 1841.81 906.801 L 1938.29 869.963 C 1950.49 865.355 1986.87 852.468 1996.4 846.206 z" fill="rgb(245,238,219)" transform="translate(0,0)"></path>
<path d="M 1484.78 1193.56 C 1497.23 1146.52 1602.53 1124.22 1646.17 1117.08 C 1672.75 1112.55 1699.6 1109.88 1726.55 1109.09 C 1806.46 1107.4 1935.86 1124.41 2002.1 1171.99 C 2020.64 1188.8 2023.26 1200.99 2004.85 1220.15 C 2003.52 1221.53 2002.16 1222.88 2000.78 1224.21 C 1996.64 1227.56 1991.99 1230.47 1987.54 1233.43 C 1982.35 1251.55 1977.07 1269.25 1969.08 1286.21 C 1949.03 1328.79 1895.56 1393.48 1850.09 1408.46 C 1833.41 1413.95 1816.24 1417.81 1798.82 1419.98 C 1759.06 1424.74 1682.32 1421.84 1647.67 1403.39 C 1579.46 1367.07 1535.23 1302.3 1512.3 1230.41 C 1499.05 1219.08 1489.49 1210.91 1484.78 1193.56 z" fill="rgb(59,0,0)" transform="translate(0,0)"></path>
<path d="M 1727.46 1115.44 C 1801.36 1113.21 1875.02 1125.04 1944.51 1150.31 C 1993.11 1168.44 2046.9 1194.9 1974.35 1233.37 C 1910.85 1267.05 1848.27 1278.75 1777.37 1281.82 C 1704.64 1282.48 1636.06 1273.93 1567.44 1248.86 C 1548.78 1241.88 1529.33 1233.74 1513.28 1222.03 C 1502.31 1214.02 1482.7 1194.95 1497.08 1181.91 C 1551.87 1132.24 1657.15 1118.29 1727.46 1115.44 z" fill="rgb(245,238,219)" transform="translate(0,0)"></path>
<path d="M 1729.56 1133.44 C 1799.6 1132.01 1872.15 1142.55 1937.43 1168.78 C 1947.02 1172.63 1976.65 1183.37 1980.22 1195.05 C 1981.1 1197.93 1977.59 1204.33 1975.16 1206.38 C 1925.82 1247.97 1835.95 1265.23 1773.13 1267.28 C 1707.06 1271.05 1592.72 1253.21 1535.83 1216.25 C 1528.37 1211.01 1521.29 1204.16 1519.84 1194.8 C 1518.59 1189.41 1524.79 1183.51 1528.99 1180.61 C 1584.05 1142.7 1665.5 1136.31 1729.56 1133.44 z" fill="rgb(59,0,0)" transform="translate(0,0)"></path>
<path d="M 1709.06 1140.57 C 1782.22 1134.88 1868.53 1147.69 1936.65 1175.18 C 1950.3 1180.69 1964.73 1186.4 1975.32 1196.8 C 1946.37 1235.98 1838.53 1256.64 1789.76 1260.3 C 1781.38 1261.29 1767.45 1261.17 1758.62 1261.23 C 1693.98 1261.61 1624.52 1249.96 1564.63 1225.04 C 1552.08 1219.26 1531.12 1209.72 1525.74 1196.39 C 1521.92 1186.94 1553.68 1172.3 1560.41 1169.61 C 1607.32 1150.9 1658.88 1143.29 1709.06 1140.57 z" fill="rgb(245,238,219)" transform="translate(0,0)"></path>
<path d="M 1520.5 1234.49 C 1529.36 1238.16 1538.29 1244.3 1547.27 1247.84 C 1666.39 1294.75 1806.01 1303.53 1927.8 1261.24 C 1945.81 1254.98 1963.23 1245.97 1980.1 1237.55 C 1970.49 1272.68 1958.73 1295.08 1938.15 1324.46 C 1915.83 1355.02 1882.65 1390.8 1844.97 1403.34 C 1798.31 1418.87 1736.88 1417.95 1688.05 1409.96 C 1679.04 1408.49 1651.42 1396.68 1642.49 1392.02 C 1583.87 1361.41 1540.38 1296.26 1520.5 1234.49 z" fill="rgb(245,238,219)" transform="translate(0,0)"></path>
<path d="M 1501.63 1577.44 C 1525.52 1575.58 1540.83 1579.57 1562.46 1580.12 C 1579.96 1579.72 1597.61 1578.16 1615.14 1579.6 C 1677.12 1584.69 1737.92 1606.16 1789.84 1640.3 C 1800 1646.97 1809.32 1653.43 1819.71 1659.42 C 1843.37 1673.07 1872.86 1681.24 1895.45 1696.33 C 1885.77 1711.49 1869.11 1720.28 1853.41 1727.88 C 1843.82 1761.47 1837.36 1787.47 1808.46 1811.06 C 1791.78 1822.07 1788.97 1829.98 1779 1845.41 C 1731.33 1919.22 1641.86 1945.11 1560.25 1952.84 C 1466.63 1958.07 1385.87 1946.93 1303.25 1897.65 C 1288.42 1888.81 1274.39 1876 1261.03 1865.17 C 1246.36 1853.27 1238.13 1839.06 1226.25 1825.31 C 1218.75 1818.01 1209.56 1811.73 1201.58 1804.98 C 1159.76 1769.58 1148.64 1719.5 1188.07 1677.16 C 1207.5 1656.3 1222.41 1647.46 1247.58 1634.32 C 1326.01 1593.38 1413.94 1581.79 1501.63 1577.44 z" fill="rgb(59,0,0)" transform="translate(0,0)"></path>
<path d="M 1589.33 1585.56 C 1651.9 1585.61 1713.32 1602.34 1767.27 1634.02 C 1782.46 1642.8 1798.44 1655.33 1813.12 1663.33 C 1836.52 1676.07 1861.91 1686.2 1886.1 1698.43 C 1840.47 1740.74 1786.98 1734.6 1729.44 1752.57 C 1728.37 1735.74 1720.14 1713.06 1707.03 1701.75 C 1705.99 1700.86 1704.93 1700.01 1703.84 1699.19 C 1706.91 1708.7 1712.41 1717.88 1716.29 1727.35 C 1719.95 1736.28 1722.2 1745.6 1725.73 1754.22 C 1684.65 1769.99 1665.37 1787.26 1637.58 1820.87 C 1625.8 1835.13 1601.87 1880.27 1587.22 1885 C 1579.75 1880.92 1566.2 1867.51 1559.55 1861.4 C 1539.53 1843.01 1523.36 1829.64 1498.33 1818.55 C 1441.53 1793.36 1380.13 1803.75 1320.17 1800.35 C 1308.03 1799.66 1287.3 1798.63 1276.41 1795.22 C 1285.05 1781.08 1304.66 1746.86 1314.16 1735.59 L 1316.28 1732.73 C 1328.7 1717.16 1340.74 1703.98 1354.52 1689.6 L 1357.61 1686.81 C 1360.82 1684.45 1364.88 1680.82 1368.01 1678.14 C 1387.53 1661.4 1407.94 1648.57 1430.41 1636.1 C 1431.32 1635.17 1432.53 1634.64 1433.73 1633.94 C 1458.09 1621.86 1478.37 1612.25 1504.25 1603.37 C 1527.09 1615.65 1553.49 1630.45 1567.62 1652.15 C 1570.05 1655.89 1576.26 1666.18 1580.26 1665.93 C 1584.78 1653.9 1546.65 1620.08 1535.77 1615.25 C 1528.91 1612.2 1517.45 1605.25 1511.3 1600.98 C 1530.81 1593.09 1553.9 1588.69 1574.79 1585.64 C 1586.12 1591.7 1593.75 1596.34 1603.63 1604.66 C 1606.95 1607.46 1616.82 1616.69 1620.04 1617.55 L 1621.46 1616.89 C 1621.64 1608.14 1596.62 1590.86 1589.33 1585.56 z" fill="rgb(245,238,219)" transform="translate(0,0)"></path>
<path d="M 1430.41 1636.1 C 1431.32 1635.17 1432.53 1634.64 1433.73 1633.94 C 1445.28 1641.57 1484.6 1668.47 1487.86 1680.29 L 1487.37 1682.52 C 1482.41 1682.51 1472.83 1669.31 1467.96 1665.39 C 1455.55 1655.41 1442.48 1646.47 1430.41 1636.1 z" fill="rgb(59,0,0)" transform="translate(0,0)"></path>
<path d="M 1354.52 1689.6 L 1357.61 1686.81 C 1367.33 1693.81 1407.81 1722.77 1411.93 1732.3 C 1405.65 1734.28 1389.44 1717.48 1383.85 1712.78 C 1374.38 1704.8 1363.85 1697.48 1354.52 1689.6 z" fill="rgb(59,0,0)" transform="translate(0,0)"></path>
<path d="M 1314.16 1735.59 L 1316.28 1732.73 C 1322.7 1738.03 1354.34 1766.21 1355.24 1771.8 L 1353.51 1773.44 C 1348.67 1771.54 1320.03 1741.37 1314.16 1735.59 z" fill="rgb(59,0,0)" transform="translate(0,0)"></path>
<path d="M 1541.6 1704.63 C 1547.18 1705.77 1552.5 1711.95 1556.39 1715.87 C 1569.31 1728.84 1600.95 1763.96 1600.89 1781.64 L 1597.27 1780.65 C 1590.58 1772.76 1586.68 1761.79 1580.59 1753.12 C 1575.18 1745.41 1542.49 1710.43 1541.73 1708.5 C 1541.26 1707.3 1541.64 1705.92 1541.6 1704.63 z" fill="rgb(59,0,0)" transform="translate(0,0)"></path>
<path d="M 1750.64 1639.68 C 1757.35 1639.86 1764.99 1646.06 1769.9 1650.37 C 1783.16 1662.01 1800.51 1684.38 1801.77 1702.56 L 1799.35 1703.08 C 1798.64 1702.7 1797.78 1702.52 1797.23 1701.94 C 1793.57 1698.07 1790.02 1688.36 1787.24 1683.42 C 1783.56 1676.77 1779.37 1670.42 1774.72 1664.42 C 1767.75 1655.38 1756.59 1649.32 1750.64 1639.68 z" fill="rgb(59,0,0)" transform="translate(0,0)"></path>
<path d="M 1658.24 1605.8 C 1664.99 1605.69 1671.49 1611.63 1676.32 1615.97 C 1688.74 1627.13 1708.64 1650.42 1709.54 1667.66 C 1708.21 1667.4 1707.02 1666.97 1705.75 1666.53 C 1702.03 1661.82 1699.97 1656.33 1697.07 1651.13 C 1693.43 1644.61 1688.69 1638.54 1683.76 1632.95 C 1676.46 1624.67 1662.32 1615.7 1658.24 1605.8 z" fill="rgb(59,0,0)" transform="translate(0,0)"></path>
<path d="M 1631.74 1677.54 C 1633.67 1678.05 1634.28 1678.27 1635.71 1679.68 C 1647.85 1691.64 1667.75 1731.54 1667.05 1748.21 C 1664.85 1747.37 1663.05 1747.2 1661.93 1744.94 C 1656.89 1734.79 1653.98 1723.15 1649.19 1712.74 C 1644.47 1702.5 1638.18 1694.63 1632.74 1685.04 C 1630.97 1681.92 1630.92 1681.04 1631.74 1677.54 z" fill="rgb(59,0,0)" transform="translate(0,0)"></path>
<path d="M 1438.39 1739.19 C 1458.29 1737.3 1488.91 1745.47 1505.79 1756.22 C 1510.07 1758.94 1513.48 1761.02 1514.68 1766.06 C 1504.89 1765.79 1493.71 1755.99 1484.32 1752.62 C 1469.75 1747.4 1453.89 1747.13 1439.4 1742.33 L 1438.39 1739.19 z" fill="rgb(59,0,0)" transform="translate(0,0)"></path>
<path d="M 1735.98 1672.61 C 1740.73 1674.57 1743.57 1677.92 1746.6 1681.99 C 1752.94 1690.52 1758.3 1702.46 1756.71 1713.16 C 1755.61 1712.54 1754.47 1711.96 1753.65 1710.95 C 1752.82 1709.94 1736.9 1678.43 1736.21 1676.44 C 1735.77 1675.14 1735.88 1673.94 1735.98 1672.61 z" fill="rgb(59,0,0)" transform="translate(0,0)"></path>
<path d="M 1553.36 1824.7 C 1553.79 1824.74 1554.23 1824.75 1554.66 1824.83 C 1559.92 1825.8 1566.01 1834.59 1569.1 1838.86 C 1573.26 1844.62 1579.76 1853.25 1578.62 1860.57 C 1576.94 1860.07 1575.72 1859.85 1574.45 1858.57 C 1570.6 1854.66 1553.49 1829.06 1553.36 1824.7 z" fill="rgb(59,0,0)" transform="translate(0,0)"></path>
<path d="M 1508.64 1583.43 C 1522.23 1582.76 1535.84 1582.85 1549.41 1583.71 C 1505.95 1595.72 1468.86 1606.96 1428.94 1628.97 C 1413.41 1637.53 1399.14 1648.08 1383.43 1655.91 C 1373.78 1659.48 1363.9 1658.54 1353.88 1660.86 C 1307.55 1671.58 1222.39 1689.12 1216.78 1747.72 C 1215.7 1759.02 1226.78 1777.73 1236.29 1785.12 C 1314.42 1845.8 1448.55 1859.36 1543.18 1855.95 C 1546.42 1858.29 1578.69 1886.34 1578.99 1887.65 L 1573.15 1888.73 C 1569.26 1889.11 1565.36 1889.43 1561.46 1889.71 C 1458.59 1897.26 1359.46 1880.28 1265.02 1837.43 C 1172.47 1795.44 1124.99 1716.46 1229.87 1651.45 C 1311.55 1600.81 1414.16 1588.52 1508.64 1583.43 z" fill="rgb(245,238,219)" transform="translate(0,0)"></path>
<path d="M 1239.37 1831.66 C 1251.55 1835.1 1263.89 1844.25 1275.62 1849.56 C 1298.49 1859.94 1322.61 1868.22 1346.75 1875.09 C 1372.59 1882.44 1398.91 1887.2 1425.47 1891.02 C 1545.48 1908.28 1672.45 1894.26 1779.42 1834.65 C 1772.61 1844.66 1765.18 1854.23 1757.17 1863.32 C 1748.85 1872.37 1740.03 1880.67 1730.27 1888.15 C 1654.62 1946.09 1546.17 1956.08 1454.51 1943.69 C 1374.54 1932.87 1289.32 1897.15 1239.37 1831.66 z" fill="rgb(245,238,219)" transform="translate(0,0)"></path>
<path d="M 1842.63 1732.98 C 1844.07 1732.87 1843.17 1732.82 1845.22 1733.65 C 1846.41 1745.87 1830.36 1775.85 1822.98 1785.81 C 1777.41 1847.36 1677.66 1874.28 1604.97 1885.29 C 1602.68 1885.24 1603.79 1885.49 1601.63 1884.5 C 1610.86 1872.39 1618.97 1859.71 1627.66 1847.25 C 1657.4 1842.08 1686.43 1833.49 1714.2 1821.65 C 1751.89 1805.68 1785.65 1783.07 1801.5 1743.92 C 1815.5 1740.98 1829.03 1737.41 1842.63 1732.98 z" fill="rgb(245,238,219)" transform="translate(0,0)"></path>
<path d="M 1278.01 1805.06 C 1250.25 1790.5 1202.04 1759.51 1232.45 1722.32 C 1261.97 1686.24 1332.56 1668.78 1377.87 1661.36 C 1332.77 1696.82 1305.58 1732.47 1277.07 1781.43 C 1273.94 1786.8 1269.73 1790.84 1271.05 1797.28 C 1273.31 1800.5 1275.46 1801.17 1279.06 1803.09 L 1278.01 1805.06 z" fill="rgb(245,238,219)" transform="translate(0,0)"></path>
<path d="M 1279.06 1803.09 C 1365.29 1818.14 1462.82 1786.29 1536.46 1850.39 C 1461.44 1852.05 1346.05 1839.72 1278.01 1805.06 L 1279.06 1803.09 z" fill="rgb(245,238,219)" transform="translate(0,0)"></path>
<path d="M 1789.55 1746.43 C 1791.43 1746.01 1790.4 1746.04 1792.65 1746.67 C 1792.34 1750.95 1787.92 1756.86 1785.57 1760.44 C 1755.71 1806.11 1690.13 1828.31 1638.73 1838.74 L 1635.96 1838.71 C 1635.6 1833.58 1642.52 1825.97 1645.7 1822.07 C 1685.69 1773.03 1726.62 1752.71 1789.55 1746.43 z" fill="rgb(245,238,219)" transform="translate(0,0)"></path>
<path d="M 289.359 1587.82 C 292.26 1588.09 295.687 1589.6 298.62 1590.3 C 308.614 1592.66 318.633 1594.92 328.675 1597.08 C 374.223 1606.57 417.569 1616.56 462.777 1626.76 L 852.989 1713.31 C 875.539 1718.27 975.954 1736.23 988.18 1745.77 C 1004.27 1758.32 1002.31 1795.98 1004.07 1814.2 C 1033.68 1823.4 1127.92 1849.41 1144.35 1874.28 C 1147.81 1879.51 1149.73 1886.23 1148.25 1892.47 C 1147.17 1897.01 1144.33 1900.54 1140.42 1902.98 C 1114.06 1919.4 1019.34 1895.11 988.367 1887.51 C 974.579 1910.74 966.103 1921.68 942.512 1935.02 C 933.035 1938.96 907.933 1930.32 896.962 1927.42 L 829.735 1909.71 L 409.571 1803.79 L 298.512 1775.97 C 282.872 1772.08 252.615 1765.63 239.153 1759.89 C 234.83 1744.03 233.957 1724.87 233.192 1708.43 C 201.115 1697.06 113.713 1676.38 95.4774 1651.2 C 91.24 1645.35 88.303 1637.22 89.7163 1629.94 C 90.751 1624.6 94.0644 1620.71 98.6151 1617.92 C 107.236 1612.64 118.343 1610.86 128.34 1610.8 C 157.935 1610.62 221.066 1627.54 251.003 1635.16 C 259.559 1616.4 271.326 1598.67 289.359 1587.82 z" fill="rgb(59,0,0)" transform="translate(0,0)"></path>
<path d="M 246.672 1667.23 C 268.2 1672.71 289.279 1681.81 310.705 1688.09 C 355.846 1701.09 401.866 1710.83 448.407 1717.23 C 476.113 1721.14 503.966 1723.93 531.897 1725.59 C 567.597 1727.7 603.632 1728.32 638.823 1735.21 C 693.012 1745.8 744.11 1768.03 797.257 1782.43 C 843.816 1795.05 889.852 1797.61 937.868 1798.95 C 933.387 1811.93 930.3 1825.33 927.295 1838.72 L 926.658 1840.83 C 920.809 1844.03 907.487 1841.93 900.623 1841.57 C 846.164 1838.78 800.187 1823.03 749.781 1803.61 C 724.049 1793.69 698.163 1782.95 670.966 1777.74 C 634.018 1770.65 596.45 1771.38 559 1771.01 C 529.311 1770.73 499.334 1769.66 469.814 1766.4 C 415.06 1759.83 361.073 1747.97 308.613 1730.96 C 285.916 1723.67 264.041 1713.57 241.009 1707.42 C 241.966 1693.74 243.392 1680.59 246.672 1667.23 z" fill="rgb(240,211,159)" transform="translate(0,0)"></path>
<path d="M 263.24 1625.48 C 322.75 1648.71 387.272 1659.28 450.491 1666.11 C 488.634 1670.24 527.123 1672.94 564.783 1680.47 C 591.96 1685.9 618.656 1693.38 645.436 1700.46 C 685.704 1711.11 726.014 1721.93 766.471 1731.84 C 796.165 1739.11 826.244 1746.11 856.38 1751.28 C 888.704 1756.82 921.308 1760.55 953.848 1764.56 C 949.033 1773.42 946.028 1783.44 940.756 1791.96 C 869.418 1792.52 813.726 1782.12 745.947 1760.05 C 711.608 1748.87 677.409 1735.49 641.836 1728.77 C 597.564 1720.42 552.336 1721.17 507.582 1717.27 C 418.998 1710.16 331.765 1691.21 248.214 1660.93 C 251.854 1648.5 257.088 1636.85 263.24 1625.48 z" fill="rgb(240,211,159)" transform="translate(0,0)"></path>
<path d="M 240.993 1712.8 C 262.031 1719.74 282.349 1729.21 303.443 1736.27 C 364.362 1756.66 430.403 1770.85 494.562 1775.23 C 551.564 1779.12 614.815 1773.55 670.284 1784.53 C 697.697 1789.96 722.9 1800.89 748.875 1810.69 C 811.482 1834.32 858.204 1848.29 925.847 1848.86 C 923.93 1861.8 924.549 1874.8 923.462 1887.79 L 921.958 1889.03 C 889.05 1889.08 855.506 1879.81 824.441 1869.5 C 796.464 1860.2 769.464 1848.27 741.671 1838.47 C 698.793 1823.63 653.743 1816.02 608.369 1815.98 C 589.125 1815.96 569.885 1816.52 550.675 1817.65 C 535.932 1818.63 519.543 1821.49 504.906 1819.75 C 493.138 1818.35 481.293 1814.72 469.825 1811.76 C 453.024 1807.31 436.18 1803.03 419.296 1798.91 L 313.848 1772.9 C 290.734 1767.23 267.205 1762.2 244.438 1755.28 C 242.591 1741.14 240.905 1727.09 240.993 1712.8 z" fill="rgb(240,211,159)" transform="translate(0,0)"></path>
<path d="M 288.387 1595.65 C 304.299 1596.37 321.924 1602.71 337.597 1606.01 C 387.144 1616.43 436.385 1627.83 485.762 1639 L 814.068 1711.71 C 866.851 1723.45 919.734 1734.74 972.711 1745.58 C 967.646 1749.46 963.7 1754.93 958.604 1758.57 C 956.102 1760.36 954.988 1759.68 952.134 1759.27 C 929.248 1754.28 904.712 1752.41 881.511 1748.76 C 847.838 1743.48 814.818 1736.34 781.625 1728.68 C 706.336 1711.32 632.277 1686.24 556.28 1672.32 C 521.701 1665.98 486.535 1663.9 451.665 1659.72 C 385.861 1651.83 329.892 1641.31 266.582 1621.01 C 272.776 1611.42 279.855 1603.21 288.387 1595.65 z" fill="rgb(240,211,159)" transform="translate(0,0)"></path>
<path d="M 564.055 1823.42 C 619.537 1821.57 671.321 1823.68 724.857 1839.71 C 748.708 1846.85 771.493 1856.81 794.693 1865.75 C 835.62 1881.52 879.788 1894.48 923.852 1895.99 C 925.422 1908.68 928.271 1918.34 934.268 1929.71 C 924.744 1928.21 915.328 1925.59 905.961 1923.32 C 878.811 1914.94 850.916 1908.21 823.447 1900.89 C 760.448 1884.2 697.295 1868.1 633.997 1852.59 C 598.998 1843.88 560.706 1837.07 526.808 1825.45 L 564.055 1823.42 z" fill="rgb(240,211,159)" transform="translate(0,0)"></path>
<path d="M 978.016 1815.19 C 1019.95 1822.75 1076.39 1841.68 1114.59 1860.77 C 1124.39 1865.67 1138.71 1873.24 1141.94 1884.48 C 1142.93 1887.94 1142.56 1891.91 1140.4 1894.87 C 1136.81 1899.8 1128.78 1900.12 1123.24 1900.9 C 1110.15 1901.5 1097.03 1901.1 1084.01 1899.7 C 1063.74 1897.57 975.065 1882.98 963.303 1872 C 959.914 1868.83 958.797 1864.77 958.737 1860.23 C 958.529 1844.54 967.421 1826.38 978.016 1815.19 z" fill="rgb(240,211,159)" transform="translate(0,0)"></path>
<path d="M 116.953 1618.18 C 143.298 1615.41 171.675 1623.95 197.297 1629.4 C 214.003 1632.95 231.23 1635.97 247.464 1641.32 C 242.868 1652.92 239.57 1665.49 237.371 1677.75 C 236.431 1683 236.02 1696.9 233.028 1700.77 L 229.776 1699.99 C 194.564 1688.98 155.497 1679.63 122.531 1662.88 C 112.821 1657.95 100.292 1650.5 97.0854 1639.43 C 96.0076 1635.71 96.3525 1631.62 98.4527 1628.31 C 102.387 1622.11 110.273 1619.94 116.953 1618.18 z" fill="rgb(240,211,159)" transform="translate(0,0)"></path>
<path d="M 980.581 1748.67 C 982.254 1749.52 983.974 1750.33 985.322 1751.67 C 996.605 1762.94 996.901 1796.96 997.649 1812.59 C 990.012 1810.95 982.454 1809.52 974.711 1808.49 C 965.78 1816.58 960.11 1828.63 956.411 1839.92 C 953.134 1849.93 950.169 1863.14 955.478 1872.87 C 960.403 1881.89 972.473 1883.3 981.556 1885.63 C 976.087 1894.96 970.444 1903.62 963.028 1911.54 C 958.241 1916.39 948.494 1926.07 941.552 1926.46 C 939.546 1925.64 938.242 1924.84 937.022 1922.99 C 924.875 1904.51 930.767 1850.18 935.735 1829.37 C 942.707 1800.18 953.547 1765.24 980.581 1748.67 z" fill="rgb(240,211,159)" transform="translate(0,0)"></path>
<path d="M 938.298 0 L 994.716 0 L 1002.09 0 C 978.862 47.3188 942.72 91.956 886.238 96.2109 C 884.613 100.04 882.935 103.82 881.559 107.743 C 886.785 119.302 892.837 152.935 896.942 158.606 C 924.7 196.947 955.456 222.376 963.052 272.221 C 970.279 319.644 970.75 366.874 973.678 414.861 C 977.036 467.513 982.76 519.988 990.831 572.126 C 993.496 588.766 996.185 607.827 999.942 624.106 C 1018.35 637.838 1007.03 640.264 1009.93 652.334 L 1011.24 653.48 C 1024.55 665.263 1037.53 709.265 1020.41 723.404 C 1060.67 842.54 1151.53 996.435 1268.34 1054.5 C 1290.5 1065.52 1315.88 1073.01 1333.25 1090.74 C 1355.21 1083.89 1381.97 1073.16 1403.67 1064.91 L 1517.91 1021.38 L 1870.96 888.092 C 1908.3 874.154 1945.46 858.831 1982.86 844.958 C 1988.04 843.036 1992.4 841.821 1996.4 846.206 C 1986.87 852.468 1950.49 865.355 1938.29 869.963 L 1841.81 906.801 L 1468.33 1047.87 C 1427.23 1063.72 1378.49 1079.24 1338.88 1096.62 C 1348.2 1105.71 1369.5 1132.85 1364.7 1146.19 C 1361.43 1149.31 1363.29 1148.24 1358.82 1149.41 C 1354.65 1148.61 1353.21 1147.02 1349.68 1144.4 L 1348.33 1144.46 C 1347.77 1147.43 1347.69 1149.43 1346.35 1152.07 C 1352.29 1174.97 1352.28 1197.26 1340.31 1218.38 C 1326.91 1242.02 1303.13 1250.57 1278.77 1259.41 C 1303.18 1269.29 1331.08 1277.73 1356.12 1285.73 L 1446.32 1315.15 C 1467.58 1322.13 1490.19 1329 1510.59 1337.95 C 1536.74 1349.43 1506.34 1366.52 1496.89 1372.74 C 1404.58 1433.49 1307.01 1482.67 1210.29 1535.34 C 1177.29 1553.43 1144.17 1571.3 1110.93 1588.95 C 1096.02 1596.94 1081.17 1605.39 1065.79 1612.49 C 1036.81 1625.88 1015.13 1614.72 987.801 1604.01 L 928.96 1580.96 L 753.537 1513.56 C 708.075 1495.93 660.517 1478.02 615.218 1459.7 C 612.862 1458.75 610.174 1456.2 609.222 1453.76 C 612.846 1447.39 677.609 1426.98 689.008 1423.11 C 732.757 1408.47 776.324 1393.3 819.698 1377.59 C 802.586 1349.16 793.593 1319.93 807.663 1287.86 C 792.129 1292.58 776.899 1298.8 761.584 1304.3 L 686.499 1330.98 L 404.589 1432.77 L 164.269 1521.33 C 132.439 1532.92 100.783 1544.98 69.3138 1557.52 C 55.4352 1562.95 38.1289 1569.13 24.85 1575.15 C 24.7516 1571.57 24.5887 1570.86 25.6588 1567.33 C 33.5879 1563.03 54.8481 1555.41 63.9772 1551.88 C 88.1652 1542.28 112.495 1533.04 136.958 1524.17 C 170.885 1377.25 166.531 1243.58 174.545 1094.97 C 177.231 1048.7 181.506 1002.53 187.362 956.554 C 195.626 891.212 205.783 828.654 227.111 766.24 C 231.228 754.193 247.711 724.891 238.998 714.803 C 228.562 720.797 223.245 738.165 217.384 749.116 C 197.41 786.431 181.742 824.102 170.671 865.059 C 164.742 886.896 160.632 909.185 158.383 931.7 C 157.115 945.449 156.989 959.933 155.453 973.433 C 139.628 985.281 129.78 999.635 117.966 1008.57 C 112.047 1007.4 115.764 986.974 116.19 981.148 C 122.306 897.435 143.736 827.21 193.56 758.72 L 195.548 760.391 C 183.174 782.494 167.838 809.206 157.338 831.99 C 133.201 884.364 126.833 940.551 120.693 997.257 C 129.828 987.163 139.49 978.206 149.513 969.034 C 151.786 948.908 151.59 930.411 154.824 909.315 C 165.268 841.189 190.666 782.925 223.863 723.444 C 210.955 733.83 195.527 746.06 185.023 758.698 C 143.469 808.69 116.251 881.256 96.2915 942.331 C 89.0924 945.583 64.8731 954.059 57.1355 952.625 C 55.8334 950.982 55.1395 949.173 55.7788 947.064 C 74.5373 885.183 112.006 801.939 156.778 755.921 C 168.361 744.139 180.937 733.377 194.367 723.753 C 202.955 717.708 213.265 711.686 221.388 705.388 L 222.158 704.781 C 220.757 704.648 219.361 704.467 217.973 704.238 C 192.488 699.907 157.298 676.051 142.373 655.168 C 155.809 618.066 180.971 586.124 210.462 560.077 C 238.437 535.369 252.903 542.146 260.675 577.251 C 269.165 615.597 263.079 643.441 257.068 680.702 C 265.85 664.148 271.922 644.146 281.341 626.075 C 321.33 549.356 378.096 485.383 438.952 424.739 C 440.856 422.291 443.219 419.935 445.37 417.659 C 445.702 411.605 445.866 399.457 451.277 395.484 C 453.84 398.475 452.864 403.529 452.572 407.235 L 453.505 410.098 C 455.727 409.353 514.306 358.215 522.695 352.245 C 576.781 313.748 631.235 270.496 686.139 233.549 L 692.008 229.39 C 693.902 227.624 698.274 225.165 700.91 224.518 C 710.378 225.351 710.718 217.501 722.251 212.541 L 722.268 208.95 L 726.656 205.937 C 744.101 191.82 766.994 178.525 783.439 163.021 L 787.995 159.971 L 789.765 159.657 C 799.428 152.754 852.34 94.2643 859.461 83.7164 C 857.514 81.0185 856.254 79.8538 855.957 76.5508 C 858.325 74.4581 856.932 75.2753 860.967 75.1782 C 863.678 74.6678 865.425 74.2238 867.401 72.1217 C 890.498 47.5427 913.505 22.9442 938.298 0 z" fill="rgb(59,0,0)" transform="translate(0,0)"></path>
<path d="M 938.298 0 L 994.716 0 L 1002.09 0 C 978.862 47.3188 942.72 91.956 886.238 96.2109 C 884.613 100.04 882.935 103.82 881.559 107.743 C 886.785 119.302 892.837 152.935 896.942 158.606 C 924.7 196.947 955.456 222.376 963.052 272.221 C 970.279 319.644 970.75 366.874 973.678 414.861 C 977.036 467.513 982.76 519.988 990.831 572.126 C 993.496 588.766 996.185 607.827 999.942 624.106 C 1018.35 637.838 1007.03 640.264 1009.93 652.334 L 1011.24 653.48 C 1024.55 665.263 1037.53 709.265 1020.41 723.404 C 1060.67 842.54 1151.53 996.435 1268.34 1054.5 C 1290.5 1065.52 1315.88 1073.01 1333.25 1090.74 C 1355.21 1083.89 1381.97 1073.16 1403.67 1064.91 L 1517.91 1021.38 L 1870.96 888.092 C 1908.3 874.154 1945.46 858.831 1982.86 844.958 C 1988.04 843.036 1992.4 841.821 1996.4 846.206 C 1986.87 852.468 1950.49 865.355 1938.29 869.963 L 1841.81 906.801 L 1468.33 1047.87 C 1427.23 1063.72 1378.49 1079.24 1338.88 1096.62 C 1348.2 1105.71 1369.5 1132.85 1364.7 1146.19 C 1361.43 1149.31 1363.29 1148.24 1358.82 1149.41 C 1354.65 1148.61 1353.21 1147.02 1349.68 1144.4 L 1348.33 1144.46 C 1347.77 1147.43 1347.69 1149.43 1346.35 1152.07 C 1343.53 1147.86 1337.29 1129.74 1335.17 1124.03 C 1335.05 1122.46 1335.36 1119.51 1335.48 1117.82 C 1333.66 1113.9 1321.73 1102.75 1318.04 1099.02 C 1310.06 1088.63 1290.87 1081.45 1288.6 1070.56 C 1286.58 1067.86 1286.45 1068.65 1282.07 1067.68 C 1286.78 1084.98 1310.27 1095.59 1320.6 1110.44 C 1328.39 1121.64 1333.41 1131.9 1337.32 1145.09 C 1340.22 1154.85 1344.98 1157.63 1334.25 1164.1 C 1332.47 1166.52 1332.63 1166.37 1329.85 1167.51 L 1330.51 1168.79 C 1331.37 1176.14 1334.1 1184.7 1325.77 1187.91 C 1318.47 1187.12 1314.87 1182.9 1309.17 1178.07 L 1308.67 1179.5 C 1306.78 1184.99 1308.64 1184.28 1305.09 1188.16 C 1285.71 1195.98 1253.87 1125.4 1237.17 1117.28 C 1235.91 1116.66 1232.49 1118.43 1231.47 1119.26 C 1231.25 1126.79 1245.78 1132.76 1238.41 1144.35 C 1229.32 1150.81 1213.03 1138.05 1204.93 1132.8 C 1150.97 1148.07 1097.23 1169.27 1043.15 1184.98 C 1037.31 1186.68 1030.04 1189.38 1024.53 1191.86 L 1024.97 1193.4 C 1028.44 1205.04 1033.58 1211.57 1039.17 1224.49 C 1050.51 1250.67 1067.09 1286.42 1060.96 1315.27 C 1059.26 1323.3 1050.59 1318.21 1046.21 1317.47 C 1047.99 1314.46 1049.1 1311.83 1051.96 1309.92 C 1051.49 1311.29 1051.73 1310.4 1051.54 1312.67 L 1053.45 1313.56 C 1057.08 1312.31 1055.63 1313.39 1057.82 1310.04 C 1061.96 1269.12 1025.56 1200.24 993.457 1174.97 C 988.581 1171.13 982.355 1166.71 979.844 1160.91 L 980.478 1159.77 C 993.059 1162.31 1010.96 1184.48 1019.35 1193.49 C 1014.43 1170.31 1014.86 1161.21 990.631 1153.5 C 969.131 1146.66 945.082 1137.72 924.503 1128.43 C 906.078 1120.19 889.089 1109.06 874.18 1095.45 C 859.958 1082.43 845.26 1063.23 833.296 1048.02 C 752.904 945.804 677.28 830.572 631.591 708.657 C 598.392 694.394 547.583 714.563 519.479 733.245 C 513.995 736.89 500.431 744.351 497.545 749.585 C 495.329 750.928 495.863 750.874 493.466 751.487 C 484.808 759.357 478.481 766.783 470.991 775.756 L 466.465 780.123 C 453.941 768.219 446.757 727.912 445.867 710.677 C 430.764 698.397 432.888 687.142 446.715 674.536 C 442.797 655.7 441.568 640.779 439.8 621.584 C 380.285 656.224 344.66 675.236 275.545 690.371 C 310.392 707.265 350.491 717.85 388.659 724.735 C 393.9 725.681 403.127 724.821 406.624 728.92 C 405.406 730.943 405.054 731.589 402.48 732.036 C 380.415 735.868 273.581 703.038 255.368 687.167 C 254.14 686.097 253.028 685.447 251.555 684.762 C 249.079 685.404 247.613 685.737 245.062 685.793 C 245.386 684.807 245.087 685.512 246.637 684.122 C 250.337 683.54 255.923 683.004 258.862 681.068 C 260.961 679.685 261.414 679.645 264.005 679.13 C 266.895 677.354 271.516 663.079 273.181 659.199 C 303.118 589.415 350.038 527.558 401.193 471.996 C 415.643 456.302 431.507 443.54 444.773 426.992 C 443.185 425.068 443.861 425.798 443.331 422.771 L 438.952 424.739 C 440.856 422.291 443.219 419.935 445.37 417.659 C 445.702 411.605 445.866 399.457 451.277 395.484 C 453.84 398.475 452.864 403.529 452.572 407.235 L 453.505 410.098 C 455.727 409.353 514.306 358.215 522.695 352.245 C 576.781 313.748 631.235 270.496 686.139 233.549 L 692.008 229.39 C 693.902 227.624 698.274 225.165 700.91 224.518 C 710.378 225.351 710.718 217.501 722.251 212.541 L 722.268 208.95 L 726.656 205.937 C 744.101 191.82 766.994 178.525 783.439 163.021 L 787.995 159.971 L 789.765 159.657 C 799.428 152.754 852.34 94.2643 859.461 83.7164 C 857.514 81.0185 856.254 79.8538 855.957 76.5508 C 858.325 74.4581 856.932 75.2753 860.967 75.1782 C 863.678 74.6678 865.425 74.2238 867.401 72.1217 C 890.498 47.5427 913.505 22.9442 938.298 0 z" fill="rgb(59,0,0)" transform="translate(0,0)"></path>
<path d="M 452.572 407.235 L 453.505 410.098 C 455.727 409.353 514.306 358.215 522.695 352.245 C 576.781 313.748 631.235 270.496 686.139 233.549 C 686.868 295.019 681.462 332.482 671.817 393.28 L 657.002 388.274 C 650.664 406.914 646.789 424.18 639.165 442.663 C 632.723 458.278 624.529 471.775 617.709 486.644 C 620.845 424.651 637.554 362.304 653.469 302.652 C 654.788 297.708 661.25 276.35 660.368 273.114 L 658.618 272.075 C 653.413 274.041 653.245 283.666 651.435 288.928 C 646.365 303.664 642.934 318.98 638.949 334.03 C 610.884 434.763 604.77 516.054 615.357 619.813 C 564.721 614.84 493.318 642.502 451.756 671.461 C 438.106 591.306 442.791 506.393 450.963 425.882 C 451.295 422.617 451.879 409.212 452.572 407.235 z" fill="rgb(203,129,104)" transform="translate(0,0)"></path>
<path d="M 889.803 751.069 C 916.704 718.904 959.954 693.995 1005.76 704.326 C 1013.29 712.278 1021.36 746.372 1025.25 755.977 C 1074.52 877.566 1158.56 1011.89 1282.07 1067.68 C 1286.78 1084.98 1310.27 1095.59 1320.6 1110.44 C 1328.39 1121.64 1333.41 1131.9 1337.32 1145.09 C 1340.22 1154.85 1344.98 1157.63 1334.25 1164.1 C 1332.47 1166.52 1332.63 1166.37 1329.85 1167.51 L 1330.51 1168.79 C 1331.37 1176.14 1334.1 1184.7 1325.77 1187.91 C 1318.47 1187.12 1314.87 1182.9 1309.17 1178.07 C 1308.07 1177.51 1305.32 1176.7 1304.02 1176.27 C 1303.82 1180.82 1304.27 1180.79 1301.79 1183.26 C 1289.89 1183.84 1264.19 1139.23 1255.6 1129.14 C 1243.27 1114.66 1230.09 1100.33 1213.42 1090.32 C 1209.3 1087.85 1197.62 1081.55 1193.44 1082.05 C 1192.06 1094.23 1243.03 1129.37 1233.1 1141.09 C 1231.64 1141.38 1230.29 1141.62 1228.8 1141.31 C 1193.69 1134.01 1034.51 956.28 1005.55 922.581 C 989.36 903.737 973.452 884.217 958.803 864.135 C 941.33 840.181 924.397 815.289 909.752 789.504 C 902.852 777.356 898.011 763.4 890.367 751.891 C 890.183 751.614 889.991 751.343 889.803 751.069 z" fill="rgb(203,129,104)" transform="translate(0,0)"></path>
<path d="M 1264.33 1077.65 C 1283.31 1087.73 1304.56 1112.84 1314.81 1131.49 C 1321.02 1142.79 1325.69 1154.25 1334.25 1164.1 C 1332.47 1166.52 1332.63 1166.37 1329.85 1167.51 L 1330.51 1168.79 C 1331.37 1176.14 1334.1 1184.7 1325.77 1187.91 C 1318.47 1187.12 1314.87 1182.9 1309.17 1178.07 C 1308.07 1177.51 1305.32 1176.7 1304.02 1176.27 C 1299.3 1158.81 1266.21 1115.2 1252.75 1100.06 C 1247.76 1094.45 1241.43 1088.77 1236.15 1082.74 C 1272 1099.41 1308.69 1181.69 1324.9 1181.87 C 1329.3 1174.68 1322.8 1162.2 1320.1 1155.65 C 1309.62 1130.2 1295.85 1108.04 1274.44 1090.52 C 1270.48 1087.28 1267.19 1082.15 1264.33 1077.65 z" fill="url(#Gradient2)" transform="translate(0,0)"></path>
<path d="M 444.773 426.992 C 437.037 493.412 436.227 548.831 439.116 614.879 C 393.812 644.879 343.839 667.142 291.236 680.759 C 284.394 682.603 266.642 687.951 260.746 684.817 L 260.531 682.853 C 261.766 681.436 262.66 680.438 264.005 679.13 C 266.895 677.354 271.516 663.079 273.181 659.199 C 303.118 589.415 350.038 527.558 401.193 471.996 C 415.643 456.302 431.507 443.54 444.773 426.992 z" fill="rgb(203,129,104)" transform="translate(0,0)"></path>
<path d="M 859.461 83.7164 C 866.265 89.164 872.082 90.9883 880.132 93.8472 C 862.166 135.681 849.56 175.946 835.94 219.343 C 834.284 224.619 829.017 235.5 830.532 240.621 C 839.296 235.574 850.083 195.604 853.479 184.93 C 860.768 161.416 868.494 138.04 876.651 114.813 C 885.99 131.394 896.17 189.799 894.83 208.967 L 891.706 207.785 C 885.305 203.501 882.288 207.017 877.448 212.932 C 858.764 235.767 840.472 256.52 819.413 277.208 C 816.525 263.18 813.374 240.694 809.51 227.664 C 806.608 217.876 791.923 164.414 787.995 159.971 L 789.765 159.657 C 799.428 152.754 852.34 94.2643 859.461 83.7164 z" fill="rgb(203,129,104)" transform="translate(0,0)"></path>
<path d="M 722.251 212.541 C 724.995 220.896 725.66 241.078 726.235 250.322 C 728.401 285.141 728.369 318.136 725.962 352.903 C 724.807 369.604 721.615 388.027 720.732 403.884 C 707.786 401.383 689.965 398.331 677.543 394.491 C 685.164 341.695 696.91 283.226 692.008 229.39 C 693.902 227.624 698.274 225.165 700.91 224.518 C 710.378 225.351 710.718 217.501 722.251 212.541 z" fill="rgb(245,238,219)" transform="translate(0,0)"></path>
<path d="M 891.706 207.785 L 894.83 208.967 C 895.94 230.389 901.508 268.899 904.532 290.15 C 911.631 340.036 915.794 378.06 916.321 428.35 C 901.609 429.391 888.405 428.945 873.791 428.083 C 875.822 404.935 877.91 380.965 878.483 357.737 C 879.612 311.927 877.921 266.321 878.863 220.483 L 891.706 207.785 z" fill="rgb(245,238,219)" transform="translate(0,0)"></path>
<path d="M 938.298 0 L 994.716 0 C 977.915 36.241 948.963 69.7384 911.471 85.1861 C 896.516 91.3483 869.302 91.2891 860.967 75.1782 C 863.678 74.6678 865.425 74.2238 867.401 72.1217 C 890.498 47.5427 913.505 22.9442 938.298 0 z" fill="rgb(203,129,104)" transform="translate(0,0)"></path>
<path d="M 726.656 205.937 C 744.101 191.82 766.994 178.525 783.439 163.021 C 793.576 196.075 804.828 228.393 810.51 262.512 C 811.546 268.736 812.846 275.025 813.954 281.252 C 801.457 269.017 780.902 234.965 772.2 219.318 C 754.067 225.642 748.437 234.753 732.091 242.648 C 731.185 234.747 731.956 209.432 726.656 205.937 z" fill="rgb(203,129,104)" transform="translate(0,0)"></path>
<path d="M 1323.94 1099.31 C 1328.06 1098.42 1329.82 1098.3 1333.63 1100.65 C 1342.74 1106.26 1360.98 1129.88 1357.88 1140.74 L 1356.18 1141.39 C 1348.08 1137.17 1342.03 1124.31 1335.48 1117.82 C 1333.66 1113.9 1321.73 1102.75 1318.04 1099.02 C 1320.65 1099.48 1322.15 1100.29 1323.94 1099.31 z" fill="rgb(203,129,104)" transform="translate(0,0)"></path>
<path d="M 1288.6 1070.56 C 1307.45 1076.86 1315.31 1079.08 1327.58 1095.52 C 1324.86 1095.4 1325.75 1095.62 1323.21 1094.71 C 1323.42 1097 1323.37 1097.09 1323.94 1099.31 C 1322.15 1100.29 1320.65 1099.48 1318.04 1099.02 C 1310.06 1088.63 1290.87 1081.45 1288.6 1070.56 z" fill="rgb(203,129,104)" transform="translate(0,0)"></path>
<path d="M 1335.17 1124.03 C 1343.45 1135.4 1346.74 1137.65 1346.35 1152.07 C 1343.53 1147.86 1337.29 1129.74 1335.17 1124.03 z" fill="rgb(248,216,201)" transform="translate(0,0)"></path>
<path d="M 832.65 610.866 C 838.412 637.117 842.031 663.374 849.141 689.366 C 841.756 708.837 842.178 714.218 859.53 726.119 C 859.836 730.094 860.999 732.604 863.816 735.479 C 860.743 752.137 877.074 769.256 893.122 771.872 C 895.693 774.832 896.685 775.474 897.278 779.373 C 898.667 783.806 908.765 800.023 911.668 804.809 C 968.41 898.349 1046.75 980.897 1123.68 1058.14 C 1150.29 1084.85 1167.23 1104.72 1197.27 1127.92 C 1174.67 1133.74 1149.47 1143.6 1126.87 1150.83 C 1092.45 1161.84 1057.9 1173.09 1023.73 1184.8 C 1016.34 1153.07 1005.83 1151.92 977.413 1141.7 C 945.772 1130.33 911.689 1119.86 885.857 1097.47 C 868.861 1082.74 854.263 1063.72 840.149 1046.22 C 793.742 988.891 751.615 928.225 714.11 864.714 C 699.308 839.754 684.249 813.746 671.906 787.492 C 677.942 783.883 683.381 779.36 688.03 774.083 C 700.702 759.814 702.984 751.799 701.958 733.934 C 718.436 717.143 737.01 701.52 754.22 685.481 C 780.445 661.04 807.682 636.543 832.65 610.866 z" fill="rgb(255,255,255)" transform="translate(0,0)"></path>
<path d="M 859.53 726.119 C 859.836 730.094 860.999 732.604 863.816 735.479 C 860.743 752.137 877.074 769.256 893.122 771.872 C 895.693 774.832 896.685 775.474 897.278 779.373 C 895.414 778.043 895.327 778.023 893.047 777.505 C 879.606 774.447 865.734 765.355 860.102 752.47 C 857.259 745.966 856.955 732.571 859.53 726.119 z" fill="rgb(59,0,0)" transform="translate(0,0)"></path>
<path d="M 660.805 396.816 C 725.971 412.728 792.86 425.674 859.577 433.215 C 880.085 435.533 900.944 435.103 921.577 435.023 C 908.218 473.376 898.853 518.941 874.438 551.609 C 835.68 603.468 785.732 647.99 737.888 691.394 C 721.493 705.446 706.608 722.335 688.957 734.659 C 683.54 738.441 675.398 738.352 669.772 742.088 L 669.538 743.968 C 676.196 747.714 689.533 741.018 695.442 740.524 C 699.623 754.944 679.396 774.129 669.062 781.943 C 659.399 764.119 644.886 731.248 638.848 712.106 C 645.758 709.012 651.337 706.895 650.513 698.23 C 648.897 681.236 645.5 664.738 633.636 652.192 C 634.053 651.424 634.459 650.651 634.855 649.872 C 641.893 635.905 633.861 627.843 621.393 622.118 C 620.536 602.325 611.16 511.109 617.646 499.722 C 635.721 467.987 649.127 436.727 660.805 396.816 z" fill="rgb(245,238,219)" transform="translate(0,0)"></path>
<path d="M 898.422 170.4 C 912.926 187.508 943.487 225.434 949.498 244.976 C 965.262 296.222 962.585 360.885 967.124 414.692 C 973.193 486.637 979.763 553.146 993.829 623.913 C 957.65 619.493 909.251 635.13 881.215 658.09 C 869.226 667.908 864.024 673.404 854.44 685.518 C 848.007 665.315 841.976 627.612 838.144 605.542 C 859.085 581.043 885.507 551.59 898.604 522.266 C 907.044 503.37 912.902 480.012 919.702 460.049 C 922.372 452.208 929.26 436.672 929.552 428.708 C 929.597 427.473 928.348 426.807 927.221 425.786 L 923.629 424.938 C 922.993 417.199 920.602 378.457 920.986 372.096 C 926.494 369.389 926.13 370.864 927.829 364.867 C 924.404 368.281 924.336 369.538 920.417 366.811 C 918.439 362.391 914.551 323.85 913.708 316.638 C 908.124 268.859 900.119 218.404 898.422 170.4 z" fill="rgb(203,129,104)" transform="translate(0,0)"></path>
<path d="M 920.417 366.811 L 920.852 365.408 C 927.891 342.374 928.678 315.24 932.302 291.4 C 933.167 285.709 932.85 269.349 937.397 265.864 C 940.033 266.148 938.969 265.519 940.756 267.597 C 940.603 272.41 939.977 277.184 939.444 281.967 C 936.359 309.691 933.415 337.511 927.829 364.867 C 924.404 368.281 924.336 369.538 920.417 366.811 z" fill="url(#Gradient1)" transform="translate(0,0)"></path>
<path d="M 768.597 226.873 C 770.713 228.89 776.103 238.129 778.07 241.036 C 788.23 256.049 802.072 280.816 817.04 290.71 C 832.441 270.055 855.04 250.062 872.741 227.542 C 873.255 288.034 873.623 346.271 869.784 406.671 C 869.095 413.605 868.459 420.545 867.875 427.489 C 821.58 424.108 771.631 414.316 726.143 405.012 C 736.19 352.023 734.701 302.281 732.851 249.018 C 745.599 243.135 755.987 233.814 768.597 226.873 z" fill="rgb(203,129,104)" transform="translate(0,0)"></path>
<path d="M 824.303 356.972 C 833.143 355.034 841.891 360.587 843.899 369.411 C 845.908 378.235 840.424 387.027 831.616 389.105 C 822.709 391.207 813.796 385.648 811.765 376.724 C 809.734 367.8 815.364 358.932 824.303 356.972 z" fill="rgb(59,0,0)" transform="translate(0,0)"></path>
<path d="M 826.285 363.285 C 831.639 362.569 836.592 366.241 837.462 371.572 C 838.333 376.903 834.806 381.96 829.502 382.984 C 825.932 383.673 822.27 382.367 819.941 379.575 C 817.613 376.783 816.986 372.946 818.306 369.558 C 819.625 366.17 822.681 363.767 826.285 363.285 z" fill="rgb(203,129,104)" transform="translate(0,0)"></path>
<path d="M 832.849 299.068 C 853.105 297.549 854.479 321.035 834.628 325.669 C 814.413 322.16 809.552 306.278 832.849 299.068 z" fill="rgb(59,0,0)" transform="translate(0,0)"></path>
<path d="M 834.332 305.199 C 839.287 306.009 839.851 306.447 842.113 310.555 C 842.247 317.488 837.749 318.931 831.937 319.338 C 827.824 317.425 827.52 317.392 824.506 314.141 C 823.593 310.524 823.421 312.239 825.156 308.836 C 828.664 306.149 829.858 306.207 834.332 305.199 z" fill="rgb(203,129,104)" transform="translate(0,0)"></path>
<path d="M 588.653 625.395 C 605.758 622.668 620.913 623.561 631.449 638.209 L 628.02 651.05 C 608.204 641.697 576.05 649.69 555.589 655.465 C 552.477 656.344 548.235 658.108 546.814 661.156 L 547.965 662.825 C 554.083 662.933 561.091 660.047 567.112 658.784 C 585.719 654.88 619.917 644.64 634.375 662.289 C 638.89 667.8 645.606 694.011 644.666 701.04 C 637.806 707.921 629.262 701.286 620.855 699.387 C 597.115 694.024 567.264 703.157 545.736 712.025 C 510.179 728.186 490.64 742.192 466.355 771.366 C 456.338 747.725 453.608 732.329 451.843 707.282 C 448.22 704.247 442.074 699.963 441.273 695.133 C 439.347 683.509 458.592 673.19 467.222 668.267 C 503.504 647.569 546.96 629.448 588.653 625.395 z" fill="rgb(203,129,104)" transform="translate(0,0)"></path>
<path d="M 865.034 721.482 C 855.358 716.442 845.39 709.258 853.285 696.65 C 871.226 667.998 903.151 646.092 935.264 636.366 C 951.546 631.703 983.048 624.923 999.498 632.014 C 1005.92 634.783 1006.85 643.801 1003.33 649.816 C 1000.17 650.355 995.363 649.621 991.952 649.487 C 983.017 649.137 967.726 650.543 960.117 655.267 L 960.367 656.666 C 964.498 658.583 980.959 655.188 987.301 655.56 C 996.218 656.085 999.521 655.948 1008.28 658.653 C 1018.47 669.652 1023.11 687.688 1023.03 702.517 C 1022.98 710.041 1021.18 712.464 1017.83 718.817 C 1016.28 711.5 1015.74 703.293 1008.78 699.422 C 995.482 692.02 968.719 696.821 954.613 700.601 C 928.925 707.485 900.471 725.673 885.418 747.963 C 883.988 750.08 882.708 752.998 883.303 755.588 C 889.296 764.908 889.219 759.046 893.122 771.872 C 877.074 769.256 860.743 752.137 863.816 735.479 L 864.733 733.952 C 863.825 732.772 862.41 730.362 861.555 729.011 C 861.694 724.751 862.037 725.673 865.034 721.482 z" fill="rgb(203,129,104)" transform="translate(0,0)"></path>
<path d="M 865.034 721.482 C 868.926 716.159 880.043 700.113 886.504 698.796 C 887.358 701.919 868.477 726.833 864.733 733.952 C 863.825 732.772 862.41 730.362 861.555 729.011 C 861.694 724.751 862.037 725.673 865.034 721.482 z" fill="rgb(59,0,0)" transform="translate(0,0)"></path>
<path d="M 1204.69 1092.84 C 1213.8 1096.05 1224.9 1105.06 1231.25 1112.22 L 1227.48 1112.84 C 1219.67 1110.91 1209.83 1098.97 1204.69 1092.84 z" fill="rgb(255,255,255)" transform="translate(0,0)"></path>
<path d="M 275.545 690.371 C 344.66 675.236 380.285 656.224 439.8 621.584 C 441.568 640.779 442.797 655.7 446.715 674.536 C 432.888 687.142 430.764 698.397 445.867 710.677 C 446.757 727.912 453.941 768.219 466.465 780.123 C 478.648 786.089 494.302 785.008 507.825 785.033 C 545.708 854.255 586.527 906.596 639.214 965.503 C 665.462 994.848 693.656 1021.73 719.752 1050.26 C 730.082 1132.31 749.267 1212.99 776.972 1290.9 C 763.366 1296.94 744.301 1302.79 729.684 1308.01 L 629.784 1343.64 C 551.065 1371.51 472.551 1399.95 394.249 1428.96 C 344.513 1447.08 292.347 1465.34 243.375 1485.03 C 251.049 1435.9 253.155 1389.32 255.729 1340.05 C 260.139 1255.62 258.698 1173.44 257.881 1089.05 C 257.512 1027.05 257.551 965.056 257.998 903.061 C 257.997 874.982 258.346 846.006 257.433 818.001 C 256.352 784.818 250.85 752.335 248.763 718.902 C 257.769 723.216 266.505 726.213 275.865 729.59 C 278.222 738.058 287.102 757 290.853 766.281 C 299.644 788.324 307.944 810.561 315.745 832.973 C 354.456 944.957 383.513 1063.89 451.926 1162.71 C 459.842 1174.14 495.36 1225.15 507.536 1224.37 L 508.808 1222.72 C 507.94 1219.34 477.753 1187.06 472.479 1179.88 C 450.955 1150.58 431.043 1118.99 415.369 1086.15 C 390.914 1034.9 371.414 981.938 353.488 928.104 C 344.433 900.91 336.64 873.299 327.687 846.082 C 315.015 807.488 300.435 769.547 283.999 732.4 L 302.776 738.802 C 308.517 744.711 318.704 761.966 324.25 769.858 C 338.048 789.493 351.553 809.555 364.67 829.691 C 414.652 906.414 468.908 984.444 536.021 1047.31 C 566.163 1074.21 598.921 1101.27 637.399 1115.07 C 641.838 1116.66 652.289 1120.87 655.109 1116.76 C 652.84 1111.46 624.621 1103.17 617.389 1098.93 C 481.939 1019.54 400.363 865.47 313.458 741.702 C 348.21 752.228 382.915 762.524 418.427 770.107 C 423.115 771.108 427.584 772.914 431.702 769.921 C 430.573 761.671 396.338 758.866 387.18 755.559 C 353.804 743.508 262.963 726.422 238.921 704.724 C 243.029 696.218 241.919 693.852 245.062 685.793 C 247.613 685.737 249.079 685.404 251.555 684.762 C 253.028 685.447 254.14 686.097 255.368 687.167 C 273.581 703.038 380.415 735.868 402.48 732.036 C 405.054 731.589 405.406 730.943 406.624 728.92 C 403.127 724.821 393.9 725.681 388.659 724.735 C 350.491 717.85 310.392 707.265 275.545 690.371 z" fill="rgb(245,238,219)" transform="translate(0,0)"></path>
<path d="M 497.545 749.585 C 500.431 744.351 513.995 736.89 519.479 733.245 C 547.583 714.563 598.392 694.394 631.591 708.657 C 677.28 830.572 752.904 945.804 833.296 1048.02 C 845.26 1063.23 859.958 1082.43 874.18 1095.45 C 889.089 1109.06 906.078 1120.19 924.503 1128.43 C 945.082 1137.72 969.131 1146.66 990.631 1153.5 C 1014.86 1161.21 1014.43 1170.31 1019.35 1193.49 C 1010.96 1184.48 993.059 1162.31 980.478 1159.77 L 979.844 1160.91 C 982.355 1166.71 988.581 1171.13 993.457 1174.97 C 1025.56 1200.24 1061.96 1269.12 1057.82 1310.04 C 1055.63 1313.39 1057.08 1312.31 1053.45 1313.56 L 1051.54 1312.67 C 1051.73 1310.4 1051.49 1311.29 1051.96 1309.92 C 1049.1 1311.83 1047.99 1314.46 1046.21 1317.47 C 1035 1320.44 1032.22 1315.47 1029.58 1305.75 L 1026.25 1305.17 C 1022.37 1301 1018.18 1298.83 1013.32 1295.83 C 1000.47 1270.22 981.66 1240.51 958.471 1223.13 C 954.984 1220.52 943.166 1212.02 939.003 1212.6 C 941.518 1218.55 954.426 1226.93 959.806 1231.37 C 970.17 1239.91 1011.75 1290.38 1007.52 1303.32 C 1004.81 1305.87 1006.36 1305.04 1002.66 1305.82 C 989.184 1296.16 971.376 1266.34 952.015 1251.19 C 924.409 1229.59 895.982 1222.36 871.328 1200.47 C 847.511 1179.32 826.224 1149.54 803.516 1126.05 C 717.555 1037.16 628.114 954.391 556.561 852.76 C 540.851 830.286 526.57 806.846 513.801 782.58 C 508.868 773.247 502.971 757.708 497.545 749.585 z" fill="rgb(203,129,104)" transform="translate(0,0)"></path>
<path d="M 1029.58 1305.75 C 1020.65 1279.13 1007.44 1250.98 989.207 1229.23 C 981.524 1220.06 959.337 1206.02 956.612 1199.64 C 962.337 1200.33 973.784 1208.6 978.556 1212.16 C 1007 1233.42 1019.71 1268.72 1033.21 1300.22 C 1033.5 1300.88 1038.85 1303.83 1039.79 1304.33 L 1040.3 1306.19 L 1038.51 1308.74 C 1039.33 1311.37 1039.36 1311.17 1041.45 1313.02 C 1044.76 1312.85 1043.25 1313.43 1045.88 1310.65 C 1051.23 1291.34 1014.37 1224.75 998.535 1209.95 C 992.794 1204.58 968.849 1187.3 967.797 1185.47 L 968.44 1183.76 C 973.244 1182.99 984.091 1191 988.488 1194.28 C 1022.83 1219.9 1041.45 1266.64 1052.26 1306.74 C 1052.58 1307.91 1052.33 1308.87 1051.96 1309.92 C 1049.1 1311.83 1047.99 1314.46 1046.21 1317.47 C 1035 1320.44 1032.22 1315.47 1029.58 1305.75 z" fill="rgb(26,0,0)" transform="translate(0,0)"></path>
<path d="M 1204.93 1132.8 C 1213.03 1138.05 1229.32 1150.81 1238.41 1144.35 C 1245.78 1132.76 1231.25 1126.79 1231.47 1119.26 C 1232.49 1118.43 1235.91 1116.66 1237.17 1117.28 C 1253.87 1125.4 1285.71 1195.98 1305.09 1188.16 C 1308.64 1184.28 1306.78 1184.99 1308.67 1179.5 L 1309.17 1178.07 C 1314.87 1182.9 1318.47 1187.12 1325.77 1187.91 C 1334.1 1184.7 1331.37 1176.14 1330.51 1168.79 L 1332.15 1168.54 C 1337.94 1167.59 1337.85 1165.74 1342.23 1167.34 C 1345.38 1171.87 1342.7 1186.54 1341.66 1192.52 C 1334.08 1235.91 1301.93 1243.79 1266.35 1256.69 L 1206.98 1278.42 L 1073.18 1327.76 C 1016.49 1349.5 959.461 1370.36 902.116 1390.33 C 928.202 1352.33 916.565 1279.92 877.589 1253.06 C 872.487 1249.55 866.919 1247.2 861.198 1244.87 C 873.684 1241.05 893.672 1234.47 906.044 1232.22 C 925.088 1239.82 942.565 1250.88 957.598 1264.83 C 965.123 1271.94 970.727 1279.29 977.913 1288.15 C 982.526 1293.83 1002.69 1322.38 1010.85 1307.04 C 1014.04 1301.03 1020.49 1304.74 1026.25 1305.17 L 1029.58 1305.75 C 1032.22 1315.47 1035 1320.44 1046.21 1317.47 C 1050.59 1318.21 1059.26 1323.3 1060.96 1315.27 C 1067.09 1286.42 1050.51 1250.67 1039.17 1224.49 C 1033.58 1211.57 1028.44 1205.04 1024.97 1193.4 L 1024.53 1191.86 C 1030.04 1189.38 1037.31 1186.68 1043.15 1184.98 C 1097.23 1169.27 1150.97 1148.07 1204.93 1132.8 z" fill="rgb(245,238,219)" transform="translate(0,0)"></path>
<path d="M 493.466 751.487 C 496.466 761.096 500.417 769.449 504.516 778.6 C 495.355 778.72 479.762 778.858 470.991 775.756 C 478.481 766.783 484.808 759.357 493.466 751.487 z" fill="rgb(245,238,219)" transform="translate(0,0)"></path>
<path d="M 1270.21 1263 C 1272.72 1262.98 1310.86 1277.22 1316.16 1278.99 L 1434.72 1318.22 C 1456.56 1325.39 1484.26 1333.78 1505.49 1342.07 C 1492.95 1347.43 1478.83 1356.45 1466.69 1363.31 L 1402.29 1399.24 L 1199.74 1509.97 C 1170.1 1526.55 1140.21 1542.66 1110.07 1558.29 C 1092.21 1567.68 1074.45 1577.64 1055.89 1585.57 C 1050.59 1587.83 1042.87 1591.51 1037.05 1591.1 C 1024.45 1590.23 927.589 1551.85 909.006 1544.47 C 857.249 1524.02 805.319 1504.01 753.222 1484.44 C 719.705 1471.82 679.672 1456.21 645.763 1445.28 C 682.141 1431.98 720.535 1420.15 757.206 1406.96 C 771.763 1401.73 811.315 1387 824.532 1384.21 C 861.097 1416.23 884.022 1404.92 924.376 1389.39 C 938.178 1384.02 952.084 1378.92 966.085 1374.09 C 1067.24 1338.5 1169.21 1297.3 1270.21 1263 z" fill="rgb(245,238,219)" transform="translate(0,0)"></path>
<path d="M 242.465 743.662 C 245.896 750.908 250.372 811.55 250.599 822.782 C 251.137 849.438 251.041 879.602 251.037 906.507 L 251.05 1050.49 C 251.241 1137.28 253.75 1224.08 250.55 1311 C 249.387 1345.17 247.456 1379.31 244.76 1413.4 C 242.678 1437.9 239.373 1462.93 237.696 1487.22 C 208.645 1498.17 180.412 1507.59 151.482 1519.44 L 143.65 1521.98 C 153.282 1488.57 157.879 1453.89 162.444 1419.5 C 173.02 1339.83 175.744 1259.24 178.012 1178.98 C 181.4 1059.13 190.152 939.143 217.516 822.102 C 223.921 794.708 233.373 770.054 242.465 743.662 z" fill="rgb(203,129,104)" transform="translate(0,0)"></path>
<path d="M 1507.86 1344.78 C 1510.88 1344.83 1510.85 1345.19 1513.73 1346.49 C 1515.3 1349.31 1514.88 1347.75 1514.39 1351.45 C 1508.35 1361.26 1477.56 1377.1 1466.55 1384.24 C 1385.62 1436.76 1300.1 1479.61 1215.37 1525.52 C 1185.59 1541.9 1155.68 1558.04 1125.65 1573.93 C 1101.53 1586.98 1060.14 1614.8 1031.88 1612.15 C 1020.74 1611.1 997.795 1601.18 986.546 1596.8 L 929.182 1574.54 L 703.677 1487.92 C 679.077 1478.62 656.843 1469.53 631.731 1460.6 C 626.782 1458.88 622.991 1457.02 618.276 1454.81 C 622.152 1453.19 637.082 1446.78 639.487 1447.79 C 656.261 1454.87 677.1 1463.12 694.032 1469.1 C 779.33 1499.26 863.321 1533.86 947.988 1565.3 C 964.024 1571.23 979.988 1577.36 995.875 1583.68 C 1006.26 1587.75 1034.53 1600.33 1044.87 1596.55 C 1063.92 1589.59 1083.78 1578.52 1101.88 1569.19 C 1139.37 1549.83 1176.56 1529.89 1213.43 1509.39 C 1278.38 1474.57 1342.87 1438.92 1406.9 1402.43 C 1441.88 1382.76 1473.47 1365.59 1507.86 1344.78 z" fill="rgb(240,211,159)" transform="translate(0,0)"></path>
<path d="M 726.785 1057.76 C 731.279 1061.22 750.663 1081.18 755.592 1086.16 C 771.247 1102 789.31 1119.27 804.075 1135.6 C 837.327 1172.37 853.936 1199.3 896.296 1227.1 C 881.878 1232.15 865.449 1236.98 850.757 1241.64 C 827.871 1249.75 815.608 1256.45 807.659 1281.09 C 798.805 1283.27 792.37 1285.42 783.71 1288.41 C 762.324 1230.47 749.528 1177.77 737.511 1117.15 C 733.813 1098.5 728.963 1076.44 726.785 1057.76 z" fill="rgb(255,255,255)" transform="translate(0,0)"></path>
<path d="M 236.61 551.934 C 264.575 554.902 260.097 657.071 250.577 675.391 C 249.129 678.177 244.472 679.288 241.999 679.696 C 235.982 673.779 241.697 622.404 236.318 612.587 C 228.869 598.992 213.216 616.005 208.741 623.452 C 199.242 639.261 191.617 655.829 202.168 673.23 C 208.878 681.113 222.42 688.173 225.206 695.368 L 224.256 696.814 C 223.225 696.91 221.589 697.078 220.572 696.852 C 194.168 691.001 166.057 675.612 150.576 653.656 C 161.504 621.371 204.772 564.294 236.61 551.934 z" fill="rgb(245,238,219)" transform="translate(0,0)"></path>
<path d="M 838.843 1272.01 C 882.277 1271.82 909.435 1373.97 854.646 1392.36 C 837.791 1392.9 822.203 1372.88 816.464 1358.52 C 803.139 1325.18 800.314 1288.52 838.843 1272.01 z" fill="rgb(245,238,219)" transform="translate(0,0)"></path>
<path d="M 62.829 946.114 C 64.8223 939.665 66.9441 933.257 69.1933 926.893 C 95.6195 851.728 138.379 765.288 207.234 721.931 C 213.851 717.765 222.734 711.363 229.591 708.066 L 232.846 711.301 C 228.368 716.572 230.22 714.383 225.41 717.171 C 149.808 761 117.979 861.209 90.5902 938.135 C 83.8056 939.488 70.1375 944.027 62.829 946.114 z" fill="rgb(245,238,219)" transform="translate(0,0)"></path>
<path d="M 846.868 1251.03 C 861.719 1249.99 876.262 1258.08 885.6 1269.43 C 902.445 1289.89 910.369 1321.3 908.662 1347.46 C 907.675 1362.58 903.21 1382.51 891.159 1392.62 C 881.067 1400.74 871.26 1398.79 859.493 1397.61 C 864.871 1395.02 869.621 1392.07 874.731 1389 C 901.98 1362.77 894.598 1309.75 872.367 1282.7 C 865.206 1274.12 855.699 1266.15 844.076 1265.42 C 831.39 1264.64 822.984 1271.88 814.167 1279.64 L 814.718 1278.55 C 822.784 1262.88 830.418 1256.32 846.868 1251.03 z" fill="rgb(240,211,159)" transform="translate(0,0)"></path>
<path d="M 227.504 614.712 L 229.827 615.38 C 234.905 622.215 229.537 665.161 233.793 675.663 C 234.194 676.654 235.434 682.032 235.804 683.508 C 234.076 685.812 234.067 685.58 231.285 686.525 C 227.306 686.137 224.124 683.13 220.783 680.681 C 216.617 678.242 211.187 674.432 208.508 670.431 C 196.441 652.405 211.498 625.098 227.504 614.712 z" fill="rgb(255,255,255)" transform="translate(0,0)"></path>
<path d="M 722.268 208.95 L 722.251 212.541 C 710.718 217.501 710.378 225.351 700.91 224.518 C 708.248 216.621 712.986 214.417 722.268 208.95 z" fill="rgb(168,63,33)" transform="translate(0,0)"></path>
<path d="M 193.56 758.72 C 197.49 753.163 198.251 752.244 203.432 747.631 C 201.296 751.263 198.033 757.288 195.548 760.391 L 193.56 758.72 z" fill="rgb(168,63,33)" transform="translate(0,0)"></path>
<metadata><recraft-signature>{"signed_by": "recraft", "signature_b64": "W0ZzC4JsyN7fv7r4opl3crUWNiMkuNCLe5y5h0+B2L6y+qFLaOF8X/1UB+uGP3201rwjoezD9PhnpuEvxAQWCA==", "signing_algo": "Ed25519", "generation_timestamp": 1778092930, "identifier": "032a7089-d2d9-4f72-9ad0-310095aff42f"}</recraft-signature></metadata></svg>