<svg xmlns="http://www.w3.org/2000/svg" height="1024" preserveAspectRatio="none" style="display: block;" version="1.1" viewBox="0 0 2048 2048" width="1024">
<path d="M 0 0 L 2048 0 L 2048 36.8295 L 2048 44.7831 L 2048 882.441 L 2048 918.403 L 2048 923.994 L 2048 1073.29 L 2048 1075.96 L 2048 1183.82 L 2048 1190.8 L 2048 1223.35 L 2048 1231.18 L 2048 2012.18 L 2048 2024.31 L 2048 2048 L 146.803 2048 L 139.87 2048 L 0 2048 L 0 0 z" fill="rgb(250,245,235)" transform="translate(0,0)"></path>
<path d="M 948.765 857.026 C 961.264 849.436 995.424 835.317 1010.21 828.621 C 1058.96 806.569 1107.91 784.959 1157.05 763.795 L 1328.3 688.395 C 1353.95 677.259 1379.8 665.648 1405.83 655.483 C 1419.78 650.034 1430.63 646.249 1445.54 645.275 C 1467.65 643.829 1487.06 651.212 1507.88 657.62 C 1560.59 673.838 1602.13 677.838 1656.31 665.788 C 1681.29 660.23 1699.75 654.889 1723.53 644.485 C 1768.96 624.613 1815.19 596.476 1866.7 601.129 C 1880.24 602.352 1901.11 607.367 1910.17 618.638 C 1920.24 632.457 1916.16 657.172 1915.3 672.948 C 1913.96 697.56 1885.69 702.938 1867.56 710.988 C 1852.39 717.724 1836.46 723.663 1821.18 730.205 C 1797.76 740.236 1771.4 746.924 1750.95 762.48 C 1766.61 778.96 1791.39 786.224 1811.97 794.928 C 1836.23 805.397 1860.55 815.743 1884.93 825.967 C 1899.2 831.912 1913.45 837.939 1927.65 844.047 C 1937.12 848.153 1949.5 854.113 1958.99 856.797 C 1965.61 854.853 1972.5 852.466 1979.12 850.416 C 2007.17 841.731 2035.43 849.501 2043.38 880.679 L 2048 882.441 L 2048 918.403 L 2048 923.994 L 2048 1073.29 L 2048 1075.96 L 2048 1183.82 L 2048 1190.8 L 2048 1223.35 L 2048 1231.18 C 1989.1 1259.5 1926.66 1286.99 1867.02 1314.03 C 1784.63 1352.37 1701.82 1389.79 1618.6 1426.28 C 1565.96 1449.93 1513.48 1473.95 1461.17 1498.32 C 1419.6 1517.11 1377.86 1535.55 1335.97 1553.64 L 1233.42 1599.45 C 1195.1 1616.59 1148.69 1645.19 1107.02 1627.72 C 1079.39 1616.13 1052.45 1603.57 1025.13 1591.31 L 883.306 1528.45 L 459.272 1341.64 C 376.308 1305.63 293.64 1268.94 211.278 1231.57 C 195.879 1224.52 180.426 1217.6 164.92 1210.79 C 155.257 1206.54 137.996 1199.74 130.143 1193.97 C 125.26 1180.03 121.897 1147.03 127.075 1132.48 C 128.569 1128.37 134.376 1124.29 138.254 1122.54 C 190.122 1099.12 244.171 1079.01 296.716 1057.1 C 274.928 1013.43 257.318 970.23 245.956 922.57 C 235.372 878.177 269.86 831.561 305.414 808.992 C 426.609 732.06 591.188 726.475 729.46 746.585 C 796.731 756.702 875.324 784.605 926.736 829.665 C 934.9 837.176 942.424 847.873 948.765 857.026 z" fill="rgb(232,220,200)" transform="translate(0,0)"></path>
<path d="M 948.765 857.026 C 961.264 849.436 995.424 835.317 1010.21 828.621 C 1058.96 806.569 1107.91 784.959 1157.05 763.795 L 1328.3 688.395 C 1353.95 677.259 1379.8 665.648 1405.83 655.483 C 1419.78 650.034 1430.63 646.249 1445.54 645.275 C 1467.65 643.829 1487.06 651.212 1507.88 657.62 C 1560.59 673.838 1602.13 677.838 1656.31 665.788 C 1681.29 660.23 1699.75 654.889 1723.53 644.485 C 1768.96 624.613 1815.19 596.476 1866.7 601.129 C 1880.24 602.352 1901.11 607.367 1910.17 618.638 C 1920.24 632.457 1916.16 657.172 1915.3 672.948 C 1913.96 697.56 1885.69 702.938 1867.56 710.988 C 1852.39 717.724 1836.46 723.663 1821.18 730.205 C 1797.76 740.236 1771.4 746.924 1750.95 762.48 C 1766.61 778.96 1791.39 786.224 1811.97 794.928 C 1836.23 805.397 1860.55 815.743 1884.93 825.967 C 1899.2 831.912 1913.45 837.939 1927.65 844.047 C 1937.12 848.153 1949.5 854.113 1958.99 856.797 C 1965.61 854.853 1972.5 852.466 1979.12 850.416 C 2007.17 841.731 2035.43 849.501 2043.38 880.679 L 2048 882.441 L 2048 918.403 L 2048 923.994 C 2041.88 922.364 2039.23 921.248 2033.46 918.782 C 1989.64 964.07 1906.39 980.541 1845.81 994.9 C 1853.61 1019.93 1870.52 1076.18 1846.21 1098.55 C 1837.24 1106.8 1815.44 1115.51 1804.19 1121.87 C 1767.53 1142.56 1729.25 1160.47 1691.89 1179.88 C 1603.99 1225.6 1515.81 1270.79 1427.35 1315.43 C 1392.93 1333.25 1358.32 1350.7 1323.52 1367.76 C 1306.83 1375.94 1290.29 1384.44 1273.22 1391.74 C 1222.19 1413.57 1176.75 1376.89 1146.7 1339.37 C 1126.95 1348.47 1111.1 1365.65 1093.92 1378.72 C 1065.03 1400.71 1034.93 1420.36 1002.14 1436.12 C 981.218 1446.18 948.143 1461.25 924.76 1452.4 C 912.437 1447.74 903.344 1435.47 898.063 1423.75 C 893.579 1413.81 892.355 1403.44 896.596 1393.18 C 919.979 1336.6 1076.31 1305.21 1130.18 1281.62 C 1124.8 1255.91 1124.98 1235.88 1134.06 1210.92 C 1144.47 1182.27 1169.08 1172.11 1194.87 1160.2 C 1207.43 1154.39 1220 1148.66 1232.52 1142.85 C 1294.02 1114.68 1355.76 1087.05 1417.73 1059.95 C 1403.07 1056.79 1383.41 1054.36 1368.07 1051.88 C 1327 1045.09 1285.84 1038.86 1244.59 1033.19 C 1232.17 1031.36 1192.57 1026.53 1184 1023.51 C 1191.61 1022.2 1406.41 1052.6 1420.03 1058.48 C 1431.22 1055.47 1449.34 1046.9 1460.22 1042.04 L 1521.62 1014.56 C 1579.99 988.638 1638.61 963.269 1697.47 938.459 C 1715.62 930.734 1747.48 914.964 1766 912.925 C 1782.01 911.162 1805.75 934.694 1817.18 945.395 C 1859.46 913.668 1904.26 885.459 1951.15 861.05 C 1948.86 860.218 1946.6 859.34 1944.35 858.419 C 1898.29 839.391 1852.24 819.099 1806.27 799.755 C 1774.62 786.436 1749.52 780.594 1735.39 746.574 L 1735.26 745.39 C 1732.56 719.927 1778.59 702.443 1797.96 694.868 C 1814.96 688.218 1842.71 674.026 1859.33 669.028 C 1944.45 643.43 1910.55 600.588 1838.36 608.453 C 1791.43 613.566 1748.81 644.502 1704.43 659.404 C 1674.27 670.841 1653.2 671.409 1624.17 678.68 C 1576.3 690.674 1522.79 713.875 1476.79 732.12 L 1294.49 805.674 C 1282.32 810.656 1242.56 827.544 1231.01 829.212 C 1241.59 823.425 1265.01 814.859 1277.16 809.989 L 1358.02 777.209 C 1407.77 756.901 1457.64 736.91 1507.64 717.235 C 1535.6 706.108 1579.28 687.726 1607.78 680.165 C 1583.01 679.682 1568.9 678.421 1545.18 674.128 C 1516.5 668.936 1470.13 647.341 1442.57 651.705 C 1410.48 656.786 1358.14 682.329 1327.35 695.705 L 1159.35 770.032 L 1011.78 835.224 C 992.91 843.762 970.169 853.123 952.013 862.486 C 964.685 890.385 969.616 911.674 957.721 941.115 C 946.876 967.959 939.952 994.448 928.234 1020.97 C 891.291 1104.59 834.29 1169.39 749.776 1206.43 C 678.035 1237.87 617.362 1250.19 539.671 1234.05 C 520.153 1230 504.632 1226.37 485.709 1219.21 C 445.019 1203.97 407.476 1181.39 374.948 1152.58 C 368.181 1146.53 344.867 1122.46 341.252 1120.01 C 338.138 1122.71 334.752 1124.83 330.983 1126.54 C 298.64 1141.14 265.718 1154.36 233.493 1169.27 C 225.755 1172.86 214.804 1178.74 207.034 1181.29 L 206.747 1183.07 C 218.019 1189.59 244.15 1200.39 256.834 1206 L 357.556 1250.1 C 385.06 1262.12 412.671 1274.75 440.383 1286.21 C 495.453 1308.97 549.053 1335.89 604.173 1358.41 C 613.744 1353.04 659.201 1338.77 672.015 1334.91 C 686.965 1330.41 764 1299.56 772.612 1300.05 C 766.731 1305.22 721.374 1319.22 711.071 1323.56 C 678.192 1337.41 640.985 1346.34 608.033 1359.81 C 627.394 1370.59 665.585 1385.09 687.158 1394.6 L 879.049 1478.34 L 1049.76 1553.3 C 1061.75 1558.54 1074.22 1563.78 1085.97 1569.36 C 1110.69 1581.1 1133.06 1592.96 1161.02 1583.81 C 1180.6 1577.4 1199.43 1567.82 1218.19 1559.24 C 1248.92 1545.08 1279.73 1531.1 1310.64 1517.31 C 1264.03 1513.57 1217.93 1507.41 1171.58 1501.42 L 1029.84 1483.28 C 1022.25 1482.31 972.738 1477.07 969.388 1475.36 C 977.973 1470.84 1215.36 1506.9 1244.21 1507.6 C 1261.87 1508.03 1298.1 1516.26 1318.05 1513.02 C 1323.3 1512.15 1359.87 1495.05 1367.82 1491.48 L 1479.02 1441.75 C 1669.35 1357.25 1859.01 1271.27 2048 1183.82 L 2048 1190.8 L 2048 1223.35 L 2048 1231.18 C 1989.1 1259.5 1926.66 1286.99 1867.02 1314.03 C 1784.63 1352.37 1701.82 1389.79 1618.6 1426.28 C 1565.96 1449.93 1513.48 1473.95 1461.17 1498.32 C 1419.6 1517.11 1377.86 1535.55 1335.97 1553.64 L 1233.42 1599.45 C 1195.1 1616.59 1148.69 1645.19 1107.02 1627.72 C 1079.39 1616.13 1052.45 1603.57 1025.13 1591.31 L 883.306 1528.45 L 459.272 1341.64 C 376.308 1305.63 293.64 1268.94 211.278 1231.57 C 195.879 1224.52 180.426 1217.6 164.92 1210.79 C 155.257 1206.54 137.996 1199.74 130.143 1193.97 C 125.26 1180.03 121.897 1147.03 127.075 1132.48 C 128.569 1128.37 134.376 1124.29 138.254 1122.54 C 190.122 1099.12 244.171 1079.01 296.716 1057.1 C 274.928 1013.43 257.318 970.23 245.956 922.57 C 235.372 878.177 269.86 831.561 305.414 808.992 C 426.609 732.06 591.188 726.475 729.46 746.585 C 796.731 756.702 875.324 784.605 926.736 829.665 C 934.9 837.176 942.424 847.873 948.765 857.026 z" fill="rgb(0,0,0)" transform="translate(0,0)"></path>
<path d="M 130.766 1156.56 C 141.366 1162.38 158.188 1169.46 169.594 1174.63 C 195.262 1186.39 221.063 1197.86 246.99 1209.04 L 490.818 1315.27 L 886.037 1488.63 L 1036.15 1553.97 C 1061.88 1565.3 1087.46 1577.6 1113.33 1588.4 C 1143.36 1600.93 1172.47 1586.97 1199.12 1574.67 C 1215.63 1566.99 1232.2 1559.41 1248.81 1551.94 L 1447.88 1462.44 C 1648.66 1373.54 1848.71 1282.99 2048 1190.8 L 2048 1223.35 C 1985.84 1255.27 1913.03 1285.81 1849.2 1315.2 L 1419.81 1509.29 C 1368.42 1531.96 1317.1 1554.66 1265.76 1577.63 C 1230.42 1593.31 1195.86 1611.26 1159.33 1623.97 C 1127.3 1635.11 1095.36 1615.91 1066.56 1602.88 C 1040.45 1590.94 1014.26 1579.18 987.987 1567.6 L 656.673 1421.53 L 280.909 1255.52 L 184.572 1212.43 C 169.641 1205.74 149.338 1197.4 135.471 1189.81 C 132.576 1179.6 131.567 1167.11 130.766 1156.56 z" fill="rgb(232,220,200)" transform="translate(0,0)"></path>
<path d="M 2043.38 880.679 L 2048 882.441 L 2048 918.403 C 2044.37 916.564 2040.43 913.996 2036.92 911.84 C 2041.65 899.019 2043.55 894.55 2043.38 880.679 z" fill="rgb(232,220,200)" transform="translate(0,0)"></path>
<path d="M 562.868 743.42 C 672.478 736.494 825.661 756.568 915.332 828.076 C 934.952 844.752 957.114 876.398 958.15 902.572 C 960.656 965.897 896.834 1007.16 843.913 1028.57 C 783.276 1053.11 713.38 1066.91 647.248 1070.89 C 540.581 1078.48 386.347 1063.26 298.725 992.97 C 276.687 973.687 251.79 942.33 250.813 911.835 C 248.084 826.633 351.047 784.198 420.173 765.372 C 465.961 752.901 514.272 746.851 562.868 743.42 z" fill="rgb(250,245,235)" transform="translate(0,0)"></path>
<path d="M 573.417 765.418 C 573.868 765.38 574.32 765.342 574.771 765.304 C 684.964 762.165 813.091 776.908 900.922 849.515 C 937.197 879.502 943.018 929.807 908.968 962.365 C 847.043 1021.58 717.036 1046.61 635.335 1049.15 L 634.395 1049.24 C 556.17 1056.03 428.073 1038.38 356.937 1003.92 C 340.618 995.968 325.353 986.012 311.492 974.286 C 229.25 904.522 302.826 831.764 378.331 803.549 C 445.59 778.416 502.448 769.779 573.417 765.418 z" fill="rgb(0,0,0)" transform="translate(0,0)"></path>
<path d="M 571.226 771.421 C 615.888 769.022 680.041 772.422 725.015 781.056 C 788.418 794.628 873.481 818.053 913.322 872.447 C 943.595 913.778 914.971 955.944 878.32 979.711 C 844.714 966.594 812.031 951.224 780.495 933.704 C 725.412 903.264 691.696 876.188 629.152 861.416 C 623.448 860.454 617.731 859.567 612.004 858.755 C 541.755 849.248 474.647 872.191 417.982 913.156 C 388.396 934.544 361.613 960.716 332.964 982.665 C 308.35 965.358 285.124 945.006 282.527 913.159 C 279.735 878.924 308.327 848.738 335.474 832.027 C 403.538 790.13 493.326 776.134 571.226 771.421 z" fill="rgb(250,245,235)" transform="translate(0,0)"></path>
<path d="M 568.568 862.424 C 648.218 856.159 714.588 902.382 779.627 940.171 C 809.112 957.302 840.786 970.579 872.296 983.52 C 816.1 1018.81 708.652 1037.84 643.249 1042.87 C 545.817 1047.59 422.749 1037.12 337.622 985.983 C 343.515 980.663 350.038 975.845 356.008 970.626 C 418.204 916.247 482.106 866.929 568.568 862.424 z" fill="rgb(250,245,235)" transform="translate(0,0)"></path>
<path d="M 1763.84 918.253 C 1791.34 919.647 1817.39 953.963 1829.31 976.75 C 1844.5 1005.78 1858.87 1048.65 1850.37 1081.73 C 1848.09 1090.6 1844 1093.89 1836.57 1098.66 C 1823.28 1106.52 1807.95 1113.34 1794.16 1120.46 L 1692 1173.06 L 1451.42 1296.34 C 1396.92 1323.87 1338.59 1352.18 1284.95 1380.61 C 1289.57 1372.88 1291.91 1369.06 1295.19 1360.73 C 1298.05 1351.47 1299.54 1343.5 1300.55 1333.84 C 1307.39 1268.73 1251.01 1179.09 1182.02 1173.43 C 1226.96 1150.44 1283.04 1126.63 1329.31 1106.06 L 1592.75 990.402 L 1712.28 938.961 C 1725.85 933.207 1751.15 920.27 1763.84 918.253 z" fill="rgb(250,245,235)" transform="translate(0,0)"></path>
<path d="M 790.192 1053.15 L 791.036 1053.25 L 791.943 1054.42 C 790.166 1062.88 787.956 1071.25 785.321 1079.49 C 772.333 1120.51 737.014 1194.88 699.013 1218.98 C 695.134 1221.44 676.064 1225.86 670.559 1227.27 C 609.464 1242.91 549.723 1233.3 490.902 1213.94 C 477.477 1197.33 469.484 1185.08 457.872 1166.92 C 437.35 1133.23 422.07 1093.26 412.113 1055.22 C 533.736 1088.06 668.832 1085.42 790.192 1053.15 z" fill="rgb(250,245,235)" transform="translate(0,0)"></path>
<path d="M 1178.54 1260.14 C 1203.7 1259.16 1217.5 1291.89 1205.39 1312.47 C 1188.83 1322.83 1162.41 1322.21 1142.09 1334.09 C 1122.27 1345.69 1110.22 1358.8 1092.99 1371.84 C 1053.44 1401.76 982.374 1450.85 932.571 1448.79 C 917.368 1445.77 905.944 1429.51 901.041 1415.64 C 892.014 1390.11 920.86 1371.23 939.558 1360.16 C 996.797 1326.26 1062.2 1312.81 1124.29 1291.12 C 1143.65 1284.35 1159.09 1266.79 1178.54 1260.14 z" fill="rgb(250,245,235)" transform="translate(0,0)"></path>
<path d="M 1174.91 1180.23 C 1229.1 1175.14 1281.52 1245.45 1291.31 1293 C 1308.12 1374.57 1264.43 1422.88 1187.23 1372.08 C 1170.66 1359.47 1164.84 1352.4 1151.96 1336.41 C 1168.42 1329.23 1185.94 1327.82 1201.83 1321.34 C 1229.79 1309.93 1212.48 1260.26 1188.31 1254.64 C 1171.72 1250.77 1149.97 1270.29 1135.83 1278.95 C 1127.03 1246.44 1134.7 1187.58 1174.91 1180.23 z" fill="rgb(250,245,235)" transform="translate(0,0)"></path>
<path d="M 1991.43 853.182 C 2010.2 851.268 2033.95 860.09 2036.57 879.387 C 2045.73 946.759 1906.01 973.778 1863.49 984.42 L 1842.35 988.74 C 1835.54 974.427 1828.82 963.712 1820.43 950.413 C 1828.71 943.556 1850.04 929.384 1859.45 923.169 C 1894.94 899.752 1949.48 862.767 1991.43 853.182 z" fill="rgb(250,245,235)" transform="translate(0,0)"></path>
<path d="M 937.638 974.85 C 939.067 981.099 921.577 1020.36 917.45 1029.02 C 873.216 1121.95 813.018 1177.89 716.796 1213.39 C 716.987 1210.96 725.71 1202.44 727.822 1199.93 C 733.924 1192.77 740.181 1185.6 744.959 1177.46 C 768.282 1137.69 788.368 1096.72 797.587 1051.27 C 853.298 1035.03 895.351 1015.71 937.638 974.85 z" fill="rgb(250,245,235)" transform="translate(0,0)"></path>
<path d="M 266.991 967.951 C 304.498 1015.23 350.092 1034.95 405.941 1053.56 C 428.6 1124.66 439.488 1151.06 482.078 1211.42 C 456.905 1202.01 438.772 1192.24 416.746 1177.15 C 357.594 1137.18 311.33 1080.89 283.583 1015.12 C 277.391 1000.82 269.836 983.233 266.991 967.951 z" fill="rgb(250,245,235)" transform="translate(0,0)"></path>
<path d="M 131.177 1150.41 C 130.531 1139.51 130.749 1133.03 141.846 1128.38 C 193.769 1106.62 247.713 1082 300.529 1062.8 C 314.04 1082.7 326.279 1099.49 340.703 1118.73 C 322.481 1131.11 213.711 1170.93 206.296 1179.72 C 205.23 1180.1 202.975 1181.07 201.992 1180.73 C 180.676 1173.26 150.957 1159.21 131.177 1150.41 z" fill="rgb(232,220,200)" transform="translate(0,0)"></path>
<path d="M 1909.68 653.015 C 1910.08 659.053 1909.56 670.666 1908.1 676.415 C 1906.92 681.035 1904.75 684.776 1900.88 687.637 C 1889.63 695.952 1875.13 700.466 1862.23 705.955 C 1833.4 718.223 1804.14 729.615 1775.15 741.473 C 1764.97 745.637 1756.47 752.826 1747.4 757.8 L 1745.53 756.651 C 1743.5 752.02 1740.09 745.483 1740.95 740.319 C 1745.39 713.904 1859.02 678.875 1884.78 667.597 C 1893.8 663.65 1901.73 658.792 1909.68 653.015 z" fill="rgb(232,220,200)" transform="translate(0,0)"></path>
<path d="M 1422.16 864.055 C 1427.6 858.645 1717.95 749.859 1735.39 746.574 C 1728.61 753.43 1554.64 814.605 1530.4 823.73 L 1462.2 849.591 C 1452.05 853.472 1432.11 861.76 1422.16 864.055 z" fill="rgb(0,0,0)" transform="translate(0,0)"></path>
<path d="M 2048 1073.29 L 2048 1075.96 C 1978.61 1102.41 1910.04 1132.33 1841.5 1161.03 L 1788.38 1183.46 C 1778.52 1187.63 1765.96 1193.38 1755.99 1196.55 C 1764.81 1188.99 1800.35 1175.81 1813.56 1170.25 L 1889.7 1138.1 C 1932.65 1120.17 1975.14 1101.17 2018.68 1084.52 C 2028.59 1080.73 2037.86 1076.64 2048 1073.29 z" fill="rgb(0,0,0)" transform="translate(0,0)"></path>
<path d="M 1828.81 628.259 C 1841.78 626.965 1862.97 626.115 1869.02 640.342 C 1873.82 651.645 1854.22 658.557 1846.75 660.712 C 1834.17 663.462 1811.59 664.125 1807.09 648.636 C 1806.21 645.585 1806.62 642.306 1808.22 639.564 C 1812.3 632.422 1821.48 630.114 1828.81 628.259 z" fill="rgb(0,0,0)" transform="translate(0,0)"></path>
<path d="M 1830.17 634.293 C 1837.91 633.894 1847.99 633.282 1854.88 636.789 C 1872.55 645.783 1853.32 652.796 1844.78 655.044 C 1820.79 661.679 1797.24 644.079 1830.17 634.293 z" fill="rgb(232,220,200)" transform="translate(0,0)"></path>
<path d="M 942.945 1158.16 L 943.399 1159.1 C 940.207 1163.62 797.054 1212.75 781.307 1217.12 L 780.585 1216.58 C 781.761 1214.91 828.648 1198.87 834.734 1196.72 L 902.373 1172.57 C 915.106 1167.94 930.263 1161.89 942.945 1158.16 z" fill="rgb(0,0,0)" transform="translate(0,0)"></path>
<path d="M 878.913 1107.37 C 916.845 1109.72 954.884 1115.65 992.691 1119.41 C 997.349 1119.87 1002.03 1119.42 1006.32 1121.29 L 1006.46 1122.93 C 995.863 1122.29 882.415 1110.98 878.82 1109.1 L 878.913 1107.37 z" fill="rgb(0,0,0)" transform="translate(0,0)"></path>
<path d="M 2048 36.8295 L 2048 44.7831 C 1999.63 85.5051 1970.26 103.664 1913.99 134.206 C 1902.95 140.297 1891.79 146.174 1880.52 151.834 C 1867.32 158.356 1840.62 170.142 1829.52 178.178 C 1816.54 190.36 1814.3 214.544 1809.21 230.012 C 1788.94 291.628 1750.56 345.644 1696.02 381.358 C 1687.03 387.248 1660.36 406.757 1650.61 398.637 C 1645.89 387.444 1652.75 364.861 1657.51 353.935 C 1678.59 305.541 1725.35 261.965 1766.04 229.05 C 1783.49 214.933 1811.02 197.359 1822.49 179.429 C 1783.28 195.503 1746.04 213.996 1705.53 227.276 C 1687.82 233.082 1668.76 237.304 1652.33 245.33 C 1642.41 253.71 1635.94 270.836 1629.07 281.335 C 1598.93 327.777 1561.09 367.333 1510.97 392.305 C 1490.6 402.453 1460.08 416.694 1436.79 413.145 C 1424.08 411.209 1440.16 385.037 1443.49 380.19 C 1475.83 333.145 1527.86 301.989 1578.66 278.149 C 1600.06 268.196 1629.1 257.38 1648.59 244.391 C 1597.69 258.63 1545.69 268.609 1493.14 274.225 C 1483.57 275.214 1470.1 276.944 1460.95 277.182 C 1408.53 340.526 1346.29 389.846 1261.89 399.514 C 1220.98 404.201 1253.95 368.737 1266.12 357.737 C 1306.51 321.23 1353.78 301.383 1406.59 290.464 C 1424.04 286.718 1442.35 284.97 1458.63 277.083 C 1439.52 277.879 1420.45 280.236 1401.33 280.368 C 1361.33 280.644 1318.68 281.919 1278.86 278.81 C 1273.07 287.178 1263.16 296.239 1256.05 303.602 C 1218.15 342.855 1171.9 371.712 1117.61 381.552 C 1112.22 382.53 1068.65 389.426 1071.36 377.475 C 1074.73 362.669 1096.03 343.791 1107.96 334.806 C 1142.67 309.015 1181.46 294.077 1223.83 287.524 C 1237.02 285.482 1257.72 283.832 1269.26 280.766 L 1270.86 279.965 L 1271.15 279.615 C 1269.88 278.85 1233.64 278.143 1229.18 277.941 C 1186.15 276.107 1143.27 271.684 1100.77 264.696 C 1083.47 271.574 1069.12 278.672 1050.14 283.007 C 993.938 296.159 934.783 288.563 884.878 259.115 C 879.1 255.706 870.094 246.068 877.121 240.347 C 884.92 234 906.354 229.423 915.935 227.355 C 963.778 217.031 1017.48 218.999 1062.74 238.706 C 1075.58 244.35 1093.84 258.229 1106.23 260.323 C 1141.41 266.266 1178.88 269.428 1214.52 271.658 C 1228.72 272.546 1250.19 274.604 1263.52 273.696 C 1226.42 263.3 1211.36 254.798 1180.79 232.764 C 1173.08 232.504 1163.48 232.308 1155.85 231.401 C 1099.57 224.703 1046.89 186.606 1011.94 143.338 C 1006.79 136.958 990.983 114.977 992.169 105.237 C 992.336 103.868 995.032 101.379 996.432 100.689 C 1005.66 96.1377 1033.46 105.869 1044.09 109.301 C 1114.64 132.064 1148.91 167.079 1182.07 231.055 C 1201.92 239.652 1219.18 251.416 1240.44 260.024 C 1278.65 275.492 1303.42 274.994 1343.99 275.033 L 1435.25 274.949 C 1417.31 270.947 1407.08 269.236 1390.21 261.5 C 1381.04 257.297 1375.08 250.419 1368.51 247.622 L 1369.5 250.376 L 1368.11 251.528 C 1347.25 255.563 1316.97 249.091 1297.6 240.323 C 1243.39 215.785 1219.68 169.209 1199.56 116.324 C 1197.65 111.309 1195.15 103.7 1197.44 98.6973 C 1205.5 92.0268 1220.74 102.216 1229.03 105.808 C 1277.01 126.975 1314.23 170.427 1344.75 212.392 C 1377.87 257.924 1415.04 273.542 1471.95 270.76 C 1507.63 269.017 1543.79 261.957 1579.17 255.154 C 1568.09 247.074 1555.42 252.969 1542.38 252.622 C 1532.63 252.363 1523.77 251.991 1514.09 250.525 C 1488.47 246.665 1463.89 237.669 1441.83 224.075 C 1409.23 203.825 1385.26 177.466 1366.82 144.135 C 1343.05 101.187 1355.26 100.564 1394.56 114.884 C 1432.54 128.537 1463.44 144.26 1493.7 171.924 C 1505.73 182.73 1575.57 255.56 1589.9 252.719 C 1652.22 240.365 1733.05 215.994 1789.33 187.626 C 1753.96 184.82 1756.92 192.574 1727.25 196.387 C 1676.86 202.863 1611.01 185.367 1571.03 153.605 C 1556.52 141.395 1533.89 124.111 1527.66 105.701 C 1524.45 96.1901 1553.17 95.6158 1558.71 95.5824 C 1624.32 95.1878 1681.05 128.053 1735.01 161.539 C 1747.17 169.086 1770.84 182.898 1784.74 183.595 C 1791.14 183.961 1797.54 183.118 1803.62 181.111 C 1814.44 177.633 1831.54 169.027 1842.2 163.883 C 1913.04 129.687 1990.33 91.0164 2048 36.8295 z" fill="rgb(0,0,0)" transform="translate(0,0)"></path>
<path d="M 1269.26 280.766 L 1270.86 279.965 C 1265.45 291.077 1228.69 321.821 1217.33 330.7 C 1185.08 356.19 1145.65 372.777 1104.91 378.144 C 1099.52 378.854 1080.09 381.579 1076.89 376.941 C 1077.27 373.891 1078.84 371.23 1080.75 368.859 C 1124.5 314.598 1184.42 298.482 1248.27 288.348 C 1217.33 308.561 1184.28 322.079 1151.4 338.592 C 1144.46 342.076 1124.25 349.959 1119.76 353.705 C 1149.36 343.57 1248.56 299.125 1269.26 280.766 z" fill="rgb(232,220,200)" transform="translate(0,0)"></path>
<path d="M 1556.4 246.994 C 1477.78 250.071 1410.04 211.471 1371.95 141.873 C 1368.67 135.887 1358.12 118.759 1362.3 112.618 C 1368.78 110.334 1389.93 119.416 1396.6 121.753 C 1433.39 134.697 1469.64 155.481 1497.64 182.856 C 1520.56 205.259 1540.61 225.716 1565.83 245.661 C 1520.31 229.065 1477.2 206.466 1437.66 178.465 L 1436.79 180.245 C 1475.56 209.559 1511.09 228.712 1556.4 246.994 z" fill="rgb(232,220,200)" transform="translate(0,0)"></path>
<path d="M 1436.79 180.245 C 1430.11 174.962 1425.88 171.445 1419.81 165.523 C 1421.48 165.552 1435.1 176.35 1437.66 178.465 L 1436.79 180.245 z" fill="rgb(62,60,52)" transform="translate(0,0)"></path>
<path d="M 1549.22 101.347 C 1635 97.7767 1688.49 143.938 1757.23 179.988 C 1704.36 170.593 1630.04 152.46 1583.43 127.299 L 1582.41 127.62 C 1586.48 131.453 1591.62 133.702 1596.63 136.332 C 1627.5 150.908 1666.12 163.707 1699.25 172.119 C 1717.86 176.848 1737.43 180.016 1756.41 184.878 C 1699.15 202.489 1628.91 187.484 1580.09 153.605 C 1570.09 146.668 1535.79 117.798 1533.88 105.964 C 1537.38 102.058 1543.85 102.022 1549.22 101.347 z" fill="rgb(232,220,200)" transform="translate(0,0)"></path>
<path d="M 1809.67 201.072 C 1809.57 212.944 1694.52 329.732 1680.1 361.886 C 1686.93 354.235 1694.07 344.418 1700.44 336.191 C 1734.61 292.043 1779.24 254.31 1810.31 208.025 C 1804.82 226.912 1800.67 238.597 1793 256.722 L 1792.2 258.57 C 1771.69 304.618 1739.18 344.863 1697.69 373.577 C 1690.24 378.731 1664.33 397.907 1655.59 393.964 C 1654.51 391.424 1654.11 389.265 1654.47 386.373 C 1661.61 329.491 1715.87 278.391 1757.44 242.099 C 1774.03 227.619 1792.53 216.31 1809.67 201.072 z" fill="rgb(232,220,200)" transform="translate(0,0)"></path>
<path d="M 1634.58 260.957 L 1634.65 262.301 C 1625.89 281.444 1598.66 314.967 1583.65 331.726 C 1574.33 342.803 1561.05 352.594 1550.18 361.766 C 1535.17 374.425 1453.45 420.096 1439.38 405.811 C 1438.32 403.034 1438.09 400.129 1439.41 397.45 C 1464.22 347.173 1529.73 307.105 1577.39 284.002 C 1593.08 276.287 1608.18 271.813 1622.41 264.917 C 1601.44 290.191 1542.69 330.621 1514.14 350.304 C 1499.19 360.606 1480.65 371.244 1467.07 383.575 C 1501.03 368.388 1609.95 288.146 1634.58 260.957 z" fill="rgb(232,220,200)" transform="translate(0,0)"></path>
<path d="M 1201.88 100.89 C 1222.77 104.77 1260.26 129.563 1276.86 143.519 C 1286 151.174 1294.58 159.48 1302.53 168.374 C 1307.53 173.894 1364.62 245.233 1364.55 244.431 C 1350.79 234.791 1335.87 228.179 1321.86 218.874 C 1298.22 203.167 1277.53 185.31 1256.07 166.883 C 1256.2 167.554 1256.33 168.225 1256.46 168.895 C 1283.79 199.04 1328.47 227.26 1363.09 247.8 C 1288.13 250.313 1236.64 198.293 1211.79 132.297 C 1207.8 121.675 1203.64 112.315 1201.88 100.89 z" fill="rgb(232,220,200)" transform="translate(0,0)"></path>
<path d="M 1087.98 264.503 C 1030.94 287.384 975.415 291.979 917.427 269.147 C 910.343 266.358 877.478 253.652 881.298 244.826 C 885.479 241.234 888.965 240.407 894.155 238.767 C 944.61 222.828 1003.43 222.304 1053.31 240.544 C 1065.38 244.96 1081.67 254.061 1093.54 260.455 C 1067.71 256.79 1026.64 256.371 999.008 254.779 L 997.804 256.369 C 1027.88 258.891 1057.94 261.603 1087.98 264.503 z" fill="rgb(232,220,200)" transform="translate(0,0)"></path>
<path d="M 997.804 256.369 C 990.414 256.396 982.629 255.766 975.453 253.971 C 981.047 253.728 994.02 253.276 999.008 254.779 L 997.804 256.369 z" fill="rgb(143,139,123)" transform="translate(0,0)"></path>
<path d="M 998.085 105.04 C 1013.27 104.849 1030.38 111.016 1044.78 115.501 C 1079.21 126.23 1112.8 144.885 1137.04 171.949 C 1151.29 187.85 1163.05 206.998 1174.44 225.037 C 1146.23 205.576 1118.18 185.88 1090.3 165.953 C 1085.95 162.895 1061.91 145.577 1058.33 144.23 L 1059.09 145.741 C 1075.53 159.942 1100.95 177.128 1118.88 190.625 C 1130.72 199.542 1162.07 223.543 1173.27 228.894 C 1126.82 223.327 1104.51 214.562 1064.6 186.548 C 1043.34 171.627 1002.07 131.628 998.085 105.04 z" fill="rgb(232,220,200)" transform="translate(0,0)"></path>
<path d="M 1446.96 286.259 C 1446.28 288.376 1410.42 324.008 1403.18 330.542 C 1380.42 351.094 1339.35 373.581 1309.94 383.213 C 1297.23 387.375 1257.56 400.785 1249.37 391.103 C 1248.99 388.494 1249.4 385.714 1251.02 383.558 C 1282.69 341.366 1332.16 316.475 1381.2 302.11 C 1397.59 297.381 1409.82 294.147 1426.83 291.656 C 1422.29 294.441 1417.82 297.57 1413.34 300.471 C 1379.54 322.342 1342.9 339.896 1307.32 358.621 C 1297.27 363.907 1286.68 369.493 1277.31 375.904 C 1293.95 369.728 1315.07 357.982 1331.37 349.832 C 1352.69 339.17 1377.11 327.104 1397.86 315.274 C 1416.38 304.713 1425.22 294.604 1446.96 286.259 z" fill="rgb(232,220,200)" transform="translate(0,0)"></path>
<path d="M 210.531 1623.72 C 205.048 1604.73 199.914 1583.99 193.929 1565.32 C 191.783 1558.62 181.149 1543.22 177.346 1536.31 C 173.074 1528.56 169.879 1522.02 166.125 1513.74 C 149.995 1477.63 144.538 1437.65 150.397 1398.53 C 151.886 1388.12 155.551 1364.66 167.209 1359.46 C 168.92 1358.7 171.546 1359.19 173.252 1360.05 C 193.431 1375.49 208.526 1417.73 214.357 1440.44 C 228.171 1494.25 218.193 1517.49 200.326 1564.89 C 204.73 1581.98 209.072 1598.28 214.568 1615.07 C 219.61 1603.52 224.223 1593.84 230.713 1583.08 C 233.84 1576.51 242.804 1566.55 245.249 1560.31 C 263.592 1513.5 285.78 1470.19 336.441 1452.62 C 347.642 1448.73 394.008 1431.98 400.984 1444.63 C 401.25 1450.88 395.287 1460.16 392.213 1465.83 C 363.333 1519.05 312.676 1558.71 252.121 1567.34 C 250.883 1567.52 249.491 1566.64 248.509 1566.01 C 243.307 1570.76 238.579 1579.65 235.06 1585.93 C 216.988 1618.6 203.798 1653.75 195.91 1690.25 C 227.537 1637.23 260.659 1590.83 324.442 1575.44 C 335.658 1572.74 364.815 1566.26 375.166 1569.95 C 376.227 1571.05 377.587 1571.93 377.355 1573.07 C 373.588 1591.53 346.608 1620.46 334.705 1631.72 C 292.14 1671.96 252.895 1687.2 195.782 1692.8 C 180.561 1755.56 174.37 1802.11 175.066 1866.87 C 179.046 1851.56 182.914 1833.88 187.748 1819.21 C 203.36 1771.83 233.111 1728.98 276.727 1703.56 C 284.101 1699.26 300.57 1689.65 308.597 1689.6 C 316.233 1693.98 311.289 1708.35 310.027 1715.74 C 304.68 1747.08 293.586 1776.73 274.868 1802.6 C 253.899 1832.36 209.156 1863.29 174.399 1875.71 C 175.323 1912.32 178.682 1955.52 188.695 1990.8 C 250.75 1922.52 302.908 1867.5 374.372 1809.75 C 364.822 1792.9 365.101 1753.61 368.768 1734.2 C 360.481 1728.65 358.206 1722.21 356.46 1712.53 C 351.765 1686.5 362.732 1662.35 377.86 1641.82 C 381.1 1637.35 383.217 1634 388.406 1632.26 C 390.091 1632.85 391.04 1632.83 391.836 1635.33 C 398.81 1657.29 399.715 1681.86 391.18 1703.44 C 386.631 1714.94 379.688 1724.26 375.902 1732.91 C 368.262 1750.36 372.833 1788.41 377.732 1806.08 C 398.234 1790.75 419.006 1775.79 440.038 1761.2 C 446.814 1756.53 459.406 1747.5 466.455 1743.59 C 461.67 1719.14 463.831 1695.29 466.443 1670.65 C 456.472 1651.71 454.817 1640.81 461.213 1620.07 C 465.036 1607.67 482.423 1575.12 495.351 1573.36 C 497.284 1574.24 497.673 1573.93 498.196 1576.38 C 505.879 1612.37 498.617 1644.5 472.912 1671.37 C 469.375 1691.13 467.019 1721.25 471.522 1740.49 C 497.209 1726.63 523.597 1711.22 550.434 1700.08 C 558.95 1676.93 568.863 1654.93 578.459 1632.32 C 581.716 1624.64 581.712 1611.84 581.494 1603.3 C 581.052 1585.94 620.082 1549.01 635.922 1550.18 C 640.719 1553.18 638.597 1558.88 637.964 1563.96 C 634.229 1593.94 614.833 1618.24 586.474 1628.62 C 576.52 1651.57 567.045 1671.61 558.254 1695.29 C 589.737 1681.21 623.454 1671.67 656.918 1663.58 C 665.729 1634.9 679.69 1614.27 704.373 1596.68 C 710.459 1562.27 755.906 1548.17 786.607 1547.97 C 788.35 1547.95 789.093 1549.09 790.354 1550.17 C 791.213 1553.63 790.388 1555.92 788.433 1558.85 C 773.011 1581.94 737.732 1609.07 707.895 1601.29 C 683.806 1617.25 672.964 1636.59 662.072 1662.36 C 694.616 1660.43 709.352 1667.18 740.866 1670.6 C 745.255 1671.07 758.385 1667.1 764.257 1666.16 C 794.048 1661.38 828.686 1670.88 851.506 1691.15 C 827.621 1703.01 803.083 1709.44 776.675 1701.07 C 764.439 1697.19 750.963 1688.5 745.046 1676.78 C 712.975 1673.65 680.369 1662.68 648.481 1671.49 C 634.591 1675.33 560.164 1695.16 554.607 1705.09 C 557.757 1712.27 596.399 1722.13 605.441 1725.32 C 632.444 1716.08 646.402 1716.67 673.167 1729.65 C 680.552 1733.23 701.085 1745.62 705.607 1751.5 C 706.443 1761.38 675.297 1763.08 668.327 1763.29 C 641.812 1764.07 615.285 1756.18 602.728 1730.95 C 588.153 1726.56 558.014 1718.14 547.201 1708.13 C 506.805 1724.75 456.945 1754.52 421.99 1780.98 C 453.364 1796.08 496.393 1802.16 531.488 1795.87 C 537.173 1794.15 545.956 1785.93 551.185 1784.28 C 571.533 1777.87 594.919 1779.26 614.475 1787.81 C 630.964 1795.02 616.309 1801.66 608.309 1805.85 C 585.627 1817.72 549.836 1823.51 530.33 1802.91 C 480.116 1804.73 464.269 1804.84 416.034 1785.36 C 348.865 1830.78 281.476 1898.74 226.753 1958.01 C 200.082 1986.9 171.552 2017.55 146.803 2048 L 139.87 2048 C 154.564 2030.2 169.421 2012.53 184.437 1995 C 174.832 1963.95 172.37 1926.8 168.62 1895.22 C 167.596 1886.6 136.57 1857.31 130.03 1851.68 C 86.9028 1810.39 63.1322 1761.57 51.3475 1703.57 C 40.5472 1655.37 51.1395 1635.3 91.2258 1679.49 C 113.06 1703.55 127.133 1724.11 141.466 1754.19 C 160.822 1794.83 156.259 1827.25 158.34 1870.21 C 162.257 1876.5 164.378 1879.28 169.132 1885 C 167.312 1839.84 171.841 1777.99 181.387 1734.25 C 146.031 1668.51 90.2092 1621.3 81.4564 1543.38 C 67.7884 1421.71 135.436 1517.52 152.935 1564.64 C 167.347 1603.46 165.967 1644.66 158.954 1684.4 C 166.504 1697.7 174.532 1710.72 183.024 1723.44 C 191.107 1687.37 197.059 1658.37 210.531 1623.72 z" fill="rgb(0,0,0)" transform="translate(0,0)"></path>
<path d="M 54.6757 1660.71 C 64.3263 1660.66 69.6642 1666.1 76.7485 1672.96 C 106.441 1701.7 136.284 1745.62 147.013 1785.75 C 152.649 1806.84 152.944 1842.86 153.207 1864.7 C 129.787 1817.81 111.464 1763.9 87.9394 1715.5 C 85.8632 1711.48 85.0277 1710.14 82.2912 1706.54 C 81.8487 1708.17 138.665 1843.84 143.659 1855.54 C 113.351 1828.32 96.9437 1807.6 78.9647 1769.89 C 68.3632 1747.65 46.1473 1683.42 54.6757 1660.71 z" fill="rgb(232,220,200)" transform="translate(0,0)"></path>
<path d="M 305.752 1696.02 C 310.146 1704.1 296.638 1747.13 293.292 1756.64 C 275.486 1807.25 232.449 1843.38 184.679 1864.96 C 193.342 1856.55 217.101 1820.23 225.784 1807.99 C 249.554 1774.47 274.633 1740.37 297.008 1705.99 C 296.42 1706.03 295.77 1705.85 295.242 1706.11 C 291.865 1707.8 197.636 1844.62 181.581 1862.3 C 188.548 1830.82 192.891 1814.54 207.947 1784.78 C 226.728 1747.66 265.233 1708.37 305.752 1696.02 z" fill="rgb(232,220,200)" transform="translate(0,0)"></path>
<path d="M 194.016 1552.62 C 162.392 1500.57 149.774 1467.88 155.279 1403.36 C 155.996 1394.95 161.065 1370.48 167.487 1365.44 C 182.11 1364.13 200.995 1415.27 204.781 1427.09 C 218.357 1469.47 219.749 1508.45 198.893 1548.8 C 197.23 1535.51 194.352 1522.18 192.649 1508.86 C 189.722 1485.96 187.608 1462.97 183.597 1440.23 C 183.203 1436.94 182.768 1431.79 181.99 1428.75 L 180.47 1428.53 L 180.784 1426.55 C 179.427 1433.46 180.722 1439.32 181.528 1446.4 C 183.853 1463.93 185.03 1482.58 187.332 1500.36 C 189.58 1517.71 192.317 1535.28 194.016 1552.62 z" fill="rgb(232,220,200)" transform="translate(0,0)"></path>
<path d="M 365.625 1574.41 C 368.184 1574.17 368.12 1574.2 370.655 1574.72 L 371.206 1576.32 C 352.177 1619.01 293.871 1663.18 249.979 1676.86 C 237.029 1680.9 221.898 1683.63 208.458 1686.59 C 221.804 1680.26 244.471 1662.75 256.488 1653.37 C 275.852 1638.25 295.552 1623.06 315.002 1608.12 C 323.796 1601.37 353.582 1581.6 358.564 1576.05 C 342.901 1581.23 260.087 1646.77 242.116 1659.69 C 235.507 1664.44 208.565 1683.25 203.3 1688.19 C 212.3 1671.69 222.797 1656.05 234.661 1641.47 C 272.068 1596.18 308.467 1579.82 365.625 1574.41 z" fill="rgb(232,220,200)" transform="translate(0,0)"></path>
<path d="M 92.3562 1488.78 C 103.578 1491.98 116.293 1510.22 122.895 1519.99 C 158.208 1572.25 164.785 1612.36 154.413 1672.41 C 152.564 1667.27 150.152 1661.58 148.046 1656.47 C 128.885 1610.02 119.154 1561.38 105.208 1513.2 C 104.642 1511.98 104.036 1511.1 103.332 1509.95 C 102.953 1514.16 108.298 1531.06 109.504 1536.64 C 120.01 1585.28 130.336 1624.61 148.739 1670.79 C 113.244 1629.56 86.6201 1575.73 84.6535 1520.52 C 84.215 1508.21 84.6402 1499.01 92.3562 1488.78 z" fill="rgb(232,220,200)" transform="translate(0,0)"></path>
<path d="M 252.004 1560.19 C 279.073 1486.38 314.751 1451.69 395.481 1445.46 C 377.527 1489.07 339.577 1530.63 295.735 1548.85 C 283.48 1553.86 270.824 1557.83 257.903 1560.72 C 284.001 1536.84 319.283 1502.5 345.988 1481 L 344.43 1479.12 C 323.842 1496.99 303.344 1514.96 282.938 1533.03 C 274.835 1540.19 260.037 1554.12 252.004 1560.19 z" fill="rgb(232,220,200)" transform="translate(0,0)"></path>
<path d="M 344.43 1479.12 C 349.479 1475.07 381.111 1449.38 385.249 1449.54 C 373.836 1460.38 358.304 1470.67 345.988 1481 L 344.43 1479.12 z" fill="rgb(0,0,0)" transform="translate(0,0)"></path>
<path d="M 630.214 1725.39 C 656.668 1724.94 677.522 1736.4 697.298 1753.09 C 691.072 1754.93 684.558 1755.8 678.142 1756.86 C 655.278 1757.73 639.744 1757.97 620.164 1744.36 C 599.661 1730.1 616.664 1727.14 630.214 1725.39 z" fill="rgb(250,245,235)" transform="translate(0,0)"></path>
<path d="M 766.511 1671.29 C 795.321 1668.28 816.586 1674.41 839.946 1690.79 C 834.807 1692.92 829.411 1694.39 824.071 1696 C 810.961 1698.88 800.579 1700.03 787.074 1697.67 C 776.443 1695.82 759.165 1688.66 753.119 1679.73 C 752.629 1675.91 752.24 1677.63 754.342 1674.39 C 758.275 1671.88 761.815 1671.9 766.511 1671.29 z" fill="rgb(250,245,235)" transform="translate(0,0)"></path>
<path d="M 386.865 1640.6 C 395.101 1646.05 391.244 1692.44 385.605 1701.72 C 381.326 1708.77 377.278 1724.37 368.638 1728.25 C 351.308 1695.15 365.77 1667.05 386.865 1640.6 z" fill="rgb(250,245,235)" transform="translate(0,0)"></path>
<path d="M 492.778 1580.89 C 502.084 1597.89 488.404 1653.98 471.966 1664.48 L 469.654 1663.61 C 453.3 1635.45 471.872 1600.94 492.778 1580.89 z" fill="rgb(250,245,235)" transform="translate(0,0)"></path>
<path d="M 779.624 1554.37 L 781.872 1554.74 L 782.008 1556.35 C 770.357 1579.81 740.467 1595.97 714.763 1597.44 C 711.415 1596.56 712.613 1597.48 710.766 1595.01 C 713.459 1567.74 757.339 1556.32 779.624 1554.37 z" fill="rgb(250,245,235)" transform="translate(0,0)"></path>
<path d="M 630.565 1557.92 L 631.793 1558.05 L 632.77 1559.41 C 629.265 1586.44 615.462 1610.86 589.319 1621.6 C 584.835 1617.14 586.87 1606.04 588.597 1600.41 C 595.107 1579.16 611.988 1567.92 630.565 1557.92 z" fill="rgb(250,245,235)" transform="translate(0,0)"></path>
<path d="M 577.73 1785.42 C 591.785 1784.63 600.763 1788.99 613.347 1794.19 C 600.676 1804.92 588.426 1808.06 572.452 1810.72 C 564.417 1811.45 541.021 1811.2 539.247 1800.83 C 543.611 1789.12 566.802 1786.35 577.73 1785.42 z" fill="rgb(250,245,235)" transform="translate(0,0)"></path>
<path d="M 1713.7 1743.69 C 1683.11 1715.92 1645.22 1693.98 1624.7 1656.55 C 1618.31 1644.9 1586.42 1583.66 1608.55 1573.03 C 1620.28 1567.4 1644.05 1592.14 1652.19 1599.39 C 1683.72 1627.43 1702.08 1663.01 1709.03 1704.38 C 1711.05 1715.23 1714.63 1734.89 1718.61 1744.58 C 1748.27 1762.32 1776.9 1780.14 1804.87 1800.47 C 1810.05 1804.24 1816.31 1808.24 1821.92 1811.35 C 1813.67 1797.35 1803.24 1785.49 1793.13 1773.13 C 1762.98 1736.27 1746.23 1693.61 1745.15 1645.81 C 1744.9 1634.65 1740.45 1595.85 1748.89 1589.45 C 1752.65 1588.92 1756.47 1591.18 1759.18 1593.65 C 1822.14 1651.01 1844.59 1727.98 1822.42 1809.24 C 1835.98 1820.99 1853.73 1831.54 1868.81 1841.59 C 1889.14 1855.14 1911.76 1870.51 1930.81 1885.74 C 1888.83 1834.5 1876.28 1780.71 1882.93 1715.24 C 1883.7 1707.68 1884.56 1696.78 1889.75 1691.06 C 1902.52 1684.7 1910.17 1698.5 1916.76 1707.21 C 1963.38 1768.76 1962.93 1830.6 1951.9 1902.45 C 1992.55 1939.83 2018.64 1965.59 2048 2012.18 L 2048 2024.31 C 2040.88 2013.92 2034.19 2001.07 2027.01 1990.78 C 2014.51 1972.89 1989.8 1943.03 1971.39 1931.08 C 1967.4 1928.48 1938.4 1917.45 1931.98 1914.84 C 1889.46 1922.98 1856.49 1935.22 1811.63 1933.7 C 1783.68 1933.47 1756.43 1925.74 1730.97 1914.58 C 1722.64 1910.92 1709.87 1907.56 1710.58 1896.47 C 1712.51 1892.52 1715.56 1889.92 1719.63 1888.21 C 1773.69 1865.41 1834.84 1856.44 1888.79 1884.83 C 1914.77 1898.5 1934.63 1911.98 1962.01 1920.83 C 1928.45 1885.65 1876.11 1853.32 1834.97 1826.83 C 1827.97 1827.78 1811.5 1827.55 1806.52 1829.14 C 1757.21 1844.84 1711.04 1854.46 1659.41 1842.74 C 1647.06 1839.94 1573.32 1821.64 1577.8 1803.71 C 1584.93 1793.89 1621.12 1782.64 1633.36 1780.79 C 1689.66 1772.28 1752.51 1791.93 1798.25 1824.18 C 1809.6 1823.28 1818.19 1823 1829.55 1822.92 C 1816.65 1816 1795.16 1799.3 1781.52 1790.54 C 1761.28 1777.54 1737.96 1760.63 1716.06 1750.84 C 1700.58 1743.92 1677.86 1737.53 1661.28 1732.32 C 1634.1 1746.02 1598.43 1759.85 1567.35 1756.43 C 1555 1755.15 1542.82 1752.53 1531.04 1748.62 C 1516.61 1743.88 1448.04 1714.53 1450.61 1697.6 C 1458.06 1689.68 1491.01 1684.85 1501.72 1683.67 C 1550.35 1678.35 1588.17 1688.35 1630.17 1712.46 C 1636.9 1716.32 1650.53 1723.51 1656.19 1728.11 L 1656.6 1729.06 C 1657.66 1728.54 1658.97 1727.9 1660.54 1727.13 C 1669.35 1727.78 1682.37 1732.68 1690.45 1735.45 C 1698.24 1738.08 1705.99 1740.83 1713.7 1743.69 z" fill="rgb(0,0,0)" transform="translate(0,0)"></path>
<path d="M 1644.35 1734.66 C 1601.85 1753.24 1565.28 1756.98 1521.89 1739.66 C 1509.05 1734.53 1464.18 1711.85 1455.35 1701.56 L 1455.46 1700.03 C 1463.42 1695.57 1474.79 1693.73 1483.66 1692.1 C 1513.15 1686.68 1545.11 1685.72 1574.22 1693.74 C 1598.29 1700.38 1620.17 1713.21 1642.19 1724.64 C 1647.14 1727.21 1650.44 1728.8 1656.19 1728.11 L 1656.6 1729.06 C 1650.05 1732.73 1621.35 1726.46 1612.06 1724.91 C 1586.51 1720.8 1561.01 1716.36 1535.57 1711.6 L 1535.04 1713.84 C 1571.38 1721.26 1607.82 1728.2 1644.35 1734.66 z" fill="rgb(232,220,200)" transform="translate(0,0)"></path>
<path d="M 1508.27 1708.07 C 1517.31 1708.67 1526.59 1710.25 1535.57 1711.6 L 1535.04 1713.84 C 1526.08 1712.08 1517.16 1710.16 1508.27 1708.07 z" fill="rgb(62,60,52)" transform="translate(0,0)"></path>
<path d="M 1750.89 1595.72 C 1762 1601.2 1783.59 1627.43 1790.73 1638.25 C 1823.74 1688.23 1832.03 1738.04 1820.42 1796.17 C 1805.07 1760.95 1793.66 1710.31 1782.05 1671.53 C 1780.62 1666.83 1779.7 1662.72 1777.13 1658.56 C 1775.11 1663.95 1808.34 1776.23 1812.7 1789.08 C 1796.15 1767.97 1776.76 1742.63 1766.16 1717.97 C 1761.36 1706.65 1757.66 1694.9 1755.1 1682.87 C 1751.82 1667.56 1745.58 1609.11 1750.89 1595.72 z" fill="rgb(232,220,200)" transform="translate(0,0)"></path>
<path d="M 1893.06 1694.48 C 1906.07 1696.08 1917.68 1716.75 1924.19 1727.44 C 1952.4 1773.76 1960.44 1839.79 1947.62 1892.21 C 1944.99 1883.61 1942.07 1875.13 1939.27 1866.59 C 1925.98 1826.15 1919.63 1783.45 1909.33 1742.38 L 1908.86 1741.77 L 1908.28 1742.37 C 1914.93 1794.36 1926.81 1845.54 1943.74 1895.15 C 1921.26 1866.57 1897.31 1828.61 1891.08 1792.41 C 1886.79 1767.48 1883.36 1718.74 1893.06 1694.48 z" fill="rgb(232,220,200)" transform="translate(0,0)"></path>
<path d="M 1652.55 1784.4 C 1693.64 1780.87 1755.45 1799.93 1789.31 1824.48 C 1760.92 1817.49 1714.98 1815.04 1685.2 1811.39 C 1674.86 1810.13 1646 1807.38 1637.17 1807.91 L 1640.32 1808.43 L 1638.79 1807.9 C 1640.77 1809.42 1700.59 1816.52 1708.24 1817.55 C 1726.67 1819.26 1770.12 1824.77 1787.15 1828.82 C 1775.37 1832.22 1762.25 1835.9 1750.4 1838.51 C 1703.38 1848.85 1622.89 1835.29 1582.77 1807.91 C 1583.34 1795.4 1641.57 1785.11 1652.55 1784.4 z" fill="rgb(232,220,200)" transform="translate(0,0)"></path>
<path d="M 1912.23 1912.93 C 1852.5 1928.43 1797.18 1938.01 1738.62 1911.82 C 1732.89 1909.25 1716.02 1904.37 1715.7 1898.03 C 1720.86 1890.84 1742.96 1886.03 1751.52 1883.09 C 1805.01 1864.73 1856.27 1870.91 1905.06 1899.2 C 1905.33 1899.36 1927.47 1912.67 1926.07 1911.37 L 1923.29 1911.78 C 1909.87 1904.16 1846.01 1900.83 1827.33 1899.88 L 1802.05 1900.54 L 1803.68 1901.77 C 1829.47 1902.22 1887.86 1906.07 1912.23 1912.93 z" fill="rgb(232,220,200)" transform="translate(0,0)"></path>
<path d="M 1803.68 1901.77 C 1798.49 1902.2 1775.17 1901.25 1770.51 1899.79 C 1774.76 1898.35 1821.07 1898.89 1827.33 1899.88 L 1802.05 1900.54 L 1803.68 1901.77 z" fill="rgb(62,60,52)" transform="translate(0,0)"></path>
<path d="M 1611.47 1577.59 C 1627.56 1579.49 1667.69 1622.49 1677.01 1635.87 C 1696.31 1663.58 1702.7 1697.09 1708.92 1729.57 C 1702.45 1719.29 1641.09 1626.2 1637.21 1625.44 L 1637.87 1627.79 C 1657.83 1659.09 1685.26 1704.43 1708.34 1732.11 C 1665.37 1694.35 1623.19 1667.71 1609.89 1606.51 C 1607.46 1595.3 1601.3 1586.68 1611.47 1577.59 z" fill="rgb(232,220,200)" transform="translate(0,0)"></path>
<metadata><recraft-signature>{"signed_by": "recraft", "signature_b64": "wD3/VLFThouzsCixpJGTrg/7ag2/aW5C00zmNGsQbAGNaFoVpu+RRQWUo1utemxY5aPjvkz5wTTxE175z75KDA==", "signing_algo": "Ed25519", "generation_timestamp": 1778092941, "identifier": "26852c32-3784-4af9-9e4a-fc5c6f893dc0"}</recraft-signature></metadata></svg>