<svg xmlns="http://www.w3.org/2000/svg" height="1024" preserveAspectRatio="none" style="display: block;" version="1.1" viewBox="0 0 2048 2048" width="1024">
<defs>
	<linearGradient gradientUnits="userSpaceOnUse" id="Gradient1" x1="1211.51" x2="1208.11" y1="1031.4" y2="1047.09">
		<stop class="stop0" offset="0" stop-color="rgb(76,0,1)" stop-opacity="1"></stop>
		<stop class="stop1" offset="1" stop-color="rgb(100,42,23)" stop-opacity="1"></stop>
	</linearGradient>
	<linearGradient gradientUnits="userSpaceOnUse" id="Gradient2" x1="1539.72" x2="1520.09" y1="1238.21" y2="1251.46">
		<stop class="stop0" offset="0" stop-color="rgb(76,9,7)" stop-opacity="1"></stop>
		<stop class="stop1" offset="1" stop-color="rgb(57,26,13)" stop-opacity="1"></stop>
	</linearGradient>
	<linearGradient gradientUnits="userSpaceOnUse" id="Gradient3" x1="1090.48" x2="741.202" y1="1636.51" y2="926.282">
		<stop class="stop0" offset="0" stop-color="rgb(220,164,46)" stop-opacity="1"></stop>
		<stop class="stop1" offset="1" stop-color="rgb(255,214,115)" stop-opacity="1"></stop>
	</linearGradient>
	<linearGradient gradientUnits="userSpaceOnUse" id="Gradient4" x1="1773.88" x2="1752.71" y1="1118.98" y2="1124.77">
		<stop class="stop0" offset="0" stop-color="rgb(74,0,4)" stop-opacity="1"></stop>
		<stop class="stop1" offset="1" stop-color="rgb(115,3,5)" stop-opacity="1"></stop>
	</linearGradient>
	<linearGradient gradientUnits="userSpaceOnUse" id="Gradient5" x1="1865.63" x2="1852.15" y1="1172.68" y2="1177.87">
		<stop class="stop0" offset="0" stop-color="rgb(76,0,2)" stop-opacity="1"></stop>
		<stop class="stop1" offset="1" stop-color="rgb(126,8,16)" stop-opacity="1"></stop>
	</linearGradient>
</defs>
<path d="M 0 0 L 2048 0 L 2048 2048 L 0 2048 L 0 0 z" fill="rgb(252,246,232)" transform="translate(0,0)"></path>
<path d="M 1016.74 933.25 C 979.435 909.001 943.317 882.977 908.507 855.268 C 892.241 842.493 864.761 820.693 851.427 805.085 C 844.913 797.39 839.779 788.626 836.252 779.181 C 830.289 762.993 832.486 749.466 848.78 741.233 C 1040.71 644.244 1262.23 672.076 1449.07 761.153 C 1458.03 752.988 1480.06 747.053 1492.22 745.511 C 1525.48 742.143 1592.78 778.208 1619 800.898 C 1638.93 818.142 1662.94 838.053 1666.19 866.516 C 1667.44 877.462 1665.45 885.678 1663.18 896.156 C 1685.62 914.262 1709.27 931.42 1731.35 949.665 C 1752.86 967.441 1773.16 988.986 1793 1008.35 C 1867.76 1081.36 1925.31 1169.3 1937.18 1275.15 C 1939.2 1293.18 1939.18 1303.61 1937.42 1321.65 C 1942.41 1329.04 1947.9 1337.74 1945.71 1346.85 C 1936.12 1386.63 1873.16 1372.06 1847.67 1365.53 C 1784.16 1349.28 1715.78 1330.36 1657.68 1300.93 C 1654.98 1317.86 1649.89 1327.99 1645.35 1343.79 C 1643.57 1349.96 1643.03 1365.38 1641.38 1372.61 C 1633.73 1405.97 1630.9 1428.69 1610.23 1456.22 C 1609.58 1489.73 1604.02 1520.41 1598.25 1553.38 C 1590.62 1595.76 1582.36 1638.02 1573.46 1680.16 C 1595.46 1681.29 1618.6 1679.29 1640.31 1681.76 L 1640.06 1682.46 C 1627.96 1684.82 1587.68 1685.14 1572.64 1685.65 C 1571 1691.64 1568.82 1700.63 1566.83 1706.26 C 1597.29 1705.99 1627.76 1706.06 1658.22 1706.46 C 1675.22 1706.78 1693.84 1706.67 1710.48 1709.41 C 1663.72 1712.84 1612.78 1710.49 1564.26 1713.03 C 1559.48 1727.33 1555.45 1734.29 1547.96 1747.24 C 1593.7 1749.24 1640.6 1745.85 1686.54 1748.25 C 1698.98 1748.9 1711.99 1748.67 1724.39 1749.95 C 1729.59 1750.37 1737.29 1750.6 1741.97 1752.27 C 1732.52 1753.34 1710.11 1754.19 1700.61 1753.19 C 1681 1753.99 1658.98 1753.42 1639.18 1753.46 L 1543.56 1754.08 C 1534.81 1764.43 1526.36 1774.68 1516.89 1784.38 C 1564.42 1785.15 1613.11 1783.53 1660.78 1785.3 C 1679.31 1785.98 1711.96 1785.72 1729.15 1788.92 C 1710.87 1791.38 1684.02 1790.75 1665 1790.84 L 1569.54 1791.24 C 1550.09 1791.31 1527.93 1790.84 1508.78 1792.14 C 1494.12 1803.35 1478.88 1815.37 1463.83 1825.94 C 1480.11 1823.86 1531.08 1824.46 1548.8 1824.83 C 1583.66 1825.56 1632.43 1823.8 1666.68 1826.95 C 1646.26 1830.21 1625.52 1830.1 1604.84 1830.52 L 1503.21 1831.57 C 1496.32 1831.7 1456.12 1832.07 1453.1 1834.14 C 1443.92 1840.42 1398.84 1862.47 1393.83 1867.34 C 1390.34 1869.04 1387.02 1870.2 1384.66 1873.25 C 1379.28 1874.08 1294.97 1905.58 1294.81 1905.74 L 1295.26 1906.3 C 1319.12 1905.18 1494.66 1903.95 1506.63 1909.5 L 1505.31 1909.24 C 1505.09 1909.42 1504.9 1909.64 1504.65 1909.79 C 1502.85 1910.89 1303.26 1913.96 1287.23 1912.94 C 1261.44 1913.33 1235.1 1925.18 1209.56 1930.93 C 995.998 1978.99 761.963 1969.23 554.275 1899.3 C 443.751 1862.09 322.397 1796.33 306.152 1667.27 C 287.767 1657.27 264.912 1649.29 246.889 1639.23 C 205.163 1615.93 141.726 1572.08 119.755 1530.04 C 97.6857 1487.8 130.318 1452.11 162.361 1428.88 C 177.841 1417.65 198.687 1404.03 211.344 1390 C 219.437 1381.03 223.455 1367.91 227.301 1356.49 C 215.506 1327.25 207.438 1295.36 210.503 1263.77 C 221.848 1146.85 329.94 1073.48 427.295 1028.25 C 580.92 956.887 751.872 933.109 919.893 931.094 C 952.317 930.705 984.543 930.505 1016.74 933.25 z" fill="rgb(93,11,12)" transform="translate(0,0)"></path>
<path d="M 935.709 716.205 C 944.516 717.41 970.212 710.745 981.38 709.469 C 1006.16 706.715 1031.06 705.22 1055.98 704.99 C 1164.34 703.721 1249.53 721.541 1351.42 759.463 C 1373.09 767.53 1392.99 779.797 1412.02 787.1 L 1411.98 787.745 L 1408.17 791.499 L 1406.26 791.405 L 1402.98 796.48 C 1414.36 804.862 1426.01 814.548 1439.54 818.744 C 1445.43 816.198 1448.38 814.612 1453.86 811.448 C 1463.06 803.584 1465.49 801.405 1476.67 796.657 C 1519.47 810.934 1587.16 852.343 1624.32 879.828 C 1622.8 886.281 1618.14 902.056 1621.62 908.013 C 1624.69 913.282 1647.02 924.615 1652.95 919.255 C 1655.75 916.735 1658.83 907.197 1660.34 902.971 C 1683.91 925.649 1713.88 944.684 1738.38 966.842 C 1831.59 1051.14 1922.02 1155.81 1929.11 1287.47 C 1929.49 1294.5 1928.51 1303.12 1929.87 1309.87 C 1927.43 1307.95 1893.58 1292.52 1889.34 1290.55 L 1802.57 1249.27 C 1726.67 1212.81 1651.47 1174.89 1577.02 1135.55 C 1565.64 1129.44 1506.89 1094.68 1499.04 1094.46 C 1496.12 1093.69 1473.94 1081.58 1470.74 1079.34 C 1448.8 1069.08 1420.11 1052.48 1398.03 1040.93 C 1324.68 1003.24 1252.77 962.821 1182.44 919.754 C 1107.37 873.124 1035.48 823.02 959.878 776.476 C 956.29 775.439 947.514 768.843 943.277 766.599 C 924.912 756.874 899.789 740.196 879.526 736.646 L 880.914 735.62 C 901.17 725.871 914.861 723.103 935.709 716.205 z" fill="rgb(233,104,93)" transform="translate(0,0)"></path>
<path d="M 935.709 716.205 C 944.516 717.41 970.212 710.745 981.38 709.469 C 1006.16 706.715 1031.06 705.22 1055.98 704.99 C 1164.34 703.721 1249.53 721.541 1351.42 759.463 C 1373.09 767.53 1392.99 779.797 1412.02 787.1 L 1411.98 787.745 L 1408.17 791.499 L 1406.26 791.405 C 1397.02 782.966 1356.23 767.819 1343.32 762.894 C 1229.49 719.475 1114.71 701.871 993.266 712.656 C 961.438 716.145 929.643 721.064 899.194 731.267 C 894.292 732.91 885.87 735.995 880.914 735.62 C 901.17 725.871 914.861 723.103 935.709 716.205 z" fill="rgb(252,246,232)" transform="translate(0,0)"></path>
<path d="M 959.878 776.476 C 970.218 776.498 1039.64 823.033 1051.61 831.133 C 1118.95 877.174 1188 920.662 1258.62 961.506 C 1297.68 983.716 1337.04 1005.41 1376.67 1026.6 C 1387.12 1032.15 1467.17 1073.34 1470.74 1079.34 C 1448.8 1069.08 1420.11 1052.48 1398.03 1040.93 C 1324.68 1003.24 1252.77 962.821 1182.44 919.754 C 1107.37 873.124 1035.48 823.02 959.878 776.476 z" fill="rgb(247,232,234)" transform="translate(0,0)"></path>
<path d="M 1402.98 796.48 C 1414.36 804.862 1426.01 814.548 1439.54 818.744 C 1445.43 816.198 1448.38 814.612 1453.86 811.448 L 1453.47 813.443 C 1449.15 818.592 1445.18 819.852 1438.89 822.241 C 1429.75 819 1413.21 811.335 1406.08 804.718 C 1402.84 801.702 1403.1 800.255 1402.98 796.48 z" fill="rgb(247,232,234)" transform="translate(0,0)"></path>
<path d="M 1566.87 883.128 C 1634.19 916.236 1709.28 977.853 1761.74 1031.51 C 1776.09 1046.2 1792.23 1069.14 1805.93 1083.15 L 1807.16 1084.38 C 1813.59 1086.04 1824.23 1103.43 1828.02 1109.12 C 1849.1 1137.99 1890.14 1209.71 1888.5 1243.68 L 1887.66 1245.19 C 1882.05 1239.78 1877.89 1215.67 1873.59 1206.76 L 1873.55 1209.09 C 1871.31 1206.15 1860.1 1178.11 1856.68 1171.35 C 1842.25 1142.69 1825.17 1115.44 1805.66 1089.96 C 1755.97 1024.42 1696.05 973.454 1629.96 924.957 C 1613.86 913.141 1581.09 895.766 1567.9 884.054 L 1566.87 883.128 z" fill="rgb(247,232,234)" transform="translate(0,0)"></path>
<path d="M 1828.02 1109.12 C 1849.1 1137.99 1890.14 1209.71 1888.5 1243.68 L 1887.66 1245.19 C 1882.05 1239.78 1877.89 1215.67 1873.59 1206.76 C 1865.15 1173.11 1844.21 1140.05 1825.93 1111.01 L 1828.02 1109.12 z" fill="url(#Gradient5)" transform="translate(0,0)"></path>
<path d="M 1807.16 1084.38 C 1813.59 1086.04 1824.23 1103.43 1828.02 1109.12 L 1825.93 1111.01 C 1820.15 1103.6 1812.72 1092.31 1807.16 1084.38 z" fill="rgb(171,51,46)" transform="translate(0,0)"></path>
<path d="M 1815.41 1146.86 C 1807.93 1134.33 1757.48 1057.21 1756.85 1053.12 C 1756.61 1051.59 1757.21 1051.32 1758.02 1050.16 L 1760.32 1050.27 C 1765.73 1052.44 1773.5 1062.71 1777.31 1067.28 C 1801.1 1095.8 1818.08 1128.27 1832.92 1162.14 C 1837.34 1172.23 1853.31 1216.36 1851.35 1225.07 L 1850.2 1225.16 C 1841.41 1214.81 1837.28 1184.28 1829.35 1170.87 L 1828.65 1171.23 C 1825.76 1168.88 1817.3 1151.3 1815.41 1146.86 z" fill="rgb(93,11,12)" transform="translate(0,0)"></path>
<path d="M 1815.41 1146.86 C 1807.93 1134.33 1757.48 1057.21 1756.85 1053.12 C 1756.61 1051.59 1757.21 1051.32 1758.02 1050.16 L 1760.32 1050.27 C 1766.08 1060.45 1773.64 1069.14 1780.07 1078.42 C 1789.73 1092.4 1808.94 1123.09 1814.6 1138.86 C 1814.84 1140.87 1815.47 1145.03 1815.41 1146.86 z" fill="rgb(252,246,232)" transform="translate(0,0)"></path>
<path d="M 1814.6 1138.86 C 1820.34 1148.77 1825.16 1160.23 1829.35 1170.87 L 1828.65 1171.23 C 1825.76 1168.88 1817.3 1151.3 1815.41 1146.86 C 1815.47 1145.03 1814.84 1140.87 1814.6 1138.86 z" fill="rgb(247,232,234)" transform="translate(0,0)"></path>
<path d="M 1776.47 1150.99 L 1775.54 1150.62 C 1772.09 1144.73 1768.04 1128.67 1763.39 1119.58 C 1758.53 1110.08 1753.49 1098.92 1748.48 1089.39 C 1744.2 1081.25 1726.29 1053.27 1725.84 1046.38 L 1726.96 1045.33 L 1729.7 1046.3 C 1755.12 1057.26 1797.77 1170.65 1792.77 1198.7 L 1790.81 1199.98 L 1788.9 1199.28 C 1783.54 1184.89 1784.37 1167.22 1776.47 1150.99 z" fill="url(#Gradient4)" transform="translate(0,0)"></path>
<path d="M 1776.47 1150.99 L 1775.54 1150.62 C 1772.09 1144.73 1768.04 1128.67 1763.39 1119.58 C 1758.53 1110.08 1753.49 1098.92 1748.48 1089.39 C 1744.2 1081.25 1726.29 1053.27 1725.84 1046.38 L 1726.96 1045.33 L 1729.7 1046.3 C 1748.48 1076.05 1761.81 1099.14 1772.13 1133.36 C 1773.39 1137.51 1776.51 1146.92 1776.47 1150.99 z" fill="rgb(252,246,232)" transform="translate(0,0)"></path>
<path d="M 935.709 716.205 C 957.969 707.103 993.24 700.496 1016.85 696.79 C 1145.78 677.747 1277.47 694.759 1397.33 745.943 C 1408.98 750.829 1430.06 760.753 1440.99 766.916 C 1430.79 771.472 1421.04 781.726 1412.02 787.1 C 1392.99 779.797 1373.09 767.53 1351.42 759.463 C 1249.53 721.541 1164.34 703.721 1055.98 704.99 C 1031.06 705.22 1006.16 706.715 981.38 709.469 C 970.212 710.745 944.516 717.41 935.709 716.205 z" fill="rgb(233,104,93)" transform="translate(0,0)"></path>
<path d="M 1449.07 761.153 C 1458.03 752.988 1480.06 747.053 1492.22 745.511 L 1496.07 746.556 C 1495.86 750.047 1493.52 750.758 1490.78 754.842 C 1511.67 754.726 1532.15 762.139 1551.06 770.674 C 1584.22 785.057 1612.18 803.719 1637.2 829.805 C 1637.61 830.282 1639.9 832.862 1640.08 833.201 C 1646.09 840.293 1650 849.425 1653.74 857.875 L 1655.31 863.858 C 1659.65 879.171 1652.73 902.914 1649.01 918.409 C 1640.29 913.76 1634.13 910.32 1626.69 903.841 C 1633.51 885.991 1638.22 873.491 1629.45 854.608 C 1616.12 825.881 1573.54 800.638 1545.47 789.904 C 1518.89 779.741 1486.77 780.61 1462.54 796.21 C 1456.07 800.38 1447.75 808.49 1441.49 811.395 C 1433.4 811.194 1423.07 802.208 1416.82 796.98 L 1423.16 789.576 L 1421.58 788.754 C 1418.89 791.065 1418.45 791.801 1416.44 794.578 L 1414.64 794.69 C 1411.83 791.842 1412.71 792.596 1411.98 787.745 L 1412.02 787.1 C 1421.04 781.726 1430.79 771.472 1440.99 766.916 C 1445.03 765.979 1446.59 764.165 1449.07 761.153 z" fill="rgb(233,104,93)" transform="translate(0,0)"></path>
<path d="M 1449.07 761.153 C 1458.03 752.988 1480.06 747.053 1492.22 745.511 L 1496.07 746.556 C 1495.86 750.047 1493.52 750.758 1490.78 754.842 C 1479.56 756.769 1475.35 757.62 1465.06 762.638 C 1447.64 771.642 1438.58 777.922 1423.16 789.576 L 1421.58 788.754 C 1418.89 791.065 1418.45 791.801 1416.44 794.578 L 1414.64 794.69 C 1411.83 791.842 1412.71 792.596 1411.98 787.745 L 1412.02 787.1 C 1421.04 781.726 1430.79 771.472 1440.99 766.916 C 1445.03 765.979 1446.59 764.165 1449.07 761.153 z" fill="rgb(79,9,8)" transform="translate(0,0)"></path>
<path d="M 1551.06 770.674 C 1584.22 785.057 1612.18 803.719 1637.2 829.805 L 1635.37 834.098 C 1632.55 835.852 1634.1 835.501 1630.5 834.75 C 1626.81 831.625 1626.39 830.474 1623.8 826.232 L 1624.65 825.623 L 1631.04 828.634 L 1631.06 826.963 C 1620.65 810.174 1567.24 780.496 1548.86 772.155 L 1551.06 770.674 z" fill="rgb(247,195,187)" transform="translate(0,0)"></path>
<path d="M 1490.78 754.842 C 1511.67 754.726 1532.15 762.139 1551.06 770.674 L 1548.86 772.155 C 1519.09 757.016 1497.45 759.581 1466.85 762.479 L 1465.06 762.638 C 1475.35 757.62 1479.56 756.769 1490.78 754.842 z" fill="rgb(252,246,232)" transform="translate(0,0)"></path>
<path d="M 1640.08 833.201 C 1646.09 840.293 1650 849.425 1653.74 857.875 L 1655.31 863.858 C 1651.9 860.141 1640.1 838.525 1640.08 833.201 z" fill="rgb(247,195,187)" transform="translate(0,0)"></path>
<path d="M 1499.04 1094.46 C 1506.89 1094.68 1565.64 1129.44 1577.02 1135.55 C 1651.47 1174.89 1726.67 1212.81 1802.57 1249.27 L 1889.34 1290.55 C 1893.58 1292.52 1927.43 1307.95 1929.87 1309.87 C 1929.03 1311.22 1929.6 1310.65 1928.06 1311.47 C 1913.32 1304.97 1898.41 1297.13 1883.7 1290.33 C 1826.01 1264.2 1768.94 1236.71 1712.56 1207.88 C 1664.61 1183.85 1616 1159.81 1568.57 1134.81 C 1546.05 1122.94 1521.15 1107.63 1499.04 1094.46 z" fill="rgb(247,232,234)" transform="translate(0,0)"></path>
<path d="M 1640.08 833.201 C 1651.32 836.405 1660.77 846.135 1653.74 857.875 C 1650 849.425 1646.09 840.293 1640.08 833.201 z" fill="rgb(120,29,21)" transform="translate(0,0)"></path>
<path d="M 1724.39 1749.95 C 1729.59 1750.37 1737.29 1750.6 1741.97 1752.27 C 1732.52 1753.34 1710.11 1754.19 1700.61 1753.19 C 1709.73 1751.79 1716.83 1754.81 1724.39 1749.95 z" fill="rgb(120,29,21)" transform="translate(0,0)"></path>
<path d="M 953.484 1037.93 C 977.517 1038.53 1001.59 1042.66 1025.29 1045.75 C 1082.34 1052.96 1133.95 1067.48 1186.66 1090.09 C 1263.99 1123.25 1335.39 1163.5 1393.27 1225.84 C 1441.75 1278.07 1491.34 1367.91 1483.54 1440.98 L 1482.66 1441.28 C 1480.93 1445.26 1480.79 1445.38 1477.67 1448.49 C 1474.87 1447.18 1476.94 1434.22 1474.46 1430.28 C 1474.3 1437.68 1474.01 1445.44 1474.13 1452.81 C 1415.03 1489.47 1350.87 1512.68 1284.22 1531.64 C 1275.35 1534.16 1246.76 1541.78 1238.14 1542.38 L 1232.29 1543.37 C 1231.3 1543.86 1230.26 1543.92 1229.09 1544.13 C 1225.43 1541.62 1217.66 1523.16 1214.83 1517.63 C 1158.8 1420.31 1063.65 1371.31 990.582 1290.93 C 971.866 1270.34 950.17 1231.22 946.298 1203.66 C 945.131 1195.36 947.01 1183.48 947.833 1174.76 C 939.515 1188.59 939.03 1205.16 943.372 1220.47 C 963.289 1290.67 1024.6 1335.73 1077.85 1380.17 C 1133.42 1426.54 1191.28 1479.47 1222.02 1546.35 C 1099.9 1573.13 967.997 1578.21 843.523 1571.23 C 815.32 1569.65 764.3 1566.55 736.658 1561.61 C 731.344 1562.01 696.706 1555.9 689.199 1554.69 C 580.413 1537.17 472.614 1504.73 378.119 1447.23 C 375.996 1433.16 376.458 1417.73 377.106 1403.54 C 376.504 1391.65 381.127 1366.57 384.652 1354.92 C 409.992 1274.5 474.27 1204.58 540.945 1154.91 C 570.653 1132.78 606.07 1114.63 639.855 1099.94 C 646.275 1097.15 655.143 1093.95 660.931 1090.62 L 662.348 1089.79 C 665.245 1086.66 666.745 1087.6 670.713 1087.77 C 673.667 1085.99 694.933 1078.77 699.322 1077.38 C 779.986 1051.77 856.882 1043.92 940.637 1045.23 C 906.494 1057.92 867.444 1074.18 839.557 1097.84 C 862.435 1086.18 933.764 1049.42 957.79 1046.81 L 956.321 1045.51 C 961.58 1041.1 959.191 1042.01 965.338 1041.32 C 959.972 1041.64 956.516 1042.68 953.484 1037.93 z" fill="rgb(252,223,156)" transform="translate(0,0)"></path>
<path d="M 953.484 1037.93 C 977.517 1038.53 1001.59 1042.66 1025.29 1045.75 C 1082.34 1052.96 1133.95 1067.48 1186.66 1090.09 C 1263.99 1123.25 1335.39 1163.5 1393.27 1225.84 C 1441.75 1278.07 1491.34 1367.91 1483.54 1440.98 L 1482.66 1441.28 C 1480.93 1445.26 1480.79 1445.38 1477.67 1448.49 C 1474.87 1447.18 1476.94 1434.22 1474.46 1430.28 C 1474.3 1437.68 1474.01 1445.44 1474.13 1452.81 C 1415.03 1489.47 1350.87 1512.68 1284.22 1531.64 C 1275.35 1534.16 1246.76 1541.78 1238.14 1542.38 L 1232.29 1543.37 C 1231.3 1543.86 1230.26 1543.92 1229.09 1544.13 C 1225.43 1541.62 1217.66 1523.16 1214.83 1517.63 C 1158.8 1420.31 1063.65 1371.31 990.582 1290.93 C 971.866 1270.34 950.17 1231.22 946.298 1203.66 C 945.131 1195.36 947.01 1183.48 947.833 1174.76 L 947.834 1173.73 C 948.079 1171.57 948.408 1170.04 950.185 1168.81 C 960.339 1161.8 976.108 1155.8 987.523 1151.08 C 1046.45 1127.14 1109.38 1114.6 1172.98 1114.14 C 1189.44 1114.16 1206.95 1115.77 1223.41 1117.17 C 1194.73 1101.59 1149.84 1083.81 1118.45 1074.49 C 1107.03 1077.54 1094.29 1079.59 1082.92 1082.8 C 1056.02 1090.4 1026.03 1099.09 1000.25 1110.02 C 974.245 1121.06 948.455 1136.12 922.474 1147.79 C 932.882 1137.53 947.361 1129.58 960.269 1122.62 C 1005.68 1097.86 1054.73 1080.48 1105.6 1071.13 C 1076.95 1060.16 990.213 1048.78 957.79 1046.81 L 956.321 1045.51 C 961.58 1041.1 959.191 1042.01 965.338 1041.32 C 959.972 1041.64 956.516 1042.68 953.484 1037.93 z" fill="rgb(252,223,156)" transform="translate(0,0)"></path>
<path d="M 947.834 1173.73 C 963.984 1180.39 979.979 1189.92 994.916 1198.94 C 1100.81 1262.89 1214.21 1391.3 1232.48 1517.11 C 1224.38 1514.99 1222.58 1514.65 1214.83 1517.63 C 1158.8 1420.31 1063.65 1371.31 990.582 1290.93 C 971.866 1270.34 950.17 1231.22 946.298 1203.66 C 945.131 1195.36 947.01 1183.48 947.833 1174.76 L 947.834 1173.73 z" fill="rgb(252,223,156)" transform="translate(0,0)"></path>
<path d="M 953.484 1037.93 C 977.517 1038.53 1001.59 1042.66 1025.29 1045.75 C 1082.34 1052.96 1133.95 1067.48 1186.66 1090.09 C 1263.99 1123.25 1335.39 1163.5 1393.27 1225.84 C 1441.75 1278.07 1491.34 1367.91 1483.54 1440.98 L 1482.66 1441.28 C 1480.93 1445.26 1480.79 1445.38 1477.67 1448.49 C 1474.87 1447.18 1476.94 1434.22 1474.46 1430.28 C 1474.26 1425.57 1474.09 1421.94 1473.45 1417.22 C 1471.82 1374.23 1450.04 1323.35 1427.27 1286.71 C 1421.73 1277.78 1412.45 1266.51 1406.16 1257.2 C 1400.36 1257.24 1393.15 1256.67 1387.37 1256.07 C 1355.97 1252.81 1326.95 1254.09 1295.59 1256.82 C 1324.66 1282.72 1356.28 1318.92 1372.77 1354.19 C 1371.22 1353.96 1358.53 1334.56 1356.55 1331.97 C 1335.99 1305.21 1312.74 1279.41 1285.89 1258.95 C 1248.54 1263.33 1216.76 1271.17 1180.5 1281.05 C 1178.82 1281.51 1175.46 1282.56 1174.32 1281.85 C 1200.49 1269.65 1248.98 1257.83 1277.73 1252.86 C 1250.77 1232.37 1224.62 1215.29 1193.52 1201.96 C 1190.18 1200.52 1175.67 1194.26 1174.41 1192.53 C 1211.14 1199.17 1258.77 1229.94 1288.47 1251.09 C 1309.31 1248.31 1338.19 1247.54 1358.96 1248.74 C 1373.31 1249.57 1388.97 1252.17 1403.75 1253.18 C 1369.94 1213.35 1336.66 1182.69 1292.51 1154.43 C 1260.4 1133.88 1242.91 1125.47 1203.04 1122.77 C 1119.55 1117.1 1033.84 1135.33 958.507 1171.21 C 983.811 1184.97 1009.26 1199.1 1032.96 1215.57 C 1045.3 1224.15 1056.84 1234.76 1068.5 1244.22 C 1140.67 1305.75 1202.94 1384.67 1230.98 1476.34 C 1234.82 1488.87 1238.67 1506.38 1239.27 1519.47 C 1239.19 1526.34 1239.41 1535.88 1238.14 1542.38 L 1232.29 1543.37 C 1231.3 1543.86 1230.26 1543.92 1229.09 1544.13 C 1225.43 1541.62 1217.66 1523.16 1214.83 1517.63 C 1222.58 1514.65 1224.38 1514.99 1232.48 1517.11 C 1214.21 1391.3 1100.81 1262.89 994.916 1198.94 C 979.979 1189.92 963.984 1180.39 947.834 1173.73 C 948.079 1171.57 948.408 1170.04 950.185 1168.81 C 960.339 1161.8 976.108 1155.8 987.523 1151.08 C 1046.45 1127.14 1109.38 1114.6 1172.98 1114.14 C 1189.44 1114.16 1206.95 1115.77 1223.41 1117.17 C 1194.73 1101.59 1149.84 1083.81 1118.45 1074.49 C 1107.03 1077.54 1094.29 1079.59 1082.92 1082.8 C 1056.02 1090.4 1026.03 1099.09 1000.25 1110.02 C 974.245 1121.06 948.455 1136.12 922.474 1147.79 C 932.882 1137.53 947.361 1129.58 960.269 1122.62 C 1005.68 1097.86 1054.73 1080.48 1105.6 1071.13 C 1076.95 1060.16 990.213 1048.78 957.79 1046.81 L 956.321 1045.51 C 961.58 1041.1 959.191 1042.01 965.338 1041.32 C 959.972 1041.64 956.516 1042.68 953.484 1037.93 z" fill="rgb(79,9,8)" transform="translate(0,0)"></path>
<path d="M 1214.83 1517.63 C 1222.58 1514.65 1224.38 1514.99 1232.48 1517.11 C 1233.43 1526.14 1232.87 1534.33 1232.29 1543.37 C 1231.3 1543.86 1230.26 1543.92 1229.09 1544.13 C 1225.43 1541.62 1217.66 1523.16 1214.83 1517.63 z" fill="rgb(234,176,71)" transform="translate(0,0)"></path>
<path d="M 1473.45 1417.22 C 1474.09 1421.94 1474.26 1425.57 1474.46 1430.28 C 1474.3 1437.68 1474.01 1445.44 1474.13 1452.81 C 1415.03 1489.47 1350.87 1512.68 1284.22 1531.64 C 1275.35 1534.16 1246.76 1541.78 1238.14 1542.38 C 1239.41 1535.88 1239.19 1526.34 1239.27 1519.47 C 1239.9 1522.66 1239.93 1528.69 1240.05 1532.16 C 1248.8 1529.71 1257.36 1526.64 1265.67 1522.96 C 1273.42 1519.45 1306.04 1502.55 1311.66 1499.52 C 1333.12 1487.94 1465.2 1427.2 1473.45 1417.22 z" fill="rgb(234,176,71)" transform="translate(0,0)"></path>
<path d="M 1412.19 1408.37 C 1415.52 1407.17 1419.2 1408.87 1420.45 1412.19 C 1421.7 1415.51 1420.04 1419.21 1416.74 1420.5 C 1414.57 1421.35 1412.11 1420.96 1410.3 1419.49 C 1408.49 1418.01 1407.61 1415.68 1408 1413.38 C 1408.4 1411.08 1409.99 1409.17 1412.19 1408.37 z" fill="rgb(79,9,8)" transform="translate(0,0)"></path>
<path d="M 1257.39 1392.67 C 1260.31 1391.16 1263.89 1392.12 1265.66 1394.88 C 1267.44 1397.65 1266.81 1401.3 1264.23 1403.33 C 1262.33 1404.81 1259.75 1405.09 1257.57 1404.05 C 1255.39 1403.01 1253.99 1400.83 1253.95 1398.42 C 1253.92 1396 1255.25 1393.78 1257.39 1392.67 z" fill="rgb(93,11,12)" transform="translate(0,0)"></path>
<path d="M 1325.69 1450.55 C 1328.35 1447.83 1328.68 1447.08 1332.47 1446.53 C 1335.88 1447.81 1334.46 1446.78 1336.67 1450 C 1336.91 1452.26 1337.04 1452.99 1336.98 1455.25 C 1333.61 1456.96 1332.22 1457.84 1328.55 1457 C 1325.67 1453.94 1326.56 1455.19 1325.69 1450.55 z" fill="rgb(120,29,21)" transform="translate(0,0)"></path>
<path d="M 1325.69 1450.55 C 1328.35 1447.83 1328.68 1447.08 1332.47 1446.53 C 1335.88 1447.81 1334.46 1446.78 1336.67 1450 C 1336.91 1452.26 1337.04 1452.99 1336.98 1455.25 C 1332.21 1449.66 1332.6 1450.22 1325.69 1450.55 z" fill="rgb(93,11,12)" transform="translate(0,0)"></path>
<path d="M 377.106 1403.54 C 381.754 1407.23 386.702 1415.1 390.392 1420.09 C 395.104 1426.57 400.662 1432.39 406.918 1437.4 C 467.546 1486.45 575.153 1515.48 649.784 1535.02 C 672.567 1540.99 717.53 1545.43 736.498 1553.54 C 724.964 1553.74 700.828 1543.7 693.757 1546.9 L 693.171 1547.68 C 691.187 1550.28 690.953 1550.85 688.033 1552.49 C 695.629 1555.48 726.424 1558.26 736.342 1560.02 L 736.658 1561.61 C 731.344 1562.01 696.706 1555.9 689.199 1554.69 C 580.413 1537.17 472.614 1504.73 378.119 1447.23 C 375.996 1433.16 376.458 1417.73 377.106 1403.54 z" fill="rgb(234,176,71)" transform="translate(0,0)"></path>
<path d="M 662.348 1089.79 C 665.245 1086.66 666.745 1087.6 670.713 1087.77 C 686.035 1089.1 706.112 1089.02 720.971 1090.32 C 766.75 1094.32 877.687 1117.97 911.213 1147.57 L 909.64 1147.14 C 897.761 1143.83 884.454 1138.09 872.882 1133.41 C 823.944 1113.58 771.281 1103.69 719.283 1095.73 C 700.659 1092.87 680.826 1093 662.348 1089.79 z" fill="rgb(79,9,8)" transform="translate(0,0)"></path>
<path d="M 652.055 1136.5 C 714.738 1133.77 780.224 1139.6 840.651 1156.91 C 854.599 1160.9 871.094 1167.2 884.934 1172.2 C 874.671 1177.68 857.906 1183.44 846.504 1188.29 C 742.818 1233.41 659.494 1315.3 612.575 1418.18 C 606.658 1430.96 601.091 1444.47 596.566 1457.79 C 592.72 1469.12 589.969 1481.32 585.411 1492.35 L 584.85 1493.69 C 583.88 1474.69 590.642 1457.42 596.992 1439.69 C 602.761 1424.34 609.353 1409.32 616.74 1394.69 C 660.135 1308.2 730.213 1237.97 816.611 1194.38 C 832.36 1186.47 849.951 1178.21 866.658 1172.75 C 807.698 1148.71 721.414 1140.55 658.195 1141.24 C 633.064 1141.51 597.54 1145.18 573.994 1143.9 L 572.249 1143.8 C 583.413 1139.54 638.625 1137.04 652.055 1136.5 z" fill="rgb(79,9,8)" transform="translate(0,0)"></path>
<path d="M 893.381 1177.44 C 894.728 1178.87 895.602 1178.97 895.255 1180.92 C 887.356 1225.21 855.615 1263.81 827.714 1296.34 C 762.968 1371.82 678.039 1425.04 607.644 1493.69 L 606.784 1493.79 C 605.793 1487.85 644.339 1453.36 651.111 1447.58 C 729.562 1380.58 813.576 1315.91 870.48 1228.39 C 881.292 1211.76 884.334 1192.5 893.381 1177.44 z" fill="rgb(79,9,8)" transform="translate(0,0)"></path>
<path d="M 663.041 1171.97 C 662.274 1175.87 655.109 1182.77 652.238 1186.35 C 637.018 1205.3 626.018 1225.85 616.12 1247.94 C 639.226 1247.51 659.787 1248.28 681.177 1257.39 C 676.255 1257.27 670.42 1256.53 665.494 1255.82 C 647.491 1253.25 630.614 1253.56 612.487 1254.17 C 605.35 1271.96 602.207 1287.44 595.898 1303.64 C 596.195 1285.67 601.022 1271.17 606.316 1254.18 C 581.493 1253.84 551.702 1257.21 526.904 1259.84 C 504.415 1263.35 483.164 1266.59 461.038 1272.3 C 454.636 1273.95 434.057 1280.4 428.939 1279.68 C 488.915 1256.55 545.648 1250.83 609.349 1248.26 C 621.82 1220.63 639.282 1191.33 663.041 1171.97 z" fill="rgb(79,9,8)" transform="translate(0,0)"></path>
<path d="M 865.904 1380.16 L 866.34 1381.07 C 850.947 1393.74 842.605 1398.53 826.461 1413.8 C 848.068 1427.69 883.637 1455.04 893.312 1479.14 C 875.435 1456.48 845.715 1433.33 821.829 1417.51 C 796.775 1443.87 773.996 1472.3 753.738 1502.5 C 744.994 1514.61 737.797 1526.52 729.566 1538.92 C 742.844 1498.11 786.33 1445.74 815.75 1414.46 C 804.859 1408.63 771.009 1394.04 765.188 1389.33 C 784.323 1395 802.94 1402.28 820.839 1411.11 C 833.702 1399.79 850.579 1387.8 865.904 1380.16 z" fill="rgb(79,9,8)" transform="translate(0,0)"></path>
<path d="M 1055.02 1432.17 C 1047.68 1444.34 1015.73 1474 1004.02 1485.31 C 1017.12 1497.37 1055.07 1538.56 1061.87 1553.83 C 1056.45 1549.52 1047.7 1538.75 1042.37 1533.21 C 1028.78 1519.1 1014.33 1502.42 999.671 1489.62 C 978.109 1511.37 960.107 1533.64 941.402 1557.88 C 937.087 1563.48 933.57 1566.78 927.873 1570.87 C 933.599 1556.48 982.517 1493.37 994.442 1485.01 C 996.465 1483.53 997.427 1482.28 999.135 1480.45 C 1017.93 1464.55 1036.56 1448.46 1055.02 1432.17 z" fill="rgb(79,9,8)" transform="translate(0,0)"></path>
<path d="M 492.248 1300.57 L 493.662 1302.45 C 482.91 1333.43 475.042 1348.91 466.624 1382.7 C 489.292 1383.3 516.477 1382.64 537.046 1391.93 C 508.576 1389.12 493.678 1388.52 464.828 1388.89 C 462.915 1396.49 461.215 1404.87 459.487 1412.58 C 457.279 1420.6 456.01 1426.39 454.508 1434.6 L 453.763 1433.58 C 451.982 1419.1 456.104 1403.48 458.744 1388.72 C 449.118 1390.13 430.33 1393.42 421.399 1392.52 L 421.755 1391.64 C 432.639 1386.61 448.328 1384.74 460.405 1382.72 C 467.931 1354.89 476.982 1325.33 492.248 1300.57 z" fill="rgb(79,9,8)" transform="translate(0,0)"></path>
<path d="M 994.442 1485.01 C 980.428 1472.95 966.571 1461.31 950.596 1451.87 C 947.705 1450.16 938.886 1445.42 937.127 1443.25 C 950.568 1444.84 987.028 1471.76 999.135 1480.45 C 997.427 1482.28 996.465 1483.53 994.442 1485.01 z" fill="rgb(79,9,8)" transform="translate(0,0)"></path>
<path d="M 947.104 1371.24 C 950.553 1370.22 954.197 1372.08 955.388 1375.47 C 956.578 1378.87 954.898 1382.6 951.567 1383.96 C 949.26 1384.9 946.623 1384.49 944.707 1382.9 C 942.791 1381.31 941.908 1378.79 942.409 1376.35 C 942.911 1373.91 944.716 1371.94 947.104 1371.24 z" fill="rgb(93,11,12)" transform="translate(0,0)"></path>
<path d="M 524.659 1459.41 C 528.975 1460.82 531.086 1461.35 532.779 1465.95 C 532.797 1469.77 532.163 1470.21 529.988 1473.31 C 524.666 1472.96 523.777 1473.13 521.652 1468.12 C 521.932 1463.64 522.277 1463.4 524.659 1459.41 z" fill="rgb(93,11,12)" transform="translate(0,0)"></path>
<path d="M 686.761 1514.52 C 683.936 1513.04 683.967 1513.1 681.676 1510.9 C 680.574 1507.23 680.319 1508.81 681.672 1505.9 C 685.703 1503.84 684.503 1504.49 689.671 1504.8 C 692.091 1507.28 692.875 1507.69 693.555 1511.12 C 691.938 1514.76 690.965 1514.78 686.761 1514.52 z" fill="rgb(93,11,12)" transform="translate(0,0)"></path>
<path d="M 689.671 1504.8 C 692.091 1507.28 692.875 1507.69 693.555 1511.12 C 691.938 1514.76 690.965 1514.78 686.761 1514.52 C 687.045 1509.64 687.28 1509.08 689.671 1504.8 z" fill="rgb(79,9,8)" transform="translate(0,0)"></path>
<path d="M 1136.3 1536.85 C 1140.87 1536.72 1142.15 1536.41 1145.52 1539.66 C 1146.17 1542.89 1145.92 1542.75 1144.55 1545.84 C 1140.66 1545.61 1138.79 1545.69 1135.81 1543.2 C 1134.72 1539.27 1134.84 1541.32 1136.3 1536.85 z" fill="rgb(79,9,8)" transform="translate(0,0)"></path>
<path d="M 907.938 1526.66 C 912.35 1526.89 913.139 1526.7 917.031 1528.49 C 919.504 1532.02 918.827 1530.05 918.671 1534.73 C 915.094 1534.96 912.715 1535.53 909.573 1533.93 C 907.36 1530.46 908.064 1531.41 907.938 1526.66 z" fill="rgb(79,9,8)" transform="translate(0,0)"></path>
<path d="M 1512.71 1534.63 C 1544.19 1511.58 1574.97 1495.04 1601.64 1464.02 C 1599.02 1515.72 1587.06 1567.56 1576.86 1618.18 C 1569.58 1654.32 1565.06 1694.18 1548.94 1727.74 C 1538.71 1749.05 1521.57 1768.15 1504.13 1783.85 C 1471.67 1813.09 1430.7 1839.24 1391.35 1858.13 C 1374.93 1866.01 1357.75 1872.56 1340.84 1879.32 C 1183.42 1942.26 1028.46 1958.21 860.046 1948.88 C 714.528 1940.81 468.485 1893.96 367.311 1780.09 C 339.47 1748.76 322.95 1708.54 313.564 1667.99 C 331.097 1672.8 349.514 1678.22 367.52 1680.64 C 421.693 1687.92 479.998 1659.39 521.375 1626.52 C 544.958 1635.33 647.37 1660.04 671.674 1659.17 C 675.676 1659.06 680.12 1659.16 683.963 1658.23 L 685.624 1656.64 C 692.461 1662.73 737.324 1663.49 746.667 1666.66 L 746.489 1670.04 L 755.22 1672.4 C 770.704 1675.19 792.17 1675.49 808.294 1676.76 C 849.817 1680.04 890.494 1681.07 932.074 1681.04 C 944.395 1681.03 980.408 1679.12 989.985 1680.21 C 1021.42 1680.21 1063.01 1675.12 1094.37 1671.85 C 1184.09 1663.15 1269.45 1642.89 1353.87 1611.9 C 1412.44 1590.4 1458.9 1566.37 1512.71 1534.63 z" fill="rgb(233,104,93)" transform="translate(0,0)"></path>
<path d="M 1512.71 1534.63 C 1509.57 1542.7 1445.25 1576.97 1433.03 1582.88 C 1300.23 1647.08 1153.03 1676.98 1006.13 1681.36 C 1000.33 1681.53 995.631 1680.69 989.985 1680.21 C 1021.42 1680.21 1063.01 1675.12 1094.37 1671.85 C 1184.09 1663.15 1269.45 1642.89 1353.87 1611.9 C 1412.44 1590.4 1458.9 1566.37 1512.71 1534.63 z" fill="rgb(252,246,232)" transform="translate(0,0)"></path>
<path d="M 685.624 1656.64 C 692.461 1662.73 737.324 1663.49 746.667 1666.66 L 746.489 1670.04 L 755.22 1672.4 C 746.821 1676.32 679.924 1665.79 671.674 1659.17 C 675.676 1659.06 680.12 1659.16 683.963 1658.23 L 685.624 1656.64 z" fill="rgb(247,232,234)" transform="translate(0,0)"></path>
<path d="M 685.624 1656.64 C 692.461 1662.73 737.324 1663.49 746.667 1666.66 L 746.489 1670.04 C 727.072 1666.24 707.535 1663.43 688.063 1660.01 C 690.44 1660.43 684.118 1658.26 683.963 1658.23 L 685.624 1656.64 z" fill="rgb(171,51,46)" transform="translate(0,0)"></path>
<path d="M 1442.43 1610.46 L 1444.55 1612.31 C 1437.08 1660.81 1420.04 1707.34 1394.43 1749.2 C 1373.31 1783.47 1343.49 1821.97 1308.91 1843.82 C 1305.8 1845.78 1298.62 1850.38 1295.41 1850.53 L 1295.41 1850.54 C 1375.68 1788.4 1418.86 1708.36 1442.43 1610.46 z" fill="rgb(93,11,12)" transform="translate(0,0)"></path>
<path d="M 1376.39 1653.71 C 1377.68 1661.47 1365.53 1694.03 1361.85 1702.64 C 1329.89 1777.51 1268.7 1838.74 1193.8 1869.92 C 1193.86 1867.19 1199.78 1864.92 1202.63 1863.41 C 1252.54 1836.83 1293.72 1799.5 1326.78 1753.77 C 1349.61 1722.2 1362.76 1689.74 1376.39 1653.71 z" fill="rgb(93,11,12)" transform="translate(0,0)"></path>
<path d="M 1461.03 1778.48 C 1508.95 1721.24 1517.61 1676.62 1531.1 1605.98 L 1544.28 1538.75 C 1545.06 1539.25 1547.63 1540.98 1548.31 1541.27 C 1538.33 1600.16 1531.4 1661.9 1507.89 1717.25 C 1497.24 1742.31 1482.24 1761.55 1461.03 1778.48 z" fill="rgb(93,11,12)" transform="translate(0,0)"></path>
<path d="M 1487.61 1603.5 L 1489.49 1605.53 C 1479.92 1687.33 1452.62 1763.4 1389.93 1819.98 L 1387.66 1819.63 C 1392.5 1814.7 1399.05 1806.03 1403.72 1800.53 C 1451.38 1744.47 1472.68 1674.47 1487.61 1603.5 z" fill="rgb(93,11,12)" transform="translate(0,0)"></path>
<path d="M 1551.4 1512.83 C 1551.22 1522.94 1549.79 1531.33 1548.31 1541.27 C 1547.63 1540.98 1545.06 1539.25 1544.28 1538.75 C 1546.4 1529.15 1547.72 1522.1 1551.4 1512.83 z" fill="rgb(36,9,4)" transform="translate(0,0)"></path>
<path d="M 1487.61 1603.5 C 1488.27 1599.77 1488.61 1595.32 1490.43 1592.28 C 1490.88 1597.26 1490.17 1600.61 1489.49 1605.53 L 1487.61 1603.5 z" fill="rgb(120,29,21)" transform="translate(0,0)"></path>
<path d="M 1442.43 1610.46 C 1443 1607.87 1443.6 1603.1 1445.08 1601.47 C 1445.17 1605.74 1445.01 1608.05 1444.55 1612.31 L 1442.43 1610.46 z" fill="rgb(120,29,21)" transform="translate(0,0)"></path>
<path d="M 1387.66 1819.63 L 1389.93 1819.98 C 1387.82 1822.33 1387.5 1823.21 1384.52 1824.13 L 1384.5 1822.69 L 1387.66 1819.63 z" fill="rgb(171,51,46)" transform="translate(0,0)"></path>
<path d="M 254.522 1295.72 C 248.998 1277.14 256.778 1238.4 265.887 1221.74 C 315.277 1131.39 427.552 1072.7 519.893 1039.82 C 566.156 1023.24 613.548 1010.01 661.704 1000.21 C 716.146 989.092 773.221 982.802 828.416 978.14 C 932.77 969.324 1035.28 968.975 1139.03 984.627 C 1168.46 989.454 1198.96 992.782 1227.66 1000.87 C 1235.67 1003.95 1244.08 1008.25 1251.44 1012.55 C 1295.41 1038.25 1340.88 1061.15 1385.62 1085.45 C 1399.8 1093.15 1413.55 1102.2 1427.75 1109.68 C 1449.49 1121.14 1471.8 1132.52 1494 1143.04 C 1525.13 1157.58 1572.49 1184.11 1602.87 1201.91 C 1612.72 1233.25 1618.56 1259.38 1613.02 1292.8 C 1612.29 1297.2 1610.29 1306.91 1608.51 1310.78 L 1604.85 1314.25 C 1606.47 1323.81 1597.01 1339.58 1591.24 1346.87 L 1589.18 1349.06 C 1586.95 1353.48 1583.07 1360.45 1579.26 1363.66 L 1578.01 1363.1 L 1577.68 1361.93 L 1574.88 1362.75 C 1575.81 1365.8 1576.73 1366.76 1574.76 1369.87 C 1570.01 1377.35 1561.8 1385.45 1555.67 1391.94 C 1550.51 1373.16 1545.74 1356.64 1537.7 1338.79 C 1522.05 1304.04 1477.7 1243.56 1445 1224.58 C 1495.52 1271.06 1532.18 1330.63 1550.91 1396.67 C 1544.2 1402.75 1527.92 1416.44 1520.16 1421.07 L 1520.06 1421.97 C 1518.85 1422.72 1517.54 1423.74 1516.29 1424.03 C 1512.98 1428.22 1489.15 1443.98 1483.77 1444.92 C 1482.89 1442.29 1483.06 1443.58 1483.54 1440.98 C 1491.34 1367.91 1441.75 1278.07 1393.27 1225.84 C 1335.39 1163.5 1263.99 1123.25 1186.66 1090.09 C 1133.95 1067.48 1082.34 1052.96 1025.29 1045.75 C 1001.59 1042.66 977.517 1038.53 953.484 1037.93 C 943.592 1035.96 905.203 1036.58 893.788 1036.99 C 811.12 1039.98 728.793 1054.47 652.031 1085.88 C 623.342 1097.62 606.561 1107.05 580.25 1119.63 L 579.222 1120.45 C 575.755 1123.15 565.396 1128.75 560.731 1131.67 C 546.526 1140.58 533.359 1149.1 520.299 1159.76 C 508.208 1169.6 496.542 1179.95 485.334 1190.79 C 479.53 1196.49 463.866 1213.83 458.602 1216.52 C 381.836 1255.69 330.361 1300.75 298.537 1385.23 C 285.007 1370.6 269.531 1350.16 263.457 1330.9 C 260.903 1324.57 253.239 1302.61 255.702 1296.27 L 254.522 1295.72 z" fill="url(#Gradient3)" transform="translate(0,0)"></path>
<path d="M 263.457 1330.9 C 268.648 1317.75 275.094 1305.01 281.169 1292.25 C 303.557 1245.18 321.605 1218.1 361.444 1184.42 C 377.107 1171.18 394.309 1158.3 412.322 1148.49 C 433.521 1136.95 550.339 1090.79 569.492 1094.33 C 573.162 1095.01 576.323 1097.54 578.431 1100.56 C 580.899 1104.11 581.032 1109.03 580.294 1113.13 C 580.045 1114.51 579.78 1115.55 579.887 1116.97 C 579.953 1117.86 580.136 1118.75 580.25 1119.63 L 579.222 1120.45 C 575.755 1123.15 565.396 1128.75 560.731 1131.67 C 546.526 1140.58 533.359 1149.1 520.299 1159.76 C 508.208 1169.6 496.542 1179.95 485.334 1190.79 C 479.53 1196.49 463.866 1213.83 458.602 1216.52 C 381.836 1255.69 330.361 1300.75 298.537 1385.23 C 285.007 1370.6 269.531 1350.16 263.457 1330.9 z" fill="rgb(234,176,71)" transform="translate(0,0)"></path>
<path d="M 550.714 1131.07 L 551.613 1131.64 C 548.745 1136.38 473.34 1161.48 462.019 1166.5 C 375.678 1204.74 318.978 1250.88 284.048 1341.16 L 283.093 1340.88 C 284.451 1331.3 289.365 1319.48 293.341 1310.73 C 327.54 1235.47 388.54 1190.29 463.818 1161.7 C 492.038 1150.99 521.877 1141.68 550.714 1131.07 z" fill="rgb(79,9,8)" transform="translate(0,0)"></path>
<path d="M 1494 1143.04 C 1525.13 1157.58 1572.49 1184.11 1602.87 1201.91 C 1612.72 1233.25 1618.56 1259.38 1613.02 1292.8 C 1612.29 1297.2 1610.29 1306.91 1608.51 1310.78 L 1604.85 1314.25 C 1603.17 1310.4 1601.73 1305.32 1600.27 1301.24 C 1581.34 1248.43 1547.73 1200.24 1507.57 1161.36 C 1504.38 1158.27 1494.45 1149.7 1493.62 1146.49 L 1494 1143.04 z" fill="rgb(234,176,71)" transform="translate(0,0)"></path>
<path d="M 1493.62 1146.49 C 1502.89 1148.17 1509.71 1158.78 1516.54 1164.86 C 1554.66 1198.8 1585.28 1240.86 1602.15 1289.27 C 1604.67 1296.47 1606.18 1303.75 1608.51 1310.78 L 1604.85 1314.25 C 1603.17 1310.4 1601.73 1305.32 1600.27 1301.24 C 1581.34 1248.43 1547.73 1200.24 1507.57 1161.36 C 1504.38 1158.27 1494.45 1149.7 1493.62 1146.49 z" fill="rgb(79,9,8)" transform="translate(0,0)"></path>
<path d="M 254.522 1295.72 C 258.258 1278.94 265.431 1268.94 273.943 1254.26 C 330.729 1156.3 437.239 1099.72 541.751 1066.32 C 552.817 1062.78 570.337 1056.48 581.491 1057.48 C 575.463 1059.88 566.012 1062.07 559.158 1064.32 C 539.991 1070.48 521.011 1077.22 502.245 1084.52 C 429.877 1113.24 349.359 1161.82 300.185 1223.39 C 281.488 1246.8 269.133 1269.79 255.702 1296.27 L 254.522 1295.72 z" fill="rgb(79,9,8)" transform="translate(0,0)"></path>
<path d="M 1457.38 1156.48 C 1473.77 1168.42 1489.3 1181.5 1503.86 1195.62 C 1539.31 1230.56 1589.58 1296.59 1591.24 1346.87 L 1589.18 1349.06 C 1585.3 1328.73 1580.3 1311.72 1570.25 1293.48 C 1541.84 1241.92 1502.98 1194.25 1456.56 1158.27 L 1457.38 1156.48 z" fill="url(#Gradient2)" transform="translate(0,0)"></path>
<path d="M 1574.88 1362.75 C 1569.64 1352.44 1564.4 1338.12 1558.86 1326.78 C 1542.13 1292.9 1519.74 1262.13 1492.65 1235.78 C 1482.83 1226.37 1472.75 1217.23 1462.41 1208.38 C 1457.13 1203.84 1451.33 1199.61 1446.51 1194.68 L 1446.86 1193.89 C 1455.59 1198.91 1465.74 1207.77 1473.83 1214.05 C 1521.34 1250.99 1562.07 1303.2 1577.68 1361.93 L 1574.88 1362.75 z" fill="rgb(79,9,8)" transform="translate(0,0)"></path>
<path d="M 1437.01 1237.79 C 1444.15 1245.09 1451.56 1256.01 1457.53 1264.33 C 1481.16 1297.23 1501.35 1331.91 1512.14 1371.31 C 1516.91 1388.7 1517.99 1403.4 1520.16 1421.07 L 1520.06 1421.97 C 1518.85 1422.72 1517.54 1423.74 1516.29 1424.03 C 1513.01 1410.75 1512.91 1393.5 1509.45 1379.4 C 1496.18 1325.22 1467.98 1282.36 1433.98 1239.39 L 1437.01 1237.79 z" fill="rgb(79,9,8)" transform="translate(0,0)"></path>
<path d="M 1433.98 1239.39 C 1423.11 1226.17 1412.49 1216.25 1399.86 1204.82 C 1394.81 1200.26 1384.33 1191.82 1380.29 1187.04 C 1390.45 1190.03 1429.43 1228.84 1437.01 1237.79 L 1433.98 1239.39 z" fill="rgb(36,9,4)" transform="translate(0,0)"></path>
<path d="M 1456.56 1158.27 C 1450.42 1153.78 1441.79 1147.66 1436.77 1142.05 C 1444.28 1146.97 1450.3 1151.01 1457.38 1156.48 L 1456.56 1158.27 z" fill="rgb(87,53,25)" transform="translate(0,0)"></path>
<path d="M 1048.15 1033.53 C 1057.12 1032.82 1082.45 1035.38 1092.74 1036.02 C 1161.16 1040.24 1224.06 1052.74 1289.85 1071.88 C 1326.63 1082.58 1358.55 1091.49 1393.76 1108.07 C 1388.94 1107.43 1375.31 1101.96 1370.14 1100.07 C 1359 1095.91 1347.72 1092.12 1336.32 1088.73 C 1290.67 1075.2 1240.52 1063.74 1194.06 1052.63 C 1163.25 1045.27 1125.55 1043.2 1093.97 1038.75 C 1085.35 1037.54 1054.41 1035.64 1048.15 1033.53 z" fill="rgb(79,9,8)" transform="translate(0,0)"></path>
<path d="M 1076.16 1015.82 C 1150.44 1017.59 1224.12 1029.55 1295.14 1051.38 C 1313.22 1056.83 1333.22 1062.96 1350.7 1070.03 L 1348.73 1071.33 C 1330.07 1063.14 1303.07 1056.87 1283.27 1051.67 C 1211.56 1032.83 1142.27 1022.99 1068.46 1017.73 L 1069.1 1016.49 L 1076.16 1015.82 z" fill="url(#Gradient1)" transform="translate(0,0)"></path>
<path d="M 1028.96 1015.19 C 1042.34 1014.86 1063.04 1014.13 1076.16 1015.82 L 1069.1 1016.49 L 1068.46 1017.73 C 1059.24 1017.16 1050.34 1017.04 1041.11 1016.89 C 1033.74 1017.34 1031.47 1017.04 1024.42 1015.85 L 1024.55 1014.99 L 1028.96 1015.19 z" fill="rgb(120,29,21)" transform="translate(0,0)"></path>
<path d="M 1041.11 1016.89 C 1033.74 1017.34 1031.47 1017.04 1024.42 1015.85 L 1024.55 1014.99 L 1028.96 1015.19 C 1032.74 1015.67 1037.47 1016.13 1041.11 1016.89 z" fill="rgb(234,176,71)" transform="translate(0,0)"></path>
<path d="M 1350.7 1070.03 C 1353.91 1071.27 1357.09 1071.99 1359.27 1074.34 C 1355.13 1074.17 1352.62 1072.86 1348.73 1071.33 L 1350.7 1070.03 z" fill="rgb(87,53,25)" transform="translate(0,0)"></path>
<path d="M 233.333 1365.76 C 261.762 1407.32 283.88 1434.93 326.44 1464.92 C 484.672 1576.4 710.33 1613.41 900.353 1618.7 C 980.414 1618.77 1063.67 1613.16 1142.59 1601.3 C 1271.43 1581.95 1395.3 1551.8 1506.68 1481.68 C 1564.67 1445.17 1591.36 1428.42 1632.97 1372.38 C 1629.78 1389.33 1626.32 1401.61 1620.98 1417.75 C 1610.53 1449.32 1585.23 1469.61 1560.62 1490.39 C 1554.25 1495.78 1541.91 1506.03 1534.46 1509.53 C 1428.48 1585.16 1281.76 1635.6 1153.68 1656.3 C 1065.84 1669.67 977.013 1675.38 888.187 1673.37 C 846.717 1672.81 787.625 1671.9 746.667 1666.66 C 737.324 1663.49 692.461 1662.73 685.624 1656.64 C 680.134 1654.68 668.187 1652.81 662.031 1651.65 C 649.053 1649.29 636.113 1646.72 623.218 1643.94 C 601.545 1639.24 555.076 1628.03 531.231 1621.26 C 530.903 1620.75 530.574 1620.24 530.246 1619.73 L 532.598 1617.05 C 534.772 1615.62 534.023 1616.2 535.604 1613.95 L 534.458 1612.36 L 530.798 1611.85 C 526.65 1615.16 520.452 1618.6 515.922 1621.88 C 478.001 1649.34 421.255 1678.08 373.063 1672 C 317.69 1665.01 262.078 1640.45 215.967 1609.12 C 207.886 1603.86 200.105 1597.94 192.343 1592.2 C 188.992 1590.42 179.196 1582.51 175.798 1579.75 C 156.925 1564.46 135.384 1545.54 125.993 1522.68 C 101.304 1462.57 185.404 1430.75 216.877 1396.4 C 224.482 1388.1 229.166 1376.05 233.333 1365.76 z" fill="rgb(233,104,93)" transform="translate(0,0)"></path>
<path d="M 532.598 1617.05 C 539.555 1620.17 558.036 1624.15 566.363 1626.11 C 591.054 1632.04 615.865 1637.46 640.78 1642.36 C 670.677 1648.4 698.311 1655.01 728.623 1658.92 C 759.982 1662.96 788.731 1664.68 819.991 1666.4 C 927.521 1672.43 1035.39 1667.13 1141.81 1650.59 C 1173.74 1645.86 1210 1640.38 1241.27 1632.79 C 1325.9 1612.24 1409.05 1581.51 1484.24 1537.28 C 1491.49 1533.01 1529.23 1509.88 1534.46 1509.53 C 1428.48 1585.16 1281.76 1635.6 1153.68 1656.3 C 1065.84 1669.67 977.013 1675.38 888.187 1673.37 C 846.717 1672.81 787.625 1671.9 746.667 1666.66 C 737.324 1663.49 692.461 1662.73 685.624 1656.64 C 680.134 1654.68 668.187 1652.81 662.031 1651.65 C 649.053 1649.29 636.113 1646.72 623.218 1643.94 C 601.545 1639.24 555.076 1628.03 531.231 1621.26 C 530.903 1620.75 530.574 1620.24 530.246 1619.73 L 532.598 1617.05 z" fill="rgb(252,246,232)" transform="translate(0,0)"></path>
<path d="M 217.344 1606.96 C 271.346 1641.26 351.564 1677.19 417.123 1664.08 C 442.128 1659.08 466.585 1646.83 488.979 1634.98 C 498.835 1629.77 520.823 1612.32 530.798 1611.85 C 526.65 1615.16 520.452 1618.6 515.922 1621.88 C 478.001 1649.34 421.255 1678.08 373.063 1672 C 317.69 1665.01 262.078 1640.45 215.967 1609.12 L 217.344 1606.96 z" fill="rgb(252,246,232)" transform="translate(0,0)"></path>
<path d="M 192.343 1592.2 C 197.333 1592.89 212.291 1603.52 217.344 1606.96 L 215.967 1609.12 C 207.886 1603.86 200.105 1597.94 192.343 1592.2 z" fill="rgb(247,232,234)" transform="translate(0,0)"></path>
<path d="M 247.484 1417.75 C 250.342 1418.11 250.493 1419.41 251.044 1421.62 C 249.615 1425.77 249.088 1425.99 245.832 1429.17 C 299.632 1489.59 350.128 1522.99 424.012 1556.99 C 440.611 1564.63 470.229 1573.97 483.425 1581.09 L 484.734 1581.81 C 469.155 1597.48 441.3 1608.32 420.401 1614.19 C 404.843 1617.35 382.326 1619.86 366.774 1615.82 C 327.111 1605.53 285.861 1583.6 252.569 1560.53 C 223.088 1540.09 147.797 1485.51 199.714 1449.83 C 215.636 1438.89 230.999 1427.62 247.484 1417.75 z" fill="rgb(79,9,8)" transform="translate(0,0)"></path>
<path d="M 266.058 1462.62 C 269.838 1465.28 279.067 1474.13 282.974 1477.62 C 291.939 1485.67 301.253 1493.32 310.891 1500.55 C 361.635 1538.74 410.089 1562.01 469.258 1583.83 C 463.34 1587.93 460.017 1589.54 453.59 1592.74 C 396.574 1622.85 347.861 1607.48 295.575 1576.93 C 285.315 1538.94 275.476 1500.83 266.058 1462.62 z" fill="rgb(233,104,93)" transform="translate(0,0)"></path>
<path d="M 236.572 1434.81 C 239.997 1435.47 253.578 1451.02 254.561 1454.58 C 265.223 1493.31 273.729 1532.64 284.946 1571.25 C 275.459 1565.57 266.15 1559.6 257.03 1553.34 C 235.092 1539.51 211.466 1518.57 196.37 1497.4 C 174.281 1466.43 214.918 1448.25 236.572 1434.81 z" fill="rgb(252,246,232)" transform="translate(0,0)"></path>
<path d="M 1650.77 1283.33 C 1646.52 1331.77 1626.5 1374.2 1591.82 1408.12 C 1566.08 1433.3 1538.01 1451.71 1507.75 1470.95 C 1475.24 1491.6 1436.82 1512.24 1401.35 1526.83 C 1259.72 1585.09 1068.53 1610.46 915.786 1610.08 C 717.943 1609.6 430.446 1562.03 283.942 1417.28 C 244.407 1378.22 217.851 1331.12 218.239 1274.4 C 217.956 1217.77 250.329 1164.78 290.277 1126.29 C 336.991 1081.29 408.121 1041.62 468.661 1017.56 C 624.728 955.525 798.623 936.228 965.623 938.979 C 1002.25 939.582 1039.22 941.408 1075.72 944.533 C 1099.15 946.42 1127.04 953.45 1149.97 953.104 C 1167.24 964.992 1197.85 982.368 1216.38 992.503 C 1191.26 986.593 1166.04 980.193 1140.54 976.223 C 991.207 952.979 799.515 963.735 651.436 994.316 C 526.413 1020.14 343.147 1085.83 269.674 1198.62 C 248.069 1231.78 239.325 1270.13 247.936 1309.05 C 262.011 1372.67 312.39 1415.55 364.995 1448.88 C 592.412 1592.96 975.698 1610.27 1234.48 1551.93 C 1329.2 1530.57 1419.66 1498.11 1501.15 1444.84 C 1519.11 1433.1 1537.18 1421.05 1552.98 1406.46 C 1570.82 1389.69 1586.46 1370.74 1599.55 1350.06 C 1629.78 1301.73 1627.8 1260.9 1615.43 1208.05 C 1624.56 1212.53 1633.26 1217.02 1641.66 1222.77 C 1647.36 1247.6 1649.13 1248.61 1650.52 1275.49 L 1650.77 1283.33 z" fill="rgb(252,223,156)" transform="translate(0,0)"></path>
<path d="M 866.2 744.161 C 873.216 742.132 880.474 744.064 886.954 745.974 C 891.824 747.41 894.786 738.099 901.46 747.826 L 900.915 748.858 C 897.918 749.351 897.413 749.125 894.817 750.551 C 957.11 779.294 1025.6 827.07 1084.11 865.263 C 1157.26 914.059 1232.36 959.869 1309.22 1002.58 C 1384.36 1043.95 1462.68 1080.62 1537.33 1122.99 C 1550.42 1130.41 1563.6 1137.88 1576.83 1145.03 C 1628.86 1172.72 1681.14 1199.95 1733.65 1226.71 C 1771.22 1245.97 1809.11 1264.61 1847.3 1282.62 C 1863.21 1290.1 1907.5 1309.78 1919.79 1317.67 C 1930.55 1322.79 1942.46 1337.26 1936.72 1349.05 C 1922.75 1377.77 1869.33 1362.3 1846.34 1356.88 C 1781.96 1341.27 1719.12 1319.9 1658.58 1293 C 1658.91 1289.32 1659.48 1285.33 1659.93 1281.63 L 1660.4 1281.15 C 1671.24 1287.48 1706.92 1300.48 1719.14 1304.72 C 1769.86 1322.28 1820.95 1338.93 1874.3 1346.31 C 1880.75 1347.2 1896.37 1350.99 1900.62 1346.28 C 1899.94 1340.6 1892.93 1336.43 1888.07 1334.25 C 1813.64 1301 1741.91 1262.53 1669.01 1226.2 C 1608.18 1195.89 1550.05 1160.93 1489.67 1129.86 C 1463.35 1116.31 1436.67 1103.36 1410.43 1089.65 C 1352.64 1059 1295.32 1027.47 1238.49 995.063 C 1177.84 960.041 1118.4 922.979 1060.25 883.941 C 1014.2 853.428 968.638 820.594 919.717 794.885 C 911.173 790.395 886.117 777.428 877.883 785.939 C 877.195 787.81 876.817 789.238 877.198 791.206 C 883.181 822.107 1019.31 915.905 1049.3 935.512 C 1041.25 934.923 1033.56 933.961 1025.56 932.979 C 1017.36 924.829 993.974 908.783 983.184 900.927 C 939.715 869.233 892.503 838.903 856.996 798.097 C 847.849 787.585 834.239 760.522 848.97 749.831 C 855.885 745.576 858.434 745.272 866.2 744.161 z" fill="rgb(233,104,93)" transform="translate(0,0)"></path>
<path d="M 866.2 744.161 C 873.216 742.132 880.474 744.064 886.954 745.974 C 891.824 747.41 894.786 738.099 901.46 747.826 L 900.915 748.858 C 897.918 749.351 897.413 749.125 894.817 750.551 C 957.11 779.294 1025.6 827.07 1084.11 865.263 C 1157.26 914.059 1232.36 959.869 1309.22 1002.58 C 1384.36 1043.95 1462.68 1080.62 1537.33 1122.99 C 1550.42 1130.41 1563.6 1137.88 1576.83 1145.03 C 1628.86 1172.72 1681.14 1199.95 1733.65 1226.71 C 1771.22 1245.97 1809.11 1264.61 1847.3 1282.62 C 1863.21 1290.1 1907.5 1309.78 1919.79 1317.67 C 1915.31 1317.82 1881.34 1300.72 1874.65 1297.59 C 1774.76 1250.97 1676.22 1201.55 1579.12 1149.37 C 1548.47 1133.09 1518.52 1115.31 1487.78 1098.81 C 1408.16 1056.05 1326.09 1017.77 1248.51 971.467 C 1185.77 934.429 1124.02 895.747 1063.31 855.46 C 1011.85 821.909 960.699 786.506 905.549 758.902 C 880.977 746.603 874.522 747.115 848.97 749.831 C 855.885 745.576 858.434 745.272 866.2 744.161 z" fill="rgb(247,232,234)" transform="translate(0,0)"></path>
<path d="M 866.2 744.161 C 873.216 742.132 880.474 744.064 886.954 745.974 C 891.824 747.41 894.786 738.099 901.46 747.826 L 900.915 748.858 C 897.918 749.351 897.413 749.125 894.817 750.551 C 883.172 746.208 878.699 745.52 866.2 744.161 z" fill="rgb(120,29,21)" transform="translate(0,0)"></path>
<path d="M 302.144 1390.68 C 328.799 1318.3 382.291 1258.97 451.524 1224.97 C 444.778 1235.12 435.874 1245.36 428.612 1255.89 L 429.929 1256.69 C 428.315 1259.58 427.06 1261.38 424.953 1263.89 C 419.446 1270.45 415.498 1279.16 410.671 1286.11 C 382.046 1327.36 367.844 1377.7 370.749 1427.83 C 371.012 1432.37 372.061 1438.41 372.55 1443.33 C 370.648 1445.42 371.853 1444.83 369.05 1445.44 C 356.653 1433.46 306.417 1403.97 302.144 1390.68 z" fill="rgb(234,176,71)" transform="translate(0,0)"></path>
<path d="M 428.612 1255.89 L 429.929 1256.69 C 428.315 1259.58 427.06 1261.38 424.953 1263.89 C 419.446 1270.45 415.498 1279.16 410.671 1286.11 C 382.046 1327.36 367.844 1377.7 370.749 1427.83 C 371.012 1432.37 372.061 1438.41 372.55 1443.33 C 370.648 1445.42 371.853 1444.83 369.05 1445.44 C 356.653 1433.46 306.417 1403.97 302.144 1390.68 C 304.614 1392.06 320.377 1407.23 326.689 1411.73 C 340.153 1382.17 349.454 1362.89 370.224 1336.79 C 377.66 1327.44 391.214 1312.67 397.313 1303.77 C 408.675 1287.18 415.353 1272.63 428.612 1255.89 z" fill="rgb(79,9,8)" transform="translate(0,0)"></path>
<path d="M 389.481 1318.01 C 389.375 1322.76 382.018 1335.69 380.194 1341.57 C 370.308 1373.4 365.204 1410.91 371.136 1443.76 C 363.323 1438.73 355.836 1433.2 348.299 1427.76 L 330.821 1414.69 C 343.168 1383.1 367.336 1343.84 389.481 1318.01 z" fill="rgb(234,176,71)" transform="translate(0,0)"></path>
<path d="M 1493.5 792.416 C 1531.71 788.536 1554.92 800.928 1586.74 822.107 C 1604.34 833.823 1621.2 849.745 1624.86 871.408 C 1622.81 870.288 1624.47 871.32 1622.75 869.94 C 1594.38 847.148 1560.87 828.386 1529.16 810.541 C 1519.4 805.05 1501.09 798.134 1493.5 792.416 z" fill="rgb(252,246,232)" transform="translate(0,0)"></path>
<path d="M 1650.52 1275.49 L 1652.32 1276.36 C 1654.92 1277.59 1656.49 1278.01 1659.24 1278.74 L 1660.4 1281.15 L 1659.93 1281.63 C 1655.48 1281.86 1655.06 1281.97 1650.77 1283.33 L 1650.52 1275.49 z" fill="rgb(79,9,8)" transform="translate(0,0)"></path>
<path d="M 979.563 113.848 C 986.716 112.758 993.335 112.533 1000.46 113.905 C 998.901 115.348 993.216 115.546 990.744 115.686 C 949.351 121.914 893.148 136.179 868.037 171.825 C 828.648 227.737 887.837 248.986 928.18 263.277 C 1035.56 301.316 1028.29 420.147 951.95 486.449 C 852.418 577.563 722.067 617.862 593.565 649.811 C 528.446 667.371 457.035 676.916 398.94 713.399 C 364.477 735.041 356.603 777.524 394.008 802.426 C 425.089 823.118 473.732 829.291 481.323 871.387 C 486.881 902.206 473.203 921.511 453.397 942.517 C 456.169 935.208 459.467 929.132 455.633 921.743 C 444.035 901.798 412.945 889.359 392.22 882.599 C 329.753 862.225 268.385 848.083 218.89 801.712 C 185.894 773.377 172.805 729.615 186.76 687.287 C 204.378 633.848 263.159 598.937 310.919 574.165 C 369.847 543.602 439.753 527.722 493.364 488.198 C 519.724 468.765 525.869 429.446 511.228 400.969 C 484.993 352.637 415.112 340.908 369.28 319.723 C 326.945 300.337 300.295 270.352 316.55 222.533 C 328.51 187.351 358.562 156.376 391.584 140.047 C 399.264 136.245 407.238 133.071 415.43 130.555 L 417.722 131.951 C 383.421 144.862 348.249 175.989 331.498 208.451 C 282.905 301.775 398.145 317.249 457.704 344.804 C 511.925 369.889 545.763 414.098 517.409 473.71 C 544.936 448.259 569.959 417.813 562.688 378.159 C 555.016 336.319 521.461 315.027 488.978 292.856 C 453.067 268.346 433.71 226.277 462.758 187.968 C 482.092 162.582 516.976 142.21 548.597 137.576 C 501.388 159.353 427.212 199.819 470.759 262.831 C 485.18 283.699 509.993 295.039 529.555 310.57 C 539.656 318.46 548.523 327.814 555.862 338.322 C 585.539 381.116 574.297 428.975 538.693 464.309 C 461.692 540.725 349.248 551.642 261.512 613.395 C 206.435 652.161 164.654 709.361 206.803 774.609 C 238.477 823.64 304.12 842.866 356.033 861.72 C 397.143 875.94 437.05 881.048 464.599 919.273 C 472.407 906.412 475.523 894.899 474.299 879.394 C 469.218 832.649 412.964 830.271 381.795 803.442 C 354.519 779.964 354.342 739.014 381.508 716.525 C 438.473 669.368 525.522 658.91 594.788 640.111 C 633.916 629.492 672.955 620.322 711.382 607.254 C 802.828 576.805 901.428 532.387 966.096 458.714 C 989.741 430.293 1004.9 395.597 1000.89 359.032 C 991.946 277.508 922.127 277.834 867.854 242.289 C 840.22 224.19 846.101 184.072 867.288 161.418 C 894.98 131.808 939.304 116.149 979.563 113.848 z" fill="rgb(93,11,12)" transform="translate(0,0)"></path>
<path d="M 979.563 113.848 C 986.716 112.758 993.335 112.533 1000.46 113.905 C 998.901 115.348 993.216 115.546 990.744 115.686 L 990.645 115.103 C 987.975 113.517 983.163 113.97 979.563 113.848 z" fill="rgb(135,96,74)" transform="translate(0,0)"></path>
<path d="M 659.639 557.222 C 712.789 527.927 798.482 481.128 804.505 413.517 C 811.445 335.599 695.846 326.794 688.292 247.357 C 679.854 158.63 781.753 91.628 858.938 81.9377 L 858.912 83.7584 C 800.848 101.492 737.413 130.427 706.477 186.364 C 694.381 209.454 689.844 235.671 697.369 260.698 C 715.59 321.302 808.9 335.841 811.321 402.819 C 813.949 475.542 720.783 534.622 661.242 558.161 L 659.639 557.222 z" fill="rgb(79,9,8)" transform="translate(0,0)"></path>
<path d="M 819.104 261.843 C 823.695 268.34 829.428 278.861 834.889 284.034 C 856.617 304.478 884.852 320.938 893.925 351.476 C 931.003 476.269 766.376 550.972 676.249 582.045 C 674.652 582.794 675.022 582.529 673.102 582.604 C 685.999 575.354 702.144 568.851 716.056 562.365 C 765.552 539.132 818.055 512.133 856.01 472.007 C 893.001 432.029 910.216 365.29 869.028 321.989 C 852.35 304.456 819.943 288.851 819.104 261.843 z" fill="rgb(93,11,12)" transform="translate(0,0)"></path>
<path d="M 493.394 601.386 L 495.684 601.222 L 495.716 601.775 C 483.534 605.945 471.336 608.39 458.647 612.669 C 393.451 634.655 305.744 671.048 286.724 744.289 C 281.46 764.559 287.611 780.552 298.473 797.276 C 288.466 792.547 282.536 778.206 280.755 767.952 C 276.951 746.046 285.416 720.982 298.382 703.385 C 341.229 645.236 424.246 612.9 493.394 601.386 z" fill="rgb(93,11,12)" transform="translate(0,0)"></path>
<path d="M 535.492 620.469 C 535.98 620.391 539.01 620.408 539.604 620.404 C 526.825 624.34 514.321 625.527 502.327 629.029 C 447.171 645.135 384.107 662.652 345.948 708.443 C 339.754 715.876 334.718 726.93 330.545 735.719 L 329.645 738.23 L 329.165 737.689 C 335.075 663.891 474.022 626.989 535.492 620.469 z" fill="rgb(93,11,12)" transform="translate(0,0)"></path>
<path d="M 1393.83 1867.34 C 1412.26 1864.96 1572.69 1865.62 1582.06 1870.76 C 1575.48 1872.5 1540.74 1872.46 1532.66 1872.57 L 1384.66 1873.25 C 1387.02 1870.2 1390.34 1869.04 1393.83 1867.34 z" fill="rgb(93,11,12)" transform="translate(0,0)"></path>
<path d="M 408.078 279.667 C 410.681 280.77 433.574 301.012 438.515 304.805 C 451.864 315.055 490.897 332.38 500.056 342.097 C 472.886 333.422 420.947 304.796 408.078 279.667 z" fill="rgb(93,11,12)" transform="translate(0,0)"></path>
<path d="M 661.242 558.161 C 658.25 559.882 652.214 563.895 649.028 563.177 C 652.392 560.137 655.506 559.088 659.639 557.222 L 661.242 558.161 z" fill="rgb(177,140,116)" transform="translate(0,0)"></path>
<path d="M 415.43 130.555 C 419.072 129.359 423.612 127.403 427.258 127.815 C 424.607 130.024 421.064 130.855 417.722 131.951 L 415.43 130.555 z" fill="rgb(135,96,74)" transform="translate(0,0)"></path>
<path d="M 858.938 81.9377 C 862.997 81.2267 864.714 80.8113 868.776 80.9008 L 869.17 81.5608 C 864.758 83.1775 863.676 83.1946 858.912 83.7584 L 858.938 81.9377 z" fill="rgb(135,96,74)" transform="translate(0,0)"></path>
<metadata><recraft-signature>{"signed_by": "recraft", "signature_b64": "Nlt8OwxIlAi7WsVoL6FMp59OApBOwr1kRnSPZtRi+LNOpR5DA9UUII+iYl46p7vr67StLWULNH4blbr67RnsBg==", "signing_algo": "Ed25519", "generation_timestamp": 1778091872, "identifier": "5505e690-a04c-42e5-9889-8d535cf4f2b3"}</recraft-signature></metadata></svg>