<svg xmlns="http://www.w3.org/2000/svg" height="1024" preserveAspectRatio="none" style="display: block;" version="1.1" viewBox="0 0 2048 2048" width="1024">
<defs>
	<linearGradient gradientUnits="userSpaceOnUse" id="Gradient1" x1="1095.71" x2="1203.49" y1="1008.31" y2="913.722">
		<stop class="stop0" offset="0" stop-color="rgb(237,110,97)" stop-opacity="1"></stop>
		<stop class="stop1" offset="1" stop-color="rgb(229,142,113)" stop-opacity="1"></stop>
	</linearGradient>
</defs>
<path d="M 0 0 L 2048 0 L 2048 2048 L 0 2048 L 0 0 z" fill="rgb(253,250,244)" transform="translate(0,0)"></path>
<path d="M 613.589 1176.05 C 613.574 1167.95 614.265 1126.63 611.906 1122.26 C 521.048 954.232 754.093 853.641 883.581 833.509 C 911.659 827.519 940.211 825.51 968.55 821.618 C 979.806 820.072 993.745 815.392 1005.43 812.925 C 1059.61 801.484 1115.19 804.43 1169.67 811.965 C 1182.17 813.694 1194.52 816.9 1207 818.736 C 1322.07 829.438 1440.29 851.315 1536.48 919.425 C 1603.45 966.365 1650.51 1058.66 1595.86 1132.56 C 1596.65 1137.26 1597.25 1142.42 1597.91 1147.18 C 1652.5 1179.9 1711.91 1222.26 1764.81 1258.42 C 1793.86 1278.17 1822.8 1298.08 1851.62 1318.15 C 1865.65 1327.99 1901.55 1351.44 1910.17 1363.93 L 1909.6 1412.82 C 1901.83 1419.04 1887.03 1425.64 1877.83 1430.22 C 1860.96 1438.61 1844.43 1446.35 1827.89 1455.47 C 1870.91 1574.89 1881.72 1705.52 1975.53 1797.48 C 1978.54 1802.11 1982.86 1806.96 1985.86 1811.43 C 1989.7 1817.16 2022.44 1839.02 2018.46 1844.95 C 2013.32 1844.82 1997.58 1828.54 1992.24 1824.76 C 1988.73 1822.28 1982.82 1816.95 1979.25 1814.02 C 1967.33 1816.85 1947.69 1818.82 1934.91 1820.41 C 1948.01 1832.99 1961.3 1845.94 1974.11 1858.87 C 1976.54 1861.32 1976.41 1861.72 1976.27 1864.24 L 1974.14 1864.9 C 1968.24 1862.89 1935.56 1829.15 1927.72 1822.09 C 1910.79 1824.88 1893.98 1828.41 1877.36 1832.67 C 1883.8 1839.8 1923.55 1873.91 1924.79 1877.37 C 1922.78 1879.2 1923.77 1878.4 1920.28 1878.85 C 1914.34 1875.95 1878.08 1841.05 1870.49 1834.1 C 1855.22 1836.91 1839.55 1841.81 1823.68 1844.83 C 1837.45 1860.8 1853.85 1875.49 1867.86 1891.37 C 1869.21 1892.91 1869.21 1894.22 1869.42 1896.11 L 1868.35 1897.41 C 1863.99 1896.43 1823.46 1853.47 1816.19 1846.49 C 1798.63 1850.87 1781.92 1855.16 1764.7 1860.73 C 1772.65 1868.12 1813.34 1906.32 1815.98 1913.96 L 1814.51 1914.46 C 1802.96 1909.09 1769.76 1873.44 1758.62 1862.28 C 1743.97 1865.22 1723.19 1871.74 1708.77 1876.1 C 1719.09 1886.42 1751.41 1916.51 1756.64 1926.75 L 1754.41 1928.01 L 1756.54 1926.72 L 1754.3 1927.93 C 1743.66 1919.1 1712.58 1887.96 1703.28 1877.75 C 1686.99 1881.97 1672.11 1885.93 1655.91 1890.71 C 1666.46 1900.59 1676.55 1911.15 1687.13 1921.07 C 1692.48 1926.08 1707.9 1936.78 1707.41 1944.29 C 1700.76 1942.76 1657.72 1900.38 1649.96 1892.88 C 1635.39 1897.28 1621.38 1901.68 1606.45 1904.77 C 1614.04 1912.74 1661.01 1952.58 1662.18 1956.92 L 1660.66 1958.49 C 1654.08 1957.98 1610.4 1914.72 1598.56 1906.52 C 1583.34 1910.35 1568.14 1914.28 1552.97 1918.3 C 1559.41 1924.58 1601.19 1961.33 1602.23 1965.27 L 1600.4 1966.73 C 1594.19 1966.5 1554.6 1926.97 1546.39 1920.06 C 1526.8 1924.07 1506.6 1928.35 1486.65 1929.3 C 1497.7 1938.59 1508.13 1949.36 1518.96 1958.99 C 1527.03 1966.17 1535.43 1971.04 1540.54 1980.85 L 1539.49 1982.06 C 1529.99 1977.18 1490.13 1940 1479.87 1930.6 C 1458.55 1933.58 1437.29 1936.89 1416.08 1940.54 C 1432.04 1957.16 1452.85 1972.03 1470.22 1987.35 C 1472.32 1989.2 1473.11 1990.74 1473.31 1993.48 L 1471.63 1994.15 C 1464.56 1991.09 1416.91 1949.04 1409.2 1941.67 C 1388.27 1946.25 1369.19 1947.91 1346.7 1953.56 C 1358.6 1964.24 1398.77 1994.59 1404.19 2004.37 L 1403.39 2005.1 C 1394.19 2001.11 1351.99 1964.27 1339.2 1955.01 C 1321.87 1959.89 1304.64 1965.1 1287.5 1970.62 C 1297.66 1979.53 1330.39 2005.46 1334.96 2014.99 L 1334.35 2016.07 C 1324.87 2012.56 1291.07 1980.88 1281.36 1972.15 C 1262.51 1977.41 1247.63 1983.35 1227.48 1988.2 C 1224.53 1988.65 1224.43 1988.4 1222.15 1990.2 C 1220.35 1989.31 1210.25 1987.45 1207.57 1986.88 C 1189.52 1983.01 1177.89 1971.86 1163.45 1961.32 C 1130.05 1936.94 1100.28 1901.22 1086.11 1861.98 C 1077.81 1838.98 1064.97 1803.41 1051.96 1782.01 L 1051.14 1780.69 C 1035.74 1786.13 1019.93 1794 1005.13 1800.97 C 984.119 1810.87 963.052 1820.66 941.934 1830.34 C 868.039 1863.7 787.334 1898.9 714.999 1934.4 C 680.004 1907.56 645.009 1878.57 610.628 1850.8 L 425.71 1700.86 L 85.4049 1427.08 C 84.9553 1413.4 83.9516 1384.92 85.3504 1372.15 C 100.555 1365.12 114.742 1360.27 130.217 1354.33 C 162.029 1342 193.968 1330.01 226.03 1318.35 C 244.363 1311.68 262.934 1305.52 281.104 1298.42 C 292.146 1294.24 298.771 1283.24 307.489 1275.86 C 340.553 1247.85 391.401 1235.77 432.356 1223.49 C 492.099 1205.23 552.56 1189.4 613.589 1176.05 z" fill="rgb(212,32,40)" transform="translate(0,0)"></path>
<path d="M 271.967 1316.68 L 276.779 1314.76 L 277.489 1315.79 C 275.679 1324.57 273.391 1325.18 275.525 1334.3 C 283.987 1341.91 288.396 1344.54 298.541 1349.81 L 299.755 1350.28 C 319.457 1356.88 338.286 1361.96 358.297 1367.36 L 360.261 1368.23 C 369.492 1370.71 394.588 1377.84 402.708 1381.83 L 404.353 1382.08 C 415.359 1384.62 425.52 1387.49 436.367 1390.57 C 449.723 1416.68 463.976 1442.31 479.1 1467.44 C 482.667 1473.42 503.725 1507.81 505.337 1512.11 C 509.083 1518.14 514.015 1525.58 517.387 1531.66 C 529.053 1546.05 539.047 1561.61 551.676 1576.74 C 562.466 1589.67 583.888 1610.42 592.855 1622.64 L 593.522 1623.47 C 603.821 1632.19 613.009 1641.16 624.24 1648.87 C 626.971 1650.74 636.546 1657.33 638.094 1659.37 L 645.194 1663.56 C 647.333 1664.77 661.135 1672.4 662.423 1673.47 C 663.41 1673.95 667.31 1675.75 667.972 1676.24 C 679.167 1681.07 703.602 1690.2 712.817 1694.76 L 713.671 1694.97 C 723.906 1697.01 733.858 1699.19 744.146 1701.07 C 750.206 1702.17 765.877 1704.15 770.93 1705.76 L 771.671 1705.92 C 788.202 1706.14 804.571 1707.7 820.997 1708.14 L 822.044 1708.21 C 837.543 1734.18 859.53 1755.64 871.762 1784.05 C 873.443 1787.95 877.425 1793.8 878.263 1797.69 L 876.749 1798.31 C 865.452 1803.98 849.701 1811.17 838.016 1816.11 C 827.784 1821.14 797.565 1836.7 788.124 1839.76 L 786.973 1840.26 C 774.874 1847.49 757.829 1853.5 745.774 1860.3 C 737.524 1864.68 727.415 1869.13 718.854 1873.15 C 711.214 1867.09 698.335 1857.56 691.783 1851.06 L 686.819 1846.76 C 681.248 1843.57 663.598 1828.46 658.607 1823.83 L 656.883 1822.1 C 649.023 1816.63 637.559 1807.19 629.559 1801.13 C 620.478 1794.25 604.574 1782.55 596.818 1774.93 C 582.977 1763.34 568.474 1752.57 554.814 1740.64 C 531.499 1723 508.397 1705.09 485.513 1686.89 C 477.954 1680.88 461.345 1668.22 455.502 1661.82 L 453.282 1660.43 C 431.268 1642.72 406.562 1624.47 385.795 1605.71 L 381.677 1601.99 C 370.265 1593.77 335.298 1566.96 326.774 1558.03 L 323.375 1555.25 C 307.685 1545.04 265.122 1511.91 251.426 1498.78 L 249.405 1497.15 C 240.246 1490.99 203.429 1462.85 196.749 1456.13 L 192.881 1452.78 C 178.261 1442.37 161.585 1428.61 147.077 1417.54 C 133.123 1406.9 111.99 1392.1 100.283 1380.25 C 125.071 1369.92 157.071 1359.29 183 1349.38 L 184.975 1348.81 C 194.46 1343.84 224.752 1334.14 235.63 1330.93 L 238.44 1329.28 C 244.833 1327.06 251.191 1324.75 257.512 1322.33 L 259.821 1321.07 C 263.132 1320.3 268.617 1317.98 271.967 1316.68 z" fill="rgb(230,158,139)" transform="translate(0,0)"></path>
<path d="M 592.855 1622.64 L 593.522 1623.47 C 603.821 1632.19 613.009 1641.16 624.24 1648.87 C 626.971 1650.74 636.546 1657.33 638.094 1659.37 L 645.194 1663.56 C 647.333 1664.77 661.135 1672.4 662.423 1673.47 C 663.41 1673.95 667.31 1675.75 667.972 1676.24 C 679.167 1681.07 703.602 1690.2 712.817 1694.76 L 713.671 1694.97 C 723.906 1697.01 733.858 1699.19 744.146 1701.07 C 750.206 1702.17 765.877 1704.15 770.93 1705.76 L 771.671 1705.92 C 788.202 1706.14 804.571 1707.7 820.997 1708.14 L 822.044 1708.21 C 837.543 1734.18 859.53 1755.64 871.762 1784.05 C 873.443 1787.95 877.425 1793.8 878.263 1797.69 L 876.749 1798.31 C 865.452 1803.98 849.701 1811.17 838.016 1816.11 C 827.784 1821.14 797.565 1836.7 788.124 1839.76 L 786.973 1840.26 C 774.874 1847.49 757.829 1853.5 745.774 1860.3 C 737.524 1864.68 727.415 1869.13 718.854 1873.15 C 711.214 1867.09 698.335 1857.56 691.783 1851.06 L 686.819 1846.76 C 685.943 1842.06 679.505 1828.92 676.771 1823.83 C 652.328 1778.29 644.734 1727.08 622.798 1680.74 C 616.945 1668.62 610.586 1656.76 603.737 1645.18 C 601.133 1640.75 592.592 1628.27 591.58 1625 L 592.855 1622.64 z" fill="rgb(230,158,139)" transform="translate(0,0)"></path>
<path d="M 713.671 1694.97 C 723.906 1697.01 733.858 1699.19 744.146 1701.07 C 750.206 1702.17 765.877 1704.15 770.93 1705.76 L 771.671 1705.92 C 788.202 1706.14 804.571 1707.7 820.997 1708.14 L 822.044 1708.21 C 837.543 1734.18 859.53 1755.64 871.762 1784.05 C 873.443 1787.95 877.425 1793.8 878.263 1797.69 L 876.749 1798.31 C 865.452 1803.98 849.701 1811.17 838.016 1816.11 C 827.784 1821.14 797.565 1836.7 788.124 1839.76 C 781.835 1816.83 750.052 1769.95 737.714 1746.82 C 727.485 1727.65 721.829 1715.71 713.671 1694.97 z" fill="rgb(230,158,139)" transform="translate(0,0)"></path>
<path d="M 771.671 1705.92 C 788.202 1706.14 804.571 1707.7 820.997 1708.14 L 822.044 1708.21 C 837.543 1734.18 859.53 1755.64 871.762 1784.05 C 873.443 1787.95 877.425 1793.8 878.263 1797.69 L 876.749 1798.31 C 865.452 1803.98 849.701 1811.17 838.016 1816.11 C 837.349 1807 798.592 1754.66 791.231 1742.18 C 784.354 1730.51 778.029 1718.76 771.671 1705.92 z" fill="rgb(230,158,139)" transform="translate(0,0)"></path>
<path d="M 820.997 1708.14 L 822.044 1708.21 C 837.543 1734.18 859.53 1755.64 871.762 1784.05 C 873.443 1787.95 877.425 1793.8 878.263 1797.69 L 876.749 1798.31 C 873.895 1794.7 859.9 1767.11 856.074 1760.4 C 850.271 1750.23 820.412 1714.63 820.997 1708.14 z" fill="rgb(244,222,217)" transform="translate(0,0)"></path>
<path d="M 770.93 1705.76 L 771.671 1705.92 C 778.029 1718.76 784.354 1730.51 791.231 1742.18 C 798.592 1754.66 837.349 1807 838.016 1816.11 C 833.128 1813.22 769.42 1714.75 770.93 1705.76 z" fill="rgb(244,222,217)" transform="translate(0,0)"></path>
<path d="M 645.194 1663.56 C 647.333 1664.77 661.135 1672.4 662.423 1673.47 C 663.41 1673.95 667.31 1675.75 667.972 1676.24 C 679.167 1681.07 703.602 1690.2 712.817 1694.76 L 713.671 1694.97 C 721.829 1715.71 727.485 1727.65 737.714 1746.82 C 750.052 1769.95 781.835 1816.83 788.124 1839.76 L 786.973 1840.26 C 774.874 1847.49 757.829 1853.5 745.774 1860.3 C 744.483 1856.41 725.361 1821.52 721.794 1814.84 C 702.866 1779.39 687.037 1743.04 668.599 1707.27 C 663.713 1697.8 647.782 1670.86 645.194 1663.56 z" fill="rgb(230,158,139)" transform="translate(0,0)"></path>
<path d="M 786.973 1840.26 C 784.789 1837.14 783.124 1832.47 781.388 1828.95 C 765.911 1797.36 745.731 1767.93 729.464 1736.74 C 723.074 1724.48 716.971 1709.59 711.504 1696.73 L 712.817 1694.76 L 713.671 1694.97 C 721.829 1715.71 727.485 1727.65 737.714 1746.82 C 750.052 1769.95 781.835 1816.83 788.124 1839.76 L 786.973 1840.26 z" fill="rgb(253,250,244)" transform="translate(0,0)"></path>
<path d="M 662.423 1673.47 C 663.41 1673.95 667.31 1675.75 667.972 1676.24 C 669.64 1683.85 680.228 1700.26 679.246 1708.55 C 676.187 1704.37 675.65 1698.79 673.432 1693.56 C 671.177 1688.24 662.876 1677.68 662.423 1673.47 z" fill="rgb(239,180,144)" transform="translate(0,0)"></path>
<path d="M 688.859 1731.79 C 692.96 1736.31 697.387 1753.09 701.208 1759.02 C 717.472 1784.26 730.921 1810.22 743.971 1837.2 C 746.085 1841.57 752.193 1847.78 755.096 1852.59 L 756.132 1854.33 C 746.586 1849.85 732.997 1821.51 728.562 1811.55 C 720.177 1792.73 707.367 1776.18 698.721 1757.92 C 694.676 1749.52 691.376 1740.77 688.859 1731.79 z" fill="rgb(244,222,217)" transform="translate(0,0)"></path>
<path d="M 638.094 1659.37 L 645.194 1663.56 C 647.782 1670.86 663.713 1697.8 668.599 1707.27 C 687.037 1743.04 702.866 1779.39 721.794 1814.84 C 725.361 1821.52 744.483 1856.41 745.774 1860.3 C 745.435 1860.04 745.086 1859.8 744.757 1859.53 C 732.176 1849.2 673.275 1721.95 659.776 1696.52 C 656.405 1690.17 638.397 1661.76 638.094 1659.37 z" fill="rgb(253,250,244)" transform="translate(0,0)"></path>
<path d="M 592.855 1622.64 L 593.522 1623.47 C 595.99 1632.11 614.364 1658.12 621.167 1671.51 C 640.148 1708.89 651.258 1755.97 666.022 1794.75 C 671.155 1808.23 691.522 1845.46 691.783 1851.06 L 686.819 1846.76 C 685.943 1842.06 679.505 1828.92 676.771 1823.83 C 652.328 1778.29 644.734 1727.08 622.798 1680.74 C 616.945 1668.62 610.586 1656.76 603.737 1645.18 C 601.133 1640.75 592.592 1628.27 591.58 1625 L 592.855 1622.64 z" fill="rgb(253,250,244)" transform="translate(0,0)"></path>
<path d="M 271.967 1316.68 L 276.779 1314.76 L 277.489 1315.79 C 275.679 1324.57 273.391 1325.18 275.525 1334.3 C 283.987 1341.91 288.396 1344.54 298.541 1349.81 C 293.149 1357.73 325.145 1462.43 332.124 1476.85 C 343.547 1500.45 353.689 1527.56 361.59 1553.33 C 365.424 1568.06 379.64 1586 381.677 1601.99 C 370.265 1593.77 335.298 1566.96 326.774 1558.03 L 323.375 1555.25 C 307.685 1545.04 265.122 1511.91 251.426 1498.78 L 249.405 1497.15 C 240.246 1490.99 203.429 1462.85 196.749 1456.13 L 192.881 1452.78 C 178.261 1442.37 161.585 1428.61 147.077 1417.54 C 133.123 1406.9 111.99 1392.1 100.283 1380.25 C 125.071 1369.92 157.071 1359.29 183 1349.38 L 184.975 1348.81 C 194.46 1343.84 224.752 1334.14 235.63 1330.93 L 238.44 1329.28 C 244.833 1327.06 251.191 1324.75 257.512 1322.33 L 259.821 1321.07 C 263.132 1320.3 268.617 1317.98 271.967 1316.68 z" fill="rgb(230,158,139)" transform="translate(0,0)"></path>
<path d="M 235.63 1330.93 C 225.394 1356.81 237.69 1396.77 242.192 1423.4 C 244.492 1437.01 245.278 1452.2 246.752 1466.06 C 247.735 1475.31 249.881 1488.28 249.405 1497.15 C 240.246 1490.99 203.429 1462.85 196.749 1456.13 L 192.881 1452.78 C 178.261 1442.37 161.585 1428.61 147.077 1417.54 C 133.123 1406.9 111.99 1392.1 100.283 1380.25 C 125.071 1369.92 157.071 1359.29 183 1349.38 L 184.975 1348.81 C 194.46 1343.84 224.752 1334.14 235.63 1330.93 z" fill="rgb(230,158,139)" transform="translate(0,0)"></path>
<path d="M 100.283 1380.25 C 125.071 1369.92 157.071 1359.29 183 1349.38 C 181.837 1374 181.714 1387.03 185.675 1412.05 C 187.106 1421.09 192.411 1445.2 192.881 1452.78 C 178.261 1442.37 161.585 1428.61 147.077 1417.54 C 133.123 1406.9 111.99 1392.1 100.283 1380.25 z" fill="rgb(230,158,139)" transform="translate(0,0)"></path>
<path d="M 184.975 1348.81 L 186.37 1350.54 C 181.172 1382.57 185.37 1400.74 191.604 1432.33 C 192.409 1436.41 196.53 1453.3 196.749 1456.13 L 192.881 1452.78 C 192.411 1445.2 187.106 1421.09 185.675 1412.05 C 181.714 1387.03 181.837 1374 183 1349.38 L 184.975 1348.81 z" fill="rgb(244,222,217)" transform="translate(0,0)"></path>
<path d="M 238.44 1329.28 C 244.833 1327.06 251.191 1324.75 257.512 1322.33 C 254.533 1374.69 270.365 1453.08 295.139 1499.84 C 301.74 1512.3 320.848 1544.24 323.375 1555.25 C 307.685 1545.04 265.122 1511.91 251.426 1498.78 L 249.405 1497.15 C 249.881 1488.28 247.735 1475.31 246.752 1466.06 C 245.278 1452.2 244.492 1437.01 242.192 1423.4 C 237.69 1396.77 225.394 1356.81 235.63 1330.93 L 238.44 1329.28 z" fill="rgb(230,158,139)" transform="translate(0,0)"></path>
<path d="M 238.44 1329.28 L 236.496 1335.45 C 228.589 1360.79 241.629 1400.53 245.109 1425.95 C 247.196 1441.19 247.266 1455.73 248.41 1471.02 C 248.936 1478.05 252.575 1492.73 251.426 1498.78 L 249.405 1497.15 C 249.881 1488.28 247.735 1475.31 246.752 1466.06 C 245.278 1452.2 244.492 1437.01 242.192 1423.4 C 237.69 1396.77 225.394 1356.81 235.63 1330.93 L 238.44 1329.28 z" fill="rgb(253,250,244)" transform="translate(0,0)"></path>
<path d="M 257.512 1322.33 L 259.821 1321.07 C 259.932 1380.72 267.972 1430.36 291.025 1486.22 C 297.359 1501.57 326.011 1546.34 326.774 1558.03 L 323.375 1555.25 C 320.848 1544.24 301.74 1512.3 295.139 1499.84 C 270.365 1453.08 254.533 1374.69 257.512 1322.33 z" fill="rgb(253,250,244)" transform="translate(0,0)"></path>
<path d="M 271.967 1316.68 L 276.779 1314.76 L 277.489 1315.79 C 275.679 1324.57 273.391 1325.18 275.525 1334.3 L 274.686 1335.03 C 272.025 1330.26 271.999 1322.1 271.967 1316.68 z" fill="rgb(239,180,144)" transform="translate(0,0)"></path>
<path d="M 298.541 1349.81 L 299.755 1350.28 C 319.457 1356.88 338.286 1361.96 358.297 1367.36 L 360.261 1368.23 C 369.912 1411.39 383.665 1460.16 404.07 1499.69 L 402.964 1500.34 C 390.406 1511 379.294 1513.55 390.514 1531.33 L 394.336 1534.99 C 398.132 1546.13 403.434 1559.15 408.639 1569.55 C 417.193 1586.64 458.54 1644.1 455.502 1661.82 L 453.282 1660.43 C 431.268 1642.72 406.562 1624.47 385.795 1605.71 L 381.677 1601.99 C 379.64 1586 365.424 1568.06 361.59 1553.33 C 353.689 1527.56 343.547 1500.45 332.124 1476.85 C 325.145 1462.43 293.149 1357.73 298.541 1349.81 z" fill="rgb(230,158,139)" transform="translate(0,0)"></path>
<path d="M 298.541 1349.81 L 299.755 1350.28 C 304.633 1389.22 317.309 1430.51 331.175 1467.23 C 342.546 1497.34 357.196 1525.87 365.503 1557.67 C 368.491 1569.11 385.975 1593.72 385.795 1605.71 L 381.677 1601.99 C 379.64 1586 365.424 1568.06 361.59 1553.33 C 353.689 1527.56 343.547 1500.45 332.124 1476.85 C 325.145 1462.43 293.149 1357.73 298.541 1349.81 z" fill="rgb(253,250,244)" transform="translate(0,0)"></path>
<path d="M 390.514 1531.33 L 394.336 1534.99 C 398.132 1546.13 403.434 1559.15 408.639 1569.55 C 417.193 1586.64 458.54 1644.1 455.502 1661.82 L 453.282 1660.43 C 447.462 1624.65 408.536 1584.88 397.356 1549.29 C 395.672 1543.93 390.839 1537 390.514 1531.33 z" fill="rgb(244,222,217)" transform="translate(0,0)"></path>
<path d="M 358.297 1367.36 L 360.261 1368.23 C 369.912 1411.39 383.665 1460.16 404.07 1499.69 L 402.964 1500.34 C 393.129 1491.21 356.781 1381.33 358.297 1367.36 z" fill="rgb(244,222,217)" transform="translate(0,0)"></path>
<path d="M 360.261 1368.23 C 369.492 1370.71 394.588 1377.84 402.708 1381.83 L 404.353 1382.08 C 415.359 1384.62 425.52 1387.49 436.367 1390.57 C 449.723 1416.68 463.976 1442.31 479.1 1467.44 C 482.667 1473.42 503.725 1507.81 505.337 1512.11 C 505.939 1520.23 515.786 1543.51 517.822 1553.35 C 520.043 1564.08 528.526 1576.79 529.796 1588.8 C 514.937 1576.17 498.771 1565.04 483.954 1551.72 L 478.111 1546.42 C 460.153 1534.98 434.866 1509.03 415.219 1497.88 C 411.921 1496 407.823 1498.26 404.07 1499.69 C 383.665 1460.16 369.912 1411.39 360.261 1368.23 z" fill="rgb(230,158,139)" transform="translate(0,0)"></path>
<path d="M 404.353 1382.08 C 415.359 1384.62 425.52 1387.49 436.367 1390.57 C 449.723 1416.68 463.976 1442.31 479.1 1467.44 C 482.667 1473.42 503.725 1507.81 505.337 1512.11 C 505.939 1520.23 515.786 1543.51 517.822 1553.35 C 520.043 1564.08 528.526 1576.79 529.796 1588.8 C 514.937 1576.17 498.771 1565.04 483.954 1551.72 L 478.111 1546.42 C 476.095 1512.38 399.184 1397.85 402.708 1381.83 L 404.353 1382.08 z" fill="rgb(230,158,139)" transform="translate(0,0)"></path>
<path d="M 402.708 1381.83 L 404.353 1382.08 C 408.493 1403.6 439.718 1454.38 450.809 1475.13 C 460.641 1493.53 469.301 1513.04 477.521 1532.31 C 479.406 1536.73 484.041 1547.82 483.954 1551.72 L 478.111 1546.42 C 476.095 1512.38 399.184 1397.85 402.708 1381.83 z" fill="rgb(244,222,217)" transform="translate(0,0)"></path>
<path d="M 505.337 1512.11 C 509.083 1518.14 514.015 1525.58 517.387 1531.66 C 529.053 1546.05 539.047 1561.61 551.676 1576.74 C 562.466 1589.67 583.888 1610.42 592.855 1622.64 L 591.58 1625 C 592.592 1628.27 601.133 1640.75 603.737 1645.18 C 610.586 1656.76 616.945 1668.62 622.798 1680.74 C 644.734 1727.08 652.328 1778.29 676.771 1823.83 C 679.505 1828.92 685.943 1842.06 686.819 1846.76 C 681.248 1843.57 663.598 1828.46 658.607 1823.83 L 656.883 1822.1 C 654.929 1803.09 626.437 1770.91 616.753 1753.35 C 609.722 1740.6 602.523 1727.15 595.466 1714.37 L 535.183 1603.25 C 534.37 1596.7 533.58 1594.16 529.796 1588.8 C 528.526 1576.79 520.043 1564.08 517.822 1553.35 C 515.786 1543.51 505.939 1520.23 505.337 1512.11 z" fill="rgb(230,158,139)" transform="translate(0,0)"></path>
<path d="M 505.337 1512.11 C 509.083 1518.14 514.015 1525.58 517.387 1531.66 L 516.034 1532.02 L 513.604 1529.88 C 510.245 1536.51 526.592 1570.81 529.822 1579.03 C 533.818 1589.19 538.204 1600.56 542.447 1610.75 C 567.909 1658.79 593.861 1706.63 620.196 1754.19 C 627.028 1766.53 663.391 1811.98 658.607 1823.83 L 656.883 1822.1 C 654.929 1803.09 626.437 1770.91 616.753 1753.35 C 609.722 1740.6 602.523 1727.15 595.466 1714.37 L 535.183 1603.25 C 534.37 1596.7 533.58 1594.16 529.796 1588.8 C 528.526 1576.79 520.043 1564.08 517.822 1553.35 C 515.786 1543.51 505.939 1520.23 505.337 1512.11 z" fill="rgb(244,222,217)" transform="translate(0,0)"></path>
<path d="M 404.07 1499.69 C 407.823 1498.26 411.921 1496 415.219 1497.88 C 434.866 1509.03 460.153 1534.98 478.111 1546.42 L 483.954 1551.72 C 498.771 1565.04 514.937 1576.17 529.796 1588.8 C 533.58 1594.16 534.37 1596.7 535.183 1603.25 C 530.242 1612.15 514.709 1629.32 502.978 1622.59 C 493.781 1617.09 486.232 1608.74 478.006 1601.95 C 463.456 1589.93 448.877 1576.58 433.454 1565.75 L 432.465 1565.06 C 424.473 1558.37 416.36 1551.81 408.131 1545.41 C 402.935 1540.9 400.08 1538.82 394.336 1534.99 L 390.514 1531.33 C 379.294 1513.55 390.406 1511 402.964 1500.34 L 404.07 1499.69 z" fill="rgb(156,6,22)" transform="translate(0,0)"></path>
<path d="M 413.41 1515.39 L 415.501 1514.24 C 415.968 1514.4 505.054 1586.9 510.215 1592.36 C 513.481 1594.69 515.894 1597.29 518.731 1600.1 C 514.356 1603.09 509.372 1606.11 504.858 1608.96 C 494.169 1601.87 470.714 1581.03 460.088 1571.87 C 442.465 1556.68 419.869 1539.54 403.453 1524.03 C 407.47 1519.78 408.633 1518.73 413.41 1515.39 z" fill="rgb(253,250,244)" transform="translate(0,0)"></path>
<path d="M 413.41 1515.39 L 415.501 1514.24 C 415.968 1514.4 505.054 1586.9 510.215 1592.36 L 509.74 1593.61 C 510.218 1595.32 510.523 1596.61 510.909 1598.33 C 507.827 1597.51 497.056 1589.11 493.734 1586.81 C 469.079 1569.71 442.788 1551.3 421.86 1529.8 C 416.503 1524.3 413.292 1522.35 413.41 1515.39 z" fill="rgb(230,158,139)" transform="translate(0,0)"></path>
<path d="M 394.336 1534.99 C 400.08 1538.82 402.935 1540.9 408.131 1545.41 L 407.591 1548.02 C 413.048 1553.99 421.122 1559.82 427.312 1566.29 C 471.199 1612.14 514.628 1653.91 542.517 1712.31 C 545.741 1719.06 554.668 1733.74 554.814 1740.64 C 531.499 1723 508.397 1705.09 485.513 1686.89 C 477.954 1680.88 461.345 1668.22 455.502 1661.82 C 458.54 1644.1 417.193 1586.64 408.639 1569.55 C 403.434 1559.15 398.132 1546.13 394.336 1534.99 z" fill="rgb(230,158,139)" transform="translate(0,0)"></path>
<path d="M 408.131 1545.41 C 416.36 1551.81 424.473 1558.37 432.465 1565.06 C 432.963 1574.75 458.526 1594.12 466.627 1602.95 C 488.535 1626.83 505.704 1647.49 523.988 1674.34 C 539.263 1696.78 548.122 1725.4 564.729 1744.62 C 570.645 1751.47 596.009 1766.46 596.818 1774.93 C 582.977 1763.34 568.474 1752.57 554.814 1740.64 C 554.668 1733.74 545.741 1719.06 542.517 1712.31 C 514.628 1653.91 471.199 1612.14 427.312 1566.29 C 421.122 1559.82 413.048 1553.99 407.591 1548.02 L 408.131 1545.41 z" fill="rgb(244,222,217)" transform="translate(0,0)"></path>
<path d="M 1596.59 1169.63 C 1596.76 1166.52 1596.41 1162.12 1598.03 1160.17 C 1607.01 1165.96 1615.94 1171.84 1624.8 1177.81 C 1634.23 1183.85 1694.52 1222.78 1699.19 1228.16 C 1705.7 1232.39 1711.68 1236.69 1717.98 1241.23 C 1721.19 1243.36 1724.57 1245.54 1727.7 1247.74 L 1833.03 1319.43 C 1850.16 1330.97 1881.33 1350.91 1896.31 1363.06 C 1880.5 1369.81 1809.62 1399.85 1799.69 1407.95 L 1798.99 1408.5 C 1796.25 1407.51 1792.44 1401.32 1789.82 1398.16 C 1787.82 1396.96 1768.44 1378.92 1763.78 1375.4 C 1745.13 1361.29 1723.64 1348.11 1705.57 1333.91 C 1681.16 1316.02 1656.36 1298.66 1631.21 1281.83 C 1618.81 1273.51 1603.73 1262.86 1590.85 1255.7 L 1592.24 1237.35 C 1593.32 1222.74 1593.87 1199.48 1595.83 1186.22 L 1595.9 1183.13 C 1595.93 1178.48 1596.26 1174.25 1596.59 1169.63 z" fill="rgb(230,158,139)" transform="translate(0,0)"></path>
<path d="M 1592.24 1237.35 L 1593.16 1237.45 C 1594.77 1241.93 1605.64 1246.57 1609.7 1249.36 C 1635.8 1267.29 1660.25 1287.6 1686.59 1305.27 C 1689.64 1307.31 1694.39 1313.75 1696.64 1316.9 L 1698.78 1317.61 C 1700.73 1319.64 1700.51 1319.91 1701.62 1322.14 C 1705.74 1330.44 1705.61 1325.85 1705.57 1333.91 C 1681.16 1316.02 1656.36 1298.66 1631.21 1281.83 C 1618.81 1273.51 1603.73 1262.86 1590.85 1255.7 L 1592.24 1237.35 z" fill="rgb(230,158,139)" transform="translate(0,0)"></path>
<path d="M 1699.19 1228.16 C 1705.7 1232.39 1711.68 1236.69 1717.98 1241.23 C 1721.19 1243.36 1724.57 1245.54 1727.7 1247.74 C 1731 1256.12 1739.73 1265.2 1739.98 1269.44 C 1738.34 1270.67 1739.22 1270.45 1737.42 1270.36 C 1749.31 1286.81 1766.96 1299.23 1782.28 1312.14 C 1800.72 1327.72 1818.98 1343.51 1837.04 1359.53 C 1840.63 1362.76 1849.59 1369.6 1851.44 1373.09 C 1848.49 1373.21 1836.56 1361.72 1833.71 1359.34 C 1818.06 1346.29 1802.54 1333.08 1787.16 1319.7 C 1774.78 1309.08 1759.28 1297.6 1748.06 1286.44 C 1737.02 1275.47 1725.99 1259.78 1715.34 1248.03 C 1711.36 1243.65 1699.69 1232.81 1699.19 1228.16 z" fill="rgb(244,222,217)" transform="translate(0,0)"></path>
<path d="M 1737.42 1270.36 C 1730.94 1262.98 1718.7 1248.92 1713.46 1241.21 L 1717.98 1241.23 C 1721.19 1243.36 1724.57 1245.54 1727.7 1247.74 C 1731 1256.12 1739.73 1265.2 1739.98 1269.44 C 1738.34 1270.67 1739.22 1270.45 1737.42 1270.36 z" fill="rgb(239,180,144)" transform="translate(0,0)"></path>
<path d="M 1595.9 1183.13 C 1622.48 1197.14 1660 1239.89 1678.59 1264.49 C 1681.26 1268.02 1689.42 1278.17 1690.86 1281.84 C 1688.51 1281.53 1687.73 1280.03 1686.18 1278.02 C 1664 1249.22 1640.56 1220.9 1612.38 1197.71 C 1608.56 1194.57 1600.33 1188.02 1595.83 1186.22 L 1595.9 1183.13 z" fill="rgb(244,222,217)" transform="translate(0,0)"></path>
<path d="M 1593.16 1237.45 C 1602.46 1237.43 1677.88 1297.54 1692.21 1306.93 C 1693.64 1307.87 1697.92 1315.43 1698.78 1317.61 L 1696.64 1316.9 C 1694.39 1313.75 1689.64 1307.31 1686.59 1305.27 C 1660.25 1287.6 1635.8 1267.29 1609.7 1249.36 C 1605.64 1246.57 1594.77 1241.93 1593.16 1237.45 z" fill="rgb(239,180,144)" transform="translate(0,0)"></path>
<path d="M 1596.59 1169.63 C 1596.76 1166.52 1596.41 1162.12 1598.03 1160.17 C 1607.01 1165.96 1615.94 1171.84 1624.8 1177.81 L 1623.54 1179.84 C 1618.44 1181.56 1608.17 1170.4 1602.5 1169.15 C 1602.49 1169.15 1597.04 1169.59 1596.59 1169.63 z" fill="rgb(239,180,144)" transform="translate(0,0)"></path>
<path d="M 1789.82 1398.16 C 1796.15 1396.11 1798.28 1402.72 1799.69 1407.95 L 1798.99 1408.5 C 1796.25 1407.51 1792.44 1401.32 1789.82 1398.16 z" fill="rgb(244,222,217)" transform="translate(0,0)"></path>
<path d="M 1595.77 1211.14 C 1608.04 1214.11 1636.1 1241.5 1647.37 1250.85 C 1665.82 1266.14 1685.86 1281.91 1703.15 1298.42 C 1715.33 1310.75 1723 1326.19 1736.52 1337.27 C 1755.89 1353.16 1815.55 1369.08 1823.91 1394.46 C 1820.91 1393.54 1805.04 1376.28 1798.87 1372.17 C 1778.75 1358.78 1753.25 1353.96 1734.64 1338.77 C 1719.54 1327.06 1708.27 1304.57 1693.82 1292.86 C 1661.55 1266.71 1628.86 1235.76 1595.77 1211.14 z" fill="rgb(244,222,217)" transform="translate(0,0)"></path>
<path d="M 97.2156 1393.5 C 102.971 1396.82 118.189 1409.58 124.309 1414.08 C 155.184 1436.76 183.446 1463.33 213.886 1486.47 C 261.756 1523.06 309.245 1560.14 356.345 1597.71 C 373.543 1611.53 390.298 1626.03 407.493 1639.88 C 508.082 1721.61 609.53 1802.27 711.818 1881.86 L 710.056 1913.94 C 709.661 1914.4 709.06 1914.61 708.543 1914.92 C 695.332 1905.27 682.208 1893.79 669.429 1883.39 L 592.048 1820.75 L 234.679 1533.52 L 149.239 1464.79 C 137.108 1454.9 109.242 1430.85 96.8991 1424.01 C 96.7938 1413.84 96.8994 1403.67 97.2156 1393.5 z" fill="rgb(230,158,139)" transform="translate(0,0)"></path>
<path d="M 1573.19 1606.9 L 1573.81 1607.08 C 1578.38 1611.1 1598.99 1703.37 1603.92 1718.98 C 1587.1 1723.66 1482.86 1761.99 1476.88 1760.77 C 1464.74 1722.99 1458 1693.23 1442.93 1654.77 C 1485.07 1638.56 1532.39 1623.64 1573.19 1606.9 z" fill="rgb(253,250,244)" transform="translate(0,0)"></path>
<path d="M 1603.09 1726.15 C 1603.67 1726.04 1605.35 1726.06 1606.02 1726.05 C 1608.72 1729.56 1615.65 1749.15 1617.79 1754.37 C 1627.81 1778.82 1638.62 1801.59 1652.22 1824.22 C 1611.06 1839.76 1571.49 1849.92 1529.22 1861.67 C 1515.38 1850.03 1486.68 1786.4 1479.29 1767.9 C 1515.9 1755.22 1566.95 1735.92 1603.09 1726.15 z" fill="rgb(253,250,244)" transform="translate(0,0)"></path>
<path d="M 1791.79 1539.21 C 1793.06 1540.12 1830.37 1645.1 1833.21 1655.33 C 1798.22 1662.54 1763.53 1671.13 1729.22 1681.06 L 1726.56 1681.57 C 1721.54 1678.24 1692.68 1583.88 1688.17 1569.46 C 1720.34 1558.47 1758.71 1548.47 1791.79 1539.21 z" fill="rgb(253,250,244)" transform="translate(0,0)"></path>
<path d="M 1679.36 1572.08 C 1681.01 1571.79 1680.58 1571.93 1682.37 1572.35 C 1694.91 1609.42 1705.96 1645.75 1718.92 1683.18 C 1685.26 1694.12 1651.48 1704.72 1617.59 1714.95 L 1610.34 1717.23 C 1598.79 1679.21 1591.96 1642.36 1580.31 1604.68 C 1613.42 1593.83 1645.92 1582.07 1679.36 1572.08 z" fill="rgb(253,250,244)" transform="translate(0,0)"></path>
<path d="M 1717.82 1690.17 C 1720.04 1689.72 1718.85 1689.77 1721.38 1690.2 C 1724.23 1694.86 1725.11 1699.13 1727.26 1704.06 C 1740.36 1734.11 1757.09 1761.26 1774.55 1788.97 C 1738.52 1798.18 1702.83 1808.64 1667.54 1820.34 L 1658.85 1822.79 C 1640.06 1795.52 1623.11 1754.15 1612.04 1722.97 C 1647.23 1711.82 1682.49 1700.89 1717.82 1690.17 z" fill="rgb(253,250,244)" transform="translate(0,0)"></path>
<path d="M 1833.72 1661.18 L 1835.65 1661.41 C 1838.35 1664.84 1840.73 1671.19 1842.39 1675.46 C 1854.66 1707.04 1870.52 1734.38 1889.52 1762.29 C 1857.55 1767.16 1816.21 1778.29 1784.22 1786.22 L 1781.66 1786.61 C 1766.43 1773.39 1736.65 1708.51 1728.38 1687.61 C 1763.29 1678 1798.41 1669.19 1833.72 1661.18 z" fill="rgb(253,250,244)" transform="translate(0,0)"></path>
<path d="M 1016.78 1744.88 C 1022.32 1746.52 1039.74 1765.24 1044.26 1770.21 C 1024.89 1779.93 1004.29 1788.54 984.521 1797.7 L 832.049 1867.81 C 802.304 1881.47 769.64 1895.9 740.649 1910.55 C 733.803 1914.21 726.875 1917.36 719.842 1920.62 C 720.241 1908.95 721.195 1896.27 721.785 1884.49 C 746.173 1870.71 782.868 1855.36 808.796 1843.27 L 942.659 1779.99 C 960.079 1771.91 1001.4 1754.09 1016.78 1744.88 z" fill="rgb(230,158,139)" transform="translate(0,0)"></path>
<path d="M 603.581 1320.11 L 605.039 1319.8 C 607.863 1320.9 615.651 1332.36 618.191 1335.7 C 622.601 1373.83 625.032 1395.9 633.849 1433.31 C 604.991 1436.15 582.028 1440.89 553.654 1447.46 L 543.962 1429.64 C 528.086 1400.33 515.354 1375.56 495.856 1348.35 C 532.139 1338 567.539 1329.95 603.581 1320.11 z" fill="rgb(253,250,244)" transform="translate(0,0)"></path>
<path d="M 1434.57 1657.94 L 1436.86 1658.16 C 1447.21 1671.21 1464.77 1744.22 1471.69 1763.88 C 1442.87 1774.34 1412.57 1783.26 1383.2 1792.2 L 1382.15 1791.92 C 1379.01 1788.38 1350.61 1702.84 1345.7 1690.26 C 1372.66 1679.39 1406.75 1668.14 1434.57 1657.94 z" fill="rgb(253,250,244)" transform="translate(0,0)"></path>
<path d="M 1725.23 1446.47 C 1759.95 1466.66 1776.65 1498.24 1791.41 1533.27 C 1758.86 1542.68 1724.89 1551.67 1692.73 1561.95 L 1686.27 1564.09 C 1671.1 1528.47 1659.2 1511.35 1628.36 1486.91 C 1658.78 1472.33 1694.04 1459.79 1725.23 1446.47 z" fill="rgb(253,250,244)" transform="translate(0,0)"></path>
<path d="M 1339.39 1692.96 C 1344.77 1696.21 1370.49 1780.93 1376.36 1794.2 C 1349.04 1804.52 1310.02 1814.9 1281.29 1823.25 C 1278.94 1819.7 1271.44 1799.37 1269.58 1794.45 C 1260.97 1771.74 1253.67 1750.83 1243.3 1728.84 C 1274.99 1716.46 1307.48 1704.99 1339.39 1692.96 z" fill="rgb(253,250,244)" transform="translate(0,0)"></path>
<path d="M 525.977 1239.16 C 539.101 1245.87 590.181 1300.84 601.474 1313.85 C 566.944 1324.47 529.993 1331.98 493.994 1342.89 C 492.501 1342.47 470.876 1317.25 467.26 1313.3 C 451.798 1296.4 437.339 1285.02 417.693 1273.14 C 453.858 1262.19 489.327 1250.1 525.977 1239.16 z" fill="rgb(253,250,244)" transform="translate(0,0)"></path>
<path d="M 1514.23 1532.72 C 1538.78 1541.73 1562.85 1577.97 1573.09 1600.8 C 1563.35 1604.07 1552.5 1608.64 1542.57 1612.25 L 1466.71 1639.32 L 1440.6 1648.79 C 1432.26 1629.53 1424.98 1612 1415.71 1593.09 C 1453.98 1577.01 1482.72 1559.65 1514.23 1532.72 z" fill="rgb(253,250,244)" transform="translate(0,0)"></path>
<path d="M 1235.22 1730.9 L 1236.95 1731.56 C 1248.47 1749.79 1266.19 1802.25 1275.15 1825.16 C 1245.95 1833.83 1216.61 1842.04 1187.16 1849.8 L 1184.98 1850.36 C 1174.5 1841.52 1154.72 1781.05 1147.71 1763.73 C 1177.03 1753.19 1206.2 1742.24 1235.22 1730.9 z" fill="rgb(253,250,244)" transform="translate(0,0)"></path>
<path d="M 1620.94 1489.99 C 1648.06 1501.89 1669.16 1539.46 1679.97 1565.72 C 1647.9 1575.85 1614.34 1586.32 1582.78 1597.8 L 1579.9 1598.57 C 1577.03 1597.16 1573.73 1588.02 1571.81 1584.38 C 1568.42 1578.06 1564.58 1571.98 1560.33 1566.2 C 1549.36 1551.24 1539.18 1542.59 1525.21 1531.03 C 1551.5 1517.57 1593.76 1500.47 1620.94 1489.99 z" fill="rgb(253,250,244)" transform="translate(0,0)"></path>
<path d="M 1472.19 1770.14 C 1474.21 1771.76 1488.78 1803.9 1491.32 1809.2 C 1500.76 1828.82 1510.12 1845.36 1522.83 1863.13 C 1493.28 1870.51 1463.52 1877.05 1433.59 1882.72 L 1432.97 1882.6 C 1418.04 1869.08 1390.89 1818.47 1383.87 1798.46 C 1413.55 1789.79 1443 1780.35 1472.19 1770.14 z" fill="rgb(253,250,244)" transform="translate(0,0)"></path>
<path d="M 859.129 1708.57 C 872.93 1707.44 888.911 1708.05 902.844 1708.51 L 906.808 1708.96 C 920.882 1708.94 942.88 1709.86 956.329 1713.19 L 961.328 1714.88 C 982.155 1720.08 991.351 1726.25 1009.8 1737.04 C 1002.88 1740.09 985.589 1748.16 979.229 1750.21 L 976.521 1751.89 C 965.151 1756.47 953.479 1762.89 942.439 1766.93 L 940.078 1768.85 C 931.814 1770.51 916.032 1780.4 907.221 1783.94 L 904.678 1785.62 C 898.089 1788.55 884.33 1795.45 878.263 1797.69 C 877.425 1793.8 873.443 1787.95 871.762 1784.05 C 859.53 1755.64 837.543 1734.18 822.044 1708.21 C 833.409 1708.32 845.899 1708.97 857.076 1708.72 L 859.129 1708.57 z" fill="rgb(230,158,139)" transform="translate(0,0)"></path>
<path d="M 906.808 1708.96 C 920.882 1708.94 942.88 1709.86 956.329 1713.19 L 961.328 1714.88 C 982.155 1720.08 991.351 1726.25 1009.8 1737.04 C 1002.88 1740.09 985.589 1748.16 979.229 1750.21 L 976.521 1751.89 C 965.151 1756.47 953.479 1762.89 942.439 1766.93 C 937.246 1756.07 931.69 1744.01 925.11 1734.04 C 919.478 1725.51 912.472 1717.58 906.808 1708.96 z" fill="rgb(230,158,139)" transform="translate(0,0)"></path>
<path d="M 961.328 1714.88 C 982.155 1720.08 991.351 1726.25 1009.8 1737.04 C 1002.88 1740.09 985.589 1748.16 979.229 1750.21 C 973.884 1737.45 966.123 1726.51 961.328 1714.88 z" fill="rgb(230,158,139)" transform="translate(0,0)"></path>
<path d="M 956.329 1713.19 L 961.328 1714.88 C 966.123 1726.51 973.884 1737.45 979.229 1750.21 L 976.521 1751.89 C 976.122 1751.19 975.274 1748.89 974.941 1747.99 C 970.592 1736.2 962.968 1723.87 956.329 1713.19 z" fill="rgb(244,222,217)" transform="translate(0,0)"></path>
<path d="M 859.129 1708.57 C 872.93 1707.44 888.911 1708.05 902.844 1708.51 L 906.808 1708.96 C 912.472 1717.58 919.478 1725.51 925.11 1734.04 C 931.69 1744.01 937.246 1756.07 942.439 1766.93 L 940.078 1768.85 C 931.814 1770.51 916.032 1780.4 907.221 1783.94 C 902.077 1774.44 898.205 1763.72 892.901 1753.76 C 883.161 1735.48 872.166 1724.02 859.129 1708.57 z" fill="rgb(230,158,139)" transform="translate(0,0)"></path>
<path d="M 902.844 1708.51 L 906.808 1708.96 C 912.472 1717.58 919.478 1725.51 925.11 1734.04 C 931.69 1744.01 937.246 1756.07 942.439 1766.93 L 940.078 1768.85 C 930.184 1743.08 919.611 1729.66 902.844 1708.51 z" fill="rgb(244,222,217)" transform="translate(0,0)"></path>
<path d="M 857.076 1708.72 L 859.129 1708.57 C 872.166 1724.02 883.161 1735.48 892.901 1753.76 C 898.205 1763.72 902.077 1774.44 907.221 1783.94 L 904.678 1785.62 C 897.385 1766.45 888.384 1747.95 875.854 1731.6 C 869.941 1723.88 862.23 1716.87 857.076 1708.72 z" fill="rgb(244,222,217)" transform="translate(0,0)"></path>
<path d="M 1377.33 1800.14 C 1379.74 1801.68 1381.71 1807.81 1382.89 1810.62 C 1393.92 1836.83 1409.19 1861.06 1425.38 1884.31 C 1394.17 1890.24 1362.98 1893.21 1331.78 1899.41 C 1328.74 1900.11 1327.53 1900.33 1324.42 1900.67 C 1315.51 1895.44 1288.01 1840.01 1283.37 1828.6 C 1314.83 1819.6 1346.16 1810.11 1377.33 1800.14 z" fill="rgb(253,250,244)" transform="translate(0,0)"></path>
<path d="M 1620.55 1380.78 C 1623.74 1380.75 1635.72 1390.14 1639.19 1392.6 C 1663.9 1410.18 1696 1423.96 1719.57 1442.37 C 1702.45 1450.65 1677.13 1458.54 1657.74 1467.33 C 1646.03 1472.61 1634.24 1477.71 1622.38 1482.62 C 1607.22 1472.67 1582.95 1454.84 1570.12 1442.31 C 1573.38 1426.64 1574.91 1416.69 1576.17 1401.01 C 1589.67 1394.04 1606.53 1386.94 1620.55 1380.78 z" fill="rgb(253,250,244)" transform="translate(0,0)"></path>
<path d="M 631.6 1439.47 L 632.768 1439.21 C 635.574 1441.21 645.317 1469.64 648.81 1476.45 C 661.668 1501.5 676.954 1517.56 697.169 1536.39 C 669.852 1542.25 649.123 1546.7 621.627 1553.77 L 620.532 1553.49 C 597.746 1526.71 573.525 1483.51 556.719 1452.59 C 580.36 1446.96 607.453 1441.8 631.6 1439.47 z" fill="rgb(253,250,244)" transform="translate(0,0)"></path>
<path d="M 932.064 845.208 C 976.246 824.089 1027 821.362 1073.19 837.626 C 1152.02 865.259 1229.13 932.715 1278.86 999.307 C 1299.57 1027.04 1322.15 1071.97 1337.48 1103.57 L 1335.93 1104.13 C 1320.99 1076.04 1308.61 1060.81 1289.42 1035.99 C 1247 981.146 1195.92 929.222 1136.96 892.174 C 1085.8 860.032 991.81 832.088 932.064 845.208 z" fill="url(#Gradient1)" transform="translate(0,0)"></path>
<path d="M 994.551 1646.3 C 1014 1642.34 1074.53 1688.9 1091.56 1700.94 C 1069.12 1708.27 1043.02 1720.04 1021.7 1730.11 L 1009.47 1721.35 C 979.38 1702.35 937.47 1690.16 903.062 1673.78 C 930.498 1665.91 968.316 1650.52 994.551 1646.3 z" fill="rgb(253,250,244)" transform="translate(0,0)"></path>
<path d="M 913.845 902.779 C 934.483 909.584 951.039 916.501 970.622 925.716 C 918.483 960.615 876.725 998.284 833.012 1042.75 C 823.038 1053.76 814.98 1063.33 805.609 1074.86 C 815.063 998.73 860.279 952.397 913.845 902.779 z" fill="rgb(239,180,144)" transform="translate(0,0)"></path>
<path d="M 1296.13 1632.24 C 1298.03 1631.78 1297.82 1632 1299.89 1632.2 C 1314.35 1641.73 1331.01 1671.52 1338.18 1687.08 C 1306.36 1698.51 1272.37 1712.27 1240.99 1722.93 L 1239.16 1721.46 C 1221.27 1695.24 1215.29 1688.93 1191.92 1668.65 C 1230.22 1655.11 1255.8 1641.38 1296.13 1632.24 z" fill="rgb(253,250,244)" transform="translate(0,0)"></path>
<path d="M 703.877 1542.68 C 719.436 1553.2 734.355 1564.59 750.582 1574.1 C 760.5 1579.91 766.601 1583.46 774.184 1592.35 C 777.407 1595.9 781.322 1600.48 784.693 1603.75 C 755.57 1611.99 731.763 1621.13 703.892 1629.99 C 680.279 1614.15 643.965 1581.4 625.139 1559.86 C 650.956 1552.74 677.248 1545.96 703.877 1542.68 z" fill="rgb(253,250,244)" transform="translate(0,0)"></path>
<path d="M 1706.49 1350.04 C 1708.85 1350.54 1719.79 1358.5 1722.45 1360.31 C 1747.34 1377.31 1769.64 1394.43 1791.17 1415.5 C 1770.1 1423.43 1748.53 1432.38 1727.34 1440.53 L 1721.37 1436.09 C 1691.81 1414.69 1659.77 1401.23 1629.09 1377.59 C 1654.73 1365.84 1679.67 1358.35 1706.49 1350.04 z" fill="rgb(253,250,244)" transform="translate(0,0)"></path>
<path d="M 863.126 889.668 C 867.947 886.256 882.44 876.679 887.426 875.453 C 910.572 869.765 947.356 879.788 967.487 890.8 C 995.109 905.91 1025.99 924.884 1048.75 945.501 C 1090.41 983.249 1151.98 1068.72 1168.72 1120.59 L 1167.9 1125.02 C 1153.66 1101.06 1135.19 1075.17 1118.01 1053.3 C 1054.15 972.013 974.397 888.552 863.126 889.668 z" fill="rgb(230,128,101)" transform="translate(0,0)"></path>
<path d="M 787.724 1608.11 C 817.432 1637.17 848.127 1654.31 885.164 1672.35 C 871.37 1676.04 858.568 1680.26 845.067 1684.89 C 833.012 1689.02 823.244 1694.87 810.834 1690.62 C 773.669 1674.76 742.791 1658.9 709.72 1634.95 C 734.132 1625.12 762.479 1616.97 787.724 1608.11 z" fill="rgb(253,250,244)" transform="translate(0,0)"></path>
<path d="M 1275.48 1831.08 C 1278.66 1832.79 1284.12 1845.41 1286.29 1849.63 C 1295.76 1867.98 1305.18 1885.41 1317.1 1902.33 C 1289.47 1907.25 1261.99 1913.26 1234.92 1920.63 C 1234.35 1920.39 1233.79 1920.15 1233.22 1919.91 C 1213.12 1894.35 1204.73 1885.23 1187.1 1856.26 C 1214.55 1847.51 1247.18 1839.31 1275.48 1831.08 z" fill="rgb(253,250,244)" transform="translate(0,0)"></path>
<path d="M 1140.25 1765.99 C 1143.49 1767.63 1170.54 1840.05 1177.17 1853.1 C 1156.13 1857.19 1129.44 1865.24 1109.22 1872.35 L 1106.52 1872.96 C 1103.69 1869.99 1077.34 1803.24 1072.24 1791.3 C 1095.04 1782.93 1117.26 1774.19 1140.25 1765.99 z" fill="rgb(253,250,244)" transform="translate(0,0)"></path>
<path d="M 545.551 1455.12 C 546.438 1454.97 548.046 1455 549.009 1454.98 C 552.07 1458.73 554.681 1463.49 557.008 1467.76 C 573.826 1498.68 593.032 1527.04 613.574 1555.58 C 601.396 1559.09 574.766 1565.99 565.704 1573.37 C 540.424 1545.55 514.523 1502.55 494.789 1470.58 C 509.342 1464.58 530.297 1459.05 545.551 1455.12 z" fill="rgb(253,250,244)" transform="translate(0,0)"></path>
<path d="M 487.203 1351.06 L 488.692 1350.91 C 498.142 1355.9 539.434 1434.22 547 1448.33 C 530.244 1452.82 513.679 1458 497.346 1463.85 L 493.294 1465.62 C 486.758 1463.3 445.163 1380.23 439.363 1368.13 C 455.008 1361.63 470.975 1355.93 487.203 1351.06 z" fill="rgb(253,250,244)" transform="translate(0,0)"></path>
<path d="M 1408.85 1595.97 L 1409.61 1596.12 C 1414.94 1599.69 1431.93 1643.91 1434.88 1651.34 C 1424.95 1655.43 1348.56 1684.55 1343.49 1683.36 L 1341.05 1679.33 C 1329.28 1658.15 1322.11 1647.33 1306.67 1628.95 C 1341.91 1621.31 1375.4 1609.18 1408.85 1595.97 z" fill="rgb(253,250,244)" transform="translate(0,0)"></path>
<path d="M 1183.4 1670.87 C 1198.62 1677.31 1225.39 1710.34 1234.33 1725.29 L 1154.48 1755.2 L 1145.39 1758.19 C 1135.63 1737.25 1120.47 1717.94 1103.28 1702.59 C 1128.83 1691.9 1158.95 1682.57 1183.4 1670.87 z" fill="rgb(253,250,244)" transform="translate(0,0)"></path>
<path d="M 1589.19 1268.23 C 1594.76 1271.25 1626.6 1294.39 1633.53 1299.52 C 1655.7 1315.94 1679.26 1329.68 1701.12 1345.32 C 1694.84 1348.05 1683.58 1351.36 1676.76 1353.59 C 1658.56 1359.46 1640.65 1366.16 1623.07 1373.66 C 1609.63 1362.64 1596.3 1351.5 1583.06 1340.25 C 1585.82 1324.31 1587.8 1285.68 1589.19 1268.23 z" fill="rgb(253,250,244)" transform="translate(0,0)"></path>
<path d="M 1775.35 1795.13 C 1781.46 1793.87 1807.68 1827.47 1813.81 1834.23 C 1803.15 1836.2 1786.63 1841.1 1775.77 1843.98 C 1750.92 1850.39 1726.16 1857.17 1701.51 1864.32 C 1693.85 1866.53 1693.81 1866.47 1688.76 1860.28 C 1680.06 1849.64 1671.22 1839.11 1662.38 1828.6 C 1699.62 1816.08 1737.3 1804.92 1775.35 1795.13 z" fill="rgb(253,250,244)" transform="translate(0,0)"></path>
<path d="M 1179.18 1858.23 C 1182.07 1859.68 1188.56 1871.09 1191.15 1874.8 C 1201.28 1889.36 1215.37 1910.08 1228.02 1922.13 C 1218.07 1924.94 1166.93 1943.7 1161.11 1942.25 C 1137.26 1921.1 1123.27 1907.31 1108.17 1878.58 C 1131.62 1871.06 1155.31 1864.27 1179.18 1858.23 z" fill="rgb(253,250,244)" transform="translate(0,0)"></path>
<path d="M 1655.5 1830.08 C 1666.6 1842.64 1677.56 1855.32 1688.38 1868.12 L 1616.25 1888.61 C 1606.5 1891.3 1578.93 1897.95 1571.31 1901.79 C 1560.68 1891.33 1544.6 1878.17 1532.71 1866.91 C 1562.08 1860.24 1629.25 1840.3 1655.5 1830.08 z" fill="rgb(253,250,244)" transform="translate(0,0)"></path>
<path d="M 1792.33 1420.86 C 1794.79 1420.67 1793.88 1420.54 1796.16 1421.6 C 1813.18 1441.6 1830.15 1497.34 1836.64 1523.78 C 1821.18 1525.53 1811.74 1527.46 1796.93 1531.55 L 1792.53 1520.75 C 1779.51 1484.98 1762.47 1467.68 1733.72 1444.22 C 1753.35 1436.67 1772.89 1428.88 1792.33 1420.86 z" fill="rgb(253,250,244)" transform="translate(0,0)"></path>
<path d="M 1035.44 976.692 C 1041.32 978.378 1065.52 1004.44 1071.57 1010.69 C 1031.56 1034.03 988.719 1070.92 954.247 1101.51 C 947.342 1107.9 940.624 1114.49 934.099 1121.27 C 952.498 1060.97 989.515 1017.65 1035.44 976.692 z" fill="rgb(239,180,144)" transform="translate(0,0)"></path>
<path d="M 1893.02 1768.52 C 1904.26 1782.07 1915.79 1795.37 1927.61 1808.42 C 1899.34 1812.47 1850.13 1825.48 1820.78 1832.23 C 1807.94 1819.54 1797.08 1806.57 1785.61 1792.7 C 1812.19 1784.55 1865.64 1772.69 1893.02 1768.52 z" fill="rgb(253,250,244)" transform="translate(0,0)"></path>
<path d="M 615.201 1561.05 C 619.856 1560.41 626.64 1570.67 630.147 1574.43 C 650.098 1595.83 672.767 1614.62 695.849 1632.52 C 681.947 1638.2 670.005 1645.14 657.087 1652.54 C 654.05 1654.28 655.111 1654.11 652.435 1653.28 C 617.628 1628.71 597.129 1610.77 568.962 1578.1 C 583.53 1570.39 599.496 1565.89 615.201 1561.05 z" fill="rgb(253,250,244)" transform="translate(0,0)"></path>
<path d="M 1097.05 1704.92 C 1107.84 1709.08 1133.18 1748.01 1139.34 1759.75 C 1116.55 1768.83 1093.5 1777.25 1070.23 1785.01 C 1067.32 1783.35 1057.63 1764.09 1053.3 1758.94 C 1045.23 1749.34 1037.13 1743.16 1027.85 1734.87 C 1050.48 1723.9 1073.56 1713.91 1097.05 1704.92 z" fill="rgb(253,250,244)" transform="translate(0,0)"></path>
<path d="M 1835.55 1529.39 L 1836.59 1529.22 C 1837.04 1529.49 1837.49 1529.75 1837.93 1530.02 C 1848.68 1563.4 1862.88 1616.76 1873.73 1648.18 C 1862.11 1650.26 1851.37 1652.11 1839.91 1655 C 1836.18 1646.71 1830.55 1629.68 1827.2 1620.46 C 1817.05 1592.92 1807.63 1565.12 1798.93 1537.09 C 1811.08 1533.99 1823.12 1531.05 1835.55 1529.39 z" fill="rgb(253,250,244)" transform="translate(0,0)"></path>
<path d="M 409.559 1275.95 C 412.476 1276.59 419.094 1281.28 421.815 1283.08 C 446.708 1299.85 468.533 1320.78 486.338 1344.94 C 470.65 1349.73 456.559 1354.13 441.455 1360.76 L 437.473 1362.13 C 436.75 1361.89 436.028 1361.65 435.305 1361.4 C 427.68 1350.63 420.161 1339.66 410.854 1330.23 C 402.604 1321.88 393.398 1314.53 383.636 1308.03 C 377.523 1303.95 371.13 1300.32 364.741 1296.71 C 375.196 1289.78 396.516 1282.15 409.559 1275.95 z" fill="rgb(253,250,244)" transform="translate(0,0)"></path>
<path d="M 1155.67 918.051 C 1160.08 916.69 1188.86 942.056 1194.35 946.598 C 1164.13 958.265 1134.8 972.12 1106.6 988.051 C 1104.28 989.522 1104.23 989.602 1101.64 990.448 C 1090.24 977.128 1082.41 967.656 1070.02 955.257 C 1098.39 937.54 1124.09 927.731 1155.67 918.051 z" fill="rgb(239,180,144)" transform="translate(0,0)"></path>
<path d="M 807.1 1604.37 C 815.103 1603.07 847.119 1615.83 857.646 1618.73 C 895.591 1629.17 936.143 1639.42 975.259 1643.7 C 967.348 1646.74 956.04 1649.89 947.732 1652.47 C 931.304 1657.87 910.835 1665.68 894.521 1669.82 C 860.73 1654.98 822.517 1631.39 795.335 1606.54 C 799.133 1605.49 803.19 1604.98 807.1 1604.37 z" fill="rgb(253,250,244)" transform="translate(0,0)"></path>
<path d="M 613.152 1214.16 L 614.775 1214.99 C 615.532 1219.49 615.328 1224.23 615.365 1228.8 C 615.584 1256.02 615.55 1283.14 617.221 1310.33 L 608.122 1312.33 C 598.043 1300.77 587.753 1289.39 577.257 1278.2 C 562.445 1262.81 549.919 1251.26 534.134 1237.03 C 560.319 1228.88 586.664 1221.26 613.152 1214.16 z" fill="rgb(253,250,244)" transform="translate(0,0)"></path>
<path d="M 1022.92 1648.22 C 1033.38 1647.56 1066.64 1651.51 1080.64 1651.98 C 1108.17 1652.91 1135.32 1650.78 1162.08 1651.51 C 1166.62 1654.92 1174.61 1662.73 1179.78 1667.06 L 1156.24 1675.44 L 1097.72 1697.88 C 1075.56 1681.69 1047.23 1660.99 1022.92 1648.22 z" fill="rgb(253,250,244)" transform="translate(0,0)"></path>
<path d="M 1265.94 1026.24 L 1268.02 1025.98 C 1272.85 1028.16 1286.94 1046.91 1290.95 1052.04 C 1251.55 1062.12 1212.32 1074.58 1176 1093.09 L 1167.87 1097.73 C 1163.76 1088.85 1159.83 1079.9 1156.06 1070.87 C 1183.16 1053.19 1234.31 1033.54 1265.94 1026.24 z" fill="rgb(239,180,144)" transform="translate(0,0)"></path>
<path d="M 1513.35 1871.24 C 1518.37 1870.28 1522.21 1869.48 1527.19 1868.15 C 1536.24 1878.08 1554.23 1894.87 1565.02 1902.27 C 1532.71 1910.36 1502.11 1914.21 1469.43 1919.18 C 1459.19 1909 1447.52 1898.54 1436.91 1888.55 C 1463.16 1881.81 1484.27 1880.59 1513.35 1871.24 z" fill="rgb(253,250,244)" transform="translate(0,0)"></path>
<path d="M 1427.55 1890.39 L 1429.42 1890.12 C 1432.5 1891.98 1456.37 1915.38 1461.32 1920.03 C 1428.08 1925.83 1395.13 1929.65 1361.4 1935.89 L 1357.06 1936.77 C 1351.42 1934.72 1332.92 1912.27 1328.41 1906.62 C 1359.41 1899.93 1395.95 1894.85 1427.55 1890.39 z" fill="rgb(253,250,244)" transform="translate(0,0)"></path>
<path d="M 1874.54 1654.41 L 1875.77 1654.63 C 1877.6 1657.4 1888.83 1686.45 1891.45 1692.35 C 1902.38 1717 1912.52 1735.31 1926.93 1757.88 C 1916.05 1759.23 1906.83 1759.44 1895.7 1761.47 C 1876.19 1734.58 1855.7 1690.86 1841.98 1660.22 C 1853.28 1657.51 1863.07 1656.12 1874.54 1654.41 z" fill="rgb(253,250,244)" transform="translate(0,0)"></path>
<path d="M 356.95 1300.6 C 385.04 1312.81 416.111 1351.12 430.804 1377.13 L 412.887 1371.06 C 393.344 1364.62 354.889 1352.93 334.663 1348.59 C 334.652 1347.45 334.647 1346.31 334.648 1345.16 C 334.683 1323.11 342.236 1315.3 356.95 1300.6 z" fill="rgb(253,250,244)" transform="translate(0,0)"></path>
<path d="M 1316.7 1908.29 C 1324.2 1906.82 1342.67 1932.36 1348.48 1939.18 C 1323.1 1945.76 1298.35 1951.83 1273.56 1960.44 C 1263.46 1949.18 1250.29 1936.75 1239.38 1925.96 C 1263.91 1918.82 1291.63 1913.01 1316.7 1908.29 z" fill="rgb(253,250,244)" transform="translate(0,0)"></path>
<path d="M 1897.57 1373.96 C 1899.26 1374.01 1898.31 1373.85 1900.34 1374.77 C 1901.82 1380.86 1900.9 1399.81 1900.71 1407.36 C 1874.44 1419.38 1848.6 1432.15 1822.11 1443.72 L 1817.55 1435.45 C 1814.26 1429.26 1810.37 1423.01 1806.75 1416.98 C 1817.49 1413.28 1836.41 1403.27 1846.97 1398.05 C 1863.74 1389.82 1880.6 1381.79 1897.57 1373.96 z" fill="rgb(230,158,139)" transform="translate(0,0)"></path>
<path d="M 1247.09 902.411 C 1274.7 899.211 1333.25 905.059 1359.15 915.2 C 1341.7 915.878 1323.02 919.399 1305.76 922.345 C 1283.84 925.646 1256.59 929.903 1235.65 935.6 C 1224.76 924.934 1216.34 916.97 1204.41 907.621 C 1219.18 905.567 1232.22 903.722 1247.09 902.411 z" fill="rgb(239,180,144)" transform="translate(0,0)"></path>
<path d="M 702.82 1636.92 C 731.738 1660.32 770.053 1679.44 804.591 1693.38 C 791.15 1693.04 777.164 1691.34 763.808 1689.73 C 723.019 1685.26 697.271 1674.96 661.169 1657.42 C 675.529 1649.67 687.915 1643.39 702.82 1636.92 z" fill="rgb(253,250,244)" transform="translate(0,0)"></path>
<path d="M 488.644 1221.12 C 496.925 1219.74 512.304 1230.09 519.274 1234.46 C 487.984 1243.41 456.277 1252.49 425.85 1264.07 C 421.969 1265.55 413.407 1269.37 409.69 1269.52 C 397.525 1263.55 387.543 1258.86 374.684 1254.67 C 403.616 1244.06 459.864 1228.31 488.644 1221.12 z" fill="rgb(253,250,244)" transform="translate(0,0)"></path>
<path d="M 1232.76 1927.33 C 1235.03 1928.91 1241.47 1936.27 1243.62 1938.63 C 1251.89 1947.72 1257.5 1954.01 1267.29 1961.41 C 1248.11 1967.99 1225.81 1977.87 1206.13 1971.77 C 1190.5 1964.31 1181.44 1958.51 1168.44 1947.26 C 1189.9 1940.48 1211.04 1933.26 1232.76 1927.33 z" fill="rgb(253,250,244)" transform="translate(0,0)"></path>
<path d="M 1338.99 1015.45 C 1368.91 1014.57 1430.78 1019.59 1457.64 1031.16 C 1441.31 1030.84 1424.98 1031.4 1408.72 1032.84 C 1378.03 1034.54 1347.54 1038.88 1317.59 1045.82 C 1312.49 1036 1306.95 1026.42 1300.97 1017.12 C 1313.63 1016.38 1326.31 1015.83 1338.99 1015.45 z" fill="rgb(239,180,144)" transform="translate(0,0)"></path>
<path d="M 1006.02 854.945 C 1019.72 854.013 1052.22 864.507 1065.93 869.703 C 1047.98 878.699 1030.98 883.161 1010.83 894.092 L 1000.83 899.884 C 984.419 889.04 975.493 884.259 957.715 875.806 C 973.337 867.39 990.01 862.528 1006.02 854.945 z" fill="rgb(239,180,144)" transform="translate(0,0)"></path>
<path d="M 319.466 1283.94 C 332.953 1288 339.521 1290.35 351.798 1297.06 C 337.874 1307.59 331.482 1318.99 328.233 1336.08 C 327.488 1340 327.963 1343.61 326.038 1346.64 L 322.785 1346.08 C 307.378 1342.05 301.267 1338.96 288.029 1330.07 C 292.014 1311.36 304.594 1295.46 319.466 1283.94 z" fill="rgb(253,250,244)" transform="translate(0,0)"></path>
<path d="M 1568.25 1448.42 C 1585.7 1463.3 1595.99 1471.68 1614.87 1484.9 C 1595.48 1493.01 1576.2 1501.39 1557.03 1510.03 C 1546.59 1514.45 1535.39 1520.04 1524.82 1524.74 C 1551.2 1496.29 1556.38 1486.39 1568.25 1448.42 z" fill="rgb(253,250,244)" transform="translate(0,0)"></path>
<path d="M 1064.27 1153.79 C 1080.02 1130.01 1106.5 1097.11 1132.18 1083.69 C 1137.91 1092.16 1143.48 1100.74 1148.89 1109.43 C 1129.43 1119.04 1111.13 1130.82 1092.86 1142.5 C 1087.64 1145.84 1075.87 1156.48 1072.2 1158.51 C 1068.67 1155.77 1068.33 1155.49 1064.27 1153.79 z" fill="rgb(239,180,144)" transform="translate(0,0)"></path>
<path d="M 1119.67 820.417 C 1142.8 816.723 1181.76 825.3 1204.88 831.291 C 1186.02 833.948 1170.79 836.446 1152.26 840.781 C 1141.96 843.243 1133.44 845.685 1123.62 849.557 C 1106.51 840.873 1094.02 834.75 1076.17 827.91 C 1090.69 823.388 1104.67 821.796 1119.67 820.417 z" fill="rgb(239,180,144)" transform="translate(0,0)"></path>
<path d="M 578.769 1197.25 C 591.873 1195.44 605.631 1198.71 616.867 1205.65 C 592.974 1213.93 564.593 1220.28 538.678 1229.01 L 526.492 1232.62 C 517.911 1226.32 511.535 1222.68 502.147 1217.8 C 527.65 1211.65 552.544 1203.3 578.769 1197.25 z" fill="rgb(253,250,244)" transform="translate(0,0)"></path>
<path d="M 1929.5 1763.48 C 1931.19 1764.05 1960.56 1799.73 1964.77 1804.32 C 1954.52 1804.25 1945.88 1805.64 1935.91 1807.66 C 1931.28 1805.3 1905.09 1773.24 1900.31 1767.4 L 1929.5 1763.48 z" fill="rgb(253,250,244)" transform="translate(0,0)"></path>
<path d="M 364.883 1258.13 C 375.04 1260.84 394.267 1267.65 402.59 1273.03 C 385.451 1280.25 376.801 1280.81 361.487 1291.57 C 361.147 1291.81 358.699 1293.2 358.537 1293.11 C 347.827 1287.53 337.205 1282.66 325.709 1278.99 C 335.695 1271.48 353.286 1263.7 364.883 1258.13 z" fill="rgb(253,250,244)" transform="translate(0,0)"></path>
<path d="M 948.418 852.411 C 959.791 851.257 980.661 852.128 992.202 852.449 C 984.9 855.531 948.66 872.086 944.688 871.928 C 925.648 866.134 917.145 864.967 897.287 864.628 C 915.606 855.283 928.122 853.742 948.418 852.411 z" fill="rgb(230,128,101)" transform="translate(0,0)"></path>
<path d="M 1582.3 1346.49 C 1587.73 1350.18 1609.01 1369.97 1615.88 1375.95 L 1600.38 1383.24 L 1577.55 1393.95 L 1582.3 1346.49 z" fill="rgb(253,250,244)" transform="translate(0,0)"></path>
<path d="M 892.979 1676.12 C 905.275 1682.34 919.715 1688.76 932.474 1694.09 C 915.636 1693.44 898.782 1693.26 881.934 1693.58 C 867.56 1693.4 855.98 1693.08 841.548 1693.79 C 854.332 1687.42 878.407 1680.8 892.979 1676.12 z" fill="rgb(253,250,244)" transform="translate(0,0)"></path>
<path d="M 1170.7 1650.23 C 1190.46 1648.71 1208.35 1647.14 1228 1644.52 L 1228.65 1647.96 C 1214.47 1653.37 1200.9 1659 1186.55 1664.23 C 1181.23 1659.6 1175.95 1654.94 1170.7 1650.23 z" fill="rgb(253,250,244)" transform="translate(0,0)"></path>
<path d="M 1064.27 1153.79 C 1068.33 1155.49 1068.67 1155.77 1072.2 1158.51 C 1064.07 1165.53 1057.34 1171.45 1049.67 1179.04 C 1054.44 1169.69 1058.77 1162.65 1064.27 1153.79 z" fill="rgb(244,222,217)" transform="translate(0,0)"></path>
<path d="M 779.89 1591.06 C 783.251 1590.38 797.267 1597.26 801.071 1598.98 C 797.94 1599.9 792.431 1601.31 789.676 1602.6 L 779.89 1591.06 z" fill="rgb(253,250,244)" transform="translate(0,0)"></path>
<path d="M 610.468 1189.08 L 612.504 1189.07 C 615.281 1190.92 614.064 1189.69 615.367 1193.72 C 614.428 1196.78 615.347 1195.7 612.625 1197.18 L 608.192 1195.52 L 596.344 1192.74 L 610.468 1189.08 z" fill="rgb(253,250,244)" transform="translate(0,0)"></path>
<path d="M 1228 1644.52 L 1244.46 1642.27 L 1228.65 1647.96 L 1228 1644.52 z" fill="rgb(253,250,244)" transform="translate(0,0)"></path>
<path d="M 1167.9 1125.02 L 1168.72 1120.59 C 1171.44 1127.31 1173.62 1132.42 1175.45 1139.45 L 1167.9 1125.02 z" fill="rgb(230,158,139)" transform="translate(0,0)"></path>
<path d="M 698.34 203.413 C 770.194 197.783 892.083 223.889 939.975 280.446 C 981.804 252.987 1030.05 235.968 1012.77 312.056 C 1008.63 330.271 998.268 352.01 990.061 369.005 C 931.958 489.334 843.823 593.729 757.599 694.759 C 709.234 751.257 659.768 808.103 605.933 859.156 C 522.429 938.347 431.834 1015.55 332.538 1074.15 C 311.623 1085.85 270.748 1109.18 247.968 1107.57 C 207.435 1104.71 243.124 1039.94 244.754 1021.62 C 212.379 996.134 182.186 944.708 169.51 906.128 C 132.917 794.753 168.321 687.461 218.601 587.665 C 194.039 582.574 163.238 579.873 148.39 556.637 C 140.237 543.877 139.386 530.432 142.797 516.048 C 160.875 439.829 277.284 311.148 344.028 270.2 C 365.601 256.965 392.724 246.824 418.189 253.17 C 438.055 258.121 451.794 270.949 462.151 288.111 C 476.995 274.843 498.76 263.235 516.682 254.106 C 576.489 223.643 631.56 208.601 698.34 203.413 z" fill="rgb(156,6,22)" transform="translate(0,0)"></path>
<path d="M 466.596 294.42 C 490.074 280.996 512.375 265.804 537.45 254.618 C 624.609 215.346 726.401 200.666 819.317 226.434 C 853.44 234.162 921.076 264.543 938.614 294.418 C 961.597 333.566 903.71 422.515 881.638 455.672 C 775.443 615.198 641.365 759.059 500.173 888.14 C 447.846 935.978 392.83 981.331 330.348 1015.13 C 311.783 1025.06 284.723 1035.23 263.159 1030.7 C 261.595 1030.38 260.377 1028.42 258.322 1027.53 C 258.219 1028.97 257.776 1029.6 258.855 1030.74 C 262.679 1034.79 271.594 1036.23 276.899 1036.11 C 388.713 1033.5 613.781 790.08 689.306 707.447 C 749.359 641.743 956.993 397.054 953.572 313.277 C 953.19 303.942 950.274 297.001 945.89 289.009 C 989.487 261.453 1021.39 252.871 998.692 320.502 C 982.753 368.004 957.339 410.148 930.412 452.053 C 902.95 494.743 873.663 536.231 842.634 576.404 C 806.034 623.198 766.898 668.299 727.585 712.78 C 686.826 758.896 646.994 807.771 601.681 849.65 C 534.234 911.563 467.256 971.925 391.142 1023.28 C 359.592 1044.56 332.87 1062.67 298.702 1080.12 C 224.627 1117.97 234.574 1081.03 256.702 1024.19 C 240.157 1003.97 224.138 984.093 210.901 961.473 C 176.72 903.062 167.381 833.828 174.016 767.298 C 178.987 717.442 208.925 634.711 234.726 591.001 C 249.081 595.027 262.572 599.793 276.547 604.963 C 267.788 630.874 256.947 656.423 249.249 682.722 C 225.103 765.206 209.86 857.082 243.988 939.143 C 245.125 941.876 246.7 944.409 248.799 946.457 L 250.412 946.782 C 228.504 886 227.048 836.18 240.322 773.317 C 246.128 725.197 265.741 650.48 283.708 606.299 C 288.986 608.693 294.724 610.772 300.154 612.863 C 270.725 578.769 203.732 585.997 168.979 564.586 C 160.081 559.103 152.919 550.439 150.67 540.093 C 143.82 508.573 170.172 470.26 186.22 444.949 C 223.062 386.842 315.574 274.554 384.527 259.689 C 401.382 256.055 417.376 257.854 432.038 267.59 C 457.774 284.681 463.552 308.901 469.128 337.469 C 455.184 346.406 443.114 356.352 431.015 367.567 C 432.97 362.411 436.044 352.003 438.844 348.213 C 440.183 348.917 441.122 349.691 442.277 350.654 L 444.026 350.177 C 447.364 342.612 438.916 327.748 434.908 320.991 C 427.593 308.657 414.483 298.462 400.334 295.398 C 385.187 292.118 369.838 302.311 357.688 310.14 C 326.215 331.273 298.103 357.282 273.213 385.81 C 264.15 396.198 254.691 406.51 246.162 417.348 C 225.965 443.016 205.885 470.135 192.014 499.82 C 188.141 508.111 186.18 516.9 184.35 525.769 C 188.977 525.861 195.64 525.798 199.77 527.849 C 245.883 538.536 277.44 562.694 305.437 600.509 C 308.717 593.417 294.282 577.291 289.88 570.499 C 298.288 555.458 306.763 540.442 315.023 525.32 C 321.796 512.919 334.823 503.953 345.806 495.141 C 338.546 522.261 335.03 554.623 332.491 582.621 C 324.415 671.703 329.135 766.34 374.606 845.745 C 384.221 862.536 398.445 880.764 413.713 892.809 C 405.739 880.879 397.846 872.365 393.236 858.845 C 366.904 816.275 347.291 756.437 344.112 706.987 C 343.97 702.037 342.951 696.742 342.693 691.738 C 339.324 626.259 336.704 555.56 350.655 491.396 C 353.884 488.268 357.877 484.937 361.298 481.931 C 364.092 495.885 367.283 509.756 370.868 523.528 C 389.697 594.386 457.703 734.598 522.513 771.558 C 536.657 779.625 551.585 781.879 567.426 777.494 C 616.238 763.98 689.005 677.18 714.257 631.9 C 728.427 606.493 738.528 579.081 730.025 550.002 C 720.068 515.95 684.446 485.726 654.227 469.619 C 578.533 429.271 473.272 425.502 391.982 449.934 C 395.371 445.879 399.516 441.041 403.682 437.899 C 423.136 423.223 475.581 394.24 497.909 390.585 C 513.485 384.09 527.899 377.835 544.234 373.365 C 620.198 348.556 726.507 344.862 800.632 378.336 C 818.78 386.531 835.588 401.199 837.75 422.173 C 838.493 424.789 837.757 431.443 837.325 434.522 C 829.976 486.928 788.75 539.746 759.911 582.922 C 750.493 597.022 740.68 610.517 731.481 624.042 C 724.718 633.986 703.977 660.013 700.244 668.49 L 701.098 669.008 C 745.489 601.278 822.013 525.763 845.233 448.351 C 874.331 351.345 728.626 340.557 667.409 341.09 C 561.819 342.008 490.455 376.376 404.194 430.138 C 414.606 408.065 415.894 402.841 419.251 379.226 C 413.373 364.879 408.425 365.806 393.985 365.723 C 400.668 358.48 418.854 338.161 427.063 335.628 C 437.5 338.534 422.453 373.577 419.86 381.423 C 420.783 381.634 425.551 382.347 426.003 381.926 C 441.706 367.53 458.674 353.625 476.928 342.557 C 505.897 324.992 537.14 306.311 568.986 294.614 C 595.725 283.55 623.327 274.701 651.515 268.158 C 731.28 250.075 836.781 242.169 908.986 287.741 C 912.315 270.694 838.629 251.455 823.662 249.047 C 721.812 232.659 612.5 264.136 521.263 308.341 C 509.204 314.299 489.217 324.563 478.504 331.79 C 477.692 332.331 476.889 332.885 476.094 333.451 C 474.516 317.338 473.409 309.203 466.596 294.42 z" fill="rgb(212,32,40)" transform="translate(0,0)"></path>
<path d="M 544.234 373.365 C 620.198 348.556 726.507 344.862 800.632 378.336 C 818.78 386.531 835.588 401.199 837.75 422.173 L 837.139 424.951 C 835.118 424.072 830.63 410.743 827.922 407.589 C 792.007 365.755 712.551 361.251 661.068 360.853 C 625.847 360.58 581.273 366.411 548.323 375.431 L 544.234 373.365 z" fill="rgb(253,250,244)" transform="translate(0,0)"></path>
<path d="M 568.986 294.614 C 595.725 283.55 623.327 274.701 651.515 268.158 C 731.28 250.075 836.781 242.169 908.986 287.741 C 913.822 292.165 915.952 294.22 920.213 299.314 C 835.644 245.655 728.898 256.049 635.566 276.372 C 623.192 279.066 576.032 294.958 568.986 294.614 z" fill="rgb(253,250,244)" transform="translate(0,0)"></path>
<path d="M 240.322 773.317 C 242.456 788.416 239.149 811.857 238.363 828.076 C 235.533 886.461 243.709 920.209 265.953 972.941 C 257.787 962.784 256.187 955.405 250.412 946.782 C 228.504 886 227.048 836.18 240.322 773.317 z" fill="rgb(253,250,244)" transform="translate(0,0)"></path>
<path d="M 344.112 706.987 C 348.056 712.163 359.02 756.518 360.746 766.124 C 364.326 786.053 394.313 846.092 393.236 858.845 C 366.904 816.275 347.291 756.437 344.112 706.987 z" fill="rgb(253,250,244)" transform="translate(0,0)"></path>
<path d="M 199.77 527.849 C 245.883 538.536 277.44 562.694 305.437 600.509 C 300.825 600.378 287.387 584.944 282.898 580.573 C 266.34 564.133 248.847 550.345 227.694 540.179 C 219.099 536.048 207.506 532.84 199.77 527.849 z" fill="rgb(253,250,244)" transform="translate(0,0)"></path>
<path d="M 497.909 390.585 C 513.485 384.09 527.899 377.835 544.234 373.365 L 548.323 375.431 C 537.157 378.107 504.178 391.302 497.909 390.585 z" fill="rgb(253,250,244)" transform="translate(0,0)"></path>
<path d="M 595.029 769.961 L 595.715 770.533 C 593.845 773.317 590.156 776.562 587.967 779.348 C 577.902 792.163 561.9 806.979 550.426 818.291 C 503.467 864.586 351.406 1001.2 292.444 1018.5 C 292.11 1018.53 292.357 1018.56 291.598 1017.96 C 326.873 1003.62 368.334 970.838 398.049 946.97 C 444.865 909.366 491.706 870.913 535.263 829.533 C 548.648 816.719 561.878 803.744 574.951 790.611 C 582.071 783.403 587.476 776.973 595.029 769.961 z" fill="rgb(156,6,22)" transform="translate(0,0)"></path>
<path d="M 473.853 443.433 C 493.083 442.856 512.331 443.417 531.495 445.113 C 593.401 450.904 658.892 471.642 699.716 521.47 C 736.136 565.924 722.5 607.346 691.885 650.334 C 664.349 689 633.829 722.982 596.497 752.714 C 561.95 778.096 533.842 774.88 504.275 744.076 C 433.891 670.748 392.046 575.385 365.411 479.003 C 374.274 470.611 381.435 462.461 389.238 453.218 C 401.95 451.884 416.258 448.83 429.243 447.053 C 444.832 444.921 458.124 444.13 473.853 443.433 z" fill="rgb(212,32,40)" transform="translate(0,0)"></path>
<path d="M 383.738 302.023 C 398.38 301.27 412.156 313.064 421.496 323.151 C 408.299 336.449 389.647 353.251 381.765 369.529 C 330.567 387.37 277.639 454.269 262.948 506.487 C 261.797 510.578 262.073 517.249 262.205 521.649 L 251.066 536.881 L 239.687 530.999 C 222.456 522.904 212.214 520.477 193.993 517.027 C 195.794 511.148 197.984 505.395 200.547 499.807 C 224.19 447.885 329.671 321.962 383.738 302.023 z" fill="rgb(253,250,244)" transform="translate(0,0)"></path>
<path d="M 391.068 377.25 C 410.189 375.282 410.436 384.928 405.624 401.227 C 396.106 433.468 371.591 461.551 346.761 483.53 C 328.23 499.934 305.001 517.524 283.351 529.52 C 278.692 531.623 277.415 532.515 272.704 529.763 C 259.834 513.748 287.968 469.771 297.619 455.311 C 316.388 427.191 356.891 384.009 391.068 377.25 z" fill="rgb(212,32,40)" transform="translate(0,0)"></path>
<path d="M 308.164 525.143 C 308.674 528.054 288.953 559.947 285.818 565.214 C 282.74 562.162 279.345 558.244 276.372 554.996 C 271.258 549.746 268.266 546.848 262.602 542.247 C 267.412 540.556 273.89 539.356 279.058 537.922 C 290.628 534.71 297.812 530.977 308.164 525.143 z" fill="rgb(212,32,40)" transform="translate(0,0)"></path>
<path d="M 1790.47 58.4137 C 1833.77 73.1401 1876.71 125.063 1902.26 162.195 C 1887.86 170.11 1863.93 181.954 1851 190.323 L 1853.36 192.288 C 1864.34 188.842 1894.51 171.346 1904.47 164.822 C 1921.59 189.993 1931.52 207.078 1945.36 234.134 L 1946.91 236.183 C 1956.9 256.145 1973 292.763 1977.46 313.352 C 1967.4 322.315 1954.6 326.079 1942 330.581 C 1940.28 331.257 1939.6 331.234 1938.47 332.385 C 1924.37 340.348 1892.28 353.813 1876.89 360.493 L 1873.71 361.628 C 1852.47 371.148 1830.96 380.532 1809.83 390.271 L 1807.45 391.301 C 1795.82 395.086 1750.45 415.182 1738.94 421.703 C 1736.72 423.1 1737.03 423.475 1735.06 423.499 C 1725.72 426.652 1712.26 433.502 1702.93 437.637 C 1694.28 441.465 1680.29 447.23 1672.54 451.932 L 1669.5 452.955 C 1661.99 454.235 1637.44 467.512 1625.49 471.238 C 1598.83 456.019 1565.36 404.773 1550.84 377.299 C 1561.67 368.935 1591.04 351.587 1597.46 345.354 L 1596.57 342.586 C 1580.51 351.017 1563.46 362.923 1548.4 373.074 C 1536.72 356.343 1527.78 338.577 1516.95 321.646 L 1516.69 321.562 L 1515.44 317.864 C 1486.8 276.255 1508.51 274.935 1543.79 248.333 C 1560.04 237.638 1583.68 218.295 1599.53 205.967 L 1601.36 204.14 C 1615.59 195.037 1640.01 174.99 1654.82 164.085 C 1675.6 149.339 1694.85 133.62 1714.94 118.006 C 1728.58 108.382 1741.68 97.1359 1754.99 87.1086 C 1768.75 76.748 1777.94 70.2572 1790.47 58.4137 z" fill="rgb(253,250,244)" transform="translate(0,0)"></path>
<path d="M 1790.47 58.4137 C 1833.77 73.1401 1876.71 125.063 1902.26 162.195 C 1887.86 170.11 1863.93 181.954 1851 190.323 C 1837.46 169.784 1824.44 148.917 1811.92 127.739 C 1818.11 124.535 1848.68 109.219 1852.59 105.536 L 1851.86 104.286 C 1845.75 104.018 1817.23 120.83 1809.95 125.016 C 1801.39 111.728 1783.02 78.1143 1774.52 68.9105 C 1779.67 84.2077 1797.46 111.905 1806.64 126.767 C 1788.39 136.094 1762.83 151.79 1745.21 162.525 C 1740.67 154.6 1721.35 122.748 1714.94 118.006 C 1728.58 108.382 1741.68 97.1359 1754.99 87.1086 C 1768.75 76.748 1777.94 70.2572 1790.47 58.4137 z" fill="rgb(212,32,40)" transform="translate(0,0)"></path>
<path d="M 1597.46 345.354 C 1601.11 347.221 1630.35 397.306 1637.72 406.831 C 1623.77 414.854 1598.46 428.168 1588.05 438.771 C 1600.32 434.613 1629.43 417.006 1640.16 408.998 C 1648.14 420.692 1661.83 443.083 1669.5 452.955 C 1661.99 454.235 1637.44 467.512 1625.49 471.238 C 1598.83 456.019 1565.36 404.773 1550.84 377.299 C 1561.67 368.935 1591.04 351.587 1597.46 345.354 z" fill="rgb(212,32,40)" transform="translate(0,0)"></path>
<path d="M 1834.89 298.827 C 1854.58 287.137 1874.93 277.151 1893.95 265.801 C 1905.65 285.432 1925.28 312.119 1938.47 332.385 C 1924.37 340.348 1892.28 353.813 1876.89 360.493 C 1864.92 339.215 1848.6 319.693 1834.89 298.827 z" fill="rgb(212,32,40)" transform="translate(0,0)"></path>
<path d="M 1770.81 334.945 C 1788.93 324.964 1814.42 311.32 1831.33 300.264 C 1840.85 316.925 1861.88 343.413 1873.71 361.628 C 1852.47 371.148 1830.96 380.532 1809.83 390.271 C 1800.1 374.467 1782.11 350.129 1770.81 334.945 z" fill="rgb(212,32,40)" transform="translate(0,0)"></path>
<path d="M 1904.47 164.822 C 1921.59 189.993 1931.52 207.078 1945.36 234.134 C 1931.27 240.153 1908.43 253.653 1894.46 261.454 C 1888.78 251.318 1854.48 199.064 1853.36 192.288 C 1864.34 188.842 1894.51 171.346 1904.47 164.822 z" fill="rgb(212,32,40)" transform="translate(0,0)"></path>
<path d="M 1767.98 336.339 C 1776.63 352.109 1796.33 377.346 1807.45 391.301 C 1795.82 395.086 1750.45 415.182 1738.94 421.703 C 1728.68 408.364 1715.13 387.052 1704.28 372.201 C 1725.62 360.443 1746.86 348.489 1767.98 336.339 z" fill="rgb(212,32,40)" transform="translate(0,0)"></path>
<path d="M 1896.78 264.694 C 1912.56 256.088 1932.04 245.878 1946.91 236.183 C 1956.9 256.145 1973 292.763 1977.46 313.352 C 1967.4 322.315 1954.6 326.079 1942 330.581 C 1937.88 325.449 1929.67 312.114 1925.69 306.14 C 1916.43 292.068 1906.79 278.248 1896.78 264.694 z" fill="rgb(212,32,40)" transform="translate(0,0)"></path>
<path d="M 1643.16 407.569 C 1660.77 397.578 1684.59 384.976 1701.01 373.991 C 1706.4 382.386 1732.87 417.217 1735.06 423.499 C 1725.72 426.652 1712.26 433.502 1702.93 437.637 C 1694.28 441.465 1680.29 447.23 1672.54 451.932 C 1662.9 436.127 1653.81 422.699 1643.16 407.569 z" fill="rgb(212,32,40)" transform="translate(0,0)"></path>
<path d="M 1516.95 321.646 C 1522.59 315.012 1554.32 293.484 1562.86 286.492 C 1566.17 292.193 1596.4 341.433 1596.57 342.586 C 1580.51 351.017 1563.46 362.923 1548.4 373.074 C 1536.72 356.343 1527.78 338.577 1516.95 321.646 z" fill="rgb(212,32,40)" transform="translate(0,0)"></path>
<path d="M 1654.82 164.085 C 1675.6 149.339 1694.85 133.62 1714.94 118.006 C 1716.92 126.539 1736.37 156.369 1742.39 164.602 L 1681.16 202.485 C 1676.2 194.353 1661.19 167.766 1654.82 164.085 z" fill="rgb(212,32,40)" transform="translate(0,0)"></path>
<path d="M 1601.36 204.14 C 1615.59 195.037 1640.01 174.99 1654.82 164.085 C 1656.33 172.728 1672.47 195.455 1678.14 204.262 C 1660.22 214.702 1639.05 228.757 1622.23 240.748 C 1617.26 231.801 1606.94 211.991 1601.36 204.14 z" fill="rgb(212,32,40)" transform="translate(0,0)"></path>
<path d="M 1599.53 205.967 C 1604.88 216.684 1612.59 232.45 1619.24 242.163 C 1600.11 255.16 1582.57 267.766 1563.77 281.205 C 1559.84 273.907 1549.29 253.158 1543.79 248.333 C 1560.04 237.638 1583.68 218.295 1599.53 205.967 z" fill="rgb(212,32,40)" transform="translate(0,0)"></path>
<path d="M 1543.79 248.333 C 1543.87 258.117 1555.62 274.051 1560.74 283.299 C 1544.42 294.815 1530.34 304.539 1515.44 317.864 C 1486.8 276.255 1508.51 274.935 1543.79 248.333 z" fill="rgb(212,32,40)" transform="translate(0,0)"></path>
<path d="M 1721.68 269.238 C 1722.9 270.45 1732.94 285.703 1734.8 288.482 C 1744.94 303.718 1755.21 318.87 1765.6 333.938 C 1744.86 344.767 1724.42 356.172 1704.32 368.14 C 1703.29 368.665 1703.96 368.428 1702.2 368.445 C 1687.89 348.088 1675.25 326.247 1660.85 306.317 C 1680.97 293.385 1701.44 281.866 1721.68 269.238 z" fill="rgb(212,32,40)" transform="translate(0,0)"></path>
<path d="M 1785.11 232.086 C 1790.06 235.771 1821.21 287.646 1829.51 297.511 C 1809.7 307.321 1788.66 320.443 1769.66 332.029 C 1767.79 331.416 1729.75 274.633 1724.93 267.693 C 1742.23 258.825 1768.23 242.355 1785.11 232.086 z" fill="rgb(212,32,40)" transform="translate(0,0)"></path>
<path d="M 1849.35 195.037 C 1863.14 217.964 1877.36 240.625 1892.02 263.009 C 1871.75 273.861 1851.91 284.295 1832.08 295.96 C 1823.23 280.414 1799.55 246.407 1788.64 230.374 C 1803.21 222.864 1837.26 204.114 1849.35 195.037 z" fill="rgb(212,32,40)" transform="translate(0,0)"></path>
<path d="M 1808.11 129.992 C 1808.44 130.151 1844.15 186.452 1847.72 191.841 C 1829.28 202.297 1803.73 215.896 1787.05 227.895 C 1773.99 211.712 1760.04 184.074 1746.79 166.339 C 1765.2 156.469 1790.22 141.162 1808.11 129.992 z" fill="rgb(212,32,40)" transform="translate(0,0)"></path>
<path d="M 1743.62 167.866 C 1747.91 171.785 1777.84 221.024 1783.73 229.607 C 1763.03 240.885 1742.56 252.59 1722.34 264.713 C 1714.48 253.029 1706.72 241.269 1699.08 229.436 C 1694.67 222.673 1688.26 211.987 1682.99 206.324 C 1702.96 194.483 1724.21 180.582 1743.62 167.866 z" fill="rgb(212,32,40)" transform="translate(0,0)"></path>
<path d="M 1657.36 307.959 C 1658.61 308.436 1694.22 363.609 1699.28 370.719 C 1680.55 381.406 1661.94 392.296 1643.44 403.387 L 1641.63 403.895 C 1637.05 400.785 1606.81 351.612 1601.74 343.674 C 1620.6 332.278 1639.15 320.368 1657.36 307.959 z" fill="rgb(212,32,40)" transform="translate(0,0)"></path>
<path d="M 1680.19 207.9 L 1681.05 207.983 C 1694.3 228.024 1705.03 246.978 1719.98 266.383 C 1701.07 276.215 1679.78 289.374 1661.42 300.503 L 1659.13 301.57 C 1655.35 299.573 1628.35 251.485 1623.51 243.134 C 1641.34 233.772 1662.9 219.028 1680.19 207.9 z" fill="rgb(212,32,40)" transform="translate(0,0)"></path>
<path d="M 1620.13 245.848 C 1621.93 246.628 1651.08 296.806 1655.92 304.316 C 1637.53 315.317 1618.63 328.043 1600.6 339.78 C 1597.26 338.371 1570.84 292.046 1566 284.792 C 1583.63 271.503 1602.14 258.735 1620.13 245.848 z" fill="rgb(212,32,40)" transform="translate(0,0)"></path>
<path d="M 1486.65 312.125 L 1495.64 308.232 C 1507.19 324.965 1515.86 341.433 1526.59 358.387 C 1546.01 389.336 1566.84 419.375 1589.01 448.412 L 1576.43 456.306 C 1569.31 461.657 1561.78 468.919 1557.91 477.104 C 1528.03 540.22 1509.05 606.544 1469.35 665.022 C 1444.42 701.737 1439.67 705.761 1397.93 716.764 C 1407.72 706.33 1449.41 649.16 1445.77 634.862 C 1444.45 634.537 1443.76 634.045 1443.06 634.906 C 1437.25 642.011 1431.06 657.772 1426.33 666.289 C 1416.37 684.427 1404.3 701.319 1390.36 716.61 C 1379.2 720.467 1340.4 725.356 1327.41 726.482 C 1355.98 707.312 1394.14 653.996 1406 620.384 C 1406.4 619.251 1406.08 617.704 1405.77 616.547 L 1403.97 615.344 C 1400.09 616.275 1397.79 626.376 1395.79 630.753 C 1380.04 665.183 1349.68 705.38 1317.31 725.482 C 1311.79 728.909 1273.64 727.103 1267.01 724.68 C 1264.67 724.42 1264.96 724.436 1262.68 723.721 C 1253.24 725.551 1222.81 720.866 1227.62 705.418 C 1232.16 691.841 1242.87 680.718 1250.65 668.777 C 1280.86 622.391 1306.11 571.924 1324.68 519.76 C 1327.32 512.34 1333.03 497.998 1333.56 490.376 L 1332.97 489.416 C 1331.48 486.991 1320.22 494.507 1317.42 495.579 C 1281.01 509.519 1210.79 557.699 1184.74 505.33 C 1161.07 457.744 1218.41 439.231 1250.13 423.116 C 1265.4 415.361 1280.61 409.338 1295.9 401.761 C 1359.94 372.379 1423.73 343.948 1486.65 312.125 z" fill="rgb(212,32,40)" transform="translate(0,0)"></path>
<path d="M 1262.68 723.721 C 1265.09 719.699 1288.36 702.239 1293.82 696.824 C 1313.88 676.945 1326.54 654.665 1340.24 630.387 C 1344.99 622.102 1350.53 602.652 1357.08 597.127 L 1358.92 597.388 C 1360.78 604.566 1338.19 644.942 1333.77 652.549 C 1317.99 679.7 1293.65 707.768 1267.01 724.68 C 1264.67 724.42 1264.96 724.436 1262.68 723.721 z" fill="rgb(253,250,244)" transform="translate(0,0)"></path>
<path d="M 1131.06 683.21 C 1122.23 641.465 1098.38 620.838 1076.53 584.108 C 1030.32 506.404 1027.01 404.234 1076.21 327.019 C 1085.14 312.992 1102.26 291.846 1116.05 282.333 C 1105.32 296.156 1092.91 310.267 1083.59 324.948 C 1050.52 377.03 1042.59 431.843 1050.55 492.022 C 1056.09 533.948 1074.66 569.031 1097.56 603.705 C 1116.75 632.76 1133.26 647.232 1137.31 683.733 C 1138.74 701.868 1133.12 716.985 1119.98 729.516 C 1129.35 710.252 1131.32 704.816 1131.06 683.21 z" fill="rgb(212,32,40)" transform="translate(0,0)"></path>
<path d="M 1150.85 181.735 C 1156.04 183.786 1162.76 193.907 1165.84 198.645 C 1181.34 222.506 1186.86 241.808 1187.89 269.878 C 1189.67 318 1170.22 350.705 1146.78 390.468 C 1136.53 407.848 1126.69 426.206 1122.52 446.147 C 1113.93 487.248 1127.78 529.91 1150.15 564.281 C 1143.79 561.905 1136 547.689 1132.94 541.943 C 1103.83 490.464 1107.7 435.537 1141.25 386.611 C 1175.65 336.44 1196.14 275.025 1169.83 215.607 C 1164.81 204.275 1156.87 193.033 1150.85 181.735 z" fill="rgb(212,32,40)" transform="translate(0,0)"></path>
<path d="M 977.43 527.712 C 977.799 528.162 978.167 528.611 978.536 529.061 C 978.564 544.408 981.488 570.175 987.054 583.644 C 1002.99 622.199 1044.89 642.273 1050.86 685.661 C 1051.06 687.121 1051.21 688.587 1051.31 690.057 C 1053.51 720.143 1040.14 743.409 1020.98 765.385 L 1020.36 765.764 L 1019.46 765.147 C 1020.95 760.594 1025.27 753.831 1027.75 749.595 C 1035.21 736.85 1042.07 722.983 1044.14 708.24 C 1050.34 664.144 1018.87 641.896 995.082 611.718 C 975.369 586.71 972.639 558.452 977.43 527.712 z" fill="rgb(212,32,40)" transform="translate(0,0)"></path>
<path d="M 1182.58 627.633 C 1186.03 632.066 1190.07 640.754 1192.44 645.945 C 1207.95 679.878 1206.36 721.95 1179.27 749.39 C 1177.98 750.35 1178.7 750.111 1177.14 750.15 C 1197.01 722.023 1201.97 683.608 1190.29 651.077 C 1187.56 643.481 1184.87 635.362 1182.58 627.633 z" fill="rgb(212,32,40)" transform="translate(0,0)"></path>
<path d="M 1222.15 1990.2 C 1224.43 1988.4 1224.53 1988.65 1227.48 1988.2 C 1234.31 1995.07 1265.19 2022.53 1265.81 2027.28 C 1263.83 2027.83 1264.06 2028.19 1262.66 2027.16 C 1249.48 2017.55 1232.64 2002.14 1222.15 1990.2 z" fill="rgb(156,6,22)" transform="translate(0,0)"></path>
<metadata><recraft-signature>{"signed_by": "recraft", "signature_b64": "iKRTFjmcoEqFfyb/XUDZpP4UAE3ZeGw5rha/rUqadBjxwC/EobFYg8/h8eLsK5IRZVniAMMo4CizqOFubxSqAA==", "signing_algo": "Ed25519", "generation_timestamp": 1778092874, "identifier": "43d0d32c-4561-4c0a-bf9f-cd773dc75cd2"}</recraft-signature></metadata></svg>