<svg xmlns="http://www.w3.org/2000/svg" height="1024" preserveAspectRatio="none" style="display: block;" version="1.1" viewBox="0 0 2048 2048" width="1024">
<path d="M 0 0 L 2048 0 L 2048 2048 L 0 2048 L 0 0 z" fill="rgb(255,255,255)" transform="translate(0,0)"></path>
<path d="M 1028.98 119.511 C 1027.92 107.688 1026.02 97.3482 1035.86 88.7627 C 1089.37 42.0747 1252.03 93.9954 1254.48 166.039 C 1254.54 167.632 1254.58 169.226 1254.6 170.82 C 1270.79 175.643 1287.03 180.282 1303.33 184.737 C 1325.19 163.051 1352.98 155.456 1383.28 155.619 C 1441.47 155.931 1499.57 183.036 1552.07 205.683 C 1588.13 221.239 1630.83 240.71 1663.63 261.985 C 1678.53 271.652 1693.69 284.305 1706.24 296.926 C 1726.06 316.848 1741.7 352.222 1755.31 377.088 C 1760.48 386.516 1766.43 395.525 1771.41 405.048 C 1786.1 433.153 1798.37 462.912 1812.24 491.443 C 1825.78 519.302 1840.48 546.555 1854.27 574.269 C 1869.94 605.753 1982.37 835.931 1982.14 849.036 C 1982.09 851.695 1981.51 854.22 1981.02 856.817 C 1980.94 857.271 1980.88 857.731 1980.8 858.186 C 1979.27 866.946 1965.88 875.992 1958.86 880.715 C 1933.16 898.014 1904.02 909.48 1875.6 921.4 C 1828.1 941.321 1778.5 961.819 1726.73 967.036 C 1704.63 969.263 1682.83 968.483 1660.71 967.323 C 1641.09 966.294 1619.9 965.274 1600.63 961.341 C 1596.41 960.479 1589.17 958.896 1586.8 954.956 C 1584.38 950.928 1583.07 945.739 1582.17 941.132 C 1580.16 930.831 1580.2 919.964 1578.88 909.527 C 1576.53 890.857 1573.66 872.16 1571.58 853.467 C 1569.77 837.275 1568.49 821.154 1566.1 805.008 C 1562.07 777.716 1557.05 749.18 1549.79 722.582 C 1546.62 710.968 1533.17 700.097 1525.41 691.147 C 1511.61 675.243 1492.28 654.716 1482.77 635.867 C 1469.56 640.22 1453.22 640.039 1439.28 641.092 C 1387.86 644.978 1337.73 640.503 1286.37 640.328 C 1325.85 672.152 1339.22 681.8 1363.5 726.601 C 1375.58 727.559 1391.33 737.269 1399 746.378 C 1413.51 763.603 1447.29 844.232 1452.79 866.92 C 1455.87 879.609 1457.1 894.144 1455.82 907.148 C 1454.91 916.418 1451.72 925.383 1444.18 931.278 C 1438.75 935.514 1432.27 938.651 1425.75 940.795 C 1412.18 945.254 1397.42 947.156 1383.41 950.005 C 1361.34 954.564 1339.32 959.4 1317.37 964.51 C 1310.7 1005.66 1299.29 1050.23 1291.47 1091.7 C 1301.41 1098.6 1317.26 1106.06 1328.43 1111.94 L 1391.98 1145.71 C 1470.39 1187.63 1547.94 1231.14 1627.39 1271.07 C 1645.49 1280.16 1664.48 1288.89 1681.59 1299.88 C 1686.92 1303.3 1689.96 1307.87 1692.74 1313.49 C 1692.77 1325.68 1693.13 1338.09 1693.01 1350.19 C 1692.28 1361.94 1695.25 1378.2 1690.12 1389 C 1686.22 1397.2 1673.41 1384.84 1670.54 1386.19 C 1621.85 1408.99 1571.49 1427.6 1523.46 1452.15 C 1506.02 1461.07 1486.7 1467.85 1469.63 1477.89 C 1439.62 1496.06 1402.39 1517.91 1375.54 1540.36 C 1308.31 1596.57 1224.16 1682.77 1198.72 1768.04 C 1190.91 1794.2 1194.4 1820.36 1208.85 1842.53 C 1212.19 1847.66 1215.47 1855.7 1220.71 1858.91 L 1221.79 1858.71 L 1222.21 1856.19 C 1209.65 1839.48 1200.37 1807.09 1205.44 1785.84 C 1228.64 1688.59 1321.31 1593.4 1398.49 1534.48 C 1451.55 1493.96 1539.66 1455.05 1606.42 1465.82 C 1712 1482.86 1684.9 1594.86 1636.17 1656.39 C 1574.66 1735.62 1498.81 1800.49 1411.77 1850.05 C 1380.75 1867.51 1324.61 1883.01 1289.49 1877.17 C 1281.8 1875.89 1274.18 1874.24 1266.65 1872.22 C 1261.59 1870.87 1247.14 1865.87 1243.25 1865.95 C 1240.58 1868.91 1241.43 1867.25 1240.56 1871.11 C 1248.94 1880.13 1287.38 1889.63 1300.49 1889.5 C 1404.37 1888.45 1495.41 1813.89 1568.32 1746.8 C 1622.91 1696.56 1683.79 1627.91 1689.13 1550.25 C 1693.03 1493.68 1651.63 1458.76 1597.65 1455.26 C 1592.81 1454.94 1586.17 1456.13 1581.45 1457.04 C 1619.28 1432.71 1662.32 1410.15 1705.53 1397.93 C 1822.87 1364.75 2001.11 1422.52 1965.57 1574.46 C 1953.32 1627.16 1917.17 1654.76 1870.15 1676.87 C 1912.37 1688.68 1941.95 1706.37 1965.69 1743.14 C 1990.53 1781.62 1976.4 1819.12 1937.55 1838.37 C 1905.4 1854.3 1850.77 1863.42 1815.54 1871.49 C 1756.28 1885.52 1696.74 1898.35 1636.96 1909.96 C 1589.9 1919.44 1541.95 1929.39 1494.47 1932.6 C 1448.06 1935.73 1386.9 1937.42 1351.32 1903.06 C 1349.8 1901.6 1351.32 1893.89 1349.29 1891.64 C 1341.01 1891.83 1329.89 1895.22 1320.79 1896.35 C 1297.94 1899.17 1251.58 1890.55 1234.81 1874.8 C 1210.13 1904.94 1190.04 1940.37 1168.27 1972.6 C 1166.32 1975.48 1163.25 1976.56 1160.04 1977.15 C 1152.45 1975.14 1151.97 1966.29 1154.99 1960.84 C 1171.03 1931.89 1194.42 1892.54 1217.21 1868.5 C 1197.32 1843.69 1181.54 1820.73 1185.56 1787.38 C 1188.52 1762.82 1204.32 1724.56 1217.66 1704.45 C 1266.75 1630.42 1329.74 1562.71 1402.5 1511.45 C 1416.84 1501.35 1432.67 1492.68 1447.33 1483.04 C 1301.95 1545.86 1158.16 1612.28 1016.09 1682.24 C 1006.73 1686.77 997.529 1692.22 988.223 1696.99 L 926.424 1728.11 C 902.489 1740.12 877.85 1750.43 853.576 1761.68 C 844.773 1765.76 836.474 1770.84 827.677 1774.9 C 822.227 1777.42 812.938 1782.14 806.966 1780.71 C 806.455 1780.59 805.941 1780.48 805.432 1780.35 C 778.905 1773.67 697.252 1718.18 668.709 1700.53 C 647.185 1687.21 625.199 1674.66 603.679 1661.35 C 552.857 1629.91 502.412 1597.93 451.044 1567.38 C 430.377 1555.09 409.034 1543.82 388.149 1531.89 L 182.966 1415.26 C 157.932 1400.84 93.4431 1367.94 77.3725 1349.66 C 74.8661 1336.82 73.058 1276.35 80.4279 1267.07 C 90.4555 1254.43 138.073 1237.63 154.921 1230.8 C 193.518 1215.36 231.938 1199.48 270.174 1183.16 C 293.851 1173.14 319.714 1162.91 342.103 1150.57 C 332.622 1114.5 325.974 1081.23 318.687 1044.81 C 316.213 1032.44 311.779 1004.8 308.426 994.118 C 285.961 997.89 251.49 1008.5 231.642 993.996 C 207.28 976.195 151.292 897.109 137.55 868.444 C 132.825 858.588 129.436 847.329 127.869 836.513 C 126.337 825.934 126.422 811.095 132.9 802.172 C 141.845 789.848 253.569 741.047 275.753 732.271 C 304.862 636.003 422.176 583.959 510.696 555.467 C 639.326 513.443 776.489 504.606 909.448 529.777 C 876.514 513.12 837.81 498.847 805.331 480.497 C 715.571 429.783 535.952 320.761 590.578 194.854 C 599.422 174.47 634.997 141.897 656.743 137.27 C 678.656 127.646 712.337 116.238 736.593 113.912 C 829.252 94.6567 936.692 102.757 1028.98 119.511 z" fill="rgb(200,16,46)" transform="translate(0,0)"></path>
<path d="M 1387.04 182.03 C 1389.55 179.498 1391.17 177.295 1394.52 176.26 C 1398.36 177.322 1397.04 176.234 1399.02 179.067 C 1398.53 181.147 1398.22 182.449 1397.53 184.462 C 1403.28 186.999 1417.79 189.812 1424.77 191.6 C 1437.03 194.739 1444.91 197.577 1456.7 202.251 C 1458.3 198.867 1459.35 195.595 1462.35 193.519 C 1465.39 193.055 1465.29 193.314 1468.16 194.63 C 1471.37 200.109 1466.23 201.37 1468.06 206.017 C 1487.58 213.746 1507.51 220.662 1526.87 228.658 C 1528.6 225.418 1529.4 223.066 1532.44 221.089 C 1536.21 221.592 1534.5 220.935 1537.66 223.4 C 1538.47 227.834 1537.03 227.853 1535.55 233.141 C 1557.86 244.802 1580.64 254.057 1601.88 269.767 C 1605.28 265.039 1609.92 256.801 1615.91 255.878 C 1618.76 259.916 1612.3 270.594 1609.78 274.177 C 1634.35 290.626 1655.48 303.247 1675.68 325.338 C 1680.42 320.076 1684.21 314 1690.89 313.356 C 1694.01 314.272 1694.4 315.397 1696.32 318.062 C 1692.04 323.156 1689.09 326.705 1684.24 331.288 C 1710.37 362.079 1718.15 371.839 1737.47 407.234 C 1740.14 403.327 1743.23 399.064 1745.5 394.962 C 1753.64 401.745 1756.01 405.263 1746.38 412.609 C 1744.98 413.703 1743.56 414.789 1742.15 415.867 C 1757.95 447.23 1767.36 471.694 1781.46 502.652 C 1786.12 497.869 1795.32 489.001 1802.3 493.754 C 1802.86 497.028 1803.39 497.769 1800.62 500.748 C 1795.55 504.887 1789.57 510.022 1784.31 513.721 C 1795.81 542.585 1806.47 576.408 1814.7 606.301 L 1843.57 588.434 C 1846.52 592.101 1846.84 591.324 1847.3 595.251 C 1845.44 598.311 1844.96 598.475 1842.32 600.787 C 1834.27 606.116 1825.33 612.333 1817.15 617.28 C 1821.5 624.228 1824.02 634.827 1826.84 642.711 C 1833.3 660.754 1838.75 682.117 1846.63 699.39 C 1861.16 690.889 1871.99 683.691 1884.36 672.384 C 1887.92 675.696 1889.31 676.35 1890.04 681.099 C 1878.82 693.228 1863.41 702.415 1848.62 709.573 C 1857.99 728.268 1872.25 772.972 1877.8 794.079 C 1887.95 787.784 1916.34 768.86 1925.6 764.929 C 1926.94 769.14 1927.25 767.387 1925.99 770.575 C 1924.11 771.967 1922.58 772.67 1921.62 774.565 L 1924.02 775.195 C 1912.63 786.134 1895.19 796.07 1880.64 802.286 C 1887.45 823.07 1893.98 843.948 1900.21 864.914 C 1912.61 857.808 1922.01 852.347 1933.53 843.576 C 1939.37 839.128 1949.63 829.282 1955.01 826.111 C 1958.56 828.445 1958.8 829.794 1959.6 833.65 C 1958.25 841.449 1946.94 848.706 1940.2 853.705 C 1868.41 906.557 1778.36 932.085 1690.61 941.407 C 1678.45 942.699 1588.06 951.962 1593.48 928.286 C 1597.39 927.597 1604.02 932.58 1610.69 933.505 C 1627.94 935.896 1680.45 934.685 1696.1 929.166 C 1695.09 920.05 1681.24 874.191 1678.03 862.937 C 1666.51 865.543 1602.28 873.998 1588.08 866.53 C 1586.73 865.82 1585.78 858.785 1586.4 856.327 C 1587.78 857.255 1590.42 859.101 1592.02 859.177 C 1618.34 860.438 1650.94 857.073 1675.91 852.36 C 1671.7 838.92 1657.26 789.154 1656.73 777.064 C 1654.56 777.32 1652.39 777.55 1650.22 777.752 C 1635.92 779.084 1620.58 779.676 1606.22 779.364 C 1595.84 779.139 1573.27 781.482 1573 767.461 C 1576.04 763.586 1581.4 767.02 1586.56 767.791 C 1605.81 770.67 1634.58 768.495 1653.85 766.068 C 1644.77 741.884 1640.69 720.292 1633.52 695.744 C 1611.86 701.966 1573.88 706.385 1551.85 701.404 C 1521.46 675.257 1483.32 616.982 1460.3 581.295 C 1429.76 533.974 1363.44 451.846 1383.84 392.205 C 1396.31 355.755 1442.52 344.599 1475.9 360.041 C 1513.84 377.589 1526.14 389.893 1542.81 428.507 C 1566.07 412.481 1586.18 402.757 1611.05 383.982 C 1594.72 365.842 1580.26 351.005 1558.87 338.386 C 1552.27 346.653 1522.71 372.287 1512.9 369.424 C 1510.71 366.133 1511.35 367.944 1511.3 363.673 C 1522.92 357.983 1542.41 340.642 1552.35 332.291 C 1535.41 319.365 1511.66 305.011 1492.88 294.948 C 1490.67 300.188 1489.11 305.548 1482.8 305.824 C 1477.86 300.915 1483 295.188 1486.12 290.634 C 1469.43 280.829 1445.74 269.979 1428.26 262.134 C 1416.61 282.798 1414.33 294.296 1406.78 315.866 C 1402.96 313.653 1401.34 313.577 1399.41 310.333 C 1399.87 297.574 1412.8 269.076 1420.37 258.563 C 1404.72 250.75 1382.55 239.012 1366.74 233.13 C 1365 236.505 1364.06 239.533 1360.84 241.191 L 1359.06 240.463 C 1357.62 236.334 1358.99 234.557 1359.98 230.559 C 1352.5 227.921 1336.26 223.303 1332.49 216.996 L 1333.39 215.419 C 1343.04 213.113 1352.27 218.14 1361.69 220.678 C 1368.01 210.075 1375.47 200.928 1381.41 190.925 C 1375.11 189.164 1362.2 186.821 1358.95 181.73 C 1363.94 177.213 1380.61 180.959 1387.04 182.03 z" fill="rgb(255,255,255)" transform="translate(0,0)"></path>
<path d="M 1513.37 642.632 C 1505.9 629.131 1495.98 616.867 1487.45 603.99 C 1466 571.534 1443.47 539.853 1423.36 506.523 C 1398.72 465.671 1361.86 396.169 1423.34 367.648 C 1433.64 362.869 1443.4 361.396 1454.05 365.485 C 1480.08 370.809 1497.14 379.875 1514.37 400.517 C 1518.42 404.947 1521.26 409.541 1524.58 414.533 C 1502.49 432.948 1469.79 453.218 1450.83 471.442 C 1448.45 468.76 1446.02 466.112 1443.56 463.497 C 1437.62 457.183 1409.96 427.775 1402.37 427.548 C 1398.43 428.984 1399.75 427.762 1397.65 430.598 C 1400.97 437.138 1435.56 469.12 1442.56 475.841 C 1436.87 479.371 1420.54 488.941 1419.81 495.731 L 1421.32 497.192 C 1428.85 497.946 1444.25 488.82 1446.54 481.247 C 1453.8 484.051 1492.73 532.155 1500.4 541.879 C 1493.58 544.633 1467.32 556.519 1470.04 565.548 C 1477.58 568.851 1498.49 552.885 1504.9 547.914 C 1523.43 571.508 1538.52 595.569 1558.54 618.053 C 1541.95 626.519 1529.38 632.991 1513.37 642.632 z" fill="rgb(200,16,46)" transform="translate(0,0)"></path>
<path d="M 1452.98 367.825 C 1471.17 370.303 1497.89 386.784 1509.89 400.736 C 1510.99 402.014 1511.07 401.875 1512.62 402.748 C 1516.15 404.927 1519.26 414.054 1521.08 418.292 C 1508.99 409.77 1497.68 393.647 1483.12 383.542 C 1475.76 378.441 1455.09 369.555 1452.98 367.825 z" fill="rgb(253,251,245)" transform="translate(0,0)"></path>
<path d="M 1698.9 563.956 C 1704.01 569.188 1722.68 641.577 1725.82 653.527 C 1691.41 667.037 1677.25 673.467 1641.54 682.811 C 1638.68 681.072 1637.42 673.708 1636.49 670.307 C 1630.23 647.451 1624.3 623.747 1615.04 601.892 C 1643.28 591.653 1673.19 579.512 1698.9 563.956 z" fill="rgb(200,16,46)" transform="translate(0,0)"></path>
<path d="M 1662.08 474.912 C 1665.56 477.069 1692.48 546.79 1695.26 554.468 C 1678.85 563.687 1632.77 586.729 1615.21 591.243 L 1613 591.824 C 1610.52 590.121 1606.27 575.238 1604.73 570.832 C 1597.82 550.992 1590.01 531.521 1582.43 511.929 C 1605.05 506.354 1642.15 487.646 1662.08 474.912 z" fill="rgb(200,16,46)" transform="translate(0,0)"></path>
<path d="M 1774.41 519.868 L 1775.39 520.071 C 1781.46 526.284 1801.01 596.291 1806.29 610.212 L 1806.26 610.324 C 1788.34 622.137 1758.74 638.325 1739.27 647.677 C 1737.03 648.615 1737.83 648.459 1735.51 648.464 C 1731.18 642.569 1721.24 598.392 1717.83 588.025 C 1715.24 580.131 1711.01 567.107 1708.04 558.608 C 1726.85 549.327 1756.03 531.136 1774.41 519.868 z" fill="rgb(200,16,46)" transform="translate(0,0)"></path>
<path d="M 1840.5 717.098 L 1841.87 717.545 C 1843.49 724.816 1846.85 731.119 1848.87 738.097 C 1854.8 758.53 1861.5 777.365 1868.97 797.317 C 1845.53 811.323 1815.61 821.854 1789.61 829.79 C 1787.51 830.585 1786.63 830.822 1784.48 831.409 C 1781.66 828.857 1764.46 760.84 1762.34 751.909 C 1796.03 739.402 1808.48 734.806 1840.5 717.098 z" fill="rgb(200,16,46)" transform="translate(0,0)"></path>
<path d="M 1727.4 664.077 L 1728.42 664.487 C 1736.33 679.536 1746.55 726.546 1751.42 744.441 C 1719.51 756.814 1699.44 760.471 1666.36 765.641 L 1664.02 766.014 C 1661.47 763.251 1645.27 701.166 1642.7 692.705 C 1667.18 688.507 1704.67 674.054 1727.4 664.077 z" fill="rgb(200,16,46)" transform="translate(0,0)"></path>
<path d="M 1808.54 620.906 C 1809.13 621.258 1809.72 621.61 1810.31 621.962 C 1818.34 647.135 1829.72 682.765 1837.52 706.663 C 1808.11 722.969 1796.03 728.229 1764.23 740.109 C 1761.89 741.114 1763.07 741.071 1760.71 740.318 C 1753.42 715.496 1746.74 683.444 1736.88 659.7 C 1759.47 650.463 1787.75 633.721 1808.54 620.906 z" fill="rgb(200,16,46)" transform="translate(0,0)"></path>
<path d="M 1752.84 756.047 C 1753 756.093 1753.18 756.084 1753.31 756.184 C 1756 758.271 1771.6 824.885 1774.2 834.406 C 1744.47 841.45 1716.45 845.809 1686.75 851.754 L 1685.26 851.052 C 1683.13 846.248 1682.34 841.571 1681.15 836.485 C 1676.4 816.132 1670.94 795.946 1665.6 775.739 C 1694.52 771.286 1725.4 766.423 1752.84 756.047 z" fill="rgb(200,16,46)" transform="translate(0,0)"></path>
<path d="M 1733.41 423.742 L 1734.92 424.256 C 1745.19 437.588 1764.47 492.217 1772.61 510.267 C 1750.15 522.39 1727.96 535.018 1706.07 548.14 L 1704.28 549.235 C 1700.44 544.988 1696.41 528.183 1693.84 522.374 C 1687.88 508.902 1677.92 480.56 1669.85 469.757 C 1692.07 455.896 1713.3 440.521 1733.41 423.742 z" fill="rgb(200,16,46)" transform="translate(0,0)"></path>
<path d="M 1617.63 392.806 C 1628.33 404.93 1652.01 449.971 1658.66 465.8 C 1635.13 479.453 1609.55 491.392 1584.72 502.423 C 1582.74 503.079 1579.61 504.346 1578.44 502.063 C 1573.43 492.299 1547.63 440.095 1547.5 434.28 C 1554.74 434.918 1551.99 433.907 1558.24 430.936 C 1579.49 420.843 1598.58 406.503 1617.63 392.806 z" fill="rgb(200,16,46)" transform="translate(0,0)"></path>
<path d="M 1676.83 338.732 C 1695.96 355.601 1716.47 391.798 1729.37 413.634 C 1712.77 427.018 1691.78 441.825 1674.43 454.534 L 1665.82 461.167 C 1660.02 444.464 1638.85 399.66 1625.7 388.817 C 1642.61 369.277 1660.71 356.25 1676.83 338.732 z" fill="rgb(200,16,46)" transform="translate(0,0)"></path>
<path d="M 1871.17 807.06 C 1872.52 808.78 1889.96 862.884 1892.53 869.882 C 1872.48 882.556 1828.47 899.145 1806.13 907.623 C 1804.48 907.985 1803.1 908.171 1801.43 908.422 C 1798.6 904.099 1788.12 850.498 1785.55 840.463 C 1815.75 834.166 1844.69 822.877 1871.17 807.06 z" fill="rgb(200,16,46)" transform="translate(0,0)"></path>
<path d="M 1527.28 424.745 C 1529.77 426.104 1531.89 429.779 1533.03 432.366 C 1543.76 456.835 1554.11 480.482 1566.53 504.206 C 1549.7 511.763 1525.24 525.919 1509.03 535.428 L 1504.12 529.321 C 1488.43 509.193 1472.23 494.616 1456.97 476.141 C 1474.38 467.152 1511.33 438.414 1527.28 424.745 z" fill="rgb(200,16,46)" transform="translate(0,0)"></path>
<path d="M 1773.87 845.153 C 1775.08 845.12 1774.29 845.079 1776.21 845.639 C 1779.17 855.931 1780.92 867.309 1783.55 877.798 C 1786.43 889.251 1789.89 900.139 1791.94 911.77 C 1771.06 916.956 1727.35 926.245 1706.82 928.425 L 1705.14 927.739 C 1703.22 923.528 1699.88 909.011 1698.58 903.897 C 1695.04 889.585 1691.22 875.342 1687.13 861.178 C 1710.55 859.004 1751.47 851.777 1773.87 845.153 z" fill="rgb(200,16,46)" transform="translate(0,0)"></path>
<path d="M 1606.77 606.23 C 1609.61 613.589 1612.96 626.355 1615.29 634.189 C 1620.49 651.259 1625.47 668.396 1630.22 685.596 C 1610.93 689.824 1577.34 694.765 1556.97 694.393 C 1554.04 694.34 1553.09 692.183 1551.49 690.004 C 1541.44 679.67 1528.43 661.517 1519.98 649.435 C 1544.6 636.695 1581.46 616.197 1606.77 606.23 z" fill="rgb(200,16,46)" transform="translate(0,0)"></path>
<path d="M 1603.59 281.524 C 1629.2 300.223 1644.85 309.006 1670.34 330.546 C 1655.12 345.361 1643.74 355.611 1627.46 369.5 L 1617.78 377.524 C 1604.16 359.697 1584.28 343.293 1566.11 330.335 C 1578.63 314.365 1591.84 297.995 1603.59 281.524 z" fill="rgb(200,16,46)" transform="translate(0,0)"></path>
<path d="M 1569.23 512.092 C 1572.1 514.533 1599.48 587.556 1603.27 597.396 C 1591.14 602.396 1579.03 608.302 1567.13 613.894 L 1559.95 604.5 C 1544.78 584.505 1530.79 564.03 1515.61 543.947 C 1533.53 533.946 1551.6 522.726 1569.23 512.092 z" fill="rgb(200,16,46)" transform="translate(0,0)"></path>
<path d="M 1529.37 239.876 C 1549.83 249.329 1576.87 266.018 1596.55 277.422 C 1586.03 288.223 1571.76 307.804 1562.19 320.307 C 1559.66 323.276 1561.12 322.638 1558.01 323.596 L 1499.02 286.73 C 1508.96 270.171 1518.57 255.813 1529.37 239.876 z" fill="rgb(200,16,46)" transform="translate(0,0)"></path>
<path d="M 1458.49 212.789 C 1464.58 213.992 1512.24 233.509 1520.53 236.808 C 1510.76 249.46 1500.99 265.444 1492.98 279.438 C 1491.61 281.514 1492.48 280.706 1490.4 281.904 C 1485.31 280.402 1469.44 270.24 1463.62 267.267 C 1453.77 262.238 1443.77 257.33 1433.77 252.485 C 1440.14 241.615 1453.82 223.418 1458.49 212.789 z" fill="rgb(200,16,46)" transform="translate(0,0)"></path>
<path d="M 1390.34 192.931 C 1395.23 194.455 1406.51 196.309 1412.6 197.866 C 1426.72 201.476 1437.84 205.41 1451.35 210.519 C 1445.06 217.797 1430.6 236.791 1427.34 245.69 C 1426.53 247.145 1426.8 246.554 1425.06 247.623 C 1418.22 246.214 1380.31 227.989 1369.9 223.788 C 1375.35 215.993 1386.58 200.793 1390.34 192.931 z" fill="rgb(200,16,46)" transform="translate(0,0)"></path>
<path d="M 1808.46 1459.54 C 1799.98 1444.82 1791.03 1432.93 1779.6 1420.4 C 1776 1416.46 1768.83 1408.4 1767.27 1403.68 C 1768.33 1400.11 1767.27 1401.27 1770.07 1399.7 C 1778.33 1401.25 1804.99 1434.56 1810.68 1442.9 C 1813.59 1447.24 1816.44 1451.62 1819.21 1456.04 C 1837.6 1448.51 1893.33 1447.17 1913.14 1450.54 C 1902.8 1438.04 1900.16 1436.62 1886.92 1427.45 C 1958.2 1450.86 1976.19 1544.92 1942.6 1605.65 C 1918.79 1648.68 1881.45 1658.81 1840.44 1676.43 C 1895.84 1689.59 1968.8 1727.78 1966.99 1794.06 C 1925.32 1817.33 1880.16 1828.11 1834.14 1839.39 C 1780.87 1852.45 1726.6 1862.57 1673 1874.53 C 1609.25 1888.75 1542.6 1899.05 1477.53 1903.46 C 1444.41 1905.18 1405.17 1909.24 1373.14 1900.24 C 1365.1 1897.9 1357.22 1895.04 1349.55 1891.68 C 1355.16 1889.6 1360.36 1887.55 1366.18 1886.11 C 1402.27 1899.19 1419.74 1894.98 1457.02 1895.53 C 1455.88 1890.8 1442.76 1852.27 1442.86 1851.71 C 1446.19 1849.58 1444.51 1849.83 1447.94 1850.33 C 1451.89 1853.44 1453.94 1859.5 1455.98 1864.31 C 1459.9 1873.35 1463.44 1885.03 1465.97 1894.55 C 1493.9 1889.98 1520.59 1889.75 1548.78 1886.12 C 1543.97 1862.44 1539.48 1844.14 1533.3 1820.78 L 1531.84 1815.33 C 1532.92 1811.62 1532.22 1811.77 1534.67 1809.8 L 1535.82 1810.35 C 1544.85 1822.27 1554.05 1868.13 1556.58 1884.31 C 1562.53 1884 1568.44 1883.34 1574.29 1882.2 C 1593.61 1878.43 1613.29 1876.59 1632.46 1872.11 C 1631.29 1867.78 1630.46 1862.21 1629.72 1857.71 C 1625.45 1831.91 1618.13 1807.04 1610.31 1782.14 C 1607.66 1773.69 1597.58 1752.24 1599.6 1745.33 L 1601.02 1744.65 C 1606.09 1747.78 1609.53 1758.57 1611.77 1764.18 C 1626.97 1806.24 1633.01 1826.31 1640.12 1870.09 C 1648.64 1868.28 1710.09 1855.82 1712.26 1853.93 C 1714.59 1846.59 1710.72 1835.22 1709.28 1827.34 C 1701.19 1782.77 1687.15 1748.58 1668.61 1707.58 C 1665.16 1701.18 1658.05 1686.38 1652.67 1682.64 C 1650.02 1683.16 1648.02 1683.66 1645.43 1684.33 C 1643.22 1682.69 1644.2 1683.7 1643.53 1679.83 C 1647.82 1663.71 1698.18 1670.22 1711.65 1665.75 C 1714.28 1664.87 1721.39 1658.8 1723.79 1656.84 C 1717.85 1638.62 1709.07 1620.42 1703.28 1602.16 C 1701.93 1597.9 1701.66 1595.92 1703.55 1592.59 C 1708.78 1594.71 1714.14 1608.89 1716.63 1614.31 C 1722.32 1626.69 1727.61 1639.3 1733.34 1651.67 C 1747.94 1640.83 1765.86 1628.33 1779.85 1617.32 C 1771.84 1581.09 1752.59 1527.2 1732.62 1495.61 C 1725.48 1499.01 1713.59 1505.66 1706.21 1504.66 L 1705.41 1503.42 C 1708.72 1496.25 1721.13 1490.88 1728.19 1487.42 C 1717.68 1471.94 1706.17 1457.16 1693.76 1443.16 C 1688.11 1436.7 1675.45 1423.3 1671.16 1417.27 C 1672.42 1414.58 1672.69 1415.19 1676.08 1413.52 C 1687.43 1416.61 1724.73 1466.75 1731.56 1478.63 C 1732.52 1480.3 1733.47 1481.98 1734.4 1483.66 C 1755.68 1473.4 1785.19 1462.25 1808.46 1459.54 z" fill="rgb(255,255,255)" transform="translate(0,0)"></path>
<path d="M 1705.95 1677.42 C 1713.05 1676.34 1732.08 1676.91 1739.94 1676.98 C 1761.08 1703.2 1780.35 1756.35 1786.65 1789.75 C 1789.65 1805.69 1790.96 1822.29 1792.21 1838.51 C 1778.74 1842.11 1759.39 1845.08 1745.51 1847.53 L 1721.84 1852.6 C 1715.4 1805 1705.7 1762.21 1683.33 1719.78 C 1678.03 1709.74 1665.52 1690.55 1663.38 1680.52 C 1673.7 1679.14 1694.35 1678.41 1705.95 1677.42 z" fill="rgb(200,16,46)" transform="translate(0,0)"></path>
<path d="M 1946.73 1546.01 C 1951.4 1549.73 1942.63 1575.97 1941.08 1581.08 C 1926.03 1630.55 1880.82 1648.92 1838.08 1669.56 C 1839.23 1671.85 1840.15 1673.18 1840.28 1675.75 C 1835.28 1675.81 1821.17 1672.35 1815.14 1671.28 C 1790.93 1666.96 1767.83 1666.19 1743.29 1665.46 C 1739.76 1665.52 1732.76 1664.95 1728.93 1664.76 C 1789.03 1625.04 1846.28 1581.34 1915.04 1557.04 C 1925.14 1553.47 1935.6 1550.88 1945.43 1546.58 L 1946.73 1546.01 z" fill="rgb(200,16,46)" transform="translate(0,0)"></path>
<path d="M 1751.1 1677.33 C 1776.09 1676.15 1809.29 1680.46 1833.46 1686.96 C 1859.88 1719.19 1867.26 1779.14 1871.2 1819.16 L 1858.77 1822.08 C 1840.13 1827.51 1818.79 1832 1799.69 1836.71 C 1798.37 1785.85 1782.62 1717.84 1751.1 1677.33 z" fill="rgb(200,16,46)" transform="translate(0,0)"></path>
<path d="M 1812.13 1468.2 L 1813.81 1468.99 C 1831.61 1499.13 1849.81 1537.61 1854.6 1572.25 C 1839.11 1580.41 1823.92 1589.16 1809.09 1598.46 C 1802.65 1602.44 1794.95 1607.99 1788.84 1611.48 L 1787.74 1610.59 C 1775.65 1568.26 1763.24 1528.45 1739.26 1491.22 C 1765.11 1479.35 1784.9 1474.68 1812.13 1468.2 z" fill="rgb(200,16,46)" transform="translate(0,0)"></path>
<path d="M 1879.19 1457.48 C 1888.72 1456.44 1907.94 1457.85 1917.46 1459.22 C 1939.65 1479.06 1945.68 1508.38 1948.76 1536.39 C 1931.17 1536.66 1903.67 1549.51 1887.22 1557.01 C 1879.36 1560.54 1871.52 1564.15 1863.72 1567.83 C 1854.61 1523.23 1845.25 1504.52 1824.51 1464.46 C 1845.66 1461.28 1857.43 1458.8 1879.19 1457.48 z" fill="rgb(200,16,46)" transform="translate(0,0)"></path>
<path d="M 1845.92 1688.52 C 1881.87 1696.17 1934.75 1723.14 1949.64 1759.59 C 1952.4 1766.34 1958.21 1780.34 1955.05 1787.48 C 1952.84 1792.45 1942.32 1795.64 1937.27 1797.59 C 1914.18 1807.18 1902.71 1810.34 1878.58 1816.84 C 1880.19 1779.52 1866.77 1718.89 1845.92 1688.52 z" fill="rgb(200,16,46)" transform="translate(0,0)"></path>
<path d="M 1458.3 1205.85 L 1459.47 1206.69 C 1498.07 1233.71 1552.75 1236.13 1505.33 1299.77 C 1496.92 1311.06 1488.37 1319.49 1479.08 1329.69 C 1435.27 1377.79 1396.01 1401.24 1338.66 1429.66 C 1307.23 1445.49 1275.48 1460.67 1243.43 1475.2 C 1208.83 1491.05 1174.89 1509.15 1139.8 1524.01 C 1025.49 1572.41 906.978 1612.4 798.922 1674.4 C 798.832 1674.45 797.441 1679.11 797.264 1679.74 C 792.932 1680.67 782.362 1671.84 776.779 1669.22 C 788.599 1663.66 802.064 1655.92 813.919 1649.8 C 832.621 1640.34 851.451 1631.13 870.404 1622.18 L 943.907 1587.39 C 956.357 1581.45 975.872 1572.72 986.798 1565.51 C 962.973 1568.8 793.837 1650.04 772.701 1665.91 L 763.623 1660.9 C 834.985 1620.32 906.075 1581.02 983.527 1553.02 C 1015.81 1541.34 1049.01 1529.73 1080.29 1515.63 C 1184.13 1468.04 1282.88 1410.04 1375.03 1342.53 C 1394.07 1328.39 1414.87 1314.07 1431.27 1296.98 C 1444.66 1283.02 1458.47 1264.25 1463.76 1245.39 C 1468.17 1229.68 1464.72 1219.83 1458.3 1205.85 z" fill="rgb(242,213,163)" transform="translate(0,0)"></path>
<path d="M 1106.07 607.46 C 1138.43 613.444 1183.84 626.194 1211.11 641.552 C 1295.82 689.257 1368.22 764.558 1275.99 848.004 C 1205.13 912.114 1123.58 942.183 1032.85 965.674 C 874.144 1006.77 700.599 1005.79 543.543 959.13 C 458.802 935.044 333.715 869.392 309.924 778.296 C 282.75 674.247 449.091 604.398 526.143 580.352 C 563.362 568.737 600.91 562.019 637.287 552.725 L 636.994 555.034 C 614.119 560.18 591.912 567.868 569.653 575.168 C 498.522 598.497 372.931 644.372 331.092 710.128 C 318.622 729.726 311.902 751.09 317.084 774.176 C 322.019 796.162 336.414 822.108 352.893 837.497 C 364.213 814.981 371.47 793.237 384.761 771.005 C 430.365 694.719 499.051 638.106 584.307 611.845 C 592.282 609.389 604.531 604.322 612.128 608.681 C 608.833 616.608 605.425 623.981 601.508 631.634 C 580.004 673.651 570.174 719.137 563.254 765.474 C 562.616 769.749 561.255 775.478 561.133 779.673 C 560.807 783.069 560.922 786.184 559.137 788.97 L 557.151 789.965 L 555.928 788.601 L 554.271 788.571 C 553.168 790.558 552.056 792.539 550.933 794.515 L 549.498 793.496 C 543.617 774.751 562.01 692.471 570.605 674.567 C 579.328 656.396 588.972 635.428 596.555 615.932 C 585.09 621.239 571.413 625.316 559.999 629.896 C 534.744 640.031 451.554 680.736 450.367 708.503 C 440.39 768.227 440.04 771.985 453.682 829.966 C 455.52 838.479 461.764 867.709 466.099 872.933 C 466.503 875.477 466.475 876.207 466.45 878.805 L 464.432 880.673 L 462.362 880.404 C 455.619 874.196 449.644 851.781 446.737 842.149 C 432.501 780.645 432.782 771.987 440.615 710.801 C 417.936 732.862 397.59 768.183 381.666 795.632 C 376.286 804.907 372.096 816.193 367.807 826.029 C 364.207 834.283 365.899 838.809 358.601 844.192 C 360.107 851.905 401.951 883.494 410.69 889.39 C 447.004 913.78 486.573 932.933 528.23 946.284 L 531.037 947.475 C 537.217 949.362 548.945 953.315 554.865 954.471 C 594.849 967.607 638.829 974.878 680.486 980.306 C 799.753 995.845 901.998 987.212 1018.49 960.717 C 1049.64 953.6 1080.32 944.569 1110.35 933.677 C 1148.72 920.077 1186.52 903.963 1220.88 881.821 C 1233.31 873.812 1231.81 873.194 1238.82 861.13 C 1232.15 828.143 1218.24 795.959 1200.36 767.453 C 1154.87 696.494 1088.32 641.543 1010.03 610.295 C 991.094 602.658 972.121 597.824 952.798 591.443 C 945.288 588.963 937.84 586.731 930.136 584.975 L 919.807 583.348 C 918.242 584.546 918.634 583.923 918.161 584.822 C 915.488 585.53 897.242 582.345 894.355 581.246 L 894.109 579.943 C 887.611 578.769 881.35 578.536 874.938 577.603 C 801.621 566.932 725.909 568.622 655.741 594.934 C 661.462 595.364 666.727 595.745 672.045 597.319 C 722.857 612.359 762.278 648.749 791.859 691.488 C 792.55 692.488 795.032 692.519 796.032 692.607 L 796.283 695.066 C 793.869 697.93 791.613 699.698 789.769 701.832 C 788.177 703.911 787.083 705.475 785.146 707.284 C 780.724 700.894 764.369 680.06 763.024 674.014 C 765.91 676.853 764.34 676.419 767.529 676.549 L 766.327 674.032 L 766.699 675.501 L 765.721 674.309 L 767.65 673.605 C 744.468 641.201 694.946 608.237 655.112 601.735 C 642.527 599.681 639.992 601.751 628.583 606.465 C 670.182 618.139 695.296 633.278 726.031 665.873 C 730.27 670.368 740.38 687.225 742.865 689.564 C 743.509 693.375 744.542 696.572 743.041 700.022 C 740.265 702.724 732.205 705.092 728.183 706.217 C 688.452 717.329 653.476 738.064 621.909 764.289 C 607.648 777.112 596.955 787.261 584.132 801.492 C 571.668 814.411 549.432 842.4 540.213 857.942 C 534.18 866.937 528.136 875.97 524.466 886.247 C 522.255 892.439 521.616 897.389 518.886 903.595 C 504.097 891.625 553.167 827.345 561.825 816.41 C 607.78 758.373 661.904 713.271 734.663 693.963 C 717.791 661.815 681.991 636.2 649.017 622.513 C 639.273 618.468 627.653 614.911 618.99 609.368 C 625.629 594.098 680.078 577.736 696.204 574.42 C 914.407 529.55 1190.25 626.328 1246.72 862.741 C 1268.81 849.499 1299.01 812.038 1307.03 787.8 C 1312.18 772.261 1310.4 758.042 1303.07 743.588 C 1271.27 680.83 1169.44 630.644 1104.58 609.502 L 1106.07 607.46 z" fill="rgb(255,255,255)" transform="translate(0,0)"></path>
<path d="M 785.146 707.284 C 780.724 700.894 764.369 680.06 763.024 674.014 C 765.91 676.853 764.34 676.419 767.529 676.549 L 766.327 674.032 L 766.699 675.501 L 765.721 674.309 L 767.65 673.605 C 773.76 679.85 784.031 694.158 789.769 701.832 C 788.177 703.911 787.083 705.475 785.146 707.284 z" fill="rgb(200,16,46)" transform="translate(0,0)"></path>
<path d="M 894.109 579.943 C 901.207 580.037 912.578 582.026 919.807 583.348 C 918.242 584.546 918.634 583.923 918.161 584.822 C 915.488 585.53 897.242 582.345 894.355 581.246 L 894.109 579.943 z" fill="rgb(215,97,112)" transform="translate(0,0)"></path>
<path d="M 583.312 658.653 C 584.375 662.16 581.112 669.879 579.593 673.295 C 563.602 709.249 562.709 748.571 555.321 786.116 C 553.235 780.616 556.688 766.639 557.355 760.619 C 561.467 723.478 568.881 693.307 583.312 658.653 z" fill="rgb(200,16,46)" transform="translate(0,0)"></path>
<path d="M 1368.75 1162.27 C 1369.85 1161.98 1371.09 1161.71 1372.33 1162.33 C 1391.74 1173.59 1420.38 1183.19 1438.12 1196.48 C 1477.2 1225.74 1448.87 1269.14 1423.81 1295.45 C 1406.28 1313.85 1389.2 1322.24 1371.42 1336.67 C 1332.07 1368.59 1291.75 1393.23 1247.5 1417.46 C 1229.52 1427.36 1211.83 1440.61 1193.54 1450.67 C 1158.3 1470.05 1122.06 1488.3 1085.46 1505.04 C 1028.58 1531.41 968.956 1548.51 912.044 1574.88 C 858.422 1599.72 807.989 1628.4 756.635 1657.38 L 746.184 1651.57 C 758.463 1643.67 770.979 1636.15 783.715 1629.02 C 825.042 1605.48 866.584 1577.68 908.986 1557.01 C 964.274 1529.69 1023.08 1509.8 1078.55 1483 C 1129.04 1458.6 1182.33 1428.38 1229.54 1398.14 C 1257.21 1380.42 1286.26 1354.9 1311.8 1333.82 C 1346.77 1304.97 1407.9 1263.25 1401.25 1211.89 C 1400.56 1206.77 1395.07 1200.17 1390.45 1198 C 1351.94 1179.95 1304.18 1205.75 1267.5 1215.71 C 1269.01 1207.77 1270.67 1199.87 1272.47 1191.99 C 1286.51 1186.25 1302.26 1179.22 1316.46 1174.54 C 1332.43 1169.27 1352.08 1165.52 1368.75 1162.27 z" fill="rgb(242,213,163)" transform="translate(0,0)"></path>
<path d="M 1352.75 1200.4 C 1366.4 1199.22 1381.91 1197.9 1390.53 1210.53 C 1394.26 1216.01 1395.75 1224.53 1393.82 1230.88 C 1382.69 1267.32 1348.65 1293.93 1320.78 1317.89 C 1291.35 1341.29 1262.85 1367.8 1231.44 1388.56 C 1179.6 1422.83 1121.59 1455.25 1065.5 1481.79 C 1013.72 1506.29 959.154 1523.25 908.285 1550.04 C 897.866 1555.58 886.41 1560.47 876.261 1566.44 C 838.424 1588.71 799.333 1610.4 762.142 1633.67 C 754.899 1637.94 747.516 1643.32 740.568 1648.15 L 731.576 1643.09 C 750.679 1624.56 775.626 1612.45 798.046 1598.39 C 837.123 1573.9 876.207 1550.45 917.342 1529.53 C 938.144 1518.95 958.797 1505.69 980.376 1496.53 C 994.858 1490.38 1012.5 1487.53 1027.27 1481.64 C 1087.93 1459.22 1177.63 1420.6 1215.81 1367.18 C 1239.56 1333.92 1257.85 1263.4 1266.47 1224.06 C 1283.67 1215.94 1333.64 1202.61 1352.75 1200.4 z" fill="rgb(242,213,163)" transform="translate(0,0)"></path>
<path d="M 1646.72 1345.86 C 1639.97 1352.74 1630.8 1357.62 1622.64 1362.8 C 1575.57 1392.69 1522.42 1410.69 1473.41 1436.96 C 1463.08 1442.5 1452.17 1447.05 1441.99 1452.89 C 1439.32 1454.35 1438.66 1455.94 1437.81 1458.39 L 1438.87 1460.87 C 1442.57 1462.06 1467.41 1448.02 1472.37 1445.23 C 1512.72 1422.49 1559.37 1406.87 1599.37 1384.44 C 1614.01 1376.13 1628.22 1367.08 1641.93 1357.32 C 1652.67 1349.73 1662.27 1342.09 1673.64 1335.4 L 1673.83 1374.54 C 1661.14 1376.78 1644.17 1386.27 1631.94 1391.36 C 1570.94 1416.73 1511.59 1447.31 1449.22 1469.39 C 1317.68 1515.96 1192 1577.35 1065.62 1636.13 C 1031.56 1651.96 996.775 1672.29 960.223 1680.74 C 932.259 1687.17 904.657 1695.16 876.06 1698.2 C 862.829 1699.62 849.406 1700.7 836.143 1702.24 L 835.758 1700.81 C 871.093 1690.09 905.843 1675.49 940.169 1662.09 C 978.179 1647.25 1015.9 1632.63 1052.15 1613.82 C 1058.23 1610.66 1064.49 1607.59 1070.72 1604.75 C 1145.35 1574.48 1216.57 1536.58 1289.73 1503.02 C 1315.71 1491.1 1342.22 1480.84 1368.3 1469.18 C 1391.3 1458.75 1413.92 1447.79 1436.97 1437.43 C 1476.76 1419.68 1516.8 1402.48 1557.08 1385.86 C 1586.11 1373.75 1618.66 1356.23 1646.72 1345.86 z" fill="rgb(242,213,163)" transform="translate(0,0)"></path>
<path d="M 1527.36 1244.12 C 1542.39 1250.89 1557.06 1258.4 1571.34 1266.63 C 1561.81 1290.7 1536.99 1310.28 1518.49 1328.01 C 1492.69 1352.75 1467.43 1379.18 1438.16 1399.85 C 1414.98 1416.07 1389.7 1429 1365.64 1443.76 C 1327.95 1466.88 1286.25 1482.56 1246.4 1501.48 C 1170.83 1537.72 1094.43 1572.21 1017.27 1604.94 C 955.682 1631.06 892.323 1655.85 830.244 1681.47 C 823.08 1684.45 815.145 1687.19 807.815 1689.87 L 798.749 1681.92 C 815.521 1671.32 834.364 1661.95 852.043 1652.84 C 950.476 1602.12 1056.53 1568.05 1157.43 1522.84 C 1184.15 1510.87 1210 1497.29 1236.54 1485.16 C 1274.43 1468.29 1311.95 1450.57 1349.06 1432.03 C 1359.95 1426.59 1396.29 1408.94 1407.12 1400.81 C 1447.21 1370.73 1505.75 1322 1528.37 1277.09 C 1533.61 1266.68 1531.78 1254.04 1527.36 1244.12 z" fill="rgb(242,213,163)" transform="translate(0,0)"></path>
<path d="M 314.797 855.082 C 267.886 791.129 272.518 713.911 333.001 660.792 C 427.998 577.362 563.36 546.88 685.814 532.003 C 721.647 527.649 762.509 528.693 798.434 529.872 L 794.462 532.019 C 751.505 533.337 701.328 533.258 658.338 541.092 C 543.417 562.035 413.251 594.01 329.109 680.334 C 311.199 698.709 302.344 716.456 297.114 740.938 C 278.423 804.835 331.698 871.532 382.697 905.793 C 502.642 986.37 664.4 1023.3 807.831 1020.51 C 842.656 1019.4 925.75 1010.76 960.211 1003.7 C 1067.67 981.682 1215.71 938.938 1293.77 857.006 C 1315.27 834.439 1337.88 797.415 1335.22 765.395 C 1331.52 720.824 1300.47 687.821 1269.08 659.726 C 1260.92 652.335 1252.13 645.671 1242.81 639.807 C 1263.03 646.486 1278.73 661.155 1294.28 675.251 C 1408.51 778.771 1301.05 882.591 1198.12 932.84 C 1125.38 967.48 1048.83 993.445 970.022 1010.2 C 947.798 1014.74 926.719 1016.63 904.96 1020.43 C 810.546 1032.23 735.127 1034.25 640.93 1014.95 C 627.318 1011.04 611.381 1007.83 597.389 1004.66 C 585.856 1001.91 573.08 999.173 561.842 995.703 C 531.657 988.863 495.968 975.122 467.155 963.5 C 437.673 951.645 400.625 932.668 375.361 913.518 C 367.806 907.683 360.355 901.714 353.01 895.615 C 342.154 887.188 323.492 865.9 314.797 855.082 z" fill="rgb(255,255,255)" transform="translate(0,0)"></path>
<path d="M 1536.65 1506.48 C 1560.28 1508.77 1526.1 1555.36 1522.48 1565.89 L 1521.97 1567.4 C 1532.3 1555.73 1541.25 1547.4 1550.41 1534.26 C 1558.18 1523.1 1585.26 1506.54 1599.01 1508.81 L 1600.58 1511.53 C 1599.19 1516.54 1595.01 1520.52 1591.09 1523.81 C 1575.49 1538.17 1554.51 1547.88 1538.24 1560.98 C 1519.13 1576.38 1498.8 1591.59 1479.89 1607.05 C 1457.75 1625.14 1436.83 1645.46 1416.58 1665.57 C 1408.45 1674.06 1397.48 1681.8 1389.62 1690.38 C 1371.63 1710.04 1352.55 1728.82 1334.5 1748.38 C 1317.55 1766.75 1302.44 1787.33 1286.58 1806.6 C 1282.94 1811.03 1278.71 1815.08 1274.81 1819.27 C 1264.48 1830.55 1252.83 1841.97 1243.52 1854.06 C 1220.94 1883.41 1198.43 1912.24 1178.24 1943.36 C 1175.68 1947.32 1172.9 1951.12 1170.75 1955.34 C 1167.9 1960.6 1166.08 1967.77 1162.37 1971.87 L 1160.38 1971.95 C 1150.4 1951.3 1263.02 1824.16 1280.18 1800.32 C 1277.15 1784.57 1271.49 1767.88 1271.4 1751.84 C 1271.38 1746.88 1279.69 1738.61 1277.57 1731.4 C 1276.88 1729.08 1280.43 1718.59 1283.03 1716.14 L 1284.91 1716.37 C 1291.01 1723.68 1290.7 1774.75 1293.47 1788.25 L 1293.76 1789.59 C 1311.26 1767.71 1294.52 1748.32 1300.49 1722.97 C 1301.82 1717.32 1307.68 1699.09 1306.31 1694.94 C 1308.88 1690.42 1308.98 1687.53 1312.46 1683.7 L 1314.82 1684.71 C 1321.98 1694.33 1311.14 1742.81 1312.68 1756.82 C 1313 1759.7 1312.84 1761.44 1312.61 1764.32 L 1312.51 1765.42 L 1313.42 1765.42 C 1317.35 1761.52 1321.86 1753.74 1322.24 1748.27 C 1324.57 1714.85 1322.61 1678.09 1341 1648.12 C 1343.59 1655.59 1344.33 1661.79 1343.4 1669.66 C 1340.84 1691.25 1340.32 1714.97 1335.54 1736.06 L 1347.9 1722.4 C 1349.42 1683.92 1349.43 1652.19 1371.47 1619.49 C 1373.16 1622.1 1374.9 1624.88 1376.69 1627.39 C 1373.68 1642.73 1373.62 1659.24 1370.51 1674.73 C 1368.31 1685.73 1367.46 1696.9 1365.08 1707.96 C 1368.94 1703.26 1382.45 1689.66 1383.65 1686.81 C 1381.77 1687.41 1382.63 1687.08 1380.54 1688.04 L 1378.95 1688.78 L 1378 1687.68 C 1381.14 1667.11 1386.57 1601.12 1405.05 1591.05 C 1408.94 1591.7 1410.6 1596.2 1409.88 1599.48 C 1404.51 1623.99 1397.6 1646.75 1396.44 1672.07 C 1394.09 1674.33 1393.59 1674.54 1392.08 1677.49 L 1392.98 1677.9 C 1398.48 1672.9 1403.26 1668.73 1409.05 1664.08 C 1409.34 1631.07 1414.7 1600.89 1432.24 1571.51 C 1434.09 1568.42 1435.71 1567.85 1438.73 1567.38 C 1440.16 1568.17 1443.76 1571.83 1443.44 1573.23 C 1437.83 1597.2 1433.4 1622.82 1427.01 1646.5 C 1431.53 1641.59 1436 1637.47 1440.87 1632.92 C 1441.51 1607.23 1452.96 1570.47 1467.58 1548.38 C 1469.08 1546.11 1470.07 1545.96 1472.13 1545.83 C 1475.65 1548.68 1476.93 1547.68 1479.16 1549.62 C 1476.97 1565.95 1462.32 1604.71 1455.46 1621.02 C 1462.62 1613.96 1469.71 1606.83 1476.73 1599.64 C 1480.13 1582.13 1490.24 1534.61 1507.98 1527.09 L 1509.87 1528.08 C 1514.52 1537.73 1497.87 1574.5 1496.92 1583.72 L 1498.04 1584.79 C 1508.22 1582.83 1512.43 1563.75 1514.98 1555.08 C 1520.2 1537.33 1525.73 1521.7 1536.65 1506.48 z" fill="rgb(253,251,245)" transform="translate(0,0)"></path>
<path d="M 376.129 1302.91 C 378.48 1304.08 382.317 1316.92 383.213 1320.46 C 391.279 1352.27 405.43 1374.49 424.652 1400.5 C 419.919 1420.93 413.497 1436.42 402.086 1453.81 C 386.979 1445.79 367.771 1432.7 353.143 1423.13 C 328.609 1406.58 297.396 1385.74 271.035 1372.56 C 296.377 1341.68 339.956 1319.15 376.129 1302.91 z" fill="rgb(242,213,163)" transform="translate(0,0)"></path>
<path d="M 824.017 724.387 C 827.643 715.399 832.375 709.721 841.197 705.281 C 883.861 683.808 1005.21 698.014 1052.37 713.517 C 1087.11 724.942 1142.98 745.452 1169.93 769.989 C 1176.26 775.746 1180.63 782.02 1184.46 789.638 L 1182.02 791.892 C 1179.46 790.895 1176.81 788.663 1174.54 786.987 C 1172.97 787.28 1170.13 787.678 1168.64 786.808 C 1101.51 747.454 1024.81 718.247 947.241 709.086 C 913.105 705.055 865.76 697.819 837.299 720.564 C 831.016 725.585 846.74 750.505 848.828 756.464 C 878.337 816.997 917.855 871.047 969.02 915.082 C 979.583 924.173 991.374 937.894 1003.14 945.413 C 1008.05 949.447 1011.34 951.52 1013.85 957.561 C 1006.08 957.747 1005.89 957.854 999.83 953.175 C 996.763 950.312 991.037 945.743 988.24 942.272 C 988.263 942.301 989.054 940.875 988.62 938.953 L 986.214 940.455 C 978.345 936.038 964.29 922.194 956.764 915.699 C 903.244 869.509 846.662 791.734 824.017 724.387 z" fill="rgb(255,255,255)" transform="translate(0,0)"></path>
<path d="M 960 704.734 C 1005.57 704.074 1141.39 750.781 1171.6 783.246 C 1163.52 780.132 1147.4 767.028 1138.07 762.384 C 1112.32 749.562 1083.55 737.915 1056.47 728.601 C 1040.39 723.071 1024.07 718.301 1007.55 714.306 C 1000.85 712.732 961.517 705.886 960 704.734 z" fill="rgb(200,16,46)" transform="translate(0,0)"></path>
<path d="M 347.69 1184.83 C 349.731 1186.62 355.341 1215.98 357.169 1222.08 C 311.287 1248.02 241.335 1297.78 215.58 1343.96 C 209.204 1339.7 205.323 1337.12 198.5 1333.73 C 191.965 1330.55 185.288 1326.64 178.922 1323.05 C 201.968 1286.26 246.01 1254.84 280.45 1228.41 C 301.123 1212.54 325.885 1199.54 347.69 1184.83 z" fill="rgb(242,213,163)" transform="translate(0,0)"></path>
<path d="M 522.851 1460.12 C 533.369 1463.59 544.625 1468.87 555.517 1472.53 C 579.648 1480.66 603.341 1487.81 627.975 1494.52 C 638.526 1498.62 666.111 1499.07 674.696 1504.63 C 691.835 1515.72 674.412 1549.02 666.144 1560.11 C 657.594 1571.57 651.464 1581.51 644.642 1591.85 C 638.349 1588.58 631.694 1584.69 625.461 1581.2 C 624.141 1580.44 619.545 1577.7 619.644 1576.81 C 621.107 1563.59 624.66 1547.99 620.337 1534.83 C 614.94 1517.9 602.708 1504.01 586.602 1496.5 C 554.772 1481.5 513.634 1485.61 481.353 1497.09 L 467.52 1488.05 C 482.606 1477.54 505.53 1468.29 522.851 1460.12 z" fill="rgb(242,213,163)" transform="translate(0,0)"></path>
<path d="M 639.362 771.533 C 679.235 750.381 729.164 724.653 774.927 720.766 C 777.862 722.237 777.057 722.048 779.04 725.42 C 779.052 729.967 738.708 792.302 732.784 805.996 C 724.64 822.342 707.549 858.509 703.639 875.902 C 694.479 901.927 690.264 929.473 684.194 956.256 C 683.887 957.607 682.728 959.054 681.695 959.945 C 667.435 962.475 677.075 923.583 678.546 915.946 C 691.931 848.425 720.473 784.823 762.019 729.939 C 743.686 735.096 725.477 739.795 707.547 746.251 C 629.697 774.282 568.792 840.852 542.306 918.559 C 540.106 925.004 537.017 941.31 534.477 946.284 C 529.057 941.638 528.89 937.08 530.696 930.271 C 545.298 875.225 581.732 823.95 623.493 786.006 C 627.683 782.198 635.388 773.949 639.362 771.533 z" fill="rgb(255,255,255)" transform="translate(0,0)"></path>
<path d="M 771.043 726.951 C 771.139 727.903 771.008 728.865 770.658 729.756 C 768.733 734.56 757.85 750.926 754.493 756.256 C 717.376 815.199 692.684 877.216 681.621 946.44 L 680.047 945.551 C 683.979 912.073 694.809 874.971 705.957 842.982 C 714.084 819.664 729.579 793.588 741.216 771.61 C 745.355 763.793 751.241 756.403 755.529 748.581 C 759.078 742.107 762.222 735.447 766.057 729.175 C 768.022 728.298 769.684 727.557 771.043 726.951 z" fill="rgb(200,16,46)" transform="translate(0,0)"></path>
<path d="M 341.87 1166.03 L 343.349 1166.36 C 345.655 1169.42 346.553 1174.73 347.53 1178.62 C 295.937 1206.09 202.63 1270.4 173.237 1320.37 L 167.531 1316.78 L 155.422 1309.7 C 174.94 1270.96 217.902 1229.55 253.667 1205.12 C 258.122 1202.08 275.938 1194.07 281.415 1191.53 C 301.193 1182.17 321.363 1173.66 341.87 1166.03 z" fill="rgb(242,213,163)" transform="translate(0,0)"></path>
<path d="M 256.259 1381.33 C 262.987 1384.03 289.906 1401.07 296.224 1405.15 C 323.554 1423.07 350.776 1441.15 377.889 1459.4 C 373.129 1467.19 369.809 1470.39 363.199 1476.31 L 348.409 1487.58 C 344.471 1485.51 339.714 1482.63 335.956 1480.19 C 310.611 1463.72 283.589 1450.13 257.75 1434.6 C 254.583 1416.09 252.297 1399.78 256.259 1381.33 z" fill="rgb(242,213,163)" transform="translate(0,0)"></path>
<path d="M 1578.56 1270.92 C 1587.53 1274.26 1596.25 1278.21 1604.67 1282.74 C 1594.89 1315.47 1550.01 1347.64 1524.09 1368.89 C 1516.95 1374.76 1496.87 1390.67 1488.93 1394.26 C 1458.36 1408.07 1426.84 1421.39 1396.28 1435.32 L 1394.29 1434.01 C 1409.68 1425.29 1426.84 1415.95 1441.16 1405.8 C 1470.99 1384.67 1497.51 1358.37 1523.56 1332.83 C 1536.4 1320.25 1550.52 1307.71 1562.27 1294.26 C 1568.5 1287.14 1572.88 1278.68 1578.56 1270.92 z" fill="rgb(242,213,163)" transform="translate(0,0)"></path>
<path d="M 684.829 1504.83 C 698.638 1508.3 755.463 1512.36 771.846 1513.18 C 762.39 1530.35 719.094 1562.7 701.775 1576.13 C 689.842 1585.48 678.036 1594.99 666.359 1604.67 C 660.684 1601.54 655.172 1598.09 649.642 1594.71 C 664.68 1572.79 703.485 1533.17 684.829 1504.83 z" fill="rgb(242,213,163)" transform="translate(0,0)"></path>
<path d="M 526.835 1494.41 C 553.982 1491.5 589.565 1497.39 606.067 1521.43 C 617.863 1538.62 616.602 1554.19 613.156 1573.3 L 590.491 1559.85 L 488.164 1501.1 C 502.105 1497.88 512.605 1495.62 526.835 1494.41 z" fill="rgb(242,213,163)" transform="translate(0,0)"></path>
<path d="M 356.77 1230.79 L 358.358 1231.16 C 360.195 1234.31 365.15 1255.08 366.889 1260.63 C 329.847 1279.9 295.29 1299.08 264.004 1327.34 C 253.537 1336.8 246.676 1346.68 237.825 1355.63 L 235.955 1355.2 L 221.584 1346.56 C 243.057 1303.54 315.539 1255.85 356.77 1230.79 z" fill="rgb(242,213,163)" transform="translate(0,0)"></path>
<path d="M 493.993 1539.41 C 498.421 1538.81 512.276 1539.02 517.381 1538.98 C 531.886 1547.07 556.125 1562.15 569.655 1571.48 C 569.734 1587.05 565.056 1597.46 559.929 1611.95 C 552.851 1608.02 545.485 1603.37 538.525 1599.14 C 522.614 1589.11 506.644 1579.16 490.617 1569.32 C 476.55 1560.84 463.614 1553.77 450.024 1544.38 C 464.671 1542.64 479.328 1540.98 493.993 1539.41 z" fill="rgb(242,213,163)" transform="translate(0,0)"></path>
<path d="M 867.521 1511.41 C 871.427 1510.97 880.437 1511.02 884.728 1510.93 C 869.471 1520.24 853.794 1528.63 838.763 1538.53 C 814.975 1554.19 791.764 1571.06 768.099 1586.85 C 748.023 1600.24 729.116 1611.79 709.597 1626.16 C 708.021 1627.44 708.571 1627.03 706.532 1627.69 C 701.971 1625.97 697.902 1622.35 693.95 1619.32 C 704.047 1609.53 727.098 1593.83 739.116 1586.05 C 775.483 1562.54 799.982 1546.31 828.233 1513.12 C 842.229 1513.49 853.745 1512.66 867.521 1511.41 z" fill="rgb(242,213,163)" transform="translate(0,0)"></path>
<path d="M 952.23 1501.31 L 952.671 1502.23 C 946.748 1505.91 939.313 1508.84 932.961 1512.27 C 869.94 1546.32 808.846 1582.44 748.522 1621.11 C 740.29 1626.38 734.03 1632.08 726.318 1637.78 C 724.259 1639.31 720.745 1636.41 719.008 1635.35 C 717.126 1634.27 714.656 1632.56 712.773 1631.34 C 729.02 1619.99 744.905 1610.67 762.783 1598.42 C 806.872 1568.2 853.233 1534.66 900.843 1510.23 C 907.837 1506.64 940.999 1503.91 952.23 1501.31 z" fill="rgb(242,213,163)" transform="translate(0,0)"></path>
<path d="M 367.704 1269.01 C 371.08 1272.46 374.541 1289.78 375.897 1295.52 C 344.211 1309.26 312.999 1326.38 285.56 1347.49 C 279.923 1351.83 270.228 1361.79 263.853 1367.35 C 261.168 1367.67 259.323 1366.11 256.378 1364.7 L 244.53 1359.15 C 273.215 1321.11 324.115 1287.88 367.704 1269.01 z" fill="rgb(242,213,163)" transform="translate(0,0)"></path>
<path d="M 907.761 763.284 C 951.86 750.65 1102.45 842.516 1131.5 879.027 C 1133.27 881.258 1137.6 891.256 1139.03 894.523 L 1138.79 896.823 C 1129.59 902.314 1119.67 886.386 1112.48 880.561 C 1093.04 864.805 1073.58 848.228 1052.71 834.366 L 1040.53 826.81 C 1036.95 823.931 1023.38 816.331 1018.55 813.71 C 985.846 795.956 954.739 781.335 919.2 770.311 C 914.284 768.402 910.896 767.401 907.761 763.284 z" fill="rgb(255,255,255)" transform="translate(0,0)"></path>
<path d="M 1040.53 826.81 L 1041.63 823.723 C 1045.91 823.638 1048.44 825.676 1051.38 828.512 C 1052.14 829.251 1052.88 830.001 1053.62 830.764 C 1053.55 833.082 1053.7 832.227 1052.71 834.366 L 1040.53 826.81 z" fill="rgb(253,251,245)" transform="translate(0,0)"></path>
<path d="M 1086.97 850.651 C 1096.08 856.818 1128.36 880.482 1131.98 889.239 C 1116.57 877.25 1102.37 863.421 1085.98 852.003 L 1086.97 850.651 z" fill="rgb(200,16,46)" transform="translate(0,0)"></path>
<path d="M 1085.98 852.003 C 1082.66 849.921 1079.4 847.739 1076.2 845.458 L 1075.56 843.897 L 1075.12 844.482 L 1074.57 843.693 C 1078.29 844.451 1083.57 848.417 1086.97 850.651 L 1085.98 852.003 z" fill="rgb(231,186,191)" transform="translate(0,0)"></path>
<path d="M 228.368 1215.1 L 229.398 1215.61 C 224.253 1221.06 212.047 1229.53 205.463 1235.82 C 184.073 1256.24 163.311 1280.16 149.361 1306.15 C 140.676 1300.54 127.747 1293.76 118.404 1288.56 C 110.835 1284.67 105.265 1281.58 98.0433 1277.11 C 117.55 1257.37 199.755 1229.12 228.368 1215.1 z" fill="rgb(242,213,163)" transform="translate(0,0)"></path>
<path d="M 262.906 824.344 C 266.162 823.848 271.641 823.87 275.112 823.768 C 280.783 846.814 287.33 874.615 295.303 896.801 C 286.869 899.026 275.46 901.05 266.756 902.756 L 261.45 894.746 C 249.009 874.451 233.618 860.397 219.837 836.825 C 233.246 832.272 249.093 826.428 262.906 824.344 z" fill="rgb(255,255,255)" transform="translate(0,0)"></path>
<path d="M 796.687 692.032 C 796.055 685.752 812.119 679.948 817.016 677.96 C 865.975 657.826 919.901 652.868 972.334 651.409 C 981.284 651.16 990.872 652.046 999.783 652.28 C 1031.31 653.11 1062.62 658.759 1092.49 668.84 C 1100.55 671.558 1109.68 673.879 1115.95 680 C 1118.25 682.247 1117.41 685.268 1117.25 688.155 C 1086.75 680.54 1059.46 669.902 1022.59 665.408 C 955.205 657.194 869.339 661.997 806.136 690.865 C 805.928 691.027 805.72 691.189 805.512 691.35 C 800.837 693.716 801.016 694.261 796.687 692.032 z" fill="rgb(255,255,255)" transform="translate(0,0)"></path>
<path d="M 781.373 1513.37 L 819.425 1513.27 C 787.757 1552.8 741.068 1574.86 701.246 1604.83 L 687.354 1615.78 L 673.552 1608.3 C 701.571 1577.88 756.453 1551.76 781.373 1513.37 z" fill="rgb(242,213,163)" transform="translate(0,0)"></path>
<path d="M 952.54 1690.21 L 953.503 1690.28 L 953.272 1691.21 C 921.464 1707.23 889.991 1724.18 857.62 1739.28 C 844.295 1745.5 830.364 1753.67 816.713 1758.65 C 815.465 1749.48 815.278 1722.67 814.875 1712.22 C 832.37 1713.11 853.2 1709.17 870.833 1707.5 C 898.076 1704.93 926.029 1697.17 952.54 1690.21 z" fill="rgb(242,213,163)" transform="translate(0,0)"></path>
<path d="M 790.298 717.301 L 795.686 726.043 C 816.291 771.42 841.766 811.082 871.725 850.862 C 893.882 880.282 922.486 905.383 947.781 932.125 C 951.671 936.236 967.3 955.348 969.756 956.761 L 971.231 960.598 C 969.718 963.693 970.826 962.494 967.647 964.183 C 964.078 964.127 963.871 964.363 960.628 962.662 L 958.269 959.24 C 954.226 949.7 906.745 904.801 897.697 894.942 C 886.426 882.661 866.295 860.225 856.99 846.917 C 838.787 820.882 790.692 749.49 784.48 721.751 C 786.101 718.916 786.958 719.177 790.298 717.301 z" fill="rgb(255,255,255)" transform="translate(0,0)"></path>
<path d="M 1612.58 1288.23 C 1622.33 1292.8 1632 1297.52 1641.59 1302.41 C 1628.03 1317.41 1595.91 1347.92 1578.68 1358.25 C 1569.44 1363.79 1532.3 1378.58 1521.15 1382.87 L 1520.01 1380.3 C 1551.83 1355.17 1593.62 1325.01 1612.58 1288.23 z" fill="rgb(242,213,163)" transform="translate(0,0)"></path>
<path d="M 1417.05 342.423 C 1384.07 320.039 1337.68 286.603 1313.84 254.597 C 1302.8 240.313 1300.95 225.54 1304.06 208.127 C 1305.88 197.95 1326.14 172.205 1337.02 174.63 C 1339.51 176.878 1338.84 175.512 1339.75 178.424 C 1334.8 184.361 1328.22 186.673 1322.31 195.888 C 1316.22 205.381 1312.48 217.705 1315.31 228.802 C 1324.27 263.903 1378.1 301.995 1406.81 320.814 C 1413.33 326.095 1423.16 332.472 1430.26 337.366 C 1422.89 337.827 1422.87 337.824 1417.05 342.423 z" fill="rgb(255,255,255)" transform="translate(0,0)"></path>
<path d="M 215.16 1356.53 C 228.452 1365.22 237.948 1369.15 251.457 1376.65 C 244.587 1393.54 246.124 1412.64 249.555 1430.08 C 249.085 1431.55 249.51 1430.87 248.085 1432 C 239.765 1428.55 226.495 1421.77 221.265 1414.47 C 212.507 1402.25 213.158 1370.56 215.16 1356.53 z" fill="rgb(242,213,163)" transform="translate(0,0)"></path>
<path d="M 175.111 1335.54 C 183.231 1339.05 200.687 1349.12 208.768 1353.77 C 205.124 1374.18 207.317 1387.46 209.896 1407.77 L 209.369 1408.6 C 204.72 1408.87 189.272 1397.53 184.991 1394.17 C 178.973 1370.22 176.778 1360.02 175.111 1335.54 z" fill="rgb(242,213,163)" transform="translate(0,0)"></path>
<path d="M 837.723 826.543 C 845.623 832.114 839.764 842.812 835.819 848.925 C 814.318 882.241 800.476 918.411 793.421 957.393 C 792.93 960.104 792.355 961.984 789.988 963.437 C 786.242 963.055 784.652 963.679 782.873 961.585 C 782.477 956.84 783.7 949.989 784.487 945.074 C 790.836 905.42 814.491 858.89 837.723 826.543 z" fill="rgb(255,255,255)" transform="translate(0,0)"></path>
<path d="M 802.417 897.643 C 803.135 899.368 790.311 949.638 788.618 955.299 C 786.7 945.95 797.68 906.579 802.417 897.643 z" fill="rgb(200,16,46)" transform="translate(0,0)"></path>
<path d="M 449.585 1419.3 C 459.953 1425.03 469.355 1431.56 479.18 1438.16 C 467.41 1451.88 455.548 1461.25 441.606 1472.42 L 440.579 1473.09 C 435.679 1473.42 419.919 1462.55 414.772 1459.31 C 432.397 1445.66 440.036 1439.25 449.585 1419.3 z" fill="rgb(242,213,163)" transform="translate(0,0)"></path>
<path d="M 894.355 581.246 C 897.242 582.345 915.488 585.53 918.161 584.822 L 918.326 587.584 L 916.284 589.413 C 890.43 590.762 849.597 607.541 823.72 613.759 C 816.135 615.581 788.749 631.39 782.655 627.1 C 786.922 611.442 857.298 589.394 875.029 585.184 C 881.06 583.752 887.739 583.645 894.355 581.246 z" fill="rgb(255,255,255)" transform="translate(0,0)"></path>
<path d="M 888.887 588.377 L 889.375 588.602 L 889.2 589.495 C 870.122 594.077 851.189 599.248 832.43 605 L 832.113 604.834 L 831.978 604.072 C 850.483 597.282 869.517 592.033 888.887 588.377 z" fill="rgb(165,130,129)" transform="translate(0,0)"></path>
<path d="M 577.228 1575.64 L 610.724 1594.77 C 607.557 1605.86 602.078 1620.54 598.255 1631.67 L 597.33 1633.74 C 591.563 1633.44 572.406 1619.42 567.349 1615.31 C 573.033 1598.86 575.479 1593.23 577.228 1575.64 z" fill="rgb(242,213,163)" transform="translate(0,0)"></path>
<path d="M 1336.53 1143.33 C 1341.56 1142.93 1356.8 1152.87 1362.24 1155.99 C 1332.75 1162.96 1323.62 1162.3 1294.06 1174.96 C 1287.59 1177.97 1281.04 1180.84 1274.43 1183.55 C 1275.89 1174.28 1277.27 1167.84 1279.58 1158.73 C 1300.56 1153.66 1313.26 1146.9 1336.53 1143.33 z" fill="rgb(242,213,163)" transform="translate(0,0)"></path>
<path d="M 1397.66 1715.42 C 1405.69 1715.42 1437.99 1713.72 1441.56 1721.3 C 1438.48 1728.16 1406.61 1734.56 1397.78 1736.83 C 1382.86 1740.29 1368.03 1740.12 1352.84 1739.98 C 1371.14 1720.87 1371.17 1717.28 1397.66 1715.42 z" fill="rgb(253,251,245)" transform="translate(0,0)"></path>
<path d="M 458.732 1507.92 C 467.224 1509.37 495.408 1527.69 502.888 1533.47 C 490.323 1533.93 477.77 1534.69 465.24 1535.73 C 458.241 1536.17 444.946 1537.29 438.393 1539.1 C 432.266 1536.04 427.234 1533.08 421.34 1529.58 C 432.098 1522.33 447.088 1514.41 458.732 1507.92 z" fill="rgb(242,213,163)" transform="translate(0,0)"></path>
<path d="M 617.623 1598.81 C 628.21 1604.7 639.638 1610.53 650.388 1616.23 C 638.692 1625.7 634.069 1632.07 627.689 1645.5 C 627.141 1648.52 627.022 1649.45 625.983 1652.4 C 620.314 1650 609.918 1643.1 604.301 1639.6 C 605.909 1631.73 614.562 1608.51 617.623 1598.81 z" fill="rgb(242,213,163)" transform="translate(0,0)"></path>
<path d="M 1349.34 1776.58 C 1357.11 1775.86 1374.73 1774.56 1380.16 1780.87 C 1380.21 1796.13 1340.66 1797.43 1329.75 1797.98 C 1320.62 1798.33 1311.48 1798.41 1302.34 1798.23 C 1308.5 1792.16 1315.35 1785.97 1321.7 1780.03 C 1331.24 1777.92 1339.62 1777.31 1349.34 1776.58 z" fill="rgb(253,251,245)" transform="translate(0,0)"></path>
<path d="M 96.8213 1291.13 L 115.902 1300.19 C 115.407 1325.31 117.08 1339.42 126.314 1362.43 C 114.678 1355.48 105.889 1350.3 95.6336 1341.56 C 95.8407 1324.74 96.2367 1307.93 96.8213 1291.13 z" fill="rgb(242,213,163)" transform="translate(0,0)"></path>
<path d="M 1342.74 824.691 C 1359.79 837.488 1361.8 850.819 1373.03 868.52 C 1367.57 870.431 1362.38 871.627 1356.78 873.025 C 1348.23 874.544 1339.46 876.446 1330.93 878.178 C 1335.14 860.363 1337.8 842.14 1342.74 824.691 z" fill="rgb(255,255,255)" transform="translate(0,0)"></path>
<path d="M 1483.29 1627.54 C 1493.58 1627.78 1512.69 1628.04 1519.53 1636.6 C 1519.49 1644.09 1494.64 1648.52 1488.25 1649.07 C 1473.6 1648.95 1459.52 1647.83 1444.42 1647.86 C 1458.29 1634.14 1464.37 1628.08 1483.29 1627.54 z" fill="rgb(253,251,245)" transform="translate(0,0)"></path>
<path d="M 1365.39 1748.44 C 1373.76 1747.39 1402.99 1745.98 1407.15 1753.31 L 1406.1 1755.47 C 1397.54 1762.19 1380.04 1764.57 1369.12 1766.45 C 1361.6 1767.79 1334.68 1768.84 1326.12 1769.08 C 1332.82 1759.42 1337.39 1756.42 1346.74 1749.28 L 1365.39 1748.44 z" fill="rgb(253,251,245)" transform="translate(0,0)"></path>
<path d="M 1441.02 1684.57 C 1447.06 1684.39 1451.9 1684.77 1457.75 1686.31 C 1460.1 1688.53 1460.37 1688.34 1460.93 1691.43 C 1456.6 1701.7 1416.5 1705.78 1405.23 1706.83 C 1397.49 1707.39 1390.43 1708.17 1382.72 1709.1 C 1391.45 1699.84 1397.62 1693.86 1407.84 1686.33 C 1418.27 1684.89 1430.38 1684.87 1441.02 1684.57 z" fill="rgb(253,251,245)" transform="translate(0,0)"></path>
<path d="M 1443.42 1655.19 C 1453.6 1654.88 1484.43 1654.57 1490.71 1663.83 L 1490.2 1666 C 1483.88 1671.69 1470.69 1672.74 1461.76 1674.36 C 1441.33 1677.49 1435.05 1676.77 1414.25 1675.97 C 1423.62 1666.74 1430.5 1658.74 1443.42 1655.19 z" fill="rgb(253,251,245)" transform="translate(0,0)"></path>
<path d="M 776.869 1690.85 C 783.503 1695.39 790.445 1699.5 797.317 1703.68 C 782.591 1712.76 768.318 1721.13 754.987 1732.24 C 749.607 1730.71 739.995 1723.71 735.293 1720.45 C 743.376 1711.87 766.459 1696.78 776.869 1690.85 z" fill="rgb(242,213,163)" transform="translate(0,0)"></path>
<path d="M 800.235 1711.79 L 801.449 1712.47 C 804.689 1717.44 804.028 1751.38 803.92 1759.49 C 794.275 1756.46 788.899 1753.24 780.476 1747.84 C 774.786 1744.06 767.606 1739.99 761.653 1736.42 C 773.153 1728.42 787.871 1717.95 800.235 1711.79 z" fill="rgb(242,213,163)" transform="translate(0,0)"></path>
<path d="M 486.08 1441.58 C 489.722 1442.87 510.059 1453.96 514.611 1456.36 C 497.632 1463.4 485.646 1468.97 469.54 1477.83 L 458.622 1485.33 L 447.08 1478.36 C 460.398 1466.44 473.402 1454.18 486.08 1441.58 z" fill="rgb(242,213,163)" transform="translate(0,0)"></path>
<path d="M 122.321 1305.26 C 128.583 1308.14 136.257 1313.24 143.977 1316.89 C 144.032 1342.05 146.247 1352.28 152.517 1376.58 L 137.142 1367.86 C 126.691 1344.35 123.106 1331.07 122.321 1305.26 z" fill="rgb(242,213,163)" transform="translate(0,0)"></path>
<path d="M 402.55 1472.71 C 409.461 1475.97 419.228 1482.32 426.002 1486.44 C 416.05 1494.17 405.605 1506.05 397.812 1515.88 C 393.845 1515.49 379.531 1505.49 375.136 1502.59 C 384.138 1492.5 393.276 1482.54 402.55 1472.71 z" fill="rgb(242,213,163)" transform="translate(0,0)"></path>
<path d="M 1645.7 1524.56 L 1647.18 1525.61 C 1655.29 1542.25 1641.43 1563.49 1630.6 1575.73 C 1569.93 1644.32 1498.35 1702.52 1433.15 1766.68 C 1403.15 1796.19 1373.18 1826.18 1341.78 1854.19 L 1340.81 1853.67 C 1342.49 1850.49 1381.12 1815.08 1385.95 1810.13 C 1422.91 1772.28 1462.16 1736.66 1500.35 1700.13 C 1548.33 1654.22 1603.49 1609.81 1642.09 1555.76 C 1648.14 1547.27 1647.57 1534.29 1645.7 1524.56 z" fill="rgb(231,186,191)" transform="translate(0,0)"></path>
<path d="M 1336.26 1805.41 C 1341.97 1805.01 1362.17 1803.76 1364.92 1809.37 C 1361.55 1816.78 1337.97 1819.7 1329.47 1823.6 L 1327.85 1822.78 C 1320.24 1823.5 1293.01 1818.69 1293.11 1809.59 C 1298.6 1804.43 1326.65 1805.82 1336.26 1805.41 z" fill="rgb(255,255,255)" transform="translate(0,0)"></path>
<path d="M 1651.53 1558.75 C 1651.63 1559.72 1651.69 1559.93 1651.6 1561.04 C 1648.96 1596.54 1498.28 1724.76 1465.84 1754.41 C 1447.33 1771.32 1429.85 1789.4 1411.59 1806.6 C 1402.7 1814.98 1393.24 1822.66 1384.21 1830.88 C 1385.78 1820.78 1575.59 1655.93 1593.67 1632.48 C 1610.23 1611.02 1639.81 1592.93 1651.53 1558.75 z" fill="rgb(227,202,206)" transform="translate(0,0)"></path>
<path d="M 1496.25 1602.01 C 1505.41 1601.41 1533.72 1600.53 1540.04 1607.56 L 1539.87 1609.65 C 1534.39 1615.11 1525.88 1616.1 1518.23 1617.89 C 1499.95 1621.42 1495.49 1622.73 1476.53 1619.5 C 1483 1612.1 1488.41 1607.75 1496.25 1602.01 z" fill="rgb(253,251,245)" transform="translate(0,0)"></path>
<path d="M 151.131 1321.63 C 155.838 1323.95 163.728 1329.03 168.475 1331.9 C 169.069 1358.47 170.084 1362.53 175.941 1388.73 C 170.889 1386.52 166.936 1383.79 162.295 1380.84 C 156.761 1365.03 150.993 1337.88 151.131 1321.63 z" fill="rgb(242,213,163)" transform="translate(0,0)"></path>
<path d="M 1648.71 1305.71 C 1653.58 1309.2 1664.27 1314.17 1671.07 1318.64 C 1654.2 1325.81 1635.83 1336.12 1617.42 1344.02 C 1610.62 1346.75 1602.4 1349.43 1595.4 1351.91 C 1613.43 1341.6 1634.74 1320.96 1648.71 1305.71 z" fill="rgb(242,213,163)" transform="translate(0,0)"></path>
<path d="M 748.124 1675.61 C 751.881 1675.91 762.924 1683.03 766.868 1685.39 C 756.421 1692.87 737.756 1704.96 731.528 1715.49 L 731.148 1716.25 L 729.641 1716.66 C 724.219 1714.32 720.45 1711.36 715.692 1707.95 C 725.496 1696.86 737.261 1685.64 748.124 1675.61 z" fill="rgb(242,213,163)" transform="translate(0,0)"></path>
<path d="M 1566.41 1573.45 L 1568.81 1573.4 C 1571.37 1575.23 1571.26 1575.04 1572.64 1577.85 C 1570.92 1592.08 1522.94 1593.72 1512.5 1594.36 C 1509.19 1594.78 1509.36 1595.22 1506.65 1594.12 C 1520.32 1577.4 1546.07 1575.5 1566.41 1573.45 z" fill="rgb(253,251,245)" transform="translate(0,0)"></path>
<path d="M 1044.37 101.694 C 1044.61 102.746 1044.65 102.549 1044.57 103.677 C 1043.4 118.613 1064.92 136.334 1074.72 149.841 C 1080.71 158.247 1085.8 167.267 1089.88 176.749 C 1101.27 202.966 1103.28 226.789 1104.74 254.586 C 1100.04 254.184 1098.4 253.693 1098.32 248.563 C 1097.81 213.906 1090.74 181.918 1071.77 152.51 C 1063.13 139.122 1034.73 118.214 1044.37 101.694 z" fill="rgb(255,255,255)" transform="translate(0,0)"></path>
<path d="M 726.845 1662 C 732.915 1666.4 735.542 1668.06 742.184 1671.51 C 732.001 1680.03 715.24 1692.39 710.543 1704.53 L 694.615 1693.75 C 705.132 1685.07 716.347 1671.99 726.845 1662 z" fill="rgb(242,213,163)" transform="translate(0,0)"></path>
<path d="M 432.488 1491.62 L 452.162 1503.03 C 440.69 1509.85 430.503 1515.95 419.471 1523.44 C 417.446 1524.92 417.693 1524.71 415.416 1525.78 C 411.059 1525.22 407.189 1522.01 403.361 1519.48 C 412.916 1508.48 421.53 1500.91 432.488 1491.62 z" fill="rgb(242,213,163)" transform="translate(0,0)"></path>
<path d="M 657.035 1620.49 C 661.381 1622.26 665.643 1625.8 669.503 1628.65 C 661.748 1638.28 648.015 1652.01 645.284 1663.77 C 640.245 1661.18 635.601 1658.1 630.808 1655.08 C 639.653 1638.43 643.369 1633.54 657.035 1620.49 z" fill="rgb(242,213,163)" transform="translate(0,0)"></path>
<path d="M 1301.94 1124.38 C 1304.34 1124.4 1323.82 1135.93 1327.38 1137.95 C 1316.84 1140.16 1309.39 1142.4 1299.25 1145.9 C 1293.39 1148.32 1286.52 1150.66 1280.49 1152.86 C 1282.02 1144.54 1283.68 1136.25 1285.47 1127.99 C 1292.05 1125.94 1295.18 1125.45 1301.94 1124.38 z" fill="rgb(242,213,163)" transform="translate(0,0)"></path>
<path d="M 1590.16 1544.28 C 1593.76 1544.22 1594.45 1544.71 1596.6 1547.17 C 1597.96 1563.53 1551.16 1567.76 1540.23 1570.49 C 1537.85 1571.4 1537.3 1571.42 1534.75 1571.83 C 1540.47 1561.8 1577.52 1546.38 1590.16 1544.28 z" fill="rgb(253,251,245)" transform="translate(0,0)"></path>
<path d="M 706.994 1650.82 L 719.65 1658.04 C 709.154 1668.06 699.086 1678.85 689.054 1689.37 C 688.088 1689.65 687.075 1689.51 685.986 1689.5 C 683.083 1687.8 680.305 1686.71 678.788 1683.86 C 688.282 1671.71 695.722 1661.55 706.994 1650.82 z" fill="rgb(242,213,163)" transform="translate(0,0)"></path>
<path d="M 429.788 1404.23 C 435.13 1408.2 440.454 1412.56 445.676 1416.72 C 437.072 1430.5 432.948 1436.33 420.714 1446.72 L 409.11 1455.29 C 419.562 1432.62 423.764 1431.67 429.788 1404.23 z" fill="rgb(242,213,163)" transform="translate(0,0)"></path>
<path d="M 383.779 1462.52 C 387.017 1463.9 391.817 1466.58 395.081 1468.26 C 385.374 1480.05 377.873 1488.44 367.327 1499.25 C 361.967 1496.58 358.518 1494.24 353.586 1490.97 C 368.624 1482.24 375.382 1478.15 383.779 1462.52 z" fill="rgb(242,213,163)" transform="translate(0,0)"></path>
<path d="M 342.858 1050.74 C 345.971 1055.49 379.862 1215.46 379.657 1216.61 C 379.563 1217.14 379.429 1217.66 379.315 1218.19 C 371.011 1205.18 346.979 1073.31 342.858 1050.74 z" fill="rgb(255,255,255)" transform="translate(0,0)"></path>
<path d="M 676.835 1633.95 L 686.965 1638.68 C 675.795 1648.62 667.533 1657.77 659.829 1670.57 C 657.115 1671.34 652.625 1667.77 650.134 1666.27 C 658.42 1653.52 665.893 1644.36 676.835 1633.95 z" fill="rgb(242,213,163)" transform="translate(0,0)"></path>
<path d="M 693.275 1642.97 C 695.978 1644.51 697.214 1644.93 698.987 1647.52 C 700.572 1644.04 671.647 1683.21 673.407 1681.4 L 664.847 1674.85 C 674.264 1661.24 680.41 1653.12 693.275 1642.97 z" fill="rgb(242,213,163)" transform="translate(0,0)"></path>
<path d="M 1241.12 1809.85 C 1240.03 1752.36 1257.65 1704.14 1298.12 1662.8 C 1300.84 1660.03 1306.38 1653.73 1309.54 1652.32 C 1307.81 1656.07 1289.93 1673.88 1285.02 1680.25 C 1260.76 1711.76 1246.54 1747.59 1243.47 1787.33 C 1243.05 1792.78 1242.01 1804.04 1242.98 1809.14 L 1241.12 1809.85 z" fill="rgb(215,97,112)" transform="translate(0,0)"></path>
<path d="M 1274.88 958.327 C 1276.43 958.106 1280.33 956.253 1282.6 955.729 C 1296.92 952.423 1307.4 948.389 1322.21 950.569 C 1312.9 955.158 1282.55 963.966 1272.09 965.387 L 1271.29 963.982 C 1272.73 960.946 1272.74 960.908 1274.88 958.327 z" fill="rgb(255,255,255)" transform="translate(0,0)"></path>
<path d="M 1386.23 1575.8 L 1386.78 1577.61 C 1383.85 1580.76 1381.75 1583.95 1378.19 1586.63 C 1355.68 1603.55 1332.82 1628.87 1313.79 1649.2 L 1312.84 1649.86 L 1312.29 1649.08 C 1320.57 1634.59 1371.51 1588.55 1386.23 1575.8 z" fill="rgb(215,97,112)" transform="translate(0,0)"></path>
<path d="M 1520.63 1496.56 L 1521.99 1498.03 C 1494.27 1509.4 1463.02 1524.72 1438.58 1542.06 L 1437.79 1541.96 L 1437.67 1540.7 C 1450.72 1529.1 1503.62 1502.5 1520.63 1496.56 z" fill="rgb(215,97,112)" transform="translate(0,0)"></path>
<path d="M 1431.81 1543.96 L 1432.86 1544.8 C 1431.9 1546.4 1397.11 1571.32 1391.7 1575.92 L 1390.81 1575.09 C 1391.73 1571.09 1426.01 1547.63 1431.81 1543.96 z" fill="rgb(215,97,112)" transform="translate(0,0)"></path>
<path d="M 383.142 1228.11 C 385.018 1236.08 394.903 1276.13 394.581 1281.17 C 389.337 1267.05 384.423 1244.85 381.578 1229.64 L 383.142 1228.11 z" fill="rgb(227,141,164)" transform="translate(0,0)"></path>
<path d="M 1694.11 1580.63 L 1695.5 1580.01 C 1698.99 1582.91 1701.95 1588.38 1703.55 1592.59 C 1696.23 1594.49 1695.47 1586.61 1694.11 1580.63 z" fill="rgb(255,255,255)" transform="translate(0,0)"></path>
<path d="M 1286.12 1113.67 C 1289.45 1115.29 1290.44 1115.9 1293.54 1117.97 L 1293.24 1119.06 L 1287.32 1120.37 L 1286.13 1119.3 L 1286.12 1113.67 z" fill="rgb(227,202,206)" transform="translate(0,0)"></path>
<path d="M 653.41 550.029 C 646.528 553.113 644.31 553.488 636.994 555.034 L 637.287 552.725 C 642.66 551.755 647.995 550.724 653.41 550.029 z" fill="rgb(231,186,191)" transform="translate(0,0)"></path>
<path d="M 379.051 1219.35 C 382.01 1222.93 381.941 1223.46 383.142 1228.11 L 381.578 1229.64 C 379.753 1225.05 379.381 1224.23 379.051 1219.35 z" fill="rgb(227,202,206)" transform="translate(0,0)"></path>
<path d="M 1104.58 609.502 C 1100.67 608.297 1096.34 606.334 1092.52 604.727 C 1097.08 605.514 1101.55 606.502 1106.07 607.46 L 1104.58 609.502 z" fill="rgb(231,186,191)" transform="translate(0,0)"></path>
<path d="M 1520.01 1380.3 L 1521.15 1382.87 L 1508.76 1388.07 C 1512.2 1385.46 1516.4 1382.75 1520.01 1380.3 z" fill="rgb(235,209,184)" transform="translate(0,0)"></path>
<path d="M 798.434 529.872 L 804.937 530.704 L 804.962 532.21 L 794.462 532.019 L 798.434 529.872 z" fill="rgb(227,141,164)" transform="translate(0,0)"></path>
<path d="M 1396.28 1435.32 C 1393.07 1436.86 1392.94 1437.1 1389.3 1437.63 L 1389.43 1436.73 L 1394.29 1434.01 L 1396.28 1435.32 z" fill="rgb(231,186,191)" transform="translate(0,0)"></path>
<metadata><recraft-signature>{"signed_by": "recraft", "signature_b64": "3D5l4UxcEJv1lEJNvIix1HMmzMpkBWaaRGmLqQNBQhHBIy1j6D7Qkg892Pnsm8tGLcX9lMmhFTipVNwqQmsOCw==", "signing_algo": "Ed25519", "generation_timestamp": 1778092897, "identifier": "5c46ab3e-b991-4d65-8e49-6d719b54148a"}</recraft-signature></metadata></svg>