<svg xmlns="http://www.w3.org/2000/svg" height="1024" preserveAspectRatio="none" style="display: block;" version="1.1" viewBox="0 0 2048 2048" width="1024">
<path d="M 0 0 L 2048 0 L 2048 2048 L 0 2048 L 0 0 z" fill="rgb(250,246,237)" transform="translate(0,0)"></path>
<path d="M 1444.45 465.39 C 1451.67 464.493 1462.12 464.775 1469.33 465.398 C 1541.54 471.642 1616.98 509.975 1663.25 565.777 C 1697.87 607.533 1708.54 655.293 1704.32 708.194 C 1787.51 778.803 1853.09 858.352 1904.8 954.794 C 1930.29 1002.34 1954.68 1051.42 1956.97 1106.51 C 1958.03 1132.09 1956.99 1177.32 1939.53 1197.35 C 1924.94 1196.89 1889.44 1188.79 1874.58 1185.22 C 1870.61 1257.1 1834.08 1288.02 1772.03 1316.31 C 1739.03 1331.36 1728.22 1332.87 1705.47 1362.26 C 1703.11 1385.1 1693.75 1418.19 1689.25 1441.53 C 1678.92 1495.2 1666.19 1549.24 1652.61 1602.19 C 1647.62 1621.64 1638.27 1659.68 1628.28 1676.02 C 1567 1776.25 1410.32 1846.05 1301.24 1873.28 C 1239.81 1888.74 1177.31 1899.53 1114.25 1905.57 C 911.81 1924.59 667.051 1896.47 490.421 1790.11 C 414.691 1744.89 344.13 1677.98 322.407 1589.69 C 315.366 1561.07 310.166 1529.51 311.636 1500.05 C 210.27 1462.63 101.535 1394.93 85.5051 1276.46 C 79.2695 1230.37 104.731 1170 146.611 1147.85 C 175.011 1132.83 237.318 1102.35 269.582 1099.22 C 293.263 1049.72 313.047 1017.17 354.916 979.337 C 491.851 855.602 697.055 801.407 876.993 782.684 C 914.307 778.802 963.311 776.382 1000.43 778.1 C 983.291 768.68 958.762 750.603 942.632 738.391 C 893.349 701.076 827.849 650.799 789.946 602.415 C 801.143 557.836 881.022 514.931 921.866 501.539 C 1030.03 466.075 1151.78 472.006 1262.33 492.592 C 1282.84 496.411 1329.68 504.001 1348.24 513.079 C 1376.44 485.289 1404.78 469.611 1444.45 465.39 z" fill="rgb(87,39,18)" transform="translate(0,0)"></path>
<path d="M 571.711 1515.27 C 619.463 1531.68 685.018 1551.16 734.337 1560.78 C 843.97 1582.16 963.009 1586.75 1074.45 1580.11 C 1094.91 1578.89 1118.82 1575.81 1139.25 1572.99 C 1167.85 1569.06 1196.66 1566.94 1225 1561.15 C 1378.78 1529.75 1540.28 1474.44 1654.58 1362.46 C 1676.45 1341.02 1690.22 1318.15 1706.98 1293.19 C 1705.69 1303.79 1700.55 1322.65 1698.02 1334 L 1681.35 1410.4 C 1667.98 1470.75 1655.86 1531.68 1639.74 1591.35 C 1634.3 1611.5 1629.34 1632.14 1621.92 1651.68 C 1616.15 1666.85 1606.36 1680.96 1596.08 1693.4 C 1565.44 1730.55 1525.59 1759.14 1484 1782.79 C 1371.63 1846.68 1244.81 1876.11 1116.93 1888.18 C 896.334 1909 612.24 1878.92 435.962 1732.79 C 360.251 1670.03 330.695 1599.23 321.585 1502.91 C 344.497 1511.1 377.441 1519.08 402.264 1520.22 L 407.113 1520.88 C 411.354 1521.83 416.424 1522.15 420.78 1522.61 C 464.995 1527.26 509.034 1523.21 553.003 1518.06 C 559.308 1517.32 565.592 1516.93 571.711 1515.27 z" fill="rgb(230,98,80)" transform="translate(0,0)"></path>
<path d="M 402.264 1520.22 L 407.113 1520.88 C 417.793 1566.12 430.141 1611.88 447.907 1654.9 C 451.151 1662.76 454.387 1670.62 457.632 1678.47 C 428.141 1653.74 412.817 1593.81 405.59 1556.48 C 403.295 1544.62 400.66 1532.24 402.264 1520.22 z" fill="rgb(87,39,18)" transform="translate(0,0)"></path>
<path d="M 1575.32 1480.55 C 1575.79 1480.81 1576.3 1481.01 1576.73 1481.32 C 1579.54 1483.32 1579.85 1490.36 1580.06 1493.5 C 1580.93 1506.57 1577.98 1520.87 1575.55 1533.71 C 1565.15 1588.68 1546.86 1643.38 1520 1692.5 C 1516.06 1699.7 1512.46 1707.91 1506.99 1714.03 C 1505.3 1713.31 1504.03 1712.44 1502.56 1711.34 C 1502.63 1701.16 1514.88 1680.42 1519.29 1670.55 C 1532.99 1640.36 1544.61 1609.27 1554.07 1577.49 C 1558.94 1561.61 1562.99 1545.49 1566.23 1529.2 C 1568.79 1515.81 1570 1491.99 1575.32 1480.55 z" fill="rgb(87,39,18)" transform="translate(0,0)"></path>
<path d="M 1619.26 1472.45 C 1635.08 1483.38 1583.92 1649.99 1567.09 1669.17 C 1565.72 1668.66 1564.81 1668.72 1564.63 1667.55 C 1563.83 1662.31 1569.58 1646.57 1571.32 1641.18 C 1582.84 1606.24 1593.23 1570.92 1602.45 1535.3 C 1606.77 1518.99 1613.8 1486.78 1619.26 1472.45 z" fill="rgb(87,39,18)" transform="translate(0,0)"></path>
<path d="M 1514.39 1562.81 C 1516.02 1564.3 1516.84 1565.93 1517.1 1568.11 C 1520.86 1599.81 1472.42 1718.29 1451.09 1744.5 C 1449.09 1743.52 1449.47 1743.42 1448.67 1741.5 C 1450.07 1727.46 1466.39 1698.06 1472.19 1683.03 C 1481.46 1658.97 1490.27 1634.74 1498.62 1610.34 C 1503.79 1594.73 1507.59 1577.72 1514.39 1562.81 z" fill="rgb(87,39,18)" transform="translate(0,0)"></path>
<path d="M 438.945 1541.68 C 439.182 1541.86 439.44 1542.02 439.656 1542.23 C 446.551 1548.94 450.628 1580.01 453.79 1590.52 C 458.828 1606.96 464.191 1623.29 469.875 1639.51 C 475.086 1654.25 490.731 1690.04 491.122 1703.93 C 488.465 1701.23 486.416 1698.35 484.436 1695.13 C 461.931 1658.54 447.962 1614.7 440.803 1572.53 C 439.196 1563.07 436.713 1551.18 438.945 1541.68 z" fill="rgb(87,39,18)" transform="translate(0,0)"></path>
<path d="M 486.017 1592.74 C 491.439 1596.87 494.542 1616.91 497 1624.3 C 503.437 1643.69 510.085 1663.16 517.702 1682.11 C 523.566 1696.71 533.281 1713.38 536.246 1728.72 C 529.194 1721.49 523.643 1713.86 518.507 1705.16 C 505.335 1682.85 479.107 1619.11 486.017 1592.74 z" fill="rgb(87,39,18)" transform="translate(0,0)"></path>
<path d="M 1048.01 491.029 C 1106.91 486.541 1161.75 488.859 1220.17 497.842 C 1250.17 502.456 1280.46 506.443 1309.75 514.495 L 1310.21 517.491 C 1305.99 516.834 1302.33 516.355 1298.19 515.218 C 1255.92 528.598 1266.29 565.535 1300.84 580.513 C 1342.44 598.549 1371.55 562.378 1403.43 541.205 C 1409.07 546.256 1432.61 557.051 1440.38 560.923 C 1455.26 568.384 1470.05 576.009 1484.76 583.797 C 1515.27 599.888 1546.62 618.445 1576.42 635.923 C 1597.97 648.569 1626.19 664.977 1646.23 679.798 C 1643.57 711.239 1634.82 738 1655.19 764.678 C 1680.69 798.079 1747.66 780.989 1719.43 737.168 L 1721.38 736.154 C 1762.36 776.301 1800.02 819.692 1834.01 865.902 C 1840.76 875.056 1852.26 889.486 1855.46 899.919 C 1858.12 902.98 1863.52 908.859 1863.78 912.95 L 1862.98 914.124 C 1870.34 916.526 1896.06 965.347 1900.99 975.045 C 1902.18 977.388 1903.33 979.757 1904.42 982.148 C 1901.27 985.162 1895.32 989.91 1894.21 993.491 C 1899.35 989.55 1901.44 987.235 1905.86 982.54 L 1909.24 989.53 C 1911.2 993.663 1911.13 994.899 1911.1 999.526 L 1911.88 1001.02 C 1932.22 1024.87 1948.19 1103.85 1944.37 1134.21 C 1942.3 1140.99 1937.38 1140.03 1930.89 1140.49 C 1934.21 1141.06 1938.19 1141.06 1942.29 1141.74 C 1943.74 1146.89 1936.29 1178.75 1934.3 1185.17 C 1907.95 1177.47 1880.79 1172.07 1854.3 1165.25 C 1789.92 1148.65 1726.23 1133.31 1664.9 1106.93 C 1647.46 1099.42 1627.69 1094.24 1609.98 1086.56 C 1549.05 1060.13 1487.5 1034.98 1427.96 1005.46 C 1379.26 981.24 1331.74 952.696 1284.03 927.11 C 1212.87 888.948 1144.39 850.607 1075.53 808.209 C 1028.76 778.388 972.624 745.271 929.135 711.533 C 899.938 688.883 819.43 626.273 801.9 596.693 C 805.632 589.952 809.384 586.256 814.67 580.882 C 854.278 637.176 921.008 685.285 977.578 724.035 C 987.355 730.732 1009.38 745.008 1019.87 748.681 C 984.762 722.697 950.244 695.93 916.34 668.399 C 881.948 640.032 847.043 611.442 823.093 573.26 C 832.968 562.8 852.086 550.664 864.597 542.953 L 871.338 538.436 C 877.148 533.116 891.917 526.52 899.142 523.492 C 938.484 507.002 996.444 492.474 1039.12 491.911 C 1042.04 491.148 1044.98 491.175 1048.01 491.029 z" fill="rgb(230,98,80)" transform="translate(0,0)"></path>
<path d="M 1048.01 491.029 C 1106.91 486.541 1161.75 488.859 1220.17 497.842 C 1250.17 502.456 1280.46 506.443 1309.75 514.495 L 1310.21 517.491 C 1305.99 516.834 1302.33 516.355 1298.19 515.218 C 1255.92 528.598 1266.29 565.535 1300.84 580.513 C 1342.44 598.549 1371.55 562.378 1403.43 541.205 C 1409.07 546.256 1432.61 557.051 1440.38 560.923 C 1455.26 568.384 1470.05 576.009 1484.76 583.797 C 1515.27 599.888 1546.62 618.445 1576.42 635.923 C 1597.97 648.569 1626.19 664.977 1646.23 679.798 C 1643.57 711.239 1634.82 738 1655.19 764.678 C 1680.69 798.079 1747.66 780.989 1719.43 737.168 L 1721.38 736.154 C 1762.36 776.301 1800.02 819.692 1834.01 865.902 C 1840.76 875.056 1852.26 889.486 1855.46 899.919 C 1858.12 902.98 1863.52 908.859 1863.78 912.95 L 1862.98 914.124 C 1870.34 916.526 1896.06 965.347 1900.99 975.045 C 1902.18 977.388 1903.33 979.757 1904.42 982.148 C 1901.27 985.162 1895.32 989.91 1894.21 993.491 C 1855.34 1030.18 1548.99 887.251 1497.45 863.001 C 1492.05 860.461 1483.98 856.707 1478.5 854.002 C 1400.1 814.748 1324.5 770.13 1252.24 720.466 C 1223.84 700.533 1194.46 676.739 1166.72 654.605 C 1126.25 621.993 1088.7 592.603 1056.77 551.22 C 1033.67 521.277 1052.78 497.681 1048.01 491.029 z" fill="rgb(230,98,80)" transform="translate(0,0)"></path>
<path d="M 1862.98 914.124 C 1856.85 916.489 1851.55 919.939 1845.08 921.771 C 1799.07 934.782 1618.78 860.985 1568.59 839.177 C 1537.21 825.542 1505.49 810.767 1475.37 794.514 C 1386.21 746.395 1290.99 686.466 1217.05 616.96 C 1198.98 599.976 1180.68 582.158 1168 560.679 C 1164.56 554.864 1159.33 548.51 1157.69 541.888 C 1156.95 538.924 1157.28 538.003 1158.82 535.438 L 1161.11 534.874 C 1168.16 538.051 1178.06 562.312 1186.67 572.228 C 1207.7 596.481 1230.11 618.143 1255.04 638.403 C 1372.3 733.684 1504.42 807.178 1645.53 860.792 C 1667.24 869.039 1687.38 875.107 1709.82 882.935 C 1749.79 896.876 1792.09 912.405 1835.26 911.367 C 1844.13 911.154 1849.35 907.499 1854.55 901.062 L 1855.46 899.919 C 1858.12 902.98 1863.52 908.859 1863.78 912.95 L 1862.98 914.124 z" fill="rgb(250,246,237)" transform="translate(0,0)"></path>
<path d="M 1261.34 564.633 C 1270.26 567.061 1292.14 585.004 1300.43 591.793 C 1424.3 693.27 1566.2 769.457 1718 819.889 C 1722.19 821.282 1728.28 822.859 1730.39 827.024 C 1729.74 830.757 1730.33 828.933 1727.35 832.391 C 1721.82 831.149 1716.48 829.56 1711.09 827.638 C 1615.44 793.518 1522.13 752.339 1435.17 699.569 C 1384.12 668.588 1336.99 630.072 1288.52 595.271 C 1282.25 590.768 1259 575.453 1256.27 569.854 C 1257.24 566.829 1258.2 566.991 1261.34 564.633 z" fill="rgb(250,246,237)" transform="translate(0,0)"></path>
<path d="M 864.597 542.953 C 880.302 588.926 973.514 662.146 1010.99 692.101 C 1168.91 818.34 1349.58 914.792 1530.52 1003.49 C 1565.23 1020.5 1610.34 1041.35 1646.62 1055.9 C 1681.68 1069.95 1725.78 1083.43 1761.57 1095.87 C 1811.45 1113.19 1878.57 1137.06 1930.89 1140.49 C 1934.21 1141.06 1938.19 1141.06 1942.29 1141.74 C 1943.74 1146.89 1936.29 1178.75 1934.3 1185.17 C 1907.95 1177.47 1880.79 1172.07 1854.3 1165.25 C 1789.92 1148.65 1726.23 1133.31 1664.9 1106.93 C 1647.46 1099.42 1627.69 1094.24 1609.98 1086.56 C 1549.05 1060.13 1487.5 1034.98 1427.96 1005.46 C 1379.26 981.24 1331.74 952.696 1284.03 927.11 C 1212.87 888.948 1144.39 850.607 1075.53 808.209 C 1028.76 778.388 972.624 745.271 929.135 711.533 C 899.938 688.883 819.43 626.273 801.9 596.693 C 805.632 589.952 809.384 586.256 814.67 580.882 C 854.278 637.176 921.008 685.285 977.578 724.035 C 987.355 730.732 1009.38 745.008 1019.87 748.681 C 984.762 722.697 950.244 695.93 916.34 668.399 C 881.948 640.032 847.043 611.442 823.093 573.26 C 832.968 562.8 852.086 550.664 864.597 542.953 z" fill="rgb(230,98,80)" transform="translate(0,0)"></path>
<path d="M 871.338 538.436 C 900.168 593.015 960.597 641.882 1008.18 680.075 C 1147.08 791.367 1302.19 881.472 1461.4 960.399 C 1550.89 1004.76 1642 1048.19 1737.86 1077.92 C 1798.6 1096.76 1867.65 1121.59 1931.77 1126.87 C 1935.68 1127.19 1941.95 1124.95 1944.08 1127.79 L 1944.37 1134.21 C 1942.3 1140.99 1937.38 1140.03 1930.89 1140.49 C 1878.57 1137.06 1811.45 1113.19 1761.57 1095.87 C 1725.78 1083.43 1681.68 1069.95 1646.62 1055.9 C 1610.34 1041.35 1565.23 1020.5 1530.52 1003.49 C 1349.58 914.792 1168.91 818.34 1010.99 692.101 C 973.514 662.146 880.302 588.926 864.597 542.953 L 871.338 538.436 z" fill="rgb(250,246,237)" transform="translate(0,0)"></path>
<path d="M 1039.12 491.911 C 1042.04 491.148 1044.98 491.175 1048.01 491.029 C 1052.78 497.681 1033.67 521.277 1056.77 551.22 C 1088.7 592.603 1126.25 621.993 1166.72 654.605 C 1194.46 676.739 1223.84 700.533 1252.24 720.466 C 1324.5 770.13 1400.1 814.748 1478.5 854.002 C 1483.98 856.707 1492.05 860.461 1497.45 863.001 C 1548.99 887.251 1855.34 1030.18 1894.21 993.491 C 1899.35 989.55 1901.44 987.235 1905.86 982.54 L 1909.24 989.53 C 1911.2 993.663 1911.13 994.899 1911.1 999.526 C 1897.63 1013.2 1882.23 1013.52 1864.25 1012.78 C 1863.25 1012.35 1845.82 1009.13 1842.87 1008.51 C 1832.44 1006.24 1822.08 1003.63 1811.82 1000.67 C 1760.95 985.905 1709.99 963.621 1660.25 945.044 C 1610.11 926.317 1561.24 901.937 1512.92 878.986 C 1457.83 852.822 1403.34 824.85 1350.88 793.669 C 1275.63 748.094 1203.97 696.843 1136.52 640.363 C 1104.33 613.47 1063.79 581.557 1042.56 544.972 C 1032.04 526.861 1033.39 511.244 1039.12 491.911 z" fill="rgb(250,246,237)" transform="translate(0,0)"></path>
<path d="M 1864.25 1012.78 C 1882.23 1013.52 1897.63 1013.2 1911.1 999.526 L 1911.88 1001.02 C 1898.89 1013.83 1881.75 1017.65 1863.94 1013.52 L 1864.25 1012.78 z" fill="rgb(148,49,38)" transform="translate(0,0)"></path>
<path d="M 979.768 560.651 C 986.249 561.508 1017.13 591.627 1024.99 598.839 C 1110.1 676.903 1203.53 745.332 1302.44 805.721 C 1414.75 873.302 1532.44 931.51 1654.31 979.754 C 1706.89 1000.82 1761.48 1017.99 1814.29 1038.52 C 1825.31 1042.81 1876.42 1054.01 1881.37 1058.54 L 1881.27 1060.77 C 1857.6 1068.25 1664.23 995.988 1627.73 981.108 C 1425.4 899.919 1236.8 788.001 1068.6 649.302 C 1056.33 638.991 980.755 572.008 979.768 560.651 z" fill="rgb(87,39,18)" transform="translate(0,0)"></path>
<path d="M 1209.34 1080.69 C 1258.99 1068.65 1336.36 1059.23 1387.19 1067.55 C 1451.67 1078.1 1488.68 1127.44 1522.18 1179.97 C 1534.72 1197.5 1551.7 1230 1559.52 1250.35 C 1578.09 1287.06 1582.78 1328.55 1581.82 1369.06 C 1494.5 1439.08 1337.29 1495.49 1227.26 1514.62 C 1218.58 1424.42 1149.88 1302.28 1079.49 1243.52 C 1045.77 1215.36 1015.55 1201.43 975.573 1185.45 C 1038.59 1148.59 1103.76 1107.96 1175.14 1088.49 C 1183.56 1115.77 1192.98 1149.41 1208.75 1173.26 C 1225.63 1198.18 1252.42 1215.26 1272.53 1237.33 C 1285.59 1251.66 1298.75 1267.23 1311.16 1282.1 C 1337.35 1313.47 1371.65 1337.63 1393.08 1372.88 C 1395.54 1376.92 1398.56 1382.46 1401.36 1386.16 C 1404.52 1393.81 1415.65 1422.28 1420.26 1426.41 L 1424.71 1427.81 L 1426.51 1427.22 C 1427.82 1432.48 1428.3 1434.79 1430.6 1439.76 L 1431.34 1438.12 C 1430.49 1433.96 1429.84 1433.67 1431.6 1430.83 L 1434.31 1431.05 L 1435.41 1429.28 C 1434.58 1411.08 1429.53 1384.48 1424.61 1366.45 C 1402.84 1286.73 1363.89 1202.96 1303.7 1144.88 C 1285.75 1127.57 1231 1093.05 1209.34 1080.69 z" fill="rgb(254,207,130)" transform="translate(0,0)"></path>
<path d="M 1522.18 1179.97 C 1534.72 1197.5 1551.7 1230 1559.52 1250.35 C 1556.67 1247.65 1555.98 1246.01 1552.78 1245.4 C 1546.48 1247.89 1547.89 1247.55 1542.53 1244.02 C 1541.86 1242.06 1540.61 1239.79 1538.7 1238.84 C 1535.5 1239.73 1535.96 1242.41 1531.88 1246.34 C 1526.99 1245.33 1517.39 1236.94 1517.26 1230.98 L 1518.28 1230.95 C 1523.85 1241.51 1524.03 1236.6 1531.04 1244.5 L 1533.72 1242.69 L 1533.83 1241.15 C 1522.16 1235.67 1522.83 1228.99 1522.94 1217.41 L 1523.22 1218.13 C 1526.9 1215.12 1526.82 1214.87 1531.1 1215.95 C 1535.52 1195.48 1520.9 1191.57 1522.18 1179.97 z" fill="rgb(240,210,173)" transform="translate(0,0)"></path>
<path d="M 1523.22 1218.13 C 1526.9 1215.12 1526.82 1214.87 1531.1 1215.95 C 1529.81 1217.34 1529.63 1217.61 1528.15 1218.78 C 1527.79 1222.24 1528.52 1221.1 1526.81 1223.48 C 1524.48 1221.09 1524.62 1221.19 1523.22 1218.13 z" fill="rgb(6,3,2)" transform="translate(0,0)"></path>
<path d="M 1528.03 1230.75 C 1532.1 1232.73 1532.9 1235.33 1535.03 1239.34 C 1529.4 1237.36 1529.37 1236.48 1528.03 1230.75 z" fill="rgb(6,3,2)" transform="translate(0,0)"></path>
<path d="M 1435.41 1429.28 C 1436.14 1434.55 1436.66 1436.74 1434.67 1441.8 L 1432.86 1442.92 C 1430.65 1441.25 1431.46 1442.24 1430.6 1439.76 L 1431.34 1438.12 C 1430.49 1433.96 1429.84 1433.67 1431.6 1430.83 L 1434.31 1431.05 L 1435.41 1429.28 z" fill="rgb(89,30,7)" transform="translate(0,0)"></path>
<path d="M 1542.53 1244.02 C 1547.89 1247.55 1546.48 1247.89 1552.78 1245.4 C 1551.63 1248.07 1551.26 1248.26 1549.36 1250.54 C 1545.93 1251.7 1547.49 1251.85 1544.49 1250.5 C 1542.99 1247.53 1542.71 1247.44 1542.53 1244.02 z" fill="rgb(6,3,2)" transform="translate(0,0)"></path>
<path d="M 1226.52 1291.96 L 1225.86 1291.75 L 1226.82 1290.82 L 1225.5 1290.76 L 1227.11 1290.42 C 1227.36 1287.56 1226.7 1288.69 1228.85 1286.81 C 1234.49 1285.97 1243.9 1293.18 1238.36 1299.81 L 1236.46 1300.47 C 1232.26 1298.17 1233.66 1298.14 1229.65 1298.61 L 1226.93 1300.48 L 1225.55 1299.9 C 1225.63 1296.75 1225.99 1295.01 1226.52 1291.96 z" fill="rgb(240,210,173)" transform="translate(0,0)"></path>
<path d="M 1226.52 1291.96 C 1227.73 1294.36 1228.65 1296.09 1229.65 1298.61 L 1226.93 1300.48 L 1225.55 1299.9 C 1225.63 1296.75 1225.99 1295.01 1226.52 1291.96 z" fill="rgb(6,3,2)" transform="translate(0,0)"></path>
<path d="M 1481.55 1327.7 C 1484.78 1329.04 1484.82 1328.77 1486.79 1331.58 C 1487.6 1335.34 1487.21 1336.02 1486.33 1339.68 C 1482.97 1337.24 1482.98 1337.33 1480.49 1334.05 C 1479.86 1329.83 1479.66 1331.89 1481.55 1327.7 z" fill="rgb(6,3,2)" transform="translate(0,0)"></path>
<path d="M 1482.56 1364.55 C 1483.68 1364.77 1483.07 1364.7 1484.62 1364.63 L 1485.9 1364.57 L 1486.86 1366.24 L 1487.82 1365.99 L 1487.99 1364.78 L 1488.77 1366.01 L 1489.03 1365.22 C 1490.17 1365.87 1489.57 1365.43 1490.69 1366.69 C 1487.77 1367.4 1487.32 1367.35 1484.57 1368.67 L 1485.66 1370.35 C 1485.84 1374.21 1486.29 1372.53 1484.69 1375.67 L 1482.96 1375.55 C 1480.78 1370.46 1481.71 1370.52 1482.56 1364.55 z" fill="rgb(6,3,2)" transform="translate(0,0)"></path>
<path d="M 1444.33 1219.48 C 1446.92 1220.94 1454.44 1227.86 1454.85 1230.96 C 1445.94 1231.38 1444.99 1227.09 1444.33 1219.48 z" fill="rgb(6,3,2)" transform="translate(0,0)"></path>
<path d="M 1519.27 1349.78 C 1522.77 1350.13 1523.38 1349.84 1525.15 1352.48 C 1523.55 1355.92 1524.05 1354.84 1520.22 1357.16 C 1517.18 1356.13 1517.14 1356.27 1514.64 1354.34 C 1515.4 1351.42 1515.9 1351.99 1519.27 1349.78 z" fill="rgb(6,3,2)" transform="translate(0,0)"></path>
<path d="M 1371.97 1085.46 C 1375.29 1084.96 1378.69 1083.64 1380.49 1086.87 C 1378.34 1089.33 1377.68 1089.21 1374.57 1090.21 L 1373.94 1090.12 C 1371.65 1091.26 1372.4 1091.01 1370.01 1091.47 L 1368.49 1090.29 C 1369.09 1087.89 1370.17 1087.25 1371.97 1085.46 z" fill="rgb(6,3,2)" transform="translate(0,0)"></path>
<path d="M 1426.39 1190.89 C 1428.49 1190.48 1430.54 1191.77 1431.07 1193.84 C 1431.6 1195.92 1430.41 1198.04 1428.37 1198.68 C 1426.95 1199.12 1425.41 1198.74 1424.35 1197.7 C 1423.29 1196.65 1422.9 1195.11 1423.32 1193.68 C 1423.75 1192.26 1424.93 1191.19 1426.39 1190.89 z" fill="rgb(6,3,2)" transform="translate(0,0)"></path>
<path d="M 1148.29 1197.96 C 1154.04 1200.42 1156.5 1200.47 1158.53 1206.46 C 1151.73 1206.42 1149.83 1205 1148.29 1197.96 z" fill="rgb(6,3,2)" transform="translate(0,0)"></path>
<path d="M 1473.22 1347.87 C 1479.41 1348.22 1483.63 1351.44 1483.4 1358 L 1482.87 1358.01 C 1479.05 1354.78 1475.34 1352.31 1473.22 1347.87 z" fill="rgb(6,3,2)" transform="translate(0,0)"></path>
<path d="M 1340.22 1095.25 C 1346.68 1094.84 1348.26 1094.01 1352.35 1099.18 C 1348.66 1099.12 1343.39 1099.73 1340.65 1097.94 L 1340.22 1095.25 z" fill="rgb(6,3,2)" transform="translate(0,0)"></path>
<path d="M 1503.82 1331.92 C 1507.09 1333.84 1507.35 1334.42 1508.14 1337.05 C 1506.74 1340.26 1504.24 1341.16 1501.13 1343.01 L 1500.27 1341.63 C 1508.02 1335.91 1501.75 1339.49 1503.82 1331.92 z" fill="rgb(6,3,2)" transform="translate(0,0)"></path>
<path d="M 1490.06 1221.7 C 1491.01 1220.79 1492.38 1220.48 1493.63 1220.91 C 1494.87 1221.34 1495.76 1222.42 1495.95 1223.72 C 1496.14 1225.02 1495.58 1226.32 1494.51 1227.08 C 1493.01 1228.13 1490.96 1227.86 1489.79 1226.45 C 1488.62 1225.04 1488.74 1222.97 1490.06 1221.7 z" fill="rgb(6,3,2)" transform="translate(0,0)"></path>
<path d="M 1491.34 1199.56 C 1496.91 1200.49 1497.98 1203.83 1500.4 1208.47 C 1493.24 1206.31 1493.03 1206.46 1491.34 1199.56 z" fill="rgb(6,3,2)" transform="translate(0,0)"></path>
<path d="M 1398.66 1425.68 C 1400.6 1426.48 1400.15 1426.46 1401.77 1428.12 C 1401.22 1431.84 1401.91 1430.02 1398.43 1433.23 C 1396.91 1432.72 1396.09 1432.27 1394.65 1431.57 L 1394.55 1429.7 L 1398.66 1425.68 z" fill="rgb(6,3,2)" transform="translate(0,0)"></path>
<path d="M 1260.45 1443.68 C 1263.18 1444.92 1262.26 1444.37 1264.49 1446.48 C 1265.68 1449.7 1265.54 1449.49 1264.91 1452.91 C 1262.14 1451.41 1262.55 1451.51 1260.2 1449.4 C 1259.09 1445.59 1259.02 1447.43 1260.45 1443.68 z" fill="rgb(6,3,2)" transform="translate(0,0)"></path>
<path d="M 1540.95 1253.83 C 1545.79 1253.97 1548.66 1253.9 1549.89 1258.94 C 1547.3 1259.29 1546.74 1259.07 1544.11 1258.73 C 1540.89 1256.22 1541.9 1257.8 1540.95 1253.83 z" fill="rgb(6,3,2)" transform="translate(0,0)"></path>
<path d="M 1377.52 1409.65 C 1382.17 1411.51 1380.97 1414.39 1385.8 1415.77 L 1387.93 1413.43 L 1389.06 1415.04 C 1385.43 1417.47 1387.3 1417.03 1383.49 1417.17 C 1380.18 1415.27 1379.4 1413.01 1377.52 1409.65 z" fill="rgb(6,3,2)" transform="translate(0,0)"></path>
<path d="M 1271.26 1467.89 C 1275.85 1469.2 1276.92 1470.34 1278.36 1474.87 C 1274.15 1473.08 1272.68 1472.3 1271.26 1467.89 z" fill="rgb(6,3,2)" transform="translate(0,0)"></path>
<path d="M 392.542 1362.81 C 349.58 1326.57 310.871 1277.34 300.046 1221.6 C 289.33 1166.41 304.746 1110.91 336.188 1065.48 C 424.881 937.353 607.891 872.872 753.646 843.578 C 780.041 838.174 806.631 833.777 833.36 830.395 C 873.602 825.451 1036.1 811.205 1068.39 820.699 C 1083 824.996 1103.9 842.081 1117.29 850.424 C 1133.69 860.649 1150.75 870.352 1167.45 880.089 L 1254.85 930.175 C 1267.23 937.212 1286.04 946.886 1297.44 954.465 C 1308.6 960.176 1320.59 967.837 1331.74 974.083 C 1351.65 985.056 1371.61 995.925 1391.62 1006.69 C 1393.48 1009.47 1394.27 1009.89 1396.93 1011.72 C 1390.57 1011.91 1391.36 1014.26 1385.77 1017.45 C 1370.5 1009.69 1354.61 998.839 1338.82 990.95 C 1321.47 982.283 1304.96 976.535 1286.98 969.608 C 1283.37 968.925 1268.15 963.225 1263.32 961.538 C 1248.45 956.261 1233.45 951.356 1218.34 946.828 C 1147.23 925.736 1080.02 912.746 1005.13 914.965 C 823.971 920.333 624.382 977.022 496.146 1111.45 C 430.697 1180.06 389.783 1267.02 392.542 1362.81 z" fill="rgb(240,210,173)" transform="translate(0,0)"></path>
<path d="M 1297.44 954.465 C 1308.6 960.176 1320.59 967.837 1331.74 974.083 C 1351.65 985.056 1371.61 995.925 1391.62 1006.69 C 1393.48 1009.47 1394.27 1009.89 1396.93 1011.72 C 1390.57 1011.91 1391.36 1014.26 1385.77 1017.45 C 1370.5 1009.69 1354.61 998.839 1338.82 990.95 C 1321.47 982.283 1304.96 976.535 1286.98 969.608 C 1294.04 967.863 1329.84 985.139 1338.71 988.429 C 1346.07 991.16 1358.72 1004.35 1367.23 1000.72 L 1367.19 998.497 C 1362.22 990.391 1312.27 965.915 1297.91 956.306 L 1297.44 954.465 z" fill="rgb(250,246,237)" transform="translate(0,0)"></path>
<path d="M 485.936 1148.52 C 488.089 1149.6 495.49 1155.18 497.935 1156.97 C 558.214 1200.99 627.149 1205.64 698.878 1216.75 C 729.988 1221.87 761.014 1227.48 791.943 1233.6 C 780.223 1245.38 761.852 1262.44 751.676 1274.35 C 706.941 1326.67 672.56 1403.79 677.406 1473.3 C 678.151 1484.33 680.124 1492.26 683.142 1502.81 C 591.737 1480.79 480.848 1435.6 408.89 1373.62 C 408.742 1337.67 410.804 1302.13 422.488 1267.85 C 424.299 1262.54 427.082 1253.73 430.528 1249.34 C 432.759 1249.94 431.711 1249.9 433.659 1249.68 C 430.961 1244.38 434.293 1238.18 436.094 1232.72 C 446.598 1200.88 466.876 1175.34 485.936 1148.52 z" fill="rgb(254,207,130)" transform="translate(0,0)"></path>
<path d="M 485.541 1204.5 C 480.307 1201.78 479.981 1195.02 487.035 1192.62 C 490.297 1193.76 489.317 1193.53 491.637 1197.29 C 493.852 1196.7 494.892 1196.46 496.772 1195.16 C 497.124 1196.13 497.901 1203.86 497.599 1205.1 C 493.636 1208.27 489.479 1207.46 485.541 1204.5 z" fill="rgb(240,210,173)" transform="translate(0,0)"></path>
<path d="M 439.213 1306.88 C 438.627 1304.42 439.104 1305.21 437.638 1303.33 L 437.932 1301.14 C 442.101 1305.93 449.372 1310.34 449.388 1316.02 C 447.432 1318.04 443.494 1317.64 441.001 1316.92 C 439.873 1316.95 438.219 1316.74 437.047 1316.63 C 434.242 1314.65 435.044 1315.92 434.175 1312.97 C 435.649 1308.53 434.835 1310.07 439.213 1306.88 z" fill="rgb(240,210,173)" transform="translate(0,0)"></path>
<path d="M 439.213 1306.88 L 437.834 1310.75 C 439.364 1313.24 440.542 1314.05 441.001 1316.92 C 439.873 1316.95 438.219 1316.74 437.047 1316.63 C 434.242 1314.65 435.044 1315.92 434.175 1312.97 C 435.649 1308.53 434.835 1310.07 439.213 1306.88 z" fill="rgb(6,3,2)" transform="translate(0,0)"></path>
<path d="M 458.828 1297.59 C 461.532 1299.62 460.512 1298.37 461.91 1301.55 C 461.288 1304.72 459.173 1306.29 456.864 1308.71 C 455.021 1307.77 455.853 1308.25 454.543 1306.02 C 454.816 1302.38 456.651 1300.6 458.828 1297.59 z" fill="rgb(6,3,2)" transform="translate(0,0)"></path>
<path d="M 538.552 1417.14 C 543.392 1416.89 549.834 1420.58 551.485 1425.43 C 546.296 1425.01 540.798 1421.85 538.552 1417.14 z" fill="rgb(6,3,2)" transform="translate(0,0)"></path>
<path d="M 570.471 1253.95 C 574.382 1254.01 573.653 1253.44 576.576 1255.2 C 575.967 1258.27 576.5 1256.78 572.933 1259.41 C 570.638 1258.67 568.35 1257.91 566.07 1257.12 L 566.245 1255.83 L 570.471 1253.95 z" fill="rgb(6,3,2)" transform="translate(0,0)"></path>
<path d="M 464.056 1320.39 C 467.278 1321.26 467.091 1321.24 469.835 1323.2 C 471.504 1326.2 471.029 1327.21 470.543 1330.62 L 467.932 1330.8 L 466.563 1329.42 C 466.233 1325.1 466.003 1324.25 464.056 1320.39 z" fill="rgb(6,3,2)" transform="translate(0,0)"></path>
<path d="M 544.496 1270.57 L 545.903 1270.52 L 546.869 1272.01 C 546.138 1276.03 545.559 1276.54 543.328 1280.11 C 542.874 1279.85 541.252 1278.4 540.788 1278 C 540.346 1274.75 541.839 1274.21 544.496 1270.57 z" fill="rgb(6,3,2)" transform="translate(0,0)"></path>
<path d="M 520.603 1405.5 C 524.855 1409.49 525.725 1410.76 525.5 1416.62 C 522.807 1415.83 523.731 1416.22 521.41 1414.56 C 519.568 1411.25 520.212 1409.3 520.603 1405.5 z" fill="rgb(6,3,2)" transform="translate(0,0)"></path>
<path d="M 618.569 1367.76 C 621.632 1367.97 621.798 1367.7 624.301 1369.32 C 623.286 1371.95 622.462 1371.71 619.481 1373.61 C 617.086 1373.87 617.984 1373.88 615.595 1373.21 C 615.621 1370.19 616.057 1370.74 618.569 1367.76 z" fill="rgb(6,3,2)" transform="translate(0,0)"></path>
<path d="M 546.622 1393.91 C 547.854 1394.69 547.642 1394.74 548.576 1396.01 C 546.935 1399.16 546.278 1398.71 542.589 1400.87 L 540.49 1398.95 L 540.877 1397.1 L 546.622 1393.91 z" fill="rgb(6,3,2)" transform="translate(0,0)"></path>
<path d="M 643.114 1265.65 C 646.566 1266.16 650.624 1266.96 652.791 1269.52 C 650.493 1270.76 649.972 1270.71 647.378 1271.26 C 643.974 1269.44 645.057 1270.05 643.114 1265.65 z" fill="rgb(6,3,2)" transform="translate(0,0)"></path>
<path d="M 439.922 1271.85 C 444.219 1273.48 444.826 1276.5 445.992 1280.47 C 441.239 1278.21 440.735 1276.71 439.922 1271.85 z" fill="rgb(6,3,2)" transform="translate(0,0)"></path>
<path d="M 885.062 1150.72 C 928.664 1106.26 985.004 1073.3 1041.02 1048.19 C 1077.34 1031.9 1113.68 1036.57 1151.36 1037.52 C 1159.65 1037.73 1181.35 1026.27 1193.99 1024.53 C 1238.85 1018.34 1285.78 1019.56 1330.44 1026.94 C 1345.12 1029.43 1364.52 1036.88 1378.12 1042.54 C 1383.84 1044.86 1389.77 1047.03 1395.04 1050.2 C 1392.61 1053 1393.57 1051.38 1392.83 1055.63 C 1389.55 1056.14 1377.95 1053.38 1373.92 1052.57 C 1362.53 1050.98 1351.04 1050.33 1339.55 1050.61 C 1225.32 1052.63 1118.09 1089.8 1020.62 1146.86 C 1008.06 1154.22 963.421 1180.08 954.993 1188.76 C 964.667 1200.92 972.678 1213.93 981.726 1226.25 C 996.244 1246.03 1010.06 1263.23 1019.96 1286.1 C 1025.66 1299.27 1028.88 1312.09 1033.46 1325.61 C 1040.19 1345.22 1049.56 1363.84 1061.31 1380.93 C 1083.65 1412.78 1129.84 1441.9 1155.85 1470.5 L 1156.83 1471.58 C 1148.29 1465.51 1138.35 1457.43 1129.51 1452.35 C 1086.89 1427.83 1044.42 1402.98 1004.01 1374.89 C 992.223 1366.7 980.776 1356.13 969.824 1346.84 C 948.094 1328.39 928.004 1305.74 920.924 1277.43 C 917.584 1264.15 917.52 1250.74 915.345 1237.15 C 902.718 1245.27 884.29 1262.85 872.608 1273.1 C 804.002 1333.33 733.009 1419.68 705.078 1507.59 C 700.183 1506.32 695.165 1505.46 690.192 1504.52 C 687.062 1491.87 685.284 1475.6 685.812 1462.51 C 689.157 1379.61 730.062 1303.43 791.306 1248.12 C 794.47 1262.24 796.272 1266.76 802.181 1280.27 C 779.914 1317.06 721.349 1405.75 715.031 1443.26 C 735.864 1400.61 757.273 1365.13 784.252 1326.21 C 794.712 1311.11 800.111 1299.18 812.972 1284.72 C 809.559 1270.86 802.244 1258.08 801.152 1243.89 C 800.865 1240.16 801.488 1233.33 801.432 1228.77 C 793.213 1215.31 626.391 1198.26 599.478 1190.15 C 575.245 1182.85 550.672 1176.96 527.288 1163.39 C 576.605 1172.11 626.35 1171.17 676.277 1172.82 C 701.127 1173.64 726.186 1176.03 751.051 1174.96 C 786.831 1173.43 822.427 1167.98 858.347 1169.5 C 864.945 1169.77 891.905 1171.13 895.415 1168.16 C 895.584 1163 888.371 1154.95 885.062 1150.72 z" fill="rgb(240,210,173)" transform="translate(0,0)"></path>
<path d="M 974.194 1151.56 C 1004.16 1126.72 1040.56 1109.78 1076.07 1094.43 C 1081.14 1092.24 1093.62 1085.81 1098.86 1086.77 L 1100.15 1088.67 C 1099.23 1091.25 1098.86 1091.99 1096.02 1093.17 C 1056.98 1109.36 1010.94 1129.71 976.24 1153.21 L 974.194 1151.56 z" fill="rgb(89,30,7)" transform="translate(0,0)"></path>
<path d="M 974.194 1151.56 L 976.24 1153.21 C 974.087 1155.03 972.68 1156.73 969.975 1157 C 970.595 1154.11 971.597 1154.05 974.194 1151.56 z" fill="rgb(111,53,16)" transform="translate(0,0)"></path>
<path d="M 905.423 1259.77 C 907.835 1263.74 908.386 1275.72 910.096 1280.95 C 917.622 1304.07 932.939 1327.53 950.761 1344.07 C 999.798 1389.23 1058.94 1422.89 1117.23 1454.65 C 1152.83 1474.05 1166.43 1490.76 1192.56 1520.37 C 1133.26 1529.57 1061.85 1538.14 1001.77 1538.22 C 961.416 1538.23 921.018 1538.01 880.708 1535.06 C 825.227 1530.46 770.113 1522.18 715.73 1510.26 C 743.161 1425.23 836.347 1314.2 905.423 1259.77 z" fill="rgb(254,207,130)" transform="translate(0,0)"></path>
<path d="M 842.739 1366.96 C 847.004 1367.48 849.449 1367.04 850.811 1371.41 C 848.632 1375.01 849.278 1373.89 844.636 1375.93 C 841.849 1376.82 840.905 1376.44 839.091 1374.8 C 839.122 1371.15 840.549 1369.93 842.739 1366.96 z" fill="rgb(240,210,173)" transform="translate(0,0)"></path>
<path d="M 979.919 1401.78 C 983.379 1402.54 985.836 1402.78 989.153 1404.19 C 989.614 1407.41 988.983 1406.96 986.635 1410.6 L 984.49 1411.72 C 981.473 1409.04 979.976 1405.75 979.919 1401.78 z" fill="rgb(240,210,173)" transform="translate(0,0)"></path>
<path d="M 848.891 1381.64 C 851.167 1383.18 850.399 1382.75 851.884 1385.54 C 852.016 1389.4 851.734 1389.33 849.647 1392.45 C 847.826 1391.05 847.443 1390.54 845.837 1388.87 C 845.647 1385.11 846.305 1385.58 848.891 1381.64 z" fill="rgb(6,3,2)" transform="translate(0,0)"></path>
<path d="M 964.748 1386.7 C 970.56 1387.61 973.681 1389.52 972.935 1395.78 C 969.368 1394.89 965.362 1390.42 964.748 1386.7 z" fill="rgb(6,3,2)" transform="translate(0,0)"></path>
<path d="M 797.802 1480.33 C 799.314 1480.91 801.06 1481.49 802.415 1482.38 C 804.679 1483.87 805.108 1485.62 805.739 1488.09 L 802.972 1488.83 C 800.124 1487.07 799.07 1483.29 797.802 1480.33 z" fill="rgb(6,3,2)" transform="translate(0,0)"></path>
<path d="M 775.842 1479.95 C 778.72 1480.16 780.486 1479.87 782.864 1481.58 L 781.995 1483.8 C 780.281 1484.41 778.793 1484.68 776.986 1484.87 C 775.28 1482.99 775.836 1482.4 775.842 1479.95 z" fill="rgb(6,3,2)" transform="translate(0,0)"></path>
<path d="M 806.112 1470.1 L 808.402 1471.49 L 808.612 1473.24 L 805.729 1475.29 L 800.891 1473.59 L 800.72 1472.61 L 806.112 1470.1 z" fill="rgb(6,3,2)" transform="translate(0,0)"></path>
<path d="M 513.076 1118.52 C 523.851 1108.13 534.571 1096.06 546.138 1086.66 C 610.255 1034.57 681.878 1000.24 759.497 973.998 L 764.809 975.239 L 761.94 975.986 L 761.444 977.536 C 771.123 989.178 923.319 1011.26 949.059 1016.61 C 966.854 1020.27 984.378 1025.14 1001.51 1031.19 C 1009.62 1033.98 1020.5 1037.29 1027.15 1042.44 L 1027.22 1044.1 C 1022.27 1047.77 992.115 1062.53 984.418 1066.68 C 941.656 1089.71 913.592 1109.93 879.809 1144.46 C 836.921 1101.52 779.902 1086.33 721.289 1082.17 C 649.912 1077.12 576.563 1082.88 513.076 1118.52 z" fill="rgb(254,207,130)" transform="translate(0,0)"></path>
<path d="M 677.028 1049.93 C 678.616 1050.82 678.879 1051.36 680.215 1052.7 L 679.842 1054.07 C 676.047 1055.61 674.014 1054.99 669.774 1054.6 L 667.802 1054.74 C 670.331 1052.37 673.686 1051.38 677.028 1049.93 z" fill="rgb(6,3,2)" transform="translate(0,0)"></path>
<path d="M 756.886 1013.01 C 760.41 1012.86 764.268 1012.15 766.58 1013.94 L 764.698 1016.11 C 761.593 1016.94 760.867 1017.12 757.529 1017.48 L 756.256 1016.07 L 756.886 1013.01 z" fill="rgb(6,3,2)" transform="translate(0,0)"></path>
<path d="M 648.921 1044.88 L 650.012 1045.83 C 651.275 1049.75 651.273 1047.9 650.548 1051.56 L 649.154 1051.06 C 646.773 1050.16 645.903 1049.73 643.656 1048.52 L 643.895 1047.27 L 648.921 1044.88 z" fill="rgb(6,3,2)" transform="translate(0,0)"></path>
<path d="M 771.913 1023.87 C 777.791 1023.9 779.463 1023.8 782.781 1028.83 C 776.096 1029.13 775.818 1028.92 771.913 1023.87 z" fill="rgb(6,3,2)" transform="translate(0,0)"></path>
<path d="M 759.775 1022.82 C 763.005 1022.74 764.8 1022.18 766.994 1024.5 L 766.503 1027.57 C 762.059 1027.08 761.84 1027.84 759.27 1025.44 L 759.775 1022.82 z" fill="rgb(6,3,2)" transform="translate(0,0)"></path>
<path d="M 668.231 1039.48 L 670.554 1040.52 L 670.718 1042.27 C 668.105 1044.49 666.585 1045.4 663.737 1047.18 L 663.669 1047.42 L 663.569 1047.06 C 665.367 1041.43 664.088 1043.38 668.231 1039.48 z" fill="rgb(6,3,2)" transform="translate(0,0)"></path>
<path d="M 632.813 1055.15 C 637.094 1054.97 637.471 1054.21 640.399 1056.05 L 640.607 1058.52 C 636.23 1058.98 637.043 1059.54 633.628 1057.93 L 632.813 1055.15 z" fill="rgb(6,3,2)" transform="translate(0,0)"></path>
<path d="M 1391.62 1006.69 C 1401.33 1011.1 1416.72 1017.73 1425.71 1022.67 C 1437.28 1027.1 1452.89 1035.48 1464.37 1041.08 C 1479.09 1048.16 1493.96 1054.94 1508.96 1061.41 C 1541.19 1075.92 1573.73 1089.74 1606.55 1102.86 C 1636.22 1114.4 1662.41 1123.12 1692.16 1133.5 C 1704.61 1179.54 1697.79 1225.79 1676.98 1268.16 C 1658.54 1305.71 1630.03 1332.91 1598.87 1359.48 C 1601.77 1243.7 1518.81 1129.76 1435.95 1056.21 C 1423.04 1044.75 1408.97 1034.67 1395.61 1023.84 C 1392.6 1022.19 1388.7 1019.41 1385.77 1017.45 C 1391.36 1014.26 1390.57 1011.91 1396.93 1011.72 C 1394.27 1009.89 1393.48 1009.47 1391.62 1006.69 z" fill="rgb(240,210,173)" transform="translate(0,0)"></path>
<path d="M 1391.62 1006.69 C 1401.33 1011.1 1416.72 1017.73 1425.71 1022.67 C 1425.36 1022.98 1425.01 1023.29 1424.65 1023.61 C 1420.44 1021.86 1397.34 1015.74 1393.97 1015.7 L 1393.57 1018.44 C 1394.65 1020.49 1395.16 1021.57 1395.61 1023.84 C 1392.6 1022.19 1388.7 1019.41 1385.77 1017.45 C 1391.36 1014.26 1390.57 1011.91 1396.93 1011.72 C 1394.27 1009.89 1393.48 1009.47 1391.62 1006.69 z" fill="rgb(240,210,173)" transform="translate(0,0)"></path>
<path d="M 265.614 1108.13 L 266.586 1109.47 L 256.488 1151.28 C 251.574 1152.64 244.742 1155.02 239.843 1156.75 C 208.039 1167.97 168.456 1185.17 152.913 1217.42 C 143.043 1237.9 142.09 1265.73 150.171 1287.43 C 180.794 1369.65 270.71 1422.21 353.632 1437.98 C 364.805 1440.11 379.138 1440.22 390.151 1440.83 C 397.378 1441.23 421.717 1439.61 426.772 1441.7 C 437.42 1446.1 454.232 1456.91 464.878 1463.15 C 485.63 1475.31 502.933 1484.6 524.668 1494.81 C 511.319 1496.18 494.912 1496.77 481.5 1497.07 C 410.723 1498.58 339.423 1489.28 275.671 1457.15 C 206.935 1422.51 133.158 1360.42 109.126 1285.33 C 101.032 1260.04 95.5676 1224.03 108.832 1199.84 C 116.303 1186.22 130.523 1168.74 143.378 1160.32 C 177.767 1137.8 226.866 1120.95 265.614 1108.13 z" fill="rgb(230,98,80)" transform="translate(0,0)"></path>
<path d="M 1013.1 793.477 C 1021.77 791.884 1033.53 800.446 1041.24 805.105 C 956.256 797.348 840.573 812.217 756.7 826.578 C 569.872 858.566 248.909 984.865 283.161 1222.25 C 300.249 1340.68 457.167 1441.76 560.668 1482.62 C 761.463 1560.89 991.526 1574.98 1203.04 1538.79 C 1331.77 1516.77 1463.35 1473.05 1571.75 1399.36 C 1660.82 1339.64 1731.9 1258.17 1710.02 1142.21 C 1711.23 1140.5 1710.46 1141.26 1713.16 1140.6 C 1723.14 1146.57 1721.58 1167.57 1723.04 1178.53 C 1723.69 1183.43 1721.98 1197.22 1721.51 1202.63 C 1713.09 1299.65 1641.98 1363.61 1565.59 1413.36 C 1534.07 1434 1501.14 1452.41 1467.05 1468.44 C 1343.07 1525.6 1175.86 1559.81 1038.69 1564.98 C 809.838 1573.59 534.079 1527.78 360.012 1367.78 C 310.861 1322.6 273.148 1264.33 270.56 1195.92 C 266.905 1127.15 300.194 1056.37 348.938 1007.69 C 482.621 874.191 681.711 822.859 863.92 801.417 C 914.707 795.441 962.856 794.969 1013.1 793.477 z" fill="rgb(250,246,237)" transform="translate(0,0)"></path>
<path d="M 661.663 1092.46 C 663.421 1092.41 665.18 1092.38 666.939 1092.36 C 744.34 1091.92 822.37 1105.58 879.428 1161.84 C 858.471 1159.83 827.599 1159.99 806.448 1161.62 C 773.75 1164.14 747.486 1168.4 714.248 1166.14 C 665.26 1163.08 616.572 1163.56 567.654 1160.28 C 552.343 1159.25 501.813 1156.03 494.084 1141.92 C 496.145 1136.24 512.934 1129.39 518.726 1126.64 C 565.091 1104.66 610.702 1095.2 661.663 1092.46 z" fill="rgb(254,207,130)" transform="translate(0,0)"></path>
<path d="M 966.629 1194.53 C 984.262 1199.41 1005.02 1212.21 1021.11 1221.57 C 1101.39 1268.27 1156.49 1351.86 1191.84 1435.79 C 1202.85 1461.95 1209.44 1489.05 1216 1516.54 L 1201.03 1518.66 C 1198.53 1512.64 1195.93 1505.3 1192.41 1499.9 C 1160.65 1451.05 1103.62 1422.74 1068.13 1377.13 C 1044.08 1346.23 1039.45 1312.32 1026.04 1278.48 C 1017.01 1255.7 983.778 1213.44 966.629 1194.53 z" fill="rgb(240,210,173)" transform="translate(0,0)"></path>
<path d="M 252.435 1178.74 L 254.075 1179.01 C 255.946 1183.3 254.615 1199.66 255.52 1205.55 C 258.576 1218.94 259.404 1242.58 264.523 1254.8 C 274.99 1279.79 275.487 1300.57 279.517 1327.23 C 283.857 1355.34 289.168 1383.29 295.44 1411.04 C 271.696 1402.26 255.822 1392.35 235.407 1378.32 C 183.286 1340.54 124.792 1271.46 186.692 1212.63 C 205.585 1194.67 229.674 1189.66 252.435 1178.74 z" fill="rgb(250,246,237)" transform="translate(0,0)"></path>
<path d="M 1674.27 764.094 C 1645.49 746.319 1654.16 717.057 1657.18 690.612 C 1671.08 568.846 1495.42 461.749 1394.44 533.103 C 1367.69 552.005 1339.98 580.47 1304.52 567.848 C 1293.73 564.004 1280.43 555.512 1279.43 542.913 C 1279.03 538.324 1280.51 533.77 1283.53 530.291 C 1290.28 522.448 1301.46 521.376 1311.03 520.463 L 1312.03 521.48 C 1310.74 522.245 1310.78 522.411 1309.42 522.574 C 1282.2 525.829 1279.54 559.183 1308.91 562.359 C 1318.32 564.296 1331.63 558.489 1335 548.559 C 1341.19 530.346 1353.33 519.75 1368.83 507.764 C 1400.86 482.753 1440 471.366 1480.24 478.464 C 1575.7 495.305 1683.42 562.434 1692.35 667.987 C 1694.08 688.463 1692.65 703.77 1689.66 723.714 C 1688.47 724.345 1687.29 724.987 1686.11 725.64 C 1671.97 733.502 1668.84 742.014 1677.43 756.153 L 1674.27 764.094 z" fill="rgb(230,98,80)" transform="translate(0,0)"></path>
<path d="M 1504.5 503.069 C 1514.97 504.298 1527.21 508.962 1537.08 512.56 C 1573.76 525.94 1605.03 541.824 1630.74 571.95 C 1653.41 598.508 1669.42 637.507 1668.71 672.587 C 1668.46 685.29 1665.78 701.524 1664.77 714.854 C 1663.87 717.109 1664.59 716.185 1662.58 717.605 C 1659.77 714.575 1661.12 672.285 1660.51 664.204 C 1659.87 655.6 1658.44 647.074 1656.21 638.737 C 1636.09 564.486 1572.18 530.222 1506.18 504.093 C 1505.62 503.752 1505.06 503.41 1504.5 503.069 z" fill="rgb(87,39,18)" transform="translate(0,0)"></path>
<path d="M 1030.7 931.461 C 1135.27 926.633 1307.1 984.156 1393.26 1043.23 C 1382.46 1039.34 1371.76 1033.91 1360.72 1029.9 C 1342.86 1023.41 1327.09 1020.06 1308.71 1016.61 C 1258.48 1009.02 1201.28 1009.4 1153.57 1027.85 C 1138.24 1025.61 1126.99 1015.61 1115.17 1005.98 C 1065 965.044 1001.98 946.55 937.609 938.263 C 960.604 934.626 1007.91 932.334 1030.7 931.461 z" fill="rgb(254,207,130)" transform="translate(0,0)"></path>
<path d="M 1189.08 976.286 C 1193.57 974.767 1198.44 975.043 1200.55 979.934 L 1200.12 981.053 L 1200.21 983.439 C 1198.26 985.139 1198.57 984.187 1198.37 986.097 C 1200.89 989.126 1200.57 987.544 1200.56 990.718 C 1196.59 992.132 1194.88 990.746 1191.55 988.631 C 1191.1 990.238 1191.53 989.414 1189.88 990.866 C 1185.68 990.158 1183.1 990.45 1180.24 987.997 L 1183.85 985.414 C 1188.16 982.898 1187.75 980.999 1189.08 976.286 z" fill="rgb(240,210,173)" transform="translate(0,0)"></path>
<path d="M 1189.08 976.286 C 1193.57 974.767 1198.44 975.043 1200.55 979.934 L 1200.12 981.053 C 1196.15 979.714 1192.85 978.059 1189.08 976.286 z" fill="rgb(6,3,2)" transform="translate(0,0)"></path>
<path d="M 1198.37 986.097 C 1200.89 989.126 1200.57 987.544 1200.56 990.718 C 1196.59 992.132 1194.88 990.746 1191.55 988.631 C 1194.27 987.214 1195.47 987 1198.37 986.097 z" fill="rgb(6,3,2)" transform="translate(0,0)"></path>
<path d="M 1121.2 992.782 C 1122.65 992.84 1124.09 993.022 1125.51 993.324 C 1129.81 994.245 1130.39 995.75 1132.38 998.861 C 1128.81 999.14 1128.49 999.149 1124.96 998.7 C 1121.73 996.158 1122.77 997.156 1121.2 992.782 z" fill="rgb(6,3,2)" transform="translate(0,0)"></path>
<path d="M 1163.33 964.094 C 1168.96 964.033 1172.43 963.294 1176.24 967.738 C 1169.88 970.5 1168.11 968.304 1163.33 964.094 z" fill="rgb(6,3,2)" transform="translate(0,0)"></path>
<path d="M 1138.84 994.011 C 1144.57 993.835 1147.17 995.037 1149.51 1000.25 C 1143.24 999.213 1141.71 999.761 1138.84 994.011 z" fill="rgb(6,3,2)" transform="translate(0,0)"></path>
<path d="M 1069.99 951.371 C 1072.41 951.028 1074.65 950.907 1077.08 950.745 C 1080.37 952.461 1079.08 951.216 1080.74 954.927 C 1078.14 954.95 1075.53 954.952 1072.92 954.934 C 1070.03 953.304 1070.94 954.475 1069.99 951.371 z" fill="rgb(6,3,2)" transform="translate(0,0)"></path>
<path d="M 1105.13 983.302 L 1111.59 982.857 C 1114.66 984.603 1113.46 983.35 1114.81 987.187 L 1109.89 987.88 C 1106.53 986.581 1107.55 986.924 1105.13 983.302 z" fill="rgb(6,3,2)" transform="translate(0,0)"></path>
<path d="M 1180.24 987.997 C 1177.12 986.675 1176.52 986.736 1174.36 984.098 L 1174.64 982.593 C 1179.04 982.299 1179.21 983.27 1183.85 985.414 L 1180.24 987.997 z" fill="rgb(6,3,2)" transform="translate(0,0)"></path>
<path d="M 1062.05 959.888 C 1066.97 960.161 1069.33 960.064 1072.52 963.626 L 1066.88 964.781 C 1063.28 963.361 1064.47 963.96 1062.05 959.888 z" fill="rgb(6,3,2)" transform="translate(0,0)"></path>
<path d="M 1183.19 964.054 C 1189.09 964.812 1190.7 964.525 1193.63 969.86 C 1187.72 969.799 1186.37 968.932 1183.19 964.054 z" fill="rgb(6,3,2)" transform="translate(0,0)"></path>
<path d="M 1090.08 950.242 C 1096.08 949.614 1096.82 949.248 1100.86 953.759 C 1094.93 953.995 1094.27 954.542 1090.08 950.242 z" fill="rgb(6,3,2)" transform="translate(0,0)"></path>
<path d="M 1414.63 1396.27 C 1400 1350.58 1372.3 1328.33 1339.89 1296.62 C 1316.52 1273.76 1295.76 1245.31 1271.36 1223.11 C 1255.71 1207.78 1228.87 1186.58 1216.73 1170.59 C 1205.86 1156.28 1188.62 1105.43 1185.44 1087.28 C 1193.62 1073.63 1259.45 1127.02 1268.96 1134.94 C 1354.4 1206.05 1399.19 1312.14 1424.53 1419.6 L 1422.54 1420.45 L 1414.63 1396.27 z" fill="rgb(240,210,173)" transform="translate(0,0)"></path>
<path d="M 1463.67 521.481 C 1493.69 516.806 1543.75 538.241 1568.76 553.984 C 1608.42 578.946 1635.76 616.451 1646.25 662.254 C 1636.56 656.771 1627.05 650.987 1617.73 644.909 C 1581.28 621.436 1543.98 599.33 1505.88 578.638 C 1479.57 564.031 1443.53 543.811 1415.72 535.073 C 1429.77 526.142 1447.44 523.048 1463.67 521.481 z" fill="rgb(250,246,237)" transform="translate(0,0)"></path>
<path d="M 1726.17 1263.34 C 1746.04 1244.62 1778.3 1239.58 1799.93 1219.82 C 1814.26 1206.72 1823.72 1193.96 1825.3 1174 C 1837.9 1177.18 1850.44 1180.55 1862.93 1184.14 C 1862.31 1192.37 1861.82 1205.12 1857.76 1211.81 C 1857.87 1214.91 1857.75 1215.15 1858.67 1218.05 L 1858.2 1218.78 C 1845.22 1289.02 1751.53 1296.76 1706.81 1343.65 C 1708.64 1336.91 1712.11 1325.49 1713.39 1318.94 C 1714.17 1307.65 1722.6 1274.29 1726.17 1263.34 z" fill="rgb(230,98,80)" transform="translate(0,0)"></path>
<path d="M 1713.67 1319.18 C 1725.17 1313.74 1737.34 1306.77 1748.93 1300.66 C 1778.76 1285.02 1808.68 1271.86 1833.24 1248.04 C 1843.59 1238 1849.23 1219.43 1857.76 1211.81 C 1857.87 1214.91 1857.75 1215.15 1858.67 1218.05 L 1858.2 1218.78 C 1845.22 1289.02 1751.53 1296.76 1706.81 1343.65 C 1708.64 1336.91 1712.11 1325.49 1713.39 1318.94 L 1713.67 1319.18 z" fill="rgb(87,39,18)" transform="translate(0,0)"></path>
<path d="M 1713.67 1319.18 C 1714.89 1321.54 1714.94 1321.16 1716.97 1323.12 C 1721.09 1324.18 1742.72 1312.52 1748.18 1309.62 C 1778.2 1293.69 1811.53 1279.7 1835.93 1255.46 C 1846.42 1245.05 1851.62 1231.58 1858.2 1218.78 C 1845.22 1289.02 1751.53 1296.76 1706.81 1343.65 C 1708.64 1336.91 1712.11 1325.49 1713.39 1318.94 L 1713.67 1319.18 z" fill="rgb(230,98,80)" transform="translate(0,0)"></path>
<path d="M 888.271 950.429 C 896.842 950.041 905.43 950.333 913.955 951.302 C 968.325 957.107 1018.35 991.425 1052.1 1033.1 L 1042.6 1037.16 C 1033.61 1032.13 1027.6 1028.96 1018.16 1025.01 C 990.259 1013.46 961.19 1007.23 931.738 1001.39 C 918.886 998.835 891.488 995.825 880.982 990.564 C 867.505 983.816 848.774 966.237 838.849 955.047 C 856.448 952.269 870.57 951.267 888.271 950.429 z" fill="rgb(240,210,173)" transform="translate(0,0)"></path>
<path d="M 1732.1 1147.88 C 1736.6 1148.72 1741 1150.06 1745.39 1151.33 C 1768.36 1157.94 1791.68 1163.35 1814.68 1169.81 C 1814.43 1172.48 1814.12 1175.14 1813.75 1177.8 C 1810.78 1198.4 1797.34 1210.51 1781.72 1222.19 C 1768.05 1231.07 1744.86 1239.36 1728.44 1248.45 C 1734.06 1217.86 1740.98 1178.21 1732.1 1147.88 z" fill="rgb(250,246,237)" transform="translate(0,0)"></path>
<path d="M 287.364 1303.75 C 291.324 1307.48 305.815 1333.67 311.697 1340.64 C 340.509 1374.78 376.708 1406.57 414.005 1430.89 C 384.882 1430.4 336.696 1426.54 309.954 1415.93 C 306.4 1403.92 304.574 1387.64 301.774 1375.04 C 296.476 1351.2 291.027 1327.93 287.364 1303.75 z" fill="rgb(230,98,80)" transform="translate(0,0)"></path>
<path d="M 954.573 952.002 C 980.818 955.121 1048.19 976.855 1073.56 988.488 C 1084.07 993.305 1114.74 1015.76 1125.11 1023.66 L 1125.12 1024.82 L 1122.25 1025.11 C 1099.98 1025.28 1083.48 1026.22 1061.67 1030.8 C 1034.13 991.069 997.152 970.539 954.573 952.002 z" fill="rgb(240,210,173)" transform="translate(0,0)"></path>
<path d="M 95.4687 1278.77 L 97.1509 1276.22 C 137.328 1423.85 316.236 1511.01 457.625 1508.79 C 472.856 1508.55 490.091 1506.99 504.226 1507.25 L 508.113 1509.31 C 495.153 1512.06 467.422 1511.45 453.668 1511.33 C 371.004 1510.63 289.414 1488.24 219.192 1444.12 C 171.832 1414.35 126.774 1371.32 105.845 1318.35 C 100.071 1303.74 98.7698 1293.4 95.4687 1278.77 z" fill="rgb(230,98,80)" transform="translate(0,0)"></path>
<path d="M 759.497 973.998 C 783.045 967.812 804.128 960.633 828.243 956.626 C 840.127 969.735 851.008 981.649 866.185 991.29 C 839.858 990.604 792.448 979.579 764.809 975.239 L 759.497 973.998 z" fill="rgb(240,210,173)" transform="translate(0,0)"></path>
<path d="M 254.766 1161.12 C 256.336 1162.47 255.654 1161.66 255.989 1164.54 C 253.745 1171.09 239.504 1174.39 232.848 1176.94 C 223.495 1180.48 214.389 1184.64 205.591 1189.39 C 173.563 1207.11 163.364 1223.62 153.54 1257.29 C 153.154 1256.91 152.515 1255.59 152.217 1255.04 C 151.762 1196.73 208.922 1176.33 254.766 1161.12 z" fill="rgb(230,98,80)" transform="translate(0,0)"></path>
<path d="M 1309.92 532.145 C 1317.2 531.823 1328.47 534.078 1325.01 543.812 C 1322.03 546.872 1321.22 546.813 1316.94 548.094 C 1302.92 547.741 1292.21 539.79 1309.92 532.145 z" fill="rgb(250,246,237)" transform="translate(0,0)"></path>
<path d="M 1311.13 537.437 C 1312.82 538.638 1312.56 538.728 1313.84 540.54 C 1313.7 544.542 1314.33 542.739 1311.55 546.006 L 1310.59 545.018 C 1309.57 541.621 1310.11 540.812 1311.13 537.437 z" fill="rgb(240,210,173)" transform="translate(0,0)"></path>
<path d="M 1692.23 732.037 C 1699.3 731.939 1708.2 733.728 1708.48 742.277 C 1707.13 745.523 1706.2 745.861 1703.38 747.909 C 1701.88 748.017 1700.37 748.095 1698.87 748.145 C 1688.44 748.397 1679.12 740.095 1692.23 732.037 z" fill="rgb(250,246,237)" transform="translate(0,0)"></path>
<path d="M 1309.75 514.495 L 1341.37 521.437 L 1335.14 531.559 C 1325.48 523.962 1319.12 523.556 1310.21 517.491 L 1309.75 514.495 z" fill="rgb(241,146,114)" transform="translate(0,0)"></path>
<path d="M 1688.37 762.888 L 1689.59 763.128 C 1697.08 764.529 1704.1 764.42 1710.86 760.473 C 1714.28 758.474 1714.72 755.727 1717.25 753.28 C 1721.98 767.923 1697.91 769.021 1688.46 768.818 C 1689.01 765.777 1688.95 765.95 1688.37 762.888 z" fill="rgb(250,246,237)" transform="translate(0,0)"></path>
<path d="M 1392.83 1055.63 C 1393.57 1051.38 1392.61 1053 1395.04 1050.2 C 1405.24 1054.65 1419.53 1064.34 1428.92 1071.11 C 1415.91 1066.25 1405.1 1060.47 1392.83 1055.63 z" fill="rgb(250,246,237)" transform="translate(0,0)"></path>
<path d="M 504.226 1507.25 C 519.815 1505.87 540.869 1500.7 553.544 1505.37 C 538.194 1507.21 523.609 1508.76 508.113 1509.31 L 504.226 1507.25 z" fill="rgb(241,146,114)" transform="translate(0,0)"></path>
<path d="M 1677.43 756.153 C 1681.95 759.691 1683.11 760.776 1688.37 762.888 C 1688.95 765.95 1689.01 765.777 1688.46 768.818 C 1681.91 767.309 1680.5 766.897 1674.27 764.094 L 1677.43 756.153 z" fill="rgb(241,146,114)" transform="translate(0,0)"></path>
<path d="M 1719.43 737.168 C 1712.01 728.47 1702.81 724.107 1699.7 719.433 C 1707.17 721.693 1716.24 730.436 1721.38 736.154 L 1719.43 737.168 z" fill="rgb(211,183,164)" transform="translate(0,0)"></path>
<path d="M 95.4687 1278.77 C 94.3145 1273.24 92.4566 1264.96 93.0049 1259.47 C 95.3096 1264.6 96.0884 1270.62 97.1509 1276.22 L 95.4687 1278.77 z" fill="rgb(148,49,38)" transform="translate(0,0)"></path>
<path d="M 1396.15 1041.94 C 1401.52 1042.86 1403.94 1045.43 1407.65 1049.16 C 1403.38 1048.02 1399.33 1044.92 1396.15 1041.94 z" fill="rgb(131,94,64)" transform="translate(0,0)"></path>
<path d="M 1424.53 1419.6 C 1425.2 1422.03 1426.06 1424.78 1426.51 1427.22 L 1424.71 1427.81 L 1422.54 1420.45 L 1424.53 1419.6 z" fill="rgb(211,183,164)" transform="translate(0,0)"></path>
<path d="M 1815.65 1641.48 C 1846.81 1613.29 1881.58 1578.65 1925.95 1576.67 C 1914.58 1604.48 1882.72 1644.45 1853.89 1656.22 C 1840.26 1661.78 1820.01 1664.22 1805.31 1664.27 C 1793.61 1681.46 1783.21 1696.33 1770.96 1713.05 C 1806.35 1685.28 1841.92 1680.52 1884.5 1675.07 L 1886.07 1676.04 C 1886.46 1682.36 1879.23 1688.2 1875.55 1693.02 C 1846.32 1731.24 1792.26 1752.29 1744.53 1743.9 C 1734.18 1751.99 1726.02 1762.57 1716.96 1772.09 C 1709.25 1780.2 1701.33 1788.17 1693.28 1795.95 C 1705.25 1790.57 1717.98 1783.7 1729.58 1778.55 C 1751.22 1768.94 1800.67 1760 1824.21 1759.4 L 1826.34 1760.47 C 1827.49 1768.75 1810.63 1780.71 1804.51 1785.46 C 1777.95 1806.01 1746.52 1824.84 1712.05 1826 C 1700.3 1828.23 1675.1 1825.98 1663.57 1821.96 C 1655.21 1826.24 1644.06 1834.64 1636.12 1840.31 C 1625.67 1847.77 1613.28 1855.68 1603.26 1863.42 C 1619.13 1859.11 1629.84 1855.9 1646.09 1853.87 C 1671.26 1850.82 1691.9 1854.76 1716.66 1857.3 C 1721.49 1857.45 1726.15 1857.08 1730.34 1859.2 L 1731.94 1861.32 C 1729.23 1878.15 1662.81 1899.36 1643.55 1895.06 C 1626.57 1895.61 1596.17 1884.4 1581.69 1873.42 C 1567.28 1884.03 1546.41 1892.62 1532.32 1903.57 C 1549.48 1897.37 1558.15 1897.03 1576.22 1895.31 C 1590.92 1894.58 1662.61 1899.56 1670.02 1910.51 L 1669.93 1912.33 L 1667.25 1914.74 L 1660.15 1917.84 C 1650.4 1922 1640.31 1925.3 1629.99 1927.68 C 1590.55 1936.75 1549.5 1935.19 1514.67 1913.38 C 1496.29 1919.36 1433.15 1939.95 1417.79 1931.09 C 1421.94 1926.25 1489.57 1918.2 1506.82 1903.86 C 1532.17 1882.78 1543.38 1822.59 1559.19 1808.88 C 1573.07 1790.12 1599.86 1778.01 1620.43 1767.82 L 1622.78 1765.82 L 1624.22 1766.33 C 1625.25 1771.87 1621.46 1784.3 1619.93 1790.08 C 1611.12 1816.08 1590.48 1850.85 1571.96 1871.55 C 1593.39 1853.21 1621.43 1840.07 1643.5 1822 C 1645.97 1819.97 1652.29 1814.95 1654.9 1813.49 C 1654.79 1806.29 1655.38 1799.09 1656.68 1792.01 C 1658.51 1766.33 1661.47 1747.26 1671.88 1723.64 C 1676.42 1713.82 1694.49 1684.96 1704.27 1682.57 L 1705.46 1683.47 C 1710.35 1696.05 1717.85 1739 1713.73 1753.41 C 1713.05 1755.78 1712.49 1756.16 1713.42 1758.71 C 1718.49 1757.69 1726.01 1747.69 1729.66 1743.46 C 1722.72 1727.95 1718.15 1697.79 1719.68 1680.9 L 1719.6 1679.27 C 1721.55 1660.78 1725.06 1648.82 1731.55 1631.45 C 1734.41 1623.62 1749.25 1589.52 1757.21 1589.65 C 1761.38 1595.59 1762.62 1611.5 1764.07 1619.04 C 1770.55 1652.87 1773.17 1677.31 1760.48 1710.15 C 1773.57 1696.45 1789.95 1671.86 1800.27 1655.44 C 1796.3 1634.86 1788.61 1618.38 1784.85 1594.09 C 1788.31 1594.36 1789.69 1594.12 1792.34 1596.34 C 1795.75 1614.35 1799.04 1625.72 1805.93 1642.87 C 1808.81 1637.39 1812.2 1630.47 1815.24 1625.22 L 1816.1 1622.34 C 1820.57 1623.66 1821.33 1623.78 1825.98 1623.81 C 1824.77 1626.12 1823.36 1629.02 1821.97 1631.15 C 1819.91 1634.44 1817.48 1638.1 1815.65 1641.48 z" fill="rgb(87,39,18)" transform="translate(0,0)"></path>
<path d="M 1646.09 1853.87 C 1671.26 1850.82 1691.9 1854.76 1716.66 1857.3 C 1721.49 1857.45 1726.15 1857.08 1730.34 1859.2 L 1731.94 1861.32 C 1729.23 1878.15 1662.81 1899.36 1643.55 1895.06 C 1650.03 1892.86 1663.95 1894.82 1675.14 1890.45 L 1675.63 1889.22 C 1673.27 1888.8 1671.47 1888.48 1669.26 1887.51 C 1637.73 1892.37 1620.97 1884.26 1591.31 1874.68 C 1606.65 1867.26 1636.22 1862.32 1653.53 1859.66 C 1647.54 1858.57 1647.26 1859.61 1646.09 1853.87 z" fill="rgb(250,246,237)" transform="translate(0,0)"></path>
<path d="M 1716.66 1857.3 C 1721.49 1857.45 1726.15 1857.08 1730.34 1859.2 L 1731.94 1861.32 C 1729.23 1878.15 1662.81 1899.36 1643.55 1895.06 C 1650.03 1892.86 1663.95 1894.82 1675.14 1890.45 L 1675.63 1889.22 C 1673.27 1888.8 1671.47 1888.48 1669.26 1887.51 C 1684.13 1883.34 1710.76 1873.5 1723.05 1864.21 L 1723.09 1863.19 L 1716.48 1861.82 C 1718.3 1861.23 1720.98 1860.67 1722.91 1860.2 C 1720.98 1859.48 1719.99 1859.08 1718.2 1858.13 L 1716.66 1857.3 z" fill="rgb(87,39,18)" transform="translate(0,0)"></path>
<path d="M 1646.09 1853.87 C 1671.26 1850.82 1691.9 1854.76 1716.66 1857.3 L 1718.2 1858.13 C 1719.99 1859.08 1720.98 1859.48 1722.91 1860.2 C 1720.98 1860.67 1718.3 1861.23 1716.48 1861.82 C 1694.07 1861.91 1679.72 1857.09 1653.53 1859.66 C 1647.54 1858.57 1647.26 1859.61 1646.09 1853.87 z" fill="rgb(89,30,7)" transform="translate(0,0)"></path>
<path d="M 1676.19 1730.11 C 1681.99 1715.91 1690.44 1702.95 1701.08 1691.91 C 1708 1719.56 1714.94 1747.73 1699.03 1774.2 C 1691.94 1786 1674.28 1801.17 1662.06 1807.6 C 1663.06 1800.8 1663.72 1792.77 1664.46 1785.84 C 1660.4 1788.07 1659.17 1788.34 1656.68 1792.01 C 1658.51 1766.33 1661.47 1747.26 1671.88 1723.64 L 1675.03 1725.28 L 1673.85 1727.3 C 1674.64 1728.31 1675.28 1729.24 1676.19 1730.11 z" fill="rgb(250,246,237)" transform="translate(0,0)"></path>
<path d="M 1671.88 1723.64 L 1675.03 1725.28 L 1673.85 1727.3 C 1674.64 1728.31 1675.28 1729.24 1676.19 1730.11 C 1667.75 1750.11 1666.58 1764.37 1664.46 1785.84 C 1660.4 1788.07 1659.17 1788.34 1656.68 1792.01 C 1658.51 1766.33 1661.47 1747.26 1671.88 1723.64 z" fill="rgb(87,39,18)" transform="translate(0,0)"></path>
<path d="M 1560.73 1817.07 C 1565.64 1813.42 1572.61 1804.06 1578.43 1799.78 C 1590.99 1790.53 1605.47 1782.29 1618.83 1774.22 L 1613.97 1788.09 C 1595.02 1833.1 1564.53 1878.65 1519.32 1900.29 C 1528.08 1887.99 1533.4 1879.94 1539.62 1865.89 C 1546.87 1849.5 1551.33 1832.19 1560.73 1817.07 z" fill="rgb(250,246,237)" transform="translate(0,0)"></path>
<path d="M 1677.53 1818.17 L 1673.1 1816.78 L 1672.57 1815.66 C 1680.01 1808 1736.5 1781.69 1749.01 1778.05 C 1769.8 1772.01 1798.68 1767.5 1820.58 1763.15 C 1790.29 1790.92 1749.78 1817.85 1707.73 1819.58 C 1698.83 1819.22 1685.75 1817.93 1677.53 1818.17 z" fill="rgb(250,246,237)" transform="translate(0,0)"></path>
<path d="M 1755.76 1597.24 C 1757.44 1643.54 1776.67 1698.19 1737.13 1735.36 C 1730.54 1714.78 1728.67 1708.47 1727.3 1686.61 L 1727.94 1676.72 C 1728.1 1664.67 1733.04 1648.2 1736.9 1636.88 C 1742.62 1621.2 1747.84 1611.76 1755.76 1597.24 z" fill="rgb(250,246,237)" transform="translate(0,0)"></path>
<path d="M 1576.22 1895.31 C 1590.92 1894.58 1662.61 1899.56 1670.02 1910.51 L 1669.93 1912.33 L 1667.25 1914.74 L 1660.15 1917.84 C 1658.31 1915.3 1658.79 1916.68 1658.6 1913.6 C 1654.42 1913.34 1637.2 1919.3 1631.37 1920.61 C 1595.95 1928.87 1558.8 1925.43 1525.51 1910.79 C 1546.32 1905.81 1552.8 1903.14 1574.05 1901.84 C 1571.74 1900.82 1571.83 1900.92 1570.01 1899.2 C 1570.91 1897.05 1573.38 1896.64 1576.22 1895.31 z" fill="rgb(250,246,237)" transform="translate(0,0)"></path>
<path d="M 1576.22 1895.31 C 1590.92 1894.58 1662.61 1899.56 1670.02 1910.51 L 1669.93 1912.33 L 1667.25 1914.74 L 1660.15 1917.84 C 1658.31 1915.3 1658.79 1916.68 1658.6 1913.6 L 1662.74 1911.36 C 1641.21 1904.01 1596.82 1900.5 1574.05 1901.84 C 1571.74 1900.82 1571.83 1900.92 1570.01 1899.2 C 1570.91 1897.05 1573.38 1896.64 1576.22 1895.31 z" fill="rgb(89,30,7)" transform="translate(0,0)"></path>
<path d="M 1662.74 1911.36 C 1664.73 1913.59 1664.54 1913.61 1667.25 1914.74 L 1660.15 1917.84 C 1658.31 1915.3 1658.79 1916.68 1658.6 1913.6 L 1662.74 1911.36 z" fill="rgb(111,53,16)" transform="translate(0,0)"></path>
<path d="M 1677.53 1818.17 C 1685.75 1817.93 1698.83 1819.22 1707.73 1819.58 C 1705.31 1820.96 1703.32 1820.62 1700.64 1820.57 C 1701.07 1823.28 1700.75 1821.99 1702.96 1824.5 L 1712.05 1826 C 1700.3 1828.23 1675.1 1825.98 1663.57 1821.96 C 1667.58 1821.67 1669.42 1822.27 1673.57 1821.86 C 1674.66 1820.68 1675.15 1820.21 1676.41 1819.12 L 1677.53 1818.17 z" fill="rgb(89,30,7)" transform="translate(0,0)"></path>
<path d="M 1620.43 1767.82 L 1622.78 1765.82 L 1624.22 1766.33 C 1625.25 1771.87 1621.46 1784.3 1619.93 1790.08 C 1617.67 1789.56 1616.14 1788.9 1613.97 1788.09 L 1618.83 1774.22 C 1620.52 1772.71 1620.09 1770.82 1620.43 1767.82 z" fill="rgb(87,39,18)" transform="translate(0,0)"></path>
<path d="M 1815.24 1625.22 L 1816.1 1622.34 C 1820.57 1623.66 1821.33 1623.78 1825.98 1623.81 C 1824.77 1626.12 1823.36 1629.02 1821.97 1631.15 C 1820.08 1631.33 1818.13 1631.33 1816.23 1631.38 C 1814.37 1629.2 1815.09 1629.07 1815.24 1625.22 z" fill="rgb(89,30,7)" transform="translate(0,0)"></path>
<path d="M 1727.94 1676.72 L 1727.3 1686.61 C 1723.61 1687.25 1723.22 1688.02 1720.66 1686.62 L 1719.68 1680.9 L 1719.6 1679.27 C 1721.12 1678.95 1726.11 1677.26 1727.94 1676.72 z" fill="rgb(87,39,18)" transform="translate(0,0)"></path>
<path d="M 1877.03 1681.43 C 1875.66 1686.52 1857.62 1703.22 1852.83 1707.32 C 1824.81 1731.35 1790.92 1738.23 1755.02 1735.53 C 1753.93 1735.32 1752.77 1734.88 1751.71 1734.56 L 1751.97 1733.26 C 1758.09 1727.31 1765.89 1722.89 1773.04 1718.27 C 1807.04 1696.31 1837.62 1687.91 1877.03 1681.43 z" fill="rgb(250,246,237)" transform="translate(0,0)"></path>
<path d="M 1914.15 1584.02 L 1915.28 1584.23 L 1915.83 1585.38 L 1915.11 1586.37 C 1897.92 1610.08 1878.61 1639.8 1849.77 1649.93 C 1838.31 1653.96 1825.88 1655.42 1813.93 1657.32 L 1812.55 1656.9 L 1811.98 1655.66 C 1829.52 1635.5 1857.3 1610.97 1880.52 1598.05 C 1891.15 1592.13 1902.66 1587.94 1914.15 1584.02 z" fill="rgb(250,246,237)" transform="translate(0,0)"></path>
<path d="M 319.607 1809.98 C 325.987 1828.34 331.693 1846.92 336.714 1865.7 C 339.251 1875.07 343.788 1889.79 338.445 1898.99 L 337.231 1898.86 C 332.36 1891.06 335.195 1882.54 332.527 1875.29 C 327.546 1861.74 325.582 1847.92 320.427 1834.4 C 297.767 1774.99 268.645 1716.69 236.043 1662.11 C 234.065 1658.79 225.629 1657.71 222.453 1655.03 C 218.09 1651.77 213.739 1648.36 209.663 1644.9 C 184.444 1623.46 162.967 1594.01 152.653 1562.4 C 150.979 1557.26 145.797 1550.96 145.497 1545.72 L 146.663 1544.01 C 152.92 1543.6 165.211 1554.52 169.79 1558.06 C 204.664 1584.98 228.132 1616.6 242.588 1658.16 C 245.305 1665.97 258.013 1685.01 262.931 1694.72 C 264.955 1644.09 248.345 1597.35 251.6 1549.77 C 272.566 1574.72 283.93 1618.71 280.167 1650.77 C 279.464 1659.3 278.107 1667.56 276.289 1675.78 C 275.139 1680.97 267.97 1699.17 269.168 1703.05 C 275.975 1725.11 291.475 1749.27 300.984 1770.74 C 305.072 1779.97 307.458 1784.51 311.562 1793.27 C 311.739 1793.47 311.915 1793.67 312.092 1793.87 C 307.583 1758.34 305.439 1709.5 315.591 1675.08 C 316.949 1671.03 316.254 1670.87 319.025 1668.77 C 330.797 1671.97 340.359 1717.15 341.724 1728.82 C 344.15 1763.28 336.665 1780.79 319.607 1809.98 z" fill="rgb(87,39,18)" transform="translate(0,0)"></path>
<path d="M 315.591 1675.08 L 318.378 1676.6 C 327.104 1684.42 333.938 1720.02 335.109 1732.38 C 335.005 1754.52 331.982 1782.7 315.864 1799.82 C 314.431 1797.36 313.46 1796.52 312.092 1793.87 C 307.583 1758.34 305.439 1709.5 315.591 1675.08 z" fill="rgb(250,246,237)" transform="translate(0,0)"></path>
<path d="M 315.591 1675.08 L 318.378 1676.6 C 316.551 1697.48 314.554 1717.76 314.593 1738.77 C 314.63 1759.08 318.895 1779.87 315.864 1799.82 C 314.431 1797.36 313.46 1796.52 312.092 1793.87 C 307.583 1758.34 305.439 1709.5 315.591 1675.08 z" fill="rgb(87,39,18)" transform="translate(0,0)"></path>
<path d="M 156.719 1554.88 C 162.62 1558.72 168.037 1564.4 173.205 1569.18 C 196.934 1591.13 220.446 1618.48 229.295 1650.15 C 199.65 1633.37 166.639 1587.51 156.719 1554.88 z" fill="rgb(250,246,237)" transform="translate(0,0)"></path>
<path d="M 256.385 1567.62 C 257.372 1568.21 257.527 1568.16 258.195 1569.07 C 261.692 1573.86 263.823 1582.47 265.555 1588.14 C 274.114 1616.17 276.386 1640.97 270.736 1669.9 C 270.65 1670.76 270.787 1670.29 270.119 1671.23 C 266.768 1659.37 266.488 1645.14 264.888 1632.84 C 262.067 1611.13 258.29 1589.42 256.385 1567.62 z" fill="rgb(250,246,237)" transform="translate(0,0)"></path>
<path d="M 572.223 87.3689 C 498.078 86.311 420.878 111.539 366.877 163.575 C 333.403 195.831 309.953 238.439 309.58 285.79 C 309.481 322.723 324.017 358.191 350.007 384.431 C 353.999 388.455 376.003 406.04 376.774 407.599 C 368.826 414.321 331.851 375.086 326.781 366.807 C 270.999 275.713 320.754 178.634 404.336 125.95 C 527.741 48.1642 729.686 71.5918 812.074 198.959 C 876.178 298.06 816.854 424.837 720.085 480.536 C 704.395 489.639 688.139 497.727 671.415 504.752 C 591.916 537.907 501.22 558.205 476.321 653.029 C 470.12 676.645 469.537 706.621 482.464 728.433 C 497.258 753.395 527.981 774.196 520.403 807.017 C 519.832 809.488 519.178 811.246 517.353 813.001 L 516.49 812.296 C 516.126 806.351 516.166 796.356 514.872 791.258 C 508.797 767.32 487.623 753.45 475.68 730.006 C 451.299 682.147 471.906 623.571 504.864 585.465 C 527.647 559.124 559.562 544.105 590.16 530.318 C 650.82 502.985 709.244 489.798 759.038 442.705 C 781.022 421.914 792.475 409.906 807.336 382.495 C 826.171 347.754 832.885 319.374 831.376 280.071 C 829.585 233.393 802.51 187.133 767.271 157.095 C 716.27 113.623 662.443 96.4818 597.269 88.9865 C 589.243 88.5649 580.122 88.2981 572.223 87.3689 z" fill="rgb(87,39,18)" transform="translate(0,0)"></path>
<path d="M 572.223 87.3689 L 574.675 86.31 L 574.617 84.1287 C 580.061 81.6215 593.314 85.6503 597.269 88.9865 C 589.243 88.5649 580.122 88.2981 572.223 87.3689 z" fill="rgb(111,53,16)" transform="translate(0,0)"></path>
<path d="M 555.93 153.428 C 600.343 149.634 644.944 158.118 684.862 177.955 C 713.396 192.17 746.721 220.228 756.47 251.651 C 765.872 280.717 764.23 312.325 754.968 341.371 C 726.627 430.24 634.208 472.599 558.48 513.959 C 539.37 524.396 521.1 535.637 505.044 550.407 C 486.133 567.802 471.049 587.831 460.741 611.418 C 456.085 622.078 452.473 633.111 447.253 643.558 C 448.281 621.601 454.631 606.759 465.409 587.999 C 497.896 531.452 555.515 508.573 609.577 478.511 C 639.908 461.948 666.175 444.186 692.311 421.69 C 750.811 371.335 784.59 282.363 727.3 217.205 C 661.765 151.839 562.495 147.272 478.804 175.363 C 429.533 191.901 360.963 237.862 369.201 298.085 C 378.213 363.966 494.169 356.352 473.441 437.062 C 460.556 490.307 390.399 483.599 370.73 525.093 L 370.221 526.195 L 368.584 526.643 C 368.216 525.922 367.801 525.245 367.828 524.454 C 368.789 496.108 418.727 484.31 438.677 470.624 C 448.071 464.178 451.536 462.481 458.19 454.179 C 467.527 442.529 470.429 428.104 468.7 413.976 C 464.067 376.113 416.195 364.394 390.34 343.479 C 374.636 330.776 364.648 314.902 362.335 294.624 C 359.492 269.705 370.443 247.326 385.94 228.381 C 413.229 195.019 458.786 172.306 499.99 161.817 C 517.498 157.36 537.933 155.24 555.93 153.428 z" fill="rgb(87,39,18)" transform="translate(0,0)"></path>
<path d="M 1825.69 1566.75 C 1827.35 1557.6 1827.95 1549.45 1830.45 1540.13 C 1837.45 1514.06 1852.79 1493.17 1867.58 1471.18 C 1870.13 1467.39 1875.97 1456.64 1879.04 1454.84 L 1880.8 1455.46 C 1882.48 1460.68 1882.42 1475.51 1882.61 1481.53 C 1883.16 1503.82 1884.26 1537.99 1874.67 1558.48 C 1869.9 1574.95 1848.07 1599.68 1831.79 1604.88 C 1829.79 1609.25 1826.63 1619.08 1825.98 1623.81 C 1821.33 1623.78 1820.57 1623.66 1816.1 1622.34 L 1815.24 1625.22 C 1812.2 1630.47 1808.81 1637.39 1805.93 1642.87 C 1799.04 1625.72 1795.75 1614.35 1792.34 1596.34 C 1789.69 1594.12 1788.31 1594.36 1784.85 1594.09 C 1784.09 1578.84 1784.3 1567.66 1787.58 1552.83 C 1789.97 1539.82 1797.02 1527.43 1805.72 1517.61 C 1808.74 1530.15 1820.1 1553.29 1825.69 1566.75 z" fill="rgb(250,246,237)" transform="translate(0,0)"></path>
<path d="M 1803.42 1528.63 C 1813.9 1553.29 1831.62 1584.3 1821.36 1609.8 C 1819.66 1614 1817.9 1618.18 1816.1 1622.34 L 1815.24 1625.22 C 1812.2 1630.47 1808.81 1637.39 1805.93 1642.87 C 1799.04 1625.72 1795.75 1614.35 1792.34 1596.34 C 1790.01 1581.36 1790.97 1570.22 1793.52 1555.46 C 1796.03 1544.71 1798.3 1538.43 1803.42 1528.63 z" fill="rgb(250,246,237)" transform="translate(0,0)"></path>
<path d="M 1825.69 1566.75 C 1827.35 1557.6 1827.95 1549.45 1830.45 1540.13 C 1837.45 1514.06 1852.79 1493.17 1867.58 1471.18 C 1870.13 1467.39 1875.97 1456.64 1879.04 1454.84 L 1880.8 1455.46 C 1882.48 1460.68 1882.42 1475.51 1882.61 1481.53 L 1881.2 1485.14 C 1879.12 1485.63 1877.16 1486.25 1875.17 1487.04 C 1875.24 1479.57 1875.58 1474.4 1876.32 1466.95 C 1854.44 1509.48 1825.23 1540.05 1833.14 1594.28 C 1832.8 1597.57 1832.51 1601.75 1831.79 1604.88 C 1829.79 1609.25 1826.63 1619.08 1825.98 1623.81 C 1821.33 1623.78 1820.57 1623.66 1816.1 1622.34 C 1817.9 1618.18 1819.66 1614 1821.36 1609.8 C 1831.62 1584.3 1813.9 1553.29 1803.42 1528.63 C 1798.3 1538.43 1796.03 1544.71 1793.52 1555.46 C 1790.97 1570.22 1790.01 1581.36 1792.34 1596.34 C 1789.69 1594.12 1788.31 1594.36 1784.85 1594.09 C 1784.09 1578.84 1784.3 1567.66 1787.58 1552.83 C 1789.97 1539.82 1797.02 1527.43 1805.72 1517.61 C 1808.74 1530.15 1820.1 1553.29 1825.69 1566.75 z" fill="rgb(87,39,18)" transform="translate(0,0)"></path>
<path d="M 1882.61 1481.53 C 1883.16 1503.82 1884.26 1537.99 1874.67 1558.48 C 1869.9 1574.95 1848.07 1599.68 1831.79 1604.88 C 1832.51 1601.75 1832.8 1597.57 1833.14 1594.28 C 1835.3 1593.2 1837.46 1592.12 1839.61 1591.01 C 1857.85 1581.84 1863.69 1568.53 1870.01 1550.53 C 1876.04 1528.28 1875.56 1509.59 1875.17 1487.04 C 1877.16 1486.25 1879.12 1485.63 1881.2 1485.14 L 1882.61 1481.53 z" fill="rgb(87,39,18)" transform="translate(0,0)"></path>
<path d="M 507.938 212.428 C 566.43 209.738 653.366 235.523 668.358 300.276 C 690.637 394.629 582.757 454.185 512.543 489.194 C 457.947 514.809 398.951 533.749 364.993 587.704 C 339.708 627.879 344.919 681.38 376.541 716.958 C 409.575 754.126 476.199 761.06 494.87 812.378 C 496.264 816.211 498.623 829.462 496.659 832.87 C 492.377 830.346 489.807 815.834 485.845 807.935 L 485.149 806.568 C 464.624 770.393 419.651 760.668 388.118 735.839 C 362.014 715.285 347.806 691.269 343.38 657.949 C 340.835 638.79 343.584 619.271 350.947 601.317 C 379.031 532.836 454.304 509.494 515.437 479.956 C 577.338 449.032 675.472 394.172 664.219 311.966 C 654.747 242.768 567.761 217.095 507.991 218.486 C 495.217 218.784 480.854 221.043 468.018 222.736 C 482.449 214.723 491.647 213.669 507.938 212.428 z" fill="rgb(87,39,18)" transform="translate(0,0)"></path>
<path d="M 158.293 1654.73 C 166.061 1654.56 175.837 1659.93 182.694 1663.26 C 192.921 1668.16 202.701 1673.95 211.922 1680.55 C 224.49 1689.51 270.54 1728.22 274.84 1740.52 C 246.321 1736.74 217.498 1725.05 195.643 1706.13 C 184.541 1696.52 159.373 1669.5 158.293 1654.73 z" fill="rgb(87,39,18)" transform="translate(0,0)"></path>
<path d="M 170.892 1665.33 C 176.728 1666.79 182.431 1670.51 187.626 1673.5 C 213.773 1688.51 235.483 1707.44 255.911 1729.37 C 255.278 1729.29 254.428 1729.19 253.779 1729.05 C 221.074 1721.72 188.1 1693.36 170.892 1665.33 z" fill="rgb(250,246,237)" transform="translate(0,0)"></path>
<path d="M 198.324 1763.93 C 204.433 1764.01 209.699 1764.01 215.783 1764.71 C 243.159 1767.42 270.136 1786.27 292.104 1801.49 C 296.038 1804.21 305.437 1806.27 307.27 1809.2 L 306.105 1811.22 C 300.194 1814.28 278.986 1814.53 271.752 1814.12 C 242.003 1812.42 198.66 1787.57 179.83 1765.22 C 186.568 1764.51 191.566 1764.08 198.324 1763.93 z" fill="rgb(87,39,18)" transform="translate(0,0)"></path>
<path d="M 200.666 1768.88 C 204.648 1769.38 209.976 1769.88 213.755 1770.84 C 242.11 1776.27 265.288 1789.6 287.899 1806.89 C 280.847 1807.29 273.433 1807.58 266.761 1806.98 C 251.737 1805.62 202.423 1781.16 193.678 1769.87 C 195.453 1768.4 197.696 1768.95 200.666 1768.88 z" fill="rgb(250,246,237)" transform="translate(0,0)"></path>
<path d="M 198.324 1763.93 C 204.433 1764.01 209.699 1764.01 215.783 1764.71 L 213.755 1770.84 C 209.976 1769.88 204.648 1769.38 200.666 1768.88 C 201.583 1766.37 200.881 1767.45 203.204 1765.87 L 202.566 1765.92 C 200.364 1764.04 201.337 1764.64 198.324 1763.93 z" fill="rgb(89,30,7)" transform="translate(0,0)"></path>
<metadata><recraft-signature>{"signed_by": "recraft", "signature_b64": "ouzzazaINyPdyAQ7/h4aJ8/hsd8LXi7693QwDCG2VlG0GnKpCz7tEv1BIVFxgI8WiVXCzerv1B4kvd0d0WKPCQ==", "signing_algo": "Ed25519", "generation_timestamp": 1778091872, "identifier": "fc317962-3087-4915-b2ab-5f277792136f"}</recraft-signature></metadata></svg>