<svg xmlns="http://www.w3.org/2000/svg" height="1024" preserveAspectRatio="none" style="display: block;" version="1.1" viewBox="0 0 2048 2048" width="1024">
<defs>
	<linearGradient gradientUnits="userSpaceOnUse" id="Gradient1" x1="1391.91" x2="1415.31" y1="1218.77" y2="1220.29">
		<stop class="stop0" offset="0" stop-color="rgb(117,8,19)" stop-opacity="1"></stop>
		<stop class="stop1" offset="1" stop-color="rgb(89,6,30)" stop-opacity="1"></stop>
	</linearGradient>
</defs>
<path d="M 0 0 L 2048 0 L 2048 2048 L 0 2048 L 0 0 z" fill="rgb(252,249,238)" transform="translate(0,0)"></path>
<path d="M 1104.69 498.437 C 1231.01 493.784 1348.36 532.663 1455.33 598.362 C 1471.68 608.403 1491.17 620.414 1506.11 632.053 C 1509.5 625.881 1512.14 620.792 1516.73 615.384 C 1526.61 603.782 1540.75 596.639 1555.95 595.561 C 1596.32 592.738 1658.6 640.391 1659.56 683.013 C 1660.04 704.374 1649.93 716.408 1636.44 731.106 C 1693.36 780.875 1779.22 867.233 1820.38 929.951 C 1841.9 963.005 1859.46 998.464 1872.73 1035.6 C 1895.63 1098.31 1907.97 1179.58 1896.18 1245.52 C 1889.31 1283.93 1880.76 1299.83 1839.37 1285.85 C 1810.74 1276.18 1784.8 1263.49 1757.82 1249.62 C 1758.2 1254.59 1758.51 1259.55 1758.75 1264.52 C 1760.22 1299.85 1748.8 1339.29 1724.42 1365.57 C 1702.63 1389.05 1668.96 1405.61 1637.52 1410.94 C 1621.26 1413.7 1600.9 1414.08 1584.05 1414.74 C 1579.39 1456.38 1565.46 1502.67 1558.1 1544.28 C 1556.12 1558.24 1547.05 1576.85 1545.58 1590.23 C 1539.32 1647.53 1495.74 1690.84 1448.08 1722.95 C 1247.19 1858.3 976.919 1870.62 745.215 1827.09 C 714.262 1820.6 683.592 1812.83 653.282 1803.81 C 581.759 1782.5 508.71 1748.78 449.502 1703.52 C 438.278 1694.95 418.619 1681.12 410.738 1669.54 C 370.495 1610.4 353.739 1537.04 338.618 1468.16 C 331.518 1435.82 327.674 1388.28 313.209 1358.47 C 303.347 1338.14 243.868 1330.97 220.295 1323.42 C 187.04 1312.78 160.65 1298.79 142.303 1266.84 C 125.535 1236.45 126.169 1190.78 136.673 1159.15 C 159.757 1089.63 221.897 1051.87 289.991 1036.29 C 305.438 1032.75 333.177 1023.85 347.294 1016.96 C 356.829 1012.3 374.342 988.298 384.777 982.047 C 438.965 937.821 500.517 905.928 565.805 881.401 C 717.316 824.48 884.89 805.086 1045.88 818.666 C 1090.84 822.459 1146.06 830.28 1189.03 844.16 C 1178.03 833.214 1161.44 821.115 1149.07 810.728 C 1093.2 762.969 1039.61 712.602 988.48 659.797 C 963.838 634 938.813 608.243 917.465 579.452 C 909.767 569.07 907.374 562.637 919.364 554.706 C 972.414 519.619 1041.63 502.047 1104.69 498.437 z" fill="rgb(103,21,35)" transform="translate(0,0)"></path>
<path d="M 330.096 1037.04 L 330.981 1037.32 C 330.561 1040.89 313.449 1066.09 310.02 1071.31 C 242.573 1089.58 172.849 1124.91 166.069 1204.37 C 159.055 1286.57 276.695 1277.06 327.482 1306.25 C 331.829 1316.88 336.812 1328.36 340.912 1339.07 C 345.907 1352.12 352.108 1387.16 358.8 1395.61 L 360.159 1395.64 C 365.28 1385.06 343.636 1324.64 338.562 1310.25 C 380.423 1356.64 404.84 1383.39 460.845 1415.38 C 534.932 1456.75 614.886 1486.59 697.959 1503.89 C 784.697 1522.04 878.356 1526.73 967.417 1524.84 C 1140.52 1521.16 1329.03 1493.72 1478.26 1400.33 C 1488.39 1393.99 1500.04 1382.53 1511.43 1379.68 C 1543.03 1371.76 1576.48 1370.88 1608.9 1369.74 C 1623.22 1368.79 1638.06 1370.17 1651.98 1365.99 C 1718.51 1346.01 1732.18 1288.27 1714.71 1227.05 C 1721.46 1229.92 1736.59 1238.69 1743.64 1242.51 C 1745.1 1259.46 1744.18 1276.54 1740.9 1293.23 C 1733.58 1328.95 1719.8 1354.77 1688.95 1374.87 C 1625.87 1415.98 1552.07 1386.67 1489.9 1423.78 C 1485.92 1426.16 1481.27 1429.59 1480.35 1434.1 L 1481.41 1435.24 C 1488.84 1433.78 1498.87 1426.25 1505.38 1424.55 C 1522.79 1420.01 1543.44 1417.87 1561.21 1415.7 C 1556.88 1466.54 1552.31 1510.85 1539.43 1560.61 C 1529.42 1599.3 1531.08 1604.35 1501.65 1634.78 C 1456.68 1681.28 1405.47 1707.87 1346.32 1731.99 C 1245.58 1770.56 1139.61 1793.73 1031.97 1800.75 C 1001.03 1802.94 969.627 1804.67 938.635 1803.62 C 933.914 1803.46 920.578 1800.62 918.263 1805.34 L 919.848 1807.09 C 937.127 1813.18 1012.85 1809.72 1034.12 1808.07 C 1181.92 1796.62 1346.5 1761.65 1468.77 1673.38 C 1488.15 1659.39 1507.88 1637.52 1523.42 1619.82 L 1522.32 1621.98 C 1485.61 1693.53 1389.95 1742.55 1318.66 1773.13 C 1301.86 1780.34 1277.96 1788.38 1259.99 1793.57 C 1029.01 1860.27 755.958 1845.15 538.584 1739.35 C 504.959 1722.56 455.17 1690.34 427.288 1664.78 C 417.77 1654.25 410.598 1639.41 404.481 1627.07 C 364.707 1546.88 357.265 1457.54 336.258 1371.98 C 324.341 1323.44 279.916 1321.74 239.335 1311.56 C 201.511 1302.07 164.151 1286.25 151.581 1245.41 C 141.009 1211.23 144.324 1174.26 160.807 1142.5 C 175.16 1115.36 196.854 1094.88 221.896 1077.6 C 253.763 1055.61 293.476 1048.34 330.096 1037.04 z" fill="rgb(240,112,92)" transform="translate(0,0)"></path>
<path d="M 367.916 1454.51 C 371.111 1456.21 376.293 1464.88 378.733 1468.19 C 390.508 1484.18 403.725 1498.56 417.157 1513.19 C 421.675 1497.73 425.062 1484.51 433.917 1470.91 L 437.129 1470.72 L 436.435 1469.13 L 434.776 1469.91 L 437.075 1470.24 C 438.949 1476.17 436.205 1481.52 433.979 1486.98 C 443.054 1498.94 456.472 1510.51 467.967 1520.17 C 471.541 1514.81 476.086 1507.16 481.531 1503.99 C 484.551 1504.37 483.17 1503.75 485.474 1506.55 C 484.738 1510.46 478.011 1522 475.7 1526.51 C 488.089 1535.4 500.168 1542.9 513.109 1551 C 517.74 1546.09 531.397 1530.5 537.98 1531.1 L 539.111 1532.98 C 537.779 1537.89 525.481 1547.33 522.218 1555.11 L 523.717 1558.11 L 522.944 1559.53 C 522.621 1559.56 519.49 1559.89 519.167 1560.09 C 512.73 1564.14 503.96 1583.11 501.002 1589.24 C 514.61 1598.33 528.306 1607.29 542.087 1616.11 C 550.451 1621.47 560.628 1627.34 568.225 1633.47 L 568.202 1635.32 L 566.204 1637.1 C 563.919 1637.41 561.272 1637.13 559.278 1635.93 C 539.081 1623.8 517.489 1612.02 497.935 1599.01 C 496.297 1608.47 496.687 1615.68 497.097 1625.22 C 507.935 1634.32 518.973 1641.63 530.647 1649.57 C 541.008 1656.13 574.291 1675.19 580.025 1682.74 L 579.156 1683.42 C 561.054 1679.69 469.782 1620.18 467.812 1606.8 L 470.863 1605.42 C 476.453 1608.52 486.402 1617.37 491.708 1621.8 C 489.898 1612.73 489.962 1603.38 491.898 1594.34 C 479.836 1586.02 468.046 1576.52 456.7 1567.27 C 451.605 1582.8 447.818 1597.66 447.027 1614.15 C 446.649 1622.04 448.809 1629.77 447.455 1637.69 L 445.816 1638.49 C 439.862 1636.11 441.177 1627.72 440.756 1622.17 C 439.063 1599.8 443.596 1582.03 449.961 1560.98 C 438.338 1553.02 426.337 1539.56 416.838 1529.05 C 414.2 1537.43 413.356 1546.94 408.168 1553.94 L 406.768 1553.9 C 404.308 1545.52 409.613 1530.05 412.107 1521.61 C 400.949 1509.95 364.117 1469.66 367.916 1454.51 z" fill="rgb(103,21,35)" transform="translate(0,0)"></path>
<path d="M 472.759 1531.39 C 474.589 1532.27 483.809 1538.9 486.027 1540.49 C 494.265 1546.41 500.675 1550.43 509.616 1555.31 C 504.023 1563.1 500.731 1567.89 496.096 1576.21 C 494.79 1578.96 494.655 1579.95 492.268 1581.8 C 485.629 1577.74 468.528 1562.4 462.196 1556.73 C 465.176 1547.02 468.423 1540.49 472.759 1531.39 z" fill="rgb(240,112,92)" transform="translate(0,0)"></path>
<path d="M 431.755 1492.66 C 432.439 1493.22 440.418 1501.66 441.595 1502.89 C 449.353 1510.96 456.26 1517.69 464.725 1525 C 461.256 1532.53 457.869 1540.1 454.564 1547.7 L 453.822 1548.47 C 449.376 1547.28 427.404 1524.04 422.471 1519.06 C 425.777 1510.64 428.795 1501.27 431.755 1492.66 z" fill="rgb(240,112,92)" transform="translate(0,0)"></path>
<path d="M 1452.29 1495.24 L 1454.22 1496.22 C 1456.56 1502.72 1450.41 1560.09 1449.28 1571.06 C 1460.6 1561.85 1471.76 1552.44 1482.75 1542.84 C 1488.94 1537.44 1495.36 1530.73 1501.98 1526.35 C 1494.23 1544.52 1463.31 1569.68 1448.07 1582.77 C 1447.18 1590.95 1446.89 1599.55 1446.03 1607.97 C 1457.25 1597.84 1486.89 1572.57 1499.71 1567.54 C 1491.21 1579.56 1456.99 1608.95 1443.7 1616.27 C 1439.9 1628.83 1436.01 1641.36 1432.06 1653.87 C 1452.31 1643.25 1471.18 1628.49 1489.65 1615.08 C 1494.55 1611.51 1498.63 1608.52 1504.02 1605.61 L 1502.95 1607.18 C 1486.56 1631.47 1432.53 1663.09 1405.56 1679.23 C 1398.71 1683.13 1391.75 1686.81 1384.67 1690.27 C 1374.42 1695.35 1330.34 1715.75 1322.28 1713.04 C 1324.98 1708.72 1341.56 1701.62 1346.68 1699.52 C 1374.6 1688.07 1396.34 1675.22 1421.86 1659.52 C 1425.99 1647.68 1429.74 1635.72 1433.11 1623.64 C 1423.69 1630.56 1383.64 1656.71 1373.12 1656.45 L 1373.5 1654.85 C 1377.91 1650.52 1429.14 1617.3 1433.62 1615.34 C 1435.34 1606.75 1437.15 1599.13 1437.25 1590.3 C 1423.33 1603.71 1398.08 1618.8 1379.14 1623.81 C 1387.16 1614.46 1403.7 1606.07 1414.29 1598.38 C 1423.67 1591.57 1430.2 1586.21 1438.97 1578.7 C 1444.63 1554.93 1446.14 1515.07 1452.29 1495.24 z" fill="rgb(103,21,35)" transform="translate(0,0)"></path>
<path d="M 426.378 1636.34 C 428.006 1636.7 442.87 1649.57 446.666 1652.32 C 466.033 1666.37 486.044 1679.51 506.633 1691.7 C 558.786 1721.95 614.895 1742.29 671.405 1761.81 C 672.633 1762.24 672.427 1764.47 672.581 1765.78 C 659.14 1766.01 632.938 1756.18 619.49 1751.22 C 563.18 1730.47 508.702 1704.78 459.729 1669.83 C 449.117 1662.25 437.346 1655.25 428.727 1645.3 C 425.539 1641.57 426.04 1640.36 426.378 1636.34 z" fill="rgb(103,21,35)" transform="translate(0,0)"></path>
<path d="M 1203.66 1017.44 C 1213.69 1016.71 1254.46 1021.56 1263.69 1026.01 C 1288.8 1038.1 1319.91 1060.76 1342.72 1076.98 C 1373.15 1098.62 1434.59 1159.87 1440.7 1196.89 C 1446.49 1247.06 1430.75 1299.1 1402.06 1340.21 C 1392.89 1353.34 1381.22 1363.91 1371.76 1376.59 L 1370.89 1377.77 C 1381.32 1372.4 1388.13 1365.37 1395.95 1356.61 C 1432.12 1316.15 1450.57 1262.88 1447.18 1208.72 C 1451.74 1222.08 1459.46 1237.41 1464.24 1251.1 C 1473.54 1277.8 1482.5 1314.21 1484.53 1342.21 C 1481.01 1345.54 1477.36 1348.72 1473.59 1351.77 C 1452.12 1369.03 1429.67 1381.56 1405.43 1394.46 C 1307.08 1446.79 1196.96 1468.63 1087.01 1479.79 C 1051.75 1483.61 1016.35 1486 980.892 1486.94 C 914.952 1487.63 849.031 1484.28 783.501 1476.9 C 679.775 1465.47 553.805 1427.8 466.594 1368.4 C 450.469 1357.42 435.603 1347.08 423.332 1331.74 C 422.996 1329.02 422.688 1326.3 422.408 1323.57 C 413.339 1235.2 451.176 1164.21 505.05 1098.2 C 566.937 1117.11 621.757 1132.38 671.34 1176.88 C 641.583 1208.53 611.368 1261.85 592.615 1300.93 C 589.959 1306.46 582.68 1320.35 584.614 1325.75 L 586.506 1326.21 C 594.352 1322.94 606.347 1308.96 612.722 1302.27 C 646.861 1266.39 687.553 1232.7 727.072 1202.57 C 740.915 1208.92 756.471 1213.51 769.551 1221.71 C 841.879 1267.03 905.486 1325.13 968.127 1382.73 C 977.199 1391.07 986.56 1404.49 996.083 1411.13 C 998.452 1410.59 997.315 1411.1 999.159 1408.64 C 998.943 1398.97 941.372 1319.65 932.145 1307.12 C 896.179 1258.24 848.19 1199.28 793.162 1171.76 C 820.01 1147.43 879.973 1114.2 914.608 1100.63 C 919.471 1104.12 925.388 1107.35 930.45 1110.46 C 1018.49 1164.59 1085.86 1246.76 1154.97 1321.95 C 1155.6 1322.63 1157.55 1321.57 1158.37 1321.28 C 1161.97 1313.78 1147.15 1289.94 1143.59 1281.12 C 1119.08 1220.22 1083.76 1166.83 1037.22 1120.57 C 1018.17 1101.62 1007.06 1089.49 983.423 1075.29 C 995.793 1071.4 1012.16 1063.04 1024.86 1058.09 C 1054.65 1046.49 1086.59 1035.06 1118.21 1030.2 C 1130.21 1035.95 1141.69 1045.17 1152.12 1053.55 C 1209.9 1100.02 1259.22 1158.33 1306.15 1215.38 C 1314.16 1225.11 1336.46 1258.13 1342.3 1262.52 C 1345.45 1263.1 1344.01 1263.37 1346.75 1261.6 C 1350.71 1252.12 1333.71 1213.02 1329.49 1202.28 C 1306.37 1143.44 1271.49 1090.81 1223.72 1049.09 C 1211.07 1038.04 1195.62 1028.06 1181.66 1018.52 L 1203.66 1017.44 z" fill="rgb(253,218,143)" transform="translate(0,0)"></path>
<path d="M 1075.72 1443.33 C 1077.35 1444.89 1076.64 1444.02 1077.29 1446.57 C 1076.91 1447.2 1076.32 1448.3 1075.66 1448.51 C 1013.27 1468.77 924.076 1466.95 862.367 1465.02 C 861.701 1461.05 860.948 1460.65 862.205 1457.52 C 868.729 1457.11 877.53 1458.33 884.303 1458.56 C 950.551 1460.77 1010.92 1457.62 1075.72 1443.33 z" fill="rgb(103,21,35)" transform="translate(0,0)"></path>
<path d="M 1323.53 1305.66 L 1325.69 1305.91 L 1326.68 1307.38 C 1326.25 1309.17 1326 1309.96 1324.81 1311.47 C 1289.04 1356.83 1187.64 1403.56 1132.24 1411.65 C 1129.93 1411.57 1131.02 1411.94 1129.04 1410.34 C 1129.51 1408.89 1129.89 1407.19 1131.72 1406.7 C 1204.89 1386.97 1268.17 1359.68 1323.53 1305.66 z" fill="rgb(103,21,35)" transform="translate(0,0)"></path>
<path d="M 513.009 1143.64 C 515.353 1144.78 515.388 1144.62 517.018 1146.59 C 517.098 1146.27 498.353 1175.21 496.825 1177.93 C 489.765 1190.74 483.788 1204.12 478.958 1217.92 C 472.13 1237.2 467.236 1255.2 463.646 1275.38 C 461.935 1284.99 462.977 1307.91 458.916 1314.79 L 456.051 1313.87 C 453.591 1309.99 454.616 1305.21 454.624 1300.84 C 454.7 1256.91 480.184 1173.29 513.009 1143.64 z" fill="rgb(103,21,35)" transform="translate(0,0)"></path>
<path d="M 1367.21 1119.23 L 1370.45 1120.02 C 1375.25 1124.87 1379.15 1141.09 1380.8 1148.3 C 1389.9 1188.1 1390.26 1250.82 1368.56 1286.63 C 1365.99 1287.06 1367.22 1287.31 1364.74 1286.11 C 1364.5 1284.09 1364.5 1284.42 1365.31 1282.63 C 1383.12 1243.41 1382.81 1191.29 1374.33 1149.49 C 1372.71 1141.51 1365.71 1125.75 1367.21 1119.23 z" fill="rgb(103,21,35)" transform="translate(0,0)"></path>
<path d="M 528.891 1188.24 L 532.317 1189.52 C 532.879 1191.16 533.602 1192.42 532.607 1194.22 C 516.495 1223.36 505.947 1255.69 500.271 1288.44 C 498.018 1301.44 497.784 1318.6 493.88 1330.7 L 491.291 1330.59 L 490.074 1328.59 C 488.033 1280.97 504.963 1228.97 528.891 1188.24 z" fill="rgb(103,21,35)" transform="translate(0,0)"></path>
<path d="M 1349.59 1333.59 L 1351.34 1335.28 C 1351.81 1338.09 1351.52 1339.99 1349.94 1342.42 C 1324.95 1381.08 1269.82 1414.44 1227.19 1425.74 C 1225.16 1423.78 1225.97 1424.91 1225.26 1421.98 C 1228.12 1416.82 1259.5 1407.67 1267.55 1403.16 C 1300.76 1384.54 1327.78 1365.57 1349.59 1333.59 z" fill="rgb(103,21,35)" transform="translate(0,0)"></path>
<path d="M 1400.7 1139.7 C 1401.36 1140.16 1402.17 1140.67 1402.62 1141.34 C 1426.98 1177.38 1422.45 1269.11 1389.84 1297.45 C 1387.34 1297.72 1387.49 1297.83 1385.31 1296.62 C 1385.73 1294.24 1393.84 1285.49 1396.1 1281.06 C 1413.02 1247.94 1414.46 1207.16 1408.1 1171.12 C 1406.44 1161.69 1400.38 1148.88 1400.7 1139.7 z" fill="url(#Gradient1)" transform="translate(0,0)"></path>
<path d="M 576.286 1391.96 C 580.652 1391.65 594.339 1396.6 598.713 1398.3 C 614.896 1404.59 685.164 1425.66 690.292 1440.05 C 687.746 1440.87 686.243 1441.27 683.905 1439.99 C 651.826 1422.49 616.052 1412.61 582.353 1398.75 C 578.041 1396.98 577.877 1396.05 576.286 1391.96 z" fill="rgb(103,21,35)" transform="translate(0,0)"></path>
<path d="M 549.075 1242.44 C 551.466 1243.76 550.717 1243.14 552.549 1245.23 C 552.639 1248.19 544.774 1272.1 543.444 1275.35 C 539.638 1284.64 538.951 1324.82 535.831 1329.07 C 522.483 1314.99 538.543 1257.66 549.075 1242.44 z" fill="rgb(103,21,35)" transform="translate(0,0)"></path>
<path d="M 1465.79 1277.41 C 1476.07 1293.03 1453.94 1343.96 1438.58 1356.05 L 1437.07 1353.45 C 1437.32 1351.04 1437.19 1351.46 1438.64 1349.67 C 1455.25 1329.16 1460.76 1302.32 1465.79 1277.41 z" fill="rgb(103,21,35)" transform="translate(0,0)"></path>
<path d="M 1359.58 1371.62 L 1361.08 1373.53 C 1360.02 1390.99 1316.1 1419.77 1301.58 1427.66 L 1300.79 1426.75 C 1301.71 1422.14 1307.74 1419.03 1311.65 1416.47 C 1330.59 1404.02 1345.37 1389.11 1359.58 1371.62 z" fill="rgb(104,15,23)" transform="translate(0,0)"></path>
<path d="M 716.83 1320.63 C 722.477 1322.85 726.346 1324.89 726.714 1331.4 C 725.245 1334.74 724.752 1334.64 721.642 1336.5 C 709.665 1335.43 707.893 1327.98 716.83 1320.63 z" fill="rgb(103,21,35)" transform="translate(0,0)"></path>
<path d="M 1117.26 1149.42 C 1120.57 1148.44 1124.07 1150.21 1125.24 1153.46 C 1126.4 1156.71 1124.83 1160.31 1121.65 1161.65 C 1119.43 1162.59 1116.87 1162.22 1115 1160.7 C 1113.13 1159.17 1112.26 1156.74 1112.73 1154.38 C 1113.21 1152.01 1114.95 1150.11 1117.26 1149.42 z" fill="rgb(103,21,35)" transform="translate(0,0)"></path>
<path d="M 725.547 1361.24 C 728.82 1360.52 732.072 1362.54 732.888 1365.79 C 733.704 1369.04 731.788 1372.35 728.563 1373.26 C 726.391 1373.87 724.058 1373.25 722.472 1371.65 C 720.886 1370.04 720.298 1367.7 720.938 1365.54 C 721.577 1363.37 723.343 1361.73 725.547 1361.24 z" fill="rgb(103,21,35)" transform="translate(0,0)"></path>
<path d="M 675.507 1356.46 C 677.712 1355.74 680.134 1356.32 681.78 1357.95 C 683.426 1359.58 684.021 1362 683.32 1364.21 C 682.619 1366.42 680.74 1368.05 678.453 1368.44 C 675.259 1368.98 672.19 1366.96 671.416 1363.82 C 670.642 1360.67 672.427 1357.46 675.507 1356.46 z" fill="rgb(103,21,35)" transform="translate(0,0)"></path>
<path d="M 1041.08 1298.63 C 1043.96 1297.77 1047.02 1299.24 1048.14 1302.03 C 1049.27 1304.81 1048.09 1307.99 1045.43 1309.38 C 1043.46 1310.39 1041.09 1310.21 1039.31 1308.91 C 1037.52 1307.6 1036.63 1305.4 1037.01 1303.22 C 1037.38 1301.04 1038.96 1299.26 1041.08 1298.63 z" fill="rgb(103,21,35)" transform="translate(0,0)"></path>
<path d="M 1052.55 1342.52 C 1054.55 1341.5 1056.96 1341.72 1058.73 1343.09 C 1060.51 1344.45 1061.35 1346.72 1060.87 1348.91 C 1060.4 1351.11 1058.71 1352.83 1056.53 1353.34 C 1053.67 1354.02 1050.76 1352.45 1049.75 1349.69 C 1048.74 1346.94 1049.94 1343.86 1052.55 1342.52 z" fill="rgb(104,15,23)" transform="translate(0,0)"></path>
<path d="M 1027.37 1268.67 C 1030.28 1268.59 1032.76 1270.77 1033.05 1273.67 C 1033.34 1276.57 1031.34 1279.2 1028.47 1279.7 C 1026.42 1280.06 1024.34 1279.24 1023.09 1277.58 C 1021.83 1275.92 1021.61 1273.7 1022.51 1271.82 C 1023.41 1269.95 1025.29 1268.73 1027.37 1268.67 z" fill="rgb(103,21,35)" transform="translate(0,0)"></path>
<path d="M 1172.09 1184.61 C 1173.82 1183.55 1176 1183.52 1177.76 1184.54 C 1179.52 1185.55 1180.57 1187.46 1180.51 1189.49 C 1180.45 1191.52 1179.28 1193.36 1177.46 1194.27 C 1174.81 1195.59 1171.59 1194.6 1170.15 1192.01 C 1168.71 1189.42 1169.56 1186.16 1172.09 1184.61 z" fill="rgb(103,21,35)" transform="translate(0,0)"></path>
<path d="M 1214.18 1182.28 C 1216.74 1181.13 1219.76 1182.17 1221.07 1184.66 C 1222.39 1187.14 1221.54 1190.22 1219.15 1191.69 C 1217.45 1192.73 1215.32 1192.74 1213.61 1191.72 C 1211.91 1190.7 1210.91 1188.81 1211.03 1186.83 C 1211.15 1184.84 1212.36 1183.09 1214.18 1182.28 z" fill="rgb(104,15,23)" transform="translate(0,0)"></path>
<path d="M 1199.82 1216.39 C 1203.55 1217.18 1204.92 1217.79 1206.6 1220.99 C 1205.43 1225.17 1205.65 1223.97 1202.12 1227.44 C 1197.82 1226.84 1196.41 1226.69 1195.17 1222.61 C 1196.07 1219.12 1197.06 1218.7 1199.82 1216.39 z" fill="rgb(103,21,35)" transform="translate(0,0)"></path>
<path d="M 1104.04 514.063 C 1126.26 513.189 1147.15 513.429 1168.99 514.804 C 1293.91 522.666 1413.06 582.085 1512.08 655.837 C 1523.31 664.203 1535.77 671.819 1547.25 680.239 C 1586.3 709.133 1623.77 740.112 1659.48 773.041 C 1759.08 865.058 1847.49 965.405 1874.44 1102.22 C 1877.38 1117.19 1882.36 1139.64 1883.26 1154.66 C 1757.47 1102.36 1640.4 1027.03 1529.63 948.503 C 1506.33 931.988 1483.72 915.657 1461.06 898.3 C 1452.2 891.52 1426.15 868.536 1418.51 864.572 L 1414.05 869.916 C 1409.61 868.757 1321.7 794.534 1312.6 785.965 L 1317.48 779.766 C 1313.23 775.57 1307.1 770.707 1302.33 766.978 C 1249.02 725.313 1202 678.573 1155.64 629.455 C 1131.52 603.907 1106.71 579.035 1082.73 552.928 C 1093.22 548.045 1106.08 544.021 1117.19 540.787 C 1126.92 550.281 1137.43 561.832 1146.91 571.773 C 1140.4 574.953 1124.54 580.884 1126.39 589.086 L 1128.43 589.796 C 1133.65 587.998 1145.44 580.547 1151.37 577.346 C 1160.4 586.845 1174.45 606.182 1184.04 613.26 L 1185.8 612.991 L 1186.9 610.625 C 1185.83 601.014 1167.46 582.298 1160.58 574.469 C 1192.66 560.598 1233.42 551.63 1268.55 550.282 C 1279.06 549.878 1296.51 553.269 1306.11 552.339 C 1306.8 548.991 1306.79 550.736 1305.19 546.989 C 1296.68 540.135 1282.57 540.359 1271.97 540.393 C 1231.65 540.521 1192.17 550.653 1155.58 567.238 C 1146.48 557.546 1137.21 548.001 1127.8 538.605 C 1148.79 533.801 1174.06 532.812 1195.5 531.569 C 1201.44 531.225 1201.47 531.734 1204.37 528.244 L 1204.14 526.283 C 1192.6 515.544 1135.99 526.755 1121.86 530.615 C 1116.69 530.063 1108.12 518.699 1104.04 514.063 z" fill="rgb(240,112,92)" transform="translate(0,0)"></path>
<path d="M 1317.48 779.766 C 1351.54 807.578 1385.22 835.849 1418.51 864.572 L 1414.05 869.916 C 1409.61 868.757 1321.7 794.534 1312.6 785.965 L 1317.48 779.766 z" fill="rgb(252,249,238)" transform="translate(0,0)"></path>
<path d="M 1798.99 1041.19 C 1798.63 1030.05 1792.97 999.287 1796.35 992.666 L 1798.2 992.221 C 1807.38 999.135 1809.67 1031.48 1810.19 1042.56 C 1826.31 1049.95 1843.81 1055.8 1853.22 1070.89 C 1837.16 1065.95 1824.73 1058.39 1810 1050.38 C 1809.56 1058.59 1806.5 1069.65 1809.55 1076.42 C 1812.94 1078.53 1811.79 1077.89 1816.45 1077.76 L 1814.11 1080.98 C 1801.55 1078.04 1807.66 1088.6 1801.26 1094.88 C 1795.77 1091.54 1799.58 1086.24 1797.54 1080.31 C 1797.44 1080.02 1793.57 1075.94 1793.12 1075.46 C 1799.33 1068.18 1798.87 1056.88 1799.18 1047.22 C 1794.45 1045.41 1786.78 1043.17 1784.06 1039.09 L 1785.11 1037.99 C 1789.97 1037.59 1794.26 1039.58 1798.99 1041.19 z" fill="rgb(103,21,35)" transform="translate(0,0)"></path>
<path d="M 1751.75 956.259 C 1753.69 956.824 1755.23 957.143 1756.33 959.083 C 1772.29 987.095 1774.46 1052.53 1768.53 1081.79 L 1766.91 1083.73 L 1765 1083.51 C 1762.16 1079.49 1761.67 1057.71 1761.81 1051.5 C 1762.59 1017.15 1756.62 989.442 1751.75 956.259 z" fill="rgb(103,21,35)" transform="translate(0,0)"></path>
<path d="M 1272.72 573.437 C 1282.44 572.501 1317.93 574.614 1323.67 582.612 C 1319.6 585.665 1282.52 581.972 1273.48 581.891 C 1261.99 581.697 1228.78 587.997 1224.26 586.649 L 1223.9 585.154 C 1230.39 577.388 1262.71 574.145 1272.72 573.437 z" fill="rgb(103,21,35)" transform="translate(0,0)"></path>
<path d="M 1347.02 597.711 C 1354.44 599.944 1382.25 610.209 1380.44 619.4 C 1373.53 617.573 1352.15 608.178 1346.39 601.905 C 1345.53 600.962 1346.47 599.463 1347.02 597.711 z" fill="rgb(103,21,35)" transform="translate(0,0)"></path>
<path d="M 1816.45 1077.76 C 1823.55 1076.99 1843.03 1089.32 1847.89 1094.75 L 1847.12 1095.48 C 1835.61 1093.18 1824.87 1086.01 1814.11 1080.98 L 1816.45 1077.76 z" fill="rgb(103,21,35)" transform="translate(0,0)"></path>
<path d="M 410.517 1322.49 C 382.465 1289.56 362.28 1273.14 347.369 1229.71 C 341.687 1213.15 337.444 1202.66 335.075 1184.5 C 329.145 1139.02 342.202 1090.58 371.138 1054.59 C 470.338 931.234 665.442 881.016 814.465 861.092 C 924.874 846.331 1040.32 849.725 1148.95 869.118 C 1182.12 875.04 1218.39 882.497 1249.97 895.136 C 1257.16 898.012 1280.08 918.059 1287.57 923.986 C 1308.37 940.431 1329.51 959.628 1351.01 975.158 C 1390.01 1003.34 1428.99 1035.02 1468.02 1062.84 L 1549.75 1121.13 C 1561.4 1129.42 1573.58 1136.95 1584.87 1145.64 L 1584.95 1148.33 C 1585.95 1186.47 1581.38 1223.71 1564.23 1258.26 C 1561.13 1264.5 1555.84 1274.17 1551.08 1279.17 C 1561.04 1236.47 1558.15 1167.38 1523.26 1135.94 C 1538.25 1166.62 1548.55 1192.32 1549.08 1227.32 C 1549.36 1246.05 1548.71 1276.31 1539.63 1293.27 C 1537.31 1297.59 1531.81 1303.18 1528.31 1306.86 C 1537.96 1258.94 1538.33 1197.64 1502.88 1159.44 C 1500.99 1157.41 1499.07 1157.09 1496.54 1157.09 L 1496.02 1158.75 C 1503.08 1167.86 1512.76 1181.04 1516.69 1191.93 C 1530.66 1230.69 1528.91 1272.74 1521.75 1312.71 C 1515.6 1318.97 1509.02 1324.81 1502.07 1330.17 C 1514.23 1295.98 1508.79 1245.07 1496.29 1211.08 C 1492.91 1201.9 1479.13 1175.15 1471.3 1170.36 L 1469.88 1171 C 1470.57 1178.2 1483.21 1194.55 1486.3 1201.83 C 1502.83 1240.73 1504.42 1278.33 1501.16 1319.21 C 1498.63 1302.31 1494.57 1285.67 1489.05 1269.49 C 1452.99 1161.29 1400.05 1101.07 1305.35 1040.31 C 1281.58 1025.06 1257.65 1010.11 1232.36 997.496 C 1188.55 975.658 1141.77 959.535 1094.73 946.298 C 959.221 908.167 845.845 906.328 711.665 951.583 C 606.228 987.145 492.122 1072.87 442.612 1173.75 C 435.332 1188.58 428.237 1204.57 423.745 1220.47 C 420.429 1232.21 418.894 1250.42 413.391 1260.74 C 413.103 1261.28 412.793 1261.81 412.494 1262.34 C 411.49 1265.22 411.411 1265.03 410.991 1267.98 C 411.79 1269.33 410.178 1312.11 410.517 1322.49 z" fill="rgb(185,178,129)" transform="translate(0,0)"></path>
<path d="M 410.991 1267.98 C 395.996 1264.77 397.094 1201.76 406.273 1186.6 L 407.365 1186.99 C 408.326 1194.5 405.964 1206.71 405.972 1215.73 C 405.987 1232.76 409.118 1245.83 412.494 1262.34 C 411.49 1265.22 411.411 1265.03 410.991 1267.98 z" fill="rgb(103,21,35)" transform="translate(0,0)"></path>
<path d="M 367.646 1262.77 C 358.607 1247.32 340.462 1193.19 353.524 1179.55 C 354.918 1183.36 354.864 1188.66 354.904 1192.77 C 355.136 1216.54 364.019 1237.33 373.666 1258.74 C 377.94 1265.57 386.397 1277.28 386.53 1284.86 L 385.419 1285.92 C 379.094 1284.03 370.722 1268.8 367.646 1262.77 z" fill="rgb(103,21,35)" transform="translate(0,0)"></path>
<path d="M 373.666 1258.74 C 377.94 1265.57 386.397 1277.28 386.53 1284.86 L 385.419 1285.92 C 379.094 1284.03 370.722 1268.8 367.646 1262.77 C 371.196 1265.6 375.67 1272.57 378.645 1276.56 C 380.221 1273.95 374.266 1263.38 373.666 1258.74 z" fill="rgb(104,15,23)" transform="translate(0,0)"></path>
<path d="M 376.387 1185.68 C 377.021 1186.28 377.656 1186.87 378.29 1187.47 C 381.189 1214.66 385.257 1243.48 397.637 1268.1 C 401.849 1276.47 403.055 1278.34 405.427 1283.64 L 404.409 1285.24 C 384.833 1272.49 373.511 1221.78 372.698 1199.35 C 372.494 1193.71 372.074 1189.46 376.387 1185.68 z" fill="rgb(103,21,35)" transform="translate(0,0)"></path>
<path d="M 1001.36 534.025 C 1006.15 534.887 1038.59 573.13 1045.11 580.122 C 1152.73 694.587 1275.61 795.516 1395.19 897.166 C 1446.88 941.098 1508.83 988.888 1564.32 1027.77 C 1664.68 1097.75 1772.01 1157.13 1884.61 1204.97 C 1883.43 1218.23 1880.83 1264.99 1868.7 1273.74 C 1861.7 1278.8 1833.77 1268.48 1824.3 1265.03 C 1749.15 1233 1664.31 1179.35 1596.02 1133.91 C 1440.2 1029.13 1291.38 914.278 1150.54 790.085 C 1101.88 748.408 1054.77 704.946 1009.31 659.788 C 984.043 634.501 949.109 598.091 928.792 568.51 C 948.925 552.017 976.891 541.866 1001.36 534.025 z" fill="rgb(240,112,92)" transform="translate(0,0)"></path>
<path d="M 1070.11 640.315 C 1092.33 642.219 1099.47 665.606 1076.61 671.299 C 1050.44 670.976 1047.65 645.222 1070.11 640.315 z" fill="rgb(252,249,238)" transform="translate(0,0)"></path>
<path d="M 1477.95 995.146 C 1493.15 994.464 1504.9 1005.47 1488.12 1015.88 C 1470.52 1017.23 1461.55 1005.8 1477.95 995.146 z" fill="rgb(252,249,238)" transform="translate(0,0)"></path>
<path d="M 1044.5 622.682 C 1048.2 621.372 1052.28 623.115 1053.89 626.691 C 1055.5 630.267 1054.1 634.479 1050.67 636.377 C 1048.18 637.751 1045.14 637.611 1042.79 636.015 C 1040.44 634.419 1039.19 631.638 1039.55 628.821 C 1039.91 626.005 1041.83 623.631 1044.5 622.682 z" fill="rgb(252,249,238)" transform="translate(0,0)"></path>
<path d="M 957.448 929.467 C 969.364 930.722 1012.31 935.453 1022.3 939.162 C 1044.54 949.696 1064.85 965.764 1084.24 980.85 C 1086.53 982.63 1100.18 997.536 1101.61 997.222 C 1123.19 992.506 1162.36 982.758 1184 986.941 C 1198.61 989.767 1228.97 1006.84 1243.27 1013.99 C 1208.43 1005.61 1194.82 1012.76 1161.56 1010.46 L 1160.16 1011.58 C 1160.94 1014.22 1162.3 1015.59 1165.05 1016.82 C 1176.97 1022.17 1189.44 1031.81 1199.2 1040.38 C 1244.04 1079.71 1312.9 1175.73 1330.05 1230.24 C 1330.34 1231.15 1330.61 1232.06 1330.88 1232.98 C 1321.22 1219.44 1305.98 1197.33 1295.59 1185.4 C 1249.37 1132.36 1181.4 1056.35 1120.42 1023.13 C 1077.57 1026.83 1007.3 1052.96 969.637 1074.32 C 978.445 1081.41 991.673 1090.56 999.076 1098.45 C 1045.33 1147.75 1117.1 1233.79 1141.18 1295.75 C 1085.91 1231.71 1033.87 1169.85 962.687 1122.39 C 947.342 1112.16 931.242 1103.84 916.109 1093.72 C 883.403 1099.47 813.678 1141.9 786.783 1167.14 C 778.621 1177.79 808.512 1194.82 814.056 1199.64 C 855.16 1235.41 890.526 1277.47 924.616 1319.82 C 932.619 1329.76 944.334 1343.2 951.002 1353.66 C 898.022 1306.87 853.513 1266.89 795.14 1226.81 C 785.756 1220.46 775.879 1214.88 765.602 1210.11 C 754.585 1204.91 734.782 1199.84 728.11 1192.58 C 702.048 1209.09 677.099 1231.48 653.158 1250.88 C 652.127 1252.46 635.795 1268.01 633.399 1270.38 C 621.316 1282.35 609.453 1294.54 597.817 1306.94 C 606.811 1287.96 624.746 1257.08 636.304 1239.66 C 650.675 1214.08 665.636 1198.53 679.728 1176.44 L 678.918 1175.39 C 639.897 1125.57 577.562 1111.62 522.337 1093.4 C 528.687 1093.39 545.854 1096.49 552.618 1097.82 C 614.822 1109.99 667.744 1129.74 717.999 1168.93 C 729.221 1161.85 741.969 1149.42 752.684 1140.82 C 772.756 1124.78 793.892 1110.13 815.947 1096.95 C 822.346 1093.21 847.188 1080.68 849.838 1075.6 C 850.148 1069.68 842.58 1062.21 838.343 1057.7 C 806.441 1023.77 750.904 1005.85 706.984 992.755 C 699.365 990.483 664.272 985.273 663.002 982.896 C 670.876 977.649 712.351 982.315 722.722 983.843 C 789.087 993.616 851.438 1019.74 898.66 1068.25 C 941.025 1046.73 984.876 1025.22 1030.78 1012.21 C 1038.52 1010.02 1050.42 1008.1 1056.31 1003.04 C 1056.99 1000.13 1056.64 998.013 1054.65 995.393 C 1030.83 963.993 992.97 942.237 957.448 929.467 z" fill="rgb(253,218,143)" transform="translate(0,0)"></path>
<path d="M 636.304 1239.66 L 637.062 1241.18 C 632.371 1250.51 620.406 1265.49 620.167 1273.68 L 621.415 1276.18 C 625.326 1276.66 647.179 1254.12 651.478 1249.92 L 653.158 1250.88 C 652.127 1252.46 635.795 1268.01 633.399 1270.38 C 621.316 1282.35 609.453 1294.54 597.817 1306.94 C 606.811 1287.96 624.746 1257.08 636.304 1239.66 z" fill="rgb(252,241,208)" transform="translate(0,0)"></path>
<path d="M 1269.06 1478.36 C 1258.42 1483.34 1191.93 1496.15 1178.76 1498.34 C 1029.11 1523.23 850.667 1526.39 701.857 1498.46 C 618.207 1482.76 507.613 1437.5 439.268 1388.27 C 381.945 1347.54 314.166 1275.02 304.208 1202.87 C 275.78 996.901 535.828 897.12 694.892 858.454 C 721.588 851.965 749.762 847.56 776.183 843.384 C 893.216 825.143 1012.4 825.6 1129.29 844.739 C 1153.73 848.616 1183.68 854.15 1207.14 862.447 C 1214.37 865.003 1229.38 876.415 1236.2 881.368 C 1193.59 867.176 1144.18 858.168 1099.73 852.533 C 1003.34 839.498 905.636 839.61 809.282 852.866 C 658.049 872.779 460.966 925.987 360.929 1050.05 C 269.132 1163.9 345.104 1302.84 448.603 1376.71 C 626.417 1503.62 887.891 1519.21 1098.28 1495.15 C 1134.79 1491.12 1171.13 1485.73 1207.23 1478.99 C 1219.24 1476.68 1231.22 1474.2 1243.17 1471.56 C 1249.1 1470.22 1260.34 1467.22 1265.96 1466.46 L 1267.74 1466.24 C 1292.89 1459.36 1320.53 1451.94 1345.03 1442.52 C 1431.78 1409.12 1525.7 1352.91 1573.53 1270.71 C 1597.18 1230.07 1601.4 1200.33 1601.1 1155.26 C 1603.89 1157.04 1607.32 1159.08 1609.91 1161.07 C 1610.24 1172.6 1610.9 1186.68 1609.09 1198.03 C 1586.35 1340.37 1440.19 1419.7 1317.15 1463.8 C 1302.65 1469 1283.77 1475.45 1269.06 1478.36 z" fill="rgb(185,178,129)" transform="translate(0,0)"></path>
<path d="M 1601.1 1155.26 C 1603.89 1157.04 1607.32 1159.08 1609.91 1161.07 C 1610.24 1172.6 1610.9 1186.68 1609.09 1198.03 C 1586.35 1340.37 1440.19 1419.7 1317.15 1463.8 C 1302.65 1469 1283.77 1475.45 1269.06 1478.36 C 1271.66 1475.17 1412.15 1432.97 1417.97 1415.01 L 1417.25 1413.85 C 1409.13 1413.58 1388.89 1427.03 1380.25 1430.26 C 1359.53 1438 1285.42 1468.86 1267.74 1466.24 C 1292.89 1459.36 1320.53 1451.94 1345.03 1442.52 C 1431.78 1409.12 1525.7 1352.91 1573.53 1270.71 C 1597.18 1230.07 1601.4 1200.33 1601.1 1155.26 z" fill="rgb(193,212,203)" transform="translate(0,0)"></path>
<path d="M 642.875 991.226 C 709.002 997.536 794.977 1029.54 844.735 1073.3 C 790.143 1100.97 761.26 1119.58 718.182 1162.15 C 693.754 1140.16 667.709 1122.23 636.871 1110.49 C 597.582 1095.53 559.18 1086.72 517.096 1085.71 C 547.3 1053.28 603.357 1011.19 642.875 991.226 z" fill="rgb(253,218,143)" transform="translate(0,0)"></path>
<path d="M 648.126 1037.49 C 651.221 1036.58 654.467 1038.35 655.377 1041.44 C 656.287 1044.54 654.515 1047.78 651.42 1048.69 C 648.326 1049.6 645.083 1047.83 644.174 1044.74 C 643.265 1041.64 645.034 1038.4 648.126 1037.49 z" fill="rgb(103,21,35)" transform="translate(0,0)"></path>
<path d="M 675.044 1080.7 C 677.358 1079.35 680.322 1080.05 681.79 1082.29 C 683.259 1084.52 682.72 1087.52 680.563 1089.11 C 679.061 1090.21 677.072 1090.4 675.393 1089.59 C 673.713 1088.78 672.618 1087.11 672.545 1085.25 C 672.472 1083.38 673.433 1081.63 675.044 1080.7 z" fill="rgb(104,15,23)" transform="translate(0,0)"></path>
<path d="M 1048.98 569.366 C 1050.3 569.41 1070.4 559.051 1073.78 557.501 C 1138.19 621.372 1196.37 690.404 1266.55 748.46 C 1281.54 760.857 1296.8 774.671 1312.6 785.965 C 1321.7 794.534 1409.61 868.757 1414.05 869.916 C 1450.07 900.453 1486.91 927.635 1525.23 955.077 C 1636.38 1034.69 1756.56 1112.52 1883.67 1164.08 C 1884.53 1175.42 1885.03 1184.57 1885.15 1195.96 C 1869.64 1187.96 1850.58 1180.27 1834.41 1173.06 C 1816.74 1165 1799.23 1156.6 1781.88 1147.87 C 1702.66 1108.39 1625.08 1059.16 1552.29 1008.71 C 1517.71 984.742 1484.49 957.536 1451.45 931.384 C 1365.01 862.75 1280.86 791.268 1199.15 717.056 C 1174.29 694.527 1147.76 673.555 1124.2 649.813 C 1098.61 624.041 1071.59 598.253 1048.59 570.164 L 1048.98 569.366 z" fill="rgb(240,112,92)" transform="translate(0,0)"></path>
<path d="M 898.797 927.475 C 908.87 927.362 917.46 927.119 927.533 928.174 C 934.468 927.688 937.934 933.119 943.603 934.937 C 982.561 947.426 1021.69 968.225 1048.12 999.933 C 999.291 1011.45 941.853 1033.22 900.34 1061.44 C 887.541 1046.59 881.736 1042.02 866.634 1030 C 816.784 987.908 749.404 971.804 685.274 971.931 C 754.883 940.151 823.24 930.196 898.797 927.475 z" fill="rgb(253,218,143)" transform="translate(0,0)"></path>
<path d="M 847.142 975.431 C 849.849 974.903 852.525 976.478 853.377 979.102 C 854.229 981.725 852.99 984.572 850.49 985.736 C 848.578 986.627 846.324 986.336 844.701 984.989 C 843.078 983.642 842.376 981.481 842.897 979.438 C 843.419 977.394 845.072 975.834 847.142 975.431 z" fill="rgb(104,15,23)" transform="translate(0,0)"></path>
<path d="M 899.203 1005.65 C 902.067 1005.24 904.754 1007.14 905.324 1009.98 C 905.895 1012.81 904.152 1015.6 901.352 1016.33 C 899.396 1016.84 897.318 1016.23 895.954 1014.73 C 894.589 1013.24 894.162 1011.12 894.843 1009.21 C 895.524 1007.31 897.202 1005.94 899.203 1005.65 z" fill="rgb(103,21,35)" transform="translate(0,0)"></path>
<path d="M 301.148 1090.17 C 302.701 1092.39 297.807 1104.09 296.568 1107.86 C 293 1118.45 290.159 1129.27 288.064 1140.24 C 276.839 1198.79 296.537 1237.62 315.374 1288.93 C 287.539 1280.4 258.71 1275.62 231.296 1266.28 C 176.946 1249.28 166.215 1217.4 191.371 1166.73 C 213.304 1122.56 256.145 1103.63 301.148 1090.17 z" fill="rgb(252,249,238)" transform="translate(0,0)"></path>
<path d="M 1624.31 1171.44 C 1628.44 1173.07 1647.02 1186.31 1652.09 1189.49 C 1667.23 1198.97 1683.59 1207.74 1698.12 1217.91 C 1703.44 1237.61 1705.92 1251.09 1706.28 1271.52 C 1706.91 1307.11 1697.1 1328.45 1665.38 1346.17 C 1636.71 1359.88 1627.47 1357.32 1595.64 1358.11 C 1599.48 1333.27 1605.94 1302.43 1610.85 1277.65 C 1618.67 1238.07 1627.25 1213.38 1624.31 1171.44 z" fill="rgb(252,249,238)" transform="translate(0,0)"></path>
<path d="M 1555.85 609.317 C 1556.12 609.282 1556.4 609.248 1556.67 609.213 C 1578.12 609.066 1600.18 620.733 1616.35 633.649 C 1631.06 645.395 1644.19 661.338 1646.09 680.384 C 1647.95 699.084 1638.4 710.678 1627.22 723.891 C 1621.87 719.643 1617.6 715.133 1612.81 710.291 C 1623.76 703.672 1626.6 702.293 1630.77 689.416 C 1635.49 664.805 1612.25 643.403 1592.93 632.38 C 1561.16 614.261 1549.1 627.126 1534.69 652.784 L 1516.62 639.374 C 1528.23 619.373 1532.15 613.42 1555.85 609.317 z" fill="rgb(240,112,92)" transform="translate(0,0)"></path>
<path d="M 1560.89 638.151 C 1572.89 637.617 1581.71 639.882 1592.13 646.873 C 1606.52 656.524 1628.7 676.133 1613.47 694.588 C 1610.56 698.112 1609.07 703.062 1605.31 704.15 C 1587.55 693.103 1565.05 673.963 1544.76 660.74 C 1548.89 650.048 1550.85 644.404 1560.89 638.151 z" fill="rgb(252,249,238)" transform="translate(0,0)"></path>
<path d="M 1011.7 530.735 C 1039.78 522.43 1061.01 517.252 1090.83 515.798 C 1096.45 521.697 1102.12 528.743 1107.4 535.038 C 1097.23 538.937 1087.11 542.94 1077.03 547.045 C 1069.09 539.668 1059.65 530.197 1050.48 524.803 L 1052.88 535.342 C 1058.46 540.941 1062.86 545.114 1067.53 551.474 C 1060.24 555.915 1050.73 560.271 1048.98 569.366 L 1048.59 570.164 C 1036.52 558.583 1025.22 543.699 1011.7 530.735 z" fill="rgb(240,112,92)" transform="translate(0,0)"></path>
<path d="M 1045.91 944.95 C 1064.87 945.652 1142.9 971.558 1162.46 978.697 L 1147.84 979.096 C 1132.8 981.394 1116.98 983.889 1103.66 991.592 C 1086.62 970.366 1068.6 959.215 1045.91 944.95 z" fill="rgb(252,241,208)" transform="translate(0,0)"></path>
<path d="M 1587.78 1291.95 L 1588.15 1292.39 C 1588.37 1294.32 1577.38 1353.89 1576.46 1359.85 C 1561.41 1360.32 1538.32 1364.32 1523.42 1367.05 L 1522.71 1366.3 C 1545.5 1347.37 1572.68 1317.71 1587.78 1291.95 z" fill="rgb(240,112,92)" transform="translate(0,0)"></path>
<path d="M 1026.17 1118.88 C 1034.61 1122.98 1072.34 1169.26 1079.23 1179.55 C 1076.27 1178.13 1029.47 1124.34 1026.17 1118.88 z" fill="rgb(130,63,75)" transform="translate(0,0)"></path>
<path d="M 886.384 1261.95 C 897.526 1274.89 919.928 1299.61 926.221 1313.97 C 912.581 1296.62 898.06 1279.73 884.845 1262.93 L 886.384 1261.95 z" fill="rgb(177,129,123)" transform="translate(0,0)"></path>
<path d="M 859.36 1231.27 C 869.119 1241.7 877.178 1251.87 886.384 1261.95 L 884.845 1262.93 C 876.415 1253.15 867.754 1243.58 858.869 1234.21 L 859.36 1231.27 z" fill="rgb(252,241,208)" transform="translate(0,0)"></path>
<path d="M 858.869 1234.21 C 855.18 1230.26 835.631 1210.62 834.033 1207.87 C 837.455 1208.63 856.112 1227.51 859.36 1231.27 L 858.869 1234.21 z" fill="rgb(177,129,123)" transform="translate(0,0)"></path>
<path d="M 159.266 1400.38 C 160.164 1400.61 162.679 1401.22 163.168 1402.09 C 176.3 1426.09 193.473 1452.19 201.403 1478.35 C 207.285 1497.75 199.201 1525.78 184.136 1539.14 C 198.366 1572.08 214.234 1620.32 233.197 1649.63 C 230.559 1625.45 225.577 1610.46 238.686 1587.52 C 243.997 1578.23 272.799 1535.83 284.347 1543.83 C 285.03 1548.55 283.944 1552.61 283.561 1557.23 C 279.337 1608.13 282.119 1624.24 241.985 1661.79 C 251.386 1682.72 283.826 1726.25 299.233 1744.29 C 284.324 1690.85 286.892 1666.63 329.48 1626.68 C 331.303 1624.97 331.44 1625.29 333.671 1625.58 C 335.723 1631.23 337.708 1668.64 338.022 1676.8 C 339.087 1704.49 331.24 1714.98 313.076 1733.83 C 311.546 1739.88 310.269 1747.5 309.063 1753.74 C 315.365 1757.16 330.354 1768.51 336.685 1773.1 C 354.31 1785.87 368.195 1795.4 387.688 1805.33 C 378.792 1789.19 368.37 1771.12 365.629 1752.66 C 363.789 1740.26 375.811 1689.36 386.902 1685.02 C 388.109 1685.28 390.112 1685.4 390.753 1686.48 C 418.105 1732.61 433.57 1766.34 397.356 1809.95 C 425.155 1827.35 487.511 1855.3 518.553 1866.3 C 499.644 1846.78 482.346 1828.08 482.862 1799.03 C 483.007 1790.87 483.452 1764.44 487.527 1758.12 C 499.138 1754.77 533.688 1802.59 537.149 1815.7 C 542.384 1835.54 536.326 1852.75 527.841 1869.97 C 570.522 1885.65 615.257 1895.02 660.639 1897.8 C 668.891 1898.37 677.163 1898.61 685.434 1898.53 C 692.975 1898.43 721.085 1895.75 725.137 1897.44 C 701.971 1911.54 623.446 1902.6 594.741 1897.73 C 563.702 1891.72 533.212 1883.16 503.583 1872.13 C 494.317 1874.83 484.964 1877.22 475.542 1879.31 C 472.925 1887.61 470.001 1894.32 463.606 1900.6 C 446.884 1917.04 423.945 1919.69 401.931 1922.79 C 390.152 1924.45 381.024 1926.03 369.158 1926.24 C 386.157 1895.41 433.358 1855.1 470.805 1873.31 C 479.324 1871.46 487.381 1869.7 496.003 1868.3 C 455.826 1851.92 427.242 1838.05 389.952 1817.42 L 374.185 1822.08 C 362.969 1851.91 324.034 1856.97 296.25 1853 C 277.998 1850.4 255.931 1841.57 240.594 1831.41 C 270.145 1807.84 336.803 1798.74 371.206 1816.5 L 383.454 1813.9 C 352.902 1797.08 330.439 1780.96 303.695 1759.24 C 290.995 1758.85 280.032 1756.99 267.045 1757.69 C 231.928 1788.45 199.513 1766.7 169.708 1743.36 C 161.157 1736.67 152.97 1731.58 145.308 1723.63 C 145.669 1722.19 146.041 1720.95 147.726 1720.32 C 190.906 1704.17 239.534 1712.79 266.186 1751.94 L 294.918 1752.11 C 274.165 1732.65 243.693 1684.5 229.566 1659.57 C 218.056 1656.39 208.628 1653.27 197.357 1649.36 L 196.738 1649.98 C 189.395 1657.3 179.385 1661.31 169.02 1661.08 C 150.466 1660.64 130.654 1644.77 121.786 1629.12 C 117.431 1621.44 98.7797 1592.59 98.9795 1586.12 L 100.692 1585.06 C 112.592 1584.74 144.138 1595.86 155.672 1601.03 C 174.64 1609.53 190.987 1624.42 198.453 1644.13 C 207.297 1646.6 216.079 1649.29 224.793 1652.18 C 203.86 1613.62 192.529 1581.59 177.872 1540.67 C 159.498 1532.01 149.86 1515.63 148.834 1495.9 C 147.746 1474.96 146.452 1416.26 159.266 1400.38 z" fill="rgb(104,15,23)" transform="translate(0,0)"></path>
<path d="M 160.088 1407.61 C 165.974 1413.34 193.434 1466.49 195.818 1477.88 C 199.688 1496.36 197.062 1513.56 187.276 1529.92 C 173.198 1541.54 161.333 1521.81 157.714 1510.86 C 151.464 1491.94 151.532 1424.45 160.088 1407.61 z" fill="rgb(184,203,129)" transform="translate(0,0)"></path>
<path d="M 388.322 1688.62 L 388.988 1690.39 C 400.419 1720.33 423.995 1747.45 408.606 1783.98 C 405.753 1790.75 400.369 1798.8 395.371 1804.15 L 393.726 1804.39 C 393.059 1802.58 392.957 1802.8 392.821 1800.94 C 391.818 1799.96 390.167 1797.88 389.192 1796.73 C 385.209 1794.13 378.411 1776.88 376.016 1771.75 C 364.272 1746.56 375.735 1710.86 388.322 1688.62 z" fill="rgb(184,203,129)" transform="translate(0,0)"></path>
<path d="M 389.192 1796.73 C 388.961 1788.15 386.567 1755.91 388.631 1750.49 L 390.059 1750.15 C 395.055 1758.05 393.226 1790.38 392.821 1800.94 C 391.818 1799.96 390.167 1797.88 389.192 1796.73 z" fill="rgb(103,21,35)" transform="translate(0,0)"></path>
<path d="M 177.681 1718.37 C 185.674 1717.41 194.284 1717.72 202.248 1718.86 C 227.352 1722.47 245.823 1732.08 260.905 1752.48 C 236.778 1749.3 227.603 1743.98 207.21 1740.12 C 216.117 1745.83 225.976 1750.83 236.246 1753.49 C 245.425 1755.16 250.799 1755.73 260.107 1756.27 C 229.142 1780.72 204.413 1761.88 178.802 1742.83 L 152.566 1723.62 C 159.434 1721.11 170.446 1719.35 177.681 1718.37 z" fill="rgb(184,203,129)" transform="translate(0,0)"></path>
<path d="M 104.907 1589.9 C 139.744 1597.48 175.894 1608.47 191.874 1643.07 L 191.011 1648.32 C 180.435 1655.78 167.969 1657.35 155.978 1652.53 C 131.662 1642.76 117.303 1611.53 104.907 1589.9 z" fill="rgb(184,203,129)" transform="translate(0,0)"></path>
<path d="M 191.011 1648.32 C 177.565 1644.41 159.231 1635.81 151.101 1623.99 C 155.542 1622.74 172.318 1636.07 178.144 1638.48 C 183.711 1640.77 184.46 1641.31 190.52 1642.76 L 191.874 1643.07 L 191.011 1648.32 z" fill="rgb(103,21,35)" transform="translate(0,0)"></path>
<path d="M 319.749 1812.46 C 335.152 1812.74 349.052 1813.6 363.722 1818.56 C 346.81 1828.67 328.938 1827.57 311.27 1834.45 C 329.43 1837.65 351.888 1831.65 368.374 1824.17 C 362.022 1832.74 355.983 1837.73 346.54 1842.46 C 343.343 1843.77 340.081 1844.92 336.768 1845.91 C 307.359 1854.75 276.294 1844.79 250.192 1830.94 C 272.299 1819.73 294.94 1813.66 319.749 1812.46 z" fill="rgb(184,203,129)" transform="translate(0,0)"></path>
<path d="M 490.328 1762.01 C 516.906 1785.58 544.3 1816.64 530.08 1853.53 C 529.119 1856.02 528.757 1857.61 526.367 1858.66 L 524.384 1859.98 C 524.995 1862.34 524.922 1862.18 524.211 1864.53 C 521.334 1863.99 510.57 1850.63 507.797 1847.51 C 483.183 1819.84 487.301 1796.48 490.328 1762.01 z" fill="rgb(184,203,129)" transform="translate(0,0)"></path>
<path d="M 524.384 1859.98 C 521.345 1851.75 507.771 1820.27 509.109 1814.53 L 510.869 1814.78 C 517.277 1821.77 525.738 1848.51 526.367 1858.66 L 524.384 1859.98 z" fill="rgb(103,21,35)" transform="translate(0,0)"></path>
<path d="M 238.191 1646.77 C 232.442 1624.11 233.478 1605.69 245.595 1585.04 C 252.388 1573.46 268.577 1555.07 279.543 1547.38 C 273.787 1589.09 280.755 1625.3 242.5 1653.4 L 241.458 1652.64 L 241.701 1650.56 L 238.191 1646.77 z" fill="rgb(184,203,129)" transform="translate(0,0)"></path>
<path d="M 238.191 1646.77 C 243.237 1632.14 252.622 1600.94 261.389 1590.23 C 258.049 1607.1 247.696 1633.83 241.701 1650.56 L 238.191 1646.77 z" fill="rgb(103,21,35)" transform="translate(0,0)"></path>
<path d="M 329.736 1632.77 C 330.264 1636.19 329.911 1640.71 330.326 1644.39 C 334.858 1684.5 337.846 1699.52 309.574 1730.2 C 309.97 1713.04 316.893 1686.92 315.239 1672.05 L 314.239 1672.75 C 311.185 1680.13 311.001 1682.8 309.951 1690.8 C 306.562 1715.31 304.47 1719.63 304.926 1745.3 C 287.837 1691.56 292.24 1673.43 329.736 1632.77 z" fill="rgb(184,203,129)" transform="translate(0,0)"></path>
<path d="M 445.917 1874.39 C 452.5 1874.43 458.658 1875.41 465.044 1876.91 C 458.162 1880.29 432.049 1891.23 429.836 1896.25 L 430.786 1897.44 C 440.392 1897.77 460.211 1885.86 469.95 1881.33 C 463.278 1895.14 456.015 1901.93 442.43 1908.81 C 422.623 1916.09 400.339 1917.58 379.522 1920.43 C 381.771 1917.2 384.186 1914.06 386.627 1910.97 C 400.722 1893.15 422.881 1877.08 445.917 1874.39 z" fill="rgb(184,203,129)" transform="translate(0,0)"></path>
<path d="M 1743.57 1387.81 C 1764.72 1400.73 1785.35 1423.41 1791.33 1447.93 C 1796.29 1468.26 1792.91 1493.63 1777.36 1508.57 C 1777.82 1522.06 1777.2 1535.56 1775.52 1548.95 C 1780.77 1543.36 1789.92 1534.06 1793.86 1528.01 C 1800.11 1518.17 1804.88 1507.9 1811.81 1498.46 C 1834.09 1468.15 1868.87 1452.39 1904.68 1444.43 C 1909.52 1443.36 1923.26 1439 1927.09 1439.61 C 1928.36 1443.09 1927.51 1446.06 1925.81 1449.49 C 1910.88 1479.71 1888.49 1505.84 1855.94 1517.15 C 1838.13 1523.33 1819.81 1525.67 1801.57 1528.6 C 1794.21 1536.34 1781.03 1550.92 1773.42 1557.66 C 1770.64 1578.63 1761.04 1601.91 1753.24 1621.79 C 1746.7 1631.92 1740.88 1643.6 1734.33 1653.48 C 1719.86 1675.29 1701.46 1698.65 1682.81 1716.96 C 1696.29 1713.41 1705.79 1711.27 1719.83 1709.6 C 1758.78 1669.99 1801.05 1673.25 1840.71 1709.05 C 1815.6 1724.2 1747.71 1752.61 1720.2 1718.97 C 1719.83 1718.52 1718.65 1715.84 1718.43 1715.36 C 1700.94 1718.02 1691.67 1721.76 1675.84 1724.88 C 1656.01 1745.46 1634.92 1764.78 1612.69 1782.73 C 1620.28 1782.7 1638.26 1786.37 1641.6 1785.85 C 1665.28 1782.22 1681.48 1780.26 1701.65 1798.94 C 1720.84 1816.73 1722.82 1849.2 1727.78 1874.77 C 1711.55 1867.95 1664.43 1850.35 1653.34 1841.82 C 1647.56 1837.45 1643.04 1831.61 1640.25 1824.92 C 1635.7 1814.04 1636.66 1802.83 1637.23 1791.37 C 1627.07 1789.16 1618.63 1788.73 1609.07 1786.92 C 1586.48 1801.83 1561.3 1819.56 1537.61 1832.29 C 1468.68 1869.36 1392.41 1897.05 1316.19 1914.56 C 1295.62 1919.29 1254.14 1928.28 1233.74 1926.69 C 1245.05 1922.13 1259.03 1920.18 1271.07 1917.9 C 1285.29 1915.33 1299.42 1912.31 1313.45 1908.83 C 1370.79 1894.96 1426.81 1876.09 1480.87 1852.45 C 1486.5 1849.98 1507.43 1841.08 1508.23 1837.88 C 1513.06 1818.64 1529.35 1798.99 1534.57 1779.6 C 1526.44 1772.85 1519.88 1756.71 1519.12 1745.49 C 1517.3 1718.37 1540.82 1690.3 1556.1 1669.77 C 1557.55 1667.83 1559.45 1666.69 1561.64 1666.03 C 1566.09 1669.49 1568.01 1685.64 1569.29 1691.55 C 1576.21 1723.45 1576.05 1764.81 1540.99 1780.15 C 1538.39 1786.69 1534.87 1796.34 1531.71 1802.35 C 1527.19 1810.63 1516.08 1829.37 1513 1837.05 C 1554.65 1816.72 1593.35 1790.82 1628.03 1760.07 C 1628.56 1742.75 1629.21 1724.81 1629.05 1707.52 C 1587.25 1688.22 1603.17 1610.36 1614.65 1577.3 C 1615.28 1575.47 1615.47 1575.78 1617.06 1575.03 C 1624.99 1577.13 1631.38 1588.28 1636.71 1593.83 C 1663.26 1621.53 1673.76 1684.78 1634.09 1707.29 C 1635.73 1724.12 1635.06 1738.72 1633.65 1755.54 C 1660.71 1730.46 1685.2 1707.28 1707.68 1677.88 C 1728.37 1650.83 1728.29 1646.51 1720.05 1613.4 C 1689.9 1606.01 1679.24 1591.18 1675.57 1560.51 C 1674.92 1555.05 1673.2 1539.91 1678.03 1536.76 C 1687.67 1538.1 1697.84 1543.59 1706.88 1547.17 C 1737.87 1559.47 1752.59 1584.07 1726.26 1611.17 C 1728.27 1623.32 1730.24 1633.61 1730.6 1645.98 C 1757.72 1602.58 1772.86 1561.79 1772.18 1509.77 L 1760.64 1508.51 C 1732.09 1484.71 1742.65 1454.08 1743.7 1421.8 C 1744.06 1410.57 1742.56 1398.89 1743.57 1387.81 z" fill="rgb(103,21,35)" transform="translate(0,0)"></path>
<path d="M 1618.36 1580.6 C 1651.53 1607.62 1675.5 1672.95 1633.09 1702.56 C 1627.91 1683.85 1629.26 1654.83 1631.42 1635.76 C 1632.28 1630.52 1633.01 1628.98 1631.25 1624.24 L 1630.03 1623.91 C 1622.2 1639.75 1625.07 1684.81 1628.12 1702.44 C 1591.97 1672.62 1608.8 1618.25 1618.36 1580.6 z" fill="rgb(184,203,129)" transform="translate(0,0)"></path>
<path d="M 1920.84 1445.33 C 1921.49 1445.85 1921.05 1445.42 1921.5 1447.04 C 1903.06 1482.8 1879.5 1508.1 1839.12 1517.21 C 1828.15 1519.68 1813.75 1520.73 1803.75 1524.71 C 1803.54 1524.15 1803.33 1523.6 1803.12 1523.05 C 1804.75 1518.35 1806.47 1515.66 1809.04 1511.59 C 1837.37 1466.69 1872.59 1456.29 1920.84 1445.33 z" fill="rgb(184,203,129)" transform="translate(0,0)"></path>
<path d="M 1882.6 1469.81 L 1883.5 1470.97 C 1883.52 1483.18 1822.68 1511.98 1810.48 1517.02 L 1809.68 1516.25 C 1812.1 1509.13 1852.73 1491.63 1861.18 1486.21 C 1870.37 1480.31 1874.35 1477.19 1882.6 1469.81 z" fill="rgb(103,21,35)" transform="translate(0,0)"></path>
<path d="M 1663.81 1788.43 C 1674.93 1788.58 1685.21 1791.86 1694.02 1798.76 C 1713.82 1814.28 1718.17 1843.01 1720.92 1866.46 C 1715.49 1864.61 1710.22 1862.23 1704.92 1860.03 C 1690.27 1853.72 1672.96 1848.86 1659.71 1839.99 C 1650.42 1833.77 1644.66 1825.73 1642.48 1814.72 C 1641.32 1808.83 1639.32 1797.01 1643.53 1792.23 C 1646.98 1788.33 1658.72 1788.78 1663.81 1788.43 z" fill="rgb(184,203,129)" transform="translate(0,0)"></path>
<path d="M 1644.61 1794.76 C 1658.34 1798.21 1671.16 1806.92 1681.72 1816.11 C 1689.35 1822.76 1697.47 1831.11 1698.18 1841.67 C 1688.92 1833.84 1682.52 1823.02 1672.84 1815.15 C 1667.14 1810.52 1661.03 1806.5 1654.37 1803.41 C 1652.21 1802.41 1648.73 1801.63 1646.87 1800.27 C 1644.52 1798.56 1644.8 1797.4 1644.61 1794.76 z" fill="rgb(103,21,35)" transform="translate(0,0)"></path>
<path d="M 1747.84 1395.09 C 1769.65 1412.49 1790.44 1438.33 1788.29 1467.71 C 1787.51 1478.48 1785.92 1493.65 1777.64 1501.33 L 1775.99 1501.01 C 1773.99 1504.07 1774.58 1502.3 1775.23 1506.78 L 1773.99 1506.97 L 1772.56 1505.66 C 1767.36 1506.29 1760.78 1503.83 1757.33 1499.94 C 1739.76 1480.1 1747.35 1450.28 1748.06 1426.44 C 1748.38 1415.63 1748.21 1405.75 1747.84 1395.09 z" fill="rgb(184,203,129)" transform="translate(0,0)"></path>
<path d="M 1772.56 1505.66 C 1769.27 1493.04 1768.66 1464.47 1766 1449.96 C 1764.33 1440.83 1760.73 1431.15 1759.6 1423.47 L 1760.91 1423 C 1771.37 1431.23 1775.98 1486.49 1775.99 1501.01 C 1773.99 1504.07 1774.58 1502.3 1775.23 1506.78 L 1773.99 1506.97 L 1772.56 1505.66 z" fill="rgb(103,21,35)" transform="translate(0,0)"></path>
<path d="M 1772.62 1686.21 C 1798.97 1683.5 1812.63 1693.71 1832.2 1709.05 C 1800.48 1723.69 1764.18 1739.03 1730.33 1722.4 C 1726.98 1720.13 1724.31 1717.39 1721.36 1714.61 C 1732.23 1713.53 1773.28 1711.01 1781.58 1706.8 L 1781.18 1705.02 C 1780.31 1704.63 1779.44 1704.24 1778.57 1703.85 C 1762.18 1705.77 1742.02 1708.1 1726.16 1709.9 C 1740.22 1697.22 1754.13 1689.86 1772.62 1686.21 z" fill="rgb(184,203,129)" transform="translate(0,0)"></path>
<path d="M 1559.56 1673.74 C 1561.71 1675.95 1562.62 1683.52 1563.31 1686.84 C 1569.61 1717.41 1574.67 1753.72 1544.06 1773.63 C 1546.7 1763.37 1553.86 1725.75 1543.32 1718.64 L 1542.13 1719.72 L 1542.62 1723.23 C 1544.53 1742.83 1543.36 1757.09 1537.71 1775.85 C 1507.13 1736.87 1535.19 1705.48 1559.56 1673.74 z" fill="rgb(184,203,129)" transform="translate(0,0)"></path>
<path d="M 1680.09 1542 C 1709.46 1550.83 1754.91 1568.57 1724.85 1605.65 C 1716.98 1579.48 1712.89 1573.05 1690.91 1556.86 C 1688.09 1555.14 1688.26 1555.14 1685.06 1554.46 C 1685.51 1559.18 1704.35 1571.77 1709.44 1580.81 C 1716.11 1592.65 1717.43 1595.31 1720.21 1609.12 C 1684.59 1599.37 1679.65 1574.68 1680.09 1542 z" fill="rgb(184,203,129)" transform="translate(0,0)"></path>
<path d="M 288.847 652.714 C 270.549 630.337 257.644 589.644 260.685 560.385 C 262.149 546.291 289.591 456.42 297.775 450.601 C 300.048 451.152 301.644 451.839 302.8 454.181 C 324.021 497.162 342.183 547.835 329.25 595.943 C 323.882 615.908 312.561 645.725 294.122 656.606 C 289.847 695.663 276.008 748.337 262.991 785.702 C 276.207 774.809 297.165 758.487 308.844 746.799 C 308.96 720.222 312.013 706.488 320.597 681.258 C 327.122 662.078 415.671 595.567 426.014 605.217 C 427.309 611.257 424.197 620.476 422.902 626.637 C 409.865 688.651 385.535 747.708 313.08 750.15 C 295.818 766.985 275.348 782.948 258.468 799.138 C 245.697 811.386 237.096 844.699 225.171 859.967 C 215.896 874.197 204.588 888.525 196.85 903.014 C 216.109 892.664 230.528 886.547 249.797 877.376 C 250.781 863.056 260.739 845.645 272.061 835.888 C 298.335 813.247 338.763 811.317 371.919 809.723 C 374.259 809.611 376.756 810.38 378.649 811.633 C 379.076 818.546 353.179 844.529 347.305 851.947 C 323.275 882.29 291.747 884.153 256.354 879.655 C 237.342 888.479 197.734 906.295 181.798 918.691 C 172.241 926.126 120.67 981.498 108.046 983.095 L 107.626 982.031 C 111.057 977.077 123.337 966.767 128.457 962.121 C 138.451 953.035 148.21 943.696 157.726 934.112 C 178.965 913.044 192.424 898.858 195.163 866.625 C 192.241 860.894 182.076 841.111 180.37 836.04 C 175.495 821.549 166.149 774.806 166.436 761.137 L 167.642 759.623 C 170.051 759.971 169.646 759.843 171.978 760.643 C 189.13 773.983 213.814 791.433 216.502 814.121 C 219.505 839.473 200.704 854.21 198.048 877.297 C 197.473 883.74 193.72 892.974 191.445 899.338 C 211.585 868.22 231.597 840.911 245.062 805.96 C 259.52 772.021 236.074 777.917 219.639 759.132 C 200.518 737.277 186.516 705.086 167.893 682.012 C 163.923 677.093 152.09 661.621 154.377 655.919 C 159.744 654.317 171.631 659.267 177.398 660.872 C 201.421 667.556 225.151 679.66 240.088 700.24 C 253.411 718.599 254.666 741.552 254.522 763.433 C 254.484 773.367 255.102 780.533 253.389 790.619 C 259.931 778.215 269.989 744.725 273.25 731.154 C 279.743 704.132 252.82 650.976 237.362 627.727 L 234.982 623.937 L 233.932 621.343 L 235.144 620.743 L 236.611 622.696 C 238.172 620.973 238.23 620.006 239.086 617.727 L 239.781 618.752 C 255.397 645.871 270.641 669.848 279.242 700.909 C 282.639 689.978 287.072 664.536 288.847 652.714 z" fill="rgb(104,15,23)" transform="translate(0,0)"></path>
<path d="M 171.978 760.643 C 189.13 773.983 213.814 791.433 216.502 814.121 C 219.505 839.473 200.704 854.21 198.048 877.297 C 197.334 872.18 197.662 866.828 196.829 860.898 C 192.7 851.59 184.517 834.953 182.379 825.755 C 178.008 806.949 175.499 786.593 171.603 767.467 C 171.518 765.901 171.863 762.368 171.978 760.643 z" fill="rgb(253,218,143)" transform="translate(0,0)"></path>
<path d="M 171.978 760.643 C 189.13 773.983 213.814 791.433 216.502 814.121 C 219.505 839.473 200.704 854.21 198.048 877.297 C 197.334 872.18 197.662 866.828 196.829 860.898 C 198.998 844.313 192.234 820.514 192.487 800.532 C 198.802 815.48 201.47 837.71 202.133 853.824 C 203.642 850.428 205.086 847.004 206.467 843.554 C 214.113 824.262 215.129 805.753 198.913 790.045 C 193.342 784.647 178.428 770.037 171.603 767.467 C 171.518 765.901 171.863 762.368 171.978 760.643 z" fill="rgb(103,21,35)" transform="translate(0,0)"></path>
<path d="M 298.408 459.513 C 307.533 467.421 322.559 519.364 325.501 531.227 C 335.331 570.862 323.484 621.244 294.687 650.703 C 294.855 645.17 295.728 638.928 296.616 633.418 C 301.571 602.653 303.111 572.855 303.286 541.75 C 302.955 539.692 303.112 540.416 301.968 538.523 L 300.324 538.921 C 298.559 544.29 297.27 584.044 296.402 593.533 C 294.684 612.308 292.384 627.308 289.278 646.301 C 285.42 639.731 281.927 632.952 278.817 625.996 C 249.669 560.521 274.729 522.076 298.408 459.513 z" fill="rgb(253,218,143)" transform="translate(0,0)"></path>
<path d="M 314.399 739.99 C 312.316 718.238 320.072 686.522 334.886 669.748 C 353.543 648.625 395.504 619.71 421.131 609.748 C 413.4 648.32 400.636 705.52 365.565 728.386 C 352.743 736.746 333.99 745.285 318.349 743.873 C 317.4 742.668 315.575 741.093 314.399 739.99 z" fill="rgb(253,218,143)" transform="translate(0,0)"></path>
<path d="M 314.399 739.99 C 324.755 729.893 368.165 667.973 374.861 665.826 C 375.551 667.202 376.114 668.41 374.988 670.064 C 358.827 693.802 336.145 722.201 318.349 743.873 C 317.4 742.668 315.575 741.093 314.399 739.99 z" fill="rgb(103,21,35)" transform="translate(0,0)"></path>
<path d="M 255.575 873.186 C 257.595 859.948 268.547 844.282 279.425 836.384 C 302.982 819.279 344.624 815.242 373.191 814.839 C 346.644 844.968 330.27 874.617 288.251 877.145 C 279.698 877.593 271.121 877.182 262.65 875.919 C 259.307 876.545 258.366 875.078 255.575 873.186 z" fill="rgb(253,218,143)" transform="translate(0,0)"></path>
<path d="M 255.575 873.186 C 277.397 864.708 295.037 856.203 315.736 845.035 C 319.714 842.889 332.648 835.256 336.065 835.369 L 336.479 836.982 C 330.451 846.754 275.674 867.898 262.65 875.919 C 259.307 876.545 258.366 875.078 255.575 873.186 z" fill="rgb(103,21,35)" transform="translate(0,0)"></path>
<path d="M 159.806 661.43 C 183.215 666.595 207.401 675.107 225.452 691.395 C 246.791 710.65 248.83 730.677 250.007 757.817 C 244.857 747.286 226 713.121 217.225 708.529 L 216.585 709.778 C 218.464 713.53 220.944 717.46 223.118 721.092 C 229.283 730.319 252.561 763.662 248.612 773.251 C 245.423 773.491 240.81 769.461 238.058 767.56 C 214.844 751.522 201.048 722.764 185.864 699.439 C 177.364 686.643 168.677 673.972 159.806 661.43 z" fill="rgb(253,218,143)" transform="translate(0,0)"></path>
<path d="M 1850.6 520.071 C 1844.41 507.571 1835.41 493.105 1834.16 478.975 C 1832.91 464.81 1870.31 409.477 1881.58 396.462 C 1884.12 393.525 1886.69 390.503 1890.71 390.235 C 1895.32 397.75 1905.25 462.983 1903.69 473.916 C 1901.89 486.54 1876.64 510.036 1864.92 517.309 C 1862.95 519.002 1859.4 521.226 1859.43 523.592 C 1859.66 548.041 1861.25 581.709 1865.24 605.197 C 1866.26 611.203 1877.5 634.801 1880.3 643.095 C 1886.43 661.342 1888.3 676.037 1893.07 693.433 C 1894.71 689.71 1896.84 685.876 1896.95 681.898 C 1889.9 668.875 1888.53 629.976 1892.93 615.673 C 1894.5 610.686 1896.83 605.97 1899.84 601.69 C 1903.25 596.726 1935.77 559.089 1939.09 557.954 C 1946.23 562.199 1941.81 594.537 1943.31 603.171 C 1950.82 646.347 1908.04 660.353 1898.38 695.912 C 1894.94 708.55 1902.01 743.584 1902.7 758.766 C 1904.8 805.044 1901.59 850.613 1887.11 894.887 C 1885.31 900.436 1882.24 911.686 1878.74 915.762 L 1877.16 915.334 C 1876.58 911.742 1884.02 887.873 1885.62 880.713 C 1894 843.326 1898.79 796.189 1894.11 758.409 C 1893.11 750.292 1873.07 720.234 1865.63 714.723 C 1859.96 710.527 1858.12 710.398 1851.39 710.639 C 1841.06 711.203 1816.42 711.499 1806.95 706.134 C 1795.65 699.728 1743.57 647.146 1750.11 636.38 C 1757.32 634.406 1778.18 638.663 1786.1 640.36 C 1796.17 641.339 1819.33 647.386 1829.34 649.641 C 1859.5 655.696 1856.74 689.262 1868.11 708.194 C 1875.32 720.188 1885.57 729.739 1893.36 744.201 C 1890.56 700.289 1876.9 651.558 1858.59 611.838 C 1849.82 592.806 1845.3 577.751 1825.54 568.583 C 1817.61 564.904 1811.41 559.668 1802.23 557.695 C 1801.66 555.19 1801.6 552.57 1801.41 549.976 C 1810.84 555.74 1822.54 559.311 1835.77 567.611 C 1799.16 516.323 1776.01 486.564 1715.31 459.728 C 1701.28 467.328 1674.68 483.29 1657.07 480.789 C 1643.67 478.887 1586.24 426.134 1589.39 416.382 C 1600.84 409.954 1663.64 405.683 1678.11 410.528 C 1689.23 414.253 1709.45 441.21 1715.78 452.066 C 1737.62 459.956 1756.77 471.931 1775.08 486.074 C 1781.23 490.825 1791.07 499.972 1797.22 503.678 L 1799.89 503.817 L 1801.72 501.924 C 1819.23 528.991 1843.52 561.725 1857.24 588.848 C 1856.28 576.303 1855.44 526.868 1850.6 520.071 z" fill="rgb(104,15,23)" transform="translate(0,0)"></path>
<path d="M 1850.6 520.071 C 1844.41 507.571 1835.41 493.105 1834.16 478.975 C 1832.91 464.81 1870.31 409.477 1881.58 396.462 C 1884.12 393.525 1886.69 390.503 1890.71 390.235 C 1895.32 397.75 1905.25 462.983 1903.69 473.916 C 1901.89 486.54 1876.64 510.036 1864.92 517.309 L 1862.77 517.712 L 1861.82 516.843 L 1861.57 518.113 L 1860.35 517.718 L 1861.53 515.831 L 1860.12 515.248 C 1859.98 500.062 1869.47 480.34 1875.14 466.539 C 1876 464.435 1875.84 463.664 1874.6 462.254 L 1872.6 462.537 C 1864.69 473.27 1859.64 493.4 1856.03 506.542 C 1855.13 509.816 1854.73 514.061 1853.58 517.02 L 1853.54 519.019 C 1852.86 519.274 1851.24 519.948 1850.6 520.071 z" fill="rgb(253,218,143)" transform="translate(0,0)"></path>
<path d="M 1850.6 520.071 C 1844.41 507.571 1835.41 493.105 1834.16 478.975 C 1832.91 464.81 1870.31 409.477 1881.58 396.462 C 1884.12 393.525 1886.69 390.503 1890.71 390.235 C 1895.32 397.75 1905.25 462.983 1903.69 473.916 C 1901.89 486.54 1876.64 510.036 1864.92 517.309 L 1862.77 517.712 L 1861.82 516.843 L 1861.57 518.113 L 1860.35 517.718 L 1861.53 515.831 L 1860.12 515.248 C 1871.81 506.048 1898.59 484.778 1898.74 470.173 C 1898.96 448.218 1890.83 417.837 1888.54 395.574 C 1877.51 409.86 1841.16 459.903 1838.7 479.609 C 1837.9 486.062 1850.18 509.153 1853.58 517.02 L 1853.54 519.019 C 1852.86 519.274 1851.24 519.948 1850.6 520.071 z" fill="rgb(103,21,35)" transform="translate(0,0)"></path>
<path d="M 1851.39 710.639 C 1841.06 711.203 1816.42 711.499 1806.95 706.134 C 1795.65 699.728 1743.57 647.146 1750.11 636.38 C 1757.32 634.406 1778.18 638.663 1786.1 640.36 C 1777.89 642.479 1761.92 635.602 1754.74 638.322 C 1754.83 639.735 1754.61 640.197 1755.21 641.083 C 1770.2 641.075 1832.87 651.899 1844.36 663.468 C 1849.05 668.185 1858.56 692.133 1858.79 699.497 L 1857.93 700.155 L 1856.9 699.532 C 1855.69 701.551 1855.54 702.319 1853.85 703.688 L 1854.68 705.518 L 1853.23 706.256 L 1857.42 707.799 L 1857.69 708.914 C 1855.61 709.545 1853.51 710.12 1851.39 710.639 z" fill="rgb(253,218,143)" transform="translate(0,0)"></path>
<path d="M 1851.39 710.639 C 1841.06 711.203 1816.42 711.499 1806.95 706.134 C 1795.65 699.728 1743.57 647.146 1750.11 636.38 C 1757.32 634.406 1778.18 638.663 1786.1 640.36 C 1777.89 642.479 1761.92 635.602 1754.74 638.322 C 1754.83 639.735 1754.61 640.197 1755.21 641.083 C 1767.22 660.553 1789.64 687.716 1808.98 701.196 C 1817.93 707.441 1841.61 705.66 1853.23 706.256 L 1857.42 707.799 L 1857.69 708.914 C 1855.61 709.545 1853.51 710.12 1851.39 710.639 z" fill="rgb(103,21,35)" transform="translate(0,0)"></path>
<path d="M 1853.85 703.688 C 1850.97 702.121 1807.12 668.242 1806.53 667.336 L 1807.83 666.407 C 1817.08 667.482 1848.55 692.48 1856.9 699.532 C 1855.69 701.551 1855.54 702.319 1853.85 703.688 z" fill="rgb(103,21,35)" transform="translate(0,0)"></path>
<path d="M 1639.71 413.424 C 1680.94 408.187 1687.37 420.965 1709.22 450.993 C 1697.66 448.474 1661.05 438.738 1651.84 438.989 L 1651.1 440.405 L 1651.96 442.448 C 1655.65 444.721 1696.95 453.44 1703.79 455.108 C 1706.66 455.97 1705.97 455.136 1707.05 456.957 C 1700.83 466.735 1671.19 475.539 1659.41 476.904 C 1634.57 465.716 1612.23 440.13 1595.21 419.515 C 1609.93 416.741 1624.78 414.708 1639.71 413.424 z" fill="rgb(253,218,143)" transform="translate(0,0)"></path>
<path d="M 1936.99 565.995 L 1937.96 608.643 C 1938.25 629.193 1933.51 637.951 1920.07 653.134 C 1914.51 659.417 1909.59 666.433 1903.62 672.556 L 1899.1 672.837 C 1899.28 673.606 1899.27 674.771 1899.31 675.607 C 1895.93 670.986 1896.04 651.525 1895.11 645.418 C 1889.86 610.769 1915.16 590.058 1936.99 565.995 z" fill="rgb(253,218,143)" transform="translate(0,0)"></path>
<path d="M 1899.1 672.837 C 1898.18 663.939 1908.08 625.038 1914.4 615.15 L 1915.56 614.928 C 1915.92 620.824 1905.63 662.386 1903.62 672.556 L 1899.1 672.837 z" fill="rgb(103,21,35)" transform="translate(0,0)"></path>
<path d="M 237.362 627.727 C 216.231 634.838 190.217 633.217 175.241 614.35 C 153.207 586.592 138.03 553.113 119.071 523.225 C 118.291 521.996 119.003 521.467 119.572 520.239 C 125.357 517.678 137.322 519.849 143.7 520.791 C 178.66 525.954 226.852 539.191 236.568 578.539 C 239.04 588.55 242.449 608.896 239.781 618.752 L 239.086 617.727 C 238.23 620.006 238.172 620.973 236.611 622.696 L 235.144 620.743 L 233.932 621.343 L 234.982 623.937 L 237.362 627.727 z" fill="rgb(253,218,143)" transform="translate(0,0)"></path>
<path d="M 237.362 627.727 C 216.231 634.838 190.217 633.217 175.241 614.35 C 153.207 586.592 138.03 553.113 119.071 523.225 C 118.291 521.996 119.003 521.467 119.572 520.239 C 125.357 517.678 137.322 519.849 143.7 520.791 C 178.66 525.954 226.852 539.191 236.568 578.539 C 239.04 588.55 242.449 608.896 239.781 618.752 L 239.086 617.727 C 238.23 620.006 238.172 620.973 236.611 622.696 L 235.144 620.743 L 233.932 621.343 C 225.131 615.001 180.838 570.373 176.315 561.234 L 176.961 560.493 C 186.615 565.256 224.007 605.398 235.135 616.17 C 235.015 594.373 232.537 569.504 215.885 553.58 C 194.613 533.24 152.631 525.637 124.599 524.347 C 144.485 553.283 160.256 590.45 183.589 615.683 C 188.329 620.81 198.334 624.718 205.319 626.045 C 215.216 628.026 225.464 627.298 234.982 623.937 L 237.362 627.727 z" fill="rgb(103,21,35)" transform="translate(0,0)"></path>
<path d="M 1756.36 311.254 C 1757.14 306.797 1756.36 307.167 1758.92 304.378 C 1761.87 305.236 1762.83 306.128 1764.65 308.826 C 1771.58 319.131 1777.13 330.402 1783.7 340.942 C 1797.73 363.425 1818.23 380.062 1808.72 409.575 C 1802.41 429.152 1793.01 447.842 1786.85 467.192 C 1790 481.111 1795.87 489.276 1801.72 501.924 L 1799.89 503.817 L 1797.22 503.678 C 1793.05 496.034 1781.91 469.163 1778.05 465.368 C 1774.01 461.567 1769.66 456.09 1766.46 451.576 C 1742.67 418.036 1742.26 399.472 1748.35 360.285 L 1756.36 311.254 z" fill="rgb(103,21,35)" transform="translate(0,0)"></path>
<path d="M 1780.2 461.466 C 1775.73 457.257 1769.11 447.438 1765.84 442.185 C 1746.08 410.48 1747.45 389.839 1754.15 354.195 C 1756.57 341.358 1758.27 326.778 1761.47 313.729 L 1761.95 314.67 C 1767.98 326.264 1775.78 338.221 1782.88 349.231 C 1795.86 369.368 1813.07 383.029 1803.82 409.54 C 1797.85 426.616 1791.11 443.21 1784.54 460.003 C 1779.21 435.422 1778.01 410.392 1777.75 385.327 C 1777.7 380.795 1777.79 376.252 1777.27 371.744 L 1775.39 370.542 C 1768.29 374.811 1777.37 450.991 1780.2 461.466 z" fill="rgb(253,218,143)" transform="translate(0,0)"></path>
<path d="M 1792.85 1597.22 C 1807.41 1585.33 1816.49 1578.21 1832.92 1569.52 C 1866.25 1551.9 1885.73 1563.89 1917.53 1574.13 C 1921.2 1576.35 1921.55 1575.73 1923.09 1578.91 C 1920.41 1583.04 1878.02 1609.44 1871.89 1612.41 C 1865.08 1615.78 1857.87 1618.29 1850.44 1619.88 C 1821.9 1625.87 1805.93 1615.13 1779.58 1617.78 C 1772.87 1618.46 1758.64 1625.28 1753.24 1621.79 C 1762 1615.44 1772.26 1614.25 1782.8 1612.1 C 1784.24 1603.62 1786.31 1602.63 1792.85 1597.22 z" fill="rgb(184,203,129)" transform="translate(0,0)"></path>
<path d="M 1917.53 1574.13 C 1921.2 1576.35 1921.55 1575.73 1923.09 1578.91 C 1920.41 1583.04 1878.02 1609.44 1871.89 1612.41 C 1865.08 1615.78 1857.87 1618.29 1850.44 1619.88 C 1821.9 1625.87 1805.93 1615.13 1779.58 1617.78 C 1772.87 1618.46 1758.64 1625.28 1753.24 1621.79 C 1762 1615.44 1772.26 1614.25 1782.8 1612.1 C 1784.24 1603.62 1786.31 1602.63 1792.85 1597.22 L 1795.73 1600.97 C 1813.97 1600.33 1837.54 1596.22 1854.94 1591.06 C 1860.95 1589.27 1869.64 1584.82 1873.6 1584.31 L 1873.76 1585.78 C 1864.29 1600.35 1808.35 1603.01 1791.19 1606.69 C 1788.92 1608.34 1789.11 1608.26 1787.97 1610.86 C 1790.87 1613.52 1818.34 1616.08 1823.52 1616.46 C 1851.72 1618.51 1872.59 1608.94 1895.15 1592.94 C 1900.5 1589.15 1908.25 1584.61 1913.14 1580.24 L 1913.16 1577.92 L 1913.73 1575.91 L 1917.53 1574.13 z" fill="rgb(103,21,35)" transform="translate(0,0)"></path>
<path d="M 1792.85 1597.22 C 1807.41 1585.33 1816.49 1578.21 1832.92 1569.52 C 1866.25 1551.9 1885.73 1563.89 1917.53 1574.13 L 1913.73 1575.91 L 1913.16 1577.92 L 1911.85 1577.6 C 1877.26 1568.97 1866 1555.02 1825.87 1578.64 C 1818.38 1583.06 1801.62 1594.65 1795.73 1600.97 L 1792.85 1597.22 z" fill="rgb(103,21,35)" transform="translate(0,0)"></path>
<path d="M 830.861 745.537 C 853.225 714.363 868.848 681.988 862.396 642.371 C 853.459 587.5 797.315 554.599 764.243 513.347 C 697.021 429.501 685.566 323.199 750.462 234.388 C 805.061 159.667 899.226 106.519 989.972 90.9975 C 1016.53 86.4554 1049.4 85.5393 1074.85 94.3239 C 1064.28 95.1603 1052.99 92.4368 1042.47 92.4152 C 942.077 92.2087 839.442 142.337 772.316 215.811 C 695.935 299.417 694.531 410.55 761.08 499.935 C 803.226 556.542 883.229 596.055 867.46 678.206 C 863.183 702.301 849.135 728.258 833.378 746.522 L 830.861 745.537 z" fill="rgb(103,21,35)" transform="translate(0,0)"></path>
<path d="M 795.631 85.2405 C 801.576 84.8834 804.335 84.4767 810.264 85.8333 L 809.828 86.6935 L 805.153 87.2282 C 797.118 88.244 788.837 89.36 781.012 91.6157 C 718.742 110.123 662.15 157.097 630.302 212.62 C 577.607 304.487 594.835 414.794 679.147 480.374 C 694.322 492.178 710.509 502.772 725.971 514.219 C 763.821 542.24 804.02 580.999 816.597 627.686 C 824.468 656.642 820.223 687.555 804.838 713.318 C 791.723 735.569 771.939 750.91 748.41 760.989 C 744.203 762.791 731.366 769.702 727.622 767.337 C 728.825 765.844 754.422 754.115 759.221 751.249 C 769.262 745.367 778.402 738.066 786.357 729.572 C 804.85 709.613 815.886 680.921 814.82 653.501 C 812.699 598.959 769.48 555.043 728.755 523.431 C 705.967 505.743 682.683 492.825 661.222 472.084 C 620.303 432.536 596.819 388.64 595.148 331.287 C 593.2 264.432 617.872 208.5 662.729 159.964 C 692.028 128.262 751.319 86.5606 795.631 85.2405 z" fill="rgb(103,21,35)" transform="translate(0,0)"></path>
<path d="M 795.631 85.2405 C 801.576 84.8834 804.335 84.4767 810.264 85.8333 L 809.828 86.6935 L 805.153 87.2282 C 799.463 86.9979 799.611 87.9095 795.631 85.2405 z" fill="rgb(104,15,23)" transform="translate(0,0)"></path>
<path d="M 1677.25 542.55 C 1707.21 535.654 1729.19 527.443 1760.46 522.089 C 1773.39 526.9 1791.79 540.196 1801.41 549.976 C 1801.6 552.57 1801.66 555.19 1802.23 557.695 C 1801.9 558.255 1801.49 559.027 1801 559.43 C 1784.09 573.399 1760.21 583.786 1738.18 577.385 C 1721.5 572.538 1706.62 565.608 1690.75 558.938 C 1683.79 556.014 1676.36 552.482 1670.11 548.452 C 1668.95 547.706 1669.35 547.271 1669.4 545.953 C 1671.65 543.52 1673.97 543.373 1677.25 542.55 z" fill="rgb(253,218,143)" transform="translate(0,0)"></path>
<path d="M 1802.23 557.695 C 1801.9 558.255 1801.49 559.027 1801 559.43 C 1784.09 573.399 1760.21 583.786 1738.18 577.385 C 1721.5 572.538 1706.62 565.608 1690.75 558.938 C 1683.79 556.014 1676.36 552.482 1670.11 548.452 C 1668.95 547.706 1669.35 547.271 1669.4 545.953 C 1671.65 543.52 1673.97 543.373 1677.25 542.55 L 1678.21 547.794 C 1698.78 557.263 1727.53 570.379 1749.82 574.537 C 1764.18 577.215 1785.58 565.622 1797.13 556.557 C 1787.91 556.126 1744.48 555.155 1740.28 551.097 L 1740.92 549.565 C 1751.15 547.933 1781.26 550.997 1794.52 550.966 L 1801.41 549.976 C 1801.6 552.57 1801.66 555.19 1802.23 557.695 z" fill="rgb(103,21,35)" transform="translate(0,0)"></path>
<path d="M 1677.25 542.55 C 1707.21 535.654 1729.19 527.443 1760.46 522.089 C 1773.39 526.9 1791.79 540.196 1801.41 549.976 L 1794.52 550.966 C 1759.61 519.082 1754.58 527.274 1711.04 538.697 C 1700.32 541.509 1688.94 544.811 1678.21 547.794 L 1677.25 542.55 z" fill="rgb(103,21,35)" transform="translate(0,0)"></path>
<path d="M 689.491 84.4371 C 690.996 84.4538 691.066 84.6861 692.573 85.2366 C 690.007 87.2938 663.087 93.2175 656.779 95.6614 C 519.504 148.849 410.496 342.862 523.971 469.158 C 570.873 521.359 646.049 520.098 694.244 572.879 C 712.617 592.847 722.034 619.456 720.31 646.537 C 718.772 674.892 708.162 695.434 687.246 714.303 C 686.604 714.808 685.811 715.044 685.008 715.383 C 685.795 712.406 692.817 703.252 695.309 700.11 C 709.49 682.221 718.083 654.221 714.74 630.812 C 703.38 536.581 592.918 537.123 536.071 488.773 C 438.884 406.115 460.919 265.54 537.781 177.519 C 576.771 132.868 629.286 90.0228 689.491 84.4371 z" fill="rgb(103,21,35)" transform="translate(0,0)"></path>
<path d="M 1305.18 155.465 C 1305.7 155.907 1306.39 156.93 1306.84 157.524 C 1306.72 161.109 1306.41 164.206 1305.01 167.598 C 1284.06 218.515 1205.7 234.175 1157.14 236.884 C 1123.62 238.754 1092.07 232.955 1057.87 237.124 C 1030.5 240.461 1016.11 243.698 990.917 255.867 C 954.94 273.244 924.591 297.83 911.432 336.665 C 902.696 362.446 903.583 396.494 915.897 420.946 C 919.985 429.062 924.869 434.997 928.435 442.222 L 927.212 442.775 C 920.267 435.054 914.429 426.405 909.864 417.077 C 884.811 365.693 909.131 303.115 953.596 271.812 C 992.232 241.986 1041.69 228.094 1090.64 230.481 C 1147.7 233.264 1202.91 234.589 1256.25 208.437 C 1282.87 195.386 1295.29 183.624 1305.18 155.465 z" fill="rgb(103,21,35)" transform="translate(0,0)"></path>
<path d="M 1136.18 165.169 L 1136.88 165.783 C 1135.72 169.628 1117.29 174.591 1113.24 175.388 C 1028.85 192.004 945.068 195.701 879.359 260.009 C 846.085 292.574 822.778 335.575 822.381 384.167 C 821.66 426.912 837.009 468.37 865.391 500.34 C 872.551 508.501 877.408 511.435 884.194 518.373 L 883.356 519.378 C 856.272 502.866 833.251 465.272 824.222 435.499 C 811.098 392.285 815.87 345.612 837.468 305.949 C 861.926 260.39 901.102 230.131 947.066 208.498 C 1007.86 179.886 1072.92 184.143 1136.18 165.169 z" fill="rgb(103,21,35)" transform="translate(0,0)"></path>
<path d="M 448.662 274.837 L 449.659 276.504 C 448.35 280.139 437.068 290.351 434.111 294.504 C 412.27 325.17 402.657 369.966 407.54 406.597 C 419.398 524.309 540.279 509.424 612.919 568.153 C 641.963 591.634 666.956 639.422 638.12 673.371 C 637.858 672.175 644.767 654.776 645.15 649.679 C 652.342 553.969 523.352 538.166 465.649 505.66 C 449.515 496.716 435.597 484.26 424.925 469.213 C 401.629 436.394 397.144 394.327 403.97 355.533 C 408.824 327.948 425.222 291.305 448.662 274.837 z" fill="rgb(103,21,35)" transform="translate(0,0)"></path>
<path d="M 815.474 763.332 C 819.956 757.315 825.778 751.165 830.861 745.537 L 833.378 746.522 C 828.303 752.955 821.834 758.256 815.474 763.332 z" fill="rgb(104,15,23)" transform="translate(0,0)"></path>
<metadata><recraft-signature>{"signed_by": "recraft", "signature_b64": "F4EcX6hPbM2QCxkbZ0jpakbP1ZBnSfIqIrwAIOpbL+kqokkGzXqhcYnDq25eRpK8zFretmz0E7E/5+TvTlYrDA==", "signing_algo": "Ed25519", "generation_timestamp": 1778091872, "identifier": "d0d296bb-3c04-4840-bcd2-a375b2640e2e"}</recraft-signature></metadata></svg>