<svg xmlns="http://www.w3.org/2000/svg" height="1024" preserveAspectRatio="none" style="display: block;" version="1.1" viewBox="0 0 2048 2048" width="1024">
<defs>
	<linearGradient gradientUnits="userSpaceOnUse" id="Gradient1" x1="969.269" x2="968.628" y1="960.228" y2="952.531">
		<stop class="stop0" offset="0" stop-color="rgb(7,0,0)" stop-opacity="1"></stop>
		<stop class="stop1" offset="1" stop-color="rgb(51,20,19)" stop-opacity="1"></stop>
	</linearGradient>
	<linearGradient gradientUnits="userSpaceOnUse" id="Gradient2" x1="1794.68" x2="1885.19" y1="983.055" y2="980.627">
		<stop class="stop0" offset="0" stop-color="rgb(49,7,9)" stop-opacity="1"></stop>
		<stop class="stop1" offset="1" stop-color="rgb(83,25,22)" stop-opacity="1"></stop>
	</linearGradient>
	<linearGradient gradientUnits="userSpaceOnUse" id="Gradient3" x1="601.353" x2="578.897" y1="1193.73" y2="1206.7">
		<stop class="stop0" offset="0" stop-color="rgb(0,4,1)" stop-opacity="1"></stop>
		<stop class="stop1" offset="1" stop-color="rgb(76,27,17)" stop-opacity="1"></stop>
	</linearGradient>
	<linearGradient gradientUnits="userSpaceOnUse" id="Gradient4" x1="1309.88" x2="1313.71" y1="1148.51" y2="1143.97">
		<stop class="stop0" offset="0" stop-color="rgb(30,16,11)" stop-opacity="1"></stop>
		<stop class="stop1" offset="1" stop-color="rgb(67,31,21)" stop-opacity="1"></stop>
	</linearGradient>
	<linearGradient gradientUnits="userSpaceOnUse" id="Gradient5" x1="1072.08" x2="1075.88" y1="1386.43" y2="1382.58">
		<stop class="stop0" offset="0" stop-color="rgb(37,16,10)" stop-opacity="1"></stop>
		<stop class="stop1" offset="1" stop-color="rgb(65,27,16)" stop-opacity="1"></stop>
	</linearGradient>
	<linearGradient gradientUnits="userSpaceOnUse" id="Gradient6" x1="1082.96" x2="1087.57" y1="1370.26" y2="1364.99">
		<stop class="stop0" offset="0" stop-color="rgb(26,12,7)" stop-opacity="1"></stop>
		<stop class="stop1" offset="1" stop-color="rgb(70,27,15)" stop-opacity="1"></stop>
	</linearGradient>
</defs>
<path d="M 0 0 L 2048 0 L 2048 2048 L 0 2048 L 0 0 z" fill="rgb(253,249,237)" transform="translate(0,0)"></path>
<path d="M 1359.86 571.205 C 1412.76 479.272 1483.55 494.061 1568.41 533.703 C 1602.34 549.554 1637.2 563.899 1662.25 593.317 C 1688.09 623.656 1678.7 668.699 1656.96 698.384 C 1676.95 713.281 1698.5 726.692 1717.76 741.783 C 1740.67 759.726 1763.25 780.698 1783.89 799.855 C 1891.74 899.948 1968.64 1067.07 1919.85 1213.56 C 1917.77 1219.78 1918.32 1225.04 1919.09 1231.57 C 1913.31 1242.11 1907.5 1254.43 1894.98 1257.41 C 1869.53 1263.48 1840.73 1257.54 1814.71 1256.19 C 1808.79 1255.88 1797.37 1254.47 1792.02 1255.54 C 1789.01 1263.5 1787.7 1272.85 1785.1 1281.2 C 1767.92 1335.41 1753.69 1390.51 1742.46 1446.26 C 1725.87 1530.55 1720.7 1610.99 1670.66 1682.49 C 1685.35 1682.97 1703.96 1682.42 1717.87 1683.54 C 1719.57 1683.65 1725.71 1683.96 1727.03 1684.26 L 1728.23 1685.99 L 1729.09 1685.95 L 1728.77 1684.82 L 1727.34 1684.64 L 1730.18 1685.67 C 1727.43 1688.56 1674.93 1688.5 1669.16 1686.85 C 1665.06 1688.56 1647.75 1710.91 1644.84 1715.29 C 1649.35 1717.02 1650.23 1716.21 1654.35 1716.85 C 1650.66 1717.03 1647.36 1717.24 1643.68 1717.58 C 1642.8 1719.38 1642.98 1718.59 1642.81 1719.86 C 1639.9 1719.54 1640 1719.55 1636.99 1722.28 C 1632.99 1725.92 1608.55 1746.87 1607.36 1749.94 L 1604.72 1752.07 L 1605.05 1753.29 L 1608.84 1754.44 C 1593.05 1755.25 1578.72 1770.71 1566.52 1780.03 L 1565.87 1782.28 C 1572.83 1783.51 1577.33 1782.08 1584.05 1783.16 C 1576.36 1783.68 1569.25 1783.74 1561.54 1783.82 C 1547.43 1792.48 1532.9 1803.59 1518.68 1812.88 L 1537.74 1812.23 C 1549.85 1811.25 1659.65 1810.27 1664.8 1812.76 L 1664.46 1813.93 C 1661.92 1815.11 1661.96 1815.37 1659.24 1815.14 C 1635.31 1817.33 1598.63 1815.2 1573.26 1815.78 C 1558.05 1816.13 1526.89 1817 1513.51 1815.89 C 1508.55 1818.54 1469.92 1838.15 1469.17 1840.08 L 1469.74 1840.89 L 1464.76 1842.14 C 1459.83 1843.5 1398.7 1871.41 1397.38 1873.25 C 1418.31 1872.76 1548.94 1869.87 1556.87 1874.16 C 1555.05 1877.36 1545.6 1876.26 1542.04 1876.14 C 1528.02 1877.28 1510.54 1876.88 1496.27 1876.88 L 1427.9 1876.85 C 1418.27 1876.84 1392.2 1875.73 1383.99 1877.87 C 1357.38 1884.81 1329.4 1895.55 1302.65 1902.41 C 1232.18 1921.19 1159.94 1932.57 1087.11 1936.37 C 1023.16 1940.34 959.005 1939.62 895.161 1934.2 C 875.239 1932.45 855.354 1930.29 835.521 1927.72 C 823.028 1926.06 807.442 1923.39 795.117 1922.48 C 781.398 1921.46 764.325 1921.72 750.41 1921.73 C 741.936 1921.86 712.235 1923.3 706.951 1920.03 L 707.943 1918.78 C 715.91 1916.21 748.84 1916.49 757.432 1917.87 C 759.564 1917.6 761.167 1917.25 763.271 1916.8 C 761.152 1915.51 724.366 1906.76 719.94 1906.02 C 699.005 1902.54 674.491 1891.03 654.227 1889.47 L 651.887 1887.09 C 649.364 1886.56 648.23 1886.56 646.121 1885.11 C 642.391 1882.58 615.828 1873.06 609.383 1870.61 C 598.39 1866.45 572.291 1853.45 562.47 1852.33 C 528.017 1848.41 489.294 1850.59 454.331 1850.02 C 445.925 1849.89 426.427 1851.19 419.926 1848.84 L 420.024 1847.66 C 427.405 1843.74 537.625 1846.38 555.293 1847.11 C 547.059 1842.68 503.336 1818.56 499.415 1819.12 L 497.086 1815.65 C 439.512 1783.55 399.657 1750.75 355.409 1702.74 C 351.217 1698.19 323.983 1688.89 316.423 1684.29 C 240.999 1638.43 116.307 1565.35 195.47 1463.74 C 215.292 1438.24 236.464 1414.81 261.535 1395.28 C 260.457 1377.28 254.002 1357.92 250.258 1340.09 C 234.493 1265.01 213.546 1199.94 243.782 1124.75 C 293.873 1000.2 416.548 924.141 533.613 872.631 C 535.601 871.765 537.475 870.506 539.35 869.371 L 542.623 867.346 L 549.127 864.811 C 569.817 856.346 594.311 849.431 615.449 841.524 C 621.969 839.085 644.158 833.361 648.029 830.649 C 651.517 830.506 651.58 830.639 654.992 829.35 C 728.581 808.226 804.203 794.972 880.589 789.81 C 860.592 771.259 824.97 750.253 823.338 720.554 C 821.823 692.978 838.316 682.723 862.84 678.25 C 874.375 662.457 892.755 648.279 909.081 637.526 C 968.756 598.224 1037.55 574.15 1107.74 562.723 C 1198.52 547.946 1271.11 553.931 1359.86 571.205 z" fill="rgb(89,40,27)" transform="translate(0,0)"></path>
<path d="M 1397.38 1873.25 C 1418.31 1872.76 1548.94 1869.87 1556.87 1874.16 C 1555.05 1877.36 1545.6 1876.26 1542.04 1876.14 C 1524.55 1873.43 1395.77 1877.82 1391.03 1875.11 C 1393.29 1874.63 1395.25 1874.2 1397.38 1873.25 z" fill="rgb(75,19,16)" transform="translate(0,0)"></path>
<path d="M 750.41 1921.73 C 741.936 1921.86 712.235 1923.3 706.951 1920.03 L 707.943 1918.78 C 715.91 1916.21 748.84 1916.49 757.432 1917.87 C 762.878 1918.42 766.16 1918.33 771.354 1920.03 C 765.557 1920.44 755.303 1920.28 750.41 1921.73 z" fill="rgb(75,19,16)" transform="translate(0,0)"></path>
<path d="M 1537.74 1812.23 C 1549.85 1811.25 1659.65 1810.27 1664.8 1812.76 L 1664.46 1813.93 C 1661.92 1815.11 1661.96 1815.37 1659.24 1815.14 C 1626.62 1811.89 1594.07 1813.27 1561.36 1813.11 C 1553.9 1813.08 1545 1813.53 1537.74 1812.23 z" fill="rgb(75,19,16)" transform="translate(0,0)"></path>
<path d="M 1717.87 1683.54 C 1719.57 1683.65 1725.71 1683.96 1727.03 1684.26 L 1728.23 1685.99 L 1729.09 1685.95 L 1728.77 1684.82 L 1727.34 1684.64 L 1730.18 1685.67 C 1727.43 1688.56 1674.93 1688.5 1669.16 1686.85 C 1670.06 1685.55 1709.65 1686.23 1717.87 1683.54 z" fill="rgb(75,19,16)" transform="translate(0,0)"></path>
<path d="M 1043.54 1121.61 C 1071.41 1096.75 1118.16 1067.36 1150.44 1048.31 C 1215.91 1009.37 1282.7 977.725 1358.77 966.628 C 1403.33 960.128 1409.21 965.574 1447.53 989.771 C 1507.04 1027.34 1558.65 1080.54 1593.39 1141.68 C 1632.41 1210.37 1635.24 1290.26 1612.16 1364.52 C 1605.88 1385.05 1595 1406.53 1589.37 1426.41 L 1588.89 1428.13 C 1576.91 1438.11 1553.97 1450.89 1539.97 1458.56 C 1483.34 1490.06 1423.56 1515.52 1361.6 1534.51 C 1184.24 1588.96 965.393 1598.42 782.374 1569.48 C 752.597 1564.78 716.141 1558.31 687.043 1550.9 C 621.89 1534.26 558.924 1509.99 499.45 1478.61 C 494.048 1468.77 488.74 1458.93 484.072 1449.16 C 431.94 1340.08 465.821 1210.66 543.658 1123.27 C 557.149 1108.13 567.758 1092.13 583.514 1078.25 C 671.634 1078.21 737.077 1092.46 820.594 1120.01 C 841.441 1126.89 868.376 1133.76 887.631 1143.7 C 889.214 1149.09 890.857 1154.45 892.56 1159.8 C 889.492 1164.42 886.521 1167.57 882.857 1171.66 C 876.278 1178.84 843.42 1217.39 837.564 1221.31 L 835.781 1220.67 C 816.617 1242.3 800.294 1266.16 786.305 1291.42 C 784.329 1294.99 780.847 1304.82 777.468 1306.11 C 776.678 1304.7 776.58 1303.85 776.556 1302.18 C 776.317 1285.46 823.512 1219.51 835.621 1206.24 C 835.851 1205.99 836.086 1205.75 836.319 1205.5 L 835.326 1203.77 C 845.868 1187 868.484 1168.11 880.392 1152.78 C 880.424 1150.35 880.697 1151.55 878.788 1149.32 C 870.155 1147.93 847.41 1175.36 841.467 1182.02 C 784.264 1245.85 743.361 1322.57 722.252 1405.64 C 718.72 1419.2 706.543 1455.32 727.321 1460.09 C 731.317 1461 737.853 1457.59 740.297 1454.45 C 753.844 1436.99 763.202 1415.97 776.269 1397.94 C 789.565 1379.64 801.617 1360.61 814.94 1342.61 C 843.94 1303.69 875.473 1266.73 909.335 1231.96 C 920.239 1220.97 956.193 1183.19 972.439 1185.26 C 984.99 1186.86 1007.77 1202.11 1018.93 1209.73 C 1132.38 1287.16 1234.04 1380.69 1336.33 1471.95 C 1341.28 1476.36 1347.39 1480.25 1353.99 1481.18 C 1360.97 1482.23 1368.08 1480.45 1373.75 1476.24 C 1390.51 1463.58 1378 1437.68 1372.05 1422.23 C 1324.21 1298.04 1221.06 1188.23 1097.3 1137.88 C 1082.62 1131.91 1059.23 1123.38 1043.54 1121.61 z" fill="rgb(243,204,115)" transform="translate(0,0)"></path>
<path d="M 1316.9 1507.21 C 1319.03 1508.29 1318.75 1508.37 1320.56 1510.12 L 1320.51 1512.24 C 1318.91 1514.15 1317.41 1515.18 1315.17 1516.32 C 1305.72 1521.14 1294.54 1523.98 1284.47 1527.27 C 1169.51 1564.85 979.406 1567.56 859.731 1547.05 C 840.025 1543.67 820.8 1540.75 801.755 1534.4 C 797.969 1533.19 797.932 1533.17 794.57 1531.04 L 795.013 1531.02 L 793.379 1528.4 C 795.602 1526.73 801.018 1527.19 803.535 1527.74 C 947.026 1559.34 1099.95 1558.57 1243.78 1529.39 C 1268.11 1524.45 1292.48 1514.2 1316.9 1507.21 z" fill="rgb(89,40,27)" transform="translate(0,0)"></path>
<path d="M 1317.1 1000.35 C 1319.63 1001.02 1322.1 1001.88 1324.5 1002.94 C 1337.69 1008.8 1351.11 1020.34 1362.88 1029.42 C 1449.9 1096.54 1519.27 1197.53 1533.25 1308.06 C 1533.49 1309.95 1531.69 1314.01 1530.89 1315.78 L 1528.08 1316.03 C 1524.31 1313.19 1523.84 1303.7 1522.99 1298.64 C 1516.69 1260.65 1503.69 1224 1485.65 1189.72 C 1454.83 1132.22 1413.01 1081.35 1362.56 1039.99 C 1348.31 1028.5 1332.28 1019.06 1318.08 1007.86 C 1316.22 1006.4 1316.82 1002.63 1317.1 1000.35 z" fill="rgb(89,40,27)" transform="translate(0,0)"></path>
<path d="M 523.372 1159.67 C 525.962 1162.88 518.446 1188.2 516.719 1194.21 C 482.491 1313.34 543.823 1423.35 646.568 1483.4 C 654.286 1487.91 696.33 1510.09 698.659 1512.84 C 698.223 1516.32 698.213 1515.38 695.736 1518.59 C 642.721 1492.37 594.54 1464.31 556.194 1417.78 C 502.308 1352.39 485.521 1265.68 513.236 1185.39 C 516.037 1177.27 518.382 1166.62 523.372 1159.67 z" fill="rgb(89,40,27)" transform="translate(0,0)"></path>
<path d="M 552.201 1208.76 C 541.346 1281.83 556.176 1341.76 606.502 1397.33 C 611.121 1402.43 631.641 1422.62 632.338 1427.74 L 630.982 1429.63 C 624.803 1429.33 607.024 1409.39 601.725 1403.78 C 563.13 1362.97 538.025 1303.94 541.209 1247 C 541.669 1239.53 542.378 1232.08 543.336 1224.66 C 544.02 1226.38 544.157 1226.49 545.116 1228.08 L 546.55 1228.13 C 550.308 1220.15 547.35 1214.31 552.201 1208.76 z" fill="rgb(89,40,27)" transform="translate(0,0)"></path>
<path d="M 1591.74 1273.66 C 1597.42 1279.07 1578.8 1304.05 1575.43 1308.9 C 1548.88 1347.13 1515.22 1378.64 1479.73 1408.43 C 1470.52 1416.16 1458.23 1427.38 1447.73 1432.84 L 1446.3 1429.44 C 1447.4 1424.17 1457.76 1417.26 1462.23 1413.68 C 1513.73 1372.47 1555.51 1329.14 1591.74 1273.66 z" fill="rgb(89,40,27)" transform="translate(0,0)"></path>
<path d="M 584.596 1220.51 C 588.482 1223.05 588.326 1222.85 589.971 1227.19 L 589.83 1229.18 C 586.174 1285.58 610.159 1334.4 647.047 1376.02 C 650.295 1379.69 653.635 1383.2 656.865 1386.89 L 656.021 1388.5 L 653.305 1389.35 C 644.014 1385.91 634.126 1372.12 628.006 1363.9 C 593.845 1317.99 577.197 1277.57 584.596 1220.51 z" fill="rgb(89,40,27)" transform="translate(0,0)"></path>
<path d="M 1596.41 1324.56 L 1598.1 1326.15 C 1600.42 1345.03 1512.2 1427.97 1493.62 1436.8 L 1492.15 1433.99 C 1492.35 1428.77 1503.83 1420.77 1508.63 1416.76 C 1541.55 1389.22 1570.74 1359.01 1596.41 1324.56 z" fill="rgb(89,40,27)" transform="translate(0,0)"></path>
<path d="M 543.336 1224.66 C 546.027 1211.22 558.407 1148.7 568.385 1144.5 L 569.496 1145.63 C 568.922 1151.61 562.264 1166.01 560.31 1173.51 C 557.322 1184.98 555.259 1197.68 552.201 1208.76 C 547.35 1214.31 550.308 1220.15 546.55 1228.13 L 545.116 1228.08 C 544.157 1226.49 544.02 1226.38 543.336 1224.66 z" fill="rgb(53,20,13)" transform="translate(0,0)"></path>
<path d="M 1057.23 1342.74 L 1057.77 1342.78 C 1071.99 1343.8 1107.03 1381.06 1112.35 1395.52 C 1109.27 1394.44 1097.47 1381.22 1094.62 1377.81 C 1086.31 1367.86 1063.14 1351.98 1057.23 1342.74 z" fill="url(#Gradient6)" transform="translate(0,0)"></path>
<path d="M 1300.1 1105.84 C 1314.05 1108.87 1347.08 1142.89 1351.14 1156.22 C 1347.33 1155.44 1333.84 1140.56 1331.16 1137.1 C 1324.23 1128.19 1304.21 1114.96 1300.1 1105.84 z" fill="rgb(53,20,13)" transform="translate(0,0)"></path>
<path d="M 652.343 1222.19 L 656.016 1223.88 C 657.105 1226.38 654.32 1232.74 653.058 1235.53 C 646.914 1249.1 648.326 1263.83 645.041 1277.41 C 631.825 1271.97 647.986 1231.21 652.343 1222.19 z" fill="rgb(89,40,27)" transform="translate(0,0)"></path>
<path d="M 1050.32 1360.98 C 1057.16 1361.28 1059.66 1364.86 1064.94 1369.26 C 1072.02 1375.15 1097.1 1401.27 1097.61 1410.25 C 1094.91 1409.66 1090.27 1405.21 1089.07 1403.08 C 1084.69 1395.29 1051.3 1365.52 1050.32 1360.98 z" fill="url(#Gradient5)" transform="translate(0,0)"></path>
<path d="M 1143.78 1483.43 C 1148.64 1483.28 1148.1 1482.47 1151.04 1484.77 L 1150.18 1486.39 C 1140.96 1490.14 1110.07 1492.62 1099.32 1493.16 C 1094.42 1493.08 1094.72 1493.85 1091.22 1491.64 L 1091.08 1489.88 C 1095.57 1486.59 1135.79 1484.19 1143.78 1483.43 z" fill="rgb(75,19,16)" transform="translate(0,0)"></path>
<path d="M 1144.43 1510.29 C 1134.59 1511.89 1091.84 1517.09 1084.72 1512.96 C 1089.3 1508.48 1135.62 1505.93 1144.91 1505.14 C 1144.69 1507.02 1144.48 1508.41 1144.43 1510.29 z" fill="rgb(75,19,16)" transform="translate(0,0)"></path>
<path d="M 1287.13 1123.71 C 1299.2 1126.09 1332.47 1157.6 1336.92 1170.47 C 1333.11 1170.81 1321.35 1157.91 1318.23 1154.26 C 1311.19 1146.02 1291.21 1132.5 1287.13 1123.71 z" fill="url(#Gradient4)" transform="translate(0,0)"></path>
<path d="M 756.914 1183.87 C 757.279 1184.15 758.455 1185.58 758.808 1185.98 C 757.359 1189.8 744.004 1196.21 739.324 1199.29 C 727.602 1207.01 719.677 1213.95 709.673 1223.7 C 707.617 1221.96 708.138 1223.07 707.756 1220.47 C 715.803 1207.68 742.557 1189.83 756.914 1183.87 z" fill="rgb(53,20,13)" transform="translate(0,0)"></path>
<path d="M 1486.41 1097.52 C 1495.9 1098.74 1520.04 1132.86 1524.77 1141.54 L 1521.03 1141.23 C 1517.05 1138.56 1508.44 1126.07 1504.9 1121.63 C 1499.26 1114.56 1489.26 1105.62 1486.41 1097.52 z" fill="rgb(53,20,13)" transform="translate(0,0)"></path>
<path d="M 749.596 1168.84 L 751.132 1169.09 L 751.086 1170.36 C 746.826 1175.16 727.864 1185.98 721.473 1190.51 C 713.674 1196.03 710.441 1198.6 703.089 1205.34 L 701.623 1205.83 C 704.315 1192.62 738.116 1175 749.596 1168.84 z" fill="rgb(53,20,13)" transform="translate(0,0)"></path>
<path d="M 918.49 1384.61 L 919.733 1385.62 C 919.846 1387.77 900.802 1421.22 897.982 1427.53 C 890.764 1418.74 911.27 1391.31 918.49 1384.61 z" fill="rgb(53,20,13)" transform="translate(0,0)"></path>
<path d="M 584.596 1220.51 C 585.455 1211.51 589.403 1187.63 593.257 1179.49 L 594.248 1179.25 C 595.976 1188.92 593.495 1195.42 591.873 1204.43 C 590.775 1210.53 590.141 1220.89 589.971 1227.19 C 588.326 1222.85 588.482 1223.05 584.596 1220.51 z" fill="url(#Gradient3)" transform="translate(0,0)"></path>
<path d="M 937.543 1386.71 L 938.451 1387.63 C 938.242 1389.54 938.528 1389.41 937.532 1390.78 C 929.247 1402.12 922.627 1413.19 915.816 1425.43 C 909.259 1416.17 929.952 1392.52 937.543 1386.71 z" fill="rgb(53,20,13)" transform="translate(0,0)"></path>
<path d="M 1433.7 1342.97 C 1434.52 1343.81 1434.13 1343.21 1434.23 1345.06 C 1428.47 1352.42 1415.94 1361.7 1407.43 1365.4 C 1406.45 1364.02 1406.78 1364.86 1406.77 1362.78 C 1410.67 1358.3 1427.55 1347.22 1433.7 1342.97 z" fill="rgb(53,20,13)" transform="translate(0,0)"></path>
<path d="M 1296.88 1193.65 C 1304.13 1195.88 1321.14 1210.77 1322.35 1218.73 C 1316.58 1214.64 1298.11 1200.28 1296.88 1193.65 z" fill="rgb(33,14,9)" transform="translate(0,0)"></path>
<path d="M 1423.66 1324.97 L 1424.5 1326.1 C 1422.04 1332.04 1407.41 1341.1 1401.49 1344.21 L 1400.02 1342.89 C 1401.48 1338.25 1418.34 1328.61 1423.66 1324.97 z" fill="rgb(33,14,9)" transform="translate(0,0)"></path>
<path d="M 1287.67 1203.59 C 1295.79 1204.79 1306.47 1216.55 1310.55 1223.47 C 1304.02 1222.24 1292.36 1208.88 1287.67 1203.59 z" fill="rgb(33,14,9)" transform="translate(0,0)"></path>
<path d="M 1144.91 1505.14 C 1149.37 1504.61 1152.73 1503.76 1156.92 1505.14 L 1157.37 1506.48 C 1153.53 1509.43 1149.47 1509.32 1144.43 1510.29 C 1144.48 1508.41 1144.69 1507.02 1144.91 1505.14 z" fill="rgb(33,14,9)" transform="translate(0,0)"></path>
<path d="M 257.439 1324.43 C 263.14 1332.77 266.496 1341.72 271.634 1350.12 C 279.822 1363.5 289.437 1376.72 298.804 1389.3 C 395.502 1507.99 552.032 1579.72 699.159 1611.18 C 731.229 1618.04 765.702 1625.32 797.973 1629.34 C 998.265 1654.24 1211.11 1641.48 1403.1 1576.94 C 1471.88 1553.82 1545.57 1521.76 1606.49 1482.26 C 1651.15 1453.3 1699.52 1412.98 1733.89 1372.33 C 1741.66 1363.16 1751.33 1347.66 1758.03 1337.15 C 1753.63 1356.98 1747.56 1376.57 1742.61 1396.33 C 1736.5 1420.7 1731.95 1444.64 1727.24 1469.29 C 1721.92 1497.9 1716.3 1526.45 1710.37 1554.94 C 1706.69 1572.36 1703.35 1589.71 1697.67 1607.09 C 1669.18 1694.2 1595.01 1748.51 1522.89 1798.34 C 1503.5 1811.73 1480.45 1821.22 1459.7 1832.23 C 1242.61 1937.36 983.356 1950.64 749.741 1901.75 C 684.538 1888.1 617.673 1866.06 558 1836.82 C 489.057 1803.04 428.944 1764.93 376.38 1708.93 C 412.29 1715.86 461.606 1710.35 495.084 1696.51 C 527.417 1683.15 543.156 1672.42 579.777 1670.53 C 578.363 1669.77 575.107 1669.9 573.249 1669.82 C 578.151 1663.46 600.04 1677.34 613.197 1674.6 C 614.794 1671.16 614.382 1670.08 612.912 1666.63 C 607.266 1666.03 582.761 1661.33 577.433 1660 C 589.959 1659.35 604.841 1667.51 614.762 1662.08 C 617.634 1660.5 618.253 1652.37 618.673 1648.79 C 619.46 1647.02 619.238 1643.61 619.285 1641.43 L 619.91 1641.74 L 618.615 1661.78 L 620.2 1663.04 L 626.071 1661.67 C 627.74 1656.88 627.672 1648.55 628.669 1642.52 L 628.855 1641.43 C 627.72 1617.1 610.913 1589.7 583.542 1593.1 C 563.975 1595.52 546.355 1603.75 528.573 1611.99 C 478.018 1636.44 432.645 1655.31 377.221 1630.33 C 357.178 1621.3 340.836 1610.18 322.509 1601.06 L 290.827 1486.53 C 289.059 1480.19 282.059 1461.51 283.874 1456.2 C 292.597 1457.92 301.557 1484.2 310.042 1476.18 C 328.409 1458.81 313.487 1415.22 300.052 1398.47 C 289.465 1385.28 285.206 1387.53 272.173 1390.98 C 267.14 1370.05 263.051 1344.59 257.439 1324.43 z" fill="rgb(230,106,93)" transform="translate(0,0)"></path>
<path d="M 618.673 1648.79 C 619.46 1647.02 619.238 1643.61 619.285 1641.43 L 619.91 1641.74 L 618.615 1661.78 L 620.2 1663.04 L 626.071 1661.67 C 627.74 1656.88 627.672 1648.55 628.669 1642.52 L 628.855 1641.43 C 630.228 1668.4 627.086 1682.42 595.491 1674.12 C 589.863 1672.64 585.711 1670.76 579.777 1670.53 C 578.363 1669.77 575.107 1669.9 573.249 1669.82 C 578.151 1663.46 600.04 1677.34 613.197 1674.6 C 614.794 1671.16 614.382 1670.08 612.912 1666.63 C 607.266 1666.03 582.761 1661.33 577.433 1660 C 589.959 1659.35 604.841 1667.51 614.762 1662.08 C 617.634 1660.5 618.253 1652.37 618.673 1648.79 z" fill="rgb(75,19,16)" transform="translate(0,0)"></path>
<path d="M 1658.43 1636.89 L 1659.23 1637.04 L 1659.48 1638.44 C 1649.75 1649.43 1616.85 1671.9 1604.24 1680.62 C 1507.95 1747.17 1412.6 1783.68 1300.24 1812.84 L 1298.96 1812.26 L 1298.36 1810.65 C 1302.04 1806.84 1315.77 1804.47 1321.46 1802.88 C 1354.92 1793.5 1388.21 1781.76 1420.74 1769.5 C 1476.78 1748.46 1530.58 1721.86 1581.32 1690.09 C 1607.1 1673.85 1633.49 1654.42 1658.43 1636.89 z" fill="rgb(75,19,16)" transform="translate(0,0)"></path>
<path d="M 1681.87 1523.68 C 1682.33 1523.98 1684.03 1525.55 1684.51 1525.98 L 1684.11 1527.93 C 1631.78 1586.07 1519.78 1647.1 1447.47 1676.17 C 1422.21 1686.32 1395.83 1694.45 1370.51 1704.07 L 1368.73 1703.48 L 1368.23 1701.97 C 1372.07 1697.4 1423.42 1679.94 1433.76 1675.83 C 1515.59 1643.32 1620.75 1587.72 1681.87 1523.68 z" fill="rgb(75,19,16)" transform="translate(0,0)"></path>
<path d="M 1664.51 1587.82 L 1665.67 1590 C 1663.94 1593.71 1634.99 1614.1 1629.8 1617.76 C 1545.63 1677.04 1433.54 1740.06 1331.29 1757.96 L 1330.37 1756.75 C 1331.05 1754.97 1331.03 1754.44 1333.2 1753.91 C 1354.04 1748.86 1373.45 1742.88 1393.65 1735.71 C 1466.11 1710.48 1535.15 1676.32 1599.16 1634.02 C 1620.83 1619.78 1642.99 1602.86 1664.51 1587.82 z" fill="rgb(75,19,16)" transform="translate(0,0)"></path>
<path d="M 1657.96 1508.19 C 1658.53 1508.93 1658.24 1508.39 1658.1 1510.01 C 1603.52 1554.03 1543.29 1592.1 1479.18 1620.88 C 1453.63 1632.35 1426.18 1640.55 1400.26 1651.19 C 1399.01 1650.08 1399.56 1650.84 1399.08 1648.61 C 1401.7 1645.22 1466.08 1621.18 1477.03 1616.16 C 1519.6 1596.66 1560.44 1574.13 1599.31 1548.09 C 1619.2 1534.76 1637.78 1520.06 1657.96 1508.19 z" fill="rgb(75,19,16)" transform="translate(0,0)"></path>
<path d="M 1196.7 564.448 C 1269.5 561.37 1364.49 578.216 1433.03 603.471 C 1608.45 668.107 1792.51 773.51 1879.52 946.302 C 1915.48 1017.73 1938.58 1127.89 1912.09 1204.28 C 1897.23 1184.62 1881.54 1164.99 1863.86 1147.8 C 1829.87 1114.76 1793.33 1083.7 1756.21 1054.19 C 1706.97 1013.77 1655.3 976.392 1601.5 942.273 C 1522.08 892.776 1435.5 849.172 1349.79 811.785 C 1201.07 746.922 1039.12 684.827 875.592 678.143 C 927.835 623.202 1027.35 585.838 1101.41 573.392 C 1132.74 568.127 1165.05 565.696 1196.7 564.448 z" fill="rgb(230,106,93)" transform="translate(0,0)"></path>
<path d="M 1789.19 842.847 C 1797.8 845.191 1807.03 857.475 1812.4 864.393 C 1841.15 902.103 1863.2 944.484 1877.57 989.676 C 1889.34 1026.2 1897.26 1085.26 1879.03 1120.91 C 1877.46 1122.31 1877.95 1121.88 1875.93 1122.73 C 1873.44 1119.75 1876.66 1113.16 1877.39 1109.41 C 1894.51 1022.41 1857.25 935.282 1806.47 866.301 C 1803.15 861.793 1789.55 846.796 1789.19 842.847 z" fill="url(#Gradient2)" transform="translate(0,0)"></path>
<path d="M 1271.81 733.153 C 1299.5 733.631 1578.4 866.839 1592.04 887.128 C 1578.54 883.86 1540.37 860.598 1525.25 853.095 C 1465.41 822.812 1404.86 793.952 1343.66 766.539 L 1297.83 746.645 C 1290.91 743.687 1275.27 738.923 1271.81 733.153 z" fill="rgb(75,19,16)" transform="translate(0,0)"></path>
<path d="M 1719.03 810.642 C 1723.96 812.123 1733 820.428 1736.76 824.166 C 1799.3 886.263 1866.27 992.096 1832.83 1083.07 C 1831.8 1083.68 1830.59 1084.13 1829.47 1084.62 C 1827.57 1081.96 1832.22 1056.24 1832.83 1049.94 C 1840.32 972.933 1801.2 907.063 1753.08 850.791 C 1745.38 841.791 1722.23 819.183 1719.03 810.642 z" fill="rgb(75,19,16)" transform="translate(0,0)"></path>
<path d="M 1152.69 589.407 C 1162.73 587.34 1193.37 588.876 1204.17 590.385 C 1195.71 592.971 1162.64 594.499 1150.52 595.9 C 1092.48 602.608 1029.68 616.114 977.568 643.395 C 971.647 646.703 952.863 659.179 947.699 658.51 C 947.49 656.747 947.07 656.433 948.399 655.306 C 1000.26 611.327 1089.8 596.054 1152.69 589.407 z" fill="rgb(75,19,16)" transform="translate(0,0)"></path>
<path d="M 1314.29 703.028 C 1314.65 703.006 1315 702.976 1315.35 702.963 C 1333.89 702.289 1483.9 776.032 1509.27 789.492 C 1525.83 798.28 1559.7 816.265 1572.67 828.148 C 1567.55 827.834 1548.99 817.405 1543.12 814.338 C 1523.82 804.146 1504.45 794.064 1485.04 784.093 C 1442.59 762.601 1398.29 744.02 1355.37 723.446 C 1345.86 718.891 1318.5 710.661 1314.29 703.028 z" fill="rgb(75,19,16)" transform="translate(0,0)"></path>
<path d="M 1361.53 677.177 C 1385.1 680.54 1552.23 761.015 1565.4 778.72 C 1558.34 777.128 1491.7 741.686 1482.06 736.777 C 1459.68 725.244 1437 714.274 1414.07 703.877 C 1397.88 696.695 1380.1 689.665 1364.39 681.484 C 1361.54 680.003 1362.11 679.861 1361.53 677.177 z" fill="rgb(75,19,16)" transform="translate(0,0)"></path>
<path d="M 1703.94 846.751 C 1717.39 848.6 1745.45 889.865 1752.71 902.214 C 1770.26 932.07 1784.75 967.302 1789.03 1001.78 C 1789.92 1009.02 1791.48 1018.26 1789.71 1025.39 C 1786.19 1022.8 1784.92 1010.03 1784.07 1005.37 C 1774.05 950.609 1748.62 898.365 1711.23 857.081 C 1708.61 854.188 1704.33 850.59 1703.94 846.751 z" fill="rgb(75,19,16)" transform="translate(0,0)"></path>
<path d="M 1170.73 622.447 C 1180.29 621.811 1186.8 622.303 1196.17 623.623 C 1187.29 625.784 1160.81 628.036 1150.03 629.436 C 1106.92 635.039 1072.8 640.814 1032.41 656.924 C 1026.73 659.358 1024.83 661.788 1019 661.539 L 1018.04 660.292 C 1037.8 633.599 1137.04 623.621 1170.73 622.447 z" fill="rgb(75,19,16)" transform="translate(0,0)"></path>
<path d="M 1415.44 663.064 C 1436.85 665.833 1532.93 707.242 1543.43 720.813 C 1535.92 718.64 1525.23 713.191 1517.88 709.796 C 1486.86 695.467 1455.39 682.307 1424.09 668.636 C 1420.65 667.134 1418.16 665.669 1415.44 663.064 z" fill="rgb(53,20,13)" transform="translate(0,0)"></path>
<path d="M 630.202 1036.7 C 798.32 919.768 1006.04 874.504 1207.57 910.884 C 1222.16 913.644 1245.48 919.523 1258.61 926.801 C 1260.64 932.255 1263.41 940.346 1265.8 945.397 C 1263.93 952.887 1262.38 951.954 1255.19 954.237 L 1254.54 957.902 C 1261.6 956.122 1267.71 955.132 1271.53 948.28 C 1277.89 936.885 1265.91 920.288 1256.05 915.119 C 1252.85 913.441 1247.56 911.619 1244.14 910.268 C 1294.79 922.799 1333.49 935.737 1381.79 956.028 C 1279.5 963.808 1198.5 1005.3 1113.52 1059.26 C 1094.49 1071.35 1048.93 1101.27 1034.59 1117.91 C 1033.94 1118.66 1033.3 1119.42 1032.68 1120.19 C 1033.17 1140.3 1040.66 1146.08 1059.83 1151.69 C 1106.78 1165.45 1141.2 1190.23 1181.75 1216.32 L 1183.41 1213.44 C 1151.06 1190.99 1119.45 1171.21 1083.19 1155.77 C 1069.56 1149.97 1045.84 1146.21 1036.97 1133.43 C 1036.4 1129.91 1036.13 1131.53 1037.77 1128.38 C 1040.89 1127.85 1046.02 1130.8 1049.45 1131.76 C 1198.17 1173.14 1321.85 1302.16 1370.64 1446.99 C 1372.49 1452.49 1373.37 1461.46 1370.21 1466.66 C 1368.6 1469.35 1365.91 1471.22 1362.83 1471.8 C 1355.42 1473.24 1349.95 1470.27 1344.24 1465.91 C 1334.34 1458.36 1325.17 1449.39 1315.89 1441.07 C 1296.55 1423.74 1277.48 1406.07 1257.91 1389 C 1215.25 1351.81 1172.89 1313.85 1128.73 1278.44 C 1102.19 1257.17 1074.37 1236.96 1046.75 1217.11 C 1029.95 1205.03 987.469 1171.62 967.051 1175.5 C 924.674 1183.54 819.05 1319.54 793.121 1356.54 C 779.038 1376.98 765.295 1397.64 751.897 1418.53 C 745.019 1429.48 739.682 1439.85 732.214 1450.51 C 729.438 1451.48 730.896 1451.26 727.68 1450.33 C 720.804 1442.65 729.038 1420.39 731.56 1410.45 C 747.54 1346.85 775.124 1286.74 812.925 1233.14 C 818.829 1224.78 828.332 1211.12 835.326 1203.77 L 836.319 1205.5 C 836.086 1205.75 835.851 1205.99 835.621 1206.24 C 823.512 1219.51 776.317 1285.46 776.556 1302.18 C 776.58 1303.85 776.678 1304.7 777.468 1306.11 C 780.847 1304.82 784.329 1294.99 786.305 1291.42 C 800.294 1266.16 816.617 1242.3 835.781 1220.67 L 837.564 1221.31 C 843.42 1217.39 876.278 1178.84 882.857 1171.66 L 884.903 1172.43 C 895.794 1163.53 902.976 1146.08 889.999 1135.66 C 875.939 1124.37 850.625 1119.04 833.253 1113.23 C 752.757 1086.29 675.572 1069.92 590.774 1071.06 C 594.491 1066.73 597.267 1063.04 602.755 1061.65 L 601.026 1060.57 L 604.4 1058.29 C 612.06 1043.13 673.046 1037.9 689.548 1035.79 C 730.375 1030.59 772.783 1027.28 813.479 1034.72 C 861.376 1043.48 904.34 1063.83 948.862 1082.32 C 949.266 1082.44 949.671 1082.56 950.076 1082.67 C 955.976 1079.76 966.818 1071.98 972.612 1068.16 C 987.432 1058.37 1002.01 1047.93 1017.08 1038.52 C 1073.25 1003.51 1134.44 977.31 1198.54 960.82 C 1209.64 958.024 1246.41 949.555 1254.05 944.819 C 1245.96 939.748 1224.62 945.923 1214.69 947.887 C 1115.48 967.497 1030.42 1014.58 948.982 1073.25 C 845.816 1022.17 781.348 1012.14 667.649 1029.89 C 655.301 1031.81 642.317 1034.87 630.202 1036.7 z" fill="rgb(246,222,172)" transform="translate(0,0)"></path>
<path d="M 630.202 1036.7 C 798.32 919.768 1006.04 874.504 1207.57 910.884 C 1222.16 913.644 1245.48 919.523 1258.61 926.801 C 1260.64 932.255 1263.41 940.346 1265.8 945.397 C 1260.86 954.134 1230.79 958.56 1219.59 962.24 C 1157.68 982.581 1081.87 1010.11 1026.9 1044.81 L 1027.12 1044.51 L 1024.95 1046.04 L 1024.65 1045.88 C 1024.51 1044.92 1024.37 1044.35 1024.48 1043.32 C 1026.69 1022.09 1148.93 976.867 1172.75 969.613 C 1186.79 965.338 1249 952.049 1255.44 945.932 L 1254.05 944.819 C 1245.96 939.748 1224.62 945.923 1214.69 947.887 C 1115.48 967.497 1030.42 1014.58 948.982 1073.25 C 845.816 1022.17 781.348 1012.14 667.649 1029.89 C 655.301 1031.81 642.317 1034.87 630.202 1036.7 z" fill="rgb(243,204,115)" transform="translate(0,0)"></path>
<path d="M 959.302 952.375 C 969.065 950.593 988.395 953.05 997.67 957.131 L 997.877 958.419 C 993.179 959.83 990.121 958.918 985.239 958.2 C 973.633 956.912 949.584 959.2 941.537 956.88 L 941.861 955.969 L 941.998 956.874 L 943.385 955.319 L 943.591 957.068 L 944.066 957.087 L 944.714 954.86 C 948.858 953.398 954.806 952.938 959.302 952.375 z" fill="url(#Gradient1)" transform="translate(0,0)"></path>
<path d="M 953.21 970.565 C 960.911 970.034 994.444 967.845 997.468 974.622 L 995.747 976.68 C 986.877 975.482 954.979 975.585 950.813 973.621 L 950.88 971.731 L 953.21 970.565 z" fill="rgb(53,20,13)" transform="translate(0,0)"></path>
<path d="M 1254.05 944.819 L 1255.44 945.932 C 1249 952.049 1186.79 965.338 1172.75 969.613 C 1148.93 976.867 1026.69 1022.09 1024.48 1043.32 C 1024.37 1044.35 1024.51 1044.92 1024.65 1045.88 L 1024.95 1046.04 L 1027.12 1044.51 L 1026.9 1044.81 C 1081.87 1010.11 1157.68 982.581 1219.59 962.24 C 1230.79 958.56 1260.86 954.134 1265.8 945.397 C 1263.93 952.887 1262.38 951.954 1255.19 954.237 C 1156.72 981.574 1064.57 1017.05 981.425 1076.59 C 972.171 1083.21 959.695 1091.88 949.449 1096.05 C 904.629 1073.86 855.346 1051.66 805.417 1044.53 C 777.034 1040.48 741.01 1041.37 712.416 1042.23 C 679.996 1043.21 635.361 1047.35 604.4 1058.29 C 612.06 1043.13 673.046 1037.9 689.548 1035.79 C 730.375 1030.59 772.783 1027.28 813.479 1034.72 C 861.376 1043.48 904.34 1063.83 948.862 1082.32 C 949.266 1082.44 949.671 1082.56 950.076 1082.67 C 955.976 1079.76 966.818 1071.98 972.612 1068.16 C 987.432 1058.37 1002.01 1047.93 1017.08 1038.52 C 1073.25 1003.51 1134.44 977.31 1198.54 960.82 C 1209.64 958.024 1246.41 949.555 1254.05 944.819 z" fill="rgb(246,222,172)" transform="translate(0,0)"></path>
<path d="M 1255.19 954.237 L 1254.54 957.902 C 1165.71 981.596 1077.86 1016.09 1000.66 1066.43 C 957.864 1094.34 965.423 1110.88 916.566 1084.74 C 824.785 1035.62 701.665 1034.14 602.755 1061.65 L 601.026 1060.57 L 604.4 1058.29 C 635.361 1047.35 679.996 1043.21 712.416 1042.23 C 741.01 1041.37 777.034 1040.48 805.417 1044.53 C 855.346 1051.66 904.629 1073.86 949.449 1096.05 C 959.695 1091.88 972.171 1083.21 981.425 1076.59 C 1064.57 1017.05 1156.72 981.574 1255.19 954.237 z" fill="rgb(33,14,9)" transform="translate(0,0)"></path>
<path d="M 882.857 1171.66 L 884.903 1172.43 C 829.471 1228.53 789.017 1285 759.129 1358.45 C 752.837 1374.05 747.016 1389.83 741.673 1405.78 C 739.646 1411.72 734.196 1429.41 731.554 1434.1 L 730.544 1433.4 C 757.254 1348.18 779.344 1291.71 837.564 1221.31 C 843.42 1217.39 876.278 1178.84 882.857 1171.66 z" fill="rgb(33,14,9)" transform="translate(0,0)"></path>
<path d="M 1272.55 1297.38 C 1299.71 1332.66 1351.53 1410.95 1365.74 1452.1 C 1355.79 1440.78 1349.61 1421.24 1341.42 1407.5 C 1319.3 1370.42 1295.8 1331.85 1268.83 1298.17 L 1272.55 1297.38 z" fill="rgb(33,14,9)" transform="translate(0,0)"></path>
<path d="M 1183.41 1213.44 C 1209.08 1232.53 1253.95 1271.48 1272.55 1297.38 L 1268.83 1298.17 C 1245.29 1267.72 1212.79 1238.96 1181.75 1216.32 L 1183.41 1213.44 z" fill="rgb(33,14,9)" transform="translate(0,0)"></path>
<path d="M 991.517 829.453 C 996.832 828.564 1009.79 836.633 1015.61 838.546 C 1060.97 853.431 1103.84 875.278 1148.18 892.194 C 1028.78 879.095 880.385 900.407 769.745 947.665 C 745.646 957.959 714.701 973.349 691.386 985.815 C 676.819 993.603 669.883 999.703 652.104 1008.07 C 622.463 1022.02 583.403 1041.74 556.423 1060.16 C 475.249 1115.58 397.51 1192.18 367.186 1288.06 C 366.192 1291.2 366.519 1292.78 367.83 1295.38 L 369.615 1295.14 C 372.508 1291.71 377.079 1277.28 379.265 1271.55 C 419.348 1166.44 538.915 1064.77 640.063 1020.4 C 635.299 1024.44 629.722 1027.9 624.492 1031.36 C 580.636 1056.02 548.879 1101.64 516.391 1138.5 C 511.828 1143.68 501.755 1150.66 496.087 1155.18 C 485.371 1163.56 475.372 1172.81 466.195 1182.85 C 425.08 1228.28 398.128 1272.12 382.77 1332.12 C 377.133 1354.14 373.942 1371.29 375.097 1394.24 C 180.178 1204.42 317.777 1025.28 515.147 930.225 C 671.475 854.936 819.769 835.198 991.517 829.453 z" fill="rgb(246,222,172)" transform="translate(0,0)"></path>
<path d="M 689.453 958.014 L 692.54 958.14 L 693.542 959.299 L 693.004 960.834 C 688.18 965.085 663.155 973.357 655.634 976.384 C 549.036 1019.28 440.706 1092.47 378.889 1191.2 C 359.782 1221.72 354.025 1243.6 340.603 1274.15 C 339.262 1273.92 338.169 1273.53 336.859 1273.13 L 336.189 1271.16 C 382.796 1120.8 543.797 1001.94 689.453 958.014 z" fill="rgb(89,40,27)" transform="translate(0,0)"></path>
<path d="M 592.035 962.058 C 594.881 962.062 593.676 961.557 595.876 963.062 C 593.447 968.111 580.367 971.864 574.72 974.148 C 565.621 977.852 556.697 981.973 547.976 986.496 C 471.75 1026.41 404.618 1080.75 359.705 1154.91 C 354.535 1163.44 352.09 1170.53 347.901 1178.9 L 347.132 1180.41 C 344.72 1180.07 344.851 1180.09 342.69 1178.95 C 341.779 1174.8 348.427 1163.63 350.942 1159.18 C 391.567 1087.33 458.205 1029.23 530.092 989.877 C 550.222 978.858 570.244 968.596 592.035 962.058 z" fill="rgb(89,40,27)" transform="translate(0,0)"></path>
<path d="M 974.378 794.453 C 1065.62 792.995 1174.52 795.93 1263.26 820.278 C 1273.03 822.96 1301.34 836.828 1311.04 841.44 C 1291.92 839.084 1271.71 840.3 1253.13 838.262 C 1239.77 836.796 1222.1 832.761 1208.15 830.541 C 1183.78 826.838 1159.3 823.931 1134.74 821.823 C 1000.36 810.086 838.231 821.333 706.049 851.379 C 562.337 884.046 391.602 958.956 307.292 1086.21 C 276.098 1133.29 260.071 1202.33 276.423 1258.73 C 324.864 1425.84 515.961 1512.58 669.131 1557.14 C 866.538 1608.59 1108.17 1608.96 1305.46 1560.45 C 1395.3 1538.71 1481.54 1504.13 1561.51 1457.78 C 1598.08 1436.82 1634.96 1412.76 1666.04 1384.16 C 1690.19 1362.25 1711.02 1336.94 1727.88 1309.03 C 1734.32 1297.9 1739.79 1286.23 1744.24 1274.16 C 1765.55 1214.63 1762.16 1149.05 1734.82 1092.04 C 1742.03 1097.78 1767.32 1116.88 1770.15 1124.09 C 1822.21 1256.38 1745.41 1367.59 1641.99 1444.54 C 1477.6 1566.85 1260.82 1618.6 1058.45 1628.68 C 889.091 1637.11 691.189 1615.76 534.763 1546.68 C 498.165 1530.5 463.025 1511.21 429.729 1489.02 C 404.319 1472.37 381.397 1457.17 359.057 1436.9 C 295.829 1379.53 241.712 1303.58 239.188 1215.07 C 237.315 1142.03 271.156 1077.19 320.677 1025.54 C 437.654 903.542 612.114 842.867 775.07 813.315 C 840.647 801.423 907.654 797.123 974.378 794.453 z" fill="rgb(246,222,172)" transform="translate(0,0)"></path>
<path d="M 866.588 688.377 C 868.022 688.185 869.493 687.992 870.942 688.025 C 981.33 690.503 1088.79 722.413 1191.72 759.111 C 1332.9 809.152 1468.5 873.727 1596.33 951.794 C 1615.73 963.879 1654.66 989.186 1671.8 1002.28 C 1714.26 1034.71 1909.3 1177.37 1908.66 1225.76 C 1908.59 1231.68 1906 1237.3 1901.55 1241.21 C 1897.74 1244.62 1890.48 1248.05 1885.59 1248.41 C 1856.93 1250.48 1822.44 1247.43 1793.6 1246.03 C 1794.38 1240.73 1794.96 1235.17 1795.6 1229.83 C 1813.73 1230.86 1861.89 1234.81 1879.42 1225.74 C 1888.55 1221.01 1873.83 1204.38 1869.43 1199.22 C 1835.56 1163.37 1797.32 1131.32 1759.93 1099.3 C 1732.66 1075.95 1705.69 1051.99 1676.44 1031.08 C 1563.68 950.495 1439.52 886.487 1312.78 830.988 C 1207.71 784.977 1099.21 743.761 986.272 721.736 C 966.687 717.917 871.23 701.61 857.041 712.082 C 854.561 713.912 853.154 716.585 852.925 719.655 C 852.681 722.933 855.751 726.453 857.71 728.799 C 863.68 735.949 871.292 742.188 878.094 748.545 C 892.294 761.817 906.738 774.868 920.394 788.704 L 894.662 789.31 C 881.028 777.846 867.682 765.774 854.139 754.199 C 845.192 745.986 835.277 736.039 833.439 723.455 C 829.528 696.682 844.787 691.011 866.588 688.377 z" fill="rgb(246,222,172)" transform="translate(0,0)"></path>
<path d="M 577.433 1660 C 546.132 1659.32 513.145 1677.42 484.446 1688.58 C 402.312 1719.62 339.413 1690.15 273.276 1644.64 C 207.466 1599.35 145.565 1545.13 207.693 1465.55 C 223.546 1445.24 257.78 1406.46 281.832 1396.66 C 294.877 1391.35 311.392 1445.96 307.003 1455.87 C 306.029 1458.14 307.601 1459.96 304.689 1462.63 C 303.051 1461.33 294.198 1448.47 291.184 1444.81 C 260.863 1452.97 220.589 1491.18 225.444 1524.36 C 231.372 1564.86 299.872 1597.93 331.669 1618.31 C 344.02 1626.23 358.002 1632.58 370.58 1639.29 C 392.056 1650.76 413.711 1655.13 437.871 1652.59 C 481.427 1650.69 514.744 1627.83 554.191 1612.49 C 571.742 1605.66 586.878 1595.47 604.621 1610.71 C 617.164 1621.39 617.537 1633.65 618.673 1648.79 C 618.253 1652.37 617.634 1660.5 614.762 1662.08 C 604.841 1667.51 589.959 1659.35 577.433 1660 z" fill="rgb(230,106,93)" transform="translate(0,0)"></path>
<path d="M 582.21 1619.05 C 596.545 1618.12 602.781 1624.4 606.453 1638.43 C 607.722 1643.28 609.301 1650.11 605.886 1654.43 C 603.561 1657.38 603.259 1659.09 599.662 1659.65 C 596.714 1651.62 601.407 1637.79 594.492 1630.41 C 585.936 1621.29 562.43 1634.73 553.475 1639.62 C 517.086 1659.48 485.292 1675.37 442.752 1676.59 C 433.303 1676.06 389.507 1670.9 389.599 1660.13 C 393.457 1656.67 399.716 1659.48 404.507 1661.14 C 444.227 1674.91 481.978 1663.78 518.7 1647.15 C 538.926 1638 561.439 1625.15 582.21 1619.05 z" fill="rgb(75,19,16)" transform="translate(0,0)"></path>
<path d="M 284.531 1417 C 287.273 1417.2 286.365 1416.89 288.59 1418.44 L 288.451 1420.25 C 285.141 1424.04 270.818 1430.33 265.566 1433.74 C 231.359 1455.94 190.266 1495.17 224.644 1537.62 L 223.624 1539.12 C 218.075 1536.09 212.656 1530.89 209.463 1525.51 C 186.054 1486.01 229.252 1446.13 260.225 1427.71 C 268.793 1422.62 275.24 1419.37 284.531 1417 z" fill="rgb(75,19,16)" transform="translate(0,0)"></path>
<path d="M 1457.9 546.378 C 1459.66 546.235 1461.43 546.135 1463.19 546.078 C 1504.64 544.809 1583.99 582.256 1615.99 609.975 C 1636.11 627.4 1641 657.55 1621.07 678.129 C 1612.16 672.87 1603.15 667.794 1594.04 662.902 C 1582.68 656.584 1569.63 651.18 1557.99 645.228 C 1507.2 619.274 1456.41 600.349 1402.08 583.357 C 1403.09 581.845 1404.14 580.364 1405.23 578.917 C 1420.78 558.102 1431.74 550.127 1457.9 546.378 z" fill="rgb(253,249,237)" transform="translate(0,0)"></path>
<path d="M 1456.58 512.432 C 1498.36 509.04 1559.85 540.21 1597.58 558.225 C 1621.88 569.829 1656.42 591.924 1664.45 618.929 C 1673.09 647.981 1662.45 669.437 1649.18 694.674 C 1642.69 691.107 1635.58 686.215 1629.3 682.105 C 1645.8 661.628 1648.2 638.065 1633.82 615.468 C 1607.06 577.216 1493.97 528.666 1445.66 538.422 C 1423.22 542.955 1404.82 561.833 1392.75 580.396 C 1386.12 578.144 1376.01 575.902 1369.01 574.127 C 1373.89 565.266 1382.34 554.989 1388.87 547.294 C 1408.29 524.416 1426.78 514.538 1456.58 512.432 z" fill="rgb(230,106,93)" transform="translate(0,0)"></path>
<path d="M 274.831 1463.97 C 275.725 1465.98 277.406 1474.95 277.962 1477.67 C 285.862 1516.31 297.505 1553.7 307.919 1591.73 C 299.058 1586.5 291.045 1581.26 282.475 1575.62 C 270.563 1567.05 251.675 1554.23 243.068 1543.13 C 219.628 1512.9 253.511 1480.2 274.831 1463.97 z" fill="rgb(253,249,237)" transform="translate(0,0)"></path>
<path d="M 743.477 155.855 C 795.752 125.141 860.687 111.129 921.124 110.57 C 994.696 109.889 1086.21 131.081 1140.18 184.122 C 1166.91 210.385 1187.42 244.575 1187.44 282.981 C 1187.46 318.989 1170.57 352.957 1144.03 376.84 C 1014.86 493.1 745.92 438.658 631.641 552.905 C 611.801 572.739 594.588 598.456 594.68 627.472 C 594.797 664.471 627.426 691.432 651.65 715.355 C 667.093 730.605 685.454 749.123 685.144 772.402 C 684.838 795.347 670.985 814.244 654.992 829.35 C 651.58 830.639 651.517 830.506 648.029 830.649 C 644.158 833.361 621.969 839.085 615.449 841.524 C 594.311 849.431 569.817 856.346 549.127 864.811 L 542.623 867.346 L 539.35 869.371 C 537.475 870.506 535.601 871.765 533.613 872.631 C 524.684 837.601 501.397 809.907 470.388 792.189 C 388.521 745.412 295.55 782.896 209.483 761.456 C 179.02 752.624 137.345 732.173 122.548 702.258 C 78.7721 613.755 157.763 548.402 225.582 511.671 C 218.508 480.833 218.885 448.753 226.682 418.09 C 248.204 334.627 329.605 249.218 402.726 206.745 C 508.001 145.596 625.265 125.168 743.477 155.855 z" fill="rgb(158,76,55)" transform="translate(0,0)"></path>
<path d="M 549.127 864.811 C 549.245 850.842 551.407 844.81 549.3 828.582 C 543.128 783.794 515.831 744.691 475.915 723.459 C 462.841 716.422 442.657 709.48 432.231 700.802 C 372.123 650.771 327.889 584.344 318.513 505.851 C 310.312 437.193 332.824 357.565 375.987 303.917 C 434.64 233.761 520.162 188.388 610.373 175.798 C 657.285 169.251 761.099 184.753 763.858 246.464 C 767.091 318.748 652.76 350.093 602.848 379.826 C 557.138 406.612 507.404 440.927 483.67 489.762 C 439.691 580.25 495.568 672.2 584.134 705.262 C 608.077 714.201 642.837 724.221 661.881 739.864 C 696.507 768.305 669.81 805.406 648.029 830.649 C 644.158 833.361 621.969 839.085 615.449 841.524 C 594.311 849.431 569.817 856.346 549.127 864.811 z" fill="rgb(253,249,237)" transform="translate(0,0)"></path>
<path d="M 240.906 556.568 C 269.286 608.898 297.565 636.707 346.757 668.646 C 416.371 713.844 513.767 718.771 538.516 812.112 C 542.323 826.469 549.296 853.03 542.623 867.346 L 539.35 869.371 C 530.025 844.729 522.107 822.629 501.705 804.653 C 483.063 788.228 461.661 777.648 438.104 770.035 C 427.29 766.541 413.472 765.521 403.298 761.278 C 394.815 756.42 382.978 753.364 373.484 749.385 C 314.512 724.673 204.138 715.324 202.839 632.233 C 202.378 602.747 221.311 576.051 240.906 556.568 z" fill="rgb(253,249,237)" transform="translate(0,0)"></path>
<path d="M 397.996 761.728 C 381.902 762.959 360.164 759.908 343.274 759.891 C 293.535 759.842 250.205 766.33 201.637 751.033 C 142.223 732.321 102.962 686.837 123.556 623.068 C 139.635 573.527 182.624 542.469 227.405 519.833 C 230.236 528.775 235.57 545.961 239.936 553.571 L 240.906 556.568 C 221.311 576.051 202.378 602.747 202.839 632.233 C 204.138 715.324 314.512 724.673 373.484 749.385 C 382.978 753.364 394.815 756.42 403.298 761.278 L 397.996 761.728 z" fill="rgb(253,249,237)" transform="translate(0,0)"></path>
<path d="M 239.936 553.571 L 240.906 556.568 C 221.311 576.051 202.378 602.747 202.839 632.233 C 204.138 715.324 314.512 724.673 373.484 749.385 C 382.978 753.364 394.815 756.42 403.298 761.278 L 397.996 761.728 C 379.997 754.627 361.755 748.16 343.302 742.338 C 319.314 734.614 296.101 727.271 272.511 718.353 C 189.817 687.094 174.815 615.213 239.936 553.571 z" fill="rgb(158,76,55)" transform="translate(0,0)"></path>
<path d="M 424.204 699.235 C 363.1 672.497 301.23 638.261 263.705 581.076 C 232.966 534.232 220.788 481.698 232.536 426.708 C 249.664 346.535 323.708 267.344 390.083 223.555 C 484.061 161.555 610.244 133.475 720.952 158.255 C 785.732 173.28 865.267 201.649 904.927 257.719 C 934.913 300.112 914.332 342.404 874.555 368.07 C 835.38 393.347 793.526 405.284 750.514 421.468 C 690.538 444.035 628.879 466.671 574.105 500.302 C 523.457 531.472 473.072 587.402 511.579 647.816 L 509.774 649.213 C 488.064 623.962 475.533 592.111 474.217 558.836 C 470.429 468.556 551.393 411.789 623.47 373.289 C 672.241 347.238 768.005 317.356 768.335 247.901 C 768.401 233.881 756.73 211.219 745.034 203.087 C 632.558 124.88 458.698 202.239 378.26 295.883 C 331.103 351.286 308.789 427.876 314.017 497.978 C 319.821 575.817 365.707 649.848 424.204 699.235 z" fill="rgb(253,249,237)" transform="translate(0,0)"></path>
<path d="M 850.552 126.421 C 901.543 124.822 984.003 160.552 1018.54 196.133 C 1069.52 248.653 1061.65 312.005 1010.2 360.576 C 908.212 456.845 764.385 458.898 636.21 493.392 C 590.273 505.701 542.438 514.257 545.195 573.274 C 546.917 639.106 609.827 684.398 653.22 725.679 L 653.141 726.6 L 649.62 725.346 C 631.982 715.337 611.007 709.955 592.18 702.392 C 562.287 690.385 525.761 665.623 510.755 636.151 C 502.201 619.351 501.963 600.883 507.982 583.204 C 541.294 485.358 762.473 432.965 850.969 389.686 C 879.363 375.8 911.952 355.56 922.515 323.871 C 929.091 304.141 926.955 281.739 917.469 263.315 C 888.702 207.445 811.239 176.046 754.233 158.012 C 779.047 144.482 821.883 128.353 850.552 126.421 z" fill="rgb(253,249,237)" transform="translate(0,0)"></path>
<path d="M 900.811 119.416 C 927.392 116.225 960.856 119.539 987.793 122.852 C 1072.55 133.277 1196.09 200.495 1178.65 301.8 C 1160.06 409.814 1007.62 435.581 918.541 451.819 C 829 468.142 725.553 475.87 648.018 528.761 C 617.615 549.57 593.478 580.394 586.999 616.833 C 586.555 637.71 588.216 646.448 597.303 665.313 C 586.687 655.529 577.305 644.483 569.368 632.423 C 547.357 598.953 535.36 538.547 579.225 516.986 C 604.984 504.325 637.428 497.19 665.487 490.731 C 769.098 466.877 879.668 456.538 970.825 396.865 C 1032.91 356.748 1088.1 285.777 1037.26 213.251 C 998.41 157.838 929.1 135.513 865.222 122.89 L 900.811 119.416 z" fill="rgb(253,249,237)" transform="translate(0,0)"></path>
<path d="M 511.579 647.816 C 514.145 650.777 517.425 653.804 518.563 657.258 C 514.902 655.268 512.637 652.307 509.774 649.213 L 511.579 647.816 z" fill="rgb(225,172,161)" transform="translate(0,0)"></path>
<path d="M 1469.74 1840.89 L 1559.87 1842.08 C 1572.75 1842.16 1627.66 1841.04 1636.14 1844.74 C 1634.04 1847.28 1593.58 1846.38 1588.44 1846.33 C 1564.8 1846.23 1541.17 1845.92 1517.54 1845.42 C 1509.29 1845.24 1470.17 1845.53 1464.76 1842.14 L 1469.74 1840.89 z" fill="rgb(75,19,16)" transform="translate(0,0)"></path>
<path d="M 1607.36 1749.94 C 1647.38 1747.24 1690.46 1751.04 1730.76 1749.92 C 1739.56 1749.67 1748.13 1750.83 1756.68 1752.89 C 1746.81 1754.26 1737.33 1753.83 1727.43 1753.98 C 1688.01 1754.59 1648.21 1753.23 1608.84 1754.44 L 1605.05 1753.29 L 1604.72 1752.07 L 1607.36 1749.94 z" fill="rgb(75,19,16)" transform="translate(0,0)"></path>
<path d="M 499.415 1819.12 C 490.754 1820.5 459.633 1818.79 449.001 1818.47 C 424.694 1817.92 400.383 1817.55 376.07 1817.35 C 370.882 1817.31 343.618 1817.76 340.317 1815.71 L 340.894 1813.93 C 351.692 1810.07 476.351 1816.39 497.086 1815.65 L 499.415 1819.12 z" fill="rgb(75,19,16)" transform="translate(0,0)"></path>
<path d="M 548.413 1917.24 C 562.72 1916.88 669.226 1915.54 673.384 1919.33 L 672.451 1921.85 C 642.686 1921.65 612.971 1919.8 583.067 1920.91 C 572.954 1921.29 557.866 1921.87 547.993 1920.98 L 546.994 1919.59 L 548.413 1917.24 z" fill="rgb(75,19,16)" transform="translate(0,0)"></path>
<path d="M 654.227 1889.47 C 628.068 1887.66 601.313 1887.12 575.154 1885.37 C 567.444 1884.86 541.048 1884.41 534.981 1882.4 C 537.76 1880.7 547.167 1879.58 550.658 1879.9 C 581.712 1882.77 615.376 1881.92 646.121 1885.11 C 648.23 1886.56 649.364 1886.56 651.887 1887.09 L 654.227 1889.47 z" fill="rgb(75,19,16)" transform="translate(0,0)"></path>
<path d="M 1657.1 1717 C 1666.4 1715.44 1753.45 1715.62 1757.53 1718.51 C 1747.71 1722.39 1686.52 1721.67 1673.28 1720.14 C 1663.49 1720.55 1652.69 1720.08 1642.81 1719.86 C 1642.98 1718.59 1642.8 1719.38 1643.68 1717.58 C 1647.36 1717.24 1650.66 1717.03 1654.35 1716.85 L 1657.1 1717 z" fill="rgb(75,19,16)" transform="translate(0,0)"></path>
<path d="M 1654.35 1716.85 L 1657.1 1717 C 1662.16 1720.19 1666.24 1717.27 1673.28 1720.14 C 1663.49 1720.55 1652.69 1720.08 1642.81 1719.86 C 1642.98 1718.59 1642.8 1719.38 1643.68 1717.58 C 1647.36 1717.24 1650.66 1717.03 1654.35 1716.85 z" fill="rgb(75,19,16)" transform="translate(0,0)"></path>
<path d="M 1368.22 1906.44 C 1380.95 1905.36 1399.03 1906.91 1412.48 1906.56 C 1427.66 1906.15 1444.29 1906.1 1459.57 1906.21 C 1462.38 1906.23 1462.21 1906.84 1463.51 1908.63 C 1441.08 1912.33 1395.4 1911.96 1371.51 1909.53 C 1369.24 1909.3 1369.67 1908.82 1368.22 1906.44 z" fill="rgb(75,19,16)" transform="translate(0,0)"></path>
<path d="M 1566.52 1780.03 C 1577.83 1779.31 1658.76 1778.43 1665.88 1781.42 C 1664.08 1783.96 1591.11 1783.72 1584.05 1783.16 C 1577.33 1782.08 1572.83 1783.51 1565.87 1782.28 L 1566.52 1780.03 z" fill="rgb(75,19,16)" transform="translate(0,0)"></path>
<path d="M 1804.74 1717.45 C 1810.1 1717.25 1816.3 1716.39 1820.85 1719.12 L 1820.27 1720.5 C 1815.2 1722.58 1810.2 1721.95 1804.6 1721.85 C 1798.55 1721.92 1793.04 1722.56 1787.48 1720.44 L 1787.94 1719.16 C 1793.34 1717.21 1798.91 1717.57 1804.74 1717.45 z" fill="rgb(75,19,16)" transform="translate(0,0)"></path>
<path d="M 478.992 1879.35 C 484.269 1878.51 504.68 1878.27 510.288 1879.8 C 511.672 1880.18 511.49 1880.91 512.072 1882.55 C 505.029 1884.6 490.609 1883.69 483.04 1882.8 C 480.21 1882.47 480.488 1881.71 478.992 1879.35 z" fill="rgb(75,19,16)" transform="translate(0,0)"></path>
<metadata><recraft-signature>{"signed_by": "recraft", "signature_b64": "WtyXPKM+18bWRRbjyE71HmMZIY0A0HhSb1sj4CmzoEoPF4lFOzSnFsYEh2Wgu4Pg9H83GP0/NDJaTv0gQRR0Dg==", "signing_algo": "Ed25519", "generation_timestamp": 1778091872, "identifier": "d3e894dd-5f96-48ae-9a77-05e18fbfc9f3"}</recraft-signature></metadata></svg>