<svg xmlns="http://www.w3.org/2000/svg" height="1024" preserveAspectRatio="none" style="display: block;" version="1.1" viewBox="0 0 2048 2048" width="1024">
<path d="M 0 0 L 2048 0 L 2048 2048 L 0 2048 L 0 0 z" fill="rgb(248,235,217)" transform="translate(0,0)"></path>
<path d="M 740.5 229.275 C 831.887 166.062 948.106 157.053 1054.52 177.803 C 1205.06 207.158 1334.68 298.328 1453.36 390.67 C 1464.34 399.211 1474.7 409.684 1485.63 417.997 C 1499.15 404.21 1512.7 395.827 1532.6 395.893 C 1570.06 396.017 1608.48 420.295 1634.31 445.601 C 1675.47 485.942 1702.51 544.233 1665.6 596.106 C 1785.02 712.718 1927.08 886.126 1970.03 1049.23 C 1979.27 1085.73 1984.05 1123.21 1984.26 1160.86 C 1984.81 1211.59 1975.6 1284.11 1947.8 1326.76 C 1965.8 1345.51 1952.11 1350.53 1937.34 1365.42 C 1926.22 1376.64 1913.38 1380.87 1897.9 1378.83 C 1801.85 1367.14 1684.5 1300.55 1605.28 1248.89 C 1599.54 1288.72 1595.67 1343.37 1591.87 1384.17 L 1575.86 1541.48 L 1568.88 1612.21 C 1567.92 1621.79 1566.74 1638.21 1565.17 1647.31 C 1565.27 1649.81 1564.98 1649.47 1565.85 1651.64 C 1563.15 1654.81 1562.17 1673.56 1561.68 1678.93 C 1572.01 1677 1677.57 1660.12 1680.81 1660.87 L 1681.5 1662.03 C 1672.26 1668.85 1580.73 1678.44 1560.4 1684.5 C 1559.78 1690.81 1559.28 1697.27 1558.18 1703.49 L 1557.11 1706.04 C 1558.82 1707.54 1557.89 1707.06 1559.81 1707.65 C 1555.86 1709.89 1549.79 1733.58 1549.38 1738.41 L 1547.27 1743.58 C 1538.92 1759.32 1534.56 1770.68 1523.3 1784.71 C 1555.02 1778.05 1591.15 1772.67 1623.41 1767.33 C 1685.01 1757.14 1746.69 1747.41 1808.43 1738.13 L 1874.54 1728.21 C 1882.31 1727.01 1898.95 1723.49 1905.75 1723.76 L 1907.53 1725.15 C 1907.36 1726.42 1907.49 1727.93 1906.51 1728.11 C 1885.52 1732.11 1846.54 1737.69 1826.83 1740.79 C 1723.88 1755.99 1621.14 1772.55 1518.63 1790.46 C 1499.43 1810.81 1491.01 1819.63 1467.31 1834.68 C 1492.55 1828.82 1521.35 1824.79 1547.21 1820.54 L 1680.08 1799.29 C 1724.65 1792.42 1769.27 1785.86 1813.93 1779.61 C 1822.17 1778.42 1867.78 1770.32 1872.1 1771.74 L 1872.67 1774.18 C 1872.22 1774.71 1871.77 1775.23 1871.32 1775.76 C 1847.58 1779.67 1815.6 1784.46 1792.38 1787.84 C 1715.27 1798.96 1638.28 1810.88 1561.42 1823.6 C 1538.44 1827.24 1515.51 1831.14 1492.62 1835.31 C 1486.76 1836.36 1465.58 1839.46 1460.95 1841.68 C 1436.7 1853.26 1411.07 1866.35 1386.72 1877.62 C 1411.85 1873.28 1634.53 1841.04 1645.06 1843.82 L 1645.83 1845.69 C 1642.29 1849.24 1617.26 1850.63 1610.78 1851.46 L 1542.44 1860.49 C 1488.79 1867.54 1435.16 1876.48 1381.5 1883.51 C 1349.57 1887.7 1323.08 1898.31 1292.12 1905.56 C 1243.3 1916.66 1193.91 1925.11 1144.18 1930.88 C 1057.18 1941.73 968.37 1944.66 880.841 1944.91 C 836.136 1945.03 789.495 1956.01 745.17 1960.7 C 731.615 1962.13 653.443 1974.67 647.187 1971.67 C 653.558 1965.47 813.636 1948.27 836.777 1943.06 C 812.432 1941.33 787.923 1940.91 763.189 1939.02 C 739.499 1937.21 711.048 1933.6 688.149 1935.65 L 683.76 1932.48 L 683.472 1931.67 C 677.655 1930.05 649.04 1926.45 641.535 1925.31 C 621.47 1922.26 596.958 1917.07 577.401 1915.4 C 572.25 1914.96 538.903 1919.77 531.726 1920.72 L 423.823 1935.7 C 412.774 1937.28 374.307 1943.98 365.238 1942.54 L 364.41 1941.28 C 369.433 1937.48 545.482 1913.82 565.359 1911.36 C 557.069 1908.35 488.257 1890.24 481.446 1890.38 C 457.712 1890.86 419.422 1898.22 393.401 1898.94 C 420.769 1890.61 447.99 1889.36 476.145 1885.39 C 460.604 1880.94 417.373 1860.53 409 1860.68 L 405.523 1856.42 C 398.947 1851.23 376.44 1838.32 368.053 1833.28 C 340.346 1837.2 312.665 1841.3 285.014 1845.59 C 276.506 1846.99 223.463 1857.59 219.115 1854.01 C 228.516 1846.54 342.362 1831.51 361.529 1828.07 C 348.171 1818.65 343.624 1814.65 332.924 1802.45 C 311.177 1806.81 158.102 1830.55 147.994 1828.93 C 158.875 1821.25 303.339 1802.16 328.11 1797.67 C 293.249 1758.41 285.255 1727.57 282.869 1675.97 C 279.02 1592.72 265.194 1507.52 262.446 1424.38 C 243.14 1413.66 226.867 1402.8 208.399 1391.17 L 145.467 1351.51 C 135.5 1345.12 88.8884 1319.28 86.7472 1308.45 C 84.4027 1297.48 82.1005 1258.56 87.7383 1249.71 C 104.645 1223.18 157.696 1203.78 184.614 1188.36 C 200.401 1179.32 224.285 1166.38 238.155 1161.21 C 237.908 1157.66 237.699 1154.12 237.528 1150.57 C 231.661 1014.2 471.021 954.504 573.606 931.559 C 601.882 925.235 634.448 921.915 662.823 915.678 C 666.993 914.761 677.895 902.307 681.478 898.415 L 682.231 898.811 C 683.713 896.745 683.599 896.206 684.423 893.626 C 683.528 890.877 683.538 891.084 684.423 888.328 L 685.396 890.921 L 686.55 890.181 C 689.895 883.967 692.218 872.658 692.59 865.767 C 694.661 822.955 643.615 799.206 607.77 793.823 C 524.321 781.291 431.081 807.245 354.156 763.438 C 331.044 750.275 316.132 732.231 315.427 704.858 C 314.4 665.005 339.677 642.697 367.605 618.964 C 393.931 594.827 421.785 560.014 423.728 522.95 C 425.103 496.73 415.674 470.596 397.893 450.952 C 379.773 431.027 354.086 419.673 327.153 419.686 C 317.943 419.741 306.172 421.752 297.432 420.806 C 253.556 416.056 225.44 382.658 231.43 338.43 C 236.45 301.358 256.221 272.974 284.604 250.415 L 283.566 254.175 C 256.878 279.08 237.485 306.742 235.264 344.736 C 232.778 383.733 259.751 412.457 298.744 413.313 C 309.352 413.545 319.999 411.94 330.668 412.015 C 389.649 412.426 431.906 460.845 432.621 518.491 C 433.124 559.102 408.295 591.451 381.014 619.087 C 353.739 645.026 324.718 661.768 324.401 703.496 C 322.803 739.745 354.772 759.825 386.088 770.038 C 453.743 792.103 525.304 779.064 595.494 786.111 C 636.171 790.196 696.587 809.825 698.836 860.528 C 699.793 882.092 688.508 899.282 674.333 914.744 C 676.208 914.633 683.59 914.177 685.021 913.595 C 698.275 908.211 714.679 894.905 724.004 884.503 C 734.266 873.055 740.533 858.827 739.931 843.655 C 739.149 823.975 723.272 805.411 709.03 793.017 C 677.977 765.992 636.593 749.379 596.152 743.447 C 580.94 741.216 559.698 739.81 544.362 740.057 C 500.642 740.762 409.702 746.652 406.111 683.649 C 405.268 668.859 408.61 654.227 416.24 641.359 L 418.484 641.609 C 379.99 720.707 454.053 739.537 516.639 736.139 C 579.755 732.713 642.204 739.239 695.913 775.234 C 727.11 796.143 760.758 829.763 741.949 870.077 C 735.773 883.313 728.791 889.145 721.315 900.024 C 822.337 857.693 843.998 746.775 732.066 701.543 C 709.059 692.246 692.345 690.471 667.999 687.658 C 619.435 682.046 538.808 697.342 501.081 660.788 C 488.881 649.057 481.974 632.87 481.948 615.945 C 482.215 567.308 543.081 536.305 574.963 507.923 C 614.674 472.571 622.85 407.827 572.077 378.618 C 558.862 371.016 545.192 371.551 530.496 371.361 L 530.029 370.092 C 538.66 362.261 571.759 371.615 581.774 374.828 C 601.43 382.978 615.145 393.348 623.415 413.585 C 632.795 436.54 631.07 458.83 621.29 481.288 C 614.123 497.747 604.488 511.712 592.739 525.291 C 575.08 548.91 526.718 584.468 540.143 616.408 C 544.175 625.999 552.44 632.566 561.808 636.081 C 592.634 647.65 632.221 644.218 664.938 645.155 C 730.439 647.031 808.169 656.267 838.005 724.136 C 851.422 754.657 847.802 790.868 835.843 820.94 C 821.66 855.921 794.151 883.828 759.377 898.512 C 752.93 901.227 746.267 903.638 739.752 906.261 C 768.765 904.822 798.461 902.432 827.318 901.399 C 900.691 898.489 974.17 899.674 1047.41 904.948 C 1077.38 907.17 1107.96 910.469 1137.84 914.023 C 1155.72 916.151 1174.29 920.046 1192.16 921.887 L 1191.18 920.781 C 1178.33 906.436 1148.79 882.02 1132.87 867.253 C 1101.46 837.887 1070.76 807.774 1040.8 776.941 C 919.187 653.718 801.468 517.477 721.906 362.702 C 709.36 338.296 694.019 302.891 694.151 275.489 C 694.243 256.584 714.812 228.079 730.595 218.726 C 733.931 222.21 737.233 225.726 740.5 229.275 z" fill="rgb(124,2,35)" transform="translate(0,0)"></path>
<path d="M 721.315 900.024 C 822.337 857.693 843.998 746.775 732.066 701.543 C 709.059 692.246 692.345 690.471 667.999 687.658 C 619.435 682.046 538.808 697.342 501.081 660.788 C 488.881 649.057 481.974 632.87 481.948 615.945 C 482.215 567.308 543.081 536.305 574.963 507.923 C 614.674 472.571 622.85 407.827 572.077 378.618 C 558.862 371.016 545.192 371.551 530.496 371.361 L 530.029 370.092 C 538.66 362.261 571.759 371.615 581.774 374.828 C 579.681 376.273 579.604 376.01 578.111 377.911 L 580.219 379.27 C 589.758 380.158 604.769 392.436 610.321 399.802 C 646.778 448.172 609.381 507.176 572.507 542.816 C 506.91 606.217 528.437 647.315 617.573 648.101 C 680.537 649.398 763.666 645.747 811.214 694.544 C 857.814 742.369 842.727 824.948 795.155 866.455 C 780.07 879.616 733.664 909.986 713.382 908.69 L 712.354 907.499 C 714.429 905.417 714.22 905.43 717.03 904.682 L 721.315 900.024 z" fill="rgb(248,235,217)" transform="translate(0,0)"></path>
<path d="M 721.315 900.024 C 822.337 857.693 843.998 746.775 732.066 701.543 C 709.059 692.246 692.345 690.471 667.999 687.658 C 619.435 682.046 538.808 697.342 501.081 660.788 C 488.881 649.057 481.974 632.87 481.948 615.945 C 482.215 567.308 543.081 536.305 574.963 507.923 C 614.674 472.571 622.85 407.827 572.077 378.618 C 558.862 371.016 545.192 371.551 530.496 371.361 L 530.029 370.092 C 538.66 362.261 571.759 371.615 581.774 374.828 C 579.681 376.273 579.604 376.01 578.111 377.911 L 580.219 379.27 C 597.323 392.124 608.009 406.759 611.125 428.28 C 614.602 452.291 607.406 474.846 592.924 494.037 C 585.415 503.988 576.356 512.899 566.748 520.815 C 535.225 546.785 479.906 576.429 487.086 625.002 C 489.291 639.918 498.579 655.023 511.029 663.543 C 573.002 705.953 689.972 651.829 774.507 720.04 C 791.673 733.892 805.085 753.021 809.585 774.849 C 814.869 800.481 808.422 825.563 794.078 847.133 C 778.664 870.311 757.664 884.254 733.712 897.232 C 729.589 899.466 724.64 903.365 720.141 904.452 C 718.603 904.824 718.397 904.74 717.03 904.682 L 721.315 900.024 z" fill="rgb(124,2,35)" transform="translate(0,0)"></path>
<path d="M 259.366 1201.18 C 335.992 1305.37 548.804 1356.33 671.32 1374.97 C 788.838 1391.68 907.749 1396.42 1026.22 1389.11 C 1067.91 1386.8 1114.86 1383.23 1156.31 1377.44 C 1214.44 1369.3 1271.99 1357.49 1328.62 1342.1 C 1400.8 1322.97 1518.71 1280.99 1569.94 1225.48 C 1573.97 1228 1578.55 1230.71 1582.42 1233.39 C 1580.69 1258.22 1576.31 1287.25 1573.74 1312.62 L 1555.21 1501.21 C 1548.28 1573.33 1543.3 1652.45 1530.11 1723.73 C 1525.66 1747.78 1498.14 1781.26 1480.16 1796.56 C 1439.74 1830.98 1387.39 1852 1336.95 1867.09 C 1160.21 1919.98 939.677 1928.13 756.597 1914.18 C 676.104 1908.5 596.334 1895.18 518.364 1874.39 C 449.712 1855.75 388.251 1831.07 339.893 1776.01 C 312.891 1745.26 309.013 1718.61 305.401 1680.08 C 303.28 1657.74 301.285 1635.39 299.415 1613.03 C 294.266 1554.41 287.809 1497.21 283.914 1438.37 C 313.502 1448.39 322.334 1443.51 351.618 1443.02 C 354.181 1456.84 355.303 1470.68 357.344 1484.53 L 359.714 1480.58 C 359.805 1474.73 356.473 1448.6 355.204 1443 L 471.224 1439.76 C 493.355 1439.32 515.607 1439.08 537.737 1438.51 C 539.718 1438.46 543.57 1438.24 544.693 1436.61 C 550.771 1430.11 550.54 1410.77 549.983 1402.1 C 540.912 1389.88 516.168 1379.91 502.141 1373.06 L 444.006 1344.77 L 401.214 1324.1 C 393.803 1320.54 381.255 1314.12 373.791 1312 C 373.415 1312.1 373.038 1312.2 372.663 1312.31 C 356.102 1317.02 289.263 1353.41 278.494 1348.26 C 276.555 1347.34 276.141 1345.85 275.619 1343.85 C 270.594 1324.58 269.102 1291.96 267.097 1271.1 C 264.854 1247.75 261.436 1224.52 259.366 1201.18 z" fill="rgb(200,16,46)" transform="translate(0,0)"></path>
<path d="M 357.344 1484.53 L 359.714 1480.58 C 363.929 1512.14 395.065 1757.82 392.094 1764.35 C 389.798 1758.99 384.827 1706.13 383.814 1697.39 L 369.836 1584.78 C 366.404 1554.99 362.492 1512.87 357.344 1484.53 z" fill="rgb(73,2,29)" transform="translate(0,0)"></path>
<path d="M 1500.25 1344.71 L 1501.08 1345.44 C 1504.26 1353.84 1474.64 1694.2 1470.74 1723.43 L 1469.81 1722.61 C 1468.32 1718.31 1487.92 1505.72 1489.38 1487.85 L 1500.25 1344.71 z" fill="rgb(73,2,29)" transform="translate(0,0)"></path>
<path d="M 1535.14 1342.57 C 1537.6 1348.24 1528.82 1431.56 1527.72 1444 C 1523.58 1495.64 1519.09 1547.24 1514.26 1598.82 L 1508.23 1663.96 C 1507.37 1673.15 1505.7 1695.08 1503.3 1702.92 C 1501.83 1698.49 1509.04 1629.18 1509.84 1620.44 L 1526.91 1427.11 L 1531.87 1372.06 C 1532.59 1364.19 1533.46 1349.86 1535.14 1342.57 z" fill="rgb(73,2,29)" transform="translate(0,0)"></path>
<path d="M 320.21 1487.7 C 322.822 1495.92 325.717 1517.92 327.136 1527.68 C 331.091 1555 334.785 1582.36 338.22 1609.75 C 343.051 1647.34 353.456 1710.41 354.798 1747.28 C 351.498 1744.73 347.568 1703.02 346.839 1697.04 L 328.039 1553.33 C 326.454 1541.69 319.281 1496.55 320.21 1487.7 z" fill="rgb(73,2,29)" transform="translate(0,0)"></path>
<path d="M 745.739 260.405 C 777.315 217.55 858.116 197.318 909.797 191.622 C 932.87 189.204 956.093 188.528 979.268 189.599 C 1132.82 195.32 1277.57 276.246 1396.65 369.397 C 1419.14 386.986 1456.66 411.065 1475.27 431.122 C 1471.84 437.765 1466.69 443.969 1461.97 449.745 C 1455.7 453.229 1454.45 452.759 1448.08 449.519 C 1432.09 449.426 1395.37 426.184 1375.77 421.418 C 1371.88 422.907 1368.59 424.833 1364.93 426.809 L 1358.52 422.479 L 1356.63 423.454 C 1358.18 424.51 1363.28 427.27 1362.75 429.348 C 1355.87 456.44 1385.49 469.491 1405.9 478.626 C 1423.69 486.583 1446.83 496.622 1466.89 497.06 C 1477.96 497.396 1483.03 491.131 1491.63 487.096 L 1498.59 480.051 C 1500.31 474.671 1505.86 467.248 1508.89 461.625 C 1532.21 479.337 1561.35 509.181 1582.9 529.431 C 1594.85 540.658 1617.06 561.116 1627 572.556 C 1619.53 577.505 1615.65 580.098 1607.81 584.036 C 1605.28 585.528 1602.75 587.073 1600.18 588.47 C 1589.5 593.939 1567.66 605.69 1564.66 619.322 C 1558.63 646.777 1569.61 669.81 1581.58 695.23 C 1591.02 715.28 1626.3 746.001 1639.27 710.745 C 1646.37 691.476 1606.1 663.624 1609.43 643.07 C 1609.93 632.382 1622.87 625.518 1631.3 621.038 L 1639.27 615.827 C 1644.8 612.359 1649.76 608.863 1655.09 605.111 C 1667.85 617.377 1679.4 631.808 1691.86 643.977 C 1745.7 696.539 1790.68 755.385 1832.41 817.812 C 1843.89 834.98 1858.09 852.253 1868.51 869.819 C 1891.21 908.055 1912.5 948.556 1929.24 989.68 C 1961.23 1068.85 1969.78 1155.55 1953.86 1239.45 C 1947.31 1272.29 1937.77 1300.09 1924.84 1330.79 C 1894.1 1332.77 1853.53 1320.19 1824.57 1308.77 C 1708.11 1262.82 1594.92 1188.25 1495.78 1112.22 C 1348.37 998.724 1209.27 874.818 1079.54 741.455 C 968.801 628.29 857.152 505.43 779.442 365.945 C 759.609 330.346 751.029 300.479 745.739 260.405 z" fill="rgb(200,16,46)" transform="translate(0,0)"></path>
<path d="M 1631.3 621.038 C 1646.55 639.042 1664.2 655.565 1680.28 672.868 C 1705.45 699.939 1730.02 728.17 1753.93 756.363 C 1801.23 812.146 1903.63 956.059 1912.78 1026.47 C 1913.91 1035.18 1913.63 1044.87 1907.77 1051.97 C 1903.42 1057.24 1896.97 1059.66 1890.27 1060.05 C 1865.6 1061.51 1835.77 1048.38 1814.28 1037.41 C 1798.15 1029.18 1782.72 1019.39 1767.34 1009.85 C 1711.27 975.075 1658.72 935.001 1606.91 894.238 C 1547.94 848.203 1490.15 800.672 1433.6 751.692 C 1409.98 730.993 1387.32 709.339 1364.38 687.9 C 1262.91 593.059 1163.21 490.206 1091.3 370.592 C 1075.17 343.765 1053.84 306.375 1051.97 274.839 C 1051.38 264.829 1051.84 253.144 1059.08 245.421 C 1065.73 238.331 1076.17 236.315 1085.49 236.036 C 1169.22 233.535 1385.66 390.785 1448.08 449.519 C 1432.09 449.426 1395.37 426.184 1375.77 421.418 C 1371.88 422.907 1368.59 424.833 1364.93 426.809 L 1358.52 422.479 L 1356.63 423.454 C 1358.18 424.51 1363.28 427.27 1362.75 429.348 C 1355.87 456.44 1385.49 469.491 1405.9 478.626 C 1423.69 486.583 1446.83 496.622 1466.89 497.06 C 1477.96 497.396 1483.03 491.131 1491.63 487.096 L 1498.59 480.051 C 1500.31 474.671 1505.86 467.248 1508.89 461.625 C 1532.21 479.337 1561.35 509.181 1582.9 529.431 C 1594.85 540.658 1617.06 561.116 1627 572.556 C 1619.53 577.505 1615.65 580.098 1607.81 584.036 C 1605.28 585.528 1602.75 587.073 1600.18 588.47 C 1589.5 593.939 1567.66 605.69 1564.66 619.322 C 1558.63 646.777 1569.61 669.81 1581.58 695.23 C 1591.02 715.28 1626.3 746.001 1639.27 710.745 C 1646.37 691.476 1606.1 663.624 1609.43 643.07 C 1609.93 632.382 1622.87 625.518 1631.3 621.038 z" fill="rgb(200,16,46)" transform="translate(0,0)"></path>
<path d="M 1508.89 461.625 C 1532.21 479.337 1561.35 509.181 1582.9 529.431 C 1594.85 540.658 1617.06 561.116 1627 572.556 C 1619.53 577.505 1615.65 580.098 1607.81 584.036 C 1605.28 585.528 1602.75 587.073 1600.18 588.47 C 1572.19 559.183 1523.4 511.061 1491.63 487.096 L 1498.59 480.051 C 1500.31 474.671 1505.86 467.248 1508.89 461.625 z" fill="rgb(200,16,46)" transform="translate(0,0)"></path>
<path d="M 1498.59 480.051 C 1532.5 509.992 1577.94 550.405 1607.81 584.036 C 1605.28 585.528 1602.75 587.073 1600.18 588.47 C 1572.19 559.183 1523.4 511.061 1491.63 487.096 L 1498.59 480.051 z" fill="rgb(248,235,217)" transform="translate(0,0)"></path>
<path d="M 1356.63 423.454 C 1296.79 378.352 1235.62 331.242 1163.3 307.459 C 1147.01 302.1 1122.79 299.023 1106.82 306.637 C 1100.35 309.725 1097.6 313.369 1092.52 316.021 L 1092.12 315.022 C 1099.29 305.89 1110.45 300.101 1121.85 298.681 C 1185.02 290.811 1310.6 384.689 1358.52 422.479 L 1356.63 423.454 z" fill="rgb(73,2,29)" transform="translate(0,0)"></path>
<path d="M 1657.95 688.992 C 1660.67 691.038 1674.89 707.191 1677.98 710.564 C 1712.15 747.915 1744.37 787.004 1774.51 827.675 C 1804.12 867.358 1887.41 990.584 1880.46 1038.65 L 1879.89 1039.18 C 1879.7 1039.01 1877.36 1016.61 1875.56 1011.82 C 1842.32 923.307 1784.08 845.82 1725.89 772.288 C 1712.15 754.92 1665.43 704.613 1657.95 688.992 z" fill="rgb(73,2,29)" transform="translate(0,0)"></path>
<path d="M 1639.27 615.827 C 1664.67 642.796 1689.78 670.036 1714.6 697.543 C 1732.96 718.288 1750.84 739.795 1768.34 761.273 C 1778.26 773.445 1790.43 786.282 1799.79 798.62 C 1832.4 842.044 1861.88 887.731 1888.02 935.335 C 1902.94 963.07 1929.47 1015.94 1920.04 1047.03 C 1906.7 1090.97 1831.79 1056.79 1805.31 1042.88 C 1757.05 1017.52 1710.64 985.094 1666.78 952.383 C 1625.23 921.778 1584.62 889.931 1544.99 856.884 C 1458.62 786.033 1373.24 713.206 1294.69 633.672 C 1214.03 551.996 1102.13 429.785 1057.52 324.078 C 1050.26 306.862 1043.05 289.275 1043.3 270.29 C 1043.45 258.429 1045.72 246.275 1054.85 237.887 C 1064.3 229.202 1077.42 226.384 1089.92 226.802 C 1173.89 229.614 1348.43 355.737 1414.3 408.658 C 1430.48 421.658 1447.7 434.603 1461.97 449.745 C 1455.7 453.229 1454.45 452.759 1448.08 449.519 C 1385.66 390.785 1169.22 233.535 1085.49 236.036 C 1076.17 236.315 1065.73 238.331 1059.08 245.421 C 1051.84 253.144 1051.38 264.829 1051.97 274.839 C 1053.84 306.375 1075.17 343.765 1091.3 370.592 C 1163.21 490.206 1262.91 593.059 1364.38 687.9 C 1387.32 709.339 1409.98 730.993 1433.6 751.692 C 1490.15 800.672 1547.94 848.203 1606.91 894.238 C 1658.72 935.001 1711.27 975.075 1767.34 1009.85 C 1782.72 1019.39 1798.15 1029.18 1814.28 1037.41 C 1835.77 1048.38 1865.6 1061.51 1890.27 1060.05 C 1896.97 1059.66 1903.42 1057.24 1907.77 1051.97 C 1913.63 1044.87 1913.91 1035.18 1912.78 1026.47 C 1903.63 956.059 1801.23 812.146 1753.93 756.363 C 1730.02 728.17 1705.45 699.939 1680.28 672.868 C 1664.2 655.565 1646.55 639.042 1631.3 621.038 L 1639.27 615.827 z" fill="rgb(248,235,217)" transform="translate(0,0)"></path>
<path d="M 982.677 302.678 C 986 305.659 1008.2 353.039 1012.96 361.57 C 1095.81 510.089 1221.8 643.662 1347.91 756.257 C 1339.65 753.739 1295.29 712.322 1286.23 703.731 C 1183.79 606.561 1086.78 499.085 1017.76 375.176 C 1004.45 351.266 992.23 328.353 982.677 302.678 z" fill="rgb(73,2,29)" transform="translate(0,0)"></path>
<path d="M 902.947 323.785 C 905.122 325.465 933.287 383.837 938.118 392.01 C 966.495 440.858 998.401 487.569 1033.58 531.769 C 1079.63 589.964 1129.74 644.829 1183.53 695.954 C 1212.32 723.192 1249.75 753.144 1276.11 781.354 C 1268.93 779.251 1215.51 730.953 1207.64 723.515 C 1090.97 613.235 963.502 474.404 902.947 323.785 z" fill="rgb(73,2,29)" transform="translate(0,0)"></path>
<path d="M 1633.44 996.829 C 1638.13 997.886 1703.26 1040.47 1712.28 1045.79 C 1733.52 1058.32 1755.31 1069.88 1777.58 1080.43 C 1810.93 1096.14 1858.24 1113.38 1895.73 1110.91 C 1898.56 1110.73 1907.76 1107.35 1910.92 1106.21 L 1912.44 1107.33 C 1907.26 1111.49 1899.72 1113.76 1893.07 1114.04 C 1824.2 1116.94 1745.31 1070.1 1688.28 1034.94 C 1670.8 1024.16 1648.2 1009.37 1633.44 996.829 z" fill="rgb(73,2,29)" transform="translate(0,0)"></path>
<path d="M 860.732 383.766 C 863.393 385.918 866.665 393.132 868.472 396.525 C 902.878 461.135 947.32 519.567 993.587 576.041 C 1006.38 591.661 1020.33 606.386 1032.96 622.317 C 1028.43 620.121 1013.57 602.546 1009.02 597.425 C 963.8 547.106 923.306 492.732 888.05 434.992 C 879.263 420.506 866.686 399.599 860.732 383.766 z" fill="rgb(73,2,29)" transform="translate(0,0)"></path>
<path d="M 931.773 213.411 C 948.752 211.51 1029.25 213.359 1037.36 225.514 L 1035.74 224.964 C 1007.23 215.015 954.288 214.93 923.918 218.404 C 902.809 220.362 880.124 225.105 860.02 232.374 C 852.928 234.938 839.522 243.679 833.258 245.142 L 833.581 244.15 C 859.782 224.101 899.571 216.367 931.773 213.411 z" fill="rgb(73,2,29)" transform="translate(0,0)"></path>
<path d="M 913.495 943.463 C 1012.51 943.332 1111.36 951.636 1208.96 968.287 C 1218.38 969.966 1248.21 974.816 1255.05 978.934 C 1269 987.714 1280.73 1001.44 1293.55 1011.56 C 1316.1 1029.35 1337.28 1049.6 1359.4 1067.63 C 1414.61 1112.64 1471.67 1155.1 1528.93 1197.42 C 1494.03 1231.28 1434.76 1255.19 1390 1273.42 C 1368.21 1226.56 1343.84 1194.35 1305.99 1159.37 C 1285.32 1138.96 1260.69 1126.31 1236.34 1110.75 C 1186.17 1078.71 1122.62 1058.99 1064.48 1047.32 C 1027.88 1039.97 986.418 1036.92 949.232 1032.43 C 934.565 1030.66 910.749 1032.43 895.358 1032.92 C 801.61 1035.45 684.053 1066.9 604.167 1117.31 C 565.732 1141.82 534.004 1170.66 504.77 1205.45 C 481.375 1233.29 471.943 1244.41 463.859 1280.67 C 413.461 1262.59 360.5 1240.97 320.296 1204.43 C 304.317 1189.91 285.207 1166.8 284.647 1144.17 C 284.118 1122.77 295.839 1103.05 310.282 1088.18 C 388.825 1007.34 578.687 969.134 687.377 956.384 C 762.601 947.559 837.822 944.806 913.495 943.463 z" fill="rgb(200,16,46)" transform="translate(0,0)"></path>
<path d="M 778.029 1058.53 C 788.407 1056.21 798.69 1053.88 809.122 1051.79 C 836.889 1046.24 865.145 1045.24 893.087 1041.88 C 911.988 1057.77 936.926 1073.3 957.301 1087.97 C 986.253 1109.24 1013.48 1132.75 1038.74 1158.29 C 1071.89 1192.03 1101.02 1231.19 1128.87 1269.33 C 1134.07 1276.45 1140.62 1283.59 1146.6 1290.07 C 1132.8 1219.13 1076.13 1139.22 1026.73 1088.1 C 1015.15 1076.12 996.736 1057.23 983.17 1048.13 L 982.018 1047.37 C 1045.23 1051.62 1132.4 1074.16 1187.24 1105.79 C 1231.12 1131.09 1278.81 1200.38 1296.02 1247.5 C 1294.66 1208.89 1290.88 1188.33 1275.58 1153.11 C 1311.17 1178.35 1362.9 1240.53 1378.03 1281.32 C 1219.69 1344.41 905.782 1360.66 735.113 1338.08 C 701.822 1290.89 646.406 1245.16 596.322 1216.17 C 579.817 1206.62 548.198 1194.26 529.818 1188.91 C 560.388 1156.84 607.389 1124.23 646.87 1104.45 C 654.607 1109.64 672.453 1116.63 681.511 1120.47 C 695.513 1126.3 709.334 1132.57 722.954 1139.24 C 807.928 1180.35 881.649 1226.27 944.302 1298.73 C 923.587 1226.95 808.687 1119.57 744.597 1083.96 C 738.132 1080.44 731.554 1077.13 724.872 1074.04 C 731.83 1071.81 764.804 1062.45 769.122 1060.57 C 772.933 1059.03 773.866 1059.05 778.029 1058.53 z" fill="rgb(211,121,89)" transform="translate(0,0)"></path>
<path d="M 769.122 1060.57 C 772.933 1059.03 773.866 1059.05 778.029 1058.53 L 781.829 1060.75 L 782.065 1062.77 C 778.571 1066.71 774.313 1067.36 770.065 1064.03 L 769.122 1060.57 z" fill="rgb(124,2,35)" transform="translate(0,0)"></path>
<path d="M 1088.91 1102.8 C 1095.96 1103.16 1104.36 1101.81 1109.09 1105.89 C 1109.62 1110.21 1109.41 1108.94 1107.24 1113.53 C 1101.54 1114.76 1089.43 1112.06 1086.84 1106.05 L 1088.91 1102.8 z" fill="rgb(124,2,35)" transform="translate(0,0)"></path>
<path d="M 930.287 1208.88 C 933.972 1208.76 936.908 1208.56 939.412 1211.51 C 939.128 1215.06 938.843 1215.85 940.198 1219.21 C 944.731 1223.65 945.443 1222.62 950.301 1220.46 L 952.779 1221.9 C 951.897 1224.57 951.886 1224.51 950.287 1226.85 C 941.122 1231.19 929.289 1218.21 930.287 1208.88 z" fill="rgb(124,2,35)" transform="translate(0,0)"></path>
<path d="M 1148.24 1197.34 C 1156.21 1201.02 1164.75 1208.08 1157.35 1217.05 L 1155.64 1217.17 L 1155.41 1215.11 C 1154.98 1210.8 1155.12 1209.45 1153.24 1205.69 L 1151.58 1205.24 C 1150.72 1206.8 1150.44 1207.38 1149.76 1209.08 L 1149.19 1210.52 L 1146.98 1211.06 C 1144.1 1209.38 1145.24 1210.56 1143.93 1207.01 C 1144.28 1203.22 1146.27 1200.64 1148.24 1197.34 z" fill="rgb(124,2,35)" transform="translate(0,0)"></path>
<path d="M 699.825 1182.04 C 706.301 1181.65 709.653 1182.79 712.863 1188.42 C 712.965 1192.25 713.474 1190.57 711.407 1193.67 C 708.4 1195.62 706.148 1195.15 702.511 1195.09 C 699.05 1194.24 698.668 1194.45 696.105 1191.9 C 697.77 1189.17 700.655 1192.05 704.86 1189.47 C 703.201 1186.98 701.523 1184.5 699.825 1182.04 z" fill="rgb(124,2,35)" transform="translate(0,0)"></path>
<path d="M 878.071 1304.31 C 882.295 1306.84 890.253 1312.68 893.467 1316.38 L 892.657 1317.79 C 886.41 1316.92 878.253 1318.05 875.07 1312.76 C 875.207 1308.64 875.909 1308.03 878.071 1304.31 z" fill="rgb(124,2,35)" transform="translate(0,0)"></path>
<path d="M 1094.18 1287.29 L 1096.09 1288.46 C 1098.09 1292.49 1097.43 1291.44 1097.16 1296.55 C 1099.94 1301.02 1103.88 1296.97 1107.34 1300.48 L 1106.76 1303.2 C 1091.99 1305.64 1088.38 1301.13 1094.18 1287.29 z" fill="rgb(124,2,35)" transform="translate(0,0)"></path>
<path d="M 1204.84 1174.17 C 1206.34 1174.5 1206.76 1174.77 1208.18 1175.37 C 1209.02 1178.62 1210.11 1181.19 1211.32 1184.29 L 1211.86 1184.32 L 1213.31 1186.59 L 1211.61 1190.84 C 1207.4 1192.34 1206.2 1193.22 1203.38 1189.52 C 1202.52 1184.71 1203.97 1179.14 1204.84 1174.17 z" fill="rgb(124,2,35)" transform="translate(0,0)"></path>
<path d="M 1234.66 1242.09 C 1242.1 1244.82 1248.36 1248.24 1247.25 1256.78 C 1238.22 1258.32 1234.14 1249.69 1234.66 1242.09 z" fill="rgb(124,2,35)" transform="translate(0,0)"></path>
<path d="M 1248.12 1228.87 C 1257.66 1228.48 1264.41 1234.96 1258.93 1244.17 C 1255.21 1241.09 1249.71 1235.25 1246.82 1231.46 L 1248.12 1228.87 z" fill="rgb(124,2,35)" transform="translate(0,0)"></path>
<path d="M 822.476 1101.65 C 823.971 1101.26 823.977 1101.65 825.947 1102.23 L 826.86 1104.08 C 826.111 1107.24 826.121 1107 823.666 1109.19 C 819.628 1110.3 821.53 1110.39 817.752 1109.25 C 814.588 1107.55 811.159 1107.54 810.492 1103.98 C 816.155 1101.56 815.434 1103.35 820.737 1102.08 L 822.476 1101.65 z" fill="rgb(124,2,35)" transform="translate(0,0)"></path>
<path d="M 940.222 1094.11 C 942.907 1096.31 942.201 1094.97 942.773 1098.06 C 939.237 1102.73 931.717 1104.29 926.079 1105.97 C 923.694 1104.93 924.516 1105.76 923.448 1103.65 C 925.753 1100.64 936.161 1096.12 940.222 1094.11 z" fill="rgb(124,2,35)" transform="translate(0,0)"></path>
<path d="M 909.853 1160 C 911.056 1160.55 911.413 1161.2 912.437 1162.25 C 913.543 1168.35 907.086 1170.41 902.213 1172.08 C 899.462 1168.91 899.047 1169.5 898.746 1166.15 C 900.568 1163.84 904.824 1163.28 909.046 1160.54 L 909.853 1160 z" fill="rgb(124,2,35)" transform="translate(0,0)"></path>
<path d="M 798.171 1200.54 C 802.473 1200.78 802.542 1201.33 805.171 1204.43 C 806.665 1210.21 805.351 1212.43 802.358 1217.59 L 799.966 1217.26 C 798.44 1215.36 797.425 1202.97 798.171 1200.54 z" fill="rgb(124,2,35)" transform="translate(0,0)"></path>
<path d="M 1108.82 1091.28 C 1116.07 1093.12 1119.59 1097.27 1118.22 1104.77 C 1113.94 1102.66 1110.86 1102.2 1107.4 1099.09 C 1106.51 1095.31 1107.19 1095.71 1108.82 1091.28 z" fill="rgb(124,2,35)" transform="translate(0,0)"></path>
<path d="M 1209.18 1261.33 C 1211.8 1262.24 1222.53 1269.02 1224.44 1271.29 L 1223.58 1272.93 C 1217.96 1271.8 1211.03 1271.21 1207.14 1267.27 C 1206.56 1263.92 1206.65 1265.09 1209.18 1261.33 z" fill="rgb(124,2,35)" transform="translate(0,0)"></path>
<path d="M 1181.71 1154.73 C 1185.35 1154.65 1185.75 1154.29 1188.78 1156.33 C 1192.07 1161.55 1190.1 1166.3 1188.83 1172.45 C 1184.34 1170.09 1183.58 1160.44 1181.71 1154.73 z" fill="rgb(124,2,35)" transform="translate(0,0)"></path>
<path d="M 1299.11 1273.48 C 1308.15 1274.88 1309.5 1280.34 1307.12 1288.2 C 1304.53 1288.07 1305.42 1288.23 1303 1287.29 C 1299.53 1282.66 1298.92 1279.26 1299.11 1273.48 z" fill="rgb(124,2,35)" transform="translate(0,0)"></path>
<path d="M 826.599 1088.28 C 828.935 1083.25 827.763 1080.92 826.866 1075.64 C 831.818 1073.62 833.624 1077.16 835.015 1081.21 C 834.318 1087.16 832.661 1087.81 827.217 1089.76 L 826.599 1088.28 z" fill="rgb(124,2,35)" transform="translate(0,0)"></path>
<path d="M 1056.58 1227.3 C 1059.14 1228.45 1058.09 1227.62 1059.75 1230 C 1059.96 1235.95 1057.34 1239.26 1054.04 1244.24 C 1050.7 1242.76 1051.75 1243.93 1050.39 1241.01 C 1050.93 1236.06 1054.02 1231.76 1056.58 1227.3 z" fill="rgb(124,2,35)" transform="translate(0,0)"></path>
<path d="M 676.053 1233.59 C 678.881 1235.96 677.532 1237.61 676.828 1240.96 C 679.543 1247.14 678.273 1241.06 682.954 1245.96 L 680.764 1249.47 C 669.524 1247.37 670.075 1241.18 676.053 1233.59 z" fill="rgb(124,2,35)" transform="translate(0,0)"></path>
<path d="M 887.29 1079.48 C 890.058 1081.48 890.298 1081.36 891.644 1084.6 C 891.399 1088.22 888.57 1091.38 886.405 1094.49 C 883.997 1093.74 884.113 1093.88 882.596 1091.89 C 882.446 1087.75 885.312 1083.35 887.29 1079.48 z" fill="rgb(124,2,35)" transform="translate(0,0)"></path>
<path d="M 855.134 1093.41 C 856.663 1094.48 857.004 1095.05 858.294 1096.43 C 859.365 1101.98 857.102 1105.68 854.8 1110.92 C 852.457 1109.22 852.492 1109.38 850.955 1106.97 C 850.792 1102.79 853.656 1097.58 855.134 1093.41 z" fill="rgb(124,2,35)" transform="translate(0,0)"></path>
<path d="M 793.396 1275.62 C 796.475 1277.69 795.485 1276.36 796.792 1279.5 C 796.321 1283.84 793.812 1286.86 791.415 1290.66 L 789.938 1289.93 C 786.453 1284.16 789.349 1280.11 793.396 1275.62 z" fill="rgb(124,2,35)" transform="translate(0,0)"></path>
<path d="M 933.993 1157.59 C 937.047 1159.86 937.254 1161.63 937.288 1165.05 C 935.403 1168.87 934.762 1168.93 930.896 1171.21 C 929.186 1169.81 929.293 1169.91 928.319 1167.92 C 928.73 1163.76 931.4 1161.1 933.993 1157.59 z" fill="rgb(124,2,35)" transform="translate(0,0)"></path>
<path d="M 963.876 1249.74 L 965.074 1250.25 C 967.255 1253.26 966.897 1251.66 966.37 1255.18 C 963.736 1258.94 963.06 1259.02 958.842 1261.26 C 955.891 1259.42 956.807 1260.67 955.299 1257.93 C 956.289 1254.78 961.011 1251.92 963.876 1249.74 z" fill="rgb(124,2,35)" transform="translate(0,0)"></path>
<path d="M 1207.93 1281.68 C 1212.09 1282.65 1216.8 1282.21 1221.45 1282.55 L 1222.4 1283.74 L 1220.69 1284.92 C 1216.92 1286.49 1212.24 1288.91 1208.36 1287.64 C 1206.51 1284.41 1207.02 1286.24 1207.93 1281.68 z" fill="rgb(124,2,35)" transform="translate(0,0)"></path>
<path d="M 800.049 1084.56 C 804.137 1085.33 807.21 1085.13 808.56 1089.33 L 807.095 1092.02 C 803.211 1092.24 800.471 1092.73 797.481 1090.72 C 797.418 1087.3 797.728 1088.04 800.049 1084.56 z" fill="rgb(124,2,35)" transform="translate(0,0)"></path>
<path d="M 597.586 1168.49 C 602.575 1169.67 606.815 1175.72 608.974 1180.07 C 600.083 1180.4 598.314 1176.25 597.586 1168.49 z" fill="rgb(124,2,35)" transform="translate(0,0)"></path>
<path d="M 827.217 1089.76 C 824.583 1092.83 821.752 1092.63 818.176 1091.81 C 815.594 1088.87 816.126 1090.48 815.947 1087.05 L 817.672 1085.7 C 821.733 1085.4 822.773 1086.36 826.599 1088.28 L 827.217 1089.76 z" fill="rgb(124,2,35)" transform="translate(0,0)"></path>
<path d="M 637.079 1135.34 C 640.642 1138.1 640.699 1143.36 641.647 1148.42 L 640.147 1149.24 C 637.232 1146.15 635.061 1144.4 633.659 1140.46 C 634.412 1136.47 633.502 1138.23 637.079 1135.34 z" fill="rgb(124,2,35)" transform="translate(0,0)"></path>
<path d="M 987.366 1157.44 C 989.86 1159.42 991.59 1168.72 991.295 1171.73 L 988.159 1171.41 C 982.722 1167.19 984.588 1162.83 987.366 1157.44 z" fill="rgb(124,2,35)" transform="translate(0,0)"></path>
<path d="M 1042.97 1211.49 C 1047.31 1212.49 1047.83 1212.8 1050.7 1215.72 C 1052.13 1220.15 1052.06 1217.94 1050.66 1222.6 C 1044.98 1222.35 1043.12 1216.41 1042.97 1211.49 z" fill="rgb(124,2,35)" transform="translate(0,0)"></path>
<path d="M 923.021 1131.94 C 927.285 1131.82 929.615 1132.43 932.782 1135.22 C 934.561 1139.68 934.278 1137.4 933.369 1142.34 C 929.437 1139.6 926.453 1137.44 922.761 1134.39 L 923.021 1131.94 z" fill="rgb(124,2,35)" transform="translate(0,0)"></path>
<path d="M 1044.05 1276.62 C 1047.23 1277.57 1047.09 1277.39 1049.4 1279.72 C 1049.58 1283.48 1050 1281.65 1047.29 1285.15 C 1043.65 1284.51 1041.58 1284.48 1039.47 1282.01 C 1040.05 1279.29 1041.8 1278.42 1044.05 1276.62 z" fill="rgb(124,2,35)" transform="translate(0,0)"></path>
<path d="M 1248.22 1283.3 C 1252.55 1284.51 1255.34 1284.6 1256.98 1288.93 L 1255.57 1291.95 C 1252.17 1291.79 1251.82 1292.01 1248.74 1290.42 C 1247.03 1286.89 1247.59 1287.91 1248.22 1283.3 z" fill="rgb(124,2,35)" transform="translate(0,0)"></path>
<path d="M 1019.75 1237.39 C 1025.43 1240.17 1025.87 1243.98 1023.73 1249.53 C 1022.38 1249.62 1022.07 1249.45 1020.72 1249.23 C 1017.85 1244.82 1018.28 1242.19 1019.75 1237.39 z" fill="rgb(124,2,35)" transform="translate(0,0)"></path>
<path d="M 1135.48 1127.71 C 1136.17 1128.5 1136.45 1129.44 1136.92 1130.48 C 1136.23 1136.15 1134.25 1137.78 1129.81 1141.42 C 1128.51 1139.86 1128.9 1140.4 1128.12 1138.48 C 1129.39 1134.72 1132.91 1130.92 1135.48 1127.71 z" fill="rgb(124,2,35)" transform="translate(0,0)"></path>
<path d="M 856.743 914.469 C 969.07 911.461 1101.12 919.031 1211.34 938.347 C 1218.27 944.539 1225.77 952.522 1232.38 959.215 C 1198.41 954.008 1164.57 947.366 1130.36 943.348 C 940.678 921.078 735.423 924.246 549.056 967.75 C 459.545 991.384 339.264 1019.79 283.643 1100.18 C 242.786 1159.24 304.619 1218.18 353.197 1245.92 C 408.776 1277.65 475.831 1300.34 537.931 1317.95 C 586.523 1331.73 640.928 1339.75 691.375 1346.37 C 832.39 1365.63 975.282 1366.86 1116.61 1350.05 C 1184.93 1342.59 1229.45 1337.22 1297.25 1320.13 C 1373.33 1301.49 1487.52 1263.8 1545.09 1209.13 L 1548.33 1211.27 C 1553.46 1214.69 1557.2 1216.14 1558.4 1222.19 C 1556.8 1229.57 1518.43 1252.1 1509.63 1256.96 C 1353.79 1342.97 1157.25 1370.63 981.223 1377.82 C 795.469 1385.41 598.043 1363.75 423.926 1297.53 C 360.397 1272.96 256.786 1224.24 254.335 1145.3 C 252.13 1074.3 338.015 1024.41 395.909 1000.22 C 538.171 940.774 702.884 916.77 856.743 914.469 z" fill="rgb(200,16,46)" transform="translate(0,0)"></path>
<path d="M 724.259 251.099 C 726.022 251.157 733.366 251.338 733.499 252.971 C 734.185 261.397 734.821 272.809 735.775 280.915 C 736.758 288.898 738.363 296.792 740.576 304.525 C 752.357 347.201 776.269 390.54 800.372 427.369 C 894.243 570.804 1012.92 695.078 1133.79 815.752 C 1158.27 840.187 1182.65 862.561 1208.08 885.81 C 1251.11 925.788 1295.23 964.581 1340.38 1002.15 C 1487.42 1126.1 1649.71 1256.43 1831.54 1326.31 C 1837.82 1328.72 1844.86 1330.93 1851.31 1332.83 C 1876.54 1340.22 1902.71 1343.94 1929 1343.86 C 1931.68 1341.21 1934.41 1337.86 1936.91 1334.97 C 1941.47 1338.56 1942.85 1338.61 1942.11 1344.44 C 1939.34 1348.89 1933.94 1352.07 1929.52 1355.24 C 1911.11 1367.13 1910.19 1366.22 1887.37 1362.65 C 1813.78 1351.15 1741.93 1311.74 1677.63 1275.39 C 1552.67 1205.07 1438.56 1117.73 1329.24 1025.43 C 1246.18 955.297 1165.37 882.001 1088.21 805.387 C 1061.83 778.671 1035.75 751.651 1010 724.331 C 946.693 657.726 886.561 589.693 833.076 514.872 C 802.915 472.68 702.169 325.94 711.069 278.142 C 712.646 269.672 716.887 255.978 724.259 251.099 z" fill="rgb(200,16,46)" transform="translate(0,0)"></path>
<path d="M 237.026 1175.85 L 237.623 1176.19 C 239.514 1179.39 241.788 1203.61 242.424 1209.08 C 218.548 1221.74 156.679 1245.28 177.253 1282.73 C 197.763 1320.06 245.539 1346.72 284.015 1361.02 C 320.663 1374.63 347.092 1374.58 382.432 1359 C 394.915 1353.92 407.154 1350.27 419.705 1344.27 C 453.05 1361.87 494.817 1380.35 529.625 1396.9 L 475.751 1398.42 C 450.197 1399.6 424.659 1401.12 399.146 1403 C 367.7 1405.24 331.468 1410.27 301.126 1402.42 C 290.312 1399.58 279.48 1395.87 269.601 1390.62 C 247.394 1378.83 227.639 1363.74 206.555 1350.06 C 201.743 1346.94 190.816 1340.33 186.531 1336.73 C 172.591 1325.03 89.9665 1279.62 95.6976 1262.54 C 103.36 1239.69 160.936 1215.92 182.703 1204.82 C 200.939 1195.41 219.048 1185.75 237.026 1175.85 z" fill="rgb(200,16,46)" transform="translate(0,0)"></path>
<path d="M 502.477 1219.66 C 508.318 1223.64 552.986 1239.22 563.096 1243.34 C 608.798 1261.98 678.964 1303.05 714.524 1336.01 C 704.96 1334.53 695.373 1333.21 685.766 1332.04 C 620.757 1322.76 527.969 1305.82 467.567 1281.04 C 477.762 1254.61 483.888 1241.92 502.477 1219.66 z" fill="rgb(211,121,89)" transform="translate(0,0)"></path>
<path d="M 505.762 1254.83 L 506.419 1255.51 C 506.61 1256.8 506.817 1258.09 507.039 1259.38 C 509.794 1260.35 511.037 1260.83 513.75 1262.13 L 513.79 1263.62 L 511.149 1265.6 L 506.729 1265.37 C 502.832 1265.19 499.974 1265.55 499.215 1261.04 C 500.987 1257.55 502.499 1256.98 505.762 1254.83 z" fill="rgb(124,2,35)" transform="translate(0,0)"></path>
<path d="M 591.306 1277.38 C 598.272 1279.09 604.163 1280.77 606.552 1288.13 C 597.361 1286.73 590.847 1287.94 591.306 1277.38 z" fill="rgb(124,2,35)" transform="translate(0,0)"></path>
<path d="M 1527.97 410.242 C 1588.87 404.859 1678.49 491.597 1669.72 554.248 C 1668.52 582.648 1640.84 600.981 1616.72 613.734 C 1567.41 639.8 1631.23 697.585 1624.94 712.639 L 1622.6 713.266 C 1616.59 712.088 1608.72 707.995 1605.36 703.33 C 1592.7 685.771 1576.83 652.594 1578.02 630.706 C 1579.68 600.066 1618.04 599.491 1638.73 581.07 C 1696.31 520.513 1582.58 422.016 1522.32 430.857 C 1492.99 432.848 1499.18 466.125 1478.38 479.591 C 1463.04 489.524 1437.34 478.591 1422.76 472.374 C 1411.06 467.387 1370.16 452.552 1374.44 436.993 C 1386.27 431.458 1437.76 470.093 1459.13 463.588 C 1491.9 453.616 1486.5 418.76 1527.97 410.242 z" fill="rgb(200,16,46)" transform="translate(0,0)"></path>
<path d="M 96.3849 1288.33 C 107.165 1295.53 117.052 1305.66 128.018 1312.66 C 153.7 1329.06 179.68 1345.01 204.981 1362.03 C 234.856 1381.6 272.027 1410.44 308.132 1416.21 C 345.725 1422.22 396.17 1415.82 434.72 1413.2 C 469.49 1410.91 504.294 1409.15 539.117 1407.92 C 538.876 1412.21 538.361 1416.73 537.953 1421.03 C 537.887 1423.32 537.856 1422.78 537.106 1425.05 C 534.349 1426.8 494.011 1426.69 486.979 1426.77 C 453.757 1427.09 420.542 1427.95 387.348 1429.36 C 364.163 1430.25 336.319 1431.99 313.447 1431.21 C 283.308 1430.18 241.5 1397.63 215.657 1381.61 L 135.324 1331.13 C 124.203 1324.03 109.059 1315.32 99.4036 1306.6 C 94.9993 1302.62 95.8197 1293.87 96.3849 1288.33 z" fill="rgb(200,16,46)" transform="translate(0,0)"></path>
<path d="M 714.179 1077.07 L 716.014 1077.15 C 730.242 1085.98 745.768 1093.75 759.215 1103.44 C 803.056 1135.04 841.583 1173.73 876.863 1214.51 C 880.571 1218.79 884.45 1222.83 887.805 1227.43 C 882.813 1224.54 863.767 1208.16 856.669 1202.87 C 786.765 1151.91 734.082 1130.39 654.758 1101.15 C 675.523 1090.57 691.861 1083.81 714.179 1077.07 z" fill="rgb(252,206,138)" transform="translate(0,0)"></path>
<path d="M 1527.32 443.136 C 1554.84 439.945 1594.13 469.541 1612.84 487.14 C 1628.12 501.501 1640.88 521.418 1640.84 543.035 C 1640.83 546.994 1639.78 556.59 1636.89 559.465 L 1634.82 558.352 C 1593.02 518.739 1559.25 484.15 1514.89 446.886 C 1518.78 445.475 1523.3 444.291 1527.32 443.136 z" fill="rgb(248,235,217)" transform="translate(0,0)"></path>
<path d="M 921.521 1041.47 C 953.365 1040.27 962.106 1040.33 985.686 1062.38 C 1027.07 1101.08 1062.96 1144.69 1093.06 1192.72 C 1100.12 1203.99 1108.69 1216.25 1113.67 1228.53 L 1104.64 1216.6 C 1097.8 1206.22 1083.25 1189.72 1074.9 1180.05 C 1021.71 1118.46 971.067 1083.62 903.002 1041.8 L 921.521 1041.47 z" fill="rgb(252,206,138)" transform="translate(0,0)"></path>
<path d="M 527.36 1192.21 C 530.22 1193.32 546.676 1202.08 550.237 1203.85 C 603.555 1230.24 652.485 1264.7 695.303 1306 C 690.201 1302.93 685.588 1299.53 680.74 1296.08 C 623.691 1256.03 573.907 1233.78 506.803 1215.07 C 512.686 1207.51 520.702 1199.17 527.36 1192.21 z" fill="rgb(252,206,138)" transform="translate(0,0)"></path>
<path d="M 243.708 1263.94 L 245.263 1264.57 C 247.592 1273.77 250.021 1321.75 250.244 1332.69 C 241.82 1328.18 231.144 1321.22 223.504 1315.7 C 212.904 1307.66 206.209 1301.89 197.326 1292 C 215.169 1277.85 223.484 1273.45 243.708 1263.94 z" fill="rgb(248,235,217)" transform="translate(0,0)"></path>
<path d="M 371.997 1322.86 C 378.605 1322.89 398.516 1334.89 405.149 1338.63 C 390.683 1345.12 352.312 1360.23 337.315 1361.17 C 323.057 1360.74 314.238 1358.7 300.483 1355.57 C 315.512 1350.73 356.361 1330.5 371.997 1322.86 z" fill="rgb(200,16,46)" transform="translate(0,0)"></path>
<path d="M 240.62 1222.98 C 242.071 1225.09 243.371 1243.53 244.086 1248.11 C 220.221 1258.88 211.424 1264.75 190.477 1279.33 C 171.624 1256.69 227.018 1230.63 240.62 1222.98 z" fill="rgb(200,16,46)" transform="translate(0,0)"></path>
<path d="M 1204.18 1103.55 C 1239.31 1117.89 1271.4 1156.23 1281.99 1192.29 C 1279.25 1190.4 1277.84 1186.95 1276.26 1184.06 C 1265.95 1165 1252.88 1147.49 1237.71 1132.05 C 1227.44 1121.59 1215.43 1114.05 1204.94 1104.26 L 1204.18 1103.55 z" fill="rgb(252,206,138)" transform="translate(0,0)"></path>
<path d="M 681.478 898.415 C 678.888 873.219 668.212 862.642 647.517 850.736 C 551.095 795.269 304.874 864.044 259.116 737.532 C 254.055 723.608 252.247 708.711 253.832 693.981 C 260.106 635.731 317.791 625.042 337.245 583.223 C 343.41 570.262 343.949 555.332 338.737 541.961 C 328.829 516.355 301.023 504.543 275.413 502.349 C 258.071 500.863 239.573 502.693 222.068 501.174 C 204.218 499.746 186.759 495.18 170.495 487.687 C 148.321 477.514 129.747 462.447 115.314 442.562 C 25.8016 319.232 130.586 146.868 255.371 97.3827 C 257.36 96.5941 261.804 94.7663 263.547 95.5649 C 259.918 98.2826 240.189 106.601 231.64 111.679 C 195.801 133.148 164.331 161.182 138.879 194.312 C 102.283 242.941 78.786 304.947 87.8928 366.392 C 92.3173 394.751 103.987 421.487 121.774 444.014 C 147.982 476.73 184.623 494.922 226.371 496.793 C 262.274 498.402 297.122 491.123 328.431 514.769 C 340.746 524.149 348.748 538.106 350.621 553.472 C 356.003 595.45 319.027 620.976 291.136 644.655 C 235.737 691.689 266.39 772.787 328.961 795.064 C 348.852 802.146 368.186 805.98 389.143 808.758 C 425.272 813.486 461.555 815.984 497.909 817.896 C 553.706 820.233 615.06 819.838 662.779 853.406 C 674.43 861.601 682.54 874.065 684.423 888.328 C 683.538 891.084 683.528 890.877 684.423 893.626 C 683.599 896.206 683.713 896.745 682.231 898.811 L 681.478 898.415 z" fill="rgb(124,2,35)" transform="translate(0,0)"></path>
<path d="M 1674.74 1861.39 C 1678.17 1860.83 1679.71 1859.75 1682.46 1861.88 L 1681.78 1863.3 C 1672.13 1867.81 1644.48 1869.57 1631.64 1871.46 L 1546.35 1884.21 C 1416.92 1904.7 1287.28 1923.77 1157.43 1941.41 C 1071.78 1953.81 982.935 1967.97 897.165 1978 C 894.415 1978.38 890.857 1979.29 888.97 1976.88 C 894.305 1972.77 1256.03 1922.99 1297.33 1916.94 C 1412.53 1900.07 1557.74 1876.71 1674.74 1861.39 z" fill="rgb(124,2,35)" transform="translate(0,0)"></path>
<path d="M 1549.38 1738.41 C 1577.46 1731.97 1817.1 1694.03 1829.88 1696.63 L 1830.62 1697.76 C 1828.57 1699.73 1789.44 1705.15 1784.3 1705.97 L 1636.43 1728.85 C 1610.36 1733.07 1572.61 1740.61 1547.27 1743.58 L 1549.38 1738.41 z" fill="rgb(124,2,35)" transform="translate(0,0)"></path>
<path d="M 1558.18 1703.49 C 1614.4 1692.94 1673.31 1684.83 1729.82 1675.19 C 1741.38 1673.21 1789.74 1664.95 1799.02 1666.21 L 1799.59 1667.26 C 1796.68 1669.33 1793.06 1670.59 1789.54 1671.13 C 1721.81 1681.48 1654.14 1691.92 1586.57 1703.34 C 1577.75 1704.83 1568.65 1706.42 1559.81 1707.65 C 1557.89 1707.06 1558.82 1707.54 1557.11 1706.04 L 1558.18 1703.49 z" fill="rgb(124,2,35)" transform="translate(0,0)"></path>
<path d="M 688.149 1935.65 C 665.175 1937.68 642.368 1941.69 619.555 1944.93 C 587.856 1949.42 555.986 1952.9 524.305 1957.56 C 515.6 1958.85 504.882 1960.96 496.215 1960.16 L 495.692 1959.1 C 508.355 1952.05 658.704 1935.01 683.76 1932.48 L 688.149 1935.65 z" fill="rgb(124,2,35)" transform="translate(0,0)"></path>
<path d="M 409 1860.68 C 393.965 1862.69 308.684 1876.5 302.028 1874.25 L 302.245 1872.98 C 311.747 1866.75 389.622 1858.51 405.523 1856.42 L 409 1860.68 z" fill="rgb(124,2,35)" transform="translate(0,0)"></path>
<path d="M 1565.17 1647.31 C 1592.96 1640.84 1622.02 1638.28 1649.99 1632.51 C 1652.03 1632.09 1658.93 1632.23 1660.85 1633.18 L 1660.62 1634.87 L 1660.41 1633.06 L 1659.61 1635.23 C 1632.33 1641.7 1594.49 1646.26 1565.85 1651.64 C 1564.98 1649.47 1565.27 1649.81 1565.17 1647.31 z" fill="rgb(124,2,35)" transform="translate(0,0)"></path>
<path d="M 416.24 641.359 C 423.068 626.914 445.286 601.515 460.073 595.176 C 440.817 614.99 435.751 613.571 418.484 641.609 L 416.24 641.359 z" fill="rgb(200,16,46)" transform="translate(0,0)"></path>
<path d="M 302.407 240.197 C 296.155 245.201 289.434 249.153 283.566 254.175 L 284.604 250.415 C 290.212 245.723 295.755 243.14 302.407 240.197 z" fill="rgb(200,16,46)" transform="translate(0,0)"></path>
<metadata><recraft-signature>{"signed_by": "recraft", "signature_b64": "R65xSLr70q4UBg/XQN4LBzHl1uEJmQADyifdDD2Ay2Tt8Y6gG/rztP7nDhsRRDomtY3wsmiqveArn8C7w3JRBQ==", "signing_algo": "Ed25519", "generation_timestamp": 1778092827, "identifier": "c297b62f-e8b5-4c39-aec7-02c181856aad"}</recraft-signature></metadata></svg>