<svg xmlns="http://www.w3.org/2000/svg" height="1024" preserveAspectRatio="none" style="display: block;" version="1.1" viewBox="0 0 2048 2048" width="1024">
<defs>
	<linearGradient gradientUnits="userSpaceOnUse" id="Gradient1" x1="1265.44" x2="1256.47" y1="1576.29" y2="1565.44">
		<stop class="stop0" offset="0" stop-color="rgb(255,222,164)" stop-opacity="1"></stop>
		<stop class="stop1" offset="1" stop-color="rgb(240,241,212)" stop-opacity="1"></stop>
	</linearGradient>
	<linearGradient gradientUnits="userSpaceOnUse" id="Gradient2" x1="826.81" x2="828.542" y1="1848.31" y2="1819.48">
		<stop class="stop0" offset="0" stop-color="rgb(150,6,27)" stop-opacity="1"></stop>
		<stop class="stop1" offset="1" stop-color="rgb(124,8,38)" stop-opacity="1"></stop>
	</linearGradient>
	<linearGradient gradientUnits="userSpaceOnUse" id="Gradient3" x1="486.62" x2="513.363" y1="1783.52" y2="1726.41">
		<stop class="stop0" offset="0" stop-color="rgb(250,218,180)" stop-opacity="1"></stop>
		<stop class="stop1" offset="1" stop-color="rgb(254,240,194)" stop-opacity="1"></stop>
	</linearGradient>
	<linearGradient gradientUnits="userSpaceOnUse" id="Gradient4" x1="1378.52" x2="1315.55" y1="1434.16" y2="1417.88">
		<stop class="stop0" offset="0" stop-color="rgb(254,222,174)" stop-opacity="1"></stop>
		<stop class="stop1" offset="1" stop-color="rgb(244,246,198)" stop-opacity="1"></stop>
	</linearGradient>
	<linearGradient gradientUnits="userSpaceOnUse" id="Gradient5" x1="1081.44" x2="1056.55" y1="1178" y2="1225.83">
		<stop class="stop0" offset="0" stop-color="rgb(254,205,149)" stop-opacity="1"></stop>
		<stop class="stop1" offset="1" stop-color="rgb(248,236,190)" stop-opacity="1"></stop>
	</linearGradient>
	<linearGradient gradientUnits="userSpaceOnUse" id="Gradient6" x1="879.018" x2="870.727" y1="1318.26" y2="1326.22">
		<stop class="stop0" offset="0" stop-color="rgb(254,218,166)" stop-opacity="1"></stop>
		<stop class="stop1" offset="1" stop-color="rgb(254,244,186)" stop-opacity="1"></stop>
	</linearGradient>
	<linearGradient gradientUnits="userSpaceOnUse" id="Gradient7" x1="1885.92" x2="1819.42" y1="931.148" y2="815.177">
		<stop class="stop0" offset="0" stop-color="rgb(148,0,4)" stop-opacity="1"></stop>
		<stop class="stop1" offset="1" stop-color="rgb(106,13,37)" stop-opacity="1"></stop>
	</linearGradient>
</defs>
<path d="M 0 0 L 2048 0 L 2048 2048 L 0 2048 L 0 0 z" fill="rgb(244,239,224)" transform="translate(0,0)"></path>
<path d="M 815.892 136.139 C 831.876 131.965 861.961 124.701 878.171 122.788 C 934.66 116.12 995.268 117.539 1051.24 127.865 C 1062.8 129.999 1088.91 134.23 1099.62 137.755 C 1109.3 139.505 1164.36 153.382 1172.81 157.67 C 1182.8 160.691 1208.1 168.988 1217.14 173.664 C 1230.24 178.188 1323.64 215.939 1331.12 223.357 C 1335.21 224.902 1335.82 226.003 1339.09 225.032 C 1356.07 203.993 1378.25 169.692 1409.6 169.279 C 1506.36 168.003 1627.7 267.507 1643.69 363.283 C 1647.1 383.774 1638.62 413.087 1630.19 430.786 C 1657.23 458.172 1688.79 481.755 1716.07 509.866 C 1787.34 583.3 1853.37 669.225 1898.77 761.252 C 1931.42 827.445 1958.68 944.305 1949.8 1018.52 C 1958.61 1042.15 1970.81 1073.46 1968.49 1099.38 L 1966.4 1111.2 C 1949.39 1165.21 1896.87 1178.18 1845.54 1176.63 C 1836.7 1176.36 1827.6 1175.27 1818.86 1175.03 C 1793.94 1175.28 1745.1 1165.95 1720.71 1160.37 C 1721.8 1186.58 1717.71 1220.46 1710.12 1245.2 C 1718.89 1261.55 1734.02 1282.06 1743.88 1298.79 C 1768.61 1340.78 1812.74 1416.77 1824.37 1464.23 C 1827.15 1475.38 1828.12 1486.9 1827.26 1498.36 C 1825.38 1522.19 1814.5 1539.11 1796.02 1553.99 C 1756.96 1585.45 1700.8 1628.73 1650.16 1636.4 C 1624.48 1640.29 1579.19 1636.37 1553.2 1634.12 C 1546.43 1646.98 1541.27 1660.66 1533.83 1673.33 C 1510.68 1712.78 1483.01 1745.95 1448.41 1775.71 C 1428.51 1793.4 1407.35 1807.69 1384.32 1821.29 C 1239.69 1906.72 1064.01 1934.25 898.12 1929.31 C 872.581 1928.55 847.633 1928.46 822.484 1926.62 C 784.413 1923.65 746.52 1918.72 708.959 1911.83 C 662.163 1903.43 615.627 1893.3 571.06 1876.45 C 476.48 1840.68 381.055 1789.45 314.385 1711.63 C 297 1691.65 282.271 1669.51 270.564 1645.75 C 260.231 1624.66 250.592 1599.13 241.98 1577.31 L 202.516 1476.89 C 182.299 1427.05 163.078 1376.81 144.866 1326.2 C 139.61 1311.94 135.229 1297.55 130 1283.52 C 122.273 1262.81 110.998 1240.6 104.434 1219.28 C 98.0748 1198.62 83.5868 1154 85.2245 1132.66 C 82.1352 1097.59 84.2084 1073.03 89.4797 1038.67 C 101.489 977.021 117.16 951.372 144.695 896.48 L 140.803 883.934 C 138.408 879.305 135.199 867.506 133.579 862.138 C 117.089 807.514 94.7225 712.327 141.774 668.07 C 152.109 650.661 201.691 615.667 219.97 604.016 C 234.858 594.527 267.123 577.769 283.728 574.764 C 351.487 562.501 422.609 586.531 487.773 602.785 C 514.066 609.394 542.85 618.501 569.086 622.977 C 575.345 624.044 604.037 617.193 612.153 615.623 C 632.949 611.602 653.973 606.606 675.037 603.499 C 716.287 597.413 759.429 594.907 801.099 592.777 C 788.467 579.666 777.303 565.992 765.258 552.72 C 710.741 492.652 661.929 427.142 629.125 352.537 C 617.044 327.56 609.271 304.953 604.715 277.832 C 593.035 208.294 642.31 165.706 708.581 164.015 C 714.481 163.864 732.349 164.866 737.098 163.064 C 763.204 153.151 787.765 140.343 815.892 136.139 z" fill="rgb(212,32,40)" transform="translate(0,0)"></path>
<path d="M 1148.22 166.182 C 1153.12 167.097 1159.43 170.688 1163.19 170.142 C 1162.11 168.482 1162.39 169.236 1162.15 167.875 C 1216.9 185.673 1278.78 211.397 1328.78 239.457 L 1336.05 231.106 C 1331.16 229.203 1328.34 228.279 1323.83 225.484 C 1328.04 226.054 1330.05 226.791 1334.15 228.087 L 1334.97 227.502 L 1331.12 223.357 C 1335.21 224.902 1335.82 226.003 1339.09 225.032 C 1356.07 203.993 1378.25 169.692 1409.6 169.279 C 1506.36 168.003 1627.7 267.507 1643.69 363.283 C 1647.1 383.774 1638.62 413.087 1630.19 430.786 C 1657.23 458.172 1688.79 481.755 1716.07 509.866 C 1787.34 583.3 1853.37 669.225 1898.77 761.252 C 1931.42 827.445 1958.68 944.305 1949.8 1018.52 C 1958.61 1042.15 1970.81 1073.46 1968.49 1099.38 C 1964.04 1099.21 1964.23 1099.08 1960.18 1100.79 L 1959.27 1096.17 L 1958.59 1088.82 C 1957.84 1069.62 1954.68 1053.52 1948.72 1035.37 C 1945.26 1046.03 1952.04 1060.07 1951.74 1071.19 C 1950.5 1066.4 1949.58 1061.59 1948.59 1056.75 L 1947.9 1056.41 C 1947.77 1057.08 1947.63 1057.75 1947.5 1058.42 C 1939.58 1072.48 1951.92 1090.86 1945.83 1105.57 L 1944.28 1105.92 C 1944.86 1101.55 1945.39 1097.18 1945.87 1092.81 C 1944.82 1090.75 1943.82 1070.94 1943.58 1067.28 C 1941.25 1075.19 1939.08 1079.77 1935.59 1087.34 C 1932.53 1090.9 1930 1094.47 1926 1096.81 L 1923.25 1096.73 C 1941.83 1075 1941 1013.24 1941.18 984.42 L 1940.79 967.185 C 1939.2 963.662 1936.14 926.328 1935.09 918.924 C 1930.28 884.848 1920.78 853.227 1914.91 819.344 C 1911.81 801.448 1897.19 780.486 1888.91 764.29 C 1879.96 746.773 1872.36 727.268 1862.33 710.311 C 1822.51 643.559 1773.22 580.93 1719.61 524.686 C 1693.32 497.111 1661.72 472.262 1635.33 444.403 C 1633.35 442.305 1630 440.129 1627.11 440.065 C 1624.5 443.429 1625.14 441.606 1624.86 445.628 C 1628.78 453.755 1639.33 457.579 1646.17 463.296 C 1649.76 466.291 1652.49 469.425 1656.3 472.661 L 1656.37 470.142 L 1657.39 469.978 C 1692.55 507.222 1731.44 539.703 1761.98 581.587 C 1769.36 591.705 1778.44 600.816 1785.68 611.346 L 1783.52 613.882 C 1784.46 616.644 1785.04 617.365 1786.54 619.837 C 1807.65 663.336 1825.82 711.265 1799.21 757.352 C 1786.05 780.151 1753.08 797.731 1728.04 802.851 C 1639.44 820.968 1553.16 781.136 1476.16 742.583 C 1435.32 722.127 1395.37 699.961 1356.39 676.145 C 1232.74 599.218 1067.97 474.106 1000.15 344.088 C 990.581 325.748 981.311 306.459 976.73 286.201 C 971.429 262.757 975.957 234.064 989.05 213.778 C 1002.91 192.297 1025.83 180.232 1050.16 174.794 C 1071.09 168.142 1091.44 169.299 1113.09 167.815 C 1125.08 167.109 1135.98 168.63 1146.85 168.021 L 1148.22 166.182 z" fill="rgb(144,4,18)" transform="translate(0,0)"></path>
<path d="M 1940.79 967.185 L 1942.02 967.126 C 1942.66 972.508 1945.09 986.924 1942.96 991.757 C 1941.85 988.918 1941.68 987.369 1941.18 984.42 L 1940.79 967.185 z" fill="rgb(121,10,24)" transform="translate(0,0)"></path>
<path d="M 1113.23 174.502 C 1140.68 152.91 1293.96 225.319 1325.61 242.806 C 1303.77 272.54 1305.86 287.845 1330.19 315.824 C 1345.32 333.226 1364.69 345.964 1382.73 360 C 1433.16 397.819 1482.66 436.907 1532.6 475.356 C 1544.14 484.237 1561.23 490.154 1575.76 487.848 C 1592.73 485.166 1604.22 472.864 1613.78 459.521 C 1615.95 456.46 1618.1 453.388 1620.24 450.303 C 1665.7 486.339 1697.98 520.01 1735.54 562.334 C 1859.24 701.689 1804.19 839.86 1608.75 788.617 C 1546.31 772.248 1486.72 741.311 1429.58 710.229 C 1315.57 648.009 1206.65 572.517 1114.31 479.898 C 1060.57 425.993 935.915 291.93 1001.11 209.328 C 1015.12 191.585 1033.87 183.556 1055.97 180.489 C 1071.38 174.642 1096.92 172.945 1113.23 174.502 z" fill="rgb(212,32,40)" transform="translate(0,0)"></path>
<path d="M 1055.97 180.489 C 1071.38 174.642 1096.92 172.945 1113.23 174.502 C 1144.81 182.086 1213.74 200.459 1238.03 219.964 C 1222.73 217.295 1205.53 210.752 1190.6 205.871 C 1176.52 201.317 1162.22 197.462 1147.75 194.319 C 1131.05 190.736 1114.17 188.043 1097.18 186.253 C 1084.99 184.887 1066.99 184.203 1055.97 180.489 z" fill="rgb(244,239,224)" transform="translate(0,0)"></path>
<path d="M 1148.3 245.16 L 1149.18 247.048 C 1137.9 266.542 1134.5 282.75 1140.13 305.036 C 1141.51 310.495 1144.06 319.693 1148.85 322.471 C 1146.5 310.435 1141.68 269.722 1157.64 265.67 L 1159.38 266.461 C 1160.42 270.718 1156.45 285.735 1155.67 291.301 C 1153.95 303.603 1155.25 309.709 1156.6 320.206 C 1158.14 332.12 1178.1 365.675 1178.3 370.672 C 1190.05 393.72 1272.98 467.587 1295.78 484.516 C 1374.98 543.335 1475.09 615.124 1569.36 645.52 C 1582.37 649.641 1595.6 652.991 1609 655.554 C 1616.6 657.025 1628.55 657.284 1634.54 662.205 L 1635.06 664.103 C 1632.84 666.374 1630.99 666.169 1627.32 666.348 C 1618.4 665.753 1617.82 666.522 1609.52 666.887 C 1608.73 665.883 1607.3 664.157 1606.06 663.848 C 1542.4 647.773 1478.29 616.015 1422.76 581.102 C 1348.28 534.279 1266.43 476.768 1205.22 413.584 C 1195.22 403.274 1185.86 392.361 1177.2 380.908 C 1172.31 374.355 1162.49 359.838 1157.38 354.439 L 1156.71 354.66 C 1153.98 359.273 1159.48 359.002 1157.67 364.535 C 1147.59 350.47 1137.85 326.67 1132.89 309.828 C 1134.42 280.216 1129.69 271.511 1148.3 245.16 z" fill="rgb(144,4,18)" transform="translate(0,0)"></path>
<path d="M 1148.85 322.471 C 1146.5 310.435 1141.68 269.722 1157.64 265.67 L 1159.38 266.461 C 1160.42 270.718 1156.45 285.735 1155.67 291.301 C 1153.95 303.603 1155.25 309.709 1156.6 320.206 C 1158.14 332.12 1178.1 365.675 1178.3 370.672 C 1166.96 358.897 1153.82 338.311 1148.85 322.471 z" fill="rgb(244,239,224)" transform="translate(0,0)"></path>
<path d="M 1609.52 666.887 C 1617.82 666.522 1618.4 665.753 1627.32 666.348 C 1644.12 667.658 1655.88 669.408 1672.51 666.006 C 1674.91 667.026 1674.03 666.176 1675.11 668.58 C 1673.64 672.162 1669.85 673.421 1666.41 674.946 C 1640.12 686.596 1613.12 683.917 1585.57 677.525 L 1583.84 676.012 C 1586.42 668.869 1602.77 666.955 1609.52 666.887 z" fill="rgb(244,239,224)" transform="translate(0,0)"></path>
<path d="M 1132.89 309.828 C 1137.85 326.67 1147.59 350.47 1157.67 364.535 C 1164.96 377.93 1184.03 401.002 1193.6 415.073 C 1166.8 397.994 1124.66 343.749 1132.89 309.828 z" fill="rgb(244,239,224)" transform="translate(0,0)"></path>
<path d="M 1690.02 616.88 C 1690.72 617.66 1690.87 617.517 1690.86 618.528 C 1690.78 625.012 1680.59 636.086 1675.85 640.042 C 1659.84 653.404 1639.65 655.414 1619.62 653.723 C 1618.35 652.074 1618.81 653.051 1618.41 650.709 C 1621.92 646.833 1657.77 638.281 1666.85 633.856 C 1675.86 629.462 1682.69 623.674 1690.02 616.88 z" fill="rgb(244,239,224)" transform="translate(0,0)"></path>
<path d="M 1410.54 180.41 C 1411.19 180.393 1411.84 180.357 1412.49 180.358 C 1459.64 180.462 1520.42 214.708 1553.45 247.198 C 1587.29 280.493 1617.42 327.17 1617.66 376.275 C 1617.79 402.514 1608.28 434.696 1589.3 453.463 C 1575.62 466.995 1562.33 472.472 1543.08 472.251 L 1533.35 465.669 C 1520.43 453.727 1501.63 440.717 1487.27 429.46 C 1442.97 394.78 1397.17 362.229 1353.14 327.237 C 1302.84 287.264 1312.5 266.844 1350.85 221.422 C 1366.74 202.596 1384.85 182.794 1410.54 180.41 z" fill="rgb(212,32,40)" transform="translate(0,0)"></path>
<path d="M 1346.64 279.304 C 1354.04 275.68 1358.15 263.201 1362.82 255.83 C 1415.51 172.681 1531.22 268.231 1561.65 324.493 C 1570.71 341.228 1572.14 360.844 1567.19 379.157 C 1563.96 391.851 1548.37 412.963 1537.65 421.019 C 1535.12 422.92 1531.08 421.296 1528.24 420.1 L 1527.02 418.635 C 1528.17 413.647 1542.66 403.152 1548.95 393.573 C 1508.64 364.377 1470.66 332.603 1429.75 304.279 C 1423.23 299.765 1416.48 294.648 1410.29 289.689 L 1412.16 288.883 C 1448.47 314.619 1485.49 337.141 1518.82 366.831 C 1524.51 371.893 1545.32 388.01 1550.92 389.649 C 1553.1 388.108 1553.07 386.872 1553.86 384.217 C 1545.97 381.221 1535.47 372.316 1528.45 367.036 C 1486.99 335.842 1443.7 302.982 1399.96 275.075 C 1394.92 283.964 1379.67 306.538 1370.61 310.167 C 1362.16 310.148 1361.72 306.323 1355.27 304.065 C 1357.26 308.49 1357.29 309.065 1360.82 312.171 L 1360.05 312.954 C 1346.01 300.902 1338.76 282.464 1348.52 265.476 C 1347.33 271.129 1346.98 273.547 1346.64 279.304 z" fill="rgb(137,6,27)" transform="translate(0,0)"></path>
<path d="M 1360.05 312.954 C 1346.01 300.902 1338.76 282.464 1348.52 265.476 C 1347.33 271.129 1346.98 273.547 1346.64 279.304 C 1347.57 289.154 1349.28 295.823 1355.27 304.065 C 1357.26 308.49 1357.29 309.065 1360.82 312.171 L 1360.05 312.954 z" fill="rgb(244,239,224)" transform="translate(0,0)"></path>
<path d="M 1438.81 239.858 C 1447.41 240.659 1455.47 245.16 1463.01 249.072 C 1489.17 262.646 1512.34 279.206 1531.9 301.476 C 1544.56 315.885 1564.89 342.865 1562.63 363.344 C 1562.35 365.896 1562.22 367.486 1560.11 369.119 C 1555.04 366.822 1550.78 362.672 1546.5 359.158 C 1505.78 326.447 1455.54 286.726 1409.93 262.512 C 1418.38 253.247 1427.95 246.039 1438.81 239.858 z" fill="rgb(244,239,224)" transform="translate(0,0)"></path>
<path d="M 1415.67 232.168 C 1421.31 231.695 1431.97 230.555 1436.91 233.314 L 1436.13 234.226 C 1435.14 234.369 1434.14 234.529 1433.15 234.704 C 1411.25 238.684 1388.8 275.402 1376.93 292.374 C 1374.55 295.196 1371.76 297.481 1368.96 299.877 C 1367.54 297.468 1366.22 295.037 1365.2 292.428 C 1362.22 284.819 1362.91 276.679 1366.41 269.363 C 1375.41 250.558 1396.79 238.596 1415.67 232.168 z" fill="rgb(212,32,40)" transform="translate(0,0)"></path>
<path d="M 1402.65 271.435 C 1409.43 265.683 1409.84 267.487 1417.63 272.548 C 1466.25 304.123 1513.72 339.31 1557.64 376.92 C 1559.39 378.422 1555.12 382.298 1554.24 383.118 C 1550.6 379.258 1527.14 362.218 1521.07 357.461 C 1496.88 338.494 1474.7 319.722 1448.75 303.149 C 1442.58 299.207 1405.16 274.407 1402.65 271.435 z" fill="rgb(212,32,40)" transform="translate(0,0)"></path>
<path d="M 1369.04 230.281 C 1382.54 216.288 1398.68 203.315 1419.23 204.047 C 1465.07 205.679 1512.36 244.735 1543.88 274.152 C 1590.1 317.276 1608.7 380.7 1558.11 427.775 C 1543.1 441.747 1533.35 443.952 1514.93 431.56 C 1472.79 400.976 1434.01 365.631 1391.88 334.998 C 1381.95 327.761 1369.11 320.86 1360.05 312.954 L 1360.82 312.171 C 1404.6 333.355 1437.94 363.783 1475.45 393.925 C 1491.81 405.568 1513.97 431.402 1535.03 432.109 C 1562.65 433.036 1584.7 388.976 1585.24 365.29 C 1585.88 337.007 1569.71 308.04 1550.03 288.558 C 1516.17 255.026 1468.62 214.956 1419.57 210.209 C 1401.09 209.174 1383.79 219.761 1371.11 232.03 L 1369.04 230.281 z" fill="rgb(244,239,224)" transform="translate(0,0)"></path>
<path d="M 1369.04 230.281 L 1371.11 232.03 C 1367.32 236.274 1363.3 240.078 1359.23 244.049 C 1362.94 237.94 1364.4 235.739 1369.04 230.281 z" fill="rgb(248,229,187)" transform="translate(0,0)"></path>
<path d="M 1585.77 269.582 C 1586.13 269.705 1587.06 270.011 1587.22 270.092 C 1590.42 271.789 1593.44 277.646 1595.56 280.622 C 1606.14 295.506 1615.85 308.999 1623.34 325.897 C 1636.64 355.931 1637.29 385.003 1625.21 415.455 C 1617.8 434.113 1605.02 459.747 1588.1 471.589 C 1584.34 474.221 1579.81 475.963 1575.61 477.779 C 1573.77 478.091 1571.98 478.245 1570.11 478.361 C 1570.44 476.856 1578.34 473.182 1580.12 472.054 C 1584.7 469.138 1589.01 465.582 1592.93 461.82 C 1605.17 450.048 1613.37 435.475 1618.82 419.469 C 1631.06 383.554 1626.38 341.908 1608.75 308.49 C 1601.7 295.143 1592.45 283.172 1585.77 269.582 z" fill="rgb(212,32,40)" transform="translate(0,0)"></path>
<path d="M 815.892 136.139 C 825.145 136.224 830.866 133.821 839.443 133.382 L 840.038 134.48 L 837.38 139.545 L 838.051 138.587 L 835.53 136.689 C 834.004 138.762 834.157 138.657 833.889 141.25 C 832.343 141.708 831.288 141.999 829.697 142.376 L 830.139 143.471 C 772.912 161.306 695.13 174.205 664.334 232.457 C 651.029 257.625 655.313 283.604 663.568 309.589 C 688.349 387.602 775.742 487.11 833.181 544.465 C 843.305 554.575 853.242 565.319 863.965 574.777 L 864.704 574.482 C 853.379 561.723 800.469 511.977 787.607 493.471 C 787.09 492.727 789.402 489.18 790.272 487.789 L 789.375 484.293 C 802.497 498.156 858.794 568.361 870.626 575.432 L 872.159 575.365 C 898.869 600.887 924.606 627.392 952.161 651.964 C 1010.89 704.33 1071.63 752.51 1135.96 797.82 C 1167.73 820.196 1209.9 851.298 1244.98 867.548 C 1260.04 879.256 1279.37 891.027 1295.74 901.164 C 1320.53 916.838 1345.73 931.841 1371.33 946.158 C 1482.29 1008.94 1801.87 1179.01 1920.65 1098.31 C 1922.6 1100.14 1923.09 1100.24 1924.05 1102.65 C 1923 1105.27 1923.32 1105.69 1920.75 1107.34 C 1876.88 1135.67 1815.16 1128.23 1766.99 1119.26 C 1704.96 1107.71 1650.61 1087.81 1593.08 1064.74 C 1472.41 1016.34 1361.23 950.519 1251.79 880.987 C 1189.2 841.214 1124.91 800.049 1065.52 755.592 C 1030.04 729.033 994.4 698.163 960.215 669.866 C 947.78 659.572 934.71 644.624 921.893 633.603 C 909.525 622.968 895.991 612.921 884.13 601.986 C 814.842 538.106 750.651 472.391 698.758 393.17 C 672.319 352.807 641.125 299.88 650.879 249.767 C 658.259 211.853 687.142 192.956 717.458 173.189 C 695.065 175.497 682.823 173.28 661.017 183.162 C 604.785 207.736 602.182 263.833 622.447 314.448 C 653.275 391.445 695.734 463.145 750.904 524.94 C 755.617 530.218 764.153 537.043 766.848 543.327 L 765.906 543.781 C 755.929 536.858 740.71 518.228 732.845 508.627 C 687.453 453.254 650.177 392.388 624.652 325.392 C 618.015 307.971 612.98 293.552 609.425 275.101 C 608.071 268.077 610.881 265.219 606.742 258.998 L 605.68 259.581 C 603.45 267.67 609.421 292.103 611.505 300.602 C 616.506 320.989 625.455 340.278 634.472 359.388 C 662.388 418.187 698.208 472.895 740.939 521.993 C 755.128 538.442 770.001 554.389 784.14 570.888 C 791.027 578.924 799.415 587.462 805.213 596.249 C 808.12 597.139 807.212 596.484 809.266 598.438 L 808.896 600.186 C 808.114 599.793 807.332 599.399 806.55 599.006 C 796.094 601.294 781.988 603.465 771.681 604.259 C 715.287 608.598 657.231 612.651 602.04 625.796 C 567.922 633.922 526.901 648.292 493.347 659.063 C 413.743 684.616 296.7 742.024 236.378 800.004 C 212.827 823.081 190.94 847.799 170.883 873.971 C 163.975 883.067 157.669 893.309 151.152 901.873 C 149.184 899.223 148.329 891.889 146.394 886.814 L 146.85 889.687 L 146.019 891.122 C 146.258 891.939 146.2 891.521 146.192 892.376 C 144.373 888.347 144.043 885.52 140.803 883.934 C 138.408 879.305 135.199 867.506 133.579 862.138 C 117.089 807.514 94.7225 712.327 141.774 668.07 C 152.109 650.661 201.691 615.667 219.97 604.016 C 234.858 594.527 267.123 577.769 283.728 574.764 C 351.487 562.501 422.609 586.531 487.773 602.785 C 514.066 609.394 542.85 618.501 569.086 622.977 C 575.345 624.044 604.037 617.193 612.153 615.623 C 632.949 611.602 653.973 606.606 675.037 603.499 C 716.287 597.413 759.429 594.907 801.099 592.777 C 788.467 579.666 777.303 565.992 765.258 552.72 C 710.741 492.652 661.929 427.142 629.125 352.537 C 617.044 327.56 609.271 304.953 604.715 277.832 C 593.035 208.294 642.31 165.706 708.581 164.015 C 714.481 163.864 732.349 164.866 737.098 163.064 C 763.204 153.151 787.765 140.343 815.892 136.139 z" fill="rgb(137,6,27)" transform="translate(0,0)"></path>
<path d="M 141.774 668.07 L 143.74 668.076 C 145.904 665.55 147.512 663.489 150.091 661.347 L 151.029 662.121 C 150.592 665.413 130.088 693.946 126.507 702.667 C 108.907 745.529 129.133 844.799 146.394 886.814 L 146.85 889.687 L 146.019 891.122 C 146.258 891.939 146.2 891.521 146.192 892.376 C 144.373 888.347 144.043 885.52 140.803 883.934 C 138.408 879.305 135.199 867.506 133.579 862.138 C 117.089 807.514 94.7225 712.327 141.774 668.07 z" fill="rgb(144,4,18)" transform="translate(0,0)"></path>
<path d="M 306.131 590.404 C 359.53 586.915 433.323 607.343 485.413 621.1 C 502.833 625.701 520.275 631.013 537.979 634.384 C 499.915 643.44 462.189 658.827 426.174 673.967 C 422.976 665.968 418.919 659.468 412.061 654.073 C 393.214 639.246 347.812 631.657 324.412 634.866 C 294.816 638.925 242.194 672.891 219.225 692.314 C 209.181 700.808 200.58 709.964 192.654 720.452 C 190.69 723.889 188.797 727.401 187.726 731.231 C 184.605 742.391 186.674 753.507 192.35 763.471 C 201.662 779.819 215.386 787.729 233.085 792.532 C 203.766 819.512 176.429 850.061 156.091 884.48 C 146.073 852.74 137.75 819.415 133.862 786.3 C 129.863 752.233 128.227 709.959 150.882 681.604 C 177.257 648.593 222.845 613.706 262.174 599.641 C 276.47 594.528 291.088 592.039 306.131 590.404 z" fill="rgb(212,32,40)" transform="translate(0,0)"></path>
<path d="M 164.879 710.958 C 177.904 670.925 226.24 643.462 261.989 624.44 C 318.704 594.263 345.003 598.926 404.448 615.54 C 406.211 616.033 408.149 616.929 409.808 617.723 L 410.097 618.796 C 405.393 618.761 395.498 616.409 390.949 615.268 C 337.431 601.839 307.15 606.046 258.306 633.359 C 219.325 655.157 191.767 673.526 166.306 713.09 L 164.879 710.958 z" fill="rgb(144,4,18)" transform="translate(0,0)"></path>
<path d="M 200.44 740.976 C 202.325 727.531 224.524 708.7 235.139 701.005 C 257.198 685.017 282.084 670.787 305.912 657.546 C 317.393 651.166 330.017 647.502 343.11 650.074 C 365.694 654.452 397.483 661.493 414.606 678.018 C 380.145 694.933 344.029 711.96 312.037 733.266 C 297.606 742.809 283.396 752.68 269.417 762.872 C 262.924 767.692 247.944 779.804 241.795 783.568 C 227.892 779.971 218.484 775.691 208.668 764.719 C 203.564 755.953 201.695 751.005 200.44 740.976 z" fill="rgb(244,239,224)" transform="translate(0,0)"></path>
<path d="M 872.159 575.365 C 871.267 573.886 858.95 561.27 856.94 559.06 C 790.437 486.074 726.64 408.748 686.465 317.736 C 672.695 285.311 651.456 250.36 685.912 222.523 C 734.426 183.329 794.249 162.303 854.705 149.925 C 862.191 148.392 879.065 144.366 886.073 144.728 C 878.643 148.267 876.317 149.481 869.333 155.096 C 861.695 161.238 854.872 170.216 847.35 176.459 C 846.054 176.607 844.758 176.755 843.462 176.903 C 792.572 184.003 766.855 199.832 724.397 226.035 C 708.821 235.647 696.693 240.068 683.368 254.591 C 701.232 246.506 723.834 232.969 741.286 223.123 C 778.523 202.116 805.459 192.277 846.259 180.947 C 821.935 226.558 843.034 276.915 864.489 318.793 C 870.948 330.346 877.257 341.983 883.414 353.7 C 846.15 318.802 805.69 248.357 825.099 195.899 C 806.34 202.336 790.728 211.606 772.839 219.178 C 738.192 233.845 705.858 251.31 672.28 268.183 C 725.242 396.417 803.744 487.586 900.985 583.803 C 955.615 637.668 1013.28 688.365 1073.7 735.648 C 1092.52 750.182 1242.5 858.245 1244.98 867.548 C 1209.9 851.298 1167.73 820.196 1135.96 797.82 C 1071.63 752.51 1010.89 704.33 952.161 651.964 C 924.606 627.392 898.869 600.887 872.159 575.365 z" fill="rgb(251,220,179)" transform="translate(0,0)"></path>
<path d="M 863.256 299.206 C 868.789 309.597 873.058 315.767 880.232 325.132 C 891.814 339.168 900.539 360.547 912.202 376.449 C 949.477 426.786 990.143 474.522 1033.92 519.323 C 1052.92 538.763 1074.51 558.281 1094.76 576.562 C 1241.14 706.786 1407.93 812.078 1588.45 888.232 C 1643.4 911.716 1705.94 934.184 1765.43 943.984 C 1777.63 945.995 1794.43 946.179 1807.03 946.791 L 1807.26 948.57 C 1801.05 954.709 1789.68 952.727 1780.53 954.685 C 1778.24 953.331 1754.73 950.492 1749.71 949.622 C 1727.74 945.814 1708.61 939.517 1687.48 932.997 C 1618.85 911.829 1555.45 883.039 1491.33 851.377 C 1308.17 760.929 1136.71 640.727 997.784 490.29 C 946.838 435.124 902.532 381.77 867.535 314.718 C 865.567 307.527 860.972 307.475 863.256 299.206 z" fill="rgb(144,4,18)" transform="translate(0,0)"></path>
<path d="M 927.84 142.903 C 984.752 140.035 1028.15 146.685 1082.61 161.843 C 1091.22 164.239 1106.28 165.456 1113.09 167.815 C 1091.44 169.299 1071.09 168.142 1050.16 174.794 C 1006.55 161.227 937.769 149.037 895.113 171.333 C 880.253 179.089 869.146 192.506 864.301 208.553 C 854.166 241.24 868.938 285.2 881.607 315.569 L 879.609 316.504 C 867.63 298.69 857.547 279.673 849.524 259.761 C 843.697 231.101 841.232 209.078 855.962 181.986 C 866.908 161.851 881.924 152.943 903.383 146.794 C 911.392 144.719 919.582 143.416 927.84 142.903 z" fill="rgb(248,229,187)" transform="translate(0,0)"></path>
<path d="M 1849.71 728.78 C 1869.43 758.092 1883.81 790.657 1892.2 824.974 C 1897.23 814.821 1888.29 807.506 1891.09 794.432 C 1889.85 792.221 1885.32 779.638 1884.25 776.787 L 1886.23 775.815 C 1893.73 786.687 1897.15 804.088 1900.85 809.523 C 1903.93 820.15 1907.27 846.043 1907.18 856.904 C 1904.77 889.22 1904.51 913.451 1878.32 936.773 C 1859.87 953.191 1835.49 956.418 1811.29 956.197 C 1802.98 955.331 1784.9 957.582 1780.53 954.685 C 1789.68 952.727 1801.05 954.709 1807.26 948.57 L 1807.03 946.791 L 1808.63 946.908 C 1812.63 942.407 1819.86 938.305 1825.21 935.39 C 1843.47 925.436 1859.91 915.687 1871.02 897.202 C 1896.13 855.43 1876.24 806.09 1861.65 764.372 C 1857.72 753.116 1852.62 741.821 1850.06 730.399 L 1849.71 728.78 z" fill="rgb(244,239,224)" transform="translate(0,0)"></path>
<path d="M 1884.25 776.787 L 1886.23 775.815 C 1893.73 786.687 1897.15 804.088 1900.85 809.523 C 1903.93 820.15 1907.27 846.043 1907.18 856.904 C 1904.77 889.22 1904.51 913.451 1878.32 936.773 C 1859.87 953.191 1835.49 956.418 1811.29 956.197 C 1802.98 955.331 1784.9 957.582 1780.53 954.685 C 1789.68 952.727 1801.05 954.709 1807.26 948.57 L 1807.03 946.791 L 1808.63 946.908 C 1817.34 947.113 1826.28 946.484 1834.9 945.355 C 1890.33 938.1 1900.83 880.75 1894.57 834.955 L 1892.2 824.974 C 1897.23 814.821 1888.29 807.506 1891.09 794.432 C 1889.85 792.221 1885.32 779.638 1884.25 776.787 z" fill="url(#Gradient7)" transform="translate(0,0)"></path>
<path d="M 1891.09 794.432 C 1897.93 807.608 1903.65 821.677 1894.57 834.955 L 1892.2 824.974 C 1897.23 814.821 1888.29 807.506 1891.09 794.432 z" fill="rgb(137,6,27)" transform="translate(0,0)"></path>
<path d="M 1907.18 856.904 C 1910.39 865.184 1912.43 876.669 1914.48 885.437 C 1926.02 934.635 1929.01 984.458 1923.07 1034.65 C 1921.5 1047.97 1918.57 1083.24 1908.09 1091.66 C 1901.99 1092.09 1902.28 1082.4 1902.82 1078.13 C 1909.78 1022.71 1916.16 969.307 1907.34 913.367 C 1903.83 925.986 1901.31 930.58 1894.54 941.885 C 1891.68 945.261 1888.66 949.01 1885.59 952.148 C 1878.04 958.763 1873.07 962.153 1864 966.614 C 1833.77 977.087 1809.1 974.308 1778.02 968.401 C 1771.34 967.131 1762.25 966.246 1756.36 963.003 L 1756.39 961.294 C 1766.02 955.772 1798.24 957.206 1811.29 956.197 C 1835.49 956.418 1859.87 953.191 1878.32 936.773 C 1904.51 913.451 1904.77 889.22 1907.18 856.904 z" fill="rgb(244,239,224)" transform="translate(0,0)"></path>
<path d="M 815.892 136.139 C 831.876 131.965 861.961 124.701 878.171 122.788 C 934.66 116.12 995.268 117.539 1051.24 127.865 C 1062.8 129.999 1088.91 134.23 1099.62 137.755 C 1102.78 140.138 1105 140.846 1106.94 142.274 C 1074.73 136.556 1044.41 129.54 1011.35 127.581 C 984.914 126.014 958.027 125.765 931.472 126.777 C 921.086 127.172 910.969 127.031 900.638 127.461 C 878.371 130.822 852.261 140.405 830.139 143.471 L 829.697 142.376 C 831.288 141.999 832.343 141.708 833.889 141.25 C 834.157 138.657 834.004 138.762 835.53 136.689 L 838.051 138.587 L 837.38 139.545 L 840.038 134.48 L 839.443 133.382 C 830.866 133.821 825.145 136.224 815.892 136.139 z" fill="rgb(144,4,18)" transform="translate(0,0)"></path>
<path d="M 1894.54 941.885 C 1895.54 956.867 1898.02 981.989 1898.64 996.051 C 1899.37 1012.55 1891.62 1084.61 1883.16 1095.32 L 1882.04 1094.58 C 1879.66 1081.5 1885.48 1052.16 1886.42 1037.38 C 1887.95 1013.28 1889.28 979.719 1885.9 956.134 L 1885.59 952.148 C 1888.66 949.01 1891.68 945.261 1894.54 941.885 z" fill="rgb(137,6,27)" transform="translate(0,0)"></path>
<path d="M 140.803 883.934 C 144.043 885.52 144.373 888.347 146.192 892.376 C 146.2 891.521 146.258 891.939 146.019 891.122 L 146.85 889.687 L 146.394 886.814 C 148.329 891.889 149.184 899.223 151.152 901.873 C 146.973 909.087 133.809 929.692 131.3 935.617 C 118.521 965.795 93.6905 1033.09 95.0222 1064.41 C 87.2226 1080.82 92.76 1118.2 89.3959 1134.58 C 87.3635 1116.67 89.5681 1093.39 90.6885 1075.23 C 91.295 1065.4 94.4981 1058.13 94.0093 1047.21 C 94.6111 1045.21 94.4872 1045.02 94.6521 1042.9 C 92.6341 1039.59 93.4108 1040.66 89.4797 1038.67 C 101.489 977.021 117.16 951.372 144.695 896.48 L 140.803 883.934 z" fill="rgb(137,6,27)" transform="translate(0,0)"></path>
<path d="M 1785.68 611.346 C 1796.83 623.233 1807.15 638.185 1816.63 651.504 C 1835.71 678.489 1854.62 705.878 1869.45 735.489 C 1872.66 741.88 1880.13 753.001 1882.22 758.918 C 1887.42 773.64 1899.07 793.763 1901.32 808.655 L 1900.85 809.523 C 1897.15 804.088 1893.73 786.687 1886.23 775.815 L 1884.25 776.787 C 1867.96 742.547 1813.61 645.458 1786.54 619.837 C 1785.04 617.365 1784.46 616.644 1783.52 613.882 L 1785.68 611.346 z" fill="rgb(137,6,27)" transform="translate(0,0)"></path>
<path d="M 925.079 135.235 C 943.899 133.035 964.843 130.707 983.778 131.07 C 1000.5 131.391 1018.17 134.154 1034.8 136.05 L 1036.09 136.335 C 1046.48 138.557 1061.75 139.64 1070.65 142.045 C 1096.64 149.071 1123.02 155.855 1148.86 163.265 C 1151.35 164.099 1160.31 166.908 1162.15 167.875 C 1162.39 169.236 1162.11 168.482 1163.19 170.142 C 1159.43 170.688 1153.12 167.097 1148.22 166.182 C 1131.65 160.902 1113.94 157.321 1097.02 153.488 C 1037.78 140.071 991.214 135.237 931.104 137.099 L 925.715 137.07 L 925.079 135.235 z" fill="rgb(137,6,27)" transform="translate(0,0)"></path>
<path d="M 1959.27 1096.17 L 1960.18 1100.79 C 1964.23 1099.08 1964.04 1099.21 1968.49 1099.38 L 1966.4 1111.2 C 1949.39 1165.21 1896.87 1178.18 1845.54 1176.63 C 1836.7 1176.36 1827.6 1175.27 1818.86 1175.03 L 1818.65 1174.02 C 1823.41 1173.16 1839.33 1174.31 1845.19 1174.67 C 1871.99 1176.34 1894.22 1173.02 1918.98 1162.53 C 1923.75 1160.51 1931.57 1157.2 1933.42 1152.44 C 1929.89 1151.4 1930.34 1155.6 1924.96 1155.66 L 1925.21 1154.34 C 1927.72 1153.29 1928.28 1153.4 1929.84 1151.3 L 1928.92 1150.7 C 1918.91 1154.45 1916.3 1158.31 1908.37 1162.16 C 1879.09 1176.37 1844.83 1170.57 1813.69 1167.51 C 1807.53 1166.91 1791.57 1165.51 1786.65 1163.85 C 1788.18 1162.77 1837.62 1168.9 1845.18 1168.88 C 1860.48 1168.84 1876.6 1169.08 1892.19 1165.43 C 1899.62 1163.69 1911.27 1158.61 1917.36 1154.52 C 1923.56 1150.36 1931.09 1151.08 1933.04 1149.52 C 1947.98 1137.56 1956.31 1113.25 1959.27 1096.17 z" fill="rgb(137,6,27)" transform="translate(0,0)"></path>
<path d="M 1960.18 1100.79 C 1964.23 1099.08 1964.04 1099.21 1968.49 1099.38 L 1966.4 1111.2 C 1960.92 1108.04 1960.75 1107.02 1960.18 1100.79 z" fill="rgb(137,6,27)" transform="translate(0,0)"></path>
<path d="M 1217.14 173.664 C 1230.24 178.188 1323.64 215.939 1331.12 223.357 L 1334.97 227.502 L 1334.15 228.087 C 1330.05 226.791 1328.04 226.054 1323.83 225.484 C 1290.08 209.381 1255.95 192.946 1220.95 179.805 C 1223.5 179.015 1222.73 179.777 1224.06 178.077 C 1219.82 176.258 1219.02 176.81 1217.14 173.664 z" fill="rgb(121,10,24)" transform="translate(0,0)"></path>
<path d="M 1099.62 137.755 C 1109.3 139.505 1164.36 153.382 1172.81 157.67 C 1182.8 160.691 1208.1 168.988 1217.14 173.664 C 1219.02 176.81 1219.82 176.258 1224.06 178.077 C 1222.73 179.777 1223.5 179.015 1220.95 179.805 C 1201.99 173.399 1183.4 168.486 1164.8 160.228 C 1156.91 156.722 1145.76 154.171 1137.13 151.075 C 1129.29 149.287 1113.56 145.973 1106.94 142.274 C 1105 140.846 1102.78 140.138 1099.62 137.755 z" fill="rgb(137,6,27)" transform="translate(0,0)"></path>
<path d="M 1099.62 137.755 C 1109.3 139.505 1164.36 153.382 1172.81 157.67 L 1172.01 158.672 C 1161.79 156.862 1150.49 151.297 1138.37 149.663 L 1137.13 151.075 C 1129.29 149.287 1113.56 145.973 1106.94 142.274 C 1105 140.846 1102.78 140.138 1099.62 137.755 z" fill="rgb(121,10,24)" transform="translate(0,0)"></path>
<path d="M 1937.94 1109.17 C 1939.88 1102.36 1938.5 1094.76 1945.87 1092.81 C 1945.39 1097.18 1944.86 1101.55 1944.28 1105.92 C 1932.42 1140.7 1898.64 1160.39 1862.55 1157.58 C 1889.34 1150.02 1930 1141.87 1937.94 1109.17 z" fill="rgb(244,239,224)" transform="translate(0,0)"></path>
<path d="M 89.4797 1038.67 C 93.4108 1040.66 92.6341 1039.59 94.6521 1042.9 C 94.4872 1045.02 94.6111 1045.21 94.0093 1047.21 C 90.9461 1048.18 91.0536 1047.43 90.1322 1049.36 C 83.7686 1062.71 88.5607 1123.9 85.2245 1132.66 C 82.1352 1097.59 84.2084 1073.03 89.4797 1038.67 z" fill="rgb(144,4,18)" transform="translate(0,0)"></path>
<path d="M 881.607 315.569 C 883.256 318.591 884.266 319.984 884.886 323.416 C 884.521 323.166 884.155 322.916 883.79 322.665 L 879.609 316.504 L 881.607 315.569 z" fill="rgb(213,154,130)" transform="translate(0,0)"></path>
<path d="M 776.9 999.427 L 778.035 999.112 C 783.724 992.908 794.067 986.221 802.091 992.38 C 935.651 991.408 1058.29 1019.72 1176.48 1083.1 C 1234.27 1114.09 1281.53 1165.09 1321.58 1216.08 C 1328.06 1224.35 1332.9 1237.38 1338.59 1246.12 L 1339.59 1245.62 L 1340.61 1246.14 L 1340.7 1245.53 L 1338.94 1243.82 L 1340.14 1241.2 C 1341.91 1243.01 1341.42 1242.53 1342.63 1244.88 L 1343.78 1244.68 L 1342.88 1241.61 L 1343.79 1240.87 C 1344.85 1243.99 1345.07 1244.12 1345.04 1247.52 C 1343.52 1248.14 1344.36 1247.94 1342.51 1248.03 L 1342.41 1248.89 C 1343.55 1253.08 1343.71 1254.21 1345.79 1257.92 L 1345.96 1254.2 C 1349.6 1261.09 1351.31 1264.78 1354.09 1272.05 C 1382.33 1344.24 1391.31 1425.69 1361.14 1499.41 C 1352.78 1519.83 1336.77 1548.75 1324.52 1567.06 C 1318.91 1569.56 1312.5 1572.25 1307.05 1574.93 C 1307.96 1576.58 1308.4 1576.65 1308.31 1578.03 C 1307.12 1577.74 1303.5 1576.76 1302.12 1577.29 C 1290.5 1581.69 1277.52 1586.91 1266.31 1592.24 C 1265.16 1592.79 1263 1594.57 1262.41 1594.89 C 1256.29 1598.1 1252.19 1596.57 1246.28 1601.02 L 1244.5 1600.64 L 1243.84 1598.72 C 1251.28 1594.86 1257.16 1598.5 1259.43 1589.03 C 1260.91 1589.18 1260.38 1588.85 1261.17 1589.68 C 1274.39 1581.71 1295.96 1563.11 1303.86 1549.88 C 1318.27 1525.74 1333.61 1489.82 1339.63 1462.66 C 1358.77 1376.32 1358.37 1292.58 1309.12 1215.25 C 1271.57 1156.29 1219.38 1112.36 1157.47 1079.96 C 1145.99 1073.94 1128.4 1063.78 1116.27 1060.09 L 1117.33 1060.95 C 1129.59 1070.64 1143.72 1076.94 1157.29 1084.39 C 1167.45 1089.97 1177.43 1096.48 1187.05 1102.75 C 1243.38 1139.43 1287.39 1180.15 1316.91 1241.82 C 1329.94 1269.03 1340.54 1292.81 1343.82 1324.61 C 1349.98 1384.39 1340.91 1474.12 1305.43 1522.81 C 1291.81 1541.48 1250.18 1568.74 1230 1582.21 C 1223.65 1586.45 1211.24 1593.05 1205.87 1597.42 C 1197.13 1601.28 1183.18 1609.3 1174.51 1611.39 C 1110.4 1626.89 1035.27 1636.73 969.818 1632.06 L 971.196 1631.71 C 990.753 1626.88 1023.65 1627.97 1047 1623.81 C 1115.84 1611.52 1183.83 1594.22 1243.6 1556.52 C 1267.23 1541.61 1288.52 1526.88 1303.52 1502.52 C 1313.08 1487 1324.52 1455.4 1327.64 1437.7 C 1334.42 1399.2 1337.72 1338.5 1328.7 1300.81 C 1322.05 1273.01 1300.9 1223.6 1284.62 1200.94 C 1255.23 1159.99 1211.29 1121.38 1168.34 1094.99 C 1162.49 1091.39 1154.54 1087.1 1148.19 1084.69 C 1165.87 1097.96 1185.54 1108.83 1203.37 1123.06 C 1229.35 1143.81 1258.56 1172.21 1277.53 1199.41 C 1298.5 1229.48 1321.14 1284.7 1325.88 1320.5 C 1330.83 1357.84 1326.56 1422.56 1315.56 1458.24 C 1310.21 1476.25 1301.72 1493.17 1290.5 1508.23 C 1274.57 1529.21 1248.77 1545.97 1225.78 1558.56 C 1214.16 1564.92 1194.29 1576.81 1182.56 1581.6 C 1133.15 1601.78 1064.55 1616.5 1011.85 1622.88 C 924.846 1633.41 803.072 1624.03 718.576 1602.04 C 706.32 1600.18 682.503 1592.38 670.359 1588.46 C 614.607 1570.48 561.002 1548.14 510.898 1517.68 C 471.556 1493.76 420.682 1446.21 409.984 1399.93 C 408.103 1393.44 407.364 1388.89 406.252 1382.24 C 396.286 1334.55 408.047 1286.94 425.732 1242.12 C 439.249 1207.87 462.326 1169.92 488.882 1143.52 C 491.255 1141.16 497.969 1139.61 501.168 1138.87 C 552.998 1129.13 578.402 1124.11 629.4 1140.77 C 622.483 1157.98 604.144 1176.74 592.761 1193.42 C 546.241 1261.58 532.863 1349.67 564.506 1426.77 C 568.178 1435.72 582.862 1470.16 589.417 1474.2 L 591.285 1474.11 C 592.15 1464.97 591.552 1467.02 595.362 1458.15 C 594.81 1457.96 592.728 1457.95 592.034 1457.92 C 589.694 1460.56 591.101 1459.95 588.124 1460.6 C 585.576 1458.67 584.045 1452.81 582.847 1449.48 C 582.514 1448.59 581.298 1445 581.065 1444.52 C 576.198 1434.53 576.973 1416.69 571.368 1407.93 L 570.561 1408.27 C 570.044 1407.77 569.335 1407.16 569.069 1406.49 C 553.362 1366.63 556.806 1315.73 565.873 1274.38 C 575.445 1230.72 608.449 1191.33 631.775 1154.36 C 632.776 1152.78 636.302 1132.37 637.065 1128.93 L 638.334 1129.04 C 643.775 1113.25 647.439 1110.24 656.117 1096.77 C 676.101 1065.73 690.823 1046.42 721.625 1024.43 L 722.564 1026.52 L 730.943 1021.26 L 730.328 1026.41 C 724.248 1032.82 719.821 1037.57 714.413 1044.49 C 708.879 1051.7 703.596 1059.1 698.572 1066.67 C 677.961 1097 662.025 1125.99 649.537 1160.52 C 645.655 1171.25 640.318 1184.28 638.955 1195.64 L 640.213 1195.89 C 647.024 1169.65 664.148 1127.49 677.404 1103.37 C 682.447 1094.2 693.636 1078.5 699.593 1068.89 C 711.759 1051.63 725.99 1032.98 743.344 1020.73 C 752.125 1014.53 767.143 1002.96 776.9 999.427 z" fill="rgb(251,220,179)" transform="translate(0,0)"></path>
<path d="M 776.9 999.427 L 778.035 999.112 C 783.724 992.908 794.067 986.221 802.091 992.38 C 789.792 1003.05 777.71 1012.29 765.423 1023.39 C 740.461 1045.95 724.421 1068.34 704.232 1094.57 C 726.401 1086.88 747.738 1085.88 771.023 1083.92 C 876.553 1074.67 982.634 1093.88 1078.21 1139.56 C 1127.91 1163.71 1200.49 1227.52 1237.8 1269.14 C 1250.69 1283.51 1269.06 1309.85 1279.7 1326.1 C 1280.47 1328.97 1283.18 1335.16 1285.11 1337.42 L 1287.27 1337.14 C 1288.81 1342.85 1290.59 1349.7 1290.2 1355.55 C 1288.13 1386.85 1273.27 1432.12 1258.04 1458.75 C 1236.89 1495.19 1206.19 1525.15 1169.25 1545.4 C 1155.7 1552.89 1141.32 1558.84 1127.79 1565.94 C 1187.15 1551.66 1258.05 1513.92 1281.86 1454.19 C 1283.85 1449.19 1286.38 1439.72 1289.05 1435.73 C 1285.52 1467.32 1263.11 1498.61 1238.48 1517.51 C 1201.16 1546.15 1170.46 1557.7 1125.61 1568.38 C 1099.52 1574.59 1076.17 1580.87 1049.08 1583.9 C 997.397 1589.69 944.223 1584.72 892.837 1577.97 C 827.973 1569.03 764.019 1553.86 702.153 1532.25 C 676.859 1523.42 651.296 1516.04 626.822 1503.59 C 564.402 1471.82 496.956 1429.71 451.501 1375.88 C 434.586 1355.85 420.65 1314.79 414.628 1289.11 C 418.753 1295.55 424.551 1308.95 426.774 1316.19 C 442.993 1368.97 473.145 1397.76 516.755 1429.89 C 555.525 1458.46 597.799 1486.87 642.57 1506.33 C 661.892 1514.91 684.26 1521.73 704.301 1528.6 C 804.132 1562.85 910.071 1585.29 1016.05 1581.46 C 1039.47 1580.61 1061.44 1577.9 1084.28 1572.8 C 1095.55 1570.05 1108.92 1568.39 1119.59 1563.93 C 1195.13 1532.39 1255.64 1480.25 1275.76 1398.04 C 1279.56 1382.5 1282.78 1370.95 1285.11 1354.71 C 1270.76 1344.95 1252.53 1335.27 1237.28 1326.43 L 1159.48 1280.65 C 1047.68 1214 919.113 1135.72 789.207 1105.34 C 766.64 1100.06 718.955 1101.39 696.747 1105.62 C 689.93 1115.18 682.971 1124.63 677.925 1135.28 C 695.818 1145.83 714.424 1151.33 733.383 1159.39 C 757.541 1169.66 781.843 1181.36 805.191 1193.36 C 935.373 1260.29 990.663 1315.17 1056.44 1446.45 C 1072.17 1477.83 1089.82 1510.2 1098.8 1544.29 C 1099.99 1548.8 1102.5 1556.32 1100.4 1560.66 C 1096.13 1561.56 1093.73 1556.67 1091.25 1553.39 L 1086.84 1549.74 C 1061.21 1535.36 1043.93 1518.61 1022.55 1499.04 C 924.342 1409.17 843.721 1301.39 747.374 1209.63 C 724.175 1187.53 701.59 1162.6 675.059 1144.41 C 668.037 1159.18 660.637 1174.19 654.382 1189.24 C 621.856 1267.49 613.858 1350.05 600.362 1432.75 C 599.076 1440.62 597.712 1450.69 595.362 1458.15 C 594.81 1457.96 592.728 1457.95 592.034 1457.92 C 589.694 1460.56 591.101 1459.95 588.124 1460.6 C 585.576 1458.67 584.045 1452.81 582.847 1449.48 C 582.514 1448.59 581.298 1445 581.065 1444.52 C 576.198 1434.53 576.973 1416.69 571.368 1407.93 L 570.561 1408.27 C 570.044 1407.77 569.335 1407.16 569.069 1406.49 C 553.362 1366.63 556.806 1315.73 565.873 1274.38 C 575.445 1230.72 608.449 1191.33 631.775 1154.36 C 632.776 1152.78 636.302 1132.37 637.065 1128.93 L 638.334 1129.04 C 643.775 1113.25 647.439 1110.24 656.117 1096.77 C 676.101 1065.73 690.823 1046.42 721.625 1024.43 L 722.564 1026.52 L 730.943 1021.26 L 730.328 1026.41 C 724.248 1032.82 719.821 1037.57 714.413 1044.49 C 708.879 1051.7 703.596 1059.1 698.572 1066.67 C 677.961 1097 662.025 1125.99 649.537 1160.52 C 645.655 1171.25 640.318 1184.28 638.955 1195.64 L 640.213 1195.89 C 647.024 1169.65 664.148 1127.49 677.404 1103.37 C 682.447 1094.2 693.636 1078.5 699.593 1068.89 C 711.759 1051.63 725.99 1032.98 743.344 1020.73 C 752.125 1014.53 767.143 1002.96 776.9 999.427 z" fill="rgb(144,4,18)" transform="translate(0,0)"></path>
<path d="M 571.368 1407.93 L 570.561 1408.27 C 570.044 1407.77 569.335 1407.16 569.069 1406.49 C 553.362 1366.63 556.806 1315.73 565.873 1274.38 C 575.445 1230.72 608.449 1191.33 631.775 1154.36 C 632.776 1152.78 636.302 1132.37 637.065 1128.93 L 638.334 1129.04 C 637.105 1136.14 635.172 1145.7 634.796 1152.65 C 633.755 1155.69 633.861 1155.48 634.693 1158.62 C 632.878 1170.25 631.162 1190.38 632.22 1202.43 C 634.039 1210.06 632.102 1219.09 634.691 1223.8 L 633.757 1227.87 L 631.674 1226.04 C 631.035 1229.57 630.944 1232.53 629.029 1235.35 L 628.293 1234.98 L 627.709 1229.83 C 626.474 1232.26 625.866 1232.97 625.594 1235.68 C 625.301 1239.81 622.61 1254.73 623.596 1257.13 C 618.958 1278.34 613.192 1299.29 608.69 1320.98 C 600.139 1362.64 593.364 1404.63 588.382 1446.86 C 585.642 1447.62 584.907 1447.54 582.847 1449.48 C 582.514 1448.59 581.298 1445 581.065 1444.52 C 576.198 1434.53 576.973 1416.69 571.368 1407.93 z" fill="rgb(144,4,18)" transform="translate(0,0)"></path>
<path d="M 616.335 1221.06 C 618.872 1218.95 618.679 1219.51 620.291 1216.76 C 621.814 1221.28 624.548 1233.53 625.594 1235.68 C 625.301 1239.81 622.61 1254.73 623.596 1257.13 C 618.958 1278.34 613.192 1299.29 608.69 1320.98 C 600.139 1362.64 593.364 1404.63 588.382 1446.86 C 585.642 1447.62 584.907 1447.54 582.847 1449.48 C 582.514 1448.59 581.298 1445 581.065 1444.52 C 576.198 1434.53 576.973 1416.69 571.368 1407.93 L 567.574 1397.46 L 568.937 1395.79 C 569.672 1395.74 570.407 1395.7 571.141 1395.65 C 571.891 1395.45 572.64 1395.25 573.39 1395.05 C 573.682 1383.9 574.83 1358.53 576.008 1348.71 C 580.515 1311.15 589.185 1277.19 605.593 1243.11 C 608.862 1236.32 612.548 1227.31 616.335 1221.06 z" fill="rgb(251,202,143)" transform="translate(0,0)"></path>
<path d="M 608.21 1289.57 L 609.104 1290.53 C 610.298 1296.44 605.819 1308.08 604.333 1314.25 C 602.597 1305.85 605.972 1297.64 608.21 1289.57 z" fill="rgb(237,163,90)" transform="translate(0,0)"></path>
<path d="M 622.778 1202.99 C 622.388 1208.63 618.523 1215.28 616.335 1221.06 C 612.548 1227.31 608.862 1236.32 605.593 1243.11 C 589.185 1277.19 580.515 1311.15 576.008 1348.71 C 574.83 1358.53 573.682 1383.9 573.39 1395.05 C 572.64 1395.25 571.891 1395.45 571.141 1395.65 C 570.407 1395.7 569.672 1395.74 568.937 1395.79 C 567.433 1391.21 567.405 1389.8 566.906 1384.91 C 566.919 1358.15 568.426 1351.22 570.993 1325.78 C 576.062 1295.76 585.573 1263.44 599.862 1236.41 C 604.279 1228.05 614.074 1215.1 619.833 1207.15 L 622.778 1202.99 z" fill="rgb(144,4,18)" transform="translate(0,0)"></path>
<path d="M 615.145 1186.18 L 617.636 1186.41 C 617.374 1189.65 616.209 1190.63 614.389 1193.66 L 615.364 1194.78 C 614.836 1197.23 613.803 1201.45 613.535 1203.78 L 615.795 1204.52 L 616.418 1205.61 L 619.833 1207.15 C 614.074 1215.1 604.279 1228.05 599.862 1236.41 C 585.573 1263.44 576.062 1295.76 570.993 1325.78 L 569.437 1324.85 C 570.879 1297.66 574.586 1279.43 583.146 1253.25 C 587.012 1241.43 609.487 1205.92 609.082 1198.82 C 609.799 1194.75 612.997 1189.9 615.145 1186.18 z" fill="rgb(251,220,179)" transform="translate(0,0)"></path>
<path d="M 613.535 1203.78 L 615.795 1204.52 L 616.418 1205.61 C 614.223 1211.62 601.935 1227.24 597.369 1235.19 C 589.886 1248.21 589.076 1256.43 583.371 1268.7 L 582.915 1268.16 C 583.295 1255.98 596.809 1231.35 603.959 1220.56 C 607.247 1215.6 611.994 1209.41 613.535 1203.78 z" fill="rgb(212,32,40)" transform="translate(0,0)"></path>
<path d="M 609.082 1198.82 C 609.487 1205.92 587.012 1241.43 583.146 1253.25 C 574.586 1279.43 570.879 1297.66 569.437 1324.85 L 567.164 1319.31 L 566.439 1326.49 L 564.795 1326.93 L 561.049 1323.54 C 560.717 1314.96 563.045 1301.4 564.421 1292.58 L 567.876 1294.06 C 567.961 1290.44 568.103 1289.39 568.707 1285.79 C 574.562 1275.3 581.914 1248.11 587.456 1235.5 C 593.892 1220.85 599.701 1212.82 608.339 1199.25 L 609.082 1198.82 z" fill="rgb(212,32,40)" transform="translate(0,0)"></path>
<path d="M 567.876 1294.06 L 569.85 1288.29 L 570.818 1287.82 C 569.693 1299.02 566.939 1307.88 567.164 1319.31 L 566.439 1326.49 L 564.795 1326.93 L 561.049 1323.54 C 560.717 1314.96 563.045 1301.4 564.421 1292.58 L 567.876 1294.06 z" fill="rgb(251,220,179)" transform="translate(0,0)"></path>
<path d="M 605.029 1197.83 L 608.339 1199.25 C 599.701 1212.82 593.892 1220.85 587.456 1235.5 C 581.914 1248.11 574.562 1275.3 568.707 1285.79 C 567.2 1282.93 567.198 1281.54 566.508 1278.33 C 574.862 1246.25 586.657 1224.91 605.029 1197.83 z" fill="rgb(244,239,224)" transform="translate(0,0)"></path>
<path d="M 567.164 1319.31 L 569.437 1324.85 L 570.993 1325.78 C 568.426 1351.22 566.919 1358.15 566.906 1384.91 L 563.541 1383.7 C 559.664 1368.35 559.733 1339.57 561.049 1323.54 L 564.795 1326.93 L 566.439 1326.49 L 567.164 1319.31 z" fill="rgb(251,202,143)" transform="translate(0,0)"></path>
<path d="M 628.502 1162.16 C 626.827 1174.67 625.736 1187.26 625.233 1199.88 C 624.55 1200.69 623.194 1202.14 622.778 1202.99 L 619.833 1207.15 L 616.418 1205.61 L 615.795 1204.52 L 613.535 1203.78 C 613.803 1201.45 614.836 1197.23 615.364 1194.78 L 614.389 1193.66 C 616.209 1190.63 617.374 1189.65 617.636 1186.41 L 615.145 1186.18 L 613.378 1185.41 C 618.162 1178.23 624.304 1169.52 628.502 1162.16 z" fill="rgb(251,202,143)" transform="translate(0,0)"></path>
<path d="M 615.364 1194.78 C 617.49 1199.13 616.585 1198.68 615.795 1204.52 L 613.535 1203.78 C 613.803 1201.45 614.836 1197.23 615.364 1194.78 z" fill="rgb(237,163,90)" transform="translate(0,0)"></path>
<path d="M 625.233 1199.88 C 626.757 1207.32 626.715 1221.17 627.709 1229.83 C 626.474 1232.26 625.866 1232.97 625.594 1235.68 C 624.548 1233.53 621.814 1221.28 620.291 1216.76 C 618.679 1219.51 618.872 1218.95 616.335 1221.06 C 618.523 1215.28 622.388 1208.63 622.778 1202.99 C 623.194 1202.14 624.55 1200.69 625.233 1199.88 z" fill="rgb(237,163,90)" transform="translate(0,0)"></path>
<path d="M 566.508 1278.33 C 567.198 1281.54 567.2 1282.93 568.707 1285.79 C 568.103 1289.39 567.961 1290.44 567.876 1294.06 L 564.421 1292.58 C 565.088 1287.83 565.784 1283.08 566.508 1278.33 z" fill="rgb(251,202,143)" transform="translate(0,0)"></path>
<path d="M 613.378 1185.41 L 615.145 1186.18 C 612.997 1189.9 609.799 1194.75 609.082 1198.82 L 608.339 1199.25 L 605.029 1197.83 L 613.378 1185.41 z" fill="rgb(248,229,187)" transform="translate(0,0)"></path>
<path d="M 632.22 1202.43 C 634.039 1210.06 632.102 1219.09 634.691 1223.8 L 633.757 1227.87 L 631.674 1226.04 C 632.346 1220.94 632.155 1208.1 632.22 1202.43 z" fill="rgb(243,198,180)" transform="translate(0,0)"></path>
<path d="M 563.541 1383.7 L 566.906 1384.91 C 567.405 1389.8 567.433 1391.21 568.937 1395.79 L 567.574 1397.46 C 565.684 1392.47 564.811 1388.81 563.541 1383.7 z" fill="rgb(251,202,143)" transform="translate(0,0)"></path>
<path d="M 771.532 1199.3 C 784.683 1206.58 799.427 1219.78 813.127 1228.59 C 835.076 1242.7 857.233 1257.08 877.469 1273.62 C 943.864 1327.89 984.6 1394.26 1034.38 1462.04 C 1045.32 1476.94 1075.31 1526.43 1085.47 1535.59 L 1088.27 1536.86 L 1089.34 1540.24 L 1085.52 1543.54 C 1071.52 1530.6 1058.08 1516.66 1043.63 1504.09 C 1038.7 1499.8 1033.24 1494.75 1028.81 1489.95 L 1029.49 1487.32 C 1027.84 1483.43 1022.44 1477.73 1019.43 1473.74 C 1016.03 1466.83 987.703 1439.97 980.581 1431.61 C 944.471 1389.2 905.426 1350.76 870.105 1307.52 C 859.216 1294.19 845.984 1281.16 834.618 1267.31 C 828.619 1261.7 824.485 1256.59 819.197 1250.27 C 813.387 1244.54 772.404 1202.36 771.532 1199.3 z" fill="rgb(251,202,143)" transform="translate(0,0)"></path>
<path d="M 744.268 1181.23 C 743.623 1180.05 742.085 1179.3 740.916 1178.49 L 741.912 1176.28 C 821.609 1210.47 911.377 1259.14 968.517 1325.37 C 995.642 1356.81 1022.86 1402.52 1041.26 1439.58 C 1054.18 1465.6 1081.38 1510.51 1088.27 1536.86 L 1085.47 1535.59 C 1075.31 1526.43 1045.32 1476.94 1034.38 1462.04 C 984.6 1394.26 943.864 1327.89 877.469 1273.62 C 857.233 1257.08 835.076 1242.7 813.127 1228.59 C 799.427 1219.78 784.683 1206.58 771.532 1199.3 C 769.966 1196.93 767.026 1196.95 764.156 1196.33 C 758.135 1192.38 748.626 1186.58 744.268 1181.23 z" fill="rgb(251,220,179)" transform="translate(0,0)"></path>
<path d="M 744.268 1181.23 C 764.242 1190.32 780.878 1201.48 799.718 1211.62 C 821.041 1223.09 836.711 1231.76 856.936 1245.24 C 904.54 1276.98 945.715 1321.86 980.782 1366.73 C 992.058 1381.15 1004.69 1401.45 1015.44 1416.64 C 1035.41 1444.89 1054.22 1475.81 1070.3 1506.45 C 1074.95 1515.32 1081.63 1526.73 1085.47 1535.59 C 1075.31 1526.43 1045.32 1476.94 1034.38 1462.04 C 984.6 1394.26 943.864 1327.89 877.469 1273.62 C 857.233 1257.08 835.076 1242.7 813.127 1228.59 C 799.427 1219.78 784.683 1206.58 771.532 1199.3 C 769.966 1196.93 767.026 1196.95 764.156 1196.33 C 758.135 1192.38 748.626 1186.58 744.268 1181.23 z" fill="rgb(144,4,18)" transform="translate(0,0)"></path>
<path d="M 699.593 1068.89 C 711.759 1051.63 725.99 1032.98 743.344 1020.73 C 752.125 1014.53 767.143 1002.96 776.9 999.427 C 770.183 1006.01 763.368 1012.71 756.625 1019.06 C 709.96 1063.06 673.826 1119.5 651.749 1179.67 C 646.355 1194.37 639.622 1208.71 634.691 1223.8 C 632.102 1219.09 634.039 1210.06 632.22 1202.43 C 631.162 1190.38 632.878 1170.25 634.693 1158.62 C 633.861 1155.48 633.755 1155.69 634.796 1152.65 C 635.172 1145.7 637.105 1136.14 638.334 1129.04 C 643.775 1113.25 647.439 1110.24 656.117 1096.77 C 676.101 1065.73 690.823 1046.42 721.625 1024.43 L 722.564 1026.52 L 730.943 1021.26 L 730.328 1026.41 C 724.248 1032.82 719.821 1037.57 714.413 1044.49 C 708.879 1051.7 703.596 1059.1 698.572 1066.67 C 677.961 1097 662.025 1125.99 649.537 1160.52 C 645.655 1171.25 640.318 1184.28 638.955 1195.64 L 640.213 1195.89 C 647.024 1169.65 664.148 1127.49 677.404 1103.37 C 682.447 1094.2 693.636 1078.5 699.593 1068.89 z" fill="rgb(251,220,179)" transform="translate(0,0)"></path>
<path d="M 730.943 1021.26 L 730.328 1026.41 C 724.248 1032.82 719.821 1037.57 714.413 1044.49 L 712.555 1042.53 C 688.934 1066.34 658.374 1102.74 646.206 1134.22 L 642.828 1132.21 L 638.514 1147.07 L 636.384 1152.09 L 634.796 1152.65 C 635.172 1145.7 637.105 1136.14 638.334 1129.04 C 643.775 1113.25 647.439 1110.24 656.117 1096.77 C 676.101 1065.73 690.823 1046.42 721.625 1024.43 L 722.564 1026.52 L 730.943 1021.26 z" fill="rgb(144,4,18)" transform="translate(0,0)"></path>
<path d="M 638.334 1129.04 C 643.775 1113.25 647.439 1110.24 656.117 1096.77 C 676.101 1065.73 690.823 1046.42 721.625 1024.43 L 722.564 1026.52 C 694.105 1049.66 655.479 1096.24 643.076 1131.48 L 642.828 1132.21 L 638.514 1147.07 L 636.384 1152.09 L 634.796 1152.65 C 635.172 1145.7 637.105 1136.14 638.334 1129.04 z" fill="rgb(244,239,224)" transform="translate(0,0)"></path>
<path d="M 730.328 1026.41 C 724.248 1032.82 719.821 1037.57 714.413 1044.49 L 712.555 1042.53 C 717.061 1037.37 723.967 1028.76 730.328 1026.41 z" fill="rgb(213,154,130)" transform="translate(0,0)"></path>
<path d="M 642.828 1132.21 L 646.206 1134.22 L 640.294 1148.2 L 638.514 1147.07 L 642.828 1132.21 z" fill="rgb(212,32,40)" transform="translate(0,0)"></path>
<path d="M 638.514 1147.07 L 640.294 1148.2 C 638.607 1151.57 636.776 1155.55 634.693 1158.62 C 633.861 1155.48 633.755 1155.69 634.796 1152.65 L 636.384 1152.09 L 638.514 1147.07 z" fill="rgb(196,99,75)" transform="translate(0,0)"></path>
<path d="M 638.955 1195.64 L 640.213 1195.89 C 640.208 1198.43 640.33 1202.03 638.459 1203.69 C 637.567 1200.18 638.108 1199.13 638.955 1195.64 z" fill="rgb(237,163,90)" transform="translate(0,0)"></path>
<path d="M 705.669 1158.09 C 716.477 1163.2 731.822 1170.21 741.912 1176.28 L 740.916 1178.49 C 742.085 1179.3 743.623 1180.05 744.268 1181.23 C 748.626 1186.58 758.135 1192.38 764.156 1196.33 C 767.026 1196.95 769.966 1196.93 771.532 1199.3 C 772.404 1202.36 813.387 1244.54 819.197 1250.27 C 824.485 1256.59 828.619 1261.7 834.618 1267.31 C 845.984 1281.16 859.216 1294.19 870.105 1307.52 C 905.426 1350.76 944.471 1389.2 980.581 1431.61 C 987.703 1439.97 1016.03 1466.83 1019.43 1473.74 C 1022.44 1477.73 1027.84 1483.43 1029.49 1487.32 L 1028.81 1489.95 C 975.586 1441.74 927.013 1384.45 878.093 1331.65 C 823.01 1272.2 769.598 1208.3 705.669 1158.09 z" fill="url(#Gradient6)" transform="translate(0,0)"></path>
<path d="M 764.156 1196.33 C 767.026 1196.95 769.966 1196.93 771.532 1199.3 C 772.404 1202.36 813.387 1244.54 819.197 1250.27 C 824.485 1256.59 828.619 1261.7 834.618 1267.31 C 845.984 1281.16 859.216 1294.19 870.105 1307.52 C 905.426 1350.76 944.471 1389.2 980.581 1431.61 C 987.703 1439.97 1016.03 1466.83 1019.43 1473.74 C 928.329 1388.88 853.627 1283.5 764.156 1196.33 z" fill="rgb(212,32,40)" transform="translate(0,0)"></path>
<path d="M 625.594 1235.68 C 625.866 1232.97 626.474 1232.26 627.709 1229.83 L 628.293 1234.98 C 628.66 1236.43 628.95 1238 629.532 1239.33 C 627.433 1245.22 625.454 1251.16 623.596 1257.13 C 622.61 1254.73 625.301 1239.81 625.594 1235.68 z" fill="rgb(251,220,179)" transform="translate(0,0)"></path>
<path d="M 582.847 1449.48 C 584.907 1447.54 585.642 1447.62 588.382 1446.86 C 588.015 1450.11 587.106 1454.73 588.136 1457.58 C 590.189 1456.33 590.1 1456.8 591.258 1455.03 L 592.034 1457.92 C 589.694 1460.56 591.101 1459.95 588.124 1460.6 C 585.576 1458.67 584.045 1452.81 582.847 1449.48 z" fill="rgb(251,202,143)" transform="translate(0,0)"></path>
<path d="M 1089.34 1540.24 C 1091.16 1543.8 1093.23 1546.47 1093.11 1550.09 L 1092.04 1550.9 L 1088.11 1546.61 L 1085.52 1543.54 L 1089.34 1540.24 z" fill="rgb(244,239,224)" transform="translate(0,0)"></path>
<path d="M 628.293 1234.98 L 629.029 1235.35 C 630.944 1232.53 631.035 1229.57 631.674 1226.04 L 633.757 1227.87 C 632.361 1232.96 631.818 1234.59 629.532 1239.33 C 628.95 1238 628.66 1236.43 628.293 1234.98 z" fill="rgb(196,99,75)" transform="translate(0,0)"></path>
<path d="M 1088.11 1546.61 L 1092.04 1550.9 L 1091.04 1552.85 L 1091.25 1553.39 L 1086.84 1549.74 L 1088.11 1546.61 z" fill="rgb(144,4,18)" transform="translate(0,0)"></path>
<path d="M 839.941 1108.36 C 925.29 1119.16 1017.34 1141.42 1093.18 1183.52 C 1122.29 1199.68 1147.52 1223.67 1173.86 1243.25 C 1216.9 1275.25 1248.07 1306.09 1283.61 1345.81 C 1253.41 1325.23 1222.87 1305.03 1191.55 1286.18 C 1077.33 1217.44 965.84 1147 836.271 1110.35 L 839.941 1108.36 z" fill="url(#Gradient5)" transform="translate(0,0)"></path>
<path d="M 989.962 1163.96 C 990.927 1164.1 991.282 1164.12 992.309 1164.5 C 999.677 1167.22 1006.78 1171.75 1014.11 1174.82 C 1033.57 1182.98 1053.07 1190.22 1072.1 1199.45 C 1084.28 1205.35 1159.42 1245.33 1163.95 1253.54 C 1161.95 1253.21 1161.08 1253 1159.45 1251.68 C 1159.04 1251.35 1158.66 1250.97 1158.27 1250.62 C 1116.39 1223 1070.8 1200.87 1025.15 1180.42 L 1032.08 1186.66 C 1029.92 1186.46 1030.47 1186.79 1028.95 1185.83 C 1016.35 1177.85 1002.38 1172.3 989.962 1163.96 z" fill="rgb(196,99,75)" transform="translate(0,0)"></path>
<path d="M 1044.04 1193.76 C 1051.2 1195.92 1063.18 1203.65 1070.28 1207.24 C 1113.83 1229.26 1153.18 1257.67 1195.27 1282.14 C 1198.99 1284.3 1216.17 1294.16 1217.86 1296.4 C 1211.44 1296.37 1135.89 1247.52 1124.1 1240.34 C 1097.92 1224.68 1071.41 1209.55 1044.61 1194.96 L 1044.04 1193.76 z" fill="rgb(212,32,40)" transform="translate(0,0)"></path>
<path d="M 923.926 1129.57 C 930.863 1131.52 977.344 1143.6 979.825 1147.74 C 960.783 1142.41 941.822 1136.79 922.948 1130.89 L 923.926 1129.57 z" fill="rgb(212,32,40)" transform="translate(0,0)"></path>
<path d="M 1217.86 1296.4 C 1227.38 1300.26 1257.97 1320.84 1265.32 1328.11 C 1258.79 1325.6 1221.23 1300.33 1217.86 1296.4 z" fill="rgb(212,32,40)" transform="translate(0,0)"></path>
<path d="M 922.948 1130.89 C 916.351 1128.9 890.214 1122.66 887.021 1119.92 L 886.23 1120.14 C 893.357 1119.65 916.236 1126.98 923.926 1129.57 L 922.948 1130.89 z" fill="rgb(213,154,130)" transform="translate(0,0)"></path>
<path d="M 1057.79 1170.85 C 1067.1 1171.81 1081.79 1182.35 1089.2 1188.14 C 1079.26 1186.27 1066.27 1176.29 1057.79 1170.85 z" fill="rgb(212,32,40)" transform="translate(0,0)"></path>
<path d="M 1173.4 1260.61 C 1178.16 1261.49 1180.69 1264.13 1184.11 1267.34 C 1179.64 1266.33 1176.83 1263.45 1173.4 1260.61 z" fill="rgb(251,202,143)" transform="translate(0,0)"></path>
<path d="M 762.711 1094.03 C 859.95 1088.22 914.248 1092.57 1006.06 1123.28 C 1102.39 1155.49 1144.77 1196 1218.24 1263.25 L 1214.89 1264.01 C 1202.62 1252.89 1187.91 1242.2 1176.55 1231.69 C 1072.24 1135.14 926.911 1099.7 788.077 1098.03 C 781.461 1097.96 774.702 1095.94 767.206 1096.16 L 762.711 1094.03 z" fill="rgb(251,220,179)" transform="translate(0,0)"></path>
<path d="M 1218.24 1263.25 C 1226.76 1271.03 1241.27 1285.23 1248.56 1294.14 L 1246.77 1293.24 L 1247.04 1292.74 L 1247.21 1292.96 C 1243.91 1291.7 1219.86 1268.33 1214.89 1264.01 L 1218.24 1263.25 z" fill="rgb(251,202,143)" transform="translate(0,0)"></path>
<path d="M 767.206 1096.16 C 762.811 1096.22 759.785 1096.68 755.789 1094.91 C 758.704 1093.57 759.289 1094 762.711 1094.03 L 767.206 1096.16 z" fill="rgb(212,32,40)" transform="translate(0,0)"></path>
<path d="M 836.271 1110.35 C 833.645 1109.94 833.333 1109.67 830.859 1108.58 C 833.792 1107.33 836.664 1108.04 839.941 1108.36 L 836.271 1110.35 z" fill="rgb(243,198,180)" transform="translate(0,0)"></path>
<path d="M 1352.58 1274.58 L 1354.09 1272.05 C 1382.33 1344.24 1391.31 1425.69 1361.14 1499.41 C 1352.78 1519.83 1336.77 1548.75 1324.52 1567.06 C 1318.91 1569.56 1312.5 1572.25 1307.05 1574.93 L 1305.67 1573.65 C 1306.72 1571.09 1317.6 1559.74 1320.67 1555.73 C 1326.84 1547.61 1332.04 1538.79 1336.17 1529.47 C 1368.42 1457.89 1380.63 1348.65 1352.58 1274.58 z" fill="url(#Gradient4)" transform="translate(0,0)"></path>
<path d="M 408.553 1381.8 L 409 1380.93 C 414.575 1394.19 416.333 1404.94 424.795 1419.02 C 441.507 1446.82 475.934 1484.8 502.29 1502 C 507.677 1505.64 514.291 1509.6 518.399 1514.42 L 519.811 1516.08 L 522.061 1514.71 C 577.946 1547.41 626.954 1573.74 690.302 1589.87 C 698.865 1592.05 714.289 1597.22 722.565 1597.81 C 725.848 1599.84 725.413 1598.66 726.162 1601.2 C 723.227 1602.37 721.703 1602.1 718.576 1602.04 C 706.32 1600.18 682.503 1592.38 670.359 1588.46 C 614.607 1570.48 561.002 1548.14 510.898 1517.68 C 471.556 1493.76 420.682 1446.21 409.984 1399.93 C 408.103 1393.44 407.364 1388.89 406.252 1382.24 L 408.553 1381.8 z" fill="rgb(244,239,224)" transform="translate(0,0)"></path>
<path d="M 408.553 1381.8 L 409 1380.93 C 414.575 1394.19 416.333 1404.94 424.795 1419.02 C 441.507 1446.82 475.934 1484.8 502.29 1502 C 507.677 1505.64 514.291 1509.6 518.399 1514.42 C 476.746 1493.43 430.105 1442.08 411.602 1399.19 L 409.984 1399.93 C 408.103 1393.44 407.364 1388.89 406.252 1382.24 L 408.553 1381.8 z" fill="rgb(212,32,40)" transform="translate(0,0)"></path>
<path d="M 406.252 1382.24 L 408.553 1381.8 C 409.275 1388.84 409.959 1392.28 411.602 1399.19 L 409.984 1399.93 C 408.103 1393.44 407.364 1388.89 406.252 1382.24 z" fill="rgb(243,198,180)" transform="translate(0,0)"></path>
<path d="M 1338.59 1246.12 L 1339.59 1245.62 L 1340.61 1246.14 L 1340.7 1245.53 L 1338.94 1243.82 L 1340.14 1241.2 C 1341.91 1243.01 1341.42 1242.53 1342.63 1244.88 L 1343.78 1244.68 L 1342.88 1241.61 L 1343.79 1240.87 C 1344.85 1243.99 1345.07 1244.12 1345.04 1247.52 C 1343.52 1248.14 1344.36 1247.94 1342.51 1248.03 L 1342.41 1248.89 C 1343.55 1253.08 1343.71 1254.21 1345.79 1257.92 L 1345.96 1254.2 C 1349.6 1261.09 1351.31 1264.78 1354.09 1272.05 L 1352.58 1274.58 C 1380.63 1348.65 1368.42 1457.89 1336.17 1529.47 C 1332.04 1538.79 1326.84 1547.61 1320.67 1555.73 C 1317.6 1559.74 1306.72 1571.09 1305.67 1573.65 L 1307.05 1574.93 C 1307.96 1576.58 1308.4 1576.65 1308.31 1578.03 C 1307.12 1577.74 1303.5 1576.76 1302.12 1577.29 C 1290.5 1581.69 1277.52 1586.91 1266.31 1592.24 C 1265.16 1592.79 1263 1594.57 1262.41 1594.89 C 1256.29 1598.1 1252.19 1596.57 1246.28 1601.02 L 1244.5 1600.64 L 1243.84 1598.72 C 1251.28 1594.86 1257.16 1598.5 1259.43 1589.03 C 1260.91 1589.18 1260.38 1588.85 1261.17 1589.68 C 1266.46 1589.87 1276.08 1585.8 1281.18 1584.46 C 1301.22 1579.18 1320.49 1548.22 1328.3 1529.09 C 1356.9 1458.95 1371.89 1376.9 1356.71 1301.75 C 1353.02 1283.51 1345.15 1263.24 1338.59 1246.12 z" fill="rgb(144,4,18)" transform="translate(0,0)"></path>
<path d="M 1345.96 1254.2 C 1349.6 1261.09 1351.31 1264.78 1354.09 1272.05 L 1352.58 1274.58 C 1350.27 1267.93 1348.86 1264.22 1345.79 1257.92 L 1345.96 1254.2 z" fill="rgb(213,154,130)" transform="translate(0,0)"></path>
<path d="M 503.195 1498.79 C 457.628 1461.62 420.097 1417.02 414.363 1356 C 413.881 1350.65 413.726 1345.27 413.898 1339.9 C 417.822 1358.26 420.973 1381.98 428.491 1399.27 C 470.232 1495.21 572.509 1549.1 667.134 1580.77 C 678.163 1584.47 716.446 1593.93 722.556 1597.75 L 722.565 1597.81 C 714.289 1597.22 698.865 1592.05 690.302 1589.87 C 626.954 1573.74 577.946 1547.41 522.061 1514.71 L 519.811 1516.08 L 518.399 1514.42 C 514.291 1509.6 507.677 1505.64 502.29 1502 L 503.195 1498.79 z" fill="rgb(212,32,40)" transform="translate(0,0)"></path>
<path d="M 503.195 1498.79 C 508.336 1503.06 517.586 1510.26 522.061 1514.71 L 519.811 1516.08 L 518.399 1514.42 C 514.291 1509.6 507.677 1505.64 502.29 1502 L 503.195 1498.79 z" fill="rgb(248,229,187)" transform="translate(0,0)"></path>
<path d="M 1279.7 1326.1 C 1274.86 1284.89 1255.54 1251.51 1232.43 1218.07 C 1228.41 1212.26 1214.68 1199.02 1212.8 1194.3 C 1225.2 1198.04 1256.47 1249.28 1264.39 1263.38 C 1277.5 1286.74 1279.51 1311.4 1287.27 1337.14 L 1285.11 1337.42 C 1283.18 1335.16 1280.47 1328.97 1279.7 1326.1 z" fill="rgb(212,32,40)" transform="translate(0,0)"></path>
<path d="M 1173.52 1112.32 C 1237.83 1156.62 1294.7 1229.8 1306.85 1307.68 C 1316.81 1369.23 1316 1442.82 1279.88 1495.97 C 1263.46 1520.12 1221.54 1552.48 1193.76 1563.24 C 1103.4 1598.25 1009.61 1618.4 912.673 1609.91 L 913.613 1606.84 C 939.087 1607.87 964.602 1607.22 989.991 1604.9 C 1040.42 1600.67 1087.42 1589.97 1136.03 1575.94 C 1153.68 1570.84 1176.11 1565.05 1192.46 1557.38 C 1217.23 1545.77 1250.9 1524.15 1268.2 1503.13 C 1306.7 1456.35 1308.82 1391.53 1303.99 1333.9 C 1297.65 1258.26 1262.72 1200.34 1210.53 1147.07 C 1200.1 1136.43 1184.34 1124.1 1172.51 1114.36 L 1173.52 1112.32 z" fill="rgb(144,4,18)" transform="translate(0,0)"></path>
<path d="M 756.558 1307.51 L 757.517 1308.36 C 760.549 1317.95 758.8 1336.23 759.845 1347.25 C 762.27 1372.84 767.097 1397.87 767.867 1423.65 C 768.043 1429.54 765.935 1493.02 765.074 1494.45 C 764.742 1494.99 764.197 1495.38 763.759 1495.84 C 760.998 1494.72 760.285 1493 758.555 1490.63 C 757.609 1488.79 756.701 1486.94 755.831 1485.07 C 749.512 1471.38 746.17 1455.83 743.631 1441.04 C 735.269 1392.33 739.38 1353.56 756.558 1307.51 z" fill="rgb(144,4,18)" transform="translate(0,0)"></path>
<path d="M 750.87 1369.4 C 751.391 1364.58 751.104 1363.27 753.972 1359.67 C 755.5 1375.03 757.11 1396.86 757.413 1412.2 C 758.307 1427.11 757.205 1445.49 758.334 1459.23 L 756.355 1460.55 C 751.327 1431.91 748.691 1419.44 747.304 1389.97 C 744.963 1381.85 746.244 1377.49 747.263 1369 L 748.072 1369.38 C 748.26 1373.44 748.409 1376.38 748.961 1380.39 C 750.028 1377.58 749.833 1372.3 749.904 1369.11 L 750.87 1369.4 z" fill="rgb(251,220,179)" transform="translate(0,0)"></path>
<path d="M 750.87 1369.4 C 751.391 1364.58 751.104 1363.27 753.972 1359.67 C 755.5 1375.03 757.11 1396.86 757.413 1412.2 L 753.85 1412.36 C 751.513 1395.29 750.689 1386.26 750.87 1369.4 z" fill="rgb(244,239,224)" transform="translate(0,0)"></path>
<path d="M 747.304 1389.97 C 744.963 1381.85 746.244 1377.49 747.263 1369 L 748.072 1369.38 C 748.26 1373.44 748.409 1376.38 748.961 1380.39 C 750.028 1377.58 749.833 1372.3 749.904 1369.11 L 750.87 1369.4 C 750.689 1386.26 751.513 1395.29 753.85 1412.36 C 754.651 1417.2 755.791 1426.34 754.308 1431.03 C 752.909 1424.27 750.606 1392.68 747.304 1389.97 z" fill="rgb(196,99,75)" transform="translate(0,0)"></path>
<path d="M 749.904 1369.11 C 749.989 1360.79 750.49 1350.82 752.649 1342.82 C 753.534 1349.24 753.764 1353.19 753.972 1359.67 C 751.104 1363.27 751.391 1364.58 750.87 1369.4 L 749.904 1369.11 z" fill="rgb(251,220,179)" transform="translate(0,0)"></path>
<path d="M 758.334 1459.23 C 759.245 1462.37 759.306 1462.17 758.936 1465.39 L 757.845 1466.08 C 756.536 1463.45 756.67 1463.51 756.355 1460.55 L 758.334 1459.23 z" fill="rgb(196,99,75)" transform="translate(0,0)"></path>
<path d="M 437.572 1370.69 C 444.7 1377.11 449.501 1388.93 455.286 1396.84 C 464.245 1409.08 475.721 1419.99 486.903 1430.22 C 561.196 1498.16 649.013 1540.83 745.823 1566.14 C 779.997 1575.08 813.853 1582.07 848.996 1586 C 871.29 1588.5 893.5 1590.07 915.894 1591.27 C 928.146 1591.92 941.542 1591.53 953.619 1593.51 C 955.808 1593.87 957.823 1594.77 959.801 1595.74 C 947.972 1597.71 933.979 1595.86 921.874 1595.53 C 842.903 1593.9 764.701 1579.66 690.228 1553.34 C 617.986 1527.53 553.425 1491.02 495.747 1440.32 C 471.804 1419.27 451.431 1400.03 437.572 1370.69 z" fill="rgb(212,32,40)" transform="translate(0,0)"></path>
<path d="M 456.433 1422.69 C 435.734 1394.52 422.822 1368.57 416.32 1333.49 C 415.239 1327.66 413.88 1319.44 414.223 1313.76 C 417.664 1317.69 422.389 1344.88 424.589 1351.89 C 431.33 1374.24 441.679 1395.94 454.437 1415.41 C 465.936 1433.18 483.438 1444.85 498.51 1458.84 C 548.934 1505.64 605.132 1536.43 668.955 1561.14 C 691.621 1569.91 713.619 1581.43 737.42 1587.53 C 795.45 1602.39 854.352 1603.33 913.613 1606.84 L 912.673 1609.91 C 904.738 1610.48 876.382 1607.8 866.834 1607.26 C 822.626 1604.76 771.462 1598.12 728.748 1586.47 C 703.29 1579.52 671.611 1564.52 647.199 1554.64 C 617.904 1542.8 587.433 1528.18 560.86 1511.06 C 530.856 1491.72 505.413 1467.14 478.25 1444.78 L 476.258 1445.94 C 475.736 1445.6 474.327 1444.63 473.689 1444.4 C 463.954 1440.9 460.309 1429.34 454.84 1422.92 L 456.433 1422.69 z" fill="rgb(212,32,40)" transform="translate(0,0)"></path>
<path d="M 456.433 1422.69 C 463.435 1430.01 470.867 1437.87 478.25 1444.78 L 476.258 1445.94 C 475.736 1445.6 474.327 1444.63 473.689 1444.4 C 463.954 1440.9 460.309 1429.34 454.84 1422.92 L 456.433 1422.69 z" fill="rgb(248,229,187)" transform="translate(0,0)"></path>
<path d="M 999.746 1048.43 C 1006.37 1047.95 1013.84 1048.81 1020.16 1050.88 C 1024.27 1052.23 1027.71 1054.06 1029.59 1057.99 L 1028.52 1060.03 C 1020.13 1065.82 1005.65 1066.55 995.671 1068.26 C 988.124 1069.58 975.224 1074.55 968.097 1072.38 C 966.466 1071.89 966.904 1071.84 965.889 1070.15 C 965.938 1066.41 967.36 1063.48 969.843 1060.72 C 977.158 1052.59 989.255 1049.24 999.746 1048.43 z" fill="rgb(144,4,18)" transform="translate(0,0)"></path>
<path d="M 984.218 1060.73 C 985.861 1061.31 985.073 1060.81 986.369 1062.53 C 984.65 1064.49 982.097 1065.08 979.707 1066.02 L 978.37 1065.33 C 979.106 1062.84 982.006 1062.01 984.218 1060.73 z" fill="rgb(251,220,179)" transform="translate(0,0)"></path>
<path d="M 1216.74 1359.31 C 1218.61 1360.09 1218.07 1359.65 1219.4 1360.93 C 1220.49 1361.99 1220.45 1362.5 1220.43 1363.98 C 1220.18 1378.33 1205.1 1409.09 1194.76 1418.9 C 1193.52 1418.34 1192.3 1417.5 1191.12 1416.81 L 1190.65 1414.83 C 1194.98 1407.01 1199.54 1399.14 1203.07 1390.91 C 1207.52 1380.53 1210.69 1368.86 1216.74 1359.31 z" fill="rgb(144,4,18)" transform="translate(0,0)"></path>
<path d="M 789.202 1279.23 C 795.878 1284.73 803.503 1293.3 809.578 1299.69 C 831.873 1323.17 852.425 1348.94 873.38 1373.68 C 880.486 1382.07 901.998 1405.4 906.667 1413.8 C 900.135 1408.16 884.732 1389.66 878.094 1382.06 C 858.116 1359.44 838.39 1336.6 818.92 1313.55 C 812.589 1306.18 793.072 1285.54 789.202 1279.23 z" fill="rgb(212,32,40)" transform="translate(0,0)"></path>
<path d="M 495.068 1288.67 C 495.964 1288.96 495.395 1288.71 496.587 1289.74 C 491.555 1298.93 486.194 1307.95 481.234 1317.18 C 477.441 1324.23 474.403 1332.45 469.217 1338.57 C 467.243 1335.92 466.292 1334.38 466.738 1330.88 C 468.529 1316.83 483.888 1296.84 495.068 1288.67 z" fill="rgb(144,4,18)" transform="translate(0,0)"></path>
<path d="M 691.398 1294.51 C 693.136 1295.41 693.988 1295.69 694.946 1297.5 C 699.89 1306.82 704.942 1335.95 701.821 1345.93 C 699.824 1344.16 698.346 1342.45 697.35 1339.96 C 693.838 1331.18 687.917 1302.85 691.398 1294.51 z" fill="rgb(144,4,18)" transform="translate(0,0)"></path>
<path d="M 1130.15 1381.36 C 1132.4 1382.29 1133.8 1383.03 1135.28 1385.01 C 1143.61 1396.2 1146.79 1412.45 1144.48 1426 L 1143.22 1425.87 C 1139.15 1422.15 1130.59 1387.64 1130.15 1381.36 z" fill="rgb(144,4,18)" transform="translate(0,0)"></path>
<path d="M 507.435 1176.86 L 508.419 1178.15 C 508.337 1178.6 508.272 1179.05 508.171 1179.5 C 506.913 1185.09 492.433 1206.04 487.656 1209.3 C 485.856 1206.61 484.733 1204.96 485.511 1201.55 C 487.828 1191.37 498.905 1182.16 507.435 1176.86 z" fill="rgb(144,4,18)" transform="translate(0,0)"></path>
<path d="M 984.076 1235.31 L 987.51 1236.48 C 993.124 1242.86 1006.9 1265.75 1008.47 1273.53 C 1004.87 1272.11 1002.43 1269.98 999.826 1267.17 C 992.285 1259.02 983.681 1246.81 984.076 1235.31 z" fill="rgb(144,4,18)" transform="translate(0,0)"></path>
<path d="M 716.104 1216.71 C 716.505 1217.04 716.967 1217.3 717.308 1217.68 C 721.317 1222.25 731.17 1238.03 732.591 1243.51 C 733.234 1245.99 732.965 1248.26 732.647 1250.75 L 729.077 1249.82 C 725.389 1246.67 722.309 1242.87 719.99 1238.61 C 716.186 1231.64 713.981 1224.49 716.104 1216.71 z" fill="rgb(144,4,18)" transform="translate(0,0)"></path>
<path d="M 806.99 1369.42 L 809.096 1370.76 C 810.829 1378.47 812.345 1385.53 815.144 1392.98 C 816.799 1397.39 822.899 1407.77 822.802 1412.02 C 822.778 1413.05 822.362 1414.03 822.142 1415.03 C 818.68 1412.96 816.547 1410.18 814.54 1406.74 C 808.559 1396.48 803.921 1381.18 806.99 1369.42 z" fill="rgb(144,4,18)" transform="translate(0,0)"></path>
<path d="M 839.528 1475.61 C 840.656 1476.47 841.283 1477.36 842.132 1478.48 C 842.734 1486.67 834.286 1503.93 830.26 1511.31 C 828.88 1510.45 827.165 1509.97 826.701 1508.31 C 824.152 1499.16 834.675 1483.11 839.528 1475.61 z" fill="rgb(144,4,18)" transform="translate(0,0)"></path>
<path d="M 1093.95 1083.84 C 1097.06 1084.92 1118.6 1100.91 1120.91 1103.67 L 1120.09 1105.84 C 1117.71 1105.92 1115.18 1106.14 1112.85 1105.62 C 1105.91 1104.05 1097.25 1097.03 1093.94 1090.91 C 1092.32 1087.91 1092.82 1086.96 1093.95 1083.84 z" fill="rgb(144,4,18)" transform="translate(0,0)"></path>
<path d="M 566.471 1171.65 C 568.189 1171.83 567.252 1171.59 569.201 1172.63 C 569.226 1173.05 569.293 1173.46 569.276 1173.88 C 568.998 1181.01 562.587 1191.04 557.843 1196.1 L 555.128 1194.4 C 554.214 1192.61 553.91 1191.7 554.036 1189.63 C 554.466 1182.55 561.381 1175.89 566.471 1171.65 z" fill="rgb(144,4,18)" transform="translate(0,0)"></path>
<path d="M 918.694 1531.23 C 921.015 1531.84 922.534 1532.37 923.858 1534.5 C 927.126 1539.77 931.424 1548.39 929.838 1554.44 C 929.323 1554.39 927.775 1554.24 927.351 1554.15 C 923.781 1553.34 920.81 1549.83 919.295 1546.64 C 916.828 1541.45 916.795 1536.55 918.694 1531.23 z" fill="rgb(144,4,18)" transform="translate(0,0)"></path>
<path d="M 642.866 1430.25 L 645.315 1432.12 C 646.817 1437.36 644.481 1460.78 641.927 1466.05 C 640.883 1464.84 639.894 1463.5 639.18 1462.07 C 634.719 1453.1 640.127 1439.16 642.866 1430.25 z" fill="rgb(144,4,18)" transform="translate(0,0)"></path>
<path d="M 851.772 1155.25 C 852.944 1155.61 854.212 1155.74 855.29 1156.32 C 859.297 1158.5 872.66 1175.51 875.226 1179.84 C 870.837 1179.19 866.469 1176.52 862.918 1173.95 C 856.007 1168.93 853.173 1163.45 851.772 1155.25 z" fill="rgb(144,4,18)" transform="translate(0,0)"></path>
<path d="M 1131.46 1499.57 L 1133.18 1501.56 C 1133.44 1503.2 1133.31 1504.01 1132.67 1505.59 C 1128.87 1514.9 1114.83 1523.16 1105.97 1527.16 L 1104.51 1526.1 C 1105.48 1524.2 1104.92 1524.74 1106.58 1523.55 C 1116.54 1516.38 1124.85 1510.09 1131.46 1499.57 z" fill="rgb(144,4,18)" transform="translate(0,0)"></path>
<path d="M 834.251 1040.1 C 837.179 1039.69 838.806 1039.49 841.701 1040.41 L 842.228 1041.8 C 839.921 1045.44 836.244 1047.53 832.758 1049.95 C 830.747 1051.07 829.777 1051.44 827.466 1051.32 L 826.226 1049.64 C 826.322 1049.16 826.392 1048.68 826.514 1048.21 C 827.682 1043.71 830.521 1042.27 834.251 1040.1 z" fill="rgb(144,4,18)" transform="translate(0,0)"></path>
<path d="M 925.148 1058.84 C 927.097 1058.75 928.641 1058.49 930.454 1059.35 C 931.755 1059.96 931.592 1060.64 931.994 1061.9 C 930.542 1065.7 927.593 1068.04 924.694 1070.75 C 923.512 1071.02 922.202 1070.98 920.991 1071.05 C 919.673 1069.95 919.322 1070.23 919.297 1068.79 C 919.227 1064.74 922.376 1061.38 925.148 1058.84 z" fill="rgb(144,4,18)" transform="translate(0,0)"></path>
<path d="M 961.085 1469.88 C 962.354 1470.2 962.762 1470.23 964.031 1471 C 970.343 1474.85 978.955 1484.69 980.369 1491.82 C 973.843 1487.61 963.627 1477.11 961.085 1469.88 z" fill="rgb(212,32,40)" transform="translate(0,0)"></path>
<path d="M 887.08 1011.65 C 887.171 1011.65 887.264 1011.64 887.354 1011.66 C 889.584 1012.1 889.97 1011.86 891.399 1013.73 L 890.362 1016.12 C 886.853 1019.09 883.616 1020.54 879.307 1022.09 C 876.986 1021.65 876.945 1022.13 875.499 1020.06 C 877.915 1016.44 883.39 1013.94 887.08 1011.65 z" fill="rgb(144,4,18)" transform="translate(0,0)"></path>
<path d="M 1065.68 1337.74 L 1066.82 1337.91 C 1077.34 1339.56 1093.1 1352.86 1099.34 1361.37 C 1097.52 1360.51 1097.87 1360.82 1096.62 1359.84 C 1086.73 1351.9 1076.39 1344.52 1065.68 1337.74 z" fill="rgb(213,154,130)" transform="translate(0,0)"></path>
<path d="M 1172.51 1114.36 C 1168.81 1111.8 1166.18 1110.02 1162.98 1106.81 L 1162.98 1107.04 L 1164.73 1106.29 C 1168.09 1108.29 1170.36 1109.98 1173.52 1112.32 L 1172.51 1114.36 z" fill="rgb(212,32,40)" transform="translate(0,0)"></path>
<path d="M 906.667 1413.8 C 910.066 1415.61 910.365 1416.11 912.9 1418.83 C 913.141 1420.61 913.262 1419.91 912.95 1420.99 C 909.953 1419.59 908.917 1418.04 906.711 1415.61 L 906.667 1413.8 z" fill="rgb(251,202,143)" transform="translate(0,0)"></path>
<path d="M 782.393 1271.05 C 784.805 1273.17 787.869 1275.49 789.381 1278.22 L 789.202 1279.23 C 784.82 1276.87 784.153 1275.5 782.393 1271.05 z" fill="rgb(251,202,143)" transform="translate(0,0)"></path>
<path d="M 138.571 1252.68 C 103.279 1163.33 90.5518 1095.84 120.877 1002.66 C 143.877 931.995 179.187 878.847 232.907 827.133 C 369.079 696.048 561.838 634.596 746.579 617.558 C 770.733 615.452 795.438 612.973 819.419 613.013 C 822.07 616.317 822.046 616.129 825.838 618.208 L 826.24 620.33 C 820.659 621.517 807.958 621.625 801.698 621.958 C 790.235 622.667 778.779 623.51 767.335 624.485 C 731.698 627.494 695.415 632.221 660.138 638.101 C 482.318 667.744 272.59 755.463 170.67 912.502 C 123.216 985.62 97.7702 1078.19 116.733 1164.53 C 141.689 1278.17 211.656 1369.48 302.021 1439.88 C 318.66 1452.84 335.505 1465.59 353.314 1476.91 C 500.123 1570.25 668.35 1624.07 840.635 1644.04 C 884.479 1649.12 928.889 1652.88 973.08 1652.61 C 1045.47 1652.17 1128.23 1642.27 1199.12 1626.4 C 1227.07 1620.14 1254.21 1612.04 1281.51 1603.42 C 1375.37 1573.79 1454.08 1535.36 1530.43 1472.8 C 1573.87 1437.2 1610.73 1398.37 1640.99 1350.9 C 1669.43 1306.28 1682.08 1258.5 1692.51 1207.21 C 1694.34 1198.22 1696 1189.28 1697.06 1180.17 C 1697.82 1173.56 1697.59 1164.63 1699.46 1158.45 C 1699.8 1157.31 1700.34 1156.59 1701.13 1155.76 C 1703.49 1158.52 1703.11 1159.99 1702.72 1163.76 C 1698.53 1204.22 1690.53 1246.19 1677.87 1284.83 C 1662.74 1330.99 1633.81 1372.31 1604.01 1410.06 C 1595.11 1421.26 1584.17 1430.81 1573.99 1440.78 C 1571.52 1443.17 1562.19 1451.79 1560.46 1454.26 C 1552 1460.34 1540.96 1470.57 1532.4 1477.59 C 1515.84 1491.05 1498.57 1503.61 1480.67 1515.22 C 1464.86 1525.35 1439.26 1541.67 1423.27 1550.19 C 1394.36 1565.62 1358.37 1580.38 1327.67 1592.03 C 1280.79 1609.84 1229.57 1625.95 1180.41 1636.01 C 1154.05 1641.44 1127.06 1643.71 1100.48 1647.54 C 972.941 1665.91 839.752 1656.4 713.935 1628.37 C 509.722 1582.88 278.523 1479.93 161.986 1297.43 C 153.44 1281.92 146.401 1268.71 138.571 1252.68 z" fill="rgb(244,239,224)" transform="translate(0,0)"></path>
<path d="M 1693.53 1373.29 C 1713.99 1366.74 1762.15 1460.14 1746.5 1472.04 C 1747.63 1477.8 1711.47 1513.02 1704.96 1518.91 C 1658.88 1560.56 1638.27 1563.32 1578.57 1559.41 C 1590.22 1536.08 1599.85 1511.23 1610.87 1487.55 C 1616.76 1472.51 1625.37 1455.69 1630.67 1440.61 C 1638.63 1417.95 1652.68 1406.93 1669.23 1390.4 C 1674.57 1385.07 1679.84 1378.32 1686.07 1373.89 C 1689.12 1371.72 1690.29 1372.58 1693.53 1373.29 z" fill="rgb(244,239,224)" transform="translate(0,0)"></path>
<path d="M 1693.53 1373.29 C 1713.99 1366.74 1762.15 1460.14 1746.5 1472.04 C 1743.24 1463.68 1740.65 1450.97 1737.69 1441.99 C 1729.94 1418.51 1713.25 1388.55 1693.53 1373.29 z" fill="rgb(121,10,24)" transform="translate(0,0)"></path>
<path d="M 251.714 1546.04 C 257 1551.94 265.543 1562.65 270.828 1567.42 C 287.07 1582.07 306.204 1594.48 324.139 1606.74 C 402.287 1660.16 490.28 1698.19 578.938 1730.48 C 595.533 1736.53 627.91 1750.04 643.235 1753.37 C 631.288 1760.33 596.043 1736.2 585.687 1744.08 C 585.647 1773.1 705.052 1796.8 727.323 1806.97 C 695.237 1807.83 676.245 1802.69 645.331 1794.51 C 642.058 1793.65 619.596 1787.61 617.242 1787.38 C 609.414 1784.18 589.608 1778.77 580.743 1776.04 C 560.939 1769.98 541.352 1763.24 522.015 1755.83 C 448.835 1726.93 380.628 1686.76 319.87 1636.77 C 302.115 1622.16 284.42 1606.89 269.584 1589.22 C 270.148 1595.55 275.574 1606.83 278.267 1613.37 C 270.18 1606.17 253.989 1567.05 254.664 1555.92 L 252.666 1549.56 L 251.714 1546.04 z" fill="rgb(251,220,179)" transform="translate(0,0)"></path>
<path d="M 254.664 1555.92 C 259.284 1566.99 263.863 1578.73 269.584 1589.22 C 270.148 1595.55 275.574 1606.83 278.267 1613.37 C 270.18 1606.17 253.989 1567.05 254.664 1555.92 z" fill="rgb(137,6,27)" transform="translate(0,0)"></path>
<path d="M 252.666 1549.56 C 247.05 1547.33 229.596 1508.96 229.648 1503.41 C 231.37 1505.06 231.723 1506.25 232.884 1508.4 L 236.237 1508.74 L 236.233 1505.8 C 239.883 1507.98 247.009 1513.88 251.668 1516.92 C 262.751 1524.15 271.933 1528.85 283.707 1534.67 C 311.245 1552.34 337.861 1571.56 366.879 1586.75 C 397.537 1602.8 430.314 1616.86 462.466 1629.73 C 510.092 1648.78 561.426 1671.54 610.392 1686.37 C 597.683 1688.34 576.964 1679.03 564.244 1676.2 C 561.468 1675.58 559.245 1677.75 558.085 1679.99 C 568.53 1715.15 651.408 1728.47 658.978 1745.56 C 541.231 1718.58 383.143 1647.26 289.188 1571.59 C 274.635 1559.87 259.578 1547.33 247.231 1533.25 C 247.401 1537.82 249.262 1542.2 251.714 1546.04 L 252.666 1549.56 z" fill="rgb(251,220,179)" transform="translate(0,0)"></path>
<path d="M 252.666 1549.56 C 247.05 1547.33 229.596 1508.96 229.648 1503.41 C 231.37 1505.06 231.723 1506.25 232.884 1508.4 L 236.237 1508.74 C 238.488 1513.93 245.951 1529.05 247.231 1533.25 C 247.401 1537.82 249.262 1542.2 251.714 1546.04 L 252.666 1549.56 z" fill="rgb(144,4,18)" transform="translate(0,0)"></path>
<path d="M 279.231 1613.67 L 280.646 1614.74 C 304.853 1633.22 329.727 1657.75 355.86 1675.52 C 404.572 1708.63 465.605 1741.01 520.009 1762.99 C 552.549 1776.13 591.252 1787.15 625.36 1799.12 C 631.034 1801.27 635.656 1803.14 641.192 1805.63 C 632.381 1804.67 622.943 1802.65 614.177 1800.97 C 632.01 1824.88 668.743 1840.93 696.743 1849.18 C 706.219 1851.97 725.444 1856.32 733.425 1860.33 L 733.692 1861.63 C 733.156 1862 732.134 1862.79 731.483 1862.72 C 642.339 1852.59 556.441 1819.39 476.487 1779.82 C 424.424 1754.05 381.057 1722.14 335.086 1687.79 C 317.927 1674.52 300.596 1654.43 289.307 1636 C 285.698 1629.74 281.625 1620.5 279.231 1613.67 z" fill="url(#Gradient3)" transform="translate(0,0)"></path>
<path d="M 227.874 1472 L 228.751 1468.95 C 234.386 1467.66 244.767 1476.08 251.226 1478.52 C 278.461 1493.12 305.644 1508.15 333.842 1520.83 C 344.14 1525.74 423.694 1561.82 424.382 1563.22 C 429.397 1573.41 447.131 1582.54 456.816 1588.8 C 474.053 1599.92 491.262 1611.78 509.153 1621.82 C 537.561 1637.76 568.031 1650.02 598.68 1660.88 C 606.656 1663.71 647.242 1675.9 650.278 1681.38 C 647.689 1682.4 647.595 1682.11 644.759 1681.7 C 615.673 1671.95 584.69 1666.8 555.435 1658.03 C 513.937 1646.05 475.308 1625.79 435.472 1609.92 C 387.192 1590.69 346.755 1568.43 304.201 1538.54 C 301.874 1536.24 288.983 1527.62 285.349 1525 C 261.517 1507.85 243.988 1496.91 227.874 1472 z" fill="rgb(251,220,179)" transform="translate(0,0)"></path>
<path d="M 363.394 1726.3 C 357.998 1719.56 343.2 1707.72 340.167 1701.43 C 360.875 1715.41 379.864 1731.75 401.509 1745.57 C 492.486 1803.68 585.545 1838.46 689.031 1866.41 C 697.924 1882.26 713.213 1882.02 723.811 1891.19 C 688.098 1886.87 637.017 1872.24 603.13 1861.55 C 596.201 1864.18 580.237 1856.5 572.999 1853.51 C 543.537 1841.34 513.312 1830.63 484.718 1816.51 C 482.339 1815.34 482.344 1812.51 481.873 1810.22 C 435.521 1784.99 402.698 1761.62 363.394 1726.3 z" fill="rgb(251,220,179)" transform="translate(0,0)"></path>
<path d="M 481.873 1810.22 C 521.179 1829.85 561.677 1846.99 603.13 1861.55 C 596.201 1864.18 580.237 1856.5 572.999 1853.51 C 543.537 1841.34 513.312 1830.63 484.718 1816.51 C 482.339 1815.34 482.344 1812.51 481.873 1810.22 z" fill="rgb(137,6,27)" transform="translate(0,0)"></path>
<path d="M 753.582 998.468 L 755.249 998.7 C 698.145 1020.05 674.345 1043.23 647.693 1098.09 C 646.107 1096.85 644.519 1095.7 642.799 1094.64 C 620.845 1081.24 592.051 1073.18 566.76 1079.67 C 558.994 1082.14 551.369 1085.29 543.737 1088.16 C 599.318 1043.56 683.397 1009.39 753.582 998.468 z" fill="rgb(251,220,179)" transform="translate(0,0)"></path>
<path d="M 1506.09 1088.72 C 1518.24 1095.95 1541.3 1128.72 1550.24 1141.54 C 1580.46 1184.88 1601.85 1240.67 1604.71 1293.68 C 1605.38 1306.01 1604.38 1318.09 1603.43 1330.38 C 1602.74 1339.31 1602.58 1348.75 1600.82 1357.53 C 1599.81 1362.53 1597.54 1367 1594.71 1371.2 C 1584.46 1386.37 1539.46 1436.76 1525.5 1446.33 C 1523.1 1445.41 1523.82 1434.24 1523.82 1431.36 C 1523.89 1398.6 1519.06 1368.7 1507.52 1337.95 C 1485.92 1280.42 1454.29 1236.56 1410.37 1194.04 C 1399.02 1183.06 1384.9 1173.7 1374.52 1162.06 L 1375.38 1162.88 L 1376.33 1162.63 C 1442.74 1214.64 1493.43 1280.76 1516.87 1362.55 C 1523.7 1391.15 1525.05 1416.99 1524.77 1446.21 C 1536.56 1433.51 1561.18 1412.65 1569 1398.82 L 1566.46 1397.09 C 1565.31 1393.03 1565.43 1364.99 1564.7 1357.32 C 1561.26 1321.47 1550.95 1286.4 1536.4 1253.53 C 1526.19 1230.43 1513.81 1207.25 1498.66 1187.04 C 1495.06 1182.25 1466.67 1149.89 1466.53 1148.98 C 1471.41 1150.39 1478.44 1159.04 1482.21 1162.75 C 1527.05 1206.93 1560.17 1271.63 1570.18 1333.95 C 1573.41 1354.07 1573.5 1374.15 1573.64 1394.46 C 1582.98 1383.66 1591.85 1372.45 1600.22 1360.88 C 1599.62 1350.15 1601.58 1339.14 1602.58 1328.46 C 1603.6 1316.36 1603.88 1304.22 1603.4 1292.09 C 1600.8 1233.4 1572.83 1173.43 1537.99 1126.99 C 1528.04 1113.72 1516.54 1101.62 1506.09 1088.72 z" fill="rgb(137,6,27)" transform="translate(0,0)"></path>
<path d="M 648.037 1806.44 C 653.248 1806 663.356 1810.12 668.907 1811.59 C 709.733 1822.77 751.191 1831.5 793.059 1837.73 C 841.496 1844.7 890.831 1846.47 939.718 1847.42 C 959.491 1847.8 985.129 1844.03 1003.87 1847.76 C 1005.22 1848.03 1004.68 1847.71 1005.5 1848.97 C 1001.43 1850.9 997.177 1850.93 992.763 1851.28 C 891.392 1860.92 777.165 1850.62 679.8 1820.78 C 667.526 1817.01 651.32 1813.77 640.15 1807.5 C 641.708 1806.35 646.016 1808.56 648.485 1808.43 L 648.037 1806.44 z" fill="url(#Gradient2)" transform="translate(0,0)"></path>
<path d="M 1774.62 1473.81 L 1775.39 1475.1 C 1774.96 1476.88 1774.51 1478.67 1774.04 1480.45 C 1765.8 1513.21 1727.05 1551.73 1699.25 1570.78 C 1650.99 1603.84 1543.21 1586.38 1487.2 1575.98 C 1485.47 1575.54 1484.62 1575.29 1483.1 1574.28 C 1498.21 1573.05 1515.54 1576.53 1530.58 1578.16 C 1572.13 1582.67 1628.18 1588.55 1668.47 1576.78 C 1708.87 1564.97 1754.91 1509.77 1774.62 1473.81 z" fill="rgb(144,4,18)" transform="translate(0,0)"></path>
<path d="M 624.698 1688.75 C 624.879 1688.72 625.06 1688.68 625.241 1688.64 C 631.402 1685.64 638.048 1687.17 645.754 1686.85 C 655.26 1687.43 683.381 1695.31 694.358 1697.79 C 719.16 1703.18 744.142 1707.7 769.258 1711.36 C 803.775 1716.37 837.956 1718.89 872.601 1722.1 C 888.316 1723.55 913.423 1724.84 928.557 1728 L 920.177 1729.41 C 877.205 1727.89 828.996 1727 786.623 1721.88 C 733.945 1715.51 675.989 1702.57 624.698 1688.75 z" fill="rgb(137,6,27)" transform="translate(0,0)"></path>
<path d="M 639.903 1106.51 L 640.959 1106.47 L 641.662 1107.42 C 639.068 1115.92 635.254 1124.21 631.909 1132.44 C 598.381 1122.44 574.736 1120.44 540.044 1124.72 L 523.43 1127.32 C 561.001 1109.64 599.187 1107.08 639.903 1106.51 z" fill="rgb(251,220,179)" transform="translate(0,0)"></path>
<path d="M 657.906 198.764 L 658.905 199.152 C 659.115 201.793 644.961 216.222 642.819 220.48 C 634.84 236.338 631.866 253.652 632.767 271.298 C 633.539 286.407 637.145 301.172 642.093 315.422 C 645.234 324.469 667.937 372.165 667.564 376.633 L 666.008 376.263 C 658.64 365.925 652.153 354.407 646.513 343.052 C 629.669 309.147 618.166 268.228 630.857 231.035 C 635.671 216.926 644.346 205.431 657.906 198.764 z" fill="rgb(244,239,224)" transform="translate(0,0)"></path>
<path d="M 1310.81 1527.87 C 1310.89 1530.24 1310.18 1531.53 1309.01 1533.53 C 1297.41 1553.26 1264.75 1584.65 1243.74 1594.67 C 1233.05 1599.77 1221.09 1602.56 1209.7 1605.67 L 1209.56 1605.12 C 1212.22 1600.81 1232.37 1589.93 1238.33 1585.84 C 1263.45 1568.65 1290.37 1550.56 1310.81 1527.87 z" fill="url(#Gradient1)" transform="translate(0,0)"></path>
<path d="M 497.682 1129.74 C 498.567 1128.9 499.464 1128.08 500.374 1127.26 C 530.344 1100.32 554.787 1089.52 595.891 1091.9 L 596.916 1094.35 L 599.098 1095.19 C 599.219 1095.61 600.462 1097.59 600.733 1098.05 C 597.433 1100.08 598.945 1099.26 594.357 1099.23 C 571.789 1099.22 547.692 1105.14 527.355 1114.89 C 517.246 1119.74 508.195 1125.73 497.682 1129.74 z" fill="rgb(244,239,224)" transform="translate(0,0)"></path>
<path d="M 1711.36 1334.75 C 1719.13 1339.69 1732.57 1359.05 1738.75 1367.08 C 1749.68 1381.29 1774.25 1413.14 1771.86 1431.57 C 1764.79 1420.65 1760.1 1407.83 1753.13 1396.62 C 1745.3 1384.02 1712.6 1344.57 1711.36 1334.75 z" fill="rgb(144,4,18)" transform="translate(0,0)"></path>
<path d="M 256.282 1473.07 C 263.407 1471.47 328.426 1510.22 335.134 1516.07 C 320.356 1512.54 267.267 1483.03 256.282 1473.07 z" fill="rgb(244,239,224)" transform="translate(0,0)"></path>
<path d="M 626.712 216.479 L 627.757 217.214 C 629.217 221.051 622.722 236.864 621.679 241.826 C 620.644 246.75 620.305 251.707 619.99 256.715 C 619.362 256.811 618.729 256.543 618.107 256.411 C 615.674 244.585 621.711 227.116 626.712 216.479 z" fill="rgb(144,4,18)" transform="translate(0,0)"></path>
<path d="M 595.891 1091.9 C 608.954 1091.85 617.103 1093.72 629.481 1098.2 C 619.363 1097.1 609.234 1096.1 599.098 1095.19 L 596.916 1094.35 L 595.891 1091.9 z" fill="rgb(248,229,187)" transform="translate(0,0)"></path>
<path d="M 721.625 1024.43 C 735.163 1016.35 742.759 1008.94 758.337 1003.44 C 747.735 1010.08 741.129 1013.42 730.943 1021.26 L 722.564 1026.52 L 721.625 1024.43 z" fill="rgb(213,154,130)" transform="translate(0,0)"></path>
<path d="M 1759.86 1466.15 C 1755.1 1461.01 1754.99 1452.72 1757.73 1446.56 C 1759.07 1453.2 1760.19 1459.3 1759.86 1466.15 z" fill="rgb(137,6,27)" transform="translate(0,0)"></path>
<path d="M 886.993 789.588 L 889.526 788.863 L 890.387 790.343 L 888.486 791.062 L 886.993 789.588 z" fill="rgb(121,10,24)" transform="translate(0,0)"></path>
<metadata><recraft-signature>{"signed_by": "recraft", "signature_b64": "eQfinzwBCmMN4ojNrdEpofYg9vnkJAHy5rrG0M5e8cdvQESmnWz3wW8WlOADNwGB/3LNblJWLVruF/1p5EPsAQ==", "signing_algo": "Ed25519", "generation_timestamp": 1778092839, "identifier": "5d88e61e-b24d-43bf-b0bf-8f05726e0de2"}</recraft-signature></metadata></svg>