<svg xmlns="http://www.w3.org/2000/svg" height="1024" preserveAspectRatio="none" style="display: block;" version="1.1" viewBox="0 0 2048 2048" width="1024">
<defs>
	<linearGradient gradientUnits="userSpaceOnUse" id="Gradient1" x1="628.656" x2="523.869" y1="716.468" y2="465.482">
		<stop class="stop0" offset="0" stop-color="rgb(120,14,20)" stop-opacity="1"></stop>
		<stop class="stop1" offset="1" stop-color="rgb(164,12,24)" stop-opacity="1"></stop>
	</linearGradient>
	<linearGradient gradientUnits="userSpaceOnUse" id="Gradient2" x1="1559.18" x2="1507.31" y1="1576.82" y2="1984.3">
		<stop class="stop0" offset="0" stop-color="rgb(191,2,3)" stop-opacity="1"></stop>
		<stop class="stop1" offset="1" stop-color="rgb(139,7,14)" stop-opacity="1"></stop>
	</linearGradient>
</defs>
<path d="M 0 0 L 994.205 0 L 1000.63 0 L 1137.74 0 L 1152.79 0 L 1295.76 0 L 1301.58 0 L 1333.06 0 L 1339.55 0 L 1353.08 0 L 1359.64 0 L 1401.43 0 L 1407.79 0 L 1418.86 0 L 1424.81 0 L 1619.79 0 L 1638.33 0 L 2048 0 L 2048 189.47 L 2048 195.755 L 2048 429.41 L 2048 436.297 L 2048 580.054 L 2048 586.52 L 2048 1062.77 L 2048 1069.21 L 2048 1159.72 L 2048 1165.95 L 2048 1190.03 L 2048 1196.31 L 2048 2048 L 262.341 2048 L 247.672 2048 L 200.642 2048 L 185.785 2048 L 0 2048 L 0 1233.53 L 0 1227.59 L 0 1167.47 L 0 1161.09 L 0 0 z" fill="rgb(132,11,18)" transform="translate(0,0)"></path>
<path d="M 1608.32 835.201 L 1921.56 997.863 C 1963.37 1019.33 2005.69 1042.97 2048 1062.77 L 2048 1069.21 L 2048 1159.72 L 2048 1165.95 L 2048 1190.03 L 2048 1196.31 L 2048 2048 L 262.341 2048 L 247.672 2048 L 200.642 2048 L 185.785 2048 L 0 2048 L 0 1233.53 L 0 1227.59 L 0 1167.47 L 0 1161.09 C 43.1806 1144.84 92.8576 1121.09 136.129 1102.48 L 259.128 1048.76 C 300.275 1030.92 342.725 1013.08 383.372 994.342 L 383.673 999.596 C 385.436 1007.58 394.949 1051.48 393.035 1055.95 L 392.773 1056.12 L 394.234 1060.87 C 397.05 1068.54 397.95 1079.27 400.28 1087.54 C 400.298 1091.06 404.171 1111.47 405.128 1116.61 C 413.554 1161.9 422.012 1210.59 437.849 1253.82 C 442.826 1267.41 454.818 1284.12 464.303 1294.98 C 558.167 1402.51 745.143 1449.92 882.023 1461.15 C 1082.76 1475.42 1315.07 1456.71 1478.06 1326.47 C 1550.42 1268.65 1552.03 1196.34 1564.92 1113.8 C 1569.66 1083.29 1573.99 1052.71 1577.89 1022.07 C 1579.93 1006.67 1582.98 988.724 1584.24 973.472 C 1584.84 970.501 1584.95 970.679 1586.88 968.261 C 1583.32 965.445 1589.32 934.339 1589.89 927.694 C 1589.33 925.063 1589.66 925.507 1590.27 922.57 C 1592.72 916.461 1592.72 908.013 1593.88 901.783 C 1596.37 888.378 1599.98 850.928 1604.07 839.975 L 1605.26 839.609 C 1606.31 838.395 1607.41 836.581 1608.32 835.201 z" fill="rgb(254,254,254)" transform="translate(0,0)"></path>
<path d="M 1584.24 973.472 C 1669.29 1022.36 1754.68 1070.67 1840.4 1118.39 C 1877.8 1139.38 1915.87 1159.15 1952.78 1180.94 C 1958.01 1184.03 1972.28 1191.95 1972.04 1198.68 C 1965.77 1203.04 1954.09 1207.64 1946.77 1211.28 C 1923.3 1223.17 1899.71 1234.83 1876.01 1246.26 L 1604.99 1376.24 L 577.693 1862.87 L 294.866 1996.75 L 223.488 2030.04 C 213.323 2034.76 195.057 2042.37 185.785 2048 L 0 2048 L 0 1233.53 L 0 1227.59 L 0 1167.47 L 0 1161.09 C 43.1806 1144.84 92.8576 1121.09 136.129 1102.48 L 259.128 1048.76 C 300.275 1030.92 342.725 1013.08 383.372 994.342 L 383.673 999.596 C 385.436 1007.58 394.949 1051.48 393.035 1055.95 L 392.773 1056.12 L 394.234 1060.87 C 397.05 1068.54 397.95 1079.27 400.28 1087.54 C 400.298 1091.06 404.171 1111.47 405.128 1116.61 C 413.554 1161.9 422.012 1210.59 437.849 1253.82 C 442.826 1267.41 454.818 1284.12 464.303 1294.98 C 558.167 1402.51 745.143 1449.92 882.023 1461.15 C 1082.76 1475.42 1315.07 1456.71 1478.06 1326.47 C 1550.42 1268.65 1552.03 1196.34 1564.92 1113.8 C 1569.66 1083.29 1573.99 1052.71 1577.89 1022.07 C 1579.93 1006.67 1582.98 988.724 1584.24 973.472 z" fill="rgb(254,254,254)" transform="translate(0,0)"></path>
<path d="M 0 1161.09 C 43.1806 1144.84 92.8576 1121.09 136.129 1102.48 L 259.128 1048.76 C 300.275 1030.92 342.725 1013.08 383.372 994.342 L 383.673 999.596 C 385.436 1007.58 394.949 1051.48 393.035 1055.95 L 392.773 1056.12 C 366.951 1065.23 325.68 1085.23 298.728 1096.99 L 88.122 1189.39 C 66.8678 1198.61 45.9155 1208.83 24.4551 1217.62 C 18.2249 1220.17 5.88707 1225.94 0 1227.59 L 0 1167.47 L 0 1161.09 z" fill="rgb(254,254,254)" transform="translate(0,0)"></path>
<path d="M 0 1161.09 C 43.1806 1144.84 92.8576 1121.09 136.129 1102.48 L 259.128 1048.76 C 300.275 1030.92 342.725 1013.08 383.372 994.342 L 383.673 999.596 C 372.84 1006.03 354.125 1013.47 341.871 1018.89 C 312.66 1031.82 283.346 1044.51 253.934 1056.96 L 0 1167.47 L 0 1161.09 z" fill="rgb(218,28,40)" transform="translate(0,0)"></path>
<path d="M 0 1227.59 C 5.88707 1225.94 18.2249 1220.17 24.4551 1217.62 C 45.9155 1208.83 66.8678 1198.61 88.122 1189.39 L 298.728 1096.99 C 325.68 1085.23 366.951 1065.23 392.773 1056.12 L 394.234 1060.87 C 381.611 1065.42 363.939 1074.05 351.295 1079.7 L 280.188 1111.05 C 187.897 1151.57 92.8501 1194.69 0 1233.53 L 0 1227.59 z" fill="rgb(218,28,40)" transform="translate(0,0)"></path>
<path d="M 262.638 1385.44 C 363.622 1380.13 566.582 1397.45 640.894 1474.63 C 707.529 1477.51 759.595 1492.03 814.36 1531.77 C 839.67 1550.14 868.451 1582.39 872.819 1614.64 C 876.789 1642.49 869.367 1670.77 852.231 1693.08 C 815.723 1739.77 692.392 1754.5 635.24 1761.62 C 556.996 1771.34 411.958 1780.28 338.209 1756.37 C 297.483 1743.16 273.106 1725.64 253.779 1687.54 C 197.458 1689.02 98.6819 1677.42 58.2806 1640.66 C -3.30694 1580.98 51.7556 1458.36 112.225 1417.99 C 157.375 1387.84 209.973 1388.1 262.638 1385.44 z" fill="rgb(167,3,5)" transform="translate(0,0)"></path>
<path d="M 539.623 1482.5 C 579.054 1479.32 592.841 1481.9 629.332 1498.48 C 684.672 1523.62 724.733 1564.96 749.011 1620.63 C 753.603 1631.16 755.049 1641.16 758.931 1651.89 L 760.06 1652.37 C 764.85 1645.77 765.625 1620.51 764.763 1611.71 C 760.176 1564.85 746.078 1525.87 710.671 1494.66 C 756.818 1505.96 791.115 1525.82 826.772 1556.44 C 868.423 1592.19 877.638 1651.57 837.946 1693.15 C 831.112 1700.36 823.178 1706.43 814.438 1711.14 C 748.607 1745.9 579.152 1760.53 503.815 1762.46 C 448.752 1763.43 375.589 1760.8 323.744 1739.72 C 297.66 1729.12 271.49 1705.34 261.286 1678.42 C 253.313 1657.38 254.729 1630.59 264.879 1609.29 C 281.378 1574.68 324.071 1536.77 359.024 1520.98 C 371.22 1517.29 386.568 1516.91 399.004 1516.84 C 480.409 1516.4 562.531 1557.38 618.259 1615.54 C 624.388 1621.94 632.673 1638.66 639.832 1642.33 L 641.465 1641.59 C 646.746 1623.19 621.805 1577.18 611.106 1562.49 C 582.396 1523.09 531.185 1495.56 483.705 1487.93 C 501.067 1484.98 521.954 1483.48 539.623 1482.5 z" fill="rgb(254,254,254)" transform="translate(0,0)"></path>
<path d="M 309.629 1709.81 C 388.734 1733.78 472.622 1734.56 554.614 1733.83 L 560.827 1734.28 C 560.929 1735.54 561.121 1735.03 560.427 1735.88 C 486.831 1739.77 376.226 1746.3 309.629 1709.81 z" fill="rgb(218,28,40)" transform="translate(0,0)"></path>
<path d="M 748.32 1706.36 C 787.989 1696.21 832.808 1680.69 849.243 1638.66 C 851.376 1633.21 852.645 1627.68 854.551 1622.24 C 853.178 1638.32 851.149 1649.68 841.088 1662.76 C 819.332 1691.05 783.064 1703.19 749.106 1708.57 L 748.32 1706.36 z" fill="rgb(218,28,40)" transform="translate(0,0)"></path>
<path d="M 807.307 1639.79 C 810.779 1641.15 809.443 1640.09 811.608 1642.9 C 809.825 1648.29 803.99 1650.36 798.819 1653.06 C 796.185 1653.16 797.083 1653.36 794.691 1652.07 L 794.786 1650.13 C 798.141 1645.83 802.808 1643 807.307 1639.79 z" fill="rgb(167,3,5)" transform="translate(0,0)"></path>
<path d="M 472.993 1687.08 C 477.846 1688.5 488.212 1689.01 490.874 1691.57 L 490.379 1693.46 C 482.997 1695.07 473.063 1697.21 472.993 1687.08 z" fill="rgb(218,28,40)" transform="translate(0,0)"></path>
<path d="M 295.026 1646.4 C 298.199 1647.76 298.962 1647.67 300.712 1650.59 C 301.394 1654.41 300.405 1656.15 299.153 1659.83 C 295.864 1658.74 295.765 1659.02 293.633 1656.4 C 292.549 1652.6 293.811 1650.25 295.026 1646.4 z" fill="rgb(167,3,5)" transform="translate(0,0)"></path>
<path d="M 576.726 1732.81 L 583.704 1733.32 L 584.176 1734.18 L 583.894 1734.71 C 576.164 1735.15 568.137 1735.72 560.427 1735.88 C 561.121 1735.03 560.929 1735.54 560.827 1734.28 L 554.614 1733.83 C 560.232 1732.95 570.661 1732.97 576.726 1732.81 z" fill="rgb(245,88,92)" transform="translate(0,0)"></path>
<path d="M 362.137 1577.38 C 365.889 1579.11 364.687 1577.79 366.355 1580.98 C 366.199 1584.49 365.017 1585.67 363.096 1588.62 C 359.298 1587.37 360.525 1588.54 358.818 1585.57 C 358.884 1582.1 360.346 1580.39 362.137 1577.38 z" fill="rgb(167,3,5)" transform="translate(0,0)"></path>
<path d="M 576.726 1732.81 C 582.689 1732.07 591.843 1730.97 597.428 1733.09 L 595.229 1734.06 L 596.259 1733.94 L 595.13 1732.27 L 595.032 1734.12 C 592.524 1734.28 586.085 1734.86 583.894 1734.71 L 584.176 1734.18 L 583.704 1733.32 L 576.726 1732.81 z" fill="rgb(236,210,199)" transform="translate(0,0)"></path>
<path d="M 748.32 1706.36 L 749.106 1708.57 C 743.429 1709.81 738.584 1709.97 732.816 1710.36 C 738.513 1708.52 742.496 1707.63 748.32 1706.36 z" fill="rgb(218,28,40)" transform="translate(0,0)"></path>
<path d="M 148.874 1410.9 C 151.049 1410.98 151.49 1411.08 153.484 1412.12 C 207.005 1440.1 266.856 1503.2 286.397 1560.13 C 255.566 1588.96 235.363 1634.87 247.391 1677.01 C 232.483 1677.39 205.241 1674.26 189.995 1672.82 C 146.212 1667.6 69.9254 1655.87 49.5359 1609.49 C 36.6422 1580.16 47.1667 1531.04 58.9282 1502.57 C 76.2435 1460.66 106.916 1428.69 148.874 1410.9 z" fill="rgb(254,254,254)" transform="translate(0,0)"></path>
<path d="M 67.9283 1592.86 C 73.8318 1597.26 79.5271 1609.85 91.3774 1616.95 C 123.348 1636.1 164.621 1640.59 201.201 1642.28 C 205.898 1642.5 222.873 1642.05 225.632 1643.4 L 222.835 1644.77 C 176.548 1654.97 97.8871 1645.56 68.5172 1601.68 C 66.3804 1598.49 66.9553 1596.2 67.9283 1592.86 z" fill="rgb(167,3,5)" transform="translate(0,0)"></path>
<path d="M 116.003 1509.33 C 125.969 1512.67 122.152 1520.02 118.278 1526.75 C 108.301 1524.26 112.363 1515.51 116.003 1509.33 z" fill="rgb(167,3,5)" transform="translate(0,0)"></path>
<path d="M 146.536 1590.8 C 150.334 1590.77 154.237 1590.31 157.416 1592.18 C 159.37 1595.43 158.807 1594.24 158.382 1598.76 C 154.198 1599 153.772 1599.19 149.955 1597.78 C 146.702 1594.29 147.712 1595.77 146.536 1590.8 z" fill="rgb(167,3,5)" transform="translate(0,0)"></path>
<path d="M 261.557 1397.43 C 277.892 1396.2 359.4 1395.44 372.121 1402.45 C 403.508 1419.73 427.124 1449.77 439.095 1483.51 C 414.874 1487.6 398.534 1493.02 375.66 1500.99 C 346.898 1511.96 327.98 1524.43 304.605 1543.6 C 300.1 1493.58 272.97 1433.49 236.458 1399.01 C 244.472 1398.23 253.452 1397.9 261.557 1397.43 z" fill="rgb(254,254,254)" transform="translate(0,0)"></path>
<path d="M 457.011 1492.37 C 481.834 1488.42 532.118 1509.49 553.994 1521.85 C 596.47 1545.84 625.317 1587.19 637.539 1634.29 C 626.206 1617.13 617.74 1606.19 602.98 1591.83 C 597.57 1586.91 591.976 1582.19 586.209 1577.69 C 527.136 1531.05 455.288 1502.18 379.197 1511.23 C 400.305 1503.83 435.122 1495.43 457.011 1492.37 z" fill="rgb(254,254,254)" transform="translate(0,0)"></path>
<path d="M 214.888 1400.42 C 218.393 1399.93 224.725 1399.85 228.471 1399.69 C 257.358 1422.36 283.014 1479.03 292.959 1514.72 C 295.804 1524.93 297.441 1537.24 298.883 1547.88 L 292.663 1553.57 C 287.287 1542.36 283.291 1534.2 276.9 1523.49 C 247.062 1470.74 209.345 1438.93 158.938 1407.71 C 177.493 1404.6 196.156 1402.17 214.888 1400.42 z" fill="rgb(254,254,254)" transform="translate(0,0)"></path>
<path d="M 463.397 1411.57 C 489.689 1418 515.727 1420.92 542.361 1430.31 C 558.819 1436.1 616.285 1458.7 622.309 1470.96 L 621.423 1472.1 L 615.762 1471.91 C 572.013 1465.96 517.582 1471.16 474.029 1477.74 C 474.64 1448.07 475.183 1438.52 463.397 1411.57 z" fill="rgb(254,254,254)" transform="translate(0,0)"></path>
<path d="M 607.121 1482.33 C 608.817 1482.32 610.512 1482.34 612.207 1482.39 C 634.722 1483.14 656.587 1486.28 678.886 1488.84 C 696.411 1490.85 704.209 1494.96 716.029 1508.2 C 745.659 1541.41 760.309 1589.16 758.63 1633.25 C 757.389 1631.86 757.547 1632.36 757.109 1630.63 C 741.694 1569.86 693.336 1519.37 636.898 1493.99 C 627.329 1489.69 617.199 1485.9 607.121 1482.33 z" fill="rgb(254,254,254)" transform="translate(0,0)"></path>
<path d="M 384.868 1401.81 C 401.207 1401.23 438.599 1407.17 454.987 1410.11 C 462.491 1425.38 472.494 1462.68 465.18 1478.33 L 446.12 1482.2 C 435.088 1444.29 414.919 1425.83 384.868 1401.81 z" fill="rgb(254,254,254)" transform="translate(0,0)"></path>
<path d="M 1608.32 835.201 L 1921.56 997.863 C 1963.37 1019.33 2005.69 1042.97 2048 1062.77 L 2048 1069.21 L 2048 1159.72 L 2048 1165.95 L 2048 1190.03 L 2048 1196.31 C 2042.7 1199.45 2035.95 1203.69 2030.55 1206.36 L 2030.21 1719.36 L 2029.57 1878.63 C 2029.36 1903.88 2030.12 1944.23 2026.66 1968.36 C 2024.09 1937.69 2024.68 1903.19 2024.73 1872.19 L 2025 1736.53 L 2025.04 1395.86 C 2025.03 1335.04 2026.06 1270.57 2024.71 1210.1 C 2011.39 1216.32 1994.87 1223.43 1981.97 1230.01 L 1981.74 1754.83 L 1981.71 1898.29 C 1981.69 1916.06 1982.27 1963.43 1979.48 1979.77 C 1977.2 1965.82 1977.24 1921.89 1976.98 1904.89 C 1976.12 1850.47 1975.78 1796.04 1975.97 1741.62 L 1975.92 1233.54 C 1701.42 1366.57 1426.1 1497.9 1149.98 1627.51 C 1006.04 1694.11 862.595 1761.79 719.66 1830.52 L 396.622 1984.32 C 356.891 2003.36 316.467 2021.02 277.097 2040.87 C 272.359 2043.26 266.897 2045.46 262.341 2048 L 247.672 2048 L 200.642 2048 L 185.785 2048 C 195.057 2042.37 213.323 2034.76 223.488 2030.04 L 294.866 1996.75 L 577.693 1862.87 L 1604.99 1376.24 L 1876.01 1246.26 C 1899.71 1234.83 1923.3 1223.17 1946.77 1211.28 C 1954.09 1207.64 1965.77 1203.04 1972.04 1198.68 C 1972.28 1191.95 1958.01 1184.03 1952.78 1180.94 C 1915.87 1159.15 1877.8 1139.38 1840.4 1118.39 C 1754.68 1070.67 1669.29 1022.36 1584.24 973.472 C 1584.84 970.501 1584.95 970.679 1586.88 968.261 C 1583.32 965.445 1589.32 934.339 1589.89 927.694 C 1589.33 925.063 1589.66 925.507 1590.27 922.57 C 1592.72 916.461 1592.72 908.013 1593.88 901.783 C 1596.37 888.378 1599.98 850.928 1604.07 839.975 L 1605.26 839.609 C 1606.31 838.395 1607.41 836.581 1608.32 835.201 z" fill="rgb(218,28,40)" transform="translate(0,0)"></path>
<path d="M 1608.32 835.201 L 1921.56 997.863 C 1963.37 1019.33 2005.69 1042.97 2048 1062.77 L 2048 1069.21 L 2048 1159.72 C 2040.67 1163.11 2033.63 1167.37 2026.63 1171.42 C 2010.91 1149.14 1975.14 1133.38 1951 1119.92 L 1813.97 1045.19 L 1666.19 963.382 C 1645.43 951.967 1610.65 931.564 1590.27 922.57 C 1592.72 916.461 1592.72 908.013 1593.88 901.783 C 1596.37 888.378 1599.98 850.928 1604.07 839.975 L 1605.26 839.609 C 1606.31 838.395 1607.41 836.581 1608.32 835.201 z" fill="rgb(254,254,254)" transform="translate(0,0)"></path>
<path d="M 1608.32 835.201 L 1921.56 997.863 C 1963.37 1019.33 2005.69 1042.97 2048 1062.77 L 2048 1069.21 C 2013.95 1052.73 1984.66 1036.79 1951.5 1019.55 L 1801.89 942.131 C 1737.63 908.839 1667.84 875.523 1605.26 839.609 C 1606.31 838.395 1607.41 836.581 1608.32 835.201 z" fill="rgb(218,28,40)" transform="translate(0,0)"></path>
<path d="M 200.642 2048 C 210.401 2042.21 224.972 2036.01 235.499 2031.22 C 250.682 2024.29 265.803 2017.24 280.862 2010.05 L 451.389 1928.99 L 947.271 1694.2 C 1185.6 1583.19 1423.25 1470.71 1660.21 1356.79 L 1842.46 1268.78 C 1885.59 1247.72 1930.35 1225.24 1973.87 1205.33 C 1975.04 1213.18 1975.69 1218.97 1976.2 1226.87 C 1563.13 1426.25 1148.81 1623.03 733.261 1817.2 L 399.479 1976.03 L 303.815 2020.96 C 289.821 2027.45 259.981 2040.28 247.672 2048 L 200.642 2048 z" fill="rgb(254,254,254)" transform="translate(0,0)"></path>
<path d="M 1589.89 927.694 C 1605.43 935.513 1620.3 945.667 1635.75 953.926 C 1700.79 988.843 1765.52 1024.34 1829.92 1060.41 L 1939.87 1120.5 C 1962.79 1133.07 2007.08 1153.46 2020.26 1174.42 C 2007 1181.61 1992.91 1189.57 1979.5 1196.29 C 1975.44 1189.81 1970.99 1184.96 1964.38 1180.9 C 1942.86 1167.68 1920.45 1155.63 1898.27 1143.6 C 1868.98 1127.75 1839.81 1111.68 1810.77 1095.38 L 1672.77 1017.35 C 1645.05 1001.46 1614.79 983.3 1586.88 968.261 C 1583.32 965.445 1589.32 934.339 1589.89 927.694 z" fill="rgb(254,254,254)" transform="translate(0,0)"></path>
<path d="M 2048 1165.95 L 2048 1190.03 C 2041.68 1194.44 2037.28 1196.97 2030.5 1200.7 C 2030.23 1192.52 2029.23 1184.54 2028.33 1176.41 L 2048 1165.95 z" fill="rgb(254,254,254)" transform="translate(0,0)"></path>
<path d="M 2020.79 1180.85 C 2021.48 1181.07 2022.03 1181.61 2022.62 1182.02 C 2024.15 1188.43 2024.43 1196.86 2024.87 1203.59 C 2011.47 1209.98 1997.95 1216.12 1984.32 1222 C 1981.89 1219.96 1980.56 1206.81 1979.92 1202.71 L 2020.79 1180.85 z" fill="rgb(254,254,254)" transform="translate(0,0)"></path>
<path d="M 1172.12 1862.22 C 1152.43 1841.85 1139.12 1803.33 1139.54 1775.11 C 1140.08 1738.72 1158.28 1703.89 1184.7 1679.4 C 1271.93 1598.5 1417.44 1573.5 1532.56 1576.42 C 1625.97 1578.78 1725.53 1598.58 1808.14 1642.52 C 1837.11 1657.93 1862.89 1673.83 1885.54 1697.78 C 1911.98 1725.74 1928.5 1752.55 1927.52 1792.15 C 1926.55 1831.44 1902.67 1866.02 1875.2 1892.35 C 1872.23 1895.2 1859.27 1906.05 1856.38 1907.42 C 1843.49 1920.16 1801.06 1944.5 1783.4 1951.6 C 1669.48 1997.4 1532.43 2003.83 1412.44 1982.79 C 1336.21 1969.43 1216.82 1927.38 1172.12 1862.22 z" fill="url(#Gradient2)" transform="translate(0,0)"></path>
<path d="M 1172.12 1862.22 C 1179.39 1863.77 1204.53 1891.37 1214.61 1897.87 C 1255.2 1924.08 1297.82 1944.9 1344.56 1957.74 C 1493.18 1998.57 1663.16 1995.06 1806.27 1934.94 C 1817.85 1930.07 1847.31 1907.56 1856.38 1907.42 C 1843.49 1920.16 1801.06 1944.5 1783.4 1951.6 C 1669.48 1997.4 1532.43 2003.83 1412.44 1982.79 C 1336.21 1969.43 1216.82 1927.38 1172.12 1862.22 z" fill="rgb(218,28,40)" transform="translate(0,0)"></path>
<path d="M 1486.75 1583.44 C 1611.7 1577.9 1769.25 1608.66 1868.08 1690.43 C 1925.58 1738 1937.26 1809.88 1884.17 1865.66 C 1810.56 1943.01 1683.81 1968.05 1581.75 1973.28 C 1556.23 1975.53 1525.1 1974.39 1499.5 1972.6 C 1394.47 1965 1285.8 1943.23 1202.76 1874.3 C 1145.09 1826.44 1125.77 1753.53 1179.98 1694.72 C 1255.53 1612.78 1380.39 1589.89 1486.75 1583.44 z" fill="rgb(254,254,254)" transform="translate(0,0)"></path>
<path d="M 1482.54 1590.43 C 1482.68 1590.42 1482.82 1590.41 1482.96 1590.4 C 1524.01 1588.64 1565.13 1590.15 1605.93 1594.92 C 1693.2 1605.86 1795.2 1636.68 1863.7 1693.79 C 1917.83 1738.93 1931.76 1806.66 1881.21 1860.55 C 1810.61 1935.83 1683.93 1962.95 1584.75 1967.16 C 1583.85 1967.23 1582.94 1967.29 1582.03 1967.34 C 1504.96 1972.11 1420.63 1962.18 1346.56 1941.38 C 1295.25 1926.97 1243.89 1902.86 1204.22 1866.72 C 1092.46 1764.9 1191.63 1665.06 1300.51 1625.04 C 1366.38 1600.83 1412.64 1594.08 1482.54 1590.43 z" fill="rgb(218,28,40)" transform="translate(0,0)"></path>
<path d="M 1491.88 1622.57 C 1581.88 1616.47 1719.4 1641.19 1790.65 1701.09 C 1811.78 1719.33 1832.15 1746.23 1833.22 1775.28 C 1835.42 1834.55 1781.27 1873.14 1733.42 1894.83 C 1681.53 1918.34 1627.32 1927.91 1571.25 1931.68 C 1470.65 1936.86 1347.81 1914.59 1270.68 1847.5 C 1179.72 1768.39 1263.82 1682.5 1348.95 1652.01 C 1400.99 1633.38 1437.12 1624.97 1491.88 1622.57 z" fill="rgb(254,254,254)" transform="translate(0,0)"></path>
<path d="M 1496.17 1627.43 C 1585.71 1621.75 1713.69 1645.85 1783.97 1701.97 C 1880.02 1778.66 1804.33 1866.32 1714.96 1898.01 C 1661.64 1916.92 1627.51 1922.24 1571.25 1926.88 C 1467.82 1930.55 1357.33 1912.33 1274.82 1844.34 C 1232.15 1809.18 1222.33 1754.44 1263.05 1713.08 C 1323.14 1652.02 1413.19 1631.25 1496.17 1627.43 z" fill="rgb(218,28,40)" transform="translate(0,0)"></path>
<path d="M 1513.86 1667.44 C 1583.33 1665.06 1665.92 1678.6 1720.7 1724.29 C 1763.88 1760.3 1758.34 1808.26 1712.42 1839.04 C 1666.79 1869.62 1616.26 1879.44 1562.34 1882.08 C 1492.41 1883.82 1410.34 1870.8 1354.02 1826.41 C 1320.84 1800.26 1313.17 1757.48 1344.49 1726.27 C 1386.49 1684.43 1456.68 1670.34 1513.86 1667.44 z" fill="rgb(254,254,254)" transform="translate(0,0)"></path>
<path d="M 1513.56 1672.43 C 1573.17 1667.27 1649.2 1683.52 1699.63 1714.45 C 1737.89 1737.92 1765.39 1781.75 1727.19 1820.25 C 1687.54 1860.21 1617.19 1875.42 1562.09 1877.18 C 1500.63 1881.32 1406.71 1863.44 1358.37 1824.23 C 1344.51 1813.12 1330.53 1793.64 1329.68 1775.21 C 1327.64 1730.95 1377.4 1704.12 1412.36 1691.22 C 1446.07 1678.79 1478.62 1674.27 1513.56 1672.43 z" fill="rgb(218,28,40)" transform="translate(0,0)"></path>
<path d="M 1524.64 1713.43 C 1559.93 1711.71 1608.33 1718.92 1636.98 1741.78 C 1654.63 1755.87 1658.73 1780.7 1642.32 1797.78 C 1618.69 1822.36 1582.1 1829.27 1549.46 1831.97 C 1511.86 1832.36 1469.67 1826.77 1438.23 1804.34 C 1419.82 1791.21 1409.92 1767.22 1426.86 1748.43 C 1450.62 1722.1 1491.04 1715.74 1524.64 1713.43 z" fill="rgb(254,254,254)" transform="translate(0,0)"></path>
<path d="M 1522.15 1718.42 C 1555.87 1716.18 1601.74 1722.62 1630.26 1742.68 C 1646.94 1753.93 1655.07 1776.55 1640.35 1793.06 C 1618.57 1817.5 1582.31 1823.57 1551.85 1826.89 C 1513.67 1827.61 1471.54 1822.84 1440.23 1799.66 C 1411.42 1778.32 1421.93 1750 1450.21 1735.98 C 1474.21 1724.09 1495.95 1720.4 1522.15 1718.42 z" fill="rgb(218,28,40)" transform="translate(0,0)"></path>
<path d="M 994.205 0 L 1000.63 0 L 1137.74 0 L 1152.79 0 L 1295.76 0 L 1301.58 0 L 1333.06 0 L 1339.55 0 L 1353.08 0 L 1359.64 0 L 1401.43 0 L 1407.79 0 L 1418.86 0 L 1424.81 0 L 1619.79 0 L 1638.33 0 L 2048 0 L 2048 189.47 L 2048 195.755 L 2048 429.41 L 2048 436.297 L 2048 580.054 L 2048 586.52 L 2048 1062.77 C 2005.69 1042.97 1963.37 1019.33 1921.56 997.863 L 1608.32 835.201 L 1607.38 833.743 C 1607.64 831.922 1607.43 831.092 1609.45 830.117 C 1621.56 824.259 1631.67 819.489 1642.66 811.344 C 1654.06 803.069 1663.63 792.536 1670.78 780.4 C 1687.15 752.174 1685.38 727.595 1677.44 697.306 C 1689.14 692.284 1702.89 685.211 1714.87 679.738 C 1727.59 673.926 1749.2 664.915 1760.37 657.938 C 1765.57 654.735 1770.23 650.718 1774.16 646.041 C 1803.2 610.879 1765.75 578.876 1739.39 559.485 C 1681.95 517.223 1620.01 482.125 1555.47 451.908 C 1545.52 447.248 1533.58 442.42 1522.56 440.441 C 1497.37 437.976 1465.37 441.851 1440.59 445.252 C 1422.56 434.841 1407.49 425.927 1388.87 416.255 C 1388.55 415.232 1388.21 414.213 1387.86 413.199 C 1372.93 368.954 1340.68 332.664 1298.5 312.643 C 1267.75 297.921 1240.4 293.677 1208.09 304.934 C 1192.95 296.913 1175.83 291.397 1160.03 284.968 C 1120.4 268.848 1080.63 254.233 1039.38 242.795 C 1027.37 239.463 1014.58 235.968 1002.89 231.713 C 1001.23 229.181 1001.46 224.821 1001.31 221.567 C 1001.15 225.34 1001.65 228.196 999.839 230.986 C 997.409 231.15 997.363 231.23 995.011 230.719 L 994.735 90.4615 C 994.675 60.7855 995.261 29.5431 994.205 0 z" fill="rgb(254,254,254)" transform="translate(0,0)"></path>
<path d="M 1152.79 0 L 1295.76 0 L 1301.58 0 L 1333.06 0 L 1339.55 0 L 1353.08 0 L 1359.64 0 L 1401.43 0 L 1407.79 0 L 1418.86 0 L 1424.81 0 L 1619.79 0 L 1638.33 0 L 2048 0 L 2048 189.47 L 2048 195.755 L 2048 429.41 L 1448.56 140.503 L 1262.64 51.9442 L 1191.51 18.6981 C 1180.25 13.4302 1163.05 6.07162 1152.79 0 z" fill="rgb(254,254,254)" transform="translate(0,0)"></path>
<path d="M 1638.33 0 L 2048 0 L 2048 189.47 C 2026.77 179.056 2004.07 169.611 1982.47 159.449 C 1906.26 123.5 1829.83 88.0026 1753.2 52.9582 C 1729.32 41.9352 1705.47 31.1205 1681.77 19.6874 C 1668.05 13.0682 1651.48 7.28501 1638.33 0 z" fill="rgb(254,254,254)" transform="translate(0,0)"></path>
<path d="M 1295.76 0 L 1301.58 0 L 1333.06 0 L 1339.55 0 L 1353.08 0 L 1359.64 0 L 1401.43 0 L 1407.79 0 L 1418.86 0 L 1424.81 0 C 1428.26 33.0933 1418.31 60.514 1381.52 68.2362 C 1364.82 70.9918 1347.49 79.3962 1332.02 68.3274 C 1308.66 51.6112 1301.31 26.4601 1295.76 0 z" fill="rgb(218,28,40)" transform="translate(0,0)"></path>
<path d="M 1359.64 0 L 1401.43 0 C 1408.35 23.8328 1398 52.4666 1374.68 62.9623 C 1367.46 66.2109 1361.08 66.9867 1353.32 68.2878 C 1350.38 46.6217 1352.62 20.7175 1359.64 0 z" fill="rgb(254,254,254)" transform="translate(0,0)"></path>
<path d="M 1301.58 0 L 1333.06 0 C 1329.72 20.3224 1326.14 36.423 1330.2 57 C 1328.77 57.3798 1328.56 57.6495 1327.25 56.4964 C 1312.59 43.5774 1305.02 16.7778 1301.58 0 z" fill="rgb(254,254,254)" transform="translate(0,0)"></path>
<path d="M 1339.55 0 L 1353.08 0 C 1349.06 16.4484 1347.14 28.9763 1346.16 46.0077 C 1345.76 53.0196 1348.64 64.659 1345.01 68.0005 C 1340.42 67.2508 1337.68 63.2466 1336.65 58.9856 C 1331.2 39.7009 1335.36 19.0502 1339.55 0 z" fill="rgb(254,254,254)" transform="translate(0,0)"></path>
<path d="M 1407.79 0 L 1418.86 0 C 1421.68 30.0799 1417.21 49.455 1387.32 62.6503 C 1404.37 43.3819 1413.31 26.604 1407.79 0 z" fill="rgb(254,254,254)" transform="translate(0,0)"></path>
<path d="M 1619.79 0 L 1638.33 0 C 1651.48 7.28501 1668.05 13.0682 1681.77 19.6874 C 1705.47 31.1205 1729.32 41.9352 1753.2 52.9582 C 1829.83 88.0026 1906.26 123.5 1982.47 159.449 C 2004.07 169.611 2026.77 179.056 2048 189.47 L 2048 195.755 C 2009.42 178.828 1973.85 161.33 1935.87 143.604 L 1768.61 66.6243 C 1717.62 43.233 1671.65 21.6112 1619.79 0 z" fill="rgb(218,28,40)" transform="translate(0,0)"></path>
<path d="M 1654.82 68.3932 C 1664.17 67.6556 1673.42 68.1093 1681.94 72.7762 C 1715.93 91.3897 1732.29 148.722 1715.74 183.029 C 1706.86 201.45 1679.95 207.645 1661.94 213.253 C 1648.63 216.673 1637.67 218.97 1626 209.44 C 1607.61 193.904 1598.41 164.625 1595.95 141.361 C 1591.35 97.71 1612.15 72.9457 1654.82 68.3932 z" fill="rgb(218,28,40)" transform="translate(0,0)"></path>
<path d="M 1671.22 85.3875 C 1679.33 89.9061 1689.49 110.715 1693.14 119.354 C 1704.57 146.355 1706.96 190.942 1673.74 204.089 C 1664.89 207.12 1658.14 208.989 1649.05 211.263 C 1647.63 180.286 1661.37 116.307 1671.22 85.3875 z" fill="rgb(254,254,254)" transform="translate(0,0)"></path>
<path d="M 1647.94 74.2926 C 1648.64 74.2563 1650.73 74.4775 1651.51 74.5412 C 1652.55 77.5411 1651.58 79.2314 1650.63 82.3998 C 1639.41 119.922 1619.54 165.534 1627.81 205.017 C 1624.06 200.849 1621.03 196.267 1617.82 191.674 C 1610.8 179.314 1605.89 165.866 1603.29 151.886 C 1596.44 115.052 1605.9 81.1829 1647.94 74.2926 z" fill="rgb(254,254,254)" transform="translate(0,0)"></path>
<path d="M 1658.09 77.5205 C 1659.89 78.3351 1665.62 80.7426 1665.43 81.8267 C 1659.11 117.892 1646.17 154.626 1643.68 191.921 C 1643.06 201.145 1643.58 203.837 1642.89 209.976 L 1641.34 210.742 C 1612.79 196.897 1652.11 103.542 1657.77 78.9356 L 1658.09 77.5205 z" fill="rgb(254,254,254)" transform="translate(0,0)"></path>
<path d="M 1656.22 72.3903 C 1702.89 67.633 1727.81 144.063 1711.79 179.457 C 1708.33 187.106 1704.83 190.181 1698.39 194.908 L 1689.14 200.1 C 1709.77 176.547 1709.88 153.351 1700.5 124.153 C 1695.26 107.839 1685.28 90.2994 1671.49 79.758 C 1667.45 76.6714 1661.03 74.7342 1656.22 72.3903 z" fill="rgb(254,254,254)" transform="translate(0,0)"></path>
<path d="M 1833.58 151.414 C 1841.86 151.625 1848.45 151.911 1856.19 155.85 C 1889.97 173.058 1907.46 226.163 1891.68 260.162 C 1882.44 280.082 1851.99 288.633 1832.22 295.082 C 1779.66 310.465 1752.62 201.079 1785.42 170.444 C 1802.22 154.744 1812.29 152.597 1833.58 151.414 z" fill="rgb(218,28,40)" transform="translate(0,0)"></path>
<path d="M 1843.81 166.911 C 1875.49 190.275 1894.28 261.451 1850.65 282.957 L 1826.08 291.333 C 1825.05 268.115 1835.38 186.898 1843.81 166.911 z" fill="rgb(254,254,254)" transform="translate(0,0)"></path>
<path d="M 1821.38 158.241 C 1823.76 157.906 1823.96 158.023 1826.37 158.318 C 1827.02 160.792 1817.78 186.313 1816.37 190.979 C 1805.88 225.726 1800.91 245.851 1802.29 282.25 L 1793.34 270.816 C 1785.92 259.406 1780.88 246.616 1778.52 233.213 C 1772.08 197.141 1780.8 165.631 1821.38 158.241 z" fill="rgb(254,254,254)" transform="translate(0,0)"></path>
<path d="M 1833.56 160.738 C 1835.15 161.794 1838.5 163.864 1839.82 164.998 C 1828.4 190.089 1820.94 261.206 1819.01 289.728 L 1817.4 291.027 C 1789.96 286.176 1824.52 179.056 1833.56 160.738 z" fill="rgb(254,254,254)" transform="translate(0,0)"></path>
<path d="M 1835.09 157.132 L 1834.9 156.377 C 1872.62 157.1 1892.97 202.741 1891.89 235.548 C 1891.24 255.046 1885.61 267.592 1868.04 276.479 C 1880.61 259.286 1884.14 244.427 1880.63 223.436 C 1876.5 198.836 1865.91 175.456 1844.03 162.22 C 1840.9 160.526 1838.13 158.965 1835.09 157.132 z" fill="rgb(254,254,254)" transform="translate(0,0)"></path>
<path d="M 1000.63 0 L 1137.74 0 L 1152.79 0 C 1163.05 6.07162 1180.25 13.4302 1191.51 18.6981 L 1262.64 51.9442 L 1448.56 140.503 L 2048 429.41 L 2048 436.297 L 2048 580.054 C 2011.67 564.727 1967.07 540.557 1930.79 522.661 L 1668.11 391.806 C 1446.88 284.215 1224.49 179.02 1000.99 76.2387 L 1000.63 0 z" fill="rgb(254,254,254)" transform="translate(0,0)"></path>
<path d="M 1137.74 0 L 1152.79 0 C 1163.05 6.07162 1180.25 13.4302 1191.51 18.6981 L 1262.64 51.9442 L 1448.56 140.503 L 2048 429.41 L 2048 436.297 C 2027.04 427.374 2004.86 415.582 1984.23 405.566 L 1828.03 328.733 L 1362.77 106.311 L 1201.79 30.178 C 1180.7 20.3297 1159.05 8.95654 1137.74 0 z" fill="rgb(218,28,40)" transform="translate(0,0)"></path>
<path d="M 994.205 0 L 1000.63 0 L 1000.99 76.2387 C 1224.49 179.02 1446.88 284.215 1668.11 391.806 L 1930.79 522.661 C 1967.07 540.557 2011.67 564.727 2048 580.054 L 2048 586.52 C 2007.44 567.721 1967.97 546.37 1927.74 526.857 C 1836.03 482.384 1745.38 435.41 1653.64 391.14 L 1284.68 214.299 L 1097.37 126.215 C 1065.15 111.115 1033.09 96.8313 1001.08 81.2167 L 1001.31 221.567 C 1001.15 225.34 1001.65 228.196 999.839 230.986 C 997.409 231.15 997.363 231.23 995.011 230.719 L 994.735 90.4615 C 994.675 60.7855 995.261 29.5431 994.205 0 z" fill="rgb(218,28,40)" transform="translate(0,0)"></path>
<path d="M 0 0 L 994.205 0 C 995.261 29.5431 994.675 60.7855 994.735 90.4615 L 995.011 230.719 C 909.763 211.418 767.552 176.641 740.691 295.002 C 732.797 329.784 751.759 372.981 772.751 399.776 L 771.901 399.957 C 763.626 401.661 750.868 402.974 742.1 404.257 C 724.469 406.662 706.935 409.738 689.538 413.478 C 590.315 434.451 490.097 468.02 409.902 532.228 C 365.706 567.613 344.081 610.864 332.349 664.994 C 331.713 668.947 329.083 684.237 329.207 687.338 C 298.038 697.401 267.381 709.087 236.443 719.837 C 217.473 726.428 195.678 731.505 177.963 740.973 C 172.501 743.893 167.35 748.369 164.51 753.949 C 160.342 762.133 159.683 786.138 162.814 794.577 C 174.121 825.049 303.195 907.487 336.611 928.192 C 341.945 931.496 372.587 948.194 374.336 951.115 C 374.846 951.967 374.903 953.016 375.187 953.967 C 376.626 960.005 378.385 968.531 380.11 974.291 C 380.664 981.007 382.112 987.711 383.372 994.342 C 342.725 1013.08 300.275 1030.92 259.128 1048.76 L 136.129 1102.48 C 92.8576 1121.09 43.1806 1144.84 0 1161.09 L 0 0 z" fill="rgb(254,254,254)" transform="translate(0,0)"></path>
<path d="M 329.207 687.338 C 329.083 684.237 331.713 668.947 332.349 664.994 L 339.57 667.624 L 340.82 667.075 C 341.301 670.499 341.597 672.543 341.659 675.981 C 347.796 720.482 363.336 748.64 394.072 781.45 C 405.516 793.667 417.707 807.698 431.855 816.819 C 436.632 821.257 446.963 828.036 452.541 831.99 C 481.48 852.502 511.774 867.936 543.721 883.2 C 559.528 890.752 574.307 899.937 590.64 907.288 C 730.713 970.333 874.158 991.598 1027.03 988.969 C 1182.36 986.299 1332.03 959.861 1472.44 890.67 C 1494.6 879.751 1533.35 858.643 1549.92 841.413 C 1563.95 841.1 1578.92 838.313 1592.79 835.914 C 1583.63 880.443 1578.89 919.214 1572.31 964.007 C 1567.13 999.316 1561.02 1033.74 1556.23 1069.4 C 1552.59 1096.83 1548.71 1124.23 1544.6 1151.6 C 1538.63 1190.86 1531.45 1236.93 1507.77 1270.23 C 1442.75 1361.66 1318.2 1400.78 1213.89 1425.16 C 1165.07 1436.58 1115.87 1441.46 1066.13 1445.09 C 887.089 1456.21 697.708 1434.15 542.076 1339.3 C 439.908 1277.03 438.9 1216.64 419.707 1108.54 C 411.201 1060.64 402.096 1006.96 391.471 959.553 C 477.008 1008.64 490.242 1004.63 589.922 999.056 C 604.535 998.24 633.021 995.967 647.006 997.439 C 662.709 999.092 673.007 1011.2 693.673 1015.44 C 726.41 1007.49 721.518 969.148 688.486 964.436 C 670.656 961.892 653.642 963.158 635.743 963.626 L 561.006 965.021 C 528.465 965.744 489.965 969.956 458.44 960.808 C 441.65 955.935 425.438 947.307 410.27 938.679 C 372.264 917.059 190.08 798.634 176.066 769.478 C 174.417 766.048 174.656 762.512 176.078 759.038 C 178.134 754.015 187.023 749.566 191.812 747.348 C 209.649 739.092 230.067 733.934 248.703 727.544 C 277.596 717.329 306.373 706.791 335.03 695.934 C 340.968 721.46 353.232 746.347 368.634 767.444 C 341.033 751.24 306.624 737.866 274.885 746.766 C 235.365 759.413 237.619 779.417 262.555 806.164 C 294.95 840.913 330.403 857.394 369.568 881.474 C 424.316 915.135 478.071 947.602 545.423 932.685 C 567.959 927.693 565.966 908.623 547.674 898.192 C 516.752 881.794 489.073 866.663 460.03 846.96 C 425.812 823.744 404.309 798.125 375.601 769.792 C 356.462 745.393 341.101 712.352 339.029 681.13 L 338.784 675.967 C 331.561 678.065 332.204 679.317 330.97 686.903 C 329.302 687.405 329.728 687.388 329.207 687.338 z" fill="rgb(218,28,40)" transform="translate(0,0)"></path>
<path d="M 772.751 399.776 C 775.576 403.629 776.815 405.395 779.008 409.614 C 782.735 413.726 785.319 417.787 788.396 422.359 C 700.696 434.413 612.851 452.727 533.718 488.577 C 457.71 523.386 354.389 584.972 367.829 682.602 C 374.367 730.102 414.951 774.391 452.599 800.933 C 594.831 901.209 788.108 935.358 957.342 941.588 C 1035.15 944.871 1113.1 941.096 1190.23 930.308 C 1275.63 917.614 1365.26 897.193 1443.54 861.134 C 1461.88 852.688 1477.18 847.261 1494.64 836.454 L 1515 838.938 C 1480.13 861.367 1421.25 884.979 1381.48 898.046 C 1177 965.223 944.687 974.152 734.328 929.974 C 645.576 911.335 547.257 880.565 470.707 832.23 C 457.796 824.078 447.185 816.97 435.251 807.515 C 430.66 803.878 412.327 787.252 409.832 785.836 L 409.809 788.358 C 412.221 790.336 414.81 792.626 415.561 795.665 C 417.285 802.637 430.441 810.818 432.412 815.461 L 431.855 816.819 C 417.707 807.698 405.516 793.667 394.072 781.45 C 363.336 748.64 347.796 720.482 341.659 675.981 C 341.597 672.543 341.301 670.499 340.82 667.075 L 339.57 667.624 L 332.349 664.994 C 344.081 610.864 365.706 567.613 409.902 532.228 C 490.097 468.02 590.315 434.451 689.538 413.478 C 706.935 409.738 724.469 406.662 742.1 404.257 C 750.868 402.974 763.626 401.661 771.901 399.957 L 772.751 399.776 z" fill="rgb(245,88,92)" transform="translate(0,0)"></path>
<path d="M 772.751 399.776 C 775.576 403.629 776.815 405.395 779.008 409.614 C 711.668 420.173 650.16 431.97 585.794 455.56 C 571.553 460.779 556.627 464.884 542.401 470.635 C 526.918 476.893 513.471 484.736 498.818 492.327 C 453.872 515.609 409.29 545.813 378.874 586.909 C 357.528 615.75 346.137 651.093 352.275 687.061 C 359.429 728.981 381.463 756.217 409.832 785.836 L 409.809 788.358 C 412.221 790.336 414.81 792.626 415.561 795.665 C 417.285 802.637 430.441 810.818 432.412 815.461 L 431.855 816.819 C 417.707 807.698 405.516 793.667 394.072 781.45 C 363.336 748.64 347.796 720.482 341.659 675.981 C 341.597 672.543 341.301 670.499 340.82 667.075 L 339.57 667.624 L 332.349 664.994 C 344.081 610.864 365.706 567.613 409.902 532.228 C 490.097 468.02 590.315 434.451 689.538 413.478 C 706.935 409.738 724.469 406.662 742.1 404.257 C 750.868 402.974 763.626 401.661 771.901 399.957 L 772.751 399.776 z" fill="url(#Gradient1)" transform="translate(0,0)"></path>
<path d="M 375.187 953.967 L 376.372 951.069 C 383.703 951.101 385.337 955.945 386.551 962.365 C 402.432 1046.32 414.26 1131.11 433.031 1214.47 C 436.589 1230.27 442.321 1246.23 449.963 1260.47 C 452.278 1264.85 462.254 1279.39 462.876 1281.7 L 462.444 1282.83 L 460.97 1282.71 C 420.473 1229.36 416.625 1133.03 403.48 1067.99 C 400.537 1071.81 400.929 1081.63 400.28 1087.54 C 397.95 1079.27 397.05 1068.54 394.234 1060.87 L 392.773 1056.12 L 393.035 1055.95 C 394.949 1051.48 385.436 1007.58 383.673 999.596 L 383.372 994.342 C 382.112 987.711 380.664 981.007 380.11 974.291 C 378.385 968.531 376.626 960.005 375.187 953.967 z" fill="rgb(218,28,40)" transform="translate(0,0)"></path>
<path d="M 380.11 974.291 L 380.206 972.472 C 380.478 966.498 379.237 962.261 380.652 956.48 L 381.922 955.994 C 383.554 960.174 383.805 966.537 384.794 971.597 C 391.002 1003.35 397.737 1036.23 403.48 1067.99 C 400.537 1071.81 400.929 1081.63 400.28 1087.54 C 397.95 1079.27 397.05 1068.54 394.234 1060.87 L 392.773 1056.12 L 393.035 1055.95 C 394.949 1051.48 385.436 1007.58 383.673 999.596 L 383.372 994.342 C 382.112 987.711 380.664 981.007 380.11 974.291 z" fill="rgb(167,3,5)" transform="translate(0,0)"></path>
<path d="M 846.67 498.43 C 849.5 498.03 857.195 498.097 860.405 498.037 C 887.826 523.871 916.475 548.368 946.254 571.443 C 1075.19 673.249 1221.15 751.414 1377.35 802.315 C 1410.99 813.332 1439.79 819.13 1472.94 828.267 C 1447.98 846.952 1378.53 872.88 1348.17 883.522 C 1314.67 849.79 1188.48 814.602 1139.91 806.171 C 1103.6 799.868 1046.39 793.496 1009.77 790.838 L 1008.76 790.689 C 990.093 787.679 973.835 779.419 954.744 777.461 C 921.343 774.037 904.412 776.598 878.082 797.073 C 848.809 796.991 820.893 798.388 791.754 800.448 C 784.66 800.95 775.329 796.536 768.145 795.544 C 759.904 794.406 751.099 795.966 742.844 796.566 C 695.997 799.446 638.076 835.304 608.632 871.932 L 608.256 871.808 C 541.287 849.029 472.8 815.435 422.581 765.161 C 409.682 752.248 398.48 742.004 390.233 725.399 C 394.945 700.562 409.439 670.539 426.535 652.109 C 527.163 543.627 707.897 509.646 846.67 498.43 z" fill="rgb(218,28,40)" transform="translate(0,0)"></path>
<path d="M 1395.62 457.879 C 1446.67 486.954 1491.8 518.13 1535.18 559.494 C 1566.8 589.646 1641.81 671.643 1597.97 716.158 C 1560.83 753.874 1481.01 730.854 1435.62 717.922 C 1296.68 678.33 1164.41 609.822 1047.21 525.652 C 1001.44 492.92 957.796 459.247 918.891 418.271 C 896.488 394.468 844.135 341.93 845.635 308.35 C 846.091 298.519 850.475 289.282 857.803 282.713 C 911.53 233.873 1091.84 294.988 1151.31 320.934 C 1155.06 322.572 1164.13 325.159 1166.46 327.642 C 1167.06 330.773 1166.51 330.166 1164.04 333.866 C 1153.44 341.659 1144.35 351.331 1137.24 362.402 C 1127.03 358.775 1103.67 353.974 1098.68 367.341 C 1098.72 387.105 1148.03 404.721 1161.42 388.855 C 1165.02 384.583 1167.91 379.171 1171.77 375.054 C 1206.24 346.112 1249.92 349.889 1284.27 377.416 C 1319.23 405.266 1332.16 449.78 1337.21 492.799 C 1339.99 516.541 1329.7 530.789 1352.69 552.29 C 1367.41 566.062 1416.21 575.156 1416.86 544.292 C 1417.09 533.286 1401.65 526.964 1394.39 519.316 C 1398.31 502.574 1398.27 474.752 1395.62 457.879 z" fill="rgb(218,28,40)" transform="translate(0,0)"></path>
<path d="M 851.48 223.418 C 863.049 222.095 878.135 223.34 890.131 224.3 C 969.827 230.722 1046.22 257.418 1121.62 282.408 C 1145.67 290.379 1169.38 303.571 1193.62 311.347 L 1195.31 311.882 C 1185.62 314.559 1179.26 317.971 1170.48 322.756 C 1158.93 316.388 1145.46 311.734 1133.22 306.828 C 1071.24 281.994 996.099 259.127 928.872 258.329 C 903.431 258.027 870.72 259.953 851.679 279.352 C 842.512 288.69 838.059 300.436 838.498 313.485 C 839.884 354.631 900.523 417.994 930.352 445.914 C 1062.87 569.942 1260.02 682.565 1435.54 729.704 C 1469.14 738.726 1505.5 749.176 1540.57 747.8 C 1562.41 746.943 1588.41 741.56 1603.66 724.56 C 1614.2 712.81 1620.86 697.306 1619.9 681.425 C 1616.81 630.507 1560.91 573.748 1524.24 540.879 C 1494.13 516.266 1465.36 492.317 1431.95 472.093 C 1419.54 464.578 1406.97 457.398 1394.59 449.869 L 1392.61 433.492 C 1428.39 450.585 1463.49 472.853 1495.58 496.144 C 1558.19 541.588 1658.07 640.943 1669.72 718.547 C 1671.99 733.656 1671.06 751.584 1661.43 764.105 C 1645.52 784.801 1608.61 793.447 1584.15 796.193 C 1465.87 809.47 1240.72 708.975 1137.33 650.034 C 1088.93 622.44 1046.87 593.661 1001.93 561.163 C 983.032 547.5 963.779 534.123 945.611 519.502 C 889.343 474.219 776.831 366.121 769.29 291.997 C 767.716 276.521 770.684 261.126 780.933 248.916 C 797.481 229.204 827.418 225.135 851.48 223.418 z" fill="rgb(218,28,40)" transform="translate(0,0)"></path>
<path d="M 790.18 428.441 L 792.505 427.976 C 795.338 428.9 805.429 442.258 807.933 445.424 C 822.925 464.389 837.132 478.338 855.631 493.757 C 796.962 493.925 713.689 507.845 657.116 523.09 C 565.838 547.687 452.405 591.823 402.122 676.893 C 394.563 689.883 388.8 703.838 384.992 718.376 C 346.928 632.276 409.058 565.555 479.359 523.423 C 572.797 467.427 683.472 443.336 790.18 428.441 z" fill="rgb(218,28,40)" transform="translate(0,0)"></path>
<path d="M 766.779 253.847 C 768.605 255.784 764.562 265.833 763.889 269.243 C 756.758 305.386 779.531 344.561 798.68 373.464 C 847.343 446.919 914.15 504.999 984.296 557.076 C 1117.42 656.602 1267.06 731.841 1426.35 779.327 C 1501.2 801.151 1588.32 825.416 1658.72 778.282 C 1652.7 785.088 1648.23 789.678 1641.62 795.914 C 1622.87 812.58 1601.02 821.703 1576.45 826.087 C 1539.13 832.747 1500.91 824.675 1464.37 816.867 C 1438.42 811.324 1412.65 805.492 1387.24 797.817 C 1346.23 785.434 1306.25 769.145 1267.01 752.076 C 1242.37 741.357 1217.48 730.811 1193.38 718.914 C 1136.38 690.779 1080.69 657.257 1028.47 621.023 C 940.778 560.171 774.781 424.539 755.709 315.824 C 751.925 294.255 754.011 272.059 766.779 253.847 z" fill="rgb(218,28,40)" transform="translate(0,0)"></path>
<path d="M 897.506 792.774 C 904.839 793.77 948.144 815.336 956.757 820.255 C 999.587 844.713 1049.85 885.702 1068.13 932.25 C 1055.86 933.649 1035.88 933.802 1023.23 934.041 C 974.386 934.627 913.262 932.812 865.11 927.838 C 864.84 917.261 862.052 913.203 858.188 903.494 C 839.532 856.627 858.443 818.744 897.506 792.774 z" fill="rgb(250,246,223)" transform="translate(0,0)"></path>
<path d="M 940.976 898.84 C 948.13 900.773 958.7 904.079 958.29 912.515 C 949.851 913.926 941.391 907.803 940.976 898.84 z" fill="rgb(167,3,5)" transform="translate(0,0)"></path>
<path d="M 967.963 892.86 C 974.998 892.758 982.195 898.958 982.522 906.108 C 976.498 904.304 969.659 899.145 967.963 892.86 z" fill="rgb(167,3,5)" transform="translate(0,0)"></path>
<path d="M 704.879 814.119 C 719.874 816.156 750.354 828.425 763.342 835.074 C 803.62 855.692 842.264 882.668 857.192 927.254 C 831 923.571 805.537 920.498 779.236 916.427 C 724.001 905.644 669.352 892.051 615.502 875.701 C 631.403 852.772 677.898 821.488 704.879 814.119 z" fill="rgb(250,246,223)" transform="translate(0,0)"></path>
<path d="M 705.624 856.812 C 710.59 856.953 712.281 856.595 716.625 858.766 C 719.129 862.065 718.526 860.264 718.584 864.332 C 714.245 864.518 711.826 865.081 708.032 863.333 C 705.429 860.123 706.217 861.385 705.624 856.812 z" fill="rgb(167,3,5)" transform="translate(0,0)"></path>
<path d="M 1493.18 449.573 C 1498.03 449.01 1506.12 448.747 1510.96 449.055 C 1517.52 449.49 1523.98 450.813 1530.18 452.987 C 1550.18 460.051 1572.94 472.306 1591.47 482.656 C 1637.44 508.33 1687.43 535.345 1729.79 566.262 C 1813.21 627.147 1742.53 634.033 1689.27 663.728 C 1685.41 665.885 1672.89 674.29 1668.64 673.96 L 1667.12 671.561 C 1658.19 652.352 1653.49 645.039 1641.53 628.309 C 1660.19 618.638 1688.04 617.015 1703.92 602.637 C 1713.34 594.103 1704.98 576.693 1695.82 570.14 C 1653.74 539.886 1605.91 519.454 1560.09 495.902 C 1534.92 482.963 1532.81 485.31 1505.67 488.397 C 1489.75 477.949 1468.88 465.045 1454.33 453.525 C 1467.29 452.298 1480.24 450.98 1493.18 449.573 z" fill="rgb(218,28,40)" transform="translate(0,0)"></path>
<path d="M 1012.49 798.014 C 1019.08 797.868 1034.18 799.908 1041.39 800.711 C 1066.76 803.553 1092.05 807.113 1117.22 811.387 C 1125.2 822.234 1138.37 832.137 1148.24 841.811 C 1173.32 866.39 1187.2 887.12 1202.15 918.027 L 1184.77 920.285 C 1148.35 925.46 1111.77 929.351 1075.09 931.952 C 1081 914.615 1084.65 913.364 1080.71 892.193 C 1074.02 856.24 1042.01 817.956 1012.49 798.014 z" fill="rgb(250,246,223)" transform="translate(0,0)"></path>
<path d="M 1523.74 840.858 L 1535.66 841.114 C 1506.6 859.574 1472.24 880.923 1440.26 893.842 C 1384.69 916.285 1317.45 941.284 1258.71 952.112 C 1060.6 988.631 833.968 990.56 643.75 919.227 C 635.78 915.978 631.395 913.628 623.832 909.387 C 640.148 912.684 661.942 919.712 678.529 924.176 C 704.122 930.852 729.911 936.751 755.862 941.864 C 961.766 982.383 1174.54 970.658 1374.75 907.763 C 1421.6 892.539 1482.92 868.627 1523.74 840.858 z" fill="rgb(218,28,40)" transform="translate(0,0)"></path>
<path d="M 385.827 790.809 C 389.207 793.681 392.062 797.299 394.959 800.629 C 430.797 841.807 477.6 873.004 526.17 897.253 C 533.227 900.776 546.463 907.41 551.105 913.794 C 552.197 921.089 545.894 922.628 540.064 924.497 C 534.899 925.18 529.711 925.673 524.509 925.975 C 482.354 928.057 446.88 916.362 411.744 894.236 C 404.039 889.384 391.504 882.104 384.982 876.157 C 380.816 858.645 379.444 836.937 376.867 818.553 C 388.131 808.069 388.874 805.535 385.827 790.809 z" fill="rgb(218,28,40)" transform="translate(0,0)"></path>
<path d="M 168.064 779.78 C 169.659 781.074 169.992 781.91 171.377 783.266 C 242.621 853.019 333.163 902.71 416.969 955.88 C 421.623 958.833 438.907 970.619 442.896 970.862 C 442.268 967.692 440.784 967.293 437.913 964.524 C 453.859 971.426 471.607 975.42 488.909 976.62 C 525.069 979.129 684.88 962.762 703.735 981.356 C 707.434 985.004 707.93 989.342 708.074 994.292 C 706.927 997.785 705.773 1001.23 703.131 1003.9 C 692.831 1014.32 678.505 999.733 669.598 994.191 C 665.019 991.341 659.927 989.291 654.722 987.91 C 639.176 983.785 576.714 988.636 558.006 989.456 C 529.128 990.722 498.264 993.496 470.099 985.681 C 412.799 969.782 228.663 851.646 183.944 810.322 C 173.456 800.631 168.649 794.251 168.064 779.78 z" fill="rgb(218,28,40)" transform="translate(0,0)"></path>
<path d="M 1213.56 325.391 C 1216.87 325.095 1219.66 324.966 1222.96 325.078 C 1257.53 325.946 1290.25 340.905 1313.52 366.486 C 1349.01 405.277 1364.44 466.664 1361.86 518.664 C 1355.63 520.87 1352.07 522.237 1346.75 526.22 C 1348.54 474.179 1345.1 437.049 1314.64 392.458 C 1308.38 384.388 1301.33 376.958 1293.61 370.275 C 1257.95 339.818 1204.39 330.942 1167.82 366.926 C 1163.74 370.936 1159.73 376.104 1156.02 380.518 C 1149.6 380.585 1133.16 376.709 1129.98 380.016 C 1133.17 383.984 1146.42 384.909 1152.9 386.739 C 1142.31 391.401 1106.09 382.27 1106.36 367.561 L 1108.18 366.118 C 1116.66 364.157 1130.99 366.899 1140.08 368.153 L 1140.76 367.307 C 1161.43 341.845 1181.03 328.87 1213.56 325.391 z" fill="rgb(218,28,40)" transform="translate(0,0)"></path>
<path d="M 1168.5 332.325 C 1172.98 322.208 1198.66 317.905 1208.19 315.237 C 1279.99 295.136 1352.3 348.856 1375.96 414.991 C 1387.01 445.24 1393.4 489.268 1385.56 520.756 C 1383.83 523.034 1370.31 520.162 1366.93 519.68 C 1374.91 451.314 1340.99 355.493 1272.03 328.983 C 1230.86 313.156 1207.65 316.514 1168.5 332.325 z" fill="rgb(218,28,40)" transform="translate(0,0)"></path>
<path d="M 1528.18 505.783 C 1534.43 506.084 1560.22 519.658 1565.81 522.773 C 1582.51 532.072 1691.84 583.36 1693.21 596.514 C 1689.71 599.723 1686.26 600.501 1681.75 602.126 C 1666.52 606.92 1651.41 612.08 1636.43 617.604 C 1614.93 582.864 1559.32 532.224 1528.18 505.783 z" fill="rgb(254,254,254)" transform="translate(0,0)"></path>
<path d="M 1215.61 834.532 C 1226.13 837.574 1240.65 843.417 1251.15 847.263 C 1278.94 857.437 1312.6 870.251 1338.21 885.027 C 1329.76 887.699 1321.11 890.215 1312.61 892.774 C 1286.94 900.492 1250.89 908.85 1224.17 913.797 C 1233.41 884.888 1227.92 861.049 1215.61 834.532 z" fill="rgb(250,246,223)" transform="translate(0,0)"></path>
<path d="M 295.145 776.463 C 297.245 776.547 299.343 776.695 301.434 776.906 C 323.258 779.217 347.405 796.006 360.968 812.759 C 363.383 832.022 364.772 849.873 368.068 869.106 C 361.173 865.083 355.223 861.179 348.57 856.748 C 322.156 839.131 283.727 812.383 263.032 790.101 C 273.757 779.061 280.34 777.625 295.145 776.463 z" fill="rgb(254,254,254)" transform="translate(0,0)"></path>
<path d="M 928.778 786.428 C 930.767 786.316 932.759 786.26 934.752 786.261 C 988.942 786.353 1027.12 813.27 1056.24 857.41 C 1069.83 878.012 1072.9 894.753 1072.97 919.019 L 1068.31 909.257 C 1035.6 850.852 973.171 812.514 912.93 787.705 C 918.023 787.175 923.633 786.837 928.778 786.428 z" fill="rgb(250,246,223)" transform="translate(0,0)"></path>
<path d="M 1555.38 1117.68 L 1556.62 1119.46 C 1551.96 1182.61 1537.84 1261.13 1489.81 1305.78 C 1359.96 1426.47 1157.97 1457.68 987.103 1458.98 C 839.916 1460.11 681.628 1434.43 553.13 1359.81 C 535.134 1349.41 511.361 1333.92 496.937 1319.7 L 495.917 1318.54 C 500.507 1316.41 508.526 1325.74 512.801 1329.15 C 521.786 1336.17 531.076 1342.79 540.644 1348.99 C 754.711 1484.82 1122.97 1484.05 1351.95 1390.35 C 1435.4 1356.2 1524.64 1297.34 1542.02 1202.4 C 1547.14 1174.42 1550.28 1145.74 1555.38 1117.68 z" fill="rgb(218,28,40)" transform="translate(0,0)"></path>
<path d="M 1128.07 813.911 C 1141.63 815.347 1188.59 827.935 1201.89 831.781 C 1219.08 860.623 1221.26 881.817 1216.07 915.335 C 1213.26 916.284 1212.67 916.413 1209.73 916.874 L 1208.44 915.02 C 1208.52 909.308 1207.44 907.729 1205.02 902.656 C 1187.16 865.226 1160.26 839.002 1128.07 813.911 z" fill="rgb(250,246,223)" transform="translate(0,0)"></path>
<path d="M 743.559 805.366 C 790.626 800.872 816.544 823.851 845.188 858.82 C 844.492 866.443 844.083 874.091 843.963 881.745 L 833.378 871.125 C 805.348 843.265 757.126 816.353 718.202 808.788 C 726.41 807.95 735.331 806.518 743.559 805.366 z" fill="rgb(254,254,254)" transform="translate(0,0)"></path>
<path d="M 296.426 753.413 C 322.867 752.819 348.612 764.314 370.198 778.684 C 378.555 784.248 387.153 797.75 378.07 806.161 C 372.479 806.433 355.58 789.632 349.368 785.133 C 326.091 768.877 295.405 754.885 267.985 770.167 C 263.516 772.658 259.707 776.178 255.087 778.373 L 254.195 777.175 C 253.472 757.228 281.58 754.351 296.426 753.413 z" fill="rgb(218,28,40)" transform="translate(0,0)"></path>
<path d="M 830.54 806.414 C 841.608 805.153 862.328 805.937 873.721 806.143 C 868.491 812.723 863.347 818.247 858.327 825.277 C 854.33 830.874 850.597 844.273 847.952 847.246 C 835.346 830.73 818.499 819.565 801.54 808.181 C 811.051 807.751 821.003 806.998 830.54 806.414 z" fill="rgb(254,254,254)" transform="translate(0,0)"></path>
<path d="M 1517.51 492.491 C 1522.61 492.054 1527.78 491.558 1532.9 491.686 C 1549.43 492.097 1662.86 554.667 1683.24 568.103 C 1688.03 571.259 1692.67 574.825 1696.52 579.099 C 1700.69 583.718 1702.25 588.053 1701.77 594.217 C 1699.45 592.34 1696.94 581.7 1690.96 578.165 C 1642.53 549.531 1592.08 523.85 1541.22 499.778 C 1534.42 496.56 1525.59 495.309 1518.32 492.78 L 1517.51 492.491 z" fill="rgb(218,28,40)" transform="translate(0,0)"></path>
<path d="M 1358.08 526.097 C 1371.76 524.974 1381.71 532.691 1392.83 526.503 C 1400.23 529.239 1407.88 535.481 1408.48 543.843 C 1406.72 547.305 1407.21 546.249 1403.23 548.528 C 1390.13 551.728 1353.09 543.651 1350.6 529.44 C 1353.34 526.664 1353.68 527.319 1358.08 526.097 z" fill="rgb(218,28,40)" transform="translate(0,0)"></path>
<path d="M 1771.8 623.962 L 1772.17 624.405 C 1778.09 646.511 1706.63 668.656 1693.03 678.372 C 1689.9 680.602 1677.88 686.2 1673.96 687.572 C 1672.76 685.412 1672.38 684.295 1671.51 681.968 C 1678.2 671.993 1754.4 642.703 1766.1 631.973 C 1768.94 629.367 1769.97 627.395 1771.8 623.962 z" fill="rgb(218,28,40)" transform="translate(0,0)"></path>
<path d="M 747.337 292.727 C 748.857 300.924 747.472 309.814 749.493 318.326 C 761.064 367.054 788.763 409.693 820.436 447.742 C 823.871 451.868 827.784 455.804 830.975 460.1 L 832.137 461.681 C 831.874 461.601 831.611 461.52 831.348 461.44 C 795.567 428.437 731.436 338.89 747.337 292.727 z" fill="rgb(218,28,40)" transform="translate(0,0)"></path>
<path d="M 1347.57 535.891 C 1360.6 548.282 1377.45 555.99 1395.79 554.842 C 1400.2 554.566 1403.18 552.994 1407.3 552.6 L 1407.42 554.311 C 1390.92 563.107 1368.21 558.002 1353.92 546.166 C 1351.26 543.965 1347.66 539.472 1347.57 535.891 z" fill="rgb(218,28,40)" transform="translate(0,0)"></path>
<path d="M 368.893 819.306 C 370.655 820.045 369.728 819.516 371.547 821.098 C 375.045 834.255 376.828 860.722 376.994 874.652 C 376.54 874.395 376.055 874.185 375.631 873.881 C 372.979 871.98 369.527 825.713 368.893 819.306 z" fill="rgb(218,28,40)" transform="translate(0,0)"></path>
<metadata><recraft-signature>{"signed_by": "recraft", "signature_b64": "SPDj8ELQUxX1h2zB0BaGYOa7MdDULUenYWNnMR4QreEK7iRGmnayjydMmf8oUtC/32SsPmka/MWsnUpMmioNDg==", "signing_algo": "Ed25519", "generation_timestamp": 1778092849, "identifier": "f188899d-7d8f-47c3-b769-72cc8b1d310d"}</recraft-signature></metadata></svg>