<svg xmlns="http://www.w3.org/2000/svg" height="1024" preserveAspectRatio="none" style="display: block;" version="1.1" viewBox="0 0 2048 2048" width="1024">
<defs>
	<linearGradient gradientUnits="userSpaceOnUse" id="Gradient1" x1="985.401" x2="981.761" y1="927.748" y2="916.433">
		<stop class="stop0" offset="0" stop-color="rgb(254,209,187)" stop-opacity="1"></stop>
		<stop class="stop1" offset="1" stop-color="rgb(255,241,203)" stop-opacity="1"></stop>
	</linearGradient>
	<linearGradient gradientUnits="userSpaceOnUse" id="Gradient2" x1="1278.95" x2="1287.15" y1="564.083" y2="150.748">
		<stop class="stop0" offset="0" stop-color="rgb(255,235,213)" stop-opacity="1"></stop>
		<stop class="stop1" offset="1" stop-color="rgb(255,249,219)" stop-opacity="1"></stop>
	</linearGradient>
	<linearGradient gradientUnits="userSpaceOnUse" id="Gradient3" x1="908.313" x2="894.93" y1="538.658" y2="545.27">
		<stop class="stop0" offset="0" stop-color="rgb(255,247,216)" stop-opacity="1"></stop>
		<stop class="stop1" offset="1" stop-color="rgb(251,242,237)" stop-opacity="1"></stop>
	</linearGradient>
	<linearGradient gradientUnits="userSpaceOnUse" id="Gradient4" x1="1168.8" x2="1145.06" y1="654.75" y2="660.385">
		<stop class="stop0" offset="0" stop-color="rgb(255,251,231)" stop-opacity="1"></stop>
		<stop class="stop1" offset="1" stop-color="rgb(249,241,241)" stop-opacity="1"></stop>
	</linearGradient>
</defs>
<path d="M 0 0 L 2048 0 L 2048 2048 L 0 2048 L 0 0 z" fill="rgb(254,244,229)" transform="translate(0,0)"></path>
<path d="M 642.44 626.765 C 642.134 616.072 642.758 602.783 642.774 591.784 L 642.846 491.412 L 642.068 424.721 C 641.829 398.62 639.392 362.773 664.982 346.009 C 670.383 344.701 699.292 358.43 706.429 361.191 C 742.113 374.909 777.71 388.852 813.217 403.02 L 1172.44 546.671 C 1231.41 571.176 1290.68 594.941 1350.24 617.96 C 1380.58 629.988 1425.95 649.119 1455.75 657.689 C 1454.67 682.349 1455.11 709.917 1455.06 734.826 L 1455.04 870.415 L 1454.9 1241.38 L 1454.09 1514.42 L 1453.94 1590.63 C 1453.91 1598.81 1451.71 1631.71 1456.82 1636.26 L 1458.73 1634.94 C 1462.86 1626.18 1461.45 1604.58 1461.51 1594.09 C 1461.69 1569.08 1461.71 1544.08 1461.57 1519.07 L 1461.55 1324.97 L 1462 658.802 C 1498.31 637.947 1537.67 621.101 1574.97 602.207 L 1823.18 476.932 L 1899.06 438.329 C 1915.22 430.292 1936.91 421.316 1951.2 411.512 C 1951.64 451.201 1950.98 492.662 1950.97 532.528 L 1950.22 886.272 C 1950.92 996.508 1951 1106.75 1950.43 1216.98 C 1950.44 1236.9 1953.43 1349.86 1949.19 1359.9 C 1947.11 1364.84 1942.08 1369.9 1937.5 1372.6 C 1910.09 1388.79 1880.87 1402.77 1852.84 1417.98 C 1788.06 1453.05 1723.56 1488.65 1659.36 1524.77 C 1605.66 1555.84 1551.65 1586.39 1497.35 1616.41 C 1488.13 1621.47 1456.82 1640.49 1449.96 1643.02 C 1441.4 1638.64 1435.07 1635.46 1427 1630.16 C 1429.17 1603.27 1429.36 1587.97 1401.81 1576.36 L 1405.56 1139.83 C 1406.33 1092.01 1405.84 1044.36 1406.04 996.224 C 1406.16 969.891 1407.15 936.39 1405.25 909.889 C 1401.92 902.081 1390.37 888.473 1384.98 883.038 C 1371.57 869.535 1350.03 863.741 1332.64 856.618 L 1272.44 831.553 L 1044.96 739.197 L 881.498 671.999 C 861.679 663.626 743.779 611.655 729.494 611.994 C 722.19 612.197 715.257 615.256 710.185 620.516 C 693.803 637.763 697.823 669.735 697.966 692.132 L 699.273 793.448 C 700.38 799.457 700.999 827.694 699.198 832.37 C 698.026 829.131 697.71 827.228 698.411 823.761 C 696.403 808.553 689.851 776.627 686.847 760.964 C 680.522 727.978 673.494 667.439 662.148 637.503 C 655.655 633.526 649.2 630.266 642.44 626.765 z" fill="rgb(200,16,46)" transform="translate(0,0)"></path>
<path d="M 699.273 793.448 C 700.38 799.457 700.999 827.694 699.198 832.37 C 698.026 829.131 697.71 827.228 698.411 823.761 C 699.882 817.363 699.162 801.233 699.273 793.448 z" fill="rgb(231,195,193)" transform="translate(0,0)"></path>
<path d="M 1805.93 641.858 C 1807.8 642.789 1807.04 642.454 1808.48 644.533 L 1808.03 646.433 C 1803.93 650.584 1757.24 673.503 1749.64 677.281 L 1679.45 712.59 C 1660.39 722.103 1640.86 731.947 1622.18 742.155 C 1612.21 747.9 1602.44 755 1599.59 766.817 C 1595.03 785.645 1617.06 792.057 1630.98 795.162 C 1675.95 805.197 1712.96 784.068 1751.15 763.6 C 1763.32 757.077 1776.54 750.812 1788.35 743.527 C 1792.68 740.884 1797.87 735.934 1798.91 730.68 C 1797.76 727.134 1798.85 728.237 1796.06 726.79 C 1790.13 728.477 1786.05 734.34 1782.28 736.161 C 1771.32 741.456 1759.86 747.243 1749.03 752.795 C 1709.81 773.39 1671.33 794.774 1625.51 782.901 C 1614.77 780.117 1605.82 775.54 1609.81 762.434 C 1612.7 752.974 1625.68 747.381 1633.73 743.062 C 1653.61 733.272 1673.38 723.248 1693.02 712.992 C 1710.89 703.591 1733.93 690.641 1752.86 684.4 C 1764.05 687.196 1768.86 690.089 1778.35 695.669 C 1812.66 715.84 1822.47 740.389 1779.59 759.634 C 1756.07 770.192 1729.55 785.787 1705.55 797.359 C 1680.22 809.854 1652.17 812.144 1624.66 806.137 C 1606.01 802.067 1581.43 790.099 1588.19 766.514 C 1594.31 746.795 1617.94 736.467 1635.2 727.798 C 1692.27 699.131 1749.31 671.515 1805.93 641.858 z" fill="rgb(254,244,229)" transform="translate(0,0)"></path>
<path d="M 1766.21 731.81 C 1751.82 740.782 1723.56 753.331 1708.04 761.32 C 1687.33 771.199 1665.76 777.275 1642.68 774.543 C 1634.7 773.599 1622.16 774.039 1618.61 765.701 C 1618.87 762.986 1618.51 761.662 1621.07 759.787 C 1635.21 749.412 1725.08 701.94 1734.94 702.61 C 1738.92 706.499 1738.24 710.013 1738.37 715.849 C 1746.08 721.002 1755.11 727.539 1763.87 730.126 C 1762.86 725.18 1761.12 720.479 1764.1 716.285 C 1765.58 714.206 1767.84 712.823 1770.37 712.462 C 1774.38 711.856 1776.25 713.17 1778.95 715.466 C 1783.11 725.24 1773.43 728.463 1766.21 731.81 z" fill="rgb(200,16,46)" transform="translate(0,0)"></path>
<path d="M 1751.71 701.068 C 1756.34 702.369 1759.42 702.914 1760.56 707.917 C 1759.6 712.021 1756.82 714.006 1753.72 717.089 C 1750.57 717.455 1752.13 717.677 1749.01 715.778 C 1745.43 709.721 1746.55 705.5 1751.71 701.068 z" fill="rgb(200,16,46)" transform="translate(0,0)"></path>
<path d="M 658.021 376.72 C 663.739 376.489 665.411 377.447 670.801 379.542 L 1248.18 609.386 L 1359.07 654.031 C 1369.34 658.138 1399.57 668.965 1406.34 673.716 C 1407.85 677.168 1407.14 677.256 1406.68 681.637 C 1399.62 680.271 1378.59 670.724 1370.67 667.559 L 1251.01 618.715 L 815.937 444.74 C 794.59 436.214 667.616 389.097 659.122 381.275 C 657.802 380.059 658.168 378.41 658.021 376.72 z" fill="rgb(254,244,229)" transform="translate(0,0)"></path>
<path d="M 679.982 557.146 C 683.797 556.296 687.242 556.591 690.909 557.946 C 756.327 582.119 821.162 608.153 885.972 633.927 L 1312.23 807.348 C 1333.11 815.837 1354.05 824.172 1375.05 832.351 C 1383.13 835.491 1392.33 838.87 1400.44 842.197 C 1402.82 843.172 1402.65 845.939 1402.97 848.322 C 1402.24 848.512 1399.98 849.153 1399.5 848.973 C 1313.14 816.531 1176.05 757.952 1096.09 725.674 L 800.098 607.606 C 783.74 601.065 686.194 564.531 679.982 557.146 z" fill="rgb(254,244,229)" transform="translate(0,0)"></path>
<path d="M 735.295 463.304 C 771.095 467.49 800.676 546.595 752.725 559.311 C 746.024 559.008 739.534 556.873 733.961 553.14 C 704.958 533.952 695.495 471.27 735.295 463.304 z" fill="rgb(254,244,229)" transform="translate(0,0)"></path>
<path d="M 723.472 479.623 C 725.208 474.255 730.994 472.137 736.204 472.183 L 737.921 473.444 C 737.913 478.19 735.15 480.106 731.66 483.693 L 733.257 484.26 C 736.506 482.582 738.092 479.589 739.913 476.516 C 746.883 472.634 752.023 481.049 756.34 486.022 L 761.033 493.42 C 763.896 500.103 765.561 504.064 767.553 511.019 C 772.216 531.994 772.849 539.315 752.671 551.252 C 732.409 550.843 719.412 524.191 716.549 506.404 C 714.842 495.799 717.01 488.054 723.472 479.623 z" fill="rgb(200,16,46)" transform="translate(0,0)"></path>
<path d="M 764.593 516.836 C 758.56 522.962 750.17 542.659 742.326 543.685 C 738.78 542.279 739.971 543.449 738.338 540.379 C 738.838 535.246 757.009 510.461 761.18 505.405 L 762.22 505.681 C 762.062 513.442 745.283 529.395 741.294 539.5 L 742.257 540.836 C 749.651 539.361 756.91 520.706 762.259 513.657 L 763.422 514.465 L 764.593 516.836 z" fill="rgb(235,223,225)" transform="translate(0,0)"></path>
<path d="M 730.662 503.97 C 735.423 499.808 741.931 488.253 748.665 484.381 C 744.639 490.598 741.722 495.292 738.262 501.813 C 735.306 505.578 734.757 506.66 732.527 510.97 C 731.659 512.264 730.776 513.548 729.879 514.822 C 727.647 517.975 726.738 519.385 723.086 519.992 L 721.639 518.499 C 721.468 514.058 720.851 515.007 722.789 511.77 C 725.939 507.735 726.588 507.058 730.662 503.97 z" fill="rgb(235,223,225)" transform="translate(0,0)"></path>
<path d="M 722.789 511.77 C 725.939 507.735 726.588 507.058 730.662 503.97 L 732.199 505.927 C 730.392 510.577 728.888 512.409 724.567 514.486 C 722.891 513.017 723.49 513.918 722.789 511.77 z" fill="rgb(228,157,161)" transform="translate(0,0)"></path>
<path d="M 759.272 495.361 C 760.254 504.072 741.852 522.864 736.843 530.997 C 736.468 531.606 734.656 533.192 734.077 533.705 L 732.192 533.718 L 731.059 531.991 C 731.926 529.961 731.319 530.52 732.248 529.818 C 737.805 524.25 754.928 501.81 759.272 495.361 z" fill="rgb(235,223,225)" transform="translate(0,0)"></path>
<path d="M 746.66 500.916 L 747.76 498.924 L 746.639 497.707 C 748.925 493.763 750.187 491.493 752.96 487.93 L 754.785 488.268 C 747.356 509.577 739.368 508.832 729.317 524.684 L 728.376 524.455 L 728.162 522.596 C 730.802 517.588 732.467 516.045 736.172 511.869 C 736.468 511.638 736.763 511.408 737.059 511.177 L 738.512 509.994 C 743.112 506.286 743.544 506.036 746.66 500.916 z" fill="rgb(235,223,225)" transform="translate(0,0)"></path>
<path d="M 742.965 477.576 L 744.506 478.668 C 744.486 486.08 725.369 504.82 719.763 509.839 L 718.616 509.458 C 719.323 506.864 727.937 498.532 730.438 495.408 C 735.304 489.328 738.744 484.058 742.965 477.576 z" fill="rgb(235,223,225)" transform="translate(0,0)"></path>
<path d="M 1247.06 677.171 C 1252.97 676.774 1258.54 676.265 1264.23 678.314 C 1298.9 690.785 1309.06 745.625 1272.53 762.749 C 1231.55 770.332 1203.84 695.67 1247.06 677.171 z" fill="rgb(254,244,229)" transform="translate(0,0)"></path>
<path d="M 1234.34 703.874 C 1236.72 692.128 1249.99 675.876 1262.3 683.9 L 1261.94 685.209 L 1258.69 686.381 L 1259.02 688.474 C 1264.59 687.739 1270.23 686.996 1273.26 692.961 L 1273.73 693.922 C 1276.94 695.113 1276.83 694.987 1279.45 697.138 L 1279.49 699.387 L 1282.9 704.975 L 1283.51 706.266 C 1285.69 711.74 1286.74 716.035 1287.18 721.95 L 1287.02 722.638 C 1288.95 745.336 1267.75 766.263 1247.68 748.319 C 1246.89 747.614 1246.12 746.899 1245.35 746.174 L 1243.96 744.797 C 1240.28 738.739 1235.82 727.444 1235.17 720.498 C 1234.71 715.591 1235.33 715.593 1238.09 712.178 L 1236.96 710.4 L 1234.96 711.77 C 1233.42 709.798 1234.21 707.157 1234.34 703.874 z" fill="rgb(200,16,46)" transform="translate(0,0)"></path>
<path d="M 1243.96 744.797 C 1247.33 739.333 1272.27 721.236 1278.73 716.713 L 1280 717.07 L 1281 715.79 C 1277.93 720.942 1249.8 745.34 1245.35 746.174 L 1243.96 744.797 z" fill="rgb(235,223,225)" transform="translate(0,0)"></path>
<path d="M 1273.26 692.961 L 1273.73 693.922 C 1271.15 696.866 1241.84 717.927 1238.49 719.292 L 1238.83 717.881 C 1249.45 705.962 1259.19 699.917 1273.26 692.961 z" fill="rgb(235,223,225)" transform="translate(0,0)"></path>
<path d="M 1287.02 722.638 C 1278.65 726.643 1259.37 747.208 1251.43 747.651 L 1250.92 746.202 C 1260.87 739.191 1270.13 732.309 1279.56 724.429 C 1282.92 721.623 1283.19 721.346 1287.18 721.95 L 1287.02 722.638 z" fill="rgb(235,223,225)" transform="translate(0,0)"></path>
<path d="M 1279.45 697.138 L 1279.49 699.387 C 1265.45 707.635 1253.87 717.051 1241.33 727.313 L 1239.9 727.116 C 1241.76 720.361 1272.36 701.436 1279.45 697.138 z" fill="rgb(235,223,225)" transform="translate(0,0)"></path>
<path d="M 1236.96 710.4 C 1245.16 702.801 1252.61 695.638 1263 691.214 L 1264.86 691.343 C 1256.09 697.65 1246.42 705.398 1238.09 712.178 L 1236.96 710.4 z" fill="rgb(235,223,225)" transform="translate(0,0)"></path>
<path d="M 1282.9 704.975 L 1283.51 706.266 C 1273.23 714.714 1263.61 723.809 1252.97 731.807 C 1260.87 721.679 1271.18 710.593 1282.9 704.975 z" fill="rgb(235,223,225)" transform="translate(0,0)"></path>
<path d="M 1237.5 703.624 C 1244.06 696.933 1250.07 690.283 1258.69 686.381 L 1259.02 688.474 C 1250.99 692.884 1243.61 701.651 1238.47 704.126 L 1237.5 703.624 z" fill="rgb(235,223,225)" transform="translate(0,0)"></path>
<path d="M 1282.14 730.734 L 1283.34 731.528 L 1283.3 733.799 C 1281.49 736.93 1264.24 748.273 1259.15 752.293 L 1257.6 751.605 C 1257.68 746.89 1276.23 738.613 1282.14 730.734 z" fill="rgb(235,223,225)" transform="translate(0,0)"></path>
<path d="M 1250.66 726.565 L 1253.05 728.372 C 1252.1 731.04 1246.55 735.093 1244.06 737.276 L 1242.79 737.715 L 1242.2 736.655 C 1244.36 732.502 1247.37 729.929 1250.66 726.565 z" fill="rgb(235,223,225)" transform="translate(0,0)"></path>
<path d="M 852.244 518.09 C 891.545 515.76 919.983 593.936 876.511 608.806 C 839.491 610.961 809.273 535.957 852.244 518.09 z" fill="rgb(254,244,229)" transform="translate(0,0)"></path>
<path d="M 840.865 565.379 C 838.298 551.311 837.542 537.992 850.095 528.341 C 853.409 525.794 855.44 524.835 859.744 525.328 L 860.129 526.435 C 857.352 527.956 856.285 528.604 853.718 530.44 L 855.116 530.681 L 858.665 529.672 L 859.695 531.262 C 866.23 526.686 870.267 529.866 875.205 535 L 875.398 536.615 C 879.225 541.247 879.873 542.477 882.551 547.898 L 882.882 548.552 C 885.885 556.617 888.186 563.641 889.421 572.242 C 890.926 584.855 887.016 577.736 884.268 586.026 C 885.088 587.459 886.559 589.024 886.06 590.483 C 883.226 598.778 868.8 602.809 862.993 595.676 L 861.292 594.287 C 859.072 594.628 860.229 594.657 857.661 592.953 L 854.252 592.297 L 853.644 586.466 L 852.999 584.905 C 851.361 585.489 852.35 585.283 849.977 585.145 C 845.357 581.007 842.117 574.401 842.546 568.137 L 840.865 565.379 z" fill="rgb(200,16,46)" transform="translate(0,0)"></path>
<path d="M 882.551 547.898 L 882.882 548.552 C 885.885 556.617 888.186 563.641 889.421 572.242 C 890.926 584.855 887.016 577.736 884.268 586.026 C 885.088 587.459 886.559 589.024 886.06 590.483 C 883.226 598.778 868.8 602.809 862.993 595.676 L 861.292 594.287 C 859.072 594.628 860.229 594.657 857.661 592.953 L 854.252 592.297 L 853.644 586.466 L 852.999 584.905 C 856.484 577.344 875.702 550.386 882.551 547.898 z" fill="rgb(200,16,46)" transform="translate(0,0)"></path>
<path d="M 882.551 547.898 L 882.882 548.552 C 876.422 557.044 859.995 579.712 853.644 586.466 L 852.999 584.905 C 856.484 577.344 875.702 550.386 882.551 547.898 z" fill="rgb(235,223,225)" transform="translate(0,0)"></path>
<path d="M 854.252 592.297 C 865.201 584.108 871.173 564.043 888.592 555.376 C 877.369 567.088 865.577 584.981 857.661 592.953 L 854.252 592.297 z" fill="rgb(235,223,225)" transform="translate(0,0)"></path>
<path d="M 861.292 594.287 C 864.175 590.15 876.273 574.031 880.232 572.768 L 880.722 574.507 C 875.442 580.72 868.236 590.072 862.993 595.676 L 861.292 594.287 z" fill="rgb(235,223,225)" transform="translate(0,0)"></path>
<path d="M 881.636 576.245 C 883.78 574.169 884.655 573.982 887.343 572.706 C 883.403 580.97 877.714 586.174 873.719 595.443 L 872.088 596.485 C 870.032 592.727 879.831 582.345 881.636 576.245 z" fill="rgb(231,195,193)" transform="translate(0,0)"></path>
<path d="M 840.865 565.379 C 838.298 551.311 837.542 537.992 850.095 528.341 C 853.409 525.794 855.44 524.835 859.744 525.328 L 860.129 526.435 C 857.352 527.956 856.285 528.604 853.718 530.44 L 855.116 530.681 L 858.665 529.672 C 853.919 538.639 849.359 547.108 845.199 556.389 L 845.573 556.207 C 843.894 560.204 843.109 561.643 840.865 565.379 z" fill="rgb(200,16,46)" transform="translate(0,0)"></path>
<path d="M 853.718 530.44 L 855.116 530.681 C 851.779 536.161 847.938 543.261 843.536 547.66 C 846.473 540.891 848.5 535.68 853.718 530.44 z" fill="rgb(231,195,193)" transform="translate(0,0)"></path>
<path d="M 858.665 529.672 L 859.695 531.262 C 857.631 537.166 854.064 540.377 851.188 548.014 L 851.633 548.728 C 855.079 545.235 863.688 535.636 867.008 533.635 C 862.597 542.263 849.051 557.719 842.546 568.137 L 840.865 565.379 C 843.109 561.643 843.894 560.204 845.573 556.207 L 845.199 556.389 C 849.359 547.108 853.919 538.639 858.665 529.672 z" fill="rgb(235,223,225)" transform="translate(0,0)"></path>
<path d="M 875.205 535 L 875.398 536.615 C 868.488 543.529 850.739 564.256 846.936 572.509 L 845.552 572.9 L 845.096 571.718 C 847.705 563.875 868.243 538.822 875.205 535 z" fill="rgb(235,223,225)" transform="translate(0,0)"></path>
<path d="M 876.583 541.814 L 877.267 542.486 C 877.135 545.866 854.331 572.215 850.195 577.809 L 849.538 577.221 C 849.435 572.459 871.99 546.696 876.583 541.814 z" fill="rgb(235,223,225)" transform="translate(0,0)"></path>
<path d="M 1114.41 623.066 C 1146.7 621.9 1178.4 701.984 1134.73 711.72 C 1099.42 707.88 1073.23 639.534 1114.41 623.066 z" fill="rgb(254,244,229)" transform="translate(0,0)"></path>
<path d="M 1104.32 672.765 C 1095.52 640.248 1111.33 610.929 1137.28 646.736 L 1138.63 648.971 C 1139.63 651.291 1140.64 653.991 1141.93 656.095 L 1142.21 657.447 L 1144.7 662.526 L 1144.8 664.908 L 1146.88 669.068 L 1147.2 671.513 C 1147.9 676.438 1148.24 678.209 1148.02 683.092 L 1148.19 684.267 C 1147.21 696.165 1140.41 705.308 1127.59 703.39 L 1125.92 701.816 C 1122.43 700.496 1120.39 698.553 1117.46 696.246 L 1116.33 694.733 L 1114.47 692.943 L 1112.72 691.372 C 1111.17 688.157 1109.2 685.75 1109.53 682.029 L 1110.24 674.722 C 1108.14 677.643 1108.97 677.724 1106.64 678.351 L 1104.91 675.528 L 1104.32 672.765 z" fill="rgb(200,16,46)" transform="translate(0,0)"></path>
<path d="M 1117.46 696.246 C 1128.41 686.611 1133.77 671.759 1144.8 664.908 L 1146.88 669.068 L 1147.2 671.513 C 1147.9 676.438 1148.24 678.209 1148.02 683.092 L 1148.19 684.267 C 1147.21 696.165 1140.41 705.308 1127.59 703.39 L 1125.92 701.816 C 1122.43 700.496 1120.39 698.553 1117.46 696.246 z" fill="rgb(200,16,46)" transform="translate(0,0)"></path>
<path d="M 1137.11 690.346 C 1143.08 686.873 1141.1 683.75 1148.02 683.092 L 1148.19 684.267 C 1147.21 696.165 1140.41 705.308 1127.59 703.39 L 1125.92 701.816 C 1132.15 698.028 1133.02 696.4 1137.11 690.346 z" fill="rgb(235,223,225)" transform="translate(0,0)"></path>
<path d="M 1127.59 703.39 C 1132.59 699.109 1136.67 700.632 1141.26 695.566 C 1142.25 688.322 1142.08 688.939 1148.19 684.267 C 1147.21 696.165 1140.41 705.308 1127.59 703.39 z" fill="rgb(200,16,46)" transform="translate(0,0)"></path>
<path d="M 1146.88 669.068 L 1147.2 671.513 C 1143.59 674.3 1135.35 685.151 1134.75 688.756 C 1129.15 692.746 1124.31 697.112 1118.26 701.314 C 1123.57 694.216 1137.59 678.642 1144.14 671.507 C 1144.67 670.939 1144.74 671.808 1146.88 669.068 z" fill="rgb(235,223,225)" transform="translate(0,0)"></path>
<path d="M 1142.21 657.447 L 1144.7 662.526 L 1144.8 664.908 C 1133.77 671.759 1128.41 686.611 1117.46 696.246 L 1116.33 694.733 L 1114.47 692.943 C 1124.27 678.459 1126.6 666.928 1142.21 657.447 z" fill="rgb(200,16,46)" transform="translate(0,0)"></path>
<path d="M 1144.7 662.526 L 1144.8 664.908 C 1133.77 671.759 1128.41 686.611 1117.46 696.246 L 1116.33 694.733 C 1127.79 682.763 1130.51 670.605 1144.7 662.526 z" fill="rgb(228,157,161)" transform="translate(0,0)"></path>
<path d="M 1141.93 656.095 L 1142.21 657.447 C 1126.6 666.928 1124.27 678.459 1114.47 692.943 L 1112.72 691.372 C 1123.08 675.984 1123.76 662.573 1141.93 656.095 z" fill="rgb(235,223,225)" transform="translate(0,0)"></path>
<path d="M 1138.63 648.971 C 1134.26 655.276 1127.97 660.904 1123.17 667.405 C 1119.93 671.785 1115.96 681.223 1112.91 683.22 L 1112.42 681.834 C 1115.25 670.705 1129.87 656.292 1137.28 646.736 L 1138.63 648.971 z" fill="rgb(231,195,193)" transform="translate(0,0)"></path>
<path d="M 1104.32 672.765 C 1112.69 664.415 1120.86 655.902 1130.03 648.443 L 1130.09 648.503 L 1128.92 649.818 L 1128.87 650.669 C 1121.21 659.27 1113.22 667.563 1104.91 675.528 L 1104.32 672.765 z" fill="rgb(228,157,161)" transform="translate(0,0)"></path>
<path d="M 1128.06 640.767 L 1128.95 641.19 L 1129.46 642.762 C 1126.45 647.241 1111.96 659.071 1105.73 666.851 L 1104.29 666.415 C 1105.18 661.066 1123.19 645.138 1128.06 640.767 z" fill="rgb(235,223,225)" transform="translate(0,0)"></path>
<path d="M 1115.82 642.48 C 1116.46 642.61 1117.66 643.178 1118.32 643.455 C 1117.47 645.043 1108.14 654.644 1105.58 657.793 C 1105.33 658.264 1104.77 658.486 1104.35 658.802 L 1103.98 655.835 C 1105.83 652.313 1112.69 645.717 1115.82 642.48 z" fill="rgb(235,223,225)" transform="translate(0,0)"></path>
<path d="M 1877.22 821.966 C 1877.85 822.338 1878.63 823.38 1879.18 824.003 L 1878.88 826.361 C 1871.23 834.604 1589.98 979.295 1560.31 993.699 C 1558.08 990.402 1558.47 992.108 1558.51 988.591 C 1568.01 982.335 1586.99 973.198 1597.53 967.73 L 1672.38 928.95 C 1740.37 892.745 1808.66 857.083 1877.22 821.966 z" fill="rgb(254,244,229)" transform="translate(0,0)"></path>
<path d="M 1876.03 963.834 C 1878.56 963.997 1877.61 963.738 1879.82 965.239 L 1879.55 966.938 C 1873.23 973.291 1826.89 996.446 1816.25 1001.83 C 1730.27 1045.3 1645.8 1094.34 1559.29 1136.52 L 1557.92 1136.86 C 1555.68 1135.51 1556.41 1136.47 1555.7 1134 C 1557.88 1130.33 1590.76 1113.64 1597.13 1110.23 C 1626.29 1094.54 1655.6 1079.14 1685.07 1064.01 L 1876.03 963.834 z" fill="rgb(254,244,229)" transform="translate(0,0)"></path>
<path d="M 1879.97 1095.97 C 1881.95 1098.47 1881.42 1097.08 1881.56 1100.32 C 1877.42 1106.06 1859.35 1113.86 1852.01 1117.88 L 1704.5 1197.02 L 1613.63 1245.91 C 1598.05 1254.26 1573.73 1268.15 1558.26 1274.48 C 1556.78 1273.81 1557.05 1273.75 1555.83 1272.45 L 1556.43 1270.48 C 1559.72 1267.67 1580.61 1256.45 1585.44 1253.8 C 1614.98 1237.75 1644.69 1222.01 1674.57 1206.6 C 1743.21 1170.54 1811.46 1132.51 1879.97 1095.97 z" fill="rgb(254,244,229)" transform="translate(0,0)"></path>
<path d="M 1879.35 1240.7 L 1882.38 1241.45 L 1882.97 1243 C 1880.92 1247.03 1874.61 1249.63 1870.71 1251.73 C 1825.02 1276.46 1778.68 1300.39 1733.01 1325.11 C 1694.77 1346.23 1656.3 1366.9 1617.59 1387.14 C 1599.44 1396.75 1579.83 1407.62 1561.45 1416.49 C 1560.75 1416.5 1559.17 1416.02 1558.4 1415.83 L 1558.05 1414.42 C 1561.62 1408.63 1593.64 1393.07 1601.11 1389.13 L 1668.56 1353.2 L 1879.35 1240.7 z" fill="rgb(254,244,229)" transform="translate(0,0)"></path>
<path d="M 1284.69 647.102 C 1332.66 646.314 1365.9 723.919 1331.87 758.465 C 1318.91 771.623 1306.38 773.256 1289.41 773.97 L 1288.96 773.623 L 1289.05 772.424 C 1300.03 766.896 1311.54 768.563 1323.04 758.333 C 1360.45 725.079 1327.76 658.123 1284.2 650.246 C 1281.79 649.811 1282.22 650.799 1279.98 649.296 L 1284.69 647.102 z" fill="rgb(254,244,229)" transform="translate(0,0)"></path>
<path d="M 1150.85 601.526 C 1161.47 599.774 1169.34 600.358 1178.53 608.39 C 1202.54 629.389 1216.62 684.089 1196.47 710.852 C 1189.93 719.54 1175.27 721.465 1164.56 721.808 C 1162.62 721.26 1163.55 721.711 1161.83 720.369 C 1164.06 718.006 1179.92 714.776 1185.9 710.741 C 1192.78 706.093 1196.87 701.724 1198.54 692.778 C 1202.56 671.148 1197.11 643.748 1184.74 625.551 C 1174.41 610.364 1167.6 606.254 1150.58 602.643 L 1150.85 601.526 z" fill="rgb(254,244,229)" transform="translate(0,0)"></path>
<path d="M 898.542 491.508 C 936.97 498.607 981.888 608.312 905.242 617.738 L 904.095 616.871 C 908.791 612.249 922.381 609.295 927.703 603.503 C 953.941 574.945 936.606 528.296 910.891 505.552 C 906.637 501.79 897.61 497.583 895.876 493.915 L 898.542 491.508 z" fill="rgb(254,244,229)" transform="translate(0,0)"></path>
<path d="M 782.159 446.658 C 799.791 447.548 813.917 478.31 817.992 493.202 C 828.496 531.6 825.179 559.96 782.383 571.065 L 781.869 570.753 C 782.432 568.738 802.41 559.43 807.768 552.12 C 815.315 541.826 817.779 532.721 816.999 519.799 C 815.65 497.473 806.03 471.622 789.757 455.885 C 785.265 451.541 782.477 452.173 779.317 449.323 L 782.159 446.658 z" fill="rgb(254,244,229)" transform="translate(0,0)"></path>
<path d="M 1269.21 661.804 C 1306.04 662.907 1331.56 734.584 1298.8 760.065 L 1297.72 759.786 L 1297.51 758.147 C 1305.42 745.823 1310.84 733.248 1308.39 718.186 C 1305.78 702.197 1299.71 684.456 1286.2 674.097 C 1280.58 669.794 1271.47 666.849 1268.32 664.427 L 1269.21 661.804 z" fill="rgb(254,244,229)" transform="translate(0,0)"></path>
<path d="M 986.963 612.342 C 993.437 613.427 1048.66 635.231 1054.9 638.511 C 1056.71 641.494 1056.02 641.358 1055.87 645.587 C 1040.53 642.19 1003.17 627.371 988.212 619.086 C 986.145 617.94 986.858 614.786 986.963 612.342 z" fill="rgb(254,244,229)" transform="translate(0,0)"></path>
<path d="M 991.859 585.758 C 1004.38 591.206 1043.73 605.049 1052.86 611.465 C 1053.1 614.566 1052.48 614.279 1050.43 617.552 C 1036.76 611.927 1001.04 598.139 989.459 591.928 C 989.006 588.98 989.799 589.084 991.859 585.758 z" fill="rgb(254,244,229)" transform="translate(0,0)"></path>
<path d="M 1131.06 616.311 C 1165.43 611.394 1183.16 679.728 1170.29 703.735 C 1168 701.473 1170.53 694.777 1170.69 689.562 C 1171.49 664.649 1164.51 638.53 1142.99 623.662 C 1138.08 620.274 1132.93 619.723 1131.06 616.311 z" fill="url(#Gradient4)" transform="translate(0,0)"></path>
<path d="M 875.015 509.3 C 885.87 507.484 895.159 516.836 901.24 524.775 C 913.231 540.429 919.375 560.893 916.817 580.555 C 913.511 577.968 911.888 558.868 909.255 551.268 C 902.43 531.574 898.033 523.847 879.627 513.087 C 876.854 511.465 876.61 512.197 875.015 509.3 z" fill="url(#Gradient3)" transform="translate(0,0)"></path>
<path d="M 1196.19 102.416 C 1204.2 102.406 1211.49 102.067 1219.07 104.997 C 1322.44 144.941 1424.87 189.542 1527.77 230.407 L 1778.68 330.242 C 1827.79 349.732 1877.46 368.875 1926.03 389.703 C 1933.62 392.959 1940.61 398.295 1946.52 404.037 C 1914.1 416.087 1888.38 430.617 1857.61 445.975 L 1685.74 533.066 L 1518.17 615.965 C 1505.45 622.376 1492.69 628.706 1479.88 634.955 C 1472.2 638.691 1459.16 644.445 1452.8 648.98 L 1433.27 642.023 C 1414.2 634.852 1395.57 626.992 1376.62 619.594 L 1067.86 496.141 L 786.734 384.105 C 773.963 379.009 683.139 345.374 676.377 338.905 L 677.228 337.189 C 684.041 332.635 691.514 330.206 698.784 326.605 C 751.274 300.612 804.838 277.165 857.948 252.515 L 1088.98 145.342 C 1114.72 133.544 1139.97 120.333 1165.82 108.868 C 1176.54 104.113 1184.69 103.173 1196.19 102.416 z" fill="rgb(200,16,46)" transform="translate(0,0)"></path>
<path d="M 1186.14 148.397 C 1215.78 146.066 1228.4 152.587 1255.26 163.367 C 1274.54 171.048 1293.74 178.953 1312.84 187.081 C 1354.62 204.693 1396.53 222.012 1438.56 239.038 L 1613.39 309.922 C 1646.83 323.312 1683.13 336.283 1714.95 351.574 C 1760.85 373.634 1759.17 418.025 1715.07 441.389 C 1700.82 448.939 1685.77 456.975 1671.6 464.368 L 1594.33 504.429 C 1575.19 514.102 1556.1 523.877 1537.07 533.754 C 1478.13 564.161 1455.59 578.536 1388.4 562.325 C 1361.62 554.116 1331.97 541.634 1305.52 531.59 L 1176.61 483.47 L 1018.89 424.185 C 975.515 408.617 932.467 392.158 889.772 374.819 C 869.827 366.791 846.351 358.02 828.025 346.527 C 822.926 343.027 817.573 336.221 817.113 329.932 C 816.049 313.157 840.944 300.754 854.046 294.239 C 898.079 272.344 943.494 252.192 988.088 231.386 C 1025.16 213.668 1062.48 196.471 1100.04 179.802 C 1126.19 168.046 1157.61 151.134 1186.14 148.397 z" fill="url(#Gradient2)" transform="translate(0,0)"></path>
<path d="M 1186.94 156.398 C 1211.7 153.001 1229.18 162.274 1251.58 170.72 C 1279.99 181.433 1307.51 193.346 1335.5 205.012 L 1488.61 268.063 L 1629.97 325.207 C 1653.9 334.822 1680.21 343.861 1703.22 354.972 C 1750.12 377.618 1749.37 410.137 1704.05 434.267 C 1643 467.565 1579.58 498.37 1518.11 530.642 C 1469.56 556.135 1434.72 568.642 1380.91 548.989 C 1355.37 539.662 1329.19 529.517 1303.52 520.069 C 1234.12 494.637 1164.89 468.709 1095.86 442.286 C 1036.85 420.342 978.044 397.853 919.45 374.822 C 900.694 367.361 881.972 360.093 863.035 353.111 C 858.961 351.608 856.277 349.754 856.876 345.332 C 862.087 338.38 915.015 314.34 926.384 308.851 C 961.136 291.71 996.055 274.908 1031.14 258.45 C 1071.28 239.562 1110.95 219.748 1151.14 200.966 C 1163.89 195.01 1174.93 191.232 1188.77 189.169 C 1218.34 187.633 1243.38 201.772 1270.22 213.001 L 1359.94 250.586 C 1453.71 289.083 1547.75 326.953 1642.03 364.193 C 1653.17 368.477 1709.15 391.997 1716.42 392.728 C 1711.87 381.855 1650.38 361.132 1635.93 355.202 L 1362.62 244.611 C 1332.39 232.288 1302.24 219.766 1272.17 207.045 C 1197.26 175.227 1194.86 171.843 1119.99 207.615 L 1050.04 241.122 C 1007.54 261.337 965.207 281.906 923.05 302.826 C 897.373 315.516 867.644 329.384 843.535 344.301 C 814.812 327.788 830.706 316.699 851.111 304.865 C 877.472 289.578 904.903 277.77 932.549 265.093 L 1007.29 230.246 C 1035.18 217.263 1063.17 204.505 1091.26 191.975 C 1119.93 178.925 1155.76 159.881 1186.94 156.398 z" fill="rgb(200,16,46)" transform="translate(0,0)"></path>
<path d="M 1269.29 235.313 C 1294.95 233.24 1326.53 241.088 1333.32 269.57 C 1328.3 288.833 1318.92 291.001 1300.96 295.391 C 1301.92 301.148 1304.94 312.664 1301.26 317.334 C 1293.84 326.762 1254.39 328.653 1251.6 314.136 C 1250.95 310.702 1252.72 297.32 1253.27 292.631 C 1241.38 289.166 1235.88 286.716 1229.19 276.081 C 1193.03 284.171 1154.69 301.399 1130.42 330.027 C 1111.75 352.047 1110.79 378.928 1136.83 396.282 C 1190.7 432.181 1266.23 438.209 1329.35 429.888 C 1357.83 426.132 1402.46 412.809 1420.76 388.422 C 1443.69 354.994 1412.04 326.633 1386.41 309.867 C 1370.21 300.208 1352.86 293.903 1336.88 284.768 C 1335.7 284.092 1336.04 282.988 1335.99 281.333 C 1345.71 269.225 1432.4 316.757 1438.6 359.766 C 1440.37 372.357 1437.03 385.133 1429.33 395.249 C 1410.08 420.911 1358.38 436.876 1328.07 440.752 C 1263.01 449.068 1185.89 441.452 1130.2 404.463 C 1118.25 396.253 1106.97 381.561 1105.52 367.072 C 1100.31 315.022 1183.5 271.987 1225.3 267.697 C 1234.2 245.143 1246.59 238.924 1269.29 235.313 z" fill="rgb(254,244,229)" transform="translate(0,0)"></path>
<path d="M 1274.21 262.389 C 1281.59 261.949 1310.74 265.426 1307.86 276.677 C 1302.67 281.714 1296.5 281.729 1289.2 282.888 C 1278.1 283.134 1256.2 283.863 1249.94 273.273 C 1250.52 265.494 1267.82 262.99 1274.21 262.389 z" fill="rgb(200,16,46)" transform="translate(0,0)"></path>
<path d="M 1274.46 296.493 L 1277.22 297.643 C 1279.1 302.806 1277.49 305.766 1275.37 310.772 L 1274.37 309.874 C 1274.84 304.377 1274.81 302.015 1274.46 296.493 z" fill="rgb(200,16,46)" transform="translate(0,0)"></path>
<path d="M 1268 295.593 C 1270.63 298.611 1269.39 305.323 1269.83 311.152 C 1265.34 307.513 1266.93 300.534 1268 295.593 z" fill="rgb(200,16,46)" transform="translate(0,0)"></path>
<path d="M 1188.82 309.848 C 1191.72 312.355 1191.16 310.886 1191.61 313.95 C 1189.5 317.021 1182.07 319.773 1178.63 322.31 C 1165.74 331.817 1156.12 343.755 1151.77 359.345 C 1150.17 365.083 1149.83 372.903 1145.56 376.66 C 1139.31 371.801 1140.92 362.275 1143.51 355.753 C 1151.52 335.584 1168.93 318.319 1188.82 309.848 z" fill="rgb(254,244,229)" transform="translate(0,0)"></path>
<path d="M 1185.92 380.336 C 1192.51 384.434 1188.81 399.789 1185.74 405.437 C 1184.07 404.452 1182.52 404.019 1182.03 402.605 C 1180.01 396.805 1183.42 385.656 1185.92 380.336 z" fill="rgb(254,244,229)" transform="translate(0,0)"></path>
<path d="M 1246.16 392.139 C 1248.15 392.857 1247.95 392.93 1249.74 394.164 C 1252.1 400.274 1248.8 409.091 1247.05 415.455 C 1238.29 415.789 1244.76 396.793 1246.16 392.139 z" fill="rgb(254,244,229)" transform="translate(0,0)"></path>
<path d="M 1292.07 396.798 C 1296.84 400.722 1298.2 411.575 1295.75 417.114 C 1293.14 416.241 1293.24 416.413 1291.56 414.271 C 1289.61 408.174 1289.34 402.682 1292.07 396.798 z" fill="rgb(254,244,229)" transform="translate(0,0)"></path>
<path d="M 1339.25 392.433 C 1345 395.512 1343.88 406.884 1341.74 411.918 C 1337.36 404.618 1335.59 400.394 1339.25 392.433 z" fill="rgb(254,244,229)" transform="translate(0,0)"></path>
<path d="M 89.221 467.279 C 109.72 473.784 137.632 485.914 158.287 493.916 C 197.108 508.771 236.027 523.367 275.042 537.705 C 351.048 565.689 426.725 594.558 502.057 624.307 C 532.137 636.052 575.287 650.587 603.556 663.819 C 604.227 674.425 607.15 687.746 608.84 698.434 C 632.576 848.482 661.463 997.378 689.35 1146.66 C 700.799 1207.95 716.411 1276.34 722.142 1338.41 C 708.692 1334.97 694.725 1329.68 681.23 1325.93 C 634.489 1312.91 588.351 1295.94 542.269 1281.77 L 337.062 1218.49 C 304.614 1208.44 272.014 1198.58 239.621 1188.35 C 234.038 1186.59 218.982 1180.62 214.669 1176.62 C 210.573 1172.83 207.196 1162.38 206.087 1156.52 C 201.625 1132.94 197.747 1109.04 193.587 1085.39 L 172.86 970.545 C 154.777 872.399 137.537 774.101 121.143 675.659 C 112.856 628.555 105.004 581.376 97.5881 534.127 C 94.979 517.512 88.4173 482.445 89.221 467.279 z" fill="rgb(200,16,46)" transform="translate(0,0)"></path>
<path d="M 137.016 540.445 C 146.402 540.752 235.038 574.627 251.654 580.785 L 436.692 648.915 L 526.485 681.236 C 534.965 684.23 569.217 693.619 571.82 700.146 C 569.358 704.552 563.791 703.634 559.586 702.172 C 529.671 691.778 499.822 681.168 469.906 670.752 C 393.871 643.785 318.074 616.151 242.523 587.854 C 216.354 578.26 189.651 567.746 163.395 558.765 L 197.639 748.31 C 201.528 770.762 204.716 793.353 208.75 815.79 C 228.094 918.87 246.777 1022.07 264.797 1125.39 C 281.382 1129.49 307.145 1138.15 323.809 1143.3 L 418.998 1172.55 C 486.792 1193.15 554.744 1213.24 622.849 1232.79 L 571.065 930.864 C 564.309 893.132 558.317 855.866 550.929 818.219 C 546.23 793.719 542.354 767.906 537.925 743.155 C 524.976 741.084 506.19 733.495 493.195 728.78 L 426.726 704.597 L 307.855 661.469 C 294.203 656.625 225.484 634.407 216.231 627.697 L 215.993 625.774 C 217.171 624.833 217.557 624.325 219.112 624.003 C 221.482 623.511 223.836 624.438 226.058 625.152 C 255.596 634.643 539.871 737.225 544.15 742.094 C 547.258 745.63 548.746 756.597 549.721 761.219 C 564.326 830.436 575.491 900.523 588.134 970.119 C 600.102 1034.19 611.385 1098.39 621.983 1162.71 C 625.265 1182.3 628.505 1201.97 631.517 1221.61 C 632.574 1228.5 634.591 1238.34 628.208 1242.87 C 618.098 1242.8 600.011 1236.51 589.509 1233.47 C 567.25 1227.03 545.04 1220.42 522.883 1213.63 L 255.916 1132.22 C 252.985 1123.12 250.554 1106.21 248.812 1096.16 C 245.752 1078.62 242.569 1061.09 239.266 1043.59 C 225.739 970.248 212.693 896.822 200.128 823.314 C 191.431 771.447 182.309 719.653 172.761 667.936 C 168.254 643.807 163.995 619.632 159.984 595.415 C 157.868 582.819 154.923 567.559 153.719 555.168 C 145.099 551.752 136.774 550.777 137.016 540.445 z" fill="rgb(254,244,229)" transform="translate(0,0)"></path>
<path d="M 218.404 686.728 C 219.991 686.782 220.769 686.972 222.333 687.238 C 228.906 695.384 289.751 1049.17 297.921 1089.24 C 330.266 1101.92 373.644 1114.46 407.092 1124.8 L 541.322 1167.3 C 561.459 1173.65 588.827 1181.52 608.933 1189.22 C 611.255 1190.11 610.979 1191.82 611.441 1194.22 C 599.963 1193.31 549.879 1176.26 535.656 1171.74 C 455.434 1146.29 370.801 1121.9 291.886 1093.29 L 247.911 845.94 C 241.442 812.198 235.16 778.42 229.067 744.608 C 225.816 727.495 220.364 703.55 218.404 686.728 z" fill="rgb(254,244,229)" transform="translate(0,0)"></path>
<path d="M 684.954 1392.45 C 725.856 1392.51 750.132 1407.63 786.727 1423.92 L 905.812 1478.08 L 1049.51 1544.71 C 1082.92 1560.17 1116.85 1575.05 1149.48 1592.15 C 1160.01 1597.67 1170.16 1603.17 1177.76 1612.75 C 1188.83 1626.73 1181.5 1640.57 1168.49 1649.58 C 1152.61 1659.91 1133.91 1668.77 1117.02 1677.39 L 1015.4 1728.89 L 921.372 1777.93 C 880.071 1799.6 859.854 1816.05 810.15 1807.87 C 788.58 1803.18 748.482 1780.43 726.479 1769.77 C 652.657 1734.01 579.89 1694.28 506.512 1657.77 L 377.749 1594.83 C 361.062 1586.77 323.666 1569.94 309.005 1560.79 C 322.701 1551.79 351.177 1538.3 366.495 1530.27 C 411.43 1506.7 457.569 1485.3 503.197 1463.27 C 524.261 1453.06 545.261 1442.71 566.196 1432.23 C 607.429 1411.33 636.819 1394.98 684.954 1392.45 z" fill="rgb(200,16,46)" transform="translate(0,0)"></path>
<path d="M 499.341 1495.33 C 504.307 1496.58 520.134 1504.82 525.796 1507.58 L 575.971 1531.76 L 823.606 1650.16 L 900.845 1687.29 C 908.531 1690.99 918.131 1694.99 925.52 1699.19 C 928.346 1700.8 928.047 1703.86 928.256 1706.58 C 921.7 1704.91 900.271 1694.45 892.775 1690.91 L 816.344 1654.09 L 588.631 1544.56 C 565.297 1533.51 523.427 1514.93 499.731 1500.89 C 498.718 1500.29 499.266 1497.02 499.341 1495.33 z" fill="rgb(254,244,229)" transform="translate(0,0)"></path>
<path d="M 621.341 1435.61 C 626.356 1437.03 641.37 1444.41 646.922 1447.02 L 695.559 1469.95 L 893.592 1564.6 L 1003.47 1615.57 C 1014.38 1620.73 1027.33 1626.95 1038.23 1632.6 C 1040.29 1633.66 1039.67 1636.26 1039.62 1638.52 C 1033.77 1638.18 991.595 1617.24 983.362 1613.43 C 911.533 1580.43 840.037 1546.72 768.885 1512.28 C 735.939 1496.8 703.076 1481.14 670.295 1465.31 C 655.296 1458.14 636.387 1449.98 622.072 1442.18 C 620.226 1439.03 620.793 1440.07 621.341 1435.61 z" fill="rgb(254,244,229)" transform="translate(0,0)"></path>
<path d="M 392.461 1547.74 C 400.315 1549.39 461.634 1580.19 472.987 1585.69 C 545.194 1619.85 617.012 1654.83 688.429 1690.61 L 743.952 1717.37 C 751.5 1721.01 761.48 1725.47 768.658 1729.83 C 771.603 1731.61 771.261 1734.03 771.548 1736.93 C 761.464 1733.88 733.081 1719.49 722.047 1714.18 L 607.55 1658.19 L 452.616 1582.85 C 434.312 1573.92 412.587 1563.8 394.434 1553.92 C 391.9 1552.55 392.488 1550.28 392.461 1547.74 z" fill="rgb(254,244,229)" transform="translate(0,0)"></path>
<path d="M 383.844 1571.93 C 442.886 1600.13 502.251 1632.82 560.972 1661.99 C 572.212 1667.57 641.882 1702.28 647.63 1707.54 L 647.643 1709.5 L 643.93 1713.14 C 624.732 1700.72 594.962 1687.08 573.841 1676.4 L 448.25 1611.64 L 405.257 1589.89 C 398.142 1586.37 387.526 1581.72 381.008 1577.84 C 380.656 1574.89 381.395 1575.18 383.844 1571.93 z" fill="rgb(254,244,229)" transform="translate(0,0)"></path>
<path d="M 780.094 1304.92 C 787.701 1310.6 825.181 1326.21 836.539 1331.22 L 936.012 1375.75 L 1404.11 1585.02 C 1366.05 1603.57 1330.5 1622.83 1293.11 1642.49 L 1138.73 1723.38 C 1075.22 1756.47 1012.05 1790.23 949.241 1824.64 C 910.222 1845.58 875.653 1863.1 836.91 1885.34 C 818.541 1875.72 797.46 1866.04 778.612 1856.81 L 686.988 1811.09 C 497.538 1715.76 306.796 1623.02 114.815 1532.9 C 227.913 1479.77 340.657 1425.9 453.04 1371.27 L 545.492 1326.69 C 559.253 1320.01 573.266 1313.92 586.797 1306.81 C 606.315 1313.54 630.939 1320.27 651.06 1326.49 C 575.315 1360.55 501.254 1398.94 426.908 1435.99 C 381.749 1458.49 334.67 1478.67 290.721 1503.7 C 277.034 1511.5 271.131 1520.12 267.73 1535.52 C 269.954 1544.72 274.245 1553.22 282.6 1558.41 C 296.097 1566.8 310.833 1573.79 325.058 1580.91 C 353.723 1595.32 382.561 1609.39 411.566 1623.1 C 469.009 1650.66 529.301 1681.62 586.333 1710.5 C 631.625 1734.12 677.01 1756.24 722.801 1778.91 C 748.233 1790.96 771.395 1806.29 798.099 1815.57 C 847.677 1832.79 885.115 1810.39 926.911 1788 L 1006 1745.9 C 1038.76 1728.91 1071.65 1712.17 1104.66 1695.69 C 1122.33 1686.91 1140.29 1678.64 1157.73 1669.43 C 1172.79 1661.47 1189.52 1651.14 1193.27 1633.08 C 1195.09 1624.34 1193.31 1615.23 1188.33 1607.82 C 1181.44 1597.43 1170.58 1590.32 1159.83 1584.47 C 1123.7 1564.77 1085.08 1548.39 1047.68 1531.23 L 876.251 1452.62 L 791.005 1413.81 C 766.687 1402.82 743.783 1391.05 717.482 1385.33 C 661.028 1373.04 614.5 1395.64 565.471 1419.76 L 488.865 1457.71 C 447.279 1478.06 405.186 1497.41 364.224 1519.37 C 343.7 1530.38 317.594 1542.62 298.499 1555.18 C 252.056 1528.07 306.07 1505.65 330.474 1493.15 C 350.582 1482.8 370.845 1472.74 391.258 1463 L 597.456 1360.86 C 609.832 1354.56 622.361 1348.56 635.03 1342.87 C 643.79 1338.94 654.294 1334.94 662.393 1329.97 C 682.68 1336.02 706.04 1345.06 726.205 1349.77 L 732.655 1342.9 C 753.73 1350.76 781.886 1364 803.032 1373.33 C 846.482 1392.32 889.755 1411.71 932.845 1431.5 L 1182.26 1543.5 L 1268.97 1583.46 C 1282 1589.45 1295.28 1595.57 1308.34 1601.52 C 1311.25 1602.84 1311.9 1602.6 1314.15 1601.66 L 1315.24 1598.65 C 1313.27 1594.81 1290.67 1585.99 1285.65 1583.68 L 1234.26 1559.81 L 1107.79 1502.83 L 799.609 1364.29 C 781.525 1356.1 753.799 1345.22 737.208 1336.37 L 735.956 1335.7 C 750.847 1325.7 765.562 1315.44 780.094 1304.92 z" fill="rgb(200,16,46)" transform="translate(0,0)"></path>
<path d="M 1049.9 895.421 C 1065.33 895.174 1074.54 896.366 1089.56 899.161 C 1093.99 899.984 1109.4 894.95 1115.94 895.161 C 1200.22 897.888 1292.43 933.065 1354.33 990.694 C 1364.48 1000.48 1391.78 1034.51 1393.1 1048.04 C 1394.11 1058.39 1393.17 1090.33 1393 1102.61 C 1345.69 1156.12 1249.36 1169.66 1181.75 1174.33 C 1181.42 1174.37 1181.08 1174.4 1180.75 1174.44 C 1076.39 1178.85 949.714 1158.72 866.013 1092.59 C 847.862 1078.24 832.607 1055.53 831.324 1032.82 C 830.086 1010.91 840.28 988.587 854.885 972.906 C 906.744 917.222 977.681 899.901 1049.9 895.421 z" fill="rgb(200,16,46)" transform="translate(0,0)"></path>
<path d="M 1117.26 910.518 L 1124.47 910.197 L 1124.63 911.034 C 1123.12 912.106 1121.63 913.192 1120.14 914.293 C 1076.74 946.421 1051.01 993.701 1043.54 1046.86 C 1042.86 1051.73 1042.16 1054.39 1044.97 1058.14 C 1046.6 1058.09 1047.79 1058.1 1048.71 1056.55 C 1077.21 1008.62 1118.33 968.315 1167.95 942.484 C 1179.83 936.3 1195.16 931.048 1208.88 926.372 C 1226.66 930.901 1244.16 936.494 1261.28 943.122 C 1258.54 944.123 1255.82 945.209 1253.15 946.381 C 1213.25 964.316 1178.27 1007.23 1160.75 1047.51 C 1159.07 1051.37 1158.43 1054.21 1160.14 1057.84 C 1161.86 1058.28 1163.48 1058.88 1165.09 1057.21 C 1208.26 1012.68 1283.07 989.772 1342.67 1010.01 C 1357.86 1016.52 1370.34 1041.47 1377.29 1055.24 C 1398.77 1097.81 1348.04 1118.28 1316.92 1131.03 C 1315.51 1131.61 1314.1 1132.18 1312.69 1132.72 C 1206.71 1173.75 1046.45 1166.93 942.425 1121.19 C 913.163 1108.32 865.802 1083.39 853.74 1052.11 C 863.666 981.002 932.029 950.588 993.058 930.128 C 980.138 951.659 970.973 975.23 965.953 999.832 C 964.396 1007.1 956.538 1042.91 967.101 1044.54 C 971.288 1042.71 977.936 1025.56 980.362 1020.57 C 996.842 986.637 1020.98 944.147 1049.06 918.572 L 1050.15 917.585 C 1073.54 913.394 1093.63 910.832 1117.26 910.518 z" fill="rgb(228,134,108)" transform="translate(0,0)"></path>
<path d="M 1271.59 949.918 C 1283.13 948.38 1330.41 989.26 1338.6 999.49 C 1296.77 989.323 1267.34 992.274 1227.53 1006.52 C 1208.17 1014.13 1194.46 1022.02 1177.25 1032.9 C 1202.05 990.555 1226.01 966.343 1271.59 949.918 z" fill="rgb(228,134,108)" transform="translate(0,0)"></path>
<path d="M 1147.01 911.946 C 1156.16 910.963 1185.84 918.601 1196.49 921.053 C 1185.34 926.036 1175.98 928.843 1164.28 934.795 C 1131.89 951.275 1104.87 972.215 1080.2 998.666 C 1072.28 1007.67 1063.39 1019.52 1055.87 1029.11 C 1070.11 975.602 1094.85 933.776 1147.01 911.946 z" fill="rgb(228,134,108)" transform="translate(0,0)"></path>
<path d="M 1032.47 921.203 L 1032.82 921.253 L 1033.48 922.191 C 1008.51 954.187 990.286 975.379 973.307 1014.19 L 972.641 1014.4 C 972.692 988.114 991.066 949.752 1004.5 928.071 C 1013.91 925.445 1022.96 923.378 1032.47 921.203 z" fill="rgb(228,134,108)" transform="translate(0,0)"></path>
<path d="M 1038.74 904.439 C 1047.1 904.014 1053.9 905.109 1062.14 906.149 C 1015.15 908.999 966.183 925.322 924.5 946.82 L 908.066 955.218 C 940.412 925.517 995.494 907.357 1038.74 904.439 z" fill="url(#Gradient1)" transform="translate(0,0)"></path>
<path d="M 829.186 1068.05 C 855.856 1103.12 889.27 1124.97 929.345 1142.25 C 1051.35 1194.88 1215.72 1201.77 1339.69 1152.85 C 1336.32 1166.79 1334.15 1180.09 1330.4 1194.52 C 1307.37 1198.74 1291.52 1194.67 1269.64 1188.36 C 1260.22 1191.69 1248.9 1200.19 1250.11 1210.69 C 1252.97 1235.53 1298.37 1241.28 1318.03 1247.16 C 1320.5 1247.9 1317.51 1251.45 1320.05 1254.16 C 1338.07 1251.25 1376.87 1230.9 1391.92 1220.12 C 1391.98 1231.59 1391.7 1243.06 1391.08 1254.51 C 1386.65 1258.66 1383.5 1263.47 1379.92 1268.38 C 1372.68 1269.95 1354.85 1281.83 1344.72 1285.95 C 1345.64 1282.74 1346.18 1282.84 1345.42 1280.07 C 1341.41 1277.88 1334.51 1278.89 1329.42 1279.04 C 1254.12 1403.97 947.779 1371.87 877.665 1251.41 C 852.434 1208.06 835.984 1118.02 829.186 1068.05 z" fill="rgb(200,16,46)" transform="translate(0,0)"></path>
<path d="M 879.337 1174.26 C 880.254 1174.61 882.942 1175.35 883.318 1176.22 C 894.055 1201.07 899.646 1228.8 915.783 1251.2 C 920.979 1258.41 930.705 1267.84 929.474 1276.67 C 911.74 1273.34 876.939 1191.44 879.337 1174.26 z" fill="rgb(254,244,229)" transform="translate(0,0)"></path>
<path d="M 726.045 623.142 C 736.89 622.475 744.777 626.257 754.547 630.246 C 842.504 666.165 930.455 702.273 1018.24 738.603 C 1105.11 774.556 1193.28 808.184 1279.85 844.776 C 1296.91 852.142 1314.04 859.384 1331.21 866.501 C 1365.86 880.795 1374.21 879.694 1393.92 913.841 C 1393.37 950.008 1393.07 986.18 1393.03 1022.35 C 1391.21 1019.16 1389.04 1015.96 1387.03 1012.86 C 1362.89 979.588 1314.9 945.903 1277.62 927.739 C 1242.36 910.964 1205.25 898.378 1167.06 890.239 C 1151.4 887.041 1132.63 887.685 1118.16 882.141 C 1001.06 837.283 885.33 788.721 769.222 741.373 C 749.418 733.297 730.105 724.28 710.001 716.894 C 710.159 694.181 709.109 670.498 710.28 647.811 C 710.836 637.035 716.687 628.468 726.045 623.142 z" fill="rgb(200,16,46)" transform="translate(0,0)"></path>
<path d="M 710.822 729.644 C 738.217 741.146 765.679 752.483 793.209 763.655 C 806.469 769.129 826.422 776.771 838.813 783.145 C 821.814 790.23 758.559 813.043 747.988 820.808 L 748.389 821.521 C 758.764 820.66 832.756 791.599 847.221 786.259 C 876.675 798.683 906.463 810.06 935.878 822.545 C 948.159 827.757 960.217 832.963 972.717 837.659 C 933.779 853.242 895.149 869.583 856.847 886.671 C 826.152 900.008 777.949 921.267 749.361 938.101 C 772.457 931.146 804.524 914.738 827.855 904.798 L 918.779 865.698 C 938.943 857.138 959.716 848.981 979.615 839.941 C 995.456 845.977 1011.55 852.905 1027.24 859.438 C 1043.04 865.823 1067.18 874.582 1080.39 883.922 C 1079.46 883.743 1077.11 883.214 1076.18 883.162 C 992.579 878.471 873.172 913.672 829.85 987.417 C 800.522 990.116 757.433 1030.15 783.886 1059.43 C 794.287 1070.94 802.875 1074.59 817.678 1076.16 C 822.656 1105.15 828.221 1134.04 834.369 1162.8 C 813.194 1172.82 792.177 1183.17 771.326 1193.85 C 767.512 1177.14 764.408 1157.56 761.104 1140.46 L 737.097 1016.32 L 720.696 934.251 C 718.531 923.345 712.875 898.227 712.247 887.991 C 711.23 871.415 711.532 849.448 711.419 832.509 L 710.822 729.644 z" fill="rgb(200,16,46)" transform="translate(0,0)"></path>
<path d="M 1892.2 1584.89 C 1909.53 1585.16 1923.21 1609.96 1924.71 1625.47 C 1926.1 1639.95 1919.78 1653.82 1910.81 1664.78 C 1894.63 1684.21 1871.38 1696.38 1846.2 1698.6 C 1903.17 1724.55 1963.36 1767.84 1930.18 1839.5 C 1907.81 1885.14 1854.78 1913.08 1808.98 1930.96 C 1713.73 1968.13 1605.8 1976.64 1504.48 1977.26 C 1448.98 1977.59 1394.92 1973.87 1340.23 1965.79 C 1317.64 1962.46 1295.76 1959.14 1273.54 1953.95 C 1258.58 1950.45 1242.59 1944.73 1227.16 1943.23 C 1145.21 1942.86 1063.85 1929.58 982.982 1917.56 C 969.474 1915.55 931.452 1911.31 920.963 1906.25 C 919.191 1903.2 919.248 1904.67 919.959 1901.78 C 926.146 1897.92 965.811 1906.21 975.685 1907.51 C 1053.4 1917.75 1133.63 1932.84 1212.03 1934.95 C 1260.58 1936.26 1330.52 1926.78 1373.28 1904.18 C 1396.94 1839.42 1423.3 1778.91 1457.72 1718.99 C 1460.17 1714.73 1462.16 1708.93 1466.39 1706.48 C 1468.01 1706.55 1469.22 1706.21 1469.77 1707.31 C 1472.81 1713.37 1470.48 1740.47 1469.91 1746.3 C 1468.03 1764.36 1464.22 1782.16 1458.56 1799.41 C 1442.98 1847.08 1420.81 1870.57 1382.7 1901.65 C 1406.23 1891.12 1436.31 1877.48 1456.83 1861.59 C 1538.56 1798.32 1616.89 1724.6 1692.67 1654.62 C 1699.49 1648.03 1742.36 1604.7 1747.89 1604.17 C 1749.55 1606.01 1750.04 1607.8 1749.4 1610.34 C 1728.18 1694.48 1638.98 1808.47 1546.86 1798.74 C 1530.69 1813.15 1513.01 1828.55 1495.97 1841.82 C 1535.37 1830.25 1573.48 1821.16 1614.3 1815.48 C 1619.19 1814.8 1623.65 1813.98 1626.84 1818.02 C 1625.72 1822.3 1620.27 1825.78 1616.47 1828.17 C 1586.37 1847.16 1554.95 1861.71 1518.39 1857.22 C 1508.25 1855.98 1496.38 1852.37 1486.1 1850.02 C 1446.25 1884.36 1410.81 1899.62 1362.69 1919.33 C 1354.46 1922.7 1330.48 1929.46 1325.09 1933.3 L 1325.41 1934.08 C 1343.33 1938.44 1418.38 1913.35 1440.77 1908.47 C 1480.83 1899.74 1522.05 1894.31 1561.97 1884.86 C 1568.65 1883.28 1585.24 1878.78 1590.28 1883.5 C 1588.36 1890.22 1575.54 1895.54 1569.46 1898.73 C 1499.93 1935.3 1415.64 1963.57 1336.92 1944.69 C 1329.9 1943.38 1316.08 1936.39 1309.43 1936.81 C 1292.84 1937.85 1278.14 1941.26 1261.09 1941.49 C 1280.93 1947.11 1301.66 1950.29 1321.97 1953.73 C 1465.09 1977.93 1687.98 1976.28 1819.54 1916.63 C 1860.97 1897.84 1909.04 1873.19 1925.78 1827.76 C 1932.66 1809.08 1932.66 1789.66 1923.99 1771.55 C 1905.74 1733.4 1856.14 1709.13 1817.52 1698.32 C 1802.12 1694.01 1785.68 1692.15 1770.63 1686.88 L 1770.13 1685.1 C 1775.12 1680.4 1807.87 1690.88 1816.57 1691.26 C 1844.2 1692.46 1883.19 1685.85 1899.71 1660.69 C 1900.38 1649.01 1900.22 1645.67 1897.35 1634.04 C 1894.04 1620.59 1880.84 1606.36 1883.48 1593.23 C 1884.37 1588.79 1888.6 1586.91 1892.2 1584.89 z" fill="rgb(200,16,46)" transform="translate(0,0)"></path>
<path d="M 1732.72 1627.88 L 1733.19 1628.36 C 1734.48 1638.86 1701.07 1694.69 1692.62 1705.46 C 1654.76 1753.69 1619.06 1782.34 1558.42 1791.3 L 1557.96 1790.89 C 1558.16 1789.31 1586.4 1764.17 1589.78 1761.13 C 1638.48 1717.86 1686.14 1673.43 1732.72 1627.88 z" fill="rgb(254,244,229)" transform="translate(0,0)"></path>
<path d="M 1460.8 1731.9 C 1462.26 1734.49 1461.83 1733.32 1461.57 1736.74 C 1456.7 1799.33 1439.42 1838.78 1393.92 1880.51 C 1393.61 1880.02 1393.29 1879.53 1392.97 1879.05 C 1399.04 1850.22 1444.04 1758.73 1460.8 1731.9 z" fill="rgb(254,244,229)" transform="translate(0,0)"></path>
<path d="M 1545.82 1897.31 C 1548.58 1896.86 1548.44 1896.84 1551.2 1897.3 C 1548.49 1899.76 1531.54 1906.89 1527.33 1908.74 C 1477.77 1930.45 1422.63 1944.44 1368.25 1940.25 C 1365.71 1940.12 1363.36 1939.77 1360.85 1939.43 C 1362.33 1937.99 1377.89 1935.49 1381.12 1934.49 C 1435.32 1917.65 1490.19 1908.39 1545.82 1897.31 z" fill="rgb(254,244,229)" transform="translate(0,0)"></path>
<path d="M 1596.91 1828.47 L 1596.52 1829.86 C 1575.86 1843.7 1537.69 1851.89 1512.41 1847.93 L 1511.73 1847.36 C 1517.02 1842.19 1586.12 1830.01 1596.91 1828.47 z" fill="rgb(254,244,229)" transform="translate(0,0)"></path>
<path d="M 1892.94 1593.26 C 1899.68 1595.24 1906.49 1603.1 1909.64 1609.2 C 1916.48 1622.42 1916.6 1632.49 1912.19 1646.05 L 1910.24 1649.19 L 1909.23 1648.76 C 1908.82 1620.34 1891.7 1612.96 1892.94 1593.26 z" fill="rgb(254,244,229)" transform="translate(0,0)"></path>
<path d="M 774.518 1211.03 C 804.378 1225.78 832.83 1238.01 863.416 1251.15 C 913.244 1326.82 1004.73 1357.64 1091.96 1366.05 C 1098.94 1366.73 1106.46 1366.24 1113.3 1366.91 C 1130.95 1368.65 1150.98 1380.56 1167.07 1388.14 C 1187.1 1397.38 1207.2 1406.49 1227.36 1415.46 C 1247.43 1424.58 1267.56 1433.57 1287.74 1442.44 C 1319.59 1456.06 1358.28 1472.16 1388.96 1488.31 C 1389.35 1514.43 1387.77 1542.32 1386.95 1568.6 C 1385.1 1568.69 850.2 1329.18 791.556 1303.02 C 789.571 1296.27 786.59 1278.36 785.229 1270.68 C 781.895 1251.87 776.425 1229.64 774.518 1211.03 z" fill="rgb(200,16,46)" transform="translate(0,0)"></path>
<path d="M 414.308 93.5195 C 495.928 92.2792 585.055 97.4237 666.579 103.253 C 785.319 111.744 903.953 134.333 1023.06 140.069 C 1032.44 140.521 1063.35 139.26 1069.76 140.837 L 1070.93 143.227 C 1070.73 147.115 1071.54 145.718 1069.41 148.086 C 1063.67 150.159 1029.89 149.441 1022.5 149.114 C 947.062 145.772 871.08 134.192 796.163 125.39 C 767.087 122.132 737.979 119.158 708.845 116.467 C 655.172 110.931 601.327 107.22 547.402 105.34 C 543.151 107.969 529.316 116.252 527.179 120.398 C 505.815 161.841 502.493 215.757 486.773 259.684 C 482.441 271.789 464.841 317.357 457.279 321.051 C 445.17 318.164 441.404 268.278 442.008 257.14 C 445.151 199.153 472.902 157.55 514.333 119.112 C 478.978 132.442 412.405 165.454 384.617 189.779 C 385.776 200.455 386.866 211.245 387.779 221.687 C 393.575 287.967 364.098 339.518 321.028 386.495 C 314.496 393.62 286.033 427.025 278.316 427.532 L 276.808 425.968 C 271.557 410.732 278.044 363.831 281.312 347.228 C 296.67 276.529 319.267 234.711 375.544 188.914 C 313.759 211.952 242.757 239.665 175.094 228.815 C 172.455 228.392 172.73 228.312 171.531 226.224 C 174.351 218.177 195.221 207.53 203.045 203.309 C 248.135 178.987 326.704 159.667 375.292 181.777 C 385.105 178.001 411.079 161.182 421.708 154.613 C 462.092 129.656 485.674 118.974 530.866 105.153 C 526.847 104.565 522.302 104.209 518.135 104.066 C 412.49 100.461 240.994 94.6273 156.439 169.049 C 86.3005 230.506 84.6988 316.465 129.575 393.806 C 133.027 399.756 150.587 421.842 143.772 425.933 C 141.44 425.656 140.511 425.984 138.898 423.864 C 109.833 385.663 91.2036 336.851 89.9884 288.995 C 88.905 246.327 110.096 203.808 138.872 173.879 C 205.169 104.925 324.53 95.907 414.308 93.5195 z" fill="rgb(200,16,46)" transform="translate(0,0)"></path>
<path d="M 374.138 200.801 L 375.059 201.348 C 376.879 204.749 377.363 210.582 377.724 214.525 C 383.983 282.877 364.403 321.02 323.057 371.316 C 322.495 369.38 331.54 339.583 332.596 333.741 C 337.603 306.047 337.581 273.743 331.082 246.415 C 342.522 231.01 359.488 212.822 374.138 200.801 z" fill="rgb(254,244,229)" transform="translate(0,0)"></path>
<path d="M 509.648 134.768 C 509.725 135.299 509.801 135.83 509.878 136.36 C 494.11 187.688 488.264 241.877 464.527 290.531 C 462.018 295.674 460.363 301.443 457.657 303.844 L 456.692 302.335 C 446.705 252.049 452.399 209.595 482.924 167.008 C 490.821 155.989 500.797 145.136 509.648 134.768 z" fill="rgb(254,244,229)" transform="translate(0,0)"></path>
<path d="M 323.443 259.67 C 324.969 264.653 326.128 276.937 326.335 282.559 C 328.124 330.997 319.073 373.833 285.97 410.341 L 284.214 410.746 C 282.919 407.678 284.384 390.275 284.825 385.816 C 289.109 342.501 299.935 296.663 323.443 259.67 z" fill="rgb(254,244,229)" transform="translate(0,0)"></path>
<path d="M 305.085 182.413 C 320.638 180.297 345.21 182.017 360.337 185.404 C 323.786 199.53 283.463 212.384 244.89 218.825 C 224.163 222.369 209.241 222.556 188.644 221.855 C 220.472 200.601 267.12 185.366 305.085 182.413 z" fill="rgb(254,244,229)" transform="translate(0,0)"></path>
<path d="M 653.354 651.144 L 654.506 651.749 C 659.058 663.413 666.397 707.062 668.836 721.019 C 675.141 757.328 681.706 793.591 688.532 829.805 L 731.256 1046.88 L 761.343 1203.43 C 767.037 1233.1 771.496 1261.22 777.84 1291.04 C 765.084 1300.25 751.513 1309.29 738.45 1318.09 C 735.735 1320.01 735.474 1320.13 732.412 1321.45 C 729.183 1314.76 717.322 1239.04 715.068 1227.27 C 691.796 1109.07 669.845 990.617 649.219 871.927 C 640.893 828.258 633.113 784.488 625.879 740.626 C 621.988 717.912 616.283 688.744 614.106 666.209 C 625.551 660.629 641.295 655.197 653.354 651.144 z" fill="rgb(200,16,46)" transform="translate(0,0)"></path>
<path d="M 105.024 1536.86 C 129.353 1546.36 169.573 1567.09 194.044 1578.8 L 351.833 1654.17 L 624.249 1788.47 C 694.205 1822.94 768.028 1857.92 837.014 1893.59 C 836.619 1903.79 839.269 1923.82 835.799 1931.84 C 833.016 1932.55 830.249 1933.32 827.508 1932.08 C 810.588 1924.38 793.832 1915.26 777.291 1906.83 L 688.555 1862.62 L 273.623 1657.76 C 236.461 1639.44 199.161 1621.39 161.727 1603.63 C 150.376 1598.15 115.17 1581.7 105.928 1575.48 C 102.907 1569.44 104.698 1545.03 105.024 1536.86 z" fill="rgb(200,16,46)" transform="translate(0,0)"></path>
<path d="M 89.501 1694.36 C 95.4593 1697.45 123.571 1725.8 130.811 1732.48 C 179.035 1776.98 241.716 1814.5 269.655 1875.93 C 309.558 1897.52 331.676 1907.38 375.002 1922.2 C 358.701 1906.77 345.844 1897.84 331.123 1878.96 C 323.124 1868.62 315.916 1857.69 309.561 1846.26 C 304.233 1836.6 268.477 1761.34 277.414 1756.22 C 283.064 1758.24 287.79 1768.75 291.708 1773.56 C 326.872 1816.72 369.557 1853.42 406.278 1895.2 C 417.729 1908.24 431.762 1925.67 438.928 1941.09 C 533.103 1950.57 639.469 1921.99 728.288 1895.96 C 730.03 1895.45 731.012 1896.67 731.903 1897.71 L 731.429 1899.95 C 724.369 1907.81 676.855 1920.56 664.5 1923.96 C 606.437 1938.86 547.006 1947.79 487.129 1950.62 C 467.04 1951.56 450.057 1949.16 430.525 1949.71 C 425.916 1949.84 411.941 1957.69 406.025 1959.41 C 390.959 1963.77 374.821 1965.72 359.324 1966.92 C 294.68 1971.93 232.915 1948.65 178.707 1915.21 C 158.907 1903 137.625 1888.89 119.96 1873.44 C 142.786 1875.71 189.693 1887.34 211.049 1893.05 C 248.257 1903.04 285.556 1912.69 322.941 1922 C 347.423 1928.04 372.071 1934.7 397.076 1937.84 C 381.451 1931.52 361.347 1926.95 344.197 1920.67 C 308.734 1907.97 280.715 1892.03 246.626 1875.03 C 174.546 1839.09 120.319 1773.51 87.5047 1700.89 C 86.3352 1698.3 88.1885 1696.35 89.501 1694.36 z" fill="rgb(200,16,46)" transform="translate(0,0)"></path>
<path d="M 156.52 1888.87 C 234.011 1905.41 310.045 1932.57 388.526 1945.04 C 396.911 1946.37 409.872 1944.9 418.763 1944.75 L 408.603 1949.22 C 319.83 1975.65 227.503 1943.87 156.52 1888.87 z" fill="rgb(254,244,229)" transform="translate(0,0)"></path>
<path d="M 295.563 1792.66 C 299.185 1795.19 323.797 1821.81 327.587 1826.22 C 356.505 1859.86 405.875 1898.84 425.525 1937.55 C 407.865 1934.95 386.253 1920.27 372.874 1908.99 C 336.348 1878.19 311.717 1837.2 295.563 1792.66 z" fill="rgb(254,244,229)" transform="translate(0,0)"></path>
<path d="M 112.746 1728.6 C 118.838 1732.62 143.411 1754.89 149.881 1760.4 C 179.091 1785.29 239.883 1834.22 255.545 1868.99 C 245.93 1865.07 234.444 1856.83 225.538 1851.35 C 187.034 1827.68 155.357 1795.55 130.153 1758.17 C 124.029 1749.09 116.674 1738.79 112.746 1728.6 z" fill="rgb(254,244,229)" transform="translate(0,0)"></path>
<path d="M 1598.67 95.3745 C 1608.58 87.2667 1634.71 82.3274 1647.41 81.2507 C 1682.73 78.2574 1720.26 85.0374 1753.87 95.9533 C 1760.42 98.0807 1778.73 99.9637 1778.77 106.981 C 1773.4 113.233 1740.96 117.872 1732.15 118.479 C 1709.42 120.045 1685.52 117.852 1662.75 116.068 C 1676.44 123.956 1691.08 130.062 1704.92 137.557 C 1735.26 153.979 1765.6 169.304 1797.16 183.224 C 1802.84 185.728 1819.42 196.415 1824.56 195.162 C 1828.16 191.906 1829.65 191.509 1829.98 187.28 C 1828.15 184.487 1825.11 183.438 1822.02 181.854 L 1815.95 182.399 L 1814.76 181.003 C 1816.84 159.885 1843.54 162.803 1853.98 175.425 C 1861.88 184.958 1857.35 197.266 1848.12 203.833 C 1846.65 204.864 1845.16 205.86 1843.64 206.819 C 1877.53 229 1912.82 290.765 1920.55 330.836 C 1922.2 339.37 1927.25 363.16 1921.55 370.707 C 1914.46 369.664 1914.98 345.967 1913.32 338.703 C 1909.72 323.228 1904.62 308.145 1898.07 293.671 C 1879.81 287.171 1867.69 281.549 1850.68 272.032 C 1819.63 254.662 1787.21 239.46 1759.78 216.243 C 1745.75 204.57 1734.28 191.236 1722.33 177.51 C 1726.57 199.098 1727.13 208.121 1722.46 229.683 C 1700.76 228.515 1674.84 220.891 1660.47 204.395 C 1626.07 164.9 1666 107.006 1591.6 103.674 C 1534.58 101.12 1479.92 114.394 1423.67 122.998 C 1398.8 127.034 1356.63 133.714 1333.01 139.395 L 1317.06 131.464 C 1333.57 129.833 1352.95 126.035 1369.58 123.309 C 1402.69 118.125 1435.73 112.53 1468.7 106.523 C 1513.46 98.6529 1553.06 90.9741 1598.67 95.3745 z" fill="rgb(200,16,46)" transform="translate(0,0)"></path>
<path d="M 1774.1 182.653 C 1781.32 183.287 1793.74 190.64 1800.7 193.459 C 1829.43 205.095 1849.49 218.961 1867.35 244.441 C 1876.16 257.001 1882.81 265.957 1890.4 280.21 C 1878.47 275.851 1856.89 267.989 1847.3 260.062 C 1820.57 237.953 1798.38 207.276 1774.1 182.653 z" fill="rgb(254,244,229)" transform="translate(0,0)"></path>
<path d="M 1640.48 113.91 C 1642.62 114.586 1648.28 117.763 1651.09 118.946 C 1669.57 126.757 1685.98 137.403 1703.47 147.21 C 1713.57 173.456 1717.74 190.917 1715.85 218.809 C 1710.44 220.115 1702.68 217.589 1697.13 216.176 C 1682.16 190.73 1674.93 151.632 1656.85 127.977 C 1653.93 124.159 1644.64 117.13 1640.48 113.91 z" fill="rgb(254,244,229)" transform="translate(0,0)"></path>
<path d="M 1660.65 89.4166 C 1695.85 89.3326 1724.17 97.5802 1757.71 105.79 C 1741.14 109.044 1728.85 109.732 1712.2 109.95 C 1692.68 109.676 1667.95 107.434 1648.55 104.362 C 1638.25 102.731 1625.93 99.1549 1614.67 97.18 C 1630.94 91.667 1643.83 90.4309 1660.65 89.4166 z" fill="rgb(254,244,229)" transform="translate(0,0)"></path>
<path d="M 1719.9 157.594 C 1748.52 163.657 1776.17 197.735 1794.5 218.736 C 1800.39 225.477 1810.17 235.588 1814.29 242.997 C 1783.01 226.025 1738.55 187.006 1719.9 157.594 z" fill="rgb(254,244,229)" transform="translate(0,0)"></path>
<path d="M 1644.99 124.932 C 1655.86 135.04 1679.26 195.148 1682.87 210.348 C 1658.43 201.079 1653.66 167.071 1650.67 145.059 C 1649.75 138.297 1646.97 131.49 1644.99 124.932 z" fill="rgb(254,244,229)" transform="translate(0,0)"></path>
<path d="M 1821.96 181.199 L 1819.71 179.552 C 1821.39 172.096 1833.67 170.85 1839.3 173.126 C 1861.39 182.064 1843.4 214.848 1825.59 196.287 C 1832.34 196.119 1836.3 195.473 1837.18 187.938 C 1833.99 180.187 1829.3 180.799 1821.96 181.199 z" fill="rgb(254,244,229)" transform="translate(0,0)"></path>
<path d="M 1409.04 1590.96 L 1410.49 1591.7 C 1415.22 1600.98 1418.17 1610.78 1415.49 1621.24 C 1412.71 1632.1 1401.38 1635.22 1392.25 1639.86 L 1355.99 1658.44 L 1230.02 1724.65 C 1104.76 1791.39 979.123 1857.41 853.118 1922.72 L 849.095 1923.26 C 846.53 1919.37 848.122 1898.74 846.744 1889.25 C 889.233 1864.21 939.087 1838.72 982.589 1815.35 C 1072.41 1767 1162.58 1719.32 1253.11 1672.32 L 1360.33 1615.85 C 1372.74 1609.4 1398.86 1597.94 1409.04 1590.96 z" fill="rgb(200,16,46)" transform="translate(0,0)"></path>
<path d="M 119.481 451.295 C 142.044 448.843 171.133 462.691 192.214 470.668 L 266.145 498.572 L 449.056 566.391 C 493.662 582.578 538.165 599.046 582.564 615.794 C 598.544 621.798 635.636 634.823 648.994 642.792 C 637.326 645.296 631.093 647.683 620.283 652.674 C 616.927 654.269 613.537 656.156 609.784 654.784 C 572.824 641.266 536.593 625.7 499.721 611.935 L 182.066 492.128 C 164.326 485.551 106.383 461.456 92.2141 460.243 C 103.4 454.845 107.303 453.172 119.481 451.295 z" fill="rgb(200,16,46)" transform="translate(0,0)"></path>
<path d="M 1388.89 1275.72 L 1389.67 1276.44 C 1391.19 1280.82 1390.73 1334.71 1390.76 1342.06 C 1367.28 1365.45 1315.66 1390.61 1287.89 1408.87 C 1279.07 1405.95 1268.47 1401.14 1259.75 1397.47 L 1241.4 1389.62 C 1301.12 1353.81 1339.72 1324.35 1388.89 1275.72 z" fill="rgb(200,16,46)" transform="translate(0,0)"></path>
<path d="M 474.611 328.572 C 488.761 333.528 494.769 360.205 496.969 373.5 C 499.692 389.957 502.412 414.522 493.236 429.321 C 489.497 435.352 482.291 435.479 477.564 430.552 C 460.343 413.734 458.011 391.401 456.135 368.692 C 450.012 362.735 428.865 344.18 420.567 345.691 C 409.808 357.243 432.884 412.108 439.11 424.694 C 448.168 441.45 458.3 452.291 471.432 465.551 C 473.026 467.16 472.642 468.338 472.29 470.159 C 469.159 471.797 466.856 472.092 464.007 469.519 C 436.573 444.737 418.46 410.885 411.15 374.713 C 409.599 367.041 404.894 334.614 419.277 334.54 C 431.859 335.828 449.428 350.491 458.671 358.85 C 459.937 345.091 462.137 335.728 474.611 328.572 z" fill="rgb(200,16,46)" transform="translate(0,0)"></path>
<path d="M 474.28 338.503 C 486.95 349.674 497.948 412.709 485.396 425.892 C 463.199 409.547 461.964 360.841 474.28 338.503 z" fill="rgb(254,244,229)" transform="translate(0,0)"></path>
<path d="M 144.651 1207.58 C 163.679 1212.44 182.982 1310.7 186.156 1328.29 C 186.985 1332.89 188.146 1336.91 184.46 1340.13 C 181.056 1340.17 179.815 1338.83 176.98 1336.88 C 154.589 1319.63 137.148 1304.06 131.218 1274.84 C 126.993 1254.02 132.822 1225.14 144.651 1207.58 z" fill="rgb(200,16,46)" transform="translate(0,0)"></path>
<path d="M 146.517 1223.54 C 154.181 1230.43 177.926 1318.97 175.468 1324.61 L 173.023 1323.33 C 139.969 1292.48 130.144 1266.9 146.517 1223.54 z" fill="rgb(254,244,229)" transform="translate(0,0)"></path>
<path d="M 1888.58 1462.22 L 1892.09 1462.03 C 1893.59 1462.81 1894.57 1462.84 1894.69 1464.21 C 1895.2 1470.43 1884.77 1490.48 1881.81 1495.64 C 1864.22 1526.29 1841.97 1536.37 1809.22 1544.88 C 1806.23 1545.22 1806.24 1545.48 1803.57 1544.27 C 1799.96 1536.87 1814.25 1513.39 1818.6 1506.71 C 1836.06 1479.9 1857.87 1468.37 1888.58 1462.22 z" fill="rgb(200,16,46)" transform="translate(0,0)"></path>
<path d="M 1881.88 1472.19 L 1882.56 1472.65 C 1883.14 1475.54 1879.45 1482.45 1878 1485.41 C 1864.59 1512.94 1843.83 1525.13 1816 1534.84 L 1815.35 1534.1 C 1815.42 1530.38 1820.09 1520.65 1822.09 1517.24 C 1836.82 1492.21 1854.8 1480.01 1881.88 1472.19 z" fill="rgb(254,244,229)" transform="translate(0,0)"></path>
<path d="M 1805.62 1791.42 C 1814.37 1791.11 1841.26 1791.3 1843.39 1801.08 C 1842.91 1802.95 1842.25 1804.82 1840.92 1806.24 C 1820.32 1828.16 1798.61 1833.95 1770.97 1836.95 C 1760.86 1837.1 1737.1 1837.91 1729.46 1831.35 C 1729.16 1829.17 1728.91 1827.92 1730.89 1825.82 C 1753.67 1801.73 1774.17 1793.54 1805.62 1791.42 z" fill="rgb(200,16,46)" transform="translate(0,0)"></path>
<path d="M 1797.35 1801.34 C 1809.32 1799.62 1820.55 1801.5 1832.2 1803.84 C 1813.87 1817.82 1803.23 1822.61 1780.95 1826.72 C 1768.22 1828.81 1756.11 1828.46 1743.35 1827.2 C 1759.59 1809.99 1774.55 1804.63 1797.35 1801.34 z" fill="rgb(254,244,229)" transform="translate(0,0)"></path>
<path d="M 1389.93 1355.02 C 1391.34 1358.5 1390.05 1394.68 1390.01 1401.55 C 1379.47 1411.25 1357.79 1425.76 1345.31 1434.87 C 1335.21 1429.66 1324.63 1425.11 1314.25 1420.48 C 1308.3 1417.95 1303 1415.42 1297.19 1412.6 C 1327.97 1398.52 1363.47 1376.14 1389.93 1355.02 z" fill="rgb(200,16,46)" transform="translate(0,0)"></path>
<path d="M 1344.72 1285.95 C 1354.85 1281.83 1372.68 1269.95 1379.92 1268.38 C 1364.25 1293.55 1261.28 1370.37 1231.32 1384.69 C 1215.57 1378.34 1199.88 1371.86 1184.23 1365.25 C 1238.26 1355.07 1301.3 1338.6 1338.23 1294.06 C 1339.42 1292.63 1343.78 1286.63 1344.72 1285.95 z" fill="rgb(130,0,28)" transform="translate(0,0)"></path>
<path d="M 1160.65 1863.43 C 1168.62 1862.92 1181.96 1865.61 1190.07 1867.15 C 1191.78 1869.42 1193.84 1872.83 1195.43 1875.31 C 1175.1 1894.51 1149.21 1898.43 1122.6 1893.99 C 1112.74 1891.38 1091.43 1884.36 1086.02 1875.36 C 1086.01 1872.03 1085.54 1873.56 1087.85 1870.75 C 1091.81 1869.19 1105.6 1871.63 1111.13 1870.91 C 1128.03 1868.7 1143.61 1864.68 1160.65 1863.43 z" fill="rgb(200,16,46)" transform="translate(0,0)"></path>
<path d="M 1153.54 1873.36 C 1164.72 1872.16 1169.57 1873.05 1180.59 1874.86 C 1164.59 1885.49 1155.75 1886.82 1137.24 1886.8 C 1123.57 1885.5 1118.14 1884.55 1105.22 1880.08 C 1122.63 1878.48 1136.34 1875.95 1153.54 1873.36 z" fill="rgb(254,244,229)" transform="translate(0,0)"></path>
<path d="M 1390.87 1189.82 C 1391.32 1192.33 1391.24 1203.27 1391.27 1206.45 C 1377.23 1218.54 1366.02 1224.81 1348.42 1230.72 C 1324.63 1238.71 1286.8 1229.51 1265.57 1217.89 C 1262.99 1213.6 1263.91 1212.26 1265.39 1207.77 C 1267.18 1206.09 1269.09 1204.43 1271.87 1205.63 C 1317.92 1225.45 1352.63 1227.6 1390.87 1189.82 z" fill="rgb(200,16,46)" transform="translate(0,0)"></path>
<path d="M 1391.96 1119.85 C 1391.92 1127.32 1391.85 1132.46 1392.72 1139.84 C 1393.65 1150.13 1395.25 1153.83 1387.38 1161.41 C 1374.11 1175.43 1366 1179.66 1349.65 1189.83 C 1350.35 1180.06 1353.69 1155.39 1352.4 1146.98 C 1367.75 1138.68 1379.19 1131.65 1391.96 1119.85 z" fill="rgb(200,16,46)" transform="translate(0,0)"></path>
<path d="M 413.811 1837.26 C 420.449 1839.4 429.596 1853.31 436.375 1858.61 C 471.262 1885.9 521.178 1885.57 562.515 1876.85 C 564.904 1876.35 566.832 1877.89 568.43 1879.28 C 568.893 1882.84 569.171 1881.19 567.598 1884.39 C 533.422 1893.06 481.58 1894.23 450.056 1877.43 C 439.906 1872.02 416.386 1856.88 412.33 1844.96 C 411.28 1841.87 412.432 1839.88 413.811 1837.26 z" fill="rgb(200,16,46)" transform="translate(0,0)"></path>
<path d="M 189.686 275.108 C 194.56 274.611 199.822 274.906 202.976 279.123 C 207.429 293.789 179.834 310.953 167.29 314.901 C 161.797 316.114 156.485 318.01 153.769 312.124 C 153.84 310.044 154.148 308.196 155.161 306.372 C 163.904 290.627 173.249 281.5 189.686 275.108 z" fill="rgb(200,16,46)" transform="translate(0,0)"></path>
<path d="M 191.236 282.57 L 193.328 283.507 C 196.773 292.281 175.24 302.608 168.296 305.446 C 167.424 305.601 168.02 305.564 166.551 305.046 C 168.507 295.904 183.143 286.245 191.236 282.57 z" fill="rgb(254,244,229)" transform="translate(0,0)"></path>
<path d="M 834.435 1171.9 L 835.978 1172.58 C 838.231 1177.49 840.374 1186.25 841.888 1191.73 L 816.665 1203.7 L 807.748 1200.47 C 802.855 1198.61 797.958 1196.22 793.189 1194.01 C 805.709 1186.56 821.483 1178.71 834.435 1171.9 z" fill="rgb(130,0,28)" transform="translate(0,0)"></path>
<path d="M 1387.99 1416.97 C 1390.38 1420.37 1389.09 1448.34 1388.99 1454.34 L 1368.56 1444.97 L 1354.97 1438.89 C 1365.31 1433.17 1378.09 1423.87 1387.99 1416.97 z" fill="rgb(130,0,28)" transform="translate(0,0)"></path>
<path d="M 790.011 1029.68 C 790.477 1030.15 792.871 1032.36 793.214 1032.8 C 799.195 1040.49 831.374 1051.54 823.751 1065.32 C 806.97 1064.42 777.992 1049.91 790.011 1029.68 z" fill="rgb(200,16,46)" transform="translate(0,0)"></path>
<path d="M 1534.72 169.066 C 1539.15 170.526 1545.19 176.69 1550.34 179.523 C 1555.78 182.524 1562.46 181.932 1565.28 185.974 C 1564.54 189.255 1564.05 189.062 1561.53 191.777 C 1553.1 190.32 1531.85 182.961 1530.66 173.485 C 1532.32 169.85 1531.1 171.349 1534.72 169.066 z" fill="rgb(200,16,46)" transform="translate(0,0)"></path>
<path d="M 817.9 1007.83 C 819.47 1007.92 818.556 1007.74 820.545 1008.72 C 821.328 1012.42 818.292 1027.2 817.495 1031.83 C 815.143 1031.83 813.682 1030.47 811.281 1029.13 C 806.875 1026.21 806.285 1026.3 805.727 1021 C 807.857 1014.76 812.678 1011.9 817.9 1007.83 z" fill="rgb(200,16,46)" transform="translate(0,0)"></path>
<path d="M 688.805 178.647 C 692.818 177.173 697.269 179.211 698.776 183.212 C 700.282 187.213 698.28 191.68 694.292 193.218 C 690.257 194.775 685.728 192.745 684.204 188.698 C 682.68 184.651 684.746 180.138 688.805 178.647 z" fill="rgb(200,16,46)" transform="translate(0,0)"></path>
<path d="M 650.111 174.799 C 661.172 173.789 663.112 183.609 655.446 190.522 C 651.793 190.701 651.82 190.892 648.37 189.249 C 643.865 183.568 646.066 179.947 650.111 174.799 z" fill="rgb(200,16,46)" transform="translate(0,0)"></path>
<path d="M 1569.55 1639.63 C 1582.44 1641.87 1580.11 1649.36 1573.17 1656.88 C 1561.78 1655.95 1563.68 1645.94 1569.55 1639.63 z" fill="rgb(200,16,46)" transform="translate(0,0)"></path>
<path d="M 1871.4 85.5102 C 1875.13 84.9213 1878.69 87.3164 1879.54 90.9956 C 1880.39 94.6747 1878.25 98.3861 1874.64 99.4958 C 1872.07 100.287 1869.27 99.5752 1867.38 97.6508 C 1865.5 95.7265 1864.85 92.9117 1865.7 90.3556 C 1866.54 87.7996 1868.74 85.93 1871.4 85.5102 z" fill="rgb(200,16,46)" transform="translate(0,0)"></path>
<path d="M 1913.02 99.5336 C 1916.4 97.4457 1920.83 98.498 1922.92 101.883 C 1925 105.268 1923.94 109.701 1920.55 111.779 C 1917.17 113.853 1912.75 112.797 1910.67 109.419 C 1908.59 106.041 1909.64 101.617 1913.02 99.5336 z" fill="rgb(200,16,46)" transform="translate(0,0)"></path>
<path d="M 301.183 1310.64 C 304.974 1309.74 308.782 1312.07 309.699 1315.86 C 310.617 1319.65 308.299 1323.47 304.515 1324.4 C 300.709 1325.34 296.866 1323 295.943 1319.19 C 295.021 1315.38 297.37 1311.55 301.183 1310.64 z" fill="rgb(200,16,46)" transform="translate(0,0)"></path>
<path d="M 340.41 1322.69 C 343.785 1322.13 347.055 1324.15 348.072 1327.42 C 349.089 1330.68 347.543 1334.2 344.448 1335.66 C 342.027 1336.8 339.164 1336.42 337.116 1334.7 C 335.068 1332.98 334.209 1330.22 334.917 1327.64 C 335.625 1325.06 337.77 1323.13 340.41 1322.69 z" fill="rgb(200,16,46)" transform="translate(0,0)"></path>
<path d="M 1607.08 1649.48 C 1610.7 1648.94 1614.09 1651.37 1614.73 1654.96 C 1615.37 1658.56 1613.03 1662.01 1609.45 1662.75 C 1607.05 1663.25 1604.57 1662.4 1602.98 1660.54 C 1601.38 1658.68 1600.92 1656.1 1601.77 1653.8 C 1602.63 1651.5 1604.66 1649.85 1607.08 1649.48 z" fill="rgb(200,16,46)" transform="translate(0,0)"></path>
<path d="M 843.036 1200.92 C 845.858 1203.57 849.668 1211.25 848.516 1215.26 C 844.85 1215.45 845.27 1214.86 841.425 1212.65 L 830.787 1207.34 L 843.036 1200.92 z" fill="rgb(130,0,28)" transform="translate(0,0)"></path>
<metadata><recraft-signature>{"signed_by": "recraft", "signature_b64": "rZQl+Yo5nHFppCq0z6wjlJAGjTjIU9OyxjE2Aoqu8nRywjaBU/WT0a9jHaENYvKzSkmN8weiWO5bNZg7FJVFAQ==", "signing_algo": "Ed25519", "generation_timestamp": 1778092863, "identifier": "894714e3-0d35-4d70-923c-68e8474b6488"}</recraft-signature></metadata></svg>