<svg xmlns="http://www.w3.org/2000/svg" height="1024" preserveAspectRatio="none" style="display: block;" version="1.1" viewBox="0 0 2048 2048" width="1024">
<defs>
	<linearGradient gradientUnits="userSpaceOnUse" id="Gradient1" x1="1236.89" x2="1240.62" y1="1457.97" y2="1434.83">
		<stop class="stop0" offset="0" stop-color="rgb(0,0,0)" stop-opacity="1"></stop>
		<stop class="stop1" offset="1" stop-color="rgb(26,1,1)" stop-opacity="1"></stop>
	</linearGradient>
</defs>
<path d="M 0 0 L 85.7529 0 L 94.4322 0 L 641.459 0 L 649.333 0 L 1220.93 0 L 1232.99 0 L 1349.23 0 L 1360.65 0 L 1448.96 0 L 1461.04 0 L 2048 0 L 2048 683.857 L 2048 695.639 L 2048 759.696 L 2048 764.326 L 2048 1058.65 L 2048 1070.12 L 2048 1125.69 L 2048 1136.1 L 2048 1167.18 L 2048 2048 L 0 2048 L 0 1445.72 L 0 1436.79 L 0 888.886 L 0 882.976 L 0 827.671 L 0 821.115 L 0 581.519 L 0 572.605 L 0 0 z" fill="rgb(252,250,238)" transform="translate(0,0)"></path>
<path d="M 0 0 L 85.7529 0 L 94.4322 0 L 641.459 0 L 649.333 0 L 1220.93 0 L 1232.99 0 L 1349.23 0 L 1360.65 0 L 1448.96 0 L 1461.04 0 L 498.6 587.763 C 383.963 658.865 268.829 729.161 153.205 798.645 L 48.1027 861.364 C 36.3527 868.261 11.0329 884.028 0 888.886 L 0 882.976 L 0 827.671 L 0 821.115 L 0 581.519 L 0 572.605 L 0 0 z" fill="rgb(5,1,1)" transform="translate(0,0)"></path>
<path d="M 0 0 L 85.7529 0 L 94.4322 0 L 156.25 55.4652 C 172.628 70.4261 194.379 91.3746 211.938 104.17 C 230.59 97.8617 250.24 91.6051 270.502 88.3503 C 379.806 70.8263 521.409 105.887 563.123 220.295 C 570.948 241.756 571.971 278.977 561.276 299.137 C 543.243 333.126 539.122 369.794 521.647 403.871 C 514.832 417.28 506.457 429.836 496.695 441.278 C 496.335 444.293 496.429 444.714 495.48 447.643 C 492.012 453.909 498.06 457.848 502.507 462.123 C 513.499 472.338 528.025 485.154 540.538 493.365 C 464.145 538.643 388.344 584.458 313.069 631.556 C 265.258 661.471 214.032 690.108 166.855 720.554 C 153.879 704.585 124.279 681.795 108.396 667.502 C 72.8413 635.507 35.5414 604.592 0 572.605 L 0 0 z" fill="rgb(5,1,1)" transform="translate(0,0)"></path>
<path d="M 0 0 L 85.7529 0 C 102.162 16.9188 124.196 35.2868 142.252 51.361 C 160.988 68.0418 185.383 92.5347 205.057 107.341 C 157.761 128.197 111.802 159.042 92.3782 209.411 C 81.6454 237.096 80.9632 267.669 90.4502 295.805 C 94.0098 306.403 98.8802 315.627 102.852 325.828 C 105.669 333.062 108.356 343.767 110.421 351.471 C 135.287 428.937 174.992 481.557 256.567 503.101 C 294.128 513.021 322.372 513.499 360.647 510.303 C 368.071 516.404 373.968 521.846 380.937 528.39 C 386.099 533.024 412.165 559.392 416.234 559.122 L 416.557 557.352 C 414.158 552.318 390.04 529.294 385.087 524.418 C 389.814 520.467 405.659 517.625 412.473 515.369 C 452.635 502.069 472.833 492.214 502.507 462.123 C 513.499 472.338 528.025 485.154 540.538 493.365 C 464.145 538.643 388.344 584.458 313.069 631.556 C 265.258 661.471 214.032 690.108 166.855 720.554 C 153.879 704.585 124.279 681.795 108.396 667.502 C 72.8413 635.507 35.5414 604.592 0 572.605 L 0 0 z" fill="rgb(195,153,129)" transform="translate(0,0)"></path>
<path d="M 110.421 351.471 C 135.287 428.937 174.992 481.557 256.567 503.101 C 294.128 513.021 322.372 513.499 360.647 510.303 C 368.071 516.404 373.968 521.846 380.937 528.39 C 362.971 530.483 333.441 532.899 315.594 531.393 C 271.454 527.324 224.658 512.469 188.204 486.713 C 166.015 471.036 139.523 440.817 127.703 415.997 C 120.036 399.898 109.004 369.325 110.421 351.471 z" fill="rgb(178,133,110)" transform="translate(0,0)"></path>
<path d="M 496.695 441.278 C 496.335 444.293 496.429 444.714 495.48 447.643 C 492.012 453.909 498.06 457.848 502.507 462.123 C 472.833 492.214 452.635 502.069 412.473 515.369 C 405.659 517.625 389.814 520.467 385.087 524.418 L 369.552 509.038 C 425.947 497.604 456.599 481.26 496.695 441.278 z" fill="rgb(178,133,110)" transform="translate(0,0)"></path>
<path d="M 309.723 91.4328 C 375.788 87.9635 446.183 104.027 499.586 145.205 C 558.609 190.717 587.152 269.72 533.643 331.785 C 485.77 387.311 417.303 408.746 346.248 415.842 C 273.705 420.302 193.861 401.477 137.125 353.434 C 111.372 330.505 92.7569 298.149 90.8087 263.52 C 86.1542 180.79 159.347 126.048 231.371 104.981 C 258.806 96.9564 280.408 93.1701 309.723 91.4328 z" fill="rgb(252,250,238)" transform="translate(0,0)"></path>
<path d="M 319.699 110.472 C 380.984 108.95 442.354 125.648 490.575 164.298 C 540.063 203.964 557.539 272.443 513.155 323.046 C 467.507 375.091 400.153 390.224 334.265 394.913 C 270.046 395.086 200.524 382.231 151.388 337.652 C 87.9132 279.289 108.615 200.061 174.977 154.488 C 219.789 123.714 266.303 112.388 319.699 110.472 z" fill="rgb(5,1,1)" transform="translate(0,0)"></path>
<path d="M 139.947 314.54 C 161.319 229.946 270.643 172.042 351.99 204.229 C 366.467 209.957 379.499 216.513 393.03 224.112 C 411.982 234.757 431.878 247.398 441.116 268 C 450.685 289.348 442.602 307.233 435.15 327.363 C 437.437 324.376 439.571 321.275 441.544 318.071 C 470.305 271.325 432.859 239.046 395.8 216.895 C 408.352 216.802 420.869 218.245 433.071 221.192 C 460.91 227.85 493.768 245.404 506.148 272.849 C 509.906 281.179 511.763 293.934 516.698 301.12 L 518.544 303.901 C 509.231 321.504 482.759 343.712 465.509 353.461 C 400.859 389.996 316.193 396.203 244.997 378.019 C 210.354 369.171 158.319 345.944 139.947 314.54 z" fill="rgb(238,228,192)" transform="translate(0,0)"></path>
<path d="M 286.123 213.163 C 288.554 212.94 288.42 212.848 290.688 213.681 C 288.311 215.634 277.052 219.421 273.35 220.804 C 258.967 226.175 247.965 232.17 236.399 242.426 C 212.746 263.401 203.241 296.925 175.735 313.891 C 172.734 314.834 173.923 315.101 171.667 314.246 C 215.47 270.882 217.61 228.915 286.123 213.163 z" fill="rgb(5,1,1)" transform="translate(0,0)"></path>
<path d="M 137.187 312.474 C 96.6391 255.599 130.101 192.357 181.691 157.057 C 237.573 118.821 311.227 110.464 376.991 121.074 C 421.582 129.06 484.585 156.218 510.35 194.421 C 526.03 217.671 536.493 242.864 531.453 271.182 C 529.406 282.849 525.015 293.98 518.544 303.901 L 516.698 301.12 C 519.299 234.163 437.502 206.444 388.667 210.936 C 379.142 211.813 349.007 192.493 337.341 192.092 C 262.157 170.17 150.157 233.31 137.187 312.474 z" fill="rgb(252,250,238)" transform="translate(0,0)"></path>
<path d="M 538.503 336.84 C 538.908 339.954 537.437 343.513 536.442 346.6 C 516.489 408.483 494.26 449.72 433.857 480.602 C 378.215 509.05 309.329 512.479 250.08 493.944 C 196.235 477.099 161.652 447.983 136.055 397.473 C 125.868 376.235 119.649 359.856 113.53 337.159 C 119.533 345.905 126.615 353.86 134.607 360.835 C 187.914 407.932 278.261 428.385 347.927 422.787 C 419.079 417.07 490.731 391.439 538.503 336.84 z" fill="rgb(252,250,238)" transform="translate(0,0)"></path>
<path d="M 177.025 397.442 C 181.622 399.812 189.621 423.125 195.506 428.902 C 199.017 432.348 203.441 439.075 207.961 443.293 C 214.18 449.096 222.486 455.613 227.698 461.884 C 206.584 456.573 177.096 419.056 177.025 397.442 z" fill="rgb(5,1,1)" transform="translate(0,0)"></path>
<path d="M 94.4322 0 L 641.459 0 C 653.427 11.6444 667.408 23.0597 680.179 34.0108 C 700.674 51.6975 721.272 69.2643 741.972 86.7102 C 780.666 119.324 818.987 153.457 857.642 186.364 C 878.094 203.774 914.161 232.962 932.044 251.385 C 921.378 258.945 906.17 268.113 894.727 274.534 C 877.038 260.28 859.169 246.25 841.125 232.448 C 833.049 226.313 820.824 216.465 812.196 212.194 C 830.279 232.041 867.564 261.415 889.135 278.349 L 872.051 288.31 C 859.775 277.822 745.812 181.182 738.472 179.728 C 741.303 186.768 852.32 278.585 866.877 291.547 C 850.123 303.585 826.993 316.857 808.916 328.05 C 775.25 349.319 741.328 370.18 707.158 390.63 C 691.088 400.34 675.18 411.728 659.197 421.291 C 620.808 444.26 582.547 467.809 544.039 490.552 C 537.857 484.865 500.233 450.575 495.48 447.643 C 496.429 444.714 496.335 444.293 496.695 441.278 C 506.457 429.836 514.832 417.28 521.647 403.871 C 539.122 369.794 543.243 333.126 561.276 299.137 C 571.971 278.977 570.948 241.756 563.123 220.295 C 521.409 105.887 379.806 70.8263 270.502 88.3503 C 250.24 91.6051 230.59 97.8617 211.938 104.17 C 194.379 91.3746 172.628 70.4261 156.25 55.4652 L 94.4322 0 z" fill="rgb(195,153,129)" transform="translate(0,0)"></path>
<path d="M 560.838 369.907 L 561.53 370.832 C 561.021 375.355 545.959 401.032 543.957 408.77 C 541.476 415.924 540.426 424.156 538.659 431.287 C 536.515 439.938 537.237 461.634 532.626 468.197 C 531.91 467.402 531.643 466.552 531.15 465.522 C 531.939 425.64 541.612 402.934 560.838 369.907 z" fill="rgb(178,133,110)" transform="translate(0,0)"></path>
<path d="M 649.333 0 L 1220.93 0 C 1240.54 13.3601 1260.56 27.7887 1279.95 41.5515 C 1262.99 50.5243 1245.86 60.3901 1229.64 70.6113 C 1133.51 131.195 1034.42 188.008 938.965 249.63 C 927.861 237.38 908.164 221.231 895.339 210.183 C 874.136 191.566 852.699 173.218 831.032 155.144 C 802.142 131.091 774.39 105.96 745.872 81.4805 C 714.416 54.4787 679.91 27.6919 649.333 0 z" fill="rgb(195,153,129)" transform="translate(0,0)"></path>
<path d="M 0 581.519 C 11.3492 592.084 23.7268 602.482 35.6626 612.423 C 78.6522 648.228 119.236 687.164 162.329 722.796 L 0 821.115 L 0 581.519 z" fill="rgb(195,153,129)" transform="translate(0,0)"></path>
<path d="M 0 827.671 C 53.2594 794.952 110.603 762.78 162.884 728.768 C 163.057 747.759 163.027 766.751 162.794 785.741 C 108.721 818.472 54.4551 850.884 1.81899e-12 882.976 L 0 827.671 z" fill="rgb(195,153,129)" transform="translate(0,0)"></path>
<path d="M 1360.65 0 L 1448.96 0 C 1437.23 9.32461 1418.26 18.503 1405.17 26.9438 C 1369.33 50.0476 1328.35 71.756 1293.23 95.3416 C 1293.11 83.7298 1292.32 51.6394 1290.01 41.2424 C 1312.92 27.1717 1337.31 14.1461 1360.65 0 z" fill="rgb(195,153,129)" transform="translate(0,0)"></path>
<path d="M 1232.99 0 L 1349.23 0 C 1328.62 11.7981 1306.67 25.5392 1286 36.575 C 1274.08 29.9126 1244.55 8.50681 1232.99 0 z" fill="rgb(195,153,129)" transform="translate(0,0)"></path>
<path d="M 933.087 259.126 C 934.568 260.575 934.834 308.202 935.197 314.331 C 921.187 323.489 904.453 333.008 890.014 341.902 C 855.253 363.722 820.248 385.151 785.006 406.186 L 549.564 550.004 L 548.178 549.482 C 547.409 534.475 548.954 511.402 549.063 495.132 C 572.676 482.412 601.324 462.993 625.081 448.839 C 728.332 387.327 829.273 319.354 933.087 259.126 z" fill="rgb(195,153,129)" transform="translate(0,0)"></path>
<path d="M 540.813 499.956 C 543.076 503.794 542.089 546.959 542.064 554.607 C 502.545 576.564 461.184 604.182 421.991 627.781 C 337.688 678.543 254.176 732.045 169.202 781.659 C 167.502 774.073 171.516 741.09 169.257 725.939 C 206.495 704.562 246.538 678.843 283.181 656.308 C 368.553 603.363 454.435 551.243 540.813 499.956 z" fill="rgb(195,153,129)" transform="translate(0,0)"></path>
<path d="M 1282.09 46.0695 C 1285.93 50.3163 1286.84 90.0544 1287.11 98.2721 C 1272.68 108.295 1255.6 117.888 1240.42 127.107 L 1160.18 176.028 L 944.433 308.423 L 942.241 308.806 C 939.987 304.823 940.328 263.278 940.109 255.002 C 950.523 249.316 964.478 240.008 974.673 233.6 C 993.819 221.555 1013.08 209.686 1032.44 197.997 L 1282.09 46.0695 z" fill="rgb(195,153,129)" transform="translate(0,0)"></path>
<path d="M 1723.26 300.638 C 1735.64 312.333 1752.81 335.895 1764.05 350.022 L 1840.76 445.606 L 1969.5 601.357 C 1993.9 630.478 2025.48 666.045 2048 695.639 L 2048 759.696 L 2048 764.326 L 2048 1058.65 L 2048 1070.12 L 2048 1125.69 C 1992.59 1061.17 1937.37 990.833 1883.9 924.563 L 1669.6 659.645 C 1632.15 613.3 1593.2 567.655 1556.47 520.753 C 1543.35 504.004 1518.42 475.212 1509.1 457.947 C 1513.69 440.552 1529.04 418.225 1540.55 404.572 C 1586.41 350.156 1651.14 307.034 1723.26 300.638 z" fill="rgb(237,210,174)" transform="translate(0,0)"></path>
<path d="M 2048 764.326 C 2036.48 752.462 2026.55 739.147 2016 726.399 C 1998.96 706.116 1982.02 685.743 1965.19 665.282 C 1900.89 587.572 1837.78 508.888 1775.88 429.256 C 1760.27 409.617 1744.83 389.848 1729.55 369.949 C 1724.04 362.904 1706.26 341.475 1703.28 334.444 L 1704.07 334.522 C 1744.14 380.638 1777.94 423.626 1815.92 471.23 L 1920.83 602.417 C 1932.76 617.453 1945.7 632.074 1957.91 646.931 C 1988.57 684.008 2018.61 721.602 2048 759.696 L 2048 764.326 z" fill="rgb(5,1,1)" transform="translate(0,0)"></path>
<path d="M 1993.53 996.172 C 2009.64 1012.49 2033.25 1040.74 2048 1058.65 L 2048 1070.12 C 2032.62 1049.16 2002.99 1018.57 1993.53 996.172 z" fill="rgb(5,1,1)" transform="translate(0,0)"></path>
<path d="M 1541.66 437.736 C 1548.93 439.866 1604.05 508.232 1612.17 518.071 C 1658.67 574.842 1704.64 632.042 1750.08 689.662 C 1766.08 709.626 1782.9 729.008 1798.98 748.89 C 1823.02 778.826 1846.81 808.962 1870.35 839.294 C 1884.16 856.872 1898.84 874.137 1912.31 891.95 C 1914.82 895.279 1915.37 897.175 1915.31 901.188 C 1914.68 901.132 1914.03 901.13 1913.41 901.02 C 1909.39 900.317 1849.68 822.676 1842.82 814.089 L 1639.05 560.022 L 1574.45 479.599 C 1565.8 468.805 1548.28 448.242 1541.66 437.736 z" fill="rgb(5,1,1)" transform="translate(0,0)"></path>
<path d="M 1950.73 943.983 C 1957.67 946.43 1965.85 958.462 1968.12 965.399 C 1961.68 963.748 1950.05 950.168 1950.73 943.983 z" fill="rgb(5,1,1)" transform="translate(0,0)"></path>
<path d="M 108.329 1419.11 C 83.5374 1403.88 68.6368 1373.08 63.1183 1345.18 C 57.0053 1314.27 59.3935 1281.04 63.7346 1249.94 C 64.758 1242.6 65.8723 1231.12 69.1646 1224.75 L 70.1793 1224.74 C 74.4947 1234.18 76.8747 1245.29 81.5324 1254.18 C 106.85 1302.48 148.05 1360.83 113.131 1415.8 C 128.362 1445.83 156.905 1495.6 180.004 1520.46 L 181.054 1519.81 C 181.077 1513.03 175.059 1491.45 172.668 1484.3 C 160.035 1446.48 174.142 1413.65 186.637 1378.17 C 188.863 1371.85 198.352 1341.61 202.403 1338.05 C 204.606 1339.63 204.715 1341.34 205.003 1344.04 C 211.314 1403.17 233.65 1458.08 193.296 1511.55 C 190.985 1514.62 182.597 1519.79 182.65 1523.32 C 211.484 1562.68 295.239 1644.08 326.402 1670.54 C 303.005 1613.81 303.271 1582.54 327.682 1525.08 C 331.84 1515.29 336.211 1504.8 342.444 1495.98 C 344.462 1515.39 345.972 1533.63 349.784 1552.98 C 360.207 1605.9 362.469 1628.56 337.781 1678.01 C 354.442 1696.56 412.991 1743.46 434.752 1756.33 L 442.173 1760.01 C 462.907 1775.39 488.401 1790.96 510.143 1805.27 C 518.374 1810.69 534.744 1821.68 542.687 1825.92 C 519.212 1801.76 497.641 1764.34 488.704 1732.03 C 484.241 1715.89 480.982 1695.42 477.62 1678.62 C 475.251 1666.78 470.395 1646.43 470.016 1635.11 C 494.473 1670.05 526.995 1698.57 545.486 1737.55 C 556.098 1759.92 561.831 1784.36 558.151 1809.11 C 557.39 1814.23 555.814 1820.18 551.388 1823.3 L 547.808 1825.17 L 547.768 1827.02 C 560.031 1836.17 653.417 1881.77 666.733 1884.88 L 669.05 1884.4 C 672.139 1887.87 672.461 1888.13 677.155 1889.38 C 698.519 1898.5 751.808 1918 773.992 1921.99 L 774.866 1920.39 C 740.387 1895.56 713.653 1836.63 698.608 1797.15 C 696.356 1791.24 690.939 1779.05 691.32 1773.25 L 692.619 1772.35 C 692.967 1772.54 693.315 1772.73 693.663 1772.91 C 726.628 1819.61 795.804 1843.98 801.783 1907.31 C 802.685 1916.86 799.189 1923.66 796.02 1929.16 C 812.674 1932.69 829.452 1937.12 846.218 1940.69 C 886.268 1949.47 926.825 1955.74 967.655 1959.49 C 997.311 1961.84 1027.04 1963.22 1056.78 1963.63 C 1067.77 1963.77 1115.16 1961.46 1121.13 1963.2 L 1121.74 1965 L 1120.58 1966.2 C 1113.22 1968.95 1086.4 1969.91 1077.47 1970.12 C 975.854 1972.49 889.754 1959.93 791.888 1934.85 C 790.476 1946.36 786.89 1955.19 779.94 1964.42 C 766.295 1982.46 742.823 1993.46 720.512 1995.93 C 674.215 2001.05 627.265 1988.43 581.094 1986.4 C 579.794 1986.34 578.542 1985.51 577.549 1984.76 L 577.631 1983.05 C 587.509 1976.96 607.507 1973.28 618.941 1969.23 C 674.353 1949.59 724.138 1939.15 782.42 1932 C 777.426 1930.3 771.101 1929.04 765.888 1927.67 C 733.917 1919.3 703.004 1905.34 671.302 1896.46 L 671.17 1898.16 C 671.516 1901.64 670.907 1906.32 668.507 1909.07 C 618.125 1966.74 537.804 1940.33 473.247 1930.62 C 464.293 1929.28 446.051 1925.78 442.747 1923.61 L 442.478 1921.87 C 447.673 1916.89 546.518 1898.6 561.73 1895.16 C 585.23 1889.83 625.759 1887.74 650.256 1886.98 C 621.511 1874.24 586.445 1857.94 559.597 1841.34 C 540.929 1874.93 500.502 1883.58 465 1881.2 C 453.724 1880.38 442.497 1878.99 431.364 1877.02 C 418.15 1874.71 330.328 1856.2 326.172 1851.44 C 330.191 1848.37 352.394 1844.55 359.051 1843.53 C 414.827 1835 477.276 1819.01 533.799 1826.56 C 498.999 1808.02 470.801 1786.08 438.464 1767.78 C 438.59 1771.98 438.947 1776.42 439.209 1780.64 C 434.483 1786.54 428.938 1790.88 422.288 1794.37 C 370.24 1822.91 316.402 1803.95 264.353 1786.85 C 247.108 1781.19 228.467 1776.05 210.859 1771.4 C 208.084 1770.67 206.875 1769.72 205.627 1767.31 C 210.011 1764.26 240.006 1762.06 246.789 1761.37 C 289.442 1757.02 332.413 1748.61 375.274 1754.99 C 396.294 1758.12 415.387 1764.57 435.567 1770.66 L 436.346 1769.03 C 436.055 1767.83 435.487 1765.09 434.565 1764.39 C 427.645 1759.17 418.428 1753.45 411.343 1748.67 C 404.202 1743.84 397.245 1738.73 390.488 1733.37 C 369.795 1717.22 349.862 1701.05 330.857 1683 C 322.795 1676.37 314.808 1669.6 306.743 1662.98 C 289.117 1648.51 273.467 1633.02 257.828 1616.41 C 212.113 1651.83 176.782 1633.62 132.49 1606.25 C 110.351 1592.56 88.2506 1578.38 66.1051 1564.67 C 61.2749 1561.68 57.1046 1559.76 52.6627 1555.89 L 52.6973 1554.54 C 59.4201 1551.68 76.9768 1555.06 84.554 1556.2 C 142.662 1564.95 194.769 1579.24 247.434 1605.12 C 224.806 1582.18 197.449 1555.46 177.777 1530.13 C 160.546 1541.84 140.024 1549.42 120.871 1538.42 C 78.4506 1514.04 38.3654 1475.55 0 1445.72 L 0 1436.79 C 47.8686 1454.78 101.938 1472.32 144.788 1500.48 C 153.064 1505.92 168.439 1521.08 176.422 1528.67 C 166.083 1511.34 149.337 1491.64 137.61 1473.86 C 123.579 1452.59 119.264 1440.22 108.329 1419.11 z" fill="rgb(5,1,1)" transform="translate(0,0)"></path>
<path d="M 455.239 1921.99 C 461.139 1921.37 466.443 1920.19 472.232 1919.04 C 526.732 1908.2 581.22 1893.37 637.037 1891.95 C 642.631 1891.8 655.24 1891.26 660.021 1893.91 L 660.022 1895.62 C 649.747 1906.88 620.942 1910.57 606.062 1914.19 C 600.268 1915.6 593.657 1915.01 587.868 1918.66 L 588.827 1919.29 C 606.991 1915.22 627.136 1914.65 645.176 1908.63 C 651.79 1906.42 663.668 1896.26 671.302 1896.46 L 671.17 1898.16 C 667.045 1899.89 666.581 1904.74 663.009 1908.35 C 622.219 1949.62 570.697 1941.58 519.348 1933.63 C 497.876 1930.33 476.499 1926.45 455.239 1921.99 z" fill="rgb(238,228,192)" transform="translate(0,0)"></path>
<path d="M 476.839 1652.27 C 499.252 1683.38 527.179 1706.45 542.816 1743.9 C 553.273 1768.94 559.895 1796.64 549.856 1822.78 L 551.388 1823.3 L 547.808 1825.17 L 546.495 1823.83 C 531.014 1815.92 499.031 1750.97 494.593 1733.21 C 488.185 1707.57 482.242 1678.33 476.839 1652.27 z" fill="rgb(238,228,192)" transform="translate(0,0)"></path>
<path d="M 546.495 1823.83 C 543.257 1807.47 519.654 1756.6 519.336 1746.36 C 530.414 1763.31 540.983 1802.42 547.775 1822.19 L 549.856 1822.78 L 551.388 1823.3 L 547.808 1825.17 L 546.495 1823.83 z" fill="rgb(38,38,31)" transform="translate(0,0)"></path>
<path d="M 700.451 1788.97 C 729.247 1818.44 767.517 1841.97 787.792 1877.71 C 796.219 1892.56 801.268 1912 792.739 1928.02 L 773.992 1921.99 L 774.866 1920.39 C 777.656 1921.33 779.285 1922.24 782.109 1921.54 C 777.232 1916.14 771.623 1912.69 764.739 1904.86 C 736.822 1873.11 714.399 1828.93 700.451 1788.97 z" fill="rgb(238,228,192)" transform="translate(0,0)"></path>
<path d="M 748.851 1857.84 C 756.713 1865.86 786.182 1907.29 790.296 1917.35 C 784.619 1914.54 751.502 1865.07 748.851 1857.84 z" fill="rgb(5,1,1)" transform="translate(0,0)"></path>
<path d="M 484.612 1830.41 C 503.16 1828.05 532.001 1828.88 549.209 1836.61 C 532.67 1846.28 510.107 1846.16 491.371 1846.94 C 485.598 1847.17 480.973 1846.25 475.016 1847.07 L 474.673 1848.16 C 484.299 1852.45 528.548 1848.15 540.219 1845.41 C 542.392 1844.9 548.892 1839.19 552.029 1837.7 L 553.295 1838.76 C 553.255 1841.64 552.03 1843.3 550.468 1845.77 C 539.69 1862.82 518.972 1869.78 500.4 1874.23 C 463.131 1880.1 426.326 1870.85 390.078 1863.02 C 374.334 1859.62 357.109 1856.27 341.669 1852.03 C 361.397 1847.52 380.631 1844.9 400.509 1841.49 C 429.221 1836.55 455.564 1832.48 484.612 1830.41 z" fill="rgb(238,228,192)" transform="translate(0,0)"></path>
<path d="M 323.266 1758.41 C 355.343 1754.54 407.774 1763.79 437.419 1777.23 C 417.743 1782.42 398.619 1782.48 378.488 1782.1 C 375.77 1782.05 365.739 1781.57 364.096 1782.96 C 364.707 1783.33 365.385 1783.8 366.068 1783.87 C 385.586 1786.08 415.289 1787.39 433.074 1779.29 L 434.268 1778.73 L 435.155 1779.49 C 431.629 1786.92 415.173 1792.38 407.251 1795.54 C 361.056 1813.63 319.83 1799.31 275.294 1785.02 L 223.137 1768.73 C 256.71 1765.49 289.492 1760.48 323.266 1758.41 z" fill="rgb(238,228,192)" transform="translate(0,0)"></path>
<path d="M 782.633 1937.43 C 785.179 1937.09 783.917 1937.02 786.419 1937.64 L 786.963 1939.86 C 783.435 1953.2 776.256 1963.48 765.682 1972.19 C 725.704 2005.14 655.361 1988.57 606.881 1983.74 L 592.014 1982.43 C 630.376 1971.43 668.725 1958.78 707.306 1949.03 C 731.736 1942.86 757.62 1940.25 782.633 1937.43 z" fill="rgb(238,228,192)" transform="translate(0,0)"></path>
<path d="M 779.377 1940.88 L 780.199 1941.39 C 779.871 1942.19 779.687 1942.76 779.103 1943.48 C 763.47 1962.62 736.188 1967.02 713.421 1969.12 L 712.769 1968.7 C 713.554 1967.84 738.23 1963.09 742.681 1961.84 C 758.402 1957.44 766.914 1950.61 779.377 1940.88 z" fill="rgb(5,1,1)" transform="translate(0,0)"></path>
<path d="M 70.2012 1239.69 C 74 1247.15 76.8241 1255.29 81.0011 1262.88 C 103.35 1303.5 142.588 1367.4 109.176 1412.81 C 110.938 1381.48 102.024 1353.59 88.1594 1325.6 C 86.0133 1321.52 85.0157 1320.2 82.2069 1316.47 C 86.3694 1328.73 116.76 1401.52 103.959 1408.71 C 98.3955 1407.4 91.8734 1398.24 88.5363 1393.57 C 59.0445 1352.24 61.3914 1287.96 70.2012 1239.69 z" fill="rgb(238,228,192)" transform="translate(0,0)"></path>
<path d="M 66.9847 1559.12 C 74.5277 1558.98 101.442 1563.81 109.355 1565.42 C 152.247 1574.15 194.775 1585.15 234.672 1603.47 C 239.95 1605.89 251.212 1610.14 254.141 1614.49 C 250.277 1619.63 187.638 1600.6 177.176 1602.13 L 179.282 1603.17 C 202.72 1611.05 224.705 1612.12 247.441 1618.31 C 196.204 1646.43 170.785 1622.55 125.059 1595.73 C 105.426 1584.21 86.5077 1570.71 66.9847 1559.12 z" fill="rgb(238,228,192)" transform="translate(0,0)"></path>
<path d="M 11.8251 1447.81 C 49.9612 1457.7 94.4507 1478.92 130.049 1496.34 C 137.751 1500.11 169.646 1524.11 169.382 1530.81 L 166.222 1532.99 C 160.294 1535.74 155.242 1537.6 148.629 1538.32 C 140.327 1539.18 131.945 1537.85 124.314 1534.47 C 99.9645 1523.81 36.1567 1467.73 11.8251 1447.81 z" fill="rgb(238,228,192)" transform="translate(0,0)"></path>
<path d="M 98.9531 1500.87 C 103.373 1501.63 132.794 1515.72 139.404 1518.49 C 148.387 1522.25 159.65 1526.19 168.889 1529.73 C 155.153 1531.02 110.954 1509.15 98.9531 1500.87 z" fill="rgb(38,38,31)" transform="translate(0,0)"></path>
<path d="M 338.502 1513.65 C 340.619 1520.62 342.631 1540.07 344.077 1548.44 C 346.936 1565.01 350.948 1583.05 352.049 1599.56 C 353.604 1622.88 349.052 1640.69 340.39 1661.96 C 338.624 1666.3 337.349 1673.38 334.555 1676.52 L 332.44 1674.55 C 329.624 1669.53 327.159 1664.32 325.063 1658.97 C 303.108 1602.59 316.086 1564.91 338.502 1513.65 z" fill="rgb(238,228,192)" transform="translate(0,0)"></path>
<path d="M 332.271 1661.89 C 331.314 1650.25 327.331 1607.97 330.363 1599.69 C 332.799 1618.31 333.271 1643.52 334.254 1662.59 L 332.271 1661.89 z" fill="rgb(5,1,1)" transform="translate(0,0)"></path>
<path d="M 332.271 1661.89 L 334.254 1662.59 C 334.996 1665.16 335.324 1668.11 334.243 1670.59 C 332.17 1667.76 332.71 1666.02 332.271 1661.89 z" fill="rgb(99,101,82)" transform="translate(0,0)"></path>
<path d="M 183.553 1507.43 C 180.599 1501.53 180.13 1494.57 178.119 1488.56 C 163.837 1445.83 181.56 1408.24 195.555 1368.46 C 197.353 1363.35 199.101 1357.9 201.295 1352.85 C 208.024 1409.56 227.2 1458.15 187.638 1510.98 C 187.12 1511.56 186.602 1512.14 186.084 1512.71 L 185.348 1512.22 L 185.26 1511.32 C 191.217 1494.25 191.983 1485.64 193.159 1468.11 C 192.587 1462.95 192.676 1455.44 192.242 1449.71 C 191.068 1465.93 189.668 1492.89 183.553 1507.43 z" fill="rgb(238,228,192)" transform="translate(0,0)"></path>
<path d="M 192.242 1449.71 C 192.034 1447.11 191.667 1447.29 192.665 1444.93 C 194.822 1448.76 194.198 1463.67 193.159 1468.11 C 192.587 1462.95 192.676 1455.44 192.242 1449.71 z" fill="rgb(99,101,82)" transform="translate(0,0)"></path>
<path d="M 1394.65 162.757 C 1387.58 138.997 1377.04 110.083 1410.16 101.336 C 1426.65 96.9799 1445.05 105.904 1458.75 114.721 C 1507.46 149.234 1543.06 212.5 1574.18 262.142 C 1581.88 274.435 1596.29 296.277 1600.94 307.906 C 1615.18 309.778 1622.41 310.228 1632.71 321.381 C 1666.22 304.977 1687.15 298.71 1723.93 293.08 C 1739.15 306.436 1756.74 330.366 1769.91 346.669 L 1841.31 434.654 C 1909.33 518.368 1979.62 600.579 2048 683.857 L 2048 695.639 C 2025.48 666.045 1993.9 630.478 1969.5 601.357 L 1840.76 445.606 L 1764.05 350.022 C 1752.81 335.895 1735.64 312.333 1723.26 300.638 C 1651.14 307.034 1586.41 350.156 1540.55 404.572 C 1529.04 418.225 1513.69 440.552 1509.1 457.947 C 1518.42 475.212 1543.35 504.004 1556.47 520.753 C 1593.2 567.655 1632.15 613.3 1669.6 659.645 L 1883.9 924.563 C 1937.37 990.833 1992.59 1061.17 2048 1125.69 L 2048 1136.1 C 2020.45 1106.02 1988.85 1065.32 1963.05 1033.39 L 1865.17 913.288 L 1612.47 601.644 C 1593.05 577.452 1573.76 553.156 1554.6 528.758 C 1545.18 516.789 1533.73 501.421 1523.7 490.246 C 1518.95 484.211 1507.78 470.484 1504.59 463.816 C 1496.7 447.285 1524.98 413.592 1534.89 400.814 C 1538.44 396.24 1547.18 388.464 1549 383.489 L 1547.57 381.254 C 1544.54 379.356 1536.73 368.362 1534.03 365.023 C 1490.73 311.472 1434.01 266.019 1404.54 202.575 C 1399.73 192.219 1393.66 174.251 1394.65 162.757 z" fill="rgb(5,1,1)" transform="translate(0,0)"></path>
<path d="M 1394.65 162.757 C 1396.98 167.648 1399.47 172.502 1401.75 177.403 C 1433.9 246.399 1495.66 291.344 1547.78 344.097 C 1542.23 359.156 1541.86 365.985 1547.57 381.254 C 1544.54 379.356 1536.73 368.362 1534.03 365.023 C 1490.73 311.472 1434.01 266.019 1404.54 202.575 C 1399.73 192.219 1393.66 174.251 1394.65 162.757 z" fill="rgb(195,153,129)" transform="translate(0,0)"></path>
<path d="M 1412.77 107.119 C 1473.04 103.917 1534.2 211.291 1562.23 255.459 C 1571.75 270.449 1587.25 293.798 1594.79 309.286 C 1581.56 314.624 1576.25 317.817 1564.51 326.057 C 1559.79 329.938 1556.18 334.126 1552.05 338.611 C 1539.83 325.145 1522.94 311.966 1509.18 298.755 C 1470.04 261.162 1423.99 216.091 1402.91 165.334 C 1398.43 154.551 1390.71 129.327 1396.07 118.449 C 1399.62 111.242 1405.82 109.383 1412.77 107.119 z" fill="rgb(237,210,174)" transform="translate(0,0)"></path>
<path d="M 1438.07 188.496 C 1441.51 191.302 1451.64 206.945 1454.99 211.579 C 1471.97 235.072 1490.75 255.138 1512.1 274.674 C 1520.47 282.334 1535.88 295.515 1541.89 304.346 C 1536.02 303.011 1524.71 292.462 1519.99 288.059 C 1493.88 263.753 1449.81 222.14 1438.07 188.496 z" fill="rgb(5,1,1)" transform="translate(0,0)"></path>
<path d="M 1419.16 111.005 C 1440.62 110.191 1492.24 168.044 1499 187.915 C 1497.9 187.655 1496.4 187.17 1495.72 186.233 C 1484.2 170.424 1472.31 155.363 1458.99 140.996 C 1447.12 128.191 1433.36 120.445 1419.16 111.005 z" fill="rgb(5,1,1)" transform="translate(0,0)"></path>
<path d="M 1598.85 315.186 C 1605.49 314.613 1623.16 316.153 1624.83 324.124 C 1622.96 327.17 1617.02 329.988 1613.8 332.032 C 1596.74 342.824 1581.36 354.816 1566.41 368.344 C 1562.3 372.22 1558.58 376.292 1554.72 380.408 C 1545.04 358.786 1551.62 345.247 1569.24 330.376 C 1578.16 322.846 1587.75 318.562 1598.85 315.186 z" fill="rgb(178,133,110)" transform="translate(0,0)"></path>
<path d="M 1523.7 490.246 C 1533.73 501.421 1545.18 516.789 1554.6 528.758 C 1573.76 553.156 1593.05 577.452 1612.47 601.644 L 1865.17 913.288 L 1963.05 1033.39 C 1988.85 1065.32 2020.45 1106.02 2048 1136.1 L 2048 1167.18 C 2033.36 1150.02 2019.8 1131.37 2005.52 1113.84 L 1907.35 993.292 C 1887.7 969.078 1865.73 946.982 1846.32 923.365 C 1822.1 893.367 1798.18 863.129 1774.56 832.654 L 1697.29 736.283 L 1574.53 583.758 C 1557.12 562.114 1523.83 530.084 1516.31 504.264 C 1519.04 497.325 1519.43 496.324 1523.7 490.246 z" fill="rgb(195,153,129)" transform="translate(0,0)"></path>
<path d="M 659.28 1872.24 C 628.327 1834.94 615.781 1813.4 600.752 1766.23 C 595.904 1751.01 591.097 1740.03 587.563 1723.42 C 596.918 1735.62 607.506 1745.4 618.693 1755.84 C 652.088 1787.02 685.331 1830.23 677.485 1879.2 C 677.123 1881.48 676.591 1883.72 675.895 1885.91 L 674.769 1887.14 L 676.999 1887.87 L 677.155 1889.38 C 672.461 1888.13 672.139 1887.87 669.05 1884.4 C 666.862 1881.26 661.853 1875.41 659.28 1872.24 z" fill="rgb(238,228,192)" transform="translate(0,0)"></path>
<path d="M 629.437 1791.37 C 641.278 1807.76 653.652 1834.58 662.921 1852.88 C 667.043 1861.02 670.812 1879.38 675.895 1885.91 L 674.769 1887.14 C 668.812 1882.86 667.109 1867.18 663.158 1858.72 C 653.736 1838.54 636.431 1811.57 629.437 1791.37 z" fill="rgb(5,1,1)" transform="translate(0,0)"></path>
<path d="M 392.901 1579.87 C 416.082 1623.37 445.845 1655.12 445.907 1707.96 C 445.928 1725.7 445.865 1737.57 440.734 1755.08 C 440.334 1756.44 441.19 1757.77 441.893 1758.84 L 442.173 1760.01 L 434.752 1756.33 L 436.334 1755.48 C 437.457 1755.5 436.673 1755.55 438.601 1754.84 C 439.311 1751.52 437.739 1748.56 436.555 1745.21 L 435.15 1745.88 L 435.361 1748.78 C 428.6 1747.74 411.636 1711.89 409.676 1704.66 C 399.255 1666.25 392.186 1619.49 392.901 1579.87 z" fill="rgb(238,228,192)" transform="translate(0,0)"></path>
<path d="M 435.15 1745.88 C 432.901 1736.58 417.281 1680.39 418.524 1675.88 C 426.887 1697.57 431.202 1722.67 436.555 1745.21 L 435.15 1745.88 z" fill="rgb(38,38,31)" transform="translate(0,0)"></path>
<path d="M 436.334 1755.48 C 394.973 1718.63 391.227 1638.34 387.357 1586.31 C 386.964 1581.03 385.917 1568.94 387.896 1564.42 L 389.618 1563.86 C 393.497 1570.45 396.741 1579.15 400.69 1585.05 C 424.411 1620.44 447.125 1654.13 450.076 1698.2 C 451.238 1715.54 452.574 1743.65 441.893 1758.84 C 441.19 1757.77 440.334 1756.44 440.734 1755.08 C 445.865 1737.57 445.928 1725.7 445.907 1707.96 C 445.845 1655.12 416.082 1623.37 392.901 1579.87 C 392.186 1619.49 399.255 1666.25 409.676 1704.66 C 411.636 1711.89 428.6 1747.74 435.361 1748.78 L 435.15 1745.88 L 436.555 1745.21 C 437.739 1748.56 439.311 1751.52 438.601 1754.84 C 436.673 1755.55 437.457 1755.5 436.334 1755.48 z" fill="rgb(5,1,1)" transform="translate(0,0)"></path>
<path d="M 655.65 1873.17 C 620.246 1837.1 604.71 1798.1 590.892 1750.61 C 588.65 1742.9 579.664 1718.96 581.29 1712.33 C 582.964 1712.21 584.012 1712.33 585.271 1713.86 C 622.657 1759.12 679.755 1792.69 682.058 1858.01 C 682.472 1869.76 683.242 1878.11 676.999 1887.87 L 674.769 1887.14 L 675.895 1885.91 C 676.591 1883.72 677.123 1881.48 677.485 1879.2 C 685.331 1830.23 652.088 1787.02 618.693 1755.84 C 607.506 1745.4 596.918 1735.62 587.563 1723.42 C 591.097 1740.03 595.904 1751.01 600.752 1766.23 C 615.781 1813.4 628.327 1834.94 659.28 1872.24 L 655.65 1873.17 z" fill="rgb(5,1,1)" transform="translate(0,0)"></path>
<path d="M 655.65 1873.17 L 659.28 1872.24 C 661.853 1875.41 666.862 1881.26 669.05 1884.4 L 666.733 1884.88 C 664.485 1881.61 658.677 1876.18 655.65 1873.17 z" fill="rgb(5,1,1)" transform="translate(0,0)"></path>
<path d="M 1491.81 1565.4 C 1472.59 1575.64 1438.76 1599.69 1419.18 1612.28 L 1149.07 1783.46 L 1082 1825.56 C 1053.15 1843.81 1009.51 1874.04 975.88 1875.92 C 947.468 1877.52 898.658 1827.98 878.329 1809.26 L 796.895 1733.87 C 704.623 1649.97 613.046 1565.31 522.174 1479.9 C 432.216 1393.42 343.355 1305.81 255.614 1217.08 L 192.946 1154.34 C 169.421 1131.02 145.879 1108.55 126.505 1081.53 C 117.493 1068.96 111.585 1056.35 111.419 1040.77 C 111.197 1020.04 120.672 1001 135.332 986.707 C 164.692 958.09 202.935 933.032 236.66 909.766 L 367.24 819.739 C 516.606 715.211 667.734 613.224 820.558 513.82 C 867.834 482.914 915.31 452.316 962.983 422.026 C 989.275 405.156 1015.35 385.129 1043.63 372.044 C 1058.83 364.805 1084.37 365.7 1098.2 376.246 C 1115.48 389.426 1132.81 409.775 1148.03 425.79 C 1171.45 450.313 1195.14 474.578 1219.1 498.582 C 1247.12 488.739 1273.68 475.067 1301.77 465.51 C 1325.12 457.565 1349.2 453.137 1372.15 464.646 C 1408.28 482.764 1456.84 555.019 1484.63 587.68 L 1575.87 697.045 C 1640.62 773.956 1704.45 849.742 1763.42 931.344 C 1821.57 1012.03 1873.14 1097.27 1917.62 1186.22 C 1930.12 1211.51 1954.46 1259.41 1963.2 1285.13 C 1950.49 1296.8 1930.47 1309.44 1915.7 1319.03 C 1888.72 1336.5 1861.41 1353.48 1833.8 1369.94 C 1834.68 1408.74 1834.24 1456.24 1805.49 1485.08 C 1777.13 1513.52 1698.1 1522.6 1660.07 1529.54 C 1626.84 1535.91 1593.66 1542.55 1560.54 1549.46 C 1541.69 1553.31 1523.05 1557.1 1504.57 1562.47 C 1500.62 1563.61 1495.84 1565.13 1491.81 1565.4 z" fill="rgb(5,1,1)" transform="translate(0,0)"></path>
<path d="M 1821.73 1376.55 C 1825.62 1374.31 1829.84 1372.1 1833.8 1369.94 C 1834.68 1408.74 1834.24 1456.24 1805.49 1485.08 C 1777.13 1513.52 1698.1 1522.6 1660.07 1529.54 C 1626.84 1535.91 1593.66 1542.55 1560.54 1549.46 C 1541.69 1553.31 1523.05 1557.1 1504.57 1562.47 C 1500.62 1563.61 1495.84 1565.13 1491.81 1565.4 C 1496.25 1561.43 1513.33 1548.84 1518.84 1547.32 C 1567.08 1534.01 1618.57 1524.13 1667.26 1512.95 C 1712.11 1502.65 1767.12 1497.84 1801.31 1465.34 C 1824.47 1443.33 1822.2 1405.95 1821.73 1376.55 z" fill="rgb(237,210,174)" transform="translate(0,0)"></path>
<path d="M 1306.69 641.378 C 1308.36 641.047 1315.74 640.721 1317.86 640.581 C 1353.29 667.251 1398.49 708.86 1430.3 739.346 C 1492.27 798.125 1550.34 860.888 1604.12 927.235 C 1660.33 995.769 1709.4 1062.38 1750.03 1141.74 C 1772.69 1186.59 1790.05 1233.92 1801.79 1282.78 C 1811.71 1323.35 1815.76 1365.14 1813.82 1406.87 C 1813.16 1422.14 1814.33 1434.24 1805.72 1447.63 C 1794.07 1465.77 1776.15 1476.55 1756.01 1483.23 C 1714.45 1497.01 1668.84 1503.53 1626.46 1513.57 C 1572.34 1526.39 1518.17 1538.72 1464.09 1551.41 L 1045.17 1651.69 C 1002.93 1661.69 959.996 1672.69 917.785 1682.07 L 886.331 1688.32 C 904.57 1612.54 845.927 1497.27 808.188 1432.51 C 761.377 1353.55 714.064 1274.9 666.252 1196.55 C 636.231 1145.53 605.171 1095.14 573.093 1045.39 C 544.082 1000.03 466.688 876.271 415.207 862.708 C 444.795 847.402 505.504 827.394 538.025 816.47 C 675.597 770.262 819.272 739.284 961.009 708.339 C 1048.87 688.406 1137.21 670.669 1225.95 655.145 C 1251.85 650.66 1281.05 644.709 1306.69 641.378 z" fill="rgb(252,250,238)" transform="translate(0,0)"></path>
<path d="M 1156.36 813.462 C 1240.48 811.136 1310.8 854.803 1364.62 915.805 C 1418.59 976.989 1447.47 1045.41 1441.62 1127.72 C 1438.11 1177.11 1422.4 1228.39 1382.95 1260.98 C 1327.34 1307.38 1259.37 1339.12 1187.13 1348.35 C 1167.23 1350.89 1147.63 1349.92 1128.04 1348.6 C 995.322 1334.74 847.432 1276.06 839.135 1121 C 835.09 1045.42 865.171 977.512 915.463 922.458 C 979.058 852.84 1062.85 817.5 1156.36 813.462 z" fill="rgb(5,1,1)" transform="translate(0,0)"></path>
<path d="M 917.701 931.007 C 973.743 866.132 1052.1 829.991 1136.67 821.348 C 1261.83 808.554 1368.09 902.407 1416.49 1010.32 C 1420.01 1018.15 1426.61 1037.43 1426.95 1045.92 C 1443.51 1104.75 1434.16 1198.65 1389.81 1243.63 C 1337.33 1296.87 1239.45 1342.93 1164.03 1342.99 C 1068.15 1343.06 939.2 1307.25 881.339 1226.18 C 818.974 1138.8 846.309 1005.32 917.701 931.007 z" fill="rgb(238,228,192)" transform="translate(0,0)"></path>
<path d="M 1426.95 1045.92 C 1443.51 1104.75 1434.16 1198.65 1389.81 1243.63 C 1337.33 1296.87 1239.45 1342.93 1164.03 1342.99 C 1068.15 1343.06 939.2 1307.25 881.339 1226.18 C 818.974 1138.8 846.309 1005.32 917.701 931.007 C 917.699 931.502 917.698 931.996 917.697 932.49 C 862.531 1016.39 831.74 1126.01 897.772 1213.6 C 918.04 1240.49 1004.85 1306.73 1039.65 1303.17 L 1040.97 1301.63 C 1049.85 1303.39 1054.22 1303.98 1063.29 1304.46 C 1062.07 1304.84 1061.39 1305.09 1060.03 1305.21 C 1015.97 1308.89 977.425 1281.38 942.881 1257.63 C 940.892 1256.26 941.261 1255.81 938.695 1255.34 L 938.111 1257.79 C 931.426 1261.91 928.269 1266.61 921.868 1262.53 L 921.393 1263.17 C 972.801 1315.97 1100.76 1343.82 1172.27 1340.55 C 1226.46 1338.08 1299.21 1310.86 1342.36 1279.21 L 1342.48 1277.8 C 1339.67 1275.07 1331.78 1272.43 1327.02 1269.75 L 1325.91 1269.12 C 1291.35 1295.36 1222.89 1319.05 1180.02 1323.34 C 1143.46 1327 1104.35 1320.73 1069.15 1311.04 C 1061.81 1309.02 1055.56 1311.58 1049.41 1306.5 L 1050.78 1305.66 L 1050.36 1305.56 C 1086.79 1314.49 1124.92 1323.93 1162.47 1322.97 C 1230.38 1321.24 1320.73 1283.17 1367.16 1233.24 C 1414.32 1182.54 1428.69 1113.08 1426.95 1045.92 z" fill="rgb(237,210,174)" transform="translate(0,0)"></path>
<path d="M 975.449 1234.4 C 994.36 1261.43 1003.21 1280.1 1035.99 1294.65 C 1042.12 1297.38 1059.51 1302.02 1063.29 1304.46 C 1054.22 1303.98 1049.85 1303.39 1040.97 1301.63 C 1010.28 1289.46 982.996 1268.29 975.449 1234.4 z" fill="rgb(5,1,1)" transform="translate(0,0)"></path>
<path d="M 927.989 1162.59 C 941.863 1163.79 944.285 1181.39 934.294 1190.01 C 920.4 1183.77 915.496 1173.83 927.989 1162.59 z" fill="rgb(5,1,1)" transform="translate(0,0)"></path>
<path d="M 930.175 1165.36 C 938.44 1169.65 938.828 1180.48 931.964 1186.37 C 923.521 1179.48 921.774 1173.34 930.175 1165.36 z" fill="rgb(252,250,238)" transform="translate(0,0)"></path>
<path d="M 891.936 1065.79 C 906.375 1068.09 905.188 1087.95 899.211 1096.67 C 883.942 1091.66 883.838 1077.68 891.936 1065.79 z" fill="rgb(5,1,1)" transform="translate(0,0)"></path>
<path d="M 892.923 1069.31 C 903.455 1071.63 899.397 1085.87 896.474 1092.52 C 886.875 1089.25 889.716 1076.31 892.923 1069.31 z" fill="rgb(252,250,238)" transform="translate(0,0)"></path>
<path d="M 1219.16 1034.84 C 1233.85 1034.94 1234.79 1047.88 1226.91 1057.14 C 1212.23 1059.76 1212.5 1043.82 1219.16 1034.84 z" fill="rgb(5,1,1)" transform="translate(0,0)"></path>
<path d="M 1221.84 1037.45 C 1231.04 1041.03 1229.54 1046.84 1225.36 1054.05 C 1223.66 1053.84 1223.59 1053.67 1221.96 1053.05 C 1217.57 1047.63 1218.53 1043.01 1221.84 1037.45 z" fill="rgb(252,250,238)" transform="translate(0,0)"></path>
<path d="M 1120.52 1205.85 C 1132.52 1205.41 1142.19 1214.04 1130.69 1223.98 C 1119.01 1224.37 1111.2 1216.51 1120.52 1205.85 z" fill="rgb(5,1,1)" transform="translate(0,0)"></path>
<path d="M 1123.04 1209.83 C 1125.35 1207.8 1128.86 1207.98 1130.94 1210.25 C 1133.03 1212.51 1132.92 1216.02 1130.7 1218.16 C 1129.22 1219.58 1127.09 1220.09 1125.13 1219.49 C 1123.17 1218.89 1121.69 1217.28 1121.25 1215.28 C 1120.82 1213.27 1121.5 1211.19 1123.04 1209.83 z" fill="rgb(252,250,238)" transform="translate(0,0)"></path>
<path d="M 1047.8 887.915 C 1061.87 890.133 1061.25 899.382 1050.86 906.992 C 1035.85 907.191 1036.65 893.911 1047.8 887.915 z" fill="rgb(5,1,1)" transform="translate(0,0)"></path>
<path d="M 1045.92 892.777 C 1050.74 892.697 1051.64 892.72 1054.76 895.537 C 1055.08 899.544 1055.06 898.199 1052.96 902.277 C 1048.65 903.116 1047.31 904.001 1044.28 900.634 C 1043.9 897.131 1044.65 896.031 1045.92 892.777 z" fill="rgb(252,250,238)" transform="translate(0,0)"></path>
<path d="M 1345.27 1189.02 C 1348.15 1188.67 1348.67 1188.75 1351.6 1188.97 C 1358.62 1194.54 1351.51 1203.17 1346.96 1207.94 C 1335.53 1207.84 1338.06 1195.17 1345.27 1189.02 z" fill="rgb(5,1,1)" transform="translate(0,0)"></path>
<path d="M 1346.2 1191.24 L 1349.86 1192.35 L 1350.8 1194.37 C 1350.56 1198.11 1348.23 1201.12 1346.23 1204.4 L 1345.3 1204.48 C 1340.46 1201.35 1343.96 1195.1 1346.2 1191.24 z" fill="rgb(252,250,238)" transform="translate(0,0)"></path>
<path d="M 1219.33 860.587 C 1230.77 861.132 1233.59 868.939 1225.76 877.029 C 1222.16 876.955 1222.4 876.912 1219.12 875.33 C 1214.59 870.128 1216.01 865.853 1219.33 860.587 z" fill="rgb(5,1,1)" transform="translate(0,0)"></path>
<path d="M 1219.73 863.315 C 1224.18 864.398 1222.44 863.301 1225.41 866.309 C 1226.6 869.877 1226.26 870.138 1225.61 873.778 C 1222.95 873.358 1223.09 873.478 1220.89 871.954 C 1218.98 868.817 1219.51 867.016 1219.73 863.315 z" fill="rgb(252,250,238)" transform="translate(0,0)"></path>
<path d="M 1332.08 973.592 C 1334.11 971.358 1332.87 972.196 1336.2 971.467 C 1341.28 973.473 1342.73 977.488 1341.66 982.781 C 1336.43 989.447 1328.53 986.88 1328.08 977.999 L 1329.13 976.215 L 1332.08 973.592 z" fill="rgb(5,1,1)" transform="translate(0,0)"></path>
<path d="M 1332.08 973.592 C 1336.89 974.501 1335.63 973.527 1338.17 976.687 C 1338.39 980.895 1339 979.172 1337.07 982.241 C 1333.69 982.889 1335.26 983.131 1332.22 981.454 L 1329.13 976.215 L 1332.08 973.592 z" fill="rgb(252,250,238)" transform="translate(0,0)"></path>
<path d="M 1015.34 1030.5 C 1018.7 1028.62 1022.94 1029.76 1024.9 1033.07 C 1026.86 1036.39 1025.81 1040.66 1022.55 1042.69 C 1020.37 1044.05 1017.62 1044.12 1015.37 1042.88 C 1013.13 1041.63 1011.73 1039.27 1011.72 1036.7 C 1011.71 1034.13 1013.1 1031.76 1015.34 1030.5 z" fill="rgb(5,1,1)" transform="translate(0,0)"></path>
<path d="M 1016.12 1033.5 C 1017.81 1031.96 1020.43 1032.1 1021.95 1033.8 C 1023.47 1035.5 1023.31 1038.12 1021.59 1039.63 C 1019.9 1041.11 1017.32 1040.95 1015.82 1039.27 C 1014.32 1037.59 1014.45 1035.01 1016.12 1033.5 z" fill="rgb(252,250,238)" transform="translate(0,0)"></path>
<path d="M 1164.74 944.73 C 1175.15 945.248 1178.39 951.781 1172.06 959.983 C 1161.62 959.089 1160.46 953.007 1164.74 944.73 z" fill="rgb(5,1,1)" transform="translate(0,0)"></path>
<path d="M 1249.63 1235.31 C 1251.83 1234.44 1254.32 1234.86 1256.11 1236.4 C 1257.89 1237.94 1258.68 1240.35 1258.13 1242.64 C 1257.59 1244.94 1255.82 1246.74 1253.53 1247.32 C 1250.3 1248.14 1246.99 1246.31 1245.96 1243.14 C 1244.93 1239.97 1246.54 1236.54 1249.63 1235.31 z" fill="rgb(5,1,1)" transform="translate(0,0)"></path>
<path d="M 1518.59 1103.13 C 1517.41 1081.85 1515.77 1055.82 1509.41 1035.65 C 1506.88 1027.62 1499.98 1022.15 1496.54 1015.65 C 1485.2 994.199 1469.05 957.298 1467.25 933.897 C 1495.79 950.575 1513.17 980.176 1516.45 1012.93 C 1516.68 1020.27 1514.28 1029.35 1515.74 1036.52 C 1520.81 1061.31 1523.68 1083.7 1523.99 1109.07 C 1523.74 1113.42 1523.44 1117.77 1523.09 1122.12 C 1520.3 1141.11 1518.72 1160.61 1514.03 1179.46 C 1506.6 1209.32 1495.44 1241.08 1478.41 1266.93 C 1475.94 1270.67 1472.97 1274.5 1471.18 1278.51 C 1472.93 1278.04 1471.84 1278.58 1473.3 1276.97 C 1491.55 1256.88 1516.16 1240.26 1540.99 1229.36 C 1544.87 1227.66 1549.59 1224.9 1553.6 1225.3 C 1554.26 1226.2 1555.29 1227.02 1554.89 1228.17 C 1542.07 1265.74 1502.62 1302.05 1461.21 1301.58 C 1458.87 1301.56 1456.09 1299.5 1454.34 1298.23 C 1451.69 1298.47 1443.91 1306.7 1441.37 1309.22 C 1427.26 1323.22 1412.2 1334.73 1395.57 1345.57 C 1415.12 1338.75 1486.67 1315.04 1503.66 1321.34 C 1504.56 1322.73 1505.38 1323.23 1504.66 1324.45 C 1494.63 1338.96 1473.6 1350.51 1457.77 1357.5 C 1439.06 1365.77 1421.15 1367.53 1401.11 1367.62 C 1386.22 1367.68 1386.5 1367.64 1373.36 1362.13 C 1351.58 1372.09 1331.23 1383.3 1308.12 1393.51 C 1325.2 1391.11 1417.92 1388.08 1427.81 1397.4 C 1427.59 1399.98 1427.19 1400.85 1424.89 1402.52 C 1386.41 1430.49 1318.47 1430.63 1279.26 1404.56 C 1249.92 1415.45 1225.16 1420.77 1197.4 1430.27 C 1195.16 1428.1 1193.61 1426.91 1191.18 1425.04 C 1212.3 1418.68 1246.52 1410.3 1265.68 1402.06 C 1272.93 1380.99 1300.31 1344.13 1320.14 1333.71 C 1304.4 1356.68 1285.87 1371.88 1272.61 1399.93 C 1295.86 1393.62 1344.3 1369.67 1365.89 1358.57 C 1366.22 1320.53 1385.45 1286.95 1408.38 1257.29 C 1410.73 1254.25 1413.91 1251.66 1417.87 1251.42 C 1419.46 1252.25 1420.63 1252.61 1420.87 1255.15 C 1424.03 1289.58 1404.72 1318.95 1387.4 1344.32 C 1409.86 1331.36 1435.07 1308.78 1451.61 1289.33 C 1445.69 1262.8 1448.39 1234.02 1450.95 1207.17 C 1451.55 1200.88 1451.78 1184.19 1457.5 1181.19 C 1462.75 1183.31 1466.59 1195.47 1468.42 1200.81 C 1475.97 1222.78 1474.41 1242.44 1471.37 1264.95 C 1484.35 1245.95 1491.86 1229.28 1499.84 1207.84 C 1480.05 1187.25 1469.36 1139.26 1466.82 1111.24 C 1466.36 1106.09 1464.45 1095.83 1469.76 1093.08 C 1473.61 1095.14 1477.76 1103.73 1480.27 1107.64 C 1498.94 1136.8 1501.48 1163.83 1503.36 1197.35 C 1511.61 1168.57 1513.39 1151.68 1517.07 1122.59 C 1514.05 1120.74 1510.88 1117.89 1508.17 1115.79 C 1497.49 1107.48 1459.46 1039.68 1469.68 1029.92 C 1474.87 1030.87 1482.15 1040.05 1485.74 1044.02 C 1502.25 1062.32 1510.12 1080.42 1518.59 1103.13 z" fill="rgb(5,1,1)" transform="translate(0,0)"></path>
<path d="M 1352.12 1395.45 C 1377.42 1395.03 1397.87 1397.39 1422.88 1399.32 C 1398.4 1412.96 1382.61 1417.44 1354.91 1418.51 C 1324.5 1418 1309.76 1412.75 1280.92 1404.31 C 1303.12 1396.42 1328.71 1396.34 1352.12 1395.45 z" fill="rgb(237,210,174)" transform="translate(0,0)"></path>
<path d="M 1549.66 1228.94 C 1551.03 1229.22 1550.45 1228.87 1551.33 1230.11 C 1529.65 1266.23 1507.5 1291.99 1463.24 1298.39 L 1461.25 1296.35 C 1461.2 1295.66 1461.03 1294.32 1461.46 1293.78 C 1483.43 1266.07 1518.26 1243.57 1549.66 1228.94 z" fill="rgb(237,210,174)" transform="translate(0,0)"></path>
<path d="M 1497.44 1324.53 L 1498.12 1324.47 L 1498.15 1325.38 C 1483.02 1337.87 1465.34 1350.05 1446.51 1355.94 C 1428.72 1361.49 1399.36 1365.42 1381.19 1361.47 L 1377.97 1360.65 L 1377.75 1360.04 C 1387.32 1356.97 1395.09 1351.1 1402.64 1348.45 C 1429.46 1339.05 1469.73 1326.62 1497.44 1324.53 z" fill="rgb(237,210,174)" transform="translate(0,0)"></path>
<path d="M 1415.52 1255.65 C 1428.51 1272.82 1387.3 1340.83 1371.19 1353.18 L 1370.09 1351.87 C 1370.52 1323.69 1396.08 1275.58 1415.52 1255.65 z" fill="rgb(237,210,174)" transform="translate(0,0)"></path>
<path d="M 1458.27 1185.78 C 1471.87 1206.57 1474.47 1256.46 1458.91 1277.36 L 1455.38 1282.91 C 1451.38 1261.63 1453.3 1207.19 1458.27 1185.78 z" fill="rgb(237,210,174)" transform="translate(0,0)"></path>
<path d="M 1472.68 941.897 C 1494.87 957.064 1516.19 999.522 1512.75 1026.22 C 1500.66 1023.36 1473.87 954.873 1472.68 941.897 z" fill="rgb(237,210,174)" transform="translate(0,0)"></path>
<path d="M 1470.93 1101.67 C 1491.3 1125.61 1498.85 1169.91 1499.25 1200.61 C 1483.88 1187.48 1471.2 1121.21 1470.93 1101.67 z" fill="rgb(237,210,174)" transform="translate(0,0)"></path>
<path d="M 1471.96 1034.88 C 1489.68 1049.03 1515.97 1096.5 1517.39 1118.61 C 1500.29 1111.4 1475.36 1053.22 1471.96 1034.88 z" fill="rgb(237,210,174)" transform="translate(0,0)"></path>
<path d="M 773.827 915.743 C 790.751 894.409 804.779 878.869 823.124 859.061 C 849.183 830.261 875.527 797.822 914.703 787.255 C 921.868 785.323 934.663 779.248 940.889 784.106 C 942.456 789.813 936.093 796.734 932.435 800.792 C 909.928 825.756 870.356 851.737 835.889 853.1 L 834.492 853.142 C 819.552 870.845 801.814 887.2 788.007 905.343 C 801.26 897.383 813.421 886.786 827.132 879.077 C 834.443 874.967 879.402 850.663 882.929 860.836 C 882.511 862.631 882.024 864.62 881.023 866.233 C 864.837 892.467 839.838 912.512 809.962 920.798 C 797.718 924.193 785.041 925.465 772.805 929.323 L 771.303 929.806 C 760.035 959.558 751.144 979.203 745.663 1010.6 C 766.205 979.359 785.388 958.413 819.985 942.328 C 825.302 939.856 832.509 933.351 837.263 937.425 C 837.469 938.272 837.88 939.645 837.635 940.474 C 826.358 978.613 785.145 1027.68 742.438 1028.37 C 742.058 1058.2 751.092 1112.33 764.555 1138.82 C 765.092 1099.95 768.403 1067.63 791.566 1034.61 C 795.666 1028.77 808.248 1009.39 815.44 1009.29 C 826.487 1020.58 802.492 1100.8 787.895 1113.02 C 783.328 1116.84 771.097 1135.91 767.629 1141.68 L 766.82 1143.04 C 769.066 1148.91 771.46 1154.73 774.002 1160.48 C 819.262 1261.16 926.669 1341.02 1024.46 1386.55 C 1059.74 1402.98 1087.7 1410.39 1122.04 1423.55 L 1122.86 1425.43 C 1128.97 1427.36 1136.18 1429.24 1141.58 1432.52 L 1141.51 1433.51 C 1136.26 1434.11 1130.83 1429.72 1122.44 1429.74 C 1114.45 1428.28 1087.67 1418.74 1078.72 1415.54 C 993.761 1385.15 910.703 1335.75 846.576 1272.03 C 811.735 1237.4 771.974 1175.94 755.409 1129.95 C 743.059 1096.38 736.809 1060.87 736.956 1025.11 C 691.498 993.232 696.243 952.561 706.689 902.683 C 707.538 898.632 709.271 893.603 712.888 891.551 L 715.213 892.727 C 730.551 914.567 735.705 983.891 739.565 1011.46 C 746.12 977.435 753.899 961.552 766.116 929.805 L 765.669 929.426 C 749.864 916.204 744.386 897.996 752.273 878.893 C 757.346 866.606 778.626 832.858 790.244 828.029 L 791.631 829.383 C 799.353 850.762 781.237 895.86 773.827 915.743 z" fill="rgb(5,1,1)" transform="translate(0,0)"></path>
<path d="M 831.787 940.89 L 832.397 941.365 C 833.535 945.389 825.053 959.126 822.666 963.667 C 806.896 993.675 777.242 1016.41 744.458 1025.5 L 743.738 1024.42 C 743.803 1010.69 778.673 975.249 790.271 966.35 C 802.186 957.209 818.416 948.178 831.787 940.89 z" fill="rgb(238,228,192)" transform="translate(0,0)"></path>
<path d="M 812.791 1014.82 C 816.394 1019.3 812.622 1036.55 811.672 1042.13 C 805.74 1076.99 790.968 1104.1 770.135 1132.2 C 765.946 1126.8 772.808 1091.3 774.768 1083.98 C 781.125 1060.23 794.784 1031.88 812.791 1014.82 z" fill="rgb(238,228,192)" transform="translate(0,0)"></path>
<path d="M 712.376 896.845 C 718.119 905.642 725.654 940.611 726.969 951.862 C 727.983 960.534 736.128 1011.74 734.033 1016.68 L 731.445 1015.77 C 695.274 986.702 703.839 936.787 712.376 896.845 z" fill="rgb(238,228,192)" transform="translate(0,0)"></path>
<path d="M 877.991 862.179 C 877.961 864.657 878.075 864.439 876.244 866.945 C 848.901 904.348 820.283 914.691 777.449 922.503 L 777.555 921.267 C 785.925 908.617 832.51 880.814 848.133 873.309 C 854.14 870.423 870.871 864.657 877.991 862.179 z" fill="rgb(238,228,192)" transform="translate(0,0)"></path>
<path d="M 934.556 787.108 C 935.378 787.164 934.833 787.06 936.014 787.909 C 935.694 788.78 935.469 789.518 934.907 790.283 C 913.856 818.916 874.309 841.29 841.223 848.808 L 839.877 848.609 L 839.965 847.184 C 874.922 810.215 887.365 800.383 934.556 787.108 z" fill="rgb(238,228,192)" transform="translate(0,0)"></path>
<path d="M 786.958 834.923 C 794.636 844.106 772.89 912.504 765.907 922.741 C 762.816 922.224 762.314 920.831 759.522 918.272 C 741.388 890.04 768.982 856.721 786.958 834.923 z" fill="rgb(238,228,192)" transform="translate(0,0)"></path>
<path d="M 674.499 1014.16 C 691.777 1017.88 726.969 1085.12 735.766 1102.39 C 737.568 1105.93 757.539 1145.47 757.539 1145.86 C 733.099 1140.98 708.222 1117.82 695.836 1097.09 C 684.369 1077.9 669.009 1036.15 674.499 1014.16 z" fill="rgb(5,1,1)" transform="translate(0,0)"></path>
<path d="M 677.799 1019.58 C 695.891 1033.26 738.837 1117.03 749.713 1139 C 706.079 1124.53 678.941 1062.15 677.799 1019.58 z" fill="rgb(238,228,192)" transform="translate(0,0)"></path>
<path d="M 1556.88 1127.54 C 1559.61 1128.15 1558.63 1127.72 1560.81 1129.61 C 1564.48 1138.08 1560.74 1156.37 1557.86 1165.08 C 1550.28 1187.99 1533.49 1210.67 1512.13 1222.15 C 1510.92 1222.04 1509.62 1221.69 1508.4 1221.43 C 1504.38 1214.61 1509.68 1204.1 1512.2 1197.16 C 1521.89 1170.54 1537.97 1148.37 1556.88 1127.54 z" fill="rgb(5,1,1)" transform="translate(0,0)"></path>
<path d="M 1556.71 1133.84 C 1559.24 1138.3 1557.35 1149.02 1556.11 1154.14 C 1550.69 1176.5 1532.26 1205.19 1512.33 1217.06 L 1511.63 1215.84 C 1513.42 1194.4 1541.14 1150.16 1556.71 1133.84 z" fill="rgb(237,210,174)" transform="translate(0,0)"></path>
<path d="M 1525.77 1108.85 C 1527.45 1092.84 1540.64 1024.49 1553.01 1018.84 C 1554.66 1019.32 1555.41 1019.05 1555.85 1020.73 C 1565.03 1055.13 1557.99 1107.22 1526.46 1125.86 C 1524.67 1124.18 1525.35 1125.16 1524.77 1122.7 L 1523.09 1122.12 C 1523.44 1117.77 1523.74 1113.42 1523.99 1109.07 L 1525.77 1108.85 z" fill="rgb(5,1,1)" transform="translate(0,0)"></path>
<path d="M 1523.99 1109.07 L 1525.77 1108.85 C 1525.84 1114.88 1525.64 1116.79 1524.77 1122.7 L 1523.09 1122.12 C 1523.44 1117.77 1523.74 1113.42 1523.99 1109.07 z" fill="rgb(195,153,129)" transform="translate(0,0)"></path>
<path d="M 1551.42 1025.65 L 1552.67 1027.12 C 1558.5 1067.14 1552.8 1087.57 1530.94 1119.09 L 1530.34 1119.46 C 1525.33 1104.48 1545.26 1042.52 1551.42 1025.65 z" fill="rgb(237,210,174)" transform="translate(0,0)"></path>
<path d="M 1122.04 1423.55 C 1134.37 1426.53 1146.48 1431.41 1159.31 1434.5 C 1165.63 1431.81 1183.73 1427.22 1191.18 1425.04 C 1193.61 1426.91 1195.16 1428.1 1197.4 1430.27 C 1189.77 1432.5 1181.49 1435.11 1173.85 1437.09 C 1223.9 1448.62 1272.38 1456.95 1323.52 1460.69 C 1329.12 1461.1 1335.15 1461.75 1340.62 1462.91 C 1298.98 1470.87 1236.72 1455.09 1194.39 1449.05 C 1168.12 1445.3 1172.29 1437 1143.02 1445.9 L 1141.53 1438.45 L 1142.79 1437.62 C 1141.03 1435.69 1126.63 1431.37 1122.44 1429.74 C 1130.83 1429.72 1136.26 1434.11 1141.51 1433.51 L 1141.58 1432.52 C 1136.18 1429.24 1128.97 1427.36 1122.86 1425.43 L 1122.04 1423.55 z" fill="url(#Gradient1)" transform="translate(0,0)"></path>
<path d="M 1143.02 1445.9 C 1119.7 1449.55 1009.47 1479.4 997.386 1472.97 L 997.246 1470.72 C 1000.97 1466.92 1017.03 1466.05 1023.13 1464.99 C 1059.76 1458.65 1106.39 1449.8 1141.53 1438.45 L 1143.02 1445.9 z" fill="rgb(5,1,1)" transform="translate(0,0)"></path>
<path d="M 1462.19 1575.49 C 1420.67 1603.53 1376.47 1630.68 1334.08 1657.58 C 1279.8 1692.55 1225.31 1727.18 1170.6 1761.46 L 1084.48 1815.71 C 1060.89 1830.66 1038.47 1845.49 1013.39 1857.86 C 980.14 1874.25 965.523 1873.58 936.487 1850.54 C 907.022 1827.15 881.084 1802.4 853.727 1776.88 L 745.64 1676.39 C 663.067 1601.93 581.449 1526.42 500.803 1449.88 C 432.11 1383.06 363.954 1315.69 296.343 1247.77 L 208.626 1159.31 C 181.349 1132.06 152.795 1105.94 130.596 1074.31 C 109.091 1043.67 119.239 1010.03 145.455 986.895 C 177.235 958.848 212.83 935.131 247.608 910.992 C 295.713 877.451 344.013 844.193 392.507 811.219 C 419.973 792.599 446.723 773.351 474.064 754.603 C 569.659 688.663 665.959 623.75 762.947 559.876 L 960.753 431.522 C 975.308 422.163 991.87 411.297 1005.65 401.834 C 1040.15 378.14 1073.95 356.57 1109.08 394.709 C 1119.25 405.762 1131.9 418.876 1142.66 430.14 L 1212.27 501.812 C 1087.47 554.601 964.827 612.353 844.634 674.931 C 810.236 693.23 775.567 712.987 741.548 732.17 C 725.403 741.274 708.381 754.071 692.084 762.815 C 686.462 765.832 668.401 770.274 661.309 772.174 C 645.79 776.237 630.321 780.489 614.906 784.929 C 551.045 803.625 483.745 825.492 423.109 852.644 C 404.982 860.76 394.266 872.022 386.971 890.541 C 367.231 940.653 369.501 1009.21 381.79 1060.98 C 367.513 1069.03 353.147 1076.93 338.696 1084.67 C 333.224 1087.54 306.942 1099.85 307.522 1103.17 C 310.194 1118.47 337.221 1151.13 345.54 1162.51 C 390.487 1223.92 437.705 1283.63 487.094 1341.53 C 566.343 1435.91 644.467 1521.95 737.408 1604.03 C 747.494 1610.38 757.166 1619.41 769.063 1628.89 C 797.868 1651.87 849.735 1690.87 886.238 1694.89 C 893.931 1695.74 943.97 1682.84 952.084 1680.93 L 1067.79 1653.64 C 1212.21 1620.36 1356.41 1586.11 1500.37 1550.9 C 1488.82 1558.75 1474.31 1568.96 1462.19 1575.49 z" fill="rgb(252,250,238)" transform="translate(0,0)"></path>
<path d="M 1500.37 1550.9 C 1488.82 1558.75 1474.31 1568.96 1462.19 1575.49 C 1459.19 1573.98 1457.59 1574.37 1454.32 1575.13 C 1430.59 1580.6 1406.81 1586.45 1383.15 1592.16 C 1341.17 1601.95 1299.29 1612.15 1257.51 1622.76 C 1170.13 1645.17 1082.39 1666.17 994.333 1685.76 C 961.332 1693.29 908.941 1706.69 876.473 1708.72 C 859.338 1709.79 743.505 1620.73 737.408 1604.03 C 747.494 1610.38 757.166 1619.41 769.063 1628.89 C 797.868 1651.87 849.735 1690.87 886.238 1694.89 C 893.931 1695.74 943.97 1682.84 952.084 1680.93 L 1067.79 1653.64 C 1212.21 1620.36 1356.41 1586.11 1500.37 1550.9 z" fill="rgb(237,210,174)" transform="translate(0,0)"></path>
<path d="M 1329.64 465.238 C 1367.18 460.225 1385.89 479.069 1409.24 505.738 C 1425.07 523.819 1439.56 542.642 1454.53 561.411 C 1465.63 575.202 1476.88 588.864 1488.29 602.396 L 1570.33 701.064 C 1633.25 775.778 1697.4 851.812 1754.58 931.071 C 1806.08 1002.2 1852.48 1076.88 1893.44 1154.56 C 1907.9 1181.61 1921.28 1207.66 1934.04 1235.6 C 1941.21 1251.27 1949.33 1266.66 1955.24 1282.91 C 1938.77 1297.31 1907.83 1315.67 1888.83 1327.71 C 1868.2 1340.79 1842.53 1358.08 1821.28 1368.93 C 1813.71 1209.61 1727.33 1071.59 1631.84 949.69 C 1566.92 867.809 1496.03 790.839 1419.76 719.41 C 1392.6 693.988 1364.08 670.21 1335.64 646.225 C 1330.35 641.76 1325.56 637.922 1320.91 632.765 C 1239.07 644.982 1157.63 659.702 1076.69 676.902 C 953.686 701.958 831.195 729.481 709.293 759.455 C 715.926 754.946 723.018 750.701 730.013 746.633 C 897.297 649.365 1072.88 566.984 1251.44 492.688 C 1276.72 482.168 1302.98 470.366 1329.64 465.238 z" fill="rgb(252,250,238)" transform="translate(0,0)"></path>
<path d="M 509.591 996.364 C 514.736 992.886 519.863 989.381 524.972 985.849 C 544.874 1012.47 562.768 1041.04 580.519 1069.16 C 611.802 1119.08 642.462 1169.38 672.492 1220.06 L 748.001 1344.63 C 772.88 1385.51 799.665 1429.24 821.981 1471.44 C 833.985 1494.14 867.179 1561.64 871.571 1587.13 C 881.732 1609.91 886.525 1664.27 884.275 1689.06 C 806.589 1670.71 672.793 1536.26 617.303 1477.87 C 541.628 1397.31 469.872 1313.16 402.285 1225.71 C 378.919 1195.95 356.429 1165.71 333.886 1135.34 C 326.882 1125.9 319.213 1115.84 313.56 1105.55 C 321.792 1100.05 334.965 1093.52 343.983 1088.73 L 394.158 1062.01 C 433.104 1040.96 471.59 1019.07 509.591 996.364 z" fill="rgb(252,250,238)" transform="translate(0,0)"></path>
<path d="M 509.591 996.364 C 514.736 992.886 519.863 989.381 524.972 985.849 C 544.874 1012.47 562.768 1041.04 580.519 1069.16 C 611.802 1119.08 642.462 1169.38 672.492 1220.06 L 748.001 1344.63 C 772.88 1385.51 799.665 1429.24 821.981 1471.44 C 833.985 1494.14 867.179 1561.64 871.571 1587.13 C 866.145 1584.9 860.247 1562.25 857.041 1556.04 C 842.599 1528.09 830.585 1495.15 814.705 1468.19 C 774.543 1400.02 732.505 1332.62 689.133 1266.4 C 630.87 1177.45 575.283 1079.9 509.591 996.364 z" fill="rgb(237,210,174)" transform="translate(0,0)"></path>
<path d="M 411.584 868.135 C 447.993 871.4 502.717 953.387 522.09 981.458 C 500.644 993.014 477.228 1008.33 454.502 1020.83 C 433.763 1032.72 409.186 1046.71 387.931 1057.4 C 376.33 1011.58 376.033 949.634 389.509 904.524 C 393.262 891.958 399.428 874.615 411.584 868.135 z" fill="rgb(252,250,238)" transform="translate(0,0)"></path>
<path d="M 1942.67 1558.69 C 1920.37 1500.18 1966.77 1452.04 1997.79 1408.12 C 2000.61 1404.14 2008.94 1390.15 2012.19 1388.25 L 2013.19 1389.72 C 2014.1 1398.36 2011.94 1413.56 2010.52 1422.38 C 2003.81 1463.81 1995.28 1551.11 1945.94 1562.67 C 1929.19 1590.68 1913.98 1616.63 1894.76 1643.06 C 1904.14 1637.83 1912.43 1630.33 1921.46 1624.52 C 1958.83 1600.45 2003.78 1597.93 2044.32 1582.46 C 2035.53 1594.53 2024.99 1603.77 2014.05 1613.98 C 1988.82 1637.52 1958.94 1664.73 1923.7 1670.58 C 1910.64 1672.75 1895.05 1670.94 1884.21 1662.72 L 1882.86 1661.68 C 1880.08 1663.52 1859.5 1686.68 1855.93 1690.52 C 1842.84 1704.6 1829.37 1718.33 1815.55 1731.69 C 1825.56 1726.78 1834.77 1720.82 1844.59 1715.84 C 1857.61 1709.27 1871.32 1704.15 1885.46 1700.57 C 1901.08 1696.68 1999.04 1683.53 2009.88 1687.07 L 2009.78 1688.7 C 2006.65 1691.51 1991.99 1698.91 1986.98 1701.62 C 1950.92 1721.15 1908.6 1748.34 1867.68 1753.99 C 1841.62 1757.58 1828.23 1753.51 1807.92 1737.85 C 1786.7 1754.73 1762.98 1778.92 1740.41 1797.09 C 1710.58 1821.1 1678.33 1840.66 1649 1863.16 C 1666.16 1859.97 1682.67 1855.55 1700.02 1852.85 C 1737.98 1846.94 1773.3 1854.71 1810.28 1862.39 C 1821.13 1864.64 1842.19 1866.43 1851.31 1869.38 L 1851.79 1870.78 L 1850.6 1872.19 C 1839.42 1875.92 1827.13 1876.08 1815.83 1878.97 C 1780.26 1888.09 1745.33 1900.97 1707.94 1896.03 C 1686.45 1893.2 1671.82 1890.12 1656.1 1874.82 C 1653.37 1873.45 1648.79 1872.32 1645.69 1871.43 L 1635.89 1869.25 C 1616.58 1882.27 1597.85 1896.02 1577.54 1907.43 C 1574.35 1909.22 1560.2 1916.46 1559.27 1919.2 L 1560.33 1919.22 L 1563.77 1919.34 C 1617.8 1904.11 1657.95 1910.16 1710.43 1924.22 C 1724.7 1928.04 1744.32 1927.89 1758.24 1933.07 L 1758.53 1934.21 C 1753.82 1937.74 1739.87 1939.31 1733.49 1940.3 C 1684 1947.93 1580.99 1986.86 1553.12 1922.15 C 1538.97 1927.56 1523.58 1935.17 1509.32 1941.2 C 1486.03 1950.85 1462.38 1959.6 1438.42 1967.44 C 1421.56 1972.83 1313.79 2004.39 1302.6 1998.62 L 1302.5 1996.59 C 1304.14 1995.37 1307.51 1994.38 1309.55 1994.09 C 1331.73 1990.91 1352.22 1985.2 1373.81 1979.6 C 1429.22 1965.23 1482.71 1946.88 1534.88 1923.27 C 1507.25 1897.13 1517.24 1867.01 1533.21 1837.52 C 1550.76 1805.09 1573.44 1775.29 1591.68 1743.25 C 1592.94 1741.04 1593.9 1740.79 1595.97 1740.18 L 1596.77 1741.33 C 1596.3 1750.42 1592.3 1768.02 1590.67 1777.62 C 1584.94 1811.71 1578.75 1844.8 1565.59 1876.95 C 1559.93 1890.79 1551.04 1904.25 1546.33 1917.84 C 1576.71 1902.07 1600.92 1884.9 1629.03 1865.59 C 1623.22 1859.24 1615.5 1850.09 1613.76 1841.37 C 1605.77 1801.32 1644.26 1744.14 1662.17 1709.07 C 1667 1699.62 1673.41 1685.35 1677.63 1678.03 C 1678.77 1692.73 1676.27 1707.54 1676.03 1722.05 C 1675.2 1774 1663.31 1815.69 1638.99 1861.78 C 1647.75 1857.09 1660.85 1847.81 1669.12 1842.09 C 1688.97 1828.46 1708.38 1814.21 1727.32 1799.35 C 1706.25 1772.31 1703.22 1765.64 1703.36 1727.96 C 1703.41 1715.4 1716.36 1638.08 1721.15 1633.69 L 1722.55 1634 C 1727.3 1639.76 1734.01 1664.05 1736.81 1672.21 C 1752.89 1719.14 1750.29 1746.39 1736.82 1792.7 C 1757.6 1775.59 1781.8 1753.42 1800.93 1735 C 1780.8 1712.32 1774.06 1686.96 1773.04 1656.84 C 1772.73 1647.44 1773.04 1638.04 1773.96 1628.68 C 1774.7 1621.11 1783.34 1565.62 1786.26 1562.51 L 1787.61 1563.33 C 1797.33 1588.66 1809.1 1615.26 1815.91 1641.45 C 1822.51 1666.78 1817 1706.07 1808.12 1730.81 C 1822.29 1719.71 1867.68 1670.49 1878.22 1655.65 C 1868.13 1642.93 1861.68 1640.84 1853.98 1623.74 C 1837.47 1587.1 1841.63 1552.59 1852.96 1515.15 C 1856.09 1504.82 1858.51 1494.78 1862.41 1484.5 C 1864.57 1495.61 1866.05 1505.59 1869.22 1516.58 C 1876.69 1542.46 1887.63 1568.56 1887.07 1595.93 C 1886.74 1612.63 1880.05 1629.01 1877.92 1645.13 C 1877.61 1647.48 1877.96 1649.26 1879.49 1650.86 C 1889.56 1644.56 1933.2 1574.02 1942.67 1558.69 z" fill="rgb(5,1,1)" transform="translate(0,0)"></path>
<path d="M 1646.52 1867.6 L 1646.02 1866.51 C 1667.56 1863.77 1693.68 1857.71 1712.6 1856.04 C 1745.4 1853.15 1800.12 1863.77 1834.11 1870.92 C 1786.87 1880.07 1743.09 1899.94 1693.97 1889.19 C 1682.33 1886.64 1672.5 1883.74 1662.52 1877.02 C 1660.78 1875.84 1659.04 1874.64 1657.33 1873.42 L 1656.1 1874.82 C 1653.37 1873.45 1648.79 1872.32 1645.69 1871.43 L 1646.52 1867.6 z" fill="rgb(238,228,192)" transform="translate(0,0)"></path>
<path d="M 1646.52 1867.6 C 1655.89 1873.89 1709.42 1873.36 1723.89 1873.34 C 1729.63 1873.33 1749.45 1871.97 1753.36 1873.48 C 1724.58 1876.35 1702.08 1877.7 1672.91 1873.91 C 1669.65 1873.48 1659.22 1871.85 1657.33 1873.42 L 1656.1 1874.82 C 1653.37 1873.45 1648.79 1872.32 1645.69 1871.43 L 1646.52 1867.6 z" fill="rgb(5,1,1)" transform="translate(0,0)"></path>
<path d="M 1992.23 1692.71 C 1982.3 1700.32 1964.53 1709.31 1953.11 1715.23 C 1919.01 1732.93 1880.18 1754.42 1840.52 1749.62 C 1832.12 1748.6 1819.69 1744.8 1813.38 1739.16 L 1812.21 1738.56 L 1810.57 1736.62 C 1812.37 1732.44 1823.86 1731.14 1829.16 1728.22 C 1875.42 1702.74 1939.18 1693.6 1992.23 1692.71 z" fill="rgb(238,228,192)" transform="translate(0,0)"></path>
<path d="M 1881.48 1727.62 L 1880.04 1729.96 C 1861.12 1734.64 1832.64 1741.43 1813.38 1739.16 L 1812.21 1738.56 C 1817.76 1736.93 1832.36 1736.57 1839.08 1735.62 C 1853.6 1733.55 1867.19 1730.96 1881.48 1727.62 z" fill="rgb(5,1,1)" transform="translate(0,0)"></path>
<path d="M 1881.48 1727.62 C 1886.73 1726.25 1891.76 1724.88 1897.09 1723.83 L 1898.04 1725.15 L 1898.82 1724.84 L 1898.62 1723.63 L 1899.6 1724.48 L 1899.51 1723.59 L 1900.36 1724.06 L 1899.74 1724.49 L 1899.17 1723.67 L 1898.61 1723.72 L 1898.17 1725.21 L 1897.68 1723.84 L 1897.51 1725.47 C 1890.98 1727.6 1886.78 1728.55 1880.04 1729.96 L 1881.48 1727.62 z" fill="rgb(99,101,82)" transform="translate(0,0)"></path>
<path d="M 2006.45 1403.69 C 2009.29 1414.75 1994.26 1488.79 1988.65 1503.71 C 1979.31 1528.56 1972.7 1546.05 1947.93 1558.78 C 1951.11 1545.15 1970.94 1485.32 1970.58 1476.76 C 1961.54 1495.82 1951.56 1533.37 1944.36 1555.21 C 1943.79 1552.96 1943.29 1550.69 1942.87 1548.41 C 1931.9 1491.55 1976.79 1447.27 2006.45 1403.69 z" fill="rgb(238,228,192)" transform="translate(0,0)"></path>
<path d="M 1562.85 1921.56 L 1564.35 1921.46 C 1575.09 1920.64 1586.35 1918.13 1597.03 1916.3 C 1646.66 1907.84 1693.54 1929.3 1741.37 1933.82 C 1701.36 1940.02 1660.81 1953.26 1620.23 1953.82 C 1602.08 1954.07 1565.36 1944.99 1559.96 1924.88 C 1566.65 1925.93 1573.74 1928.37 1580.63 1929.54 C 1608.75 1934.31 1638.51 1935.03 1667.08 1934.91 C 1655.44 1931.95 1626.29 1931.67 1612.3 1930.55 C 1591.83 1928.91 1582.35 1926.05 1563.18 1922.64 L 1562.85 1921.56 z" fill="rgb(238,228,192)" transform="translate(0,0)"></path>
<path d="M 1532.87 1910.41 L 1531.62 1913.42 L 1530.18 1913.2 C 1522.36 1899.27 1519.88 1884.11 1525.03 1869.09 C 1538.12 1830.94 1569.25 1787.3 1591.51 1753.14 C 1581.69 1794.58 1577.74 1838.65 1560.08 1877.88 C 1556.01 1886.92 1544.8 1912.07 1538.49 1917.61 L 1536.6 1917.55 C 1534.44 1914.85 1534.42 1913.58 1533.67 1910.25 C 1536.32 1902.06 1540.52 1880.36 1542.71 1870.87 C 1536.97 1878.91 1532.34 1900.52 1532.87 1910.41 z" fill="rgb(238,228,192)" transform="translate(0,0)"></path>
<path d="M 2023.7 1594.1 L 2026.09 1593.92 L 2026.51 1594.86 C 2010.33 1613.1 1978.61 1640.45 1957.93 1652.39 C 1936.03 1665.03 1915.5 1670.57 1890.75 1663.81 C 1901.43 1661.41 1944.97 1647.16 1951.08 1640.32 C 1950.07 1639.89 1948.31 1638.96 1947.06 1639.46 C 1938.24 1643.02 1889.71 1667.65 1885.23 1658.64 C 1887.55 1651.72 1898.53 1645.07 1904.25 1640.76 C 1940.32 1613.61 1980.48 1604.91 2023.7 1594.1 z" fill="rgb(238,228,192)" transform="translate(0,0)"></path>
<path d="M 1671.56 1700.68 C 1673.49 1708.54 1670.24 1721.49 1670.13 1729.9 C 1669.49 1779.21 1656.16 1823.47 1630.61 1865.52 C 1621.02 1833.25 1645.25 1802.38 1642.97 1793 C 1631.12 1808.46 1624.18 1838.4 1625.97 1858.43 C 1609.22 1831.43 1619.03 1808.4 1630.31 1781.48 C 1642.04 1753.5 1657.45 1727.46 1671.56 1700.68 z" fill="rgb(238,228,192)" transform="translate(0,0)"></path>
<path d="M 1800 1728.55 C 1799.17 1727.49 1798.37 1726.42 1797.6 1725.32 C 1768.1 1683.34 1778.75 1619.23 1786.64 1572.24 C 1810.63 1633.87 1825.69 1664.61 1803.67 1732.04 C 1801.26 1715.51 1800.07 1695.75 1798.64 1678.92 L 1797.47 1678.41 L 1796.55 1681.25 C 1797.01 1697.06 1798.17 1712.84 1800 1728.55 z" fill="rgb(238,228,192)" transform="translate(0,0)"></path>
<path d="M 1796.55 1681.25 C 1795.89 1676.73 1795.37 1668.75 1796.03 1664.34 L 1795.69 1665.22 L 1797.25 1666.29 C 1797.87 1669.97 1798.24 1675.09 1798.64 1678.92 L 1797.47 1678.41 L 1796.55 1681.25 z" fill="rgb(38,38,31)" transform="translate(0,0)"></path>
<path d="M 1721.6 1643.73 C 1725.59 1648.12 1730.7 1667.23 1732.66 1673.96 C 1740.69 1701.48 1746.89 1728.98 1741.88 1757.76 C 1740.16 1767.65 1735.09 1779.58 1734.74 1789.35 C 1734.56 1794.29 1736.47 1792.39 1731.5 1795.55 L 1729.85 1794.79 C 1729.37 1771.78 1729.58 1762.87 1726.24 1739.23 C 1725.92 1736.28 1725.66 1735.64 1724.83 1732.86 L 1724.37 1733.83 L 1725.04 1733.48 C 1722.76 1736.63 1729.85 1781.48 1726.42 1792 C 1724.35 1791.4 1723.33 1790.15 1722.17 1788.34 C 1696.08 1747.35 1712.95 1687.73 1721.6 1643.73 z" fill="rgb(238,228,192)" transform="translate(0,0)"></path>
<path d="M 1861.43 1503.19 C 1867.85 1528.81 1878.25 1555.3 1881.87 1581.23 C 1884 1596.45 1880.15 1624.78 1874.21 1639.12 L 1873.52 1639.71 C 1866.81 1614.83 1868.41 1587.87 1863.41 1567.18 C 1861.3 1592.72 1868.1 1616.08 1868.98 1638.89 C 1857.97 1628.06 1851.55 1606.73 1849.12 1591.93 C 1844.28 1562.48 1852.37 1531.12 1861.43 1503.19 z" fill="rgb(238,228,192)" transform="translate(0,0)"></path>
<path d="M 334.314 1692.69 C 337.211 1695.13 336.099 1693.66 337.461 1697.49 C 336.951 1701.87 334.06 1706.17 330.437 1708.77 C 282.097 1743.5 213.619 1708.8 166.6 1689.77 C 150.707 1683.34 113.099 1668.54 109.398 1664.43 L 110.802 1663.51 C 117.847 1662.86 132.834 1664.72 141.531 1664.92 C 197.369 1666.22 259.201 1663.87 312.847 1680.39 C 318.727 1682.2 326.97 1684.59 331.92 1687.78 C 332.536 1690.59 332.261 1690.83 334.314 1692.69 z" fill="rgb(238,228,192)" transform="translate(0,0)"></path>
<path d="M 334.314 1692.69 C 337.211 1695.13 336.099 1693.66 337.461 1697.49 C 336.951 1701.87 334.06 1706.17 330.437 1708.77 C 282.097 1743.5 213.619 1708.8 166.6 1689.77 C 150.707 1683.34 113.099 1668.54 109.398 1664.43 L 110.802 1663.51 C 117.847 1662.86 132.834 1664.72 141.531 1664.92 C 197.369 1666.22 259.201 1663.87 312.847 1680.39 C 318.727 1682.2 326.97 1684.59 331.92 1687.78 C 326.881 1690.28 294.216 1679.68 286.264 1678.37 C 252.084 1672.78 217.273 1671.51 182.691 1670.76 C 166.731 1670.41 145.897 1668.57 130.379 1669.31 L 192.301 1694.69 C 223.308 1707.18 255.964 1721.87 290.204 1717.89 C 302.708 1716.43 326.073 1710.84 332.67 1699.27 L 332.09 1698.33 C 306.635 1702.36 288.353 1702.9 262.569 1696.74 L 261.966 1694.55 C 283.858 1699.36 313.182 1700.99 334.314 1692.69 z" fill="rgb(5,1,1)" transform="translate(0,0)"></path>
<path d="M 262.569 1696.74 C 255.255 1695.51 249.284 1694.69 242.346 1691.97 C 249.069 1692.2 255.339 1693.44 261.966 1694.55 L 262.569 1696.74 z" fill="rgb(38,38,31)" transform="translate(0,0)"></path>
<path d="M 1748 1803.86 L 1745 1800.92 L 1745.41 1799.37 C 1752.15 1796.89 1760.76 1795.95 1768 1793.91 C 1825.31 1777.8 1885.59 1783.86 1944.35 1783.84 C 1951.06 1783.84 1958.36 1783.8 1964.91 1784.26 C 1950.65 1791.17 1927.55 1798.34 1911.83 1803.5 C 1866.35 1818.41 1818.89 1837.05 1770.94 1821.29 C 1764.74 1819.26 1756.06 1814.95 1752.82 1809.18 C 1751.47 1807.06 1749.8 1805.66 1748 1803.86 z" fill="rgb(238,228,192)" transform="translate(0,0)"></path>
<path d="M 1748 1803.86 L 1745 1800.92 L 1745.41 1799.37 C 1752.15 1796.89 1760.76 1795.95 1768 1793.91 C 1825.31 1777.8 1885.59 1783.86 1944.35 1783.84 C 1951.06 1783.84 1958.36 1783.8 1964.91 1784.26 C 1950.65 1791.17 1927.55 1798.34 1911.83 1803.5 C 1866.35 1818.41 1818.89 1837.05 1770.94 1821.29 C 1764.74 1819.26 1756.06 1814.95 1752.82 1809.18 L 1753.65 1807.75 C 1755.19 1809.39 1754.59 1809.03 1756.33 1809.97 C 1811.68 1839.82 1885.37 1807.52 1941.44 1788.3 C 1882.71 1788.85 1825.36 1783 1768.14 1797.88 C 1761.97 1799.49 1753.81 1799.14 1748.33 1801.38 L 1748 1803.86 z" fill="rgb(5,1,1)" transform="translate(0,0)"></path>
<path d="M 1748.33 1801.38 C 1748.84 1801.79 1749.35 1802.22 1749.88 1802.62 C 1760.58 1810.63 1825.86 1806.51 1841.94 1805.24 C 1848.55 1804.71 1855.47 1803.19 1862.01 1803.04 C 1864.2 1802.99 1866.69 1802.92 1868.41 1804.36 C 1843.44 1808.95 1817.29 1809.26 1791.98 1809.31 C 1785.77 1809.32 1755.63 1806.83 1753.65 1807.75 L 1752.82 1809.18 C 1751.47 1807.06 1749.8 1805.66 1748 1803.86 L 1748.33 1801.38 z" fill="rgb(38,38,31)" transform="translate(0,0)"></path>
<path d="M 274.733 1424.35 L 276.833 1425.66 C 278.759 1431.42 278.005 1437.79 279.109 1443.85 C 288.359 1494.59 294.647 1552.28 260.169 1595.47 C 258.068 1598.1 255.182 1598.48 252.082 1598.36 C 247.57 1591.69 239.474 1556.36 238.05 1547.8 C 230.388 1501.76 253.024 1463.05 274.733 1424.35 z" fill="rgb(5,1,1)" transform="translate(0,0)"></path>
<path d="M 251.674 1585.98 C 233.499 1518.01 239.117 1499.88 273.267 1437.96 C 282.588 1496.94 291.844 1541.89 256.029 1595.77 L 254.266 1596.66 C 252.415 1594.43 252.622 1591.49 252.914 1588.71 L 251.674 1585.98 z" fill="rgb(238,228,192)" transform="translate(0,0)"></path>
<path d="M 251.674 1585.98 C 260.996 1566.49 257.191 1518.88 262.461 1509.87 C 264.155 1514.33 260.534 1559.5 259.005 1567.01 C 257.787 1573 255.608 1582.71 252.914 1588.71 L 251.674 1585.98 z" fill="rgb(5,1,1)" transform="translate(0,0)"></path>
<metadata><recraft-signature>{"signed_by": "recraft", "signature_b64": "VfwrKUkYf+bFjGZ4P+Ixdek46Dq7YIBoIwLQMpW01FCCK6A8OcB5I0+6rV7kjgCjgrHkBF83sdEr+ETtgQBXAg==", "signing_algo": "Ed25519", "generation_timestamp": 1778092711, "identifier": "e15ff363-1db6-4a07-ba6d-0508c6482aec"}</recraft-signature></metadata></svg>