<svg xmlns="http://www.w3.org/2000/svg" height="1024" preserveAspectRatio="none" style="display: block;" version="1.1" viewBox="0 0 2048 2048" width="1024">
<path d="M 0 0 L 2048 0 L 2048 2048 L 0 2048 L 0 0 z" fill="rgb(253,253,246)" transform="translate(0,0)"></path>
<path d="M 518.562 1112.13 C 511.873 1073.19 514.105 1017.48 557.047 1000.47 C 582.924 990.215 609.202 980.963 635.29 971.22 L 798.201 910.149 C 849.973 890.177 901.904 870.619 953.989 851.475 C 999.807 834.831 1023.38 817.98 1067.04 852.71 C 1095.78 875.576 1107.67 895.548 1121.32 929.195 C 1165.97 902.036 1190.19 887.875 1239.95 873.32 C 1331.1 846.661 1368.38 907.534 1280.13 953.921 C 1239.86 975.085 1207.7 980.243 1162.87 983.999 C 1193.69 1011.35 1247.11 1027.12 1286.27 1039.9 C 1319.12 1050.73 1352.22 1060.8 1385.55 1070.09 C 1475.87 1096.04 1573.05 1122.17 1657.14 1165.74 C 1671.76 1173.32 1688.21 1185.89 1698.34 1199.02 C 1749.51 1177.81 1800.29 1155.67 1850.66 1132.6 C 1870.99 1123.23 1994.28 1063.31 2004.09 1065.17 C 2004.28 1066.87 2003.71 1069.3 2002.2 1070.2 C 1981.87 1082.35 1957.87 1089.77 1936.51 1100.12 C 1860.59 1136.93 1780.96 1173.76 1702.72 1205.27 C 1707.17 1213.17 1711.5 1221.15 1715.7 1229.19 C 1775.58 1203.2 1835.08 1176.32 1894.17 1148.55 C 1907.15 1142.46 1990.61 1100.44 1997.78 1101.59 C 1999.51 1103.93 1999.04 1102.62 1998.69 1105.76 C 1990.7 1115.54 1749.85 1221.94 1719.06 1236.85 C 1731.53 1273.47 1736.78 1293.68 1742.13 1331.96 C 1767.57 1322.2 1793.24 1310.18 1818.17 1298.93 L 1941.52 1243.32 C 1952.71 1238.39 1983.41 1222.94 1993.53 1222.09 C 1995.89 1223.35 1995.17 1222.38 1996.04 1224.79 C 1994.56 1227.04 1991.96 1228.67 1989.54 1229.81 C 1908.21 1267.94 1824.56 1302.02 1743.69 1341.04 C 1750.21 1398.44 1758.72 1502.39 1782.3 1551.45 C 1793.71 1574.95 1810.3 1595.54 1830.83 1611.69 C 1839.05 1618.24 1848.01 1623.79 1857.53 1628.22 C 1863.54 1631.04 1877.01 1634.55 1877.99 1641.6 C 1872.92 1651.52 1829.01 1677.27 1816.88 1687.29 C 1787.11 1711.9 1759.95 1741.66 1728.84 1764.41 C 1664.15 1811.69 1592.24 1851.36 1515.85 1875.94 C 1454.55 1895.67 1390.94 1903.55 1332.33 1930.78 C 1305.96 1942.93 1286.49 1963.29 1264.76 1974.28 C 1250.13 1960.51 1241.88 1930.89 1238.06 1911.59 C 1232.12 1913.75 1221.86 1919.41 1215.71 1922.38 C 1202.57 1928.83 1189.05 1934.48 1175.22 1939.28 C 1173.24 1918.87 1174.99 1890.38 1174.78 1869.32 C 1174.15 1808.46 1178.17 1747.42 1180.25 1686.66 C 1180.48 1679.96 1183.79 1625.2 1183.07 1622.33 C 1123.28 1647.7 1061.26 1677.13 1001.64 1703.96 L 608.32 1880.43 L 505.477 1926.84 C 489.147 1934.21 472.868 1941.76 456.422 1948.86 C 452.558 1950.52 445.581 1953.52 442.539 1949.94 L 443.12 1947.53 C 447.744 1943.18 505.688 1918.39 515.754 1913.87 C 586.713 1881.66 657.876 1849.9 729.238 1818.59 L 1184.89 1612.9 C 1186.48 1604.71 1195.07 1504.45 1194.04 1500.31 C 1157.91 1516 1121.36 1533.98 1085.33 1550.29 L 859.798 1651.68 L 339.573 1885.62 L 166.958 1963.19 L 122.687 1983.27 C 116.443 1986.11 98.437 1996.6 92.5952 1992.62 L 92.742 1990.97 C 95.8585 1987.13 98.8099 1985.59 103.233 1983.52 C 207.323 1934.85 313.276 1889.65 417.85 1842.18 L 1193.77 1492.03 C 1191.76 1482.87 1191.46 1475.92 1188.86 1466.13 L 297.029 1867.17 L 93.7334 1959.06 C 83.9666 1963.4 43.7301 1983.25 37.7151 1982.84 C 35.1781 1981.17 35.9229 1982.29 35.299 1979.43 C 40.0623 1973.48 118.211 1939.84 131.564 1933.69 C 229.342 1888.71 327.495 1844.55 426.012 1801.22 L 1182.2 1460.51 C 1163.91 1445.6 1060.56 1425.21 1034.19 1417.5 C 1028.42 1415.82 1010.84 1415.47 1005.02 1412.27 C 897.71 1461.35 789.851 1509.22 681.463 1555.88 C 654.857 1567.29 628.457 1579.51 601.901 1591.01 C 590.106 1596.12 574.471 1603.78 562.729 1607.93 C 548.395 1603.1 531.879 1595.25 517.908 1589 L 450.95 1559.21 L 236.367 1465.52 L 106.911 1409.32 C 90.6221 1402.2 65.9998 1392.74 51.0725 1384.48 C 50.6567 1375.62 47.8874 1349.3 53.6109 1342.85 C 61.7271 1333.72 323.281 1221.94 359.054 1206.89 C 358.904 1191.64 362.291 1178.77 373.822 1167.98 C 406.345 1137.53 474.946 1118.33 518.562 1112.13 z" fill="rgb(76,27,8)" transform="translate(0,0)"></path>
<path d="M 1183.07 1622.33 C 1199.18 1614.97 1216.1 1607.49 1231.94 1599.7 C 1230.04 1632.9 1228.47 1666.12 1227.21 1699.36 C 1224.06 1777.7 1222.65 1834.29 1238.06 1911.59 C 1232.12 1913.75 1221.86 1919.41 1215.71 1922.38 C 1202.57 1928.83 1189.05 1934.48 1175.22 1939.28 C 1173.24 1918.87 1174.99 1890.38 1174.78 1869.32 C 1174.15 1808.46 1178.17 1747.42 1180.25 1686.66 C 1180.48 1679.96 1183.79 1625.2 1183.07 1622.33 z" fill="rgb(209,190,177)" transform="translate(0,0)"></path>
<path d="M 1049.45 1391.19 C 1090.12 1400.99 1184.29 1419.82 1214.17 1447.05 C 1205.67 1450.66 1190.4 1457.7 1182.2 1460.51 C 1163.91 1445.6 1060.56 1425.21 1034.19 1417.5 C 1028.42 1415.82 1010.84 1415.47 1005.02 1412.27 C 1017.94 1405.94 1038.21 1398.34 1049.45 1391.19 z" fill="rgb(209,190,177)" transform="translate(0,0)"></path>
<path d="M 1194.04 1500.31 C 1205.07 1494.87 1219.12 1488.97 1230.62 1484.32 C 1235.89 1522.13 1232.31 1553.48 1231.91 1591.03 C 1216.31 1598.47 1200.63 1605.76 1184.89 1612.9 C 1186.48 1604.71 1195.07 1504.45 1194.04 1500.31 z" fill="rgb(209,190,177)" transform="translate(0,0)"></path>
<path d="M 1188.86 1466.13 C 1197.61 1461.72 1210.29 1456.26 1219.54 1452.74 C 1224.91 1461.36 1226.81 1466.25 1229.75 1476.03 C 1218.56 1481.05 1204.97 1487.59 1193.77 1492.03 C 1191.76 1482.87 1191.46 1475.92 1188.86 1466.13 z" fill="rgb(209,190,177)" transform="translate(0,0)"></path>
<path d="M 544.602 1184.05 C 563.531 1217.82 605.137 1277.38 651.055 1252.6 C 661.09 1262.67 671.404 1272.94 683.218 1280.9 C 746.146 1323.28 823.244 1341.4 896.011 1357.89 C 926.387 1364.88 956.817 1371.63 987.299 1378.14 C 978.22 1382.32 968.318 1387.16 959.024 1390.61 L 860.983 1432.82 C 761.797 1477.45 662.194 1521.14 562.187 1563.9 L 228.928 1419.28 C 193.074 1403.75 157.132 1388.42 121.102 1373.3 C 105.473 1366.6 75.773 1354.49 62.0089 1346.51 C 77.1968 1338.35 98.7123 1329.37 114.998 1321.97 C 158.247 1302.42 201.74 1283.42 245.469 1264.97 C 271.292 1253.47 297.202 1242.18 323.196 1231.08 C 334.172 1226.37 351.728 1218.28 362.443 1215.1 C 378.911 1240.33 406.829 1237.49 432.286 1231.55 C 452.83 1226.76 472.367 1219.85 491.744 1211.6 C 511.427 1202.53 525.88 1194.73 544.602 1184.05 z" fill="rgb(253,253,246)" transform="translate(0,0)"></path>
<path d="M 544.602 1184.05 C 563.531 1217.82 605.137 1277.38 651.055 1252.6 C 661.09 1262.67 671.404 1272.94 683.218 1280.9 C 746.146 1323.28 823.244 1341.4 896.011 1357.89 C 926.387 1364.88 956.817 1371.63 987.299 1378.14 C 978.22 1382.32 968.318 1387.16 959.024 1390.61 C 956.177 1388.95 879.211 1377.47 868.112 1375.28 C 838.401 1369.43 809.511 1360.6 780.575 1351.8 C 698.112 1326.73 626.52 1297.97 551.312 1255.3 C 531.413 1244.02 504.694 1230.93 491.744 1211.6 C 511.427 1202.53 525.88 1194.73 544.602 1184.05 z" fill="rgb(209,190,177)" transform="translate(0,0)"></path>
<path d="M 1124.72 945.664 C 1129.47 949.92 1133.31 958.746 1136.81 964.286 C 1146.73 980 1160.6 992.165 1175.75 1002.74 C 1207.76 1025.1 1249.75 1036.35 1286.63 1048.14 C 1349.54 1068.24 1413.25 1084.77 1476.47 1103.69 C 1494.35 1109.04 1511.99 1115.48 1529.64 1121.56 C 1564.24 1133.49 1598.65 1145.81 1631.83 1161.35 C 1651.74 1170.67 1672.97 1181.67 1687.66 1198.45 C 1748.94 1268.48 1735.22 1446.39 1769.61 1540.25 C 1788.06 1590.58 1820.65 1620.37 1868.3 1642.48 C 1849.84 1656.92 1827.76 1668.35 1808.49 1684.17 C 1787.06 1701.76 1769.25 1721 1748.37 1738.49 C 1690.17 1786.49 1625.02 1825.37 1555.14 1853.79 C 1528.95 1864.14 1502.14 1872.81 1474.84 1879.72 C 1422.54 1893.16 1370.68 1902.79 1321.77 1927.23 C 1299.03 1938.6 1286 1953.63 1266.1 1965.78 C 1260.94 1958.52 1255.21 1943.89 1252.51 1935.39 C 1229.08 1861.51 1231.53 1784.35 1234.52 1708.32 C 1235.75 1674.26 1237.2 1640.21 1238.87 1606.18 C 1240.79 1565.59 1244.08 1514.8 1236.79 1474.75 C 1233.57 1457.07 1222.12 1440.64 1206.43 1431.68 C 1172.67 1412.4 1128.66 1402.23 1091.23 1393.11 C 1022.18 1376.3 953.14 1364.67 884.055 1347.53 C 816.555 1330.79 753.623 1316.94 694.062 1279.14 C 677.548 1268.18 669.665 1262.03 657.495 1246.53 C 666.309 1234.43 668.849 1229.9 672.746 1215.36 C 691.95 1240.4 716.239 1261.1 744.015 1276.08 C 804.149 1308.4 915.998 1329.44 984.343 1342.54 C 1015.97 1348.59 1047.53 1355.04 1079 1361.87 C 1126.26 1371.79 1173.96 1381.85 1216.72 1404.83 C 1263.45 1429.96 1268.08 1473.84 1268.2 1521.96 C 1268.25 1544.01 1268.22 1565.88 1267.6 1588.05 C 1266.02 1650.95 1265.25 1713.87 1265.31 1776.8 C 1265.43 1796.94 1265.03 1914.47 1280.72 1922.59 C 1283.86 1921.51 1306.97 1904.59 1312.43 1901.03 C 1328.51 1890.6 1345.73 1882.04 1363.76 1875.55 C 1397.51 1863.14 1431.17 1859.99 1464.9 1850.33 C 1494.57 1841.71 1526.14 1833.57 1554.65 1821.84 C 1640.97 1786.33 1715.06 1731.77 1785.8 1671.85 C 1790.7 1667.7 1818.33 1648.92 1817.7 1643.56 C 1814.71 1640.13 1810.37 1638.38 1806.31 1636.23 C 1773.33 1618.74 1757.7 1593.39 1744.13 1559.55 C 1709.02 1472.02 1719.95 1376.12 1696.42 1286.18 C 1688.88 1257.34 1676.04 1227.54 1653.62 1206.81 C 1601.57 1160.8 1510.76 1138.8 1444.89 1120.55 L 1340.17 1091.78 C 1285.87 1077.39 1220.9 1061.77 1174.92 1027.66 C 1154.03 1012.17 1131.32 970.63 1124.72 945.664 z" fill="rgb(253,253,246)" transform="translate(0,0)"></path>
<path d="M 1481.98 1339.95 C 1499.75 1353.26 1525.14 1526.73 1527.23 1553.52 C 1487.88 1566.24 1445.77 1582.15 1409.51 1602.12 C 1403.76 1605.13 1398.51 1608.71 1393.08 1612.26 C 1392.21 1581.98 1390.98 1551.71 1389.4 1521.46 C 1386.69 1472.64 1386.15 1439.82 1369.72 1393.03 C 1402.5 1376.56 1448.07 1353.7 1481.98 1339.95 z" fill="rgb(253,253,246)" transform="translate(0,0)"></path>
<path d="M 1361.7 1395.99 C 1364.3 1398.6 1366.2 1405.59 1367.34 1409.33 C 1379.93 1450.42 1380.38 1492.93 1382.37 1535.4 C 1383.68 1563.29 1385.12 1589.92 1385.25 1617.82 C 1349.35 1642.54 1321.41 1677.5 1282.48 1705.21 L 1273.39 1711.79 C 1272.37 1678.89 1275.09 1645.33 1274.89 1612.45 C 1274.56 1557 1282.96 1496 1264.36 1443.07 C 1296.57 1426.9 1329.02 1411.2 1361.7 1395.99 z" fill="rgb(253,253,246)" transform="translate(0,0)"></path>
<path d="M 979.542 1120.98 C 982.795 1121.03 1006.02 1131.25 1011.43 1133.08 C 1076.24 1154.94 1145.36 1160.78 1211.12 1179.79 C 1178.91 1197.88 1122.77 1236.74 1094.06 1259.4 C 1013.8 1241.16 939.331 1238.29 862.028 1200.92 C 893.159 1164.27 936.83 1140.98 979.542 1120.98 z" fill="rgb(253,253,246)" transform="translate(0,0)"></path>
<path d="M 1601.14 1282.97 C 1603.87 1284.9 1606.37 1293.95 1607.41 1297.38 C 1624.22 1352.66 1629.34 1410.79 1636.33 1467.92 C 1637.61 1478.32 1638.89 1490.52 1638.66 1500.92 C 1630.03 1509.58 1616.97 1516.09 1608.3 1522.35 C 1599.17 1528.95 1543.97 1552.84 1534.87 1550.47 L 1534.34 1548.08 C 1532.05 1533.9 1531.54 1517.22 1529.25 1503.16 C 1521.01 1452.76 1510.01 1381.81 1489.51 1335.38 C 1524.65 1321.26 1566.74 1299.68 1601.14 1282.97 z" fill="rgb(253,253,246)" transform="translate(0,0)"></path>
<path d="M 1177.39 1040.97 C 1178.84 1041.28 1195.94 1050.63 1198.91 1052.1 C 1251.27 1078.04 1309.57 1092.42 1366.03 1106.94 C 1318.82 1121.48 1264.51 1150.35 1221.55 1174.24 C 1210.21 1171.19 1198.84 1168.29 1187.43 1165.53 C 1142.21 1154.97 1094.47 1147.7 1049.25 1136.63 C 1029.69 1131.84 1008.52 1123.92 989.809 1116.6 C 1020.04 1103.39 1047.41 1093.84 1078.62 1083.17 C 1110.89 1072.13 1148.93 1059.63 1177.39 1040.97 z" fill="rgb(253,253,246)" transform="translate(0,0)"></path>
<path d="M 790.441 920.941 C 803.748 918.965 842.838 952.554 852.449 961.281 C 877.008 983.582 890.371 1012.24 903.271 1042.01 C 846.474 1069.3 828.754 1083.72 781.302 1125.18 C 776.608 1121.19 762.775 1066.71 759.512 1056.52 C 757.005 1048.46 753.872 1040.6 750.144 1033.02 C 732.225 997.294 704.072 979.424 667.336 967.272 C 707.718 951.82 750.76 936.936 790.441 920.941 z" fill="rgb(253,253,246)" transform="translate(0,0)"></path>
<path d="M 653.273 973.048 C 662.524 971.259 680.225 979.783 688.597 983.696 C 753.698 1014.13 753.222 1072.35 774.085 1131.5 C 765.031 1141.34 755.942 1150.48 747.396 1160.82 C 728.339 1183.88 713.494 1208.41 698.806 1234.31 C 690.409 1226.18 681.902 1214.79 674.688 1205.44 C 682.195 1139.09 655.748 1038.31 590.339 1006.56 C 586.338 1004.61 580.557 1002.84 576.239 1001.39 C 601.34 992.668 628.376 982.422 653.273 973.048 z" fill="rgb(253,253,246)" transform="translate(0,0)"></path>
<path d="M 1535.01 1671.17 C 1537.68 1672.81 1538.39 1691.33 1539.05 1695.78 C 1545.69 1740.45 1553.52 1766.19 1577.58 1804.34 C 1569.15 1808.77 1553.55 1814.4 1544.49 1817.65 C 1508.55 1830.17 1471.97 1840.78 1434.91 1849.43 C 1430.55 1850.15 1425.3 1851.54 1420.92 1852.58 C 1399.12 1816.56 1397.02 1787.91 1393.72 1747.4 C 1401.76 1740.1 1411.31 1733.71 1419.99 1727.24 C 1457.05 1699.61 1490.7 1683.79 1535.01 1671.17 z" fill="rgb(253,253,246)" transform="translate(0,0)"></path>
<path d="M 1346.33 1220.92 C 1351.64 1220.69 1370.37 1230.68 1376.19 1233.47 C 1417.49 1253.27 1459.34 1289.81 1479.21 1331.7 C 1462.78 1340.95 1436.55 1351.62 1418.92 1360.72 C 1411.05 1364.79 1371.27 1384.05 1366.21 1385.12 C 1331.28 1331.77 1285.87 1310.75 1229.1 1287.94 C 1260.82 1262.97 1309.44 1236.97 1346.33 1220.92 z" fill="rgb(253,253,246)" transform="translate(0,0)"></path>
<path d="M 565.254 1007.26 C 579.295 1006.27 602.418 1019.96 612.193 1029.65 C 649.8 1066.92 665.771 1124.95 668.147 1176.51 C 668.72 1198.38 667.287 1225.79 650.885 1242.35 C 628.263 1265.18 597.302 1239.94 580.685 1223.16 C 567.969 1209.38 559.429 1197.44 552.186 1180.24 C 560.42 1174.67 569.606 1168.19 578.153 1163.25 C 588.152 1157.52 603.922 1156.1 611.317 1146.67 C 620.551 1134.9 609.763 1114.26 599.296 1106.67 C 580.444 1093 575.921 1102.6 559.21 1107.87 C 555.403 1109.07 531.272 1110.44 525.682 1111.1 C 525.206 1108.23 524.763 1105.36 524.353 1102.48 C 519.892 1070.72 524.456 1012.82 565.254 1007.26 z" fill="rgb(253,253,246)" transform="translate(0,0)"></path>
<path d="M 855.896 1207.44 C 862.202 1209.33 881.644 1217.78 889.131 1220.62 C 907.768 1227.56 926.804 1233.39 946.137 1238.06 C 988.142 1248.34 1030.97 1254.84 1073.44 1262.87 C 1077.94 1263.72 1082.39 1264.72 1086.82 1265.88 C 1065.08 1281.94 1041.94 1303.85 1023.04 1323.28 C 1018.77 1327.75 1013.15 1334.9 1009.05 1339.82 C 942.697 1327.97 871.907 1313.25 807.71 1293.32 C 816.695 1263.81 836.314 1230.82 855.896 1207.44 z" fill="rgb(253,253,246)" transform="translate(0,0)"></path>
<path d="M 1662.53 1614.8 C 1663.83 1616.08 1663.83 1615.78 1664.39 1617.27 C 1679.41 1657.41 1694.47 1681.2 1720.87 1714.35 C 1693.79 1734.39 1665.89 1754.9 1636.79 1771.87 C 1623.63 1779.55 1609.91 1786.79 1596.51 1794.07 L 1585.12 1800 C 1556.92 1767.87 1547.52 1710.09 1543.67 1668.44 C 1587.39 1655.61 1627.77 1645.34 1662.53 1614.8 z" fill="rgb(253,253,246)" transform="translate(0,0)"></path>
<path d="M 1487.95 1180.37 C 1490.66 1179.86 1492.46 1179.77 1495.1 1180.84 C 1543.18 1200.49 1576.15 1229.04 1599.45 1275.69 C 1562.08 1293.96 1524.44 1311.67 1486.55 1328.83 L 1481.25 1318.99 C 1451.12 1268.87 1410.54 1239.96 1357.66 1216.89 C 1396.18 1201.91 1447 1186.17 1487.95 1180.37 z" fill="rgb(253,253,246)" transform="translate(0,0)"></path>
<path d="M 909.174 876.989 C 917.08 876.825 942.429 889.106 949.228 893.486 C 992.498 921.359 999.245 948.341 1010.35 994.015 C 977.462 1008 943.004 1022.56 911.08 1038.41 L 909.306 1037.71 C 888.344 980.61 855.601 946.523 802.975 916.666 C 836.244 903.056 875.26 889.09 909.174 876.989 z" fill="rgb(253,253,246)" transform="translate(0,0)"></path>
<path d="M 1220.35 1293.76 C 1220.59 1293.81 1220.82 1293.85 1221.06 1293.9 C 1274.05 1311.53 1330.57 1339.72 1358.88 1389.3 C 1330.95 1402.24 1303.16 1415.46 1275.5 1428.97 L 1261.03 1435.97 C 1232.8 1391.32 1185.72 1383.88 1141.14 1368.04 C 1161.38 1336.61 1191.22 1316.1 1220.35 1293.76 z" fill="rgb(253,253,246)" transform="translate(0,0)"></path>
<path d="M 1015.08 839.317 C 1065.53 841.049 1110.88 903.163 1117.54 949.892 C 1104.29 956.685 1087.04 963.111 1073.02 968.655 C 1055.72 975.532 1038.46 982.537 1021.26 989.669 C 1019.62 990.518 1020.6 990.213 1018.23 990.227 C 1016.82 988.29 1008.79 957.121 1006.99 951.595 C 1005.11 945.924 1002.74 940.427 999.911 935.166 C 983.343 904.096 952.739 882.811 919.525 872.707 C 940.99 864.132 962.894 856.976 984.491 848.746 C 994.232 845.034 1004.84 841.192 1015.08 839.317 z" fill="rgb(253,253,246)" transform="translate(0,0)"></path>
<path d="M 1672.81 1250.92 L 1675.29 1251.21 C 1696.96 1281.68 1706.28 1394.52 1708.25 1430.73 C 1686.43 1448.37 1665.55 1472.7 1646.44 1493.11 C 1638.9 1438.7 1636.16 1383.85 1623.44 1330 C 1619.35 1312.7 1614.57 1295.86 1609.74 1278.79 C 1631.16 1268.49 1650.99 1260.26 1672.81 1250.92 z" fill="rgb(253,253,246)" transform="translate(0,0)"></path>
<path d="M 59.1127 1355.08 C 89.3354 1369.02 117.106 1380.16 147.613 1393.05 L 242.372 1433.78 L 434.155 1517.72 C 473.04 1534.67 524.454 1553.87 560.97 1572.42 C 561.08 1581.34 561.057 1590.25 560.9 1599.16 C 551.879 1596.33 536.832 1589.12 527.964 1585.12 L 474.876 1561.13 C 351.873 1505.74 226.046 1454.95 103.151 1399.16 C 88.7683 1392.63 71.8205 1386.47 58.24 1378.77 C 58.3276 1371.07 58.8061 1362.82 59.1127 1355.08 z" fill="rgb(209,190,177)" transform="translate(0,0)"></path>
<path d="M 1269.91 875.394 C 1283.26 874.166 1298.55 872.91 1310.35 880.601 C 1325.15 890.437 1325.02 905.777 1313.69 918.704 C 1282.31 954.51 1224.9 969.301 1180.24 974.765 C 1172.85 975.284 1161.79 974.961 1154.13 974.973 C 1145.63 965.848 1134.34 946.71 1127.25 935.365 C 1164.74 907.646 1223.75 880.862 1269.91 875.394 z" fill="rgb(253,253,246)" transform="translate(0,0)"></path>
<path d="M 1275.29 888.849 C 1298.4 888.053 1305.08 909.575 1302.47 928.812 L 1297.97 928.809 C 1294.67 926.15 1294.27 910.815 1292.73 905.1 C 1286.75 899.45 1282.8 898.21 1276.13 893.841 C 1274.9 893.037 1275.32 890.422 1275.29 888.849 z" fill="rgb(76,27,8)" transform="translate(0,0)"></path>
<path d="M 1291.02 878.454 C 1306.91 881.314 1319.76 897.316 1313.64 913.398 C 1306.71 910.932 1309.25 900.111 1305.02 894.434 C 1299.09 886.496 1290.32 889.375 1291.02 878.454 z" fill="rgb(76,27,8)" transform="translate(0,0)"></path>
<path d="M 545.223 1116.58 C 560.021 1115.49 595.31 1111.22 583.428 1146.73 C 581.22 1153.34 551.801 1171.46 543.548 1176.15 C 505.829 1197.54 464.345 1217.96 421.236 1225.8 L 415.518 1226.6 C 413.372 1225.58 414.107 1224.91 414.742 1221.93 C 419.43 1199.92 408.026 1173.98 384.178 1169.3 C 423.92 1138.84 495.288 1120.25 545.223 1116.58 z" fill="rgb(253,253,246)" transform="translate(0,0)"></path>
<path d="M 1000.16 1381.03 C 1012.11 1383.83 1025.52 1386.29 1037.64 1388.77 C 993.048 1410.67 939.938 1433.27 894.471 1453.7 C 795.01 1498.61 695.044 1542.39 594.593 1585.03 C 584.817 1589.05 577.931 1591.92 568.875 1597.29 C 568.849 1590.12 569.254 1576.91 567.76 1570.38 L 818.555 1460.21 C 877.364 1434.16 940.668 1405.08 1000.16 1381.03 z" fill="rgb(209,190,177)" transform="translate(0,0)"></path>
<path d="M 1384.77 1753.11 C 1386.65 1755.9 1387.97 1769.82 1388.24 1773.84 C 1390.19 1802.88 1400.26 1827.96 1411.64 1854.38 C 1361.02 1865.33 1336.65 1875.38 1293.18 1904.15 L 1282.3 1911.53 C 1277.34 1890.5 1274.84 1856.49 1273.79 1835.02 C 1311.42 1802.64 1346.76 1784.32 1384.77 1753.11 z" fill="rgb(253,253,246)" transform="translate(0,0)"></path>
<path d="M 1729.89 1546.74 C 1732.55 1549.31 1737.15 1562.14 1738.65 1566.22 C 1752.55 1604.12 1770.49 1625.91 1806.24 1644.76 C 1785.33 1662.39 1758.69 1684.86 1737.1 1701.2 C 1733.74 1703.52 1729.96 1706.82 1726.74 1709.47 C 1703.23 1684.24 1680.7 1640.94 1669.65 1608.52 C 1679.12 1599.48 1689.4 1589.85 1698.36 1580.37 C 1709.04 1569.07 1718.6 1557.61 1729.89 1546.74 z" fill="rgb(253,253,246)" transform="translate(0,0)"></path>
<path d="M 1561.35 1169.41 C 1568.19 1168.88 1572.48 1168.15 1578.97 1170.83 C 1616.85 1186.43 1651.71 1205.29 1670.45 1242.87 C 1657.98 1250.29 1628.9 1261.92 1614.25 1268.49 L 1606.52 1271.83 C 1577.48 1220.53 1556.53 1203.9 1505.84 1176.66 C 1523.73 1175.17 1542.44 1170.98 1561.35 1169.41 z" fill="rgb(253,253,246)" transform="translate(0,0)"></path>
<path d="M 1527.64 1590.07 C 1528.64 1590.17 1527.92 1590.04 1529.6 1591.04 C 1531.39 1597.78 1532.72 1625.23 1533.18 1633.81 C 1514.7 1639.42 1496.51 1648.01 1478.39 1654.67 C 1446.92 1666.23 1423.1 1683.02 1396.63 1702.97 L 1394.3 1703.94 C 1391.89 1700.42 1392.37 1660.76 1392.25 1654.09 C 1429.83 1617.75 1478.4 1604.48 1527.64 1590.07 z" fill="rgb(253,253,246)" transform="translate(0,0)"></path>
<path d="M 1424.37 1122.99 C 1434.65 1123.13 1498.45 1143.96 1512.01 1148.27 C 1449.69 1157.7 1401.84 1167.57 1341.34 1187.63 C 1331.53 1191.17 1320.74 1196.32 1311.13 1200.63 C 1296.11 1195.85 1280.44 1191.58 1265.25 1187.24 C 1307.08 1161.96 1377.74 1138.6 1424.37 1122.99 z" fill="rgb(253,253,246)" transform="translate(0,0)"></path>
<path d="M 919.521 1069.07 C 928.995 1078.54 934.474 1086.5 945.183 1096.28 C 913.678 1112.03 889.502 1125.93 862.826 1149.7 C 855.641 1156.1 835.268 1178.49 829.886 1181.76 L 827.415 1180.9 C 814.549 1171.68 808.771 1166.4 797.674 1155.02 C 831.087 1120.24 876.965 1091.4 919.521 1069.07 z" fill="rgb(253,253,246)" transform="translate(0,0)"></path>
<path d="M 791.963 1160.5 C 794.441 1161.49 819.377 1184.44 825.361 1188.73 C 810.521 1207.48 801.285 1220.17 790.271 1241.86 C 786.149 1249.97 775.22 1273.81 770.978 1279.63 C 767.992 1280 765.326 1278.32 762.437 1277.04 C 747.3 1270.04 740.6 1266.11 726.777 1256.73 C 742.749 1222.16 766.779 1188.9 791.963 1160.5 z" fill="rgb(253,253,246)" transform="translate(0,0)"></path>
<path d="M 1643.53 1538.77 C 1646.72 1541.6 1651.8 1573.11 1652.76 1578.84 C 1626.7 1606.85 1580.63 1621.12 1544.33 1631.67 L 1541.73 1631.59 C 1539.45 1628.63 1537.83 1593.9 1537.14 1587.31 C 1574.95 1576.96 1613.94 1565.06 1643.53 1538.77 z" fill="rgb(253,253,246)" transform="translate(0,0)"></path>
<path d="M 1253.99 1192.86 C 1259.48 1191.95 1290.55 1202.13 1298.47 1204.68 C 1251.69 1230.05 1226.8 1247.43 1184.16 1277.51 C 1168.33 1272.08 1154.25 1269.99 1137.68 1267.44 C 1146.65 1258.87 1162.61 1248.9 1173.34 1241.71 C 1198.86 1224.59 1226.41 1206.46 1253.99 1192.86 z" fill="rgb(253,253,246)" transform="translate(0,0)"></path>
<path d="M 1383.83 1660.87 C 1386.02 1664.16 1384.98 1704.26 1384.94 1711.41 C 1349.29 1739.21 1312.49 1765.48 1274.62 1790.16 L 1273.32 1788.88 C 1272.46 1779.65 1272.98 1765.53 1273.05 1755.94 C 1302.82 1731.47 1335.21 1714.82 1359.82 1684.15 C 1365.76 1676.76 1376.58 1667.48 1383.83 1660.87 z" fill="rgb(253,253,246)" transform="translate(0,0)"></path>
<path d="M 1128.6 979.234 C 1133.83 984.314 1150.68 1012.75 1157.46 1021.58 C 1134.3 1030.56 1095.88 1039.35 1070.26 1047.32 C 1068.43 1045.81 1067.5 1045.21 1065.55 1043.86 C 1052.96 1037.61 1040.76 1027.7 1030.63 1018.02 C 1056.43 1006.13 1101.67 988.164 1128.6 979.234 z" fill="rgb(253,253,246)" transform="translate(0,0)"></path>
<path d="M 1022.3 1020.91 C 1023.71 1021.36 1040.82 1037.32 1044.32 1039.7 C 1048.9 1042.82 1056.01 1047.91 1060.97 1051.08 C 1027.51 1063.95 995.941 1073.58 962.25 1088.42 L 952.348 1092.74 C 942.772 1084.11 935.066 1075.64 926.828 1065.82 C 936.273 1059.86 949.789 1053.78 960.124 1048.86 C 980.557 1038.91 1001.29 1029.59 1022.3 1020.91 z" fill="rgb(253,253,246)" transform="translate(0,0)"></path>
<path d="M 1130.26 1273.89 C 1141.99 1275.61 1164.08 1277.96 1173.32 1283.55 C 1171.61 1286.33 1156.2 1297.48 1152.34 1300.42 C 1130.29 1317.24 1114.55 1336.52 1097.82 1358.3 C 1082.2 1355.07 1066.11 1351.2 1050.51 1347.67 C 1064.97 1327.18 1108.23 1286.04 1130.26 1273.89 z" fill="rgb(253,253,246)" transform="translate(0,0)"></path>
<path d="M 1161.64 1029.1 L 1162.42 1028.83 C 1165.51 1029.33 1168.74 1032.71 1171.3 1034.91 C 1133.13 1060.46 1069.13 1076.68 1025.23 1093.76 C 1010.92 1099.32 996.496 1106.26 982.005 1111.07 C 979.858 1111.78 976.421 1109.2 974.326 1107.92 C 969.632 1105.07 964.96 1101.76 960.407 1098.66 C 1005.02 1076.34 1062.69 1058.76 1110.71 1043.65 C 1127.35 1038.42 1145.51 1034.52 1161.64 1029.1 z" fill="rgb(253,253,246)" transform="translate(0,0)"></path>
<path d="M 950.449 1102.78 C 955.273 1103.06 966.447 1112.18 971.179 1115.59 C 925.398 1137.38 891.732 1158.83 856.315 1195.36 C 855.096 1196.62 855.631 1196.07 853.584 1196.66 C 847.719 1194.27 842.933 1190.67 837.653 1187.14 C 868.115 1149.11 906.822 1123.17 950.449 1102.78 z" fill="rgb(253,253,246)" transform="translate(0,0)"></path>
<path d="M 1532.68 1643.18 C 1535.3 1645.68 1535.42 1657.56 1535.71 1661.67 C 1468.97 1684.42 1452.12 1693.37 1395.29 1735.21 C 1394.76 1735.15 1394.22 1735.09 1393.69 1735.03 C 1392.51 1729.94 1392.91 1722.07 1392.94 1716.63 C 1434.53 1679.15 1480.09 1659.84 1532.68 1643.18 z" fill="rgb(253,253,246)" transform="translate(0,0)"></path>
<path d="M 1377.89 1111 C 1382.73 1110.35 1405.24 1117.27 1411.26 1118.95 C 1360.16 1136.26 1312.93 1152.22 1265.19 1177.91 C 1261.57 1179.93 1257.55 1181.87 1253.82 1183.77 C 1246.75 1181.72 1240.36 1179.59 1233.39 1177.2 C 1283.69 1147.27 1323.61 1131.08 1377.89 1111 z" fill="rgb(253,253,246)" transform="translate(0,0)"></path>
<path d="M 1384.52 1627.78 C 1385.65 1633.53 1385.43 1641.92 1385.48 1648.04 C 1365.66 1667.46 1344.65 1689.38 1324.28 1707.86 C 1310.04 1720.78 1289.15 1733.35 1273.48 1745.8 C 1272.73 1739.62 1273.04 1728.15 1273.02 1721.56 C 1290.21 1709.85 1309.58 1694.29 1325.07 1680.4 C 1345.22 1662.31 1362.52 1643.89 1384.52 1627.78 z" fill="rgb(253,253,246)" transform="translate(0,0)"></path>
<path d="M 906.141 1049.04 C 909.51 1052.46 913.117 1058.64 915.817 1062.83 C 872.277 1082.6 828.802 1115.36 793.84 1147.81 C 789.89 1145.54 786.662 1137.92 784.537 1133.65 C 824.594 1094.35 856.106 1072.59 906.141 1049.04 z" fill="rgb(253,253,246)" transform="translate(0,0)"></path>
<path d="M 1713.16 1475.85 C 1715.98 1478.44 1719.02 1502 1719.93 1507.51 C 1699.84 1521.55 1680.62 1553.16 1660.22 1572.91 C 1656.61 1561.05 1654.25 1545.8 1652.03 1533.4 C 1672.92 1518.06 1691.65 1492.41 1713.16 1475.85 z" fill="rgb(253,253,246)" transform="translate(0,0)"></path>
<path d="M 1310.92 1207.84 C 1317.52 1208.61 1330.35 1213.95 1337.05 1216.56 C 1296.03 1233.45 1256.83 1258.25 1220.97 1284.14 C 1217.72 1285.82 1201.2 1280.79 1196.35 1279.56 C 1223.85 1254.47 1277.47 1224.88 1310.92 1207.84 z" fill="rgb(253,253,246)" transform="translate(0,0)"></path>
<path d="M 1527.03 1562.17 C 1529.53 1565.53 1529.06 1576.69 1529.1 1581.28 C 1478.85 1596.35 1434.9 1608.34 1393.7 1641.64 L 1392.83 1641.05 C 1392 1635.23 1392.38 1628.92 1392.54 1623.01 C 1416.79 1599.94 1494.74 1572.43 1527.03 1562.17 z" fill="rgb(253,253,246)" transform="translate(0,0)"></path>
<path d="M 1384.57 1722.73 C 1385.38 1726.57 1385.56 1737.58 1385.74 1742.07 C 1354.51 1771.49 1309.41 1794.08 1274.18 1824.85 C 1272.18 1821.81 1272.92 1804.15 1272.96 1799.33 C 1303.2 1783.13 1355.41 1743.87 1384.57 1722.73 z" fill="rgb(253,253,246)" transform="translate(0,0)"></path>
<path d="M 1655.56 1588.84 C 1656.92 1591.82 1659.73 1602.24 1660.78 1605.82 C 1627.62 1636.74 1588.05 1646.91 1545.33 1659.65 C 1543.72 1659.78 1544.63 1659.92 1542.79 1658.56 C 1541.15 1652.75 1541.14 1647.54 1540.76 1641.51 C 1580.94 1628.24 1623.29 1617.03 1655.56 1588.84 z" fill="rgb(253,253,246)" transform="translate(0,0)"></path>
<path d="M 1186.43 1285.89 C 1189.99 1285.74 1206.95 1290.18 1211.47 1291.27 C 1183.96 1311.09 1149.15 1335.59 1134.03 1366.8 C 1124.42 1364.16 1115.84 1362.2 1106.15 1360.09 C 1127.04 1332.16 1156.63 1304.42 1186.43 1285.89 z" fill="rgb(253,253,246)" transform="translate(0,0)"></path>
<path d="M 777.818 1138.66 C 780.377 1140.69 784.959 1150.58 786.801 1154.15 C 771.608 1172.4 759.515 1187.26 746.216 1206.89 C 740.557 1215.24 723.077 1248.14 720.018 1251.23 L 718.204 1251.22 C 713.769 1247.59 709.569 1243.5 705.376 1239.57 C 721.454 1204.34 750.458 1166 777.818 1138.66 z" fill="rgb(253,253,246)" transform="translate(0,0)"></path>
<path d="M 1221.46 1182.76 C 1225.34 1182.67 1240.18 1187.42 1244.78 1188.79 C 1198.84 1213.76 1170.29 1232.76 1128.48 1263.68 L 1128.14 1264.1 C 1124.6 1264.93 1110.89 1261.15 1106.35 1260.11 C 1134.6 1234.7 1187.82 1204.22 1221.46 1182.76 z" fill="rgb(253,253,246)" transform="translate(0,0)"></path>
<path d="M 1639.1 1510.85 C 1641.33 1512.22 1642.56 1525.78 1643.06 1529.12 C 1614.06 1555.95 1575.92 1568.28 1538.52 1578.88 L 1537.3 1578.57 C 1535.51 1575.49 1535.25 1564.82 1534.96 1560.58 C 1576.88 1547.22 1603.39 1538.59 1639.1 1510.85 z" fill="rgb(253,253,246)" transform="translate(0,0)"></path>
<path d="M 832.466 1193.61 C 838.175 1196.8 843.906 1200.18 849.583 1203.45 C 830.866 1226.41 815.48 1249.84 805.468 1277.92 C 804.148 1281.61 802.541 1287.26 799.989 1289.92 L 797.752 1289.86 C 791.549 1288.14 784.773 1285.61 778.62 1283.47 C 793.674 1249.24 807.221 1221.56 832.466 1193.61 z" fill="rgb(253,253,246)" transform="translate(0,0)"></path>
<path d="M 1447.62 1167.24 C 1457.25 1165.92 1468.39 1170.93 1477.84 1174.2 C 1434.96 1182.44 1392.93 1194.54 1352.24 1210.37 C 1343.18 1213.53 1333.11 1207.56 1323.89 1203.71 C 1355.98 1188.42 1412.76 1174.34 1447.62 1167.24 z" fill="rgb(253,253,246)" transform="translate(0,0)"></path>
<path d="M 1096.97 1267.86 C 1103.52 1267.95 1112.27 1270.01 1118.59 1271.58 C 1088.12 1295.95 1064.67 1314.11 1041.66 1346.19 C 1033.77 1344.87 1025.93 1343.27 1018.15 1341.42 C 1031.82 1320.96 1076.07 1282.88 1096.97 1267.86 z" fill="rgb(253,253,246)" transform="translate(0,0)"></path>
<path d="M 1707.67 1441.69 C 1710.83 1444.92 1712.44 1460.16 1713.34 1465.72 C 1696.21 1475.68 1671.03 1507.16 1652.58 1522.7 L 1650.64 1522.43 C 1648.91 1517.79 1648.25 1509.53 1647.62 1504.27 C 1665.94 1483.86 1686.95 1458.92 1707.67 1441.69 z" fill="rgb(253,253,246)" transform="translate(0,0)"></path>
<path d="M 1720.7 1515.66 C 1723.64 1518.1 1727.25 1532.58 1728.65 1537.27 C 1717.1 1546.78 1705.85 1560.72 1695.73 1572.04 C 1687.25 1581.56 1678.25 1590.61 1668.79 1599.15 L 1667.65 1598.67 C 1664.74 1593.92 1663.16 1588.17 1661.37 1582.82 C 1685.33 1561.97 1698.39 1537.3 1720.7 1515.66 z" fill="rgb(253,253,246)" transform="translate(0,0)"></path>
<path d="M 1011.83 1001.02 C 1013.33 1002.39 1017.94 1011.33 1019.31 1013.84 C 986.511 1027.85 954.161 1042.9 922.308 1058.96 C 918.716 1054.7 916.393 1050.78 913.431 1046.11 C 940.972 1031.17 982.915 1013.78 1011.83 1001.02 z" fill="rgb(253,253,246)" transform="translate(0,0)"></path>
<path d="M 1118.92 957.922 C 1121.75 959.31 1124.51 968.448 1125.78 971.817 C 1092.44 982.68 1060.24 998.823 1026.35 1009.88 C 1022.89 1005.56 1022.12 1003.17 1019.92 998.165 C 1049.64 986.231 1090.84 971.44 1118.92 957.922 z" fill="rgb(253,253,246)" transform="translate(0,0)"></path>
<path d="M 379.322 1176.45 C 400.036 1178.23 415.174 1205.78 404.998 1224.3 C 393.453 1229.79 384.204 1212.08 381.175 1203.28 C 378.033 1194.15 377.185 1185.84 379.322 1176.45 z" fill="rgb(253,253,246)" transform="translate(0,0)"></path>
<path d="M 1526.73 1153.29 C 1530.68 1153.06 1550.7 1160.51 1555.65 1162.27 C 1539.35 1163.47 1513.88 1168.07 1497.24 1170.52 L 1490.76 1171.82 C 1484.45 1168.85 1476.3 1166.11 1469.61 1163.68 C 1487.76 1159.36 1509.3 1157.98 1526.73 1153.29 z" fill="rgb(253,253,246)" transform="translate(0,0)"></path>
<path d="M 577.617 1107.89 C 592.582 1108.05 609.581 1121.41 606.957 1137.99 C 606.228 1142.6 601.982 1144.78 598.243 1147.07 C 595.542 1148.31 595.462 1148.49 592.57 1148.91 C 591.66 1146.34 592.052 1143.37 592.7 1140.75 C 597.73 1120.31 584.368 1120.63 576.243 1109.93 L 577.617 1107.89 z" fill="rgb(253,253,246)" transform="translate(0,0)"></path>
<path d="M 370.483 1185.69 C 370.802 1187.06 371.07 1192.25 371.353 1194.26 C 373.38 1208.68 375.014 1211.45 383.567 1222.42 L 383.101 1223.65 C 366.646 1216.39 363.935 1201.13 370.483 1185.69 z" fill="rgb(253,253,246)" transform="translate(0,0)"></path>
<path d="M 1522.53 263.431 C 1595.04 259.508 1691.03 266.717 1761.12 282.007 C 1812.74 293.267 1907.91 320.609 1938.07 367.57 C 1940.86 371.922 1945.81 381.677 1946.23 386.669 C 1948.65 415.077 1938.8 458.214 1932.7 485.459 C 1911.01 582.31 1865.09 674.773 1782.88 733.996 C 1772.3 741.571 1761.2 748.381 1749.65 754.375 C 1742.2 758.235 1731.38 763.174 1724.56 767.501 L 1723.8 767.992 C 1721.91 777.981 1720.53 784.842 1713.61 792.927 C 1689.17 821.481 1632.97 829.861 1597.76 833.231 L 1596.91 833.344 C 1544.63 839.967 1408.02 836.826 1399.78 767.943 C 1364.36 749.642 1336.29 732.996 1306.43 706.393 C 1231.77 639.871 1177.59 503.091 1172.48 404.441 C 1171.58 387.101 1178.09 371.494 1189.63 358.784 C 1255.44 286.27 1429.66 268.296 1522.53 263.431 z" fill="rgb(76,27,8)" transform="translate(0,0)"></path>
<path d="M 1541.69 270.455 C 1642.24 267.304 1755.85 281.27 1850.23 317.271 C 1882.82 329.702 1935.72 354.344 1939.75 395.039 C 1940.92 406.91 1930.11 426.532 1921.08 434.601 C 1861.52 487.82 1756.09 506.914 1679.69 514.896 C 1646.93 518.09 1614.04 519.845 1581.12 520.158 C 1525.72 520.495 1470.36 517.313 1415.37 510.629 C 1352.87 502.408 1249.08 480.343 1201.52 437.468 C 1191.38 428.333 1180.17 416.227 1179.81 401.81 C 1179.42 386.334 1188.35 371.375 1198.73 360.488 C 1264.36 291.681 1449.73 272.873 1541.69 270.455 z" fill="rgb(253,253,246)" transform="translate(0,0)"></path>
<path d="M 1519.17 291.443 C 1625.23 288.11 1737.41 295.6 1837.34 333.951 C 1858.85 342.21 1882.16 352.314 1899.91 367.24 C 1907.68 373.772 1915.69 383.176 1916.28 393.731 C 1916.81 403.088 1909.99 413.729 1903.88 420.369 C 1853.72 474.94 1676.79 496.537 1601.88 498.96 C 1493.4 500.781 1373.51 493.377 1270.95 454.295 C 1187.7 422.569 1173.8 377.899 1265.12 340.824 C 1346.7 307.704 1431.22 295.185 1519.17 291.443 z" fill="rgb(76,27,8)" transform="translate(0,0)"></path>
<path d="M 1513.41 299.42 C 1526.67 298.249 1552.99 298.444 1567.32 298.582 C 1663.38 300.173 1758.5 309.199 1847.98 346.659 C 1921.45 377.418 1930.29 407.78 1853.12 444.075 C 1836.06 452.098 1816.38 456.554 1798.14 461.687 C 1795.87 457.774 1792.67 452.576 1789.55 449.29 C 1756.02 413.903 1712.38 398.791 1665.94 416.142 C 1639.85 405.296 1623.59 403.182 1596.01 401.323 C 1559.85 401.816 1533.43 407.624 1500.87 422.225 C 1451.22 401.993 1376.05 421.77 1349.85 470.212 C 1289.09 456.52 1127.24 407.941 1264.97 349.357 C 1343.69 315.87 1428.63 304.553 1513.41 299.42 z" fill="rgb(209,190,177)" transform="translate(0,0)"></path>
<path d="M 1579.69 409.408 C 1610.53 405.55 1655.36 415.973 1680.69 435.064 C 1686.29 439.284 1699.28 459.243 1706.56 455.204 L 1706.84 453.986 C 1703.71 441.968 1684.3 427.726 1674.85 420.742 C 1705.21 413.458 1731.37 416.81 1758.11 433.521 C 1770.99 441.571 1783.02 450.224 1789.98 464.152 C 1700.51 487.851 1618.96 492.274 1526.84 490.811 C 1505.49 489.613 1368.77 480.105 1359.52 469.913 C 1360.49 461.394 1379.13 448.128 1386.07 443.429 C 1416.88 422.576 1455.6 418.069 1491.45 425.963 C 1484.76 429.001 1478.11 432.104 1471.48 435.274 C 1464.19 438.831 1422.5 460.943 1428.52 471.146 C 1430.91 471.359 1433.86 470.922 1435.82 469.306 C 1475.11 436.926 1529.87 414.615 1579.69 409.408 z" fill="rgb(253,253,246)" transform="translate(0,0)"></path>
<path d="M 1579.15 436.422 C 1590.61 435.644 1630.78 438.557 1634.59 451.781 L 1633.36 453.509 C 1626.94 456.51 1620.1 450.344 1610.5 447.496 L 1609.09 447.085 C 1594.69 443.328 1581.13 443.956 1566.55 445.864 C 1560.98 446.592 1552.25 448.887 1547.59 445.823 C 1548.2 436.02 1571.75 436.88 1579.15 436.422 z" fill="rgb(76,27,8)" transform="translate(0,0)"></path>
<path d="M 1539.98 457.316 C 1552.76 456.208 1595.21 459.404 1601.18 472.241 L 1599.78 473.573 C 1595.04 474.507 1593.78 473.983 1589.24 472.404 C 1569.19 465.127 1555.31 464.911 1534.45 466.948 C 1529.87 467.395 1529 466.918 1526.35 464.437 C 1525.8 458.492 1535.5 457.951 1539.98 457.316 z" fill="rgb(76,27,8)" transform="translate(0,0)"></path>
<path d="M 1729.38 436.437 C 1737.22 436.994 1749.54 444.663 1754.27 450.868 C 1756.49 453.769 1755.99 454.886 1755.49 458.151 C 1747.72 458.782 1735.27 446.588 1729.51 441.468 C 1728.43 440.5 1729.21 437.974 1729.38 436.437 z" fill="rgb(76,27,8)" transform="translate(0,0)"></path>
<path d="M 1183.34 430.569 C 1189.37 434.774 1193.54 442.172 1199.45 446.808 C 1303.75 528.661 1553.25 535.613 1681.12 522.596 C 1746.5 515.94 1850.08 496.12 1905.27 458.263 C 1916.88 450.297 1926.86 440.52 1935.73 429.633 C 1916.18 566.3 1853.87 703.211 1719.57 760.274 C 1698.49 769.233 1684.76 776.673 1661.49 781.485 C 1706.09 762.002 1745.08 733.517 1773.89 693.907 C 1799.04 659.857 1813.72 619.204 1816.1 576.935 C 1816.53 568.072 1818.51 551.605 1810.88 546.132 C 1809.41 546.446 1808.02 546.789 1808.05 548.642 C 1808.28 562.197 1809.16 573.704 1807.62 587.433 C 1803.48 621.807 1791.21 654.7 1771.83 683.392 C 1733.85 739.616 1667.52 779.322 1601.31 792.051 C 1644.83 761.526 1671.9 732.627 1695.34 684.467 C 1710.56 653.195 1720.1 621.291 1721.53 586.316 C 1721.8 579.621 1722.38 570.525 1720.2 564.191 C 1717.88 562.656 1719.14 562.959 1716.27 563.407 C 1712.44 567.637 1714.65 577.092 1714.4 582.566 C 1710.95 655.625 1670.91 730.774 1611.67 773.91 C 1595.18 785.92 1591.15 792.909 1569.8 793.053 C 1577.33 780.978 1582.28 771.28 1588.07 758.575 C 1597.7 736.357 1603.78 711.89 1608.33 688.129 C 1611.35 672.349 1624.29 580.592 1616.15 570.378 C 1615.2 569.179 1614.47 569.461 1613.07 569.297 C 1611.8 570.247 1610.66 570.823 1610.63 572.726 C 1609.26 653.785 1603.56 721.957 1560.27 793.598 L 1549.06 793.399 C 1507.03 729.861 1493.47 654.458 1497.03 579.685 C 1497.19 576.392 1496.59 573.313 1492.97 572.946 C 1491.81 573.929 1490.36 576.011 1490.26 577.491 C 1484.97 654.73 1499.78 727.69 1539.46 793.741 C 1530.87 793.319 1519.25 793.029 1511.07 791.288 C 1441.3 731.461 1396.6 674.494 1392.14 579.627 C 1392.02 577.105 1392 574.766 1390.08 573.29 L 1387.46 573.918 C 1377.03 586.38 1395.6 647.08 1401.58 663.752 C 1420.08 715.373 1455.33 750.125 1493.01 787.437 C 1489.57 786.457 1486.16 785.373 1482.78 784.184 C 1463.39 777.375 1446.58 768.019 1429.2 757.734 C 1371.79 723.763 1327.8 676.565 1310.86 610.769 C 1307.59 599.544 1305.85 588.382 1304.26 576.851 C 1303.32 570.069 1305.46 554.729 1297.51 552.905 L 1296.09 554.45 C 1293.77 563.068 1296.7 577.5 1297.84 586.557 C 1307.22 661.29 1357.3 724.902 1421.36 762.017 C 1430.82 767.501 1444.31 773.406 1452.69 779.895 C 1405.47 764.546 1360.43 742.026 1322.18 709.787 C 1257.1 654.953 1216.91 570.373 1195.01 489.506 C 1189.66 469.757 1185.22 450.862 1183.34 430.569 z" fill="rgb(253,253,246)" transform="translate(0,0)"></path>
<path d="M 1714.84 771.17 C 1713.53 778.389 1711.13 782.326 1707.43 788.329 C 1670.26 834.99 1506.86 834.378 1454.36 813.457 C 1429.39 803.503 1419.51 795.256 1407.95 771.768 C 1412.21 773.374 1416.45 775.034 1420.67 776.748 C 1500.07 808.557 1589.27 808.611 1671.24 787.254 C 1686.89 783.175 1700.06 777.485 1714.84 771.17 z" fill="rgb(253,253,246)" transform="translate(0,0)"></path>
<path d="M 925.177 49.7611 C 936.615 52.0367 922.849 84.4487 920.329 91.5203 C 894.072 165.22 828.229 218.544 759.065 250.637 C 731.702 294.82 704.562 339.141 677.646 383.598 C 687.251 379.231 718.96 361.608 725.944 356.219 C 763.374 327.122 798.204 296.315 844.743 282.247 C 886.06 269.758 930.191 267.468 973.027 263.969 C 978.842 263.494 988.104 262.051 993.306 264.757 C 994.197 266.156 995.597 268.06 994.461 269.757 C 980.006 291.336 934.355 322.76 913.69 334.144 C 898.653 342.504 882.762 349.224 866.29 354.189 C 834.095 363.897 758.823 375.421 727.022 365.686 C 707.229 376.859 687.248 387.696 667.088 398.191 C 661.049 412.403 650.6 432.563 643.263 446.259 C 607.69 512.673 568.614 576.51 521.035 634.967 C 545.263 624.657 573.51 614.944 598.318 606.205 C 608.136 592.796 621.931 572.82 629.986 558.399 C 650.606 521.484 660.515 489.876 693.301 460.715 C 722.356 434.873 753.985 417.345 791.002 405.301 C 796.416 403.539 805.512 399.788 810.759 400.02 C 821.188 405.817 805.492 432.378 801.853 440.57 C 772.784 506.02 716.059 543.898 653.005 572.194 C 640.346 577.875 619.756 589.538 611.77 600.704 L 610.873 601.969 C 630.244 596.929 649.108 591.959 668.614 587.452 C 678.273 585.22 706.102 581.455 712.89 578.295 C 732.409 569.207 754.645 552.871 772.737 540.71 C 802.337 520.814 839.674 509.87 874.057 502.563 C 892.478 498.647 995.782 482.321 1005.87 489.012 C 1006.4 499.577 967.221 526.548 958.18 533.539 C 885.153 590.008 794.528 580.461 708.603 589.128 C 643.319 595.714 573.856 621.657 513.703 646.742 C 509.691 648.44 483.463 680.826 477.929 686.781 C 468.073 697.466 457.881 707.836 447.368 717.875 C 437.336 727.375 425.122 738.013 416.384 748.424 C 437.388 745.489 473.934 727.609 495.987 719.769 C 566.077 694.4 639.908 683.799 714.162 692.47 C 721.805 693.362 745.188 693.159 748.905 698.472 C 746.717 707.232 708.271 727.326 698.548 732.6 C 684.143 740.413 667.318 746.564 651.78 751.839 C 600.162 769.361 547.463 765.738 494.247 761.635 L 407.6 755.309 C 387.421 769.957 364.807 791.783 343.805 807.53 C 272.379 861.638 194.082 906.018 110.968 939.504 C 105.037 941.867 92.6878 945.528 86.7316 942.968 L 86.8598 941.686 C 90.935 938.641 135.188 920.679 144.825 916.399 C 185.462 898.354 216.68 881.418 254.733 859.06 C 261.638 855.135 293.108 836.176 299.985 828.685 C 301.315 824.08 301.985 814.489 302.707 810.215 C 305.612 793.004 311.949 777.25 301.797 761.047 C 290.826 743.538 275.39 726.809 262.019 711.022 C 219.267 660.542 212.597 594.995 221.228 531.553 C 221.908 526.545 222.482 517.712 226.66 514.429 C 234.189 516.946 262.256 552.569 268.42 560.654 C 330.209 641.715 323.816 727.215 309.391 822.545 C 321.041 813.127 335.117 804.13 347.438 794.368 C 383.925 766.031 418.582 735.413 451.202 702.699 C 447.84 668.131 450.388 661.906 425.665 635.807 C 389.795 598.111 354.173 565.754 342.473 512.454 C 340.025 501.304 329.471 422.711 343.887 420.357 C 348.279 422.354 359.72 433.165 364.053 437.085 C 411.602 479.356 441.8 534.153 449.434 597.693 C 452.472 622.974 451.814 648.583 455.944 673.712 C 457.105 680.774 457.489 688.396 457.855 695.612 C 486.118 667.295 525.196 621.273 547.142 587.084 C 544.803 579.185 543.426 567.351 541.792 558.883 C 538.28 541.192 532.398 524.056 524.304 507.938 C 506.226 471.356 471.092 436.971 438.971 412.079 C 416.077 394.337 389.15 376.628 368.395 356.387 C 343.386 332.148 324.253 302.511 312.458 269.742 C 308.929 260.019 290.665 201.959 303.294 197.583 C 307 198.054 309.917 199.248 312.996 201.368 C 358.862 232.941 405.219 270.371 423.004 325.29 C 431.165 350.489 436.788 378.075 442.795 403.811 C 451.745 412.295 462.708 421.118 472.022 429.688 C 489.31 445.596 501.699 459.385 515.875 477.994 C 501.194 401.403 489.463 327.749 508.904 250.645 C 510.988 242.38 515.785 214.777 523.88 213.236 C 532.993 217.369 550.302 250.831 554.3 260.461 C 579.339 319.783 576.227 382.485 549.246 440.468 C 542.123 455.774 529.765 475.403 524.299 490.015 C 532.997 507.826 541.717 525.897 546.783 545.124 C 549.585 555.759 551.128 566.901 553.46 577.746 C 562.087 566.944 572.29 550.353 579.886 538.515 C 597.206 512.037 613.411 484.847 628.459 457.015 C 639.221 437.166 648.851 416.748 660.053 397.193 C 658.653 384.461 660.321 358.922 657.243 348.938 C 655.019 341.724 643.047 319.407 638.972 310.412 C 604.211 233.69 610.731 160.736 639.055 83.7357 C 640.344 80.2322 641.893 75.9698 645.325 74.4406 C 655.668 75.2885 674.374 117.039 678.443 126.936 C 701.179 182.227 698.342 241.916 681.138 298.184 C 676.369 313.781 668.156 330.055 665.5 346.21 C 664.956 352.055 667.54 378.238 668.085 385.582 C 685.9 353.394 706.746 321.797 725.203 289.971 C 730.008 281.686 747.466 255.626 749.942 248.994 C 755.912 233.01 756.354 216.934 763.513 198.501 C 786.74 138.686 827.718 106.561 881.437 75.736 C 897.144 66.723 907.176 57.9528 925.177 49.7611 z" fill="rgb(76,27,8)" transform="translate(0,0)"></path>
<path d="M 646.933 84.6138 C 654.196 94.4398 659.977 104.828 665.181 115.836 C 701.37 192.383 687.544 258.88 660.718 333.816 L 659.449 334.858 C 656.363 332.372 645.558 306.724 643.704 302.091 C 620.059 242.985 616.595 189.959 633.025 128.351 C 636.994 113.471 640.496 99.0028 646.933 84.6138 z" fill="rgb(162,163,128)" transform="translate(0,0)"></path>
<path d="M 639.406 697.422 C 666.063 695.179 709.006 698.616 735.284 702.161 C 667.923 746.826 619.94 758.099 540.516 756.941 C 509.177 755.105 473.523 752.607 442.339 749.289 C 514.257 719.395 560.366 702.298 639.406 697.422 z" fill="rgb(162,163,128)" transform="translate(0,0)"></path>
<path d="M 983.266 271.581 L 983.69 272.598 C 976.217 279.684 968.479 286.486 960.494 292.99 C 898.226 344.171 818.024 368.224 737.868 359.757 L 736.312 359.45 L 736.682 357.841 C 815.358 283.351 881.084 277.469 983.266 271.581 z" fill="rgb(162,163,128)" transform="translate(0,0)"></path>
<path d="M 229.453 526.364 C 235.262 531.782 244.92 544.245 250.222 550.592 C 280.543 586.895 301.018 625.524 308.2 672.91 C 309.801 683.472 314.514 749.162 308.896 756.665 C 300.185 742.377 278.655 718.925 267.157 704.709 C 224.016 651.37 222.252 591.342 229.453 526.364 z" fill="rgb(162,163,128)" transform="translate(0,0)"></path>
<path d="M 523.828 222.446 C 536.142 236.687 548.819 265.365 554.305 283.194 C 573.525 345.657 562.403 400.39 532.592 456.866 C 529.696 462.093 525.959 467.906 522.789 473.072 C 519.016 459.631 515.981 440.287 513.796 426.612 C 505.233 373.027 502.751 322.413 512.915 268.823 C 516.054 252.27 518.119 238.816 523.828 222.446 z" fill="rgb(162,163,128)" transform="translate(0,0)"></path>
<path d="M 920.099 59.9871 C 922.023 61.7979 919.896 66.6775 919.257 69.0371 C 896.582 152.757 835.924 202.339 762.169 241.069 C 759.847 238.945 761.971 232.443 762.538 229.607 C 780.544 139.551 848.848 104.732 920.099 59.9871 z" fill="rgb(162,163,128)" transform="translate(0,0)"></path>
<path d="M 981.492 496.587 C 984.557 496.28 987.345 495.623 990.118 496.721 C 985.535 508.46 923.292 547.01 911.373 552.05 C 855.197 575.808 792.607 575.819 732.44 579.563 C 729.697 579.913 730.005 579.837 727.22 579.675 C 727.011 579.964 786.458 541.281 790.476 539.197 C 846.346 510.227 919.195 499.628 981.492 496.587 z" fill="rgb(162,163,128)" transform="translate(0,0)"></path>
<path d="M 805.011 409.236 C 807.15 413.442 789.269 447.827 786.162 453.569 C 762.605 497.097 724.832 527.462 681.198 549.324 C 664.651 557.615 645.468 565.6 630.112 575.802 L 629.635 575.482 C 643.197 552.446 652.492 531.095 664.975 508.089 C 692.824 456.759 750.133 424.605 805.011 409.236 z" fill="rgb(162,163,128)" transform="translate(0,0)"></path>
<path d="M 345.13 430.977 C 351.285 435.203 363.917 447.485 369.401 452.86 C 423.581 505.95 445.418 571.364 445.059 646.337 C 426.112 624.857 406.653 604.911 387.851 583.116 C 349.671 538.859 340.016 488.316 345.13 430.977 z" fill="rgb(162,163,128)" transform="translate(0,0)"></path>
<path d="M 305.862 206.378 C 306.478 206.655 307.094 206.932 307.709 207.209 C 352.179 237.297 398.599 274.326 416.069 326.939 C 424.741 353.055 427.256 374.246 433.155 398.118 C 355.256 343.363 320.864 303.204 305.862 206.378 z" fill="rgb(162,163,128)" transform="translate(0,0)"></path>
<path d="M 1022.99 742.365 C 1038.28 741.21 1051.83 747.606 1062.06 757.388 C 1078.44 773.802 1091.67 788.762 1059.64 797.19 C 1045.04 801.032 1040.45 801.582 1024.76 800.965 C 1009.33 797.87 978.203 783.488 969.135 771.97 C 966.619 759.815 1010.73 743.753 1022.99 742.365 z" fill="rgb(76,27,8)" transform="translate(0,0)"></path>
<path d="M 996.155 772.569 C 1022.94 770.114 1043.22 773.309 1067.1 785.082 C 1061.02 788.226 1055.17 790.106 1048.73 792.377 C 1020.89 797.929 1003.56 787.332 979.684 773.612 L 996.155 772.569 z" fill="rgb(253,253,246)" transform="translate(0,0)"></path>
<path d="M 1017.22 750.226 C 1046.16 747.839 1055.99 758.626 1071.8 780.416 C 1062.21 776.014 1054.27 773.011 1044.1 770.42 C 1022.5 765.357 1002.89 766.684 980.873 767.752 C 992.98 758.935 1002.71 753.507 1017.22 750.226 z" fill="rgb(253,253,246)" transform="translate(0,0)"></path>
<path d="M 1102.78 714.427 C 1149.79 711.176 1170.3 725.68 1180.61 771.512 C 1172.27 774.119 1166.7 775.25 1158.13 776.667 C 1144.51 777.898 1134.17 778.354 1120.83 773.015 C 1107.39 767.633 1077.29 729.002 1083.55 716.702 C 1087.54 714.464 1097.62 714.641 1102.78 714.427 z" fill="rgb(76,27,8)" transform="translate(0,0)"></path>
<path d="M 1091.6 725.626 C 1114.78 729.572 1150.14 749.078 1167.44 765.474 L 1166.77 767.096 C 1126.93 777.667 1107.15 760.514 1091.6 725.626 z" fill="rgb(253,253,246)" transform="translate(0,0)"></path>
<path d="M 1102.5 721.405 C 1136.98 719.531 1154.97 724.018 1168.93 757.603 C 1163.91 755.331 1152.24 744.326 1146.08 741.115 C 1131.99 733.768 1117 727.96 1102.5 721.405 z" fill="rgb(253,253,246)" transform="translate(0,0)"></path>
<path d="M 1857.53 918.357 L 1858.59 918.276 C 1887.21 916.366 1905.51 943.757 1912.61 968.644 C 1915.29 978.03 1878.48 978.936 1872.17 978.992 C 1862.73 978.173 1853.73 976.195 1844.32 970.999 C 1834.37 965.88 1809.76 944.934 1817.97 932.686 C 1822.83 925.449 1848.79 919.356 1857.53 918.357 z" fill="rgb(76,27,8)" transform="translate(0,0)"></path>
<path d="M 1859.19 926.387 C 1884.02 924.98 1893.8 944.721 1902.85 964.165 C 1895.58 959.801 1890.2 956.709 1882.6 953.023 C 1866.1 945.679 1844.83 939.224 1827.28 935.079 C 1837.9 929.855 1847.56 927.645 1859.19 926.387 z" fill="rgb(253,253,246)" transform="translate(0,0)"></path>
<path d="M 1825.05 940.618 C 1841.58 941.108 1882.74 958.183 1896.83 967.378 L 1897.13 968.789 C 1865.94 975.729 1842.09 969.47 1825.05 940.618 z" fill="rgb(253,253,246)" transform="translate(0,0)"></path>
<path d="M 1769.16 899.26 C 1776.81 898.471 1797.71 897.369 1802.8 903.863 C 1802.63 910.471 1791.5 934.883 1786.95 941.199 C 1776.11 956.236 1766.8 961.464 1749.17 964.852 C 1737.07 965.579 1724.97 966.147 1712.85 966.554 C 1717.56 930.529 1731.58 906.274 1769.16 899.26 z" fill="rgb(76,27,8)" transform="translate(0,0)"></path>
<path d="M 1791.82 910.951 C 1792.06 918.384 1780.7 938.584 1775.03 944.194 C 1760.77 958.325 1745.76 957.978 1727.46 958.38 C 1727.67 945.099 1779.44 917.063 1791.82 910.951 z" fill="rgb(253,253,246)" transform="translate(0,0)"></path>
<path d="M 1772.95 906.368 C 1777.88 906.111 1785.07 906.442 1790.2 906.542 C 1764.7 921.485 1758.1 919.169 1732.69 942.384 L 1722.45 951.91 C 1733.37 925.277 1741.83 911.139 1772.95 906.368 z" fill="rgb(253,253,246)" transform="translate(0,0)"></path>
<path d="M 1865.61 814.292 C 1871.97 813.463 1892.34 812.154 1896.69 816.96 C 1897.98 824.095 1888.6 845.627 1883.76 852.317 C 1873.29 866.814 1864.36 874.838 1846.64 878.479 C 1838.85 879.192 1820.4 882.645 1815.53 876.493 C 1813.6 866.377 1819.04 844.146 1825.44 835.733 C 1835.91 821.98 1849.6 816.832 1865.61 814.292 z" fill="rgb(76,27,8)" transform="translate(0,0)"></path>
<path d="M 1824.04 866.907 C 1822.24 863.41 1823.84 856.767 1824.63 852.904 C 1829.08 831.134 1858.56 815.718 1879.68 821.491 L 1884.97 824.749 L 1887.55 824.206 C 1889.66 827.877 1882.12 842.134 1879.67 845.961 C 1867.5 864.929 1852.26 872.662 1829.88 872.307 L 1829.69 871.54 C 1827.53 869.307 1826.52 868.733 1824.04 866.907 z" fill="rgb(253,253,246)" transform="translate(0,0)"></path>
<path d="M 1824.04 866.907 C 1822.24 863.41 1823.84 856.767 1824.63 852.904 C 1829.08 831.134 1858.56 815.718 1879.68 821.491 C 1873.76 828.014 1855.88 839.845 1847.98 846.589 C 1843.66 850.269 1827.47 864.712 1824.04 866.907 z" fill="rgb(253,253,246)" transform="translate(0,0)"></path>
<path d="M 1824.04 866.907 C 1827.47 864.712 1843.66 850.269 1847.98 846.589 C 1855.88 839.845 1873.76 828.014 1879.68 821.491 L 1884.97 824.749 C 1875.56 831.945 1834.71 863.629 1829.69 871.54 C 1827.53 869.307 1826.52 868.733 1824.04 866.907 z" fill="rgb(76,27,8)" transform="translate(0,0)"></path>
<metadata><recraft-signature>{"signed_by": "recraft", "signature_b64": "uJzIuahhI0sb2dgo+HIBmtdUHNT4ZnojjqbU8mUPQRZaGchxj4sx7lba8GYeAaMVCQO8V3YiC5rOLbhGYw5tBg==", "signing_algo": "Ed25519", "generation_timestamp": 1778092723, "identifier": "f4ea46d1-f41f-4a7b-9af1-e1c5b5139a1b"}</recraft-signature></metadata></svg>