<svg xmlns="http://www.w3.org/2000/svg" height="1024" preserveAspectRatio="none" style="display: block;" version="1.1" viewBox="0 0 2048 2048" width="1024">
<defs>
	<linearGradient gradientUnits="userSpaceOnUse" id="Gradient1" x1="1269.82" x2="1275.99" y1="616.595" y2="624.432">
		<stop class="stop0" offset="0" stop-color="rgb(44,6,1)" stop-opacity="1"></stop>
		<stop class="stop1" offset="1" stop-color="rgb(81,16,5)" stop-opacity="1"></stop>
	</linearGradient>
	<linearGradient gradientUnits="userSpaceOnUse" id="Gradient2" x1="1288.28" x2="1281.42" y1="652.796" y2="628.384">
		<stop class="stop0" offset="0" stop-color="rgb(48,3,0)" stop-opacity="1"></stop>
		<stop class="stop1" offset="1" stop-color="rgb(91,23,6)" stop-opacity="1"></stop>
	</linearGradient>
	<linearGradient gradientUnits="userSpaceOnUse" id="Gradient3" x1="798.044" x2="804.659" y1="143.554" y2="134.481">
		<stop class="stop0" offset="0" stop-color="rgb(48,3,1)" stop-opacity="1"></stop>
		<stop class="stop1" offset="1" stop-color="rgb(75,19,4)" stop-opacity="1"></stop>
	</linearGradient>
	<linearGradient gradientUnits="userSpaceOnUse" id="Gradient4" x1="1419.63" x2="1426.71" y1="1094.62" y2="1110.12">
		<stop class="stop0" offset="0" stop-color="rgb(209,187,151)" stop-opacity="1"></stop>
		<stop class="stop1" offset="1" stop-color="rgb(252,232,205)" stop-opacity="1"></stop>
	</linearGradient>
	<linearGradient gradientUnits="userSpaceOnUse" id="Gradient5" x1="622.889" x2="624.684" y1="691.984" y2="707.358">
		<stop class="stop0" offset="0" stop-color="rgb(45,0,0)" stop-opacity="1"></stop>
		<stop class="stop1" offset="1" stop-color="rgb(73,17,10)" stop-opacity="1"></stop>
	</linearGradient>
</defs>
<path d="M 0 0 L 2048 0 L 2048 2048 L 0 2048 L 0 0 z" fill="rgb(252,249,239)" transform="translate(0,0)"></path>
<path d="M 894.065 335.106 C 901.262 310.751 904.052 290.181 909.522 265.341 C 921.995 211.247 937.722 148.867 973.638 105.233 C 999.645 73.6367 1015.69 108.036 1015.3 134.796 C 1014.52 187.625 984.44 231.278 953.124 271.377 C 941.305 286.511 930.699 299.638 917.283 313.111 C 914.575 316.143 906.812 324.441 905.22 327.648 C 934.86 310.714 963.515 289.391 992.874 271.426 C 1012.65 259.324 1037.82 246.145 1055.85 232.548 C 1065.32 225.403 1078.92 196.989 1090.67 184.859 C 1133.5 140.66 1199.76 92.9414 1264.19 99.9364 C 1274.2 101.995 1284.89 111.87 1280.21 122.514 C 1264.78 157.558 1221.82 178.327 1189.21 194.725 C 1152.07 213.399 1113.08 226.54 1073.36 238 C 1066.41 240.005 1050.38 257.456 1042.78 260.861 C 1014.61 278.429 987.363 295.726 959.946 314.416 C 978.219 307.736 998.686 300.179 1017.97 296.073 C 1067.67 285.485 1125.87 280.642 1173.89 299.602 C 1181.7 302.685 1197.08 313.857 1189.75 323.292 C 1179.03 337.097 1155.04 341.022 1138.9 344.487 C 1070.89 356.801 1002.38 335.679 935.835 332.752 C 924.789 338.009 910.609 347.549 900.079 354.275 L 846.989 388.121 L 813.823 408.797 C 809.763 411.297 798.615 417.781 795.452 420.438 C 800.194 421.339 823.149 415.629 829.414 414.495 C 908.475 400.188 998.058 411.078 1059.72 466.521 C 1065.52 471.732 1070.34 481.665 1061.01 486.868 C 1034.83 498.944 1001.91 494.228 975.024 486.976 C 921.898 470.706 871.409 450.448 817.796 435.583 C 806.248 432.381 796.3 431.407 784.997 429.342 C 739.273 464.764 695.465 501.071 654.166 541.587 C 649.214 546.444 643.651 551.637 638.48 556.277 C 663.305 547.919 689.938 537.618 715.163 531.966 C 772.028 519.224 838.994 522.901 891.99 548.748 C 942.032 573.153 910.527 586.803 874.555 590.119 C 815.108 595.599 759.53 581.602 701.592 570.855 C 677.672 566.449 655.553 566.671 631.734 564.813 C 591.54 604.51 533.142 676.992 501.356 725.007 C 508.403 718.902 518.598 709.333 526.393 704.513 C 584.458 669.221 656.644 647.973 724.818 651.371 C 750.862 652.67 796.621 663.18 816.323 682.106 C 831.33 696.52 797.235 710.239 787.041 713.415 C 690.925 743.363 595.702 710.413 497.466 732.405 C 486.512 746.603 478.465 760.971 469.008 776.003 C 438.051 825.209 417.03 878.018 394.108 931.224 C 401.562 925.243 418.09 912.513 423.705 905.64 C 425.63 907.122 427.54 908.54 429.381 910.125 C 421.08 914.203 417.919 918.452 411.48 922.943 C 387.815 939.445 386.821 951.053 377.728 977.73 C 360.047 1030.15 346.444 1083.85 337.039 1138.37 C 333.005 1162.37 330.736 1186.58 326.914 1210.55 L 327.492 1209.45 C 331.961 1200.77 334.592 1191.86 338.7 1183.23 C 348.615 1162.64 357.69 1140.03 369.4 1120.43 C 411.127 1050.58 479.894 996.187 556.865 970.249 C 571.108 965.449 599.444 959.335 612.94 967.067 C 642.244 983.858 598.018 1026.17 583.621 1038.02 C 557.036 1061.54 526.573 1079.4 495.919 1097.07 C 443.688 1127.17 382.725 1149.76 343.912 1198.01 C 333.731 1210.67 325.539 1221.8 323.446 1238.42 C 319.104 1272.9 318.059 1307.61 316.111 1342.26 C 327.201 1336.85 351.693 1325.67 361.51 1318.65 C 369.521 1309.11 377.176 1297.44 385.399 1288.22 C 408.246 1262.6 447.796 1217.51 486.161 1223.99 C 499.829 1226.3 497.153 1242.54 493.959 1252.25 C 537.486 1231.96 581.174 1208.18 624.693 1187.09 L 734.124 1133.11 C 753.761 1123.4 773.81 1113.67 793.369 1103.76 C 801.122 1099.84 812.943 1085.87 820.603 1079.7 C 844.811 1060.19 876.428 1039.02 905.136 1027.32 C 934.002 1015.55 968.605 1009.3 999.594 1006.97 C 1009.47 1006.23 1030.86 1008.71 1038.79 1005.81 C 1047.14 1002.76 1061.58 994.472 1070.04 990.222 C 1115.15 967.569 1156.98 953.068 1206.9 971.488 C 1235.5 982.043 1262.29 995.641 1289.73 1009.24 L 1386.63 1057.45 C 1400.62 1064.41 1434.27 1082.04 1447.37 1086.57 C 1439.82 1064.28 1436.28 1043.59 1458.8 1029.1 C 1494.7 1006 1535.09 987.733 1570.92 964.325 C 1519.72 935.76 1479.38 895.719 1463.7 838.247 C 1456.35 811.297 1445.25 758.085 1459.86 733.853 C 1480.27 700.013 1531.32 681.113 1568.11 671.131 C 1668.01 647.385 1816.95 650.437 1908.81 700.743 C 1925.27 709.754 1947.28 728.536 1951.09 746.539 C 1956.33 771.275 1941.32 823.704 1932.14 846.456 C 1926.58 860.218 1919.91 873.507 1912.21 886.194 C 1881.65 936.517 1832.42 972.709 1775.27 986.871 C 1771.45 987.817 1767.61 988.718 1763.76 989.573 C 1753.11 1004.44 1743.57 1008.14 1727.4 1015.63 C 1714.42 1021.64 1701.3 1027.85 1688.48 1034.18 L 1565.16 1095.44 C 1547.51 1104.03 1523.07 1114.3 1506.67 1122.95 L 1507.82 1123.65 C 1537.7 1141.6 1628.19 1173.91 1635.78 1208.76 C 1640.24 1229.26 1635.69 1286.91 1636.52 1311.13 C 1637.59 1342.09 1574.57 1367.87 1550.92 1381.01 C 1502.11 1408.13 1451.18 1433.16 1401.33 1458.77 L 1026.45 1649.56 L 861.428 1734.31 C 797.17 1767.41 735.832 1812.19 659.611 1783.72 C 635.429 1774.68 610.603 1759.08 587.588 1746.83 L 422.453 1657.37 L 284.128 1583.37 C 265.208 1573.26 244.941 1563.37 226.471 1552.99 C 215.531 1546.21 205.184 1529.65 203.157 1516.89 C 200.663 1501.21 202.817 1483.21 202.996 1467.32 C 203.227 1446.88 199.033 1422.85 211.288 1405.21 C 226.589 1383.18 255.816 1376.32 276.439 1361.95 C 249.25 1333.47 219.117 1307.06 193.176 1278.3 C 145.405 1225.33 97.6364 1159.17 97.0497 1085.1 C 96.9932 1077.98 97.5852 1067.38 102.185 1061.72 C 105.252 1060.33 106.48 1059.81 110.177 1061.5 C 166.968 1087.52 210.716 1165.91 235.883 1221.4 C 249.768 1252.01 258.955 1280.86 269.393 1312.21 C 273.768 1325.35 281.376 1345.83 284.286 1357.9 L 291.727 1353.38 C 294.803 1317.96 294.856 1282.67 299.187 1247.1 C 300.74 1234.35 308.621 1192.29 305.384 1183.67 C 271.718 1094.01 194.039 1026 174.786 929.33 C 170.22 906.404 166.919 884.197 171.109 861.082 C 172.61 852.802 179.056 817.557 191.467 821.003 C 206.105 825.069 221.289 850.593 229.336 862.568 C 269.943 931.84 276.117 1013.21 290.55 1090.4 C 295.908 1119.05 299.699 1146.04 310.562 1172.83 C 314.353 1125.31 327.013 1075.91 340.072 1030.18 C 347.627 1003.73 355.54 975.563 365.597 949.97 C 349.773 900.826 327.026 869.477 308.013 823.998 C 284.118 766.838 256.306 662.492 282.36 602.913 C 283.941 599.299 287.32 594.697 291.27 593.659 C 293.885 592.971 298.088 593.962 300.139 595.839 C 336.615 629.23 351.834 689.359 359.525 736.772 C 362.68 756.218 362.617 778.611 363.805 793.877 C 365.342 813.616 364.471 927.837 370.091 936.67 C 384.025 897.963 398.978 863.162 417.522 826.392 C 422.646 816.231 441.8 785.709 442.471 776.957 C 444.184 754.636 433.076 722.124 427.433 699.927 C 403.819 613.398 370.945 518.763 387.368 428.328 C 394.587 400.585 408.156 408.294 421.554 424.024 C 481.308 494.182 478.354 587.523 465.616 673.213 C 462.778 692.302 459.802 716.73 454.397 736.065 C 453.291 742.528 452.104 747.725 450.556 754.097 C 449.233 760.881 449.134 765.242 448.834 772.14 C 452.971 765.603 456.847 758.165 460.725 751.366 C 491.667 697.123 531.765 650.6 569.827 601.435 C 570.778 574.016 565.852 546.222 563.716 519 C 557.39 438.377 576.167 367.631 625.68 303.362 C 635.236 292.492 651.296 266.421 664.742 262.597 C 674.252 259.892 675.695 297.035 675.792 302.369 C 676.912 364.018 657.464 422.252 627.684 475.601 C 608.2 510.506 579.368 553.015 576.874 593.434 L 576.785 594.979 C 629.865 533.818 689.486 478.657 754.581 430.483 C 756.445 423.464 757.817 414.937 758.727 407.713 C 766.544 343.041 774.559 282.703 799.12 221.843 C 818.992 172.6 849.072 174.133 851.748 228.425 C 854.424 282.719 827.359 336.318 798.124 380.549 C 789.224 394.015 774.195 408.53 767.476 422.219 C 813.349 387.991 843.285 364.954 894.065 335.106 z" fill="rgb(62,5,2)" transform="translate(0,0)"></path>
<path d="M 443.125 737.556 C 439.159 723.502 436.524 708.214 432.148 693.928 C 411.511 626.502 392.181 558.289 388.648 487.409 C 387.89 472.187 388.24 429.961 398.954 416.861 C 405.454 408.913 426.072 438.135 429.844 443.745 C 484.29 524.702 468.668 636.358 451.574 726.907 L 450.474 734.084 L 448.833 734.06 L 446.472 745.766 L 444.57 742.151 C 443.238 739.7 443.642 740.447 443.125 737.556 z" fill="rgb(207,193,153)" transform="translate(0,0)"></path>
<path d="M 425.523 492.197 C 441.956 520.381 448.879 673.158 449.127 711.785 C 449.75 716.048 449.77 724.577 451.574 726.907 L 450.474 734.084 L 448.833 734.06 L 446.472 745.766 L 444.57 742.151 C 443.238 739.7 443.642 740.447 443.125 737.556 C 445.731 729.361 443.359 703.225 444.158 691.553 C 443.483 642.086 439.809 600.476 433.532 551.494 C 431.551 536.028 425.737 505.376 425.523 492.197 z" fill="rgb(45,4,1)" transform="translate(0,0)"></path>
<path d="M 444.158 691.553 C 445.133 701.886 445.712 731.941 444.57 742.151 C 443.238 739.7 443.642 740.447 443.125 737.556 C 445.731 729.361 443.359 703.225 444.158 691.553 z" fill="rgb(151,116,92)" transform="translate(0,0)"></path>
<path d="M 449.127 711.785 C 449.75 716.048 449.77 724.577 451.574 726.907 L 450.474 734.084 L 448.833 734.06 C 449.187 727.272 449.043 718.715 449.127 711.785 z" fill="rgb(192,167,135)" transform="translate(0,0)"></path>
<path d="M 902.617 325.036 C 903.462 319.866 904.64 314.729 905.763 309.596 C 920.785 240.926 933.889 167.674 976.759 109.92 C 980.383 104.208 993.213 93.2683 999.736 100.809 C 1013.23 116.404 1010.27 150.624 1005.27 168.495 C 995.121 204.796 971.964 236.903 949.61 266.511 C 938.834 280.784 928.048 296.239 916.109 309.091 L 915.386 309.857 L 917.283 313.111 C 914.575 316.143 906.812 324.441 905.22 327.648 L 903.657 328.719 L 902.261 328.436 L 902.617 325.036 z" fill="rgb(207,193,153)" transform="translate(0,0)"></path>
<path d="M 902.617 325.036 C 912.031 310.928 922.738 285.289 930.265 269.239 C 941.891 244.448 953.299 218.694 964.443 193.717 C 967.333 187.239 978.973 156.505 981.21 152.99 L 982.024 153.177 C 983.809 173.158 926.448 285.6 915.386 309.857 L 917.283 313.111 C 914.575 316.143 906.812 324.441 905.22 327.648 L 903.657 328.719 L 902.261 328.436 L 902.617 325.036 z" fill="rgb(45,4,1)" transform="translate(0,0)"></path>
<path d="M 448.833 734.06 L 450.474 734.084 C 450.34 735.854 450.15 737.576 449.805 739.318 L 450.372 740.851 C 452.989 738.928 452.025 738.462 454.397 736.065 C 453.291 742.528 452.104 747.725 450.556 754.097 C 448.207 754.571 449.41 754.568 446.947 754.029 C 445.329 750.342 446.042 750.411 446.472 745.766 L 448.833 734.06 z" fill="rgb(68,31,22)" transform="translate(0,0)"></path>
<path d="M 1052.74 1007.67 C 1108.63 984.312 1147.69 957.074 1209.91 983.087 L 1211.5 984.092 C 1226.2 988.404 1267.8 1009.44 1282.79 1016.59 C 1335.4 1041.69 1385.82 1069.38 1439.48 1092.51 C 1423.25 1099.92 1405.11 1108.85 1388.22 1113.76 C 1378.76 1108.72 1372.44 1104.67 1361.31 1108.22 C 1348.8 1112.2 1345.29 1118.4 1349.44 1131.26 C 1354.23 1146.1 1376.06 1155.94 1390.37 1150.13 C 1399.75 1146.33 1400.96 1137.23 1401.51 1128.14 C 1424.87 1120.9 1435.28 1116.85 1457.41 1105.15 C 1468.23 1114.97 1483.3 1121.38 1496.37 1128.02 L 1548.87 1155.1 C 1575.48 1168.64 1639.34 1192.03 1628.42 1230.69 C 1621.68 1254.53 1575.94 1271.95 1554.7 1282.61 L 1470.8 1325.44 L 1034.71 1546.49 L 879.747 1625.79 C 844.164 1644.27 809.56 1663.85 772.893 1680.2 C 752.61 1689.25 734.744 1697.7 712.198 1698.13 C 694.473 1698.47 672.543 1697.3 656.094 1690.27 C 633.091 1680.43 608.957 1666.65 587.232 1654.26 C 561.647 1639.56 535.864 1625.21 509.887 1611.21 L 318.531 1511.06 C 293.877 1497.96 245.564 1475.54 226.579 1457.46 C 219.359 1450.59 212.124 1441.99 211.955 1431.51 C 211.792 1421.49 217.629 1412.2 224.597 1405.46 C 248.833 1382 337.875 1342.04 372.202 1324.59 L 641.169 1189.22 L 742.98 1138.12 C 755.839 1131.69 770.249 1123.5 783.063 1117.85 C 723.041 1188.6 692.153 1296.04 773.889 1363.78 C 854.634 1429.18 976.339 1444.81 1076.96 1435.17 C 1151.64 1428.01 1253.98 1409.12 1303.16 1347.97 C 1365.02 1271.05 1348.44 1170.8 1279.05 1104.38 L 1277.13 1103 C 1271.39 1095.66 1257.76 1085.98 1249.95 1080.08 C 1193.74 1037.65 1121.85 1017.05 1052.74 1007.67 z" fill="rgb(187,148,115)" transform="translate(0,0)"></path>
<path d="M 1209.91 983.087 L 1211.5 984.092 C 1203.85 989.746 1145.83 1018.9 1136.17 1022.5 C 1152.16 1009.05 1189.88 994.636 1209.2 983.509 L 1209.91 983.087 z" fill="rgb(68,31,22)" transform="translate(0,0)"></path>
<path d="M 1277.13 1103 C 1296.3 1096.13 1316.22 1088.41 1335.42 1082 C 1329.6 1088.69 1289.02 1098.91 1279.05 1104.38 L 1277.13 1103 z" fill="rgb(93,62,47)" transform="translate(0,0)"></path>
<path d="M 581.767 1346.45 C 604.742 1345.36 627.768 1346.19 650.607 1348.91 C 682.377 1352.89 754.164 1371.39 782.874 1384.87 C 794.768 1390.44 805.876 1397.55 815.911 1406.02 C 853.301 1437.85 859.374 1482.61 825.295 1519.94 C 778.103 1571.63 696.203 1586.14 629.249 1590.56 C 629.13 1590.57 629.011 1590.58 628.892 1590.59 C 550.264 1592.31 457.968 1578.37 395.941 1526.33 C 380.052 1513 365.832 1491.3 364.837 1470.49 C 363.885 1450.58 373.728 1431.07 387.263 1417.23 C 427.039 1376.57 526.514 1348.16 581.767 1346.45 z" fill="rgb(62,5,2)" transform="translate(0,0)"></path>
<path d="M 586.721 1353.43 C 642.91 1347.72 737.893 1367.06 781.883 1405.16 C 857.616 1470.75 792.242 1527.95 720.078 1549.37 C 687.427 1559.06 663.399 1563.94 627.247 1566.56 C 626.893 1566.6 626.538 1566.64 626.184 1566.68 C 557.474 1569.47 480.229 1556.51 425.253 1512.65 C 390.928 1485.27 389.284 1449.25 417.765 1416.86 C 459.868 1368.98 526.444 1357.75 586.721 1353.43 z" fill="rgb(251,239,210)" transform="translate(0,0)"></path>
<path d="M 676.212 1400.57 C 680.116 1402.19 680.576 1402.77 682.283 1406.01 C 682.238 1409.95 681.47 1410.7 679.504 1414.06 C 675.277 1413.16 674.623 1412.24 673.217 1408.53 C 673.454 1404.48 673.94 1404.14 676.212 1400.57 z" fill="rgb(62,5,2)" transform="translate(0,0)"></path>
<path d="M 659.404 1521.28 C 663.016 1522.39 663.794 1523.13 664.894 1526.47 C 664.174 1529.93 663.213 1530.34 660.556 1532.67 C 656.468 1530.69 656.899 1531.61 654.648 1528.34 C 655.031 1525.11 657.056 1523.71 659.404 1521.28 z" fill="rgb(62,5,2)" transform="translate(0,0)"></path>
<path d="M 596.088 1482.38 C 600.594 1483.65 599.462 1482.69 602.41 1485.73 C 603.122 1489.35 602.442 1490.14 600.975 1493.52 C 596.771 1493.01 597.355 1493.72 594.572 1491.46 C 593.562 1488.12 594.9 1485.8 596.088 1482.38 z" fill="rgb(62,5,2)" transform="translate(0,0)"></path>
<path d="M 500.29 1503.76 C 502.376 1502.91 504.753 1503.89 505.642 1505.96 C 506.531 1508.03 505.606 1510.42 503.56 1511.36 C 502.195 1511.98 500.6 1511.82 499.39 1510.93 C 498.181 1510.04 497.547 1508.57 497.734 1507.08 C 497.921 1505.59 498.899 1504.32 500.29 1503.76 z" fill="rgb(68,31,22)" transform="translate(0,0)"></path>
<path d="M 545.264 1419.9 C 547.254 1419.14 549.494 1420.07 550.356 1422.01 C 551.219 1423.96 550.4 1426.25 548.496 1427.2 C 547.177 1427.87 545.601 1427.75 544.395 1426.9 C 543.189 1426.05 542.55 1424.6 542.732 1423.14 C 542.913 1421.68 543.887 1420.43 545.264 1419.9 z" fill="rgb(62,5,2)" transform="translate(0,0)"></path>
<path d="M 747.739 1459.02 C 749.612 1458.13 751.857 1458.88 752.819 1460.72 C 753.78 1462.55 753.115 1464.83 751.313 1465.85 C 750.086 1466.55 748.575 1466.53 747.373 1465.79 C 746.172 1465.04 745.471 1463.71 745.547 1462.3 C 745.624 1460.89 746.464 1459.63 747.739 1459.02 z" fill="rgb(62,5,2)" transform="translate(0,0)"></path>
<path d="M 635.508 1447.24 C 636.77 1446.52 638.33 1446.58 639.533 1447.39 C 640.736 1448.2 641.374 1449.63 641.178 1451.06 C 640.983 1452.5 639.987 1453.71 638.611 1454.17 C 636.749 1454.79 634.717 1453.9 633.915 1452.11 C 633.113 1450.32 633.802 1448.21 635.508 1447.24 z" fill="rgb(62,5,2)" transform="translate(0,0)"></path>
<path d="M 434.986 1436.76 C 436.93 1436.16 438.997 1437.22 439.647 1439.15 C 440.296 1441.08 439.292 1443.17 437.381 1443.87 C 436.101 1444.34 434.666 1444.08 433.635 1443.19 C 432.604 1442.29 432.138 1440.91 432.419 1439.58 C 432.699 1438.24 433.682 1437.17 434.986 1436.76 z" fill="rgb(62,5,2)" transform="translate(0,0)"></path>
<path d="M 456.572 1472.55 C 457.682 1471.7 459.176 1471.56 460.423 1472.19 C 461.671 1472.81 462.455 1474.09 462.446 1475.49 C 462.436 1476.88 461.635 1478.15 460.379 1478.76 C 458.686 1479.57 456.65 1478.98 455.667 1477.37 C 454.685 1475.77 455.076 1473.69 456.572 1472.55 z" fill="rgb(68,31,22)" transform="translate(0,0)"></path>
<path d="M 478.237 1409.37 C 479.625 1408.07 481.769 1408.05 483.186 1409.31 C 484.602 1410.57 484.828 1412.7 483.707 1414.23 C 482.881 1415.36 481.489 1415.92 480.113 1415.68 C 478.737 1415.44 477.615 1414.44 477.218 1413.1 C 476.82 1411.77 477.215 1410.32 478.237 1409.37 z" fill="rgb(45,4,1)" transform="translate(0,0)"></path>
<path d="M 752.758 1378.95 C 775.472 1382.83 807.176 1403.31 822.317 1419.99 C 853.768 1454.64 842.544 1498.97 807.913 1526.83 C 746.341 1576.36 651.564 1587.44 575.122 1582.08 C 510.343 1576.49 432.305 1558.99 387.76 1508.19 C 354.694 1470.47 375.862 1432.09 408.596 1405.29 C 418.166 1397.56 431.456 1390.41 442.807 1385.69 C 413.2 1407.67 383.9 1434.19 391.398 1475.12 C 395.655 1498.37 418.363 1519 437.642 1530.87 C 510.033 1575.66 606.476 1582.64 688.694 1565.73 C 741.083 1553.46 834.991 1520.07 821.626 1450.58 C 815.212 1417.23 779.181 1394.55 752.758 1378.95 z" fill="rgb(251,239,210)" transform="translate(0,0)"></path>
<path d="M 675.317 1211.92 L 676.06 1212.28 C 671.245 1217.7 613.626 1247.28 603.705 1252.56 L 377.348 1371.57 C 335.328 1394.03 301.23 1414.28 260.38 1438.26 L 259.586 1438.52 C 261.771 1435.87 273.922 1428.27 277.284 1426.18 C 355.187 1377.65 439.413 1337.6 520.623 1294.91 L 675.317 1211.92 z" fill="rgb(68,31,22)" transform="translate(0,0)"></path>
<path d="M 670.64 1677.79 C 715.394 1659.16 759.137 1638.19 801.689 1614.97 C 819.473 1605.22 837.315 1595.58 855.215 1586.04 C 863.367 1581.71 875.722 1574.72 883.835 1571.67 L 884.585 1572.09 C 868.611 1581.86 850.025 1590.9 833.519 1600.16 C 794.284 1622.19 754.535 1642.89 713.651 1661.7 C 699.27 1668.32 685.107 1673.2 670.97 1679.41 L 670.64 1677.79 z" fill="rgb(68,31,22)" transform="translate(0,0)"></path>
<path d="M 1261.96 1405.18 L 1262.39 1406.05 C 1249.9 1416.51 1207.15 1435.24 1191.02 1442.79 L 1058.55 1504.84 L 1058.07 1504.68 L 1058.31 1503.74 L 1168.57 1450.65 C 1201.23 1434.98 1229.42 1422.14 1261.96 1405.18 z" fill="rgb(68,31,22)" transform="translate(0,0)"></path>
<path d="M 1504.08 1220.06 L 1504.81 1220.83 C 1502.27 1223.39 1476.93 1237.26 1471.83 1240.27 C 1430.07 1264.91 1386.75 1287.16 1344.6 1310.96 L 1344.1 1310.75 L 1344.26 1309.67 C 1354.68 1301.93 1396.01 1279.91 1409.78 1272.41 C 1440.46 1255.69 1473.4 1235.31 1504.08 1220.06 z" fill="rgb(68,31,22)" transform="translate(0,0)"></path>
<path d="M 1462.52 1300.95 L 1463.49 1301.21 L 1463.44 1302.32 C 1452.18 1307.46 1440.13 1314.49 1429.14 1320.46 C 1385.26 1344.29 1341.6 1367.55 1296.46 1388.94 L 1294.87 1388.68 L 1295.21 1387.94 C 1349.5 1362.74 1408 1328.47 1462.52 1300.95 z" fill="rgb(93,62,47)" transform="translate(0,0)"></path>
<path d="M 694.392 1280.05 C 694.663 1280.35 694.935 1280.65 695.206 1280.95 C 693.902 1282.19 675.738 1291.14 672.611 1292.82 C 640.386 1310.21 608.023 1327.35 575.525 1344.23 L 574.302 1343.89 C 575.668 1340.45 682.303 1285.55 694.392 1280.05 z" fill="rgb(93,62,47)" transform="translate(0,0)"></path>
<path d="M 1471.72 1146.23 L 1472.91 1146.32 L 1472.79 1147.02 C 1435.72 1162.58 1398.34 1184.58 1363.88 1205.35 L 1362.96 1205.55 L 1362.52 1204.74 C 1384.27 1186.82 1445.08 1156.93 1471.72 1146.23 z" fill="rgb(68,31,22)" transform="translate(0,0)"></path>
<path d="M 1007.12 1463.19 C 1007.43 1463.55 1007.32 1464.11 1007.37 1464.57 C 973.082 1480 938.604 1499.18 903.458 1514.93 L 902.891 1514.65 L 903.193 1513.7 C 937.384 1495.95 972.041 1479.11 1007.12 1463.19 z" fill="rgb(68,31,22)" transform="translate(0,0)"></path>
<path d="M 710.027 1237.91 L 711.074 1238.08 L 711.194 1239.02 C 707.098 1242.09 704.448 1242.49 700.141 1244.68 L 655.579 1267.02 L 654.655 1266.86 L 654.938 1266 C 673.985 1255.42 690.198 1246.86 710.027 1237.91 z" fill="rgb(68,31,22)" transform="translate(0,0)"></path>
<path d="M 670.97 1679.41 C 668.22 1680.56 667.245 1681.2 664.224 1681.17 C 666.366 1678.72 667.236 1678.96 670.64 1677.79 L 670.97 1679.41 z" fill="rgb(151,116,92)" transform="translate(0,0)"></path>
<path d="M 1007.63 1014.43 C 1057.57 1010.86 1134.54 1029.94 1180.4 1049.34 C 1237.18 1073.37 1298 1120.69 1321.27 1179.29 C 1337.64 1220.28 1337.06 1266.1 1319.64 1306.66 C 1302.89 1345.21 1267.76 1377.29 1229.05 1392.76 C 1262.9 1362.85 1290.37 1331.87 1298.3 1285.56 C 1301.08 1269.34 1304.17 1235.21 1298.11 1219.91 L 1295.97 1219.06 C 1292.66 1222.11 1295.19 1233.41 1295.47 1238.37 C 1295.99 1248.38 1295.77 1258.41 1294.81 1268.38 C 1289.81 1318.8 1266.67 1350.19 1229.72 1383.37 C 1205.96 1404.7 1190.7 1406.88 1160.1 1414.24 C 1199.58 1387.73 1233.39 1348.85 1247.43 1301.91 C 1248.57 1298.11 1249.92 1291.11 1247.84 1287.63 C 1243.97 1291.03 1237.9 1310.87 1234.94 1317.38 C 1228.59 1331.38 1222.26 1341.82 1213.26 1354.61 C 1196.58 1378.34 1168.47 1406.63 1141.07 1417.4 C 1134.22 1420.1 1110.48 1423.6 1101.77 1425.04 C 1104.35 1422.95 1112.89 1418.12 1116.38 1415.96 C 1123.75 1411.43 1130.79 1406.37 1137.44 1400.82 C 1153.2 1387.75 1166.87 1372.81 1177.99 1355.58 C 1181.83 1349.64 1197.12 1327.9 1192.17 1322.13 C 1191.48 1322.29 1190.8 1322.44 1190.11 1322.6 C 1168.96 1362.18 1140.6 1398.14 1099.5 1418.06 C 1088 1423.63 1081.61 1425.93 1072.48 1427.54 L 1071.1 1427.77 C 1013.88 1437.14 1002.32 1418.91 963.106 1383.64 C 972.384 1406.39 994.184 1419.86 1015.23 1431.23 C 1008.07 1431 985.867 1430.8 980.735 1428.82 C 944.771 1414.97 905.475 1383.42 889.749 1347.63 C 888.041 1343.74 886.221 1336.12 883.45 1333.93 L 881.746 1334.43 C 880.217 1337.56 880.922 1340.01 881.975 1343.28 C 894.391 1381.84 928.426 1409.16 962.274 1427.84 C 944.269 1424.99 923.56 1423.72 906.381 1417.67 C 896.685 1414.25 885.554 1405.47 877.633 1399.16 C 847.655 1375.26 822.027 1341.55 817.207 1302.57 C 816.268 1294.99 817.081 1286.11 813.927 1279.06 L 812.694 1278.99 C 810.671 1284.07 810.412 1294.16 810.781 1299.71 C 814.053 1348.9 845.385 1379.57 878.887 1410.2 C 859.106 1403.24 827.693 1394.68 813.518 1378.87 C 788.615 1350.43 770.723 1314.59 766.28 1276.82 C 765.542 1270.55 767.529 1244.73 764.953 1242.09 C 762.42 1246.45 760.441 1256.96 760.063 1262.15 C 756.988 1304.34 779.27 1346.41 804.932 1377.76 C 794.882 1371.59 782.114 1363.33 773.57 1355.43 C 698.961 1286.36 733.265 1181.02 794.204 1115.73 C 853.729 1051.95 919.842 1018.41 1007.63 1014.43 z" fill="rgb(251,239,210)" transform="translate(0,0)"></path>
<path d="M 912.877 1060 C 915.117 1061.59 914.44 1060.5 915.272 1063.07 C 913.773 1065.31 906.751 1068.81 903.853 1070.34 C 885.522 1080 869.786 1091.76 853.54 1104.53 L 851.437 1103.59 L 851.273 1101.7 C 864.069 1084.39 892.617 1067.33 912.877 1060 z" fill="rgb(62,5,2)" transform="translate(0,0)"></path>
<path d="M 1136.74 1063.75 C 1149.07 1065.48 1178.11 1075.87 1188.55 1083.1 C 1192.19 1085.63 1191.81 1085.87 1192.53 1089.42 C 1187.58 1089.55 1145.94 1070.87 1137.92 1067.77 C 1136.6 1067.26 1136.88 1065.16 1136.74 1063.75 z" fill="rgb(68,31,22)" transform="translate(0,0)"></path>
<path d="M 1674.18 663.46 C 1751.7 660.583 1861.79 672.263 1925.89 721.535 C 1945.11 736.305 1953.36 765.349 1933.87 783.716 C 1884.68 830.061 1796.66 842.565 1731.92 846.57 C 1731.64 846.595 1731.37 846.62 1731.1 846.645 C 1652.96 848.689 1544 843.768 1480.86 793.741 C 1470.73 785.274 1461.44 772.018 1461.22 758.521 C 1460.74 728.816 1490.26 710.434 1513.34 698.771 C 1564.1 673.128 1618.21 666.381 1674.18 663.46 z" fill="rgb(251,239,210)" transform="translate(0,0)"></path>
<path d="M 1668.56 682.425 C 1737 678.941 1846.87 687.464 1903.9 730.931 C 1921.58 744.408 1922.56 766.598 1906.23 781.312 C 1868.16 815.615 1784.27 829.554 1734.5 831.066 C 1663.43 833.732 1561.68 829.969 1500.47 788.001 C 1476.07 771.271 1479.31 741.052 1503.19 724.848 C 1549.13 693.682 1614.1 685.158 1668.56 682.425 z" fill="rgb(62,5,2)" transform="translate(0,0)"></path>
<path d="M 1655.73 689.423 C 1660.81 688.631 1683.34 688.525 1689.29 688.528 C 1744.13 688.607 1799.55 693.58 1851.79 711.381 C 1869.79 717.514 1919.88 737.392 1909 764.751 C 1901.79 782.882 1876.76 793.898 1859.64 801.212 C 1839.15 778.129 1772.78 754.688 1741.93 746.067 C 1684.06 730.374 1621.53 742.816 1572.21 775.228 C 1559.93 783.298 1548.32 792.132 1536.5 800.821 C 1511.88 791.838 1471.4 769.1 1498.34 738.109 C 1516.4 717.339 1551.02 707.752 1577.07 700.967 C 1602.02 694.465 1629.98 691.75 1655.73 689.423 z" fill="rgb(207,193,153)" transform="translate(0,0)"></path>
<path d="M 1675.84 746.417 C 1738.64 742.817 1800.21 769.087 1851.63 803.365 C 1798.45 817.72 1774.17 824.068 1719.01 825.346 C 1704.52 826.145 1690.56 825.052 1676.29 824.842 C 1626.35 824.109 1590.77 816.596 1543.34 803.53 C 1587.48 771.153 1619.26 750.228 1675.84 746.417 z" fill="rgb(251,239,210)" transform="translate(0,0)"></path>
<path d="M 1628.63 1247.52 C 1628.5 1265 1630.55 1296.68 1626.79 1312.92 C 1625.09 1320.25 1621.3 1327.59 1615.99 1332.97 C 1601.78 1347.34 1539.21 1377.47 1518.52 1388.27 C 1461.02 1418.85 1403.1 1448.63 1344.78 1477.62 L 864.095 1723.45 C 833.591 1739.2 803.021 1755.07 772.028 1769.81 C 767.667 1771.88 762.426 1773.74 758.271 1775.94 C 754.015 1770.98 748.679 1766.42 744.157 1761.08 C 731.379 1745.98 724.703 1725.82 719.91 1706.96 C 740.957 1702.77 756.244 1698.43 775.922 1689.25 C 820.114 1668.65 863.062 1645.18 906.099 1622.32 C 954.604 1596.86 1003.38 1571.92 1052.42 1547.51 C 1192.84 1478.41 1332.44 1407.64 1471.18 1335.24 L 1572.67 1283.41 C 1594.6 1272.19 1612.29 1267.23 1628.63 1247.52 z" fill="rgb(187,148,115)" transform="translate(0,0)"></path>
<path d="M 1554.71 1331.38 L 1553.81 1334.39 C 1549.89 1335.87 1536.38 1344.05 1531.86 1346.63 C 1518.38 1354.29 1504.83 1361.83 1491.21 1369.23 C 1463.58 1384.29 1434.15 1398.07 1407.05 1413.35 C 1308.69 1468.84 1206.27 1514.71 1104.7 1563.76 C 1043.47 1594.01 982.465 1624.7 921.684 1655.85 C 909.117 1662.14 829.967 1703.75 825.571 1703.63 C 828.497 1701.19 834.337 1698.96 837.942 1696.97 C 878.224 1674.69 922.009 1653.63 962.888 1632.82 C 1007.78 1609.73 1052.83 1586.95 1098.03 1564.47 L 1225.03 1503.72 C 1336.55 1449.43 1446.49 1391.96 1554.71 1331.38 z" fill="rgb(68,31,22)" transform="translate(0,0)"></path>
<path d="M 1573.84 1321.11 C 1567.14 1327.05 1561.64 1330.01 1553.81 1334.39 L 1554.71 1331.38 C 1559.09 1328.02 1568.66 1323.54 1573.84 1321.11 z" fill="rgb(127,89,72)" transform="translate(0,0)"></path>
<path d="M 1462.22 783.619 C 1464.18 785.149 1469.12 791.68 1471.19 793.988 C 1478.73 802.374 1489.64 808.982 1499.43 814.378 C 1548.26 841.09 1605.1 847.847 1659.67 852.06 C 1694.94 854.783 1729.62 853.647 1764.61 850.138 C 1815.02 845.083 1866.3 835.013 1910.76 809.751 C 1921.86 803.448 1930.35 796.19 1939.85 787.908 C 1929.67 838.773 1911.69 881.472 1875.15 919.509 C 1844.46 950.576 1810.36 969.486 1768.33 980.071 C 1780.59 941.765 1757.84 907.246 1721.48 894.507 C 1690.93 883.802 1658.03 913.875 1632.75 929.344 C 1615.52 939.792 1598.05 949.861 1580.37 959.544 C 1500.04 916.878 1474.04 872.402 1462.22 783.619 z" fill="rgb(207,193,153)" transform="translate(0,0)"></path>
<path d="M 1905.4 842.951 C 1906.15 860.531 1819.8 933.41 1803.14 945.805 L 1802.93 944.97 C 1809.12 938.507 1828.67 924.105 1837.29 916.378 C 1862.06 893.901 1884.85 869.334 1905.4 842.951 z" fill="rgb(93,62,47)" transform="translate(0,0)"></path>
<path d="M 209.787 1452.63 C 230.708 1477.8 260.227 1489.88 288.444 1505.08 L 368.593 1548.45 L 491.624 1612.52 C 542.069 1639.41 592.177 1666.92 641.936 1695.05 L 644.709 1695.56 C 645.421 1719.34 651.694 1753.83 665.413 1773.81 L 662.545 1774.55 C 640.597 1766.61 595.994 1741.53 574.744 1729.56 C 541.463 1710.69 508.008 1692.12 474.382 1673.87 C 416.896 1642.38 355.909 1611.53 298.424 1580.15 C 216.256 1535.29 207.031 1549.49 209.787 1452.63 z" fill="rgb(187,148,115)" transform="translate(0,0)"></path>
<path d="M 641.936 1695.05 L 644.709 1695.56 C 645.421 1719.34 651.694 1753.83 665.413 1773.81 L 662.545 1774.55 C 661.815 1771.2 654.756 1761.02 652.896 1756.42 C 644.442 1735.52 642.794 1717.03 641.936 1695.05 z" fill="rgb(68,31,22)" transform="translate(0,0)"></path>
<path d="M 1694.35 900.178 C 1703 899.485 1711.34 899.489 1719.59 902.741 C 1748.14 914.075 1771.36 945.892 1759.5 977.221 C 1751.93 997.218 1725.15 1006.81 1706.77 1015.79 L 1644.54 1045.81 C 1603.58 1065.67 1559.82 1089.56 1518.65 1107.92 L 1504.18 1114.1 C 1520.25 1093.38 1502.9 1062.29 1484.04 1049.51 C 1475.07 1043.42 1467.69 1042.36 1457.35 1041.66 C 1478.43 1022.66 1520.88 1002.35 1546.25 988.167 C 1569.82 974.991 1593.94 960.002 1617.45 947.06 C 1643.37 932.793 1669.24 912.622 1694.35 900.178 z" fill="rgb(187,148,115)" transform="translate(0,0)"></path>
<path d="M 1755.36 961.111 L 1755.46 961.925 C 1753.32 966.527 1742.11 974.297 1737.5 976.877 C 1713.91 990.057 1687.87 1000.45 1664.09 1013.11 C 1642.64 1024.52 1621.49 1037.75 1600.39 1049.87 C 1582.14 1060.12 1563.72 1070.06 1545.14 1079.69 C 1546.11 1076.89 1656.11 1015.7 1670.01 1007.76 C 1697.02 992.314 1729.89 983.89 1755.36 961.111 z" fill="rgb(68,31,22)" transform="translate(0,0)"></path>
<path d="M 1733.72 923.263 C 1735.22 923.048 1734.5 922.903 1735.85 923.821 C 1720.48 934.762 1693.42 949.068 1676.06 958.836 C 1635.01 981.737 1593.78 1004.32 1552.37 1026.57 L 1551.37 1027.04 L 1550.6 1026.56 C 1555.94 1022.32 1569.39 1015.3 1575.81 1011.73 C 1592.76 1002.26 1609.79 992.906 1626.88 983.673 C 1662.72 963.946 1698.34 943.808 1733.72 923.263 z" fill="rgb(93,62,47)" transform="translate(0,0)"></path>
<path d="M 338.528 1196.44 C 364.042 1129.67 406.449 1065.69 465.61 1024.64 C 504.582 997.598 558.599 964.045 607.899 970.696 C 616.654 971.971 619.284 985.965 614.851 992.476 C 575.115 1059.28 477.04 1096.97 415.207 1133.9 C 400.548 1142.84 386.327 1152.47 372.594 1162.77 C 367.192 1166.83 361.759 1172.01 356.567 1175.55 L 352.189 1175.89 C 348.069 1182.29 343.066 1190.53 338.528 1196.44 z" fill="rgb(207,193,153)" transform="translate(0,0)"></path>
<path d="M 352.189 1175.89 C 392.527 1107.38 473.403 1048.15 544.464 1011.73 C 545.356 1011.28 546.954 1011.36 547.95 1011.49 L 548.435 1012.73 C 541.542 1018.03 532.29 1023.02 524.71 1027.51 C 471.457 1059.02 420.062 1096.08 380.292 1143.98 C 372.039 1153.92 363.063 1164.38 356.567 1175.55 L 352.189 1175.89 z" fill="rgb(62,5,2)" transform="translate(0,0)"></path>
<path d="M 270.55 1344.33 C 273.586 1347.2 273.187 1345.7 273.592 1348.79 C 271.632 1348.41 271.169 1348.02 269.707 1346.6 C 200.245 1279.22 110.351 1194.4 102.714 1091.92 C 102.256 1085.77 101.917 1071.46 105.972 1067.12 C 108.605 1067.19 110.857 1068.06 113.131 1069.39 C 156.538 1094.84 185.547 1138.98 209.928 1182.18 C 235.755 1227.93 253.199 1279.72 269.321 1329.88 C 270.554 1333.53 271.505 1335.99 272.133 1339.78 L 270.55 1344.33 z" fill="rgb(207,193,153)" transform="translate(0,0)"></path>
<path d="M 270.55 1344.33 C 264.921 1338.35 248.25 1307.53 242.593 1298.12 C 215.202 1252.6 186.742 1206.82 154.015 1164.88 C 150.465 1160.33 140.714 1149.73 140.812 1144.3 L 142.078 1144.22 C 190.321 1201.03 229.099 1266.18 266.951 1330.17 L 269.321 1329.88 C 270.554 1333.53 271.505 1335.99 272.133 1339.78 L 270.55 1344.33 z" fill="rgb(45,4,1)" transform="translate(0,0)"></path>
<path d="M 266.951 1330.17 L 269.321 1329.88 C 270.554 1333.53 271.505 1335.99 272.133 1339.78 C 270.487 1337.32 268.39 1332.94 266.951 1330.17 z" fill="rgb(192,167,135)" transform="translate(0,0)"></path>
<path d="M 287.469 1129.52 C 284.036 1126.67 239.325 1055.96 232.796 1045.76 C 197.276 990.25 164.117 917.316 179.405 850.365 C 180.695 844.716 184.757 829.521 189.636 826.519 C 194.815 827.208 198.573 831.344 201.996 835.17 C 253.837 893.109 266.84 983.347 279.095 1057.41 C 281.294 1070.7 289.687 1113.17 289.194 1124.23 C 288.85 1126.3 288.973 1127.03 289.505 1129.05 C 287.585 1129.56 288.081 1129.51 287.469 1129.52 z" fill="rgb(207,193,153)" transform="translate(0,0)"></path>
<path d="M 287.469 1129.52 C 263.674 1068.8 241.503 1007.46 220.978 945.565 C 216.544 932.003 203.805 894.124 203.522 880.919 C 206.003 882.497 211.378 900.367 212.636 904.488 C 235.34 978.9 263.924 1050.71 289.194 1124.23 C 288.85 1126.3 288.973 1127.03 289.505 1129.05 C 287.585 1129.56 288.081 1129.51 287.469 1129.52 z" fill="rgb(45,4,1)" transform="translate(0,0)"></path>
<path d="M 357.402 911.771 C 351.193 903.992 344.752 886.116 339.704 876.849 C 307 816.82 285.683 752.065 278.433 683.956 C 275.722 658.485 277.522 623.396 290.852 600.391 C 291.859 598.653 292.72 599.091 294.536 598.925 C 302.526 602.75 314.871 621.555 319.235 629.269 C 364.37 709.064 358.561 813.144 361.417 902.186 C 360.783 903.424 360.238 904.703 359.425 905.78 L 360.358 914.209 L 357.402 911.771 z" fill="rgb(207,193,153)" transform="translate(0,0)"></path>
<path d="M 357.402 911.771 C 356.086 899.757 350.143 884.044 347.955 871.729 C 339.924 826.529 329.381 782.149 319.283 737.424 C 315.652 721.34 306.971 688.932 307.271 673.713 C 329.392 747.147 344.035 830.69 359.425 905.78 L 360.358 914.209 L 357.402 911.771 z" fill="rgb(45,4,1)" transform="translate(0,0)"></path>
<path d="M 573.319 558.844 C 567.74 527.176 567.116 491.668 569.737 459.979 C 574.788 398.925 599.582 344.178 637.957 297.126 C 646.415 286.756 654.679 275.554 665.094 266.909 C 669.52 280.375 670.502 294.936 670.474 309.037 C 670.343 374.628 644.854 436.969 612.145 492.749 C 601.302 511.242 589.433 531.066 581.968 551.123 L 581.546 552.286 C 580.357 555.294 576.686 566.037 574.717 567.26 C 573.56 563.799 573.596 562.406 573.319 558.844 z" fill="rgb(207,193,153)" transform="translate(0,0)"></path>
<path d="M 576.158 553.159 C 584.349 500.06 597.335 452.864 615.213 402.217 C 617.785 394.928 630.059 349.156 635.549 347.353 C 636.854 355.358 603.739 451.849 599.054 468.095 C 591.143 495.524 586.376 523.232 579.661 550.872 L 581.546 552.286 C 580.357 555.294 576.686 566.037 574.717 567.26 C 573.56 563.799 573.596 562.406 573.319 558.844 L 575.152 557.909 L 576.158 553.159 z" fill="rgb(62,5,2)" transform="translate(0,0)"></path>
<path d="M 579.661 550.872 L 581.546 552.286 C 580.357 555.294 576.686 566.037 574.717 567.26 C 573.56 563.799 573.596 562.406 573.319 558.844 L 575.152 557.909 L 576.158 553.159 L 576.846 557.158 L 577.729 557.141 L 579.661 550.872 z" fill="rgb(151,116,92)" transform="translate(0,0)"></path>
<path d="M 514.417 720.439 C 528.33 707.657 536.378 704.875 553.292 696.168 C 603.189 670.481 663.154 655.345 719.548 656.473 C 742.297 656.928 791.292 667.624 810.158 683.748 C 811.914 685.25 812.635 687.276 813.046 689.54 C 811.269 700.772 786.635 708.235 776.947 710.898 C 719.767 726.621 660.842 719.896 602.616 718.888 C 576.973 718.24 551.314 718.962 525.747 721.051 C 521.971 723.207 519.051 723.16 515.01 722.122 L 514.417 720.439 z" fill="rgb(207,193,153)" transform="translate(0,0)"></path>
<path d="M 514.417 720.439 C 517.195 720.352 543.189 709.922 549.805 708.175 C 598.259 694.955 647.975 686.898 698.125 684.141 C 705.736 683.695 720.608 681.79 726.859 684.793 L 726.408 685.766 C 719.79 687.363 707.565 687.489 700.36 687.884 C 688.152 688.546 675.964 689.524 663.806 690.819 C 626.61 694.959 589.055 702.909 552.942 712.557 C 547.81 713.929 528.802 717.984 525.747 721.051 C 521.971 723.207 519.051 723.16 515.01 722.122 L 514.417 720.439 z" fill="url(#Gradient5)" transform="translate(0,0)"></path>
<path d="M 371.62 949.064 C 379.742 928.209 386.351 907.669 395.463 887.046 C 461.315 740.119 557.238 608.63 677.041 501.062 C 751.866 432.517 844.241 372.609 930.05 318.59 C 944.617 309.419 1052.82 237.688 1059.45 237.982 L 1060.26 239.488 C 1055 249.965 821.706 397.102 791.194 417.074 C 780.127 425.252 769.875 434.336 759.204 442.695 C 592.019 573.645 451.879 748.228 381.74 950.299 C 359.89 1013.25 339.75 1077.13 330.247 1143.74 C 321.625 1208.05 309.285 1279.72 311.17 1344.51 L 297.366 1351.08 C 299.513 1324.4 300.235 1297.64 302.456 1271.03 C 305.451 1235.13 311.285 1198.84 316.757 1163.18 C 320.348 1139.79 323.674 1117.09 329.069 1094.02 C 336.353 1062.86 345.052 1032.08 354.211 1001.43 C 359.286 984.45 367.009 965.784 371.62 949.064 z" fill="rgb(207,193,153)" transform="translate(0,0)"></path>
<path d="M 1239.6 105.346 C 1249.44 104.226 1269.35 102.961 1273.75 114.252 C 1275.07 117.663 1273.59 124.525 1271.52 127.267 C 1230.03 182.064 1138.54 211.874 1075.83 232.316 C 1103.27 207.5 1156.04 173.366 1187.48 153.461 C 1192.76 149.933 1196.71 146.699 1201.63 142.708 C 1162.05 159.127 1095.87 209.423 1063.31 236.676 L 1064.26 234.484 C 1089.88 174.552 1175.26 114.298 1239.6 105.346 z" fill="rgb(207,193,153)" transform="translate(0,0)"></path>
<path d="M 800.092 425.787 C 877.424 407.177 955.171 407.958 1026.77 448.817 C 1035.54 453.823 1056.46 467.543 1060.58 476.642 C 1059.88 488.335 1023.89 489.074 1014.87 488.381 C 983.98 486.012 954.512 474.596 925.349 464.881 C 892.122 453.711 856.651 440.249 822.939 431.537 C 819.296 431.009 819.536 431.081 816.391 429.156 L 812.182 425.759 C 807.668 425.963 804.594 426.035 800.092 425.787 z" fill="rgb(207,193,153)" transform="translate(0,0)"></path>
<path d="M 812.182 425.759 C 861.053 421.88 913.592 429.471 960.167 444.715 C 966.61 446.824 981.255 450.523 985.866 454.746 L 985.168 456.009 C 978.129 457.052 968.322 452.084 961.255 449.855 C 947.391 445.353 933.324 441.499 919.102 438.305 C 902.08 434.587 869.738 429.554 852.281 429.873 C 845.269 430.314 826.763 429.11 822.939 431.537 C 819.296 431.009 819.536 431.081 816.391 429.156 L 812.182 425.759 z" fill="rgb(62,5,2)" transform="translate(0,0)"></path>
<path d="M 816.391 429.156 C 824.67 429.027 844.835 428.534 852.281 429.873 C 845.269 430.314 826.763 429.11 822.939 431.537 C 819.296 431.009 819.536 431.081 816.391 429.156 z" fill="rgb(187,148,115)" transform="translate(0,0)"></path>
<path d="M 647.696 559.077 C 724.22 528.903 803.184 517.497 881.574 550.068 C 917.202 564.871 926.303 577.355 880.413 583.769 C 811.678 593.377 748.128 571.094 681.255 562.568 C 676.953 562.211 673.773 561.729 669.512 560.997 C 663.37 559.611 667.026 563.104 661.965 558.366 L 647.696 559.077 z" fill="rgb(207,193,153)" transform="translate(0,0)"></path>
<path d="M 661.965 558.366 C 720.674 551.539 766.429 545.128 825.604 553.385 L 826.698 554.315 C 820.211 557.378 794.189 554.263 784.321 554.037 C 749.95 553.252 716.898 557.664 682.886 560.037 C 681.401 561.641 681.49 560.932 681.255 562.568 C 676.953 562.211 673.773 561.729 669.512 560.997 C 663.37 559.611 667.026 563.104 661.965 558.366 z" fill="rgb(62,5,2)" transform="translate(0,0)"></path>
<path d="M 669.512 560.997 C 674.152 559.963 678.14 560.123 682.886 560.037 C 681.401 561.641 681.49 560.932 681.255 562.568 C 676.953 562.211 673.773 561.729 669.512 560.997 z" fill="rgb(187,148,115)" transform="translate(0,0)"></path>
<path d="M 825.533 192.166 C 841.064 191.269 842.897 202.408 844.566 215.61 C 853.213 284.03 815.732 347.739 776.86 400.779 C 784.91 378.173 828.783 265.508 823.077 248.769 C 820.269 251.477 821.021 251.401 819.791 255.805 C 816.74 269.769 811.198 287.09 807.036 300.971 C 795.589 339.149 780.634 381.993 762.595 417.849 C 768.082 391.722 769.069 359 774.656 332.562 C 781.106 302.037 799.039 207.563 825.533 192.166 z" fill="rgb(207,193,153)" transform="translate(0,0)"></path>
<path d="M 1095.67 292.461 C 1114.01 292.035 1182.12 296.828 1184.92 318.003 C 1184.43 320.014 1183.43 322.271 1181.63 323.318 C 1122.13 357.832 1015.59 335.016 955.008 328.094 C 979.332 324.925 1002.4 319.989 1027.13 318.852 C 1045.19 316.848 1066.73 318.448 1085.06 318.163 C 1093.63 318.03 1104.83 318.818 1113.07 316.974 C 1097.51 308.571 1005.8 315.651 983.836 320.017 C 974.427 321.888 951.855 328.144 944.519 325.507 C 947.428 321.119 966.19 316.074 971.811 314.239 C 1013.56 300.612 1051.81 293.709 1095.67 292.461 z" fill="rgb(207,193,153)" transform="translate(0,0)"></path>
<path d="M 644.709 1695.56 C 655.448 1699.87 675.594 1706.75 687.158 1705.84 L 689.081 1706.5 C 699.803 1707.63 705.898 1707.89 716.691 1706.7 L 719.91 1706.96 C 724.703 1725.82 731.379 1745.98 744.157 1761.08 C 748.679 1766.42 754.015 1770.98 758.271 1775.94 L 756.011 1776.5 C 744.867 1779.48 723.097 1784.51 711.561 1782.81 L 708.82 1783.19 C 698.87 1782.67 672.946 1779.44 665.413 1773.81 C 651.694 1753.83 645.421 1719.34 644.709 1695.56 z" fill="rgb(187,148,115)" transform="translate(0,0)"></path>
<path d="M 716.691 1706.7 L 719.91 1706.96 C 724.703 1725.82 731.379 1745.98 744.157 1761.08 C 748.679 1766.42 754.015 1770.98 758.271 1775.94 L 756.011 1776.5 C 744.867 1779.48 723.097 1784.51 711.561 1782.81 C 696.082 1757.82 690.408 1736.2 689.081 1706.5 C 699.803 1707.63 705.898 1707.89 716.691 1706.7 z" fill="rgb(187,148,115)" transform="translate(0,0)"></path>
<path d="M 716.691 1706.7 L 719.91 1706.96 C 724.703 1725.82 731.379 1745.98 744.157 1761.08 C 748.679 1766.42 754.015 1770.98 758.271 1775.94 L 756.011 1776.5 C 730.299 1753.83 725.282 1740.01 716.691 1706.7 z" fill="rgb(68,31,22)" transform="translate(0,0)"></path>
<path d="M 687.158 1705.84 L 689.081 1706.5 C 690.408 1736.2 696.082 1757.82 711.561 1782.81 L 708.82 1783.19 C 692.648 1762.11 687.165 1731.92 687.158 1705.84 z" fill="rgb(68,31,22)" transform="translate(0,0)"></path>
<path d="M 473.082 1229.15 C 496.606 1227.43 492.931 1241.12 484.785 1256.18 C 477.071 1260.95 461.347 1268.33 452.826 1272.62 L 393.638 1302.56 C 388.71 1305.29 382.605 1308.09 377.443 1310.59 C 392.411 1280.02 439.574 1238.24 473.082 1229.15 z" fill="rgb(207,193,153)" transform="translate(0,0)"></path>
<path d="M 1454.81 1047.94 C 1471.54 1047.2 1484.79 1056.21 1493.71 1070.28 C 1499.72 1079.76 1508.37 1101.54 1495.69 1109.39 C 1490.91 1112.34 1483.68 1109.38 1478.59 1107.78 L 1469.88 1103.61 C 1494.81 1083.66 1478.25 1075.18 1456.33 1065.97 L 1450.87 1076.97 C 1447.67 1065.26 1446.9 1057.75 1454.81 1047.94 z" fill="rgb(187,148,115)" transform="translate(0,0)"></path>
<path d="M 1380.36 1115.68 C 1384.3 1117.96 1385.57 1119.31 1391.89 1117.27 C 1419.81 1108.27 1446.91 1093.33 1474.18 1082.59 C 1474.86 1082.94 1475.54 1083.29 1476.21 1083.63 C 1476.78 1084.94 1477.57 1085.61 1476.82 1086.99 C 1471.56 1096.81 1407.38 1119.65 1395.84 1122.09 C 1390.82 1123.15 1384.16 1123.99 1379.24 1122.19 C 1377.26 1121.89 1375.28 1121.58 1373.31 1121.25 C 1368.71 1120.5 1362.58 1120.1 1359.8 1116.23 L 1360.68 1114.47 C 1367.67 1111.31 1373.83 1112.01 1380.36 1115.68 z" fill="url(#Gradient4)" transform="translate(0,0)"></path>
<path d="M 1379.24 1122.19 C 1377.26 1121.89 1375.28 1121.58 1373.31 1121.25 C 1368.71 1120.5 1362.58 1120.1 1359.8 1116.23 L 1360.68 1114.47 C 1367.67 1111.31 1373.83 1112.01 1380.36 1115.68 L 1377.81 1117.32 L 1375.43 1115.86 C 1374.01 1117.42 1373.52 1117.62 1372.64 1119.44 C 1377.5 1120.04 1375.94 1119.17 1379.24 1122.19 z" fill="rgb(207,193,153)" transform="translate(0,0)"></path>
<path d="M 1353.58 1122.23 C 1369.05 1127.61 1378.27 1128.64 1394.53 1130.27 L 1395.55 1131.55 C 1395.5 1135.58 1394.82 1136.33 1393.03 1140.11 C 1382.82 1147.33 1369.41 1143.21 1359.41 1137.72 C 1355.6 1131.52 1355.06 1129.08 1353.58 1122.23 z" fill="rgb(192,167,135)" transform="translate(0,0)"></path>
<path d="M 1456.32 1075.12 C 1460.64 1075.08 1465.02 1074.54 1467.77 1078.29 C 1465.67 1081.64 1464.84 1081.08 1460.4 1083.04 C 1456.08 1085.52 1456.16 1086.28 1452.46 1083.09 C 1450.99 1078.09 1452.63 1077.32 1456.32 1075.12 z" fill="rgb(151,116,92)" transform="translate(0,0)"></path>
<path d="M 361.417 902.186 C 362.279 908.089 362.741 914.085 363.287 920.031 L 361.883 920.623 C 361.039 918.765 360.755 916.298 360.358 914.209 L 359.425 905.78 C 360.238 904.703 360.783 903.424 361.417 902.186 z" fill="rgb(151,116,92)" transform="translate(0,0)"></path>
<path d="M 1722.88 1594.71 C 1721.69 1589.3 1721.01 1582.98 1720.29 1577.4 C 1712.51 1516.71 1701.2 1457.23 1707.4 1395.79 C 1710.04 1369.59 1728.75 1303.81 1757.73 1355.73 C 1792.89 1420.12 1774.3 1505.12 1745.07 1568.46 C 1737.4 1585.09 1728.57 1594.92 1726.65 1614.56 C 1726.23 1618.92 1723.02 1629.29 1721.8 1633.85 C 1756.51 1596.88 1778.13 1565.03 1797.86 1517.61 C 1803.46 1504.15 1836.03 1421.02 1831.66 1410.3 C 1835.11 1409.5 1837.69 1409.11 1841.2 1408.62 C 1840.45 1473.45 1834.28 1489.79 1809.32 1548.14 C 1846.54 1504.27 1875.79 1459.03 1924.75 1425.75 C 1941.67 1414.25 1981.4 1388.49 1985.77 1427.48 C 1987.49 1453.48 1959.81 1488.52 1943.75 1506.75 C 1906.41 1546.63 1854.92 1575.86 1800.77 1584.63 C 1798.89 1584.95 1792.53 1585.89 1790.99 1586.41 C 1781.9 1594.76 1766.1 1618.96 1755.01 1631.47 C 1714.11 1677.6 1682.26 1704.12 1632.14 1737.87 C 1660.81 1731.25 1688.92 1725.68 1717.17 1717.15 C 1760.62 1704.03 1899.56 1647.41 1938.23 1670.83 C 1941.58 1672.86 1944.13 1675.62 1944.93 1679.57 C 1946.31 1686.42 1942.29 1693.91 1938.36 1699.22 C 1909.64 1737.97 1821.03 1762.68 1774.04 1768.8 C 1720.85 1775.74 1662.09 1767.84 1611.32 1751.07 C 1568.44 1777.3 1504.91 1807.96 1457.96 1823.95 C 1479.83 1824.57 1501.7 1824.68 1523.57 1824.27 C 1571.52 1823.45 1743.01 1815.23 1773.85 1849.01 C 1776.21 1851.59 1777.61 1854.72 1777.29 1858.27 C 1776.61 1865.72 1769.49 1871.83 1763.89 1876.03 C 1726.1 1904.37 1662.61 1905.61 1617.36 1899 C 1569.54 1892 1523.78 1872.55 1481 1850.72 C 1468.54 1844.37 1455.94 1838.2 1444.46 1830.16 C 1409.8 1843.24 1374.57 1854.74 1338.86 1864.63 C 1307.85 1873.28 1275.94 1880.56 1245.1 1889.43 C 1247.47 1890.51 1248.86 1891.23 1251.37 1892.02 C 1281.1 1892.32 1309.04 1887.83 1339.16 1887.2 C 1397.27 1885.99 1491.71 1885.95 1540.85 1920.36 C 1544.19 1922.97 1548.65 1928.97 1548.41 1933.41 C 1547.68 1947.21 1528.19 1953.9 1517.67 1957.59 C 1482.99 1969.75 1447.73 1972.21 1411.44 1970.92 C 1358.59 1969.03 1308.53 1952.76 1262.71 1926.9 C 1245.75 1917.41 1232.77 1910.91 1219.25 1896.29 C 1160.97 1909.66 1092.74 1924.78 1033.85 1934.12 C 899.325 1955.22 763.018 1962.67 626.999 1956.37 C 532.716 1951.58 434.905 1938.69 341.355 1924.48 C 285.477 1916.53 230.276 1904.87 175.708 1890.47 C 167.891 1888.41 139.521 1883.64 137.652 1873.46 C 135.726 1862.97 145.68 1857.38 155.779 1859.05 C 179.772 1863.01 203.347 1869.99 227.314 1875.06 C 279.741 1886.36 332.46 1896.25 385.415 1904.73 C 582.772 1937.75 783.978 1940.85 982.259 1913.93 C 1009.56 1909.99 1045.81 1905.68 1072.24 1899.51 C 1094.46 1874.64 1115.68 1847.67 1133.14 1819.23 C 1155.96 1782.05 1201.6 1677.86 1231.25 1657.41 C 1236.11 1654.06 1242.58 1650.79 1248.66 1652.24 C 1252.66 1653.19 1255.6 1656.4 1257.59 1659.83 C 1269.78 1680.83 1265.57 1715.67 1259.04 1737.78 C 1254.13 1754.36 1246.29 1770.11 1237.34 1784.86 C 1204.64 1838.73 1160.24 1865.64 1106.72 1894.5 C 1178.04 1880.74 1248.76 1864.01 1318.69 1844.36 C 1367.93 1761.54 1383.21 1658.23 1453.36 1589.31 C 1496.6 1547.94 1490.88 1625.95 1487.08 1648.55 C 1472.14 1737.57 1417.69 1786.83 1347.38 1835.69 C 1395.33 1822.75 1442.27 1806.33 1487.82 1786.54 C 1507.11 1778.33 1525.82 1768.85 1545.14 1760.67 C 1551.01 1732.8 1560.34 1705.21 1566.29 1676.83 C 1578.43 1618.86 1575.39 1553.11 1605.76 1500.74 C 1611.5 1490.84 1627.36 1471.89 1639.77 1482.35 C 1663.16 1506.21 1659.38 1548.73 1655.8 1578.5 C 1647.44 1648.15 1607.49 1692.92 1564.47 1743.86 L 1563.63 1744.99 L 1558.42 1753.14 C 1622.12 1717.76 1656.81 1697.07 1710.55 1645.13 C 1714.19 1624.71 1715.58 1614.02 1722.88 1594.71 z" fill="rgb(62,5,2)" transform="translate(0,0)"></path>
<path d="M 1557.92 1741.58 C 1557.42 1741.97 1555.43 1744.25 1554.87 1744.87 L 1554.24 1744.1 C 1557.3 1736.36 1559.33 1725.57 1561.67 1717.32 C 1570.07 1687.62 1576.21 1656.21 1580.17 1625.53 C 1584.8 1587.99 1588.07 1551.87 1603.45 1516.76 C 1620.53 1477.79 1644.14 1472.27 1650.61 1520.89 C 1657.69 1574.07 1642.81 1630.93 1612.72 1675.09 C 1599.62 1694.31 1582.83 1712.56 1568.59 1731.28 L 1567.95 1729.52 L 1566.7 1731.12 C 1563.47 1735.31 1562.07 1740.75 1557.92 1741.58 z" fill="rgb(207,193,153)" transform="translate(0,0)"></path>
<path d="M 1628.63 1538.05 C 1626.74 1551.5 1623.11 1565.15 1620.86 1578.29 C 1610.94 1636.3 1594.04 1677.7 1567.95 1729.52 L 1566.7 1731.12 C 1563.47 1735.31 1562.07 1740.75 1557.92 1741.58 C 1559.67 1735.66 1567.3 1721.46 1570.33 1715.43 C 1590.03 1676.38 1603.66 1636.78 1613.13 1594.09 C 1616.91 1577.06 1621.6 1553.66 1628.63 1538.05 z" fill="rgb(45,4,1)" transform="translate(0,0)"></path>
<path d="M 1792.56 1578.8 C 1817.85 1540.08 1914.82 1422.2 1960.72 1413.15 C 1965.03 1412.3 1970.18 1412.26 1973.94 1414.87 C 1977.29 1417.2 1978.93 1421.21 1979.53 1425.11 C 1982.56 1444.62 1964.18 1471.34 1952.78 1485.93 C 1923.4 1523.31 1884.26 1551.86 1839.69 1568.43 C 1826.54 1573.22 1810.9 1576.46 1798.82 1581.09 L 1798.75 1580.2 C 1794.91 1580.67 1796.46 1581.19 1793.75 1579.26 L 1792.56 1578.8 z" fill="rgb(207,193,153)" transform="translate(0,0)"></path>
<path d="M 1793.75 1579.26 C 1800.38 1572.28 1819.47 1560.68 1828.41 1554.42 C 1845.11 1542.75 1861.41 1530.53 1877.29 1517.77 C 1888.47 1508.79 1899.52 1499.74 1910.05 1490 C 1917.33 1483.25 1926.17 1472.27 1933.81 1466.65 C 1910.34 1505.03 1837.58 1555.99 1798.75 1580.2 C 1794.91 1580.67 1796.46 1581.19 1793.75 1579.26 z" fill="rgb(62,5,2)" transform="translate(0,0)"></path>
<path d="M 1790.99 1586.41 L 1789.31 1583.73 C 1789.51 1580.7 1789.62 1581.55 1792.56 1578.8 L 1793.75 1579.26 C 1796.46 1581.19 1794.91 1580.67 1798.75 1580.2 L 1798.82 1581.09 L 1798.79 1583.63 L 1800.77 1584.63 C 1798.89 1584.95 1792.53 1585.89 1790.99 1586.41 z" fill="rgb(68,31,22)" transform="translate(0,0)"></path>
<path d="M 1557.92 1741.58 C 1562.07 1740.75 1563.47 1735.31 1566.7 1731.12 L 1567.95 1729.52 L 1568.59 1731.28 C 1566.63 1734.46 1563.76 1738.25 1563.41 1741.81 L 1564.47 1743.86 L 1563.63 1744.99 L 1561.77 1743.92 L 1559.46 1745.53 C 1558.05 1743.3 1558.44 1744.18 1557.92 1741.58 z" fill="rgb(93,62,47)" transform="translate(0,0)"></path>
<path d="M 1251.37 1892.02 C 1246.44 1892.16 1244.78 1892.21 1239.95 1891.39 C 1241.3 1889.85 1242.64 1890.03 1245.1 1889.43 C 1247.47 1890.51 1248.86 1891.23 1251.37 1892.02 z" fill="rgb(251,239,210)" transform="translate(0,0)"></path>
<path d="M 1830.38 1447.7 C 1833.87 1453.14 1831.48 1450.36 1832.29 1455.76 C 1830.77 1488.82 1800.36 1555.05 1782.72 1583.19 C 1753.93 1629.1 1701.33 1683.35 1656.83 1714.36 C 1561.87 1780.53 1448.54 1827.62 1337.39 1858.64 C 1236.4 1886.84 1134.44 1910.75 1031.08 1928.36 C 1001.56 1933.36 969.547 1936.51 939.73 1939.86 C 867.616 1948.42 795.067 1952.79 722.447 1952.95 C 594.085 1952.73 465.951 1937.44 339.237 1917.98 C 306.77 1913 170.475 1889.07 148.505 1875.04 C 146.074 1873.49 145.336 1872.59 144.628 1869.84 C 148.841 1860.56 159.896 1865.69 167.746 1867.76 C 203.588 1877.2 240.127 1884.21 276.493 1891.31 C 360.598 1908.34 445.559 1920.82 531.006 1928.7 C 599.035 1935.07 666.669 1939.71 735.084 1938.74 C 936.215 1934.49 1135.91 1903.78 1329.02 1847.39 C 1352.79 1840.43 1376.76 1834.17 1400.31 1826.39 C 1453.97 1808.26 1506.27 1786.34 1556.82 1760.79 C 1631.35 1722.46 1714.65 1663.03 1763.35 1593.45 C 1792.58 1551.69 1814.85 1496.02 1830.38 1447.7 z" fill="rgb(192,167,135)" transform="translate(0,0)"></path>
<path d="M 1257.03 1897.11 C 1277.5 1896.65 1298.59 1894.85 1319.13 1893.7 C 1379.18 1890.34 1440.59 1892.42 1499.03 1907.78 C 1507.6 1910.03 1555.02 1924.77 1537.75 1940.82 C 1532.85 1945.38 1518.47 1950.17 1511.75 1952.31 C 1472.52 1964.83 1431.02 1968.62 1390.16 1963.42 C 1341.53 1957.46 1293.14 1939.56 1251.44 1913.96 C 1245.38 1910.24 1229.53 1901 1225.97 1895.3 C 1228.88 1894.82 1231.07 1896.61 1233.89 1898.29 L 1234.76 1896.63 L 1234.33 1895.65 C 1241.96 1895.98 1249.46 1896.9 1257.03 1897.11 z" fill="rgb(207,193,153)" transform="translate(0,0)"></path>
<path d="M 1234.76 1896.63 L 1234.33 1895.65 C 1241.96 1895.98 1249.46 1896.9 1257.03 1897.11 L 1246.68 1898.65 C 1320.61 1919.26 1364.72 1925.16 1442.99 1930.22 C 1436.68 1934.17 1426.57 1930.99 1417.74 1932.09 C 1376.18 1932.22 1271.02 1917 1233.89 1898.29 L 1234.76 1896.63 z" fill="rgb(62,5,2)" transform="translate(0,0)"></path>
<path d="M 1234.76 1896.63 L 1234.33 1895.65 C 1241.96 1895.98 1249.46 1896.9 1257.03 1897.11 L 1246.68 1898.65 C 1243.05 1898.89 1238.2 1897.59 1234.76 1896.63 z" fill="rgb(127,89,72)" transform="translate(0,0)"></path>
<path d="M 1442.99 1930.22 C 1448.32 1930.31 1452.07 1930.46 1457.43 1931.01 L 1457.84 1931.61 C 1448.54 1933.49 1427.18 1933.8 1417.74 1932.09 C 1426.57 1930.99 1436.68 1934.17 1442.99 1930.22 z" fill="rgb(68,31,22)" transform="translate(0,0)"></path>
<path d="M 1338.06 1832.76 C 1335.45 1836.41 1333.37 1839.19 1328.78 1840.26 C 1328.74 1839.66 1328.7 1839.06 1328.66 1838.47 C 1370.73 1764.28 1388.19 1675.75 1442.36 1608.9 C 1452.11 1596.87 1466.33 1581.63 1475.47 1583.07 C 1494.65 1596.49 1478.71 1662.13 1473.09 1680.14 C 1456.19 1734.33 1415.66 1779.42 1370.49 1812.42 C 1362.47 1818.28 1352.33 1827.15 1343.97 1831.63 L 1340.17 1833.7 L 1338.06 1832.76 z" fill="rgb(207,193,153)" transform="translate(0,0)"></path>
<path d="M 1338.06 1832.76 C 1344.71 1822.66 1354.43 1811.84 1361.74 1802.08 C 1391.79 1761.97 1418.56 1721.03 1437.74 1674.52 C 1439.33 1670.67 1443.67 1656.31 1445.34 1654.36 L 1446.57 1655.27 C 1446.89 1662.53 1441.4 1674.14 1438.77 1681.31 C 1422.77 1724.97 1395.84 1762.59 1369.01 1800.1 C 1361.28 1810.91 1352.06 1821.05 1343.97 1831.63 L 1340.17 1833.7 L 1338.06 1832.76 z" fill="rgb(62,5,2)" transform="translate(0,0)"></path>
<path d="M 1450.81 1830.19 C 1480.63 1829.3 1510.56 1830.12 1540.41 1829.87 C 1585.2 1829.5 1737.91 1823.03 1767.69 1852.23 C 1769.56 1854.07 1770.47 1855.46 1771.02 1858.08 C 1769.5 1864.35 1761.58 1871.05 1756.08 1874.01 C 1664.39 1923.43 1561.77 1883.28 1477.11 1843.22 C 1538.43 1853.47 1640.01 1867.72 1700.77 1859.65 C 1697.94 1857.88 1688.73 1858.12 1684.54 1857.85 C 1632.57 1857.4 1497.27 1850.1 1450.81 1830.19 z" fill="rgb(207,193,153)" transform="translate(0,0)"></path>
<path d="M 1684.54 1857.85 C 1693.36 1857.1 1699.64 1856.68 1708.5 1857.78 L 1708.11 1858.63 C 1705.58 1859.04 1703.34 1859.47 1700.77 1859.65 C 1697.94 1857.88 1688.73 1858.12 1684.54 1857.85 z" fill="rgb(68,31,22)" transform="translate(0,0)"></path>
<path d="M 1900.61 1672.41 C 1906.7 1671.45 1914.65 1672.02 1920.62 1672.34 C 1928.28 1672.75 1942.53 1677.57 1938.18 1687.93 C 1931.7 1703.33 1907.6 1717.86 1893.65 1725.14 C 1825.01 1760.93 1744.72 1773.75 1668.52 1759.34 C 1654.09 1756.63 1643 1755.24 1628.59 1750.94 C 1645.58 1751.26 1660.86 1749.26 1677.41 1748.44 C 1734.89 1745.62 1783.4 1735.12 1838.14 1716.94 C 1849.35 1712.95 1863.65 1708.15 1873.55 1702 C 1848.37 1709.03 1823.91 1717.19 1798.56 1723.69 C 1755.29 1734.78 1714.11 1741.24 1669.64 1743.91 C 1651.14 1745.02 1632.91 1747.34 1614.13 1746.95 C 1622.95 1743.53 1633.4 1742.47 1642.88 1740.86 C 1658.74 1738.18 1672.58 1735.61 1688.13 1731.59 C 1754.34 1714.45 1832.55 1677.77 1900.61 1672.41 z" fill="rgb(207,193,153)" transform="translate(0,0)"></path>
<path d="M 1078.28 1901.78 C 1098.33 1875.92 1112.1 1862.65 1130.59 1833.65 C 1139.88 1819.07 1148.64 1804.17 1156.86 1788.96 C 1170.08 1763.93 1216.51 1660.85 1243.09 1657.84 C 1245.96 1657.52 1248.22 1658.24 1250.47 1660.06 C 1257.83 1665.97 1259.37 1685.85 1259.48 1694.86 C 1260.06 1741.96 1233.42 1789.19 1201.14 1821.97 C 1173.96 1849.58 1140.03 1870.71 1106.24 1889.29 L 1104.03 1887.87 C 1121.8 1872.5 1139.99 1857.35 1155.71 1839.87 C 1190.88 1800.77 1224.69 1753.25 1235.52 1701.19 C 1235.34 1701.53 1235.17 1701.86 1234.99 1702.19 C 1209.5 1771.55 1164.27 1832.46 1106.98 1878.95 C 1097.96 1886.27 1088.22 1896.03 1078.28 1901.78 z" fill="rgb(207,193,153)" transform="translate(0,0)"></path>
<path d="M 1722.77 1553.48 C 1717.37 1492.84 1701.62 1429.54 1718.48 1369.22 C 1720.6 1361.62 1728.09 1342.24 1735.17 1343.2 C 1764.29 1347.15 1771.6 1424.69 1771.14 1439.31 C 1769.72 1484.4 1754.82 1549.62 1729.74 1585.15 C 1728.24 1588.09 1727.54 1591.04 1725.23 1591.95 C 1726.43 1588.85 1728.46 1584.09 1728.64 1580.86 L 1725.11 1579.35 C 1723.06 1573.69 1721.36 1559.32 1722.77 1553.48 z" fill="rgb(207,193,153)" transform="translate(0,0)"></path>
<path d="M 1727.12 1579.88 C 1730.38 1552.28 1733.6 1525.71 1734.16 1498 C 1734.43 1484.28 1735.06 1400.94 1739.46 1395.31 C 1742.25 1401.81 1739.48 1457.66 1739.83 1469.38 C 1740.96 1508.18 1736.47 1546.96 1729.74 1585.15 C 1728.24 1588.09 1727.54 1591.04 1725.23 1591.95 C 1726.43 1588.85 1728.46 1584.09 1728.64 1580.86 L 1725.11 1579.35 C 1723.06 1573.69 1721.36 1559.32 1722.77 1553.48 C 1724.14 1562.01 1725.45 1571.48 1727.12 1579.88 z" fill="rgb(45,4,1)" transform="translate(0,0)"></path>
<path d="M 1830.38 1447.7 C 1831.25 1441.91 1833.66 1434.47 1834.04 1429.87 C 1834.16 1434.65 1834.09 1452.51 1832.29 1455.76 C 1831.48 1450.36 1833.87 1453.14 1830.38 1447.7 z" fill="rgb(127,89,72)" transform="translate(0,0)"></path>
<path d="M 1104.03 1887.87 L 1106.24 1889.29 C 1101.91 1892 1097.5 1893.93 1092.89 1896.1 L 1104.03 1887.87 z" fill="rgb(192,167,135)" transform="translate(0,0)"></path>
<path d="M 423.705 905.64 C 430.639 895.431 443.35 885.329 453.075 877.559 C 494.435 844.508 543.682 822.54 596.011 813.286 C 631.692 806.976 684.187 801.497 717.348 819.839 C 725.422 824.305 727.902 834.252 720.776 841.167 C 685.795 875.112 628.516 883.587 581.643 889.202 C 524.371 894.463 483.755 889.306 429.381 910.125 C 427.54 908.54 425.63 907.122 423.705 905.64 z" fill="rgb(62,5,2)" transform="translate(0,0)"></path>
<path d="M 441.015 896.536 L 437.34 898.561 L 437.063 897.84 C 490.972 851.935 547.217 824.017 618.315 815.865 C 636.011 813.836 653.234 812.299 671.282 813.739 C 677.904 814.268 724.799 819.394 718.636 833.434 C 713.558 845.001 689.18 856.851 678.035 861.244 C 603.621 892.284 526.416 879.769 449.292 897.172 L 443.682 898.315 L 441.015 896.536 z" fill="rgb(207,193,153)" transform="translate(0,0)"></path>
<path d="M 441.015 896.536 C 457.76 886.329 470.439 880.334 493.341 872.414 C 540.041 856.264 593.525 844.118 643.016 839.789 C 643.349 839.878 643.682 839.967 644.014 840.056 L 644.137 841.528 C 638.742 843.925 608.071 848.588 600.317 850.11 C 563.031 857.429 480.281 875.017 449.292 897.172 L 443.682 898.315 L 441.015 896.536 z" fill="rgb(45,4,1)" transform="translate(0,0)"></path>
<path d="M 1821.34 1170.39 C 1845.38 1178.21 1859.22 1210.29 1864.6 1233.07 C 1875.55 1279.46 1868.95 1330.97 1854.64 1376.02 C 1851.3 1386.5 1846.84 1399.26 1841.2 1408.62 C 1837.69 1409.11 1835.11 1409.5 1831.66 1410.3 C 1827.45 1399.62 1819.97 1370.51 1817.14 1357.95 C 1805.64 1306.96 1787.18 1240.23 1804.16 1188.77 C 1807.39 1178.96 1812.63 1174.19 1821.34 1170.39 z" fill="rgb(62,5,2)" transform="translate(0,0)"></path>
<path d="M 1819 1176.73 C 1836 1177.87 1847.34 1200.36 1852.61 1214.6 C 1874.53 1273.89 1862.65 1347.15 1837.89 1403.81 C 1842.03 1353.36 1835.5 1300.1 1832.9 1249.75 C 1832.66 1244.21 1832.76 1239.81 1831.21 1234.47 L 1830.5 1234.8 C 1828.61 1245.68 1832.13 1302.28 1832.84 1316.6 C 1834.41 1343.59 1834.63 1370.64 1833.5 1397.65 C 1820.2 1352.95 1781.58 1210.61 1819 1176.73 z" fill="rgb(207,193,153)" transform="translate(0,0)"></path>
<path d="M 1596.29 239.765 C 1617.27 234.949 1619.17 212.732 1626.78 210.162 C 1629.8 212.515 1629.07 212.602 1630.7 216.827 C 1633.88 223.787 1633.39 223.481 1638.17 229.34 C 1643.45 235.805 1661.21 240.384 1660.44 246.489 C 1651.83 251.721 1645.71 251.376 1638.89 258.434 C 1633.42 264.102 1633.04 275.818 1626.83 278.083 C 1619.13 275.558 1618.34 262.592 1613.23 256.859 C 1608.81 251.893 1593.67 250.116 1592.11 244.204 C 1593.51 241.418 1593.68 241.609 1596.29 239.765 z" fill="rgb(252,249,239)" transform="translate(0,0)"></path>
<path d="M 1630.7 216.827 C 1633.88 223.787 1633.39 223.481 1638.17 229.34 C 1643.45 235.805 1661.21 240.384 1660.44 246.489 C 1651.83 251.721 1645.71 251.376 1638.89 258.434 C 1633.42 264.102 1633.04 275.818 1626.83 278.083 C 1619.13 275.558 1618.34 262.592 1613.23 256.859 C 1608.81 251.893 1593.67 250.116 1592.11 244.204 C 1593.51 241.418 1593.68 241.609 1596.29 239.765 C 1597.21 241.504 1597.38 242.399 1598.72 243.537 C 1616.45 250.719 1619.2 253.378 1626.91 270.965 C 1627.91 268.806 1628.93 266.655 1629.97 264.514 C 1636.14 251.875 1641.15 249.216 1653.94 244.808 C 1637.79 237.779 1633.88 235.621 1627.16 219.815 L 1630.7 216.827 z" fill="rgb(62,5,2)" transform="translate(0,0)"></path>
<path d="M 1596.29 239.765 C 1617.27 234.949 1619.17 212.732 1626.78 210.162 C 1629.8 212.515 1629.07 212.602 1630.7 216.827 L 1627.16 219.815 C 1623.65 220.853 1620.42 230.814 1616.36 234.407 C 1610.48 239.617 1605.42 240.509 1598.72 243.537 C 1597.38 242.399 1597.21 241.504 1596.29 239.765 z" fill="rgb(68,31,22)" transform="translate(0,0)"></path>
<path d="M 975.162 816.234 C 981.442 818.07 985.818 832.965 989.251 839.569 C 995.405 841.485 1006.85 843.933 1009.61 850.119 C 1007.05 854.691 995.653 857.08 990.781 861.98 C 983.111 869.695 984.318 878.739 976.145 885.93 C 966.577 877.933 970.172 868.362 960.968 860.714 C 955.961 856.554 943.986 856.493 940.911 850.395 C 943.607 845.368 950.566 844.944 956.181 842.667 C 968.018 837.867 970.529 827.217 975.162 816.234 z" fill="rgb(62,5,2)" transform="translate(0,0)"></path>
<path d="M 976.535 826.481 C 978.406 827.96 980.669 832.364 981.561 834.564 C 985.868 845.193 992.375 846.294 1002.99 849.759 C 985.348 858.225 984.762 860.366 976.46 878.313 C 975.409 877.294 973.558 873.357 972.876 871.935 C 966.057 857.723 963.822 857.097 950.563 850.31 C 965.446 844.015 969.276 840.194 976.535 826.481 z" fill="rgb(252,249,239)" transform="translate(0,0)"></path>
<path d="M 1869.61 1902.08 C 1864.79 1900.09 1864.22 1900.73 1861.38 1897.22 L 1861.63 1895.4 C 1870.03 1889.82 1875.98 1890.43 1881.73 1882.93 C 1885.96 1877.43 1889.06 1864.31 1894.47 1865.01 C 1900.28 1871.32 1899.36 1878.08 1905.87 1884 C 1911.16 1888.82 1925.25 1892.13 1928.45 1895.99 C 1923.33 1902.59 1912 1902.76 1905.88 1909.4 C 1900.96 1914.75 1899.39 1927.9 1893.21 1929.26 C 1890.1 1927.45 1889.24 1924.4 1888.13 1920.9 C 1885.2 1910.15 1879.28 1906.15 1869.61 1902.08 z" fill="rgb(252,249,239)" transform="translate(0,0)"></path>
<path d="M 1869.61 1902.08 C 1864.79 1900.09 1864.22 1900.73 1861.38 1897.22 L 1861.63 1895.4 C 1870.03 1889.82 1875.98 1890.43 1881.73 1882.93 C 1885.96 1877.43 1889.06 1864.31 1894.47 1865.01 C 1900.28 1871.32 1899.36 1878.08 1905.87 1884 C 1911.16 1888.82 1925.25 1892.13 1928.45 1895.99 C 1923.33 1902.59 1912 1902.76 1905.88 1909.4 C 1900.96 1914.75 1899.39 1927.9 1893.21 1929.26 C 1890.1 1927.45 1889.24 1924.4 1888.13 1920.9 C 1890.49 1918.92 1889.28 1919.77 1892.87 1919.16 L 1893.88 1920.46 C 1895.33 1920.16 1897.08 1915.85 1897.77 1914.28 C 1901.85 1904.99 1905.84 1902.04 1915.07 1897.43 L 1916 1896.97 L 1915.72 1895.84 C 1901.42 1889.67 1900.17 1887.21 1893.41 1873.05 C 1887.51 1885.33 1883.39 1890.6 1871.11 1896.4 C 1869.37 1899.05 1869.53 1898.88 1869.61 1902.08 z" fill="rgb(62,5,2)" transform="translate(0,0)"></path>
<path d="M 1869.61 1902.08 C 1869.53 1898.88 1869.37 1899.05 1871.11 1896.4 C 1874.14 1902.71 1887.7 1901.03 1892.87 1919.16 C 1889.28 1919.77 1890.49 1918.92 1888.13 1920.9 C 1885.2 1910.15 1879.28 1906.15 1869.61 1902.08 z" fill="rgb(68,31,22)" transform="translate(0,0)"></path>
<path d="M 191.521 1676.39 C 196.914 1679.27 199.427 1690.9 202.949 1696.29 C 207.653 1703.5 222.504 1704.26 225.14 1712.21 C 220.87 1717.64 209.053 1716.82 202.749 1725.99 C 198.939 1731.53 197.448 1739.19 194.164 1745.23 C 193.51 1745.07 192.838 1744.97 192.201 1744.75 C 187.002 1742.97 186.761 1732.21 183.71 1727.8 C 179.455 1721.65 169.674 1718.98 163.623 1714.81 C 161.652 1713.45 161.074 1712.85 160.156 1710.73 C 162.427 1708.34 164.255 1708.3 167.365 1707.31 C 184.078 1701.98 184.486 1689.91 191.521 1676.39 z" fill="rgb(68,31,22)" transform="translate(0,0)"></path>
<path d="M 192.04 1687.55 C 201.253 1699.98 200.452 1703.48 215.48 1711.16 C 204.002 1716.69 198.128 1722.71 192.907 1734.2 C 187.05 1723.31 180.215 1718.21 170.104 1711.48 C 181.691 1706.08 187.677 1699.34 192.04 1687.55 z" fill="rgb(252,249,239)" transform="translate(0,0)"></path>
<path d="M 113.924 504.338 L 115.012 504.168 C 136.761 500.562 132.212 481.614 140.969 473.407 C 146.951 476.029 140.186 501.893 168.986 504.323 C 171.735 507.588 171.765 506.569 171.846 509.938 C 170.34 511.312 170.722 511.178 168.956 512.068 C 147.616 521.313 150.096 521.816 141.023 541.233 L 139.671 543.457 C 134.695 543.283 133.989 530.124 131.299 525.377 C 127.571 518.799 107.597 514.4 107.386 507.716 C 110.196 504.77 109.475 505.662 113.924 504.338 z" fill="rgb(252,249,239)" transform="translate(0,0)"></path>
<path d="M 141.023 541.233 L 139.671 543.457 C 134.695 543.283 133.989 530.124 131.299 525.377 C 127.571 518.799 107.597 514.4 107.386 507.716 C 110.196 504.77 109.475 505.662 113.924 504.338 L 117.619 508.925 C 124.459 516.995 131.223 512.083 139.879 532.993 C 147.724 513.422 150.362 519.116 163.354 508.107 L 161.922 507.859 C 164.514 505.3 165.52 505.294 168.986 504.323 C 171.735 507.588 171.765 506.569 171.846 509.938 C 170.34 511.312 170.722 511.178 168.956 512.068 C 147.616 521.313 150.096 521.816 141.023 541.233 z" fill="rgb(62,5,2)" transform="translate(0,0)"></path>
<path d="M 113.924 504.338 L 115.012 504.168 C 136.761 500.562 132.212 481.614 140.969 473.407 C 146.951 476.029 140.186 501.893 168.986 504.323 C 165.52 505.294 164.514 505.3 161.922 507.859 C 151.873 504.234 147.268 501.598 142.45 491.356 C 141.471 489.226 140.553 487.07 139.695 484.889 C 135.42 499.268 132.545 503.671 117.619 508.925 L 113.924 504.338 z" fill="rgb(68,31,22)" transform="translate(0,0)"></path>
<path d="M 795.162 120.42 C 806.235 114.745 804.639 110.025 812.806 103.383 C 816.265 105.615 817.641 113.72 821.313 117.368 C 825.766 121.792 832.832 122.084 836.905 125.934 C 834.201 133.873 822.423 133.937 816.69 145.27 C 815.731 149.167 815.541 154.428 811.218 154.963 C 808.236 151.637 805.783 142.791 804.089 138.013 C 798.83 134.828 788.274 130.655 787.775 124.914 C 790.476 121.507 790.493 122.323 795.162 120.42 z" fill="rgb(252,249,239)" transform="translate(0,0)"></path>
<path d="M 795.162 120.42 C 806.235 114.745 804.639 110.025 812.806 103.383 C 816.265 105.615 817.641 113.72 821.313 117.368 C 825.766 121.792 832.832 122.084 836.905 125.934 C 834.201 133.873 822.423 133.937 816.69 145.27 C 815.474 144.286 813.989 143.703 812.524 142.972 C 819.047 134.552 821.857 132.66 830.413 126.976 C 826.309 125.544 823.479 124.277 819.508 122.469 C 816.094 117.89 815.066 115.515 812.655 110.477 C 805.334 119.057 802.894 121.022 793.013 126.458 C 792.325 123.725 793.163 123.785 795.162 120.42 z" fill="rgb(68,31,22)" transform="translate(0,0)"></path>
<path d="M 804.089 138.013 C 798.83 134.828 788.274 130.655 787.775 124.914 C 790.476 121.507 790.493 122.323 795.162 120.42 C 793.163 123.785 792.325 123.725 793.013 126.458 C 800.773 130.666 806.034 133.938 811.206 141.509 C 811.872 142.483 811.668 142.213 812.524 142.972 C 813.989 143.703 815.474 144.286 816.69 145.27 C 815.731 149.167 815.541 154.428 811.218 154.963 C 808.236 151.637 805.783 142.791 804.089 138.013 z" fill="url(#Gradient3)" transform="translate(0,0)"></path>
<path d="M 1262.11 636.069 C 1260.21 635.505 1260.23 635.328 1258.48 634.291 L 1258.05 631.909 C 1260.27 628.257 1269.77 626.324 1273.41 622.794 C 1278.26 618.093 1277.73 608.342 1283.02 604.887 C 1286.09 605.834 1284.69 605.049 1287.05 607.833 C 1289.94 616.469 1292.68 623.197 1302.12 626.003 C 1301.7 628.228 1301.45 629.001 1301.4 631.247 L 1301.32 636.777 C 1290.86 641.98 1289.57 657.803 1281.43 654.411 C 1277.66 650.483 1276.66 645.902 1274.84 640.648 C 1270.88 639.022 1266.2 637.509 1262.11 636.069 z" fill="rgb(252,249,239)" transform="translate(0,0)"></path>
<path d="M 1301.4 631.247 L 1301.32 636.777 C 1290.86 641.98 1289.57 657.803 1281.43 654.411 C 1277.66 650.483 1276.66 645.902 1274.84 640.648 C 1270.88 639.022 1266.2 637.509 1262.11 636.069 L 1264.96 635.409 L 1265.83 632.244 C 1278.3 633.869 1280.07 640.717 1283.84 651.147 L 1289.52 638.452 C 1293.06 636.002 1297.61 633.408 1301.4 631.247 z" fill="url(#Gradient2)" transform="translate(0,0)"></path>
<path d="M 1262.11 636.069 C 1260.21 635.505 1260.23 635.328 1258.48 634.291 L 1258.05 631.909 C 1260.27 628.257 1269.77 626.324 1273.41 622.794 C 1278.26 618.093 1277.73 608.342 1283.02 604.887 C 1286.09 605.834 1284.69 605.049 1287.05 607.833 C 1285.36 610.518 1284.5 610.919 1284.21 614.019 C 1282.05 617.917 1279.96 621.85 1277.93 625.816 C 1273.92 627.992 1269.92 630.21 1265.83 632.244 L 1264.96 635.409 L 1262.11 636.069 z" fill="url(#Gradient1)" transform="translate(0,0)"></path>
<path d="M 1287.05 607.833 C 1289.94 616.469 1292.68 623.197 1302.12 626.003 C 1301.7 628.228 1301.45 629.001 1301.4 631.247 C 1291.19 626.232 1288.89 624.177 1284.21 614.019 C 1284.5 610.919 1285.36 610.518 1287.05 607.833 z" fill="rgb(62,5,2)" transform="translate(0,0)"></path>
<path d="M 1341.87 369.886 C 1346.55 368.897 1351.14 371.882 1352.13 376.553 C 1353.12 381.225 1350.14 385.816 1345.46 386.809 C 1340.79 387.803 1336.2 384.819 1335.2 380.144 C 1334.21 375.47 1337.2 370.876 1341.87 369.886 z" fill="rgb(62,5,2)" transform="translate(0,0)"></path>
<path d="M 432.995 152.632 C 437.118 152.34 440.723 155.386 441.125 159.5 C 441.526 163.614 438.577 167.299 434.475 167.81 C 431.723 168.152 429.002 166.974 427.369 164.733 C 425.735 162.491 425.447 159.54 426.617 157.025 C 427.786 154.51 430.228 152.828 432.995 152.632 z" fill="rgb(45,4,1)" transform="translate(0,0)"></path>
<path d="M 1936.25 1119.78 C 1938.48 1118.33 1941.31 1118.22 1943.65 1119.48 C 1945.98 1120.74 1947.44 1123.17 1947.45 1125.82 C 1947.47 1128.48 1946.03 1130.92 1943.7 1132.2 C 1940.29 1134.08 1936 1132.92 1933.99 1129.58 C 1931.99 1126.24 1932.99 1121.91 1936.25 1119.78 z" fill="rgb(45,4,1)" transform="translate(0,0)"></path>
<path d="M 1813.36 409.631 C 1817.05 408.303 1821.13 410.19 1822.5 413.865 C 1823.88 417.541 1822.05 421.642 1818.4 423.071 C 1815.99 424.014 1813.25 423.585 1811.25 421.95 C 1809.24 420.315 1808.27 417.727 1808.71 415.175 C 1809.14 412.624 1810.92 410.506 1813.36 409.631 z" fill="rgb(68,31,22)" transform="translate(0,0)"></path>
<path d="M 453.391 1759.74 C 456.966 1759.61 460.069 1762.18 460.603 1765.72 C 461.137 1769.26 458.933 1772.63 455.48 1773.56 C 452.867 1774.27 450.082 1773.42 448.315 1771.37 C 446.548 1769.32 446.113 1766.43 447.195 1763.95 C 448.278 1761.47 450.687 1759.84 453.391 1759.74 z" fill="rgb(68,31,22)" transform="translate(0,0)"></path>
<path d="M 97.5205 792.539 C 101.225 791.762 104.864 794.113 105.681 797.809 C 106.497 801.505 104.185 805.169 100.498 806.025 C 98.0778 806.586 95.5423 805.804 93.8586 803.977 C 92.175 802.15 91.6029 799.559 92.3605 797.192 C 93.1181 794.826 95.0886 793.049 97.5205 792.539 z" fill="rgb(45,4,1)" transform="translate(0,0)"></path>
<path d="M 1086.75 668.791 C 1089.45 667.316 1092.84 668.277 1094.37 670.954 C 1095.9 673.63 1095 677.037 1092.36 678.617 C 1090.6 679.666 1088.41 679.684 1086.64 678.663 C 1084.86 677.642 1083.78 675.742 1083.8 673.694 C 1083.82 671.647 1084.95 669.772 1086.75 668.791 z" fill="rgb(45,4,1)" transform="translate(0,0)"></path>
<path d="M 1422.1 118.62 C 1423.88 117.705 1426.01 117.844 1427.65 118.981 C 1429.3 120.119 1430.18 122.069 1429.94 124.052 C 1429.71 126.035 1428.4 127.727 1426.54 128.451 C 1423.86 129.494 1420.84 128.258 1419.66 125.639 C 1418.47 123.021 1419.55 119.936 1422.1 118.62 z" fill="rgb(45,4,1)" transform="translate(0,0)"></path>
<path d="M 92.4528 1622.59 C 95.1042 1622.39 97.4863 1624.21 97.997 1626.81 C 98.5077 1629.42 96.9856 1632 94.4543 1632.82 C 92.5287 1633.44 90.4187 1632.89 89.0309 1631.42 C 87.643 1629.95 87.2246 1627.81 87.9553 1625.93 C 88.6861 1624.04 90.4358 1622.74 92.4528 1622.59 z" fill="rgb(45,4,1)" transform="translate(0,0)"></path>
<path d="M 1884.05 135.476 C 1886.14 133.809 1889.18 134.091 1890.92 136.115 C 1892.67 138.139 1892.51 141.183 1890.55 143.008 C 1889.22 144.255 1887.31 144.671 1885.58 144.093 C 1883.85 143.516 1882.57 142.037 1882.25 140.24 C 1881.93 138.442 1882.62 136.615 1884.05 135.476 z" fill="rgb(62,5,2)" transform="translate(0,0)"></path>
<path d="M 1302.12 626.003 C 1307.08 627.803 1306.62 626.83 1309.64 630.31 C 1309.16 635.323 1305.76 635.425 1301.32 636.777 L 1301.4 631.247 C 1301.45 629.001 1301.7 628.228 1302.12 626.003 z" fill="rgb(45,4,1)" transform="translate(0,0)"></path>
<path d="M 193.059 325.563 C 194.617 325.102 196.303 325.517 197.468 326.649 C 198.634 327.78 199.1 329.452 198.686 331.023 C 198.272 332.594 197.044 333.82 195.472 334.231 C 193.095 334.852 190.659 333.451 190.001 331.084 C 189.342 328.717 190.703 326.259 193.059 325.563 z" fill="rgb(62,5,2)" transform="translate(0,0)"></path>
<metadata><recraft-signature>{"signed_by": "recraft", "signature_b64": "9ukjJoJtPSncBBTeKvYOv4FeNnH1jTNkC5QvCHGn4KWTsinasoIRvkHzaMxW9MHbnBd6vPuCWl8HjiMsnINGCA==", "signing_algo": "Ed25519", "generation_timestamp": 1778092735, "identifier": "8c4f1b5b-21b0-4190-880a-0531fb365531"}</recraft-signature></metadata></svg>