<svg xmlns="http://www.w3.org/2000/svg" height="1024" preserveAspectRatio="none" style="display: block;" version="1.1" viewBox="0 0 2048 2048" width="1024">
<defs>
	<linearGradient gradientUnits="userSpaceOnUse" id="Gradient1" x1="437.361" x2="429.639" y1="1764.8" y2="1774.2">
		<stop class="stop0" offset="0" stop-color="rgb(81,20,4)" stop-opacity="1"></stop>
		<stop class="stop1" offset="1" stop-color="rgb(151,80,23)" stop-opacity="1"></stop>
	</linearGradient>
</defs>
<path d="M 0 0 L 2048 0 L 2048 2048 L 0 2048 L 0 0 z" fill="rgb(250,246,234)" transform="translate(0,0)"></path>
<path d="M 428.285 1262.77 C 380.075 1100.89 390.112 909.522 464.91 757.177 C 536.848 610.121 664.261 497.668 819.115 444.558 C 1091.24 352.483 1399.09 493.408 1552.54 725.382 C 1662.13 891.046 1703.27 1078.75 1618.83 1265.76 C 1582.98 1345.15 1525.56 1423.75 1468.27 1487.71 C 1295.68 1680.41 1026.81 1752.98 786.759 1646.8 C 767.273 1638.18 748.146 1628.74 728.903 1619.12 C 756.729 1648.95 784.539 1679.74 809.36 1712.21 C 821.268 1727.79 838.956 1746.78 841.201 1766.99 C 842.604 1779.61 836.386 1787.65 828.598 1796.65 C 831.932 1800.74 834.879 1804.51 838.612 1808.27 C 864.07 1834.15 888.479 1862.38 912.386 1889.69 C 924.272 1904.4 940.982 1925.93 938.742 1945.94 C 936.691 1961.34 924.462 1971.94 908.771 1968.47 C 888.299 1963.95 871.015 1948.43 856.099 1934.53 C 825.468 1906 799.221 1874.14 775.535 1839.66 C 747.839 1858.6 722.04 1850.01 700.966 1826.58 C 686.476 1810.46 672.426 1793.89 657.998 1777.69 C 617.271 1731.98 576.915 1685.94 536.936 1639.58 C 472.726 1567.65 409.297 1495.04 346.658 1421.74 C 314.956 1384.94 282.41 1348.16 252.257 1310.08 C 242.165 1297.34 228.87 1281.17 222.855 1266.3 C 218.489 1255.51 224.264 1242.51 229.35 1232.98 C 203.431 1195.48 129.857 1139.22 124.617 1095.17 C 123.624 1086.82 125.3 1079.68 130.709 1073.14 C 135.232 1067.68 141.217 1064.53 148.312 1064.11 C 191.582 1061.54 250.798 1152.41 282.612 1179.14 C 292.726 1173.46 305.131 1166.34 317.105 1166.95 C 340.715 1168.16 410.231 1242.17 428.285 1262.77 z" fill="rgb(92,34,11)" transform="translate(0,0)"></path>
<path d="M 819.98 1798.01 L 826.529 1805.65 L 829.988 1809.26 C 836.956 1817.92 847.121 1827.88 854.804 1836.32 C 873.114 1856.44 892.669 1877.06 909.593 1898.28 C 917.988 1908.81 934.334 1931.88 931.816 1945.84 C 930.792 1951.52 928.417 1954.86 923.783 1958.21 C 919.017 1961.65 911.955 1962.1 906.637 1960.57 C 869.059 1949.82 795.26 1860.22 776.928 1829.48 C 786.814 1814.04 802.676 1803.45 819.98 1798.01 z" fill="rgb(250,246,234)" transform="translate(0,0)"></path>
<path d="M 828.598 1796.65 C 831.932 1800.74 834.879 1804.51 838.612 1808.27 C 835.563 1807.92 833.746 1807.74 830.612 1807.74 L 829.988 1809.26 L 826.529 1805.65 C 826.957 1802.5 827.788 1799.72 828.598 1796.65 z" fill="rgb(120,40,10)" transform="translate(0,0)"></path>
<path d="M 961.804 423.425 C 962.222 423.378 962.639 423.32 963.059 423.285 C 988.221 421.154 1015.16 422.605 1040.31 424.647 C 1185.83 436.458 1324.17 502.273 1433.96 597.157 C 1476.32 633.765 1513.01 679.106 1543.91 725.603 C 1604.67 816.999 1647.3 914.543 1655.07 1025.35 C 1658.11 1074.88 1653.71 1124.59 1642.01 1172.82 C 1618.35 1267.29 1560.72 1367.2 1490.84 1434.78 C 1386.4 1533.8 1250.81 1593.49 1107.25 1603.63 C 1070.11 1606.77 1033.34 1603.66 996.455 1599.92 C 831.642 1583.19 676.921 1510.36 567.982 1384.13 C 484.446 1287.33 425.489 1158.92 415.696 1030.74 C 412.69 993.7 413.909 956.441 419.331 919.681 C 422.741 897.51 428.185 877.848 434.488 856.352 C 458.971 771.034 502.036 692.192 560.593 625.486 C 662.4 507.794 806.632 435.155 961.804 423.425 z" fill="rgb(166,126,101)" transform="translate(0,0)"></path>
<path d="M 972.552 454.424 C 1002.94 451.987 1035.21 454.806 1065.37 458.78 C 1189.67 475.076 1306.58 527.108 1401.88 608.559 C 1449.86 649.553 1492.09 696.834 1527.43 749.121 C 1576.98 823.809 1617.36 927.605 1624.29 1017.18 C 1630.37 1095.91 1611.92 1181.51 1577.2 1252.29 C 1567.68 1271.7 1556.09 1290.12 1544.71 1308.47 C 1527.76 1335.8 1509.21 1362.78 1488.15 1387.13 C 1472.94 1404.72 1455.68 1420.3 1438.19 1435.58 C 1343.25 1518.53 1227.39 1562.59 1102.24 1571.81 C 1101.71 1571.84 1101.18 1571.88 1100.64 1571.9 C 932.679 1580.49 768.121 1522.41 642.765 1410.29 C 620.941 1390.66 599.627 1370.25 580.525 1347.92 C 501.784 1256.05 455.688 1140.68 449.439 1019.85 C 443.855 911.797 469.201 818.491 525.709 726.709 C 544.282 696.072 565.648 667.219 589.534 640.517 C 692.948 526.237 818.278 462.231 972.552 454.424 z" fill="rgb(92,34,11)" transform="translate(0,0)"></path>
<path d="M 981.637 722.438 C 1094.07 716.1 1212.64 760.742 1297.1 834.087 C 1381.24 907.147 1436.07 1001.75 1443.84 1114.16 C 1452.09 1226.28 1414.6 1336.97 1339.93 1421.01 C 1294.16 1473.33 1222.23 1520.04 1156.23 1541.78 C 1119.44 1553.9 1081.44 1560.14 1042.88 1562.75 C 1021.29 1563.22 999.264 1560.6 977.923 1557.55 C 892.413 1545.35 781.964 1511.32 717.04 1452.59 C 637.115 1380.29 582.497 1265.49 577.058 1157.88 C 572.032 1049.57 610.468 943.737 683.826 863.891 C 760.186 778.811 867.445 727.866 981.637 722.438 z" fill="rgb(250,246,234)" transform="translate(0,0)"></path>
<path d="M 1034.29 798.404 C 1043.95 797.125 1054.79 797.61 1064.49 798.285 C 1148.05 804.093 1241.33 848.942 1296.1 912.391 C 1310.2 928.724 1322.16 946.26 1330.89 966.033 C 1335.02 975.4 1338.39 985.121 1342.67 994.42 C 1348.68 1007.49 1355.72 1019.94 1361.37 1033.21 C 1383.77 1085.84 1391.8 1140.43 1387.56 1197.33 C 1380.42 1286.03 1338.91 1368.44 1271.88 1426.96 C 1191.9 1496 1087.54 1530 982.246 1521.32 C 908.764 1517.6 819.897 1480.98 763.159 1434.43 C 688.203 1372.92 637.417 1285.68 628.057 1188.47 C 619.379 1098.34 648.958 1009.56 706.188 940.103 C 761.922 872.465 837.563 826.367 924.304 811.502 C 946.817 807.643 966.424 808.192 988.12 805.691 C 1003.62 803.905 1018.67 799.909 1034.29 798.404 z" fill="rgb(92,34,11)" transform="translate(0,0)"></path>
<path d="M 1033.65 805.411 C 1036.72 804.914 1040 805.014 1043.12 804.907 C 1124.87 802.128 1216.37 844.667 1274.98 899.874 C 1326.75 948.637 1349.23 1018.42 1351.05 1088.23 C 1352.67 1150.92 1335.8 1305.67 1292.08 1350.94 C 1275.83 1367.76 1252.4 1377.55 1231.05 1386.02 C 1160.14 1414.12 1085.41 1427.41 1009.26 1428.57 C 960.788 1428.36 855.434 1422.21 818.353 1392.21 C 799.087 1376.62 785.248 1354.54 771.958 1333.91 C 734.427 1275.65 698.02 1206.95 690.547 1136.92 C 688.75 1121.18 689.101 1105.28 691.591 1089.64 C 699.099 1044.26 728.408 981.077 757.373 945.643 C 770.491 929.595 785.208 914.424 801.668 901.797 C 856.789 859.512 965.16 812.089 1033.65 805.411 z" fill="rgb(250,246,234)" transform="translate(0,0)"></path>
<path d="M 1293.4 1251.79 C 1296.62 1250.67 1300.16 1252.27 1301.45 1255.43 C 1302.75 1258.58 1301.35 1262.2 1298.27 1263.67 C 1296.12 1264.69 1293.58 1264.44 1291.67 1263.02 C 1289.75 1261.6 1288.79 1259.24 1289.15 1256.88 C 1289.51 1254.53 1291.15 1252.57 1293.4 1251.79 z" fill="rgb(211,185,124)" transform="translate(0,0)"></path>
<path d="M 818.157 1301.41 C 819.546 1301.8 819.886 1301.84 821.319 1302.49 C 823.946 1303.69 825.436 1305.37 826.411 1308.07 C 826.487 1311.55 825.339 1313.09 823.464 1315.82 C 821.725 1315.85 819.515 1315.67 817.979 1314.8 C 816.004 1313.69 814.92 1311.79 814.733 1309.57 C 814.459 1306.3 816.341 1303.89 818.157 1301.41 z" fill="rgb(211,185,124)" transform="translate(0,0)"></path>
<path d="M 1018.11 979.444 C 1018.52 979.691 1018.95 979.918 1019.35 980.187 C 1021.25 981.466 1022.84 983.191 1023.06 985.548 C 1023.45 989.68 1021.04 992.168 1018.53 995.057 C 1017.33 994.313 1015.79 993.476 1014.83 992.456 C 1012.9 990.417 1012.72 988.732 1012.69 986.052 C 1013.91 982.73 1015.31 981.543 1018.11 979.444 z" fill="rgb(211,185,124)" transform="translate(0,0)"></path>
<path d="M 868.234 1229.51 C 870.056 1228.41 872.337 1228.39 874.174 1229.47 C 876.012 1230.55 877.111 1232.54 877.037 1234.67 C 876.963 1236.8 875.728 1238.72 873.82 1239.67 C 871.035 1241.05 867.654 1239.99 866.155 1237.27 C 864.657 1234.54 865.573 1231.12 868.234 1229.51 z" fill="rgb(211,185,124)" transform="translate(0,0)"></path>
<path d="M 822.591 913.947 C 824.063 913.937 826.203 913.729 827.594 914.151 C 829.987 914.877 830.251 915.71 831.124 917.782 C 830.635 921.078 829.261 922.814 827.322 925.381 C 826.337 925.303 824.87 925.226 823.95 924.955 C 821.25 924.157 820.657 923.287 819.29 921.059 C 819.371 917.78 820.651 916.382 822.591 913.947 z" fill="rgb(211,185,124)" transform="translate(0,0)"></path>
<path d="M 1283.66 1071.6 C 1285.52 1070.71 1287.71 1070.89 1289.4 1072.07 C 1291.09 1073.24 1292.01 1075.23 1291.83 1077.28 C 1291.64 1079.33 1290.37 1081.12 1288.49 1081.97 C 1285.64 1083.26 1282.27 1082.02 1280.95 1079.18 C 1279.62 1076.33 1280.84 1072.96 1283.66 1071.6 z" fill="rgb(211,185,124)" transform="translate(0,0)"></path>
<path d="M 1005.75 1377.35 C 1008.57 1376.22 1011.78 1377.5 1013.04 1380.26 C 1014.3 1383.03 1013.16 1386.3 1010.45 1387.68 C 1008.59 1388.63 1006.36 1388.48 1004.64 1387.29 C 1002.92 1386.1 1001.99 1384.07 1002.22 1381.99 C 1002.45 1379.91 1003.81 1378.13 1005.75 1377.35 z" fill="rgb(211,185,124)" transform="translate(0,0)"></path>
<path d="M 1222.32 911.542 C 1224.9 909.954 1228.26 910.709 1229.91 913.242 C 1231.56 915.774 1230.88 919.159 1228.39 920.866 C 1226.72 922.006 1224.57 922.155 1222.76 921.254 C 1220.96 920.353 1219.78 918.544 1219.69 916.527 C 1219.6 914.51 1220.61 912.602 1222.32 911.542 z" fill="rgb(211,185,124)" transform="translate(0,0)"></path>
<path d="M 967.681 1274.4 C 969.561 1273.67 971.685 1274.02 973.235 1275.31 C 974.786 1276.59 975.522 1278.62 975.16 1280.6 C 974.799 1282.58 973.396 1284.21 971.491 1284.87 C 968.618 1285.86 965.482 1284.36 964.443 1281.5 C 963.403 1278.65 964.844 1275.49 967.681 1274.4 z" fill="rgb(211,185,124)" transform="translate(0,0)"></path>
<path d="M 1114.39 1102.95 C 1117.11 1101.55 1120.46 1102.62 1121.85 1105.35 C 1123.25 1108.08 1122.16 1111.43 1119.43 1112.81 C 1116.7 1114.19 1113.38 1113.11 1111.99 1110.39 C 1110.6 1107.67 1111.67 1104.34 1114.39 1102.95 z" fill="rgb(211,185,124)" transform="translate(0,0)"></path>
<path d="M 1167.82 1227.62 C 1170.69 1226.89 1173.61 1228.62 1174.35 1231.49 C 1175.08 1234.36 1173.35 1237.29 1170.48 1238.02 C 1167.6 1238.76 1164.68 1237.02 1163.95 1234.15 C 1163.21 1231.28 1164.95 1228.36 1167.82 1227.62 z" fill="rgb(211,185,124)" transform="translate(0,0)"></path>
<path d="M 739.876 1133.46 C 741.447 1132.29 743.531 1132.08 745.307 1132.9 C 747.083 1133.73 748.265 1135.46 748.388 1137.41 C 748.511 1139.36 747.555 1141.23 745.896 1142.27 C 743.468 1143.79 740.273 1143.12 738.656 1140.76 C 737.039 1138.39 737.578 1135.17 739.876 1133.46 z" fill="rgb(211,185,124)" transform="translate(0,0)"></path>
<path d="M 936.179 890.555 C 939.746 890.979 941.222 891.763 943.485 894.46 C 944.107 897.961 943.17 899.897 941.823 903.019 C 941.073 903.037 940.096 903.099 939.374 902.926 C 936.715 902.288 936.309 901.271 934.943 899.12 C 934.711 895.777 935.073 893.707 936.179 890.555 z" fill="rgb(211,185,124)" transform="translate(0,0)"></path>
<path d="M 860.933 1163.67 C 863.345 1162.52 866.236 1163.55 867.369 1165.97 C 868.502 1168.4 867.444 1171.28 865.013 1172.39 C 862.611 1173.49 859.771 1172.45 858.651 1170.05 C 857.531 1167.66 858.55 1164.81 860.933 1163.67 z" fill="rgb(211,185,124)" transform="translate(0,0)"></path>
<path d="M 1202.21 1002.71 C 1204.58 1001.73 1207.3 1002.85 1208.28 1005.22 C 1209.26 1007.58 1208.13 1010.3 1205.76 1011.27 C 1203.39 1012.24 1200.69 1011.12 1199.72 1008.76 C 1198.74 1006.4 1199.86 1003.69 1202.21 1002.71 z" fill="rgb(211,185,124)" transform="translate(0,0)"></path>
<path d="M 858.754 1038.72 C 860.893 1037.37 863.723 1038 865.091 1040.13 C 866.458 1042.26 865.851 1045.09 863.731 1046.47 C 861.589 1047.87 858.72 1047.26 857.339 1045.11 C 855.958 1042.95 856.593 1040.09 858.754 1038.72 z" fill="rgb(211,185,124)" transform="translate(0,0)"></path>
<path d="M 1124.52 843.663 C 1125.92 842.822 1127.68 842.832 1129.07 843.69 C 1130.46 844.548 1131.26 846.109 1131.14 847.74 C 1131.02 849.371 1130 850.799 1128.5 851.443 C 1126.38 852.351 1123.92 851.463 1122.87 849.412 C 1121.82 847.36 1122.54 844.847 1124.52 843.663 z" fill="rgb(211,185,124)" transform="translate(0,0)"></path>
<path d="M 941.708 816.462 C 944.368 817.009 944.922 816.832 947.011 818.435 C 833.882 865.244 753.408 902.637 704.324 1024.06 C 695.01 1047.15 686.892 1071.71 683.735 1096.46 C 681.02 1118.68 684.566 1140.48 687.029 1162.48 C 688.134 1174.33 687.155 1186.22 688.029 1198.09 C 696.295 1310.27 782.694 1411.15 884.721 1452.86 C 958.88 1483.18 1052.8 1482.97 1128.16 1456.27 C 1155.02 1446.76 1182.45 1430.49 1205.79 1413.96 C 1213.36 1408.6 1219.97 1401.33 1227.64 1396.07 C 1236.04 1391.05 1250.32 1385.2 1259.6 1381.28 C 1288.08 1369.25 1312.64 1343.02 1322.91 1313.5 C 1347.82 1241.97 1368.88 1116.89 1353.49 1043.45 L 1355.42 1038.22 C 1366.51 1063.49 1374.08 1090.17 1377.91 1117.49 C 1390.43 1207.92 1368.81 1298.41 1313.88 1372 C 1299.14 1391.92 1281.41 1408.5 1262.8 1424.58 C 1126.72 1542.17 919.491 1543.95 777.423 1435.58 C 700.843 1377.16 649.187 1295.61 636.892 1199.31 C 625.481 1111.4 649.957 1022.59 704.795 952.936 C 764.355 876.027 845.236 828.692 941.708 816.462 z" fill="rgb(250,246,234)" transform="translate(0,0)"></path>
<path d="M 694.807 1192.5 C 700.299 1201.33 709.75 1232.91 715.37 1245.93 C 729.929 1279.66 748.947 1310.54 768.968 1341.26 C 779.516 1357.44 790.167 1374.43 803.61 1388.41 C 811.153 1396.33 819.995 1402.89 829.754 1407.83 C 850.781 1418.3 875.921 1422.55 898.937 1426.61 C 1006.01 1445.52 1110.15 1434.57 1212.7 1400.21 L 1191.96 1414.81 C 1144.52 1449.17 1085.1 1466.18 1027.03 1468.19 C 937.151 1471.3 856.874 1445.47 790.583 1383.33 C 738.722 1334.72 697.132 1264.91 694.807 1192.5 z" fill="rgb(250,246,234)" transform="translate(0,0)"></path>
<path d="M 941.708 816.462 C 947.007 815.773 952.31 815.125 957.618 814.516 C 953.315 816.454 951.539 817.407 947.011 818.435 C 944.922 816.832 944.368 817.009 941.708 816.462 z" fill="rgb(250,246,234)" transform="translate(0,0)"></path>
<path d="M 1350.68 1026.94 C 1352.29 1030.69 1353.88 1034.45 1355.42 1038.22 L 1353.49 1043.45 L 1350.68 1026.94 z" fill="rgb(215,203,190)" transform="translate(0,0)"></path>
<path d="M 1108.25 1561.53 C 1123.67 1558 1139 1554.69 1154.06 1549.82 C 1249.68 1519.57 1331.67 1456.78 1385.82 1372.37 C 1447.32 1276.4 1467.34 1159.62 1441.31 1048.64 C 1415.95 938.282 1339.5 846.767 1245.12 786.471 C 1145.29 722.697 1018.8 698.981 902.759 725.988 C 791.089 752.843 694.276 822.15 632.86 919.204 C 573.466 1014.72 554.974 1122.46 580.812 1231.92 C 596.376 1295.37 625.081 1354.84 665.071 1406.51 C 674.674 1418.84 684.276 1431 695.848 1441.6 C 697.935 1443.51 700.35 1445.11 701.53 1447.43 C 696.864 1447.04 685.209 1436.81 680.725 1433.23 C 648.172 1407.26 618.486 1380.34 591.517 1348.55 C 577.19 1331.66 572.619 1318.74 563.614 1298.87 C 529.508 1225.08 515.305 1143.65 522.419 1062.67 C 533.52 940.446 599.242 824.311 692.916 746.169 C 793.666 662.687 923.663 623.051 1053.85 636.119 C 1190.41 648.779 1311.76 715.414 1398.34 821.085 C 1475.85 915.7 1519.58 1034.02 1507.74 1156.88 C 1498.19 1264.46 1454.27 1366.11 1382.48 1446.8 C 1350.76 1482.53 1330.87 1502.86 1285.89 1520.69 C 1229.5 1543.04 1173.04 1559.61 1112.21 1563.47 L 1108.25 1561.53 z" fill="rgb(250,246,234)" transform="translate(0,0)"></path>
<path d="M 563.498 1315.85 C 508.262 1236.74 472.837 1162.46 472.554 1064.24 C 472.451 1028.49 472.837 1005.25 479.704 969.214 C 506.395 829.136 586.715 718.353 702.363 637.505 C 819.609 555.54 960.9 528.701 1100.64 554.15 C 1252.94 582.731 1387.87 670.094 1476.27 797.356 C 1555.81 911.739 1586.25 1053.2 1560.81 1190.18 C 1548.77 1255.41 1524.27 1324.84 1483.92 1377.87 C 1456.46 1413.95 1402.58 1458.39 1363.3 1481.59 L 1361.16 1479.86 C 1458.44 1386.13 1514.49 1257.57 1516.96 1122.5 C 1520.01 971.336 1438.79 828.267 1322.09 735.82 C 1236.56 667.989 1131.3 629.796 1022.18 626.996 C 995.206 626.488 969.715 626.897 942.913 630.171 C 837.777 643.294 739.728 690.145 663.469 763.701 C 573.134 851.014 515.506 968.533 513.599 1095.21 C 512.308 1154.77 522.525 1214.03 543.688 1269.72 C 549.818 1285.89 556.972 1300.18 563.498 1315.85 z" fill="rgb(250,246,234)" transform="translate(0,0)"></path>
<path d="M 463.386 1088.13 C 440.383 930.783 467.924 808.586 565.674 680.563 C 669.661 544.371 823.437 458.771 996.266 460.835 C 1238.42 463.725 1469.29 616.835 1567.32 837.706 C 1636.37 989.429 1637.1 1143.35 1548.84 1288.48 C 1540.31 1302.49 1531.49 1322.1 1520.04 1333.36 C 1563.33 1256.17 1582.37 1150.25 1576.07 1062.29 C 1565.75 915.629 1496.71 779.331 1384.58 684.243 C 1265.15 581.054 1118.06 528.567 959.588 538.693 C 690.739 555.873 444.848 805.166 465.62 1081.28 C 465.171 1084.06 465.196 1086.05 463.386 1088.13 z" fill="rgb(250,246,234)" transform="translate(0,0)"></path>
<path d="M 465.62 1081.28 C 466.356 1088.86 467.741 1102.9 467.49 1110.24 C 465.794 1102.96 464.077 1095.59 463.386 1088.13 C 465.196 1086.05 465.171 1084.06 465.62 1081.28 z" fill="rgb(197,149,126)" transform="translate(0,0)"></path>
<path d="M 1103.24 1564.53 C 1100.25 1565.05 1090.64 1566.05 1087.91 1565.47 C 1092.15 1563.58 1098.33 1563.03 1103.08 1562.32 L 1103.24 1564.53 z" fill="rgb(166,126,101)" transform="translate(0,0)"></path>
<path d="M 1108.25 1561.53 L 1112.21 1563.47 L 1103.24 1564.53 L 1103.08 1562.32 L 1108.25 1561.53 z" fill="rgb(215,203,190)" transform="translate(0,0)"></path>
<path d="M 1361.16 1479.86 L 1363.3 1481.59 C 1360.68 1483.35 1360.25 1483.96 1357.14 1484.48 L 1357.23 1483.22 L 1361.16 1479.86 z" fill="rgb(215,203,190)" transform="translate(0,0)"></path>
<path d="M 314.112 1174.25 C 316.676 1174.32 319.446 1174.61 321.892 1175.39 C 329.788 1177.89 337.427 1183.96 343.735 1189.17 C 357.556 1200.61 425.005 1265.76 432.98 1279.03 C 442.111 1294.24 446.744 1313.5 454.026 1329.9 C 472.414 1371.31 495.156 1411.94 522.827 1447.89 C 560.56 1496.91 607.501 1541.22 657.895 1577.02 C 674.512 1588.83 697.778 1600.3 712.207 1612.41 C 722.983 1621.45 732.128 1633.41 741.513 1643.89 C 768.601 1674.15 814.925 1724.05 831.941 1759.02 C 810.681 1758.34 794.462 1763.19 777.026 1775.48 C 758.758 1788.34 740.927 1807.68 736.902 1830.28 C 737 1834.38 737.311 1838.5 737.526 1842.6 C 731.942 1840.4 726.375 1838.14 721.373 1834.77 C 704.489 1823.39 676.628 1787.52 661.805 1770.51 L 582.365 1679.82 L 478.643 1562.95 L 344.466 1407.35 C 319.764 1378.45 294.46 1350.18 270.451 1320.69 C 262.072 1310.39 230.879 1273.67 229.141 1262.05 C 227.457 1250.79 234.438 1238.51 240.62 1229.54 C 256.787 1206.1 285.148 1179.43 314.112 1174.25 z" fill="rgb(250,246,234)" transform="translate(0,0)"></path>
<path d="M 405.992 1029.99 L 406.38 1028.91 L 408.749 1027.97 C 425.323 1200.54 510.738 1359.16 645.699 1467.98 C 775.971 1574.82 969.03 1624.97 1135.38 1608.34 C 1264.29 1595.45 1396.92 1534.55 1490.77 1445.3 L 1491.99 1448.52 C 1470.66 1473.61 1449.19 1497.64 1424.99 1520.08 C 1308.58 1628.03 1162.61 1694.68 1001.77 1688.43 C 836.731 1682.02 673.508 1603.28 561.83 1482.53 C 449.928 1361.55 399.751 1192.83 405.992 1029.99 z" fill="rgb(250,246,234)" transform="translate(0,0)"></path>
<path d="M 145.972 1071.23 C 146.26 1071.25 146.549 1071.25 146.837 1071.27 C 155.473 1071.78 162.746 1074.05 170.269 1078.18 C 204.276 1096.89 240.794 1145.85 267.043 1175.53 C 253.176 1178.35 243.978 1184.44 234.583 1194.63 C 230.199 1200.63 227.677 1206.73 225.295 1213.69 C 200.803 1190.35 149.045 1138.22 136.397 1108.01 C 133.034 1099.97 130.316 1089.28 134.128 1080.94 C 136.603 1075.53 140.568 1073.19 145.972 1071.23 z" fill="rgb(250,246,234)" transform="translate(0,0)"></path>
<path d="M 816.91 1766.34 C 820.601 1766.06 825.6 1765.4 829.181 1766.55 C 831.82 1767.4 832.638 1768.13 833.579 1770.7 C 834.547 1773.35 834.121 1776.64 833.013 1779.15 C 827.14 1792.52 794.705 1797.05 780.516 1813.28 C 774.72 1819.91 772.071 1831.89 767.529 1836.49 C 765.733 1838.31 761.884 1839.46 759.518 1840.42 C 755.413 1841.56 751.206 1843.16 747.031 1841.79 C 744.919 1840.21 743.734 1839.07 743.287 1836.35 C 741.756 1827.03 749.826 1814 755.256 1806.69 C 769.707 1787.24 792.489 1769.81 816.91 1766.34 z" fill="rgb(250,246,234)" transform="translate(0,0)"></path>
<path d="M 270.853 1181.18 C 272.491 1181.37 273.323 1181.89 274.757 1182.65 C 274.751 1183.28 274.988 1183.95 274.74 1184.52 C 274.131 1185.93 258.03 1198.68 255.381 1201.16 C 248.033 1208.03 241.485 1215.2 235.656 1223.41 L 235.111 1223.51 C 233.403 1222.61 232.723 1221.9 232.149 1219.95 C 230.857 1215.55 234.636 1208.56 236.849 1204.93 C 244.556 1192.3 256.844 1184.83 270.853 1181.18 z" fill="rgb(250,246,234)" transform="translate(0,0)"></path>
<path d="M 1504.33 1431.35 C 1500.42 1438.24 1496.97 1442.3 1491.99 1448.52 L 1490.77 1445.3 C 1495.27 1440.76 1500 1436.03 1504.33 1431.35 z" fill="rgb(215,203,190)" transform="translate(0,0)"></path>
<path d="M 405.935 1024.16 L 408.121 1017.65 C 408.299 1020.44 408.778 1025.35 408.749 1027.97 L 406.38 1028.91 L 405.992 1029.99 L 405.935 1024.16 z" fill="rgb(215,203,190)" transform="translate(0,0)"></path>
<path d="M 407.195 1005.78 C 407.954 1010.44 407.998 1012.87 408.121 1017.65 L 405.935 1024.16 C 405.869 1018.19 406.647 1011.76 407.195 1005.78 z" fill="rgb(166,126,101)" transform="translate(0,0)"></path>
<path d="M 1340.34 88.9976 C 1341.17 88.953 1342 88.9206 1342.83 88.9004 C 1351.5 88.7259 1359.23 92.2063 1366.79 96.0698 C 1433.13 130.009 1459.51 207.047 1456.56 277.679 C 1456.27 284.522 1456.24 291.482 1456.32 298.391 C 1472.59 307.699 1509.36 331.009 1523.17 342.833 C 1500.46 276.821 1481.5 208.321 1486.01 137.671 C 1486.52 129.781 1491.59 114.146 1501.47 118.518 C 1519.03 126.283 1538.57 155.609 1547.52 170.645 C 1572.48 212.546 1574.78 253.472 1551.97 296.685 C 1544.82 311.29 1535.76 331.686 1531.61 347.154 C 1538.81 354.525 1550.18 363.341 1558.16 369.903 C 1575.34 384.019 1592.75 397.924 1607.93 414.255 C 1602 366.741 1592.69 301.36 1613.07 255.134 C 1617.05 246.097 1622.76 243.137 1631.45 240.669 C 1648.94 251.925 1659.2 284.137 1661.8 303.69 C 1666.39 338.215 1654.25 372.428 1638.89 402.787 C 1634.12 412.23 1629.32 423.671 1622.92 432.123 C 1645.29 447.643 1682.99 493.145 1698.72 514.919 C 1691.58 485.93 1686.07 456.27 1692.94 425.962 C 1700.09 395.526 1715.04 361.259 1741.15 342.462 C 1750.4 335.801 1761.37 338.49 1765.89 349.084 C 1771.05 361.166 1770.78 370.377 1771.37 382.966 C 1774.13 442.018 1732.8 483.953 1713.64 535.63 C 1724.01 551.133 1736.86 566.887 1746.81 582.494 C 1763.75 609.056 1779.5 638.793 1793.05 667.189 C 1792.45 657.302 1790.31 643.743 1788.79 633.603 C 1781.54 585.599 1786.97 540.547 1807.61 496.638 C 1827.08 453.532 1839.26 468.003 1849.8 502.81 C 1870.47 571.005 1832.74 620.079 1797.75 673.976 C 1797.57 674.33 1797.4 674.684 1797.22 675.038 C 1816.74 706.579 1829.88 741.454 1841.66 776.491 C 1841.98 736.414 1845.8 712.672 1861.33 675.355 C 1868.25 658.718 1900.96 601.568 1916.54 595.263 C 1919.18 595.406 1921.63 595.366 1923.44 597.978 C 1933.7 612.786 1941.1 640.989 1940.52 658.375 C 1939.18 698.203 1914.37 735.506 1885.66 761.317 C 1873.75 772.024 1860.11 781.444 1849.07 792.323 L 1847.91 793.484 C 1858.67 827.377 1869.73 860.687 1876.67 895.73 C 1883.28 929.135 1888.84 963.427 1891.91 997.377 C 1892.8 1007.33 1894.63 1031.81 1877.81 1026.65 C 1874.58 1025.66 1872.68 1017.48 1872.12 1014.63 C 1866.66 975.999 1865.34 937.968 1855.29 900.016 C 1832.6 890.545 1817.69 881.633 1792.71 875.176 C 1744.05 862.598 1691.54 848.316 1652.36 815.449 C 1641.53 806.365 1624.6 783.634 1638.63 771.298 C 1651.05 759.794 1666.69 758.088 1682.87 757.727 C 1750.39 758.353 1814.26 814.919 1842.76 872.864 C 1846.8 881.068 1850.89 889.305 1854.88 897.532 C 1846.28 847.393 1830.3 797.014 1811.37 749.959 C 1803.11 729.434 1792.13 709.18 1783.14 688.739 C 1768.57 688.639 1751.45 692.984 1735.74 694.204 C 1689.24 697.794 1640.03 692.695 1598.18 670.972 C 1587.63 665.5 1572.69 651.883 1582.15 639.604 C 1590.34 628.984 1617.56 619.269 1630.56 617.528 C 1688.74 609.736 1734.48 648.064 1778.59 679.258 C 1772.73 666.727 1764.35 653.017 1757.65 640.706 C 1738.83 606.168 1718.97 575.483 1695.93 543.556 C 1640.18 552.613 1610.68 568.028 1550.66 558.723 C 1482.37 548.137 1463.87 509.82 1538.49 489.585 C 1596.11 473.96 1646.71 510.409 1692.1 539.033 C 1670.37 500.795 1603.7 435.464 1570.35 406.2 C 1555.38 410.968 1541.26 420.199 1528.54 429.217 C 1491.09 456.934 1452.65 474.347 1405.22 464.031 C 1357.57 453.669 1415.06 408.673 1432.75 398.491 C 1479.42 371.615 1523.31 391.066 1570.01 404.321 C 1534.86 373.382 1487.16 336.344 1447.06 312.566 C 1438.48 320.457 1429.51 332.229 1421.81 341.375 C 1399.4 367.99 1369.93 389.159 1333.92 391.406 C 1309.78 391.968 1277.14 392.698 1255.84 380.354 C 1248.88 376.318 1258.24 365.559 1261.88 361.984 C 1274.46 349.845 1288.68 339.551 1304.15 331.406 C 1352.07 306 1389.93 309.951 1442.15 310.217 C 1422 302.046 1398.67 284.84 1377.96 275.826 C 1366.8 270.968 1357.09 263.821 1345.09 259.291 C 1279.89 279.78 1186.37 237.506 1138.85 192.867 C 1134.05 188.354 1129.43 183.6 1129.28 176.742 C 1130.29 174.435 1131.83 171.632 1134.66 171.029 C 1200.03 156.444 1277.3 171.439 1325.44 220.354 C 1347.03 242.3 1334.86 239.005 1367.37 252.946 C 1377.36 257.267 1387.28 261.779 1397.1 266.48 C 1414.09 274.5 1431.81 285.336 1447.04 292.211 C 1430.72 253.821 1315.68 130.581 1340.34 88.9976 z" fill="rgb(92,34,11)" transform="translate(0,0)"></path>
<path d="M 1343.76 245.937 C 1351.99 248.791 1359.38 251.497 1367.34 255.079 C 1446.52 290.571 1519.8 337.96 1584.65 395.605 C 1611.35 419.742 1637.71 449.32 1663.18 474.985 C 1680.38 492.316 1693.79 514.617 1708.71 533.63 C 1750.68 587.12 1780.15 646.72 1811.49 706.688 C 1814.78 713.573 1818.17 720.458 1821.02 727.553 C 1853.93 809.397 1878.59 896.172 1888.04 984.023 C 1889.24 995.192 1891.78 1013.01 1887.34 1022.89 C 1883.29 1024.71 1883.07 1025.26 1879.36 1024.46 C 1876.54 1021.32 1874.36 1015.12 1874.07 1011.01 C 1863.68 866.192 1818.58 731.988 1742.37 608.593 C 1707.04 551.397 1671.18 500.93 1623.56 453.262 C 1578.45 408.103 1534.81 366.946 1481.08 331.743 C 1438.06 303.556 1392.16 280.378 1346.65 256.779 C 1345.84 253.186 1344.74 249.5 1343.76 245.937 z" fill="rgb(197,149,126)" transform="translate(0,0)"></path>
<path d="M 1671.89 760.34 C 1682.57 759.567 1692.94 759.83 1703.49 761.781 C 1718.06 764.474 1731.67 770.111 1744.85 776.752 C 1781.28 795.109 1808.06 820.92 1830.07 855.074 C 1838.1 867.553 1843.2 881.777 1851.67 893.995 L 1852.56 895.277 C 1844.06 892.125 1835.91 887.994 1827.82 883.93 C 1772.47 862.998 1710.79 857.035 1662.26 820.206 C 1650.85 811.548 1638 799.893 1636.27 784.849 C 1635.81 780.899 1636.47 777.553 1639.03 774.43 C 1646.18 765.725 1661.09 761.733 1671.89 760.34 z" fill="rgb(197,149,126)" transform="translate(0,0)"></path>
<path d="M 1175.66 168.427 C 1183.11 167.558 1193.97 168.213 1201.62 168.68 C 1240.16 171.029 1274.86 183.293 1305.91 206.809 C 1318.82 216.913 1339.87 236.076 1344.09 252.029 C 1346.93 262.745 1305.48 261.963 1300.34 261.928 C 1244.38 256.932 1168.95 227.748 1132.16 180.494 C 1130.73 178.661 1131.86 176.759 1132.73 175.071 C 1139.95 170.544 1165.8 169.138 1175.66 168.427 z" fill="rgb(197,149,126)" transform="translate(0,0)"></path>
<path d="M 1497.47 118.713 C 1519.61 125.031 1549.9 177.787 1557.91 198.464 C 1576.36 246.092 1555.08 283.05 1535.44 325.759 C 1532.68 331.899 1530.35 341.612 1528.43 348.375 C 1504.75 290.747 1485.95 208.765 1487.49 145.88 C 1487.77 134.454 1489.03 126.486 1497.47 118.713 z" fill="rgb(197,149,126)" transform="translate(0,0)"></path>
<path d="M 1915.26 597.747 C 1915.97 597.655 1916.92 597.487 1917.61 597.605 C 1919.9 597.996 1921.07 599.287 1922.46 601.018 C 1934.3 615.776 1939.41 648.149 1937.26 666.687 C 1931.47 716.545 1895.67 750.757 1858.65 780.358 C 1854.36 783.361 1850.54 787.004 1846.64 790.478 C 1845.28 782.222 1844.85 773.922 1844.88 765.56 C 1845.09 714.865 1862.47 668.637 1891.34 627.469 C 1898.64 617.053 1906.21 606.717 1915.26 597.747 z" fill="rgb(197,149,126)" transform="translate(0,0)"></path>
<path d="M 1548.72 490.329 C 1549.02 490.27 1549.33 490.195 1549.63 490.152 C 1599.58 483.102 1652.71 511.77 1690.73 541.754 C 1670.82 546.444 1650.88 551.445 1630.67 554.687 C 1593.52 560.338 1539 562.194 1505.78 541.879 C 1500.21 538.474 1494.52 533.216 1493.18 526.533 C 1492.37 522.496 1493.61 518.727 1495.91 515.412 C 1507.23 499.152 1530.38 493.202 1548.72 490.329 z" fill="rgb(197,149,126)" transform="translate(0,0)"></path>
<path d="M 1635.75 619.362 C 1637.17 619.2 1638.54 619.066 1639.97 619.015 C 1681.91 617.52 1717.72 638.868 1750.94 661.825 C 1760.87 668.687 1771.71 675.699 1780.48 684 C 1763.28 687.606 1746.74 690.228 1729.25 691.911 C 1686.11 692.78 1637.63 691.464 1599.4 668.754 C 1592.77 664.817 1583.33 657.821 1581.72 649.774 C 1581.25 647.4 1581.68 644.715 1583.11 642.723 C 1592.91 629.021 1619.96 621.694 1635.75 619.362 z" fill="rgb(197,149,126)" transform="translate(0,0)"></path>
<path d="M 1342.1 90.9688 C 1349.47 91.1771 1352.65 92.0061 1359.33 95.0052 C 1408.74 117.189 1438.7 165.829 1448.83 217.667 C 1451.51 231.359 1458.67 283.139 1451.32 294.331 C 1447.94 289.6 1442.97 279.718 1439.96 274.573 C 1423.34 246.158 1320.9 125.594 1342.1 90.9688 z" fill="rgb(197,149,126)" transform="translate(0,0)"></path>
<path d="M 1752.62 340.002 C 1768.21 345.536 1768.64 369.749 1769.02 383.475 C 1770.22 427.028 1748.44 462.857 1728.03 499.388 C 1724.1 506.426 1715.3 527.749 1710.58 532.499 C 1707.1 528.31 1704.49 524.451 1702.89 519.197 C 1689.07 473.841 1686.9 429.568 1708.91 386.483 C 1718.06 368.577 1733.22 346.572 1752.62 340.002 z" fill="rgb(197,149,126)" transform="translate(0,0)"></path>
<path d="M 1371.21 313.376 C 1393.68 311.756 1418.13 312.572 1440.82 312.874 C 1436.5 319.932 1426.39 332.494 1420.66 338.873 C 1391.16 371.712 1370.35 386.091 1326.66 389.168 C 1313.16 389.712 1261.3 388.943 1255.99 375.606 C 1256.32 372.696 1257.31 370.35 1259.35 368.236 C 1290.79 335.572 1327.63 318.528 1371.21 313.376 z" fill="rgb(197,149,126)" transform="translate(0,0)"></path>
<path d="M 1473.3 388.369 C 1504.83 384.615 1534.41 396.411 1564.02 405.354 C 1529.98 421.18 1511.84 442.663 1472.27 457.53 C 1449.89 465.842 1429.02 466.057 1405.77 461.707 C 1385.95 458.621 1384.35 447.831 1396.26 433.364 C 1417.91 407.054 1439.47 392.794 1473.3 388.369 z" fill="rgb(197,149,126)" transform="translate(0,0)"></path>
<path d="M 1826.64 471.613 C 1828.4 471.898 1829.78 472.269 1831.38 473.117 C 1842.05 478.75 1848.48 505.08 1850.71 516.124 C 1861.79 571.089 1832.56 615.831 1803.91 659.342 C 1801.39 663.197 1798.62 666.908 1795.94 670.658 C 1793.35 647.576 1789.45 624.408 1788.39 601.198 C 1786.49 559.463 1797.55 503.321 1826.64 471.613 z" fill="rgb(197,149,126)" transform="translate(0,0)"></path>
<path d="M 1624.92 243.877 C 1627.66 243.723 1629.96 243.524 1632.57 244.635 C 1641.4 248.387 1651.22 272.242 1654.15 281.146 C 1671.25 332.999 1650.42 373.5 1627.98 418.501 C 1626.31 421.626 1623.75 425.445 1621.83 428.525 C 1619.92 426.68 1617.94 424.819 1616.27 422.746 C 1603.66 407.062 1602.5 322.704 1604.62 300.737 C 1606.4 282.349 1609.85 256.336 1624.92 243.877 z" fill="rgb(197,149,126)" transform="translate(0,0)"></path>
<path d="M 160.938 1587.23 C 84.7907 1598.44 80.821 1475.77 84.9649 1425.54 C 85.7554 1415.96 89.4698 1373.51 94.3755 1368.76 C 97.5636 1370.54 97.018 1371.04 99.135 1374.87 L 99.8785 1376.34 C 111.015 1398.25 127.949 1423.12 141.47 1443.81 C 169.195 1486.24 212.079 1537.38 167.64 1584.51 C 201.253 1633.42 238.682 1674.35 286.722 1709.57 C 292.827 1714.04 309.001 1726.07 316.245 1726.72 L 318.462 1726.03 L 320.945 1729.47 C 322.065 1731.21 321.542 1730.6 323.374 1731.76 C 324.036 1729.29 323.999 1728.19 324.159 1725.65 C 325.468 1728.17 330.209 1737.6 331.908 1738.87 C 358.048 1758.42 407.766 1781.32 438.217 1791.01 C 441.014 1791.9 443.842 1792.68 446.694 1793.37 L 448.019 1793.92 C 451.791 1791.63 447.231 1790.84 451.208 1787.33 C 453.945 1790.15 458.619 1795.2 462.094 1796.75 C 497.975 1812.79 539.687 1816.15 578.198 1821.87 C 584.481 1822.8 611.402 1823.58 613.486 1826.99 L 613.718 1825.82 L 613.754 1827.14 C 588.102 1833.66 559.578 1825.37 534.913 1825.43 C 528.89 1825.45 498.231 1837.95 488.729 1840.72 C 481.446 1843.38 476.307 1874.14 462.801 1882.34 C 387.133 1928.27 302.157 1854.01 259.088 1795.58 C 257.174 1792.98 257.196 1791.95 257.736 1789.27 C 271.076 1780.33 323.858 1777.65 341.331 1776.49 C 349.426 1775.95 366.623 1777.43 373.05 1774.87 C 352.888 1760.13 331.997 1751.89 309.13 1734.04 C 300.723 1729.08 251.775 1726.41 239.457 1725.5 C 243.573 1724.33 248.064 1723.63 252.291 1722.85 C 246.288 1719.72 230.849 1721.29 224.259 1718.55 C 233.748 1717.43 283.884 1723.41 294.242 1725.62 C 238.425 1688.06 196.091 1645.84 161.937 1588.42 C 161.604 1588.02 161.271 1587.63 160.938 1587.23 z" fill="rgb(250,246,234)" transform="translate(0,0)"></path>
<path d="M 373.05 1774.87 L 373.85 1776.52 L 375.904 1777.07 C 389.282 1779.5 416.428 1793.87 430.338 1798.54 C 459.916 1808.47 489.431 1816.09 519.824 1822.76 C 503.607 1831.39 500.118 1829.98 484.441 1835.06 C 488.394 1837.65 486.883 1835.94 488.729 1840.72 C 481.446 1843.38 476.307 1874.14 462.801 1882.34 C 387.133 1928.27 302.157 1854.01 259.088 1795.58 C 257.174 1792.98 257.196 1791.95 257.736 1789.27 C 271.076 1780.33 323.858 1777.65 341.331 1776.49 C 349.426 1775.95 366.623 1777.43 373.05 1774.87 z" fill="rgb(250,246,234)" transform="translate(0,0)"></path>
<path d="M 373.05 1774.87 L 373.85 1776.52 L 375.904 1777.07 C 369.151 1779.88 348.34 1779.13 339.836 1779.74 C 313.315 1781.66 285.728 1783.45 259.997 1790.71 C 270.57 1803.89 280.636 1817.19 293.261 1830.51 C 332.97 1872.43 404.403 1916.73 460.892 1879.46 C 471.523 1872.44 477.878 1852.46 482.478 1840.24 C 420.433 1847.28 358.756 1847.76 300.809 1820.09 C 293.688 1816.69 277.293 1808.66 272.223 1803.75 L 272.092 1802.3 C 274.973 1802.41 282.446 1807.09 285.377 1808.8 C 334.479 1837.39 428.931 1852.08 484.441 1835.06 C 488.394 1837.65 486.883 1835.94 488.729 1840.72 C 481.446 1843.38 476.307 1874.14 462.801 1882.34 C 387.133 1928.27 302.157 1854.01 259.088 1795.58 C 257.174 1792.98 257.196 1791.95 257.736 1789.27 C 271.076 1780.33 323.858 1777.65 341.331 1776.49 C 349.426 1775.95 366.623 1777.43 373.05 1774.87 z" fill="rgb(120,40,10)" transform="translate(0,0)"></path>
<path d="M 99.135 1374.87 L 99.8785 1376.34 C 111.015 1398.25 127.949 1423.12 141.47 1443.81 C 169.195 1486.24 212.079 1537.38 167.64 1584.51 C 201.253 1633.42 238.682 1674.35 286.722 1709.57 C 292.827 1714.04 309.001 1726.07 316.245 1726.72 L 318.462 1726.03 L 320.945 1729.47 C 322.065 1731.21 321.542 1730.6 323.374 1731.76 C 324.036 1729.29 323.999 1728.19 324.159 1725.65 C 325.468 1728.17 330.209 1737.6 331.908 1738.87 C 358.048 1758.42 407.766 1781.32 438.217 1791.01 C 441.014 1791.9 443.842 1792.68 446.694 1793.37 L 448.019 1793.92 C 451.791 1791.63 447.231 1790.84 451.208 1787.33 C 453.945 1790.15 458.619 1795.2 462.094 1796.75 C 497.975 1812.79 539.687 1816.15 578.198 1821.87 C 584.481 1822.8 611.402 1823.58 613.486 1826.99 L 613.718 1825.82 L 613.754 1827.14 C 588.102 1833.66 559.578 1825.37 534.913 1825.43 C 528.89 1825.45 498.231 1837.95 488.729 1840.72 C 486.883 1835.94 488.394 1837.65 484.441 1835.06 C 500.118 1829.98 503.607 1831.39 519.824 1822.76 C 489.431 1816.09 459.916 1808.47 430.338 1798.54 C 416.428 1793.87 389.282 1779.5 375.904 1777.07 L 373.85 1776.52 L 373.05 1774.87 C 352.888 1760.13 331.997 1751.89 309.13 1734.04 C 300.723 1729.08 251.775 1726.41 239.457 1725.5 C 243.573 1724.33 248.064 1723.63 252.291 1722.85 C 246.288 1719.72 230.849 1721.29 224.259 1718.55 C 233.748 1717.43 283.884 1723.41 294.242 1725.62 C 238.425 1688.06 196.091 1645.84 161.937 1588.42 C 161.604 1588.02 161.271 1587.63 160.938 1587.23 L 159.215 1584.11 C 157.578 1578.48 141.363 1554.11 137.165 1545.95 C 119.402 1511.42 107.635 1476.5 99.4005 1438.57 C 97.9955 1432.1 94.4944 1415.43 96.3905 1409.41 C 97.8041 1412.77 106.04 1451.55 108.094 1459.28 C 121.204 1508.61 136.037 1538.95 163.436 1581.58 C 215.567 1540.85 152.391 1467.52 128.388 1429.49 C 117.371 1412.04 106.755 1394.39 95.995 1376.77 L 99.135 1374.87 z" fill="rgb(92,34,11)" transform="translate(0,0)"></path>
<path d="M 160.938 1587.23 C 84.7907 1598.44 80.821 1475.77 84.9649 1425.54 C 85.7554 1415.96 89.4698 1373.51 94.3755 1368.76 C 97.5636 1370.54 97.018 1371.04 99.135 1374.87 L 95.995 1376.77 L 94.6177 1376.88 C 92.8123 1383.08 92.4245 1389.14 91.4458 1395.7 C 86.2601 1430.45 85.4267 1462.36 89.7024 1497.62 C 93.6376 1530.07 105.414 1576.04 143.433 1584.02 C 147.696 1584.91 154.657 1584.39 159.215 1584.11 L 160.938 1587.23 z" fill="rgb(120,40,10)" transform="translate(0,0)"></path>
<path d="M 1827.01 1266.98 C 1829.81 1271 1829.51 1270.73 1829.8 1275.49 L 1830.16 1280.52 C 1830.17 1286.85 1828.17 1314.04 1830.02 1317.12 L 1833.68 1320.67 C 1832.86 1321.76 1830.97 1324.15 1830.89 1325.61 C 1829.19 1356.69 1828.06 1387.91 1824.41 1418.84 C 1823.64 1425.43 1822.54 1431.96 1821.84 1438.57 L 1821.82 1440.56 L 1823.51 1441.42 L 1820.73 1448.09 L 1823.82 1449.48 C 1822.73 1450.43 1821.39 1451.59 1819.81 1452.96 C 1817.46 1461.15 1816.66 1476.43 1815.13 1484.07 C 1809.13 1514.24 1804.52 1553.25 1793.49 1581.68 C 1824.25 1543.78 1846.53 1502.32 1876.67 1464.28 C 1882.75 1456.61 1897.35 1451.5 1897.49 1467.6 C 1892.7 1499.87 1863.46 1530.81 1841.3 1553.31 C 1830.34 1563.9 1802.64 1588.9 1791.01 1593.14 C 1783.88 1612.66 1776.48 1633.46 1767.39 1652.11 C 1757.45 1672.5 1744.83 1693.35 1733.34 1713.06 L 1736.31 1714.06 C 1769.17 1690.26 1796.68 1661.9 1824.97 1633.11 C 1836.52 1621.35 1849.84 1606.12 1863.88 1597.75 C 1871 1596.25 1877.95 1600.26 1876.98 1607.32 C 1874.42 1625.87 1855.47 1643.86 1843.15 1656.89 C 1818.78 1680.83 1792.4 1698.76 1761.83 1713.41 C 1752.07 1718.09 1728.91 1726.25 1722.09 1731.83 C 1714.86 1737.76 1700.94 1758.3 1694.14 1766.49 C 1687.56 1774.43 1680.77 1781.49 1674.01 1789.08 C 1658.07 1806.98 1638.25 1821.27 1621.29 1837.34 C 1618.54 1838.67 1617.39 1840.88 1615.55 1843.41 C 1609.85 1844.86 1575.74 1870.34 1567.28 1875.46 C 1552.02 1884.7 1528.48 1900.03 1512.79 1907.79 C 1497.57 1915.33 1433.42 1946.5 1418.8 1944.52 L 1418.41 1943.22 C 1423.47 1937.91 1433.35 1934.75 1440.13 1932 C 1498.01 1908.47 1555.12 1878.33 1603.97 1839.25 C 1604.9 1838.51 1605.76 1834.52 1606.02 1833.24 C 1607.61 1835.71 1607.09 1835.34 1609.21 1837.2 L 1610.2 1834.63 L 1611.22 1831.79 L 1614.06 1832.28 L 1615.33 1830.71 C 1656.12 1800.08 1689.58 1761.64 1718.64 1719.99 C 1711.64 1707.56 1703.83 1695.76 1697.66 1682.84 C 1686.54 1659.52 1661.23 1590.16 1663.77 1566.83 C 1664.39 1561.07 1666.4 1557.49 1670.96 1554 C 1674.66 1553.91 1676.93 1553.98 1679.88 1556.61 C 1697.99 1572.78 1712.01 1677.4 1718.78 1705.66 L 1721.67 1716.11 C 1747.96 1673.38 1762.75 1643.95 1780.34 1597.45 L 1773.85 1587.28 C 1777.44 1586.27 1777.27 1586.48 1779.69 1583.68 C 1781.44 1586.54 1781.28 1588.45 1783.74 1590.52 C 1789.86 1577.15 1814.67 1468.47 1810.49 1460.12 L 1812.14 1456.79 C 1812.45 1453.22 1812.12 1454 1810.2 1450.23 L 1813.2 1448.56 C 1819.18 1434.28 1822.6 1352.33 1822.78 1333.35 L 1814.06 1324.27 C 1816.87 1322.86 1817.47 1323.96 1821 1321.66 C 1821.57 1322.74 1821.13 1322.07 1822.69 1323.39 C 1825.93 1313.73 1822.56 1284.7 1821.55 1273.75 L 1822.49 1271.93 L 1824.35 1272.61 L 1825.99 1272.35 L 1827.01 1266.98 z" fill="rgb(92,34,11)" transform="translate(0,0)"></path>
<path d="M 1736.31 1714.06 C 1769.17 1690.26 1796.68 1661.9 1824.97 1633.11 C 1836.52 1621.35 1849.84 1606.12 1863.88 1597.75 L 1865.39 1600.66 C 1868.99 1601.49 1869.96 1601.39 1872.36 1604.2 C 1873.89 1608.36 1873.07 1610.85 1871.15 1614.77 C 1851.17 1655.38 1786.46 1702.19 1744.17 1716.77 L 1743.07 1713.97 L 1735.54 1718.85 L 1728.38 1722.21 L 1728.65 1719.55 L 1733.34 1713.06 L 1736.31 1714.06 z" fill="rgb(250,246,234)" transform="translate(0,0)"></path>
<path d="M 1736.31 1714.06 C 1769.17 1690.26 1796.68 1661.9 1824.97 1633.11 C 1836.52 1621.35 1849.84 1606.12 1863.88 1597.75 L 1865.39 1600.66 C 1850.57 1610.19 1820.71 1643.07 1806.44 1657.44 C 1786.65 1677.72 1765.47 1696.61 1743.07 1713.97 L 1735.54 1718.85 L 1728.38 1722.21 L 1728.65 1719.55 L 1733.34 1713.06 L 1736.31 1714.06 z" fill="rgb(120,40,10)" transform="translate(0,0)"></path>
<path d="M 1733.34 1713.06 L 1736.31 1714.06 C 1733.73 1716.24 1731.71 1718.42 1728.65 1719.55 L 1733.34 1713.06 z" fill="rgb(215,203,190)" transform="translate(0,0)"></path>
<path d="M 1670.96 1554 C 1674.66 1553.91 1676.93 1553.98 1679.88 1556.61 C 1697.99 1572.78 1712.01 1677.4 1718.78 1705.66 C 1717.94 1706.44 1717.07 1707.4 1716.13 1707.95 C 1695.5 1679.16 1682.77 1637.48 1673.42 1603.45 C 1669.82 1590.34 1661.27 1565.85 1672.63 1555.65 L 1670.96 1554 z" fill="rgb(250,246,234)" transform="translate(0,0)"></path>
<path d="M 1670.96 1554 C 1674.66 1553.91 1676.93 1553.98 1679.88 1556.61 C 1697.99 1572.78 1712.01 1677.4 1718.78 1705.66 C 1717.94 1706.44 1717.07 1707.4 1716.13 1707.95 C 1715.33 1702.17 1711.76 1686.69 1710.09 1681.03 C 1702.79 1656.22 1695.96 1568.1 1672.63 1555.65 L 1670.96 1554 z" fill="rgb(120,40,10)" transform="translate(0,0)"></path>
<path d="M 1743.07 1713.97 L 1744.17 1716.77 L 1736.41 1720.3 L 1735.54 1718.85 L 1743.07 1713.97 z" fill="rgb(250,246,234)" transform="translate(0,0)"></path>
<path d="M 1728.38 1722.21 L 1735.54 1718.85 L 1736.41 1720.3 C 1732.1 1722.51 1731.4 1723.19 1726.73 1723.43 L 1727.1 1722.39 L 1728.38 1722.21 z" fill="rgb(197,149,126)" transform="translate(0,0)"></path>
<path d="M 1803.98 1574.67 C 1829.75 1542.2 1849.09 1504.49 1874.28 1471.64 C 1878.35 1466.33 1884.99 1458 1891.94 1461.95 C 1894.39 1466.68 1893.84 1470.97 1892.13 1475.95 C 1878.52 1515.65 1839.6 1551.72 1807.83 1577.53 L 1803.98 1574.67 z" fill="rgb(250,246,234)" transform="translate(0,0)"></path>
<path d="M 1803.98 1574.67 L 1807.83 1577.53 C 1802.31 1583.51 1796.45 1586.33 1789.38 1590.03 C 1793.82 1584.81 1799.15 1580.32 1803.98 1574.67 z" fill="rgb(250,246,234)" transform="translate(0,0)"></path>
<path d="M 168.317 129.055 C 198.714 127.26 210.834 161.298 214.707 185.878 C 225.075 154 241.735 136.556 275.267 128.614 C 327.681 141.297 271.126 218.664 256.326 243.486 C 244.62 262.099 233.128 280.364 223.942 300.414 C 221.117 306.578 218.799 317.79 213.783 321.318 C 209.868 319.167 207.494 297.988 206.192 292.352 C 197.859 256.26 107.479 153.358 168.317 129.055 z" fill="rgb(120,40,10)" transform="translate(0,0)"></path>
<path d="M 168.979 134.153 C 199.099 133.165 208.974 173.308 211.298 196.666 C 211.563 199.331 211.48 199.038 213.45 200.349 C 220.487 195.75 220.568 180.302 224.988 171.849 C 231.44 156.515 264.847 127.02 282.096 136.181 C 310.062 151.035 270.714 209.325 262.12 223.505 C 243.059 253.638 230.881 274.957 215.067 306.357 C 207.788 271.282 187.358 243.926 170.645 213.087 C 159.169 191.912 138.175 148.873 168.979 134.153 z" fill="rgb(250,246,234)" transform="translate(0,0)"></path>
<path d="M 583.007 337.446 C 649.9 306.958 715.463 279.589 788.149 264.791 C 834.542 255.345 869.63 252.922 906.725 287.305 C 914.313 294.338 943.333 317.761 945.101 326.757 C 942.617 326.809 940.482 326.684 938.05 326.613 C 873.488 324.727 827.084 324.05 779.971 273.283 C 742.212 284.231 704.894 292.829 668.518 308.481 C 662.755 310.962 654.851 314.01 649 315.859 L 649.003 319.177 C 644.47 319.845 643.688 319.809 639.066 319.502 C 640.599 322.336 639.665 321.035 643.055 322.869 C 638.725 323.673 631.114 324.248 628.493 326.708 L 628.412 327.463 C 627.586 327.473 625.438 327.137 624.531 327.02 C 597.015 335.316 535.19 373.223 508.885 389.735 L 505.059 393.109 C 501.18 394.711 500.359 394.738 497.907 397.908 C 497.241 398.212 494.996 399.315 494.388 399.429 C 466.239 417.418 413.419 462.747 390.269 487.125 C 391.505 488.001 392.6 488.89 393.929 489.556 L 386.306 491.974 C 385.694 492.546 383.744 494.441 383.144 494.858 C 362.992 510.056 301.422 588.409 293.25 611.066 L 293.841 612.663 L 294.675 612.89 L 296.291 615.935 L 296.181 617.219 L 294.471 618.438 L 292.98 618.186 L 290.515 616.976 C 288.129 619.454 283.639 628.456 281.809 631.792 C 265.685 661.192 246.608 707.761 239.468 740.324 L 238.471 744.052 C 237.959 747.083 237.254 750.478 237.134 753.493 L 235.796 756.622 C 228.158 784.467 225.316 815.632 223.338 844.388 C 222.867 851.229 221.709 887.712 223.714 892.285 L 226.33 894.329 C 224.486 898.689 224.221 898.962 224.273 903.569 C 223.339 907.225 223.136 905.568 224.448 908.739 C 227.134 940.491 231.64 970.053 239.235 1001.05 C 241.385 1009.82 252.71 1038.16 247.63 1044.07 L 245.913 1043.82 C 242.672 1039.67 239.193 1026.22 237.402 1020.52 C 212.499 941.265 209.077 856.12 223.248 774.492 C 224.794 765.587 231.758 742.256 231.515 735.292 C 234.912 730.577 244.736 694.364 249.395 684.81 C 253.946 675.478 260.303 657.278 265.394 646.726 C 270.101 636.972 281.25 619.493 282.902 609.987 L 283.937 607.98 L 285.477 607.936 C 289.101 601.286 290.503 595.483 292.179 588.235 L 295.146 591.963 C 297.259 590.005 307.262 574.729 309.597 571.472 C 319.846 557.173 330.168 542.861 341.007 529.149 C 346.152 522.64 369.788 498.084 371.64 493.364 L 374.116 490.935 C 378.598 488.345 378.797 484.982 380.312 479.807 L 382.204 483.867 C 383.652 482.88 383.337 483.214 383.682 482.746 C 402.737 460.115 457.452 417.192 482.006 398.181 C 482.158 397.817 484.366 395.384 484.69 395.014 L 486.931 394.583 C 488.672 391.312 487.404 392.264 490.542 391.241 C 495.625 390.732 544.307 357.244 553.066 353.373 C 553.731 353.079 554.467 351.663 554.878 350.945 L 557.58 349.505 C 564.521 349.244 576.179 339.416 580.788 334.299 L 581.813 337.309 L 583.007 337.446 z" fill="rgb(92,34,11)" transform="translate(0,0)"></path>
<path d="M 785.025 272.396 C 823.451 264.644 853.759 252.696 887.667 277.285 C 902.993 288.4 928.169 308.875 939.55 323.541 C 942.122 325.525 942.094 325.706 945.101 326.757 C 942.617 326.809 940.482 326.684 938.05 326.613 C 873.488 324.727 827.084 324.05 779.971 273.283 L 785.025 272.396 z" fill="rgb(250,246,234)" transform="translate(0,0)"></path>
<path d="M 779.971 273.283 L 785.025 272.396 C 786.908 277.047 795.203 282.814 799.073 286.454 C 840.461 325.372 888.628 319.135 939.55 323.541 C 942.122 325.525 942.094 325.706 945.101 326.757 C 942.617 326.809 940.482 326.684 938.05 326.613 C 873.488 324.727 827.084 324.05 779.971 273.283 z" fill="rgb(120,40,10)" transform="translate(0,0)"></path>
<path d="M 649 315.859 L 649.003 319.177 C 644.47 319.845 643.688 319.809 639.066 319.502 L 649 315.859 z" fill="rgb(215,203,190)" transform="translate(0,0)"></path>
<path d="M 1424.85 1688.56 C 1425.97 1688.72 1427.21 1689.15 1428.31 1689.44 C 1429.21 1691.21 1429.62 1691.53 1429.51 1693.62 C 1428.43 1714.07 1371.46 1762.61 1354.69 1776.98 C 1370.69 1772.62 1407.7 1761.9 1422.21 1769.28 C 1423.97 1771.62 1423.92 1771.53 1423.64 1774.46 C 1419.81 1780.65 1413.25 1783.58 1406.6 1785.94 C 1386.09 1793.23 1365.41 1795.09 1345.4 1785.65 C 1330.73 1797.17 1315.19 1807.02 1298.94 1816.13 C 1313.63 1819.51 1350.44 1823.49 1360.42 1833.38 C 1362.3 1835.25 1362.43 1835.7 1362.38 1838.16 C 1359.78 1841.71 1355.25 1842.51 1351.11 1843.07 C 1328.85 1846.08 1303.09 1837.22 1285.66 1823.64 C 1267.46 1832.43 1249.2 1841.64 1230.14 1848.44 C 1244.67 1852.83 1289.54 1865.59 1298.82 1874.7 C 1300.66 1876.51 1301.15 1877.61 1301.27 1880.13 C 1300.74 1880.89 1300.43 1881.45 1299.61 1882.03 C 1296.11 1884.5 1289.81 1884.47 1285.74 1884.34 C 1259.66 1883.5 1236.22 1870.57 1218.61 1852.11 C 1198.97 1859.16 1179.16 1862.98 1158.92 1867.58 C 1174.12 1874.72 1210.42 1891.68 1220.08 1903.99 C 1220.08 1905.94 1220.53 1905.76 1219.36 1906.81 C 1217.22 1908.7 1214.27 1909.24 1211.5 1909.24 C 1186.94 1909.2 1157.73 1888.83 1141.47 1871.85 C 1112.9 1876.35 1076.97 1881.87 1048.63 1875.49 L 1047.64 1873.2 C 1051.66 1868.73 1129.51 1863.97 1141.19 1862.86 C 1141.28 1862.61 1141.36 1862.36 1141.45 1862.12 L 1141.9 1860.89 C 1146.41 1848.43 1154.7 1837.39 1163.19 1827.33 C 1171.17 1817.88 1186.3 1800.03 1199.92 1800.45 C 1202.51 1800.53 1202.9 1800.55 1204.56 1802.47 C 1206.05 1816.27 1167.79 1844.71 1158.55 1856.97 C 1158.31 1857.28 1158.09 1857.6 1157.86 1857.91 C 1176.78 1855.88 1195.72 1848.92 1214 1843.7 C 1221.12 1819.55 1232.45 1793.65 1249.64 1774.87 C 1252.63 1771.6 1255.73 1768.86 1260.32 1768.63 C 1262.16 1769.93 1263.18 1770.75 1263.69 1773.16 C 1266.49 1786.34 1236.73 1826.13 1228.36 1838.04 C 1247.75 1830.99 1265.83 1823.16 1283.98 1813.3 C 1285.26 1792.09 1287.75 1770.95 1296.58 1751.36 C 1298.93 1746.13 1301.69 1741.11 1307.24 1738.96 C 1309.68 1739.42 1310.29 1739.47 1311.68 1741.77 C 1318.05 1752.34 1304.08 1793.02 1299.54 1804.71 C 1313.32 1798.42 1328.28 1787.15 1339.93 1777.5 C 1336.58 1754.09 1332.31 1724.36 1341.12 1701.63 C 1342.59 1697.85 1344.01 1694.89 1347.82 1693.13 C 1350.34 1693.68 1350.85 1693.9 1352.35 1696.25 C 1359.71 1707.85 1352.51 1754.13 1349.84 1768.65 C 1359.47 1759.14 1368.74 1749.27 1377.63 1739.06 C 1391.94 1722.34 1406.86 1701.55 1424.85 1688.56 z" fill="rgb(120,40,10)" transform="translate(0,0)"></path>
<path d="M 1398.68 1771.41 L 1399.92 1771.25 C 1405.6 1770.59 1417.04 1769.56 1421.51 1773.06 C 1421.11 1773.92 1421.08 1774.11 1420.35 1774.93 C 1411.45 1784.92 1388.19 1787.53 1375.79 1789.05 C 1369.92 1789.06 1363 1789.05 1357.36 1787.43 C 1354.54 1786.63 1352.55 1785.71 1351.07 1783.17 C 1351.25 1782.88 1351.39 1782.56 1351.61 1782.29 C 1356.37 1776.6 1390.4 1772.18 1398.68 1771.41 z" fill="rgb(250,246,234)" transform="translate(0,0)"></path>
<path d="M 1223.28 1850.04 C 1232.14 1850.68 1287.12 1870.31 1294.39 1875.26 C 1296.63 1876.79 1297.17 1877.62 1297.57 1880.25 C 1297.26 1880.3 1296.95 1880.35 1296.64 1880.39 C 1277.31 1883.18 1248.02 1873.69 1232.76 1861.71 C 1229.2 1858.92 1223.83 1854.8 1223.28 1850.04 z" fill="rgb(250,246,234)" transform="translate(0,0)"></path>
<path d="M 1346.6 1776.42 C 1358.28 1765.88 1371.94 1750.63 1382.5 1738.7 C 1394.51 1725.12 1412.37 1700.71 1427.03 1690.67 C 1426.13 1693.79 1424.47 1699.49 1422.86 1702.04 C 1407.7 1725.97 1369.91 1762.7 1346.99 1778.97 L 1346.6 1776.42 z" fill="rgb(250,246,234)" transform="translate(0,0)"></path>
<path d="M 1147.48 1871.43 C 1150.25 1871.03 1152.96 1870.66 1155.71 1871.39 C 1168.45 1874.74 1209.68 1895.28 1216.31 1905.96 C 1201.12 1905.59 1183.81 1898.84 1170.71 1891.47 C 1163.75 1887.56 1149.7 1879.37 1147.48 1871.43 z" fill="rgb(250,246,234)" transform="translate(0,0)"></path>
<path d="M 1291.92 1819.85 C 1309.8 1821.01 1331.21 1825.11 1348.12 1830.92 C 1352.09 1832.28 1356.5 1833.56 1358.4 1837.47 L 1356.8 1838.79 C 1345.3 1841.1 1332.23 1839.89 1320.91 1837.07 C 1312.41 1834.94 1295.38 1830.28 1290.67 1822.53 L 1291.92 1819.85 z" fill="rgb(250,246,234)" transform="translate(0,0)"></path>
<path d="M 1306.65 1741.36 C 1307.05 1741.53 1307.49 1741.62 1307.85 1741.87 C 1309.71 1743.13 1309.62 1745.77 1309.56 1747.76 C 1309.16 1762.6 1301.47 1798.91 1291.11 1809.46 C 1289.47 1809.61 1290.29 1809.79 1288.75 1808.6 C 1287.95 1786.58 1294.04 1759.64 1306.65 1741.36 z" fill="rgb(250,246,234)" transform="translate(0,0)"></path>
<path d="M 1195.65 1803.8 C 1197.9 1803.91 1198.24 1803.68 1200.22 1804.96 C 1200.28 1807.93 1199.76 1809.25 1198.02 1811.69 C 1189.66 1823.46 1163.78 1844.96 1151.88 1857.58 C 1150.79 1858.08 1149.92 1858.21 1148.75 1858.41 L 1148.37 1856.26 C 1155.24 1837.87 1178.19 1813.03 1195.65 1803.8 z" fill="rgb(250,246,234)" transform="translate(0,0)"></path>
<path d="M 1347.63 1695.4 C 1349.19 1696.22 1349.43 1696.71 1350.14 1698.4 C 1354.88 1709.73 1349.53 1761.76 1344.7 1773.27 C 1344 1772.62 1343.44 1771.92 1343.08 1771.01 C 1337.43 1756.41 1338.97 1723.75 1342.55 1708.62 C 1343.64 1704.01 1345.69 1699.7 1347.63 1695.4 z" fill="rgb(250,246,234)" transform="translate(0,0)"></path>
<path d="M 1258.12 1772.69 C 1259.62 1773.5 1259.32 1773.83 1259.8 1775.39 C 1256.45 1794.83 1234.16 1823.17 1221.36 1839.21 L 1220.82 1839.38 L 1220.03 1838.09 C 1221.34 1830.86 1224.38 1822.02 1227.98 1815.62 C 1236.76 1799.99 1244.88 1785.1 1258.12 1772.69 z" fill="rgb(250,246,234)" transform="translate(0,0)"></path>
<path d="M 1212.83 1847.17 C 1213.84 1846.98 1215.06 1847.06 1216.1 1847.04 L 1216.72 1848.28 C 1216.46 1848.54 1216.24 1848.84 1215.96 1849.07 C 1209.98 1854.09 1195.84 1856.14 1188.24 1857.99 C 1147.7 1867.87 1106.43 1876.56 1064.42 1874.73 C 1062.77 1874.41 1061.14 1874.02 1059.51 1873.62 C 1062.36 1871.55 1131.93 1867.47 1142.97 1865.78 C 1162.07 1862.86 1193.3 1852.67 1212.83 1847.17 z" fill="rgb(250,246,234)" transform="translate(0,0)"></path>
<path d="M 1346.6 1776.42 L 1346.99 1778.97 C 1328.05 1800 1288.38 1817.69 1263.06 1830.83 C 1256.71 1834.12 1224.38 1848.5 1219.55 1847.65 C 1219.94 1844.11 1233.75 1839.75 1237.72 1838.21 C 1274.19 1824.03 1317.41 1802.89 1346.6 1776.42 z" fill="rgb(250,246,234)" transform="translate(0,0)"></path>
<path d="M 284.592 1488.53 C 288.566 1509.8 297.857 1541.62 306.402 1561.33 C 330.093 1615.99 355.577 1633.03 310.394 1686.97 C 313.653 1703.86 317.083 1710.22 324.159 1725.65 C 323.999 1728.19 324.036 1729.29 323.374 1731.76 C 321.542 1730.6 322.065 1731.21 320.945 1729.47 L 318.462 1726.03 L 316.245 1726.72 L 301.712 1691.84 C 274.954 1676.94 263.505 1667.06 253.016 1636.44 C 241.042 1601.5 264.285 1523.99 281.997 1492.66 C 282.799 1491.25 283.665 1489.87 284.592 1488.53 z" fill="rgb(120,40,10)" transform="translate(0,0)"></path>
<path d="M 282.784 1497.77 C 286.87 1503.05 293.46 1536.85 297.064 1547.24 C 305.961 1572.89 329.201 1605.06 331.69 1630.01 C 334.036 1653.52 319.392 1670.59 305.456 1687.44 C 287.845 1660.03 282.908 1624.03 280.52 1592.2 C 279.587 1579.76 279.436 1566.63 276.567 1554.45 L 275.804 1554.2 C 275.518 1554.77 275.142 1555.3 274.947 1555.91 C 273.431 1560.61 275.293 1570.79 275.621 1575.75 C 278.415 1618.07 283.593 1647.95 300.293 1687.42 C 281.324 1676.42 267.26 1664.66 259.049 1643.75 C 241.324 1598.59 264.127 1539.82 282.784 1497.77 z" fill="rgb(250,246,234)" transform="translate(0,0)"></path>
<path d="M 305.316 1689.43 L 307.378 1690.56 C 309.502 1693.07 309.458 1696 309.807 1699.14 C 307.17 1696.34 306.313 1693.03 305.316 1689.43 z" fill="rgb(250,246,234)" transform="translate(0,0)"></path>
<path d="M 52.1055 1629.63 C 79.5 1650.76 110.035 1659.07 143.613 1665.51 C 184.743 1673.4 206.207 1677.98 224.259 1718.55 C 230.849 1721.29 246.288 1719.72 252.291 1722.85 C 248.064 1723.63 243.573 1724.33 239.457 1725.5 C 233.518 1725.21 228.789 1724.88 222.878 1724.18 C 198.351 1747.36 167.704 1757.27 137.253 1741.22 C 103.24 1723.3 63.984 1665.56 52.1055 1629.63 z" fill="rgb(120,40,10)" transform="translate(0,0)"></path>
<path d="M 59.6291 1639.59 C 64.1697 1641.43 68.5703 1644.38 72.9858 1646.59 C 83.2585 1651.81 93.9441 1656.17 104.934 1659.63 C 132.377 1668.01 165.324 1668.51 190.496 1682.49 C 205.068 1690.59 215.006 1704.2 219.554 1720.04 C 181.886 1720.09 143.852 1706.81 111.513 1688.18 C 108.365 1686.37 105.007 1684.58 102.095 1682.4 C 98.0811 1679.4 89.3547 1668.57 85.1141 1668.25 L 85.143 1669.86 C 88.1658 1674.36 92.1734 1677.87 96.1155 1681.54 C 130.151 1708.08 175.604 1721.68 218.265 1723.7 C 211.483 1729.55 204.242 1734.86 196.19 1738.84 C 180.842 1746.44 164.089 1747.83 147.844 1742.12 C 108.548 1728.29 76.773 1676.04 59.6291 1639.59 z" fill="rgb(250,246,234)" transform="translate(0,0)"></path>
<path d="M 418.312 1756.41 C 400.084 1753.82 383.336 1742.03 372.28 1727.48 C 343.488 1689.58 356.204 1636.68 375.35 1597.52 C 378.576 1590.92 381.371 1585.02 385.729 1579.03 C 388.928 1600.5 395.851 1615.55 404.766 1635.33 C 418.028 1664.74 440.782 1690.31 441.083 1723.88 C 441.213 1738.31 426.39 1751.77 426.013 1756.28 C 433.937 1766.16 442.855 1778.12 451.208 1787.33 C 447.231 1790.84 451.791 1791.63 448.019 1793.92 L 446.694 1793.37 C 446.221 1791.34 420.469 1757.9 418.312 1756.41 z" fill="rgb(120,40,10)" transform="translate(0,0)"></path>
<path d="M 415.842 1751.97 C 411.232 1752.32 405.734 1749.61 401.596 1747.67 C 383.9 1739.36 369.164 1721.58 363.238 1702.97 C 350.844 1664.06 366.302 1621.9 383.615 1587.43 C 394.72 1625.56 406.428 1647.46 425.941 1681.64 C 434.103 1695.94 441.279 1718.22 435.757 1734.59 C 433.195 1742.22 427.729 1748.52 420.546 1752.14 L 418.095 1749.1 L 415.692 1751.32 L 415.842 1751.97 z" fill="rgb(250,246,234)" transform="translate(0,0)"></path>
<path d="M 378.669 1607.22 C 380.533 1616.53 380.387 1636.3 381.461 1647.02 C 385.252 1684.82 395.339 1718.51 418.095 1749.1 L 415.692 1751.32 C 388.249 1718.11 370.911 1649.42 378.669 1607.22 z" fill="rgb(120,40,10)" transform="translate(0,0)"></path>
<path d="M 418.095 1749.1 L 420.546 1752.14 L 423.595 1752.79 C 424.692 1754.83 424.526 1755.43 426.013 1756.28 C 433.937 1766.16 442.855 1778.12 451.208 1787.33 C 447.231 1790.84 451.791 1791.63 448.019 1793.92 L 446.694 1793.37 C 446.221 1791.34 420.469 1757.9 418.312 1756.41 L 415.842 1751.97 L 415.692 1751.32 L 418.095 1749.1 z" fill="url(#Gradient1)" transform="translate(0,0)"></path>
<path d="M 554.878 350.945 C 552.126 343.817 550.529 335.444 548.925 327.992 C 533.754 257.492 553.701 202.259 622.588 174.347 C 625.198 209.192 620.351 266.996 606.834 298.469 C 601.108 311.802 591.521 325.634 583.007 337.446 L 581.813 337.309 L 580.788 334.299 C 576.179 339.416 564.521 349.244 557.58 349.505 L 554.878 350.945 z" fill="rgb(250,246,234)" transform="translate(0,0)"></path>
<path d="M 554.878 350.945 C 552.126 343.817 550.529 335.444 548.925 327.992 C 533.754 257.492 553.701 202.259 622.588 174.347 C 625.198 209.192 620.351 266.996 606.834 298.469 C 601.108 311.802 591.521 325.634 583.007 337.446 L 581.813 337.309 L 580.788 334.299 C 618.616 286.071 619.841 238.288 619.954 179.017 C 554.384 209.466 538.591 254.982 551.759 325.543 C 553.224 333.392 556.233 342.038 557.58 349.505 L 554.878 350.945 z" fill="rgb(120,40,10)" transform="translate(0,0)"></path>
<path d="M 456.774 209.121 C 488.402 268.489 486.894 326.963 490.542 391.241 C 487.404 392.264 488.672 391.312 486.931 394.583 L 484.69 395.014 C 484.366 395.384 482.158 397.817 482.006 398.181 C 479.687 396.275 474.052 393.551 471.087 391.701 C 465.199 387.957 459.629 383.734 454.436 379.074 C 401.675 330.878 410.904 258.462 456.774 209.121 z" fill="rgb(250,246,234)" transform="translate(0,0)"></path>
<path d="M 456.774 209.121 C 488.402 268.489 486.894 326.963 490.542 391.241 C 487.404 392.264 488.672 391.312 486.931 394.583 C 487.251 384.352 485.554 371.845 485.375 361.12 C 484.502 308.516 479.397 262.47 455.73 214.41 C 444.659 229.209 437.708 238.461 430.796 255.883 C 411.857 303.623 421.78 351.794 464.397 383.382 C 470.721 387.982 477.525 391.883 484.69 395.014 C 484.366 395.384 482.158 397.817 482.006 398.181 C 479.687 396.275 474.052 393.551 471.087 391.701 C 465.199 387.957 459.629 383.734 454.436 379.074 C 401.675 330.878 410.904 258.462 456.774 209.121 z" fill="rgb(120,40,10)" transform="translate(0,0)"></path>
<path d="M 101.683 703.766 C 106.359 706.063 110.881 709.725 115.026 712.882 C 159.319 746.612 179.072 797.832 195.204 848.999 C 199.191 861.647 204.61 875.287 206.423 888.387 L 205 890.165 C 196.815 886.071 189.333 880.467 181.912 875.152 C 151.126 853.103 120.909 825.013 106.72 789.027 C 98.5502 768.307 92.6704 724.301 101.683 703.766 z" fill="rgb(120,40,10)" transform="translate(0,0)"></path>
<path d="M 103.221 708.438 C 117.192 716.947 129.177 728.762 139.677 741.193 C 168.742 775.601 181.383 817.389 194.931 859.328 C 197.112 866.078 202.828 878.441 202.236 885.255 C 171.724 866.152 142.834 842.233 122.548 812.242 C 101.864 781.662 96.4507 744.449 103.221 708.438 z" fill="rgb(250,246,234)" transform="translate(0,0)"></path>
<path d="M 158.02 548.382 C 159.662 544.38 159 544.091 161.938 542.111 C 166.939 542.447 170.425 545.846 173.649 549.555 C 211.555 593.174 224.988 639.083 228.09 696.008 C 228.602 705.406 227.444 729.159 231.515 735.292 C 202.763 718.517 161.455 665.204 154.47 632.193 C 147.443 598.977 150.028 580.352 158.02 548.382 z" fill="rgb(120,40,10)" transform="translate(0,0)"></path>
<path d="M 162.723 544.315 C 173.474 552.587 182.45 565.009 189.859 576.26 C 213.861 612.709 224.181 657.003 225.064 700.284 C 225.225 708.192 225.963 717.561 224.389 725.287 L 222.988 725.587 L 220.287 723.182 C 199.646 703.85 180.155 682.559 167.315 657.14 C 149.221 621.317 150.522 581.793 162.723 544.315 z" fill="rgb(250,246,234)" transform="translate(0,0)"></path>
<path d="M 1869.25 1738.12 C 1871.54 1737.83 1873.85 1737.52 1876.12 1738.06 C 1879.86 1738.96 1883.29 1741.54 1885.28 1744.8 C 1893.92 1758.99 1886.58 1785.74 1883.04 1800.77 C 1887.33 1797.59 1891.64 1794.48 1896.17 1791.64 C 1908.59 1783.86 1923.97 1777.32 1938.85 1781.22 C 1943.46 1782.43 1947.56 1784.9 1949.84 1789.2 C 1951.99 1793.28 1951.91 1798.24 1950.56 1802.57 C 1944.47 1822.14 1917.37 1834.97 1900.35 1843.33 C 1875.4 1854.32 1851.71 1866.23 1829.6 1882.33 C 1835.63 1865.47 1839.86 1849.07 1841.41 1831.16 C 1843.26 1809.73 1842.32 1786.69 1847.97 1765.88 C 1851.49 1752.94 1857.81 1744.74 1869.25 1738.12 z" fill="rgb(120,40,10)" transform="translate(0,0)"></path>
<path d="M 1870.26 1740.83 C 1872.82 1740.68 1875.53 1740.49 1877.91 1741.63 C 1881.02 1743.13 1883.12 1746.02 1884.38 1749.15 C 1890.31 1763.88 1882.68 1797.54 1876.56 1811.57 C 1882.1 1805.04 1887.97 1799.7 1895.1 1794.94 C 1906.79 1787.12 1921.81 1780.54 1936.1 1783.69 C 1940.57 1784.68 1945.12 1786.87 1947.48 1790.98 C 1949.39 1794.3 1949.45 1798.08 1948.37 1801.69 C 1943.82 1816.8 1923.02 1827.71 1910.31 1834.87 C 1884.8 1848.5 1859.13 1858.54 1835.16 1875.37 C 1847.75 1840.03 1841.27 1802.38 1850.87 1767.29 C 1854.14 1755.34 1859.49 1747.04 1870.26 1740.83 z" fill="rgb(250,246,234)" transform="translate(0,0)"></path>
<path d="M 257.089 421.022 C 265.495 428.252 271.666 435.713 277.996 444.779 C 300.176 476.548 309.835 511.582 303.699 550.033 C 301.428 564.264 297.616 577.888 295.146 591.963 L 292.179 588.235 C 290.503 595.483 289.101 601.286 285.477 607.936 L 283.937 607.98 L 282.902 609.987 C 279.079 606.259 275.365 601.618 272.43 597.134 C 236.605 542.412 230.542 481.282 257.089 421.022 z" fill="rgb(250,246,234)" transform="translate(0,0)"></path>
<path d="M 257.089 421.022 C 265.495 428.252 271.666 435.713 277.996 444.779 C 300.176 476.548 309.835 511.582 303.699 550.033 C 301.428 564.264 297.616 577.888 295.146 591.963 L 292.179 588.235 C 304.338 535.523 310.426 503.337 279.945 453.223 C 274.4 444.106 266.074 433.308 258.268 425.906 C 239.564 486.386 235.695 519.432 265.965 579.899 C 270.321 588.6 278.784 600.948 285.477 607.936 L 283.937 607.98 L 282.902 609.987 C 279.079 606.259 275.365 601.618 272.43 597.134 C 236.605 542.412 230.542 481.282 257.089 421.022 z" fill="rgb(120,40,10)" transform="translate(0,0)"></path>
<path d="M 294.675 612.89 L 295.686 612.6 C 306.839 609.286 318.193 603.338 329.149 600.387 C 374.357 588.691 422.309 594.38 463.526 616.328 C 466.999 618.173 470.463 620.028 473.697 622.265 C 456.111 643.431 428.052 655.225 401.007 658.09 C 368.766 661.505 313.235 644.155 292.98 618.186 L 294.471 618.438 L 296.181 617.219 L 296.291 615.935 L 294.675 612.89 z" fill="rgb(250,246,234)" transform="translate(0,0)"></path>
<path d="M 294.675 612.89 L 295.686 612.6 C 306.839 609.286 318.193 603.338 329.149 600.387 C 374.357 588.691 422.309 594.38 463.526 616.328 C 466.999 618.173 470.463 620.028 473.697 622.265 C 456.111 643.431 428.052 655.225 401.007 658.09 C 368.766 661.505 313.235 644.155 292.98 618.186 L 294.471 618.438 L 296.181 617.219 C 298.046 619.046 299.97 620.812 301.95 622.512 C 325.328 642.773 368.469 658.004 399.588 655.257 C 424.087 653.094 452.918 641.577 469.07 622.535 C 408.273 590.762 359.321 589.811 296.291 615.935 L 294.675 612.89 z" fill="rgb(120,40,10)" transform="translate(0,0)"></path>
<path d="M 796.421 127.929 C 798.025 127.902 797.715 128.009 799.327 128.587 C 801.167 139.852 759.168 230.797 746.365 242.65 C 734.922 253.245 709.075 282.421 692.391 283.905 C 678.329 265.849 691.625 221.756 701.12 203.089 C 721.226 163.559 755.049 141.347 796.421 127.929 z" fill="rgb(120,40,10)" transform="translate(0,0)"></path>
<path d="M 793.882 132.066 L 794.902 132.919 C 794.79 138.434 775.183 182.886 772.047 192.015 C 760.859 224.593 726.192 267.787 693.307 280.78 C 677.476 241.967 711.095 179.458 743.23 157.356 C 760.511 145.472 774.424 139.21 793.882 132.066 z" fill="rgb(250,246,234)" transform="translate(0,0)"></path>
<path d="M 505.059 393.109 L 508.885 389.735 C 571.376 394.534 634.339 401.033 681.565 449.287 C 640.305 464.645 607.469 473.381 565.016 454.085 C 543.361 444.242 509.81 417.458 494.388 399.429 C 494.996 399.315 497.241 398.212 497.907 397.908 C 500.359 394.738 501.18 394.711 505.059 393.109 z" fill="rgb(250,246,234)" transform="translate(0,0)"></path>
<path d="M 505.059 393.109 L 508.885 389.735 C 571.376 394.534 634.339 401.033 681.565 449.287 C 640.305 464.645 607.469 473.381 565.016 454.085 C 543.361 444.242 509.81 417.458 494.388 399.429 C 494.996 399.315 497.241 398.212 497.907 397.908 C 552.361 455.24 598.862 479.752 675.331 447.612 C 616.132 399.568 575.737 398.078 505.059 393.109 z" fill="rgb(120,40,10)" transform="translate(0,0)"></path>
<path d="M 390.269 487.125 C 451.244 474.424 500.365 482.244 552.737 516.439 C 559.386 520.781 564.495 524.417 570.413 529.724 C 539.589 549.709 512.163 553.441 475.932 546.044 C 436.962 538.088 413.092 517.511 383.144 494.858 C 383.744 494.441 385.694 492.546 386.306 491.974 L 393.929 489.556 C 392.6 488.89 391.505 488.001 390.269 487.125 z" fill="rgb(250,246,234)" transform="translate(0,0)"></path>
<path d="M 390.269 487.125 C 451.244 474.424 500.365 482.244 552.737 516.439 C 559.386 520.781 564.495 524.417 570.413 529.724 C 539.589 549.709 512.163 553.441 475.932 546.044 C 436.962 538.088 413.092 517.511 383.144 494.858 C 383.744 494.441 385.694 492.546 386.306 491.974 C 432.316 536.905 506.104 566.867 565.377 529.082 C 563.801 527.751 562.18 526.473 560.519 525.251 C 524.52 498.775 479.619 482.452 434.715 484.548 C 420.424 485.215 407.981 487.319 393.929 489.556 C 392.6 488.89 391.505 488.001 390.269 487.125 z" fill="rgb(120,40,10)" transform="translate(0,0)"></path>
<path d="M 649.003 319.177 C 697.249 312.819 743.622 317.355 782.468 348.357 C 790.576 354.828 800.211 362.457 805.921 371.173 C 796.024 374.339 786.297 375.447 776.142 377.158 C 738.825 383.442 703.157 381.064 668.904 363.338 C 651.741 354.46 636.626 342.089 624.531 327.02 C 625.438 327.137 627.586 327.473 628.412 327.463 L 628.493 326.708 C 631.114 324.248 638.725 323.673 643.055 322.869 C 639.665 321.035 640.599 322.336 639.066 319.502 C 643.688 319.809 644.47 319.845 649.003 319.177 z" fill="rgb(250,246,234)" transform="translate(0,0)"></path>
<path d="M 649.003 319.177 C 697.249 312.819 743.622 317.355 782.468 348.357 C 790.576 354.828 800.211 362.457 805.921 371.173 C 796.024 374.339 786.297 375.447 776.142 377.158 C 738.825 383.442 703.157 381.064 668.904 363.338 C 651.741 354.46 636.626 342.089 624.531 327.02 C 625.438 327.137 627.586 327.473 628.412 327.463 C 641.413 337.574 641.137 343.453 660.617 355.162 C 707.07 383.084 750.072 380.946 800.612 369.176 C 756.975 320.728 704.246 315.306 643.055 322.869 C 639.665 321.035 640.599 322.336 639.066 319.502 C 643.688 319.809 644.47 319.845 649.003 319.177 z" fill="rgb(120,40,10)" transform="translate(0,0)"></path>
<path d="M 239.468 740.324 C 283.32 715.048 310.114 708.302 361.694 711.694 C 373.491 712.47 386.419 712.686 398.152 714.656 C 367.822 778.383 296.217 785.654 237.5 757.446 L 235.796 756.622 L 237.134 753.493 C 237.254 750.478 237.959 747.083 238.471 744.052 L 239.468 740.324 z" fill="rgb(250,246,234)" transform="translate(0,0)"></path>
<path d="M 239.468 740.324 C 283.32 715.048 310.114 708.302 361.694 711.694 C 373.491 712.47 386.419 712.686 398.152 714.656 C 367.822 778.383 296.217 785.654 237.5 757.446 L 235.796 756.622 L 237.134 753.493 C 293.574 780.147 361.496 777.805 393.871 717.305 C 385.589 715.817 376.941 716.071 368.866 715.284 C 323.275 710.842 279.852 716.179 241.91 743.785 C 241.171 744.323 239.322 744.113 238.471 744.052 L 239.468 740.324 z" fill="rgb(120,40,10)" transform="translate(0,0)"></path>
<path d="M 223.714 892.285 C 256.409 847.812 306.398 821.415 360.224 810.714 C 361.673 810.426 362.76 810.641 364.147 811.015 C 366.455 816.622 361.763 825.674 359.314 831.642 C 346.895 861.903 318.822 887.701 288.887 900.22 C 272.349 907.136 244.398 911.936 227.06 907.4 L 225.105 906.899 L 224.448 908.739 C 223.136 905.568 223.339 907.225 224.273 903.569 C 224.221 898.962 224.486 898.689 226.33 894.329 L 223.714 892.285 z" fill="rgb(250,246,234)" transform="translate(0,0)"></path>
<path d="M 223.714 892.285 C 256.409 847.812 306.398 821.415 360.224 810.714 C 361.673 810.426 362.76 810.641 364.147 811.015 C 366.455 816.622 361.763 825.674 359.314 831.642 C 346.895 861.903 318.822 887.701 288.887 900.22 C 272.349 907.136 244.398 911.936 227.06 907.4 L 225.105 906.899 L 224.448 908.739 C 223.136 905.568 223.339 907.225 224.273 903.569 C 244.513 908.479 275.635 904.537 294.094 894.655 C 331.973 874.376 349.338 852.246 362.833 813.208 C 311.068 824.158 256.742 849.275 226.33 894.329 L 223.714 892.285 z" fill="rgb(120,40,10)" transform="translate(0,0)"></path>
<path d="M 371.64 493.364 C 347.954 468.732 325.801 437.923 327.903 402.387 C 329.145 381.389 334.56 364.809 344.992 346.611 C 347.795 341.722 349.927 336.102 354.13 332.266 C 356.614 332.569 357.387 332.595 359.288 335.319 C 378.826 363.306 390.654 401.677 390.116 435.608 C 389.898 449.316 386.106 469.287 383.682 482.746 C 383.337 483.214 383.652 482.88 382.204 483.867 L 380.312 479.807 C 378.797 484.982 378.598 488.345 374.116 490.935 L 371.64 493.364 z" fill="rgb(250,246,234)" transform="translate(0,0)"></path>
<path d="M 371.64 493.364 C 347.954 468.732 325.801 437.923 327.903 402.387 C 329.145 381.389 334.56 364.809 344.992 346.611 C 347.795 341.722 349.927 336.102 354.13 332.266 C 356.614 332.569 357.387 332.595 359.288 335.319 C 378.826 363.306 390.654 401.677 390.116 435.608 C 389.898 449.316 386.106 469.287 383.682 482.746 C 383.337 483.214 383.652 482.88 382.204 483.867 L 380.312 479.807 C 391.432 419.461 389.259 388.475 355.236 334.748 C 318.234 400.018 322.025 435.875 374.116 490.935 L 371.64 493.364 z" fill="rgb(120,40,10)" transform="translate(0,0)"></path>
<path d="M 1621.29 1837.34 C 1664.39 1824.51 1704.86 1803.44 1746.53 1786.78 C 1757.95 1782.22 1768.44 1775.97 1780.08 1771.81 C 1785.98 1769.7 1792.45 1772.51 1794.91 1778.5 C 1795.95 1781.05 1794.63 1784.4 1792.94 1786.4 C 1786.01 1793.7 1776.32 1800.75 1767.68 1805.79 C 1725.6 1830.37 1676.08 1840.06 1627.97 1843.63 C 1623.74 1843.95 1619.74 1844.05 1615.55 1843.41 C 1617.39 1840.88 1618.54 1838.67 1621.29 1837.34 z" fill="rgb(120,40,10)" transform="translate(0,0)"></path>
<path d="M 1780.84 1775.02 C 1783.42 1774.7 1785.16 1774.71 1787.69 1775.33 C 1789.85 1777.33 1790.37 1777.75 1791.24 1780.53 C 1790.8 1782.54 1790.42 1783.69 1789.07 1785.31 C 1783.59 1791.89 1773.82 1797.63 1766.51 1801.94 C 1725.97 1825.84 1680.2 1835.9 1633.75 1839.42 C 1628.49 1840.09 1623.21 1840.4 1617.92 1840.74 C 1674.1 1824.44 1727.7 1799.29 1780.84 1775.02 z" fill="rgb(250,246,234)" transform="translate(0,0)"></path>
<path d="M 1821.84 1438.57 C 1822 1438.35 1822.16 1438.13 1822.32 1437.91 C 1845.41 1402.14 1861.06 1361.89 1884.5 1326.46 C 1887.44 1322.01 1896.1 1313.47 1901.81 1313.32 C 1904.25 1313.26 1906.57 1314.38 1908.05 1316.33 C 1910.65 1319.83 1910.82 1325.29 1909.72 1329.2 C 1898.41 1369.25 1855.36 1423.58 1823.82 1449.48 L 1820.73 1448.09 L 1823.51 1441.42 L 1821.82 1440.56 L 1821.84 1438.57 z" fill="rgb(250,246,234)" transform="translate(0,0)"></path>
<path d="M 1821.84 1438.57 C 1822 1438.35 1822.16 1438.13 1822.32 1437.91 C 1845.41 1402.14 1861.06 1361.89 1884.5 1326.46 C 1887.44 1322.01 1896.1 1313.47 1901.81 1313.32 C 1904.25 1313.26 1906.57 1314.38 1908.05 1316.33 C 1910.65 1319.83 1910.82 1325.29 1909.72 1329.2 C 1898.41 1369.25 1855.36 1423.58 1823.82 1449.48 L 1820.73 1448.09 C 1840.25 1432.73 1917.75 1343.36 1905.47 1318.92 C 1897.88 1313.47 1889.52 1324.96 1885.69 1330.87 C 1863.35 1365.31 1848 1406.5 1824.48 1440.04 L 1823.51 1441.42 L 1821.82 1440.56 L 1821.84 1438.57 z" fill="rgb(120,40,10)" transform="translate(0,0)"></path>
<path d="M 1821.55 1273.75 C 1817.67 1249.64 1812.85 1225.42 1807.76 1201.53 C 1803.87 1183.31 1798.69 1164.63 1797.55 1145.98 C 1797.1 1138.46 1797.07 1125.25 1801.96 1119.25 C 1803.64 1117.19 1805.48 1116 1808.2 1115.88 C 1811.56 1115.74 1814.27 1117.51 1816.39 1119.93 C 1832.84 1138.62 1833.42 1251.94 1830.31 1279.37 C 1830.27 1279.75 1830.21 1280.14 1830.16 1280.52 L 1829.8 1275.49 C 1829.51 1270.73 1829.81 1271 1827.01 1266.98 L 1825.99 1272.35 L 1824.35 1272.61 L 1822.49 1271.93 L 1821.55 1273.75 z" fill="rgb(250,246,234)" transform="translate(0,0)"></path>
<path d="M 1821.55 1273.75 C 1817.67 1249.64 1812.85 1225.42 1807.76 1201.53 C 1803.87 1183.31 1798.69 1164.63 1797.55 1145.98 C 1797.1 1138.46 1797.07 1125.25 1801.96 1119.25 C 1803.64 1117.19 1805.48 1116 1808.2 1115.88 C 1811.56 1115.74 1814.27 1117.51 1816.39 1119.93 C 1832.84 1138.62 1833.42 1251.94 1830.31 1279.37 C 1830.27 1279.75 1830.21 1280.14 1830.16 1280.52 L 1829.8 1275.49 C 1829.51 1270.73 1829.81 1271 1827.01 1266.98 C 1825.91 1240.78 1831.45 1140.15 1814.6 1123.82 C 1812.5 1121.79 1811.15 1121.57 1808.33 1121.41 C 1800.18 1125.41 1800.06 1138.34 1801.09 1146.13 C 1805.13 1176.59 1812.81 1206.59 1818.7 1236.73 C 1820.24 1244.45 1823.92 1267.1 1825.99 1272.35 L 1824.35 1272.61 L 1822.49 1271.93 L 1821.55 1273.75 z" fill="rgb(120,40,10)" transform="translate(0,0)"></path>
<path d="M 1606.02 1833.24 C 1609.28 1814.88 1619.35 1662.67 1651.34 1674.83 C 1657.2 1681.07 1656.36 1692.47 1654.5 1700.33 C 1647.12 1731.58 1638.11 1762.6 1627.8 1793.02 C 1624.03 1804.16 1620.96 1821.13 1615.33 1830.71 L 1614.06 1832.28 L 1611.22 1831.79 L 1610.2 1834.63 L 1609.21 1837.2 C 1607.09 1835.34 1607.61 1835.71 1606.02 1833.24 z" fill="rgb(250,246,234)" transform="translate(0,0)"></path>
<path d="M 1606.02 1833.24 C 1609.28 1814.88 1619.35 1662.67 1651.34 1674.83 C 1657.2 1681.07 1656.36 1692.47 1654.5 1700.33 C 1647.12 1731.58 1638.11 1762.6 1627.8 1793.02 C 1624.03 1804.16 1620.96 1821.13 1615.33 1830.71 L 1614.06 1832.28 L 1611.22 1831.79 L 1611.9 1830.38 C 1617.87 1817.96 1620.57 1803.4 1625.07 1790.34 C 1635.43 1760.33 1643.94 1729.6 1651.21 1698.71 C 1652.52 1693.16 1654.15 1680.21 1648.32 1677.45 C 1625.37 1680.51 1616.08 1778 1613.94 1798.24 C 1612.94 1807.71 1610.22 1825.12 1610.2 1834.63 L 1609.21 1837.2 C 1607.09 1835.34 1607.61 1835.71 1606.02 1833.24 z" fill="rgb(120,40,10)" transform="translate(0,0)"></path>
<path d="M 1773.85 1587.28 C 1760.54 1574.27 1724.67 1510.05 1715.59 1490.48 C 1711.52 1481.71 1701.65 1462.23 1706.05 1452.61 C 1707.07 1450.38 1708.4 1448.52 1710.84 1447.74 C 1713.01 1447.05 1715.26 1447.57 1717.26 1448.5 C 1740.27 1459.24 1768.83 1556.86 1779.69 1583.68 C 1777.27 1586.48 1777.44 1586.27 1773.85 1587.28 z" fill="rgb(120,40,10)" transform="translate(0,0)"></path>
<path d="M 1710.65 1450.74 C 1712.52 1450.83 1714.45 1450.86 1716.22 1451.56 C 1734.7 1458.85 1765.65 1557.33 1773.92 1579.55 L 1773 1580.26 C 1752.98 1550.41 1718.52 1500.36 1709.69 1466.33 C 1708.08 1460.12 1707.39 1456.39 1710.65 1450.74 z" fill="rgb(250,246,234)" transform="translate(0,0)"></path>
<path d="M 1810.49 1460.12 C 1805.31 1457.51 1789.31 1440.37 1785.5 1435.41 C 1771.24 1416.83 1720.99 1354.3 1733.91 1333.45 C 1747.63 1325.33 1763.94 1355.56 1768.94 1365.08 C 1784.01 1393.75 1795.61 1421.13 1813.2 1448.56 L 1810.2 1450.23 C 1812.12 1454 1812.45 1453.22 1812.14 1456.79 L 1810.49 1460.12 z" fill="rgb(250,246,234)" transform="translate(0,0)"></path>
<path d="M 1810.49 1460.12 C 1805.31 1457.51 1789.31 1440.37 1785.5 1435.41 C 1771.24 1416.83 1720.99 1354.3 1733.91 1333.45 C 1747.63 1325.33 1763.94 1355.56 1768.94 1365.08 C 1784.01 1393.75 1795.61 1421.13 1813.2 1448.56 L 1810.2 1450.23 C 1809.82 1449.76 1809.43 1449.3 1809.05 1448.82 C 1794.25 1430.29 1757.96 1336.3 1739.19 1334.72 C 1737.45 1334.57 1736.74 1335.45 1735.33 1336.34 C 1726.28 1353.64 1794.1 1448.62 1812.14 1456.79 L 1810.49 1460.12 z" fill="rgb(120,40,10)" transform="translate(0,0)"></path>
<path d="M 1830.02 1317.12 C 1830.3 1316.73 1830.58 1316.35 1830.85 1315.96 C 1836 1308.49 1839.18 1296.06 1842.29 1287.49 C 1849.45 1267.82 1876.3 1186.63 1895.52 1182.4 C 1898.71 1181.7 1900.76 1182.35 1903.38 1184.12 C 1915.18 1201.9 1862.71 1276.77 1852.88 1293.85 C 1849.87 1299.1 1837.55 1316.78 1833.68 1320.67 L 1830.02 1317.12 z" fill="rgb(120,40,10)" transform="translate(0,0)"></path>
<path d="M 1893.72 1185.77 C 1895.67 1185.51 1897.24 1185.85 1899.16 1186.23 C 1901.07 1188.02 1901.91 1189 1902.13 1191.72 C 1903.68 1210.7 1852.1 1289.8 1839.56 1306.89 C 1838.01 1309.01 1836.39 1310.71 1834.52 1312.54 L 1834.39 1311.01 C 1854.45 1277.14 1866.89 1211.52 1893.72 1185.77 z" fill="rgb(250,246,234)" transform="translate(0,0)"></path>
<path d="M 1814.06 1324.27 C 1791.39 1308.75 1771.3 1288.09 1754.01 1266.81 C 1745.85 1256.77 1732.16 1239.56 1740.84 1226.52 C 1743.16 1225.16 1743.79 1224.77 1746.61 1225.27 C 1765.53 1228.63 1808.97 1303.6 1821 1321.66 C 1817.47 1323.96 1816.87 1322.86 1814.06 1324.27 z" fill="rgb(120,40,10)" transform="translate(0,0)"></path>
<path d="M 1743.76 1228.56 C 1744.04 1228.6 1744.33 1228.62 1744.61 1228.66 C 1749.13 1229.25 1752.19 1230.95 1755.64 1233.91 C 1775.94 1251.31 1798.03 1296.7 1816.37 1320.42 L 1815.96 1321.4 C 1793.97 1305.94 1753.2 1269.19 1742.93 1243.36 C 1740.64 1237.58 1741.29 1234.12 1743.76 1228.56 z" fill="rgb(250,246,234)" transform="translate(0,0)"></path>
<path d="M 182.6 1822.42 C 183.022 1822.72 183.488 1822.96 183.865 1823.31 C 186.966 1826.21 187.288 1854.99 187.617 1860.52 C 194.297 1860.16 219.843 1857.22 224.399 1860.52 L 223.918 1861.64 C 212.552 1863.71 199.712 1863.37 188.106 1864.1 C 188.385 1874.36 189.214 1884.6 190.591 1894.77 C 190.861 1897.08 190.896 1897.01 189.553 1898.9 L 188.22 1898.02 C 185.03 1887.35 185.014 1875.73 184.446 1864.66 C 174.796 1865.09 163.47 1866.52 154.07 1864.37 C 161.852 1860.5 175.481 1861.23 184.245 1860.82 C 184.228 1848.49 180.563 1834.37 182.6 1822.42 z" fill="rgb(120,40,10)" transform="translate(0,0)"></path>
<path d="M 1803.18 178.524 L 1805.16 179.377 C 1808.38 183.873 1808.87 207.815 1809.25 214.734 C 1816.88 214.134 1835.37 212.395 1841.85 214.253 C 1834.54 216.916 1818.33 217.667 1809.93 218.264 C 1810.37 229.544 1811.26 243.017 1810.59 254.112 L 1809.34 253.779 C 1806.97 250.213 1807.06 224.091 1806.89 218.001 C 1800.93 218.395 1779.07 220.461 1774.86 218.404 C 1783.29 214.985 1796.58 214.996 1805.96 214.569 C 1805.14 202.762 1803.61 190.186 1803.18 178.524 z" fill="rgb(120,40,10)" transform="translate(0,0)"></path>
<path d="M 995.911 170.472 C 1001.55 174.342 1002.96 200.513 1003.49 207.386 C 1010.02 206.899 1029.64 203.965 1034.4 206.563 L 1035.15 206.19 L 1035.15 206.139 C 1031.25 208.827 1010.29 210.318 1003.89 211.219 C 1003.99 219.396 1006.88 242.127 1003.53 247.641 C 1000.59 241.248 1000.96 218.948 1000.87 210.973 C 994.734 211.68 974.257 213.979 969.28 212.239 L 967.87 212.502 C 974.233 209.612 992.513 209.003 1000.28 208.558 C 999.472 196.326 997.273 182.876 995.911 170.472 z" fill="rgb(120,40,10)" transform="translate(0,0)"></path>
<metadata><recraft-signature>{"signed_by": "recraft", "signature_b64": "CX/zrThGyfiigPKWpGpN1d9j2UZOSnWr/9YEZfe1lmRomsxaAjVxWkZ0frrZ2f0MefvY/30yEQwTFbhTfNPwCA==", "signing_algo": "Ed25519", "generation_timestamp": 1778092968, "identifier": "f1315d97-3d7a-4b8b-87ff-a6f371cc1b26"}</recraft-signature></metadata></svg>