<svg xmlns="http://www.w3.org/2000/svg" height="1024" preserveAspectRatio="none" style="display: block;" version="1.1" viewBox="0 0 2048 2048" width="1024">
<defs>
	<linearGradient gradientUnits="userSpaceOnUse" id="Gradient1" x1="542.817" x2="545.308" y1="1787.96" y2="1774.31">
		<stop class="stop0" offset="0" stop-color="rgb(81,0,13)" stop-opacity="1"></stop>
		<stop class="stop1" offset="1" stop-color="rgb(123,19,15)" stop-opacity="1"></stop>
	</linearGradient>
	<linearGradient gradientUnits="userSpaceOnUse" id="Gradient2" x1="462.592" x2="468.581" y1="1864.18" y2="1841.83">
		<stop class="stop0" offset="0" stop-color="rgb(85,0,10)" stop-opacity="1"></stop>
		<stop class="stop1" offset="1" stop-color="rgb(122,32,31)" stop-opacity="1"></stop>
	</linearGradient>
	<linearGradient gradientUnits="userSpaceOnUse" id="Gradient3" x1="812.121" x2="818.802" y1="329.135" y2="345.064">
		<stop class="stop0" offset="0" stop-color="rgb(161,150,120)" stop-opacity="1"></stop>
		<stop class="stop1" offset="1" stop-color="rgb(195,159,152)" stop-opacity="1"></stop>
	</linearGradient>
</defs>
<path d="M 0 0 L 2048 0 L 2048 2048 L 0 2048 L 0 0 z" fill="rgb(254,253,248)" transform="translate(0,0)"></path>
<path d="M 1388.92 503.507 C 1414.47 503.198 1440.01 503.903 1465.5 505.62 C 1598.52 513.643 1768.82 560.384 1861.14 663.475 C 1908.51 716.377 1914.76 770.642 1910.48 838.385 C 1903.93 942.074 1870.14 1045.29 1807.26 1128.6 C 1793.7 1146.56 1779.92 1163.69 1762.86 1178.61 C 1786.51 1188.89 1811.9 1203.09 1835.31 1214.61 L 1912.05 1253.22 C 1928.62 1261.69 1947.8 1270.18 1962.35 1281.33 L 1963.26 1331.7 C 1942.58 1346.46 1897.53 1368.51 1873.43 1381.83 L 1661.8 1497.23 L 1035.39 1836.18 C 964.748 1803.65 893.95 1764.74 823.998 1730.94 C 662.118 1652.68 503.489 1570.19 342.552 1490.48 C 283.334 1461.17 224.325 1431.44 165.53 1401.3 C 146.79 1391.78 101.811 1370.92 87.375 1360.53 C 86.4296 1345.59 85.5439 1320.15 86.0413 1305.55 C 91.2201 1301.53 105.101 1293.99 111.237 1290.47 C 130.435 1279.41 149.786 1268.63 169.286 1258.11 C 202.894 1239.83 236.132 1221.19 269.425 1202.35 C 285.501 1193.26 311.654 1181.63 325.776 1171.34 C 316.187 1166.18 306.143 1162.35 296.446 1156.83 C 270.683 1142.33 272.957 1109.64 287.624 1088.08 C 300.187 1069.61 316.472 1059.68 338.048 1055.37 C 357.728 1061.93 378.812 1072.17 397.808 1080.98 C 408.676 1068.89 418.222 1052.27 433.426 1044.73 C 451.965 1035.54 476.432 1045.65 494.697 1051.96 C 505.711 1047.92 522.285 1038.3 533.032 1032.83 C 564.226 1016.94 594.775 999.092 625.755 982.852 L 831.374 873.581 C 857.972 859.135 883.612 847.126 909.838 831.336 C 904.436 757.83 915.996 705.81 969.792 651.282 C 1058.68 561.186 1191.3 522.792 1313.61 507.574 C 1337.83 504.562 1364.64 504.015 1388.92 503.507 z" fill="rgb(87,17,27)" transform="translate(0,0)"></path>
<path d="M 1370.06 512.433 C 1512.46 504.376 1708.65 543.154 1820.16 637.708 C 1864.4 675.218 1895.77 715.584 1901.15 775.392 C 1906.05 822.115 1885.06 869.112 1854.06 903.703 C 1752.78 1016.72 1594.78 1052.32 1450.2 1062.86 C 1291.44 1067.36 1116.09 1039.84 992.306 931.67 C 955.619 899.61 920.08 843.644 916.977 794.151 C 913.898 745.04 938.584 696.057 971.914 661.401 C 1068.62 559.562 1235 517.834 1370.06 512.433 z" fill="rgb(224,212,186)" transform="translate(0,0)"></path>
<path d="M 1391.14 537.474 C 1523.97 535.685 1700.81 568.687 1801.58 663.139 C 1836.52 695.606 1861.24 739.226 1862.76 787.631 C 1864.68 849.299 1817.6 907.424 1768.66 940.297 C 1670.7 1006.1 1540.6 1035.62 1423.75 1037.07 C 1403.57 1037.35 1383.39 1037.73 1363.22 1036.56 C 1248.54 1029.87 1110.13 996.297 1022.65 917.245 C 987.059 885.086 955.269 842.309 953.1 792.67 C 951.204 749.306 976.181 705.383 1004.93 674.582 C 1031.91 645.683 1063.92 624.91 1098.76 606.839 C 1189.58 559.739 1289.52 541.163 1391.14 537.474 z" fill="rgb(87,17,27)" transform="translate(0,0)"></path>
<path d="M 1013.51 897.65 C 1015.25 881.427 1019.87 865.768 1026.47 850.787 C 1070.22 751.365 1161.29 672.445 1260.5 632.58 C 1365.54 590.373 1475.76 595.514 1578.33 638.531 C 1579.46 640.329 1579.63 640.326 1580.32 642.29 C 1594.05 639.914 1643.89 670.696 1657.32 679.092 C 1720.95 718.883 1805.27 806.732 1820.75 881.353 C 1814.35 888.647 1807.68 895.699 1800.76 902.496 C 1770.68 931.504 1747.24 944.794 1711.48 963.384 C 1613.44 1014.35 1494 1030.62 1384.51 1029 C 1263.81 1027.22 1100.35 987.68 1013.51 897.65 z" fill="rgb(254,253,248)" transform="translate(0,0)"></path>
<path d="M 1578.33 638.531 C 1579.46 640.329 1579.63 640.326 1580.32 642.29 C 1529.22 653.577 1509.89 653.412 1468.79 690.854 C 1531.16 695.778 1598.15 708.468 1649.1 747.062 C 1634.58 740.437 1618.25 732.12 1603.68 726.473 C 1559.02 709.166 1509.87 699.662 1462.19 696.621 C 1412.3 764.897 1386.13 835.856 1381.74 920.898 L 1380.97 921.282 C 1379.79 919.363 1380 912.464 1379.88 909.62 C 1380.28 890.464 1383.45 871.267 1386.77 852.536 C 1398.27 787.858 1419.09 749.14 1455.35 696.176 C 1410.19 695.909 1365.3 703.108 1322.49 717.481 L 1321.63 715.56 C 1369.64 698.373 1409.84 691.295 1460.51 690.93 C 1488.22 666.206 1507.67 651.19 1545.07 643.852 C 1556.1 641.687 1567.36 640.619 1578.33 638.531 z" fill="rgb(87,17,27)" transform="translate(0,0)"></path>
<path d="M 1381.74 920.898 C 1381.69 927.758 1381.33 931.883 1380.55 938.701 L 1379.91 938.122 C 1378.86 928.808 1378.5 918.911 1379.88 909.62 C 1380 912.464 1379.79 919.363 1380.97 921.282 L 1381.74 920.898 z" fill="rgb(142,100,94)" transform="translate(0,0)"></path>
<path d="M 1321.63 715.56 L 1322.49 717.481 L 1300.48 725.319 L 1300.03 724.087 C 1307.14 721.013 1314.34 718.169 1321.63 715.56 z" fill="rgb(137,74,68)" transform="translate(0,0)"></path>
<path d="M 1300.48 725.319 C 1297.64 726.804 1295.37 728.532 1292.37 728.133 C 1294.73 725.359 1296.07 725.596 1300.03 724.087 L 1300.48 725.319 z" fill="rgb(193,173,147)" transform="translate(0,0)"></path>
<path d="M 1621.11 855.843 C 1630.16 855.796 1642.53 865.215 1640.21 875.483 C 1633.61 883.294 1623.99 872.971 1618.6 868.265 C 1617.68 866.498 1617.69 866.109 1617.12 864.175 L 1617.86 863.622 C 1622.26 866.847 1632.24 875.896 1637.23 875.195 L 1637.93 873.436 C 1636.97 867.593 1626.1 859.829 1621.11 855.843 z" fill="rgb(119,34,34)" transform="translate(0,0)"></path>
<path d="M 1158.29 789.587 L 1160.59 790.35 C 1160.13 794.158 1148.33 805.474 1145.33 810.499 C 1142.54 815.172 1140.42 818.981 1137.9 823.926 C 1136.52 823.819 1137.39 823.996 1135.48 822.813 C 1132.99 814.34 1151.36 794.589 1158.29 789.587 z" fill="rgb(87,17,27)" transform="translate(0,0)"></path>
<path d="M 1171.1 799.758 L 1172.24 800.518 L 1172.23 802.384 C 1163.4 812.673 1158.76 819.565 1152.32 831.41 L 1151.44 831.607 L 1150.63 830.577 C 1153.12 817.401 1160.97 807.916 1171.1 799.758 z" fill="rgb(87,17,27)" transform="translate(0,0)"></path>
<path d="M 1222.49 672.782 L 1224.61 673.638 C 1224.6 673.934 1208.24 691.007 1204.54 701.392 L 1203.19 701.431 C 1200.93 691.758 1214.82 677.47 1222.49 672.782 z" fill="rgb(119,34,34)" transform="translate(0,0)"></path>
<path d="M 1236.61 671.859 C 1237.01 672.201 1236.73 671.887 1237.53 673.351 C 1226.83 682.071 1223.66 685.533 1217.08 697.273 L 1216.09 696.557 C 1218.94 685.597 1226.64 676.922 1236.61 671.859 z" fill="rgb(119,34,34)" transform="translate(0,0)"></path>
<path d="M 1736.42 801.602 C 1742.53 803.656 1747.01 812.865 1750.14 818.473 C 1745.03 815.158 1739.7 806.826 1736.42 801.602 z" fill="rgb(119,34,34)" transform="translate(0,0)"></path>
<path d="M 1397.49 546.455 C 1453.24 544.965 1502.17 551.358 1556.9 561.281 C 1677.56 583.157 1880.75 665.375 1849.54 821.177 C 1807.76 744.389 1731.27 700.919 1654.13 666.518 C 1642.87 661.499 1630.27 653.705 1618.83 648.058 C 1590.6 634.084 1561.25 622.482 1531.1 613.371 C 1493.45 602.401 1460.95 597.949 1422.23 595.26 C 1382.83 594.317 1343.5 599.057 1305.45 609.332 C 1281.37 615.784 1258.38 624.272 1235.67 634.636 C 1222.77 640.524 1208.01 649.588 1195.29 654.889 C 1178.84 661.739 1162.3 666.581 1145.55 673.962 C 1089.7 698.565 1033.28 731.344 992.941 778 C 981.846 790.833 974.126 803.657 965.823 818.07 C 963.577 809.599 962.313 800.898 962.055 792.138 C 960.807 749.942 983.62 708.025 1012.64 678.968 C 1110.54 580.927 1265.19 549.569 1397.49 546.455 z" fill="rgb(193,173,147)" transform="translate(0,0)"></path>
<path d="M 1164.32 674.061 L 1164.89 674.179 L 1165.15 675.009 C 1134.53 694.102 1095.09 732.219 1071.99 760.606 C 1063.71 770.775 1054.87 784.9 1047.75 796.12 C 1029.29 802.943 1010.72 816.22 996.332 829.606 C 990.472 835.06 983.593 848.197 978.929 850.058 L 977.048 847.448 C 973.519 841.038 971.189 835.662 968.261 828.936 C 1000.09 756.383 1093.01 702.228 1164.32 674.061 z" fill="rgb(193,173,147)" transform="translate(0,0)"></path>
<path d="M 1698.34 697.804 C 1718.09 700.803 1794.6 760.905 1810.3 779.18 C 1817.86 788.03 1824.78 797.412 1830.99 807.254 C 1835.64 814.563 1840.85 824.024 1846.5 830.409 C 1843.65 839.043 1840.07 847.418 1835.79 855.441 C 1833.43 859.805 1830.53 864.531 1827.99 868.864 C 1800.9 792.82 1758.09 749.786 1698.34 697.804 z" fill="rgb(224,212,186)" transform="translate(0,0)"></path>
<path d="M 1038.85 806.866 L 1039.62 807.523 C 1039.61 809.439 1026.59 833.019 1024.49 837.408 C 1016.06 854.964 1011.38 870.88 1006.39 889.47 C 1002.5 885.305 999.386 881.555 995.778 877.162 C 990.857 870.702 987.137 864.866 982.749 858.005 C 996.797 836.104 1016.2 819.342 1038.85 806.866 z" fill="rgb(193,173,147)" transform="translate(0,0)"></path>
<path d="M 336.071 1175.96 L 360.754 1188.01 C 360.564 1216.6 363.996 1255.84 388.963 1273.55 C 557.641 1393.22 753.986 1466.68 943.164 1547.01 C 963.72 1553.78 984.34 1568.09 1004.96 1573.8 C 1057.85 1588.44 1101.09 1553.94 1123.85 1511.65 L 1230.4 1559.52 C 1242.21 1564.78 1278.03 1582.1 1287.04 1583.09 C 1330.95 1587.93 1358.69 1520.31 1342.85 1485.07 C 1332.68 1462.44 1316.37 1461.26 1298.05 1453.08 C 1263.28 1437.55 1225.62 1428.4 1191.47 1413.42 C 1179.14 1336.99 1120.85 1308.34 1054.15 1284.38 C 1037.67 1278.46 1019.04 1273.74 1003.11 1266.91 L 1001.67 1266.28 C 1034.12 1250.2 1069.59 1242.31 1104.64 1222.25 C 1121.07 1232.69 1137.74 1243.32 1155.02 1252.3 C 1220.16 1286.12 1298.86 1303.07 1371.76 1307.37 C 1455.97 1312.81 1540.39 1300.73 1619.7 1271.9 C 1679.26 1249.65 1709.09 1226.45 1755.88 1184.81 C 1772.32 1191.88 1798.26 1204.11 1813.63 1212.94 C 1755.16 1244.96 1696.42 1278 1637.69 1309.39 C 1597.97 1330.62 1554.62 1348.46 1513.74 1368.84 L 1514.3 1370.52 C 1557.06 1352.91 1605.86 1332.27 1646.49 1311.39 C 1705.75 1280.93 1762.24 1247.09 1822.48 1218.03 C 1841.81 1227.04 1860.88 1236.61 1879.66 1246.72 C 1860.23 1260.69 1811.46 1284.74 1788.56 1296.42 L 1790.21 1298.3 C 1823.6 1283.09 1855.64 1269.73 1887.28 1251.2 C 1905.11 1258.97 1932.84 1273.06 1949.8 1282.73 C 1927.18 1296.27 1901.55 1309.73 1878.3 1322.6 L 1686.68 1426.54 L 1035.2 1779.14 C 987.993 1754.17 940.585 1732.6 893.477 1706.7 C 938.628 1682.56 979.713 1659.93 1024.22 1634.35 L 1023.98 1631.8 C 978.723 1653.79 929.883 1679.04 885.145 1702.49 C 861.688 1690.82 842.462 1681.41 818.118 1671.53 C 846.844 1656.97 897.367 1631.42 927.151 1620.22 L 926.568 1618.58 C 890.468 1630.61 843.973 1650.27 809.017 1666.19 C 791.142 1655.68 760.027 1641.96 740.376 1633.05 C 762.533 1621.38 791.901 1607.5 815.057 1598.08 L 814.288 1596.5 C 786.148 1606.35 758.249 1616.88 730.615 1628.07 C 708.141 1616.21 685.534 1604.6 662.796 1593.25 C 701.81 1577.06 740.667 1560.49 779.364 1543.56 L 778.668 1541.57 L 698.062 1572.05 C 686.377 1576.45 664.028 1585.56 652.557 1588.15 C 595.033 1560.79 537.693 1530.16 480.084 1502.12 C 499.209 1491.44 518.448 1482.7 537.842 1472.63 C 548.62 1467.04 562.847 1460.63 572.177 1453.19 L 570.033 1453.82 L 571.392 1453.69 L 570.844 1454.1 L 570.698 1453.43 C 547.743 1463.85 524.583 1473.58 501.402 1483.46 C 491.714 1487.59 482.409 1492.73 472.685 1496.61 L 471.576 1497.04 C 420.046 1472.04 367.934 1444.73 316.84 1418.73 C 335.676 1408.1 356.583 1399.38 376.368 1390.55 C 386.009 1386.25 395.138 1381.41 404.817 1377.6 L 404.429 1377.09 C 398.718 1378.06 387.538 1382.51 381.69 1384.48 C 356.329 1393.02 333.617 1402.91 309.562 1414.39 C 279.347 1401.21 245.994 1383.65 216.341 1368.57 C 238.077 1358.69 263.758 1349.47 286.358 1339.86 C 259.923 1345.05 231.756 1355.73 206.142 1363.99 C 187.691 1355.84 170.914 1345.55 150.349 1336.84 C 168.234 1326.68 186.564 1318.81 205.253 1310.38 C 211.47 1307.57 219.957 1304.71 225.49 1301.77 C 211.644 1300.83 155.513 1326.28 141.953 1332.53 C 126.32 1323.72 112.011 1315.38 95.7947 1307.68 C 111.911 1298.31 130.863 1289.26 147.525 1280.13 L 274.684 1209.55 C 294.703 1198.45 316.532 1187.31 336.071 1175.96 z" fill="rgb(254,253,248)" transform="translate(0,0)"></path>
<path d="M 1484.58 1385.25 C 1481.29 1387.41 1457.71 1399.27 1454.8 1399.19 C 1463.39 1393.14 1472.01 1389.11 1481.5 1384.66 L 1484.58 1385.25 z" fill="rgb(215,204,195)" transform="translate(0,0)"></path>
<path d="M 1481.5 1384.66 C 1490.65 1380.95 1503.4 1373.41 1513.74 1368.84 L 1514.3 1370.52 C 1506.43 1375.01 1490.14 1381.26 1484.58 1385.25 L 1481.5 1384.66 z" fill="rgb(142,100,94)" transform="translate(0,0)"></path>
<path d="M 778.668 1541.57 C 786.432 1538.37 792.3 1536.1 800.279 1533.56 C 795.403 1536.77 785.088 1541.12 779.364 1543.56 L 778.668 1541.57 z" fill="rgb(142,100,94)" transform="translate(0,0)"></path>
<path d="M 1023.98 1631.8 C 1028.34 1629.74 1032.71 1627.7 1037.1 1625.69 L 1037.36 1627.31 L 1024.22 1634.35 L 1023.98 1631.8 z" fill="rgb(119,34,34)" transform="translate(0,0)"></path>
<path d="M 814.288 1596.5 C 818.012 1594.95 825.289 1591.64 829.131 1591.78 C 825.113 1594.74 819.827 1596.3 815.057 1598.08 L 814.288 1596.5 z" fill="rgb(153,132,123)" transform="translate(0,0)"></path>
<path d="M 1788.56 1296.42 L 1790.21 1298.3 C 1787.07 1299.9 1781.29 1303.01 1778.14 1302.76 L 1779.74 1301.58 L 1777.86 1303.41 L 1778.16 1302.51 L 1780.38 1302.49 L 1778.6 1302.13 C 1780.92 1300.43 1785.86 1297.91 1788.56 1296.42 z" fill="rgb(119,34,34)" transform="translate(0,0)"></path>
<path d="M 926.568 1618.58 C 929.824 1617.3 933.909 1615.53 937.192 1614.61 L 937.788 1615.46 L 939.438 1614.3 L 939.494 1614.5 L 938.802 1614.41 L 938.099 1615.55 C 934.125 1617.44 931.28 1618.72 927.151 1620.22 L 926.568 1618.58 z" fill="rgb(153,132,123)" transform="translate(0,0)"></path>
<path d="M 1037.1 1625.69 C 1039.81 1624.17 1041.61 1622.76 1044.67 1622.71 C 1042.77 1625.2 1040.26 1625.96 1037.36 1627.31 L 1037.1 1625.69 z" fill="rgb(142,100,94)" transform="translate(0,0)"></path>
<path d="M 585.645 1447.02 L 586.795 1447.21 L 586.503 1448.39 L 580.309 1451.53 L 578.32 1450.94 C 579.386 1448.72 583.34 1447.94 585.645 1447.02 z" fill="rgb(215,204,195)" transform="translate(0,0)"></path>
<path d="M 654.252 1148.36 C 683.616 1161.57 710.818 1174.42 740.869 1186.64 C 776.576 1201.16 811.462 1211.3 847.274 1224.18 L 849.526 1225.6 C 853.204 1225.03 879.432 1233.59 882.885 1235.37 L 885.014 1237.87 C 889.398 1236.1 908.228 1243.15 913.994 1244.98 C 944.276 1254.57 974.395 1264.68 1004.34 1275.28 C 1029.52 1283.93 1060.67 1293.32 1084.36 1305.13 C 1032.45 1321.78 1001.17 1354.4 975.806 1402.41 C 956.014 1439.88 944.807 1495.49 958.252 1536.77 C 959.503 1540.52 960.82 1544.25 962.202 1547.96 C 943.416 1539.72 777.493 1469.94 774.342 1466.55 L 771.956 1465.83 C 767.538 1465.08 751.485 1457.65 746.822 1455.31 L 743.794 1453.59 C 738.23 1452.53 714.139 1441.32 707.744 1438.4 C 664.052 1418.5 615.658 1397.7 573.744 1374.86 C 561.775 1299.54 584.759 1219.12 637.948 1164.6 C 643.302 1159.11 648.767 1153.72 654.252 1148.36 z" fill="rgb(254,253,248)" transform="translate(0,0)"></path>
<path d="M 654.252 1148.36 C 683.616 1161.57 710.818 1174.42 740.869 1186.64 C 776.576 1201.16 811.462 1211.3 847.274 1224.18 L 849.526 1225.6 C 843.848 1232.11 837.65 1238.04 831.529 1244.34 C 786.868 1290.32 760.923 1353.56 750.96 1416.27 C 748.923 1429.09 748.367 1442.48 746.822 1455.31 L 743.794 1453.59 C 738.23 1452.53 714.139 1441.32 707.744 1438.4 C 664.052 1418.5 615.658 1397.7 573.744 1374.86 C 561.775 1299.54 584.759 1219.12 637.948 1164.6 C 643.302 1159.11 648.767 1153.72 654.252 1148.36 z" fill="rgb(254,253,248)" transform="translate(0,0)"></path>
<path d="M 743.794 1453.59 C 743.802 1452.89 743.818 1452.19 743.841 1451.49 C 746.235 1364.87 783.537 1282.89 847.274 1224.18 L 849.526 1225.6 C 843.848 1232.11 837.65 1238.04 831.529 1244.34 C 786.868 1290.32 760.923 1353.56 750.96 1416.27 C 748.923 1429.09 748.367 1442.48 746.822 1455.31 L 743.794 1453.59 z" fill="rgb(98,14,22)" transform="translate(0,0)"></path>
<path d="M 849.526 1225.6 C 853.204 1225.03 879.432 1233.59 882.885 1235.37 L 885.014 1237.87 C 804.495 1306.13 785.494 1365.04 774.342 1466.55 L 771.956 1465.83 C 767.538 1465.08 751.485 1457.65 746.822 1455.31 C 748.367 1442.48 748.923 1429.09 750.96 1416.27 C 760.923 1353.56 786.868 1290.32 831.529 1244.34 C 837.65 1238.04 843.848 1232.11 849.526 1225.6 z" fill="rgb(254,253,248)" transform="translate(0,0)"></path>
<path d="M 882.885 1235.37 L 885.014 1237.87 C 804.495 1306.13 785.494 1365.04 774.342 1466.55 L 771.956 1465.83 C 771.987 1459.11 772.23 1452.4 772.686 1445.69 C 776.775 1379.02 806.759 1306.41 855.325 1260.43 C 864.306 1251.93 873.622 1243.57 882.885 1235.37 z" fill="rgb(98,14,22)" transform="translate(0,0)"></path>
<path d="M 920.065 842.721 C 950.074 916.794 1008.01 963.492 1077.38 999.08 C 1249.06 1087.15 1476.68 1091.38 1658.29 1033.63 C 1738.31 1008.19 1819.5 963.643 1871.44 895.765 C 1884.88 878.203 1891.98 862.425 1901.9 843.375 C 1898.04 864.065 1896.34 884.585 1892.04 906.72 C 1881.08 949.369 1886.57 957.698 1850.79 993.773 C 1751.72 1093.65 1575.13 1137.35 1438.82 1140.95 C 1299.24 1142.75 1152.75 1117.21 1032.47 1043.16 C 1008.03 1028.12 950.023 982.635 939.891 957.054 C 931.136 934.951 920.454 866.488 920.065 842.721 z" fill="rgb(224,212,186)" transform="translate(0,0)"></path>
<path d="M 504.744 1057.49 C 514.351 1050.9 530.945 1042.77 541.724 1037.23 C 560.062 1027.98 578.246 1018.43 596.266 1008.58 C 678.184 963.689 761.814 921.259 843.821 876.363 C 866.146 864.141 889.354 853.06 911.41 840.642 C 915.16 877.03 919.993 911.922 927.588 947.78 C 931.228 964.97 936.499 980.711 941.283 997.528 C 919.911 1010.99 899.369 1027.05 878.06 1040.91 C 823.617 1077.09 766.428 1108.96 707.016 1136.23 C 697.486 1140.63 686.517 1146.25 677.087 1150.16 C 662.68 1144.53 644.433 1134.92 630.581 1127.72 C 604.912 1114.67 579.801 1100.56 555.316 1085.4 C 651.118 1036.67 755.436 988.506 844.595 928.424 L 843.701 926.548 C 796.718 953.789 749.1 979.919 700.886 1004.92 C 650.021 1030.71 598.944 1056.08 547.659 1081.03 C 537.038 1074.94 512.32 1062.89 504.744 1057.49 z" fill="rgb(254,253,248)" transform="translate(0,0)"></path>
<path d="M 843.701 926.548 C 849.489 922.335 854.27 920.017 860.612 916.725 C 856.319 921.013 849.755 925 844.595 928.424 L 843.701 926.548 z" fill="rgb(119,34,34)" transform="translate(0,0)"></path>
<path d="M 944.506 977.573 C 947.296 979.34 960.871 995.128 964.591 999.07 C 971.132 1006 975.127 1009.78 982.642 1016.14 C 1112.64 1126.2 1320.58 1158.79 1485.73 1145.9 C 1603.96 1136.67 1744.32 1096.04 1836.97 1018.72 C 1849.66 1008.14 1861.8 994.458 1872.52 981.797 C 1866.99 997.474 1860.95 1012.97 1854.41 1028.25 C 1840.65 1059.27 1836.87 1071.01 1810.17 1093.38 C 1755.91 1138.83 1687.01 1166.83 1618.95 1184.17 C 1435.43 1230.91 1226.44 1220.35 1059.05 1126.24 C 1032.75 1111.33 996.151 1082.85 978.08 1058.69 C 966.121 1042.71 949.866 998.049 944.506 977.573 z" fill="rgb(224,212,186)" transform="translate(0,0)"></path>
<path d="M 441.079 1049.14 C 486.713 1046.13 536.042 1084.85 574.179 1106.77 C 590.833 1116.34 605.721 1124.15 622.925 1132.97 C 610.904 1140.64 600.349 1151.75 591.285 1162.63 C 546.634 1216.25 535.228 1279.16 541.855 1347.12 C 542.411 1350.44 543.451 1354.53 542.649 1357.63 C 538.616 1357.56 516.057 1344.24 511.798 1341.82 C 480.564 1324.39 450.016 1305.77 420.224 1285.98 C 409.736 1278.87 386.43 1264.59 381.131 1253.57 C 360.453 1210.58 369.716 1152.18 390.089 1110.79 C 399.252 1092.18 422.122 1058.6 441.079 1049.14 z" fill="rgb(254,253,248)" transform="translate(0,0)"></path>
<path d="M 990.912 1083.94 C 1066.81 1164.11 1226 1207.47 1332.28 1216.66 C 1483.99 1229.77 1695.3 1199 1816.3 1099.57 C 1808.58 1111.73 1799.55 1123.3 1790.4 1134.41 C 1778.27 1150.19 1744.65 1185.63 1728.66 1195.96 C 1698.51 1215.45 1648.48 1233.18 1614.62 1243.5 C 1468.68 1287.62 1312.43 1283.71 1168.88 1232.34 C 1143.72 1223.2 1117.1 1211.78 1094.36 1197.82 C 1061.77 1177.82 1007.1 1118.68 990.912 1083.94 z" fill="rgb(224,212,186)" transform="translate(0,0)"></path>
<path d="M 979.41 1083.9 C 982.621 1086.66 991.49 1099.77 993.879 1103.81 C 1022.08 1151.45 1057.76 1182.31 1099.46 1217.94 C 1084.04 1228.97 1012.75 1257.45 992.239 1263.61 C 966.024 1253.78 939.54 1244.68 912.82 1236.32 C 884.165 1226.81 855.423 1217.56 826.597 1208.57 C 809.752 1203.23 780.784 1194.29 765.246 1187.11 C 833.957 1166.69 919.429 1122.81 979.41 1083.9 z" fill="rgb(254,253,248)" transform="translate(0,0)"></path>
<path d="M 1101.41 1389.75 C 1117.47 1392.2 1140.24 1403.68 1156.2 1409.57 L 1247.56 1443.83 C 1268.65 1451.69 1290.6 1458.8 1310.81 1468.71 C 1307.07 1470.9 1303.06 1472.98 1299.62 1475.61 C 1283.14 1488.24 1271.53 1510.35 1268.67 1530.71 C 1266.74 1544.43 1266.94 1558.44 1275.63 1569.89 C 1244.7 1555.2 1212.76 1542.48 1181.35 1528.87 L 1049.48 1470.47 C 1050.46 1467.46 1051.03 1464.14 1053.63 1462.28 C 1065.65 1464.61 1077.8 1470.75 1089.14 1475.43 C 1108.59 1483.47 1128.01 1491.62 1147.37 1499.86 C 1164.78 1507.58 1182.53 1514.5 1200.15 1521.72 C 1211.64 1526.43 1223.18 1532.09 1235.2 1535.25 C 1213.77 1522.85 1190.77 1513.68 1168.34 1503.29 C 1147.83 1493.79 1127.21 1484.69 1106.51 1475.61 C 1089.62 1468.2 1072.88 1460.33 1055.13 1455.19 C 1063.54 1436.22 1074.76 1418.64 1088.42 1403.02 C 1104.34 1408.85 1238.75 1462.89 1244.88 1460.8 C 1219.78 1449.57 1194.65 1438.43 1169.09 1428.24 C 1143.14 1417.89 1116.84 1408.49 1091 1397.87 C 1094.27 1394.73 1097.69 1392.29 1101.41 1389.75 z" fill="rgb(224,212,186)" transform="translate(0,0)"></path>
<path d="M 942.512 1005.83 C 945.165 1006.89 950.366 1021.78 951.954 1025.54 C 959.65 1043.76 968.569 1061.33 977.45 1078.99 C 925.489 1113.77 863.409 1143.68 805.504 1166.92 C 792.748 1172.04 769.1 1181.35 755.978 1183.61 C 748.095 1180.85 739.483 1177.22 731.651 1174.11 C 715.58 1167.66 699.741 1160.65 684.162 1153.09 C 745.999 1124.38 804.393 1095.95 862.02 1059.09 C 889.286 1041.64 915.522 1023.52 942.512 1005.83 z" fill="rgb(254,253,248)" transform="translate(0,0)"></path>
<path d="M 1810.82 1368.79 L 1812.31 1369.57 C 1815.51 1378.66 1807.47 1401.98 1803.65 1410.68 C 1784.24 1421.83 1764.04 1431.84 1744.36 1442.55 L 1652.58 1493.16 C 1555.14 1546.89 1457.01 1599.36 1358.22 1650.55 C 1357.84 1638.79 1356.98 1627.05 1354.9 1615.46 C 1410.1 1583.03 1467.88 1554.18 1524.55 1524.38 C 1582.09 1494.11 1639.11 1462.6 1696.19 1431.46 C 1734.4 1410.62 1773.12 1390.58 1810.82 1368.79 z" fill="rgb(254,253,248)" transform="translate(0,0)"></path>
<path d="M 1344.94 1620.8 L 1347.24 1621.25 C 1351.81 1629.56 1350.31 1645.62 1350.53 1655.12 C 1337.49 1663.01 1323.59 1669.91 1310.16 1677.15 L 1234.21 1717.97 L 1041.48 1823.94 L 1039.62 1824.64 L 1038.34 1823.47 C 1037.03 1811.59 1039.7 1797.45 1039.94 1785.25 C 1076.26 1763.95 1114.41 1745.43 1151.47 1725.48 L 1344.94 1620.8 z" fill="rgb(254,253,248)" transform="translate(0,0)"></path>
<path d="M 473.929 1508.4 C 494.571 1519.15 515.721 1528.92 536.502 1539.4 C 570.076 1556.33 603.345 1573.78 637.093 1590.37 L 689.069 1615.9 C 701.508 1622.02 714.391 1627.81 725.976 1635.44 C 726.066 1648.54 725.761 1661.62 728.752 1674.46 C 642.294 1634.41 558.225 1588.96 473.022 1546.29 C 473.1 1533.65 473.083 1521.02 473.929 1508.4 z" fill="rgb(254,253,248)" transform="translate(0,0)"></path>
<path d="M 814.884 1677.78 C 836.452 1687.57 859.802 1700.37 881.023 1709.2 C 881.391 1711.41 882.299 1717.84 882.977 1719.59 C 884.767 1721.89 885.794 1725.88 887.142 1728.84 L 886.847 1727.24 C 887.961 1725.59 889.001 1717.06 889.408 1714.51 C 894.767 1716.13 906.323 1722.79 911.735 1725.69 C 924.966 1732.87 938.279 1739.9 951.672 1746.78 C 968.919 1755.42 986.222 1763.95 1003.58 1772.37 C 1010.65 1775.81 1023.27 1781.49 1029.44 1785.33 C 1030.3 1797.67 1030.5 1814.04 1031.9 1825.7 C 1003.75 1812.99 974.524 1796.19 946.491 1782.53 C 902.676 1761.17 857.3 1739.28 814.241 1716.4 C 815.3 1707.58 814.863 1687.55 814.884 1677.78 z" fill="rgb(254,253,248)" transform="translate(0,0)"></path>
<path d="M 882.977 1719.59 C 884.767 1721.89 885.794 1725.88 887.142 1728.84 L 886.847 1727.24 C 887.961 1725.59 889.001 1717.06 889.408 1714.51 C 889.909 1723.48 891.421 1739.8 887.656 1747.62 L 886.264 1747.67 C 882.93 1741.03 883.208 1727.56 882.977 1719.59 z" fill="rgb(98,14,22)" transform="translate(0,0)"></path>
<path d="M 1112.3 1216.91 C 1119.67 1218.38 1137.65 1229.37 1146.1 1232.57 C 1173.11 1242.78 1200.04 1252.3 1227.99 1259.59 C 1350.7 1291.26 1479.56 1290.24 1601.74 1256.63 C 1625.27 1250.05 1648 1242.64 1670.49 1233.18 C 1677.4 1230.28 1685.25 1227.05 1692.34 1224.9 L 1693.46 1224.57 C 1689.09 1227.29 1684.47 1229.9 1680.01 1232.5 C 1635.54 1257.95 1595.05 1274.9 1544.31 1285.63 C 1429 1310.03 1298.99 1303.29 1189.44 1258.44 C 1162.09 1247.25 1136.96 1232.6 1112.3 1216.91 z" fill="rgb(224,212,186)" transform="translate(0,0)"></path>
<path d="M 625.461 1134.22 C 634.644 1138.12 642.918 1142.45 651.768 1146.99 C 584.363 1208.2 559.272 1279.25 569.346 1370.02 C 568.919 1370.87 569.258 1370.37 568.018 1371.25 C 561.122 1368.54 553.946 1364.44 547.354 1360.9 C 543.545 1327.75 542.169 1311.54 546.449 1276.97 C 553.264 1221.94 580.893 1168.21 625.461 1134.22 z" fill="rgb(254,253,248)" transform="translate(0,0)"></path>
<path d="M 1115.96 1348.31 C 1146.75 1345.46 1174.21 1368.49 1180.43 1396.79 C 1181.52 1401.76 1183.59 1405.08 1181.02 1409.9 L 1178.67 1410.16 C 1172.14 1406.44 1167.33 1391.28 1163.53 1384.2 C 1148.04 1355.4 1122.14 1354.97 1095.5 1371.1 C 1059.65 1393.33 1034.39 1432.89 1023.42 1473 C 1013.79 1508.22 1019.75 1570.36 1071.58 1538.47 C 1085.6 1529.32 1094.45 1515.92 1103.6 1502.33 L 1119.55 1509.62 C 1102.49 1532.33 1076.4 1562.23 1047.27 1568.6 C 1022.03 1573.2 1009.96 1546.7 1006.76 1526.75 C 996.167 1460.78 1044.79 1360.23 1115.96 1348.31 z" fill="rgb(254,253,248)" transform="translate(0,0)"></path>
<path d="M 344.452 1070.08 C 357.503 1068.73 381.456 1082.05 393.733 1088.18 C 375.498 1121.09 368.215 1142.66 361.508 1179.43 L 354.292 1175.06 C 337.893 1167.23 317.929 1158.31 302.275 1149.62 C 296.861 1117.35 314.373 1083.28 344.452 1070.08 z" fill="rgb(224,212,186)" transform="translate(0,0)"></path>
<path d="M 313.386 1426.87 C 363.798 1452.95 414.944 1477.62 465.307 1503.83 C 465.974 1509.13 468.429 1541 466.712 1544.01 C 416.601 1518.62 362.73 1493.55 314.004 1466.49 C 314.126 1453.3 313.647 1440.06 313.386 1426.87 z" fill="rgb(254,253,248)" transform="translate(0,0)"></path>
<path d="M 1114.63 1324.4 C 1131.59 1322.32 1148.41 1342.34 1159.4 1353.73 C 1156.01 1351.93 1152.57 1350.2 1149.1 1348.57 C 1131.12 1340.09 1117.08 1338.55 1098.12 1345.8 C 1030.65 1371.58 979.272 1478.62 1005.34 1546.27 C 1010.29 1556.89 1013.81 1562.13 1021.9 1570.4 C 1011.15 1569.59 1004.41 1568.52 994.896 1563.08 C 967.494 1497.47 984.699 1428.12 1029.83 1374.29 C 1052.75 1346.96 1078.11 1327.7 1114.63 1324.4 z" fill="rgb(254,253,248)" transform="translate(0,0)"></path>
<path d="M 1085.23 1309.07 C 1094.2 1308.06 1106.22 1316.11 1114.58 1320.68 C 1105.92 1321.23 1097.36 1322.78 1089.05 1325.29 C 1049.77 1337.52 1014.26 1378.19 996.534 1413.86 C 975.304 1456.59 969.439 1504.68 983.987 1550.25 C 985.282 1553.74 986.319 1554.61 985.661 1557.63 C 981.157 1558.07 973.676 1553.59 968.938 1551.32 C 966.296 1546.04 963.04 1538.85 961.659 1533.17 C 940.719 1447.03 998.776 1333.28 1085.23 1309.07 z" fill="rgb(254,253,248)" transform="translate(0,0)"></path>
<path d="M 1952.72 1291.91 C 1954.36 1299.44 1953.71 1319.7 1952.58 1327.66 C 1941.96 1336.2 1914.32 1350.33 1901.41 1357.34 C 1872.41 1372.81 1843.65 1388.72 1815.13 1405.06 C 1814.78 1404.4 1814.43 1403.74 1814.08 1403.07 C 1816.62 1392.38 1821 1373.59 1821.07 1363.59 C 1865.2 1340.5 1908.21 1313.18 1952.72 1291.91 z" fill="rgb(254,253,248)" transform="translate(0,0)"></path>
<path d="M 1318.91 1475.06 C 1321.05 1474.95 1322.93 1475.06 1324.96 1475.84 C 1329.82 1477.72 1333.76 1483.67 1335.53 1488.32 C 1342.33 1506.22 1339.04 1527.15 1330.97 1544.03 C 1323.72 1559.16 1313.21 1568.95 1297.33 1574.62 C 1291.11 1575.22 1287.88 1572.88 1282.88 1569.39 C 1281.61 1566.79 1280.28 1564.13 1279.35 1561.39 C 1273.6 1544.46 1276.22 1523.19 1284.13 1507.39 C 1291.86 1491.94 1302.19 1480.63 1318.91 1475.06 z" fill="rgb(224,212,186)" transform="translate(0,0)"></path>
<path d="M 207.982 1373.42 C 218.755 1378.5 301.564 1419.18 304.448 1423.58 L 304.704 1426.28 C 304.794 1426.88 310.419 1467.08 310.49 1464.6 C 306.914 1464.09 214.929 1417.7 209.973 1413.64 C 210.897 1409.88 205.681 1388.86 207.982 1373.42 z" fill="rgb(254,253,248)" transform="translate(0,0)"></path>
<path d="M 733.964 1638.59 L 806.025 1673.29 C 806.729 1686.14 808.902 1700.75 807.611 1713.46 C 782.494 1700.38 756.612 1688.92 731.765 1675.31 C 732.05 1663.1 733.194 1650.79 733.964 1638.59 z" fill="rgb(254,253,248)" transform="translate(0,0)"></path>
<path d="M 1088.01 1385.7 C 1090.42 1386.2 1090.91 1385.79 1092.47 1387.83 C 1082.49 1398.61 1071.96 1410.18 1064.12 1422.67 C 1046.5 1450.74 1032.27 1487.73 1039.82 1521.15 C 1043.79 1525.76 1047.05 1529.12 1053.45 1529.71 C 1070.79 1531.31 1082.42 1507.56 1093.56 1497.77 C 1095.96 1498.15 1095.88 1498.18 1097.42 1500.08 C 1097.25 1503.58 1095.22 1505.31 1093.19 1508.11 C 1087.82 1515.78 1081.41 1522.68 1074.16 1528.61 C 1066.74 1534.65 1055.81 1542.14 1045.84 1540.7 C 1041.01 1540 1037.2 1537.17 1034.33 1533.32 C 1025.24 1521.1 1025.2 1501.98 1027.25 1487.53 C 1032.69 1449.35 1057.33 1408.87 1088.01 1385.7 z" fill="rgb(254,253,248)" transform="translate(0,0)"></path>
<path d="M 146.089 1343.98 C 156.422 1347.25 189.673 1364.15 199.323 1369.82 C 199.371 1383.58 200.558 1393.66 203.444 1407.21 L 209.973 1413.64 C 188.69 1403.9 167.551 1392.97 146.222 1383.66 C 147.533 1374.88 145.731 1354.89 146.089 1343.98 z" fill="rgb(254,253,248)" transform="translate(0,0)"></path>
<path d="M 93.6646 1315.08 C 107.225 1321.29 124.37 1331.88 138.54 1339.24 C 138.806 1355.69 139.301 1366 142.563 1382.02 C 128.49 1375.45 109.726 1364.49 96.5701 1356.39 C 94.0025 1344.63 93.9564 1327.41 93.6646 1315.08 z" fill="rgb(254,253,248)" transform="translate(0,0)"></path>
<path d="M 1047.51 1477.39 C 1060.82 1483.61 1074.5 1489.18 1088 1494.98 C 1083.41 1501.29 1078.56 1507.23 1073.46 1513.14 C 1069.03 1517.57 1061.58 1524.22 1054.84 1523.87 C 1052.03 1523.73 1050.16 1522.43 1048.47 1520.27 C 1041.25 1511.04 1045.41 1487.92 1047.51 1477.39 z" fill="rgb(254,253,248)" transform="translate(0,0)"></path>
<path d="M 332.042 1064 C 334.76 1063.87 335.351 1063.45 337.481 1064.9 C 335.853 1068 327.394 1072.45 323.515 1075.99 C 310.475 1087.88 300.832 1104.74 297.063 1121.95 C 296.223 1125.78 295.713 1139.68 295.485 1143.99 L 294.073 1144.84 C 282.072 1129.23 281.767 1115.47 290.99 1097.87 C 299.615 1081.56 314.392 1069.37 332.042 1064 z" fill="rgb(224,212,186)" transform="translate(0,0)"></path>
<path d="M 1118.77 1369.17 C 1121.95 1369.05 1125.2 1369.39 1128.18 1370.6 C 1139.59 1375.2 1145.2 1388.95 1149.74 1399.46 C 1143.17 1397.56 1136.75 1394.95 1130.35 1392.54 C 1115.82 1386.91 1107.88 1384.44 1092.91 1381.36 C 1102.48 1375.67 1108.17 1372.43 1118.77 1369.17 z" fill="rgb(254,253,248)" transform="translate(0,0)"></path>
<path d="M 1135.53 1367.77 C 1154.4 1371.68 1160.61 1388.66 1166.28 1404.77 C 1165.07 1404.44 1159.12 1402.64 1158.68 1401.65 C 1152.29 1387.35 1146.58 1378.79 1135.53 1367.77 z" fill="rgb(254,253,248)" transform="translate(0,0)"></path>
<path d="M 851.699 283.885 C 841.797 250.079 829.832 219.795 848.793 185.642 C 868.839 149.535 921.186 127.608 952.952 100.477 C 961.027 93.5794 979.33 75.0325 984.806 71.3462 L 986.391 71.1657 C 985.932 81.5979 978.515 106.908 976.456 119.17 C 968.396 167.159 972.097 212.619 932.257 247.446 C 916.968 260.812 904.576 268.595 885.587 277.068 C 878.838 280.079 863.539 285.268 858.777 289.401 C 851.455 295.757 842.4 309.394 836.547 317.593 C 876.42 305.023 916.483 292.325 956.663 280.604 C 963.816 278.517 973.145 268.754 977.566 266.971 C 981.557 257.583 984.716 248.103 988.71 238.929 C 999.203 214.825 1018.79 197.898 1043.14 188.278 C 1080.63 173.466 1122.45 169.573 1161.03 159.955 C 1171.95 157.237 1182.73 153.951 1193.31 150.11 C 1201.91 146.988 1211.61 142.756 1220.36 140.869 C 1212.98 148.09 1204.48 154.997 1196.7 162.03 C 1145.16 208.625 1112.49 275.774 1033.46 275.294 C 1029.45 275.23 1025.44 275.058 1021.44 274.777 C 1014.37 274.701 1002.52 272.844 995.343 271.576 C 986.594 277.364 971.673 287.681 962.393 291.593 C 945.273 298.811 923.98 304.646 906.01 310.273 C 877.224 319.138 848.715 328.879 820.524 339.484 C 810.226 343.266 794.103 348.667 784.442 353.074 C 804.906 353.508 832.901 355.379 853.267 354.421 C 858.008 354.198 879.636 343.206 884.51 340.369 C 948.765 302.968 1013.7 338.54 1080.08 346.105 C 1093.79 347.668 1108.26 347.966 1122.34 349.489 C 1110.87 354.715 1090.66 362.047 1078.16 366.723 C 1044.84 379.189 1001.05 400.975 966.737 405.336 C 949.871 407.623 932.702 405.715 916.751 399.779 C 892.967 390.823 872.67 373.576 850.421 361.767 C 845.305 359.051 828.308 359.643 821.546 359.618 C 812.46 359.584 782.542 356.69 775.62 357.748 C 756.032 360.745 723.885 376.534 704.728 384.621 C 693.41 389.399 670.692 399.59 660.931 405.115 C 676.22 407.65 685.175 408.108 699.11 414.953 C 724.077 408.671 741.938 399.786 768.883 396.525 C 816.588 390.751 853.101 422.696 895.662 439.654 C 919.132 449.006 931.301 452.407 955.512 458.176 C 960.43 458.999 970.842 460.234 974.733 462.374 L 974.361 463.845 C 970.698 465.612 954.485 467.738 949.035 468.598 C 909.519 474.832 870.042 484.513 829.99 485.271 C 765.173 486.498 742.945 466.932 699.237 424.675 C 696.684 421.939 694.065 419.024 691.409 416.411 C 678.593 414.425 665.835 412.08 653.15 409.377 C 638.315 415.149 624.238 423.779 610.386 431.693 L 554.799 463.641 C 567.153 464.641 575.53 466.593 586.418 472.994 L 584.909 478.599 C 572.423 471.89 562.236 469.38 548.04 468.608 C 534.728 475.528 521.289 485.76 509.116 494.403 C 473.896 519.408 442.762 546.815 412.686 577.753 C 402.739 587.985 391.117 598.381 382.115 609.566 C 400.739 602.545 412.855 597.94 432.81 595.568 C 515.409 525.714 597.659 581.149 685.073 610.978 C 692.014 613.346 703.921 616.939 709.835 620.586 L 710.144 622.014 C 707.19 624.152 704.691 624.066 701.034 624.531 C 626.669 633.624 568.769 681.254 494.681 643.594 C 479.771 636.015 440.093 615.188 431.426 601.737 L 430.681 600.698 C 417.438 603.346 379.309 612.929 370.392 622.761 C 360.951 633.17 340.114 656.35 333.091 668.32 C 317.07 695.625 292.918 727.966 280.084 756.184 C 297.957 749.467 317.873 741.457 335.808 735.441 C 355.03 710.595 387.016 692.885 418.418 690.105 C 473.736 685.209 530.969 693.045 583.833 709.684 C 587.833 710.95 604.98 714.685 606.776 716.754 L 606.144 718.469 C 597.32 722.233 585.271 723.466 575.964 726.154 C 568.39 728.34 559.917 731.677 552.703 734.581 C 492.179 758.948 441.953 798.029 374.336 769.158 C 363.374 764.477 343.923 755.793 335.751 746.454 L 332.197 744.919 C 325.527 745.327 284.088 761.017 275.911 764.089 C 271.162 772.078 266.234 783.061 261.972 791.673 C 239.771 836.529 224.007 882.974 209.393 930.661 C 225.566 912.573 236.835 902.114 257.892 890.447 C 260.808 881.14 263.658 871.978 267.168 862.914 C 289.9 804.221 364.563 811.617 414.942 817.478 C 445.788 821.068 475.79 824.278 505.732 831.014 C 497.79 836.482 483.376 841.167 473.742 845.09 C 464.609 848.891 455.654 853.108 446.908 857.729 C 426.539 868.426 409.688 882.124 390.158 892.773 C 384.953 895.647 379.596 898.239 374.111 900.537 C 329.638 919.034 302.253 911.547 260.825 894.535 C 250.417 899.787 214.114 926.298 210.342 937.685 C 193.229 989.345 185.834 1055.36 185.047 1110.18 C 184.893 1120.93 173.098 1125.52 168.315 1119.28 C 163.831 1113.43 166.562 1093.89 166.149 1086.43 C 165.94 1010.28 186.787 933.436 211.512 861.926 C 218.29 842.324 217.887 826.638 209.838 806.782 C 206.866 799.45 183.317 789.529 175.538 784.637 C 167.89 779.822 160.862 774.086 154.613 767.557 C 121.343 732.326 120.171 688.048 128.221 643.019 C 131.582 624.219 136.855 600.854 137.427 582.393 C 137.072 579.565 136.515 577.495 137.404 574.819 L 138.762 574.562 C 142.293 577.756 142.605 580.083 144.176 584.69 C 152.94 603.125 164.993 621.315 177.048 637.944 C 199.748 669.256 226.207 694.939 227.077 736.175 C 227.601 761.004 216.788 774.017 214.621 796.267 C 214.131 801.305 220.419 827.533 221.966 834.418 C 238.566 798.812 252.14 766.613 270.311 730.861 C 259.175 713.501 269.221 680.246 264.442 666.57 C 257.729 647.36 241.665 628.16 234.129 606.06 C 213.096 544.382 241.601 491.189 265.061 435.695 C 270.343 423.199 273.548 406.704 278.615 396.003 L 279.889 396.491 C 282.432 402.001 283.648 420.492 284.663 428.239 C 286.667 443.534 289.189 455.679 292.234 470.596 C 297.812 497.915 314.738 525.079 317.612 552.055 C 322.026 593.465 298.395 629.022 273.453 659.682 C 271.429 683.54 270.412 704.64 271.615 728.593 C 284.232 704.171 303.772 677.297 319.265 654.408 C 326.835 643.224 343.348 627.645 348.429 615.709 C 351.239 609.108 354.49 589.396 355.792 581.575 C 356.752 571.176 362.631 545.884 360.384 536.175 C 350.367 492.903 327.265 465.962 340.62 418.952 C 350.395 384.547 369.522 362.029 389.416 332.594 C 401.846 314.202 414.191 290.294 420.61 268.84 C 421.631 265.335 422.073 263.684 424.97 262.083 L 426.474 263.391 C 431.155 313.917 444.528 360.557 446.786 410.851 C 448.55 450.161 429.486 479.706 400.834 504.733 C 390.494 513.765 376.48 524.582 367.233 534.354 C 364.612 562.03 361.632 581.759 356.935 609.123 C 381.058 578.275 417.253 546.448 446.227 519.732 C 457.033 509.768 484.625 492.246 491.361 482.014 C 500.638 467.924 516.032 445.586 519.999 429.313 C 522.463 418.676 517.626 405.972 514.412 395.814 C 491.506 323.431 547.582 269.711 588.52 218.511 C 601.486 202.294 612.042 180.407 620.787 160.999 C 622.04 170.591 619.787 185.088 619.612 195.217 C 619.44 205.117 619.847 215.038 620.467 224.85 C 624.728 292.267 629.139 339.896 574.478 389.412 C 565.846 400.152 538.875 414.206 532.033 424.338 C 522.631 438.259 511.672 461.223 502.266 476.113 C 547.237 441.841 630.527 397.062 683.944 377.413 C 687.184 370.326 690.628 360.887 693.083 353.432 L 693.293 352.309 C 694.943 343.782 689.983 318.827 688.152 310.47 C 673.441 243.324 716.466 206.946 755.959 161.092 C 768.404 146.644 781.102 124.983 790.904 106.925 C 792.549 102.808 791.236 103.713 794.073 102.368 C 795.635 104.298 796.45 106.364 796.327 108.942 C 794.878 139.348 801.367 169.121 802.852 199.221 C 803.306 207.409 803.156 215.62 802.401 223.785 C 798.452 263.246 774.84 291.345 745.292 316.506 C 731.355 328.374 710.852 337.97 697.884 350.52 C 696.07 357.875 694.17 365.208 692.184 372.517 C 723.828 360.418 754.692 346.479 786.503 334.766 C 798.651 330.293 816.016 325.35 826.956 319.239 C 833.168 315.769 846.722 295.333 849.663 288.798 C 850.387 287.179 851.066 285.541 851.699 283.885 z" fill="rgb(87,17,27)" transform="translate(0,0)"></path>
<path d="M 439.173 594.633 C 468.253 572.444 505.047 562.906 541.244 568.173 C 559.939 570.749 582.14 577.135 600.02 583.825 C 632.949 596.146 665.969 608.402 698.937 620.613 C 699.243 621.207 700.573 623.917 701.034 624.531 C 626.669 633.624 568.769 681.254 494.681 643.594 C 479.771 636.015 440.093 615.188 431.426 601.737 L 430.681 600.698 C 442.088 596.967 453.744 596.916 465.538 595.665 C 494.023 592.643 516.233 591.518 544.976 595.698 C 559.372 597.792 573.585 601.506 587.199 603.62 L 589.838 601.416 C 525.291 581.914 501.615 589.155 439.173 594.633 z" fill="rgb(254,253,248)" transform="translate(0,0)"></path>
<path d="M 431.426 601.737 C 472.756 602.635 514.485 607.751 555.455 613.423 C 563.605 614.551 573.675 615.674 581.58 617.563 C 568.045 618.606 551.394 616.607 537.757 615.008 C 504.946 611.16 471.985 608.245 439.188 604.405 C 483.215 634.626 526.324 662.465 582.457 651.428 C 607.13 646.577 631.209 637.162 655.54 630.237 C 664.171 627.781 693.616 622.734 698.937 620.613 C 699.243 621.207 700.573 623.917 701.034 624.531 C 626.669 633.624 568.769 681.254 494.681 643.594 C 479.771 636.015 440.093 615.188 431.426 601.737 z" fill="rgb(98,14,22)" transform="translate(0,0)"></path>
<path d="M 589.838 601.416 C 598.476 603.799 603.948 605.708 612.331 608.962 C 604.051 607.347 595.307 605.809 587.199 603.62 L 589.838 601.416 z" fill="rgb(119,34,34)" transform="translate(0,0)"></path>
<path d="M 977.566 266.971 C 981.557 257.583 984.716 248.103 988.71 238.929 C 999.203 214.825 1018.79 197.898 1043.14 188.278 C 1080.63 173.466 1122.45 169.573 1161.03 159.955 C 1171.95 157.237 1182.73 153.951 1193.31 150.11 C 1201.91 146.988 1211.61 142.756 1220.36 140.869 C 1212.98 148.09 1204.48 154.997 1196.7 162.03 C 1145.16 208.625 1112.49 275.774 1033.46 275.294 C 1029.45 275.23 1025.44 275.058 1021.44 274.777 C 1025.87 273.929 1028.51 274.948 1032.23 272.117 C 1018.86 271.232 1011.89 270.443 998.739 267.551 C 1021.92 247.44 1038.15 236.269 1067.81 226.171 C 1077.77 222.781 1093.25 218.211 1101.88 213.311 C 1072.2 219.057 1042.92 228.175 1017.97 245.762 C 1008.88 252.173 1001.85 261.014 992.119 267.063 C 990.941 267.908 990.007 268.492 988.954 269.483 C 986.74 269.833 985.194 270.287 983.035 270.867 L 981.065 269.309 L 981.25 268.724 C 983.029 268.014 982.967 268.28 984.866 268.548 C 987.438 266.738 986.929 267.86 987.439 265.532 C 985.347 264.069 984.039 264.087 981.498 263.61 L 977.566 266.971 z" fill="rgb(254,253,248)" transform="translate(0,0)"></path>
<path d="M 977.566 266.971 C 981.557 257.583 984.716 248.103 988.71 238.929 C 999.203 214.825 1018.79 197.898 1043.14 188.278 C 1080.63 173.466 1122.45 169.573 1161.03 159.955 C 1171.95 157.237 1182.73 153.951 1193.31 150.11 C 1201.91 146.988 1211.61 142.756 1220.36 140.869 C 1212.98 148.09 1204.48 154.997 1196.7 162.03 C 1145.16 208.625 1112.49 275.774 1033.46 275.294 C 1029.45 275.23 1025.44 275.058 1021.44 274.777 C 1025.87 273.929 1028.51 274.948 1032.23 272.117 C 1093.96 268.119 1115.24 243.51 1155.38 198.389 C 1168.67 183.458 1185.56 166.796 1199.81 152.298 C 1185.78 157.163 1172.49 161.141 1158.11 164.814 C 1087.6 182.82 1003.6 178.695 984.551 265.344 C 991.393 258.736 995.066 251.928 1000.98 245.131 C 1010.47 234.221 1026.17 222.444 1038.47 215.123 C 1047 210.07 1055.92 205.715 1065.16 202.103 C 1078.14 196.989 1126.47 182.443 1138.74 185.549 C 1134.07 187.8 1130.48 187.928 1125.22 189.188 C 1074.29 201.381 1025.14 216.344 993.206 261.32 C 991.087 264.305 991.455 264.473 992.119 267.063 C 990.941 267.908 990.007 268.492 988.954 269.483 C 986.74 269.833 985.194 270.287 983.035 270.867 L 981.065 269.309 L 981.25 268.724 C 983.029 268.014 982.967 268.28 984.866 268.548 C 987.438 266.738 986.929 267.86 987.439 265.532 C 985.347 264.069 984.039 264.087 981.498 263.61 L 977.566 266.971 z" fill="rgb(98,14,22)" transform="translate(0,0)"></path>
<path d="M 341.968 735.278 C 393.055 677.238 477.609 691.829 545.764 704.459 C 563.857 707.813 581.667 715.049 600.13 716.932 C 490.337 737.226 451.292 817.323 337.898 744.218 L 335.751 746.454 L 332.197 744.919 L 332.399 741.444 C 335.056 739.981 339.559 739.241 342.692 738.554 L 340.849 736.732 L 341.968 735.278 z" fill="rgb(254,253,248)" transform="translate(0,0)"></path>
<path d="M 341.968 735.278 C 380.901 728.132 424.397 705.924 463.102 714.916 L 464.813 715.306 C 465.171 715.394 465.529 715.483 465.888 715.572 C 460.214 715.654 454.504 715.806 448.833 715.82 C 412.871 715.909 379.597 733.139 344.336 738.372 L 342.692 738.554 L 340.849 736.732 L 341.968 735.278 z" fill="rgb(98,14,22)" transform="translate(0,0)"></path>
<path d="M 354.158 740.859 C 377.462 741.633 392.428 741.278 415.738 738.848 C 426.022 737.776 454.834 734.63 463.73 735.316 C 441.881 741.037 404.959 743.435 381.846 745.139 C 373.229 745.775 343.606 742.649 337.898 744.218 L 335.751 746.454 L 332.197 744.919 L 332.399 741.444 C 335.056 739.981 339.559 739.241 342.692 738.554 L 344.336 738.372 C 347.321 740.807 350.201 740.522 354.158 740.859 z" fill="rgb(98,14,22)" transform="translate(0,0)"></path>
<path d="M 342.692 738.554 L 344.336 738.372 C 347.321 740.807 350.201 740.522 354.158 740.859 C 347.63 740.826 337.004 742.693 332.399 741.444 C 335.056 739.981 339.559 739.241 342.692 738.554 z" fill="rgb(215,204,195)" transform="translate(0,0)"></path>
<path d="M 710.782 415.528 C 764.649 398.367 789.886 391.694 842.372 420.155 C 878.644 439.824 916.897 456.73 958.079 462.392 C 958.953 461.854 958.404 462.275 959.36 460.759 L 955.512 458.176 C 960.43 458.999 970.842 460.234 974.733 462.374 L 974.361 463.845 C 970.698 465.612 954.485 467.738 949.035 468.598 C 909.519 474.832 870.042 484.513 829.99 485.271 C 765.173 486.498 742.945 466.932 699.237 424.675 C 701.432 422.406 702.604 422.957 705.074 421.06 L 704.864 420.106 L 705.634 419.232 C 707.977 416.861 707.869 416.322 710.782 415.528 z" fill="rgb(254,253,248)" transform="translate(0,0)"></path>
<path d="M 705.074 421.06 C 716.684 425.385 725.265 428.964 737.428 431.127 C 755.363 434.317 815.836 439.627 830.497 448.017 C 801.503 443.164 765.242 439.74 737.992 434.51 C 744.458 438.362 771.519 451.801 774.5 454.545 C 766.49 452.612 743.751 439.883 734.669 436.035 C 724.811 431.858 710.905 426.81 701.72 422.215 C 748.919 464.934 768.119 483.857 838.336 480.938 C 855.597 480.22 950.09 466.916 958.079 462.392 C 958.953 461.854 958.404 462.275 959.36 460.759 L 955.512 458.176 C 960.43 458.999 970.842 460.234 974.733 462.374 L 974.361 463.845 C 970.698 465.612 954.485 467.738 949.035 468.598 C 909.519 474.832 870.042 484.513 829.99 485.271 C 765.173 486.498 742.945 466.932 699.237 424.675 C 701.432 422.406 702.604 422.957 705.074 421.06 z" fill="rgb(98,14,22)" transform="translate(0,0)"></path>
<path d="M 705.634 419.232 C 707.977 416.861 707.869 416.322 710.782 415.528 C 720.054 417.002 733.89 415.911 743.666 416.085 C 778.259 416.702 814.929 422.054 845.452 439.289 C 827.246 433.792 811.284 428.187 792.492 424.355 C 762.34 418.206 735.614 419.563 705.634 419.232 z" fill="rgb(98,14,22)" transform="translate(0,0)"></path>
<path d="M 636.749 403.265 C 642.01 405.165 644.092 405.183 649.569 405.774 C 629.406 413.598 592.977 435.324 573.165 446.668 C 379.67 559.081 242.695 748.033 196.042 966.895 C 188.115 1003.25 182.534 1040.07 179.333 1077.13 C 178.797 1083.57 178.382 1113.13 176.78 1115.69 L 174.787 1115.96 C 170.54 1111.77 171.763 1092.29 171.769 1085.96 C 171.831 1016.22 187.711 945.936 210.704 880.315 C 231.276 821.601 257.932 764.039 288.852 710.035 C 360.073 592.252 473.205 490.426 594.303 425.715 C 607.769 418.52 622.981 409.648 636.749 403.265 z" fill="rgb(193,173,147)" transform="translate(0,0)"></path>
<path d="M 981.065 269.309 L 983.035 270.867 C 985.194 270.287 986.74 269.833 988.954 269.483 C 959.601 293.041 928.029 296.739 892.808 308.629 C 861.308 319.165 829.972 330.187 798.813 341.692 C 749.361 360.022 711.054 376.311 662.938 398.59 C 655.867 401.266 653.653 403.55 646.504 400.185 C 733.243 355.978 828.114 324.41 921.211 297.094 C 948.495 289.088 958.341 286.233 981.065 269.309 z" fill="url(#Gradient3)" transform="translate(0,0)"></path>
<path d="M 646.504 400.185 C 653.653 403.55 655.867 401.266 662.938 398.59 C 661.607 402.285 653.389 404.45 649.569 405.774 C 644.092 405.183 642.01 405.165 636.749 403.265 C 640.848 399.333 640.91 399.028 646.504 400.185 z" fill="rgb(98,14,22)" transform="translate(0,0)"></path>
<path d="M 137.427 582.393 C 137.072 579.565 136.515 577.495 137.404 574.819 L 138.762 574.562 C 142.293 577.756 142.605 580.083 144.176 584.69 C 142.671 586.483 141.44 587.739 139.829 589.408 L 138.824 589.074 L 137.427 582.393 z" fill="rgb(98,14,22)" transform="translate(0,0)"></path>
<path d="M 422.444 277.939 C 425.178 291.597 427.648 307.59 429.927 321.369 C 434.912 351.497 444.889 398.612 440.836 428.95 C 439.033 442.64 434.109 455.733 426.442 467.218 C 414.908 484.756 386.914 510.56 369.96 525.27 C 372.448 514.97 374.76 504.478 376.783 494.077 C 382.266 465.885 391.969 438.836 402.791 412.265 C 391.293 426.376 377.98 465.974 374.017 484.101 C 371.012 497.846 369.193 512.971 365.382 527.227 L 364.27 527.302 L 363.574 526.136 C 363.438 525.909 358.417 516.221 358.441 516.297 C 343.794 475.641 332.638 436.912 353.838 396.529 C 375.836 354.627 406.242 323.694 422.444 277.939 z" fill="rgb(254,253,248)" transform="translate(0,0)"></path>
<path d="M 402.911 347.077 C 369.148 412.846 353.084 448.08 363.574 526.136 C 363.438 525.909 358.417 516.221 358.441 516.297 L 358.447 515.435 C 358.42 503.302 355.917 490.945 355.955 478.688 C 356.098 433.498 374.36 382.109 402.911 347.077 z" fill="rgb(98,14,22)" transform="translate(0,0)"></path>
<path d="M 854.209 277.702 C 853.851 274.259 851.642 266.675 850.696 263.059 C 846.557 247.241 842.991 234.157 844.176 217.6 C 847.829 166.554 897.296 147.028 933.755 119.901 C 951.815 106.464 963.135 96.2524 980.189 81.8857 C 976.872 95.5816 973.723 109.114 971.566 123.087 C 967.066 152.241 966.486 182.555 954.739 209.958 C 939.803 244.798 908.28 263.183 874.27 276.615 C 873.271 277.119 873.952 276.861 872.11 276.948 L 870.211 273.45 C 867.273 276.004 863.063 279.432 860.468 282.149 L 858.66 281.623 C 858.535 280.191 858.47 280.019 859.222 278.725 L 934.218 151.21 L 932.789 149.048 C 908.248 185.315 887.402 220.949 866.249 259.279 C 864.454 262.532 856.837 276.094 854.579 277.653 L 854.209 277.702 z" fill="rgb(254,253,248)" transform="translate(0,0)"></path>
<path d="M 870.211 273.45 C 895.483 250.713 909.657 235.728 924.812 204.169 C 929.123 195.192 935.877 178.558 940.331 170.837 C 931.175 205.105 919.729 230.603 895.016 256.892 C 891.061 261.098 875.381 273.721 874.27 276.615 C 873.271 277.119 873.952 276.861 872.11 276.948 L 870.211 273.45 z" fill="rgb(98,14,22)" transform="translate(0,0)"></path>
<path d="M 932.789 149.048 C 934.651 146.052 937.443 141.217 939.47 138.543 L 940.894 138.672 L 940.037 137.871 L 941.245 137.31 C 939.44 142.832 937.143 146.243 934.218 151.21 L 932.789 149.048 z" fill="rgb(142,100,94)" transform="translate(0,0)"></path>
<path d="M 698.456 336.845 C 694.687 330.011 695.315 324.062 693.772 317.704 C 676.002 244.499 721.9 208.826 763.894 158.287 C 767.814 153.569 789.82 118.233 791.883 117.123 C 791.106 190 822.953 235.699 756.271 300.523 C 740.501 315.854 726.276 325.368 707.377 336.979 C 709.011 334.665 717.642 322.721 718.368 321.016 C 720.287 316.358 720.379 314.277 718.464 309.262 C 716.098 313.991 703.915 336.196 700.618 339.21 L 700.743 337.552 L 698.456 336.845 z" fill="rgb(254,253,248)" transform="translate(0,0)"></path>
<path d="M 776.255 205.012 L 778.145 204.277 C 771.552 251.347 751.84 287.373 718.368 321.016 C 720.287 316.358 720.379 314.277 718.464 309.262 C 721.159 300.162 742.008 259.114 747.351 250.585 C 739.632 271.636 728.333 292.604 719.715 313.88 C 753.317 273.848 763.908 257.519 776.255 205.012 z" fill="rgb(98,14,22)" transform="translate(0,0)"></path>
<path d="M 698.456 336.845 C 699.046 329.599 701.541 319.511 703.166 312.263 C 711.741 274.04 724.911 239.12 750.952 209.072 L 750.988 210.263 L 752.335 207.953 C 750.674 209.39 732.238 241.613 730.851 244.653 C 717.937 272.96 707.1 306.976 700.743 337.552 L 698.456 336.845 z" fill="rgb(98,14,22)" transform="translate(0,0)"></path>
<path d="M 776.255 205.012 C 776.551 201.678 776.526 196.999 778.299 194.459 C 779.502 197.669 778.628 200.764 778.145 204.277 L 776.255 205.012 z" fill="rgb(193,173,147)" transform="translate(0,0)"></path>
<path d="M 614.957 183.56 C 614.677 258.86 635.886 320.963 576.786 379.973 C 565.103 391.451 552.55 402.008 539.24 411.55 C 563.014 375.098 592.182 337.711 597.28 293.878 C 597.976 287.897 599.342 280.276 598.679 274.481 L 597.419 273.655 C 595.337 276.535 592.887 296.531 591.563 302.273 C 590.031 308.982 588.089 315.591 585.746 322.062 C 582.649 330.555 578.908 338.798 574.554 346.721 C 570.384 354.414 531.618 417.137 528.876 418.131 L 528.747 418.07 L 526.504 417.768 L 525.292 420.415 C 523.211 418.813 522.799 410.76 521.773 407.642 C 487.777 304.377 574.197 265.726 614.957 183.56 z" fill="rgb(254,253,248)" transform="translate(0,0)"></path>
<path d="M 560.994 300.56 L 562.235 302.283 C 549.475 333.743 530.964 384.191 528.747 418.07 L 526.504 417.768 C 525.498 384.433 545.042 330.754 560.994 300.56 z" fill="rgb(98,14,22)" transform="translate(0,0)"></path>
<path d="M 560.994 300.56 C 562.55 297.907 563.231 295.547 565.479 294.522 C 564.876 298.153 564.046 299.145 562.235 302.283 L 560.994 300.56 z" fill="rgb(142,100,94)" transform="translate(0,0)"></path>
<path d="M 266.074 885.149 L 264.539 885.298 C 264.458 875.005 277.357 849.759 285.385 842.405 C 322.112 808.765 381.179 818.937 426.432 823.594 C 448.31 825.845 474.216 828.243 495.08 832.577 C 474.849 838.694 452.762 848.745 434.703 859.584 C 398.778 881.146 362.848 909.727 318.283 905.938 C 305.776 904.875 277.439 897.32 265.181 892.357 C 266.014 890.254 265.444 891.137 266.777 889.637 L 267.463 888.115 L 269.834 887.223 L 268.872 886.434 L 266.074 885.149 z" fill="rgb(254,253,248)" transform="translate(0,0)"></path>
<path d="M 266.074 885.149 L 267.173 884.075 C 303.833 848.365 341.279 841.254 390.189 841.876 L 392.095 844.266 C 351.528 842.404 304.118 853.968 273.63 881.821 C 272.003 883.316 270.417 884.855 268.872 886.434 L 266.074 885.149 z" fill="rgb(98,14,22)" transform="translate(0,0)"></path>
<path d="M 391.062 854.75 C 385.266 857.295 367.831 862.72 362.154 862.957 C 340.286 863.866 283.547 891.41 266.777 889.637 L 267.463 888.115 L 269.834 887.223 C 280.784 885.523 313.515 871.93 326.637 867.947 C 350.886 860.587 367.404 859.467 391.062 854.75 z" fill="rgb(98,14,22)" transform="translate(0,0)"></path>
<path d="M 390.189 841.876 C 393.798 842.374 398.381 842.544 401.221 844.551 C 398.505 845.451 394.907 844.925 392.095 844.266 L 390.189 841.876 z" fill="rgb(142,100,94)" transform="translate(0,0)"></path>
<path d="M 277.954 412.799 C 282.463 443.645 286.932 482.391 299.661 510.516 C 323.957 564.2 313.087 596.192 280.552 643.001 C 282.394 618.175 286.902 588.005 284.542 563.457 L 283.88 563.137 C 281.743 572.316 281.44 583.064 280.723 592.536 C 279.088 614.133 277.886 635.537 272.211 656.541 C 261.515 607.333 251.95 578.658 254.172 527.358 L 253.703 520.781 L 251.958 520.261 C 242.935 570.906 259.436 615.609 270.378 663.493 C 264.129 655.072 260.701 647.343 255.576 638.869 C 236.487 607.305 227.81 575.935 233.656 538.747 C 240.486 495.302 263.972 454.997 277.954 412.799 z" fill="rgb(254,253,248)" transform="translate(0,0)"></path>
<path d="M 256.646 499.451 C 256.581 506.484 255.384 520.202 254.172 527.358 L 253.703 520.781 L 251.958 520.261 C 253.317 512.737 254.716 506.867 256.646 499.451 z" fill="rgb(119,34,34)" transform="translate(0,0)"></path>
<path d="M 867.193 355.092 C 900.012 331.667 945.156 324.234 983.907 332.236 C 1006.94 336.992 1030.04 341.356 1053.07 346.103 C 1070.39 349.389 1087.74 350.306 1104.98 352.575 L 1103.36 353.022 C 1035.85 371.993 966.867 426.99 899.405 385.628 C 886.147 377.499 871.94 368.24 858.915 360.778 C 861.108 359.213 861.565 359.684 864.67 359.379 L 867.193 355.092 z" fill="rgb(254,253,248)" transform="translate(0,0)"></path>
<path d="M 867.193 355.092 C 893.094 356.004 922.757 345.893 949.075 345.888 C 963.305 345.886 976.56 345.582 990.56 349.008 C 997.025 350.33 1008.56 353.009 1014.69 353.529 L 1015.45 354.381 C 1008.22 354.391 1002.97 352.759 995.886 351.986 C 981.551 350.42 966.499 348.882 952.099 349.601 C 923.041 351.05 893.876 359.519 864.67 359.379 L 867.193 355.092 z" fill="rgb(98,14,22)" transform="translate(0,0)"></path>
<path d="M 889.14 362.131 C 913.474 360.392 960.884 362.896 985.518 366.065 C 972.403 368.015 953.832 366.447 940.072 365.757 C 923.303 364.882 906.524 364.201 889.739 363.712 L 889.14 362.131 z" fill="rgb(98,14,22)" transform="translate(0,0)"></path>
<path d="M 889.739 363.712 C 887.91 363.95 886.039 364.343 884.22 364.684 C 890.639 370.783 927.444 383.555 937.139 387.336 L 937.34 388.383 C 931.444 387.864 879.774 367.571 877.519 363.186 C 881.791 362.584 884.826 362.342 889.14 362.131 L 889.739 363.712 z" fill="rgb(179,145,135)" transform="translate(0,0)"></path>
<path d="M 141.492 589.657 C 150.695 606.063 160.506 622.125 171.267 637.33 C 194.387 669.998 224.912 701.065 222.301 744.082 C 221.318 760.273 216.159 772.049 210.813 787.176 C 198.321 757.152 189.549 726.085 173.319 697.232 C 169.653 690.714 168.442 682.29 163.719 675.438 C 164.845 681.191 167.781 692.449 170.188 697.583 C 183.513 726.011 195.193 754.828 204.741 784.74 C 177.437 752.976 163.058 730 151.398 689.235 L 149.456 691.621 C 157.856 722.359 165.853 744.201 186.269 769.492 C 195.438 780.851 202.503 786.458 209.325 799.648 C 186.272 782.627 169.906 780.674 150.388 754.833 C 114.024 706.691 133.192 644.783 141.492 589.657 z" fill="rgb(254,253,248)" transform="translate(0,0)"></path>
<path d="M 149.456 691.621 C 148.579 687.005 147.224 682.574 148.027 678.053 C 150.138 681.094 150.555 685.357 151.398 689.235 L 149.456 691.621 z" fill="rgb(179,145,135)" transform="translate(0,0)"></path>
<path d="M 1834.75 1704.08 C 1833.3 1696.5 1832.6 1688.79 1832.67 1681.08 C 1832.98 1621.99 1882.01 1595.2 1920.69 1560.74 C 1934.14 1548.75 1943.28 1530.46 1955.92 1517.9 C 1954.81 1601.01 1949.56 1681.57 1856.94 1709.98 C 1850.84 1711.84 1842.18 1714.67 1837.17 1718.56 C 1823.2 1730.38 1809.46 1742.32 1795.5 1754.2 C 1774.41 1772.16 1752.63 1781.21 1729.15 1794.38 C 1742.29 1793.01 1771.75 1793.99 1780.88 1791.43 C 1781.41 1789.81 1783.89 1782.16 1784.66 1781.22 C 1790.98 1773.55 1803 1765.73 1811.31 1761.06 C 1834.13 1748.25 1857.53 1736.44 1884.27 1737.59 C 1895.61 1738.08 1910.19 1739.08 1921.1 1737.71 C 1933.8 1736.11 1947.65 1730.14 1960.54 1728.42 C 1964.01 1727.96 1964.53 1727.78 1966.62 1729.46 C 1965.31 1734.26 1962.46 1734.8 1958.12 1736.6 C 1948.21 1743.47 1938.59 1750.5 1929.4 1758.36 C 1910.04 1774.92 1893.6 1793.27 1868.95 1802 C 1846.3 1810.02 1809.3 1816.27 1789.52 1798.66 L 1786.62 1796.71 C 1768.12 1797.62 1738.94 1797.86 1721.57 1800.98 C 1714.25 1802.29 1686.61 1816.45 1677.05 1820.25 C 1642.51 1833.97 1612.62 1844.12 1576.22 1851.09 C 1586.08 1852.79 1619.17 1856.32 1623.5 1864.16 C 1626.72 1858.72 1625.92 1859.78 1631.17 1857.58 C 1640.38 1855.33 1652.29 1851.54 1661.24 1849.57 C 1683.82 1844.6 1725.48 1843.23 1746.42 1852.67 C 1755.63 1856.82 1824.89 1888.21 1827.05 1892.14 C 1824.2 1894.34 1788.02 1892.92 1780.57 1893.69 C 1745.81 1897.28 1714.55 1913.86 1679.21 1909.67 C 1658.9 1907.26 1627.93 1888.89 1619.57 1870.35 L 1617.5 1865.83 C 1608.1 1861.71 1576.91 1855.02 1566.55 1855.59 C 1551.16 1856.43 1528.14 1861.41 1511.91 1863.63 C 1488.58 1866.82 1464.57 1868.5 1441.47 1871.66 L 1440.34 1874.75 L 1455.82 1882.2 C 1537.92 1865.85 1566.79 1900.77 1626.73 1948.53 C 1629.85 1951.01 1642.35 1954.97 1642.99 1957.84 C 1640.57 1958.86 1639.44 1958.89 1636.89 1958.71 C 1610.02 1956.76 1579.4 1953.61 1552.73 1954.2 C 1514.05 1955.06 1485.89 1942.36 1463.54 1910.19 C 1456.95 1900.69 1452.76 1896.35 1449.81 1883.94 C 1440.5 1880.04 1433.87 1878.64 1423.98 1876.6 C 1403.91 1872.69 1374.2 1876.48 1353.44 1877.85 C 1303.35 1881.16 1251.74 1883.25 1203.26 1897.03 C 1194.86 1899.42 1178.13 1906.67 1172.74 1896.79 C 1172.9 1894.66 1173.26 1893.27 1174.68 1891.6 C 1192.31 1870.94 1342.59 1863.35 1374.9 1860.86 C 1388.64 1850.06 1400.02 1841.95 1411.02 1828.23 C 1400.19 1797.53 1416.56 1765.01 1441.01 1745.97 C 1468.82 1724.31 1504.97 1718.7 1524.8 1687.91 C 1526.45 1685.35 1528.19 1683.99 1531.1 1683.6 C 1532.75 1686.71 1528.62 1703.49 1528.14 1708.45 C 1524.75 1743.35 1527.78 1781.92 1498.19 1807.02 C 1476.73 1825.23 1442.91 1833.18 1415.14 1831.09 C 1403.86 1843.13 1395.48 1850.73 1383.01 1861.1 C 1434.69 1858.39 1494.68 1852.13 1545.71 1842.32 C 1557.38 1828.99 1560.54 1822.6 1568.1 1806.9 C 1556.81 1785.67 1565.47 1751.22 1578.81 1732.51 C 1597.46 1706.37 1622.36 1683.92 1641.24 1657.66 C 1644.71 1652.83 1652.35 1638.72 1657.99 1638.45 L 1658.6 1640.32 C 1647.53 1680.08 1663.07 1712.4 1657.77 1751.9 C 1653.44 1784.2 1601.8 1815.8 1572.29 1809.56 C 1566.77 1820.55 1562.44 1829.45 1555.88 1839.93 C 1586.81 1834.33 1616.8 1827.06 1646.42 1816.41 C 1660.44 1811.09 1676.04 1808.66 1684.62 1794.99 C 1692.93 1781.76 1703.03 1765.73 1707.65 1750.76 L 1708.76 1749.76 L 1709.89 1746.33 L 1713.34 1749.22 L 1713.05 1750.16 L 1711.72 1753.61 C 1706.27 1769.61 1695.59 1784.9 1687.82 1800.38 C 1743.57 1777.23 1790.34 1744.51 1834.75 1704.08 z" fill="rgb(98,14,22)" transform="translate(0,0)"></path>
<path d="M 1632.41 1860.91 C 1679.1 1844.7 1721.48 1845.58 1765.73 1867.01 C 1781.53 1874.75 1797.51 1882.1 1813.67 1889.05 C 1804.68 1888.96 1795.43 1888.74 1786.53 1888.88 C 1738.95 1889.61 1691.44 1923.82 1646.35 1891.24 C 1635.98 1883.75 1626.24 1878.16 1622.78 1864.83 L 1623.5 1864.16 C 1626.72 1858.72 1625.92 1859.78 1631.17 1857.58 L 1632.41 1860.91 z" fill="rgb(254,253,248)" transform="translate(0,0)"></path>
<path d="M 1623.5 1864.16 C 1626.72 1858.72 1625.92 1859.78 1631.17 1857.58 L 1632.41 1860.91 L 1632.46 1861.8 C 1668.08 1860.12 1710.28 1862.82 1743.37 1876.35 C 1716.74 1870.25 1698.08 1867.35 1670.6 1866.16 C 1657.47 1865.59 1637.6 1865.48 1625 1864.11 C 1643.6 1871 1676.01 1880.51 1695.76 1883.33 C 1695.21 1884.2 1694.97 1884.8 1694.24 1885.43 C 1675.64 1883.6 1637.78 1875.61 1622.78 1864.83 L 1623.5 1864.16 z" fill="rgb(98,14,22)" transform="translate(0,0)"></path>
<path d="M 1695.76 1883.33 C 1701.01 1883.99 1705.33 1884.49 1710.53 1885.64 C 1706.96 1885.82 1697.18 1886.64 1694.24 1885.43 C 1694.97 1884.8 1695.21 1884.2 1695.76 1883.33 z" fill="rgb(179,145,135)" transform="translate(0,0)"></path>
<path d="M 1949.91 1735.46 C 1954.01 1734.11 1952.7 1736.02 1957.32 1735.84 L 1958.12 1736.6 C 1948.21 1743.47 1938.59 1750.5 1929.4 1758.36 C 1910.04 1774.92 1893.6 1793.27 1868.95 1802 C 1846.3 1810.02 1809.3 1816.27 1789.52 1798.66 L 1786.62 1796.71 C 1810.87 1791.46 1829.76 1790.03 1853.85 1780.43 C 1836.44 1783.53 1817.56 1785.43 1800.61 1790.15 L 1799.38 1791.26 C 1793.95 1790.91 1791.54 1792.37 1786.04 1793.1 L 1784.7 1791.94 L 1785.17 1789.94 C 1790.61 1778.28 1802.41 1770.88 1813.46 1764.78 C 1832.88 1754.06 1855.82 1743.03 1878.45 1742.78 C 1891.39 1742.64 1904.65 1743.99 1917.58 1742.7 C 1927.97 1741.6 1939.24 1737.42 1949.91 1735.46 z" fill="rgb(254,253,248)" transform="translate(0,0)"></path>
<path d="M 1949.91 1735.46 C 1954.01 1734.11 1952.7 1736.02 1957.32 1735.84 L 1958.12 1736.6 C 1948.21 1743.47 1938.59 1750.5 1929.4 1758.36 C 1910.04 1774.92 1893.6 1793.27 1868.95 1802 C 1846.3 1810.02 1809.3 1816.27 1789.52 1798.66 C 1796.49 1799.31 1803.02 1804.06 1807.73 1804.63 C 1827.85 1807.11 1848.66 1805.26 1867.34 1797.69 C 1875.36 1794.38 1882.98 1790.18 1890.08 1785.18 C 1904.18 1775.37 1916.41 1763.18 1929.84 1752.43 C 1934.34 1748.83 1948.09 1739.83 1949.91 1735.46 z" fill="rgb(87,17,27)" transform="translate(0,0)"></path>
<path d="M 1785.17 1789.94 C 1787.29 1790.66 1786.95 1791.15 1789.16 1790.18 C 1813.72 1779.34 1854.37 1763.29 1881.31 1765.47 C 1868.13 1767.76 1806.98 1782.98 1799.76 1789.13 L 1800.61 1790.15 L 1799.38 1791.26 C 1793.95 1790.91 1791.54 1792.37 1786.04 1793.1 L 1784.7 1791.94 L 1785.17 1789.94 z" fill="rgb(119,34,34)" transform="translate(0,0)"></path>
<path d="M 1430.43 1872.98 C 1433.95 1872.35 1437.88 1872.04 1441.47 1871.66 L 1440.34 1874.75 L 1430.43 1872.98 z" fill="rgb(215,204,195)" transform="translate(0,0)"></path>
<path d="M 1950.95 1531.07 C 1951.11 1606.23 1938.51 1676.8 1859.54 1704.14 C 1852.73 1706.5 1844.27 1709.01 1837.83 1711.93 L 1834.44 1711.71 C 1844.33 1704.23 1853.8 1696.2 1862.78 1687.66 C 1877.49 1673.6 1917.11 1625.78 1917.49 1606.88 L 1915.99 1606.73 C 1912.74 1610.53 1910.88 1614.83 1908.59 1619.25 C 1892.55 1650.29 1867.83 1677.65 1842.01 1700.99 C 1850.53 1689.28 1855.3 1677.33 1862.03 1664.55 C 1873.64 1642.5 1885.54 1626 1902.02 1607.31 L 1901.38 1606.21 C 1877.74 1629.54 1848.44 1673.54 1838.06 1705.44 C 1835.97 1667.33 1838.36 1645.5 1864.94 1614.69 C 1879.24 1598.12 1897.52 1586.16 1914.03 1571.93 C 1928.84 1559.16 1939.22 1546.38 1950.95 1531.07 z" fill="rgb(254,253,248)" transform="translate(0,0)"></path>
<path d="M 1901.38 1606.21 C 1903.28 1603.5 1904.46 1601.05 1907.41 1599.84 C 1906.97 1602.78 1904.34 1605.3 1902.02 1607.31 L 1901.38 1606.21 z" fill="rgb(193,173,147)" transform="translate(0,0)"></path>
<path d="M 1522.79 1698.92 L 1523.45 1699.69 C 1523.16 1708.57 1522.2 1717.41 1521.69 1726.28 C 1520.24 1751.46 1519.35 1776.49 1501.92 1796.58 C 1482.1 1819.43 1449.52 1826.65 1420.69 1828.49 L 1421.62 1828.02 L 1423.15 1827.22 C 1449.17 1814.03 1471.34 1794.36 1487.54 1770.11 C 1477.01 1780.47 1466.56 1791.03 1455.07 1800.33 C 1442.76 1810.3 1429.13 1819.08 1416.13 1828.15 C 1420.56 1820.69 1425.23 1813.51 1430.18 1806.39 C 1447.78 1782.66 1469.74 1765.78 1490.26 1745.08 C 1458.81 1765 1431.24 1790.88 1413.45 1823.85 C 1412.71 1819.81 1412.08 1815.77 1412.07 1811.66 C 1412.04 1776.71 1435.21 1752.5 1464.28 1736.49 C 1476.42 1729.8 1489.53 1724.5 1501.23 1717.06 C 1509.34 1711.89 1516.01 1705.72 1522.79 1698.92 z" fill="rgb(254,253,248)" transform="translate(0,0)"></path>
<path d="M 1650.74 1652.77 C 1651.32 1660.87 1648.92 1670.11 1648.83 1678.48 C 1648.71 1689.9 1651.71 1702.23 1653.29 1713.57 C 1656.24 1734.81 1656.35 1756.39 1642.65 1774.23 C 1626.98 1794.63 1598.69 1805.39 1574.05 1808.8 C 1601.5 1790.63 1624.49 1767.79 1634.38 1735.8 C 1613.36 1770.23 1603.88 1779.59 1574.15 1805.23 L 1582.02 1788.31 C 1596.17 1761.02 1615.93 1736 1628.52 1708.14 C 1605.21 1734.07 1582.68 1773.35 1569.49 1805.59 C 1568.66 1802.27 1567.88 1798.84 1567.48 1795.43 C 1562.06 1750.21 1593.48 1721.63 1620.48 1690.8 C 1631.13 1678.63 1640.86 1665.57 1650.74 1652.77 z" fill="rgb(254,253,248)" transform="translate(0,0)"></path>
<path d="M 1473.29 1881.38 C 1516.5 1878.03 1553.52 1893.67 1586.35 1921.36 C 1600.22 1933.06 1612.4 1945.25 1628.28 1954.29 C 1610.91 1951.78 1593.41 1950.26 1575.86 1949.73 C 1555.91 1948.98 1534.21 1951.08 1515.04 1944.5 C 1488.02 1935.22 1466.71 1910.99 1454.52 1885.87 C 1458.25 1888.34 1461.88 1890.96 1465.56 1893.51 C 1484.19 1906.72 1528.25 1923.32 1550.9 1929.66 C 1535.41 1921.4 1519.45 1914.41 1503.31 1907.51 C 1489.71 1901.68 1473.23 1896.01 1461.33 1887.23 L 1461.48 1886.26 C 1478.43 1882.93 1518.53 1901.76 1534.97 1909.12 C 1539.08 1910.96 1542.76 1913.32 1547.1 1914.65 C 1544.67 1908.25 1501.4 1891.2 1493.24 1888.61 C 1487.24 1886.71 1477.11 1885.99 1472.13 1882.77 L 1473.29 1881.38 z" fill="rgb(254,253,248)" transform="translate(0,0)"></path>
<path d="M 1834.44 1711.71 L 1837.83 1711.93 C 1819.25 1728.76 1802.15 1744.58 1781.64 1759.04 C 1755.3 1777.61 1724.53 1792.79 1695.38 1806.29 C 1598.84 1851.31 1493.96 1863.53 1388.9 1870.64 C 1332.88 1874.44 1276.49 1875.75 1221.21 1886.6 C 1205.08 1889.76 1190.58 1896.09 1174.07 1896.85 C 1187.65 1887.58 1226.53 1880.74 1243.94 1878.64 C 1387.25 1861.34 1536.49 1869.32 1672.25 1812.33 C 1734.64 1786.14 1784.8 1757.89 1834.44 1711.71 z" fill="rgb(254,253,248)" transform="translate(0,0)"></path>
<path d="M 590.344 473.423 C 618.139 460.381 666.238 458.67 694.357 470.511 C 746.625 492.521 786.516 536.737 838.055 561.745 C 838.188 562.079 839.46 565.113 839.442 565.396 L 840.343 569.882 C 797.109 566.242 752.812 567.861 709.803 565.042 C 668.891 562.415 627.788 549.073 605.222 512.523 C 599.058 502.538 592.216 486.657 584.909 478.599 L 586.418 472.994 L 589.888 474.565 L 590.344 473.423 z" fill="rgb(254,253,248)" transform="translate(0,0)"></path>
<path d="M 586.418 472.994 L 589.888 474.565 C 591.582 476.972 591.056 476.698 595.555 477.259 C 608.231 478.841 622.802 479.625 635.345 481.037 C 661.649 483.997 722.258 501.552 741.276 518.491 C 688.623 495.699 657.296 485.629 599.661 480.934 C 614.608 489.155 641.442 494.726 657.503 501.194 C 681.095 510.696 706.382 521.087 729.373 531.773 C 707.279 525.816 683.101 514.457 661.335 506.649 C 642.359 499.842 623.816 494.136 605.067 486.592 C 621.656 503.993 666.235 529.405 688.822 539.505 C 699.176 544.134 712.275 548.148 722.491 552.713 C 685.665 544.597 653.643 527.277 622.84 505.614 C 611.88 497.906 603.015 488.066 591.177 480.782 C 602.088 499.204 611.67 519.734 629.8 533.374 C 682.501 573.026 756.007 557.693 817.466 564.742 C 822.086 565.272 829.687 565.715 834.181 565.579 L 839.442 565.396 L 840.343 569.882 C 797.109 566.242 752.812 567.861 709.803 565.042 C 668.891 562.415 627.788 549.073 605.222 512.523 C 599.058 502.538 592.216 486.657 584.909 478.599 L 586.418 472.994 z" fill="rgb(98,14,22)" transform="translate(0,0)"></path>
<path d="M 590.344 473.423 C 618.139 460.381 666.238 458.67 694.357 470.511 C 746.625 492.521 786.516 536.737 838.055 561.745 C 838.188 562.079 839.46 565.113 839.442 565.396 L 834.181 565.579 C 817.039 556.643 800.572 546.467 784.912 535.133 C 732.343 497.142 691.189 456.797 621.133 468.36 C 612.129 469.846 597.822 477.308 590.344 473.423 z" fill="rgb(98,14,22)" transform="translate(0,0)"></path>
<path d="M 1707.65 1750.76 C 1702.45 1746.04 1701.57 1737.49 1701.25 1730.85 C 1698.71 1678.97 1737.64 1646.13 1768.94 1610.59 C 1778.09 1600.21 1787.83 1582.24 1796.71 1573.44 L 1798.24 1574.43 C 1799.07 1581.04 1797.07 1598.96 1797.04 1607.5 C 1796.97 1632.13 1799.58 1662.21 1795.51 1686.12 C 1789.49 1721.48 1748.6 1743.04 1718 1753.13 C 1717.13 1753.42 1712.97 1753.57 1711.72 1753.61 L 1713.05 1750.16 L 1713.34 1749.22 L 1709.89 1746.33 L 1708.76 1749.76 L 1707.65 1750.76 z" fill="rgb(254,253,248)" transform="translate(0,0)"></path>
<path d="M 1707.65 1750.76 C 1702.45 1746.04 1701.57 1737.49 1701.25 1730.85 C 1698.71 1678.97 1737.64 1646.13 1768.94 1610.59 C 1778.09 1600.21 1787.83 1582.24 1796.71 1573.44 L 1798.24 1574.43 C 1799.07 1581.04 1797.07 1598.96 1797.04 1607.5 C 1796.97 1632.13 1799.58 1662.21 1795.51 1686.12 C 1789.49 1721.48 1748.6 1743.04 1718 1753.13 C 1717.13 1753.42 1712.97 1753.57 1711.72 1753.61 L 1713.05 1750.16 L 1715.14 1749.11 L 1715.89 1749.69 C 1729.36 1747.95 1761.48 1727.72 1771.69 1718.6 C 1796.96 1696.03 1793.47 1663.02 1792.55 1632.36 C 1792.06 1616.2 1792.28 1601.97 1793.01 1585.65 C 1767.81 1623.3 1733.71 1648.71 1714.29 1688 C 1706.57 1703.62 1702.37 1733.17 1708.76 1749.76 L 1707.65 1750.76 z" fill="rgb(87,17,27)" transform="translate(0,0)"></path>
<path d="M 1763.61 1646.84 C 1757.32 1660.7 1745.45 1677.45 1737.94 1691.81 C 1727.8 1711.18 1721.37 1728.96 1713.34 1749.22 L 1709.89 1746.33 L 1710.38 1745.26 C 1715.74 1733.4 1719.46 1719.92 1724.6 1708.27 C 1733.38 1688.32 1749.35 1663.76 1763.61 1646.84 z" fill="rgb(87,17,27)" transform="translate(0,0)"></path>
<path d="M 1715.14 1749.11 C 1721.39 1732.54 1747.04 1710.65 1755.86 1693.97 C 1757.13 1691.57 1767.67 1674.06 1768.61 1673.3 C 1762.96 1697.43 1732.93 1731.11 1715.89 1749.69 L 1715.14 1749.11 z" fill="rgb(98,14,22)" transform="translate(0,0)"></path>
<path d="M 191.383 1618.27 C 203.64 1639.65 224.846 1663.77 243.273 1680.24 C 364.104 1788.24 528.757 1827.84 686.682 1835.94 C 683.754 1837.08 679.405 1838.95 676.489 1839.46 C 608.469 1838.2 540.891 1828.24 475.404 1809.81 C 374.468 1780.33 243.574 1718.73 191.157 1622.97 L 191.383 1618.27 z" fill="rgb(98,14,22)" transform="translate(0,0)"></path>
<path d="M 325.003 1807.92 C 348.457 1819.59 374.918 1832.43 399.508 1841.36 C 463.126 1864.46 545.824 1879.89 613.594 1880.07 L 607.991 1882.09 C 496.417 1880.73 421.618 1863.86 324.489 1810.47 L 325.003 1807.92 z" fill="url(#Gradient2)" transform="translate(0,0)"></path>
<path d="M 443.483 1755.45 C 501.619 1776.56 585.805 1795.55 648.02 1796.03 L 649.105 1797.51 C 646.021 1798.32 643.978 1798.52 640.859 1798.91 C 564.873 1800.33 514.601 1785.95 445.132 1758.32 L 443.483 1755.45 z" fill="url(#Gradient1)" transform="translate(0,0)"></path>
<path d="M 686.682 1835.94 C 705.375 1835.93 725.684 1836.38 744.224 1835.7 L 746.307 1836.65 L 744.451 1837.98 C 721.598 1838.88 699.387 1840.15 676.489 1839.46 C 679.405 1838.95 683.754 1837.08 686.682 1835.94 z" fill="rgb(119,34,34)" transform="translate(0,0)"></path>
<path d="M 838.055 561.745 C 842.822 563.612 847.405 564.901 851.084 568.317 L 851.163 569.646 C 847.763 571.284 844.256 570.282 840.343 569.882 L 839.442 565.396 C 839.46 565.113 838.188 562.079 838.055 561.745 z" fill="rgb(87,17,27)" transform="translate(0,0)"></path>
<path d="M 649.647 1796.13 C 654.41 1796.03 670.541 1795.37 674.257 1796.31 C 668.957 1797.87 660.073 1798.8 654.458 1799.14 L 640.859 1798.91 C 643.978 1798.52 646.021 1798.32 649.105 1797.51 L 648.02 1796.03 L 649.647 1796.13 z" fill="rgb(179,145,135)" transform="translate(0,0)"></path>
<path d="M 648.02 1796.03 L 649.647 1796.13 C 652.944 1796.51 656.025 1796.83 659.299 1797.43 C 657.676 1798.02 656.097 1798.6 654.458 1799.14 L 640.859 1798.91 C 643.978 1798.52 646.021 1798.32 649.105 1797.51 L 648.02 1796.03 z" fill="rgb(137,74,68)" transform="translate(0,0)"></path>
<path d="M 744.224 1835.7 C 750.505 1834.3 766.45 1835.02 773.278 1835.23 C 763.822 1837.47 754.162 1837.28 744.451 1837.98 L 746.307 1836.65 L 744.224 1835.7 z" fill="rgb(179,145,135)" transform="translate(0,0)"></path>
<path d="M 613.594 1880.07 C 618.289 1879.87 627.347 1879.74 631.922 1880.8 C 627.483 1882.04 613.062 1882.23 607.991 1882.09 L 613.594 1880.07 z" fill="rgb(179,145,135)" transform="translate(0,0)"></path>
<path d="M 324.489 1810.47 C 321.456 1808.57 312.746 1803.6 311.227 1800.76 L 310.418 1800.99 L 309.604 1800.22 L 311.452 1801.47 C 313.926 1801.09 322 1806.28 325.003 1807.92 L 324.489 1810.47 z" fill="rgb(119,34,34)" transform="translate(0,0)"></path>
<path d="M 191.157 1622.97 C 189.381 1619.72 183.859 1610.07 184.357 1606.91 L 184.858 1607.52 L 183.558 1606.33 L 185.067 1607.51 L 183.751 1606.8 L 184.517 1608.88 L 185.843 1608.56 L 185.793 1608.48 L 191.383 1618.27 L 191.157 1622.97 z" fill="rgb(119,34,34)" transform="translate(0,0)"></path>
<path d="M 445.132 1758.32 C 440.478 1756.29 439.496 1755.96 435.511 1752.98 C 438.429 1752.68 440.449 1754.13 443.483 1755.45 L 445.132 1758.32 z" fill="rgb(142,100,94)" transform="translate(0,0)"></path>
<metadata><recraft-signature>{"signed_by": "recraft", "signature_b64": "VifJegOGlNG4Ie0/xB/xAGWCCC+XJ/HkmmuPE9kkjYO8mC11cwP92JqHoypmrZequwBlGxQNyZjmncDRvftnBw==", "signing_algo": "Ed25519", "generation_timestamp": 1778092979, "identifier": "36fa4129-5ebd-4ca5-8ba6-3b793670afe8"}</recraft-signature></metadata></svg>