<svg xmlns="http://www.w3.org/2000/svg" height="1024" preserveAspectRatio="none" style="display: block;" version="1.1" viewBox="0 0 2048 2048" width="1024">
<defs>
	<linearGradient gradientUnits="userSpaceOnUse" id="Gradient1" x1="302.505" x2="319.126" y1="313.793" y2="319.09">
		<stop class="stop0" offset="0" stop-color="rgb(82,19,2)" stop-opacity="1"></stop>
		<stop class="stop1" offset="1" stop-color="rgb(92,50,26)" stop-opacity="1"></stop>
	</linearGradient>
	<linearGradient gradientUnits="userSpaceOnUse" id="Gradient2" x1="392.306" x2="376.637" y1="472.752" y2="432.081">
		<stop class="stop0" offset="0" stop-color="rgb(75,26,12)" stop-opacity="1"></stop>
		<stop class="stop1" offset="1" stop-color="rgb(113,45,24)" stop-opacity="1"></stop>
	</linearGradient>
	<linearGradient gradientUnits="userSpaceOnUse" id="Gradient3" x1="335.575" x2="411.425" y1="406.844" y2="475.156">
		<stop class="stop0" offset="0" stop-color="rgb(237,214,181)" stop-opacity="1"></stop>
		<stop class="stop1" offset="1" stop-color="rgb(251,249,235)" stop-opacity="1"></stop>
	</linearGradient>
	<linearGradient gradientUnits="userSpaceOnUse" id="Gradient4" x1="1864.96" x2="1870.04" y1="1625.25" y2="1624.75">
		<stop class="stop0" offset="0" stop-color="rgb(214,178,121)" stop-opacity="1"></stop>
		<stop class="stop1" offset="1" stop-color="rgb(255,230,171)" stop-opacity="1"></stop>
	</linearGradient>
	<linearGradient gradientUnits="userSpaceOnUse" id="Gradient5" x1="1570.95" x2="1572.22" y1="1716.27" y2="1703.22">
		<stop class="stop0" offset="0" stop-color="rgb(73,16,7)" stop-opacity="1"></stop>
		<stop class="stop1" offset="1" stop-color="rgb(106,50,22)" stop-opacity="1"></stop>
	</linearGradient>
	<linearGradient gradientUnits="userSpaceOnUse" id="Gradient6" x1="1168.34" x2="639.551" y1="1011.65" y2="1696.24">
		<stop class="stop0" offset="0" stop-color="rgb(173,113,89)" stop-opacity="1"></stop>
		<stop class="stop1" offset="1" stop-color="rgb(211,154,125)" stop-opacity="1"></stop>
	</linearGradient>
</defs>
<path d="M 0 0 L 2048 0 L 2048 2048 L 0 2048 L 0 0 z" fill="rgb(253,250,239)" transform="translate(0,0)"></path>
<path d="M 973.403 528.505 C 1136.78 527.028 1303.35 553.267 1454.04 617.885 C 1580.17 671.966 1753.28 780.143 1773.34 928.533 C 1777.75 960.912 1774.79 993.87 1764.67 1024.94 C 1761.53 1034.81 1756.04 1046.52 1753.83 1056.24 C 1727.98 1169.63 1682.36 1281.37 1611.61 1374.62 C 1691.04 1406.48 1770.6 1443.06 1836.16 1499.24 C 1842.62 1504.77 1849.04 1510.38 1855.45 1515.97 C 1875.62 1518.95 1906.39 1529.5 1923.26 1540.78 C 1994.18 1588.2 1950.41 1686.02 1913.12 1740.94 C 1816.85 1882.65 1632.77 1936.62 1469.41 1940.92 C 1407.53 1942.55 1289.07 1935.97 1237.26 1900.91 C 1230.08 1906.39 1221.78 1911.1 1214.01 1915.78 C 1203.34 1921.58 1192.39 1926.83 1181.19 1931.51 C 1138.28 1949.22 1107.33 1952.09 1064.44 1933.14 C 1019.61 1913.33 976.255 1886.09 935.175 1859.62 C 862.495 1812.79 790.971 1764.05 718.521 1716.83 C 684.271 1694.51 647.915 1673.67 612.974 1652.36 C 563.813 1622.63 515.058 1592.22 466.721 1561.17 C 355.968 1490.92 251.263 1419.24 159.31 1324.25 C 137.123 1300.18 112.12 1273.81 98.9422 1243.63 C 84.9485 1211.58 111.383 1191.07 135.811 1177.69 C 159.764 1164.57 183.548 1153.68 209.079 1144.62 C 194.445 1097.47 183.938 1047.55 172.628 999.806 C 153.043 917.13 201.323 833.015 256.463 774.987 C 277.529 752.817 301.351 731.66 325.995 713.334 C 508.884 580.099 750.902 531.204 973.403 528.505 z" fill="rgb(93,47,33)" transform="translate(0,0)"></path>
<path d="M 946.041 537.442 C 947.766 537.376 949.492 537.32 951.218 537.274 C 1201.54 530.645 1482.63 592.841 1671.41 766.85 C 1787.19 873.572 1801.48 1018.55 1686.17 1132.23 C 1564.24 1252.44 1386.64 1309.2 1221.85 1340.58 C 1154.23 1353.46 1067.84 1360.36 999.59 1361.43 C 940.629 1363.96 877.416 1359.48 818.899 1353.04 C 655.634 1335.06 489.919 1294.07 350.292 1204.5 C 254.317 1142.94 152.438 1039.82 183.377 914.76 C 194.231 871.521 223.877 822.594 254.117 789.874 C 374.157 659.988 560.705 590.225 730.228 559.72 C 801.588 547.484 873.687 540.041 946.041 537.442 z" fill="rgb(253,250,239)" transform="translate(0,0)"></path>
<path d="M 938.004 561.437 C 1173.67 555.184 1448.83 608.054 1631.05 767.026 C 1745.02 866.461 1759.99 1017.8 1651.2 1127.26 C 1498.43 1280.97 1222.46 1332.97 1015.67 1338.2 C 862.199 1344.92 687.916 1320.16 542.24 1270.9 C 505.56 1258.47 471.724 1242.43 437.276 1225.02 C 337.025 1174.33 232.923 1093.56 226.404 971.97 C 222.702 902.941 250.674 837.83 298.016 788.325 C 457.442 621.612 717.246 571.791 938.004 561.437 z" fill="rgb(93,47,33)" transform="translate(0,0)"></path>
<path d="M 974.858 952.5 C 1050.38 945.629 1162.72 984.881 1225.46 1026.98 C 1242.07 1038.36 1257.55 1051.32 1271.68 1065.67 C 1309.85 1104.27 1334.52 1150.83 1335.46 1206.42 C 1335.63 1233.75 1322.82 1254.89 1304.35 1273.64 C 1276.36 1302.08 1252.73 1302.96 1216.02 1309.81 C 1122.15 1327.32 1027.96 1331.5 932.694 1329.97 C 852.893 1327.69 773.44 1318.47 695.237 1302.42 C 666.102 1296.58 634.8 1290 606.534 1281 C 587.89 1259.97 573.469 1237.27 571.943 1208.47 C 569.786 1167.78 591.739 1124.42 618.556 1095.02 C 705.149 1000.07 851.088 959.667 974.858 952.5 z" fill="rgb(253,250,239)" transform="translate(0,0)"></path>
<path d="M 893.405 979.324 C 933.494 984.926 965.077 990.297 1002.67 1007.04 C 1070.29 1037.15 1133.53 1092.97 1160.65 1162.92 L 1158.7 1164.31 C 1117.81 1087.2 1049.28 1028.41 966.854 999.718 C 941.287 990.696 917.656 987.616 893.405 979.324 z" fill="rgb(93,47,33)" transform="translate(0,0)"></path>
<path d="M 749.471 1029.05 C 770.944 1028.55 836.363 1045.43 857.564 1053.29 C 922.747 1077.48 996.232 1123.14 1026.67 1187.42 C 1024.27 1185.83 1005.09 1161.19 1001.93 1157.55 C 949.902 1097.59 877.532 1063.01 801.982 1042.84 C 786.222 1038.64 764.302 1034.54 749.471 1029.05 z" fill="rgb(93,47,33)" transform="translate(0,0)"></path>
<path d="M 1160.65 1162.92 C 1161.35 1165.37 1162.6 1167.92 1161.94 1169.85 C 1160.59 1167.77 1159.71 1166.57 1158.7 1164.31 L 1160.65 1162.92 z" fill="rgb(170,117,73)" transform="translate(0,0)"></path>
<path d="M 965.241 620.5 L 981.202 619.997 C 981.661 646.814 981.73 673.637 981.409 700.455 C 817.213 702.386 640.128 734.85 496.47 818.072 C 495.094 818.827 493.454 819.577 492.025 820.275 L 490.474 819.353 C 485.753 800.677 482.952 750.357 482.898 730.494 C 629.091 651.645 801.049 625.276 965.241 620.5 z" fill="rgb(224,209,173)" transform="translate(0,0)"></path>
<path d="M 990.507 620.688 C 1124.37 620.015 1272.94 644.974 1397.38 695.35 C 1417.76 703.599 1445.87 715.961 1464.74 727.069 C 1465.2 749.512 1461.35 783.877 1457.71 805.965 C 1457.39 808.236 1457.22 808.441 1456.34 810.593 C 1454.24 810.644 1419.14 793.298 1414.17 790.96 C 1319.33 746.322 1217.36 719.836 1113.38 708.052 C 1071.26 703.278 1032.52 702.061 990.713 700.221 C 990.495 673.711 990.426 647.199 990.507 620.688 z" fill="rgb(224,209,173)" transform="translate(0,0)"></path>
<path d="M 938.803 791.441 C 953.523 790.915 968.066 791.243 982.79 791.457 C 983.011 817.474 983.32 840.071 984.494 866.096 C 950.058 866.76 916.927 867.202 882.581 870.771 C 767.32 882.939 655.912 919.241 555.609 977.316 L 546.052 982.931 C 530.398 955.612 521.56 936.101 511.434 906.25 C 647.315 829.317 783.874 797.477 938.803 791.441 z" fill="rgb(224,209,173)" transform="translate(0,0)"></path>
<path d="M 935.364 709.418 C 946.934 708.25 969.743 708.642 981.835 708.807 L 982.544 782.786 C 825.072 778.482 669.108 814.455 529.429 887.296 L 508.43 898.6 C 501.605 875.87 494.632 852.794 491.615 829.242 C 517.028 812.489 552.661 797.813 580.707 785.87 C 696.658 736.496 810.266 717.304 935.364 709.418 z" fill="rgb(224,209,173)" transform="translate(0,0)"></path>
<path d="M 990.358 708.811 C 1127.22 708.202 1262.77 735.474 1388.74 788.965 C 1411.79 798.978 1433.56 808.227 1455.18 821.063 C 1450.5 843.036 1446.72 859.398 1440.13 880.761 L 1434.97 895.101 C 1315.65 822.141 1129.65 783.871 991.027 782.91 L 990.358 708.811 z" fill="rgb(224,209,173)" transform="translate(0,0)"></path>
<path d="M 991.111 791.33 C 1135.73 792.217 1305.37 830.477 1431.72 902.733 C 1424.85 922.849 1419.45 936.671 1409.78 955.562 C 1406.43 962.155 1402.96 968.68 1399.36 975.134 C 1286.93 906.324 1144.93 871.654 1014.18 866.944 C 1007.19 866.692 1000.18 866.462 993.192 866.242 C 992.818 840.341 990.804 818.068 991.111 791.33 z" fill="rgb(224,209,173)" transform="translate(0,0)"></path>
<path d="M 935.22 875.427 C 951.591 874.657 968.517 874.805 984.951 874.749 C 987.207 896.086 988.585 920.471 990.389 942.16 C 887.772 934.592 772.673 953.926 677.755 993.161 C 651.356 1004.07 625.583 1018.1 600.514 1031.78 L 584.771 1040.89 C 572.756 1026.01 559.922 1006.05 549.905 989.739 C 666.803 918.481 799.133 882.589 935.22 875.427 z" fill="rgb(224,209,173)" transform="translate(0,0)"></path>
<path d="M 993.829 874.978 C 1121.95 875.748 1286.37 912.746 1395.32 982.376 C 1388.7 993.308 1382.28 1002.21 1374.84 1012.55 L 1357.42 1035.27 C 1277.19 987.098 1176.85 956.751 1083.77 946.655 C 1055.88 943.63 1027.47 944.568 999.108 942.216 C 998.492 921.438 994.765 896.929 993.829 874.978 z" fill="rgb(224,209,173)" transform="translate(0,0)"></path>
<path d="M 473.841 734.99 C 474.828 736.512 476.876 771.633 477.393 776.98 C 479.014 793.271 481.049 809.518 483.497 825.706 C 458.98 839.056 411.715 871.299 390.804 890.013 C 327.339 946.81 284.898 1000.99 277.612 1088.36 L 267.327 1072.31 C 260.825 1060.59 242.288 1022.87 243.276 1011.44 C 254.112 886.22 373.114 791.845 473.841 734.99 z" fill="rgb(224,209,173)" transform="translate(0,0)"></path>
<path d="M 1473.57 730.323 C 1480.74 733.937 1490.36 740.049 1497.31 744.326 C 1585.69 799.87 1677.89 881.412 1704.1 986.476 C 1713.14 1022.74 1696.89 1049.52 1677.89 1079.39 L 1663.6 1099.81 C 1667.13 1077.58 1664.18 1048.17 1658.27 1026.54 C 1633.87 937.21 1542.03 860.783 1464.49 816.688 C 1469.76 785.097 1472.02 762.354 1473.57 730.323 z" fill="rgb(224,209,173)" transform="translate(0,0)"></path>
<path d="M 1439.85 907.835 C 1497.51 939.965 1559.16 991.838 1591.22 1049.99 C 1606.56 1077.83 1621.57 1119.16 1612.5 1151.1 C 1597.97 1163.68 1587.98 1171.63 1572.12 1182.45 C 1565.85 1186.47 1559.52 1190.38 1553.12 1194.19 C 1552.61 1180.86 1551.75 1167.99 1549.17 1154.85 C 1534.47 1080.08 1466.98 1020.17 1406.38 979.449 C 1419.58 953.756 1428.88 934.588 1439.85 907.835 z" fill="rgb(224,209,173)" transform="translate(0,0)"></path>
<path d="M 941.424 570.5 C 954.882 569.959 968.408 570.09 981.881 570.094 C 981.905 584.074 981.708 598.053 981.288 612.027 C 816.411 613.689 662.148 638.282 511.517 706.833 C 501.998 711.333 492.287 716.538 482.901 721.389 C 485.384 701.126 486.015 685.432 490.684 665.153 C 519.113 651.412 561.72 636.591 591.727 627.295 C 705.109 592.297 822.794 573.183 941.424 570.5 z" fill="rgb(224,209,173)" transform="translate(0,0)"></path>
<path d="M 502.372 910.812 C 504.843 911.376 508.759 923.606 509.831 926.389 C 518.04 947.689 528.337 967.718 538.977 987.875 C 529.646 993.973 520.457 1000.29 511.415 1006.8 C 450.452 1051.35 395.544 1106.64 383.576 1184.13 L 370.459 1175.32 C 354.396 1164.13 341.842 1154.62 326.969 1141.9 C 326.792 1103.41 343.911 1064.71 365.33 1033.52 C 400.945 981.665 450.953 945.351 502.372 910.812 z" fill="rgb(224,209,173)" transform="translate(0,0)"></path>
<path d="M 1462.53 825.459 C 1473.61 831.538 1485.09 839.377 1495.72 846.45 C 1574.3 898.744 1659.76 979.617 1657.02 1081.49 C 1656.23 1110.78 1650.88 1116.11 1630.64 1135.24 L 1623.09 1142.27 C 1623.18 1128.35 1623.07 1112.81 1619.58 1099.3 C 1595.69 1006.66 1517.9 946.58 1442.39 898.65 C 1452.98 870.659 1456.45 854.829 1462.53 825.459 z" fill="rgb(224,209,173)" transform="translate(0,0)"></path>
<path d="M 990.774 570.072 C 1120.96 573.451 1242.86 588.566 1366.66 631.075 C 1400.16 642.576 1432.96 654.539 1464.7 670.515 C 1466.81 685.125 1466.24 702.239 1466.12 717.142 C 1330.42 644.721 1143.42 612.344 990.512 612.012 C 990.247 598.537 990.672 583.655 990.774 570.072 z" fill="rgb(224,209,173)" transform="translate(0,0)"></path>
<path d="M 482.778 833.806 C 484.142 835.046 484.423 835.479 484.798 837.364 C 489.233 859.683 495.045 880.823 501.827 902.55 C 481.886 914.677 462.695 927.994 444.357 942.429 C 380.622 993.131 328.427 1051.02 318.815 1135.14 L 309.864 1126.1 C 300.967 1116.5 292.061 1107.17 284.22 1096.69 C 289.381 1006.82 337.157 944.616 404.122 888.928 C 428.304 868.818 456.648 851.333 482.778 833.806 z" fill="rgb(224,209,173)" transform="translate(0,0)"></path>
<path d="M 1358.79 1045.7 C 1388.67 1064.52 1415.67 1087.57 1438.95 1114.12 C 1468.63 1148.67 1488.32 1184.71 1484.82 1230.93 C 1466.99 1239.74 1450.31 1246.35 1431.76 1253.54 L 1421.02 1257.31 C 1411.66 1197.62 1382.01 1160.56 1337.32 1121.1 C 1327.12 1112.09 1313.48 1105.43 1305.15 1095.6 L 1304.2 1094.46 C 1327.88 1077.81 1339.67 1067.35 1358.79 1045.7 z" fill="rgb(224,209,173)" transform="translate(0,0)"></path>
<path d="M 1401.93 987.492 C 1422.61 997.617 1464.8 1033.35 1480.65 1050.88 C 1522.61 1097.27 1546.06 1135.91 1543.92 1199.22 C 1533.6 1206.95 1517.37 1214.79 1505.62 1220.69 L 1493 1226.92 C 1496.91 1144.09 1426.55 1083.44 1365.19 1039.54 C 1379.43 1020.85 1389.34 1007.24 1401.93 987.492 z" fill="rgb(224,209,173)" transform="translate(0,0)"></path>
<path d="M 541.941 994.765 C 543.271 995.561 574.029 1039.9 578.086 1045.52 C 525.404 1080.24 461.83 1135.14 452.714 1201.45 C 451.798 1208.12 451.92 1215.67 451.934 1222.43 L 437.684 1215.54 C 426.885 1209.89 399.892 1195.64 391.673 1188.1 C 393.642 1106.8 479.877 1036.96 541.941 994.765 z" fill="rgb(224,209,173)" transform="translate(0,0)"></path>
<path d="M 479.221 669.854 L 480.038 670.112 C 481.418 672.451 479.35 682.068 478.862 685.299 C 476.804 698.93 475.344 711.899 475.025 725.725 C 454.039 736.901 433.609 749.092 413.81 762.256 C 333.381 816.06 257.056 894.153 237.652 992.004 C 230.239 967.876 237.101 916.97 245.188 892.78 C 281.081 785.424 384.302 718.721 479.221 669.854 z" fill="rgb(224,209,173)" transform="translate(0,0)"></path>
<path d="M 1473.88 674.048 C 1479.42 676.153 1486.29 680.039 1491.65 682.892 C 1594.39 737.643 1710.7 822.105 1716.85 949.713 C 1717.48 962.734 1715.84 976.066 1714.44 988.87 L 1713.93 990.162 L 1713.08 990.409 C 1710.85 985.315 1711.09 980.098 1709.59 974.721 C 1686.72 892.847 1621.06 825.836 1555.98 774.629 C 1531.79 755.594 1500.2 736.496 1474.52 720.908 C 1475.39 705.146 1474.62 689.784 1473.88 674.048 z" fill="rgb(224,209,173)" transform="translate(0,0)"></path>
<path d="M 581.89 1051.72 C 585.444 1052.67 611.297 1079.06 617.241 1083.99 C 606.433 1097.13 596.9 1109.11 587.878 1123.69 C 583.015 1130.1 578.742 1143.68 573.961 1149.24 C 545.742 1182.09 523.363 1207.31 518.277 1252.38 L 502.748 1246.35 C 489.156 1240.54 474.777 1233.57 461.286 1227.32 C 458.278 1216.28 459.463 1206.37 461.409 1195.25 C 472.073 1134.32 533.619 1084.98 581.89 1051.72 z" fill="rgb(224,209,173)" transform="translate(0,0)"></path>
<path d="M 1320.62 1118.77 C 1328.53 1124.61 1335.82 1131.73 1343.14 1138.3 C 1382.5 1173.69 1403.85 1208.12 1413.35 1260.06 C 1391.52 1266.59 1369.97 1274.07 1347.85 1279.65 C 1329.35 1285.37 1310.05 1289.79 1291.19 1294.25 C 1309.61 1278.44 1328.15 1261.43 1336.9 1238.17 C 1351.78 1198.63 1337.16 1155.37 1320.62 1118.77 z" fill="rgb(224,209,173)" transform="translate(0,0)"></path>
<path d="M 1094.84 956.379 C 1176.29 967.216 1282 997.488 1351.94 1041.56 C 1333.62 1060.33 1321.72 1072.62 1299.52 1087.44 C 1248.55 1019.22 1171.17 981.412 1091.3 958.578 L 1094.84 956.379 z" fill="rgb(224,209,173)" transform="translate(0,0)"></path>
<path d="M 590.104 1047.52 C 680.853 988.223 803.866 955.484 911.224 949.663 L 913.212 950.655 L 912.336 951.803 C 887.086 952.577 848.876 961.713 824.397 968.913 C 742 993.15 686.748 1021.37 623.534 1078.87 C 612.487 1070.74 599.14 1057.59 590.104 1047.52 z" fill="rgb(224,209,173)" transform="translate(0,0)"></path>
<path d="M 567.823 1167.83 C 568.731 1175.45 564.779 1186.02 564.041 1193.91 C 561.042 1225.96 573.612 1253.72 593.533 1278.16 L 564.223 1269.1 C 556.218 1266.56 533.489 1261.22 528.136 1255.65 C 526.413 1253.86 525.932 1251.86 525.842 1249.46 C 524.977 1226.29 552.266 1184.31 567.823 1167.83 z" fill="rgb(224,209,173)" transform="translate(0,0)"></path>
<path d="M 911.224 949.663 C 915.707 948.025 931.545 948.403 937.062 948.707 C 934.156 950.105 915.655 951.963 912.336 951.803 L 913.212 950.655 L 911.224 949.663 z" fill="rgb(155,119,97)" transform="translate(0,0)"></path>
<path d="M 1091.3 958.578 C 1086.19 957.698 1080.78 957.139 1076.09 954.961 L 1077.86 956.082 L 1076.4 955.421 C 1080.55 953.425 1089.51 955.605 1094.84 956.379 L 1091.3 958.578 z" fill="rgb(206,163,132)" transform="translate(0,0)"></path>
<path d="M 1230.03 1895.36 C 1214.03 1904.56 1197.99 1913.52 1181.01 1920.82 C 1138.85 1938.94 1111.84 1941.84 1069.08 1924.61 C 1027.71 1907.94 988.946 1883.02 951.179 1859.52 C 877.521 1813.68 806.673 1763.89 733.902 1716.75 C 563.468 1606.36 377.236 1509.4 224.909 1374.03 C 197.379 1349.56 170.485 1325.22 146.753 1296.94 C 132.591 1280.06 116.901 1261.19 108.419 1240.76 C 104.838 1232.14 103.588 1223.8 107.45 1215.04 C 120.039 1186.49 183.383 1163.16 211.978 1152.31 C 260.676 1293.12 363.284 1435.94 480.153 1527.97 C 544.919 1578.97 632.704 1608.92 712.026 1627.97 C 852.069 1661.69 997.206 1668.78 1139.87 1648.87 C 1198.22 1640.53 1247.72 1630.84 1303.6 1611.54 C 1327.69 1603.4 1353.14 1595.88 1376.2 1585 C 1433.71 1557.57 1486.57 1519.07 1530.46 1472.83 C 1547.55 1454.82 1563.41 1433.31 1580.99 1415.09 C 1589.76 1406 1600.8 1389.57 1608.7 1379.05 C 1639.17 1393.28 1671.22 1404.82 1700.76 1420.35 C 1753.76 1446.94 1797.24 1474.61 1840.61 1515.3 C 1791.98 1509.48 1715.21 1525.29 1667.9 1539.45 C 1633.12 1547.68 1607.54 1558.57 1574.52 1570.48 C 1454.19 1613.84 1338.89 1678.28 1250.54 1772.06 C 1213.16 1811.74 1188.83 1848.24 1230.03 1895.36 z" fill="url(#Gradient6)" transform="translate(0,0)"></path>
<path d="M 1667.9 1539.45 C 1681.93 1510.22 1690.09 1476.45 1695.94 1444.59 C 1696.94 1439.14 1697.63 1424.29 1700.76 1420.35 C 1753.76 1446.94 1797.24 1474.61 1840.61 1515.3 C 1791.98 1509.48 1715.21 1525.29 1667.9 1539.45 z" fill="rgb(206,163,132)" transform="translate(0,0)"></path>
<path d="M 1795.12 1521.42 C 1810.26 1520.03 1826.44 1521.12 1841.57 1522.56 C 1874.67 1525.72 1914.88 1536.78 1936.84 1563.62 C 1951.45 1581.47 1954.98 1604.34 1952.67 1626.74 C 1945.64 1694.88 1890.03 1770.21 1837.99 1812.53 C 1809.27 1835.9 1777.9 1855.81 1744.53 1871.86 C 1637.75 1922.85 1497.99 1942.59 1380.62 1930.6 C 1338.9 1926.2 1272.94 1919.7 1239.87 1892.99 C 1227.65 1883.13 1217.79 1868.42 1216.36 1852.51 C 1214.25 1829.16 1231.28 1805.77 1245.43 1788.89 C 1299.07 1724.88 1387.62 1665.64 1461.06 1627.55 C 1488.24 1613.46 1516.71 1601.7 1545.01 1590.09 C 1624.79 1557.35 1708.6 1528.77 1795.12 1521.42 z" fill="rgb(245,226,188)" transform="translate(0,0)"></path>
<path d="M 1268.2 1836.85 C 1273.43 1775.45 1394.87 1692.65 1445.3 1663.74 C 1485.54 1640.67 1534.18 1617.53 1577.09 1598.34 C 1625.07 1577.57 1675.06 1562.91 1725.91 1550.93 C 1765.07 1541.7 1808.52 1530.8 1847.44 1547.02 C 1853.05 1549.36 1863.95 1553.39 1866.38 1559.06 L 1866.2 1559.59 C 1868.66 1562.09 1867.9 1560.66 1868.7 1563.97 C 1861.63 1592.49 1673.75 1696.96 1640 1713.95 C 1610.69 1728.47 1580.89 1741.98 1550.66 1754.46 C 1519.45 1767.54 1496.46 1776.21 1463.8 1785.24 C 1417.58 1798.02 1372.07 1815.29 1324.86 1824.97 C 1305.91 1828.85 1287.3 1833.6 1268.2 1836.85 z" fill="rgb(84,30,15)" transform="translate(0,0)"></path>
<path d="M 1580.09 1604.31 L 1582.48 1602.82 C 1584.29 1613.17 1574.41 1629.09 1568.67 1637.25 C 1562.33 1646.24 1555.39 1654.78 1547.9 1662.83 C 1541.71 1668.83 1515 1693.81 1512.29 1699.47 L 1509.07 1697.47 L 1508.72 1699.97 C 1512.56 1704.22 1517.41 1703.58 1523.1 1705.33 L 1524.61 1701.15 C 1526.94 1701.93 1528.83 1702.01 1529.83 1703.61 C 1559.8 1717.66 1589.53 1713.58 1621.35 1707.85 L 1622.14 1709.49 C 1625.78 1708.76 1632.34 1707.66 1634.55 1704.92 C 1638.16 1703.2 1639.75 1703.87 1643.64 1704.89 C 1630.14 1712.66 1556.75 1747.15 1544.51 1748.99 L 1539.97 1749.67 C 1538.22 1749.92 1538.91 1749.82 1536.8 1750.29 L 1537.26 1752.56 L 1536.34 1753.25 C 1533.63 1754.49 1529.02 1756.78 1526.38 1757.69 C 1502.54 1767.21 1490.2 1773.25 1464.42 1773.45 C 1467.09 1774.05 1469.87 1774.3 1471.82 1776.04 C 1467.93 1778.13 1467.08 1778.32 1462.75 1779.54 C 1407.47 1797.3 1350.85 1812.74 1294.07 1824.69 C 1287.71 1826.03 1281.33 1827.54 1274.98 1828.96 C 1311.55 1743.19 1436.2 1676.94 1514.13 1635.01 C 1524.89 1629.22 1556.03 1613.5 1567.18 1610.45 L 1570.88 1612.25 C 1574.79 1608.04 1574.59 1606.96 1580.09 1604.31 z" fill="rgb(224,209,173)" transform="translate(0,0)"></path>
<path d="M 1449.21 1764.36 C 1475.11 1762.56 1497.86 1758.9 1523.36 1754.7 L 1526.38 1757.69 C 1502.54 1767.21 1490.2 1773.25 1464.42 1773.45 C 1446.6 1772.42 1433.83 1770.82 1416.56 1764.8 C 1423.91 1761.03 1434.53 1757.82 1442.55 1755.7 C 1439.67 1760.02 1424.9 1761.21 1422.88 1764.74 C 1426.18 1766.05 1424.67 1766.15 1427.6 1765.51 L 1428.54 1763.26 C 1429.37 1764.03 1430.2 1764.79 1431.04 1765.56 L 1432.87 1765.2 C 1439.39 1763.56 1441.15 1763.08 1447.96 1762.84 L 1449.21 1764.36 z" fill="rgb(245,226,188)" transform="translate(0,0)"></path>
<path d="M 1432.87 1765.2 C 1439.39 1763.56 1441.15 1763.08 1447.96 1762.84 L 1449.21 1764.36 C 1443.11 1765 1438.96 1765.12 1432.87 1765.2 z" fill="rgb(137,95,72)" transform="translate(0,0)"></path>
<path d="M 1567.18 1610.45 L 1570.88 1612.25 C 1561.62 1627.88 1536.75 1653.84 1525.16 1669.99 C 1517.79 1678.74 1511.97 1688.68 1504.49 1697.3 C 1500.75 1701.61 1486.07 1710.34 1481.39 1705.21 C 1485.36 1699.75 1495.93 1699.99 1501.54 1692.89 C 1512.86 1678.56 1522.32 1663.76 1533.62 1649.25 C 1544.03 1635.88 1556.57 1624.17 1566.43 1611.44 L 1567.18 1610.45 z" fill="rgb(84,30,15)" transform="translate(0,0)"></path>
<path d="M 1523.54 1730.88 C 1528.36 1730.94 1534.58 1730.68 1539.08 1731.91 C 1513.94 1737.58 1464.76 1745.03 1442.55 1755.7 C 1434.53 1757.82 1423.91 1761.03 1416.56 1764.8 L 1414.27 1762.34 C 1418.83 1760.23 1421.83 1757.59 1427.39 1755.14 C 1460.03 1740.76 1487.95 1733.69 1523.54 1730.88 z" fill="rgb(84,30,15)" transform="translate(0,0)"></path>
<path d="M 1580.09 1604.31 L 1582.48 1602.82 C 1584.29 1613.17 1574.41 1629.09 1568.67 1637.25 C 1562.33 1646.24 1555.39 1654.78 1547.9 1662.83 C 1541.71 1668.83 1515 1693.81 1512.29 1699.47 L 1509.07 1697.47 C 1536.89 1663.35 1564.58 1647.9 1580.09 1604.31 z" fill="rgb(84,30,15)" transform="translate(0,0)"></path>
<path d="M 1523.1 1705.33 L 1524.61 1701.15 C 1526.94 1701.93 1528.83 1702.01 1529.83 1703.61 C 1559.8 1717.66 1589.53 1713.58 1621.35 1707.85 L 1622.14 1709.49 C 1580.3 1720.65 1562.69 1722.49 1523.1 1705.33 z" fill="url(#Gradient5)" transform="translate(0,0)"></path>
<path d="M 1530.79 1751.05 L 1536.8 1750.29 L 1537.26 1752.56 L 1536.34 1753.25 C 1533.63 1754.49 1529.02 1756.78 1526.38 1757.69 L 1523.36 1754.7 C 1497.86 1758.9 1475.11 1762.56 1449.21 1764.36 L 1447.96 1762.84 C 1460.63 1761.32 1473.52 1758.43 1486.19 1756.57 C 1499.28 1754.64 1512.49 1753.16 1525.64 1751.65 L 1530.79 1751.05 z" fill="rgb(99,32,12)" transform="translate(0,0)"></path>
<path d="M 1523.36 1754.7 C 1528.49 1753.79 1531.06 1753.32 1536.34 1753.25 C 1533.63 1754.49 1529.02 1756.78 1526.38 1757.69 L 1523.36 1754.7 z" fill="rgb(224,209,173)" transform="translate(0,0)"></path>
<path d="M 1414.27 1762.34 L 1416.56 1764.8 C 1433.83 1770.82 1446.6 1772.42 1464.42 1773.45 C 1467.09 1774.05 1469.87 1774.3 1471.82 1776.04 C 1467.93 1778.13 1467.08 1778.32 1462.75 1779.54 L 1459.83 1777.07 C 1451.11 1776.23 1416.14 1771.64 1412.41 1764.65 L 1414.27 1762.34 z" fill="rgb(84,30,15)" transform="translate(0,0)"></path>
<path d="M 1471.82 1776.04 C 1467.93 1778.13 1467.08 1778.32 1462.75 1779.54 L 1459.83 1777.07 L 1471.82 1776.04 z" fill="rgb(214,174,122)" transform="translate(0,0)"></path>
<path d="M 1507.34 1750.23 C 1511.26 1748.51 1527.74 1745.64 1531.6 1747.92 L 1530.79 1751.05 L 1525.64 1751.65 C 1519.13 1749.84 1514.07 1750.24 1507.34 1750.23 z" fill="rgb(214,174,122)" transform="translate(0,0)"></path>
<path d="M 1523.54 1730.88 C 1530.61 1729.51 1535.69 1729.58 1542.81 1730.8 L 1542.49 1731.76 L 1539.08 1731.91 C 1534.58 1730.68 1528.36 1730.94 1523.54 1730.88 z" fill="rgb(170,117,73)" transform="translate(0,0)"></path>
<path d="M 1396.6 1710.66 L 1398.44 1713.08 C 1400.27 1725.37 1393.01 1742.29 1388.31 1753.4 C 1379.16 1775.06 1361.05 1803.12 1338.37 1812.3 C 1336.24 1811.37 1336.65 1811.44 1335.7 1809.55 C 1336.05 1801.63 1339.78 1792.82 1342.35 1785.27 C 1349.69 1763.77 1359.91 1745.36 1376.38 1729.5 C 1382.71 1723.41 1389.54 1717.9 1395.69 1711.61 L 1396.6 1710.66 z" fill="rgb(84,30,15)" transform="translate(0,0)"></path>
<path d="M 1346.28 1792.95 C 1356.97 1758 1367.67 1743.16 1393.23 1718.6 C 1385.18 1746.51 1376.38 1769.8 1356.26 1791.31 C 1351.5 1796.52 1347 1800.72 1341.85 1805.56 C 1342.92 1802.42 1345 1795.69 1346.28 1792.95 z" fill="rgb(245,226,188)" transform="translate(0,0)"></path>
<path d="M 1346.28 1792.95 L 1348.62 1792.89 C 1351.18 1791.23 1375.36 1751.27 1376.59 1747.68 L 1375.96 1748.57 L 1376.79 1747.97 L 1375.92 1749.12 C 1377.5 1757.81 1354.32 1782.17 1356.26 1791.31 C 1351.5 1796.52 1347 1800.72 1341.85 1805.56 C 1342.92 1802.42 1345 1795.69 1346.28 1792.95 z" fill="rgb(214,174,122)" transform="translate(0,0)"></path>
<path d="M 1420.62 1748.94 C 1415.92 1751.95 1410.46 1755.46 1408.23 1760.61 C 1407.66 1761.92 1407.93 1761.38 1406.28 1762.33 L 1404.7 1761.05 C 1405.25 1754.13 1435.34 1718.03 1441.92 1709.56 C 1450.59 1698.4 1480.27 1670.83 1494.69 1669.74 L 1495.58 1671.18 L 1493.85 1675.86 C 1473.04 1713.99 1457.05 1725.53 1420.62 1748.94 z" fill="rgb(245,226,188)" transform="translate(0,0)"></path>
<path d="M 1420.62 1748.94 C 1415.92 1751.95 1410.46 1755.46 1408.23 1760.61 C 1407.66 1761.92 1407.93 1761.38 1406.28 1762.33 L 1404.7 1761.05 C 1405.25 1754.13 1435.34 1718.03 1441.92 1709.56 C 1450.59 1698.4 1480.27 1670.83 1494.69 1669.74 L 1495.58 1671.18 L 1493.85 1675.86 C 1491.31 1674.47 1492.59 1674.52 1489.95 1675.26 C 1468.83 1686.02 1433.17 1723.96 1421.14 1744.64 L 1419.75 1745.95 L 1420.62 1748.94 z" fill="rgb(84,30,15)" transform="translate(0,0)"></path>
<path d="M 1489.95 1675.26 C 1492.59 1674.52 1491.31 1674.47 1493.85 1675.86 C 1473.04 1713.99 1457.05 1725.53 1420.62 1748.94 L 1419.75 1745.95 L 1421.14 1744.64 C 1424.55 1742.98 1435.54 1733.38 1439.01 1730.46 C 1441.48 1729.05 1442.22 1728.3 1444.37 1726.48 C 1455.53 1718.56 1491.03 1688.7 1489.95 1675.26 z" fill="rgb(84,30,15)" transform="translate(0,0)"></path>
<path d="M 1439.01 1730.46 C 1439.98 1724.18 1465.7 1699.56 1471.56 1694.55 L 1472.79 1694.69 C 1469.36 1701.82 1445.22 1720.56 1444.37 1726.48 C 1442.22 1728.3 1441.48 1729.05 1439.01 1730.46 z" fill="rgb(170,117,73)" transform="translate(0,0)"></path>
<path d="M 1785.96 1570.98 C 1799.15 1571.28 1815.21 1571.23 1827.54 1575.67 L 1827.86 1576.86 C 1832.85 1578.94 1837.56 1580.36 1842.98 1579.8 L 1842.48 1582.72 C 1841.16 1584.08 1840.05 1585.43 1838.49 1586.46 C 1837.1 1587.9 1836.36 1588.89 1834.74 1589.95 C 1823.12 1598.46 1807.96 1608.83 1797.27 1617.9 C 1796.02 1618.89 1794.44 1620.33 1793.06 1620.94 C 1760.44 1623.68 1677.83 1629.77 1650.74 1639.55 L 1649.73 1639.06 L 1647.32 1640.4 L 1647.54 1641.8 C 1651.51 1643.95 1655.99 1644.97 1660.38 1645.95 C 1700.4 1654.93 1740.9 1643.31 1778.29 1629.07 C 1768.8 1636.56 1736.99 1652.48 1724.61 1659.25 C 1715.23 1664.39 1679.81 1686.07 1673.3 1688.16 C 1635.62 1700.23 1581.25 1697.81 1541.67 1700 L 1539.08 1701.77 C 1535.04 1702.23 1533.58 1702.24 1529.83 1703.61 C 1528.83 1702.01 1526.94 1701.93 1524.61 1701.15 L 1523.1 1705.33 C 1517.41 1703.58 1512.56 1704.22 1508.72 1699.97 L 1509.07 1697.47 L 1512.29 1699.47 C 1515 1693.81 1541.71 1668.83 1547.9 1662.83 L 1548.41 1664.26 C 1559.86 1660.34 1599.45 1631.82 1612.17 1623.64 C 1616.28 1619.84 1621.59 1615.75 1626.7 1613.49 L 1627.91 1614.1 C 1627.79 1617.15 1627.83 1618.36 1627.07 1621.4 C 1625 1624.49 1624.88 1636.37 1624.71 1640.41 C 1647.57 1629.83 1674.41 1620.89 1697.86 1610.83 C 1722.61 1600.21 1744.91 1597.95 1767.14 1580.72 C 1769.03 1578.63 1771.18 1576.69 1773.23 1574.74 L 1779.2 1573.98 L 1779.53 1572.59 C 1782.42 1570.48 1781.69 1571.16 1785.96 1570.98 z" fill="rgb(224,209,173)" transform="translate(0,0)"></path>
<path d="M 1512.29 1699.47 C 1517.15 1700.12 1543.48 1685 1553.44 1681.86 C 1597.43 1667.98 1618.18 1666.56 1663.24 1666.97 L 1664.91 1669.64 C 1649.69 1671.84 1633.13 1672.38 1618.35 1673.93 C 1595.06 1676.38 1545.24 1688.3 1525.41 1700.32 L 1524.61 1701.15 L 1523.1 1705.33 C 1517.41 1703.58 1512.56 1704.22 1508.72 1699.97 L 1509.07 1697.47 L 1512.29 1699.47 z" fill="rgb(84,30,15)" transform="translate(0,0)"></path>
<path d="M 1785.96 1570.98 C 1799.15 1571.28 1815.21 1571.23 1827.54 1575.67 L 1827.86 1576.86 C 1832.85 1578.94 1837.56 1580.36 1842.98 1579.8 L 1842.48 1582.72 C 1841.16 1584.08 1840.05 1585.43 1838.49 1586.46 C 1811.84 1582.78 1797.81 1581.68 1770.63 1582.06 L 1767.14 1580.72 C 1769.03 1578.63 1771.18 1576.69 1773.23 1574.74 L 1779.2 1573.98 L 1779.53 1572.59 C 1782.42 1570.48 1781.69 1571.16 1785.96 1570.98 z" fill="rgb(245,226,188)" transform="translate(0,0)"></path>
<path d="M 1785.96 1570.98 C 1799.15 1571.28 1815.21 1571.23 1827.54 1575.67 L 1827.86 1576.86 C 1817.26 1573.5 1791.64 1574.26 1779.2 1573.98 L 1779.53 1572.59 C 1782.42 1570.48 1781.69 1571.16 1785.96 1570.98 z" fill="rgb(99,32,12)" transform="translate(0,0)"></path>
<path d="M 1649.73 1639.06 C 1668.57 1625.41 1775 1614.93 1797.27 1617.9 C 1796.02 1618.89 1794.44 1620.33 1793.06 1620.94 C 1760.44 1623.68 1677.83 1629.77 1650.74 1639.55 L 1649.73 1639.06 z" fill="rgb(99,32,12)" transform="translate(0,0)"></path>
<path d="M 1612.17 1623.64 L 1617.92 1621.98 C 1618.36 1624.28 1617.6 1624.8 1616.53 1627.43 C 1602.57 1638.06 1564.82 1665.11 1549.89 1667.67 L 1547.62 1667.02 C 1547.77 1664.85 1547.41 1665.74 1548.41 1664.26 C 1559.86 1660.34 1599.45 1631.82 1612.17 1623.64 z" fill="rgb(84,30,15)" transform="translate(0,0)"></path>
<path d="M 1770.63 1582.06 C 1797.81 1581.68 1811.84 1582.78 1838.49 1586.46 C 1837.1 1587.9 1836.36 1588.89 1834.74 1589.95 C 1821.41 1586.75 1772.87 1592.4 1766.64 1586.45 C 1767.83 1582.95 1766.85 1584.58 1770.63 1582.06 z" fill="rgb(84,30,15)" transform="translate(0,0)"></path>
<path d="M 1626.7 1613.49 C 1626.12 1619.27 1625.04 1620.94 1620.4 1624.62 C 1619.14 1625.6 1617.85 1626.53 1616.53 1627.43 C 1617.6 1624.8 1618.36 1624.28 1617.92 1621.98 L 1612.17 1623.64 C 1616.28 1619.84 1621.59 1615.75 1626.7 1613.49 z" fill="rgb(99,32,12)" transform="translate(0,0)"></path>
<path d="M 1524.61 1701.15 L 1525.41 1700.32 C 1531.83 1701.77 1535.36 1700.29 1541.67 1700 L 1539.08 1701.77 C 1535.04 1702.23 1533.58 1702.24 1529.83 1703.61 C 1528.83 1702.01 1526.94 1701.93 1524.61 1701.15 z" fill="rgb(170,117,73)" transform="translate(0,0)"></path>
<path d="M 1663.24 1666.97 C 1666.56 1666.96 1669.65 1666.55 1672.52 1667.8 C 1669.26 1669.28 1668.37 1669.23 1664.91 1669.64 L 1663.24 1666.97 z" fill="rgb(99,32,12)" transform="translate(0,0)"></path>
<path d="M 1610.04 1688.43 C 1615.74 1687.59 1630.7 1686.87 1635.71 1688.37 C 1636.2 1688.51 1636.62 1688.81 1637.07 1689.04 L 1638.79 1688.69 L 1638.8 1688.74 L 1636.82 1688.65 L 1636.32 1689.33 C 1622.95 1690.72 1609.25 1690.15 1595.79 1691.21 C 1586.83 1691.96 1577.78 1694.01 1568.79 1693.62 L 1568.99 1693.05 C 1581.9 1690.3 1596.82 1689.48 1610.04 1688.43 z" fill="rgb(170,117,73)" transform="translate(0,0)"></path>
<path d="M 1642.87 1580.46 C 1642.38 1582.56 1630.6 1606.66 1627.91 1614.1 L 1626.7 1613.49 C 1621.59 1615.75 1616.28 1619.84 1612.17 1623.64 C 1599.45 1631.82 1559.86 1660.34 1548.41 1664.26 L 1547.9 1662.83 C 1555.39 1654.78 1562.33 1646.24 1568.67 1637.25 C 1574.41 1629.09 1584.29 1613.17 1582.48 1602.82 C 1605.87 1593.97 1617.43 1588.22 1642.87 1580.46 z" fill="rgb(245,226,188)" transform="translate(0,0)"></path>
<path d="M 1795.82 1545.1 C 1813.28 1545.41 1827.72 1546.49 1844.59 1551.6 C 1851.24 1553.61 1860.17 1557.38 1866.38 1559.06 L 1866.2 1559.59 C 1861.26 1566.73 1849.76 1578.35 1842.48 1582.72 L 1842.98 1579.8 C 1837.56 1580.36 1832.85 1578.94 1827.86 1576.86 L 1827.54 1575.67 C 1815.21 1571.23 1799.15 1571.28 1785.96 1570.98 C 1789.66 1565.49 1792.5 1561.43 1790.25 1554.72 C 1791.94 1551.71 1793.93 1547.91 1795.82 1545.1 z" fill="rgb(224,209,173)" transform="translate(0,0)"></path>
<path d="M 1827.54 1575.67 C 1831.34 1576.4 1840.55 1577.59 1842.98 1579.8 C 1837.56 1580.36 1832.85 1578.94 1827.86 1576.86 L 1827.54 1575.67 z" fill="rgb(214,174,122)" transform="translate(0,0)"></path>
<path d="M 1650.74 1639.55 C 1677.83 1629.77 1760.44 1623.68 1793.06 1620.94 C 1783.8 1626.75 1773.13 1628.32 1762.32 1631.3 C 1726.48 1641.19 1692.34 1649.05 1655.09 1641.72 C 1653.16 1641.34 1652.16 1640.83 1650.74 1639.55 z" fill="rgb(245,226,188)" transform="translate(0,0)"></path>
<path d="M 1725.5 1632.53 L 1728.52 1632.36 L 1728.37 1633.21 C 1722.28 1634.68 1716.46 1635.13 1710.23 1635.48 L 1706.51 1636.08 L 1706.2 1635.19 C 1712.63 1633.63 1718.92 1633.04 1725.5 1632.53 z" fill="rgb(224,209,173)" transform="translate(0,0)"></path>
<path d="M 1539.08 1701.77 C 1574.87 1704.74 1622.35 1704.2 1657.46 1697.22 C 1652.33 1700.36 1649.11 1702.27 1643.64 1704.89 C 1639.75 1703.87 1638.16 1703.2 1634.55 1704.92 C 1632.34 1707.66 1625.78 1708.76 1622.14 1709.49 L 1621.35 1707.85 C 1589.53 1713.58 1559.8 1717.66 1529.83 1703.61 C 1533.58 1702.24 1535.04 1702.23 1539.08 1701.77 z" fill="rgb(245,226,188)" transform="translate(0,0)"></path>
<path d="M 1634.55 1704.92 C 1632.34 1707.66 1625.78 1708.76 1622.14 1709.49 L 1621.35 1707.85 C 1625.11 1706.63 1630.55 1705.72 1634.55 1704.92 z" fill="rgb(137,95,72)" transform="translate(0,0)"></path>
<path d="M 1642.87 1580.46 C 1646.29 1580.56 1648.55 1579.91 1651.94 1579.31 C 1645.97 1588.56 1637.13 1603.44 1633.64 1614.02 C 1632.54 1617.25 1629.75 1619.06 1627.07 1621.4 C 1627.83 1618.36 1627.79 1617.15 1627.91 1614.1 C 1630.6 1606.66 1642.38 1582.56 1642.87 1580.46 z" fill="rgb(99,32,12)" transform="translate(0,0)"></path>
<path d="M 1651.94 1579.31 C 1655.51 1577.4 1658.21 1576.08 1661.93 1574.47 C 1654.48 1590.71 1646.36 1601.28 1633.64 1614.02 C 1637.13 1603.44 1645.97 1588.56 1651.94 1579.31 z" fill="rgb(245,226,188)" transform="translate(0,0)"></path>
<path d="M 1790.25 1554.72 C 1792.5 1561.43 1789.66 1565.49 1785.96 1570.98 C 1781.69 1571.16 1782.42 1570.48 1779.53 1572.59 L 1779.2 1573.98 L 1773.23 1574.74 C 1779.02 1568.17 1784.69 1561.49 1790.25 1554.72 z" fill="rgb(214,174,122)" transform="translate(0,0)"></path>
<path d="M 1763.83 1549.33 L 1767.1 1549.14 L 1767.29 1550.45 C 1761.85 1557.93 1742.15 1589.69 1737.33 1592.65 C 1734.09 1594.65 1721.91 1596.42 1717.55 1597.65 C 1687.15 1606.18 1660.55 1619.99 1632.49 1634.02 L 1629.71 1634.59 L 1628.64 1633.28 C 1628.86 1619.52 1651.91 1604.66 1658.94 1592.6 C 1662.16 1587.08 1663.57 1580.95 1664.57 1574.72 C 1694.55 1564.18 1732.52 1555.24 1763.83 1549.33 z" fill="rgb(245,226,188)" transform="translate(0,0)"></path>
<path d="M 1787.74 1545.36 L 1790.53 1545.39 C 1789.3 1553.42 1760.13 1578.07 1752.58 1584.33 C 1750.96 1585.24 1751.88 1584.91 1749.8 1585.21 C 1752.22 1578.11 1764.31 1563.66 1769.4 1557.16 C 1775.1 1549.9 1778.33 1546.47 1787.74 1545.36 z" fill="rgb(224,209,173)" transform="translate(0,0)"></path>
<path d="M 1278.96 1869.76 C 1328.65 1864.09 1377.75 1861.74 1426.61 1848.45 C 1540.54 1817.44 1649.61 1766.33 1748.59 1702.17 C 1801.43 1667.93 1846.06 1626.79 1891.06 1583.4 C 1892.44 1582.07 1897.41 1584.17 1898.96 1584.76 L 1904.41 1589.06 C 1930.95 1612.7 1928.85 1641.25 1913.94 1670.83 C 1869.47 1759.11 1773.46 1830.5 1682.69 1865.02 C 1581.03 1903.67 1465.05 1902.47 1358.9 1888 C 1337.67 1885.04 1297.74 1878.49 1278.96 1869.76 z" fill="rgb(224,209,173)" transform="translate(0,0)"></path>
<path d="M 1278.96 1869.76 C 1328.65 1864.09 1377.75 1861.74 1426.61 1848.45 C 1540.54 1817.44 1649.61 1766.33 1748.59 1702.17 C 1801.43 1667.93 1846.06 1626.79 1891.06 1583.4 C 1892.44 1582.07 1897.41 1584.17 1898.96 1584.76 L 1897.66 1586.53 C 1890.28 1585.42 1879.26 1600.83 1874.32 1606.63 C 1881.18 1638.03 1874.55 1665.87 1856.86 1692.37 C 1852.39 1699.05 1830.78 1733.92 1820.76 1725.28 C 1818.12 1709.93 1837.28 1651.28 1844.68 1635.08 C 1829.1 1648.76 1813.97 1662.19 1797.42 1674.76 C 1802.51 1680.34 1802.23 1700.85 1801.83 1708.42 C 1800.1 1741.36 1777.38 1779.51 1752.79 1800.78 C 1749.98 1803.21 1745.6 1807.47 1742.1 1808.11 L 1740.76 1807.02 C 1740.84 1800.14 1745.8 1787.58 1747.75 1780.57 C 1756.94 1747.72 1767.16 1717.73 1781.49 1686.75 C 1760.54 1701.22 1738.06 1717.19 1716.53 1730.41 C 1652.71 1768.8 1585.39 1801.03 1515.47 1826.67 C 1490.74 1835.91 1459.65 1847.46 1434.45 1853.66 C 1394.69 1863.44 1349.01 1869.12 1308.33 1872.66 C 1331.95 1880 1464.21 1897.81 1483 1888.12 C 1493.54 1882.68 1502.2 1873.2 1511.7 1866.15 C 1533.24 1850.16 1571.58 1835.58 1598.22 1832.25 L 1598.61 1832.7 L 1597.05 1833.16 L 1598.66 1834.89 C 1608.33 1831.35 1647.55 1814.26 1652.74 1814.33 L 1652.66 1815.6 C 1638.97 1828.84 1606.98 1833.44 1598.43 1841.15 C 1571.57 1865.39 1566.89 1875.14 1530.75 1889.91 C 1548.31 1888.32 1562.63 1887.99 1580.48 1885.12 C 1680.66 1869.9 1773.42 1823.28 1845.41 1751.96 C 1875.75 1721.56 1917.64 1671.28 1918.73 1625.5 C 1919.08 1610.75 1911.72 1600.34 1901.73 1590.36 L 1904.41 1589.06 C 1930.95 1612.7 1928.85 1641.25 1913.94 1670.83 C 1869.47 1759.11 1773.46 1830.5 1682.69 1865.02 C 1581.03 1903.67 1465.05 1902.47 1358.9 1888 C 1337.67 1885.04 1297.74 1878.49 1278.96 1869.76 z" fill="rgb(84,30,15)" transform="translate(0,0)"></path>
<path d="M 1786.72 1682.19 L 1797.42 1674.76 C 1796.38 1682.63 1796.23 1699.36 1795.78 1708.61 C 1794.38 1737.28 1766.48 1786.78 1744.67 1804.92 C 1752.43 1779.77 1762.03 1752.9 1770.26 1727.74 C 1775 1713.26 1783.01 1696.66 1786.72 1682.19 z" fill="rgb(245,226,188)" transform="translate(0,0)"></path>
<path d="M 1788.49 1700.75 C 1789.77 1718.36 1771.39 1764.35 1762.11 1780.57 C 1761.1 1775.71 1769.45 1761.43 1771.42 1756.13 C 1778.18 1737.99 1783.3 1719.39 1788.49 1700.75 z" fill="rgb(170,117,73)" transform="translate(0,0)"></path>
<path d="M 1490.21 1891.01 C 1534.9 1853.7 1544 1852.09 1597.05 1833.16 L 1598.66 1834.89 C 1587.81 1841.81 1579.24 1851.96 1569.37 1859.51 C 1555.16 1870.38 1529.73 1888.56 1511.91 1890.04 L 1510.87 1889.47 L 1510.03 1887.57 C 1503.15 1891.78 1498.44 1890.91 1490.21 1891.01 z" fill="rgb(245,226,188)" transform="translate(0,0)"></path>
<path d="M 1539.62 1869.38 C 1544.02 1866.62 1571.18 1848.88 1573.95 1849.41 C 1569.32 1854.11 1547.28 1867.68 1541 1870.77 L 1539.62 1869.38 z" fill="rgb(214,174,122)" transform="translate(0,0)"></path>
<path d="M 1539.62 1869.38 L 1541 1870.77 C 1532.38 1875.69 1518.89 1883.54 1510.87 1889.47 L 1510.03 1887.57 C 1518.7 1881.49 1530.39 1874.83 1539.62 1869.38 z" fill="rgb(137,95,72)" transform="translate(0,0)"></path>
<path d="M 1866.51 1614.15 L 1869.7 1611.79 L 1871.07 1612.38 C 1873.34 1620.56 1870.63 1639.93 1868.77 1648.24 C 1860.75 1674.67 1845.89 1706.52 1823.91 1724.13 C 1833.43 1695.1 1838.51 1654.87 1853.68 1627.58 C 1855.23 1624.77 1863.79 1616.74 1866.51 1614.15 z" fill="rgb(245,226,188)" transform="translate(0,0)"></path>
<path d="M 1866.51 1614.15 L 1869.7 1611.79 L 1871.07 1612.38 C 1873.34 1620.56 1870.63 1639.93 1868.77 1648.24 L 1867.33 1644.03 L 1866.92 1645.48 C 1865.5 1639.98 1866.61 1621.45 1866.51 1614.15 z" fill="url(#Gradient4)" transform="translate(0,0)"></path>
<path d="M 1860.5 1621.84 C 1861.31 1622.6 1861.28 1622.37 1861.56 1623.56 C 1865.29 1639.52 1843.91 1686.43 1836.1 1701.5 L 1835.19 1700.87 C 1836.68 1693.99 1840.36 1687.23 1843.15 1680.75 C 1851.54 1661.22 1859.01 1643.29 1860.5 1621.84 z" fill="rgb(137,95,72)" transform="translate(0,0)"></path>
<path d="M 1898.96 1584.76 L 1904.41 1589.06 L 1901.73 1590.36 L 1897.66 1586.53 L 1898.96 1584.76 z" fill="rgb(99,32,12)" transform="translate(0,0)"></path>
<path d="M 1701.52 1769.22 C 1709.77 1761.64 1748.36 1729.75 1757.51 1727.45 L 1758.09 1728.43 C 1753.04 1738.46 1713.42 1767.75 1702.65 1772.25 L 1703.14 1772.69 C 1715.86 1778.83 1701.65 1809.02 1696.2 1817.64 C 1684.03 1836.89 1665.92 1850.87 1647.21 1863.34 C 1644.63 1865.61 1643.68 1866.71 1640.47 1865.98 L 1639.71 1863.73 C 1642.44 1849.69 1671.74 1798.73 1682.2 1786.31 C 1689.6 1778.98 1694.41 1775.71 1701.52 1769.22 z" fill="rgb(84,30,15)" transform="translate(0,0)"></path>
<path d="M 1645.86 1861.16 C 1645.84 1861.08 1645.79 1861.01 1645.78 1860.92 C 1645.47 1856.1 1668.14 1815.5 1672.17 1808.6 C 1677.78 1799 1691.32 1775.19 1702.65 1772.25 L 1703.14 1772.69 C 1703 1803.49 1685.63 1823.56 1664.83 1844.55 C 1659.57 1849.85 1651.94 1857.13 1645.86 1861.16 z" fill="rgb(245,226,188)" transform="translate(0,0)"></path>
<path d="M 1693.67 1786.79 C 1694.56 1796.13 1671.88 1827.05 1665.62 1834.96 C 1665.39 1832.44 1690.09 1791.87 1693.67 1786.79 z" fill="rgb(170,117,73)" transform="translate(0,0)"></path>
<path d="M 1439.3 1863.19 C 1456.15 1857.21 1477.29 1855.02 1495.03 1850.38 C 1512.65 1846.3 1529.97 1839.49 1547.19 1834.38 C 1579.84 1824.7 1609.65 1812.07 1640.01 1796.71 C 1651.36 1790.97 1663.87 1785.99 1675.33 1780.21 C 1681.57 1777.07 1694.37 1765.04 1699.75 1765.43 L 1701.11 1767.66 L 1701.52 1769.22 C 1694.41 1775.71 1689.6 1778.98 1682.2 1786.31 L 1680.9 1785.03 L 1679.24 1786.29 C 1676.31 1789.11 1670.94 1793.9 1668.87 1797.07 C 1668 1801.76 1662.96 1802.4 1658.96 1801.01 L 1658.12 1799.03 L 1659.24 1797.14 L 1657.98 1794.82 C 1586.85 1828.19 1519.54 1858.09 1439.3 1863.19 z" fill="rgb(84,30,15)" transform="translate(0,0)"></path>
<path d="M 1659.24 1797.14 C 1661.17 1795.96 1664.73 1793.26 1666.7 1791.85 L 1666.83 1795.35 L 1668.87 1797.07 C 1668 1801.76 1662.96 1802.4 1658.96 1801.01 L 1658.12 1799.03 L 1659.24 1797.14 z" fill="rgb(84,30,15)" transform="translate(0,0)"></path>
<path d="M 1668.21 1789.84 C 1672.05 1785.75 1673.97 1786.23 1679.24 1786.29 C 1676.31 1789.11 1670.94 1793.9 1668.87 1797.07 L 1666.83 1795.35 L 1666.7 1791.85 L 1668.21 1789.84 z" fill="rgb(93,47,33)" transform="translate(0,0)"></path>
<path d="M 1680.9 1785.03 C 1684.05 1780.67 1696.46 1771.2 1701.11 1767.66 L 1701.52 1769.22 C 1694.41 1775.71 1689.6 1778.98 1682.2 1786.31 L 1680.9 1785.03 z" fill="rgb(170,117,73)" transform="translate(0,0)"></path>
<path d="M 1668.21 1789.84 L 1666.7 1791.85 C 1664.73 1793.26 1661.17 1795.96 1659.24 1797.14 L 1657.98 1794.82 L 1668.21 1789.84 z" fill="rgb(214,174,122)" transform="translate(0,0)"></path>
<path d="M 1844.74 1610.64 L 1845.95 1611.17 C 1804.98 1652.54 1736.47 1693.31 1685.41 1721.58 C 1610.72 1762.91 1531.92 1801.65 1449.2 1824.02 C 1407.7 1835.53 1365.26 1843.6 1323.18 1852.72 C 1316.59 1854.14 1282.88 1861.15 1277.85 1860.91 C 1284.5 1858.16 1304.79 1854.67 1312.99 1852.88 L 1397.75 1834.36 C 1479.57 1815.69 1550.44 1790.51 1625.13 1751.73 C 1678.46 1724.05 1729.59 1696.81 1778.99 1662.34 C 1795.22 1651.18 1811.01 1639.39 1826.31 1626.99 C 1831.15 1622.99 1840.6 1611.87 1844.74 1610.64 z" fill="rgb(170,117,73)" transform="translate(0,0)"></path>
<path d="M 1313.98 1743.63 L 1314.06 1743.61 C 1310.63 1750.57 1301 1758.41 1295.59 1764.39 C 1278.5 1783.3 1261.07 1805.92 1251.91 1829.96 C 1247.42 1841.72 1244.13 1857.5 1249.85 1869.27 C 1255 1879.86 1266.66 1885.77 1277.29 1889.54 C 1365.8 1920.98 1528.5 1922.06 1619.07 1895.84 C 1626.73 1893.62 1636.03 1893.27 1643.17 1889.81 C 1649.64 1886.66 1685.84 1873.09 1692.12 1872.43 L 1692.21 1873.43 C 1681.41 1876 1670.71 1881.04 1660.23 1884.8 C 1644.22 1890.39 1627.98 1895.28 1611.55 1899.47 C 1521.31 1921.71 1399.4 1923.3 1309.03 1901.31 C 1289.86 1896.65 1259.14 1891 1248.61 1872.69 C 1242.81 1862.62 1243.57 1850.75 1246.63 1839.94 C 1254.98 1810.47 1276.78 1783.37 1296.65 1760.56 C 1301.94 1754.48 1306.9 1747.64 1313.98 1743.63 z" fill="rgb(170,117,73)" transform="translate(0,0)"></path>
<path d="M 1542.18 1775.27 L 1542.3 1775.36 L 1542.37 1776.34 C 1517.23 1788.33 1474.95 1804.95 1448.39 1812.04 L 1447.62 1811.48 C 1457.95 1806.73 1469.31 1803.48 1479.99 1799.5 C 1500.86 1791.78 1521.59 1783.7 1542.18 1775.27 z" fill="rgb(214,174,122)" transform="translate(0,0)"></path>
<path d="M 1747.9 1847.97 L 1748.54 1848.55 L 1748.06 1850.51 C 1733 1856.77 1718.89 1864.12 1703.23 1869.02 L 1702.53 1867.8 C 1718.3 1862.04 1732.86 1855.41 1747.9 1847.97 z" fill="rgb(224,209,173)" transform="translate(0,0)"></path>
<path d="M 1876.99 1749.93 L 1877.61 1750.67 C 1874.15 1757.28 1864.4 1764.64 1858.94 1770.05 L 1858.53 1769.59 C 1859.89 1764.98 1872.94 1753.97 1876.99 1749.93 z" fill="rgb(224,209,173)" transform="translate(0,0)"></path>
<path d="M 1862.25 1592.47 L 1864.12 1593.23 L 1858.79 1598.35 L 1852.54 1604.73 L 1851.8 1603.02 L 1855.47 1598.85 C 1858.21 1595.65 1858.79 1594.68 1862.25 1592.47 z" fill="rgb(224,209,173)" transform="translate(0,0)"></path>
<path d="M 1855.47 1598.85 L 1858.79 1598.35 L 1852.54 1604.73 L 1851.8 1603.02 L 1855.47 1598.85 z" fill="rgb(214,174,122)" transform="translate(0,0)"></path>
<path d="M 1862.25 1592.47 C 1864.77 1590.1 1865.51 1588.53 1868.32 1588.01 C 1867.38 1590.57 1866.12 1591.38 1864.12 1593.23 L 1862.25 1592.47 z" fill="rgb(214,174,122)" transform="translate(0,0)"></path>
<path d="M 1851.8 1603.02 L 1852.54 1604.73 L 1850.23 1607.29 L 1847.9 1606.3 C 1849.13 1604.9 1850.28 1604.18 1851.8 1603.02 z" fill="rgb(224,209,173)" transform="translate(0,0)"></path>
<path d="M 1847.9 1606.3 L 1850.23 1607.29 L 1845.95 1611.17 L 1844.74 1610.64 L 1847.9 1606.3 z" fill="rgb(214,174,122)" transform="translate(0,0)"></path>
<path d="M 197.469 1066.54 C 202.949 1071.59 207.264 1081.56 211.653 1087.99 C 217.298 1096.11 223.193 1104.04 229.33 1111.79 C 259.256 1150.14 297.953 1181.52 338.681 1207.99 C 595.229 1374.71 979.722 1401.64 1272.78 1339.69 C 1325.38 1328.33 1377.16 1313.43 1427.75 1295.09 C 1448.35 1287.7 1471.51 1279.72 1491.35 1270.98 C 1587.91 1228.48 1681 1169.86 1739.52 1080.08 C 1733.92 1100.66 1727.82 1121.1 1721.23 1141.38 C 1716.35 1156.35 1708.71 1182.13 1700.17 1194.61 C 1617.81 1315.03 1455.28 1374.18 1320.5 1406.59 C 1137.05 1450.38 946.892 1458.53 760.364 1430.61 C 681.263 1419.16 621.005 1406.9 544.162 1381.93 C 474.818 1359.39 416.662 1336.56 353.38 1297.58 C 311.135 1271.56 270.542 1238.94 241.772 1197.27 C 238.713 1192.84 233.27 1178.02 230.741 1172.27 C 215.602 1137.87 206.204 1103.08 197.469 1066.54 z" fill="rgb(253,250,239)" transform="translate(0,0)"></path>
<path d="M 252.349 1223.57 C 258.03 1226.8 273.995 1247.56 280.482 1253.77 C 310.425 1282.45 347.476 1305.65 383.718 1325.39 C 426.08 1348.47 470.642 1366.56 516.177 1382.32 C 675.297 1437.38 846.369 1458.83 1014.32 1454.92 C 1202.08 1450.54 1445.11 1407.41 1602.47 1301.38 C 1633.72 1280.33 1660.18 1256.76 1686.12 1229.54 C 1678.74 1245.59 1671.55 1261.74 1662.8 1277.1 C 1653.32 1293.61 1644.21 1311.3 1632.54 1326.36 C 1606.66 1359.73 1558.01 1391.58 1520.23 1410.72 C 1463.97 1439.21 1404.17 1459.81 1343.45 1476.5 C 1095.79 1544.59 802.69 1542.29 557.886 1461.67 C 491.003 1439.64 360.671 1387.43 314.673 1332.79 C 307.41 1324.16 301.803 1313.49 296.051 1303.83 C 280.4 1277.54 266.111 1250.89 252.349 1223.57 z" fill="rgb(253,250,239)" transform="translate(0,0)"></path>
<path d="M 1610.89 1361.14 L 1611.28 1362.14 C 1590.38 1392.62 1553.6 1438.91 1525.69 1462.54 C 1488.76 1493.8 1439.38 1514.14 1394.25 1530.38 C 1233.7 1588.14 1046.5 1610.51 876.485 1596.29 C 742.738 1585.11 539.031 1545.99 430.052 1466.31 C 406.159 1448.84 387.204 1427.59 368.198 1405.1 C 356.686 1391.6 345.419 1376.93 335.313 1362.36 C 460.358 1456.35 643.094 1503.14 796.68 1522.8 C 990.109 1546.85 1186.41 1531.24 1373.61 1476.92 C 1426.98 1461.23 1481.55 1442.37 1530.64 1415.85 C 1559.24 1400.4 1585.23 1380.98 1610.89 1361.14 z" fill="rgb(253,250,239)" transform="translate(0,0)"></path>
<path d="M 449.12 1489.68 C 461.77 1493.67 473.823 1503.94 485.942 1509.81 C 515.099 1523.62 545.053 1535.67 575.645 1545.92 C 838.726 1633.06 1168.97 1632.58 1426.69 1527.35 C 1449.02 1518.23 1470.4 1507.5 1491.93 1496.67 C 1484.23 1504.16 1475.84 1510.89 1467.53 1517.69 C 1340.61 1620.39 1118.81 1652.93 960.501 1649.92 C 808.944 1647.03 611.042 1613.13 486.839 1520.67 C 473.927 1511.06 460.316 1501.29 449.12 1489.68 z" fill="rgb(253,250,239)" transform="translate(0,0)"></path>
<path d="M 1660.78 324.592 C 1628.86 294.127 1557.72 221.998 1569.59 166.751 C 1569.92 165.193 1572.51 164.307 1574.2 164.282 C 1581.17 164.178 1587.42 169.932 1592.56 174.068 C 1624.14 201.853 1667.11 250.737 1669.7 294.316 C 1670.69 311.046 1665.18 320.933 1666.68 340.707 C 1664.66 343.707 1662.41 346.662 1660.26 349.578 C 1689.09 379.117 1714.55 409.976 1735.94 445.267 C 1739.74 451.54 1746.13 461.607 1750.74 466.915 C 1751.43 467.376 1752.27 467.781 1752.63 468.381 C 1751.83 474.472 1775.15 513.68 1779.45 523.961 C 1795.12 561.431 1805.07 595.033 1815.81 633.998 C 1823.35 613.403 1825.31 595.76 1835.31 573.898 C 1812.48 521.476 1819.04 454.303 1862.11 414.112 C 1864.29 412.075 1866.51 409.368 1869.69 409.35 C 1872.52 413.005 1874.4 428.519 1875.49 433.836 C 1884.24 471.582 1881.45 526.949 1854.1 557.587 C 1827.01 587.934 1832.67 608.764 1817.37 643.371 C 1824.41 682.064 1830.15 736.013 1819.83 774.524 C 1816.77 756.485 1817.88 735.901 1817.17 717.385 C 1815.91 684.25 1812.13 645.832 1802.82 614.202 C 1796.25 612.681 1775.01 606.006 1771.46 605.994 C 1719.09 605.805 1681.54 587.008 1649.21 545.572 C 1644.71 539.808 1634.13 530.004 1637.38 521.774 C 1645.59 516.605 1673.03 519.012 1682.81 521.396 C 1728.84 532.611 1752.48 563.797 1776.16 600.981 C 1783.81 603.874 1793.99 606.848 1801.94 609.427 C 1792.84 579.975 1782.97 549.66 1770.46 521.605 C 1731.47 434.165 1665.95 355.008 1590.68 296.241 C 1570.02 280.172 1549.22 262.691 1525.65 251.046 C 1518.95 247.867 1511.59 247.857 1504.55 246.459 C 1460.99 237.811 1419.76 218.618 1381.11 197.223 C 1375.37 194.047 1364.85 189.037 1360.74 184.564 C 1359.32 173.584 1405.43 170.802 1413.71 170.947 C 1458.76 171.737 1503.83 192.605 1530.7 229.322 C 1535.47 235.208 1534.97 248.379 1541.2 252.509 C 1563.92 267.569 1584.97 282.27 1606.16 299.566 C 1625.86 315.644 1642.82 332.223 1660.77 350.125 C 1661.13 341.874 1660.86 332.903 1660.78 324.592 z" fill="rgb(84,30,15)" transform="translate(0,0)"></path>
<path d="M 1661.86 319.074 C 1655.13 316.382 1614.24 265.015 1606.79 256.38 C 1592.9 240.281 1578.96 214.746 1574.93 193.624 C 1573.84 187.908 1569.93 172.978 1573.13 167.937 L 1575.74 167.687 C 1590.26 172.85 1626.86 214.74 1635.46 227.884 C 1653.04 254.766 1670.08 284.37 1664.24 317.428 L 1661.86 319.074 z" fill="rgb(245,226,188)" transform="translate(0,0)"></path>
<path d="M 1598.94 212.724 C 1620.13 223.157 1656.5 292.878 1664.24 317.428 L 1661.86 319.074 C 1658.12 292.804 1619.16 233.112 1598.94 212.724 z" fill="rgb(93,47,33)" transform="translate(0,0)"></path>
<path d="M 1365.63 182.677 C 1407.47 170.534 1446.15 174.651 1484.54 195.476 C 1498.75 203.188 1528.66 227.154 1531.62 243.486 L 1530.3 243.917 L 1528.52 242.875 L 1526.59 243.384 C 1528.75 244.629 1531.56 245.684 1532.44 247.484 L 1530.84 246.957 C 1516.66 242.394 1501.11 241.312 1487.55 237.062 C 1450 225.295 1398.72 203.233 1365.63 182.677 z" fill="rgb(245,226,188)" transform="translate(0,0)"></path>
<path d="M 1526.59 243.384 C 1490.44 220.239 1447.82 201.129 1405.01 192.709 C 1402.09 192.134 1402.37 193.019 1400.62 190.656 C 1403.25 191.167 1405.88 191.64 1408.51 192.076 C 1444.19 198.116 1501.04 219.997 1528.52 242.875 L 1526.59 243.384 z" fill="rgb(93,47,33)" transform="translate(0,0)"></path>
<path d="M 1867.64 413.426 C 1867.95 414.804 1868.22 416.189 1868.45 417.579 C 1878.32 474.572 1880.35 512.468 1845.39 561.201 C 1844 563.733 1843.87 563.559 1841.45 565.243 L 1839.2 567.884 C 1836.89 565.383 1835.16 559.066 1834.22 555.709 C 1821.85 511.623 1826.59 462.928 1856.92 427.041 C 1860.55 422.736 1864.14 417.925 1867.64 413.426 z" fill="rgb(245,226,188)" transform="translate(0,0)"></path>
<path d="M 1841.45 565.243 C 1845.87 543.712 1853.58 523.387 1858.21 501.704 C 1859.93 493.683 1860.38 472.62 1862.38 467.988 C 1869.26 483.256 1845.77 542.982 1845.39 561.201 C 1844 563.733 1843.87 563.559 1841.45 565.243 z" fill="rgb(137,95,72)" transform="translate(0,0)"></path>
<path d="M 1856.39 465.116 L 1857.48 465.524 C 1855.07 472.713 1853.93 481.878 1852.45 489.408 C 1847.85 512.923 1845.89 540.814 1839.25 563.528 L 1838.4 563.222 C 1838.01 561.453 1837.88 561.93 1838.29 560.399 C 1846.16 531.597 1846.72 493.053 1856.39 465.116 z" fill="rgb(155,119,97)" transform="translate(0,0)"></path>
<path d="M 1642.47 523.407 C 1696.78 521.07 1727.35 541.775 1759.42 584.398 C 1763.01 589.17 1766.28 593.308 1769.42 598.507 L 1768.59 599.854 C 1742.43 598.6 1711.61 593.807 1690.14 577.459 C 1676.09 566.76 1648.57 540.871 1641.34 524.978 L 1642.47 523.407 z" fill="rgb(245,226,188)" transform="translate(0,0)"></path>
<path d="M 1668.05 548.882 C 1674.28 550.812 1690.75 563.31 1697.51 567.49 C 1717.52 579.859 1730.64 583.387 1752.7 589.291 C 1740.59 580.449 1716.76 565.086 1707.12 556.777 C 1712.51 558.702 1717.19 562.007 1722.02 565.1 C 1730.04 570.802 1761.14 591.525 1765.62 597.094 L 1765.16 597.806 C 1763.76 596.984 1760.01 594.957 1758.77 594.09 C 1749.22 587.38 1737.65 588.087 1726.65 583.987 C 1704.59 575.77 1686.95 562.5 1668.05 548.882 z" fill="rgb(155,119,97)" transform="translate(0,0)"></path>
<path d="M 603.544 1883.03 C 570.419 1868.52 534.544 1853.31 503.563 1836.08 C 408.819 1783.31 326.001 1711.28 259.246 1625.9 C 256.395 1622.25 243.934 1616.13 238.858 1612.35 C 196.423 1580.76 182.774 1523.56 173.259 1474.29 C 171.463 1464.99 167.836 1445.91 178.984 1442.41 C 187.521 1443.32 206.469 1465.94 212.374 1473.25 C 237.113 1503.86 258.792 1545.66 264.804 1584.9 C 266.381 1595.19 266.055 1611.68 265.981 1622.32 C 332.947 1710.54 443.475 1801.81 544.059 1848.4 C 537.239 1839.74 530.959 1831.05 527.044 1820.63 C 525.798 1820.03 525.263 1819.65 523.936 1819.33 C 522.226 1818.62 521.192 1817.93 519.737 1816.77 C 481.352 1785.61 458.016 1736.17 451.75 1687.68 C 450.258 1680.37 448.884 1652.28 462.047 1654.92 C 480.45 1658.63 501.852 1691.19 509.885 1705.66 C 528.606 1739.37 531.249 1776.75 531.241 1814.12 C 533.08 1824.51 548.768 1847.76 558.81 1852.97 C 611.384 1880.24 670.189 1901.42 728.774 1911.51 C 733.098 1912.26 734.017 1912.53 734.943 1916.26 C 724.765 1925.54 626.166 1892.49 610.699 1886.49 C 574.016 1902.57 538.243 1899.43 499.207 1892.61 C 490.155 1891.03 478.02 1885.91 469.98 1884.89 C 460.304 1884.4 451.744 1885.71 441.99 1886.26 C 416.172 1887.73 396.841 1884.87 371.928 1875.23 C 341.632 1863.52 307.467 1839.13 287.992 1812.43 C 286.618 1810.55 287.313 1808.19 287.882 1806.25 C 292.622 1801.62 301.455 1802.07 307.776 1802.19 C 364.626 1803.27 440.306 1832.57 475.131 1879.17 C 517.982 1891.46 560.286 1896.14 603.544 1883.03 z" fill="rgb(84,30,15)" transform="translate(0,0)"></path>
<path d="M 248.604 1612.43 C 203.786 1582.05 187.975 1520.62 177.819 1470.09 C 176.639 1464.22 174.079 1452.38 177.165 1447.15 C 178.463 1446.47 180.414 1445.42 181.9 1446.76 C 220.806 1481.79 267.317 1560.85 261.526 1614.43 L 260.336 1616.17 C 260.84 1618.12 260.748 1617.06 260.423 1619.37 C 257.125 1619.07 253.493 1615.18 251.684 1612.52 L 248.604 1612.43 z" fill="rgb(245,226,188)" transform="translate(0,0)"></path>
<path d="M 260.336 1616.17 C 251.354 1605.05 230.225 1555.12 221.565 1538.94 C 213.683 1524.21 200.586 1503.04 193.523 1489.21 C 213.031 1514.42 228.395 1548.97 242.652 1577.68 C 247.611 1587.66 255.439 1605.89 261.526 1614.43 L 260.336 1616.17 z" fill="rgb(137,95,72)" transform="translate(0,0)"></path>
<path d="M 248.604 1612.43 C 246.699 1608.1 242.864 1606.35 240.589 1602.65 C 233.461 1591.03 220.722 1570.62 218.274 1557.73 C 219.635 1558.4 233.499 1587.8 236.435 1592.68 C 241.676 1601.38 244.663 1604.87 251.684 1612.52 L 248.604 1612.43 z" fill="rgb(137,95,72)" transform="translate(0,0)"></path>
<path d="M 289.617 1807 C 296.474 1806.88 302.979 1806.95 309.805 1807.11 C 361.432 1808.29 433.81 1839.18 468.599 1877.5 L 468.525 1878.9 L 466.067 1878.64 C 463.056 1880.17 462.479 1880.9 459.262 1881.18 C 454.758 1880.92 449.534 1881 444.964 1880.94 C 425.496 1880.62 405.276 1880.15 386.603 1874.21 C 353.715 1863.73 310.904 1834.7 289.617 1807 z" fill="rgb(245,226,188)" transform="translate(0,0)"></path>
<path d="M 446.514 1873.31 C 443.124 1872.27 344.859 1831.58 344.836 1831.56 C 351.273 1832.01 364.229 1837.34 370.788 1839.91 C 395.443 1849.57 419.776 1860.84 444.382 1870.56 C 448.191 1872.06 462.578 1877.79 466.067 1878.64 C 463.056 1880.17 462.479 1880.9 459.262 1881.18 C 454.758 1880.92 449.534 1881 444.964 1880.94 C 444.174 1876.66 444.401 1878.03 446.514 1873.31 z" fill="rgb(137,95,72)" transform="translate(0,0)"></path>
<path d="M 446.514 1873.31 C 450.619 1874.77 457.479 1876.75 460.547 1879.41 C 460.119 1880 459.691 1880.59 459.262 1881.18 C 454.758 1880.92 449.534 1881 444.964 1880.94 C 444.174 1876.66 444.401 1878.03 446.514 1873.31 z" fill="rgb(245,226,188)" transform="translate(0,0)"></path>
<path d="M 364.229 1857 C 367.405 1857.21 421.284 1874.86 425.905 1876.82 C 406.38 1875.29 381.69 1865.5 364.229 1857 z" fill="rgb(155,119,97)" transform="translate(0,0)"></path>
<path d="M 519.721 1811.89 C 486.979 1784.69 460.246 1722.45 456.679 1680.44 C 454.824 1658.59 458.171 1648.76 477.508 1668.53 C 515.58 1708.45 526.459 1760.57 527.441 1814.02 C 527.427 1814.33 527.413 1814.63 527.399 1814.94 L 525.341 1815.6 L 523.287 1814.18 L 522.423 1813.49 L 519.721 1811.89 z" fill="rgb(245,226,188)" transform="translate(0,0)"></path>
<path d="M 519.721 1811.89 C 519.596 1808.6 510.211 1790.95 507.647 1786.09 C 501.649 1774.73 474.524 1706.99 476.589 1696.43 C 478.121 1698.75 481.091 1711.73 482.642 1715.85 C 493.689 1745.14 503.824 1781.12 520.829 1807.3 L 522.423 1813.49 L 519.721 1811.89 z" fill="rgb(155,119,97)" transform="translate(0,0)"></path>
<path d="M 522.501 1805.57 C 520.151 1792.43 517.829 1778.44 515.132 1765.43 C 513.243 1756.32 510.856 1751.72 509.619 1741.56 C 515.256 1748.98 523.262 1802.56 527.399 1814.94 L 525.341 1815.6 L 523.287 1814.18 L 522.423 1813.49 L 520.829 1807.3 L 522.501 1805.57 z" fill="rgb(155,119,97)" transform="translate(0,0)"></path>
<path d="M 522.501 1805.57 C 523.342 1808.86 524.322 1811.01 523.287 1814.18 L 522.423 1813.49 L 520.829 1807.3 L 522.501 1805.57 z" fill="rgb(253,250,239)" transform="translate(0,0)"></path>
<path d="M 310.51 354.049 C 322.848 339.937 334.76 325.427 347.5 311.758 C 375.491 281.726 407.403 257.499 441.488 234.798 C 463.693 220.01 480.8 208.53 506.161 199.302 L 507.6 201.063 C 506.399 203.334 506.949 202.623 505.059 204.278 C 458.329 231.303 372.282 284.882 342.099 329.488 C 343.039 332.162 342.196 331.251 344.106 332.842 C 313.89 347.667 247.274 453.665 232.186 487.466 C 241.113 482.432 273.24 463.532 281.152 462.775 L 284.182 463.907 L 283.382 464.996 C 282.305 465.496 280.412 466.252 279.565 466.919 C 277.244 469.199 256.132 480.426 251.625 482.998 C 242.365 488.283 235.157 492.934 226.256 499.033 C 204.942 541.908 191.419 593.608 178.265 639.606 C 173.872 654.969 169.763 680.126 163.604 693.909 C 162.59 661.627 181.516 598.523 192.353 565.599 C 177.652 530.903 169.628 489.497 176.995 452.093 C 169.421 439.1 164.743 418.407 163.575 403.558 C 162.582 389.213 163.378 374.8 165.942 360.652 C 170.358 334.85 188.349 279.739 205.079 259.975 C 212.644 266.947 217.246 275.207 221.251 284.675 C 240.676 330.597 236.481 377.403 209.145 419.078 C 204.158 426.682 185.829 447.692 183.969 453.951 C 175.916 481.055 183.833 532.55 195.075 557.155 C 221.829 482.654 255.519 420.94 306.299 359.832 C 307.162 358.321 309.379 355.558 310.51 354.049 z" fill="rgb(84,30,15)" transform="translate(0,0)"></path>
<path d="M 179.235 444.018 C 172.226 433.316 168.001 394.699 169.173 381.505 C 172.591 343.037 189.34 299.163 205.537 264.079 C 215.916 278.357 223.298 298.688 225.989 316.041 C 232.584 358.566 223.529 386.915 199.437 421.044 C 198.188 424.579 196.222 426.844 193.31 429.205 C 189.876 434.124 185.143 441.353 181.199 445.559 C 179.458 444.965 180.085 445.511 179.235 444.018 z" fill="rgb(245,226,188)" transform="translate(0,0)"></path>
<path d="M 193.31 429.205 C 195.105 423.418 198.012 416.869 200.054 410.273 C 206.357 390.025 209.192 368.857 208.441 347.663 C 208.247 340.706 205.537 320.26 205.882 316.564 C 207.93 320.445 207.41 322.837 208.169 327.06 C 212.167 348.95 211.199 370.771 207.16 392.589 C 205.584 401.104 199.689 413.032 199.437 421.044 C 198.188 424.579 196.222 426.844 193.31 429.205 z" fill="rgb(137,95,72)" transform="translate(0,0)"></path>
<path d="M 179.235 444.018 C 181.217 429.429 185.87 412.184 188.887 397.34 C 191.612 383.933 193.564 366.482 196.664 353.806 C 197.449 365.9 184.666 435.593 179.235 444.018 z" fill="rgb(155,119,97)" transform="translate(0,0)"></path>
<path d="M 198.739 307.849 C 200.042 310.068 199.859 311.428 199.021 314.004 C 189.428 343.498 178.141 384.079 179.536 414.86 L 178.612 414.648 C 175.567 388.253 184.857 359.19 190.912 333.523 C 192.947 324.892 196.94 316.876 198.739 307.849 z" fill="rgb(155,119,97)" transform="translate(0,0)"></path>
<path d="M 281.152 462.775 L 284.71 457.853 C 296.819 441.079 322.117 422.67 341.377 415.231 C 392.28 395.568 428.567 399.806 476.93 419.766 C 480.198 422.488 480.086 421.497 480.629 424.722 C 470.754 443.392 427.197 462.599 407.524 468.625 C 373.021 479.391 336.304 480.961 301.007 473.181 C 295.197 471.936 284.661 469.704 279.565 466.919 C 280.412 466.252 282.305 465.496 283.382 464.996 L 284.182 463.907 L 281.152 462.775 z" fill="rgb(245,226,188)" transform="translate(0,0)"></path>
<path d="M 281.152 462.775 L 284.71 457.853 C 296.819 441.079 322.117 422.67 341.377 415.231 C 392.28 395.568 428.567 399.806 476.93 419.766 L 476.68 421.942 L 465.062 418.445 C 455.815 428.512 412.324 412.247 394.083 425.28 C 361.304 424.138 321.792 444.456 294.647 461.446 L 293.978 462.661 L 290.928 466.026 C 287.101 466.102 286.948 465.926 283.382 464.996 L 284.182 463.907 L 281.152 462.775 z" fill="url(#Gradient3)" transform="translate(0,0)"></path>
<path d="M 281.152 462.775 L 284.71 457.853 C 296.819 441.079 322.117 422.67 341.377 415.231 C 392.28 395.568 428.567 399.806 476.93 419.766 L 476.68 421.942 L 465.062 418.445 C 406.188 398.303 345.468 406.926 298.119 449.673 C 293.62 453.735 288.452 460.333 284.182 463.907 L 281.152 462.775 z" fill="rgb(84,30,15)" transform="translate(0,0)"></path>
<path d="M 476.93 419.766 C 480.198 422.488 480.086 421.497 480.629 424.722 C 470.754 443.392 427.197 462.599 407.524 468.625 C 373.021 479.391 336.304 480.961 301.007 473.181 C 295.197 471.936 284.661 469.704 279.565 466.919 C 280.412 466.252 282.305 465.496 283.382 464.996 C 286.948 465.926 287.101 466.102 290.928 466.026 C 292.557 468.701 313 470.3 317.163 470.781 C 360.075 475.742 405.297 469.111 443.297 447.958 C 450.354 444.03 474.384 429.918 476.68 421.942 L 476.93 419.766 z" fill="url(#Gradient2)" transform="translate(0,0)"></path>
<path d="M 394.083 425.28 L 395.612 425.746 C 384.21 428.833 374.284 428.84 363.071 431.425 C 338.389 437.115 322.502 448.228 301.204 458.874 L 302.497 458.588 C 314.545 455.81 331.894 449.485 344.198 445.606 C 363.075 439.717 382.276 434.92 401.706 431.24 L 401.719 431.691 C 373.697 440.614 343.678 445.671 315.947 456.746 C 315.347 456.986 294.434 462.612 293.978 462.661 L 294.647 461.446 C 321.792 444.456 361.304 424.138 394.083 425.28 z" fill="rgb(137,95,72)" transform="translate(0,0)"></path>
<path d="M 432.969 437.234 L 433.5 438.263 C 413.276 449.907 324.066 463.486 300.224 463.743 L 299.167 463.046 L 299.444 462.086 C 340.736 459.634 394.218 450.703 432.969 437.234 z" fill="rgb(155,119,97)" transform="translate(0,0)"></path>
<path d="M 506.161 199.302 C 508.647 197.983 512.32 189.036 514.393 185.902 C 549.897 132.22 619.796 119.656 679.781 123.182 C 687.44 123.632 701.984 124.561 708.087 128.979 C 710.472 136.089 695.563 144.867 690.176 148.526 C 657.776 170.417 623.462 189.743 585.902 201.421 C 563.459 208.399 532.896 214.837 509.262 210.23 C 506.699 209.73 505.641 206.434 505.059 204.278 C 506.949 202.623 506.399 203.334 507.6 201.063 L 506.161 199.302 z" fill="rgb(84,30,15)" transform="translate(0,0)"></path>
<path d="M 510.212 200.009 C 516.566 192.019 522.255 183.565 529.178 176.129 C 555.643 147.704 595.031 133.513 632.958 129.781 C 645.178 128.578 695.116 124.244 702.555 131.544 C 702.076 134.783 700.258 136.102 697.437 137.973 C 642.47 174.426 580.642 207.144 512.971 207.27 C 511.958 207.272 510.881 206.802 509.942 206.45 L 509.606 204.8 L 510.08 204.113 L 510.212 200.009 z" fill="rgb(245,226,188)" transform="translate(0,0)"></path>
<path d="M 510.212 200.009 C 520.967 202.955 543.866 195.871 554.45 192.357 C 559.389 190.718 567.49 186.897 572.35 186.529 C 548.609 199.263 534.03 198.177 510.08 204.113 L 510.212 200.009 z" fill="rgb(206,163,132)" transform="translate(0,0)"></path>
<path d="M 629.751 147.44 C 633.027 147.015 637.528 147.404 640.939 147.538 C 618.087 155.98 592.001 169.423 569.051 178.473 C 553.991 184.411 538.655 189.473 523.328 194.665 C 520.136 196.431 515.802 198.175 512.383 199.681 C 559.581 165.023 567.076 154.364 629.751 147.44 z" fill="rgb(137,95,72)" transform="translate(0,0)"></path>
<path d="M 622.129 150.415 C 625.078 149.897 625.248 149.928 628.257 150.09 L 628.047 151.252 C 620.233 155.647 609.921 158.513 601.577 162.274 C 578.586 172.637 557.371 181.476 533.412 189.31 C 530.51 190.627 530.194 190.726 527.084 191.439 L 527.581 190.011 C 556.835 164.181 584.296 154.857 622.129 150.415 z" fill="rgb(245,226,188)" transform="translate(0,0)"></path>
<path d="M 372.708 316.317 C 376.149 312.696 385.461 307.161 389.92 304.645 C 420.172 287.426 454.179 277.874 488.971 276.823 C 518.876 276.075 555.415 277.808 579.114 298.393 C 564.587 320.025 527.833 333.318 503.242 338.102 C 469.025 344.759 431.116 342.469 397.132 334.847 C 389.329 333.097 375.574 330.983 370.034 324.965 C 370.973 323.016 372.064 318.611 372.708 316.317 z" fill="rgb(84,30,15)" transform="translate(0,0)"></path>
<path d="M 376.279 318.876 C 423.193 285.996 522.785 265.167 573.548 298.212 C 545.984 325.598 496.002 337.135 458.246 337.005 C 443.024 336.953 383.489 331.916 374.134 322.486 C 374.979 320.6 375.09 320.595 376.279 318.876 z" fill="rgb(245,226,188)" transform="translate(0,0)"></path>
<path d="M 376.279 318.876 C 406.168 328.929 444.667 311.363 474.808 307.522 C 481.298 306.695 488.878 304.479 495.543 304.783 C 487.142 307.381 467.439 310.775 458.19 312.612 C 443.6 315.633 429.068 318.927 414.601 322.493 C 449.536 324.863 480.055 325.52 513.826 314.748 C 516.912 313.764 524.812 309.817 527.1 310.552 C 520.131 315.324 513.534 316.736 505.564 319.095 C 467.613 330.332 433.98 324.838 395.673 323.809 C 387.844 323.599 382.093 321.331 374.134 322.486 C 374.979 320.6 375.09 320.595 376.279 318.876 z" fill="rgb(155,119,97)" transform="translate(0,0)"></path>
<path d="M 466.745 298.488 L 473.923 298.443 C 471.26 300.396 456.279 301.451 451.829 302.215 C 432.757 305.491 414.811 310.824 396.463 316.786 C 393.774 318.067 393.909 317.996 390.936 318.33 C 398.909 310.333 453.464 299.634 466.745 298.488 z" fill="rgb(155,119,97)" transform="translate(0,0)"></path>
<path d="M 508.947 300.45 C 515.16 299.557 519.465 300.301 525.513 301.181 L 526.201 302.363 C 521.58 304.929 513.482 302.519 508.947 300.45 z" fill="rgb(224,209,173)" transform="translate(0,0)"></path>
<path d="M 313.248 276.004 C 306.015 257.25 313.517 224.468 321.503 206.259 C 337.857 168.966 374.01 141.099 410.446 124.888 C 414.111 123.257 416.766 122.727 420.663 122.907 L 422.27 124.06 C 425.381 146.966 398.759 200.096 383.783 219.723 C 369.846 237.825 353.491 253.929 335.175 267.584 C 329.576 271.796 317.844 276.713 316.521 281.527 C 315.916 278.411 315.882 276.881 314.036 274.269 L 313.248 276.004 z" fill="rgb(84,30,15)" transform="translate(0,0)"></path>
<path d="M 316.591 271.886 C 310.444 250.973 321.667 218.503 331.372 199.981 C 347.281 169.619 387.31 138.363 418.963 125.728 C 406.486 185.733 373.56 236.963 321.985 270.729 C 321.089 271.319 320.187 271.899 319.278 272.467 L 317.971 272.841 L 316.591 271.886 z" fill="rgb(245,226,188)" transform="translate(0,0)"></path>
<path d="M 316.591 271.886 C 319.132 268.031 316.814 257.247 318.201 250.959 C 320.488 240.59 326.395 229.253 331.293 220.307 C 335.304 212.983 360.915 176.769 367.348 175.111 L 367.816 175.957 C 353.583 187.78 333.42 219 325.508 235.4 C 322.348 242.72 319.742 247.205 320.048 255.207 L 320.151 267.993 C 324.094 261.589 352.931 205.864 353.282 205.588 C 345.973 226.579 332.046 250.956 320.437 270.214 C 319.406 271.925 320.115 270.423 319.278 272.467 L 317.971 272.841 L 316.591 271.886 z" fill="rgb(155,119,97)" transform="translate(0,0)"></path>
<path d="M 325.508 235.4 L 328.485 236.412 C 328.925 241.137 322.792 251.056 320.048 255.207 C 319.742 247.205 322.348 242.72 325.508 235.4 z" fill="rgb(224,209,173)" transform="translate(0,0)"></path>
<path d="M 384.644 172.912 C 384.254 189.783 344.071 251.009 330.486 261.888 C 330.443 259.99 341.844 246.774 343.756 244.389 C 361.113 222.745 372.474 197.496 384.644 172.912 z" fill="rgb(155,119,97)" transform="translate(0,0)"></path>
<path d="M 1760.08 433.81 C 1735.16 395.875 1719.36 337.24 1728.31 291.913 C 1728.07 288.585 1738.51 257.581 1743.74 262.424 C 1759.03 276.592 1769.29 305.961 1777.37 325.595 C 1791.89 360.875 1789.33 403.589 1770.43 436.621 C 1764.35 445.109 1755.42 466.317 1752.63 468.381 C 1752.27 467.781 1751.43 467.376 1750.74 466.915 C 1755.17 458.36 1763.5 443.139 1760.08 433.81 z" fill="rgb(245,226,188)" transform="translate(0,0)"></path>
<path d="M 1760.08 433.81 C 1735.16 395.875 1719.36 337.24 1728.31 291.913 C 1728.07 288.585 1738.51 257.581 1743.74 262.424 C 1759.03 276.592 1769.29 305.961 1777.37 325.595 C 1791.89 360.875 1789.33 403.589 1770.43 436.621 L 1766.76 434.165 C 1774.05 420.108 1776.41 407.408 1778.8 391.905 C 1784.47 355.068 1765.56 294.657 1742.57 265.519 C 1716.63 309.494 1737.98 387.914 1762.78 428.111 C 1760.47 430.638 1760.58 430.421 1760.08 433.81 z" fill="rgb(84,30,15)" transform="translate(0,0)"></path>
<path d="M 1762.78 428.111 L 1763.89 428.078 C 1767.79 410.559 1759.85 369.949 1756.37 350.964 C 1755 343.455 1751.58 331.1 1751.95 323.799 C 1758.74 343.672 1764.3 383.148 1766.95 404.948 C 1767.97 413.358 1764.61 428.672 1766.76 434.165 L 1770.43 436.621 C 1764.35 445.109 1755.42 466.317 1752.63 468.381 C 1752.27 467.781 1751.43 467.376 1750.74 466.915 C 1755.17 458.36 1763.5 443.139 1760.08 433.81 C 1760.58 430.421 1760.47 430.638 1762.78 428.111 z" fill="rgb(93,47,33)" transform="translate(0,0)"></path>
<path d="M 1439.61 328.573 C 1476.27 302.835 1541.67 309.03 1578.83 330.697 C 1589.44 336.88 1603.11 348.049 1613.67 352.228 L 1611.98 355.47 C 1578.58 358.087 1550.53 366.554 1516.31 362.199 C 1485.15 358.235 1463.41 349.175 1439.61 328.573 z" fill="rgb(84,30,15)" transform="translate(0,0)"></path>
<path d="M 1445.34 328.341 C 1453.03 324.432 1461.2 321.565 1469.65 319.817 C 1516.75 309.735 1557.39 321.415 1596.88 346.999 L 1601.27 350.022 L 1601.42 351.428 C 1598.2 353.219 1591.85 353.146 1587.84 353.633 C 1586.33 353.997 1584.83 354.387 1583.29 354.613 C 1530.29 362.412 1489.43 359.241 1445.34 328.341 z" fill="rgb(245,226,188)" transform="translate(0,0)"></path>
<path d="M 1581.38 351.684 C 1548.54 347.455 1504.64 345.48 1473.57 334.438 C 1509.97 342.393 1535.82 344.178 1572.21 348.718 L 1572.79 346.737 C 1574.37 346.585 1575.08 346.12 1576.63 345.521 L 1577.6 346.078 C 1583.57 346.623 1590.82 347.974 1596.45 348.19 L 1596.88 346.999 L 1601.27 350.022 L 1601.42 351.428 C 1598.2 353.219 1591.85 353.146 1587.84 353.633 C 1585.96 352.714 1583.47 352.229 1581.38 351.684 z" fill="rgb(155,119,97)" transform="translate(0,0)"></path>
<path d="M 1596.88 346.999 L 1601.27 350.022 L 1601.42 351.428 C 1598.2 353.219 1591.85 353.146 1587.84 353.633 C 1585.96 352.714 1583.47 352.229 1581.38 351.684 C 1586.89 350.835 1592.31 350.572 1597.65 349.436 L 1596.45 348.19 L 1596.88 346.999 z" fill="rgb(224,209,173)" transform="translate(0,0)"></path>
<path d="M 1576.63 345.521 L 1577.6 346.078 C 1581.36 350.706 1581.23 346.265 1582.6 349.449 C 1578.57 349.733 1576.25 349.257 1572.21 348.718 L 1572.79 346.737 C 1574.37 346.585 1575.08 346.12 1576.63 345.521 z" fill="rgb(224,209,173)" transform="translate(0,0)"></path>
<path d="M 1572.79 346.737 C 1561.55 343.104 1548.58 340.304 1536.93 338.121 C 1529.32 336.693 1519.91 336.505 1512.72 334.176 C 1530.65 333.188 1559.18 341.065 1576.63 345.521 C 1575.08 346.12 1574.37 346.585 1572.79 346.737 z" fill="rgb(155,119,97)" transform="translate(0,0)"></path>
<path d="M 1598.59 407.31 C 1636.21 403.62 1697.04 436.179 1715.53 468.831 C 1705.09 469.959 1694.62 470.87 1684.14 471.563 C 1650.58 470.753 1619.38 462.117 1591.12 443.785 C 1584.95 439.408 1567.92 428.907 1566.97 421.08 C 1565.96 412.782 1592.38 408.159 1598.59 407.31 z" fill="rgb(84,30,15)" transform="translate(0,0)"></path>
<path d="M 1688.94 466.824 C 1656.97 466.75 1625.6 458.128 1598.08 441.851 C 1592.78 438.663 1571.51 425.254 1570.22 419.971 C 1572.3 416.782 1576.4 416.712 1579.85 415.502 C 1613.41 403.747 1651.42 421.59 1679.1 439.731 C 1687.67 445.35 1701.03 456.322 1706.57 464.157 L 1705.99 465.331 L 1702.27 465.167 C 1697.84 467.103 1693.85 466.72 1688.94 466.824 z" fill="rgb(245,226,188)" transform="translate(0,0)"></path>
<path d="M 1688.94 466.824 C 1692.27 465.84 1692.98 467.302 1695.25 465.315 C 1693.39 463.73 1679.61 459.676 1676.13 458.399 C 1660.02 452.488 1612.23 436.13 1600.98 426.176 C 1602.18 426.19 1627.78 438.191 1631.98 440.018 C 1654.89 449.979 1679.24 456.111 1702.27 465.167 C 1697.84 467.103 1693.85 466.72 1688.94 466.824 z" fill="rgb(155,119,97)" transform="translate(0,0)"></path>
<path d="M 382.573 1720.81 C 370.471 1709.18 356.39 1687.71 348.723 1670.92 C 340.426 1652.75 324.849 1607.73 331.259 1587.09 C 332.016 1584.65 334.086 1584.24 336.221 1583.3 C 364.224 1606.2 390.846 1659.37 394.749 1695.5 C 395.849 1705.69 394.049 1719.97 393.705 1730.45 C 393.441 1738.52 394.77 1745.04 395.068 1752.65 C 391.607 1742.43 390.696 1737.12 389.637 1726.28 C 387.473 1724.7 384.382 1722.62 382.573 1720.81 z" fill="rgb(245,226,188)" transform="translate(0,0)"></path>
<path d="M 336.221 1583.3 C 364.224 1606.2 390.846 1659.37 394.749 1695.5 C 395.849 1705.69 394.049 1719.97 393.705 1730.45 C 393.441 1738.52 394.77 1745.04 395.068 1752.65 C 391.607 1742.43 390.696 1737.12 389.637 1726.28 C 387.473 1724.7 384.382 1722.62 382.573 1720.81 L 384.326 1718.8 L 385.067 1719.29 C 387.287 1720.86 387.64 1721.51 390.246 1721.83 C 391.557 1711.57 390.566 1705.7 389.8 1695.87 C 387.621 1667.91 356.704 1601.11 334.884 1584.66 L 336.221 1583.3 z" fill="rgb(84,30,15)" transform="translate(0,0)"></path>
<path d="M 382.573 1720.81 C 370.471 1709.18 356.39 1687.71 348.723 1670.92 C 340.426 1652.75 324.849 1607.73 331.259 1587.09 C 332.016 1584.65 334.086 1584.24 336.221 1583.3 L 334.884 1584.66 C 327.231 1617.44 362.584 1694.24 384.326 1718.8 L 382.573 1720.81 z" fill="rgb(84,30,15)" transform="translate(0,0)"></path>
<path d="M 385.067 1719.29 C 387.537 1710.18 347.347 1631.08 350.497 1625.85 C 360.621 1647.8 369.531 1672.13 378.98 1694.52 C 380.929 1699.14 388.049 1718.38 390.246 1721.83 C 387.64 1721.51 387.287 1720.86 385.067 1719.29 z" fill="rgb(137,95,72)" transform="translate(0,0)"></path>
<path d="M 932.184 207.128 L 937.839 207.134 C 952.325 216.937 899.39 263.777 889.978 269.014 C 881.219 273.888 875.821 276.422 866.305 279.595 C 849.25 280.544 859.066 262.951 863.701 255.732 C 879.14 231.685 904.369 213.643 932.184 207.128 z" fill="rgb(93,47,33)" transform="translate(0,0)"></path>
<path d="M 863.43 269.809 C 872.856 244.466 897.481 225.359 921.414 214.453 C 925.859 212.428 929.231 211.045 934.132 210.831 L 935.999 211.937 C 936.923 226.543 881.61 272.257 863.963 274.226 L 862.472 273.276 L 862.442 272.685 L 863.43 269.809 z" fill="rgb(245,226,188)" transform="translate(0,0)"></path>
<path d="M 863.43 269.809 C 879.143 263.203 903.199 235.638 913.187 232.042 C 907.882 240.384 872.05 267.722 862.442 272.685 L 863.43 269.809 z" fill="rgb(155,119,97)" transform="translate(0,0)"></path>
<path d="M 1876.56 1263.37 C 1876.81 1263.45 1877.07 1263.53 1877.31 1263.63 C 1889.62 1268.91 1899.83 1287.16 1904.44 1299.2 C 1911.6 1317.9 1911.52 1340.27 1903.35 1358.66 L 1901.13 1357.87 C 1888.12 1342.04 1877.35 1328.2 1872.41 1307.78 C 1868.81 1292.91 1868.44 1276.79 1876.56 1263.37 z" fill="rgb(84,30,15)" transform="translate(0,0)"></path>
<path d="M 1877.14 1267.17 C 1898.14 1292.53 1908.51 1309.46 1904.29 1343.19 C 1903.87 1346.55 1903.87 1349.08 1901.72 1351.84 C 1899.38 1350.29 1900.42 1351 1899.13 1347.41 L 1897.73 1347.75 L 1896.77 1346.95 C 1880.52 1322.84 1869.29 1296.71 1877.14 1267.17 z" fill="rgb(245,226,188)" transform="translate(0,0)"></path>
<path d="M 1895.25 1331.67 C 1894.99 1328.13 1894.68 1324.59 1894.31 1321.06 L 1898.1 1327.73 C 1900.43 1318.22 1883.92 1294.84 1886.21 1291.39 C 1894.78 1306.27 1904.31 1322.74 1900.78 1340.63 C 1900.22 1343.43 1899.34 1343.9 1899.13 1347.41 L 1897.73 1347.75 L 1896.77 1346.95 C 1896.11 1328.81 1880.86 1313.22 1883.32 1301.73 C 1887.18 1313.46 1890.07 1320.22 1895.25 1331.67 z" fill="rgb(206,163,132)" transform="translate(0,0)"></path>
<path d="M 1313.21 438.204 C 1340.16 436.06 1367.1 451.376 1386.09 469.032 C 1389.12 471.853 1401.15 485.209 1401.64 488.367 C 1372.64 493.416 1339.8 477.954 1320.95 456.187 C 1316.75 451.342 1312.58 444.737 1313.21 438.204 z" fill="rgb(84,30,15)" transform="translate(0,0)"></path>
<path d="M 1315.53 441.844 C 1345.55 441.832 1377.33 462.44 1395.58 485.26 C 1390.53 485.184 1385.48 484.77 1380.48 484.02 C 1353.13 479.951 1331.64 463.604 1315.53 441.844 z" fill="rgb(245,226,188)" transform="translate(0,0)"></path>
<path d="M 1345.32 458.743 C 1353.01 459.445 1373.69 476.923 1387.91 482.186 C 1378.41 482.554 1352.82 464.875 1345.32 458.743 z" fill="rgb(206,163,132)" transform="translate(0,0)"></path>
<path d="M 313.248 276.004 L 314.036 274.269 C 315.882 276.881 315.916 278.411 316.521 281.527 C 309.411 311.089 305.379 324.117 310.51 354.049 C 309.379 355.558 307.162 358.321 306.299 359.832 C 297.613 332.025 305.946 302.639 313.248 276.004 z" fill="url(#Gradient1)" transform="translate(0,0)"></path>
<path d="M 342.099 329.488 C 351.936 325.777 363.73 321.549 372.708 316.317 C 372.064 318.611 370.973 323.016 370.034 324.965 L 368.183 323.65 C 360.405 325.684 351.83 330.045 344.106 332.842 C 342.196 331.251 343.039 332.162 342.099 329.488 z" fill="rgb(84,30,15)" transform="translate(0,0)"></path>
<path d="M 1613.67 352.228 C 1616.42 352.799 1619.39 352.777 1620.56 354.473 C 1616.53 355.396 1616.16 355.393 1611.98 355.47 L 1613.67 352.228 z" fill="rgb(99,32,12)" transform="translate(0,0)"></path>
<metadata><recraft-signature>{"signed_by": "recraft", "signature_b64": "xNWCFaq3T0dyzLpO14TcjZeOF2P1u5mr9YN9GZb6dYXa8WrSW7o9aYpzTLXF9WE5fzuhPoNXBGUUmZq3s9+sBQ==", "signing_algo": "Ed25519", "generation_timestamp": 1778092991, "identifier": "59fc103b-526a-4cb5-822b-964cd10a75e3"}</recraft-signature></metadata></svg>