<svg xmlns="http://www.w3.org/2000/svg" height="1024" preserveAspectRatio="none" style="display: block;" version="1.1" viewBox="0 0 2048 2048" width="1024">
<path d="M 0 0 L 2048 0 L 2048 2048 L 0 2048 L 0 0 z" fill="rgb(254,252,247)" transform="translate(0,0)"></path>
<path d="M 483.639 1182 C 470.693 1155.46 460.68 1129.96 450.065 1102.47 C 446.518 1093.28 434.846 1081.38 429.885 1072.5 C 407.709 1037.23 393.872 1001.25 387.836 960.012 C 365.388 806.671 488.548 687.663 609.39 616.649 C 662.735 585.301 718.568 561.157 777.744 541.147 C 834.549 521.582 892.924 506.914 952.231 497.305 C 1151.65 464.228 1389.57 479.511 1580.87 546.162 C 1715.69 593.136 1869.59 678.625 1933.4 813.089 C 1963.6 876.054 1966.93 948.587 1942.62 1014.05 C 1931.15 1045.86 1920.6 1061.19 1902.75 1088.69 C 1893.4 1103.11 1883.43 1130.31 1875.38 1146.96 C 1861.01 1176.79 1844.88 1205.73 1827.08 1233.64 C 1814.35 1253.45 1798.48 1274.56 1784.27 1293.35 C 1775.42 1305.07 1763.8 1317.6 1755.45 1329.4 C 1808.99 1375.95 1872.34 1409.69 1940.31 1430.75 C 1948.59 1433.32 1960.16 1435.03 1967.71 1438.64 L 1967.42 1440.4 C 1961.53 1444.11 1954.65 1447.04 1948.46 1450.57 C 1924.37 1464.31 1899.51 1476.7 1874.95 1489.66 L 1801.6 1528 C 1789.17 1534.53 1773.85 1543.52 1761.53 1549.18 C 1693.3 1580.49 1623.83 1611.33 1555 1641.26 C 1464.68 1680.54 1373.73 1724.34 1281.37 1758 C 1279.19 1766.13 1274.96 1783.62 1271.07 1790.34 L 1271.19 1791.12 C 1322.54 1802.96 1363.18 1826.06 1403.87 1861.98 C 1431.29 1886.19 1458 1918.16 1414 1949.61 C 1399.23 1960.16 1369.45 1951.2 1353.89 1946.58 C 1309.28 1931.32 1268.13 1906.26 1232.99 1874.93 C 1229.95 1877.76 1215.09 1893.01 1212.86 1896.25 C 1211.52 1902.5 1202.27 1911.4 1197.4 1915.33 C 1181.8 1927.89 1155.34 1932.25 1135.81 1929 C 1112.55 1924.55 1089.84 1911.25 1068.19 1902.19 C 1027.18 1885.04 988.241 1864.62 948.359 1845.18 L 552.265 1648.3 L 397.044 1570.43 C 370.391 1557.35 342.794 1544.98 316.417 1531.22 C 313.348 1529.62 303.91 1521.14 301.98 1518 C 298.795 1512.83 296.366 1507.17 297.614 1500.95 C 289.123 1496.77 286.364 1495.47 280.69 1487.09 C 268.495 1469.07 266.259 1427.95 270.81 1407.83 C 266.606 1404.05 265.089 1402.13 261.586 1397.8 L 262.406 1384.74 C 217.147 1375.55 171.18 1356.84 136.151 1325.51 C 114.503 1306.14 93.2971 1274.3 117.471 1246.91 C 125.154 1238.2 140.313 1232 151.937 1232.74 C 203.054 1235.99 267.155 1276.51 302.879 1312.1 C 307.577 1309.68 309.616 1308.96 314.751 1308.26 C 336.594 1283.03 368.154 1253.33 404.436 1263.09 C 425.141 1268.67 443.828 1279.79 463.39 1288.54 C 509.771 1309.29 554.402 1333.58 600.555 1354.82 C 614.212 1361.11 627.302 1368.49 641.227 1374.69 C 590.11 1331.08 546.357 1281.55 509.374 1225.64 C 504.255 1217.9 489.235 1189.2 484.078 1184.75 L 483.639 1182 z" fill="rgb(101,59,43)" transform="translate(0,0)"></path>
<path d="M 297.614 1500.95 C 489.568 1594.42 680.686 1689.6 870.944 1786.48 L 1049.86 1876.74 C 1061.9 1882.85 1076.73 1889.93 1088.24 1896.25 C 1145.14 1927.52 1159.86 1939.13 1212.86 1896.25 C 1211.52 1902.5 1202.27 1911.4 1197.4 1915.33 C 1181.8 1927.89 1155.34 1932.25 1135.81 1929 C 1112.55 1924.55 1089.84 1911.25 1068.19 1902.19 C 1027.18 1885.04 988.241 1864.62 948.359 1845.18 L 552.265 1648.3 L 397.044 1570.43 C 370.391 1557.35 342.794 1544.98 316.417 1531.22 C 313.348 1529.62 303.91 1521.14 301.98 1518 C 298.795 1512.83 296.366 1507.17 297.614 1500.95 z" fill="rgb(218,199,177)" transform="translate(0,0)"></path>
<path d="M 1215.49 1858.46 C 1214.95 1858.99 1214.39 1859.52 1213.82 1860.03 C 1206.43 1866.75 1192.88 1872.19 1186.53 1862.61 C 1168.14 1834.89 1195.56 1788.84 1224.12 1779.1 C 1232.81 1776.13 1237.6 1776.2 1245.86 1777.24 C 1254.72 1787.38 1257.62 1787.57 1271.07 1790.34 L 1271.19 1791.12 C 1270.19 1790.93 1269.19 1790.75 1268.19 1790.58 C 1241.13 1785.96 1209.01 1784.52 1202.39 1820.31 C 1199.73 1834.73 1207.06 1847.33 1215.49 1858.46 z" fill="rgb(218,199,177)" transform="translate(0,0)"></path>
<path d="M 1140.77 491.459 C 1343.43 485.487 1573.63 529.992 1748.41 637.274 C 1847.58 695.863 1944.13 796.314 1947.91 917.992 C 1951.89 1046.02 1848.97 1154.57 1745.98 1217.18 C 1586.8 1313.95 1389.3 1361.7 1203.5 1365.02 C 964.343 1370.44 697.817 1318.82 514.133 1154.68 C 378.518 1033.5 348.279 866.082 483.415 729.051 C 652.449 557.645 907.78 498.612 1140.77 491.459 z" fill="rgb(254,252,247)" transform="translate(0,0)"></path>
<path d="M 1151.69 514.492 C 1379.27 512.281 1638.54 565.865 1812.12 722.87 C 1936.06 834.972 1946.97 992.954 1827.99 1113.64 C 1690.12 1253.48 1490.1 1309.09 1300.16 1331.07 C 1263.17 1335.32 1226.47 1338.5 1189.5 1339.01 C 1122.43 1340.75 1055.33 1337.33 988.788 1328.77 C 825.253 1307.16 654.024 1248.72 531.605 1134.3 C 409.599 1020.27 390.34 853.743 516.177 732.506 C 678.531 576.087 932.871 518.562 1151.69 514.492 z" fill="rgb(101,59,43)" transform="translate(0,0)"></path>
<path d="M 896.795 989.227 C 946.048 916.372 1024.99 877.336 1109.47 860.998 C 1190.82 844.535 1275.37 861.475 1344.09 908.007 C 1408.06 951.255 1450.77 1006.57 1467.02 1083.86 C 1471.48 1105.08 1472.87 1131.92 1466.37 1152.87 C 1463.29 1170.9 1455.36 1187.76 1443.43 1201.63 C 1393.84 1258.39 1279.62 1282.34 1206.94 1285.69 C 1090.48 1291.05 861.76 1291.58 851.899 1132.05 C 849.155 1087.65 867.094 1022.98 896.795 989.227 z" fill="rgb(254,252,247)" transform="translate(0,0)"></path>
<path d="M 896.795 989.227 C 896.061 995.676 887.838 1014.91 885.608 1023.18 C 835.301 1209.76 1057.44 1266.49 1197.67 1252.3 C 1277.85 1243.95 1417.25 1217.13 1466.37 1152.87 C 1463.29 1170.9 1455.36 1187.76 1443.43 1201.63 C 1393.84 1258.39 1279.62 1282.34 1206.94 1285.69 C 1090.48 1291.05 861.76 1291.58 851.899 1132.05 C 849.155 1087.65 867.094 1022.98 896.795 989.227 z" fill="rgb(218,199,177)" transform="translate(0,0)"></path>
<path d="M 1203.61 916.347 C 1207.95 915.938 1213.85 914.602 1216.74 918.433 C 1214.25 920.443 1214.21 919.753 1210.25 919.923 C 1205.58 920.014 1197.71 920.528 1193.85 918.601 C 1196.92 916.892 1200.08 916.818 1203.61 916.347 z" fill="rgb(114,52,36)" transform="translate(0,0)"></path>
<path d="M 962.501 1123.25 C 969.613 1122.48 986.496 1124.45 992.57 1128.72 C 984.572 1129.55 970.012 1126.66 962.501 1123.25 z" fill="rgb(114,52,36)" transform="translate(0,0)"></path>
<path d="M 1292.61 924.24 C 1298.18 924.016 1308.3 923.637 1312.77 926.708 L 1311.94 928.388 C 1307.19 928.327 1294.98 928.81 1291.49 925.962 L 1292.61 924.24 z" fill="rgb(114,52,36)" transform="translate(0,0)"></path>
<path d="M 1387.5 1063.46 C 1392.01 1063.29 1400.41 1062.08 1403.46 1065.39 L 1401.82 1067.09 C 1395.99 1067.6 1391.45 1067.64 1385.77 1066.25 L 1385.06 1064.84 L 1387.5 1063.46 z" fill="rgb(114,52,36)" transform="translate(0,0)"></path>
<path d="M 1150.13 875.477 C 1154.92 875.351 1164.26 874.378 1167.47 877.377 L 1165.79 878.841 C 1160.27 878.973 1152.88 879.49 1147.72 878.193 L 1147.54 876.843 L 1150.13 875.477 z" fill="rgb(114,52,36)" transform="translate(0,0)"></path>
<path d="M 1181.14 1208.52 C 1187.8 1207.41 1197.7 1205.7 1202.6 1211.04 C 1197.02 1211.43 1184.78 1212.67 1181.14 1208.52 z" fill="rgb(114,52,36)" transform="translate(0,0)"></path>
<path d="M 957.568 1184.04 C 964.805 1184.29 977.003 1187.68 982.989 1191.9 C 975.408 1192.51 963.99 1188.09 957.568 1184.04 z" fill="rgb(114,52,36)" transform="translate(0,0)"></path>
<path d="M 1081.09 1098.46 C 1088.32 1097.51 1099.42 1097.02 1105.88 1100.56 C 1098.74 1101.82 1087.57 1102.08 1081.09 1098.46 z" fill="rgb(114,52,36)" transform="translate(0,0)"></path>
<path d="M 1346.22 1152.49 C 1352.07 1151.86 1359.31 1151.44 1365.09 1152.32 L 1365.48 1153.47 L 1362.77 1154.17 C 1358.74 1154.71 1346.81 1156.22 1343.94 1153.96 L 1346.22 1152.49 z" fill="rgb(114,52,36)" transform="translate(0,0)"></path>
<path d="M 1334.26 974.447 C 1340.17 973.483 1351.62 972.662 1356.47 976.203 C 1350.48 978.26 1339.73 977.667 1334.26 974.447 z" fill="rgb(114,52,36)" transform="translate(0,0)"></path>
<path d="M 1014.27 1015.13 C 1020.3 1014.74 1029.38 1014.11 1033.48 1019.41 C 1026.72 1020.94 1020.12 1018.17 1014.27 1015.13 z" fill="rgb(135,74,49)" transform="translate(0,0)"></path>
<path d="M 899.274 1086 C 904.847 1085.7 915.128 1089.88 919.273 1093.74 C 911.947 1093.24 904.479 1091.38 899.274 1086 z" fill="rgb(114,52,36)" transform="translate(0,0)"></path>
<path d="M 980.355 941.502 C 983.979 940.868 987.661 940.639 991.335 940.819 C 996.229 941.057 998.32 941.349 1001.26 944.661 C 998.513 944.54 995.766 944.368 993.023 944.144 C 989.129 943.794 982.352 943.882 980.355 941.502 z" fill="rgb(135,74,49)" transform="translate(0,0)"></path>
<path d="M 1167.22 1000.28 C 1172.26 999.304 1184.47 998.691 1188.37 1001.96 C 1181.78 1004.28 1173.54 1003.21 1167.22 1000.28 z" fill="rgb(114,52,36)" transform="translate(0,0)"></path>
<path d="M 1250.08 997.476 C 1254.52 997.072 1262.81 995.813 1266.37 997.991 L 1266.62 1000.36 C 1262.33 1001.2 1253.14 1000.81 1250.08 997.476 z" fill="rgb(114,52,36)" transform="translate(0,0)"></path>
<path d="M 1094.86 974.472 C 1099.44 974.048 1106 973.195 1110.26 974.494 L 1111.19 976.591 C 1106.53 977.268 1100.29 977.684 1095.71 976.545 L 1094.86 974.472 z" fill="rgb(114,52,36)" transform="translate(0,0)"></path>
<path d="M 1282.93 1072.41 C 1284.81 1072.47 1286.06 1072.77 1287.92 1073.08 L 1288.3 1073.89 C 1284.11 1075.93 1282.57 1075.66 1277.76 1075.92 C 1275.09 1075.49 1273.54 1075.74 1271.82 1074.27 C 1275.31 1072.6 1279.03 1072.68 1282.93 1072.41 z" fill="rgb(114,52,36)" transform="translate(0,0)"></path>
<path d="M 1060.7 1212.32 C 1067.3 1212.17 1074.52 1212.25 1080.13 1215.67 C 1072.82 1215.54 1067.14 1215.94 1060.7 1212.32 z" fill="rgb(135,74,49)" transform="translate(0,0)"></path>
<path d="M 914.657 1013.11 C 921.188 1012.67 923.558 1013 928.904 1016.8 C 922.399 1017.43 920.281 1016.42 914.657 1013.11 z" fill="rgb(101,59,43)" transform="translate(0,0)"></path>
<path d="M 1076.43 907.5 C 1080.86 907.016 1082.04 906.642 1086.27 907.59 L 1087.31 909.572 C 1082.88 910.118 1081.49 910.577 1077.26 909.586 L 1076.43 907.5 z" fill="rgb(114,52,36)" transform="translate(0,0)"></path>
<path d="M 1453.44 1010.44 C 1507.47 1037 1569.25 1087.16 1572.93 1152.2 C 1576.36 1212.53 1526.53 1266.37 1474.18 1288.74 C 1459.37 1295.08 1435.59 1298.86 1419.08 1302.13 C 1356.07 1314.85 1292.26 1323.25 1228.1 1327.26 C 1052.45 1337.07 871.732 1312.56 710.272 1239.88 C 690.335 1230.91 652.897 1212.87 635.978 1199.52 C 621.519 1188.12 616.175 1152.79 615.297 1134.8 C 613.052 1088.84 643.607 1038.21 675.333 1006.18 C 762.012 918.671 888.61 875.845 1007.8 857.1 C 1041.85 851.744 1073.45 847.407 1107.94 846.891 C 1111.2 847.077 1116.35 846.876 1118.83 848.603 C 1059 858.811 1003.56 878.223 953.823 914.046 C 942.637 922.101 930.44 935.801 919.527 942.494 C 902.689 952.821 880.571 959.002 863.656 970.311 C 791.918 1011.1 712.216 1089.8 745.68 1179.75 C 750.647 1193.11 768.369 1221.47 782.196 1227.44 L 782.9 1226.52 C 779.843 1220.9 774.564 1215.9 770.34 1210.84 C 764.108 1203.28 758.789 1195.01 754.494 1186.21 C 726.483 1128.56 756.664 1067.27 799.31 1026.59 C 832.39 995.026 865.904 975.663 906.682 956.241 C 885.235 980.733 867.21 1010.2 855.883 1040.76 C 838.393 1087.96 831.85 1141.85 853.805 1188.73 C 873.926 1231.69 916.529 1257.77 959.696 1273.48 C 1069.21 1313.32 1278.75 1306.72 1384.19 1257.01 C 1421.3 1239.51 1457.98 1214.24 1472.23 1174.03 C 1492.04 1118.12 1477.83 1062.13 1453.44 1010.44 z" fill="rgb(254,252,247)" transform="translate(0,0)"></path>
<path d="M 573.943 1157.26 C 554.838 1145.91 497.593 1086.52 490.538 1066.31 C 441.864 926.888 580.988 797.61 690.657 740.995 C 914.41 625.487 1179.36 609.239 1422.33 662.613 C 1473.99 673.962 1527.25 689.49 1574.96 710.377 C 1584.1 738.558 1585.42 766.32 1572.63 794.228 C 1570.81 798.207 1567.43 803.821 1564.21 806.683 C 1544.79 797.673 1524.9 789.712 1504.62 782.834 C 1264.8 703.65 971.986 705.968 743.176 819.076 C 640.966 869.602 521.69 972.449 550.837 1099.91 C 555.604 1120.75 564.221 1138.43 573.943 1157.26 z" fill="rgb(254,252,247)" transform="translate(0,0)"></path>
<path d="M 472.492 1039.26 C 469.098 1033.48 465.28 1026.12 462.306 1020.03 C 436.506 966.386 433.273 904.643 453.329 848.6 C 488.191 749.302 590.866 674.32 682.353 630.652 C 709.166 617.573 736.553 605.704 764.43 595.079 C 942.15 529.04 1151.89 510.567 1339.16 537.075 C 1372.52 541.798 1427.86 549.895 1457.92 560.5 C 1500.19 587.825 1539.15 617.718 1560.53 664.951 C 1564.06 672.758 1571.09 688.268 1571.92 696.807 C 1402.65 631.417 1199.21 608.573 1018.85 630.848 C 859.236 652.127 689.378 702.674 569.332 814.768 C 516.929 863.699 473.654 926.879 469.715 1000.45 C 469.033 1013.2 470.776 1026.6 472.492 1039.26 z" fill="rgb(254,252,247)" transform="translate(0,0)"></path>
<path d="M 616.325 1187.45 C 594.186 1172.56 575.528 1141.57 567.188 1116.96 C 511.617 952.998 703.308 838.853 829.71 794.187 C 1017.15 727.951 1218.67 724.69 1410.79 767.972 C 1461.34 779.359 1510.32 793.89 1556.72 815.61 C 1541.09 842.92 1493.28 867.968 1463.54 876.39 C 1459.91 877.416 1455.94 878.104 1452.06 879.26 C 1261.22 817.639 1025.28 818.551 836.819 891.022 C 725.174 933.955 560.647 1047.53 616.325 1187.45 z" fill="rgb(254,252,247)" transform="translate(0,0)"></path>
<path d="M 1230.61 847.92 C 1288.43 853.546 1379.65 865.118 1434.78 885.693 C 1550.29 916.893 1732.75 1024.53 1693.38 1168.54 C 1689.11 1184.28 1682.56 1199.31 1673.94 1213.15 C 1653.95 1223.9 1627.78 1235.92 1606.68 1244.52 C 1594.8 1252.24 1517.2 1277.8 1500.98 1282.34 C 1580.96 1227.65 1608.92 1147.01 1541.58 1068.1 C 1514.74 1036.64 1483.12 1019.11 1447.35 1000.02 C 1399.99 917.772 1314.7 865.407 1222.64 848.497 L 1230.61 847.92 z" fill="rgb(254,252,247)" transform="translate(0,0)"></path>
<path d="M 1434.78 885.693 C 1550.29 916.893 1732.75 1024.53 1693.38 1168.54 C 1689.11 1184.28 1682.56 1199.31 1673.94 1213.15 C 1653.95 1223.9 1627.78 1235.92 1606.68 1244.52 C 1618.44 1223.93 1632.96 1182.3 1634.9 1158.86 C 1643.72 1055.61 1563.75 978.661 1487.64 922.297 C 1479.14 916 1438.69 891.305 1434.78 885.693 z" fill="rgb(218,199,177)" transform="translate(0,0)"></path>
<path d="M 1457.92 560.5 C 1472 562.063 1508.4 572.561 1522.93 577.095 C 1637.34 613.811 1758.2 672.342 1837.99 764.567 C 1880.22 813.372 1908.2 883.883 1900.63 948.579 C 1894.28 1002.81 1864.73 1062.03 1826.53 1101.62 C 1831.93 1088.79 1838.06 1076.09 1842.56 1063.01 C 1859.29 1014.29 1852.8 963.631 1833.46 916.474 C 1797.61 829.09 1710.75 767.823 1630.22 724.611 C 1617.58 717.83 1605.46 712.227 1592.43 706.349 C 1587.2 703.993 1576.06 699.333 1571.92 696.807 C 1571.09 688.268 1564.06 672.758 1560.53 664.951 C 1539.15 617.718 1500.19 587.825 1457.92 560.5 z" fill="rgb(218,199,177)" transform="translate(0,0)"></path>
<path d="M 1556.72 815.61 C 1685.48 874.04 1827.04 996.496 1754.7 1152.77 C 1752.21 1158.08 1749.75 1163.41 1747.32 1168.75 C 1729 1181.01 1711.96 1192.42 1692.64 1203.15 C 1713.16 1150.48 1715.92 1113.3 1693.2 1059.43 C 1659.26 978.937 1558.45 919.368 1479.82 889.175 C 1470.62 885.709 1461.37 882.403 1452.06 879.26 C 1455.94 878.104 1459.91 877.416 1463.54 876.39 C 1493.28 867.968 1541.09 842.92 1556.72 815.61 z" fill="rgb(218,199,177)" transform="translate(0,0)"></path>
<path d="M 1574.96 710.377 C 1671.64 752.295 1783.46 822.103 1825.85 923.71 C 1862.45 1011.44 1837.55 1101.53 1761.27 1158.59 C 1836.03 1013.59 1715.34 885.731 1593.92 821.601 C 1584.94 816.854 1572.48 811.765 1564.21 806.683 C 1567.43 803.821 1570.81 798.207 1572.63 794.228 C 1585.42 766.32 1584.1 738.558 1574.96 710.377 z" fill="rgb(218,199,177)" transform="translate(0,0)"></path>
<path d="M 1123.57 845.458 C 1134.02 843.735 1169.63 843.499 1180.17 844.785 L 1180.78 845.322 C 1162.79 846.24 1145.49 846.513 1127.4 847.694 L 1128.01 846.513 L 1123.57 845.458 z" fill="rgb(153,114,95)" transform="translate(0,0)"></path>
<path d="M 1197.3 844.76 C 1206.9 844.9 1221.45 845.672 1230.61 847.92 L 1222.64 848.497 C 1219.56 849.182 1200.96 846.133 1197.3 844.76 z" fill="rgb(153,114,95)" transform="translate(0,0)"></path>
<path d="M 1123.57 845.458 L 1128.01 846.513 L 1127.4 847.694 L 1118.83 848.603 C 1116.35 846.876 1111.2 847.077 1107.94 846.891 C 1113.28 846.088 1118.2 845.815 1123.57 845.458 z" fill="rgb(218,199,177)" transform="translate(0,0)"></path>
<path d="M 386.692 1271.28 C 394.651 1270.94 404.656 1273.45 411.956 1276.65 C 475.352 1304.44 536.97 1337.11 599.419 1366.81 C 761.811 1445.19 923.291 1525.46 1083.83 1607.58 C 1138.55 1635.83 1193.49 1663.65 1248.65 1691.04 C 1231.23 1695.96 1221.95 1699.36 1207.64 1710.6 C 1174.63 1736.52 1153.79 1769.23 1136.62 1806.74 L 1133.21 1814.47 C 1083.05 1792.65 1029.13 1765.31 979.51 1741.32 C 871.946 1689.56 764.754 1637.04 657.943 1583.74 L 387.908 1450.39 C 354.903 1433.74 313.774 1415.72 282.985 1397.84 C 294.359 1352.98 336.854 1279.29 386.692 1271.28 z" fill="rgb(254,252,247)" transform="translate(0,0)"></path>
<path d="M 1743.15 1342.17 C 1744.96 1340.05 1746.86 1337.69 1748.81 1335.72 C 1783.09 1364.64 1819.44 1391.26 1860.71 1409.4 C 1890.41 1422.45 1924.93 1436.16 1957.09 1440.75 C 1933.74 1454.98 1892.88 1473.1 1867.01 1486.23 C 1821.06 1510.03 1774.65 1532.96 1727.82 1554.98 C 1669.09 1582.02 1608.2 1607.22 1548.97 1633.73 L 1384.98 1706.81 C 1355.11 1719.88 1313.53 1738.7 1282.84 1748.12 C 1285.57 1698.16 1265.16 1686.99 1223.42 1667.48 C 1213.91 1663.03 1203.27 1657.42 1193.86 1652.58 L 1079.37 1594.03 C 1066.83 1587.62 1052.35 1581.15 1040.24 1574.6 C 1037.75 1573.77 1026.28 1567.64 1023.65 1566.27 L 987.684 1547.72 C 1042.95 1560.84 1134.91 1566.72 1191.64 1564.65 C 1339.47 1559.26 1497.22 1528.06 1622.57 1445.83 C 1666.17 1417.22 1707.59 1379.99 1743.15 1342.17 z" fill="rgb(254,252,247)" transform="translate(0,0)"></path>
<path d="M 987.684 1547.72 C 1042.95 1560.84 1134.91 1566.72 1191.64 1564.65 C 1339.47 1559.26 1497.22 1528.06 1622.57 1445.83 C 1666.17 1417.22 1707.59 1379.99 1743.15 1342.17 C 1751.95 1420.92 1669.93 1492.46 1605.02 1522.15 C 1520.99 1560.58 1416.26 1582.71 1324.58 1593.52 C 1252.61 1602.01 1173.69 1602.96 1102.61 1588.73 C 1092.28 1586.55 1046.15 1571.08 1040.24 1574.6 C 1037.75 1573.77 1026.28 1567.64 1023.65 1566.27 L 987.684 1547.72 z" fill="rgb(218,199,177)" transform="translate(0,0)"></path>
<path d="M 518.833 1219.93 C 551.618 1251.93 572.855 1266.69 610.665 1291.7 C 752.553 1385.56 931.597 1426.94 1099.65 1436.29 C 1248.07 1444.55 1414.91 1423.85 1555.38 1373.52 C 1601.46 1356.76 1646.36 1336.91 1689.77 1314.12 C 1724.58 1296.17 1779.77 1265.58 1808.68 1239.58 C 1800.47 1253.53 1792.15 1264.7 1782.49 1277.54 C 1769.56 1294.36 1745.92 1325.7 1731.41 1339.45 C 1710.43 1359.31 1665.79 1385.03 1639.12 1398.79 C 1457.1 1492.66 1214.15 1515.52 1013.93 1490.69 C 952.792 1482.96 892.416 1470.1 833.433 1452.27 C 777.143 1434.79 723.1 1410.76 672.412 1380.68 C 662.636 1374.83 646.884 1365.5 638.503 1358.39 C 615.998 1339.33 593.306 1313.43 573.268 1291.57 C 559.739 1276.8 527.932 1237.03 518.833 1219.93 z" fill="rgb(218,199,177)" transform="translate(0,0)"></path>
<path d="M 1871.63 1128.85 C 1872.35 1133.84 1854.12 1165.35 1850.51 1171.49 C 1839.89 1189.56 1830.46 1209.46 1817.94 1226.27 C 1812.36 1233.77 1799.68 1241.15 1792.16 1247.13 C 1759.34 1271.34 1727.36 1289.16 1691.44 1308.02 C 1627.29 1341.69 1565.15 1367.46 1495.5 1387.92 C 1456.03 1399.24 1415.94 1408.25 1375.42 1414.88 C 1186.37 1448.51 992.009 1436.21 808.71 1379 C 703.29 1345.43 576.315 1283.14 503.49 1194.8 C 498.766 1189.07 493.223 1177.31 489.632 1170.36 C 482.966 1156.6 477.284 1142.36 471.598 1128.17 C 484.719 1141.81 497.278 1154.56 511.398 1167.2 C 698.171 1334.32 996.791 1389.1 1240.37 1374.8 C 1322.8 1370.13 1404.63 1357.88 1484.8 1338.18 C 1585.14 1312.74 1712.08 1260.01 1795.62 1198.29 C 1823.4 1177.97 1848.88 1154.68 1871.63 1128.85 z" fill="rgb(218,199,177)" transform="translate(0,0)"></path>
<path d="M 745.658 1424.37 C 983.558 1532.77 1316.3 1526.63 1561.31 1439.58 C 1613.97 1420.87 1655.24 1392.26 1703.24 1366.96 C 1580.76 1475.68 1457.15 1526.6 1293.74 1546.12 C 1180.44 1559.65 1066.07 1559.28 954.357 1529.64 C 931.535 1523.58 903.444 1503.48 881.05 1494 C 836.286 1470.44 789.711 1448.89 745.136 1425.73 L 745.658 1424.37 z" fill="rgb(218,199,177)" transform="translate(0,0)"></path>
<path d="M 280.928 1430.11 C 294.928 1436.77 310.204 1446.19 324.766 1453.4 C 354.969 1468.34 385.132 1483.51 415.322 1498.5 C 541.382 1559.83 666.992 1622.08 792.143 1685.25 L 1017.87 1797.12 C 1039.62 1807.79 1061.42 1818.34 1083.28 1828.76 C 1097 1835.28 1111.28 1841.31 1124.54 1848.58 C 1123.31 1855.32 1122.49 1862.81 1121.6 1869.67 L 1120.23 1870.57 C 1100.17 1862.86 1062.97 1842.51 1042.19 1832.37 C 956.395 1790.49 871.197 1746.13 785.69 1703.58 C 671.129 1646.53 556.165 1590.28 440.807 1534.86 C 388.21 1509.02 332.83 1483.43 281.34 1455.87 C 280.773 1448.01 280.976 1438.13 280.928 1430.11 z" fill="rgb(254,252,247)" transform="translate(0,0)"></path>
<path d="M 283.48 1404.53 C 347.374 1438.31 414.966 1469.99 479.755 1502.27 L 1131.97 1820.39 C 1129.02 1828.52 1128.13 1831.16 1126.21 1839.8 L 1124.41 1840.59 C 1115.02 1839.13 1085.52 1823.13 1074.75 1818.01 C 1010.63 1787.4 946.869 1756.04 883.483 1723.94 L 552.629 1559.33 C 491.761 1529.75 431.057 1499.84 370.518 1469.6 C 340.564 1454.57 309.848 1439.82 280.569 1423.7 C 281.386 1417.28 282.356 1410.89 283.48 1404.53 z" fill="rgb(254,252,247)" transform="translate(0,0)"></path>
<path d="M 283.707 1463.4 C 298.313 1468.49 312.772 1478.61 326.811 1485.43 L 466.513 1553.61 C 620.22 1627.64 773.265 1703.04 925.632 1779.8 C 990.979 1812.47 1055.74 1845.97 1121.61 1877.62 C 1122.56 1887.5 1124.35 1895.29 1128.22 1904.45 C 1108.33 1896.66 1089 1884.97 1070.05 1875.08 L 983.708 1830.9 L 706.74 1690.87 L 451.375 1563.38 L 347.974 1512.63 C 329.202 1503.31 309.637 1494.56 291.7 1483.74 C 288.397 1477.17 286.09 1470.34 283.707 1463.4 z" fill="rgb(254,252,247)" transform="translate(0,0)"></path>
<path d="M 1234.69 1797.08 C 1240.04 1796.85 1245.34 1796.83 1250.68 1797.34 C 1311.24 1803.04 1381.38 1847.83 1419.92 1893.99 C 1416.4 1895.41 1412.81 1896.82 1409.54 1898.75 C 1396.5 1906.45 1389.77 1918.77 1386.21 1933 C 1386.15 1935.63 1385.95 1937.94 1385.45 1940.54 C 1374.15 1944.23 1333.42 1926.69 1322.91 1921.75 C 1291.92 1907.18 1223.09 1866.43 1212.22 1833.81 C 1209.68 1826.18 1210.27 1818.56 1214.04 1811.44 C 1218.45 1803.12 1226.21 1799.82 1234.69 1797.08 z" fill="rgb(254,252,247)" transform="translate(0,0)"></path>
<path d="M 143.276 1244.32 C 184.595 1241.49 235.109 1272.45 267.824 1295.97 C 276.751 1302.38 286.433 1310.88 295.458 1317.77 C 281.954 1332.04 271.395 1350.33 264.74 1368.77 C 264.137 1370.9 264.232 1370.48 263.151 1372.45 C 255.472 1374.84 203.832 1355.77 193.148 1350.33 C 167.531 1337.29 130.962 1314.37 120.163 1285.88 C 112.759 1266.34 123.872 1249.52 143.276 1244.32 z" fill="rgb(254,252,247)" transform="translate(0,0)"></path>
<path d="M 1246.96 1701.06 C 1250.81 1700.79 1254.37 1700.99 1257.94 1702.62 C 1264.38 1705.56 1268.37 1711.06 1270.65 1717.62 C 1277.63 1737.72 1271.81 1764.57 1262.72 1783.12 C 1255.29 1778.32 1249.84 1770.52 1240.59 1768.99 C 1229.5 1767.16 1218.27 1772.4 1209.41 1778.68 C 1191.48 1791.39 1176.16 1811.82 1172.55 1833.84 C 1170.89 1843.94 1171.32 1855.74 1177.77 1864.19 C 1180.38 1867.61 1184.21 1870.52 1187.94 1872.61 C 1206.08 1882.71 1212.36 1863.73 1223.68 1865.57 L 1224.39 1867.2 C 1223.04 1873.92 1213.62 1882.67 1208.77 1887.81 C 1199.57 1896.76 1187.6 1905.44 1175.8 1910.62 C 1167.84 1914.11 1158.5 1916.38 1150.17 1912.75 C 1142.03 1909.2 1136.58 1900.51 1133.75 1892.43 C 1123.99 1864.56 1138.32 1825.5 1150.45 1800.48 C 1170.59 1758.95 1201.96 1716.75 1246.96 1701.06 z" fill="rgb(218,199,177)" transform="translate(0,0)"></path>
<path d="M 1421.41 1902.9 L 1423.37 1903.3 C 1424.38 1904.31 1425.48 1905.36 1426.04 1906.72 C 1427.88 1911.22 1425.26 1918.98 1423.26 1923.06 C 1418.41 1932.96 1411.67 1938.86 1401.27 1942.24 L 1399 1941.64 C 1397.79 1940.5 1396.69 1939.45 1396.03 1937.88 C 1394.09 1933.28 1396.63 1926.66 1398.78 1922.57 C 1403.94 1912.78 1410.84 1906.13 1421.41 1902.9 z" fill="rgb(254,252,247)" transform="translate(0,0)"></path>
<path d="M 305.812 1321.11 L 305.912 1321.17 C 306.486 1323.64 296.988 1337.16 295.008 1340.55 C 284.708 1358.17 278.781 1373.86 273.48 1393.33 L 272.49 1392.37 C 266.801 1371.91 290.69 1334.62 305.812 1321.11 z" fill="rgb(254,252,247)" transform="translate(0,0)"></path>
<path d="M 745.136 1425.73 C 739.586 1423.55 730.241 1418.94 725 1415.99 C 699.402 1401.6 666.845 1391.28 647.191 1368.85 C 651.63 1370.34 664.094 1380.26 668.92 1383.38 C 693.317 1399.18 720.075 1410.74 745.658 1424.37 L 745.136 1425.73 z" fill="rgb(191,158,137)" transform="translate(0,0)"></path>
<path d="M 552.458 175.025 C 549.696 151.114 550.416 136.033 562.67 113.995 C 580.557 81.8286 630.208 58.8575 664.966 50.1794 C 657.098 86.3664 636.041 123.111 612.334 151.214 L 642.353 141.412 C 663.676 112.31 700.967 90.663 737.426 91.0584 C 762.955 91.3353 798.949 95.796 821.802 107.647 C 810.058 116.373 795.838 124.938 783.594 133.047 C 753.244 153.149 721.259 176.635 682.731 169.869 C 668.795 167.421 652.617 160.309 644.25 148.495 C 619.154 158.705 593.103 166.827 567.667 177.262 C 587.06 175.278 602.754 174.534 620.702 183.218 C 628.528 187.005 687.882 218.323 681.743 228.213 C 667.134 235.151 636.514 239.802 620.593 242.178 C 582.432 247.873 544.6 228.282 515.224 204.094 C 478.883 221.087 429.784 248.231 396.529 271.632 C 418.677 261.172 433.794 253.084 459.187 253.074 C 493.741 253.06 523.013 276.75 546.201 300.324 C 527.111 308.868 504.611 314.862 483.922 317.45 C 439.741 322.976 413.108 312.689 379.023 286.485 C 334.985 317.463 265.706 394.978 239.088 442.115 L 239.835 442.916 C 280.616 414.199 319.732 410.597 366.811 423.834 C 374.186 425.908 382.359 427.119 387.98 432.657 C 388.637 434.483 389.542 436.489 387.795 438.309 C 347.458 480.341 276.236 491.921 227.073 459.721 C 217.446 475.472 188.078 523.953 183.553 540.496 C 203.686 522.235 223.138 510.9 250.483 506.209 C 267.578 503.276 307.132 505.4 320.984 515.643 C 323.746 518.898 323.341 517.192 323.254 520.632 C 316.265 533.33 280.922 556.331 266.369 561.739 C 235.216 573.317 204.761 575.919 174.097 563.12 C 99.3101 722.709 47.1096 974.929 196.252 1111.68 C 211.616 1125.77 232.546 1137.8 250.319 1149.02 L 239.983 1145.1 C 181.46 1122.42 141.958 1074.19 117.897 1016.53 C 70.4053 902.7 91.2435 772.811 126.17 658.576 C 136.539 624.661 150.644 591.324 163.431 558.455 C 145.788 548.229 132.775 533.072 122.792 515.545 C 102.584 480.066 110.629 441.904 121.614 404.972 C 122.859 400.786 123.991 394.999 127.948 392.81 C 133.811 394.647 154.709 433.636 159.103 440.961 C 175.803 468.802 175.251 498.375 175.347 529.703 C 185.816 507.308 199.217 481.619 212.314 460.676 C 191.828 440.382 177.129 421.529 172.695 391.665 C 169.09 367.382 189.375 313.255 203.899 295.264 C 204.793 296.56 205.486 297.517 206.245 298.882 C 239.007 357.821 244.556 372.965 227.167 437.798 C 246.339 410.206 259.324 390.175 281.712 363.53 C 264.61 349.404 255.611 328.241 252.018 306.666 C 245.168 265.538 275.166 225.756 298.79 194.292 C 300.272 197.58 301.511 200.653 302.555 204.065 C 320.509 262.743 326.107 289.841 298.842 344.882 C 319.561 321.672 342.158 300.21 366.404 280.713 C 320.588 236.65 347.465 174.806 385.138 136.454 C 389.563 131.948 397.129 122.138 402.947 120.381 L 404.217 121.481 C 414.97 177.589 415.462 207.603 394.101 260.385 C 413.517 245.709 430.321 235.789 451.809 224.417 C 415.797 183.303 445.756 125.442 481.13 95.6385 C 487.224 90.5043 507.013 72.6299 513.407 72.3402 C 516.831 77.5006 514.442 100.627 514.158 108.073 C 512.555 150.045 503.022 176.496 477.245 209.471 C 503.753 196.374 523.449 185.082 552.458 175.025 z" fill="rgb(101,59,43)" transform="translate(0,0)"></path>
<path d="M 239.835 442.916 L 237.334 446.438 L 237.821 447.578 C 245.457 444.64 257.443 436.882 266.773 432.912 C 308.388 415.206 342.602 421.548 383.757 436.218 C 334.826 465.228 310.207 478.315 249.827 463.5 C 242.829 461.783 233.614 459.105 226.589 457.545 C 230.86 456.479 235.288 455.295 239.589 454.437 L 237.552 453.171 L 233.897 453.713 L 232.63 452.526 C 233.43 448.628 236.571 445.359 239.088 442.115 L 239.835 442.916 z" fill="rgb(218,199,177)" transform="translate(0,0)"></path>
<path d="M 237.552 453.171 C 255.357 440.136 336.353 428.416 354.61 437.414 C 351.36 439.006 306.302 440.123 296.39 441.496 C 276.801 444.209 258.729 450.392 239.589 454.437 L 237.552 453.171 z" fill="rgb(101,59,43)" transform="translate(0,0)"></path>
<path d="M 649.393 142.751 C 650.21 137.272 668.495 123.52 673.21 119.792 C 703.016 96.2248 737.977 95.9918 774.063 101.092 C 783.701 102.455 801.79 105.721 810.748 108.791 C 765.806 134.893 723.822 175.196 670.021 159.687 C 662.724 157.583 653.305 154.304 648.505 148.291 L 648.606 146.396 L 650.469 145.053 C 658.211 144.63 685.451 139.427 694.166 137.668 C 723.275 131.795 754.419 127.386 782.252 117.478 C 760.879 119.206 739.437 124.181 718.366 128.308 C 695.392 132.808 671.954 136.579 649.393 142.751 z" fill="rgb(218,199,177)" transform="translate(0,0)"></path>
<path d="M 586.288 182.425 C 618.49 183.471 652.329 204.289 676.624 224.503 C 656.479 229.745 629.695 234.859 609.19 235.082 C 584.065 235.011 562.124 227.747 540.046 215.947 C 534.962 213.23 519.424 208.11 522.144 201.692 C 535.781 191.427 568.625 183.442 586.288 182.425 z" fill="rgb(218,199,177)" transform="translate(0,0)"></path>
<path d="M 569.246 197.428 C 574.564 197.318 579.884 197.439 585.192 197.788 C 604.735 198.929 643.678 206.33 657.119 221.505 C 644.081 217.148 632.982 212.744 619.468 208.625 C 587.004 200.138 561.419 200.973 528.999 206.259 C 527.031 206.58 526.296 206.039 525.073 204.838 C 535.481 200.005 557.283 198.318 569.246 197.428 z" fill="rgb(101,59,43)" transform="translate(0,0)"></path>
<path d="M 382.236 284.06 C 387.334 276.439 402.805 272.184 411.32 268.707 C 461.755 248.114 497.744 264.099 535.731 298.394 C 489.685 310.692 443.003 319.276 398.908 294.128 C 395.103 291.959 391.043 289.416 387.788 286.477 L 387.302 287.776 C 385.04 286.824 384.084 285.702 382.236 284.06 z" fill="rgb(218,199,177)" transform="translate(0,0)"></path>
<path d="M 382.236 284.06 C 392.013 281.16 403.973 277.416 413.834 275.444 C 443.489 269.516 482.088 272.56 509.426 286.17 L 510.338 287.681 C 507.316 289.081 473.861 279.671 464.33 278.79 C 432.517 275.85 418.219 279.195 387.788 286.477 L 387.302 287.776 C 385.04 286.824 384.084 285.702 382.236 284.06 z" fill="rgb(101,59,43)" transform="translate(0,0)"></path>
<path d="M 296.596 206.33 C 301.515 220.714 305.423 234.152 308.354 248.855 C 314.241 278.377 310.543 300.772 300.026 328.583 C 297.281 335.842 295.276 343.54 290.788 350.134 C 288.623 351.323 288.471 351.267 286.804 353.034 C 286.72 355.905 286.589 356.503 284.357 357.856 L 282.231 357.212 C 277.024 352.114 274.892 346.668 271.471 340.499 C 244.02 290.999 267.923 248.658 296.596 206.33 z" fill="rgb(218,199,177)" transform="translate(0,0)"></path>
<path d="M 286.804 353.034 C 281.575 328.876 278.518 261.085 289.269 238.671 L 290.576 238.469 C 292.1 245.966 287.472 270.265 287.561 280.452 C 287.749 302.144 286.96 328.829 290.788 350.134 C 288.623 351.323 288.471 351.267 286.804 353.034 z" fill="rgb(101,59,43)" transform="translate(0,0)"></path>
<path d="M 375.117 268.78 C 374.92 273.14 375.629 272.365 373.411 275.168 C 369.915 274.639 368.849 273.07 366.672 270.213 C 329.161 220.995 362.348 167.046 400.246 128.364 C 405.086 169.694 409.626 205.888 392.514 245.621 C 389.539 252.528 384.062 264.729 378.929 270.118 L 377.319 270.432 L 375.117 268.78 z" fill="rgb(218,199,177)" transform="translate(0,0)"></path>
<path d="M 375.117 268.78 C 374.119 235.818 375.387 206.598 384.007 174.535 C 385.126 170.373 387.571 159.074 390.465 156.006 C 391.21 162.384 385.189 189.538 383.944 198.36 C 380.354 223.81 377.787 244.127 378.929 270.118 L 377.319 270.432 L 375.117 268.78 z" fill="rgb(101,59,43)" transform="translate(0,0)"></path>
<path d="M 202.556 306.088 C 210.807 320.558 220.345 339.088 225.729 354.368 C 233.129 375.374 228.532 431.381 218.543 449.74 C 216.876 451.813 216.496 451.938 214.315 453.536 L 213.633 454.448 C 208.308 449.71 204.868 444.194 200.494 438.835 C 164.914 395.236 181.342 352.845 202.556 306.088 z" fill="rgb(218,199,177)" transform="translate(0,0)"></path>
<path d="M 214.315 453.536 C 214.054 448.644 212.435 442.304 211.066 437.144 C 206.033 418.171 204.208 397.127 203.163 377.635 C 202.844 371.687 201.12 339.621 204.035 337.278 C 207.466 347.634 206.604 363.801 207.397 374.99 C 209.129 399.434 210.791 426.387 218.543 449.74 C 216.876 451.813 216.496 451.938 214.315 453.536 z" fill="rgb(101,59,43)" transform="translate(0,0)"></path>
<path d="M 507.793 81.0056 C 509.981 83.9629 506.816 113.811 506.19 119.865 C 502.354 156.992 490.979 194.157 461.305 218.561 C 465.53 187.838 476.715 157.465 486.943 128.283 C 488.738 123.164 491.099 119.37 491.727 113.914 L 490.474 112.987 C 487.718 114.695 486.272 119.201 484.842 122.368 C 474.188 147.946 465.149 173.82 460.227 201.152 C 459.045 207.712 457.955 214.102 456.393 220.597 C 445.704 208.652 441.09 191.689 442.644 175.883 C 446.795 133.652 477.542 106.524 507.793 81.0056 z" fill="rgb(218,199,177)" transform="translate(0,0)"></path>
<path d="M 654.005 59.0176 L 655.756 59.0908 L 656.573 60.4478 C 654.873 65.7484 652.973 70.9825 650.875 76.1387 C 640.299 102.258 619.947 139.382 596.538 156.241 C 593.259 158.602 573.304 166.884 568.485 168.938 C 578.502 147.324 591.096 130.354 607.307 112.789 C 616.849 102.449 628.633 91.8852 635.994 80.0315 C 631.344 82.9576 629.445 84.278 625.304 87.8625 C 592.65 117.154 578.623 137.49 558.638 175.991 C 547.291 109.245 599.991 78.7021 654.005 59.0176 z" fill="rgb(218,199,177)" transform="translate(0,0)"></path>
<path d="M 184.033 544.71 C 226.969 510.682 263.532 505.161 316.778 518.597 C 314.077 526.21 283.573 544.965 272.365 550.41 C 245.514 563.454 208.827 565.629 179.366 559.993 C 178.79 559.689 178.215 559.385 177.639 559.081 C 178.463 558.467 179.936 557.3 180.764 556.811 L 178.532 553.505 C 178.447 550.735 182.284 546.676 184.033 544.71 z" fill="rgb(218,199,177)" transform="translate(0,0)"></path>
<path d="M 178.532 553.505 L 180.309 552.901 C 189.462 549.724 200.724 543.241 209.75 540.169 C 235.416 531.436 266.547 522.568 293.344 519.055 C 287.199 523.195 281.484 524.918 274.35 526.61 C 241.609 534.375 211.899 544.198 180.764 556.811 L 178.532 553.505 z" fill="rgb(101,59,43)" transform="translate(0,0)"></path>
<path d="M 128.86 401.519 C 142.334 417.155 163.223 463.432 166.148 484.019 C 167.261 491.854 171.181 540.296 167.976 544.729 C 156.146 537.396 138.27 442.505 130.495 423.759 L 129.924 422.402 C 130.088 428.341 130.906 434.101 131.627 439.996 C 139.254 477.096 148.381 521.359 166.954 554.331 C 142.922 540.583 122.612 506.566 118.396 479.486 C 114.497 454.436 121.431 425.417 128.86 401.519 z" fill="rgb(218,199,177)" transform="translate(0,0)"></path>
<path d="M 680.477 382.678 C 682.701 331.568 742.566 305.944 786.059 300.22 C 769.342 338.091 757.626 356.624 721.834 378.717 L 719.951 379.51 L 719.468 381.637 C 715.736 382.558 714.247 382.161 712.347 384.518 C 716.648 387.383 734.181 388.983 740.28 390.403 C 769.367 397.173 795.479 424.004 808.406 449.463 C 771.947 453.493 746.197 450.404 716.406 426.821 C 703.632 416.709 692.482 404.754 686.16 389.479 C 659.662 394.24 631.786 403.535 605.845 411.477 C 610.503 411.672 618.034 411.662 622.291 412.843 C 656.336 417.955 673.249 426.29 694.34 455.116 C 695.153 456.217 695.945 457.334 696.716 458.466 C 698.723 461.533 699.479 461.548 699.542 464.639 C 686.806 471.19 641.343 467.282 625.955 461.367 C 600.925 451.747 592.794 446.257 577.441 425.227 C 558.026 434.455 531.662 449.2 513.681 460.999 C 561.317 459.05 586.945 468.971 615.196 509.483 C 590.556 518.472 558.456 517.723 534.67 506.391 C 516.179 497.581 508.4 488.51 495.511 473.208 C 480.687 482.85 439.913 513.283 430.225 526.434 C 469.151 513.684 508.713 515.159 538.651 546.555 L 541.155 547.963 L 541.55 549.864 C 535.756 557.237 507.684 563.451 498.165 564.602 C 470.796 567.912 435.08 562.036 414.568 542.25 C 397.473 560.07 381.122 578.59 365.556 597.761 C 407.535 579.475 449.545 582.084 482.8 616.351 C 446.07 637.275 409.058 638.131 368.45 626.878 C 362 625.037 355.646 622.875 349.411 620.4 C 337.216 638.185 326.938 653.93 316.095 672.556 C 325.902 668.308 337.689 663.61 347.888 660.936 C 363.817 656.759 422.137 659.31 431.946 671.982 L 432.19 674.226 C 421.529 684.831 396.288 696.855 381.635 701.167 C 355.749 708.784 329.699 701.178 305.104 692.945 C 261.392 776.017 236.981 850.161 239.663 944.382 C 243.129 1066.14 319.64 1142.97 433.073 1172.94 C 447.054 1176.63 458.825 1179.69 473.294 1181.63 L 469.659 1185.55 C 379.513 1181.92 285.729 1125.12 250.993 1040.47 C 218.982 962.469 226.641 876.971 249.814 797.573 C 257.454 771.396 269.372 744.293 279.662 719.089 C 270.925 712.648 265.327 705.793 259.885 696.542 C 238.632 660.412 247.272 629.514 257.235 591.808 C 288.129 621.042 294.113 643.703 298.303 684.397 C 306.027 667.516 324.594 637.189 335.143 621.016 C 311.389 598.762 310.366 569.636 320.222 539.989 C 323.159 531.152 330.195 503.915 338.469 500.811 C 345.598 501.799 347.599 510.543 350.257 516.228 C 361.187 539.606 361.864 561.247 361.863 586.502 C 374.8 566.952 391.151 550.213 406.941 532.906 L 406.411 532.078 C 385.57 498.853 405.182 456.978 428.546 431.348 C 434.1 425.256 439.667 418.177 446.755 413.836 C 454.738 441.557 456.606 465.663 448.562 493.301 C 462.475 482.516 476.813 473.167 491.514 463.512 C 480.111 437.454 487.053 405.784 504.069 383.919 C 514.931 369.963 538.254 349.728 553.755 341.351 C 552.167 380.78 552.011 414.577 525.028 445.1 C 543.746 432.025 560.049 425.25 579.203 413.793 C 564.805 362.112 617.978 321.534 659.489 303.65 C 658.692 312.666 656.633 321.788 654.634 330.54 C 647.041 363.787 638.557 378.304 613.774 400.583 C 638.418 391.045 654.38 386.533 680.477 382.678 z" fill="rgb(101,59,43)" transform="translate(0,0)"></path>
<path d="M 597.126 414.363 C 600.828 412.048 601.394 412.159 605.845 411.477 C 610.503 411.672 618.034 411.662 622.291 412.843 C 656.336 417.955 673.249 426.29 694.34 455.116 C 695.153 456.217 695.945 457.334 696.716 458.466 L 694.116 461.367 C 670.54 465.355 627.72 458.52 606.915 445.77 C 599.341 441.128 587.09 433.69 584.44 424.712 L 584.163 423.07 L 582.212 421.326 C 584.408 418.688 588.357 418.146 592.166 416.908 L 597.126 414.363 z" fill="rgb(218,199,177)" transform="translate(0,0)"></path>
<path d="M 597.126 414.363 C 600.828 412.048 601.394 412.159 605.845 411.477 C 610.503 411.672 618.034 411.662 622.291 412.843 C 656.336 417.955 673.249 426.29 694.34 455.116 C 695.153 456.217 695.945 457.334 696.716 458.466 L 694.116 461.367 C 666.857 423.522 636.077 417.267 592.166 416.908 L 597.126 414.363 z" fill="rgb(101,59,43)" transform="translate(0,0)"></path>
<path d="M 597.126 414.363 C 600.828 412.048 601.394 412.159 605.845 411.477 C 610.503 411.672 618.034 411.662 622.291 412.843 C 612.724 412.9 606.646 413.303 597.126 414.363 z" fill="rgb(218,199,177)" transform="translate(0,0)"></path>
<path d="M 584.163 423.07 C 606.277 425.533 648.219 434.218 666.749 445.041 C 650.17 442.414 599.027 430.854 584.44 424.712 L 584.163 423.07 z" fill="rgb(101,59,43)" transform="translate(0,0)"></path>
<path d="M 430.225 526.434 C 469.151 513.684 508.713 515.159 538.651 546.555 L 535.868 547.926 C 524.746 557.263 479.149 559.841 464.661 556.643 C 453.88 554.264 425.645 548.255 419.072 539.703 C 419.151 536.418 418.969 537.576 422.099 534.5 L 424.348 534.844 L 425.725 533.493 L 425.653 531.995 C 427.734 530.33 432.551 529.906 435.46 529.413 L 430.724 528.382 L 430.225 526.434 z" fill="rgb(218,199,177)" transform="translate(0,0)"></path>
<path d="M 430.225 526.434 C 469.151 513.684 508.713 515.159 538.651 546.555 L 535.868 547.926 L 529.219 543.454 C 496.303 521.557 472.575 522.036 435.46 529.413 L 430.724 528.382 L 430.225 526.434 z" fill="rgb(101,59,43)" transform="translate(0,0)"></path>
<path d="M 425.725 533.493 C 437.667 536.733 491.022 537.345 494.593 542.636 C 491.872 545.237 479.162 542.723 475.179 542.02 C 462.162 539.723 435.516 541.072 424.348 534.844 L 425.725 533.493 z" fill="rgb(101,59,43)" transform="translate(0,0)"></path>
<path d="M 548.325 350.688 C 544.227 391.097 541.965 436.739 499.985 457.56 L 496.399 458.366 L 495.695 460.184 L 494.506 460.096 C 489.758 449.984 489.61 443.94 490.78 433.079 C 494.968 394.213 517.958 373.319 548.325 350.688 z" fill="rgb(218,199,177)" transform="translate(0,0)"></path>
<path d="M 496.399 458.366 C 498.783 450.563 503.611 438.731 506.618 430.748 C 515.327 407.628 520.136 388.247 537.189 369.787 C 533.378 380.845 525.255 395.764 520.64 407.526 C 514.139 424.095 508.187 441.962 499.985 457.56 L 496.399 458.366 z" fill="rgb(101,59,43)" transform="translate(0,0)"></path>
<path d="M 355.596 613.141 C 357.418 597.136 415.074 590.583 429.303 594.145 C 446.838 598.536 460.755 603.798 475.291 614.697 C 437.96 633.622 394.316 628.38 355.282 617.295 L 354.676 616.346 L 355.917 615.825 L 355.596 613.141 z" fill="rgb(218,199,177)" transform="translate(0,0)"></path>
<path d="M 355.596 613.141 C 380.759 606.734 414.931 602.381 439.994 610.965 L 438.362 611.054 C 411.008 612.436 384.621 607.728 355.917 615.825 L 355.596 613.141 z" fill="rgb(101,59,43)" transform="translate(0,0)"></path>
<path d="M 699.283 395.719 C 695.963 394.347 695.265 394.276 693.002 391.276 L 692.888 389.353 C 698.145 385.946 715.221 390.995 721.661 392.034 C 756.808 397.708 780.674 414.398 800.578 444.606 L 801.068 445.366 C 766.127 446.501 736.559 437.512 710.49 413.501 C 706.7 410.01 699.601 402.778 697.804 398.104 L 699.283 395.719 z" fill="rgb(218,199,177)" transform="translate(0,0)"></path>
<path d="M 699.283 395.719 C 719.811 401.543 764.19 419.405 780.417 432.461 C 758.727 426.412 714.724 401.304 697.804 398.104 L 699.283 395.719 z" fill="rgb(101,59,43)" transform="translate(0,0)"></path>
<path d="M 443.871 421.254 C 450.42 456.251 451.148 496.385 419.822 520.516 C 419.283 519.977 417.828 517.911 417.314 517.215 C 416.84 523.392 416.961 524.216 412.248 528.334 C 411.603 528.891 410.95 529.439 410.29 529.978 C 392.052 488.029 414.818 451.749 443.871 421.254 z" fill="rgb(218,199,177)" transform="translate(0,0)"></path>
<path d="M 417.314 517.215 C 420.402 501.478 427.873 456.426 433.793 444.084 C 430.956 476.21 427.976 489.008 419.822 520.516 C 419.283 519.977 417.828 517.911 417.314 517.215 z" fill="rgb(101,59,43)" transform="translate(0,0)"></path>
<path d="M 502.303 469.479 C 504.659 466.683 505.47 466.174 509.249 465.885 C 549.375 462.817 582.63 474.424 608.937 506.47 C 577.56 510.989 545.638 510.083 518.84 490.504 C 514.264 487.161 504.833 477.678 503.303 472.4 L 502.303 469.479 z" fill="rgb(218,199,177)" transform="translate(0,0)"></path>
<path d="M 502.303 469.479 C 519.347 474.035 563.417 487.251 577.761 494.729 C 560.261 492.464 520.139 479.5 503.303 472.4 L 502.303 469.479 z" fill="rgb(101,59,43)" transform="translate(0,0)"></path>
<path d="M 259.697 601.312 C 281.471 625.884 293.8 660.412 290.93 694.052 C 290.609 697.808 287.756 703.269 284.675 705.551 L 281.905 707.167 C 282.511 709.699 282.413 709.332 282.543 711.927 L 281.462 712.42 C 275.037 708.81 269.031 700.463 265.459 694.106 C 247.341 661.855 250.313 635.567 259.697 601.312 z" fill="rgb(218,199,177)" transform="translate(0,0)"></path>
<path d="M 281.905 707.167 C 276.889 697.859 263.822 653.773 265.409 643.601 C 268.673 646.707 280.499 694.909 284.313 704.646 L 284.675 705.551 L 281.905 707.167 z" fill="rgb(101,59,43)" transform="translate(0,0)"></path>
<path d="M 365.691 664.406 C 382.083 661.844 412.246 667.893 428.066 672.898 C 407.511 684.134 391.462 693.176 367.809 696.675 C 347.444 699.642 325.723 694.309 306.665 687.575 L 312.556 679.454 C 334.82 673.073 338.696 667.123 365.691 664.406 z" fill="rgb(218,199,177)" transform="translate(0,0)"></path>
<path d="M 378.617 675.412 C 383.275 675.09 382.872 674.416 386.508 676.152 L 386.553 677.599 C 379.798 681.291 352.911 681.075 343.87 682.341 C 335.923 683.455 329.671 684.816 321.755 686.622 C 318.375 687.082 315.248 687.879 312.047 686.967 C 323.85 678.686 362.975 676.634 378.617 675.412 z" fill="rgb(101,59,43)" transform="translate(0,0)"></path>
<path d="M 686.584 380.674 C 685.64 368.762 692.965 355.305 700.645 346.597 C 721.369 323.099 746.656 314.811 776.376 308.428 C 766.965 326.926 755.844 345.618 740.149 359.516 C 727.441 370.77 707.199 386.241 689.238 382.631 C 704.384 363.349 740.442 341.705 756.993 324.189 C 737.928 332.313 700.362 364.407 686.584 380.674 z" fill="rgb(218,199,177)" transform="translate(0,0)"></path>
<path d="M 650.11 314.793 L 651.15 315.254 C 651.641 318.431 645.258 342.628 643.827 346.799 C 633.064 378.171 614.451 398.504 585.017 413.034 C 596.185 394.202 610.313 375.942 622.374 357.66 C 627.423 350.007 638.796 336.233 641.59 328.59 C 626.515 336.171 590.447 401.887 581.758 407.33 C 579.991 403.647 581.828 392.837 583.085 388.588 C 595.207 347.63 616.26 334.407 650.11 314.793 z" fill="rgb(218,199,177)" transform="translate(0,0)"></path>
<path d="M 338.722 506.671 C 350.248 529.556 355.105 547.34 355.11 572.72 C 355.113 590.426 355.72 593.045 345.425 607.968 L 344.14 608.448 L 343.167 607.17 L 341.688 611.01 L 339.791 603.633 C 339.91 607.629 340.468 611.96 338.984 615.559 L 337.632 615.964 C 309.392 591.453 322.437 533.917 338.722 506.671 z" fill="rgb(218,199,177)" transform="translate(0,0)"></path>
<path d="M 337.148 527.809 C 339.142 539.889 339.045 556.393 339.825 569.183 C 340.491 580.109 343.283 597.044 343.167 607.17 L 341.688 611.01 L 339.791 603.633 C 336.099 588.811 334.051 542.886 337.148 527.809 z" fill="rgb(101,59,43)" transform="translate(0,0)"></path>
<path d="M 105.472 1454.59 C 106.055 1454.95 106.661 1455.27 107.221 1455.66 C 113.479 1460 119.444 1467.64 125.091 1472.95 C 144.376 1491.1 168.065 1508.85 172.028 1537.02 C 175.215 1559.67 165.342 1578.25 152.009 1595.64 C 159.609 1615.78 169.497 1634.37 179.835 1653.21 C 180.003 1642.56 180.593 1631.94 182.171 1621.39 C 188.913 1576.32 214.092 1556.48 248.879 1530.65 C 248.914 1550.76 249.773 1571.85 245.168 1591.56 C 237.309 1625.2 213.538 1643.85 185.483 1661.11 C 230.246 1720.91 280.107 1767.9 348.561 1799.49 C 357.938 1803.82 378.684 1813.15 388.152 1814.54 C 390.054 1814.82 390.211 1814.83 391.727 1813.58 C 393.069 1802.47 363.085 1767.35 358.089 1753.02 C 349.672 1728.88 352.09 1707.24 360.693 1683.49 C 362.578 1678.29 364.423 1672.38 367.113 1667.53 C 368.329 1665.34 368.995 1663.95 371.515 1663.29 C 386.356 1695.25 414.607 1722.24 413.298 1758.96 C 412.789 1773.25 404.886 1791.82 401.366 1805.87 C 399.936 1811.58 395.935 1811.32 395.084 1815.97 C 398.322 1818.77 412.255 1821.24 416.92 1822.35 C 466.925 1834.3 524.745 1836.27 575.387 1826.17 C 584.055 1824.47 592.636 1822.35 601.099 1819.82 C 609.836 1817.14 634.479 1807.84 642.108 1807.89 L 642.287 1808.92 C 634.145 1816.1 617.746 1821.93 607.479 1825.3 C 552.401 1843.38 499.284 1843.98 442.354 1836.85 C 427.998 1863.63 419.508 1882.69 393.765 1900.18 C 373.473 1911.78 353.219 1916.1 330.017 1918.63 C 326.813 1918.98 324.848 1918.55 322.625 1916.6 C 323.036 1914.83 323.2 1914.19 324.092 1912.56 C 341.109 1881.52 362.205 1854.06 397.393 1843.03 C 408.361 1839.59 419.114 1838.12 430.156 1835.05 C 413.41 1831.66 396.378 1826.95 379.861 1822.16 C 373.71 1820.37 359.683 1814.8 353.787 1813.97 C 351.376 1813.63 340.065 1822.94 337.157 1825.12 C 322.816 1835.84 309.004 1846.19 292.468 1853.34 C 262.819 1866.18 240.444 1861.86 211.545 1849.73 C 207.629 1848.09 201.816 1846.36 200.222 1842.57 C 203.507 1837.2 221.633 1829.25 227.531 1825.5 C 269.443 1798.86 302.372 1810.23 347.636 1810.01 C 329.692 1800.54 311.694 1791.99 294.477 1781.04 C 282.793 1773.61 270.912 1763.22 259.062 1756.54 C 218.469 1774.33 187.223 1791.53 143.002 1772.7 C 131.023 1767.6 118.359 1762.48 107.349 1755.47 C 109.084 1754.51 110.725 1753.75 112.439 1752.94 C 173.471 1724.02 193.196 1729.36 252.644 1750.81 C 228.644 1729.23 206.722 1705.46 187.165 1679.78 C 162.8 1682.79 139.152 1689.61 114.252 1682.74 C 79.2192 1673.06 60.9201 1653.32 43.0868 1623.72 C 92.031 1615.88 135.689 1637.78 176.1 1661.1 C 164.054 1639.23 156.072 1616.79 145.102 1596.73 C 138.964 1594.82 132.984 1592.42 127.217 1589.58 C 96.0229 1573.96 80.8874 1545.43 86.9432 1511.41 C 90.3678 1492.17 96.5218 1471.9 105.472 1454.59 z" fill="rgb(101,59,43)" transform="translate(0,0)"></path>
<path d="M 106.548 1464.57 C 111.73 1468.05 116.535 1473.84 121.16 1478.19 C 138.655 1494.65 159.292 1511.97 163.974 1536.83 C 167.35 1554.75 160.612 1573.23 150.383 1587.75 C 143.229 1571.14 136.436 1554.06 127.639 1538.23 C 126.483 1536.48 125.937 1535.54 123.941 1534.77 L 122.841 1536.14 C 123.217 1549.82 137.13 1576.73 142.891 1589.64 C 126.21 1580.33 108.433 1569.52 99.6195 1551.8 C 86.4828 1525.39 98.1608 1490.68 106.548 1464.57 z" fill="rgb(254,252,247)" transform="translate(0,0)"></path>
<path d="M 370.744 1674.62 C 375.368 1678.51 390.381 1709.04 393.999 1716.3 C 410.628 1749.66 406.131 1766.16 394.809 1800.27 C 394.356 1799.4 393.891 1798.53 393.458 1797.64 C 386.388 1783.16 376.837 1770.17 369.299 1755.95 C 353.28 1725.74 361.286 1705.16 370.744 1674.62 z" fill="rgb(254,252,247)" transform="translate(0,0)"></path>
<path d="M 51.6379 1628.11 C 90.809 1631.03 127.322 1640.85 161.298 1661.03 C 168.353 1665.22 176.425 1669.95 182.351 1675.6 C 164.738 1676.19 146.925 1678.43 129.326 1676.62 C 96.4742 1673.25 71.8323 1652.96 51.6379 1628.11 z" fill="rgb(254,252,247)" transform="translate(0,0)"></path>
<path d="M 241.385 1543.74 L 242.519 1544.66 C 242.945 1546.15 243.108 1547.4 243.071 1548.95 C 242.344 1579.55 236.004 1607.26 214.079 1629.7 C 206.121 1637.84 197.146 1645.01 188.996 1652.99 L 188.578 1653 C 187.997 1645.31 189.914 1626.95 190.656 1618.29 C 193.692 1582.84 215.904 1565.29 241.385 1543.74 z" fill="rgb(254,252,247)" transform="translate(0,0)"></path>
<path d="M 279.654 1815.35 C 296.382 1812.58 320.4 1815.71 337.916 1816.07 C 315.624 1830.84 294.565 1846.19 267.897 1851.75 C 246.385 1854.77 227.889 1848.49 207.404 1842.81 C 230.104 1830.43 253.865 1819.12 279.654 1815.35 z" fill="rgb(254,252,247)" transform="translate(0,0)"></path>
<path d="M 167.364 1741.33 C 193.785 1737.16 222.213 1747.74 247.3 1754.95 C 231.306 1761.34 215.649 1767.93 198.783 1771.68 C 164.689 1777.76 148.091 1764.07 117.145 1757.07 C 116.713 1756.98 116.279 1756.89 115.846 1756.8 C 132.869 1750.58 149.329 1744.01 167.364 1741.33 z" fill="rgb(254,252,247)" transform="translate(0,0)"></path>
<path d="M 431.023 1841.28 L 431.406 1842.75 C 400.629 1891.51 388.627 1899.32 332.449 1912.18 L 331.835 1911.7 C 331.907 1911.15 331.887 1910.57 332.053 1910.03 C 333.576 1905.1 341.294 1896.92 344.621 1892.62 C 371.954 1857.31 390.252 1852.69 431.023 1841.28 z" fill="rgb(254,252,247)" transform="translate(0,0)"></path>
<path d="M 1765.6 166.214 C 1770.17 167.982 1776.21 174.178 1779.48 177.785 C 1798.38 198.652 1817.75 232.844 1809.45 261.983 C 1804.37 279.86 1799.52 279.713 1798.92 300.339 C 1819.7 318.481 1834.76 338.631 1850.51 361.112 C 1854.33 342.965 1849.76 333.198 1845.87 315.44 C 1839.71 287.399 1848.11 248.126 1861.23 223.184 C 1870.79 237.256 1880.4 263.253 1881.78 280.511 C 1884.09 309.47 1876.01 326.226 1858.01 347.676 C 1856.65 356.222 1856.58 358.284 1853.58 366.399 C 1862.74 385.761 1874.76 409.81 1881.72 429.754 L 1882.01 430.604 L 1883.2 430.852 C 1889.4 423.337 1889.31 381.625 1892.68 368.869 C 1898.74 345.88 1917.16 319.003 1934.29 302.899 L 1935.36 301.911 C 1946.49 338.991 1935.17 381.998 1908.97 409.535 C 1894.13 425.139 1894.34 419.031 1884.07 438.739 C 1892.79 470.821 1896.63 488.56 1900.41 521.773 C 1904.18 516.195 1911.09 509.175 1915.85 504.023 C 1919.05 481.024 1923.13 466.153 1936.84 446.48 C 1942.33 438.6 1972.82 406.239 1979.93 405.113 C 1980.71 406.095 1980.8 406.086 1981.32 407.445 C 1983.39 412.892 1980.69 426.242 1979.78 432.128 C 1969.11 500.596 1922.59 491.199 1901.01 530.256 C 1901.15 549.217 1896.98 617.862 1884.22 631.504 C 1882.44 626.316 1890.26 592.922 1891.01 583.194 C 1892.67 561.569 1893.46 539.339 1890.96 517.727 C 1871.2 493.946 1859.79 483.452 1827.28 486.205 C 1792.88 491.942 1765.89 486.392 1735.81 467.365 C 1733.06 465.628 1732.69 464.571 1732.2 462.009 C 1735.94 458.014 1774.68 453.176 1782.79 452.438 C 1803.05 450.593 1829 459.472 1843.96 472.975 C 1853.45 481.54 1857.93 481.933 1868.77 488.231 C 1876.49 492.713 1883.82 500.222 1889.95 506.705 C 1885.44 474.377 1876.66 437.896 1862.22 408.583 C 1821.96 389.004 1803.99 415.364 1762.88 403.896 C 1755.81 401.922 1733.4 394.687 1730 389.101 C 1730.43 387.376 1730.47 386.347 1732.39 385.404 C 1764.19 369.822 1815.32 362.372 1839.42 394.927 C 1845.77 396.594 1853.2 397.976 1859.71 399.338 C 1850.02 374.553 1831.07 346.604 1813.57 326.868 L 1781.68 325.947 C 1760.17 341.984 1734.14 351.094 1707.17 349.735 C 1701.28 349.438 1686.43 348.421 1682.69 344.235 C 1682.78 341.282 1683.12 339.58 1685.69 337.342 C 1703.55 321.105 1735.74 302.872 1760.66 310.381 C 1781.91 316.783 1785.89 320.558 1809.51 320.469 C 1788.43 294.572 1761.96 277.963 1734.07 260.347 C 1732.93 260.619 1731.79 260.884 1730.64 261.141 C 1696.24 268.841 1669.97 258.239 1640.73 240.152 C 1635.38 236.839 1624.9 231.009 1623.64 225.216 C 1626.01 221.874 1632.08 221.055 1635.75 220.051 C 1666.7 211.577 1699.97 212.738 1723.53 237.102 C 1729.93 243.731 1733.33 248.914 1738.37 256.886 C 1751.45 263.233 1763.87 270.878 1775.42 279.706 C 1779.17 282.544 1789.67 291.353 1792.97 293.226 C 1795.85 289.004 1789.33 276.911 1787.01 272.539 C 1771.73 243.831 1759.73 198.55 1765.6 166.214 z" fill="rgb(101,59,43)" transform="translate(0,0)"></path>
<path d="M 1660.59 221.43 C 1665.74 221.094 1670.9 221.134 1676.04 221.549 C 1701.61 223.517 1715.86 236.794 1731.47 255.124 C 1722.27 257.09 1715.59 257.681 1706.25 257.345 C 1675.91 256.285 1653.36 241.885 1629.03 225.644 C 1640.45 224.06 1648.67 222.323 1660.59 221.43 z" fill="rgb(218,199,177)" transform="translate(0,0)"></path>
<path d="M 1931.33 313.598 C 1933.13 317.955 1933.89 326.823 1933.81 331.645 C 1933.15 368.371 1918.57 391.631 1894.67 416.85 L 1893.85 416.88 L 1892.91 415.584 C 1895.28 366.783 1899.58 352.517 1931.33 313.598 z" fill="rgb(218,199,177)" transform="translate(0,0)"></path>
<path d="M 1769.04 175.884 C 1778.54 183.586 1791.1 202.027 1796.27 213.037 C 1806.86 235.584 1808.04 251.467 1800.08 274.744 C 1798.62 278.186 1799.76 277.14 1797.2 279.076 C 1792.6 275.796 1790.42 267.108 1788.13 261.963 C 1775.53 233.703 1770.7 206.665 1769.04 175.884 z" fill="rgb(218,199,177)" transform="translate(0,0)"></path>
<path d="M 1861.08 234.682 C 1865.58 241.513 1871.08 256.463 1872.74 264.679 C 1878.85 295.015 1876.42 310.621 1860.77 336.006 C 1859.36 338.251 1859.47 338.188 1857.41 339.834 L 1856.36 338.685 C 1847.4 296.163 1847.36 277.203 1861.08 234.682 z" fill="rgb(218,199,177)" transform="translate(0,0)"></path>
<path d="M 1973.97 416.973 L 1974.86 418.109 C 1975.47 423.74 1973.9 431.774 1972.52 437.364 C 1965.04 467.639 1949.49 483.505 1923.86 499.374 L 1923.02 498.85 C 1922.67 496.73 1922.7 496.398 1922.99 494.257 C 1927.41 461.848 1949.27 436.496 1973.97 416.973 z" fill="rgb(218,199,177)" transform="translate(0,0)"></path>
<path d="M 1775.41 458.399 C 1801.48 454.189 1823.48 464.62 1843.82 479.568 C 1832.38 480.083 1820.34 481.083 1808.86 481.88 C 1780.62 481.958 1763.19 477.758 1738.6 464.111 C 1750.85 461.94 1763.03 459.568 1775.41 458.399 z" fill="rgb(218,199,177)" transform="translate(0,0)"></path>
<path d="M 1741.99 315.356 C 1755.72 314.152 1764.84 317.228 1777.85 321.21 C 1760.6 334.514 1745.33 339.646 1724.11 342.635 C 1711.34 343.955 1701.84 343.279 1689.18 342.41 C 1704.15 325.464 1720.14 318.489 1741.99 315.356 z" fill="rgb(218,199,177)" transform="translate(0,0)"></path>
<path d="M 1776.54 378.365 C 1798.8 376.021 1816.08 379.747 1833.38 394.421 C 1819.66 394.509 1807.84 398.997 1794.24 400.631 C 1773.62 402.476 1753.64 395.828 1734.79 388.548 C 1749.7 383.684 1760.9 380.35 1776.54 378.365 z" fill="rgb(218,199,177)" transform="translate(0,0)"></path>
<path d="M 1814.42 1735.52 L 1813.77 1734.38 C 1797.12 1704.56 1833.3 1655.44 1850.61 1630.95 L 1851.82 1631.58 C 1856.52 1646.49 1858.42 1670.8 1856.04 1686.22 C 1853.41 1703.28 1843.78 1731.26 1825.42 1737.25 C 1819.05 1739.33 1814.71 1754.86 1810.84 1760.41 C 1804.32 1772.5 1797.46 1780.4 1788.28 1790.27 L 1787.98 1792.28 L 1788.15 1792.97 C 1784.12 1793.85 1785.29 1792.81 1783.06 1795.19 C 1771.47 1805.45 1764.18 1813.3 1750.62 1821.93 C 1745.85 1824.98 1728.93 1835.46 1726.66 1839.03 L 1723 1840.44 C 1705.98 1848.35 1681.41 1861.19 1664.61 1867.49 C 1660.59 1867.92 1659.62 1869.86 1659.15 1873.93 L 1658.89 1874.73 L 1657.15 1872.57 L 1653.65 1872.22 L 1652.91 1870.96 C 1649.83 1869.95 1621.43 1873.26 1615.47 1873.61 C 1605.35 1874.2 1592.05 1872.84 1583.12 1873.42 L 1580.99 1875.54 L 1579.99 1875 L 1576.41 1872.03 C 1538.74 1867.54 1499.78 1853.38 1470.11 1829.33 C 1465.87 1825.89 1453.13 1814.56 1458.46 1808.71 C 1463.93 1809.23 1472.95 1819.51 1478.38 1823.7 C 1529.24 1862.89 1584.31 1867.67 1645.44 1860.97 C 1647.45 1860.66 1647.07 1860.5 1648.98 1859.15 L 1649.76 1858.52 L 1652.88 1858.81 C 1660.92 1858.84 1707.48 1836.51 1716.9 1831.56 L 1714.87 1829.2 C 1692.67 1803.21 1708.35 1754.86 1731.78 1734.92 C 1735.69 1757.5 1741.1 1784.76 1731.73 1806.34 C 1728.33 1814.17 1722.67 1823.3 1718.38 1831 C 1739.9 1819.26 1759.68 1804.59 1777.17 1787.42 C 1741.82 1758.7 1759.62 1723.87 1764.8 1687.11 C 1764.77 1686.63 1764.74 1686.15 1764.71 1685.66 L 1766.96 1682.48 L 1768.52 1682.36 C 1790.22 1704.05 1788.51 1749.9 1785.31 1777.65 C 1792.29 1775.07 1810.1 1743.7 1814.42 1735.52 z" fill="rgb(101,59,43)" transform="translate(0,0)"></path>
<path d="M 1764.71 1685.66 L 1766.96 1682.48 L 1768.52 1682.36 C 1790.22 1704.05 1788.51 1749.9 1785.31 1777.65 L 1781.85 1780.02 L 1781.06 1782.36 L 1779.63 1782.68 L 1775.14 1780.82 C 1751.2 1755.98 1762 1719.56 1769.41 1690.13 C 1767.9 1688.31 1766.48 1687.19 1764.71 1685.66 z" fill="rgb(218,199,177)" transform="translate(0,0)"></path>
<path d="M 1764.71 1685.66 L 1766.96 1682.48 L 1768.52 1682.36 C 1790.22 1704.05 1788.51 1749.9 1785.31 1777.65 L 1781.85 1780.02 L 1781.06 1782.36 L 1779.63 1782.68 L 1775.14 1780.82 C 1773.92 1758.05 1771.23 1745.59 1776.75 1721.56 L 1779.83 1718.57 C 1777.02 1706.1 1775.32 1701.45 1769.41 1690.13 C 1767.9 1688.31 1766.48 1687.19 1764.71 1685.66 z" fill="rgb(218,199,177)" transform="translate(0,0)"></path>
<path d="M 1764.71 1685.66 L 1766.96 1682.48 L 1768.52 1682.36 C 1790.22 1704.05 1788.51 1749.9 1785.31 1777.65 L 1781.85 1780.02 C 1782.18 1757.23 1785.79 1742.15 1779.83 1718.57 C 1777.02 1706.1 1775.32 1701.45 1769.41 1690.13 C 1767.9 1688.31 1766.48 1687.19 1764.71 1685.66 z" fill="rgb(101,59,43)" transform="translate(0,0)"></path>
<path d="M 1776.75 1721.56 C 1776.91 1732.75 1775.48 1742.07 1775.44 1752.93 C 1775.41 1762.48 1778.22 1773.3 1779.63 1782.68 L 1775.14 1780.82 C 1773.92 1758.05 1771.23 1745.59 1776.75 1721.56 z" fill="rgb(153,114,95)" transform="translate(0,0)"></path>
<path d="M 1848.67 1642.79 C 1848.87 1642.99 1849.08 1643.17 1849.25 1643.39 C 1854.93 1651.05 1853.13 1679.16 1851.22 1689.07 C 1848.68 1702.2 1840.74 1724.61 1828.71 1731.72 C 1826.54 1733 1824.83 1734.05 1822.39 1733.37 C 1827.16 1717.44 1833.24 1701.77 1836.88 1685.52 L 1837.22 1683.96 L 1836.03 1684.2 C 1827.36 1695.81 1823.47 1718.43 1816.95 1732.59 C 1816 1729.77 1815.27 1726.88 1814.77 1723.94 C 1809.55 1694.29 1833.06 1665.55 1848.67 1642.79 z" fill="rgb(218,199,177)" transform="translate(0,0)"></path>
<path d="M 1728.54 1746.75 C 1733.32 1751.94 1732.33 1773.06 1732.09 1780.21 C 1731.63 1793.94 1727.1 1814.68 1716.7 1824.4 L 1715.4 1823.62 C 1710.9 1816.29 1708.44 1809.24 1708.06 1800.58 C 1707.22 1781.31 1715.74 1760.89 1728.54 1746.75 z" fill="rgb(218,199,177)" transform="translate(0,0)"></path>
<path d="M 1721.29 1786.71 C 1721.36 1787 1721.46 1787.28 1721.52 1787.57 C 1723.09 1795.78 1720.95 1811.28 1716.66 1818.32 C 1714.99 1811.8 1719.61 1793.79 1721.29 1786.71 z" fill="rgb(153,114,95)" transform="translate(0,0)"></path>
<path d="M 359.046 335.282 C 367.086 334.234 384.606 334.67 394.234 337.402 C 409.268 341.666 441.195 355.969 451.903 368.445 C 452.846 369.543 452.004 370.485 451.361 372.13 C 440.115 382.369 405.668 392.291 390.337 394.703 L 389.433 394.79 C 354.531 398.117 324.699 393.25 296.943 370.332 C 308.991 350.892 337.417 339.283 359.046 335.282 z" fill="rgb(101,59,43)" transform="translate(0,0)"></path>
<path d="M 301.711 369.435 L 301.396 367.33 C 305.745 363.293 309.806 362.058 314.237 359.148 C 352.093 334.292 391.669 336.215 429.591 359.933 C 434.189 362.809 441.943 367.072 447.084 369.594 C 401.886 387.166 360.143 396.122 313.687 375.578 C 310.733 374.273 307.809 372.9 304.917 371.461 C 303.021 370.997 303.425 370.892 301.711 369.435 z" fill="rgb(218,199,177)" transform="translate(0,0)"></path>
<path d="M 301.711 369.435 C 339.701 355.232 377.218 351.635 416.87 362.921 C 419.041 363.539 419.032 364.076 419.7 365.866 C 417.539 366.96 336.028 354.474 304.917 371.461 C 303.021 370.997 303.425 370.892 301.711 369.435 z" fill="rgb(101,59,43)" transform="translate(0,0)"></path>
<path d="M 779.008 374.708 C 807.237 349.51 844.325 344.834 877.507 362.915 C 888.752 369.042 903.749 378.491 912.668 387.71 C 887.533 396.338 865.019 408.863 837.328 408.845 C 812.393 408.829 792.207 399.649 777.941 378.835 C 765.994 379.06 755.269 379.349 743.345 380.202 C 739.694 379.907 737.325 380.068 734.169 378.224 C 747.643 375.773 765.15 375.294 779.008 374.708 z" fill="rgb(101,59,43)" transform="translate(0,0)"></path>
<path d="M 787.117 374.967 C 820.513 344.929 872.081 360.139 903.61 384.957 C 901.493 386.096 901.169 386.282 898.887 386.987 C 869.002 397.677 840.486 407.841 809.337 396.054 C 803.515 393.851 788.409 385.451 785.762 379.636 L 787.763 378.511 C 786.524 377.959 787.301 378.371 785.598 377.003 L 787.117 374.967 z" fill="rgb(218,199,177)" transform="translate(0,0)"></path>
<path d="M 787.117 374.967 C 820.513 344.929 872.081 360.139 903.61 384.957 C 901.493 386.096 901.169 386.282 898.887 386.987 L 896.843 384.533 C 880.949 383.609 865.247 380.41 849.346 378.757 C 828.138 376.552 808.918 377.223 787.763 378.511 C 786.524 377.959 787.301 378.371 785.598 377.003 L 787.117 374.967 z" fill="rgb(218,199,177)" transform="translate(0,0)"></path>
<path d="M 787.117 374.967 C 808.605 372.004 880.504 373.045 896.843 384.533 C 880.949 383.609 865.247 380.41 849.346 378.757 C 828.138 376.552 808.918 377.223 787.763 378.511 C 786.524 377.959 787.301 378.371 785.598 377.003 L 787.117 374.967 z" fill="rgb(101,59,43)" transform="translate(0,0)"></path>
<path d="M 282.284 1598.59 C 291.795 1608.63 308.162 1660.06 308.813 1674.72 C 309.711 1694.95 294.77 1734.69 281.357 1749.42 C 279.952 1750.38 279.366 1750.67 277.811 1751.13 C 273.07 1747.2 272.755 1735.31 271.205 1729.51 C 266.556 1712.11 259.444 1696.54 257.456 1678.29 C 254.412 1650.34 264.959 1620.37 282.284 1598.59 z" fill="rgb(101,59,43)" transform="translate(0,0)"></path>
<path d="M 281.242 1608.69 C 281.738 1609.81 282.209 1610.95 282.655 1612.1 C 306.139 1672.77 308.301 1676.74 281.609 1736.69 L 280.302 1737.14 C 276.458 1721.02 270.095 1705.42 266.873 1689.28 C 261.551 1662.63 266.066 1631.6 281.242 1608.69 z" fill="rgb(254,252,247)" transform="translate(0,0)"></path>
<path d="M 1728.36 1838.36 C 1755.76 1825.52 1792.77 1834.63 1820.09 1844.41 C 1820.8 1844.64 1827.38 1845.73 1828.49 1845.92 L 1829.09 1847.02 C 1826.15 1851.02 1818.5 1853.65 1813.96 1855.78 C 1798.16 1863.18 1784.73 1868.32 1766.96 1866.77 C 1744.44 1864.81 1736.36 1856.37 1723 1840.44 L 1726.66 1839.03 L 1727.51 1839.15 L 1728.36 1838.36 z" fill="rgb(218,199,177)" transform="translate(0,0)"></path>
<path d="M 1726.66 1839.03 L 1727.51 1839.15 C 1729.9 1841.22 1729.17 1841.24 1731.81 1841.84 C 1738.32 1840.48 1775.04 1849.24 1782.75 1851.51 C 1762.01 1851.81 1751.69 1848.29 1731.83 1842.64 C 1733.09 1847.13 1739.62 1852.47 1743.62 1854.76 C 1770.51 1870.18 1794.24 1860.04 1819.01 1848.33 C 1819.82 1846.85 1819.75 1846.17 1820.09 1844.41 C 1820.8 1844.64 1827.38 1845.73 1828.49 1845.92 L 1829.09 1847.02 C 1826.15 1851.02 1818.5 1853.65 1813.96 1855.78 C 1798.16 1863.18 1784.73 1868.32 1766.96 1866.77 C 1744.44 1864.81 1736.36 1856.37 1723 1840.44 L 1726.66 1839.03 z" fill="rgb(101,59,43)" transform="translate(0,0)"></path>
<path d="M 1728.36 1838.36 C 1755.76 1825.52 1792.77 1834.63 1820.09 1844.41 C 1819.75 1846.17 1819.82 1846.85 1819.01 1848.33 C 1800.44 1842.85 1778.87 1836.95 1759.52 1836.5 C 1749.47 1836.26 1738.68 1839.03 1728.36 1838.36 z" fill="rgb(101,59,43)" transform="translate(0,0)"></path>
<path d="M 1791.1 1790.35 C 1806.44 1777.55 1858.68 1759.96 1878.32 1758.63 L 1879.48 1760.05 C 1878.72 1766.56 1871.49 1776.98 1867.31 1782.09 C 1849.6 1803.73 1804.56 1818.72 1783.06 1795.19 C 1785.29 1792.81 1784.12 1793.85 1788.15 1792.97 L 1787.98 1792.28 L 1789.41 1791.7 L 1791.1 1790.35 z" fill="rgb(218,199,177)" transform="translate(0,0)"></path>
<path d="M 1791.1 1790.35 C 1806.44 1777.55 1858.68 1759.96 1878.32 1758.63 L 1879.48 1760.05 C 1878.72 1766.56 1871.49 1776.98 1867.31 1782.09 C 1849.6 1803.73 1804.56 1818.72 1783.06 1795.19 C 1785.29 1792.81 1784.12 1793.85 1788.15 1792.97 L 1787.98 1792.28 L 1789.41 1791.7 C 1809.17 1794.68 1823.92 1787.88 1843.26 1784.73 C 1825.22 1794.56 1808.16 1797.48 1788.1 1793.95 C 1794.07 1805.21 1822.07 1802.77 1832.97 1799.05 C 1853 1792.21 1863.27 1782.56 1872.85 1764.18 C 1858.09 1765.98 1843.14 1771.52 1829.26 1776.44 C 1819.66 1779.85 1800.32 1790.05 1791.1 1790.35 z" fill="rgb(101,59,43)" transform="translate(0,0)"></path>
<path d="M 1659.15 1873.93 C 1659.62 1869.86 1660.59 1867.92 1664.61 1867.49 C 1700.94 1870.92 1712.29 1886.55 1736.73 1912.46 C 1738.01 1913.81 1737.68 1913.58 1738.19 1915.52 C 1735.88 1917.72 1734.1 1917.95 1730.87 1917.77 C 1695.42 1915.82 1664.31 1910.57 1653.65 1872.22 L 1657.15 1872.57 L 1658.89 1874.73 L 1659.15 1873.93 z" fill="rgb(218,199,177)" transform="translate(0,0)"></path>
<path d="M 1659.15 1873.93 C 1659.62 1869.86 1660.59 1867.92 1664.61 1867.49 C 1700.94 1870.92 1712.29 1886.55 1736.73 1912.46 C 1738.01 1913.81 1737.68 1913.58 1738.19 1915.52 C 1735.88 1917.72 1734.1 1917.95 1730.87 1917.77 C 1695.42 1915.82 1664.31 1910.57 1653.65 1872.22 L 1657.15 1872.57 L 1658.89 1874.73 C 1667.03 1906.61 1704.14 1911.94 1732.13 1913.64 C 1704.27 1884.49 1698.02 1877.25 1658.61 1869.65 C 1667.39 1877.68 1682.77 1887.77 1692.79 1894.67 C 1680.02 1890.59 1667.97 1884.15 1659.15 1873.93 z" fill="rgb(101,59,43)" transform="translate(0,0)"></path>
<path d="M 1576.41 1872.03 L 1579.99 1875 L 1580.99 1875.54 L 1583.12 1873.42 C 1586.53 1876.26 1598.15 1881.29 1603.19 1885.38 C 1620.23 1899.22 1631.81 1922.4 1639.27 1942.21 C 1602.1 1932.18 1570.77 1916.38 1576.41 1872.03 z" fill="rgb(218,199,177)" transform="translate(0,0)"></path>
<path d="M 1576.41 1872.03 L 1579.99 1875 C 1571.82 1907.67 1605.33 1927 1631.54 1934.39 C 1624.65 1919.46 1614.05 1898.88 1600.55 1888.72 C 1594.55 1884.21 1586.95 1880.64 1580.99 1875.54 L 1583.12 1873.42 C 1586.53 1876.26 1598.15 1881.29 1603.19 1885.38 C 1620.23 1899.22 1631.81 1922.4 1639.27 1942.21 C 1602.1 1932.18 1570.77 1916.38 1576.41 1872.03 z" fill="rgb(101,59,43)" transform="translate(0,0)"></path>
<path d="M 1645.44 1860.97 C 1639.45 1849.07 1638.2 1841.7 1640.48 1828.27 C 1643.58 1810.01 1664.9 1781.4 1679.64 1771.6 C 1679.66 1772.33 1679.68 1773.07 1679.69 1773.81 C 1680.02 1805.3 1675.5 1835.48 1652.88 1858.81 L 1649.76 1858.52 L 1648.98 1859.15 C 1647.07 1860.5 1647.45 1860.66 1645.44 1860.97 z" fill="rgb(218,199,177)" transform="translate(0,0)"></path>
<path d="M 1645.44 1860.97 C 1639.45 1849.07 1638.2 1841.7 1640.48 1828.27 C 1643.58 1810.01 1664.9 1781.4 1679.64 1771.6 C 1679.66 1772.33 1679.68 1773.07 1679.69 1773.81 C 1680.02 1805.3 1675.5 1835.48 1652.88 1858.81 L 1649.76 1858.52 L 1651.24 1855.31 L 1654.2 1850.99 C 1670.8 1827.91 1674.35 1809.14 1676.33 1780.86 C 1656.95 1800.85 1632.79 1829.62 1648.98 1859.15 C 1647.07 1860.5 1647.45 1860.66 1645.44 1860.97 z" fill="rgb(101,59,43)" transform="translate(0,0)"></path>
<path d="M 1651.24 1855.31 C 1650.67 1843.54 1655.65 1826.89 1662.89 1818.05 L 1664.06 1818.28 C 1659.19 1829.02 1653.51 1838.91 1654.2 1850.99 L 1651.24 1855.31 z" fill="rgb(191,158,137)" transform="translate(0,0)"></path>
<path d="M 1453.43 299.725 C 1457.89 297.693 1463.11 298.222 1467.08 301.108 C 1471.05 303.995 1473.16 308.794 1472.6 313.67 C 1472.04 318.546 1468.91 322.746 1464.39 324.664 C 1457.53 327.578 1449.59 324.433 1446.59 317.607 C 1443.59 310.781 1446.64 302.811 1453.43 299.725 z" fill="rgb(101,59,43)" transform="translate(0,0)"></path>
<path d="M 1455.78 304.431 C 1458.71 303.211 1462.07 303.704 1464.53 305.715 C 1466.98 307.725 1468.13 310.924 1467.51 314.035 C 1466.89 317.145 1464.6 319.66 1461.56 320.575 C 1457.19 321.893 1452.55 319.551 1451 315.248 C 1449.46 310.945 1451.57 306.189 1455.78 304.431 z" fill="rgb(254,252,247)" transform="translate(0,0)"></path>
<path d="M 1939.01 1621.02 C 1939.49 1620.99 1939.97 1620.95 1940.45 1620.93 C 1945.75 1620.67 1950.74 1621.31 1954.74 1625.15 C 1956.96 1627.29 1958.35 1630.16 1958.02 1633.31 C 1957.45 1638.68 1953.42 1641.64 1949.29 1644.43 C 1946.98 1644.8 1944.63 1645.18 1942.29 1644.85 C 1938.43 1644.28 1934.96 1642.19 1932.65 1639.05 C 1930.5 1636.13 1929.76 1632.52 1930.77 1629.01 C 1932.11 1624.38 1934.99 1623.01 1939.01 1621.02 z" fill="rgb(101,59,43)" transform="translate(0,0)"></path>
<path d="M 1939.76 1625.92 C 1943.23 1625.72 1947.85 1625.48 1950.71 1627.83 C 1952.43 1629.23 1953.37 1631.05 1953.02 1633.29 C 1952.51 1636.51 1949.77 1638.65 1947.49 1640.67 C 1944.18 1641.14 1940.4 1640.38 1937.79 1638.15 C 1935.67 1636.32 1935.41 1634.75 1935.12 1632.08 C 1936.26 1628.84 1937.26 1628.18 1939.76 1625.92 z" fill="rgb(254,252,247)" transform="translate(0,0)"></path>
<path d="M 1120.7 250.272 L 1124.38 251.293 C 1127.59 256.105 1125.86 272.789 1125.05 278.801 C 1123.05 278.395 1123.31 278.385 1121.42 277.538 C 1118.44 271.975 1120.24 257.29 1120.7 250.272 z" fill="rgb(114,52,36)" transform="translate(0,0)"></path>
<path d="M 1498.58 1741.19 L 1514.18 1740.63 C 1517.6 1740.54 1522.8 1740.19 1525.43 1742.7 L 1525.16 1746.05 C 1519.29 1747.11 1505.78 1748.14 1500.51 1745.25 C 1499.11 1744.48 1499.03 1742.62 1498.58 1741.19 z" fill="rgb(114,52,36)" transform="translate(0,0)"></path>
<path d="M 1120.53 314.192 L 1123.31 315.187 C 1126.67 319.558 1125.7 336.935 1123.76 341.98 C 1116.72 336.541 1119.2 322.243 1120.53 314.192 z" fill="rgb(101,59,43)" transform="translate(0,0)"></path>
<path d="M 1556.14 1739.38 C 1562.59 1739.1 1576.76 1736.81 1581.67 1741.02 L 1581.73 1744.01 C 1573.72 1744.27 1563.53 1745.64 1555.81 1743.38 L 1554.97 1741.59 L 1556.14 1739.38 z" fill="rgb(101,59,43)" transform="translate(0,0)"></path>
<path d="M 1541.31 1757.51 C 1542.44 1758.19 1542.72 1758.09 1543.24 1759.12 C 1545.87 1764.3 1544.55 1780.98 1542.76 1786.41 C 1541.14 1784.81 1539.89 1783.63 1539.39 1781.3 C 1537.93 1774.56 1537.58 1763.55 1541.31 1757.51 z" fill="rgb(114,52,36)" transform="translate(0,0)"></path>
<path d="M 1093.04 291.393 C 1096.39 291.091 1099.08 290.38 1100.65 293.833 L 1099.14 296.146 C 1095.91 298.394 1093.17 297.872 1089.13 297.878 C 1085.52 297.955 1082.04 298.505 1079.43 296.122 L 1080.06 294.615 C 1084.56 291.656 1087.64 291.896 1093.04 291.393 z" fill="rgb(114,52,36)" transform="translate(0,0)"></path>
<path d="M 1828.71 1903.17 C 1829.71 1903.6 1830.73 1903.72 1831.25 1904.76 C 1833.82 1909.93 1832.57 1924.86 1830.57 1930.12 C 1829.57 1929.48 1828.47 1929.03 1827.88 1927.95 C 1824.96 1922.6 1827.09 1908.89 1828.71 1903.17 z" fill="rgb(114,52,36)" transform="translate(0,0)"></path>
<path d="M 1540.99 1705.59 C 1542.78 1706.55 1542.27 1706.05 1543.46 1707.49 C 1546.93 1711.7 1544.27 1724.56 1543.6 1729.88 C 1542.18 1729.3 1540.51 1729.12 1539.81 1727.66 C 1537.19 1722.16 1539.67 1711.4 1540.99 1705.59 z" fill="rgb(114,52,36)" transform="translate(0,0)"></path>
<path d="M 1144.05 291.331 C 1149.19 291.041 1162.74 289.511 1165.7 293.417 L 1164.73 295.819 C 1159.09 296.225 1146.83 298.34 1143.32 294.027 L 1144.05 291.331 z" fill="rgb(114,52,36)" transform="translate(0,0)"></path>
<path d="M 1790.69 1941.31 C 1796.58 1940.47 1808.92 1938.97 1813.82 1942.58 L 1813.8 1945.25 C 1808.22 1946.45 1799.12 1946.73 1793.81 1944.62 C 1791.69 1943.78 1791.6 1943.27 1790.69 1941.31 z" fill="rgb(114,52,36)" transform="translate(0,0)"></path>
<path d="M 1845.09 1940.55 C 1847.81 1940.39 1850.56 1940.21 1853.29 1940.21 C 1856.65 1940.21 1860.05 1940.46 1862.46 1942.86 L 1861.9 1944.34 L 1859.25 1945.02 C 1859 1945.04 1858.75 1945.05 1858.5 1945.08 C 1856.7 1945.24 1854.92 1945.41 1853.11 1945.51 C 1849.66 1945.69 1844.64 1945.48 1841.96 1943.11 L 1842.24 1941.48 L 1845.09 1940.55 z" fill="rgb(114,52,36)" transform="translate(0,0)"></path>
<path d="M 1276.8 220.297 C 1281.37 220.006 1290.87 218.768 1294.15 222.089 C 1293.51 224.892 1294.2 223.621 1291.26 225.543 C 1286.54 225.478 1280.19 225.843 1275.97 224.277 L 1275.27 222.653 L 1276.8 220.297 z" fill="rgb(114,52,36)" transform="translate(0,0)"></path>
<path d="M 1303.71 191.295 C 1309.93 194.221 1307.52 208.007 1305.54 213.137 C 1303.29 211.825 1303.86 212.415 1302.52 210.382 C 1301.41 203.562 1302.13 197.982 1303.71 191.295 z" fill="rgb(114,52,36)" transform="translate(0,0)"></path>
<path d="M 1314.9 220.249 C 1319.99 219.974 1328.03 218.799 1331.63 222.572 L 1330.71 224.736 C 1325.72 225.562 1317.55 227.229 1314.16 223.011 L 1314.9 220.249 z" fill="rgb(114,52,36)" transform="translate(0,0)"></path>
<path d="M 1303.47 234.174 C 1305.78 234.902 1305.73 234.734 1307.27 236.561 C 1308.79 243.035 1308.2 246.901 1306.89 253.461 C 1304.78 252.453 1305.5 252.82 1303.8 250.987 C 1301.72 244.525 1302.38 240.926 1303.47 234.174 z" fill="rgb(114,52,36)" transform="translate(0,0)"></path>
<path d="M 1828.57 1956.22 C 1830.24 1957.06 1830.52 1957.29 1831.62 1958.66 C 1832.77 1965.04 1832.43 1971.18 1830.98 1977.48 C 1829.9 1976.88 1829.39 1976.83 1828.79 1975.87 C 1826.11 1971.53 1828.1 1961.16 1828.57 1956.22 z" fill="rgb(114,52,36)" transform="translate(0,0)"></path>
<path d="M 719.468 381.637 L 719.951 379.51 L 721.834 378.717 C 725.843 378.761 731.283 378.14 734.169 378.224 C 737.325 380.068 739.694 379.907 743.345 380.202 C 738.479 380.83 723.85 382.149 719.468 381.637 z" fill="rgb(114,52,36)" transform="translate(0,0)"></path>
<path d="M 483.639 1182 L 484.078 1184.75 C 479.941 1185.22 473.958 1185.33 469.659 1185.55 L 473.294 1181.63 C 476.313 1181.92 480.528 1181.91 483.639 1182 z" fill="rgb(135,74,49)" transform="translate(0,0)"></path>
<metadata><recraft-signature>{"signed_by": "recraft", "signature_b64": "RTWc8/3+GNJ8EkqkpTva2Gssrd8N6QVyjfDYTqaL1DewJWAkucnSjzNAGElnaHtep+kMkfHTGovGevrCLoKdBg==", "signing_algo": "Ed25519", "generation_timestamp": 1778093002, "identifier": "a4f125db-881a-4a87-be96-43be7e25302e"}</recraft-signature></metadata></svg>