<svg xmlns="http://www.w3.org/2000/svg" height="1024" preserveAspectRatio="none" style="display: block;" version="1.1" viewBox="0 0 2048 2048" width="1024">
<path d="M 0 0 L 2048 0 L 2048 2048 L 0 2048 L 0 0 z" fill="rgb(254,253,249)" transform="translate(0,0)"></path>
<path d="M 956.765 108.464 C 1056.52 105.808 1174.87 127.179 1271.25 154.248 C 1354.68 177.506 1435.66 208.743 1513.1 247.527 C 1542.94 262.585 1579.41 284.429 1607.6 301.922 C 1704.32 361.933 1799.62 433.065 1875.83 518.151 C 1896.97 541.744 1921.2 570.376 1937.99 597.694 C 1962.79 638.042 1987.47 685.155 1977.09 733.608 C 1970.46 764.581 1922.58 849.001 1896.69 864.704 C 1829.46 905.466 1709.35 877.22 1636.87 862.459 C 1618.43 858.703 1590.58 850.049 1571.01 845.415 C 1580.4 859.325 1593.28 876.461 1601.59 890.77 C 1623.62 928.729 1642.14 978.048 1647.97 1021.51 C 1651.27 1047.06 1652.08 1072.87 1650.4 1098.58 C 1648.33 1127.38 1642.89 1147.18 1639.06 1174.61 C 1623.37 1287.57 1601.47 1399.58 1573.46 1510.13 C 1563.22 1550.55 1553.52 1589.9 1539.65 1629.36 C 1509.27 1715.8 1433.57 1772.94 1356.62 1817 C 1248.44 1879.53 1128.87 1919.86 1004.92 1935.63 C 915.678 1947.25 825.369 1948.17 735.91 1938.37 C 568.415 1919.37 360.557 1853.74 250.338 1717.54 C 232.287 1695.23 214.263 1659.89 204.061 1632.36 C 187.648 1588.07 175.517 1538.9 163.156 1493.15 C 154.603 1461.5 145.337 1428.79 137.597 1397.02 C 128.088 1356.95 119.274 1316.72 111.157 1276.35 C 102.023 1232.6 95.5868 1198.43 89.8257 1154.11 C 84.1709 1110.6 78.5002 1079.07 84.9382 1034.05 C 99.5942 934 156.569 837.341 227.937 766.553 C 392.503 603.325 629.652 536.423 856.746 536.689 C 909.901 536.752 950.283 538.779 1002.83 544.935 C 993.387 537.017 984.05 528.972 974.824 520.801 C 908.166 461.322 840.984 386.407 808.738 301.685 C 802.797 286.078 793.675 260.934 801.434 244.67 C 840.404 162.987 854.726 111.129 956.765 108.464 z" fill="rgb(108,74,41)" transform="translate(0,0)"></path>
<path d="M 951.533 117.425 C 1013.11 115.271 1093.47 125.01 1153.55 136.306 C 1276.35 159.25 1395.39 199.079 1507.27 254.659 C 1528.12 265.231 1551.5 278.992 1571.68 290.905 C 1626.32 322.521 1678.79 357.751 1728.74 396.358 C 1814.81 462.322 1898.59 541.408 1949.75 638.496 C 1992.59 719.776 1969.33 772.185 1876.24 783.645 L 1873.9 783.889 C 1699.22 801.572 1404.61 683.577 1252.26 600.376 C 1190.34 567.346 1131.62 528.63 1076.86 484.728 C 995.985 418.686 870.062 308.113 859.555 198.016 C 857.848 180.14 861.646 157.112 873.589 143.164 C 891.475 122.276 925.919 118.986 951.533 117.425 z" fill="rgb(254,253,249)" transform="translate(0,0)"></path>
<path d="M 947.99 126.421 C 958.698 125.286 978.857 125.68 989.704 125.961 C 1023.07 126.677 1056.37 129.304 1089.43 133.829 C 1293.72 160.96 1488.94 235.049 1659.79 350.287 C 1758.96 417.482 1931.13 562.939 1959.47 685.198 C 1963.37 702.022 1962.97 725.286 1952.02 739.61 C 1935.08 761.762 1906.09 770.217 1880.01 774.716 C 1874.86 775.595 1869.67 776.237 1864.46 776.64 C 1715.83 787.683 1468.34 700.004 1334.63 631.853 C 1256.4 591.509 1181.57 544.879 1110.89 492.425 C 1093.58 479.745 1052.55 449.672 1036.69 434.944 C 969.352 370.885 879.673 294.316 866.282 197.072 C 859.005 144.229 905.88 129.099 947.99 126.421 z" fill="rgb(108,74,41)" transform="translate(0,0)"></path>
<path d="M 974.51 203.42 C 999.644 201.325 1052.76 205.078 1077.75 207.557 C 1254.72 226.399 1425.25 284.484 1576.93 377.579 C 1605.43 395.363 1652.18 426.788 1680.44 450.11 C 1755.77 512.266 1857.09 609.781 1885.86 705.976 C 1892.55 728.326 1884.53 747.568 1872.97 765.843 C 1833.89 772.693 1713.4 758.127 1676.25 744.968 C 1709.41 739.309 1743.31 730.666 1766.37 704.984 C 1806.94 659.884 1790.71 593.994 1756.89 550.201 C 1753.47 545.762 1744.11 530.776 1738.33 531.37 L 1736.83 533.505 C 1737.15 540.077 1746 547.21 1749.8 553.25 C 1758.3 566.466 1766.33 580.065 1772.46 594.441 C 1795.35 648.077 1776.69 704.785 1720.17 725.527 C 1699.78 733.011 1669.98 739.935 1648.13 737.62 C 1636.47 736.385 1613.69 728.228 1601.95 724.569 C 1541.59 706.391 1482.3 684.838 1424.36 660.013 C 1407.32 653.132 1390.18 644.639 1373.52 636.876 C 1301.31 603.222 1232.87 562.286 1166.69 518.067 C 1158.07 512.306 1152.89 507.836 1146.65 499.507 C 1118.47 461.909 1082.62 402.48 1135.11 367.404 C 1174.75 340.072 1219.26 331.078 1266.76 329.135 C 1277.44 328.699 1311.07 332.973 1317.27 328.301 L 1317.42 325.882 C 1314.02 322.403 1291.25 322.087 1284.22 321.828 C 1226.38 319.7 1116.5 336.792 1101.14 404.394 C 1095.04 431.238 1117.21 472.691 1133.24 494.836 C 1126.74 490.721 1110.19 477.573 1103.22 472.222 C 1071.31 447.746 1033.94 418.69 1005.85 389.977 C 1004.64 354.282 1022.94 333.746 1053.09 316.97 C 1127.19 275.909 1216.44 278.295 1297.41 293.053 C 1304.28 294.306 1321.25 299.554 1326.65 296.667 C 1327.16 293.331 1327.38 294.896 1325.88 291.819 C 1317.89 286.648 1282.15 281.801 1270.62 280.168 C 1192.29 269.076 1097.48 273.406 1031.46 321.825 C 1009.93 337.621 1000.18 356.785 996.683 382.568 C 962.166 346.139 913.307 293.715 894.699 246.665 C 900.263 206.816 942.229 205.644 974.51 203.42 z" fill="rgb(254,253,249)" transform="translate(0,0)"></path>
<path d="M 1395.47 465.297 C 1418.32 463.386 1443.16 472.339 1463.97 483.796 C 1480.46 492.881 1515.24 516.019 1501.63 540.19 C 1496.74 548.889 1483.72 553.074 1473.97 554.961 C 1444.8 555.839 1415.11 546.482 1390.49 530.86 C 1357.61 509.996 1345.68 473.955 1395.47 465.297 z" fill="rgb(108,74,41)" transform="translate(0,0)"></path>
<path d="M 1396.73 473.351 C 1447.85 468.423 1543 538.199 1470.25 546.651 C 1447.3 547.986 1415.52 536.55 1396.17 524.689 C 1370.35 508.861 1351.39 479.51 1396.73 473.351 z" fill="rgb(254,253,249)" transform="translate(0,0)"></path>
<path d="M 1409.27 496.376 C 1416.65 497.905 1454.27 512.768 1462.79 517.416 C 1465.32 518.797 1465.2 521.955 1465.5 524.5 C 1456.97 523.662 1416.85 509.106 1409.85 503.819 C 1408.29 501.311 1408.93 499.397 1409.27 496.376 z" fill="rgb(108,74,41)" transform="translate(0,0)"></path>
<path d="M 1303.4 370.411 C 1338.36 366.842 1382.25 375.439 1415.99 385.101 C 1422.52 386.971 1429.73 388.045 1434.57 393.082 C 1435.35 396.471 1435.52 394.803 1433.47 398.175 C 1430.08 399.437 1409 391.981 1403.68 390.444 C 1394.12 387.735 1384.44 385.456 1374.67 383.614 C 1327.35 374.651 1256.96 372.087 1223.88 412.524 C 1186.73 457.93 1253.59 524.556 1288.67 549.717 C 1361.05 601.632 1459.55 646.858 1550.28 636.915 C 1593.58 632.17 1637.73 603.054 1629.51 555.311 C 1621.81 510.809 1582.38 477.369 1547.73 451.866 C 1523.5 434.565 1497.84 422.187 1470.71 410.364 C 1468.06 409.208 1468.3 409.03 1466.96 406.767 L 1467.76 405.417 C 1487.12 399.222 1549.49 443.384 1565.33 454.325 C 1653.34 512.333 1676.38 630.959 1546.16 646.198 C 1451.62 657.261 1344.34 602.47 1271.3 546.645 C 1184.16 480.04 1174.13 380.464 1303.4 370.411 z" fill="rgb(108,74,41)" transform="translate(0,0)"></path>
<path d="M 1347.51 417.291 C 1398.24 413.711 1447.07 429.078 1490.61 454.81 C 1520.23 472.977 1553.91 498.391 1563.2 533.659 C 1572.68 569.603 1544.99 592.548 1512.88 598.696 C 1478.06 605.364 1442.03 596.956 1409.48 584.292 C 1402.49 581.573 1382.85 575.036 1381.46 566.942 C 1386.56 563.034 1408.32 574.549 1415.06 577.329 C 1435.03 585.652 1456.17 590.797 1477.73 592.577 C 1502.38 594.391 1526.51 590.692 1545.68 574.187 C 1587.88 531.299 1510.54 474.248 1476.44 456.427 C 1431.52 432.947 1334.82 397.99 1299.91 454.719 C 1283.36 481.599 1317.16 522.205 1340.99 532.783 C 1344.53 534.404 1346.45 535.08 1347.39 539.088 C 1345.62 542.246 1346.85 541.121 1343.54 542.579 C 1339.5 542.137 1337.94 541.514 1334.41 539.197 C 1313.58 525.497 1294.9 508.35 1289.49 483.02 C 1286.83 470.598 1289.04 454.184 1296.64 443.925 C 1308.87 427.402 1328.12 420.391 1347.51 417.291 z" fill="rgb(108,74,41)" transform="translate(0,0)"></path>
<path d="M 1658.64 484.554 C 1672.81 485.532 1704.94 536.085 1711.52 547.782 C 1737.72 594.303 1718.38 647.794 1670.68 670.178 C 1618.31 694.757 1552.1 690.393 1498.39 672.402 C 1495.44 671.139 1492.99 669.167 1492.41 665.978 L 1493.43 664.697 C 1500.22 662.536 1511.36 667.816 1518.43 669.55 C 1534.01 673.283 1549.86 675.79 1565.83 677.046 C 1606.87 680.139 1656.08 677.298 1687.59 649.044 C 1740.54 601.567 1707.12 541.579 1666.3 500.001 C 1660.9 494.497 1657.74 492.214 1658.64 484.554 z" fill="rgb(108,74,41)" transform="translate(0,0)"></path>
<path d="M 1364.74 329.36 C 1367.17 329.741 1369.6 330.175 1372.01 330.66 C 1453.95 347.13 1567.41 394.902 1629.43 458.569 C 1631.21 460.389 1630.38 463.413 1629.9 465.579 C 1629.16 465.684 1626.37 465.924 1625.76 465.367 C 1610.01 450.918 1594.86 438.751 1577.3 426.486 C 1530.93 394.423 1479.85 369.784 1425.9 353.455 C 1417.53 350.9 1366.83 338.362 1364.43 336.909 C 1363.22 334.189 1364.06 332.337 1364.74 329.36 z" fill="rgb(108,74,41)" transform="translate(0,0)"></path>
<path d="M 949.104 134.414 C 973.861 131.782 1033.03 136.304 1057.7 138.755 C 1250.86 159.589 1437.14 222.327 1603.55 322.591 C 1670.58 364.086 1733.5 411.882 1791.45 465.328 C 1831.7 501.968 1863.13 533.915 1895.56 578.161 C 1939.3 637.828 2005.6 740.949 1889.11 764.233 C 1896.64 745.675 1899.85 739.766 1900.16 719.582 C 1899.81 703.182 1893.97 687.546 1887.2 672.818 C 1868.92 633.056 1842.9 597.539 1814.84 564.16 C 1722.05 453.81 1602.23 371.07 1473 309.047 C 1442.27 294.3 1411.06 279.855 1379.02 268.152 C 1337.01 252.804 1293.96 238.293 1250.62 227.272 C 1177.23 208.607 982.052 173.244 914.36 205.312 C 901.641 211.338 892.553 220.462 887.885 233.862 C 881.072 220.073 878.121 210.827 876.676 195.525 C 872.14 147.489 909.722 137.295 949.104 134.414 z" fill="rgb(254,253,249)" transform="translate(0,0)"></path>
<path d="M 856.896 904.45 C 876.399 904.14 900.15 904.579 919.569 905.441 C 853.901 918.253 792.975 948.744 743.357 993.627 C 696.434 1035.06 660.129 1087.14 637.486 1145.5 C 628.548 1168.32 622.5 1186.76 620.981 1211.37 C 624.959 1201.31 628.211 1188.94 631.857 1178.43 C 639.625 1155.73 649.269 1133.72 660.687 1112.62 C 711.408 1020.52 795.664 950.459 897.015 920.669 C 908.353 917.337 939.155 910.199 950.25 911.316 C 991.976 915.515 1064.89 941.043 1100.32 960.558 C 933.953 937.25 791.226 1052.99 751.325 1210.76 C 745.578 1233.48 740.882 1254.34 741.737 1278.1 C 746.392 1260.37 749.523 1243.39 754.731 1225.23 C 775.039 1157.5 799.904 1107.07 850.663 1054.64 C 911.508 991.808 1025.1 950.058 1112.67 972.858 C 1128.74 977.044 1168.2 1013.52 1180.77 1026.19 C 1146.01 1014.28 1113.48 1017.75 1078.23 1025.6 C 1034.99 1038.2 998.245 1052.02 963.508 1082.47 C 917.617 1122.7 887.946 1172.29 870.831 1230.41 C 866.028 1246.72 861.351 1260.9 860.149 1278.17 C 865.415 1267.24 874.868 1236.53 880.108 1222.78 C 903.641 1161.02 944.03 1100.98 1001.87 1066.91 C 1039.67 1044.65 1094.75 1026 1139.05 1027.56 C 1158.26 1028.24 1171.56 1031.14 1189.82 1035.92 C 1245.52 1109.66 1280 1197.51 1208.57 1274.14 C 1195.79 1288.03 1181.62 1300.56 1166.27 1311.54 C 1075.47 1375.59 921.553 1413.02 810.223 1417.65 C 730.706 1420.95 622.699 1412.99 560.644 1356.66 C 534.558 1332.98 518.671 1287.99 518.128 1252.65 C 516.87 1170.63 566.548 1071.55 622.776 1013.05 C 688.714 944.458 760.75 907.072 856.896 904.45 z" fill="rgb(254,253,249)" transform="translate(0,0)"></path>
<path d="M 232.936 1283.21 L 233.906 1281.54 C 240.738 1269.69 245.13 1255.81 250.374 1243.02 C 257.307 1226.41 265.77 1210.48 275.653 1195.44 C 278.859 1190.64 282.331 1185.83 285.87 1181.27 C 369.513 1073.33 500.062 1001.8 629.825 966.121 C 641.802 962.759 653.902 959.851 666.099 957.405 C 606.739 1001.04 565.081 1053.77 535.396 1120.9 C 502.507 1193.15 486.352 1281.6 536.756 1350.2 C 571.34 1397.37 637.18 1418.56 692.993 1426.24 C 783.596 1438.72 873.877 1432.01 962.959 1410.07 C 1057.57 1386.75 1161.54 1351.25 1227.66 1275.11 C 1244.62 1255.58 1257.39 1228.15 1260.49 1202.01 C 1271.02 1113.34 1211.19 1022.83 1139.34 975.419 C 1130.17 969.33 1120.13 964.101 1111.08 957.945 C 1231.76 987.439 1351.84 1036.16 1444.75 1121.51 C 1477.87 1151.94 1513.54 1195.82 1533.59 1235.99 C 1433.43 1389.55 1227.44 1476.03 1054.85 1512.44 C 1020.43 1519.7 985.865 1524.19 950.867 1527.52 C 748.374 1546.81 532.27 1507.8 360.303 1395.42 C 352.455 1390.29 315.065 1366.83 313.752 1359.67 C 313.665 1359.19 313.638 1358.71 313.582 1358.23 L 311.92 1359.73 C 308.963 1359.3 309.528 1359.01 306.9 1356.56 C 289.355 1343.34 243.883 1300.53 232.936 1283.21 z" fill="rgb(254,253,249)" transform="translate(0,0)"></path>
<path d="M 306.9 1356.56 C 302.597 1340.53 298.801 1326.87 297.496 1309.98 C 294.8 1275.09 305.904 1236.82 322.919 1206.56 C 327.055 1199.2 331.452 1193.16 337.455 1187.33 C 319.17 1223.21 304.791 1256.94 304.908 1298.28 C 304.969 1319.73 309.559 1337.42 313.582 1358.23 L 311.92 1359.73 C 308.963 1359.3 309.528 1359.01 306.9 1356.56 z" fill="rgb(108,74,41)" transform="translate(0,0)"></path>
<path d="M 1255.27 1036.88 C 1261.47 1037.61 1268.16 1043.82 1272.75 1047.9 C 1297.49 1069.91 1315.07 1098.13 1328.47 1128.17 C 1351.77 1180.51 1353.33 1239.96 1332.81 1293.44 C 1306.75 1360.17 1242.93 1414.47 1178.3 1442.82 C 1175.63 1443.87 1175.75 1444.05 1172.97 1443.59 C 1173.81 1441.34 1176.14 1439.81 1178.25 1438.39 C 1205.39 1420.21 1236.24 1402.62 1260.24 1380.36 C 1289.74 1353.01 1313.75 1322.32 1326.72 1283.56 C 1351.07 1212.29 1334.29 1134.98 1289.58 1075.65 C 1284.1 1068.38 1257.16 1041.6 1255.27 1036.88 z" fill="rgb(108,74,41)" transform="translate(0,0)"></path>
<path d="M 469.23 1242.72 C 472.007 1249.83 473.067 1262.34 475.234 1270.25 C 508.666 1392.32 628.992 1457.63 743.127 1487.4 C 752.486 1489.84 808.506 1500.7 811.367 1503.98 C 788.354 1506.8 744.08 1496.23 720.204 1489.24 C 616.384 1458.81 512.027 1396.14 474.362 1289.02 C 470.211 1277.21 465.68 1254.93 469.23 1242.72 z" fill="rgb(108,74,41)" transform="translate(0,0)"></path>
<path d="M 476.927 1103.77 C 478.651 1103.72 477.82 1103.51 479.38 1104.55 C 477.96 1107.05 463.954 1118.12 460.556 1121.6 C 380.027 1203.96 373.987 1322.7 457.939 1405.2 C 462.535 1409.72 493.771 1437.8 495.152 1440.52 L 494.168 1441.82 C 461.977 1426.91 430.593 1387.89 413.285 1357.38 C 387.67 1312.21 383.553 1265.11 397.421 1215.36 C 408.977 1173.9 438.498 1125.28 476.927 1103.77 z" fill="rgb(108,74,41)" transform="translate(0,0)"></path>
<path d="M 1387.38 1113.63 C 1400.96 1119.07 1418.65 1151.38 1423.68 1164.92 C 1438.68 1205.22 1440.36 1244.28 1422.65 1283.84 C 1421.41 1285.95 1421.45 1285.81 1419.51 1287.33 C 1417.39 1284.93 1420.69 1277.39 1421.43 1274.09 C 1431.19 1230.72 1425.73 1183.96 1405.28 1144.39 C 1400.43 1135.01 1390.5 1123.25 1387.38 1113.63 z" fill="rgb(108,74,41)" transform="translate(0,0)"></path>
<path d="M 1240.86 1299.81 C 1241.34 1305.49 1228.69 1316.58 1224.24 1320.95 C 1194.21 1350.99 1158.41 1374.64 1118.99 1390.48 C 1110.77 1393.83 1099.76 1398.23 1091.22 1399.73 L 1091.06 1397.42 C 1093.43 1393.77 1144.3 1369.81 1152.8 1364.98 C 1171.9 1354.12 1190.02 1341.61 1206.95 1327.6 C 1215.46 1320.55 1232.51 1304.81 1240.86 1299.81 z" fill="rgb(108,74,41)" transform="translate(0,0)"></path>
<path d="M 1148.43 1398.89 C 1149.32 1398.96 1150.52 1399.4 1151.44 1399.68 L 1151.46 1401.39 C 1146.57 1406.51 1134.61 1411.4 1127.86 1414.68 C 1087.53 1434.27 1056.61 1442.78 1012.06 1445.84 L 1008.62 1445.32 L 1008.46 1444.13 C 1013.14 1441.95 1027.99 1438.59 1033.31 1437.78 C 1075.26 1431.34 1109.28 1412.86 1148.43 1398.89 z" fill="rgb(108,74,41)" transform="translate(0,0)"></path>
<path d="M 1461.69 1181.65 C 1465.45 1183.17 1468.13 1187.4 1469.85 1190.91 C 1484.19 1220.23 1485.72 1266.13 1476.48 1296.64 C 1475.01 1298.7 1475.99 1298.16 1473.74 1298.7 C 1473.35 1297.72 1474.04 1250.92 1473.86 1242.58 C 1473.26 1216.02 1467.55 1206.66 1461.88 1182.52 L 1461.69 1181.65 z" fill="rgb(108,74,41)" transform="translate(0,0)"></path>
<path d="M 1376.38 1280.71 C 1377.62 1282.54 1377.68 1284.56 1377.29 1286.7 C 1370.16 1326.19 1351.21 1359.99 1319.91 1383.96 L 1319.49 1383.54 C 1319.6 1379.4 1335.34 1363.36 1338.72 1358.17 C 1348.65 1342.94 1357.49 1327.45 1364.49 1310.65 C 1368.25 1301.63 1371.98 1288.51 1376.38 1280.71 z" fill="rgb(108,74,41)" transform="translate(0,0)"></path>
<path d="M 826.538 1457.35 C 844.084 1456.35 863.392 1458.57 881.091 1458.53 C 885.584 1458.52 896.22 1458.32 898.85 1462.07 L 897.755 1463.74 C 879.802 1465.12 843.097 1464.29 826.105 1459.37 L 826.538 1457.35 z" fill="rgb(108,74,41)" transform="translate(0,0)"></path>
<path d="M 1617.33 1209.73 C 1618.47 1215.92 1587.5 1371.21 1583.39 1386.98 C 1456.19 1513.47 1334.94 1596.17 1163.83 1654.98 C 1095.8 1678.37 1027.51 1696.38 955.781 1704.52 C 717.647 1731.05 478.049 1669.37 282.323 1531.16 C 238.594 1499.75 199.537 1462.83 161.042 1425.44 C 160.747 1425.22 160.452 1424.99 160.157 1424.77 C 149.251 1390.17 140.553 1347.74 133.215 1312.43 C 126.642 1279.3 119.367 1246.17 113.734 1212.89 C 174.384 1339.87 307.028 1439.19 431.123 1499.2 C 485.477 1525.91 542.402 1547.03 601.023 1562.24 C 759.177 1603.4 961.576 1606.74 1119.16 1560.39 C 1300.46 1507.06 1496.85 1412.28 1598.33 1245.69 C 1605.29 1234.26 1610.83 1221.53 1617.33 1209.73 z" fill="rgb(243,228,197)" transform="translate(0,0)"></path>
<path d="M 1578.67 1402.95 L 1579.06 1403.39 C 1580.69 1412.7 1553.51 1511.28 1550.21 1529.16 C 1547.9 1541.63 1503.69 1581.8 1491.28 1592.96 C 1380.23 1693.72 1247.05 1766.97 1102.48 1806.78 C 909.767 1860.34 681.136 1845.91 494.91 1774.02 C 454.224 1757.99 414.76 1739.01 376.832 1717.24 C 325.361 1687.45 276.71 1653.04 231.48 1614.43 C 197.397 1584.94 201.919 1582.78 190.271 1540.72 C 181.49 1507.37 172.477 1474.08 163.234 1440.85 C 206.95 1479.96 242.256 1514.52 291.412 1548.86 C 456.82 1664.42 659.955 1718.99 860.476 1718.12 C 892.921 1718.14 925.344 1716.37 957.595 1712.83 C 1131.23 1692.39 1318.7 1614.91 1458.11 1509.69 C 1502.31 1476.33 1539.86 1442.07 1578.67 1402.95 z" fill="rgb(243,228,197)" transform="translate(0,0)"></path>
<path d="M 833.374 700.435 C 852.001 699.397 876.256 700.25 894.932 700.981 C 958.649 703.278 1022.05 711.1 1084.41 724.358 C 1194.14 748.688 1314.41 794.022 1408 857.621 C 1441.2 880.371 1472.55 905.711 1501.75 933.405 C 1530.72 960.54 1577.56 1006.73 1589.33 1046.25 C 1595.09 1065.59 1586.46 1112.85 1581.87 1133.23 C 1558.42 1083.6 1487.37 1023.53 1443.14 988.284 C 1411.67 963.206 1362.42 937.331 1326.43 919.728 C 1181.81 849.426 1023.25 812.501 862.451 811.681 C 760.893 812.146 660.09 829.167 564.009 862.073 C 513.296 879.665 469.036 898.131 423.502 926.987 C 401.057 941.211 376.122 953.504 354.641 969.428 C 279.791 1024.91 207.562 1091.67 166.368 1176.65 C 159.065 1157.4 140.413 1091.8 147.688 1073.82 C 162.478 1037.26 196.62 989.424 224.043 960.287 C 376.961 797.808 613.757 709.696 833.374 700.435 z" fill="rgb(243,228,197)" transform="translate(0,0)"></path>
<path d="M 836.371 719.315 C 838.531 719.74 839.187 720.027 841.261 720.818 C 844.17 725.079 847.817 789.528 846.518 797.154 C 842.317 796.846 842.257 797.614 840.104 795.324 C 838.372 785.539 835.446 728.322 836.371 719.315 z" fill="rgb(108,74,41)" transform="translate(0,0)"></path>
<path d="M 853.361 718.175 C 855.186 718.869 857.502 719.705 857.971 721.374 C 860.932 731.912 865.654 783.989 862.878 792.054 C 858.351 790.984 859.92 792.178 857.388 789.27 C 856.107 777.606 851.218 727.094 853.361 718.175 z" fill="rgb(108,74,41)" transform="translate(0,0)"></path>
<path d="M 315.916 892.189 L 319.04 892.977 C 320.998 895.64 322.2 908.342 322.854 912.539 C 324.684 924.186 326.735 935.798 329.007 947.368 C 330.295 954.199 333.477 963.318 330.705 969.352 C 327.841 968.889 329.127 969.383 326.96 967.493 C 321.924 955.14 315.561 912.701 314.324 897.825 C 314.203 896.369 315.351 893.566 315.916 892.189 z" fill="rgb(108,74,41)" transform="translate(0,0)"></path>
<path d="M 329.939 881.816 C 330.968 882.225 332.918 882.754 333.182 883.555 C 336.513 893.646 345.3 949.505 344.869 956.693 C 343.387 956.492 339.83 955.909 339.483 954.322 C 336.393 940.168 325.959 893.791 329.939 881.816 z" fill="rgb(108,74,41)" transform="translate(0,0)"></path>
<path d="M 1419.46 879.621 C 1420.34 880.476 1421.83 882.03 1421.9 883.161 C 1422.55 892.897 1415.28 945.202 1412.63 951.57 C 1405.79 948.115 1411.32 918.103 1411.99 911.217 C 1412.91 901.762 1413.19 886.452 1419.46 879.621 z" fill="rgb(108,74,41)" transform="translate(0,0)"></path>
<path d="M 1430.39 890.264 C 1432.17 890.946 1431.69 890.81 1433.23 892.098 C 1434.92 899.991 1430.74 943.842 1428.53 952.077 L 1425.36 950.605 C 1422.56 945.251 1428.64 898.405 1430.39 890.264 z" fill="rgb(108,74,41)" transform="translate(0,0)"></path>
<path d="M 840.101 819.498 C 950.071 818.167 1059.61 833.562 1164.95 865.156 C 1261.74 894.736 1362.42 938.326 1444.53 998.658 C 1464.74 1013.5 1484.68 1032.72 1502.88 1049.91 C 1534.08 1079.36 1557.7 1104.98 1578.08 1143.35 C 1568.69 1173.59 1557.78 1195.82 1542.63 1223.17 C 1451.68 1059.01 1266.22 976.169 1089.85 942.319 C 1084.53 940.683 1078.62 938.1 1073.63 935.813 C 1050.95 925.419 1027.92 916.499 1003.63 910.564 C 955.061 898.695 901.043 891.217 851.077 893.589 C 851.132 875.286 849.401 856.273 848.872 837.75 C 848.508 832.69 848.66 832.151 844.024 829.865 L 842.422 830.611 C 839.718 836.504 843.607 883.795 844.204 893.879 C 800.257 896.564 764.363 902.903 723.727 922.231 C 711.248 928.167 698.508 936.937 686.414 941.884 C 676.16 945.547 664.436 946.412 653.924 948.851 C 514.848 981.118 352.963 1064.44 270.602 1183.1 C 258.967 1200.11 248.639 1217.99 239.707 1236.57 C 234.593 1247.46 229.503 1260.82 223.782 1271.07 L 223.099 1272.28 C 206.441 1255.38 180.492 1211.89 171.461 1189.54 C 183.959 1151.7 220.91 1103.96 248.214 1074.53 C 283.276 1036.74 321.963 1002.95 364.235 973.34 C 380.484 962.023 397.983 952.518 414.729 942.049 C 539.238 864.204 693.414 824.527 840.101 819.498 z" fill="rgb(243,228,197)" transform="translate(0,0)"></path>
<path d="M 1412.38 1039.1 C 1411.86 1046.11 1412 1057.1 1407.94 1062.26 C 1404.58 1063.53 1406.31 1063.44 1402.59 1062.08 C 1398.82 1056.26 1404.71 990.823 1411.64 986.209 L 1415.09 988.256 C 1419.4 994.991 1414.37 1030.56 1412.38 1039.1 z" fill="rgb(108,74,41)" transform="translate(0,0)"></path>
<path d="M 1415.09 988.256 C 1419.4 994.991 1414.37 1030.56 1412.38 1039.1 C 1410.9 1039.79 1411.27 1039.74 1410.09 1041.11 C 1410.19 1043.6 1410.22 1043.93 1409.83 1046.37 L 1409.18 1046.03 C 1409.02 1040.71 1408.01 1028.78 1410.41 1024.57 C 1413.67 1017.65 1412.18 997.689 1415.09 988.256 z" fill="rgb(108,74,41)" transform="translate(0,0)"></path>
<path d="M 1411.64 986.209 L 1415.09 988.256 C 1412.18 997.689 1413.67 1017.65 1410.41 1024.57 L 1410.33 1023.41 C 1409.35 1010.19 1412.95 996.575 1411.64 986.209 z" fill="rgb(195,170,143)" transform="translate(0,0)"></path>
<path d="M 349.871 1000.55 L 352.394 1002.08 C 354.707 1005.59 369.112 1071.95 369.346 1078.39 C 366.516 1077.38 364.076 1077.13 362.976 1073.92 C 358.051 1059.54 346.155 1013.2 349.871 1000.55 z" fill="rgb(108,74,41)" transform="translate(0,0)"></path>
<path d="M 331.403 1009.39 L 336.367 1010.51 C 339.168 1013.61 341.92 1034.05 343.227 1040.07 C 346.473 1055.04 350.471 1070.09 353.347 1085.09 C 350.606 1085.12 351.448 1085.19 348.798 1084.52 C 341.736 1075.07 332.1 1022.54 331.403 1009.39 z" fill="rgb(108,74,41)" transform="translate(0,0)"></path>
<path d="M 859.328 828.327 C 860.368 828.434 863.403 828.698 863.811 829.28 C 868.747 836.326 870.56 887.484 868.156 892.199 C 865.467 891.911 865.598 892.047 863.384 890.543 C 861.531 883.192 857.669 834.898 859.328 828.327 z" fill="rgb(108,74,41)" transform="translate(0,0)"></path>
<path d="M 839.948 587.454 C 914.555 584.385 1015.27 594.44 1089.24 612.602 C 1096.83 614.465 1116.78 631.89 1125.08 637.404 C 1215.99 697.77 1318.42 758.043 1421.08 795.907 C 1421.11 809.583 1416.87 828.518 1418.48 840.913 C 1420.3 843.376 1419.12 842.349 1422.85 843.194 L 1424.84 841.932 C 1429.24 833.691 1428.49 810.379 1428.42 799.96 C 1431.88 801.055 1435.36 802.387 1438.78 803.633 C 1437.03 812.451 1432.97 836.631 1434.16 844.638 C 1435.97 847.391 1434.74 846.658 1437.51 847.505 C 1441.02 843.877 1443.03 813.226 1443.77 805.865 C 1448.6 807.736 1471.32 815.909 1473.76 818.106 C 1521.46 861.133 1562.1 916.848 1580 979.159 C 1584.39 994.421 1585.87 1006.35 1589.3 1020.08 C 1562.42 979.011 1537.21 955.187 1501.49 922.092 C 1350.3 782.029 1148.11 714.171 945.758 695.767 C 817.814 685.142 689.035 700.148 566.962 739.906 C 407.869 793.163 222.926 903.077 145.696 1058.23 C 146.973 972.724 201.911 875.675 259.867 815.206 C 410.284 658.269 628.233 593.933 839.948 587.454 z" fill="rgb(243,228,197)" transform="translate(0,0)"></path>
<path d="M 831.873 606.753 C 833.664 607.512 834.484 608.032 836.178 608.994 C 838.611 614.562 841.914 676.548 839.975 682.645 L 835.992 681.972 C 835.072 681.226 833.611 680.471 833.63 679.305 C 833.81 668.303 827.231 614.321 831.873 606.753 z" fill="rgb(108,74,41)" transform="translate(0,0)"></path>
<path d="M 847.661 604.466 C 849.629 604.717 851.145 605.027 853.103 605.399 C 855.657 609.557 857.974 667.066 857.368 675.131 C 852.969 674.761 854.628 675.61 851.613 673.488 C 849.256 664.728 846.466 613.777 847.661 604.466 z" fill="rgb(108,74,41)" transform="translate(0,0)"></path>
<path d="M 309.859 776.229 L 313.232 777.838 C 313.533 778.468 313.967 779.256 313.948 779.934 C 313.334 794.651 312.777 808.981 313.252 823.717 C 313.471 830.516 315.725 845.324 312.757 850.265 C 310.76 848.897 309.428 848.558 308.775 846.172 C 305.15 832.92 305.344 787.378 309.859 776.229 z" fill="rgb(108,74,41)" transform="translate(0,0)"></path>
<path d="M 322.397 772.223 C 323.46 772.562 324.785 773.198 325.841 773.657 C 329.403 779.586 331.5 828.765 329.893 835.473 C 327.41 835.802 327.542 835.838 325.107 835.306 C 321.754 829.694 321.548 781.052 322.397 772.223 z" fill="rgb(108,74,41)" transform="translate(0,0)"></path>
<path d="M 1542.62 1554.96 L 1543.02 1555.31 C 1544.53 1566.85 1514.43 1642.85 1506.89 1656.69 C 1473.36 1718.25 1411.35 1763.77 1352.35 1799.05 C 1151.5 1919.15 904.855 1951.37 676.052 1912.95 C 640.505 1906.98 604.083 1897.79 569.109 1888.53 C 540.726 1880.76 512.855 1871.22 485.657 1859.98 C 389.416 1821.28 291.546 1761.09 238.045 1669.3 C 227.746 1650.83 218.335 1628.19 210.676 1608.51 C 236.529 1632.4 258.614 1648.41 286.644 1669.08 C 463.344 1799.38 674.078 1852.9 892.286 1846.6 C 1138.82 1838 1372.22 1733.34 1542.62 1554.96 z" fill="rgb(243,228,197)" transform="translate(0,0)"></path>
<path d="M 858.713 155.801 C 858.904 159.307 853.498 170.333 852.947 179.618 C 849.072 253.888 902.948 324.445 950.084 376.501 C 1068.57 507.351 1227.55 602.714 1387.74 673.459 C 1503.68 724.662 1851.16 855.223 1956.9 758.89 C 1943.73 786.753 1927.61 813.123 1908.81 837.546 C 1861.17 899.538 1726.45 868.966 1660.83 854.967 C 1439.38 807.611 1232.56 705.194 1053.56 567.294 C 963.931 498.246 871.141 408.24 824.215 303.187 C 819.769 291.255 805.94 261.916 809.891 250.129 C 815.831 232.403 825.68 214.632 834.145 198.106 C 841.313 184.112 849.066 167.849 858.713 155.801 z" fill="rgb(254,253,249)" transform="translate(0,0)"></path>
<path d="M 816.943 244.657 C 819.995 247.294 824.823 274.19 828.019 281.592 C 830.747 287.914 832.736 295.058 836.646 302.585 C 920.74 464.464 1156.13 636.162 1314.73 716.133 C 1367.93 743.103 1422.47 767.363 1478.12 788.82 C 1506.22 799.614 1534.86 809.898 1563.36 819.572 C 1566.66 820.693 1566.44 821.406 1567.64 824.052 C 1556.5 822.776 1527.28 813.357 1516 809.452 C 1308.31 737.508 1111.86 616.814 954.096 463.835 C 907.528 418.68 862.89 365.883 833.523 307.974 C 826.484 294.094 811.664 260.36 816.943 244.657 z" fill="rgb(108,74,41)" transform="translate(0,0)"></path>
<path d="M 1896.78 839.903 C 1900.53 839.871 1899.11 839.183 1901.65 841.007 C 1901.01 843.471 1900.26 844.791 1897.72 846.224 C 1839.39 879.15 1722.48 862.97 1662.22 849.093 C 1658.76 848.241 1657.42 847.892 1655.53 845.499 C 1660.26 843.347 1692.09 851.235 1700.82 852.19 C 1762.68 858.954 1839.85 868.78 1896.78 839.903 z" fill="rgb(108,74,41)" transform="translate(0,0)"></path>
<path d="M 834.63 549.444 C 890.518 546.952 966.056 552.667 1021.25 560.283 C 1034.99 572.009 1049.94 582.545 1064.23 593.656 C 1063.05 593.29 1061.86 592.939 1060.66 592.603 C 1030.82 584.207 977.232 578.951 946.19 576.597 C 756.356 562.192 575.514 592.456 407.499 684.141 C 216.888 788.157 48.6684 1009.38 174.762 1227.52 C 255.959 1367.99 426.08 1466.9 579.31 1509.6 C 838.374 1581.56 1115.36 1548.49 1350.2 1417.56 C 1531.83 1315 1682.54 1115.84 1562.86 906.982 C 1545.1 875.909 1520.53 849.633 1495.85 824.19 C 1513.94 830.623 1533.64 834.893 1551.52 841.95 C 1560.51 855.127 1571.63 866.714 1580.48 880.155 C 1614.53 931.86 1635.65 994.575 1638.49 1056.4 C 1642.9 1152.57 1592.55 1245.56 1529.12 1314.9 C 1386.48 1470.85 1120.53 1570.09 912.928 1579.42 C 672.408 1590.23 422.636 1521.09 242.507 1356.14 C 184.148 1302.7 136.888 1241.98 111.793 1166.26 C 103.881 1142.38 97.9443 1117.37 96.9376 1092.17 C 92.4224 979.149 149.643 871.363 224.607 790.27 C 253.11 759.436 283.708 733.621 317.582 708.886 C 468.031 599.027 651.122 556.383 834.63 549.444 z" fill="rgb(254,253,249)" transform="translate(0,0)"></path>
<metadata><recraft-signature>{"signed_by": "recraft", "signature_b64": "Uxp0gli0Q2SeAW9eu4ES3WHLv2BKDBKaHY3SDyM7A915rFGiyYtaGJ3JSrfxaxbpEOpmJFkZbj1c4bx5Cm7jCA==", "signing_algo": "Ed25519", "generation_timestamp": 1778091850, "identifier": "b5124eef-cdd6-44f6-aed8-e030a96e92cb"}</recraft-signature></metadata></svg>