<svg xmlns="http://www.w3.org/2000/svg" height="1024" preserveAspectRatio="none" style="display: block;" version="1.1" viewBox="0 0 2048 2048" width="1024">
<defs>
	<linearGradient gradientUnits="userSpaceOnUse" id="Gradient1" x1="368.366" x2="355.392" y1="1510.1" y2="1511.28">
		<stop class="stop0" offset="0" stop-color="rgb(139,92,73)" stop-opacity="1"></stop>
		<stop class="stop1" offset="1" stop-color="rgb(164,129,112)" stop-opacity="1"></stop>
	</linearGradient>
	<linearGradient gradientUnits="userSpaceOnUse" id="Gradient2" x1="389.839" x2="390.64" y1="1033.56" y2="1040.15">
		<stop class="stop0" offset="0" stop-color="rgb(233,212,187)" stop-opacity="1"></stop>
		<stop class="stop1" offset="1" stop-color="rgb(254,244,241)" stop-opacity="1"></stop>
	</linearGradient>
	<linearGradient gradientUnits="userSpaceOnUse" id="Gradient3" x1="557.17" x2="616.008" y1="1196.39" y2="1275.98">
		<stop class="stop0" offset="0" stop-color="rgb(148,107,89)" stop-opacity="1"></stop>
		<stop class="stop1" offset="1" stop-color="rgb(169,129,104)" stop-opacity="1"></stop>
	</linearGradient>
</defs>
<path d="M 0 0 L 2048 0 L 2048 2048 L 0 2048 L 0 0 z" fill="rgb(252,249,243)" transform="translate(0,0)"></path>
<path d="M 804.294 905.428 C 806.224 905.273 808.555 905.215 810.535 905.181 C 1052 901.587 1311.77 949.076 1515.28 1083.01 C 1660.25 1176.04 1780.54 1335.93 1657.08 1502.2 C 1644.12 1519.65 1631.23 1555.58 1619.78 1577.3 C 1587.69 1638.17 1560.59 1704.61 1514.31 1756.7 C 1492.24 1781.53 1456.46 1800.84 1427.79 1817.15 C 1299.85 1886.57 1134.8 1931.13 988.858 1935.09 C 981.45 1935.75 974.03 1936.25 966.601 1936.58 C 806.379 1944.9 624.302 1920.66 474.962 1859.29 C 449.603 1848.87 426.443 1836.27 402.365 1823.19 C 371.065 1806.19 331.918 1781.48 305.796 1756.9 C 263.677 1714.86 238.797 1656.28 211.217 1604.27 C 199.562 1582.29 188.573 1561.03 177.805 1538.72 C 171.141 1528.74 162.036 1518.64 154.624 1509.26 C 58.2529 1387.21 67.4244 1251.43 173.636 1137.78 C 292.83 1010.23 468.172 948.286 637.423 919.982 C 692.904 910.704 747.974 907.912 804.294 905.428 z" fill="rgb(103,56,37)" transform="translate(0,0)"></path>
<path d="M 911.543 1120.54 C 935.294 1119.4 959.095 1121.18 982.412 1125.84 C 1063.2 1141.98 1162.04 1190.92 1232.82 1230.11 C 1329.84 1283.83 1411.93 1360.59 1412.53 1479.13 C 1412.87 1546.67 1395.42 1571.34 1363.03 1626.05 C 1354.13 1630.71 1344.46 1634.59 1335.02 1638.17 C 1243.52 1672.91 1146.91 1698.52 1049.55 1708.61 C 987.349 1715.06 928.256 1715.71 866.277 1714.89 C 725.716 1709.1 579.749 1683.5 449.39 1629.73 C 434.786 1623.71 399.436 1609.94 389.021 1600.12 C 371.459 1583.55 367.473 1532.6 367.142 1509.02 C 365.966 1425.33 383.898 1360.93 444.983 1299.71 C 476.029 1268.59 492.271 1258.6 528.946 1236.89 C 567.562 1214.23 607.829 1194.51 649.406 1177.89 C 720.543 1150.06 836.012 1122.2 911.543 1120.54 z" fill="rgb(252,249,243)" transform="translate(0,0)"></path>
<path d="M 438.629 1355.13 L 442.066 1356.02 C 447.598 1393.92 479.221 1443.92 505.245 1471.96 C 522.54 1490.83 542.016 1507.57 563.264 1521.83 C 651.099 1580.08 782.129 1606.1 885.853 1610.5 C 995.377 1616.72 1100.32 1588.81 1196.74 1537.78 C 1255.08 1506.9 1309.33 1473.02 1351.76 1421.26 C 1357.37 1414.42 1367.61 1398.01 1372.65 1393.36 L 1373.44 1394.4 C 1370.56 1409.9 1347.05 1437.93 1336.34 1450.08 C 1303.94 1486.84 1265.35 1512.6 1222.91 1536.38 C 1140.54 1582.55 1052.05 1613.85 957.307 1619.74 C 822.961 1628.08 629.943 1599.04 526.019 1506.61 C 486.34 1471.32 441.913 1409.3 438.629 1355.13 z" fill="rgb(103,56,37)" transform="translate(0,0)"></path>
<path d="M 520.084 1281.57 L 521.504 1283.1 C 522.877 1301.09 526.808 1318.79 533.179 1335.67 C 554.724 1394.32 610.991 1449.92 667.382 1475.65 C 758.31 1517.13 865.501 1526.94 964.07 1518.1 C 1004.84 1514.44 1043.87 1508.16 1082.37 1493.75 C 1154.59 1466.71 1247.1 1424.03 1293.39 1360.52 C 1304.72 1344.98 1311.61 1328.33 1319.48 1310.99 C 1319.44 1317.4 1318.65 1323.15 1317.36 1329.41 C 1293.71 1403.31 1222.97 1439.79 1159.7 1472.7 C 1044.47 1532.62 919.364 1547.21 791.91 1524.97 C 694.931 1508.04 607.512 1473.73 551.672 1387.39 C 533.808 1359.76 513.511 1315.69 520.084 1281.57 z" fill="rgb(103,56,37)" transform="translate(0,0)"></path>
<path d="M 606.432 1224.73 C 608.418 1226.89 607.137 1234.1 607.099 1237.34 C 607.029 1244.93 607.552 1252.52 608.664 1260.03 C 640.285 1482.19 1084.47 1474.73 1204.61 1331.57 C 1224.25 1308.16 1222.41 1277.3 1218.22 1249.33 L 1219.14 1248.14 C 1223.16 1250.29 1224.85 1257.42 1226.28 1261.84 C 1231.96 1286 1229.21 1310.72 1216.45 1332.26 C 1187.78 1380.65 1101.02 1413.72 1049.58 1427.97 C 951.08 1454.62 847.295 1455.26 750.855 1420.07 C 683.981 1395.67 625.467 1354.59 606.287 1282.01 C 602.622 1268.14 598.81 1237.43 606.432 1224.73 z" fill="rgb(103,56,37)" transform="translate(0,0)"></path>
<path d="M 976.412 1149.01 C 980.639 1149.47 987.274 1152.08 991.603 1153.55 C 1029.91 1163.98 1084.21 1216.81 1045.94 1256.88 C 997.717 1307.37 886.14 1290.18 824.511 1274.95 C 809.275 1271.19 778.002 1258.22 767.868 1248.13 C 720.79 1201.3 814.451 1170.76 847.723 1169.03 C 884.408 1166.37 912.383 1165.05 946.272 1177.86 C 957.816 1182.23 968.09 1191.12 967.74 1203.64 C 966.807 1233.04 902.437 1227.67 886.243 1226.29 C 878.239 1225.6 844.191 1223.77 839.757 1222.16 C 844.818 1209.34 950.34 1230.65 958.939 1203.7 C 958.539 1189.62 933.482 1183.06 922.396 1180.91 C 876.563 1172.02 821.623 1175.8 780.574 1199.82 C 768.543 1206.86 756.023 1222.24 767.631 1236.01 C 791.081 1261.13 840.745 1271.7 874.494 1276.05 C 920.534 1281.56 991.109 1285.98 1029.83 1258.42 C 1072.08 1228.35 1033.9 1180.15 1000.9 1164.06 C 994.927 1161.15 978.908 1153.16 976.412 1149.01 z" fill="rgb(103,56,37)" transform="translate(0,0)"></path>
<path d="M 1118.22 1197.73 L 1121.1 1198.38 C 1131.49 1207.78 1139.15 1227.03 1142.4 1240.49 C 1146.78 1258.63 1143.97 1277.58 1133.5 1293.36 C 1106.92 1332.89 1056.81 1349.48 1012.99 1359.88 C 911.229 1384.02 722.448 1353.26 697.29 1231.97 C 695.522 1222.6 695.893 1216.05 696.742 1206.7 C 700.011 1213.26 699.642 1222.62 701.294 1229.79 C 708.53 1261.19 738.482 1295.76 765.155 1312.23 C 837.82 1356.15 935.061 1365.36 1016.82 1347.21 C 1077.53 1333.74 1165.63 1293.55 1126.42 1217.55 C 1124.19 1213.22 1119.02 1202.13 1118.22 1197.73 z" fill="rgb(103,56,37)" transform="translate(0,0)"></path>
<path d="M 388.527 1469.62 C 394.227 1473.92 409.541 1505.39 415.107 1513.85 C 423.898 1527.2 433.868 1540.01 445.433 1551.07 C 520.946 1623.29 626.272 1652.47 727.89 1663.55 C 757.301 1666.76 786.921 1667.07 816.321 1669.95 C 819.478 1670.26 823.572 1670.31 825.909 1672.49 L 824.807 1673.69 C 812.411 1674.63 800 1675.37 787.579 1675.89 C 681.756 1679.32 532.327 1648.32 453.392 1573.85 C 427.784 1549.69 403.61 1520 392.553 1486.1 C 390.821 1480.8 388.692 1475.22 388.527 1469.62 z" fill="rgb(103,56,37)" transform="translate(0,0)"></path>
<path d="M 1396.7 1468.71 C 1396.81 1469.25 1397.01 1469.78 1397.04 1470.33 C 1397.19 1473.4 1394.73 1478.16 1393.55 1480.96 C 1381.52 1509.6 1359.22 1535.46 1336.46 1556.16 C 1244.4 1639.86 1116.93 1669.15 995.835 1674.58 C 975.862 1675.47 955.162 1677.47 935.204 1676.53 L 934.752 1675.85 C 938.623 1672.51 976.121 1671.95 983.988 1671.24 C 1028.67 1667.21 1072.78 1660.89 1116.37 1650.18 C 1188.06 1632.57 1248.07 1609.01 1308.03 1565.63 C 1332.37 1548.02 1356.02 1527.35 1374.63 1503.6 C 1383.18 1492.69 1389.55 1480.52 1396.7 1468.71 z" fill="rgb(103,56,37)" transform="translate(0,0)"></path>
<path d="M 438.629 1355.13 C 438.451 1350.33 438.292 1343.97 441.193 1339.99 C 442.557 1343.47 441.136 1350.37 442.066 1356.02 L 438.629 1355.13 z" fill="rgb(126,79,55)" transform="translate(0,0)"></path>
<path d="M 551.762 1746.38 C 689.851 1784.7 833.271 1800.21 976.358 1792.29 C 1033.51 1788.96 1090.57 1781.05 1147.15 1772.55 C 1146.47 1808.12 1140.56 1844 1131.88 1878.44 C 1130.34 1884.58 1128.4 1890.45 1126.27 1896.41 C 1111.61 1898.04 1096.9 1901.6 1082.29 1903.89 C 1057.74 1907.56 1033.09 1910.47 1008.36 1912.62 C 868.501 1924.97 717.847 1911.98 582.868 1872.93 C 564.855 1831.46 556.74 1791.12 551.762 1746.38 z" fill="rgb(252,249,243)" transform="translate(0,0)"></path>
<path d="M 888.968 987.006 C 1066.36 989.491 1241.1 1030.52 1401.06 1107.26 C 1432.62 1122.42 1485.5 1150.28 1511.38 1173 C 1507.02 1203.64 1500.04 1229.77 1490.41 1259.24 C 1487.87 1266.63 1485.48 1274.64 1483.11 1282.13 C 1476.92 1276.98 1470.24 1271.98 1463.73 1267.15 C 1338.95 1174.6 1186.64 1129.74 1034.52 1108.49 C 989.372 1102.18 943.222 1099.83 898.182 1096.34 C 894.394 1063.93 894.261 1016.71 888.968 987.006 z" fill="rgb(252,249,243)" transform="translate(0,0)"></path>
<path d="M 1598.79 1565.84 C 1600.11 1577.86 1543.54 1678.46 1534.77 1692.97 C 1522.98 1712.49 1509.75 1732.01 1493.2 1747.82 C 1477.95 1762.39 1458.76 1774.7 1440.78 1785.71 C 1353.82 1838.98 1259.36 1866.21 1161.45 1890.5 C 1161.12 1882.7 1170.12 1856.05 1171.95 1846.03 C 1176.83 1819.29 1179.4 1792.85 1180 1765.69 C 1222.92 1758.03 1265.3 1745.62 1306.55 1731.69 C 1326.46 1724.97 1346.65 1718.46 1366.2 1710.76 C 1430.71 1685.36 1494.25 1651.18 1549.43 1609.11 C 1566.65 1595.99 1584.31 1581.99 1598.79 1565.84 z" fill="rgb(252,249,243)" transform="translate(0,0)"></path>
<path d="M 803.547 986.441 C 820.14 985.713 838.571 985.907 855.306 985.743 C 859.554 1015.42 862.979 1064.05 865.085 1094.94 C 754.051 1092.53 643.32 1107.45 536.887 1139.17 L 509.917 1147.12 C 499.005 1117.06 488.023 1074.61 479.346 1043.28 C 503.071 1030.74 583.312 1012.83 611.711 1007.21 C 675.007 995.22 739.153 988.277 803.547 986.441 z" fill="rgb(252,249,243)" transform="translate(0,0)"></path>
<path d="M 447.721 1053.15 C 449.647 1055.22 475.406 1148.24 478.486 1159.11 C 386.6 1192.95 294.976 1257.17 233.39 1333.58 L 226.642 1342.48 C 211.036 1299 206.471 1266.34 209.088 1220.18 C 259.946 1149.88 368.832 1085.09 447.721 1053.15 z" fill="rgb(252,249,243)" transform="translate(0,0)"></path>
<path d="M 478.568 1167.86 L 480.203 1168.5 C 485.807 1179.58 494.893 1218.48 498.296 1231.93 C 446.743 1268.05 399.334 1308.17 374.355 1367.82 C 372.476 1372.3 366.175 1389.11 363.269 1391.88 C 339.375 1414.68 318.409 1435.48 301.08 1463.97 C 292.92 1455.37 284.986 1445.57 277.802 1436.15 C 260.828 1413.87 240.268 1377.8 230.805 1351.26 C 291.485 1265.07 382.902 1208.02 478.568 1167.86 z" fill="rgb(252,249,243)" transform="translate(0,0)"></path>
<path d="M 213.473 1570.81 C 222.92 1576.82 231.692 1585.33 240.41 1592.41 C 256.748 1605.66 273.485 1618.63 291.026 1630.27 C 358.864 1675.28 434.285 1703.67 509.762 1732.87 C 513.772 1749.99 516.217 1767.48 519.719 1784.72 C 524.959 1810.5 532.396 1836.53 542.166 1860.95 C 541.722 1860.84 541.275 1860.74 540.834 1860.62 C 472.249 1841.79 340.508 1776.86 296.725 1718.5 C 286.133 1704.39 278.742 1687.32 270.175 1671.89 C 251.693 1637.97 232.791 1604.27 213.473 1570.81 z" fill="rgb(252,249,243)" transform="translate(0,0)"></path>
<path d="M 1038.77 1118.63 C 1166.08 1136.65 1299.01 1174.86 1408.81 1242.57 C 1430.02 1255.65 1460.07 1275.32 1478.82 1291.76 C 1467.78 1322.78 1447.25 1365.08 1429.69 1392.75 C 1407.57 1373.68 1406.74 1372.26 1393.55 1345.91 C 1385.74 1330.3 1365.04 1309.61 1353.6 1295.74 C 1276.54 1217.91 1142.04 1154.48 1038.68 1122 L 1038.77 1118.63 z" fill="rgb(252,249,243)" transform="translate(0,0)"></path>
<path d="M 1486.09 1297.66 C 1519.88 1321.47 1566.75 1377.83 1586.54 1414.46 C 1593.04 1426.5 1597.57 1439.09 1601.94 1452 C 1583.04 1478.73 1561.11 1503.19 1536.6 1524.89 C 1530.45 1530.49 1523.59 1535.08 1516.48 1539.36 C 1511.96 1525.37 1508.1 1511.26 1502.8 1497.51 C 1487.88 1458.84 1464.21 1428.85 1436.43 1398.67 C 1455.89 1365.67 1471.91 1333.25 1486.09 1297.66 z" fill="rgb(252,249,243)" transform="translate(0,0)"></path>
<path d="M 1518.11 1177.52 C 1532.58 1187.43 1544.36 1197.15 1557.3 1208.71 C 1635.8 1278.79 1660.28 1343.52 1608.47 1438.81 C 1584.71 1376.91 1540.48 1328.97 1489.87 1287.5 C 1501.52 1245.63 1511.62 1223.08 1518.11 1177.52 z" fill="rgb(252,249,243)" transform="translate(0,0)"></path>
<path d="M 820.913 1103.45 C 830.566 1103.21 857.692 1101.86 865.83 1103.99 L 865.933 1105.28 C 862.761 1106.75 830.698 1110.55 824.748 1111.5 C 807.015 1114.4 789.342 1117.66 771.742 1121.27 C 721.086 1131.96 663.091 1149.49 615.327 1169.69 C 594.244 1178.6 570.127 1191.69 549.625 1202.51 C 542.493 1206.52 535.401 1210.59 528.349 1214.73 C 524.308 1197.15 517.68 1172.42 512.291 1155.39 C 530.084 1149.37 549.266 1144.66 567.415 1139.61 C 651.824 1116.12 733.617 1106.6 820.913 1103.45 z" fill="rgb(252,249,243)" transform="translate(0,0)"></path>
<path d="M 1428.05 1409.47 C 1429.12 1409.89 1428.75 1409.68 1429.92 1410.52 C 1436.81 1415.45 1443.28 1425.6 1448.49 1432.38 C 1478.63 1471.56 1494.03 1502.25 1501.98 1551.69 C 1480.32 1562.79 1459.51 1576.39 1438.07 1588.1 C 1423.35 1596.25 1408.46 1604.09 1393.41 1611.6 C 1400.03 1597.71 1407.64 1584.29 1413.61 1570.08 C 1437.32 1513.67 1430.65 1475.33 1422.34 1417.73 C 1424.16 1414.93 1426.14 1412.21 1428.05 1409.47 z" fill="rgb(252,249,243)" transform="translate(0,0)"></path>
<path d="M 223.694 1362.8 C 229.9 1369.18 236.278 1388.09 241.095 1396.87 C 255.731 1423.54 274.34 1451.07 296.153 1472.25 C 291.545 1480.78 277.013 1520.32 272.396 1523.38 L 270.09 1522.2 C 240.223 1497.94 212.978 1469.14 192.83 1436.32 C 200.39 1410.25 210.933 1386.68 223.694 1362.8 z" fill="rgb(252,249,243)" transform="translate(0,0)"></path>
<path d="M 1193.46 1698.37 C 1238.34 1702.93 1283.25 1707.05 1328.35 1708.26 C 1287.53 1722.63 1246.37 1733.36 1204.6 1744.41 C 1204.21 1744.51 1203.82 1744.62 1203.42 1744.72 L 1201.52 1745.18 C 1199.23 1745.75 1196.92 1746.4 1194.53 1746.31 C 1185.04 1745.98 1174.32 1742.43 1164.89 1740.68 C 1133.58 1734.87 1102.22 1730.28 1071.7 1720.94 C 1112.65 1716.88 1152.86 1704.6 1193.46 1698.37 z" fill="rgb(252,249,243)" transform="translate(0,0)"></path>
<path d="M 885.241 919.279 C 894.051 918.49 940.329 922.569 951.009 923.559 L 992.152 927.521 C 994.776 927.759 1013.88 929.296 1015.41 929.863 C 1054.37 944.324 1092.54 974.502 1123.62 999.093 C 1110.48 997.423 1088.44 991.764 1074.19 989.625 C 1066.2 988.427 1026.33 982.608 1020.95 980.51 C 1002.89 973.464 976.949 958.554 958.247 949.607 C 934.073 938.041 908.829 929.901 885.241 919.279 z" fill="rgb(252,249,243)" transform="translate(0,0)"></path>
<path d="M 196.756 1235.86 C 198.063 1238.06 198.374 1266.18 199.302 1272.27 C 203.558 1300.19 210.856 1328.05 220.278 1354.59 C 206.59 1372.4 194.304 1404.07 186.134 1425.47 C 178.855 1413.53 172.143 1397.44 168.196 1384.03 C 150.976 1325.55 169.787 1285.65 196.756 1235.86 z" fill="rgb(252,249,243)" transform="translate(0,0)"></path>
<path d="M 1082.48 939.127 C 1094.74 939.21 1119.01 944.775 1131.63 947.36 C 1144.7 950.039 1171.15 954.358 1182.39 959.645 C 1221.19 977.894 1256.97 1014.55 1286.31 1045.09 C 1280.98 1043.51 1272.45 1040.01 1266.99 1037.76 C 1239.05 1026.24 1208.94 1021.74 1180.9 1011.01 C 1177.14 1008.24 1172.16 1003.59 1168.81 1000.5 C 1141.83 975.676 1112.91 958.89 1082.48 939.127 z" fill="rgb(252,249,243)" transform="translate(0,0)"></path>
<path d="M 1476.28 1631.44 L 1487.56 1631.33 C 1468.66 1644.52 1414.75 1676.26 1394.14 1680.41 C 1383.85 1682.48 1371.33 1681.22 1360.83 1681.18 C 1333.18 1681.08 1305.74 1680.51 1278.12 1679.11 C 1272.92 1679.13 1267.74 1678.81 1262.55 1678.51 C 1283.4 1672.41 1304.28 1665.65 1324.61 1657.96 C 1339.28 1652.41 1354.01 1645.24 1369.15 1641.25 C 1379.28 1638.58 1390.53 1638.14 1400.93 1637.06 C 1426.05 1634.43 1451.04 1632.4 1476.28 1631.44 z" fill="rgb(252,249,243)" transform="translate(0,0)"></path>
<path d="M 991.946 1727.43 C 992.262 1727.41 992.578 1727.38 992.895 1727.36 C 993.422 1727.34 993.95 1727.33 994.477 1727.31 C 1006.6 1726.79 1055.64 1743.41 1071.52 1747.73 C 1089.5 1752.72 1107.64 1757.15 1125.9 1761.01 C 1093.69 1766.84 1061.84 1770.91 1029.24 1773.84 C 1023.96 1774.32 1018.02 1775.28 1012.81 1774.09 C 1012.27 1773.97 1011.75 1773.82 1011.22 1773.69 C 992.263 1769.17 974.131 1760.7 956.102 1753.41 C 935.793 1745.3 915.352 1737.52 894.79 1730.08 C 927.191 1729.95 959.586 1729.07 991.946 1727.43 z" fill="rgb(252,249,243)" transform="translate(0,0)"></path>
<path d="M 1253.97 978.75 C 1268.93 981.944 1341.99 1007.09 1353.36 1015.28 C 1375.97 1031.57 1406.54 1078.13 1423.1 1102.54 C 1414.44 1099.8 1348.6 1068.84 1342.24 1064.03 C 1331.42 1055.83 1313.47 1032.44 1302.63 1021.39 C 1287.47 1005.93 1270.17 993.024 1253.97 978.75 z" fill="rgb(252,249,243)" transform="translate(0,0)"></path>
<path d="M 603.288 1693.88 C 614.603 1694.63 675.004 1706.17 684.874 1710.57 C 698.188 1716.5 710.867 1726.61 723.329 1734.27 C 746.432 1748.46 770.027 1761.95 793.378 1775.73 C 771.512 1774.22 713.121 1770.63 695.667 1763.68 C 687.087 1760.27 678.46 1752.05 671.03 1746.46 C 648.151 1729.26 625.849 1711.48 603.288 1693.88 z" fill="rgb(252,249,243)" transform="translate(0,0)"></path>
<path d="M 801.311 920.567 C 815.67 919.533 819.952 919.336 833.753 924.103 C 875.013 938.354 915.986 953.76 954.196 975.078 C 934.085 973.274 910.929 972.363 890.562 971.143 L 857.84 970.91 C 825.591 949.462 770.163 933.299 733.053 923.564 C 755.782 922.082 778.54 921.083 801.311 920.567 z" fill="rgb(252,249,243)" transform="translate(0,0)"></path>
<path d="M 748.296 1719.18 C 761.08 1719.15 774.523 1721.5 787.231 1722.93 C 800.305 1724.4 814.344 1724.96 827.084 1728.29 C 840.469 1731.78 853.904 1739.41 866.785 1744.73 L 917.161 1765.34 C 927.82 1769.68 939.538 1773.53 949.341 1779.57 C 931.642 1780.68 869.59 1781.56 854.771 1777.96 C 840.783 1774.56 764.815 1729.21 748.296 1719.18 z" fill="rgb(252,249,243)" transform="translate(0,0)"></path>
<path d="M 465.032 1649.7 C 478.508 1653.68 491.749 1659.48 505.012 1664.19 C 517.032 1668.47 532.149 1671.48 542.941 1678.14 C 551.655 1683.52 559.344 1693.25 567.268 1699.96 C 589.378 1718.66 612.883 1737.6 636.706 1754.02 C 625.44 1753.54 612.177 1748.51 601.112 1745.75 C 585.589 1741.87 567.434 1738.9 553.062 1731.84 C 533.54 1722.26 481.827 1667.77 465.032 1649.7 z" fill="rgb(252,249,243)" transform="translate(0,0)"></path>
<path d="M 1609.14 1534.04 L 1609.86 1534.88 C 1609.28 1536.03 1609.3 1536.1 1608.39 1537.3 C 1598.24 1550.63 1547.53 1593.83 1531.67 1599.17 C 1518.61 1603.56 1501.82 1603.05 1488 1604.69 C 1467.91 1607.06 1447.93 1610.42 1427.81 1612.5 L 1427.16 1612.04 C 1430.42 1607.25 1443.01 1602.26 1448.45 1599.29 C 1463.99 1590.83 1480.08 1579.92 1496.43 1573.35 C 1505.11 1569.86 1514.34 1567.46 1523.22 1564.49 C 1551.85 1554.91 1581.44 1546.03 1609.14 1534.04 z" fill="rgb(252,249,243)" transform="translate(0,0)"></path>
<path d="M 235.724 1510.63 C 244.564 1516.74 252.711 1525 261.098 1531.88 C 271.256 1540.2 292.363 1554.03 299.671 1563.75 C 306.594 1572.96 311.178 1585.18 316.782 1595.31 C 328.449 1616.39 341.051 1634.86 356.478 1653.35 C 355.1 1653.07 353.823 1652.7 352.542 1652.11 C 343.144 1647.73 334.466 1641.9 325.594 1636.57 C 315.891 1630.74 305.118 1625.23 296.454 1617.89 C 268.539 1594.27 248.436 1544.33 235.724 1510.63 z" fill="rgb(252,249,243)" transform="translate(0,0)"></path>
<path d="M 538.638 955.371 C 560.197 956.667 584.808 958.226 606.149 962.128 C 634.517 967.315 662.361 973.905 690.868 979.106 C 668.542 983.32 643.354 986.122 620.141 990.204 C 603.434 992.85 576.642 984.116 557.826 982.094 C 528.341 978.925 498.784 974.867 468.956 975.608 C 493.558 966.049 513.097 961.429 538.638 955.371 z" fill="rgb(252,249,243)" transform="translate(0,0)"></path>
<path d="M 669.709 930.391 C 689.948 927.541 791.389 961.655 814.965 970.888 C 794.223 971.608 773.486 972.434 752.753 973.366 C 731.161 975.261 712.678 965.962 691.895 960.023 C 663.279 951.742 634.33 944.66 605.124 938.794 C 627.047 936.657 647.916 933.545 669.709 930.391 z" fill="rgb(252,249,243)" transform="translate(0,0)"></path>
<path d="M 1405.17 1035.83 C 1418.17 1040.01 1461.34 1065.96 1470.87 1073.92 C 1496.46 1095.34 1516.33 1136.99 1527.52 1168.33 C 1526.13 1167.66 1505.75 1151.88 1502.75 1149.52 C 1496.87 1144.9 1471.2 1128.86 1468.14 1124.94 C 1459.99 1114.5 1448.88 1094.53 1441.26 1082.74 C 1430.27 1065.72 1418.92 1050.64 1405.17 1035.83 z" fill="rgb(252,249,243)" transform="translate(0,0)"></path>
<path d="M 325.073 1098.32 L 325.481 1099.07 C 316.216 1106.94 301.102 1115.21 290.829 1122.95 C 265.366 1142.14 232.207 1152.01 203.831 1166.29 C 185.153 1175.69 166.353 1186.28 148.3 1196.91 L 147.67 1196.47 C 148.48 1194.8 149.367 1193.17 150.329 1191.58 C 155.575 1182.78 178.556 1151.15 186.607 1146.25 C 224.775 1123 283.609 1109.15 325.073 1098.32 z" fill="rgb(252,249,243)" transform="translate(0,0)"></path>
<path d="M 156.786 1395.54 C 162.239 1402.23 165.432 1415.43 169.271 1423.44 C 175.897 1437.25 185.653 1449.37 192.069 1463.21 C 198.95 1478.05 203.629 1500.85 209.319 1517.31 C 212.369 1526.12 215.325 1535.16 219.216 1543.65 C 222.7 1551.25 226.979 1558.49 230.092 1566.25 C 216.242 1554.56 203.047 1542.1 190.569 1528.95 C 183.805 1521.93 176.923 1514.82 172.282 1506.16 C 157.347 1478.31 156.192 1426.78 156.786 1395.54 z" fill="rgb(252,249,243)" transform="translate(0,0)"></path>
<path d="M 450.165 997.479 C 471.518 996.848 532.472 999.16 552.905 1003.7 C 542.778 1006.77 499.525 1020.93 491.863 1021.38 C 476.669 1022.27 448.169 1021.71 430.752 1022.38 C 394.676 1024.28 371.685 1025.4 336.016 1034.49 C 355.683 1022.13 390.193 1006.3 412.806 1000.09 C 419.231 998.32 442.467 997.757 450.165 997.479 z" fill="rgb(252,249,243)" transform="translate(0,0)"></path>
<path d="M 348.164 1592.53 C 357.418 1596.02 366.467 1603.36 375.067 1608.42 C 387.232 1615.59 402.054 1621.03 413.2 1629.42 C 421.365 1635.56 442.679 1664.37 450.71 1673.82 C 460.742 1685.63 471.632 1696.51 481.815 1708.14 C 481.487 1708.06 481.157 1708 480.832 1707.91 C 471.889 1705.53 462.731 1701.3 454.133 1697.89 C 443.323 1693.59 431.523 1689.68 421.627 1683.46 C 393.278 1665.63 365.501 1621.57 348.164 1592.53 z" fill="rgb(252,249,243)" transform="translate(0,0)"></path>
<path d="M 425.188 1041.57 C 430.561 1041.08 437.951 1041.06 443.515 1040.9 C 424.112 1048.4 403.137 1059.31 384.195 1065.86 C 367.185 1071.75 341.969 1073.57 323.765 1077.97 C 297.489 1084.32 271.645 1090.67 245.75 1098.62 L 231.523 1103.6 C 239.419 1096.66 274.907 1069.19 283.303 1066.12 C 322.498 1051.78 384.449 1044.4 425.188 1041.57 z" fill="rgb(252,249,243)" transform="translate(0,0)"></path>
<path d="M 304.197 1481.77 C 318.731 1493.25 332.085 1506.15 346.862 1517.56 C 348.423 1539.1 352.619 1559.59 356.016 1580.83 L 344.828 1573.26 C 325.001 1559.42 303.765 1547.68 285.202 1532.06 C 289.513 1514.45 295.96 1497.91 304.197 1481.77 z" fill="rgb(252,249,243)" transform="translate(0,0)"></path>
<path d="M 1685.19 1305.62 C 1685.53 1305.95 1685.92 1306.24 1686.21 1306.62 C 1694.81 1318.08 1691.7 1374.69 1689.6 1389.3 C 1681.57 1393.27 1674.04 1399.89 1666.85 1405.23 L 1632.51 1430.58 L 1629.64 1432.41 C 1628.88 1429.86 1633.81 1421.49 1635.17 1418.35 C 1639.11 1409.12 1642.43 1399.64 1645.11 1389.97 C 1647.62 1380.54 1648.92 1370.24 1653.08 1361.37 C 1657.09 1352.84 1663.55 1344.95 1668.57 1336.96 C 1674.9 1326.9 1680.09 1316.33 1685.19 1305.62 z" fill="rgb(252,249,243)" transform="translate(0,0)"></path>
<path d="M 1526.69 1106.75 C 1545.46 1119.01 1572.76 1144.38 1588.64 1159.94 C 1595.14 1190.24 1604.65 1218.7 1613.31 1248.39 C 1612.59 1247.99 1564.14 1193.3 1564.14 1193.31 C 1557.39 1163.18 1537.15 1133.38 1526.69 1106.75 z" fill="rgb(252,249,243)" transform="translate(0,0)"></path>
<path d="M 153.898 1293.8 C 154.653 1297.63 148.865 1332.62 147.532 1338.09 C 143.429 1354.92 136.743 1370.66 133.554 1387.93 C 129.928 1407.55 129.915 1427.18 131.292 1447 L 123.474 1429.24 C 114.556 1408.85 108.47 1387.32 105.386 1365.27 C 116.442 1340.48 134.988 1313.28 153.898 1293.8 z" fill="rgb(252,249,243)" transform="translate(0,0)"></path>
<path d="M 208.88 1193.18 L 209.064 1193.28 C 208.739 1195.4 196.094 1209.48 193.615 1212.89 C 188.178 1220.39 181.216 1234.05 175.117 1240.03 C 170.019 1245.03 160.086 1251.79 154.095 1256.89 C 135.664 1272.73 119.493 1291.02 106.035 1311.26 C 105.648 1310.86 105.262 1310.46 104.875 1310.06 C 104.524 1300.78 114.013 1259.86 119.986 1254.08 C 145.045 1229.82 178.116 1209.64 208.88 1193.18 z" fill="rgb(252,249,243)" transform="translate(0,0)"></path>
<path d="M 1670.94 1438.07 L 1671.46 1438.6 C 1672.63 1448.32 1653.25 1479.15 1647.21 1488.86 C 1621.69 1500.63 1590.4 1515.83 1563.33 1522.29 L 1562.45 1521.01 C 1570.92 1512.14 1579.32 1502.22 1588.67 1494.31 C 1613.94 1472.91 1644.17 1457.48 1670.94 1438.07 z" fill="rgb(252,249,243)" transform="translate(0,0)"></path>
<path d="M 372.753 1395.84 C 381.569 1361.78 403.175 1328.4 426.382 1302.56 C 504.682 1215.38 659.238 1151.31 772.473 1127.9 C 790.463 1124.18 809.855 1119.28 828.239 1118.34 L 832.037 1120.31 C 767.322 1134.92 701.116 1147.07 639.742 1173.31 C 593.725 1192.99 539.431 1218.3 497.733 1245.73 C 448.486 1278.13 391.797 1339.34 374.235 1396.05 L 372.753 1395.84 z" fill="url(#Gradient3)" transform="translate(0,0)"></path>
<path d="M 1623.78 1195.79 C 1637.49 1207.77 1664.54 1253.11 1671.93 1269.63 C 1668.29 1282.71 1662.24 1296.73 1657.09 1309.38 L 1650.23 1325.38 C 1648.96 1318.78 1641.72 1298.03 1641.74 1294.51 C 1641.9 1260.68 1633.63 1228.39 1623.78 1195.79 z" fill="rgb(252,249,243)" transform="translate(0,0)"></path>
<path d="M 521.391 1736.33 C 528.593 1738.6 535.709 1741.18 542.84 1743.66 C 543.854 1786.66 553.959 1828.83 569.568 1868.73 L 555.644 1865.14 C 537.899 1823.57 527.93 1780.93 521.391 1736.33 z" fill="rgb(252,249,243)" transform="translate(0,0)"></path>
<path d="M 356.616 1414.96 L 357.036 1415.34 C 357.961 1419.03 350.05 1452.31 348.88 1459.97 C 346.582 1475 346.285 1490.16 346.225 1505.33 L 326.639 1489.6 C 320.294 1484.73 314.764 1479.13 309.115 1473.5 C 321.221 1450.82 337.835 1432.27 356.616 1414.96 z" fill="rgb(252,249,243)" transform="translate(0,0)"></path>
<path d="M 468.853 1046.12 C 473.038 1051.09 497.148 1138.64 500.666 1150.69 L 488.318 1154.98 C 484.392 1150.38 459.987 1063.47 456.418 1050.66 C 460.059 1049.07 465.016 1047.48 468.853 1046.12 z" fill="rgb(252,249,243)" transform="translate(0,0)"></path>
<path d="M 1169.47 1768.09 C 1170.67 1768.35 1170.03 1768.04 1171.01 1769.55 C 1169 1799.94 1160.8 1864.09 1149.63 1891.09 C 1147.24 1893.32 1143.81 1893.23 1140.71 1893.61 L 1139.69 1893.61 C 1138.61 1890.64 1148.33 1850.86 1149.53 1844.12 C 1153.8 1820.2 1155.8 1795.9 1157.13 1771.66 L 1169.47 1768.09 z" fill="rgb(252,249,243)" transform="translate(0,0)"></path>
<path d="M 864.78 985.961 C 869.967 985.943 874.94 986.314 880.109 986.635 C 880.693 991.689 881.099 997.588 881.325 1002.7 C 882.677 1033.19 887.011 1064.9 887.075 1095.36 C 882.976 1095.42 879.898 1095.86 876.15 1094.3 C 875.288 1091.74 873.141 1067.91 872.762 1063.33 C 870.69 1038.33 866.041 1010.73 864.78 985.961 z" fill="rgb(252,249,243)" transform="translate(0,0)"></path>
<path d="M 246.239 1156.2 L 246.196 1158.1 C 220.714 1182.69 218.621 1177.52 188.552 1194.91 C 166.215 1207.77 145.037 1222.54 125.256 1239.06 C 123.994 1226.39 141.957 1210.02 151.912 1203.84 C 182.194 1185.02 213.732 1170.53 246.239 1156.2 z" fill="rgb(252,249,243)" transform="translate(0,0)"></path>
<path d="M 1242.32 1685.18 C 1260.54 1687.55 1279.78 1687.68 1298.15 1688.24 C 1324.07 1689.18 1350.01 1689.81 1375.95 1690.15 C 1365.88 1692.9 1356.06 1696.75 1346.23 1700.26 C 1343.42 1701.18 1340.86 1701.71 1337.88 1701.68 C 1325.23 1701.52 1312.28 1699.65 1299.63 1698.7 L 1214.89 1692.57 C 1223.93 1689.8 1233.18 1687.58 1242.32 1685.18 z" fill="rgb(252,249,243)" transform="translate(0,0)"></path>
<path d="M 1636.37 1501.91 L 1637.29 1502.25 L 1637.11 1503.94 C 1631.46 1510.52 1626.36 1516.45 1618.96 1521.11 C 1601.67 1532.01 1539.41 1551.61 1517.22 1558.23 L 1515.77 1557.97 L 1516.16 1556.73 C 1525.91 1550.52 1535.8 1540.88 1545.96 1536.1 C 1555.46 1531.63 1566.9 1529.06 1576.89 1525.67 C 1596.99 1518.86 1617.35 1511.34 1636.37 1501.91 z" fill="rgb(252,249,243)" transform="translate(0,0)"></path>
<path d="M 1042.24 933.128 C 1074.9 934.19 1140.91 984.278 1163.58 1008.2 C 1157.94 1007.72 1142.11 1003.98 1138.12 1000.67 C 1106.52 974.451 1077.71 953.894 1042.24 933.128 z" fill="rgb(252,249,243)" transform="translate(0,0)"></path>
<path d="M 560.99 1682.93 C 569.434 1684.55 577.764 1686.57 586.116 1688.6 C 592.233 1696.33 600.308 1702.17 607.969 1708.28 C 618.893 1717.15 630.014 1725.77 641.322 1734.15 C 652.85 1742.7 665.303 1750.95 675.436 1761.15 C 670.855 1760.73 665.94 1760.54 661.656 1758.75 C 635.563 1747.89 583.616 1702.28 560.99 1682.93 z" fill="rgb(252,249,243)" transform="translate(0,0)"></path>
<path d="M 1054.54 1724.47 C 1057.9 1723.56 1075.83 1730.37 1080.26 1731.54 C 1111.61 1739.85 1143.61 1744.55 1175.02 1752.22 C 1166.36 1753.14 1157.86 1754.61 1149.29 1756.17 C 1134.73 1759.06 1047.13 1732.02 1027.6 1726.31 C 1036.61 1725.97 1045.56 1725.25 1054.54 1724.47 z" fill="rgb(252,249,243)" transform="translate(0,0)"></path>
<path d="M 1214.89 967.684 C 1243.87 971.018 1305.07 1037.55 1325.38 1059.02 C 1319.67 1057.19 1310.15 1053.12 1303.95 1050.87 C 1282.62 1024.86 1240.9 989.767 1214.89 967.684 z" fill="rgb(252,249,243)" transform="translate(0,0)"></path>
<path d="M 206.41 1480.51 C 225.787 1491.36 237.897 1542.5 247.709 1562.97 C 253.515 1575.08 261.858 1585.72 268.222 1597.53 C 267.147 1597.1 266.736 1596.98 265.778 1596.47 C 237.498 1581.63 214.701 1509.41 206.41 1480.51 z" fill="rgb(252,249,243)" transform="translate(0,0)"></path>
<path d="M 165.805 1257.89 L 166.811 1259.08 C 157.765 1282.62 151.752 1283.55 135.98 1303.11 C 123.838 1318.16 111.741 1334.91 103.461 1352.32 C 102.208 1347.37 102.148 1335.72 101.996 1330.09 C 107.449 1323.57 113.796 1313.14 119.167 1305.88 C 132.558 1287.92 148.236 1271.79 165.805 1257.89 z" fill="rgb(252,249,243)" transform="translate(0,0)"></path>
<path d="M 315.771 1572.67 C 321.321 1575.36 328.127 1579.23 332.243 1583.84 C 341.494 1594.21 348.018 1609.46 355.689 1621.27 C 367.594 1639.59 381.404 1656.48 395.34 1673.27 C 394.853 1673.09 394.355 1672.94 393.877 1672.73 C 363.581 1659.77 328.241 1602.75 315.771 1572.67 z" fill="rgb(252,249,243)" transform="translate(0,0)"></path>
<path d="M 431.093 1636.86 C 437.108 1638.72 444.715 1641.05 449.634 1645.03 C 460.859 1654.1 471.64 1669.71 481.573 1680.59 C 495.849 1696.24 511.372 1709.81 527.715 1723.2 C 526.525 1723.12 526.399 1723.14 525.043 1722.84 C 516.871 1721.03 508.046 1717.04 501.255 1712.22 C 484.19 1700.13 441.363 1654.13 431.093 1636.86 z" fill="rgb(252,249,243)" transform="translate(0,0)"></path>
<path d="M 854.129 1729.22 C 860.559 1729.32 867.961 1728.8 874.204 1730.33 C 892.587 1734.81 925.936 1750.73 945.432 1758.51 C 959.233 1764.02 978.847 1769.42 991.199 1776.8 C 984.9 1777.17 977.936 1778.12 971.709 1776.88 C 971.192 1776.77 970.68 1776.64 970.164 1776.53 C 951.238 1772.5 932.559 1762.85 914.792 1755.12 C 894.664 1746.27 874.442 1737.64 854.129 1729.22 z" fill="rgb(252,249,243)" transform="translate(0,0)"></path>
<path d="M 843.182 919.374 C 878.959 916.772 965.707 964.139 1000.74 978.886 C 981.995 979.89 968.122 973.02 952.039 964.693 C 917.054 946.578 880.192 932.7 843.182 919.374 z" fill="rgb(252,249,243)" transform="translate(0,0)"></path>
<path d="M 1682.34 1402.81 L 1683.11 1403.01 L 1683.7 1404.38 C 1681.89 1410.97 1680.42 1416.87 1676.09 1422.38 C 1667.9 1432.81 1620.19 1461.84 1606.55 1471.36 L 1605.36 1471.48 L 1605.19 1470.11 C 1609.37 1463.77 1613.53 1457.35 1618.86 1451.9 C 1632.89 1437.56 1665.19 1415.84 1682.34 1402.81 z" fill="rgb(252,249,243)" transform="translate(0,0)"></path>
<path d="M 148.564 1362.82 C 148.765 1363.08 148.995 1363.31 149.168 1363.59 C 152.886 1369.5 152.673 1379.6 151.032 1386.01 C 144.842 1410.2 147.723 1440.93 152.107 1465.21 C 153.375 1472.24 155.873 1479.04 156.782 1486.09 L 155.898 1486.08 C 151.969 1480.46 147.512 1474.74 144.365 1468.64 C 132.647 1445.94 140.849 1387.11 148.564 1362.82 z" fill="rgb(252,249,243)" transform="translate(0,0)"></path>
<path d="M 1372.25 1021.62 C 1396.51 1025.02 1441.32 1096.01 1452.97 1118.72 C 1449.74 1117.91 1438.75 1111.08 1436.87 1108.54 C 1424.8 1092.18 1413.99 1074.77 1402.49 1057.95 C 1393.05 1044.17 1383.55 1033.82 1372.25 1021.62 z" fill="rgb(252,249,243)" transform="translate(0,0)"></path>
<path d="M 709.422 1713.92 C 716.909 1714.72 723.446 1716.49 730.283 1719.62 C 744.673 1726.22 757.924 1735.87 771.573 1743.88 C 790.851 1755.2 811.458 1765.16 829.826 1777.85 C 824.689 1777.66 819.128 1777.78 814.188 1776.27 C 800.128 1771.96 786.9 1762.37 774.4 1754.82 C 752.434 1741.56 730.794 1728.12 709.422 1713.92 z" fill="rgb(252,249,243)" transform="translate(0,0)"></path>
<path d="M 828.239 1118.34 C 861.189 1113.37 893.48 1108.02 927.027 1109.01 C 1005.77 1111.32 1084.79 1141.31 1154.42 1176.57 C 1158.81 1178.79 1168.37 1181.55 1171.71 1185.11 C 1156.84 1179.53 1143.56 1171.88 1129.46 1166.23 C 1052.39 1135.38 978.613 1105.31 893.553 1112.7 C 878.455 1114.01 846.024 1116.28 832.037 1120.31 L 828.239 1118.34 z" fill="rgb(212,186,165)" transform="translate(0,0)"></path>
<path d="M 500.907 1159.06 L 501.863 1159.57 C 505.606 1165.15 516.833 1210.32 519.062 1219.53 L 508.47 1226.43 C 502.907 1220.28 491.515 1172.69 489.262 1163.17 L 500.907 1159.06 z" fill="rgb(252,249,243)" transform="translate(0,0)"></path>
<path d="M 1511.19 1610.43 C 1512.86 1610.13 1514.08 1610.17 1515.75 1610.27 L 1515.64 1611.35 C 1510.95 1615.96 1504.98 1619.36 1499.48 1622.95 C 1473.12 1620.16 1427.95 1626.53 1400.76 1629.15 C 1398.28 1629.54 1396.44 1629.74 1393.91 1629.4 L 1394.6 1627.81 C 1414.26 1618.25 1486.09 1613.03 1511.19 1610.43 z" fill="rgb(252,249,243)" transform="translate(0,0)"></path>
<path d="M 445.78 984.043 C 484.354 981.814 551.075 986.988 588.371 996.285 C 583.009 997.151 577.442 997.84 572.047 998.581 C 565.071 999.189 537.594 993.792 528.126 992.97 C 495.755 990.005 463.221 989.229 430.745 990.649 L 445.78 984.043 z" fill="rgb(252,249,243)" transform="translate(0,0)"></path>
<path d="M 584.519 945.288 C 589.055 944.506 600.052 946.628 605.021 947.431 C 625.499 950.694 645.803 954.967 665.859 960.234 C 683.718 965.057 700.745 970.806 718.86 975.157 C 713.836 975.853 708.439 977.244 703.742 975.904 C 688.867 971.456 674.601 968.975 659.749 965.366 C 626.565 957.302 598.568 952.535 564.671 949.349 C 571.117 947.621 577.942 946.506 584.519 945.288 z" fill="rgb(252,249,243)" transform="translate(0,0)"></path>
<path d="M 1599.81 1171.47 C 1616.74 1181.28 1632.64 1259.62 1633.97 1279.28 C 1631.32 1277.13 1624.59 1263.79 1623.67 1260.34 C 1615.81 1230.91 1607.7 1200.87 1599.81 1171.47 z" fill="rgb(252,249,243)" transform="translate(0,0)"></path>
<path d="M 1491.72 1084.77 C 1522.34 1097.56 1542.13 1155.45 1551.25 1186.07 C 1540.22 1178.25 1537.53 1167.46 1532.29 1155.31 C 1520.87 1128.86 1509.73 1107.43 1491.72 1084.77 z" fill="rgb(252,249,243)" transform="translate(0,0)"></path>
<path d="M 691.871 926.049 C 730.082 923.202 807.051 952.803 841.711 970.59 C 836.135 970.715 830.557 970.68 824.983 970.487 C 799.567 950.653 723.169 934.639 691.871 926.049 z" fill="rgb(252,249,243)" transform="translate(0,0)"></path>
<path d="M 362.447 1078.49 L 363.146 1078.46 L 362.932 1079.29 C 346.45 1087.2 304.384 1094.48 284.348 1100.33 C 257.894 1108.05 233.68 1116.24 207.809 1125.99 L 206.775 1125.77 C 206.978 1125.26 207.1 1124.7 207.385 1124.22 C 216.628 1108.66 340.906 1081.17 362.447 1078.49 z" fill="rgb(252,249,243)" transform="translate(0,0)"></path>
<path d="M 424.281 1030.43 C 431.225 1030.07 463.694 1028.8 468.107 1031.07 C 462.211 1034.24 438.942 1033.43 430.597 1033.92 C 403.685 1035.71 376.869 1038.73 350.235 1042.99 C 338.988 1043.62 320.276 1048.62 308.101 1050.51 C 339.405 1035.56 389.712 1032.45 424.281 1030.43 z" fill="url(#Gradient2)" transform="translate(0,0)"></path>
<path d="M 361.659 1439.96 C 364.541 1445.13 358.492 1486.71 358.67 1496.23 C 359.21 1524.94 361.785 1557.92 370.721 1585.29 C 369.691 1584.52 369.445 1584.41 368.524 1583.25 C 352.616 1563.19 355.055 1494.89 357.502 1468.47 C 358.393 1458.85 360.386 1449.51 361.659 1439.96 z" fill="url(#Gradient1)" transform="translate(0,0)"></path>
<path d="M 1676.69 1281.83 C 1679.75 1285.07 1680.87 1291.28 1682.09 1295.49 C 1673.19 1312.84 1664.19 1329.76 1653.93 1346.35 L 1652.33 1348.06 C 1650.77 1344.28 1652.37 1339.12 1653.6 1335.42 C 1656.13 1327.84 1660.57 1320.31 1664.01 1313.06 C 1668.89 1302.93 1673.12 1292.5 1676.69 1281.83 z" fill="rgb(252,249,243)" transform="translate(0,0)"></path>
<path d="M 876.71 1102.29 C 883.047 1101.74 894.469 1103.01 901.13 1103.71 L 900.569 1104.63 C 895.476 1105.08 879.453 1107.23 876.144 1104.49 L 876.71 1102.29 z" fill="rgb(212,186,165)" transform="translate(0,0)"></path>
<path d="M 1014.29 1115.07 C 1022.46 1116.2 1030.62 1117.38 1038.77 1118.63 L 1038.68 1122 C 1033 1119.96 1021.53 1117.41 1014.29 1115.07 z" fill="rgb(235,216,202)" transform="translate(0,0)"></path>
<path d="M 372.753 1395.84 L 374.235 1396.05 C 372.329 1402.83 370.134 1411.46 367.679 1417.86 L 367.183 1417.7 C 366.725 1410.71 370.294 1402.59 372.753 1395.84 z" fill="rgb(126,79,55)" transform="translate(0,0)"></path>
<path d="M 1010.06 77.2496 C 1021.15 78.4018 1031.86 80.9595 1042.74 83.3202 C 1131.99 104.956 1223.27 122.429 1278.62 205.821 C 1319.8 267.863 1292.74 324.874 1318.46 387.452 C 1326.56 407.166 1358.49 438.123 1373.05 454.529 C 1387.38 468.815 1406.35 480.338 1420.65 495.027 C 1452.08 525.649 1488.9 560.888 1514.87 596.11 C 1509.76 581.836 1502.15 549.615 1495.57 539.009 C 1469.78 497.466 1431.26 462.269 1416.29 414.062 C 1408.8 390.251 1407.31 366.455 1407.79 341.506 C 1408.62 286.199 1405.88 234.595 1377.33 185.2 C 1368.6 170.094 1357.04 157.213 1347.28 142.981 C 1419.81 203.561 1523.93 271.128 1534.46 374.987 C 1536.63 396.443 1531.34 429.7 1524.22 450.25 C 1513.67 480.708 1506.13 495.334 1506.27 529.459 C 1506.38 554.921 1516.76 582.431 1525.59 606.34 C 1527.28 610.912 1544.03 630.347 1547.71 635.264 C 1559.38 650.853 1572.48 666.704 1584.11 682.274 C 1616 724.97 1650.92 774.751 1676.23 821.221 C 1675.14 809.316 1672.47 748.71 1669.48 742.417 C 1650.46 702.446 1622.45 656.698 1618.3 611.481 C 1611.14 533.544 1662.56 459.314 1638.73 379.582 C 1632.53 358.827 1623.3 341.23 1612.96 322.288 C 1627.89 340.054 1645.68 358.38 1659.81 376.336 C 1705.25 434.886 1750.95 506.14 1747.35 583.262 C 1745.45 623.758 1720.12 660.746 1699.12 694.002 C 1692.2 704.958 1679.61 730.594 1679.31 745.732 C 1678.75 773.67 1681.66 807.035 1685.94 834.924 C 1701.4 867.349 1732.68 913.531 1748.61 946.893 C 1761.21 973.306 1771.82 993.31 1783.48 1019.54 C 1797.17 1048.79 1810.17 1083.73 1824.36 1112.33 C 1825.44 1092.91 1828.42 1063 1825.72 1044.28 C 1822.62 1022.9 1811.44 997.1 1804.4 976.929 C 1773.79 889.182 1816.03 816.727 1845.4 737.015 C 1859.77 698.004 1858.32 642.413 1848.36 601.483 C 1864.18 635.185 1883 670.631 1895.99 705.221 C 1919.12 766.842 1942.79 848.085 1919.19 912.493 C 1913.56 927.716 1906.13 942.215 1897.07 955.684 C 1881.94 977.801 1843.09 1021.16 1836.36 1044.23 C 1832.62 1057.04 1831.9 1120.02 1834.09 1136.22 C 1834.6 1140.04 1847.53 1175.35 1849.75 1181.52 C 1859.63 1208.43 1868.91 1235.55 1877.58 1262.87 C 1910.67 1366.85 1933.73 1477.13 1951.79 1584.83 C 1953.08 1592.52 1954.7 1601.17 1955.38 1608.89 C 1941.82 1625.4 1915.86 1647.41 1896.91 1656.94 C 1890.98 1497.78 1861.5 1365.4 1817.23 1213.4 C 1811.11 1192.32 1804.5 1171.39 1797.39 1150.63 C 1794.67 1142.41 1786.22 1115.79 1782.06 1110.08 C 1775.01 1100.4 1744.13 1069.63 1734.17 1066.47 C 1691.47 1052.95 1641.57 1063.03 1597.8 1053.05 C 1522.89 1034.81 1463.98 976.792 1419.29 916.782 C 1405.11 897.7 1394.49 876.734 1378.91 858.843 C 1372.71 851.892 1357.3 839.884 1349.55 833.622 C 1386.78 850.573 1418.55 866.09 1457.48 879.045 C 1528.69 902.748 1609.76 902.502 1667.66 955.254 C 1698.81 983.628 1706.79 1006.72 1724.97 1041.79 C 1729.12 1049.8 1764.73 1079.76 1774.09 1088.56 C 1760.2 1050.15 1741.62 1011.4 1723.7 974.674 C 1692.06 909.817 1657.13 845.49 1617.57 785.11 C 1613.3 778.595 1575.94 766.526 1567.21 766.64 C 1553.92 766.814 1537.33 770.474 1524.14 773.705 C 1471.48 787.917 1422.15 802.712 1367.57 783.499 C 1315.8 765.278 1253.56 724.477 1212.25 687.927 C 1181.48 660.714 1184.02 652.561 1144.48 630.722 C 1159 635.494 1173.31 641.179 1187.76 645.709 C 1240.31 662.179 1292.36 658.889 1346.01 654.097 C 1417.55 647.708 1493.04 668.953 1540.06 725.617 C 1562.68 752.88 1575.8 759.337 1608.32 770.433 C 1566.74 708.809 1521.91 650.233 1474.04 593.371 C 1461.23 578.158 1439.15 550.524 1423.32 538.76 C 1414.26 532.022 1377.47 523.853 1365.19 520.815 C 1351.58 517.447 1337.43 522.254 1324.27 526.736 C 1300.87 534.709 1278.92 545.508 1255.57 554.336 C 1187.99 579.892 1122.6 561.274 1060.16 531.315 C 1037.42 520.402 996.938 491.923 977.393 475.556 C 955.475 457.202 949.398 447.104 921.91 431.195 C 937.157 436.395 951.414 441.443 967.404 444.138 C 1049.02 457.867 1132.82 428.09 1214.25 439.321 C 1264.05 446.19 1306.72 488.02 1352.06 507.135 C 1370.25 514.801 1389.48 517.884 1408.52 523.003 C 1333.26 448.065 1235.8 381.376 1134.77 346.727 C 1097.28 333.869 1086.7 329.846 1046.95 339.211 C 1015.18 346.697 979.198 352.341 946.927 346.754 C 874.801 334.793 821.086 274.792 746.368 271.507 C 729.334 270.758 718.263 273.861 702.153 275.841 C 714.529 269.038 730.757 263.792 744.277 258.439 C 812.223 231.536 895.031 200.511 967.919 222.438 C 1009.13 234.798 1043.61 259.166 1076.68 285.766 C 1086.26 293.472 1106.06 310.033 1116.48 314.761 C 1141.06 325.909 1170.3 333.416 1195.38 344.254 C 1236.16 361.875 1273.36 383.123 1310.38 407.575 C 1320.24 414.014 1329.55 421.712 1339.11 428.425 C 1332.96 420.401 1308.05 386.403 1302.76 382.517 C 1239.88 336.323 1187.98 322.186 1154.58 244.807 C 1127.01 180.938 1104.32 126.402 1039.31 90.2997 C 1029.61 85.6401 1019.97 82.2917 1010.06 77.2496 z" fill="rgb(103,56,37)" transform="translate(0,0)"></path>
<path d="M 786.86 260.428 L 787.871 260.33 C 838.759 255.904 923.913 282.058 973.473 295.48 C 1016.43 308.477 1063.7 312.118 1106.72 323.196 C 1363.05 389.193 1547.76 621.208 1677.2 837.718 C 1701.06 877.018 1723.54 917.135 1744.61 957.995 C 1783.27 1036.05 1817.41 1116.27 1846.86 1198.24 C 1872.64 1271.13 1894.03 1345.51 1910.93 1420.96 C 1923.19 1473.39 1941.28 1554.82 1945.74 1607.69 C 1931.69 1622.78 1921.99 1631.83 1905.25 1643.55 L 1904.92 1628.76 C 1902.27 1546.85 1884.04 1442.59 1865.82 1362.84 C 1846.91 1278.35 1822.42 1195.2 1792.5 1113.96 C 1737.86 970.54 1665.05 834.722 1575.86 709.825 C 1548.84 673.268 1520.62 637.619 1491.24 602.936 C 1477.26 586.334 1458.16 562.379 1443.63 547.007 C 1359.1 458.256 1256.48 380.215 1139.89 339.512 C 1101.13 325.981 1081.26 320.096 1041.01 331.033 C 976.305 348.612 920.671 339.848 863.112 305.734 C 827.141 284.415 784.409 267.363 742.201 265.407 C 758.571 262.449 770.472 261.441 786.86 260.428 z" fill="rgb(252,249,243)" transform="translate(0,0)"></path>
<path d="M 1403.35 880.84 C 1409.22 883.554 1423.98 895.505 1430.26 899.887 C 1444.4 909.541 1459.18 918.239 1474.48 925.923 C 1536.49 956.398 1600.84 973.338 1660.04 1007.63 C 1682 1020.36 1704.22 1039.3 1724.55 1054.9 C 1715.58 1054.17 1706.6 1053.51 1697.64 1052.8 C 1667.64 1050.44 1638.33 1051.27 1608.53 1046.28 C 1519 1031.27 1451.83 951.328 1403.35 880.84 z" fill="rgb(252,249,243)" transform="translate(0,0)"></path>
<path d="M 1202.8 669.012 C 1208.84 670.992 1222.59 677.866 1229.18 680.692 C 1248.26 688.887 1266.85 696.009 1287.2 700.709 C 1324.32 708.986 1362.59 712.338 1400.36 716.713 C 1455.79 723.133 1501.05 737.64 1552.15 758.993 L 1531.75 764.553 C 1505.21 772.223 1460.89 784.135 1434.73 785.037 C 1418.84 785.732 1402.93 784.297 1387.42 780.771 C 1324.34 765.934 1249.63 712.517 1202.8 669.012 z" fill="rgb(252,249,243)" transform="translate(0,0)"></path>
<path d="M 980.439 468.84 C 984.326 469.386 1009.18 479.136 1015.48 480.986 C 1035.59 487.065 1056.22 490.028 1076.98 492.675 C 1153.68 502.457 1230.8 488.496 1306.85 506.654 C 1317.73 509.254 1332.82 511.47 1342.95 515.83 C 1330.46 517.699 1319.95 520.887 1308.04 524.928 C 1269.49 539.476 1243.34 553.9 1201.04 557.733 C 1124.97 564.628 1036.95 516.869 980.439 468.84 z" fill="rgb(252,249,243)" transform="translate(0,0)"></path>
<path d="M 1873.87 671.759 C 1877.38 676.647 1884.02 694.795 1886.38 701.088 C 1899.86 736.949 1909.93 770.804 1916.21 808.699 C 1925.92 867.299 1920.56 909.337 1885 958.296 C 1873.48 974.15 1860.39 989.321 1848.91 1005.26 C 1843.64 1012.22 1838.48 1019.8 1833.45 1026.97 C 1833.03 997.67 1837.67 954.055 1844.34 925.627 C 1858.41 865.679 1881.93 809.573 1882.52 746.86 C 1882.76 721.31 1878.92 696.694 1873.87 671.759 z" fill="rgb(252,249,243)" transform="translate(0,0)"></path>
<path d="M 1657.92 387.738 C 1665.89 394.341 1673.94 408.095 1679.64 416.835 C 1704.5 454.911 1722.25 485.776 1733.23 530.464 C 1750.84 602.17 1726.73 633.859 1691.56 691.229 C 1685.16 702.177 1680.2 714.088 1674.64 725.566 C 1670.51 702.642 1667.14 676.733 1668.89 653.847 C 1673.78 589.554 1690.65 528.026 1679.63 463.128 C 1674.92 435.391 1667.15 414.165 1657.92 387.738 z" fill="rgb(252,249,243)" transform="translate(0,0)"></path>
<path d="M 1089.52 102.955 C 1094.06 103.103 1106.85 106.229 1111.41 107.471 C 1150.12 118.003 1185.76 132.937 1218.85 155.442 C 1264.32 186.365 1292.45 232.357 1296.3 287.407 C 1298.34 316.539 1297.34 340.385 1302.58 369.569 C 1296.62 365.623 1284.57 343.665 1279.8 336.839 C 1246.59 289.357 1220.29 237.578 1190.4 188.257 C 1169.12 153.133 1127.25 118.914 1089.52 102.955 z" fill="rgb(252,249,243)" transform="translate(0,0)"></path>
<path d="M 1185.29 652.004 C 1227.23 664.975 1262.42 668.11 1306 664.719 C 1327.45 663.05 1351.21 660.985 1372.43 660.957 C 1420.92 660.894 1474.8 675.125 1511.51 708.153 C 1525.3 720.556 1535.42 733.843 1548.36 746.989 L 1549.24 748.161 C 1547.73 748.166 1503.99 732.476 1498.57 730.719 C 1486.23 726.662 1473.72 723.121 1461.08 720.104 C 1407.98 707.668 1364.38 707.504 1312.86 698.713 C 1286.22 693.934 1260.08 686.739 1234.74 677.217 C 1217.15 670.716 1200.05 663.796 1185.29 652.004 z" fill="rgb(252,249,243)" transform="translate(0,0)"></path>
<path d="M 1411.01 205.511 C 1415.28 206.99 1424.58 215.668 1428.53 219.192 C 1457.89 245.41 1480.83 271.681 1501.77 305.062 C 1526.93 345.192 1531.78 386.989 1520.25 432.741 C 1515.34 452.236 1508.11 471.032 1503.2 491.152 C 1501.02 499.86 1500.12 507.936 1499.64 516.856 C 1484.29 480.125 1476.06 450.951 1470.66 411.012 C 1463.56 358.463 1464.68 303.263 1442.42 254.266 C 1435.19 238.355 1421.22 220.265 1411.01 205.511 z" fill="rgb(252,249,243)" transform="translate(0,0)"></path>
<path d="M 902.377 223.414 C 962.62 216.465 1025.39 254.09 1069.66 290.926 C 1079.39 299.023 1089.42 307.174 1099.84 314.355 C 1064.38 305.176 1025.02 299.938 987.472 290.905 C 972.259 286.231 951.258 281.897 935.039 277.338 C 881.17 262.195 823.678 246.902 767.3 256.308 C 806.701 241.125 860.45 226.709 902.377 223.414 z" fill="rgb(252,249,243)" transform="translate(0,0)"></path>
<path d="M 1144.01 445.578 C 1235.25 437.943 1256.25 461.133 1330.08 505.066 C 1258.58 487.829 1229.76 487.168 1156.09 488.314 C 1099.58 488.74 1044.96 485.327 991.245 465.699 C 982.025 462.33 967.293 456.19 959.694 450.032 C 1016.89 460.186 1086.56 449.802 1144.01 445.578 z" fill="rgb(252,249,243)" transform="translate(0,0)"></path>
<path d="M 1862.23 654.785 C 1866.46 659.163 1869.33 680.65 1870.52 687.146 C 1879.89 739.296 1873.92 798.771 1857.7 849.438 C 1838.13 910.583 1827.11 955.001 1826.91 1019.71 C 1825.21 1015.06 1823.64 1010.05 1822.07 1005.32 C 1815.09 982.711 1808 972.106 1803.68 945.575 C 1793.57 891.116 1811.14 837.729 1833.77 788.504 C 1855.84 740.495 1863.35 707.833 1862.23 654.785 z" fill="rgb(252,249,243)" transform="translate(0,0)"></path>
<path d="M 1385.2 858.772 C 1392.66 860.514 1408.57 869.507 1416.74 872.721 C 1432.52 878.926 1448.6 884.446 1464.8 889.453 C 1507.1 902.534 1551.54 908.732 1593.81 922.061 C 1656.67 941.882 1686 980.979 1714.68 1037.19 C 1710.09 1035.23 1696.03 1024.16 1691.24 1020.62 C 1676.76 1009.94 1661.69 998.318 1645.69 989.991 C 1620.13 976.688 1593.33 967.133 1566.5 956.872 C 1506.66 933.983 1432.68 903.114 1385.2 858.772 z" fill="rgb(252,249,243)" transform="translate(0,0)"></path>
<path d="M 1065.76 97.7537 C 1072.35 98.8581 1073.7 100.968 1079.28 103.596 C 1106.48 116.387 1127.7 132.986 1149.97 152.967 C 1185.27 184.633 1203.19 227.963 1226.85 268.026 C 1240.08 290.418 1254.12 312.122 1269.33 333.25 C 1275.96 342.504 1281.17 352.184 1288.2 361.478 C 1277.24 357.19 1259.5 342.5 1248.38 336.016 C 1208.83 312.95 1183.05 287.077 1163.72 244.945 C 1136.25 185.096 1120.34 139.062 1065.76 97.7537 z" fill="rgb(252,249,243)" transform="translate(0,0)"></path>
<path d="M 1387.17 188.583 C 1394.55 193.95 1405.51 210.683 1411.25 217.963 C 1461.54 281.857 1451.09 355.029 1466.26 429.396 C 1469.97 447.59 1475.03 467.777 1480.89 485.62 C 1484.7 497.232 1490.07 508.436 1493.63 520.448 C 1490.43 517.809 1464.86 483.462 1461.17 478.363 C 1430.44 435.918 1414.72 403.385 1415.36 349.675 C 1415.57 331.839 1415.64 310.127 1414.84 292.116 C 1414.19 277.415 1411.79 255.964 1408.63 241.726 C 1404.91 224.987 1394.47 204.699 1387.17 188.583 z" fill="rgb(252,249,243)" transform="translate(0,0)"></path>
<path d="M 1643.01 372.851 C 1645.93 377.229 1649.45 384.938 1651.45 389.968 C 1678.58 458.219 1679.61 530.492 1666.48 601.989 C 1658.97 642.878 1660.04 674.081 1665 714.573 L 1660.3 705.587 C 1641.94 672.365 1624.17 624.512 1625 586.811 C 1625.6 559.762 1635.96 528.012 1642.49 501.313 C 1648.41 477.472 1651.45 453.008 1651.55 428.443 C 1651.51 399.153 1647.24 398.128 1643.15 373.695 L 1643.01 372.851 z" fill="rgb(252,249,243)" transform="translate(0,0)"></path>
<path d="M 606.937 545.082 C 608.592 521.281 607.768 488.826 617.007 467.072 C 634.259 426.45 681.441 405.827 705.777 369.047 C 722.27 344.119 725.301 334.253 725.061 304.668 C 730.264 320.838 732.078 342.767 733.672 359.935 C 737.59 402.144 744.439 443.107 724.318 482.568 C 700.194 529.876 664.583 537.598 617.162 550.598 C 598.909 586.11 583.039 602.135 555.296 630.275 C 623.655 619.777 606.494 583.781 661.966 565.439 C 729.035 543.263 790.222 575.338 855.747 537.078 C 815.139 583.713 748.495 639.05 685.059 642.387 C 664.03 643.494 643.552 640.797 623.28 635.248 C 614.694 632.898 604.842 630.333 596.236 629.227 C 586.332 627.955 576.881 632.974 567.357 635.097 C 564.205 635.8 552.278 635.535 551.055 636.356 C 539.528 644.09 526.561 658.12 515.953 667.18 C 490.913 688.292 464.634 707.889 437.257 725.867 C 431.635 728.498 423.441 732.165 420.799 737.621 C 418.786 739.464 401.518 750.339 398.661 752.154 C 368.1 771.531 336.864 789.824 305.013 806.999 C 317.756 806.798 346.143 808.577 356.412 804.423 C 385.576 792.627 400.843 773.55 435.695 774.697 C 465.453 775.677 487.705 785.861 515.568 794.715 C 549.923 805.632 590.399 813.8 626.449 810.755 C 625.046 811.575 623.881 812.162 622.462 812.913 C 553.775 849.266 483.985 878.941 405.99 848.99 C 383.752 840.451 367.144 823.97 345.723 816.087 C 336.296 812.618 297.322 812.239 289.287 816.293 C 248.775 836.729 198.002 863.298 154.857 875.988 C 149.051 871.816 134.207 860.811 134.099 853.395 C 136.273 849.395 154.798 843.652 160.04 841.849 C 223.76 819.933 282.406 791.859 341.702 760.022 C 335.486 726.621 319.934 699.688 318.61 663.366 C 316.127 595.256 369.129 555.197 410.927 510.601 L 415.072 511.065 C 390.917 558.115 406.013 593.237 405.532 643.086 C 405.206 676.825 381.515 708.472 362.73 734.764 C 358.776 740.297 350.196 747.528 349.303 754.196 L 350.587 755.037 C 359.068 752.642 367.711 745.085 375.237 740.403 C 395.028 728.091 473.478 680.1 482.483 664.826 C 497.958 638.578 447.395 560.931 500.866 488.095 C 523.654 457.053 560.473 438.359 586.853 410.72 C 581.683 419.435 575.287 429.125 570.867 437.936 C 556.129 467.31 554.96 498.061 554.799 530.166 C 554.734 543.34 554.654 557.598 550.02 570.113 C 538.141 602.192 498.541 628.616 490.746 660.934 C 527.554 633.269 577.81 581.526 606.937 545.082 z" fill="rgb(103,56,37)" transform="translate(0,0)"></path>
<path d="M 725.535 364.778 L 726.465 365.842 C 742.863 459.118 723.243 517.952 625.916 541.803 C 624.968 541.97 623.322 542.115 622.325 542.228 C 621.152 539.102 626.027 534.279 628.181 531.597 C 672.675 476.19 707.592 434.908 725.535 364.778 z" fill="rgb(252,249,243)" transform="translate(0,0)"></path>
<path d="M 593.153 572.124 L 595.079 574.081 C 515.162 690.326 287.499 820.642 156.666 869.994 C 150.889 864.973 145.181 859.872 139.545 854.693 C 159.258 849.795 203.133 833.083 222.229 825.189 C 354.827 770.375 498.944 680.889 593.153 572.124 z" fill="rgb(252,249,243)" transform="translate(0,0)"></path>
<path d="M 723.531 351.759 C 724.399 356.176 718.858 371.761 717.44 376.438 C 698.791 437.961 654.499 485.978 615.707 535.6 C 613.932 528.769 615.15 513.082 615.397 505.895 C 617.445 446.174 661.249 428.139 697.375 389.107 C 709.138 376.399 715.019 366.873 723.531 351.759 z" fill="rgb(252,249,243)" transform="translate(0,0)"></path>
<path d="M 821.641 558.239 L 823.109 558.221 C 821.969 560.149 813.515 564.261 810.975 565.668 C 764.739 591.284 711.385 592.879 660.548 602.293 C 643.505 605.449 628.029 609.591 611.233 614.129 L 610.107 613.865 L 609.988 612.703 C 617.017 604.397 632.438 586.917 641.268 581.453 C 694.695 548.392 763.077 572.882 821.641 558.239 z" fill="rgb(252,249,243)" transform="translate(0,0)"></path>
<path d="M 360.55 811.119 C 435.838 809.376 510.286 843.48 581.967 826.292 C 575.001 830.005 570.191 831.782 562.755 834.585 C 512.74 854.402 453.518 862.346 402.761 840.491 C 386.888 833.656 371.906 819.458 356.845 813.576 L 356.587 812.588 L 360.55 811.119 z" fill="rgb(252,249,243)" transform="translate(0,0)"></path>
<path d="M 426.249 781.33 C 461.313 777.587 502.305 800.795 537.534 808.777 C 566.697 815.384 576.905 814.776 604.796 816.684 C 586.724 820.604 566.084 824.45 547.751 825.235 C 523.639 826.673 500.951 822.396 477.342 818.496 C 443.011 812.825 406.608 804.997 371.719 804.973 C 388.991 791.648 404.936 784.569 426.249 781.33 z" fill="rgb(252,249,243)" transform="translate(0,0)"></path>
<path d="M 382.623 548.94 C 382.435 552.825 374.019 571.628 372.235 577.617 C 359.336 620.908 362.64 667.251 353.137 711.402 C 350.821 722.163 347.765 732.103 344.548 742.526 L 339.552 727.401 C 332.845 704.676 325.985 683.356 325.248 659.32 C 323.897 615.26 353.317 579.128 382.623 548.94 z" fill="rgb(252,249,243)" transform="translate(0,0)"></path>
<path d="M 400.686 530.775 C 401.629 539.711 396.453 560.688 396.864 573.386 C 397.76 601.068 405.068 640.125 396.065 666.002 C 388.232 688.515 370.017 713.9 356.902 733.207 L 355.689 734.448 L 355.144 733.123 C 360.097 712.574 363.67 691.717 365.84 670.691 C 370.858 624.049 370.707 570.169 400.686 530.775 z" fill="rgb(252,249,243)" transform="translate(0,0)"></path>
<path d="M 811.055 571.23 L 811.467 572.24 C 795.355 585.767 780.376 597.481 762.369 608.303 C 707.432 641.32 674.478 641.119 614.765 626.298 C 610.082 625.028 603.725 623.945 598.854 622.967 C 618.796 619.025 640.339 612.41 659.267 609.036 C 716.096 598.905 758.88 598.757 811.055 571.23 z" fill="rgb(252,249,243)" transform="translate(0,0)"></path>
<path d="M 551.84 448.149 C 550.292 452.711 539.323 468.456 536.672 473.735 C 531.322 484.393 526.515 496.239 522.745 507.523 C 519.694 516.679 517.222 526.017 515.341 535.482 C 512.069 551.414 499.865 630.623 490.617 637.858 L 489.28 634.517 C 487.363 605.624 479.78 581.722 482.738 552.509 C 487.777 502.754 515.202 478.015 551.84 448.149 z" fill="rgb(252,249,243)" transform="translate(0,0)"></path>
<path d="M 566.49 436.946 C 566.524 437.404 555.741 466.795 554.369 472.391 C 546.841 503.104 553.954 544.694 541.309 572.834 C 534.861 587.184 513.779 611.171 503.647 624.974 C 503.469 622.671 511.165 594.012 512.111 588.754 C 521.754 535.149 528.816 479.535 566.49 436.946 z" fill="rgb(252,249,243)" transform="translate(0,0)"></path>
<path d="M 605.05 557.794 C 601.448 564.543 599.495 567.867 595.079 574.081 L 593.153 572.124 C 597.092 567.371 601.056 562.483 605.05 557.794 z" fill="rgb(212,186,165)" transform="translate(0,0)"></path>
<path d="M 471.983 721.532 C 479.901 716.38 491.99 704.359 499.036 697.703 C 541.852 657.251 592.415 675.814 641.592 689.946 C 672.837 698.925 704.53 695.561 736.486 694.867 C 715.865 705.942 696.975 718.588 675.909 729.023 C 602.472 765.4 542.732 778.042 473.096 727.578 C 472.698 726.403 472.218 722.936 471.983 721.532 z" fill="rgb(103,56,37)" transform="translate(0,0)"></path>
<path d="M 560.051 679.399 C 588.475 680.115 609.043 688.347 635.651 695.287 C 661.871 702.279 689.228 703.936 716.1 700.158 C 695.409 710.297 661.799 715.943 638.812 717.869 C 587.124 719.73 535.117 711.343 484.073 719.492 C 508.999 693.817 524.386 682.418 560.051 679.399 z" fill="rgb(252,249,243)" transform="translate(0,0)"></path>
<path d="M 686.79 715.321 L 687.392 715.554 C 685.153 718.112 676.419 721.7 672.835 723.409 C 614.459 751.235 559.051 768.667 497.914 736.911 C 492.285 733.691 486.97 729.742 481.654 725.998 C 555.801 713.999 614.092 736.453 686.79 715.321 z" fill="rgb(252,249,243)" transform="translate(0,0)"></path>
<path d="M 437.257 725.867 C 451.436 725.23 458.487 725.138 471.983 721.532 C 472.218 722.936 472.698 726.403 473.096 727.578 C 451.688 734.742 437.74 727.276 420.799 737.621 C 423.441 732.165 431.635 728.498 437.257 725.867 z" fill="rgb(103,56,37)" transform="translate(0,0)"></path>
<path d="M 410.927 510.601 C 415.531 505.983 418.662 502.78 423.811 498.759 C 421.119 502.582 417.893 507.462 415.072 511.065 L 410.927 510.601 z" fill="rgb(126,79,55)" transform="translate(0,0)"></path>
<metadata><recraft-signature>{"signed_by": "recraft", "signature_b64": "KKr9b4vNKQr0wdeThpIL9G1ZMXL1BwpI1wO94vJZcQFkf5ORZUqIlvwYpZrQe0s98wGd2wHq1JY8DoNMtknSCg==", "signing_algo": "Ed25519", "generation_timestamp": 1778091850, "identifier": "ab81d6dd-3916-435e-a7e6-e687685a8281"}</recraft-signature></metadata></svg>