<svg xmlns="http://www.w3.org/2000/svg" height="1024" preserveAspectRatio="none" style="display: block;" version="1.1" viewBox="0 0 2048 2048" width="1024">
<defs>
	<linearGradient gradientUnits="userSpaceOnUse" id="Gradient1" x1="1294.82" x2="1299" y1="1545.22" y2="1553.27">
		<stop class="stop0" offset="0" stop-color="rgb(233,227,209)" stop-opacity="1"></stop>
		<stop class="stop1" offset="1" stop-color="rgb(255,255,255)" stop-opacity="1"></stop>
	</linearGradient>
</defs>
<path d="M 0 0 L 2048 0 L 2048 2048 L 0 2048 L 0 0 z" fill="rgb(255,254,246)" transform="translate(0,0)"></path>
<path d="M 962.962 637.43 C 997.402 635.175 1050.61 637.152 1085.89 638.949 C 1321.88 650.964 1582.2 722.02 1763.41 880.659 C 1816.88 928.476 1862.79 993.414 1883.18 1062.44 C 1900.03 1123.17 1899.73 1193.8 1874.03 1252.17 C 1853.15 1299.6 1846.17 1346.38 1828.73 1395.26 C 1783.53 1521.94 1722.22 1643.99 1631.9 1744.63 C 1588 1793.54 1552.01 1819.2 1491.01 1844.04 C 1348.3 1910.94 1203.58 1935.8 1048.25 1945.86 C 869.503 1952.68 681.818 1920.78 521.073 1841.85 C 482.866 1822.67 443.898 1805.31 411.811 1776.59 C 364.686 1734.4 329.505 1692.56 295.635 1639.5 C 254.917 1575.71 216.527 1509.37 191.231 1437.6 C 174.596 1390.41 160.808 1340.94 151.566 1291.84 C 149.974 1283.62 140.436 1267.83 136.875 1259 C 124.427 1227.81 116.977 1194.85 114.798 1161.33 C 107.956 1037.59 178.171 930.426 273.406 857.089 C 469.456 706.118 720.188 650.239 962.962 637.43 z" fill="rgb(115,69,37)" transform="translate(0,0)"></path>
<path d="M 980.528 652.495 C 1135.42 650.349 1290.06 668.562 1437.33 718.349 C 1469.27 729.495 1500.78 741.84 1531.79 755.356 C 1615.51 791.156 1690.63 834.119 1758.05 896.994 C 1824.58 958.824 1878.16 1049.44 1879.35 1142.62 C 1881.3 1293.84 1752.01 1415.79 1631.56 1485.27 C 1448.44 1590.91 1235.32 1626.36 1027.44 1630.88 C 765.214 1632.62 448.309 1576.66 249.816 1390.73 C 185.365 1330.66 131.448 1238.66 129.484 1149.18 C 126.307 1004.43 237.423 891.816 352.719 821.33 C 537.067 708.628 765.989 656.364 980.528 652.495 z" fill="rgb(255,254,246)" transform="translate(0,0)"></path>
<path d="M 982.921 673.485 C 1199.99 672.17 1418.8 710.761 1609.86 816.975 C 1731.48 884.584 1849.16 984.202 1853.81 1133.73 C 1856.3 1213.79 1822.62 1294.07 1767.03 1350.88 C 1576.14 1546 1287.01 1596.16 1025.49 1604.81 C 811.1 1606.39 590.993 1571.41 399.842 1469.86 C 275.902 1404.02 159.807 1298.51 154.167 1148.36 C 151.19 1069.12 191.227 990.629 245.658 934.239 C 368.021 807.47 541.475 743.449 709.492 703.781 C 796.615 683.733 894.52 676.027 982.921 673.485 z" fill="rgb(115,69,37)" transform="translate(0,0)"></path>
<path d="M 1171.71 1197.43 C 1179.27 1196.92 1186.86 1196.8 1194.44 1197.07 C 1243.55 1198.75 1333.34 1223.32 1369.45 1258.3 C 1385.54 1278.22 1394.52 1321.12 1394.48 1344.95 C 1394.45 1362.19 1357.12 1380.47 1343.63 1387.58 C 1291.26 1415.13 1229.76 1422.64 1171.17 1416.99 C 1140.87 1414.07 1094.84 1406.99 1073.24 1383.63 C 1054.62 1361.68 1077.55 1327.57 1096.63 1313.5 C 1143.45 1278.96 1205.47 1272.89 1261.67 1280.75 C 1280.79 1283.43 1330.57 1293.4 1341.18 1308.43 C 1344.48 1313.07 1345.62 1318.91 1344.29 1324.45 C 1336.38 1357.42 1234.78 1372.34 1206.3 1360.49 C 1191.56 1355.87 1180.48 1353.37 1175.79 1337.11 C 1174.63 1333.1 1169.09 1334.03 1166.48 1336.18 C 1164.83 1344.64 1180.31 1360.06 1187.76 1363.13 C 1225.17 1378.55 1268.51 1374.57 1305.98 1361.47 C 1321.74 1355.96 1343.59 1348.09 1351.1 1331.79 C 1354.3 1324.88 1354.48 1316.95 1351.63 1309.89 C 1346.27 1296.73 1333.33 1291.48 1321.26 1286.73 C 1245.81 1263.44 1156.47 1256.8 1089.3 1307.63 C 1066.67 1324.76 1045.33 1366.16 1068.63 1390.54 C 1095.36 1418.51 1147.53 1422.77 1184.18 1426.36 C 1255.48 1431.85 1339.87 1412.33 1394.08 1364.26 C 1392.82 1382.68 1390.95 1400.88 1386.51 1418.83 C 1335.72 1454.22 1283.43 1468.09 1222.34 1474.08 C 1157.21 1480.47 1069.94 1473.1 1018.52 1429.49 C 994.473 1408.94 979.619 1379.63 977.258 1348.08 C 974.411 1313.31 988.827 1282.41 1010.64 1256.05 C 1027.75 1235.39 1034.6 1231.57 1059.22 1222.33 C 1095.29 1208.58 1133.19 1200.19 1171.71 1197.43 z" fill="rgb(255,254,246)" transform="translate(0,0)"></path>
<path d="M 1019.84 998.423 C 1076.97 991.939 1170.69 1017.91 1215.96 1054.4 C 1155.6 1038.2 1093.1 1044.13 1033.28 1058.7 C 908.194 1089.16 778.993 1163.01 717.468 1280.24 C 693.106 1326.66 676.957 1394.15 679.118 1446.31 C 681.465 1504.67 716.686 1532.73 756.609 1568.74 L 744.025 1566.46 C 716.455 1541.88 692.005 1518.07 671.979 1486.64 C 667.84 1480.15 651.516 1449.29 646.207 1448.36 C 643.978 1456.36 660.43 1483.95 665.133 1491.68 C 688.78 1527.74 698.47 1535.69 727.653 1565.35 C 695.309 1554.29 647.104 1486.51 629.201 1456.59 C 624.574 1448.86 613.569 1427.26 607.867 1423.6 L 606.635 1424.47 C 607.496 1446.93 650.532 1505.7 666.058 1525.37 C 674.185 1535.67 687.286 1546.51 694.62 1557.98 C 655.441 1531.67 615.557 1475.68 604.054 1430.77 C 600.019 1415.02 598.268 1393.23 596.822 1377.07 C 590.291 1304.06 629.229 1243.93 664.141 1183.78 C 688.971 1139.92 694.575 1115.97 738.187 1085.11 C 797.448 1043.17 864.051 1024.79 934.521 1010.89 C 962.036 1005.46 992.096 1000.22 1019.84 998.423 z" fill="rgb(255,254,246)" transform="translate(0,0)"></path>
<path d="M 1157.95 1123.43 C 1198.79 1120.95 1258.73 1127.49 1297.25 1141.02 C 1323.66 1150.3 1354.14 1217.63 1365.93 1243.27 C 1300.14 1201.11 1211.46 1179.1 1133.97 1193.02 C 1052.12 1207.73 978.637 1242.47 928.437 1311.93 C 896.079 1356.7 885 1398.38 893.436 1452.85 C 899.049 1489.1 920.924 1512.32 949.832 1532.82 C 992.521 1561.54 1042.54 1575.05 1092.21 1585.37 C 1091.22 1585.47 1090.23 1585.54 1089.23 1585.6 C 1067.07 1587.01 1002.67 1589.65 983.643 1586.09 C 952.797 1580.31 913.73 1554.3 890.208 1533.46 C 849.079 1497.04 826.37 1444.2 823.407 1389.7 C 820.672 1339.39 834.826 1291.12 859.551 1247.7 C 864.948 1238.22 870.294 1227.88 877.681 1219.78 C 889.571 1206.74 906.431 1196.7 921.596 1187.79 C 994.173 1145.13 1074.67 1127.6 1157.95 1123.43 z" fill="rgb(255,254,246)" transform="translate(0,0)"></path>
<path d="M 1125.03 1053.43 C 1154.42 1052.21 1202.68 1055.98 1229.73 1066.22 C 1246.97 1072.75 1286.34 1116.47 1297.78 1132.13 C 1176.98 1099.55 1048.4 1112.98 936.946 1169.82 C 822.233 1228.75 714.521 1379.52 781.095 1508.49 C 801.902 1542.76 827.587 1559.27 859.199 1581.39 C 840.644 1579.74 822.116 1577.8 803.621 1575.58 C 800.513 1573.14 797.467 1570.63 794.486 1568.05 C 719.97 1502.45 702.619 1365.59 731.661 1271.51 C 734.484 1262.36 766.582 1222.08 773.999 1214.05 C 859.537 1121.44 1000.12 1059.65 1125.03 1053.43 z" fill="rgb(255,254,246)" transform="translate(0,0)"></path>
<path d="M 958.217 841.426 C 985.509 839.261 1031.35 841.115 1058.61 842.128 C 1177.99 846.56 1295.28 875.161 1407.22 916.765 C 1409.92 931.71 1412.71 969.762 1410.65 984.097 C 1390.42 976.142 1372.72 966.071 1349.85 957.549 C 1258.81 923.865 1163.09 904.504 1066.12 900.157 C 899.562 891.529 765.768 915.697 609.925 974.508 C 605.348 951.776 601.771 931.973 604.698 908.813 C 626.547 899.273 657.339 891.537 680.548 885.298 C 738.214 869.219 796.947 857.249 856.306 849.479 C 889.891 845.358 924.409 843.438 958.217 841.426 z" fill="rgb(255,254,246)" transform="translate(0,0)"></path>
<path d="M 983.705 785.447 C 1007.05 784.337 1034.47 785.548 1057.91 786.635 C 1151.44 790.67 1244.19 805.447 1334.34 830.675 C 1351.71 835.596 1378.29 842.865 1394.25 850.545 C 1400.04 865.84 1403.06 888.74 1405.71 905.196 C 1325.6 871.914 1224.8 847.791 1139.29 836.694 C 1109.72 832.855 1068.43 831.309 1038.25 830.054 C 929.619 826.369 821.006 837.891 715.566 864.284 C 691.543 870.657 667.646 877.498 643.889 884.801 C 631.273 888.797 619.208 893.37 606.468 897.128 C 608.995 882.134 612.817 866.62 616.238 851.734 C 626.938 848.69 637.505 844.553 648.28 841.715 C 738.972 817.828 830.512 794.45 924.443 788.281 C 944.207 786.983 963.893 786.195 983.705 785.447 z" fill="rgb(255,254,246)" transform="translate(0,0)"></path>
<path d="M 999.853 1253.95 C 1001.54 1255.59 996.549 1261.15 995.124 1263.04 C 963.614 1304.95 959.151 1359.34 986.881 1404.55 C 1030.25 1475.24 1131.96 1488.51 1208.17 1483.66 C 1275.6 1479.63 1325.87 1466.31 1383.55 1431.29 C 1382.35 1435.22 1381.08 1439.12 1379.75 1442.99 C 1369.78 1471.49 1362.93 1484.08 1336.12 1496.87 C 1254.91 1532.51 1146.46 1535.37 1060.92 1521.3 C 996.265 1509.42 881.734 1478.25 901.604 1390.93 C 914.518 1334.17 952.238 1286.44 999.853 1253.95 z" fill="rgb(255,254,246)" transform="translate(0,0)"></path>
<path d="M 971.098 734.55 C 1060.4 729.877 1165.66 741.761 1253.65 758.146 C 1296.05 766.041 1338.95 779.51 1380.63 789.417 C 1381.78 801.297 1388.08 823.481 1391.31 835.982 C 1333.71 818.095 1264.54 799.634 1204.98 789.728 C 1148.72 780.806 1091.92 775.668 1034.97 774.349 C 893.597 771.724 752.87 794.045 619.248 840.286 C 623.788 824.28 628.125 807.16 633.667 791.6 C 660.071 785.761 689.411 775.939 716.977 769.448 C 800.28 749.219 885.426 737.526 971.098 734.55 z" fill="rgb(255,254,246)" transform="translate(0,0)"></path>
<path d="M 972.609 961.43 C 1071.38 956.6 1196.77 971.302 1291.68 997.035 C 1328.37 1006.98 1370.24 1021.86 1406.29 1034.84 C 1403.78 1051.17 1400.52 1062.56 1395.81 1078.17 C 1350.61 1057.46 1303.82 1040.74 1255.52 1028.65 C 1230.73 1022.44 1204.53 1018.46 1179.74 1012.5 C 1169.48 1010.04 1154.21 1002.16 1143.19 998.398 C 1110.83 987.366 1083.36 983.638 1049.75 981.714 C 1020.99 979.188 993.295 983.806 966.072 987.704 C 889.916 998.607 816.226 1020.82 749.126 1058.65 C 744.372 1061.33 720.412 1066.92 713.49 1068.94 C 692.006 1075.08 670.756 1082.02 649.781 1089.73 C 640.852 1071.62 630.737 1049.97 625.182 1030.55 C 655.991 1017.76 686.224 1010.77 717.958 1002.07 C 804.622 978.33 882.974 966.472 972.609 961.43 z" fill="rgb(255,254,246)" transform="translate(0,0)"></path>
<path d="M 981.355 909.48 C 1011.14 909.226 1041.59 911.062 1071.31 912.737 C 1193.08 919.603 1299 945.009 1410.5 995.462 C 1410.03 1005.12 1409.25 1014.76 1408.18 1024.38 C 1385.89 1013.91 1362.44 1006.88 1339.15 999.138 C 1240.32 966.269 1146.93 953.973 1043.41 950.445 C 909.166 945.243 769.113 971.993 641.034 1012.23 C 634.425 1014.3 627.534 1017.03 620.997 1019.44 L 611.582 985.407 C 640.68 972.797 675.048 963.54 705.333 954.292 C 799.866 925.424 882.799 912.346 981.355 909.48 z" fill="rgb(255,254,246)" transform="translate(0,0)"></path>
<path d="M 973.662 686.455 C 1078.92 684.132 1184.12 693.409 1287.35 714.117 C 1309.89 718.481 1339.48 723.567 1361.16 729.741 C 1366.93 743.295 1373.75 764.437 1377.86 778.822 C 1355.23 772.269 1331.97 764.562 1309.12 758.963 C 1224.83 738.306 1129.88 723.482 1043.16 722.909 C 932.919 719.013 822.674 730.629 715.662 757.417 C 688.631 763.97 664.255 772.219 637.92 779.145 C 641.599 765.75 652.029 743.29 657.731 730.271 C 680.189 723.611 700.703 719.425 723.632 714.635 C 805.932 697.574 889.63 688.14 973.662 686.455 z" fill="rgb(255,254,246)" transform="translate(0,0)"></path>
<path d="M 586.789 1042.96 L 588.631 1043.01 C 589.091 1043.43 612.945 1094.27 615.402 1099.13 C 598.124 1106.41 581.289 1112.7 564.243 1120.77 C 453.918 1173 337.989 1259.25 285.183 1372.81 L 279.268 1367.13 C 267.466 1355.23 256.029 1342.98 244.971 1330.39 C 310.412 1195.92 452.949 1099.77 586.789 1042.96 z" fill="rgb(255,254,246)" transform="translate(0,0)"></path>
<path d="M 563.597 924.875 L 564.953 925.165 C 565.463 926.055 570.984 977.269 572.854 985.71 C 567.368 988.156 561.411 990.441 556.032 992.665 C 429.531 1044.98 307.021 1130.14 232.287 1246.78 C 228.408 1252.84 215.463 1279.11 211.163 1281.39 L 209.174 1279.97 C 203.813 1270.83 197.184 1259.93 193.682 1250.05 C 200.561 1223.09 216.695 1196.34 232.118 1173.32 C 307.718 1060.45 438.792 973.119 563.597 924.875 z" fill="rgb(255,254,246)" transform="translate(0,0)"></path>
<path d="M 1434.98 863.235 C 1467.52 876.42 1502.76 889.387 1534.53 905.825 C 1647.15 964.1 1750.55 1037.78 1811.75 1152.07 C 1818.98 1165.57 1830.44 1190.06 1829.05 1204.9 C 1828.69 1208.78 1824.02 1222.65 1822.51 1227.25 C 1821.3 1230.85 1819.81 1233.89 1818.23 1237.33 C 1808.19 1218.38 1801.44 1201.06 1789.05 1182.43 C 1727.93 1090.55 1636.24 1025.77 1543.05 969.719 C 1512.94 951.608 1475.79 936.118 1443.72 922.536 C 1441.31 902.698 1438.4 882.925 1434.98 863.235 z" fill="rgb(255,254,246)" transform="translate(0,0)"></path>
<path d="M 1426.78 1105.45 C 1449.38 1116.18 1473.32 1127.54 1495.21 1140.03 C 1572.68 1184.24 1643.14 1242.95 1695.14 1315.83 C 1707.19 1332.73 1716.95 1351 1726.32 1369.31 C 1718.19 1376.75 1707.01 1385.57 1698.35 1392.62 C 1694.17 1396.2 1689.44 1399.57 1685.01 1402.87 C 1628.31 1288.49 1517.23 1211.61 1405.42 1156.81 C 1413.52 1139.25 1419.88 1123.51 1426.78 1105.45 z" fill="rgb(255,254,246)" transform="translate(0,0)"></path>
<path d="M 1445.05 934.801 C 1469.43 945.256 1493.47 956.469 1517.15 968.424 C 1545.15 982.626 1569.43 1000.15 1595.69 1017.16 C 1682.2 1073.2 1777.6 1153.92 1810.78 1255.51 C 1808.07 1264.06 1806.23 1268.22 1802.36 1276.38 C 1800.74 1279.49 1798.76 1282.72 1796.98 1285.77 C 1756.49 1195.56 1673.53 1122.58 1592.56 1068.66 C 1553.44 1042.61 1489.84 1014.99 1445.32 997.441 C 1445.75 975.919 1445.45 956.269 1445.05 934.801 z" fill="rgb(255,254,246)" transform="translate(0,0)"></path>
<path d="M 1440.77 1048.4 C 1455.11 1054.48 1469.31 1060.89 1483.35 1067.62 C 1581.82 1114.57 1698.18 1201.9 1753.06 1299.74 C 1757.48 1307.62 1761.6 1319.41 1764.7 1328.17 C 1757.97 1336.97 1752.56 1342.99 1744.86 1350.9 L 1733.96 1361.69 C 1720.55 1328.24 1698.12 1298.69 1674.86 1271.57 C 1604.85 1189.93 1527.23 1138.99 1430.51 1094.81 C 1434.59 1080.07 1436.9 1063.73 1440.77 1048.4 z" fill="rgb(255,254,246)" transform="translate(0,0)"></path>
<path d="M 609.5 744.13 L 610.327 744.327 C 611.131 746.994 594.308 788.448 591.94 794.574 C 577.894 798.733 563.943 803.206 550.097 807.99 C 448.723 843.299 336.96 912.836 260.838 989.154 C 230.918 1019.15 191.821 1070.52 173.534 1108.4 L 172.596 1108.45 C 173.875 1079.89 191.017 1037.91 204.862 1013.51 C 281.947 877.651 464.507 785.066 609.5 744.13 z" fill="rgb(255,254,246)" transform="translate(0,0)"></path>
<path d="M 586.924 807.215 C 588.379 810.108 576.991 848.853 575.37 856.203 C 572.875 856.801 570.392 857.448 567.923 858.143 C 472.442 885.026 347.046 968.046 276.947 1036.91 C 256.267 1057.23 236.85 1080.52 219.64 1103.83 C 207.998 1119.6 196.576 1136.52 187.58 1153.94 C 182.648 1163.49 178.96 1173.79 173.654 1183.12 L 173.246 1183.82 C 165.568 1153.04 173.24 1132.57 188.123 1105.85 C 247.171 999.839 343.903 922.925 449.521 866.721 C 496.36 841.796 536.358 822.958 586.924 807.215 z" fill="rgb(255,254,246)" transform="translate(0,0)"></path>
<path d="M 1420.9 804.292 C 1434.44 806.779 1468.52 821.119 1482.52 827.033 C 1582.99 869.505 1687.67 929.243 1761.34 1010.86 C 1790.68 1043.37 1823.01 1084 1834.3 1127.95 C 1836.02 1134.6 1834.35 1161.2 1833.96 1169.12 C 1832.07 1168.89 1826.11 1155.3 1824.96 1152.79 C 1810.86 1121.9 1792.43 1096.06 1770.95 1070.04 C 1721.79 1008.92 1661.68 967.43 1595.83 926.679 C 1539.98 892.118 1494.48 874.552 1433.23 851.857 C 1428.96 836.182 1424.97 820.052 1420.9 804.292 z" fill="rgb(255,254,246)" transform="translate(0,0)"></path>
<path d="M 617.671 1109.96 L 619.332 1109.91 C 623.1 1112.82 635.751 1139.74 638.558 1145.37 C 562.433 1175 492.477 1218.51 432.251 1273.7 C 389.62 1312.03 354.44 1351.59 327.52 1402.59 C 326.349 1404.81 326.988 1404.22 324.698 1404.8 L 321.058 1402.25 C 311.48 1394.59 302.797 1388.47 294.17 1379.65 C 331.901 1287.87 435.695 1202.91 519.868 1155.96 C 539.41 1144.98 559.42 1134.85 579.843 1125.61 C 592.182 1120.15 605.093 1115.42 617.671 1109.96 z" fill="rgb(255,254,246)" transform="translate(0,0)"></path>
<path d="M 1403.91 743.374 C 1418.24 747.003 1445.18 756.386 1459.37 761.884 C 1541.92 793.866 1634.08 837.785 1703.12 893.232 C 1750.83 931.555 1794.32 980.817 1816 1038.1 C 1820.28 1049.4 1826.76 1066.18 1827.96 1078.08 C 1818.3 1063.54 1808.52 1047.88 1797.79 1034.21 C 1750.65 974.212 1689.96 925.881 1624.92 886.58 C 1590.21 864.179 1554.33 846.09 1516.81 829.083 C 1483.63 814.044 1451.59 803.117 1417.69 790.364 C 1414.27 775.3 1407.45 759.518 1403.91 743.374 z" fill="rgb(255,254,246)" transform="translate(0,0)"></path>
<path d="M 572.841 867.153 C 573.102 870.364 568.091 903.849 567.781 913.356 C 546.107 921.427 521.342 929.786 500.722 939.896 C 394.259 992.095 296.469 1061.66 227.486 1158.74 C 217.428 1173.12 208.336 1188.16 200.272 1203.75 C 197.531 1208.93 190.258 1226.8 186.729 1229.18 L 185.223 1226.78 C 184.331 1224.51 183.452 1222.24 182.586 1219.96 C 177.33 1206.08 177.524 1201.39 183.864 1187.62 C 253.812 1035.72 420.491 922.911 572.841 867.153 z" fill="rgb(255,254,246)" transform="translate(0,0)"></path>
<path d="M 573.905 996.054 C 577.579 1000.83 583.305 1026.46 585.432 1034.08 C 484.862 1065.66 370.866 1148.49 301.389 1226.39 C 288.32 1241.04 277.088 1256.16 265.852 1272 C 260.273 1279.87 240.067 1316.75 235.521 1319.57 L 234.134 1318.5 C 229.378 1311.92 223.161 1301.78 218.907 1294.86 C 219.268 1293.95 219.638 1293.05 220.014 1292.15 C 235.755 1254.5 265.289 1216.15 292.652 1186.08 C 368.972 1102.23 469.1 1038.82 573.905 996.054 z" fill="rgb(255,254,246)" transform="translate(0,0)"></path>
<path d="M 1399.33 1168.57 C 1403.17 1170.1 1406.96 1171.74 1410.7 1173.48 C 1492.63 1211.39 1581.44 1275.32 1637.07 1346.99 C 1651.4 1365.46 1666.42 1387.37 1674.44 1409.33 C 1665.01 1417.99 1650.35 1427.21 1639.47 1434.47 C 1629.14 1441.32 1618.61 1447.87 1607.9 1454.11 C 1606.24 1431.77 1607.13 1418.42 1598.55 1396.02 C 1560.86 1297.64 1474.16 1235.4 1383.2 1191.99 C 1388.86 1184.38 1394.24 1176.57 1399.33 1168.57 z" fill="rgb(255,254,246)" transform="translate(0,0)"></path>
<path d="M 643.183 1156.06 C 665.762 1171.69 639.899 1180.67 627.918 1185.77 C 521.451 1231.09 395.559 1331.06 416.503 1460.8 C 403.246 1452.81 387.401 1444.82 373.52 1436.83 C 360.521 1429.57 347.946 1421.57 335.856 1412.88 C 378.763 1306.81 539.217 1195.49 643.183 1156.06 z" fill="rgb(255,254,246)" transform="translate(0,0)"></path>
<path d="M 846.715 1248.95 C 848.05 1250.42 845.022 1255.33 844.05 1257.32 C 835.5 1274.79 828.826 1291.29 823.624 1310.11 C 810.187 1358.05 811.796 1408.96 828.234 1455.96 C 851.547 1522.09 896.677 1557.94 957.399 1587.09 C 942.523 1586.23 927.64 1585.51 912.751 1584.93 C 902.665 1584.72 889.851 1583.26 879.108 1582.82 C 866.652 1573.98 852.913 1566.21 839.931 1557.32 C 726.344 1479.54 765.257 1341.87 846.715 1248.95 z" fill="rgb(255,254,246)" transform="translate(0,0)"></path>
<path d="M 903.113 1454.85 C 906.03 1457.38 912.531 1465.65 917.48 1470.17 C 935.213 1486.51 957.638 1500.43 980.458 1508.55 C 1093.86 1548.94 1238.7 1550.31 1348.9 1500.67 C 1341.38 1507.97 1332.23 1514.25 1323.67 1520.31 C 1290.21 1543.09 1254.6 1563.31 1214.61 1573.02 C 1132.83 1592.9 1032.19 1571.9 960.477 1529.13 C 930.81 1511.44 911.111 1488.54 903.113 1454.85 z" fill="rgb(255,254,246)" transform="translate(0,0)"></path>
<path d="M 1444.92 1008.62 C 1481.55 1022.33 1546.07 1052.98 1579.11 1073.77 C 1651.21 1119.13 1760.78 1214.88 1788.9 1297.44 C 1786.78 1300.9 1782.61 1306.11 1780.07 1309.5 L 1773.73 1318.06 C 1731.75 1219.95 1631.03 1138.27 1541.03 1084.98 C 1512.63 1068.16 1473.2 1051.3 1442.59 1037.39 C 1443.15 1027.34 1443.66 1018.66 1444.92 1008.62 z" fill="rgb(255,254,246)" transform="translate(0,0)"></path>
<path d="M 609.486 1245.06 C 609.559 1246.3 588.066 1299.35 585.371 1307.76 C 564.294 1322.43 529.243 1364.27 516.656 1386.78 C 494.871 1425.74 489.249 1456.96 500.702 1499.94 C 491.533 1496.82 484.229 1493.71 475.386 1489.9 C 470.221 1487.73 466.643 1485.79 461.78 1483.14 C 458.068 1461.5 459.73 1430.87 465.261 1409.39 C 478.147 1359.36 520.879 1310.02 560.389 1277.42 C 573.825 1266.33 594.668 1254 609.486 1245.06 z" fill="rgb(255,254,246)" transform="translate(0,0)"></path>
<path d="M 1395.9 1271.69 C 1403.07 1274.95 1415.17 1285.8 1421.48 1290.84 C 1476.93 1335.17 1529.1 1403.31 1511.99 1478.64 C 1509.26 1490.67 1508.28 1502.19 1495.05 1506.51 C 1483.58 1510.85 1474.17 1513.93 1462.43 1517.48 C 1470.25 1500.04 1474.17 1481.1 1473.91 1461.99 C 1473.66 1413.11 1445.21 1365.56 1411.43 1332.08 C 1406.96 1307.88 1402.32 1294.76 1395.9 1271.69 z" fill="rgb(255,254,246)" transform="translate(0,0)"></path>
<path d="M 1373.4 1201.61 C 1395.48 1209.55 1420.82 1224.65 1441.02 1237.04 C 1497.34 1271.6 1544.32 1316.5 1576.43 1374.75 C 1587.93 1395.6 1599.71 1431.63 1594.59 1456.54 C 1593.13 1463.6 1587.33 1465.58 1581.3 1468.46 L 1563.69 1477.02 C 1576.2 1385.02 1504.81 1302.17 1432.93 1255.02 C 1415.73 1243.74 1397.55 1231.67 1377.53 1226.29 C 1373.52 1219.55 1371.41 1215.09 1368.16 1207.9 L 1373.4 1201.61 z" fill="rgb(255,254,246)" transform="translate(0,0)"></path>
<path d="M 638.748 1195.18 C 638.636 1196.61 622.255 1223.03 619.951 1227.33 C 578.476 1244.9 531.216 1281.85 502.993 1316.59 C 463.687 1364.96 441.336 1412.04 447.805 1475.91 C 442.604 1473.68 437.42 1471.07 432.315 1468.6 C 431.065 1467.19 431.027 1467.29 430.469 1465.45 C 419.289 1428.6 427.948 1392.02 444.557 1358.76 C 474.941 1297.9 530.987 1248.67 590.721 1217.64 C 607.631 1208.85 620.381 1201.55 638.748 1195.18 z" fill="rgb(255,254,246)" transform="translate(0,0)"></path>
<path d="M 579.739 1329.77 C 581.625 1331.58 579.993 1339.94 579.779 1343.31 C 578.48 1363.85 579.894 1384.77 583.005 1405.09 C 554.315 1444.88 562.641 1487.97 582.508 1529.14 C 571.666 1526.06 563.333 1523.33 552.753 1519.53 C 545.184 1516.82 539.383 1514.34 532.028 1511.03 C 523.677 1492.84 519.322 1473.07 519.255 1453.05 C 519.064 1397.12 542.081 1367.4 579.739 1329.77 z" fill="rgb(255,254,246)" transform="translate(0,0)"></path>
<path d="M 1223.74 1033.3 C 1272.19 1044.64 1348.23 1067.39 1392.79 1090.24 C 1386.07 1111.11 1381.23 1121.97 1371.38 1141.6 C 1352.73 1133.59 1329.43 1124.71 1309.66 1120.14 C 1286.73 1095.42 1251.86 1053.69 1222.11 1036.98 L 1223.74 1033.3 z" fill="rgb(255,254,246)" transform="translate(0,0)"></path>
<path d="M 1411.1 1350.37 C 1420.83 1355.74 1443.19 1395.02 1448.19 1406.6 C 1466.98 1450.09 1463.7 1480.39 1448.01 1522.58 L 1422.2 1531.09 C 1413.44 1533.96 1404.76 1536.28 1395.88 1538.71 C 1405.99 1522.08 1415.94 1505.35 1419 1486.03 C 1423.47 1457.77 1420.26 1435.93 1403.79 1412.6 C 1408.07 1387.35 1411.05 1376.35 1411.1 1350.37 z" fill="rgb(255,254,246)" transform="translate(0,0)"></path>
<path d="M 1377.73 736.435 C 1383.75 736.755 1385.82 737.076 1391.67 738.272 C 1395.24 758.103 1404.25 785.193 1409.66 805.649 C 1426.75 870.27 1435.67 928.491 1434.14 995.506 C 1432.69 1058.65 1411.06 1148.16 1364.65 1192.76 C 1362.66 1194.1 1363.35 1193.7 1360.97 1194.37 L 1359.4 1193.25 C 1356.36 1183.78 1368.27 1170.46 1373.22 1162.12 C 1393.41 1128.11 1404.61 1096.33 1413.37 1058.7 C 1435.83 962.224 1416.04 880.279 1391.74 787.321 C 1389.08 777.169 1377.22 743.61 1377.73 736.435 z" fill="rgb(255,254,246)" transform="translate(0,0)"></path>
<path d="M 713.446 1311.82 C 713.388 1319.89 711.679 1329.78 710.935 1338.02 C 704.347 1411 720.718 1489.98 764.173 1549.85 C 767.432 1554.34 780.069 1566.72 780.941 1570.53 C 776.87 1571.36 772.368 1567.37 769.371 1565 C 740.722 1543.62 707.047 1514.56 694.363 1480.07 C 679.349 1439.25 689.86 1387.38 701.849 1346.88 C 704.925 1336.49 709.078 1321.42 713.446 1311.82 z" fill="rgb(255,254,246)" transform="translate(0,0)"></path>
<path d="M 639.91 734.016 C 640.93 734.751 640.405 734.212 641.072 735.951 C 638.797 742.462 635.347 748.198 632.909 754.468 C 600.72 837.251 575.772 923.994 605.767 1011.63 C 610.123 1024.36 613.041 1037.48 618.373 1049.8 C 627.602 1071.12 636.421 1092.39 646.142 1113.47 C 650.136 1122.23 657.029 1130.84 660.242 1139.23 C 658.123 1141.29 654.059 1141.88 650.995 1142.64 C 623.198 1089.18 593.335 1031.77 582.373 972.289 C 571.016 910.664 585.216 851.711 605.885 793.968 C 612.74 774.817 618.033 755.04 629.701 737.953 L 639.91 734.016 z" fill="rgb(255,254,246)" transform="translate(0,0)"></path>
<path d="M 1382.36 1240.32 C 1388.85 1242.27 1399.45 1249.35 1405.57 1253.1 C 1476.99 1296.87 1550.21 1364.95 1552.08 1454.57 C 1552.28 1464.01 1551.28 1473.82 1550.36 1483.31 C 1546.83 1485.05 1541.97 1486.92 1538.24 1488.48 L 1520.97 1495.29 C 1529.53 1460.59 1532.08 1433.46 1519.66 1399.06 C 1498.45 1340.3 1445.51 1284.13 1390.22 1256.36 C 1388.01 1250.77 1385.16 1245.64 1382.36 1240.32 z" fill="rgb(255,254,246)" transform="translate(0,0)"></path>
<path d="M 1399.4 1430.43 C 1404.07 1433.37 1405.61 1439.31 1406.71 1444.51 C 1415.17 1484.43 1399.13 1511.26 1379.19 1543.14 C 1359.3 1549.26 1343.29 1552.58 1322.81 1556.76 L 1312.94 1558.3 C 1359.77 1526.89 1383.78 1483.03 1399.4 1430.43 z" fill="rgb(255,254,246)" transform="translate(0,0)"></path>
<path d="M 584.225 1421.58 C 586.066 1425.56 587.766 1435.63 589.045 1440.51 C 601.208 1486.88 630.724 1513.68 660.156 1548.06 L 659.496 1548.84 L 655.791 1548.04 C 636.755 1543.64 617.848 1538.71 599.092 1533.25 C 577.161 1498.97 568.792 1460.71 584.225 1421.58 z" fill="rgb(255,254,246)" transform="translate(0,0)"></path>
<path d="M 723.6 1078.12 L 724.492 1078.3 C 724.247 1081.03 715.241 1086.89 712.495 1088.95 C 696.927 1100.63 687.593 1118.57 675.19 1133.81 C 672.078 1130.66 670.172 1127.73 667.621 1124.14 C 662.741 1116.64 658.321 1108.06 654.532 1099.96 C 669.679 1093.53 707.322 1082.33 723.6 1078.12 z" fill="rgb(255,254,246)" transform="translate(0,0)"></path>
<path d="M 1322.53 1136.6 C 1336.91 1139.59 1352.34 1146.15 1366.01 1151.75 C 1363.34 1156.42 1359.6 1161.91 1356.61 1166.52 C 1354.54 1169.59 1351.66 1172.98 1349.31 1175.91 C 1340.91 1164.09 1329.54 1148.84 1322.53 1136.6 z" fill="rgb(255,254,246)" transform="translate(0,0)"></path>
<path d="M 1328.12 1528.09 L 1328.6 1528.62 L 1328.23 1530.12 C 1303.76 1551.18 1295.07 1561.6 1263.47 1568.08 L 1262.88 1567.71 C 1264.53 1565.56 1277.85 1558.86 1281.5 1556.87 C 1298.04 1547.86 1312.65 1538.74 1328.12 1528.09 z" fill="url(#Gradient1)" transform="translate(0,0)"></path>
<path d="M 509.027 1431.02 C 508.805 1448.44 508.547 1465.11 511.328 1482.42 C 512.541 1489.97 514.642 1495.29 516.025 1502.49 L 514.78 1503.93 C 503.012 1487.16 502.791 1449.9 509.027 1431.02 z" fill="rgb(255,254,246)" transform="translate(0,0)"></path>
<path d="M 1209.07 1030.21 L 1223.74 1033.3 L 1222.11 1036.98 L 1209.07 1030.21 z" fill="rgb(255,254,246)" transform="translate(0,0)"></path>
<path d="M 240.599 1512.65 C 251.44 1517.74 270.52 1535.36 281.212 1542.89 C 396.611 1624.11 528.076 1677.51 665.298 1708.6 C 687.728 1713.69 710.841 1719.28 733.834 1723.14 C 779.904 1731.29 826.256 1737.76 872.798 1742.55 C 1050.99 1760.01 1234.66 1747.76 1406.97 1697.56 C 1432.57 1690.1 1456.6 1683.5 1481.53 1673.81 C 1556.21 1644.54 1627.77 1607.86 1695.14 1564.31 C 1715.75 1550.81 1739.52 1533.01 1759.84 1518.55 C 1751.68 1536.57 1742.88 1552.08 1733.32 1569.43 C 1731 1573.63 1722.69 1590.83 1720.28 1592.55 C 1669.71 1628.67 1611.49 1667.2 1556.55 1694.92 C 1432.98 1757.28 1297.27 1796.35 1160.24 1813.77 C 1124.23 1818.35 1089.98 1822.78 1053.68 1824.84 C 910.975 1832.8 767.997 1815.1 631.539 1772.59 C 524.478 1738.34 435.056 1694.65 341.13 1632.88 C 335.393 1629.11 290.781 1599.51 288.229 1595.97 C 273.614 1575.69 252.319 1535.38 240.599 1512.65 z" fill="rgb(255,254,246)" transform="translate(0,0)"></path>
<path d="M 176.06 1329.9 C 182.528 1336.12 198.431 1360.23 206.506 1369.21 C 232.791 1398.45 261.053 1423.67 292.265 1447.42 C 460.79 1575.66 706.263 1633.52 915.322 1644.31 C 1024.86 1649.74 1134.67 1644.62 1243.23 1629.04 C 1455.22 1599.87 1697.66 1510.09 1830.99 1334.46 C 1827.48 1345.31 1824.23 1356.23 1821.23 1367.23 C 1817.6 1378.67 1806.03 1413.31 1801.15 1422.8 C 1791 1429.16 1775.19 1443.83 1765.62 1452.09 C 1750.26 1465.52 1734.34 1478.31 1717.92 1490.43 C 1631.21 1554.06 1533.68 1601.42 1430.06 1630.21 C 1354.87 1651.17 1278.24 1666.57 1200.79 1676.26 C 869.055 1716.33 442.301 1660.18 199.756 1407.39 C 198.392 1405.97 178.003 1337.15 176.06 1329.9 z" fill="rgb(255,254,246)" transform="translate(0,0)"></path>
<path d="M 207.912 1433.5 C 215.463 1437.14 247.822 1469.46 257.701 1477.26 C 420.673 1605.94 625.087 1667.47 829.501 1689.47 C 1026.08 1710.52 1224.86 1695.52 1416.05 1645.19 C 1533.08 1613.38 1637.21 1566.53 1733.97 1492.37 C 1754.02 1477 1772.94 1461.03 1792.54 1445.23 C 1788.49 1455.22 1784.32 1465.15 1780.02 1475.04 C 1778.8 1477.84 1774.23 1489.7 1773.1 1491.21 C 1761.19 1506.19 1741.51 1517.72 1726.1 1528.96 C 1573.17 1640.45 1393 1706.4 1204.93 1728.66 C 952.622 1758.52 654.532 1725.51 423.758 1613.95 C 375.611 1590.33 329.398 1562.95 285.547 1532.08 C 269.611 1520.89 246.485 1499.19 230.691 1490.87 C 223.021 1474.48 213.423 1450.64 207.912 1433.5 z" fill="rgb(255,254,246)" transform="translate(0,0)"></path>
<path d="M 1645.46 1700.91 L 1646.62 1701.62 C 1644.27 1707.87 1599.36 1755.85 1592.58 1762.77 C 1555.55 1800.57 1502.08 1823.13 1453.68 1842.78 C 1301.98 1904.9 1139.05 1934.91 975.174 1930.92 C 791.507 1927.59 604.146 1879.17 446.895 1783.12 C 429.127 1772.27 405.69 1748.11 391.443 1733.35 C 382.508 1724.28 373.11 1715.26 365.281 1705.27 C 394.429 1721.94 420.375 1737.79 450.902 1753.24 C 528.086 1791.43 609.037 1821.47 692.446 1842.88 C 964.08 1914.3 1252.01 1890.25 1508.02 1774.74 C 1550.69 1755.43 1604.64 1724.98 1645.46 1700.91 z" fill="rgb(255,254,246)" transform="translate(0,0)"></path>
<path d="M 1704.96 1617.99 L 1704.99 1619.42 C 1701.81 1626.09 1676.03 1664.63 1671.31 1670.09 C 1667.91 1673.97 1664.04 1677.4 1659.79 1680.31 C 1640.96 1693.41 1594.09 1717.46 1573.29 1728.79 C 1334.28 1857.73 1058.52 1901.53 791.319 1852.99 C 654.597 1829.07 522.88 1782.3 401.696 1714.63 C 385.047 1705.22 360.817 1691.83 345.804 1680.6 C 340.079 1676.32 323.493 1651.78 318.206 1644.27 C 312.323 1635.75 307.957 1629.09 302.654 1620.09 C 309.203 1625.54 318.303 1630.92 325.485 1635.92 C 711.023 1904.28 1254.68 1897.22 1650.15 1654.21 C 1668.77 1642.77 1685.78 1629.3 1704.96 1617.99 z" fill="rgb(255,254,246)" transform="translate(0,0)"></path>
<path d="M 910.412 99.1533 C 927.962 97.6341 953.1 106.503 970.315 111.392 C 997.334 119.047 1024.29 126.911 1051.19 134.985 C 1157.64 166.738 1263.73 199.648 1369.46 233.71 C 1389.89 240.225 1409.97 247.903 1430.57 254.426 L 1567.52 296.935 C 1590.56 304.229 1619.96 309.432 1638.66 325.305 C 1669.67 351.621 1673.97 387.235 1678.2 425.277 L 1679.77 425.733 C 1685.81 427.503 1692.26 429.687 1698.34 431.88 C 1760.81 454.409 1826.9 473.809 1886.52 502.957 C 1901.49 511.649 1926.16 527.422 1933.16 544.292 C 1956.33 600.071 1898.28 617.74 1857.18 612.39 C 1809.37 606.168 1768.78 592.672 1725.04 578.21 C 1696.22 568.955 1667.54 559.278 1639 549.181 C 1625.19 568.319 1612.97 578.914 1593.82 593.12 C 1577.64 604.321 1559.48 613.121 1539.55 612.01 C 1511.08 610.422 1477.85 595.439 1450.64 586.223 L 1289.42 531.478 L 944.592 415.812 C 909.26 403.745 873.742 392.194 838.409 380.034 C 832.021 377.081 813.896 371.889 809.307 367.223 C 793.806 351.463 786.021 314.514 784.536 294.895 L 708.996 268.45 C 682.312 259.142 656.778 250.479 630.444 238.635 C 597.101 223.639 556.756 192.036 569.3 150.056 C 580.15 113.748 638.296 115.988 667.55 120.045 C 690.504 123.229 715.18 132.328 737.72 138.585 C 766.298 146.876 795.202 155.063 823.588 163.987 C 846.937 132.485 871.452 108.107 910.412 99.1533 z" fill="rgb(115,69,37)" transform="translate(0,0)"></path>
<path d="M 916.495 113.194 C 927.69 112.89 1003.18 136.712 1021.18 142.108 C 1132.98 175.617 1244.47 210.181 1355.62 245.796 C 1368.14 249.789 1381.13 253.669 1393.45 258.155 C 1439.25 274.829 1486.58 286.249 1532.88 301.351 C 1546.45 305.775 1560.31 309.515 1573.56 314.84 C 1486.25 344.12 1441.32 462.49 1468.45 547.372 C 1472.86 561.164 1482.95 572.148 1486.62 583.084 L 1485.55 583.383 C 1467.89 577.625 1450.16 570.542 1432.46 564.588 C 1379.21 547.254 1326.08 529.547 1273.08 511.467 L 953.736 403.917 C 925.732 394.132 897.61 384.687 869.377 375.585 C 823.616 360.762 814.717 366.908 802.117 315.936 C 783.695 241.42 839.617 129.321 916.495 113.194 z" fill="rgb(255,254,246)" transform="translate(0,0)"></path>
<path d="M 809.112 332.911 C 813.384 332.541 815.485 333.206 819.617 334.503 C 976.024 384.837 1131.96 436.622 1287.4 489.854 L 1377.81 520.289 C 1387.27 523.439 1416 531.873 1423.48 536.28 C 1425.56 539.433 1424.99 538.179 1424.43 542.875 C 1416.83 545.587 1387.89 533.844 1379.14 530.863 C 1357.38 523.476 1335.57 516.229 1313.72 509.122 L 998.772 404.866 L 885.148 366.94 C 869.487 361.687 813.719 346.48 809.112 332.911 z" fill="rgb(115,69,37)" transform="translate(0,0)"></path>
<path d="M 809.247 300.588 C 821.437 301.827 1048.5 378.639 1054.98 383.579 C 1056.58 386.707 1056.07 387.679 1055.46 391.148 C 1047.35 391.313 1015.5 379.417 1005.68 376.15 L 896.059 338.903 L 840.624 320.224 C 833.272 317.743 816.402 312.454 810.178 309.061 C 808.371 306.241 808.995 304.023 809.247 300.588 z" fill="rgb(115,69,37)" transform="translate(0,0)"></path>
<path d="M 828.393 286.481 C 834.201 286.773 973.582 333.473 977.978 336.514 C 979.991 340.288 979.292 339.662 979.22 344.564 C 965.8 346.862 867.147 306.786 846.098 302.005 C 836.631 299.855 828.952 296.99 828.393 286.481 z" fill="rgb(115,69,37)" transform="translate(0,0)"></path>
<path d="M 1598.06 419.232 C 1617.32 417.657 1629 423.852 1646.9 429.965 L 1699.93 448.166 C 1732.02 458.948 1763.89 470.378 1795.52 482.45 C 1810.53 488.006 1834.83 496.28 1848.35 503.394 C 1827.56 521.318 1814.2 543.735 1819.62 572.424 C 1820.54 577.302 1825.23 586.53 1825.41 589.127 C 1822.76 590.435 1822.46 589.675 1818.79 588.94 C 1785.81 581.385 1755.02 570.791 1723.04 560.098 L 1649.53 535.833 C 1631.23 529.672 1591.85 518.912 1577.38 509.619 C 1542.84 487.449 1555.29 427.483 1598.06 419.232 z" fill="rgb(255,254,246)" transform="translate(0,0)"></path>
<path d="M 670.44 136.96 C 678.21 136.733 718.86 149.163 728.864 151.978 C 757.735 160.126 786.656 168.095 815.626 175.883 C 792.909 215.569 788.112 234.279 782.892 278.535 L 773.317 275.067 C 731.451 259.644 688.65 246.534 647.038 230.425 C 637.927 226.898 631.892 215.281 628.886 206.513 C 624.257 193.008 623.609 179.382 630.677 166.57 C 639.993 148.987 652.863 142.576 670.44 136.96 z" fill="rgb(255,254,246)" transform="translate(0,0)"></path>
<path d="M 1596.61 323.39 C 1623.13 322.95 1643.81 344.993 1652.6 368.172 C 1659.42 386.158 1661.31 400.662 1660.93 419.728 L 1639.97 412.822 C 1639.37 411.07 1638.74 409.327 1638.09 407.592 C 1627.08 378.512 1601.38 353.319 1567.82 367.364 C 1540.45 378.813 1525.14 402.888 1513.78 429.219 C 1496.99 468.114 1489.53 538.33 1537.37 558.961 C 1550.21 564.439 1564.97 561.091 1577.52 555.387 C 1588.36 549.61 1593.66 545.655 1601.38 536.378 C 1609.28 538.852 1615.77 541.038 1623.48 544.019 C 1611.64 563.038 1582.64 584.454 1561.78 592.432 C 1508.83 612.688 1482.35 557.126 1477.45 514.383 C 1471.99 463.005 1486.94 411.537 1519.08 371.087 C 1539.56 345.75 1563.54 326.953 1596.61 323.39 z" fill="rgb(255,254,246)" transform="translate(0,0)"></path>
<path d="M 1581.79 374.18 C 1605.24 372.557 1616.91 387.904 1624.85 407.737 C 1609.4 404.851 1599.69 403.244 1584.49 409.453 C 1552.89 422.352 1535.16 463.702 1549.56 495.023 C 1556.22 509.5 1569.1 523.018 1584.2 528.778 L 1590.05 531.02 L 1590.23 532.393 C 1563.5 558.34 1527.53 556.108 1517.12 517.996 C 1503.02 466.446 1527.55 391.27 1581.79 374.18 z" fill="rgb(255,254,246)" transform="translate(0,0)"></path>
<path d="M 1862.53 509.095 C 1894.69 511.552 1963.34 579.183 1888.79 596.808 C 1868.5 598.731 1857.65 597.457 1837.77 593.037 C 1836.54 589.826 1835.38 586.582 1834.32 583.308 C 1825.67 556.007 1831.43 518.69 1862.53 509.095 z" fill="rgb(255,254,246)" transform="translate(0,0)"></path>
<path d="M 622.162 133.354 C 630.387 132.237 644.083 132.741 652.609 133.049 C 615.033 152.707 608.594 176.964 620.913 215.528 L 619.927 217.165 C 617.507 215.719 615.137 214.192 612.822 212.585 C 574.64 185.891 561.9 141.823 622.162 133.354 z" fill="rgb(255,254,246)" transform="translate(0,0)"></path>
<path d="M 514.667 266.707 C 515.716 272.036 514.023 292.553 513.683 298.861 C 513.079 311.149 512.711 323.447 512.577 335.748 C 511.907 397.415 522.52 426.61 540.438 483.122 C 537.387 480.032 534.946 476.88 532.219 473.516 C 495.392 423.703 479.907 320.408 514.667 266.707 z" fill="rgb(115,69,37)" transform="translate(0,0)"></path>
<path d="M 542.38 333.627 C 545.196 336.109 549.2 364.601 549.888 369.723 C 554.459 403.777 564.116 435.427 577.084 467.144 C 580.232 474.844 585.589 486.429 587.727 494.094 L 586.808 494.128 C 547.48 461.194 526.936 381.83 542.38 333.627 z" fill="rgb(115,69,37)" transform="translate(0,0)"></path>
<metadata><recraft-signature>{"signed_by": "recraft", "signature_b64": "RGC0CPqcyCvI9ztfqYCM5Kqm0mgQH2WX0/38xb01qUDKBFSgRQVn4nfoHcC7mHBfH2tW5/enNM3oqy92SCAWAQ==", "signing_algo": "Ed25519", "generation_timestamp": 1778091850, "identifier": "fa62d3fc-e344-4078-894d-e8204f165981"}</recraft-signature></metadata></svg>