<svg xmlns="http://www.w3.org/2000/svg" height="1024" preserveAspectRatio="none" style="display: block;" version="1.1" viewBox="0 0 2048 2048" width="1024">
<defs>
	<linearGradient gradientUnits="userSpaceOnUse" id="Gradient1" x1="1868.22" x2="1998.2" y1="756.519" y2="771.321">
		<stop class="stop0" offset="0" stop-color="rgb(128,42,34)" stop-opacity="1"></stop>
		<stop class="stop1" offset="1" stop-color="rgb(139,69,67)" stop-opacity="1"></stop>
	</linearGradient>
</defs>
<path d="M 0 0 L 1347.06 0 L 1359.74 0 L 2048 0 L 2048 2048 L 0 2048 L 0 0 z" fill="rgb(250,247,233)" transform="translate(0,0)"></path>
<path d="M 1347.06 0 L 1359.74 0 C 1326.39 17.0075 1277.91 36.4801 1242.5 51.5825 L 1055.15 132.242 L 995.805 158.147 C 984.918 162.912 965.49 170.876 956.188 177.065 C 1050.12 208.859 1146.45 237.818 1240.91 268.348 L 1889.54 479.479 C 1905.39 484.688 2015.95 518.326 2021.04 523.429 L 2021.13 524.837 C 2016.99 525.768 2011.28 523.981 2007.18 522.723 C 1822.86 464.358 1639 404.521 1455.64 343.22 L 1142.06 242.578 C 1079.46 222.575 1012.92 202.081 951.058 180.811 C 950.507 191.855 949.274 206.019 951.237 216.647 C 971.234 226.89 1010.97 237.91 1033.66 245.214 C 1084.72 262.143 1135.96 278.531 1187.36 294.377 L 1703.27 462.546 C 1731.77 471.872 2013.06 562.277 2020.12 568.865 L 2019.71 570.85 C 2016.76 572.24 2015.9 571.812 2012.34 570.565 C 1915.01 536.473 1816.48 505.529 1718.7 473.097 L 973.647 230.74 C 970.816 373.723 975.384 519.347 971.764 662.251 C 982.64 665.551 994.308 669.301 1005.21 672.285 C 1006.89 580.436 1005 487.395 1005.96 395.5 C 1006.34 359.4 1004.71 319.523 1005.93 283.856 C 1034.98 291.682 1064.84 301.922 1093.63 311.198 L 1207.48 347.78 C 1249.65 361.583 1303.25 376.634 1343.55 391.861 C 1344.93 437.038 1343.75 486.554 1343.64 532.002 L 1343.6 777.354 C 1355.39 781.456 1367.33 785.072 1379.42 788.192 C 1380.36 738.215 1379.4 689.429 1379.1 639.574 L 1379.25 508.379 C 1379.31 476.884 1377.92 434.131 1379.7 403.662 C 1392.62 407.112 1406.33 412.053 1419.17 416.264 L 1501.83 443.621 L 1752.17 525.677 L 1818.49 547.678 C 1828.65 551.076 1842.11 556.276 1851.94 558.956 L 1852.91 779.656 C 1852.81 829.286 1851.2 884.958 1852.89 934.24 C 1864.22 937.954 1875.63 941.433 1887.11 944.674 C 1887.15 929.327 1887.01 913.588 1887.32 898.276 C 1888.83 900.191 1888.45 936.815 1889.2 943.586 C 1890.22 933.805 1890.33 868.485 1891.7 866.287 C 1893 887.684 1891.78 923.72 1891.76 946.251 L 1973.87 971.586 C 1983 974.386 2017.54 982.922 2021.67 989.159 L 2020.33 989.9 C 2009.56 989.525 1991.95 982.739 1980.71 979.288 L 1901.26 954.317 L 1689 887.917 L 1478.75 823.283 C 1434.82 810.178 1389.58 797.636 1346 783.975 C 1223.6 745.093 1100.98 706.916 978.137 669.446 C 934.277 655.855 887.158 639.77 843.619 626.925 C 868.308 673.437 894.809 718.964 923.06 763.402 C 938.211 787.747 955.257 816.51 972.227 839.317 C 989.274 862.228 1008.52 886.896 1026.2 909.329 C 1037.65 923.814 1050.19 937.41 1063.69 949.998 C 1095.07 979.183 1121.82 996.268 1140.05 1035.34 C 1159.45 1037.71 1215.91 1053.57 1232.62 1063.78 C 1271.76 1087.71 1287.69 1084.86 1332.36 1095.28 C 1381.12 1106.7 1428.77 1122.45 1474.72 1142.35 C 1608.52 1201.83 1714.9 1311.72 1647.3 1466.44 C 1633.75 1497.44 1614.79 1519.27 1591.54 1543.16 C 1532.04 1604.28 1455.67 1643.48 1376.44 1672.7 C 1199.37 1734.23 1001.23 1742.87 819.266 1694.06 C 658.644 1650.96 430.578 1518.96 483.341 1318.01 C 486.386 1306.41 493.081 1292.85 498.284 1281.79 C 443.786 1252.82 384.854 1225.62 329.322 1198.1 C 311.214 1189.27 293.186 1180.28 275.24 1171.13 C 257.22 1161.81 237.324 1150.86 218.748 1142.99 C 210.124 1147.36 195.544 1156.81 185.627 1156.61 C 182.8 1156.55 114.347 1123.46 107.467 1119.65 C 102.55 1116.93 97.0388 1113.79 93.3393 1109.52 C 93.31 1099.7 100.219 1100.94 108.503 1099.42 C 94.2646 1091.58 80.6765 1082.79 66.8909 1074.19 C 61.3595 1070.74 54.7971 1067.7 49.896 1063.99 C 48.9418 1060.82 48.8743 1062.36 50.2064 1059.24 C 56.0064 1056.64 69.8543 1067.23 75.4085 1070.49 C 89.3981 1078.69 103.152 1088.98 118.5 1094.53 L 119.904 1095.03 C 131.84 1090.17 143.259 1084.13 153.99 1076.99 C 196.018 1049.47 244.305 1000.17 255.137 950.121 C 261.146 922.363 263.956 895.096 269.892 866.967 C 203.934 805.209 157.429 737.989 117.387 657.508 C 97.9299 622.759 77.3796 569.649 71.2855 531.189 C 68.072 510.909 56.1344 375.104 63.822 360.219 L 65.3 360.058 C 69.0495 364.181 70.4836 457.584 72.429 471.245 C 75.7898 494.845 75.5424 526.042 82.4729 550.144 C 103.153 622.059 145.452 704.661 189.797 764.131 C 184.523 685.236 197.491 585.443 218.984 509.289 C 207.194 516.917 194.097 525.411 181.196 531.294 C 177.86 532.816 174.881 532.534 171.569 530.989 L 171.503 529.245 C 175.058 525.583 189.205 521.351 195.367 516.961 C 258.192 472.206 307.652 413.771 311.112 333.556 C 313.779 271.726 300.554 210.147 303.3 149.398 C 304.645 116.229 310.61 83.409 321.022 51.8874 C 322.728 46.6307 325.475 37.0876 329.432 33.4513 L 330.933 33.8013 C 332.286 40.1512 326.264 54.9059 324.341 62.8287 C 316.623 97.7525 306.947 149.595 312.292 185.067 C 315.482 206.233 355.778 262.211 367.232 283.166 C 374.687 296.805 388.81 312.456 396.719 326.514 C 412.178 353.988 420.637 383.224 436.955 410.208 C 452.233 381.906 465.904 361.068 492.569 341.846 C 551.512 299.357 632.529 275.357 704.43 285.427 C 688.799 258.951 664.509 229.533 643.854 206.952 C 624.733 186.05 606.418 168.656 589.695 145.225 C 570.449 118.259 557.939 87.0767 553.213 54.2862 C 552.476 49.4388 549.54 36.6723 554.022 34.1655 C 559.007 35.8775 558.238 44.3091 559.102 49.4681 C 564.878 83.2935 579.14 124.507 602.336 150.755 C 642.66 196.382 681.172 233.458 713.417 286.064 C 720.657 287.693 724.689 288.498 731.571 291.286 C 741.812 309.042 756.935 351.418 765.937 372.537 C 756.766 383.681 741.221 397.533 729.792 406.431 C 753.209 459.618 782.74 513.433 809.204 565.269 C 818.61 583.691 829.851 601.445 839.488 619.751 C 881.898 635.063 924.193 646.973 967.143 660.63 C 969.25 605.774 967.886 544.359 968.01 488.995 L 968.615 228.874 C 961.338 226.564 943.85 222.634 944.354 211.9 C 944.939 199.426 945.779 187.766 945.755 175.179 L 1231.31 50.7769 C 1267.44 34.8262 1312.48 17.3294 1347.06 0 z" fill="rgb(134,59,53)" transform="translate(0,0)"></path>
<path d="M 1284.21 1093.98 C 1299.23 1094.87 1325.41 1101.66 1341.19 1105.66 C 1463.18 1136.58 1630.11 1202.7 1656.9 1342.2 C 1665.47 1386.78 1651.64 1433.84 1624.83 1469.12 C 1592.02 1512.31 1548.63 1545.26 1501.28 1571.17 C 1412.91 1622.66 1313.82 1652.6 1212.82 1667.56 C 1043.46 1692.63 858.272 1676.47 701.195 1605.13 C 660.572 1586.68 633.963 1572.56 598.204 1546.11 C 513.732 1484.14 447.181 1389.07 503.35 1284.26 C 548.551 1306.32 595.117 1330.64 640.593 1351.03 C 658.61 1385.32 684.938 1414.65 717.877 1437.48 C 789.344 1487.01 887.163 1528.94 973.484 1541.39 C 992.678 1544.16 1012.62 1541.48 1031.3 1540.97 C 1068.75 1539.96 1104.19 1537.56 1141.25 1531.71 C 1174.33 1526.37 1206.95 1518.57 1238.87 1508.38 C 1289.42 1491.7 1369.96 1453.66 1401.43 1410.05 C 1425.32 1376.93 1423.17 1335.42 1416.42 1297.09 C 1400.98 1209.36 1355.92 1144.97 1284.21 1093.98 z" fill="rgb(250,247,233)" transform="translate(0,0)"></path>
<path d="M 708.25 1478.79 C 720.018 1479.34 823.296 1542.32 846.565 1546.62 C 851.221 1547.47 870.685 1555.84 873.494 1560.29 C 857.658 1564.09 714.817 1491.38 708.25 1478.79 z" fill="rgb(134,59,53)" transform="translate(0,0)"></path>
<path d="M 1478.47 1352.24 L 1480.91 1353.5 C 1484.55 1358.86 1484.33 1370.47 1483.99 1376.86 C 1481.8 1418.44 1449.44 1457.1 1420.59 1483.98 L 1418.93 1483.71 C 1417.25 1479.62 1429.54 1468.86 1433.69 1464.28 C 1454.83 1440.97 1474.32 1412.37 1477.93 1380.34 C 1478.95 1371.31 1477.94 1362.18 1478.42 1353.09 L 1478.47 1352.24 z" fill="rgb(134,59,53)" transform="translate(0,0)"></path>
<path d="M 765.087 1555.02 C 774.41 1555.67 824.046 1577.72 838.347 1581.41 C 848.384 1584.01 872.203 1592.45 883.484 1595.71 C 884.645 1596.05 884.615 1597.32 885.066 1598.87 C 865.777 1600.28 786.816 1569.89 767.596 1559.11 C 764.921 1557.61 765.524 1557.53 765.087 1555.02 z" fill="rgb(134,59,53)" transform="translate(0,0)"></path>
<path d="M 1379.84 1490.67 C 1380.3 1490.95 1381.41 1492.1 1381.85 1492.53 L 1381.35 1494.26 C 1363.67 1513.79 1302.59 1543.88 1277.24 1552.32 L 1275.59 1551.46 L 1275.45 1549.71 C 1278.01 1547.02 1287.6 1543.34 1291.44 1541.73 C 1323.53 1528.25 1351.84 1511.17 1379.84 1490.67 z" fill="rgb(134,59,53)" transform="translate(0,0)"></path>
<path d="M 1207.2 1575.31 C 1208.63 1575.09 1209.31 1575.3 1210.79 1575.46 L 1210.72 1576.72 L 1211.44 1576.49 C 1202.72 1587.26 1118.56 1593.23 1102.76 1594.05 C 1100.23 1593.81 1101.05 1594.03 1098.83 1593.03 L 1098.94 1591.38 C 1104.92 1588.44 1124.74 1587.81 1132.62 1587.1 C 1157.89 1584.83 1182.32 1579.96 1207.2 1575.31 z" fill="rgb(134,59,53)" transform="translate(0,0)"></path>
<path d="M 614.681 621.276 C 617.586 620.682 617.452 620.681 620.393 621.021 C 626.913 626.147 656.293 667.289 663.703 676.577 C 679.174 695.968 695.722 717.51 711.343 737.066 C 727.326 756.837 743.514 776.442 759.904 795.877 C 772.212 810.424 789.935 829.522 799.032 845.48 C 807.905 861.042 805.096 891.339 809.623 910.115 C 815.86 935.985 829.721 957.929 835.469 983.145 C 839.746 1001.91 840.827 1024.33 843.484 1043.63 C 844.916 1055.45 848.326 1072.93 858.386 1080.49 C 869.544 1088.88 890.459 1082.42 897.251 1070.88 C 914.107 1042.27 898.067 1006.46 892.36 976.781 C 921.585 987.689 916.418 1014.22 924.385 1039.98 C 927.821 1051.09 929.082 1053.09 935.304 1062.67 C 922.545 1067.71 894.233 1083.68 884.029 1085.62 C 844.133 1093.18 804.012 1102.5 765.183 1114.61 C 717.572 1129.57 671.486 1149 627.544 1172.66 C 622.298 1175.74 616.407 1179.98 611.313 1183.47 C 579.819 1159.15 546.213 1135.88 514.127 1111.67 C 456.635 1068.29 398.484 1022 340.504 979.582 C 345.049 953.404 346.877 931.66 348.056 905.33 C 344.441 901.963 340.231 898.472 336.254 895.579 C 316.643 881.315 301.295 863.231 284.784 845.752 C 282.383 843.211 281.306 843.198 277.918 843.197 C 273.366 846.236 272.391 855.692 271.168 861.422 C 257.206 842.049 235.616 823.477 219.726 804.478 C 232.194 797.316 251.013 789.148 264.328 782.647 C 287.641 771.124 310.766 759.223 333.692 746.947 C 343.205 741.821 352.666 736.456 362.255 731.431 C 422.006 700.118 476.857 660.529 541.52 639.22 C 565.977 631.16 589.546 625.936 614.681 621.276 z" fill="rgb(250,247,233)" transform="translate(0,0)"></path>
<path d="M 765.501 1224.95 C 820.648 1131.37 894.351 1075.63 998.72 1048.36 C 1166.63 1004.49 1362.72 1103.03 1403.85 1276.8 C 1412.15 1311.87 1420.29 1363.67 1400.46 1397.31 C 1363.15 1455.36 1261.29 1494.99 1197.8 1510.76 C 1159.14 1520.29 1119.79 1526.73 1080.12 1530.01 C 1066.95 1530.98 1054.58 1530.6 1042.02 1531.32 C 1042.49 1528.23 1045.98 1524.19 1047.96 1521.47 C 1055.05 1514 1084.06 1530.81 1094.01 1492.64 C 1105.33 1493 1160.54 1491.19 1138.45 1460.61 C 1132.17 1451.92 1084.61 1445.8 1073.01 1441.12 C 1064.89 1438.49 1057.87 1435.94 1051.07 1434.63 C 1070.21 1435.29 1124.05 1456.11 1138.84 1439.59 C 1167.39 1407.72 1103.48 1397.38 1084.57 1392.09 C 1016.64 1373.08 917.689 1339.82 877.626 1276.81 C 902.277 1277.31 964.019 1279.39 983.007 1261.36 C 987.892 1256.79 990.66 1250.41 990.65 1243.72 C 990.572 1229.46 979.155 1223.03 966.344 1224.78 C 940.466 1228.33 917.881 1228.16 891.902 1227.41 C 851.297 1226.24 805.84 1218.17 765.501 1224.95 z" fill="rgb(250,247,233)" transform="translate(0,0)"></path>
<path d="M 1384.42 410.826 C 1481.98 441.358 1581.99 474.701 1679.15 506.891 L 1773.72 538.21 C 1798.27 546.296 1823.66 554.299 1847.66 563.706 C 1849.28 684.758 1848.01 811.409 1847.11 932.57 L 1384.81 789.726 C 1382.18 703.24 1385.2 614.815 1383.87 528.135 C 1383.28 489.611 1383.54 449.264 1384.42 410.826 z" fill="rgb(250,247,233)" transform="translate(0,0)"></path>
<path d="M 1428.18 663.042 C 1452.11 661.535 1447.3 679.135 1447.4 697.145 C 1447.53 718.695 1447.99 741.18 1445.89 762.51 C 1445.58 765.689 1438.18 769.404 1435.74 770.692 C 1433.71 770.615 1431.68 770.509 1429.69 770.056 C 1425.06 768.998 1421.52 766.707 1419.09 762.553 C 1416.11 757.441 1415.39 678.28 1418.16 671.362 C 1419.88 667.044 1424.36 665.153 1428.18 663.042 z" fill="rgb(134,59,53)" transform="translate(0,0)"></path>
<path d="M 1427.95 667.956 C 1433.6 668.252 1436.52 668.241 1440.44 672.886 C 1443.71 682.655 1442.36 744.101 1441.47 758.55 C 1441.31 761.038 1437.95 763.126 1435.74 764.522 C 1430.2 764.771 1427.91 765.378 1423.94 760.961 C 1419.96 749.695 1422.59 693.77 1422.39 678.086 C 1422.31 671.841 1424.01 671.383 1427.95 667.956 z" fill="rgb(250,247,233)" transform="translate(0,0)"></path>
<path d="M 338.661 986.413 C 348.337 995.262 361.697 1003.76 371.977 1012.28 C 399.668 1035.25 428.696 1055.87 457.269 1077.66 C 502.887 1112.44 548.08 1147.47 594.87 1180.71 C 624.487 1201.75 659.372 1227.89 690.9 1245.48 C 701.939 1243.63 716.285 1239.85 727.673 1237.51 C 746.298 1233.63 765.167 1231.02 784.148 1229.71 C 830.17 1226.31 873.685 1236.64 920.253 1235.8 C 937.168 1235.49 959.882 1232.05 976.472 1232.75 C 979.225 1233.56 981.69 1238.15 982.049 1240.52 C 986.617 1270.73 921.194 1268.69 903.492 1269.7 C 892.285 1270.34 877.807 1266.99 867.184 1269.39 C 863.017 1276.89 889.219 1303.16 894.595 1308.23 C 949.416 1359.85 1022.04 1382.64 1093.09 1401.78 C 1104.33 1406.48 1150.29 1411.99 1135.2 1432.35 C 1126.67 1440.83 1110.54 1438.36 1099.95 1436.61 C 1037.81 1426.39 976.382 1410.31 919.841 1382.04 C 915.85 1380.05 908.192 1375.99 905.05 1380.43 L 905.818 1382.15 C 972.321 1422.35 1052.2 1442.35 1126.28 1461.76 C 1129.72 1462.66 1133.65 1465.36 1135.03 1468.76 C 1135.12 1471.94 1134.69 1474.44 1132.69 1476.97 C 1110.49 1505.04 975.901 1456.55 946.069 1444.47 C 934.019 1439.62 922.141 1434.35 910.453 1428.68 C 905.383 1426.19 894.994 1419.18 889.687 1419.75 L 888.867 1421.41 C 891.292 1427.87 904.581 1433.14 911.51 1436.6 C 947.735 1454.72 985.861 1468.75 1025.19 1478.45 C 1034.59 1480.82 1080.37 1489.28 1084.01 1494.03 C 1084.18 1496.29 1083.94 1498.05 1083.08 1500.14 C 1081.26 1504.59 1077.32 1507.5 1072.96 1509.21 C 1040.92 1521.79 944.008 1487.52 912.542 1474.72 C 893.79 1467.09 876.031 1457.56 857.505 1449.51 L 856.135 1450.57 L 855.907 1452.94 C 858.139 1456.45 866.71 1460.69 870.441 1462.77 C 921.996 1491.51 979.414 1506.59 1036.77 1518.49 C 1037.34 1518.75 1037.92 1519 1038.49 1519.26 C 1041.98 1522.3 1043.01 1521.75 1047.96 1521.47 C 1045.98 1524.19 1042.49 1528.23 1042.02 1531.32 C 1037.51 1533.02 1034.73 1531.16 1030.84 1528.98 C 1010.78 1546.16 925.496 1525.65 899.856 1516.7 C 809.208 1485.04 691.62 1436.21 644.945 1346.5 C 630.149 1336.66 597.879 1323.47 581.116 1314.74 C 543.659 1295.23 505.684 1276.26 467.711 1257.78 L 305.267 1177.47 C 278.107 1164.05 254.289 1151.51 226.355 1138.87 C 227.793 1138.02 229.21 1137.13 230.606 1136.21 C 289.676 1097.54 324.112 1056.31 338.661 986.413 z" fill="rgb(250,247,233)" transform="translate(0,0)"></path>
<path d="M 1038.49 1519.26 C 1041.98 1522.3 1043.01 1521.75 1047.96 1521.47 C 1045.98 1524.19 1042.49 1528.23 1042.02 1531.32 C 1037.51 1533.02 1034.73 1531.16 1030.84 1528.98 C 1034.04 1525.52 1035.76 1523.06 1038.49 1519.26 z" fill="rgb(138,60,52)" transform="translate(0,0)"></path>
<path d="M 1009.9 290.116 C 1025.45 293.901 1052.44 303.801 1068.65 308.939 C 1110.88 321.944 1152.97 335.405 1194.91 349.319 C 1220.42 357.674 1245.98 365.853 1271.59 373.857 C 1294.36 380.868 1316.7 387.169 1338.93 395.809 C 1339.13 413.032 1339.16 430.462 1339.04 447.686 C 1338.23 557.024 1340.33 666.761 1338.74 776.071 C 1329.57 774.136 1313.93 768.731 1304.68 765.748 C 1286.24 759.725 1267.74 753.87 1249.19 748.184 L 1009.95 673.878 L 1009.9 290.116 z" fill="rgb(250,247,233)" transform="translate(0,0)"></path>
<path d="M 1294.06 614.025 C 1294.77 613.986 1295.48 613.959 1296.19 613.946 C 1300.97 613.871 1306.3 614.608 1309.7 618.334 C 1315.14 624.303 1313 698.44 1313 711.562 C 1309.12 715.701 1308.32 716.94 1303.12 719.206 C 1276.65 719.341 1283.08 701.769 1282.7 681.037 C 1282.36 662.004 1282.16 641.801 1283.69 623.003 C 1284.01 618.992 1291.07 615.464 1294.06 614.025 z" fill="rgb(134,59,53)" transform="translate(0,0)"></path>
<path d="M 1292.65 618.983 C 1298.47 618.591 1301.6 617.905 1306.14 621.732 C 1310.24 628.397 1307.5 690.743 1308.82 702.175 C 1309.55 708.442 1307.65 711.131 1302.84 714.719 C 1297.79 715 1288.42 714.389 1288.01 707.366 C 1287.31 695.488 1287.8 683.473 1287.79 671.555 C 1287.78 657.956 1287.42 644.313 1287.55 630.722 C 1287.62 623.785 1287.75 623.563 1292.65 618.983 z" fill="rgb(250,247,233)" transform="translate(0,0)"></path>
<path d="M 669.62 365.397 C 677.359 364.077 694.715 365.277 702.517 366.094 C 722.742 405.616 740.463 447.975 760.699 487.795 C 799.273 563.706 840.027 638.523 883.058 711.934 C 929.159 790.582 977.334 865.339 1037.6 934.033 C 1067.52 968.137 1110.69 993.032 1131.23 1034.33 C 1115.54 1032.55 1099.66 1031.3 1084.05 1029.01 C 1055.32 1003.91 957.251 937.476 921.275 936.571 C 914.081 936.962 901.986 939.953 896.911 944.84 C 862.192 978.27 923.999 1039.9 884.579 1073.68 C 872.583 1083.96 858.336 1076 854.499 1061.09 C 847.889 1035.39 848.953 1007.8 842.988 981.845 C 836.786 956.196 821.663 932.98 816.661 906.818 C 812.358 888.936 814.811 858.191 805.801 841.783 C 795.04 822.187 771.386 797.822 756.919 780.377 C 734.965 753.953 713.289 727.299 691.895 700.419 C 666.166 668.338 639.837 633.272 614.901 600.495 C 581.835 557.032 544.709 509.221 514.777 463.667 C 516.899 460.382 520.597 455.214 523.169 452.259 C 562.691 406.842 608.858 372.06 669.62 365.397 z" fill="rgb(250,247,233)" transform="translate(0,0)"></path>
<path d="M 312.783 206.785 C 326.327 231.276 341.115 257.195 356.187 280.797 C 366.771 297.369 383.118 315.835 392.41 332.934 C 408.154 361.906 414.868 388.55 432.972 417.206 C 427.916 427.83 424.688 434.904 420.437 445.792 C 430.553 461.847 464.86 497.317 479.403 510.119 C 483.769 506.578 482.474 510.341 488.177 506.752 C 494.641 506.954 533.629 507.59 536.707 509.114 L 537.536 511.141 L 538.192 510.769 C 538.354 510.86 609.062 604.923 617.403 615.773 C 580.573 623.422 551.307 629.932 516.167 643.688 C 477.186 657.598 443.474 682.367 407.525 701.221 C 345.401 733.802 280.743 772.972 216.22 800.121 C 211.099 794.367 204.112 784.702 199.227 778.371 C 199.16 761.822 196.96 745.173 197.166 727.8 C 198.074 651.306 206.318 573.28 230.391 500.48 C 238.498 493.401 246.269 485.946 253.679 478.14 C 319.812 407.494 324.111 347.422 316.738 255.087 C 315.523 239.87 313.288 221.602 312.783 206.785 z" fill="rgb(250,247,233)" transform="translate(0,0)"></path>
<path d="M 488.177 506.752 C 494.641 506.954 533.629 507.59 536.707 509.114 L 537.536 511.141 C 528.088 517.329 490.874 512.901 479.403 510.119 C 483.769 506.578 482.474 510.341 488.177 506.752 z" fill="rgb(134,59,53)" transform="translate(0,0)"></path>
<path d="M 486.043 1419.8 C 491.941 1432.39 495.831 1443.15 503.142 1455.59 C 545.139 1527.06 620.387 1577.05 694.471 1610.51 C 879.635 1694.12 1099.25 1704.28 1296.03 1659.32 C 1411.01 1633.05 1538.69 1576.65 1619.66 1488.15 C 1629.35 1477.28 1638.69 1462.92 1646.41 1450.53 C 1642.61 1460.93 1639.06 1467.45 1633.91 1477.16 C 1558.89 1609.57 1353.75 1686.23 1211.64 1707.25 C 1006.17 1737.65 777.426 1710.3 606.205 1584.84 C 557.636 1549.26 495.324 1480.14 486.043 1419.8 z" fill="rgb(250,247,233)" transform="translate(0,0)"></path>
<path d="M 427.092 443.857 C 449.496 398.821 468.559 362.259 513.724 335.544 C 581.182 295.643 649.591 282.029 726.738 295.547 C 734.763 311.572 741.35 331.153 748.17 347.897 C 751.403 355.833 755.157 363.533 758.251 371.217 C 750.699 378.835 735.427 394.035 727.068 400.24 C 722.085 389.03 716.909 377.907 711.545 366.875 C 717.281 368.038 734.812 372.742 738.681 370.78 C 727.594 359.883 695.246 357.56 680.017 357.717 C 623.393 358.299 572.192 391.189 533.332 430.097 C 526.763 436.675 481.328 490.389 489.106 498.842 C 489.702 498.461 507.319 472.963 509.884 469.609 C 515.281 476.71 535.6 502.997 536.707 509.114 C 533.629 507.59 494.641 506.954 488.177 506.752 C 475.305 503.75 437.009 455.926 427.092 443.857 z" fill="rgb(250,247,233)" transform="translate(0,0)"></path>
<path d="M 280.118 851.568 C 285.053 855.635 299.006 873.472 305.772 879.692 C 317.306 890.293 330.115 899.56 340.936 910.122 C 341.136 942.451 330.119 999.471 318.37 1029.24 C 298.062 1080.7 236.994 1129.37 186.122 1150.14 C 180.721 1146.44 176.117 1144.33 170.253 1141.45 C 146.836 1130.82 123.692 1119.6 100.844 1107.8 C 123.633 1098.86 132.577 1099.85 155.315 1085.27 C 181.169 1068.69 192.411 1057.26 212.794 1037.02 C 273.348 976.893 263.073 925.186 280.118 851.568 z" fill="rgb(250,247,233)" transform="translate(0,0)"></path>
<path d="M 866.71 1096.13 L 869.119 1095.88 L 869.431 1096.73 C 854.789 1109.55 837.325 1122.66 823.522 1135.73 C 797.278 1160.57 773.62 1193.28 757.344 1225.44 C 735.28 1229.41 716.272 1233.05 694.45 1238.33 C 678.448 1229.74 665.956 1221.09 651.05 1210.8 L 616.15 1187.39 C 629.711 1178.55 648.608 1169.66 663.253 1162.51 C 730.419 1129.68 794.631 1113.1 866.71 1096.13 z" fill="rgb(250,247,233)" transform="translate(0,0)"></path>
<path d="M 892.275 970.124 C 893.368 961.669 895.664 954.76 902.737 949.335 C 910.468 943.407 920.556 942.742 929.841 944.435 C 957.489 949.477 1050.66 1010.54 1073.71 1030.83 C 1058.26 1030.9 1039.19 1032.74 1023.74 1034.8 C 1020.01 1036.15 1019.08 1035.91 1015.8 1034.35 L 1015.68 1034.91 C 1013.71 1036.9 977.534 1045.79 970.49 1047.86 C 974.394 1032.89 973.673 1018.98 969.708 1004.01 C 967.939 999.687 968.051 1000.09 967.425 995.421 L 963.388 993.561 L 961.68 994.226 C 958.118 1003.39 975.9 1043.98 955.619 1053.37 C 951.984 1055.05 946.629 1056.71 942.598 1056.6 C 937.778 1054.35 935.538 1051.34 933.761 1046.31 C 922.722 1015.07 932.376 980.465 892.275 970.124 z" fill="rgb(250,247,233)" transform="translate(0,0)"></path>
<path d="M 969.708 1004.01 C 991.218 1015.01 998.475 1023.75 1015.8 1034.35 L 1015.68 1034.91 C 1013.71 1036.9 977.534 1045.79 970.49 1047.86 C 974.394 1032.89 973.673 1018.98 969.708 1004.01 z" fill="rgb(250,247,233)" transform="translate(0,0)"></path>
<path d="M 967.425 995.421 C 985.645 1003.89 1012.31 1017.61 1023.74 1034.8 C 1020.01 1036.15 1019.08 1035.91 1015.8 1034.35 C 998.475 1023.75 991.218 1015.01 969.708 1004.01 C 967.939 999.687 968.051 1000.09 967.425 995.421 z" fill="rgb(134,59,53)" transform="translate(0,0)"></path>
<path d="M 1010.29 1008.49 C 1017.35 1011.66 1029.05 1014.23 1032.59 1016.38 C 1033.58 1019.6 1033.42 1017.87 1031.97 1021.79 C 1023.98 1021.89 1006.98 1020.09 1010.29 1008.49 z" fill="rgb(138,60,52)" transform="translate(0,0)"></path>
<path d="M 1887.51 570.751 C 1919.22 582.72 1953.24 592.108 1985.26 603.556 C 1992.77 606.24 2015.44 610.869 2019.08 616.667 L 2018.19 617.37 C 2006.12 618.552 1912.51 584.734 1892.14 578.337 L 1891.7 866.287 C 1890.33 868.485 1890.22 933.805 1889.2 943.586 C 1888.45 936.815 1888.83 900.191 1887.32 898.276 C 1885.73 825.383 1888.46 751.788 1887.73 678.815 C 1887.38 642.967 1887.09 606.579 1887.51 570.751 z" fill="url(#Gradient1)" transform="translate(0,0)"></path>
<path d="M 1428.2 41.4175 C 1481.52 35.3163 1621.78 48.7644 1636.48 111.851 C 1642.99 109.223 1776.74 46.5452 1761.86 86.1444 C 1753.46 108.478 1663.29 135.291 1638.15 143.766 C 1634.58 152.617 1631.59 163.131 1627.9 172.408 C 1618.12 197.024 1607.56 212.2 1590.56 231.624 C 1561.13 263.524 1520.98 283.449 1477.77 287.583 C 1379.12 297.688 1290.6 228.888 1273.98 130.819 C 1269.22 102.697 1292.61 80.642 1315.42 68.7874 C 1349.5 51.0732 1390.15 44.6333 1428.2 41.4175 z" fill="rgb(134,59,53)" transform="translate(0,0)"></path>
<path d="M 1447.69 59.4425 C 1495.9 58.2236 1560.15 65.465 1601.4 91.6554 C 1607.99 95.8341 1620.66 106.278 1622.24 114.3 C 1618.05 129.927 1580.27 122.316 1581.62 145.606 L 1581.7 146.717 C 1549.62 162.012 1505.97 167.511 1470.94 169.914 C 1417 171.042 1336.68 163.001 1293.75 128.642 L 1290.28 118.813 C 1303.04 68.8841 1405.51 61.4529 1447.69 59.4425 z" fill="rgb(250,247,233)" transform="translate(0,0)"></path>
<path d="M 1281.07 139.521 C 1283.72 141.509 1286.39 145.175 1289.07 147.664 C 1296.18 154.273 1305.95 162.2 1314.97 166.176 C 1388.68 198.687 1488.6 201.119 1565.41 178.322 C 1591.27 170.648 1605.17 154.883 1630.72 146.015 C 1621.85 172.56 1618.26 184.292 1602.68 207.473 C 1577.74 242.848 1542.28 268.193 1499.95 278.224 C 1452.9 289.371 1403.34 281.199 1362.36 255.533 C 1323.68 231.311 1291.08 183.903 1281.07 139.521 z" fill="rgb(250,247,233)" transform="translate(0,0)"></path>
<path d="M 1430.68 47.4262 C 1461.01 45.3196 1506.77 47.6203 1536.46 54.4547 C 1565.65 61.1744 1609.68 74.3775 1627.42 100.773 C 1629.27 103.523 1631.58 110.62 1630.59 114.19 C 1627.78 115.674 1628.93 114.579 1626.66 111.049 C 1622.98 105.336 1620.08 98.2941 1614.59 93.9276 C 1597.42 80.8533 1575.11 69.3592 1553.6 64.6468 C 1477.51 47.973 1384.89 46.7484 1314.09 82.7111 C 1299.64 90.0497 1275.17 112.892 1287.96 129.036 C 1306.83 152.84 1354.23 162.967 1383.22 169.057 C 1451.09 180.548 1517.73 178.275 1581.65 153.252 C 1582.42 152.951 1594.89 154.859 1601.52 153.382 C 1573.15 172.791 1545.93 179.875 1511.26 184.395 C 1442.9 193.305 1358.52 188.599 1299.63 149.242 C 1280.34 136.35 1271.85 115.679 1289.4 96.8535 C 1324.37 59.3366 1382.02 51.3158 1430.68 47.4262 z" fill="rgb(250,247,233)" transform="translate(0,0)"></path>
<path d="M 1744.15 79.3117 C 1748.88 78.7945 1753.34 77.899 1755.76 82.2637 C 1755.15 85.1315 1754.87 85.0333 1753.19 87.2413 C 1748.62 93.254 1731.66 102.876 1725.44 105.669 C 1706.85 114.02 1617.62 146.791 1601.93 148.038 C 1597.05 148.659 1593.65 149.959 1590.09 147.678 C 1589.11 143.852 1587.71 141.8 1588.99 138.97 C 1596.12 134.911 1628.84 121.467 1637.54 118.172 C 1664.78 107.845 1715.98 83.0966 1744.15 79.3117 z" fill="rgb(250,247,233)" transform="translate(0,0)"></path>
<path d="M 357.218 1390.03 C 361.475 1390.98 361.697 1391.07 363.169 1394.79 C 362.655 1401.01 356.713 1412.01 353.662 1417.6 C 326.468 1467.36 289.631 1510.22 251.123 1551.5 C 242.094 1561.18 229.469 1572.53 222.109 1583.27 C 259.209 1590.48 313.983 1578.41 348.19 1563.4 C 394.059 1543.27 421.884 1522.91 440.948 1476.64 C 400.925 1494.38 358.587 1509.36 319.083 1528.87 C 302.12 1537.25 285.734 1547.12 269.34 1556.44 C 257.503 1563.16 239.233 1576.02 226.66 1579.63 C 228.083 1578.26 229.57 1576.95 231.115 1575.72 C 238.852 1569.54 248.051 1564.25 256.346 1558.54 C 307.333 1523.5 365.535 1502.32 422.32 1478.85 C 428.35 1476.36 436.076 1472.98 442.496 1472.82 C 443.589 1472.79 444.336 1474.54 444.925 1475.41 C 444.992 1479.13 444.611 1480.63 443.295 1484.19 C 429.359 1521.89 397.016 1548.18 361.289 1564.31 C 324.742 1580.8 287.37 1591.17 246.964 1590.57 C 237.613 1590.43 228.209 1590.11 219.45 1586.87 C 207.356 1603.95 176.762 1646.5 169.439 1663.93 C 209.176 1627.46 276.365 1603.92 327.956 1591 C 336.327 1588.91 355.798 1581.02 362.302 1586.39 C 364.32 1591.65 362.209 1598.3 359.857 1603.13 C 335.617 1652.84 211.815 1697.58 164.823 1673.58 C 156.461 1681.74 139.317 1734.05 135.588 1746.9 C 132.757 1756.65 129.511 1773.06 126.159 1783.94 L 125.757 1785.22 C 150.433 1819.61 152.416 1864.19 152.28 1904.7 C 161.725 1885.95 169.264 1873.92 179.182 1856.14 C 161.718 1825.93 158.588 1777.91 162.239 1743.76 C 163.74 1730.63 169.621 1698.3 178.894 1688.99 C 185.12 1687.09 188.115 1692.39 190.487 1697.66 C 209.591 1740.13 216.686 1780.25 201.835 1825.11 C 245.166 1795.8 294.958 1784.68 345.294 1772.76 C 357.217 1769.94 437.923 1754.29 444.915 1758.35 C 449.455 1770.79 420.454 1793.25 411.635 1799.77 C 351.261 1844.4 269.298 1849.62 197.234 1837.68 C 186.004 1856.45 169.502 1879.46 161.681 1899.3 C 210.915 1877.38 272.045 1870.85 324.837 1861.43 C 332.005 1860.16 365.154 1855.22 371.016 1856.93 C 371.824 1858.5 372.207 1859.61 371.103 1861.36 C 344.749 1903.17 303.712 1918.99 256.664 1922.9 C 218.51 1926.08 189.746 1928.6 155.358 1911.82 C 147.358 1928.84 142.429 1945.9 135.493 1963.24 C 134.727 1963.77 133.961 1964.3 133.195 1964.83 L 132.947 1964.6 L 134.24 1964.88 L 132.363 1963.52 C 130.47 1954.87 143.281 1924.99 147.272 1915.7 C 142.756 1914.37 135.832 1912.52 132.134 1909.88 C 98.6313 1885.99 90.1448 1833.15 105.08 1796.52 C 107.411 1790.8 113.417 1780.12 118.154 1777.07 C 120.064 1777.55 119.662 1777.55 121.619 1777.59 C 132.561 1735.7 139.747 1711.68 158.427 1673.24 C 157.161 1672.23 155.919 1671.19 154.7 1670.13 C 119.608 1639.26 132.999 1579.29 149.666 1542.45 C 153.765 1533.39 164.514 1508.29 175.729 1507.58 C 176.677 1508.17 178.29 1509.27 178.698 1510.32 C 193.848 1549.51 187.233 1596.19 180.227 1635.59 C 192.108 1617.07 204.4 1599.85 217.12 1581.93 C 198.739 1494.73 263.618 1444.31 330.986 1404.07 C 339.411 1399.04 348.356 1394.22 357.218 1390.03 z" fill="rgb(134,59,53)" transform="translate(0,0)"></path>
<path d="M 436.552 1762.41 L 439.012 1762.32 L 439.63 1763.43 C 438.188 1767.88 432.241 1774.64 428.803 1778 C 372.071 1833.54 289.413 1843.53 213.779 1833.86 C 210.23 1833.24 207.092 1832.35 203.609 1831.42 C 246.453 1794.28 379.955 1768.88 436.552 1762.41 z" fill="rgb(250,247,233)" transform="translate(0,0)"></path>
<path d="M 353.153 1397.79 C 354.76 1397.65 353.928 1397.51 355.572 1398.56 C 354.613 1409.31 331.593 1443.01 324.459 1453.59 C 294.958 1497.35 257.82 1535.37 222.992 1574.81 L 222.398 1574.35 C 220.083 1570.05 220.15 1560.48 220.033 1555.48 C 218.242 1478.53 292.11 1430.52 353.153 1397.79 z" fill="rgb(250,247,233)" transform="translate(0,0)"></path>
<path d="M 350.788 1590.26 C 353.68 1589.78 353.638 1589.82 356.571 1590.16 C 357.443 1591.31 358.313 1591.77 357.802 1593.16 C 336.417 1650.99 228.821 1678.21 178.306 1673.99 C 175.191 1673.38 173.151 1673.38 170.901 1671.2 L 171.253 1669.29 C 176.712 1662.07 189.117 1655.3 197.07 1650.25 C 241.823 1621.83 298.865 1601.71 350.788 1590.26 z" fill="rgb(250,247,233)" transform="translate(0,0)"></path>
<path d="M 362.982 1861.54 L 363.298 1861.74 L 363.262 1863.1 C 352.813 1875.24 338.227 1891.3 323.825 1898.65 C 282.707 1919.62 210.46 1925.46 167.01 1912.65 C 164.26 1911.64 158.906 1910.21 157.357 1908.36 C 160.191 1903.96 170.391 1901.26 175.365 1899.5 C 212.829 1886.19 252.334 1879.51 291.408 1872.77 C 314.95 1868.71 339.28 1864.25 362.982 1861.54 z" fill="rgb(250,247,233)" transform="translate(0,0)"></path>
<path d="M 172.679 1514.56 C 176.637 1517.13 179.153 1530.75 179.886 1535.5 C 181.941 1549.33 182.872 1563.31 182.67 1577.29 C 182.381 1590.29 174.957 1664.28 157.787 1665.86 L 154.09 1662.68 C 144.489 1649.91 139.872 1635.98 138.517 1620.12 C 135.797 1588.29 152.162 1538.49 172.679 1514.56 z" fill="rgb(250,247,233)" transform="translate(0,0)"></path>
<path d="M 181.119 1693.8 C 188.308 1700.36 198.189 1732.34 200.042 1742.02 C 207.746 1782.29 205.995 1811.22 184.257 1845.55 C 182.629 1847.93 183.719 1847.29 181.328 1848.09 C 175.521 1841.81 168.974 1804.55 167.888 1795.24 C 164.362 1765.01 167.348 1721.4 181.119 1693.8 z" fill="rgb(250,247,233)" transform="translate(0,0)"></path>
<path d="M 118.77 1784.73 C 132.446 1795.71 141.273 1836.56 144.419 1853.7 C 145.908 1861.81 149.659 1903.12 145.278 1909.11 C 141.943 1909.41 139.816 1908.06 136.692 1906.7 C 100.921 1886.53 94.0773 1817.09 118.77 1784.73 z" fill="rgb(250,247,233)" transform="translate(0,0)"></path>
<path d="M 1855.92 1532.72 L 1859.68 1533.5 C 1866.72 1544.85 1815.52 1637.54 1802.51 1650.15 C 1792.64 1659.71 1783.41 1668.97 1772.11 1677.39 C 1791.87 1668.98 1809.55 1657.23 1829.06 1648.55 C 1842.83 1642.43 1849.74 1636.36 1861.31 1627.13 C 1897.15 1598.53 1937.09 1578.55 1981.08 1565.76 C 1987.37 1563.93 2005.59 1559.69 2011.23 1562.76 C 2009.96 1567.21 1990.04 1569.69 1984 1571.23 C 1929.91 1584.99 1893.09 1607.36 1851.03 1643.19 C 1890.37 1638.34 1918.81 1633.72 1956.57 1622.02 C 1965.78 1619.2 1974.87 1616 1983.81 1612.41 C 1990.96 1609.49 2002.03 1603.2 2009.11 1602.42 L 2010.15 1603.35 C 2004.16 1618.3 1903.6 1643.16 1884.49 1644.77 C 1857.91 1647.01 1835.06 1645.35 1812.38 1663.6 C 1855.77 1656.5 1896.61 1651.59 1940.15 1661.88 C 1948.11 1663.76 1971.06 1666.73 1974.45 1673.73 C 1969.94 1678.05 1956.56 1680.89 1950.45 1683.11 C 1900.71 1701.21 1815.52 1722.77 1771.08 1683.78 C 1736.85 1699.69 1707.66 1717.49 1674.35 1734.75 C 1722.95 1727.82 1766.04 1730.71 1814.15 1738.69 C 1821.31 1739.88 1837.18 1741.47 1842.84 1744.35 C 1842.06 1749.72 1826.85 1755.72 1821.66 1758.12 C 1791.9 1771.86 1759.81 1784.39 1726.49 1783.2 C 1693.15 1782 1669.46 1773.15 1646.54 1749.01 C 1627.65 1756.05 1596.64 1778.44 1580.16 1790.24 C 1554.24 1808.8 1508.19 1839.42 1478.7 1849.92 C 1496.39 1849.76 1512.97 1849.54 1532.88 1851.29 C 1560.36 1853.7 1596.66 1857.69 1624.52 1862.94 C 1624.99 1863.48 1625.45 1864.03 1625.92 1864.58 C 1624.49 1869.19 1613 1874.34 1608.57 1876.71 C 1603.52 1879.42 1598.47 1882.17 1593.24 1884.51 C 1547.13 1905.21 1498.44 1885.61 1459.46 1859.76 C 1440.62 1866.65 1413.34 1882.35 1391.34 1890.98 C 1311.94 1921.55 1230.23 1945.73 1146.98 1963.3 C 1135.14 1965.72 1061.26 1981.44 1055.9 1977.9 L 1055.89 1975.86 C 1059.83 1973.55 1107.8 1966.23 1117.66 1964.04 C 1231.62 1938.68 1362.63 1907.82 1464.02 1849.31 C 1445.86 1802.73 1470.45 1762.41 1498.24 1725.63 C 1503.63 1718.5 1535.16 1682.93 1544.52 1690.68 C 1546.35 1698.24 1523.23 1775.93 1521.46 1789.19 C 1519.01 1807.53 1494.3 1831.25 1480.7 1844.09 C 1492.13 1837.88 1503.53 1831.47 1515.01 1825.37 C 1550.66 1806.44 1581.78 1781.88 1615.12 1759.36 C 1601.14 1724.39 1612.83 1689.92 1633.85 1660.17 C 1646.14 1642.77 1670.46 1617.84 1692.24 1612.03 C 1703.82 1608.94 1705.84 1622.8 1701.68 1631.43 C 1692.97 1650.19 1685.02 1670.7 1679.05 1690.48 C 1671.57 1715.24 1665.42 1724.52 1647.54 1742.26 C 1677.77 1724.33 1726.93 1703.24 1754.12 1682.8 C 1748.96 1667.27 1745.94 1653.62 1751.47 1637.39 C 1764.07 1600.35 1822.64 1549.91 1855.92 1532.72 z" fill="rgb(134,59,53)" transform="translate(0,0)"></path>
<path d="M 1688.52 1617.01 C 1693.27 1616.62 1695.24 1616.01 1698.64 1619.56 C 1698.78 1625.12 1684.75 1657.36 1681.72 1665.06 C 1675.22 1681.62 1669.47 1703.92 1661.3 1719.09 C 1655.22 1730.38 1634.04 1746.32 1623.58 1753.26 C 1623.12 1753.56 1621.64 1754.15 1621.08 1754.4 L 1618.86 1752.78 C 1612.96 1741.79 1614.44 1714.83 1617.81 1703.3 C 1628.51 1666.66 1657.1 1636.37 1688.52 1617.01 z" fill="rgb(250,247,233)" transform="translate(0,0)"></path>
<path d="M 1695.97 1737.58 C 1738.69 1733.42 1789.38 1739.71 1831.37 1747.5 C 1814.33 1756.75 1797.5 1763.24 1779.11 1769.14 C 1734.87 1781.98 1685.41 1782.32 1651.45 1746.76 C 1665.51 1738.47 1679.78 1738.97 1695.97 1737.58 z" fill="rgb(250,247,233)" transform="translate(0,0)"></path>
<path d="M 1538.97 1694.07 C 1539.44 1695.53 1515.51 1790.63 1512.01 1799.54 C 1507.87 1810.09 1481.37 1841.26 1471.19 1844.83 C 1469.67 1845.36 1469.27 1844.72 1467.96 1844.06 C 1462.03 1833.6 1461.48 1818.76 1463.54 1807.17 C 1471.08 1764.6 1504.9 1718.89 1538.97 1694.07 z" fill="rgb(250,247,233)" transform="translate(0,0)"></path>
<path d="M 1851.96 1540.86 L 1853.02 1542.45 C 1847.64 1566.96 1810.49 1634.15 1791.85 1653.19 C 1786.3 1658.86 1766.1 1677.71 1757.83 1677.95 C 1753.86 1666.99 1752.91 1655.42 1755.67 1644.07 C 1764.76 1606.69 1820.05 1560.32 1851.96 1540.86 z" fill="rgb(250,247,233)" transform="translate(0,0)"></path>
<path d="M 1871.48 1661.42 C 1896.24 1659.74 1940 1665.6 1962.62 1673.84 C 1927.45 1685.25 1907.84 1691.85 1871.93 1697.72 C 1869.63 1698.04 1867.33 1698.31 1865.02 1698.53 C 1835.82 1701.26 1802.46 1700.56 1778.78 1681.07 C 1813.17 1666.89 1834.79 1663.85 1871.48 1661.42 z" fill="rgb(250,247,233)" transform="translate(0,0)"></path>
<path d="M 1472.02 1855.06 C 1520.14 1855.16 1568.17 1859.02 1615.69 1866.59 C 1610.22 1870.2 1605.03 1872.87 1599.25 1875.93 C 1558.05 1897.97 1517.39 1886.15 1478.07 1865.34 C 1475.47 1863.97 1468.27 1860.16 1467.51 1857.57 L 1472.02 1855.06 z" fill="rgb(250,247,233)" transform="translate(0,0)"></path>
<path d="M 534.106 1563.68 C 536.114 1564.59 535.413 1564.1 536.782 1565.96 C 535.975 1569.4 534.549 1573.1 532.499 1575.99 C 500.166 1621.53 458.096 1663.11 410.969 1693.32 C 368.94 1720.25 324.876 1743.67 281.662 1768.51 C 265.215 1777.97 240.623 1799.91 223.851 1804.01 C 219.895 1800.18 219.013 1797.18 220.981 1791.66 C 225.879 1777.92 233.455 1763.89 240.049 1750.96 C 280.464 1671.68 361.264 1646.84 437.022 1614.92 C 469.716 1600.82 502.881 1581.74 534.106 1563.68 z" fill="rgb(134,59,53)" transform="translate(0,0)"></path>
<path d="M 525.042 1575.16 L 525.621 1575.9 C 524.697 1580.59 506.416 1600.85 502.166 1605.75 C 459.023 1655.5 405.405 1692.27 348.387 1724.39 C 323.534 1738.38 298.225 1752.01 273.734 1766.68 C 258.22 1776.08 243.447 1788.73 227.481 1798.4 L 226.356 1797.38 C 225.042 1789.39 243.143 1757.85 247.554 1749.61 C 285.004 1679.7 355.526 1654.38 424.264 1626.96 C 457.054 1613.88 494.676 1592.72 525.042 1575.16 z" fill="rgb(250,247,233)" transform="translate(0,0)"></path>
<path d="M 1641.39 1882.34 C 1730.89 1863.88 1816.72 1830.81 1895.46 1784.43 C 1927.91 1765.56 1958.47 1742.4 1986.94 1718.02 C 1991.63 1714 1999.79 1703.7 2005.78 1703.3 L 2006.93 1704.36 C 2005.19 1712.47 1958.19 1748.32 1949.49 1755.03 C 1904.11 1790 1852.06 1814.67 1800.71 1839.47 C 1834.63 1837.08 1866.74 1823.98 1898.62 1816.89 C 1912.41 1813.83 1998.18 1792.7 2005.91 1794.7 L 2006.9 1796.37 C 2005.77 1798.51 2005.67 1799.33 2002.46 1799.98 C 1992.55 1801.98 1982.44 1803.88 1972.53 1805.83 C 1957.48 1808.83 1942.49 1812.11 1927.57 1815.67 C 1895.65 1823.07 1863.83 1832.63 1832.01 1839.33 C 1886.07 1845.07 1937.73 1853.48 1988.89 1872.7 C 1994.36 1874.76 2005.55 1877.88 2008.86 1882.48 L 2008.1 1883.87 C 2003.75 1884.14 1950.41 1866.33 1940.69 1863.76 C 1900.13 1853.02 1858.81 1848 1817.17 1843.8 C 1858.75 1871.23 1891.89 1906.79 1944.41 1912.66 C 1970.9 1915.62 1992.42 1912.03 2018.4 1910.34 C 2020.32 1910.21 2020.7 1912.07 2021.12 1913.45 C 2014.78 1919.16 1966.91 1919.38 1957.05 1919.31 C 1897.79 1918.89 1858.72 1879.13 1813.67 1847.39 C 1797.08 1835.7 1755.68 1857.95 1737.95 1861.66 C 1709.46 1869.32 1681.14 1878.57 1652.48 1885.67 C 1728.03 1888.36 1794.18 1895.04 1865.72 1920.84 C 1873.48 1923.63 1893.86 1929.04 1899.09 1934.12 C 1898.29 1942.85 1878.41 1946.77 1871.08 1948.83 C 1791.41 1971.12 1699.26 1942.71 1633.46 1894.65 L 1628.87 1890.78 L 1628.55 1885.56 L 1641.39 1882.34 z" fill="rgb(134,59,53)" transform="translate(0,0)"></path>
<path d="M 1628.55 1885.56 L 1641.39 1882.34 C 1643.3 1885.94 1644.03 1885.92 1643.88 1889.37 C 1637.5 1892.15 1637.59 1888.97 1633.46 1894.65 L 1628.87 1890.78 L 1628.55 1885.56 z" fill="rgb(138,60,52)" transform="translate(0,0)"></path>
<path d="M 1657.76 1891.47 C 1730 1889.57 1807.6 1907 1875.75 1930.44 C 1880.66 1932.13 1885.5 1934.27 1890.15 1936.58 C 1880.76 1940.34 1872.43 1942.47 1862.64 1944.85 C 1771.71 1962.78 1712.49 1936.22 1636.34 1891.85 L 1657.76 1891.47 z" fill="rgb(250,247,233)" transform="translate(0,0)"></path>
<path d="M 373.896 1919.42 C 413.973 1919.82 456.62 1932.86 496.833 1936.13 C 510.178 1937.22 521.89 1938.02 535.336 1938.02 C 544.727 1938.02 563.147 1936.53 571.267 1937.97 L 571.949 1939.34 L 570.872 1941.14 C 567.173 1942.86 543.617 1945.06 537.178 1946.03 C 502.031 1951.32 468.501 1961.89 433.736 1968.76 C 368.085 1982.14 308.75 1975.19 246.439 1949.05 C 243.899 1947.98 242.976 1947.03 242.234 1944.58 L 243.564 1942.75 C 249.939 1940.67 271.292 1937.95 279.225 1936.3 C 311.117 1929.65 341.24 1920.95 373.896 1919.42 z" fill="rgb(134,59,53)" transform="translate(0,0)"></path>
<path d="M 364.559 1925.39 C 395.705 1922.2 434.926 1933.12 466.537 1937.74 C 489.531 1941.09 504.673 1941.9 527.966 1942.49 C 515.572 1945.27 503.192 1947.31 490.822 1950.2 C 464.767 1956.3 439.448 1962.96 412.936 1966.83 C 364.663 1975.35 298.181 1965.57 253.081 1945.32 C 291.551 1941.16 327.244 1929.45 364.559 1925.39 z" fill="rgb(250,247,233)" transform="translate(0,0)"></path>
<path d="M 1628.55 1885.56 L 1628.87 1890.78 C 1609.24 1895.86 1588.44 1899.08 1568.44 1902.56 L 1486.14 1916.84 C 1445.85 1923.72 1405.37 1929.98 1365.31 1938.05 C 1356.54 1939.81 1336.26 1945.49 1327.91 1943.3 L 1328.42 1942.07 C 1344.25 1933.2 1433.56 1920.69 1456.31 1916.58 C 1513.91 1906.16 1570.97 1898.05 1628.55 1885.56 z" fill="rgb(134,59,53)" transform="translate(0,0)"></path>
<metadata><recraft-signature>{"signed_by": "recraft", "signature_b64": "E2YjAJ3PyAi4BZhhqmXrDEqYZzmAhodS75e79Ljn0Tkrvz+0NxlieIktXS7VKqQp9TZS4OSsLXC1dlbDmX9JAA==", "signing_algo": "Ed25519", "generation_timestamp": 1778092665, "identifier": "6137991b-4bee-4717-acff-73654541e0c8"}</recraft-signature></metadata></svg>