<svg xmlns="http://www.w3.org/2000/svg" height="1024" preserveAspectRatio="none" style="display: block;" version="1.1" viewBox="0 0 2048 2048" width="1024">
<path d="M 0 0 L 2048 0 L 2048 460.192 L 2048 2048 L 1210.15 2048 L 1197.2 2048 L 1126.71 2048 L 1121.61 2048 L 1031.27 2048 L 1026.34 2048 L 994.634 2048 L 984.269 2048 L 795.082 2048 L 789.06 2048 L 688.017 2048 L 682.533 2048 L 519.16 2048 L 512.804 2048 L 504.75 2048 L 498.533 2048 L 442.161 2048 L 434.667 2048 L 332.066 2048 L 326.431 2048 L 61.3027 2048 L 55.6954 2048 L 20.589 2048 L 15.6201 2048 L 0 2048 L 0 2017.76 L 0 2013.86 L 0 1934.84 L 0 1821.73 L 0 1817.34 L 0 1737.19 L 0 1731.5 L 0 1654.45 L 0 1649.36 L 0 1589.36 L 0 1584.56 L 0 1575.33 L 0 1573.78 L 0 1563.06 L 0 1557.53 L 0 1488.7 L 0 1483.46 L 0 1368.24 L 0 1358.92 L 0 1243.32 L 0 1238.69 L 0 743.838 L 0 738.873 L 0 0 z" fill="rgb(0,0,0)" transform="translate(0,0)"></path>
<path d="M 1289.13 233.089 L 2032.73 457.185 C 2037.64 458.634 2039.28 459.341 2044.31 458.363 C 2046.37 459.722 2045.73 459.575 2048 460.192 L 2048 2048 L 1210.15 2048 L 1197.2 2048 L 1126.71 2048 L 1121.61 2048 L 1031.27 2048 L 1026.34 2048 L 994.634 2048 L 984.269 2048 L 795.082 2048 L 789.06 2048 L 688.017 2048 L 682.533 2048 L 519.16 2048 L 512.804 2048 L 504.75 2048 L 498.533 2048 L 442.161 2048 L 434.667 2048 L 332.066 2048 L 326.431 2048 L 61.3027 2048 L 55.6954 2048 L 20.589 2048 L 15.6201 2048 L 0 2048 L 0 2017.76 L 0 2013.86 L 0 1934.84 L 0 1821.73 L 0 1817.34 L 0 1737.19 L 0 1731.5 L 0 1654.45 L 0 1649.36 L 0 1589.36 L 0 1584.56 L 0 1575.33 L 0 1573.78 L 0 1563.06 L 0 1557.53 L 0 1488.7 L 0 1483.46 L 0 1368.24 L 0 1358.92 L 0 1243.32 L 0 1238.69 L 0 743.838 C 74.2223 715.059 148.707 686.961 223.444 659.547 L 516.775 549.271 L 734.711 464.503 C 771.447 450.084 808.275 435.533 845.178 421.525 C 851.283 419.208 852.776 419.381 859.182 420.857 C 861.641 422.987 859.402 429.635 858.778 434.062 C 853.8 457.218 854.946 516.75 878.524 531.229 C 889.557 538.004 939.648 551.096 954.932 555.718 C 1036.26 579.978 1117.44 604.751 1198.46 630.037 L 1248.6 646.066 C 1256.23 648.501 1270.3 652.497 1277.01 656.02 C 1225.81 654.005 1176.8 651.494 1125.12 653.281 C 946.676 659.659 762.341 685.271 598.853 760.562 C 507.752 803.152 401.301 874.022 395.76 984.984 C 393.361 1033.05 423.931 1092.37 445.173 1135.43 C 459.753 1165.25 474.533 1194.97 489.513 1224.58 C 521.056 1287.95 547.468 1351.14 586.277 1410.98 C 606.114 1442.4 631.478 1473.45 656.491 1500.59 C 703.104 1551.16 759.867 1589.5 818.962 1623.67 C 817.136 1622.61 826.293 1644.71 832.575 1650.6 C 844.357 1661.65 855.259 1666.71 870.204 1673.54 C 951.084 1708.13 1040.25 1719.64 1127.48 1723.44 C 1232.71 1725.75 1344.33 1718.81 1443.75 1681.47 C 1472.54 1670.66 1507.21 1653.61 1508.39 1618.86 C 1671 1527.54 1746.68 1403.79 1821.51 1238.2 C 1840.78 1195.57 1857.33 1151.34 1878.44 1109.65 C 1885.27 1096.15 1889.87 1081.27 1894.51 1066.91 C 1908.6 1023.23 1914.85 984.239 1900.46 939.567 C 1870.78 847.431 1783.73 798.859 1703.17 757.635 C 1729.1 735.121 1743.78 716.332 1758.23 685.178 C 1793.11 702.486 1828.48 719.273 1865.75 730.934 C 1904.16 742.324 1952.51 755.333 1990.32 736.259 C 2003.6 729.564 2009.03 716.304 1999.71 703.686 C 1961.02 651.249 1887.22 648.676 1828.54 641.056 C 1809.6 638.431 1790.76 635.107 1772.07 631.091 C 1775.17 601.337 1774.94 567.629 1761.33 540.494 C 1756.33 529.694 1740.27 510.261 1728.38 507.186 C 1677.39 494.006 1625.29 480.718 1574.65 466.12 L 1235.6 369.513 C 1178.41 353.192 1114.19 335.962 1057.66 317.886 C 1089.65 304.711 1127.07 291.504 1159.89 279.86 C 1202.35 264.799 1246.58 247.262 1289.13 233.089 z" fill="rgb(253,251,245)" transform="translate(0,0)"></path>
<path d="M 0 1238.69 C 120.103 1240.38 246.103 1254.64 359.533 1296.08 C 378.238 1302.91 405.713 1312.46 419.56 1326.78 C 438.725 1346.61 446.989 1379 446.834 1405.98 C 446.788 1414.1 445.28 1421.94 444.62 1429.83 C 476.761 1428.72 544.015 1423.79 569.923 1445.68 C 583.526 1457.17 587.666 1492.48 590.658 1509.96 C 594.667 1532.61 598.263 1555.34 601.444 1578.12 C 607.249 1620.01 613.61 1701.39 641.591 1732.91 C 653.956 1746.84 710.388 1767.22 731.064 1775.68 C 799.501 1803.39 867.472 1832.24 934.948 1862.21 C 991.567 1887.46 1097.26 1929.78 1118.93 1993.17 C 1146.68 1981.88 1178.51 1966.43 1205.79 1953.57 L 1337.17 1891.84 L 1789.63 1679.26 L 1960.3 1598.65 L 2008.52 1576.42 C 2015.31 1573.27 2032.86 1562.87 2039.75 1564.52 C 2038.57 1568.03 2030.26 1572.01 2026.69 1573.66 C 1987.88 1591.61 1948.62 1609.09 1910.02 1627.49 L 1484.12 1828.33 L 1294.53 1917.22 L 1184.43 1968.81 C 1164.31 1978.15 1141.39 1989.55 1121.03 1997.73 C 1126.45 2019.06 1127.4 2025.74 1126.71 2048 L 1121.61 2048 L 1031.27 2048 L 1026.34 2048 L 994.634 2048 L 984.269 2048 L 795.082 2048 L 789.06 2048 L 688.017 2048 L 682.533 2048 L 519.16 2048 L 512.804 2048 L 504.75 2048 L 498.533 2048 L 442.161 2048 L 434.667 2048 L 332.066 2048 L 326.431 2048 L 61.3027 2048 L 55.6954 2048 L 20.589 2048 L 15.6201 2048 L 0 2048 L 0 2017.76 L 0 2013.86 L 0 1934.84 L 0 1821.73 L 0 1817.34 L 0 1737.19 L 0 1731.5 L 0 1654.45 L 0 1649.36 L 0 1589.36 L 0 1584.56 L 0 1575.33 L 0 1573.78 L 0 1563.06 L 0 1557.53 L 0 1488.7 L 0 1483.46 L 0 1368.24 L 0 1358.92 L 0 1243.32 L 0 1238.69 z" fill="rgb(0,0,0)" transform="translate(0,0)"></path>
<path d="M 0 1488.7 C 42.0843 1471.8 83.6821 1450.37 126.362 1434.25 C 136.944 1430.26 148.842 1423.1 159.749 1418.32 C 192.17 1404.42 224.798 1391 257.62 1378.07 C 304.599 1359.23 342.311 1344.09 390.966 1329.42 C 401.634 1354.7 407.075 1371.57 408.357 1399.46 C 349.109 1412.94 288.251 1430.8 231.199 1451.62 C 202.277 1462.17 174.1 1475.34 145.999 1487.94 C 96.8932 1510.21 48.218 1533.41 0 1557.53 L 0 1488.7 z" fill="rgb(253,251,245)" transform="translate(0,0)"></path>
<path d="M 519.16 2048 C 535.683 2032.17 552.105 2019.58 569.349 2005.08 C 626 1957.45 683.814 1920.79 747.362 1883.36 C 775.325 1896.2 801.979 1908.85 828.658 1924.41 C 776.215 1960.98 727.295 2002.35 682.533 2048 L 519.16 2048 z" fill="rgb(206,192,165)" transform="translate(0,0)"></path>
<path d="M 2.27374e-13 1563.06 C 28.8178 1548.68 57.8181 1534.66 86.9939 1521.02 C 112.153 1509.03 131.95 1497.23 159.972 1493.37 C 203.046 1487.43 241.979 1474.63 283.254 1462.61 C 318.029 1452.48 366.383 1442.63 402.463 1439.45 C 396.43 1471.93 396.562 1495.26 397.235 1527.82 C 361.185 1539.6 331.363 1554.21 297.587 1571.04 C 315.108 1516.73 289.711 1493.31 241.282 1524.77 C 233.154 1530.05 224.081 1537.18 216.028 1541.98 C 135.423 1537.02 75.3013 1548.17 0 1573.78 L 0 1563.06 z" fill="rgb(253,251,245)" transform="translate(0,0)"></path>
<path d="M 0 1243.32 C 7.18686 1243.65 15.2417 1243.83 22.3413 1244.39 C 66.564 1282.93 95.3129 1335.17 115.638 1389.85 C 119.914 1401.36 123.522 1416.94 127.033 1429.13 C 100.779 1439.78 71.3113 1451.34 45.7185 1463.01 C 35.1059 1424.74 21.4387 1392.67 0 1358.92 L 0 1243.32 z" fill="rgb(206,192,165)" transform="translate(0,0)"></path>
<path d="M 683.2 1857.86 C 702.641 1865.82 722.136 1873.65 741.683 1881.35 C 677.785 1918.89 619.203 1957.64 562.296 2005.39 C 545.856 2019.18 528.059 2032.96 512.804 2048 L 504.75 2048 C 498.419 2039.65 479.835 2027.33 470.408 2019.11 C 538.17 1955.11 605.027 1907.74 683.2 1857.86 z" fill="rgb(253,251,245)" transform="translate(0,0)"></path>
<path d="M 46.6155 2000.71 C 60.613 1997.9 80.5426 1994.52 94.5631 1993.24 C 141.286 1988.94 249.958 1987.44 291.483 2005.46 C 300.785 2020.13 313.876 2035.8 326.431 2048 L 61.3027 2048 C 55.0319 2033.1 49.3195 2016.68 46.6155 2000.71 z" fill="rgb(206,192,165)" transform="translate(0,0)"></path>
<path d="M 688.017 2048 C 718.374 2018.75 748 1989.96 781.611 1964.43 C 798.479 1951.62 814.66 1938.05 832.873 1927.04 C 850.761 1937.38 873.352 1949.69 890.015 1961.27 C 857.766 1985.76 815.52 2016.93 789.06 2048 L 688.017 2048 z" fill="rgb(253,251,245)" transform="translate(0,0)"></path>
<path d="M 795.082 2048 C 821.024 2019.59 861.697 1984.9 893.958 1964.19 C 929.072 1987.64 959.806 2013.06 984.269 2048 L 795.082 2048 z" fill="rgb(206,192,165)" transform="translate(0,0)"></path>
<path d="M 0 1589.36 C 53.4129 1581.44 109.583 1577.93 162.92 1589.26 C 144.318 1607.13 127.269 1626.55 111.957 1647.3 C 85.1686 1642.95 57.9197 1642.19 30.9304 1645.04 C 20.4301 1646.17 9.97388 1648.26 0 1649.36 L 0 1589.36 z" fill="rgb(253,251,245)" transform="translate(0,0)"></path>
<path d="M 299.887 2010.84 C 316.184 1990.82 326.251 1968.79 346.03 1947.21 C 371.709 1983.63 400.245 2019.41 434.667 2048 L 332.066 2048 C 320.448 2035.63 310.109 2024.47 299.887 2010.84 z" fill="rgb(206,192,165)" transform="translate(0,0)"></path>
<path d="M 0 1654.45 C 30.7327 1648.1 77.0996 1644.52 108.57 1651.33 C 94.9626 1668.22 65.9058 1709.67 57.874 1729.07 C 37.5305 1729.18 20.2642 1730.06 0 1731.5 L 0 1654.45 z" fill="rgb(206,192,165)" transform="translate(0,0)"></path>
<path d="M 0 1575.33 C 3.12688 1577.42 3.48993 1577.6 5.00084 1581.03 L 5.97527 1581.06 C 6.7848 1576.82 6.00728 1577.89 8.52109 1574.9 C 83.4347 1551.54 130.232 1542.62 210.187 1546.21 C 198.864 1555.62 176.799 1574.81 167.358 1585.85 C 157.247 1583.34 146 1582.37 135.622 1581.08 C 89.0266 1575.32 46.2944 1577.29 0 1584.56 L 0 1575.33 z" fill="rgb(206,192,165)" transform="translate(0,0)"></path>
<path d="M 1021.16 2032.79 C 1050.87 2016.73 1080.42 2001.01 1111.46 1987.61 C 1120.8 2012.16 1122.63 2021.43 1121.61 2048 L 1031.27 2048 C 1027.98 2042.88 1024.61 2037.81 1021.16 2032.79 z" fill="rgb(253,251,245)" transform="translate(0,0)"></path>
<path d="M 0 1737.19 C 17.5619 1734.47 36.662 1733.84 54.4819 1733.93 C 45.5146 1751.5 25.1955 1796.34 20.2087 1814.65 C 12.6877 1815.3 7.44535 1816.03 0 1817.34 L 0 1737.19 z" fill="rgb(253,251,245)" transform="translate(0,0)"></path>
<path d="M 0 1368.24 C 20.1776 1404.16 31.3849 1423.07 41.5287 1464.86 L 0 1483.46 L 0 1368.24 z" fill="rgb(253,251,245)" transform="translate(0,0)"></path>
<path d="M 12.5385 2011.99 C 22.0924 2008.62 32.4908 2004.69 42.1756 2001.99 C 45.3927 2017.93 50.5409 2032.63 55.6954 2048 L 20.589 2048 C 17.2193 2035.04 14.6964 2025.22 12.5385 2011.99 z" fill="rgb(206,192,165)" transform="translate(0,0)"></path>
<path d="M 0 1821.73 C 6.08786 1821.04 12.997 1820.09 19.0338 1819.64 C 12.5284 1845.07 7.00028 1869.42 3.78308 1895.58 C 2.1532 1908.83 2.07308 1921.52 1.00025 1934.56 L 0 1934.84 L 0 1821.73 z" fill="rgb(206,192,165)" transform="translate(0,0)"></path>
<path d="M 467.13 2022.39 C 474.599 2028.71 493.299 2042.72 498.533 2048 L 442.161 2048 C 450.266 2039.26 458.592 2030.72 467.13 2022.39 z" fill="rgb(253,251,245)" transform="translate(0,0)"></path>
<path d="M 0 2017.76 C 3.38818 2016.42 5.2002 2015.15 8.52811 2015.41 C 10.8297 2025.61 12.9925 2038.24 15.6201 2048 L 0 2048 L 0 2017.76 z" fill="rgb(206,192,165)" transform="translate(0,0)"></path>
<path d="M 0 1934.84 L 1.00025 1934.56 C 2.64027 1960.01 4.28621 1983.7 7.57362 2009.09 C 5.29083 2010.49 2.09718 2012.34 0 2013.86 L 0 1934.84 z" fill="rgb(253,251,245)" transform="translate(0,0)"></path>
<path d="M 994.634 2048 C 1002.04 2043.34 1009.14 2038.87 1016.76 2034.54 C 1019.52 2038.41 1023.88 2044.14 1026.34 2048 L 994.634 2048 z" fill="rgb(253,251,245)" transform="translate(0,0)"></path>
<path d="M 543.67 1786.8 C 547.634 1787.52 574.549 1806.36 582.342 1810.64 C 614.103 1828.06 645.137 1842.04 678.307 1856.21 C 611.676 1897.22 548.59 1943.73 489.711 1995.25 C 482.189 2001.97 474.814 2008.85 467.591 2015.88 C 431.703 1982.18 404.24 1954.75 376.015 1914.01 C 424.276 1865.37 485.964 1823.4 543.67 1786.8 z" fill="rgb(206,192,165)" transform="translate(0,0)"></path>
<path d="M 57.3259 1817.97 C 113.498 1818.48 187.763 1824.8 235.314 1855.85 C 241.127 1891.94 244.751 1907 256.987 1941.36 C 252.212 1939.58 246.831 1938.01 241.932 1936.46 C 179.375 1922.19 103.833 1921 39.9524 1925.67 C 42.1052 1881.76 46.0978 1860.53 57.3259 1817.97 z" fill="rgb(206,192,165)" transform="translate(0,0)"></path>
<path d="M 476.572 1726.83 C 479.445 1726.97 484.536 1733.74 486.91 1736.25 C 503.824 1754.16 521.594 1768.35 541.017 1783.33 C 484.12 1817.6 430.752 1857.42 381.69 1902.2 L 373.24 1910.23 C 355.975 1889.56 336.643 1853.4 324.212 1829.53 C 377.238 1789.89 419.816 1760.16 476.572 1726.83 z" fill="rgb(253,251,245)" transform="translate(0,0)"></path>
<path d="M 94.737 1247.65 C 130.06 1249.91 165.104 1254.79 200.064 1260.18 C 210.199 1261.74 220.356 1263.27 230.313 1265.76 C 250.537 1292.87 262.214 1335.56 268.603 1368.23 C 259.485 1372.76 247.875 1377.16 238.308 1381.07 L 166.714 1409.87 C 153.41 1348.72 132.668 1297.82 94.737 1247.65 z" fill="rgb(206,192,165)" transform="translate(0,0)"></path>
<path d="M 70.4097 1928.56 C 117.947 1926.2 216.55 1928.64 259.911 1947.72 C 268.657 1964.95 277.072 1982.38 286.591 1999.19 C 274.487 1994.88 264.359 1993.21 251.826 1991.18 C 193.237 1983.42 103.841 1983.1 46.4881 1996.6 C 42.2451 1973.94 40.6841 1953.6 40.0924 1930.66 C 50.5576 1929.49 59.9323 1929.05 70.4097 1928.56 z" fill="rgb(253,251,245)" transform="translate(0,0)"></path>
<path d="M 404.738 1593.93 C 406.816 1595.84 410.629 1610.05 411.939 1613.89 C 418.367 1632.58 426.534 1650.63 436.332 1667.8 C 394.707 1691.69 345.866 1725.26 308.148 1754.21 L 298.572 1761.46 C 289.134 1733.75 285.944 1702.37 283.875 1673.3 C 309.9 1648.9 373.34 1610.63 404.738 1593.93 z" fill="rgb(253,251,245)" transform="translate(0,0)"></path>
<path d="M 1003.1 1899.17 C 1043.71 1917 1086.09 1944.88 1109.26 1983.32 C 1083.77 1994.26 1050.24 2012.08 1025.45 2025.24 L 1018.34 2028.93 C 985.316 1994.6 961.219 1973.52 921.795 1945.24 C 949.651 1926.58 972.151 1912.51 1003.1 1899.17 z" fill="rgb(206,192,165)" transform="translate(0,0)"></path>
<path d="M 93.6855 1735.91 C 139.215 1741.66 195.769 1751.44 231.879 1780.93 C 231.706 1807.46 232.11 1823.37 234.39 1849.63 C 226.292 1844.96 220.465 1841.93 211.976 1838.01 C 170.556 1819.72 103.779 1814.69 58.8206 1813.08 C 67.9351 1786.3 79.6107 1760.45 93.6855 1735.91 z" fill="rgb(253,251,245)" transform="translate(0,0)"></path>
<path d="M 437.262 1671.78 C 441.259 1673.32 460.862 1706.32 466.652 1712.07 C 468.039 1713.45 473.286 1720.62 474.812 1722.56 C 427.499 1748.66 376.521 1786.06 332.686 1817.81 L 322.104 1825.81 C 314.848 1809.35 304.403 1783.21 300.02 1766.42 C 305.213 1762.79 310.863 1758.23 315.839 1754.25 C 354.256 1723.51 395.639 1697.85 437.262 1671.78 z" fill="rgb(206,192,165)" transform="translate(0,0)"></path>
<path d="M 584.224 1535.37 C 586.695 1534.91 586.568 1534.98 589.062 1535.44 C 592.709 1541.13 597.457 1585.59 598.681 1595.6 C 560.969 1604.85 509.043 1628.65 474.784 1646.08 L 471.489 1639.72 C 459.974 1616.44 453.858 1599.43 446.124 1574.9 C 487.732 1557.36 539.47 1541.4 584.224 1535.37 z" fill="rgb(253,251,245)" transform="translate(0,0)"></path>
<path d="M 147.22 1656.86 C 183.003 1669.1 213.54 1677.37 242.735 1704.33 C 237.296 1728.08 233.918 1752.24 232.638 1776.57 C 224.663 1769.38 218.965 1765.97 209.569 1760.98 C 173.665 1743.5 134.917 1737.58 95.9753 1731.53 C 111.29 1703.57 127.447 1681.54 147.22 1656.86 z" fill="rgb(206,192,165)" transform="translate(0,0)"></path>
<path d="M 636.452 1735.95 L 637.444 1736.11 C 645.004 1742.27 653.186 1747.63 661.859 1752.1 C 670.775 1756.61 700.571 1768.1 711.059 1772.31 C 733.649 1781.39 763.1 1795.05 785.478 1802.19 C 764.358 1810.62 743.743 1820.26 723.737 1831.07 L 714.894 1835.9 C 667.469 1816.61 621.822 1793.21 578.473 1765.97 C 597.146 1755.75 617.449 1745.85 636.452 1735.95 z" fill="rgb(206,192,165)" transform="translate(0,0)"></path>
<path d="M 397.054 1532.19 C 397.962 1533.18 403.288 1582.75 404.555 1589.01 C 363.391 1610.35 324.333 1635.53 287.899 1664.21 L 285.402 1665.98 L 284.423 1665.36 C 279.858 1648.73 287.92 1594.52 294.54 1576.74 C 305.341 1572.65 324.851 1562.21 336.421 1556.75 C 356.209 1547.55 376.445 1539.35 397.054 1532.19 z" fill="rgb(206,192,165)" transform="translate(0,0)"></path>
<path d="M 469.311 1433.42 C 492.378 1431.39 540.813 1433.66 560.459 1445.43 C 575.418 1454.39 577.802 1469.29 581.621 1484.79 C 566.579 1487.2 551.55 1489.7 536.534 1492.27 C 504.692 1497.7 473.125 1504.65 441.939 1513.07 C 443.401 1482.41 445.179 1464.7 450.764 1434.65 L 469.311 1433.42 z" fill="rgb(253,251,245)" transform="translate(0,0)"></path>
<path d="M 30.0303 1244.71 C 50.0804 1244.92 67.3826 1245.78 87.364 1247.19 C 125.445 1287.23 151.019 1358.12 162.794 1411.86 L 154.753 1415.45 L 130.764 1426.06 C 112.876 1356.53 81.8405 1295.08 30.0303 1244.71 z" fill="rgb(253,251,245)" transform="translate(0,0)"></path>
<path d="M 293.081 1855.95 C 295.546 1858.75 298.778 1865.57 300.562 1869.07 C 313.626 1894.69 328.309 1919.13 343.292 1943.67 C 323.897 1966.77 315.176 1979.79 298.934 2005.4 C 294.226 2003.91 288.693 1993.22 286.266 1988.87 C 270.15 1960 256.569 1930.6 248.104 1898.56 C 263.093 1881.35 275.605 1870.23 293.081 1855.95 z" fill="rgb(253,251,245)" transform="translate(0,0)"></path>
<path d="M 596.34 1601.13 L 598.275 1601.25 C 599.864 1603.42 606.989 1651.4 608.28 1658.35 C 572.449 1672.75 546.494 1684.66 512.45 1702.19 L 503.219 1690.82 C 493.086 1678.07 484.102 1664.45 476.371 1650.11 C 517.455 1631.24 551.403 1612.81 596.34 1601.13 z" fill="rgb(206,192,165)" transform="translate(0,0)"></path>
<path d="M 576.902 1490.39 C 579.312 1490.05 578.678 1490.16 581.183 1490.55 C 584.753 1495.9 587.853 1522.45 589.343 1530.73 C 555.316 1532.56 485.329 1554.19 453.763 1566.89 C 450.014 1568.5 449.563 1568.73 445.587 1569.35 C 441.705 1562.3 441.708 1527.26 441.658 1517.68 C 486.043 1505.42 531.236 1496.3 576.902 1490.39 z" fill="rgb(206,192,165)" transform="translate(0,0)"></path>
<path d="M 606.568 1663.84 L 608.076 1663.96 C 610.322 1666.07 611.146 1672.39 611.919 1675.98 C 616.245 1696.06 622.704 1714.47 633.061 1732.32 C 614.539 1742.65 593.552 1752.81 574.523 1762.48 L 559.027 1749.33 C 540.826 1733.37 531.357 1723.34 515.724 1705.16 C 548.234 1688.94 572.037 1677.71 606.568 1663.84 z" fill="rgb(253,251,245)" transform="translate(0,0)"></path>
<path d="M 850.86 1830.9 C 854.673 1831.74 874.162 1840.5 878.373 1842.34 C 897.487 1850.52 916.463 1859.01 935.292 1867.82 C 910.78 1876.42 883.796 1890.79 861.555 1904.07 C 859.388 1905.34 859.3 1905.31 856.946 1906.23 C 852.495 1904.8 830.243 1892.57 824.681 1889.67 C 809.481 1881.79 794.052 1874.37 778.413 1867.4 C 802.595 1854.84 826.653 1843.21 850.86 1830.9 z" fill="rgb(206,192,165)" transform="translate(0,0)"></path>
<path d="M 200.49 1598 C 224.031 1606.71 245.085 1616.55 261.001 1636.34 C 253.301 1659.35 250.197 1675.71 244.132 1698.56 C 237.65 1692.93 233.565 1690.19 226.327 1685.43 C 198.164 1669.4 181.717 1662.61 150.845 1653.31 C 166.54 1634.13 183.106 1615.67 200.49 1598 z" fill="rgb(253,251,245)" transform="translate(0,0)"></path>
<path d="M 372.478 1917.89 C 375.431 1920.93 379.477 1926.88 382.1 1930.44 C 406.056 1962.9 434.721 1991.4 463.951 2019.18 L 439.683 2043.76 C 435.73 2043.9 428.286 2036.87 425.338 2034.17 C 396.185 2007.4 370.528 1975.79 348.88 1942.72 C 356.89 1934.73 364.725 1926.17 372.478 1917.89 z" fill="rgb(206,192,165)" transform="translate(0,0)"></path>
<path d="M 938.199 1870.98 C 946.294 1869.92 989.077 1891.83 998.382 1896.89 C 969.717 1908.4 947.118 1923.25 921.551 1940.25 C 920.845 1940.71 917.753 1942.42 917.021 1941.95 C 908.44 1936.43 899.876 1930.88 891.186 1925.54 C 881.7 1919.72 872.047 1914.17 862.241 1908.9 C 887.884 1893.72 910.498 1881.77 938.199 1870.98 z" fill="rgb(253,251,245)" transform="translate(0,0)"></path>
<path d="M 407.935 1404.28 C 409.768 1408.6 407.058 1428.1 406.414 1434 C 368.059 1438.42 330.059 1445.52 292.691 1455.23 C 268.615 1461.66 244.508 1470.23 220.616 1476.37 C 199.609 1481.77 178.052 1484.65 156.502 1490.17 L 155.889 1489.75 C 157.771 1487.64 173.999 1480.27 177.344 1478.81 C 249.5 1447.23 330.767 1420.66 407.935 1404.28 z" fill="rgb(206,192,165)" transform="translate(0,0)"></path>
<path d="M 237.973 1267.71 C 257.553 1270.46 277.921 1275.81 296.844 1281.57 C 308.967 1309.69 312.19 1320.68 316.43 1350.12 L 306.066 1354 C 295.094 1358.23 284.098 1362.39 273.079 1366.49 C 263.763 1321.94 258.809 1308.78 237.973 1267.71 z" fill="rgb(253,251,245)" transform="translate(0,0)"></path>
<path d="M 573.59 1768.79 C 576.704 1769.03 584.883 1774.72 587.895 1776.71 C 626.154 1801.97 667.113 1819.55 708.793 1838.39 C 700.838 1842.47 692.225 1847.81 684.45 1852.39 C 680.81 1853.34 667.608 1846.82 663.405 1845.07 C 622.61 1828.06 585.268 1808.72 548.78 1783.8 C 557.014 1779.01 565.415 1773.75 573.59 1768.79 z" fill="rgb(206,192,165)" transform="translate(0,0)"></path>
<path d="M 791.002 1805.1 C 807.952 1811.54 829.438 1821.4 845.939 1828.86 C 821.891 1840.46 797.96 1852.29 774.148 1864.37 C 756.027 1856.74 736.869 1846.92 719.084 1838.23 C 740.093 1825.99 768.223 1813.39 791.002 1805.1 z" fill="rgb(253,251,245)" transform="translate(0,0)"></path>
<path d="M 255.722 1550.78 C 266.16 1551.16 285.127 1560.84 294.218 1565.67 C 289.685 1578.64 282.778 1589.33 276.607 1601.56 C 271.556 1611.57 267.54 1621.31 263.507 1631.75 C 258.976 1626.49 256.872 1624.65 251.564 1620.15 C 236.83 1607.45 221.291 1601.11 203.644 1594 C 221.15 1576.96 236.084 1564.86 255.722 1550.78 z" fill="rgb(206,192,165)" transform="translate(0,0)"></path>
<path d="M 49.4317 1818.49 L 51.4144 1818.83 C 52.3171 1821.27 48.0079 1836.01 47.019 1839.76 C 39.3811 1868.67 36.8664 1896.5 35.1793 1926.29 C 26.855 1927.14 16.7767 1929.19 8.40557 1930.66 C 7.1538 1930.65 7.90714 1930.8 6.44028 1929.45 C 7.9051 1887.59 12.5413 1859.17 23.6991 1819.01 L 49.4317 1818.49 z" fill="rgb(206,192,165)" transform="translate(0,0)"></path>
<path d="M 433.561 1435.39 C 435.707 1434.9 443.496 1434.8 446.13 1434.71 C 440.197 1466.86 438.616 1482.19 436.995 1514.65 L 412.5 1522.03 L 401.819 1525.57 C 400.729 1496.51 402.376 1467.41 406.739 1438.66 L 433.561 1435.39 z" fill="rgb(253,251,245)" transform="translate(0,0)"></path>
<path d="M 302.837 1283.04 C 335.406 1290.77 374.8 1304.92 403.923 1321.19 L 384.753 1326.61 C 363.85 1332.48 341.629 1340.53 321.175 1347.88 C 316 1319.5 312.563 1309.69 302.837 1283.04 z" fill="rgb(206,192,165)" transform="translate(0,0)"></path>
<path d="M 916.49 1948.71 C 921.458 1949.08 948.385 1970.71 953.58 1974.81 C 975.113 1991.79 994.997 2011.2 1014.02 2030.9 C 1007.42 2034.3 1000.9 2038.29 994.5 2042.08 C 992.655 2043.33 991.333 2043.95 989.339 2044.96 C 986.221 2043.78 967.067 2020.55 963.342 2016.28 C 942.915 1992.87 923.307 1978.85 898.032 1961.41 C 904.249 1957.27 910.402 1953.04 916.49 1948.71 z" fill="rgb(206,192,165)" transform="translate(0,0)"></path>
<path d="M 319.224 1833.69 C 320.67 1834.07 321.542 1835.29 322.219 1836.58 C 336.982 1864.59 351.549 1888.54 369.91 1914.34 L 346.92 1938.83 C 341.445 1935.49 302.585 1863.55 297.266 1852.07 C 304.056 1845.95 312.122 1839.57 319.224 1833.69 z" fill="rgb(253,251,245)" transform="translate(0,0)"></path>
<path d="M 268.09 1793.7 C 269.802 1794.74 288.882 1844.61 291.852 1851.12 C 278.794 1862.37 266.014 1873.31 253.832 1885.53 L 246.755 1892.95 C 241.704 1870.77 239.316 1849.16 237.126 1826.57 C 246.232 1814.63 257.373 1804.21 268.09 1793.7 z" fill="rgb(206,192,165)" transform="translate(0,0)"></path>
<path d="M 440.998 1577.02 C 442.932 1579.32 448.421 1596.56 449.904 1600.82 C 455.8 1617.75 462.776 1632.33 470.544 1648.41 C 460.277 1654.02 450.687 1659.81 440.188 1665.29 C 426.376 1639.6 418.11 1620.44 410.235 1592.03 C 420.55 1586.5 430.398 1581.95 440.998 1577.02 z" fill="rgb(253,251,245)" transform="translate(0,0)"></path>
<path d="M 510.236 1707.83 C 512.506 1708.39 519.817 1717.35 522.073 1719.91 C 536.764 1736.59 553.262 1750.74 570.057 1765.26 C 561.646 1770.56 553.133 1775.69 544.524 1780.65 C 518.627 1760.56 503.843 1747.35 481.787 1723.64 L 510.236 1707.83 z" fill="rgb(253,251,245)" transform="translate(0,0)"></path>
<path d="M 278.581 1676.9 C 280.034 1678.8 280.425 1688.42 280.763 1691.64 C 283.242 1715.27 286.881 1742.56 294.712 1764.97 C 290.877 1768.48 274.783 1782.72 271.074 1783.47 C 262.698 1751.71 259.171 1731.42 252.34 1699.99 C 260.003 1691.63 269.65 1683.89 278.581 1676.9 z" fill="rgb(253,251,245)" transform="translate(0,0)"></path>
<path d="M 114.407 1651.84 C 123.938 1652.9 132.537 1654.57 141.93 1656.33 C 120.116 1683.22 107.978 1701.6 90.9689 1731.28 C 81.5021 1730.18 72 1729.41 62.4798 1728.96 C 77.1613 1700.56 94.8418 1676.88 114.407 1651.84 z" fill="rgb(206,192,165)" transform="translate(0,0)"></path>
<path d="M 59.7708 1733.92 C 69.2892 1734.13 78.8017 1734.54 88.3009 1735.18 C 75.1635 1760.16 62.8222 1786.55 54.2863 1813.47 C 44.9485 1814.02 34.5563 1814.02 25.1299 1814.23 C 36.1491 1784.93 45.2798 1761.46 59.7708 1733.92 z" fill="rgb(253,251,245)" transform="translate(0,0)"></path>
<path d="M 471.347 1652.82 C 473.651 1653.58 476.38 1658.91 477.889 1661.42 C 487.059 1676.69 497.42 1690.07 508.346 1704.09 L 480.38 1719.42 L 478.975 1719.86 C 471.592 1715.56 448.167 1678.17 443.435 1669.2 C 452.773 1663.8 462.077 1658.34 471.347 1652.82 z" fill="rgb(206,192,165)" transform="translate(0,0)"></path>
<path d="M 33.3608 1931.42 C 33.8998 1931.77 34.4387 1932.12 34.9777 1932.47 C 36.3875 1956.79 38.01 1973.41 41.5996 1997.61 C 32.1497 2000.39 22.794 2003.47 13.5477 2006.87 L 12.8641 2006.74 C 9.20855 2001.92 6.5933 1946.17 5.97932 1936.24 C 15.8422 1934.15 23.2655 1932.62 33.3608 1931.42 z" fill="rgb(253,251,245)" transform="translate(0,0)"></path>
<path d="M 433.329 1520.03 C 435.639 1519.54 434.518 1519.44 436.693 1520.3 C 437.636 1538.6 437.366 1553.75 440.891 1572.14 C 430.543 1576.66 420.021 1581.79 409.777 1586.62 L 409.043 1586.19 C 405.073 1578.51 402.936 1539.99 402.242 1529.94 C 412.204 1527.07 423.363 1523.23 433.329 1520.03 z" fill="rgb(206,192,165)" transform="translate(0,0)"></path>
<path d="M 168.843 1590.16 C 177.905 1592.08 186.949 1594.08 195.973 1596.16 C 176.791 1615.92 163.478 1630.68 145.725 1651.82 C 136.351 1650.28 126.957 1648.86 117.545 1647.58 C 132.401 1626.63 150.958 1608.56 168.843 1590.16 z" fill="rgb(253,251,245)" transform="translate(0,0)"></path>
<path d="M 248.389 1703.63 C 251.49 1712.37 253.773 1732.3 255.921 1742.66 C 259.265 1758.78 262.849 1772.42 267.348 1788.29 C 259.66 1795.02 253.308 1801.41 246.134 1808.63 L 237.028 1819.18 C 236.316 1786.34 237.939 1734.71 248.389 1703.63 z" fill="rgb(253,251,245)" transform="translate(0,0)"></path>
<path d="M 295.748 1770.09 C 297.618 1773.3 301.627 1785.81 303.193 1789.99 C 308.062 1803 313.008 1815.96 317.971 1828.94 C 310.339 1834.95 302.884 1841.18 295.615 1847.63 C 290.313 1841.49 275.692 1798.78 272.71 1789.3 C 280.181 1782.65 287.864 1776.24 295.748 1770.09 z" fill="rgb(206,192,165)" transform="translate(0,0)"></path>
<path d="M 403.124 1325.05 C 427.824 1323.82 438.29 1373.87 441.665 1392.36 L 429.224 1395.19 C 423.861 1396.56 418.614 1397.65 413.205 1398.78 C 411.665 1379.38 409.299 1358.94 400.638 1341.26 C 398.693 1337.29 397.079 1332.85 395.814 1328.63 C 397.972 1326.14 399.488 1326.32 403.124 1325.05 z" fill="rgb(253,251,245)" transform="translate(0,0)"></path>
<path d="M 771.812 1870.85 C 780.226 1870.3 842.413 1903.5 852.904 1909.19 C 846.481 1913.04 839.926 1917.33 833.57 1921.35 C 831.945 1921.53 818.958 1913.92 816.436 1912.54 C 795.67 1901.31 774.54 1890.77 753.08 1880.94 L 771.812 1870.85 z" fill="rgb(206,192,165)" transform="translate(0,0)"></path>
<path d="M 856.365 1911.81 C 864.344 1912.99 905.173 1939.85 913.832 1945.67 C 907.844 1949.85 901.06 1954.1 894.906 1958.14 C 893.233 1958.09 844.046 1928.31 837.2 1924.43 C 843.739 1919.6 849.414 1916.09 856.365 1911.81 z" fill="rgb(253,251,245)" transform="translate(0,0)"></path>
<path d="M 218.031 1546.05 C 228.366 1547.18 238.707 1548.26 249.053 1549.29 C 232.247 1561.78 216.375 1575.48 201.563 1590.28 L 199.98 1591.76 C 196.969 1591.93 178.432 1586.91 173.39 1586.1 C 187.936 1571.47 202.197 1559.29 218.031 1546.05 z" fill="rgb(206,192,165)" transform="translate(0,0)"></path>
<path d="M 713.026 1840.82 C 722.604 1843.3 757.57 1862.02 768.296 1867.2 C 762.93 1870.73 753.617 1875.18 747.624 1878.25 C 727.843 1870.78 708.188 1862.98 688.669 1854.86 L 713.026 1840.82 z" fill="rgb(253,251,245)" transform="translate(0,0)"></path>
<path d="M 283.628 1596.78 C 281.339 1626.05 278.435 1639.76 279.13 1670.94 C 268.029 1678.99 259.942 1685.53 250.237 1695.16 C 250.472 1676.46 274.77 1613.94 283.628 1596.78 z" fill="rgb(206,192,165)" transform="translate(0,0)"></path>
<path d="M 275.526 1515.17 C 280.669 1514.76 285.618 1515.72 289.752 1518.95 L 289.926 1520.88 C 273.897 1530.38 268.546 1534.31 253.719 1545.81 C 250.203 1545.14 245.853 1544.68 242.239 1544.2 L 224.091 1542.51 C 240.708 1530.02 254.583 1519.28 275.526 1515.17 z" fill="rgb(253,251,245)" transform="translate(0,0)"></path>
<path d="M 440.331 1397.28 L 441.53 1397.67 C 442.997 1404.24 440.583 1422.2 439.725 1429.73 C 431.245 1430.89 422.747 1431.91 414.233 1432.79 L 413.055 1432.5 C 411.644 1430.14 413.04 1408.11 413.158 1403.48 C 422.139 1401.07 431.239 1399.22 440.331 1397.28 z" fill="rgb(206,192,165)" transform="translate(0,0)"></path>
<path d="M 294.161 1524.03 C 302.513 1529.69 297.918 1551.97 295.968 1560.32 C 289.499 1557.43 282.996 1554.62 276.461 1551.88 L 260.725 1546.54 C 270.556 1537.22 282.358 1530.43 294.161 1524.03 z" fill="rgb(253,251,245)" transform="translate(0,0)"></path>
<path d="M 1197.2 2048 C 1208.64 2041.86 1223.85 2035.53 1235.97 2029.95 L 1306.8 1997.17 L 1495.88 1909.37 L 1807.19 1762.4 C 1864.62 1734.66 1922.31 1707.47 1980.27 1680.84 C 1991.29 1675.72 2031.07 1655.35 2039.34 1654.69 L 2041.03 1655.97 C 2040.07 1658.72 2033.42 1661.44 2030.63 1662.73 C 2001.61 1676.12 1972.63 1689.59 1943.62 1702.99 L 1835.73 1753.91 C 1718.14 1809.59 1599.8 1867.41 1481.7 1921.67 L 1310.69 2000.86 C 1287.01 2011.76 1262.9 2022.03 1239.52 2033.64 C 1230.84 2037.95 1218.31 2043.27 1210.15 2048 L 1197.2 2048 z" fill="rgb(0,0,0)" transform="translate(0,0)"></path>
<path d="M 0 0 L 2048 0 L 2048 460.192 C 2045.73 459.575 2046.37 459.722 2044.31 458.363 C 2036.18 451.19 1930.31 420.345 1914.28 415.394 L 1519.2 295.949 C 1477.06 283.67 1434.98 271.164 1392.98 258.433 C 1358.83 248.432 1325.12 239.052 1291.26 228.123 C 1290.83 201.48 1292.99 10.6948 1289.09 1.06846 C 1286.16 3.90738 1285.36 13.6964 1285.42 17.8697 C 1286.29 75.7946 1285.69 133.755 1285.86 191.688 C 1285.89 203.659 1286.33 216.708 1285.05 228.492 C 1229.02 251.118 1168.96 270.136 1112.49 291.962 C 1093.83 299.172 1065.27 307.961 1048.11 315.685 C 1030.61 310.5 1012.8 304.982 995.27 300.254 C 975.532 294.93 952.22 285.016 933.006 296.419 C 905.151 312.951 888.424 343.996 875.277 372.331 C 815.58 348.617 749.21 299.529 684.694 305.515 C 586.023 314.671 657.754 379.028 709.298 393.201 C 755.939 406.025 795.784 409.768 842.263 417.127 C 828.091 424.004 799.725 433.65 783.873 439.858 C 739.098 457.597 694.225 475.089 649.257 492.332 C 505.071 548.842 360.306 603.867 214.987 657.397 L 101.432 700.154 C 68.2033 712.512 32.5649 725.331 0 738.873 L 0 0 z" fill="rgb(253,251,245)" transform="translate(0,0)"></path>
<path d="M 258.225 155.751 C 258.774 156.148 260.283 157.662 260.314 158.162 C 261.069 170.029 260.488 197.951 260.476 208.121 L 261.051 333.994 C 261.075 354.592 260.065 392.291 261.989 411.393 C 269.995 408.445 278.193 405.109 286.165 401.994 C 285.923 344.829 286.079 287.663 286.633 230.501 C 286.696 215.016 286.52 194.834 287.106 178.936 C 287.584 178.325 288.062 177.713 288.539 177.101 L 290.284 177.364 C 293.226 184.409 290.886 374.136 290.987 400.104 C 309.027 392.463 329.028 385.518 347.457 378.413 C 391.586 361.131 435.859 344.217 480.27 327.67 L 596.983 282.298 C 607.615 278.235 649.748 260.753 658.888 261.373 L 658.071 262.544 L 657.951 261.111 L 658.399 262.342 C 649.545 269.233 629.584 274.666 618.004 279.089 L 545.944 306.621 L 326.737 391.4 C 314.889 395.595 302.501 400.599 290.72 405.158 C 290.677 414.595 291.052 424.48 291.266 433.949 C 317.094 425.116 342.962 412.54 368.782 403.366 C 376.211 400.727 399.721 388.296 406.583 391.921 C 403.746 395.864 363.373 410.453 355.127 413.719 L 291.307 439.711 C 291.35 450.735 292.212 495.744 290.013 503.911 L 288.975 503.264 C 285.171 491.937 286.794 455.357 286.886 441.497 L 261.551 451.884 C 261.179 465.866 262.741 533.894 259.957 542.407 L 258.543 542.714 C 254.132 537.948 256.241 515.42 256.409 507.929 C 256.746 489.848 256.953 471.763 257.03 453.679 C 220.818 467.145 184.996 483.716 149.042 497.962 C 139.633 501.69 129.637 506.876 119.632 508.352 L 118.775 507.695 C 125.41 500.194 162.537 486.944 173.636 482.408 C 201.358 470.841 229.138 459.414 256.976 448.127 C 257.402 438.16 257.324 428.281 257.314 418.31 C 239.413 425.514 221.161 432.986 203.368 440.246 C 193.047 444.457 167.771 456.669 158.487 457.85 L 158.411 456.919 C 169.403 446.578 238.367 420.897 256.823 413.807 L 255.948 248.333 C 255.749 219.943 255.429 190.544 256.132 162.122 C 256.201 159.364 256.795 157.995 258.225 155.751 z" fill="rgb(0,0,0)" transform="translate(0,0)"></path>
<path d="M 284.111 407.953 L 285.141 408.111 C 287.945 411.389 287.128 430.199 287.148 435.744 L 263.484 445.548 L 262.978 445.577 L 261.888 444.495 C 261.108 436.144 261.434 425.248 261.455 416.68 L 284.111 407.953 z" fill="rgb(253,251,245)" transform="translate(0,0)"></path>
<path d="M 1160.53 657.502 C 1235.13 657.059 1309.66 661.985 1383.55 672.244 C 1524.13 692.86 1733.23 749.081 1836.65 850.07 C 1874.24 886.773 1903.75 936.774 1904.15 990.576 C 1904.56 1045.64 1878.34 1097.09 1840.16 1135.54 C 1805.07 1170.88 1763.05 1196.29 1719.04 1218.87 C 1544.19 1308.57 1337.5 1335.24 1143.16 1335.69 C 1047.43 1335.98 917.002 1321.13 823.81 1299.96 C 707.53 1273.55 564.375 1221.29 475.434 1139.73 C 435.565 1103.18 402.059 1049.68 401.036 994.488 C 400.089 943.322 423.409 895.9 458.976 860.381 C 579.251 740.27 801.941 688.765 964.731 669.591 C 1029.76 662.306 1095.1 658.271 1160.53 657.502 z" fill="rgb(253,251,245)" transform="translate(0,0)"></path>
<path d="M 1118.67 692.455 C 1202.31 690.136 1286 694.31 1369 704.942 C 1517.8 723.595 1688.08 761.629 1801.98 866.31 C 1839.61 900.892 1862.55 940.737 1865.6 992.668 C 1868.39 1040.13 1843.08 1083.92 1810.57 1117.15 C 1715.43 1214.39 1541.75 1265.53 1410.94 1286.94 C 1337.09 1298.59 1262.53 1305.16 1187.79 1306.62 C 1138.81 1306.98 1075.58 1306.14 1025.91 1301.51 C 853.804 1285.45 635.495 1241.16 503.402 1122.79 C 468.865 1091.84 441.018 1042.78 440.446 995.909 C 439.907 951.682 461.425 912.767 491.577 881.826 C 632.47 737.246 926.338 696.565 1118.67 692.455 z" fill="rgb(0,0,0)" transform="translate(0,0)"></path>
<path d="M 1114.93 697.445 C 1162.61 695.113 1223.98 697.33 1271.04 700.655 C 1414.97 711.645 1566.77 733.507 1696.76 799.49 C 1796.06 849.891 1905.1 945.614 1842.31 1067.06 C 1852.07 1013.89 1828.69 976.412 1795.99 936.514 C 1794.3 934.451 1793.47 933.605 1790.93 933.578 C 1790.04 935.924 1790.03 937.229 1791.77 939.316 C 1809.35 960.421 1824.07 980.413 1833.59 1006.85 C 1849.47 1050.96 1836.95 1083.3 1804.8 1115.34 C 1746.02 1173.93 1669.78 1209.71 1592.34 1236.76 C 1559.28 1175.24 1518.85 1147.39 1459.04 1114.76 C 1430.31 1099.29 1401.22 1084.49 1371.79 1070.38 C 1345.49 1057.64 1317.74 1044.02 1289.59 1035.84 C 1208.76 1012.37 1129.08 1030.09 1050.94 1053.13 C 1016.13 1063.64 977.401 1074.45 943.987 1088.37 C 883.568 1113.56 837.098 1159.84 800.864 1213.31 C 794.035 1223.38 782.108 1241.94 777.697 1252.88 C 692.627 1229.17 604.983 1195.72 533.93 1142.27 C 503.546 1119.41 476.066 1094.12 471.172 1054.31 C 462.878 986.818 514.451 930.388 564.653 892.75 C 572.862 886.595 597.334 872.692 601.005 867.834 C 599.782 867.236 599.284 866.631 597.986 867.218 C 557.681 885.419 512.847 925.673 490.035 962.534 C 464.816 1003.28 460.049 1030.76 470.487 1074.74 C 415.152 988.44 460.372 902.402 535.57 848.971 C 697.03 734.249 922.113 704.111 1114.93 697.445 z" fill="rgb(253,251,245)" transform="translate(0,0)"></path>
<path d="M 1012.78 739.416 C 1016.34 739.489 1014.95 738.814 1017.45 740.586 C 1013.74 744.565 988.083 746.04 981.324 746.827 C 963.276 748.918 945.287 751.485 927.374 754.525 C 853.216 767.01 777.631 786.527 707.387 813.764 C 685.238 822.353 663.8 832.557 642.267 842.589 C 641.884 842.724 639.59 842.955 639.101 843.014 L 638.57 842.076 C 642.248 836.737 658.545 829.918 664.673 826.934 C 703.257 808.147 743.985 794.597 785.099 782.58 C 859.239 760.128 935.565 745.658 1012.78 739.416 z" fill="rgb(0,0,0)" transform="translate(0,0)"></path>
<path d="M 724.293 838.255 C 727.865 838.999 728.171 839.506 728.734 843.14 C 730.909 857.187 732.06 871.386 733.764 885.5 C 736.259 906.164 739.861 926.68 744.554 946.958 C 758.365 1007.16 778.877 1064.06 810.317 1117.37 C 818.787 1131.73 833.211 1146.91 839.93 1160.34 C 837.597 1160.6 835.205 1160.19 833.654 1158.36 C 763.466 1075.48 731.431 940.865 724.293 838.255 z" fill="rgb(0,0,0)" transform="translate(0,0)"></path>
<path d="M 568.414 900.59 C 571.931 903.424 572.324 914.747 572.892 919.513 C 583.79 1010.64 624.453 1097.94 687.975 1164.24 C 697.437 1174.12 726.76 1196.73 732.547 1205.22 C 716.3 1205.08 664.99 1146.37 653.043 1130.85 C 612.066 1076.74 584.47 1013.7 572.509 946.887 C 569.91 932.833 566.578 914.599 568.414 900.59 z" fill="rgb(0,0,0)" transform="translate(0,0)"></path>
<path d="M 1738.05 908.654 L 1740.51 909.936 C 1743.37 913.621 1741.19 929.055 1740.86 934.628 C 1735.78 1018.16 1702.54 1136.52 1643.69 1196.97 L 1641.47 1196.49 C 1641.2 1194.75 1640.97 1193.9 1642.35 1192.4 C 1658.69 1174.61 1670.5 1156.02 1681.38 1134.27 C 1707.42 1081.34 1724.97 1024.65 1733.38 966.259 C 1735.76 948.992 1734.8 924.137 1738.05 908.654 z" fill="rgb(0,0,0)" transform="translate(0,0)"></path>
<path d="M 1456.15 765.237 C 1483.4 763.261 1646.53 809.524 1657.41 827.977 C 1650.01 829.691 1645.53 825.473 1638.75 822.448 C 1631.98 819.428 1625.44 816.326 1618.56 813.529 C 1582.47 799.051 1545.29 787.448 1507.38 778.828 C 1495.98 776.231 1484.54 773.885 1473.04 771.791 C 1468.38 770.958 1462.9 770.594 1458.47 769.403 C 1457.06 769.024 1456.96 767.33 1456.15 765.237 z" fill="rgb(0,0,0)" transform="translate(0,0)"></path>
<path d="M 1230.02 724.516 L 1232.64 726.604 C 1233.32 732.273 1232.29 747.155 1232.03 753.457 L 1230.21 803.153 C 1229.49 823.587 1228.9 844.025 1228.44 864.466 C 1228.27 871.97 1228.8 898.182 1225.64 902.558 C 1223.97 901.025 1224.27 901.29 1222.94 899.443 C 1221.35 883.634 1226.56 735.186 1230.02 724.516 z" fill="rgb(0,0,0)" transform="translate(0,0)"></path>
<path d="M 1258.77 748.15 C 1260.73 748.893 1260.3 748.756 1262.06 749.99 C 1262.35 761.8 1258.88 796.109 1257.04 808.122 C 1254.42 825.322 1255.13 873.941 1250.33 886.863 C 1243.98 881.56 1254.45 762.263 1258.77 748.15 z" fill="rgb(0,0,0)" transform="translate(0,0)"></path>
<path d="M 1185.35 1030.4 C 1190.06 1029.67 1196.14 1029.81 1200.95 1029.61 C 1274.77 1026.62 1339.23 1058.2 1402.91 1091.24 C 1477.57 1129.97 1546.91 1160.13 1587.58 1238.32 C 1455.3 1281.37 1326.62 1299.77 1187.25 1301.38 C 1050.59 1305.35 914.073 1289.42 781.989 1254.12 C 812.169 1197.41 857.332 1143.02 912.854 1109.76 C 947.495 1089.01 984.445 1078.94 1022.52 1066.96 C 1076.37 1050.01 1128.86 1034.93 1185.35 1030.4 z" fill="rgb(253,251,245)" transform="translate(0,0)"></path>
<path d="M 1254.7 1058.04 C 1270.14 1063.25 1294.15 1091.17 1303.75 1104.66 C 1336.45 1111.88 1365.88 1120.31 1395.51 1136.56 C 1399.28 1138.63 1404.21 1140.92 1405.82 1144.97 L 1404.06 1146.11 C 1398.38 1144.67 1393.3 1141.06 1388 1138.41 C 1362.25 1125.54 1336.54 1117.06 1308.53 1110.64 C 1320.94 1130.37 1329.05 1146.16 1338.67 1167.27 C 1385.31 1181.25 1428.6 1196 1467.61 1225.56 C 1470.95 1228.1 1479.34 1233.8 1480.02 1237.75 C 1471.28 1236.28 1463.13 1229 1456.19 1223.81 C 1437.69 1210.01 1417.99 1200.54 1396.7 1192 C 1378.36 1185.07 1359.81 1178.72 1341.06 1172.97 C 1346.25 1185.71 1359.29 1221.91 1358.93 1235.04 L 1357.46 1236 C 1353.26 1232.31 1352.3 1220.82 1350.52 1215 C 1346.03 1200.39 1340.89 1186 1335.12 1171.85 C 1326.75 1169.44 1281.17 1159.17 1278.64 1156.27 L 1279.41 1154.71 C 1284.5 1152.79 1324.85 1164 1332.39 1166.14 C 1326.1 1148.25 1311.96 1125.14 1301.22 1109.43 C 1270.68 1103.6 1241.24 1098.84 1210.07 1098.09 C 1204.39 1097.96 1192.46 1099.32 1189.16 1096.1 L 1189.54 1093.94 C 1199.22 1087.92 1281.98 1100.71 1296.53 1103.54 C 1288.61 1093.39 1281.1 1083.93 1271.66 1075.13 C 1267.29 1071.06 1256.51 1065.34 1253.81 1061.03 L 1254.7 1058.04 z" fill="rgb(0,0,0)" transform="translate(0,0)"></path>
<path d="M 951.439 295.207 C 963.178 295.434 1004.17 308.009 1017.78 311.933 L 1145.98 349.216 L 1563.38 467.756 C 1609.05 480.785 1657.27 492.512 1702.23 505.983 C 1693.4 511.538 1684.93 517.048 1677.47 524.532 C 1638.7 563.423 1618.05 626.526 1621.19 680.892 C 1621.68 689.964 1623.09 698.695 1624.92 707.562 C 1625.88 712.201 1630.56 722.748 1628.64 726.428 L 1625.76 725.466 C 1559.61 702.568 1461.27 678.928 1391.73 668.24 C 1373.58 665.544 1355.37 663.319 1337.11 661.569 C 1317.57 659.701 1299.59 659.535 1281.49 651.597 C 1275.31 648.891 1267.11 646.481 1260.62 644.399 L 1153.13 610.468 C 1093.12 592.753 1033.24 574.606 973.488 556.027 C 946.506 547.925 906.462 537.48 880.987 528.147 C 848.511 490.42 862.488 423.423 877.616 381.076 C 888.408 350.866 916.506 301.396 951.439 295.207 z" fill="rgb(253,251,245)" transform="translate(0,0)"></path>
<path d="M 1595.98 1315.13 C 1596.48 1315.46 1596.56 1315.47 1597.03 1316.09 C 1599.09 1318.85 1599.95 1323.96 1600.85 1327.28 C 1607.74 1352.59 1608.81 1380.5 1605.09 1406.42 C 1597.66 1458.25 1564.75 1508.3 1523.06 1539.26 C 1416.61 1618.32 1189.86 1621.06 1062.83 1602.22 C 1059.72 1593.71 1050.32 1560.46 1046.74 1556.71 C 1044.46 1564.75 1054.24 1592.41 1057.02 1601.23 C 1043.46 1599.2 1029.94 1596.89 1016.46 1594.31 C 993.421 1554.3 983.271 1505.37 978.329 1459.81 C 977.609 1453.17 977.589 1446.21 975.783 1439.8 L 973.871 1438.75 L 972.822 1439.71 C 971.067 1445.54 973.426 1460.78 974.318 1467.59 C 980.451 1514.38 988.962 1550.1 1009.57 1592.76 C 994.459 1589.26 982.329 1585.84 967.508 1581.38 C 910.435 1562.63 870.937 1542.17 824.969 1501.95 C 768.853 1452.86 741.477 1391.76 737.445 1317.28 C 785.668 1332.43 834.84 1344.39 884.639 1353.07 C 1071.97 1386.93 1263.87 1386.66 1451.1 1352.28 C 1503.53 1342.32 1545.43 1330.91 1595.98 1315.13 z" fill="rgb(253,251,245)" transform="translate(0,0)"></path>
<path d="M 457.006 1147.53 C 460.602 1149.62 480.173 1172.33 484.588 1176.9 C 551.845 1246.57 642.314 1283.58 732.104 1315.62 C 739.955 1410.07 773.274 1472.41 850.528 1528.46 C 900.28 1564.56 951.128 1584.92 1011.01 1597.56 C 1033.93 1631.4 1036.97 1634.96 1068.43 1660.94 C 936.377 1643.62 788.263 1572.54 696.445 1474.99 C 655.053 1431.02 617.58 1379.14 588.542 1325.99 C 583.932 1317.55 561.578 1270.65 555.86 1268.66 L 555.172 1270.57 C 556.335 1275.96 573.694 1307.86 577.248 1314.76 C 623.563 1404.67 694.966 1494.8 779.088 1552.3 C 925.519 1654.47 1107.15 1692.82 1282.39 1658.58 C 1456.77 1625.76 1630.82 1518.03 1714.84 1358.15 C 1720.58 1347.24 1755.3 1284.03 1753.9 1276.65 L 1752.71 1276.21 C 1748.56 1279.06 1743.4 1291.24 1741.2 1296.09 C 1700.95 1384.88 1654.73 1450.75 1580.38 1514.02 C 1450.95 1618.94 1274.37 1679.63 1107.18 1665.22 C 1085.46 1648.33 1074.49 1631.71 1064.71 1606.53 C 1086.09 1610.57 1113.24 1612.91 1135 1614.39 C 1238.34 1621.4 1343.87 1615.19 1443.1 1583.71 C 1508.9 1562.84 1557.12 1529.73 1589.98 1467.01 C 1615.62 1418.09 1618.26 1366.07 1601.3 1313.73 C 1621.39 1305.06 1644.15 1297.48 1664.9 1288.56 C 1734.21 1258.77 1793.67 1223.2 1845.68 1168.11 C 1832 1199.11 1819.6 1230.66 1805.37 1261.86 C 1732.07 1422.6 1638.84 1553.46 1473.86 1629.61 C 1305.91 1707.14 1062.27 1711.68 889.449 1648.2 C 764.902 1602.05 658.92 1516.34 587.738 1404.2 C 555.712 1353.47 532.288 1302.4 506.563 1248.4 C 490.451 1214.58 472.746 1181.62 457.006 1147.53 z" fill="rgb(253,251,245)" transform="translate(0,0)"></path>
<path d="M 434.241 1100.12 C 452.188 1122.83 461.167 1132.25 482.095 1152.75 L 483.569 1153.75 C 495.033 1161.54 507.389 1173.03 519.186 1180.91 C 541.101 1195.55 568.167 1212.25 591.838 1223.85 C 843.339 1347.11 1169.2 1363.67 1441.27 1315.1 C 1553.75 1295.02 1698.43 1246.78 1791.97 1183.05 C 1794.69 1184.29 1795.35 1184.63 1798.33 1185.43 C 1799.71 1187.15 1798.85 1186.42 1801.42 1187.05 C 1816.79 1181.7 1849.48 1147.63 1860.44 1135.04 C 1838.59 1192.11 1731.57 1253.47 1676.97 1277.83 C 1484.14 1363.89 1251.41 1383.2 1042.71 1368.87 C 867.236 1356.82 597.952 1299.76 477.711 1162.16 C 460.86 1145.85 441.909 1122.32 434.241 1100.12 z" fill="rgb(253,251,245)" transform="translate(0,0)"></path>
<path d="M 434.241 1100.12 C 452.188 1122.83 461.167 1132.25 482.095 1152.75 C 474.161 1150.37 464.958 1137.82 457.17 1132.54 L 456.45 1133.03 C 462.736 1144.38 474.392 1153.36 477.711 1162.16 C 460.86 1145.85 441.909 1122.32 434.241 1100.12 z" fill="rgb(206,192,165)" transform="translate(0,0)"></path>
<path d="M 1715.67 509.177 C 1727.32 508.682 1742.14 520.62 1748.83 529.543 C 1770.04 557.856 1771.17 596.376 1766.84 630.066 C 1756.09 628.253 1745.53 625.453 1735.3 621.704 C 1721.5 598.118 1708.02 610.455 1698.05 629.026 C 1684.4 654.438 1688.57 699.575 1725.98 668.76 C 1736.32 673.169 1744.21 677.556 1754.08 682.907 C 1747.99 695.46 1743.36 703.899 1735.62 715.491 C 1727.19 727.689 1710.03 747.461 1697.19 754.802 C 1676.91 745.884 1656.43 737.405 1635.78 729.374 C 1616.48 669.142 1626.99 604.715 1661.28 551.44 C 1674.03 531.632 1691.84 513.927 1715.67 509.177 z" fill="rgb(253,251,245)" transform="translate(0,0)"></path>
<path d="M 1720.69 612.863 L 1724.38 613.413 C 1728.03 616.026 1729.07 619.132 1731.16 623.207 C 1748.05 632.914 1761.85 633.471 1780.3 637.7 C 1847.13 653.018 1921.53 645.17 1978.9 688.475 C 1966.25 703.439 1960.5 721.407 1958.88 740.724 L 1942.73 740.917 C 1860.1 736.083 1798.44 697.7 1726.5 663.488 C 1720.86 667.923 1711.06 676.715 1703.02 673.232 C 1691.36 668.179 1695.21 647.842 1698.84 638.474 C 1703.3 626.941 1709.18 618.207 1720.69 612.863 z" fill="rgb(206,192,165)" transform="translate(0,0)"></path>
<path d="M 1501.9 1621.95 C 1508.97 1659 1418.42 1686.92 1390.01 1693.84 C 1270.57 1722.94 1141.41 1725.45 1019.84 1709.17 C 973.994 1703.04 864.233 1678.04 832.821 1644.01 C 827.761 1637.71 825.877 1633.02 822.801 1625.75 C 832.182 1628.41 844.802 1635.77 854.099 1639.82 C 937.361 1675.99 1024.94 1690.61 1115.03 1695.61 C 1253.21 1703.27 1377.49 1681.53 1501.9 1621.95 z" fill="rgb(253,251,245)" transform="translate(0,0)"></path>
<path d="M 690.046 310.425 C 753.214 307.9 816.802 354.917 873.66 377.065 C 869.163 390.003 865.165 403.109 861.673 416.353 L 845.237 412.838 C 835.551 411.227 824.119 409.803 813.839 407.735 C 775.785 400.083 622.611 392.879 667.705 324.227 C 674.183 314.366 678.227 311.025 690.046 310.425 z" fill="rgb(206,192,165)" transform="translate(0,0)"></path>
<path d="M 1019.36 1599.27 C 1031.99 1601.94 1046.21 1603.98 1059.07 1606.07 C 1069.31 1633.65 1078.24 1643.93 1098.03 1663.92 C 1094.19 1663.72 1086.35 1663.42 1083.03 1662.25 C 1057.08 1653.11 1031.72 1622.55 1019.36 1599.27 z" fill="rgb(253,251,245)" transform="translate(0,0)"></path>
<path d="M 1981.5 691.53 C 2002.87 709.519 2007.52 721.293 1980.09 735.227 C 1973.4 737.911 1970.13 738.606 1963.14 739.619 C 1966.27 720.716 1970.36 707.17 1981.5 691.53 z" fill="rgb(206,192,165)" transform="translate(0,0)"></path>
<path d="M 1880.93 1091.68 C 1862.49 1135.52 1835.52 1156.65 1798.33 1185.43 C 1795.35 1184.63 1794.69 1184.29 1791.97 1183.05 C 1831.17 1150.04 1852.19 1136.78 1880.93 1091.68 z" fill="rgb(253,251,245)" transform="translate(0,0)"></path>
<path d="M 670.423 312.345 C 670.631 315.01 657.506 330.116 656.41 335.075 C 654.999 341.451 655.483 349.409 655.561 355.958 C 652.517 354.745 651.101 352.642 648.62 350.136 C 630.561 325.997 647.105 317.464 670.423 312.345 z" fill="rgb(206,192,165)" transform="translate(0,0)"></path>
<metadata><recraft-signature>{"signed_by": "recraft", "signature_b64": "fknGQ95q5sGmxcEkHnKxIUPuF1XsQGB6Wz1GrUUB/UGsR+SgUqQz12lg0giDWUr5rYpuUtaCxIinNRQK9axFDg==", "signing_algo": "Ed25519", "generation_timestamp": 1778092677, "identifier": "8d4c0105-8bb6-4f80-9ca2-11470fbb5c87"}</recraft-signature></metadata></svg>