<svg xmlns="http://www.w3.org/2000/svg" height="1024" preserveAspectRatio="none" style="display: block;" version="1.1" viewBox="0 0 2048 2048" width="1024">
<path d="M 0 0 L 2048 0 L 2048 2048 L 0 2048 L 0 0 z" fill="rgb(253,249,238)" transform="translate(0,0)"></path>
<path d="M 523.12 1219.19 C 531.659 1205.06 539.255 1190.09 548.571 1176.66 C 583.625 1126.14 636.918 1077.98 687.074 1043.24 C 821.474 950.135 1009.44 928.488 1166.97 959.215 C 1228.41 971.197 1308.93 991.454 1363.44 1024.38 C 1378.07 1033.21 1402.94 1056.69 1416.02 1068.76 C 1428.44 1080.22 1449.95 1099.89 1459.8 1112.94 C 1474.95 1133 1490.86 1156.66 1505.15 1177.52 C 1543.43 1189.8 1581.21 1206.69 1619.27 1219.86 C 1714.97 1252.97 1807.93 1291.43 1901.7 1329.45 C 1911.71 1333.5 1910.59 1329.18 1915.06 1330.9 C 1917.08 1334.04 1916.71 1332.36 1916.11 1336.11 C 1916.6 1339.38 1924.47 1362.29 1926.17 1363.17 C 1928.48 1363.17 1930.24 1362.66 1931.68 1365.04 C 1962.14 1415.24 1968.24 1485.37 1957.55 1542.53 C 1918.71 1750.05 1666.55 1843.04 1488.45 1889.8 C 1419.56 1908.05 1349.6 1922.03 1278.98 1931.66 C 1262.53 1933.87 1203.08 1942.33 1190.93 1939.96 L 1189.02 1939.57 C 1186.39 1934.91 1120.29 1943.78 1107.37 1937.76 C 1095.98 1944.8 1093.14 1945.78 1085.52 1956.6 C 1046.12 1935.59 1013.18 1910.84 970.324 1893.4 C 905.583 1867.05 836.936 1851.47 773.269 1823.46 C 695.383 1789.2 620.961 1745.91 545.19 1706.87 C 527.395 1697.66 509.227 1689.2 490.733 1681.5 C 477.608 1676.07 462.109 1671.02 449.659 1664.42 C 447.2 1663.12 446.942 1661.56 446.49 1659.39 C 447.719 1655.26 450.059 1653.21 452.909 1649.94 C 467.858 1646.95 478.385 1647.09 493.556 1646.87 C 463.53 1633.65 437.692 1627.95 406.159 1619.76 L 301.402 1592.55 C 233.581 1574.32 171.328 1551.3 108.066 1520.93 C 98.4861 1516.33 80.2815 1510.29 71.8328 1503.95 C 70.9485 1503.28 71.5995 1501.7 71.8559 1500.18 C 75.6522 1494.57 116.33 1466.71 124.037 1461.46 C 252.725 1373.76 385.937 1292.89 523.12 1219.19 z" fill="rgb(105,62,44)" transform="translate(0,0)"></path>
<path d="M 1916.11 1336.11 C 1916.6 1339.38 1924.47 1362.29 1926.17 1363.17 C 1928.48 1363.17 1930.24 1362.66 1931.68 1365.04 C 1962.14 1415.24 1968.24 1485.37 1957.55 1542.53 C 1918.71 1750.05 1666.55 1843.04 1488.45 1889.8 C 1419.56 1908.05 1349.6 1922.03 1278.98 1931.66 C 1262.53 1933.87 1203.08 1942.33 1190.93 1939.96 L 1189.02 1939.57 C 1186.39 1934.91 1120.29 1943.78 1107.37 1937.76 C 1162.15 1902 1217.52 1867.17 1273.48 1833.28 C 1336.69 1794.59 1398.15 1760 1456.39 1713.26 C 1480.61 1693.82 1507.98 1668.44 1532.79 1651.32 C 1633.98 1581.48 1720.47 1495.69 1816.94 1419.92 C 1850.7 1393.5 1882.09 1361.6 1916.11 1336.11 z" fill="rgb(253,249,238)" transform="translate(0,0)"></path>
<path d="M 1926.17 1363.17 C 1928.48 1363.17 1930.24 1362.66 1931.68 1365.04 C 1962.14 1415.24 1968.24 1485.37 1957.55 1542.53 C 1918.71 1750.05 1666.55 1843.04 1488.45 1889.8 C 1419.56 1908.05 1349.6 1922.03 1278.98 1931.66 C 1262.53 1933.87 1203.08 1942.33 1190.93 1939.96 L 1189.02 1939.57 C 1194.23 1933.55 1249.32 1927.53 1261.71 1925.76 C 1296.08 1920.96 1330.33 1915.33 1364.43 1908.88 C 1432.83 1895.75 1520.7 1874.99 1587.68 1851.9 C 1697.8 1812.3 1817.4 1757.89 1892.96 1665.01 C 1946.41 1599.31 1967.04 1506.16 1947.05 1424.51 C 1941.63 1402.38 1933.35 1384.28 1926.17 1363.17 z" fill="rgb(105,62,44)" transform="translate(0,0)"></path>
<path d="M 1011.71 955.43 C 1095.54 947.331 1298.15 988.11 1366.34 1038.22 C 1391.31 1056.57 1429.14 1091.94 1448.85 1115.56 C 1459.83 1128.71 1468.77 1143.38 1478.28 1157.59 C 1512.58 1208.86 1540.86 1260.85 1549.97 1322.78 C 1559.09 1384.83 1548.49 1452.22 1510.28 1503.25 C 1476.43 1548.44 1431.96 1564.8 1381.79 1584.86 C 1359.39 1593.82 1339.31 1607.79 1316.52 1615.58 C 1299.69 1621.33 1282.1 1624.93 1264.8 1628.98 C 1218.76 1639.77 1185.52 1646.29 1137.92 1649.89 C 1100.65 1652.71 1063.88 1653.03 1026.76 1658.32 C 984.949 1665.06 942.176 1673.44 900.338 1662.05 C 892.494 1659.91 884.532 1657.93 876.659 1655.88 C 860.86 1651.69 844.919 1648.06 828.865 1644.99 C 795.844 1638.65 756.708 1636.82 726.505 1628.28 C 697.737 1618.41 669.692 1604.59 642.522 1590.96 C 615.825 1577.57 583.181 1564.75 560.519 1545.47 C 523.712 1514.15 495.9 1457.3 493.174 1409 C 489.396 1342.05 507.179 1269.6 538.704 1210.51 C 549.887 1189.89 566.39 1166.98 581.592 1149.3 C 666.126 1051.71 782.002 986.593 909.322 965.138 C 940.715 959.737 979.676 957.816 1011.71 955.43 z" fill="rgb(253,249,238)" transform="translate(0,0)"></path>
<path d="M 536.661 1339.84 C 537.422 1341.22 537.548 1342.94 537.093 1344.37 C 521.635 1392.81 524.859 1438.91 545.919 1485.05 C 548.019 1489.65 557.784 1508.09 557.955 1512.03 L 555.893 1513.51 C 541.139 1501.31 528.949 1464.09 524.832 1445.87 C 517.738 1414.49 518.858 1367.7 536.661 1339.84 z" fill="rgb(105,62,44)" transform="translate(0,0)"></path>
<path d="M 563.66 1406.23 L 566.172 1407.63 C 568.739 1416.04 570.029 1432.19 571.74 1441.95 C 576.022 1466.36 585.541 1493.17 596.903 1515.15 C 600.057 1521.26 606.998 1531.43 608.304 1537.42 C 603.499 1535.55 601.59 1532.97 598.32 1528.95 C 575.391 1500.76 560.63 1441.55 563.66 1406.23 z" fill="rgb(105,62,44)" transform="translate(0,0)"></path>
<path d="M 1432 1455.49 L 1433.57 1457.14 C 1433.78 1464.76 1425.49 1489.05 1422.2 1496.17 C 1411.74 1518.72 1393.81 1545.76 1373.32 1560.22 C 1372.38 1559.2 1372.51 1558.96 1371.97 1557.53 C 1372.8 1553.68 1378.04 1547.66 1380.77 1544.64 C 1397.79 1525.82 1411.54 1504.51 1421.16 1480.99 C 1424.31 1473.3 1427.66 1463.85 1431.57 1456.3 L 1432 1455.49 z" fill="rgb(105,62,44)" transform="translate(0,0)"></path>
<path d="M 1506.72 1370.41 C 1513.77 1372.71 1516.75 1394.86 1517.57 1401.58 C 1521.26 1431.44 1515.36 1454.58 1496.99 1478.4 C 1494.35 1479.93 1495.76 1479.74 1492.8 1479.46 C 1492.85 1476.98 1501.17 1461.98 1503.34 1456.5 C 1512.14 1434.3 1512.47 1412.64 1509.89 1389.14 C 1509.21 1382.95 1507.47 1377.55 1506.81 1371.27 L 1506.72 1370.41 z" fill="rgb(105,62,44)" transform="translate(0,0)"></path>
<path d="M 749.235 1060.55 C 815.863 1057.97 870.86 1063.11 933.502 1087.37 C 939.612 1089.74 971.655 1103.01 974.04 1108.38 L 972.546 1108.81 C 920.699 1081.24 863.304 1065.72 804.63 1063.39 C 787.028 1062.66 769.578 1062.99 752 1063.61 C 749.537 1063.7 748.845 1063.72 747.333 1062.07 L 749.235 1060.55 z" fill="rgb(102,49,25)" transform="translate(0,0)"></path>
<path d="M 1187.32 1055.46 C 1207.18 1055.78 1265.23 1058.37 1281.58 1066.51 C 1276.97 1067.16 1253.92 1062.77 1247.43 1061.86 C 1203.92 1055.76 1161.22 1058.1 1117.77 1063.08 C 1101.04 1065.66 1084.48 1069.2 1068.15 1073.67 C 1063.44 1074.98 1036.08 1084.23 1033.5 1082.67 C 1039.85 1078.86 1050.76 1076.23 1058.16 1073.82 C 1102.2 1059.5 1141.39 1056.62 1187.32 1055.46 z" fill="rgb(102,49,25)" transform="translate(0,0)"></path>
<path d="M 1473.14 1414.45 C 1473.7 1414.9 1474.49 1415.94 1475 1416.55 C 1479.95 1450.05 1465.76 1497.84 1436.52 1517.63 L 1435.67 1516.68 C 1435.65 1514.35 1452.62 1491.24 1455.9 1485.17 C 1468.53 1461.83 1466.64 1438.04 1473.14 1414.45 z" fill="rgb(105,62,44)" transform="translate(0,0)"></path>
<path d="M 599.098 1460.11 C 603.041 1461.31 603.876 1462.23 605.751 1466 C 617.693 1490.02 627.887 1514.81 640.981 1538.29 C 644.537 1544.66 648.433 1551.63 651.259 1558.34 C 634.18 1553.51 604.38 1479.04 599.098 1460.11 z" fill="rgb(105,62,44)" transform="translate(0,0)"></path>
<path d="M 708.411 1544.82 C 714.637 1547.37 742.275 1587.78 753.704 1593.17 C 757.767 1595.08 774.692 1606.34 776.512 1610.08 C 752.303 1609.59 712.036 1566.75 708.411 1544.82 z" fill="rgb(105,62,44)" transform="translate(0,0)"></path>
<path d="M 1060 1152.07 C 1074.32 1153.81 1131.58 1203.03 1144.96 1215.5 C 1162.15 1231.53 1207.16 1287.08 1205.88 1310.01 C 1201.68 1302.29 1198.18 1292.59 1193.99 1284.51 C 1170.32 1238.8 1132.5 1204.59 1091.53 1174.62 C 1086.44 1170.9 1061.53 1154.82 1060 1152.07 z" fill="rgb(105,62,44)" transform="translate(0,0)"></path>
<path d="M 895.79 1130.96 L 897.61 1131.69 C 896.666 1132.9 838.702 1160.05 829.704 1165.09 C 786.217 1189.43 751.165 1220.55 719.128 1258.47 L 717.66 1257.36 C 719.287 1253.05 722.489 1250.25 725.388 1246.77 C 770.996 1192.09 831.042 1157.67 895.79 1130.96 z" fill="rgb(102,49,25)" transform="translate(0,0)"></path>
<path d="M 655.292 1512.45 C 658.716 1513.75 667.413 1527.23 668.499 1530.82 C 672.493 1544 705.195 1581.76 707.322 1590.16 C 687.608 1586.46 660.45 1531 655.292 1512.45 z" fill="rgb(105,62,44)" transform="translate(0,0)"></path>
<path d="M 1194.58 1567.71 C 1196.01 1568.76 1195.48 1568.05 1195.99 1569.96 C 1180.53 1592.42 1150.61 1616.56 1124.96 1626.7 L 1124.39 1626.08 C 1125.58 1622.55 1151.55 1604.58 1156.4 1600.5 C 1169.08 1589.85 1181.68 1577.97 1194.58 1567.71 z" fill="rgb(105,62,44)" transform="translate(0,0)"></path>
<path d="M 1265.65 1550.88 L 1265.53 1553.34 C 1248.88 1575.56 1225.69 1602.45 1198.48 1611.15 C 1198.1 1607.49 1208.43 1600.57 1211.58 1598.34 C 1230.39 1584.99 1247.35 1564.13 1265.65 1550.88 z" fill="rgb(105,62,44)" transform="translate(0,0)"></path>
<path d="M 1324.79 1532.92 L 1325.6 1534.53 C 1318.44 1554.33 1285.4 1580.93 1267.59 1592.15 C 1267.05 1591.82 1266.32 1591.03 1265.82 1590.55 C 1265.5 1591.14 1323.85 1533.57 1324.79 1532.92 z" fill="rgb(105,62,44)" transform="translate(0,0)"></path>
<path d="M 1129.9 1590.76 L 1132.37 1591.17 L 1132.63 1592.55 C 1116.79 1611.26 1086.72 1625.09 1063.55 1631.97 L 1061.51 1631.25 C 1062.47 1629.07 1063.35 1628.4 1065.68 1627.33 C 1088.14 1617.03 1109.09 1604.03 1129.9 1590.76 z" fill="rgb(105,62,44)" transform="translate(0,0)"></path>
<path d="M 1371.85 1513.77 L 1372.83 1514.85 C 1373.7 1528.28 1343.55 1558.32 1330.42 1562.39 L 1329.45 1560.59 C 1329.51 1560.43 1368.37 1517.29 1371.85 1513.77 z" fill="rgb(105,62,44)" transform="translate(0,0)"></path>
<path d="M 1511.14 1187.58 C 1527.57 1194.43 1545.8 1200.47 1562.54 1206.96 L 1737.87 1273.13 C 1753.44 1279 1818.61 1303.29 1829.03 1310.92 L 1829.73 1312.66 L 1833.42 1311.1 L 1834.84 1312.71 C 1847.47 1315.59 1885.1 1332.44 1900.41 1337.9 C 1895.96 1341.57 1879.06 1356.69 1874.81 1356.55 C 1873.34 1358.34 1872.34 1359.68 1870.66 1361.3 C 1868.1 1366.26 1805.52 1419.04 1798.12 1423.92 C 1774 1439.83 1714.43 1444.43 1685.09 1446.67 C 1673.22 1447.58 1620.63 1445.45 1616.19 1447.99 L 1616.69 1449.19 C 1645.9 1458.51 1751.84 1443.65 1783.71 1434.96 C 1769.24 1447.64 1712.05 1499.91 1699.78 1504.18 L 1697.68 1508.42 C 1696.02 1511.75 1633.75 1563.8 1624.49 1570.9 C 1602.95 1587.41 1528.44 1590.81 1500.16 1592.96 C 1497.63 1593.15 1491.78 1593.89 1490.37 1595.36 C 1515.97 1599.64 1582.46 1588.35 1608.62 1582.51 C 1596.84 1591.59 1525.2 1648.04 1517.81 1648.67 C 1517.29 1648.71 1516.78 1648.79 1516.26 1648.84 C 1515.87 1648.88 1515.48 1648.91 1515.09 1648.95 L 1516.41 1651.11 C 1514.94 1656.06 1453.44 1703.87 1444.41 1710.98 C 1439 1715.24 1432.78 1718.84 1426.01 1720.57 C 1426.12 1721.61 1426.38 1722.94 1426.21 1723.87 C 1409.25 1740.09 1327.78 1794.64 1308.03 1797.54 L 1308.9 1800.5 C 1302.16 1806.21 1280.5 1818.99 1272.01 1823.62 C 1251.27 1834.94 1223.22 1857.69 1200.6 1861.61 L 1205.18 1862.38 L 1203.58 1865.08 C 1197 1870.45 1185.65 1876.6 1178.34 1881.68 C 1150.89 1900.78 1107.17 1923.85 1083.57 1946.14 C 1036.38 1916.35 1002.01 1895.49 949.967 1875.68 C 890.648 1853.64 831.006 1838.26 772.774 1812.91 C 665.706 1766.3 565.928 1696.65 455.859 1658.11 C 479.407 1654.8 499.146 1657.79 522.417 1660.7 C 525.232 1661.05 525.598 1660.72 527.697 1659.42 L 527.478 1657.14 C 521.413 1647.92 493.111 1634.72 482.06 1631.36 C 395.468 1605.03 306.608 1587.24 220.512 1558.99 C 172.617 1543.27 130.948 1521.11 85.226 1501.09 C 94.7646 1491.49 126.38 1470.14 138.982 1462.55 L 139.195 1461.74 C 141.144 1460.39 140.301 1461.02 143.885 1461.55 C 145.656 1456.23 196.264 1422.23 202.924 1423.23 L 204.24 1420.09 C 209.586 1414.5 250.719 1389.42 260.346 1383.32 C 343.958 1329.5 429.645 1278.98 517.211 1231.86 C 508.307 1251.65 500.971 1272.1 495.27 1293.03 C 477.093 1358.83 471.309 1438.42 505.315 1500.06 C 519.705 1526.15 544.171 1555.12 569.412 1570.88 C 587.211 1581.99 607.26 1591.45 626.004 1601 C 658.873 1617.75 691.574 1635.76 727.381 1645.49 C 757.123 1653.54 788.312 1654.53 818.496 1660.38 C 859.513 1667.39 897.52 1681.12 938.613 1683.75 C 978.916 1686.22 1017.94 1675.98 1057.73 1672.14 C 1091.27 1668.9 1125.14 1669.29 1158.7 1665.97 C 1172.34 1664.61 1185.76 1662.87 1199.34 1661.07 C 1224.46 1657.75 1248.3 1650.47 1272.79 1644.35 C 1290.81 1639.85 1309.59 1637.66 1327.04 1631.05 C 1348.48 1622.77 1367.63 1609.78 1388.79 1600.58 C 1414.01 1589.61 1440.01 1581.34 1463.92 1567.54 C 1576.33 1502.64 1588.98 1352.18 1541.52 1242.74 C 1533.5 1224.26 1521.45 1205.17 1511.14 1187.58 z" fill="rgb(253,249,238)" transform="translate(0,0)"></path>
<path d="M 138.982 1462.55 L 139.195 1461.74 C 141.144 1460.39 140.301 1461.02 143.885 1461.55 C 156.417 1465 168.778 1469.67 181.268 1473.52 C 206.781 1481.53 232.672 1488.28 258.847 1493.74 C 271.601 1496.35 330.704 1507 339.115 1512.33 C 331.751 1513.09 309.216 1507.97 301.229 1506.43 C 257.258 1497.97 213.077 1488.64 170.511 1474.58 C 162.686 1472 145.616 1466.37 138.982 1462.55 z" fill="rgb(105,62,44)" transform="translate(0,0)"></path>
<path d="M 1308.9 1800.5 C 1277.59 1804.14 1137.15 1816.15 1114.74 1806.97 C 1120.35 1805.95 1157.99 1807.54 1168.76 1806.98 C 1214.34 1804.59 1262.75 1802.68 1308.03 1797.54 L 1308.9 1800.5 z" fill="rgb(102,49,25)" transform="translate(0,0)"></path>
<path d="M 1426.21 1723.87 C 1413.32 1726.5 1400.33 1728.67 1387.28 1730.36 C 1370.12 1732.55 1255.13 1743.91 1244.67 1740.33 L 1244.46 1739.03 C 1246.83 1737.9 1293.54 1735.48 1300.18 1735.03 C 1342.98 1732.14 1383.67 1728.17 1426.01 1720.57 C 1426.12 1721.61 1426.38 1722.94 1426.21 1723.87 z" fill="rgb(102,49,25)" transform="translate(0,0)"></path>
<path d="M 1870.66 1361.3 C 1851.83 1368.08 1820.75 1372.16 1800.74 1375.39 C 1787.02 1377.6 1704.62 1384.19 1697.41 1376.29 L 1698.01 1374.9 C 1699.43 1374.52 1740.47 1376.61 1748.83 1376.31 C 1791.5 1375.19 1833.84 1368.55 1874.81 1356.55 C 1873.34 1358.34 1872.34 1359.68 1870.66 1361.3 z" fill="rgb(102,49,25)" transform="translate(0,0)"></path>
<path d="M 1516.41 1651.11 C 1510.64 1651.03 1482.23 1657.03 1476.01 1658.35 C 1460.21 1661.71 1358.5 1675.89 1351.25 1670.92 L 1352.24 1669.55 C 1383.26 1666.8 1408.31 1665.54 1440.01 1660.68 C 1457.95 1657.93 1499.88 1649.43 1515.09 1648.95 L 1516.41 1651.11 z" fill="rgb(102,49,25)" transform="translate(0,0)"></path>
<path d="M 1697.68 1508.42 C 1684.84 1510.41 1669.04 1514.44 1655.85 1516.84 C 1629.48 1521.61 1572.38 1527.52 1546.83 1522.37 L 1546.11 1520.85 C 1550.75 1518.13 1576.7 1521.23 1585.3 1520.8 C 1621.69 1518.99 1664.83 1514.73 1699.78 1504.18 L 1697.68 1508.42 z" fill="rgb(102,49,25)" transform="translate(0,0)"></path>
<path d="M 1203.58 1865.08 C 1178.68 1868.85 1095.92 1875.16 1074.63 1865.94 L 1074.96 1864.58 C 1080.53 1864.02 1108.15 1867.5 1117.11 1867.57 C 1144.29 1867.77 1173.91 1866.25 1200.6 1861.61 L 1205.18 1862.38 L 1203.58 1865.08 z" fill="rgb(102,49,25)" transform="translate(0,0)"></path>
<path d="M 204.24 1420.09 L 257.646 1435.63 C 266.32 1438.06 290.561 1444.04 297.628 1447.66 C 289.429 1449.58 210.459 1427.72 202.924 1423.23 L 204.24 1420.09 z" fill="rgb(105,62,44)" transform="translate(0,0)"></path>
<path d="M 1829.03 1310.92 L 1829.73 1312.66 L 1833.42 1311.1 L 1834.84 1312.71 C 1827.44 1317.13 1784.04 1319.56 1773.51 1319.47 C 1770.23 1319.44 1767.02 1318.94 1764.62 1316.42 C 1766.46 1315.48 1765.97 1315.44 1767.81 1315.46 C 1788.45 1315.72 1808.58 1313.66 1829.03 1310.92 z" fill="rgb(102,49,25)" transform="translate(0,0)"></path>
<path d="M 1853.24 105.264 C 1855.46 105.124 1857.68 105.06 1859.9 105.071 C 1884.67 105.391 1903.5 123.773 1909.32 146.895 C 1919.58 187.653 1892.07 203.173 1863.45 222.495 C 1832.12 244.828 1801.28 261.206 1766.29 276.564 C 1747.51 284.807 1699.71 301.942 1685.79 314.491 L 1684.67 315.517 C 1689.97 339.953 1693.27 401.558 1667.56 417.167 C 1644.54 431.147 1618.8 445.515 1595.32 458.9 C 1570.68 472.977 1546.17 487.288 1521.81 501.832 C 1395.04 576.28 1267.61 649.587 1139.53 721.746 L 1010.4 795.307 C 994.209 804.4 947.272 832.2 931.575 835.182 C 892.044 842.694 864.533 831.53 832.662 810.606 C 773.403 848.564 719.004 891.729 653.772 920.316 C 627.64 931.768 612.444 940.206 583.71 933.307 C 550.46 920.916 533.755 892.296 547.933 857.662 C 558.737 831.267 584.98 813.345 607.742 797.53 C 660.536 761.517 716.863 730.979 775.85 706.39 C 766.432 666.163 765.2 627.998 795.097 595.435 C 813.711 575.16 838.684 563.878 862.586 550.721 L 930.023 513.648 L 1141.36 398.918 L 1388.54 264.754 L 1482.02 214.582 C 1501.7 204.241 1522.99 189.565 1545.53 188.84 C 1583.45 187.622 1614.63 208.342 1641.2 233.426 C 1662.73 219.146 1681.18 201.676 1700.44 186.124 C 1732.01 160.639 1815.66 112.677 1853.24 105.264 z" fill="rgb(105,62,44)" transform="translate(0,0)"></path>
<path d="M 812.305 590.093 C 823.773 581.752 842.113 572.257 854.861 565.338 L 923.34 528.481 L 1132.13 414.137 L 1395.12 271.887 L 1480 226.212 C 1505.5 212.522 1530.7 193.217 1560.64 198.699 C 1638.78 213.007 1690.22 303.492 1677.43 379.079 C 1675.67 389.367 1672.39 402.575 1663.09 408.095 C 1632.31 427.619 1600.05 444.807 1568.49 462.988 L 1382.9 570.868 C 1292.52 624.139 1201.5 676.3 1109.85 727.34 C 1079.43 744.812 1048.92 762.123 1018.32 779.274 C 1004.76 786.917 987.57 797.514 974.017 803.97 C 998.468 763.476 1006.53 728.973 995.371 681.832 C 983.365 631.109 950.191 587.303 899.695 570.752 C 918.438 564.27 959.182 540.511 978.339 530.214 L 1155.13 433.679 C 1242.82 387.101 1330.11 339.773 1417 291.7 L 1505.05 243.318 C 1521.12 234.489 1545.6 221.915 1560.3 211.972 C 1532.91 221.228 1498.56 240.542 1472.47 254.495 L 1359.77 315.69 L 1115.4 448.578 L 958.503 535.427 C 946.02 542.401 907.172 562.233 897.951 569.421 L 895.434 570.763 L 895.013 572.484 C 896.482 574.604 922.414 588.292 929.869 593.849 C 993.758 641.467 1017.09 757.268 955.394 815.322 C 954.347 816.307 946.658 819.521 944.628 820.378 C 994.268 763.332 977.827 653.698 919.822 608.282 C 883.712 580.009 854.53 572.569 812.305 590.093 z" fill="rgb(224,203,155)" transform="translate(0,0)"></path>
<path d="M 1656.16 383.861 C 1657.17 384.202 1656.71 383.875 1657.33 385.094 C 1653.6 390.427 1638.42 400.267 1632.32 403.809 L 1274.18 608.169 L 1131.43 689.928 C 1103.77 706.079 1054.44 736.865 1025.91 749.198 L 1024.38 748.457 C 1028.95 740.74 1175.75 658.369 1197.46 645.731 C 1295.64 588 1394.2 530.916 1493.13 474.484 L 1656.16 383.861 z" fill="rgb(105,62,44)" transform="translate(0,0)"></path>
<path d="M 828.576 701.362 C 870.98 694.05 883.893 753.754 859.381 776.296 C 821.769 810.885 773.99 838.71 731.88 867.779 C 713.775 880.277 690.774 892.081 671.231 901.471 L 671.445 900.336 C 672.923 892.778 672.976 891.003 672.999 883.226 C 668.466 842.441 648.48 818.67 608.244 808.794 C 659.07 772.306 768.004 709.405 828.576 701.362 z" fill="rgb(224,203,155)" transform="translate(0,0)"></path>
<path d="M 849.595 766.85 L 850.355 769.014 C 831.935 790.335 712.89 863.217 684.494 872.549 L 683.723 871.389 C 685.568 867.168 711.266 854.58 717.08 851.462 C 749.759 833.932 779.657 813.985 810.517 793.665 C 822.258 785.934 838.579 773.019 849.595 766.85 z" fill="rgb(105,62,44)" transform="translate(0,0)"></path>
<path d="M 840.741 590.32 C 856.662 588.415 869.661 590.582 884.5 596.522 C 956.509 625.345 982.761 720.842 955.156 789.025 C 949.414 803.207 938.107 818.543 923.137 823.717 C 893.77 833.868 862.482 818.364 835.838 807.226 C 842.704 801.48 850.317 795.616 857.348 789.985 C 860.194 787.594 864.146 783.6 866.954 780.942 C 911.771 782.479 930.783 738.087 913.925 699.759 C 906.88 683.781 893.73 671.289 877.412 665.071 C 848.781 654.149 823.187 666.952 813.542 695.579 C 803.799 697.92 794.242 700.885 784.641 703.751 C 774.439 670.244 775.363 623.097 808.005 601.598 C 817.879 595.095 829.207 592.213 840.741 590.32 z" fill="rgb(224,203,155)" transform="translate(0,0)"></path>
<path d="M 1834.36 123.041 C 1837.91 122.999 1841.43 123.616 1844.75 124.861 C 1856.58 129.198 1867.93 140.609 1873.26 152.106 C 1879.2 164.945 1881 183.141 1876.16 196.533 C 1872.42 206.898 1856.59 216.056 1847.47 222.332 C 1800.52 254.667 1751.71 273.842 1699.58 295.819 C 1697.34 296.923 1695.21 297.874 1692.94 298.896 C 1690.23 298.475 1690.58 299.231 1689.83 295.757 C 1685.28 274.631 1673.57 247.88 1654.08 236.181 C 1657.36 233.105 1660.94 230.185 1664.47 227.36 C 1689.77 207.088 1713.91 185.108 1741.77 168.314 C 1751.61 162.379 1761.25 156.61 1771.35 151.167 C 1791.79 140.158 1811.92 129.496 1834.36 123.041 z" fill="rgb(224,203,155)" transform="translate(0,0)"></path>
<path d="M 1863.22 192.783 L 1864.48 193.674 C 1860.97 199.95 1838.87 214.445 1831.51 218.9 C 1792.28 242.654 1751.81 262.01 1707.21 272.982 L 1705.55 272.746 C 1706.98 271.035 1725.22 264.471 1728.89 263.07 C 1777 244.715 1819.69 219.835 1863.22 192.783 z" fill="rgb(105,62,44)" transform="translate(0,0)"></path>
<path d="M 569.509 839.882 C 620.878 837.957 654.915 897.245 610.347 924.293 C 582.256 933.318 552.692 910.753 552.292 881.611 C 552.05 864.036 558.102 852.296 569.509 839.882 z" fill="rgb(224,203,155)" transform="translate(0,0)"></path>
<path d="M 854.661 670.395 C 903.995 671.941 937.052 742.924 886.883 769.581 C 883.32 771.474 875.997 773.237 871.916 774.373 C 874.224 769.684 876.857 763.998 877.937 758.879 C 886.852 716.628 864.805 690.839 822.246 693.78 C 830.406 678.447 837.082 672.194 854.661 670.395 z" fill="rgb(224,203,155)" transform="translate(0,0)"></path>
<path d="M 596.66 818.096 C 603.54 817.36 610.498 818.162 617.03 820.444 C 634.8 826.648 649.345 839.71 657.419 856.713 C 664.657 871.692 670.06 897.497 654.399 909.236 C 651.277 911.576 642.117 915.262 638.183 916.983 C 635.179 918.471 634.382 919.069 630.98 919.46 C 630.79 915.157 638.791 906.934 639.252 895.495 C 639.889 879.734 635.963 867.301 625.913 855.195 C 614.443 841.105 597.776 832.235 579.682 830.592 C 585.636 824.7 589.592 822.131 596.66 818.096 z" fill="rgb(224,203,155)" transform="translate(0,0)"></path>
<path d="M 1857.57 114.356 C 1897.57 113.71 1916.14 162.746 1889.88 192.325 C 1888.64 193.15 1889.42 192.825 1887.43 192.923 C 1887.02 187.5 1887.82 181.663 1887.35 175.466 C 1885.82 154.774 1876.26 134.371 1857.71 123.773 C 1854.54 121.956 1849.34 119.472 1848.12 116.632 C 1850.44 114.538 1854.27 114.676 1857.57 114.356 z" fill="rgb(224,203,155)" transform="translate(0,0)"></path>
<path d="M 1646.75 240.756 C 1648.55 241.621 1648.94 241.868 1650.53 243.205 C 1667.87 257.789 1678.74 278.633 1680.78 301.197 C 1678.93 299.006 1670.87 276.98 1667.85 271.618 C 1661.25 259.919 1654.7 251.555 1646.75 240.756 z" fill="rgb(253,249,238)" transform="translate(0,0)"></path>
<path d="M 1609.46 534.405 C 1663.44 527.739 1783.51 546.376 1826.39 582.296 C 1901.91 645.556 1987.84 797.498 1877.89 872.282 C 1851.17 890.457 1823.94 896.346 1796 910.183 C 1761.58 927.227 1729.57 927.41 1692.56 930.5 C 1673.72 932.237 1654.9 934.17 1636.1 936.298 C 1599.4 942.716 1580.03 941.884 1543.76 935.704 C 1509.35 929.842 1468.05 927.99 1435.06 915.07 C 1401.54 900.907 1349.08 885.428 1332.58 849.553 C 1301.82 782.69 1329.74 698.396 1375.7 647.253 C 1438.45 577.431 1517.15 541.643 1609.46 534.405 z" fill="rgb(105,62,44)" transform="translate(0,0)"></path>
<path d="M 1622.77 539.418 C 1680.1 538.182 1772.89 551.385 1819.5 585.326 C 1847.63 605.813 1889.6 663.4 1903.96 694.746 C 1911.12 710.559 1916.03 727.295 1918.55 744.468 C 1923.07 777.09 1917.85 818.326 1896.96 844.701 C 1879.46 866.782 1840.55 882.052 1814.85 892.377 C 1792.19 901.574 1768.86 912.915 1744.31 916.203 C 1704.38 921.553 1663.89 922.687 1623.77 928.035 C 1615.4 929.483 1606.97 930.528 1598.5 931.166 C 1579.45 932.495 1561.44 928.533 1543.08 926.114 C 1494.07 919.658 1447.76 912.931 1402.64 891.417 C 1385.13 883.067 1372.61 879.015 1356.92 865.433 C 1334.99 846.436 1330.19 821.011 1327.92 793.15 C 1321.12 672.056 1436.16 579.292 1543.43 550.671 C 1569.31 543.767 1596.32 541.073 1622.77 539.418 z" fill="rgb(253,249,238)" transform="translate(0,0)"></path>
<path d="M 1731.74 592.489 C 1740.24 592.322 1746.58 592.335 1754.77 594.856 C 1720.1 594.988 1686.11 595.605 1654.26 611.591 C 1649.84 613.81 1636.25 624.679 1642.47 631.761 C 1645.81 635.557 1658.49 639.395 1663.62 640.9 C 1706.06 653.357 1736.6 678.295 1761.89 714.061 C 1766.77 721.092 1768.2 724.634 1770.37 732.557 C 1745.63 692.162 1720.43 665.948 1675.6 647.622 C 1664.87 642.821 1652.15 641.399 1642.45 634.683 C 1636.73 630.723 1639.23 620.92 1643.5 617.16 C 1666.27 597.086 1702.92 593.86 1731.74 592.489 z" fill="rgb(102,49,25)" transform="translate(0,0)"></path>
<path d="M 1349.6 760.217 L 1352.16 761.347 C 1353.71 768.789 1346.71 793.303 1349.88 813.096 C 1351.12 821.014 1353.65 828.675 1357.38 835.769 C 1360.52 841.869 1366.47 849.716 1367.38 855.676 C 1339.06 842.372 1341.71 784.485 1349.6 760.217 z" fill="rgb(105,62,44)" transform="translate(0,0)"></path>
<path d="M 1591.9 624.141 C 1595.08 627.11 1594.1 625.362 1595.04 629.517 C 1594.35 632.202 1593.16 634.363 1591.05 636.194 C 1571.73 652.971 1552.76 666.911 1535.37 685.99 C 1517.39 705.706 1506.54 722.426 1495.83 746.634 C 1494.74 744.087 1495.62 742.462 1496.86 739.439 C 1513.28 699.367 1545.26 669.136 1578.75 642.973 C 1581.6 640.743 1593.81 632.323 1593.11 627.73 C 1592.9 626.418 1592.45 625.321 1591.9 624.141 z" fill="rgb(105,62,44)" transform="translate(0,0)"></path>
<path d="M 1872.97 784.912 L 1875.87 782.748 C 1879.84 808.664 1870.73 833.431 1856.25 854.65 C 1853.79 858.262 1850.89 860.948 1846.29 860.219 C 1847.52 856.918 1853.76 849.767 1856.37 844.981 C 1866.46 826.502 1872.24 805.921 1872.97 784.912 z" fill="rgb(102,49,25)" transform="translate(0,0)"></path>
<path d="M 1364.95 799.243 C 1370.81 801.732 1369.1 808.878 1371.51 816.409 C 1378.65 838.753 1392.71 854.468 1404.68 873.356 C 1400.29 872.723 1399.44 871.925 1396.53 868.59 C 1380.43 850.113 1363.88 824.501 1364.95 799.243 z" fill="rgb(105,62,44)" transform="translate(0,0)"></path>
<path d="M 1393.26 824.436 C 1400.55 826.393 1421.4 866.619 1430.61 872.816 C 1433.71 874.899 1442.89 885.999 1443.41 890.272 C 1430.83 888.765 1397.92 838.133 1393.26 824.436 z" fill="rgb(105,62,44)" transform="translate(0,0)"></path>
<path d="M 1895.2 748.754 C 1897.27 750.757 1897.4 752.824 1898.22 755.918 C 1904.91 781.198 1900.21 810.552 1886.94 832.993 L 1886.1 833.325 L 1885.48 832.691 C 1887.11 822.178 1892.42 811.353 1894.62 796.523 C 1896.09 786.769 1896.59 776.893 1896.1 767.041 C 1895.73 760.606 1894.79 755.25 1895.2 748.754 z" fill="rgb(102,49,25)" transform="translate(0,0)"></path>
<path d="M 1491.84 618.769 C 1514.09 613.411 1572.75 609.25 1591.9 624.141 C 1567.46 617.349 1544.39 615.773 1519.14 617.243 C 1514.41 617.519 1494.67 620.448 1491.64 619.503 L 1491.84 618.769 z" fill="rgb(102,49,25)" transform="translate(0,0)"></path>
<path d="M 1437.26 863.543 C 1437.73 863.586 1439.82 863.787 1440.38 864.355 C 1451.59 875.724 1461.5 888.575 1473.49 899.387 C 1473.63 900.273 1473.77 901.159 1473.91 902.044 C 1464.87 900.207 1437.01 871.65 1437.26 863.543 z" fill="rgb(105,62,44)" transform="translate(0,0)"></path>
<path d="M 1804.61 841.985 L 1805.4 842.947 C 1800.11 863.229 1778.51 883.294 1762.09 894.955 L 1761.69 894.578 C 1762.28 891.601 1771.39 883.304 1773.98 880.858 C 1787.22 868.366 1795.06 857.049 1804.61 841.985 z" fill="rgb(102,49,25)" transform="translate(0,0)"></path>
<path d="M 1774.77 851.952 C 1770.57 873.845 1733.67 897.768 1715.62 907.128 L 1715.45 906.316 C 1716.57 903.714 1724.02 899.706 1726.84 898.015 C 1746.94 885.972 1760.71 870.177 1774.77 851.952 z" fill="rgb(105,62,44)" transform="translate(0,0)"></path>
<path d="M 1843.62 821.805 C 1844.67 836.352 1819.68 865.878 1809.18 874.957 C 1809.48 873.087 1839.78 828.12 1843.62 821.805 z" fill="rgb(102,49,25)" transform="translate(0,0)"></path>
<path d="M 1872.97 784.912 C 1872.82 780.37 1872.63 779.344 1873.66 775.023 C 1875.45 776.905 1875.31 779.623 1875.87 782.748 L 1872.97 784.912 z" fill="rgb(105,62,44)" transform="translate(0,0)"></path>
<path d="M 406.333 416.448 C 476.054 413.886 574.662 430.996 628.323 478.552 C 645.48 493.758 660.95 514.847 661.688 538.499 C 662.584 567.21 651.4 582.013 633.44 602.05 C 629.241 633.398 615.386 664.364 593.242 687.292 C 586.223 694.559 572.059 705.014 563.446 711.737 C 560.699 720.656 557.917 729.307 550.497 735.602 C 515.827 765.019 450.257 772.99 406.828 772.903 C 367.392 773.22 317.185 763.617 282.439 745.928 C 266.8 737.967 261.432 730.232 256.415 714.087 C 210.241 683.661 191.324 650.443 174.28 599.109 C 173.527 596.84 166.794 588.767 164.96 586.604 C 155.32 575.229 149.613 561.302 149.189 546.35 C 147.943 491.333 206.61 458.67 251.398 442.485 C 301.86 424.249 353.134 417.958 406.333 416.448 z" fill="rgb(105,62,44)" transform="translate(0,0)"></path>
<path d="M 383.233 426.42 C 453.559 419.663 563.139 436.637 620.381 481.907 C 654.04 507.007 667.593 553.365 635.499 586.338 C 586.369 636.815 498.972 652.598 431.234 656.918 C 358.239 658.932 294.996 654.424 227.971 623.625 C 121.469 574.685 143.774 493.221 243.429 455.425 C 293.862 436.298 329.281 429.959 383.233 426.42 z" fill="rgb(253,249,238)" transform="translate(0,0)"></path>
<path d="M 383.617 440.425 C 455.519 436.737 547.405 448.688 604.104 495.642 C 637.963 525.374 640.058 565.38 601.728 592.608 C 550.77 628.808 490.072 640.774 428.752 643.279 C 394.771 646.479 364.312 642.767 331.251 638.855 C 198.483 623.145 98.223 524.232 276.432 460.66 C 312.598 447.759 343.434 442.951 383.617 440.425 z" fill="rgb(105,62,44)" transform="translate(0,0)"></path>
<path d="M 395.253 447.431 C 461.419 444.432 562.763 459.805 608.148 511.971 C 631.987 539.372 623.872 563.582 597.263 584.194 C 562.414 528.481 471.716 520.72 411.739 518.242 C 355.555 518.815 239.628 531.499 216.231 589.06 C 213.395 586.712 210.588 584.328 207.812 581.909 C 153.147 533.694 222.51 487.71 265.673 472.321 C 311.317 456.046 347.129 449.853 395.253 447.431 z" fill="rgb(156,179,146)" transform="translate(0,0)"></path>
<path d="M 381.876 529.427 C 413.885 526.913 461.69 530.565 493.402 536.347 C 531.343 543.265 568.596 555.927 591.302 588.956 C 544.112 618.291 491.158 630.417 436.25 632.989 C 376.353 634.421 271.899 630.886 223.511 592.211 C 240.646 545.752 337.707 531.974 381.876 529.427 z" fill="rgb(213,125,100)" transform="translate(0,0)"></path>
<path d="M 374.386 550.411 C 378.063 550.03 385.106 550.135 389.046 550.067 C 375.281 554.16 357.022 557.474 342.626 560.524 C 318.815 565.571 299.267 570.406 276.254 577.674 C 272.225 579.38 271.826 579.777 267.613 579.526 L 267.158 578.278 C 278.682 564.886 354.899 551.89 374.386 550.411 z" fill="rgb(102,49,25)" transform="translate(0,0)"></path>
<path d="M 187.947 609.858 C 218.07 635.878 278.636 654.151 317.892 660.676 C 387.91 672.316 485.142 667.63 552.739 644.704 C 577.717 636.119 601.385 624.119 623.072 609.044 C 618.083 632.159 612.423 646.223 599.341 666.021 C 535.561 752.278 379.819 765.914 288.012 720.727 C 234.885 694.578 207.985 664.801 187.947 609.858 z" fill="rgb(156,179,146)" transform="translate(0,0)"></path>
<path d="M 551.847 719.148 L 552.603 720.419 C 544.628 742.401 481.005 757.126 459.217 760.504 C 405.368 768.852 318.944 762.695 274.621 730.042 C 272.429 727.783 269.96 724.616 267.91 722.146 C 281.488 728.714 295.439 734.479 309.692 739.412 C 371.031 760.509 446.857 761.258 508.18 738.472 C 523.28 732.861 537.382 726.219 551.847 719.148 z" fill="rgb(253,249,238)" transform="translate(0,0)"></path>
<path d="M 103.269 1531.73 C 104.835 1533.86 104.694 1533.46 104.953 1536.13 C 126.445 1757.21 362.061 1858.67 551.738 1899.6 C 636.676 1917.93 725.22 1929.93 813.159 1935.41 C 837.536 1936.83 861.926 1938.01 886.327 1938.94 C 899.334 1939.39 976.959 1938.59 979.606 1944.34 L 977.652 1945.72 C 835.782 1954.56 676.244 1936.79 538.039 1905.93 C 390.802 1873.06 224.672 1804.86 141.56 1671.92 C 120.891 1638.86 93.8606 1570.82 103.269 1531.73 z" fill="rgb(105,62,44)" transform="translate(0,0)"></path>
<path d="M 578.289 1077.18 C 582.349 1077.08 581.389 1076.28 583.434 1078.07 C 579.931 1081.74 561.433 1086.66 555.49 1088.87 C 411.146 1142.45 252.429 1220.47 161.83 1349.85 C 151.537 1364.55 142.661 1383.49 134.99 1399.52 C 134.352 1400.67 134.014 1400.84 133.089 1401.8 L 131.784 1400.75 C 131.715 1388.22 149.38 1355.54 156.158 1344.76 C 232.39 1223.58 443.254 1107.99 578.289 1077.18 z" fill="rgb(105,62,44)" transform="translate(0,0)"></path>
<path d="M 1499.3 1064.35 C 1518.06 1064.21 1552.32 1075.72 1570.66 1081.94 C 1672.32 1116.44 1777.85 1171.92 1857.3 1244.79 C 1865.57 1252.37 1890.52 1277.15 1890.78 1287.37 C 1885.31 1286.01 1870.91 1269.66 1866.07 1264.79 C 1854.97 1253.65 1843.47 1242.91 1831.61 1232.59 C 1817.06 1220.09 1800.39 1207.73 1784.51 1197 C 1721.6 1154.51 1652.81 1121.11 1581.96 1094.11 C 1555.19 1083.91 1528.19 1074.58 1500.83 1066.08 C 1500.32 1065.51 1499.81 1064.93 1499.3 1064.35 z" fill="rgb(105,62,44)" transform="translate(0,0)"></path>
<metadata><recraft-signature>{"signed_by": "recraft", "signature_b64": "j1g3TwDJfiH635FbA0i6R110gT52XM4i1EJRq4dpZ/jeJ0WVAjxmVcm/QrJ9KZ2ZT1QOZloF7+rl9TRK0eAzBQ==", "signing_algo": "Ed25519", "generation_timestamp": 1778092699, "identifier": "71ee0fea-ca90-44d8-987e-11d8c426830f"}</recraft-signature></metadata></svg>