<?xml version="1.0" encoding="utf-8" ?><svg xmlns="http://www.w3.org/2000/svg" xmlns:xlink="http://www.w3.org/1999/xlink" width="1024" height="1024" viewBox="0 0 1024 1024"><path fill="white" d="M0 0L1024 0L1024 1024L0 1024L0 0Z"/><path fill="#060201" d="M107.68 735.099C98.3234 712.401 178.453 581.759 193.384 556.822C211.445 527.558 230.22 498.609 244.992 467.476C261.074 433.46 265.793 396.024 278.176 360.676C279.359 357.301 279.894 353.14 281.128 349.602C285.264 337.477 287.166 317.63 294.232 307.365C301.53 299.568 314.832 293.004 324.063 287.718C342.822 276.975 357.727 263.199 375.883 252.2C380.204 249.582 414.226 252.657 421 252.035C424.291 251.732 433.679 254.135 437.563 254.152C449.849 254.295 460.05 249.237 466.28 263.926C476.214 265.974 478.804 267.508 487.263 272.847C490.375 274.812 500.709 275.279 504.491 276.42C508.014 277.1 513.677 278.764 516.828 279.169C525.163 280.237 533.161 276.236 542.108 277.466C548.92 278.403 554.626 281.957 560.943 282.35C564.054 282.544 571.863 277.346 575.332 276.021C578.589 274.777 582.807 273.162 586.309 272.625C596.235 271.16 605.929 272.167 615.979 271.298C624.266 270.582 631.772 269.473 640.338 269.568C661.488 269.802 676.022 288.666 694.322 296.995C698.998 299.124 703.224 302.012 707.929 304.103C713.886 307.6 727.31 312.451 730.805 318.327C737.118 328.941 740.429 343.864 743.667 355.771L755.134 398.915C766.544 440.641 779.56 481.065 803.515 517.3C809.274 526.011 815.484 534.589 820.939 543.462C833.555 563.944 845.772 584.67 857.584 605.626C869.527 626.377 921.68 717.692 917.587 735.984C917.166 742.794 916.584 747.867 915.949 754.539L915.901 757.467C915.421 773.817 913.723 804.466 908.136 819.412C902.068 835.644 865.496 850.594 850.288 858.26C847.134 859.85 832.538 863.667 831.302 865.056C831.051 866.453 831.368 865.878 830.315 866.837L829.17 866.728C824.775 863.204 810.62 835.086 807.772 828.994C793.637 798.757 780.567 766.556 770.883 734.579C765.391 716.625 760.019 698.635 754.767 680.61C753.233 675.185 751.834 669.647 750.219 664.263C748.492 658.508 747.257 652.326 745.393 646.657C728.412 595.011 708.208 544.437 686.385 494.666C684.614 490.626 679.056 487.492 676.182 484.129C673.399 481.005 670.637 477.952 668.295 474.432C663.323 467.765 660.63 459.616 656.231 452.807C651.029 444.754 644.489 437.444 639.319 429.215C633.057 419.248 629.628 409.743 625.235 399.036C624.389 396.975 622.408 393.857 620.493 392.587C612.898 387.549 602.675 386.016 594.079 383.061C587.845 380.917 581.95 378.811 575.85 376.59C576.679 381.183 577.816 388.017 579.012 392.325C581.883 402.661 584.377 409.862 585.552 420.639C586.392 428.414 586.553 436.248 586.034 444.051C585.334 454.972 584.106 462.615 586.877 473.414C591.098 489.863 595.14 507.178 601.122 523.073C625.799 525.498 658.658 537.444 680 550.083C697.29 560.323 716.454 578.045 721.684 598.247C724.849 609.056 720.972 631.388 714.031 640.276C703.364 653.938 704.73 655.987 700.2 671.999C682.412 734.861 622.982 781.863 560.673 796.095C521.973 804.934 478.272 803.194 440.761 789.499C396.891 773.033 354.798 736.325 336.19 692.749C333.823 687.098 331.714 681.342 329.869 675.499C329.175 673.281 326.302 663.166 325.427 662.098C305.161 637.352 298.945 609.028 317.487 579.343C333.734 553.333 375.923 534.887 407.675 527.684C409.597 510.762 409.479 492.712 412.406 475.656C412.861 473.007 411.476 460.288 411.321 456.383C411 445.84 411.046 435.289 411.459 424.748C412.042 408.765 414.531 396 415.623 380.634C412.198 382.603 408.906 384.329 405.397 386.146C398.199 403.7 390.466 416.393 379.089 431.655C376.869 434.632 368.823 443.687 367.759 445.661C363.031 454.431 362.905 457.145 356.509 465.526C349.027 475.33 339.273 478.759 334.391 488.696C332.007 493.55 329.542 500.392 327.471 505.496L317.596 529.431C300.794 570.262 286.144 611.946 273.708 654.311C262.898 690.786 253.357 728.786 241.946 764.923C236.257 782.936 207.65 857.733 193.49 865.079L192.665 864.675C192.565 862.697 192.941 862.807 194.063 860.735C174.858 858.445 130.944 838.577 119.181 823.148C108.708 809.412 107.915 773.739 107.818 756.556C107.788 751.158 109.251 740.098 107.68 735.099Z"/><path fill="#F0CEAD" d="M172.024 600.218C173.798 596.195 179.613 586.726 182.334 583.28L182.241 583.618C186.038 579.666 206.648 555.122 206.627 551.453C202.653 552.781 190.261 571.201 186.78 575.456C185.564 576.941 184.405 579.95 183.02 581.164C183.033 580.971 183.046 580.778 183.059 580.584C201.385 544.285 231.829 506.975 248.324 470.08C260.024 445.576 264.994 419.439 271.831 393.495C277.267 372.868 285.211 352.279 289.106 331.086C291.132 321.24 293.483 309.145 303.075 303.632C320.484 293.625 337.038 283.213 353.43 271.559C357.614 268.584 375.545 254.059 379.029 254.145C397.416 254.599 417.962 253.714 435.994 257.068C430.553 262.523 428.709 266.984 423.899 272.066C420.601 275.551 407.491 277.736 402.493 278.479C401.517 278.624 395.477 278.27 394.003 278.192L393.522 278.829C392.645 278.684 392.603 278.682 391.799 278.206L391.042 279.617C389.583 275.995 386.702 273.987 383.688 271.619C387.535 279.828 395.449 287.737 403.664 291.736C399.36 291.317 397.149 291.258 393.269 289.115C390.509 285.234 388.738 283.702 385.611 280.222C382.247 276.478 379.607 272.331 375.948 268.763C379.457 276.166 382.473 282.869 385.565 290.465C386.796 293.488 390.158 297.677 391.699 300.72L383.133 307.547C382.906 307.791 381.871 308.424 381.544 308.638C377.723 308.23 375.618 300.519 372.561 298.774C372.76 303.705 379.184 306.719 378.348 310.839L377.026 311.858C374.702 310.898 366.651 297.627 364.652 295.139C366.994 302.974 368.785 307.194 375.687 312.439C371.045 314.403 365.039 305.286 361.784 304.282C363.462 308.048 365.77 310.079 368.668 312.903C364.367 312.007 356.967 310.879 353.222 309.589C351.784 306.879 350.182 303.654 348.519 301.147C349.26 304.459 349.726 306.008 350.9 309.195C344.751 309.973 344.374 303.567 342.084 301.614C341.079 303.74 343.268 306.585 344.388 308.529C335.521 307.259 333.607 302.312 323.898 301.251C328.088 303.65 331.857 304.842 335.553 306.932C331.68 307.076 327.333 307.098 323.58 307.859C338.554 309.89 353.843 313.332 368.391 315.22C365.887 316.374 364.454 316.956 362.157 318.535C357.975 320.972 352.944 317.654 350.012 314.486L349.263 315.293C350.157 318.153 354.571 319.65 357.153 320.878L356.785 321.581C354.208 322.302 351.349 322.071 348.625 322.043L348.73 322.503C350.058 323.166 351.34 323.833 352.701 324.425C349.072 326.062 346.161 327.336 342.44 328.726C339.077 329.982 333.354 331.443 330.497 333.132L330.382 333.672C332.29 334.087 332.187 334.105 334.067 333.624L334.959 334.394C333.756 334.769 333.776 334.694 332.846 335.518C333.05 335.549 333.252 335.591 333.457 335.611C353.01 337.536 380.282 313.86 395.134 302.085C400.284 306.994 406.182 310.169 411.269 315.401L411.84 315.992L413.075 315.877C413.558 315.008 413.343 315.402 413.098 314.013C411.171 311.416 398.8 303.221 395.633 301.488C399.092 299.076 402.577 296.703 406.088 294.368C408.788 297.153 416.996 305.777 420.367 305.916C420.541 303.664 410.241 297.789 407.478 294.152C407.471 292.495 407.243 293.225 408.148 291.874C410.922 290.474 414.075 292.177 417.252 292.745C417.941 290.485 418.071 291.471 417.429 289.638C416.07 288.82 415.289 289.059 413.672 289.161L413.037 289.206C415.006 284.887 425.272 274.204 429.184 270.238L432.085 265.532C435.742 260.557 439.054 256.611 445.632 255.623C449.332 255.067 456.484 255.787 459.322 258.204C470.64 267.843 446.223 291.511 440.397 299.417C439.01 301.299 435.048 301.826 434.618 304.704C442.115 306.338 458.026 279.66 461.543 273.623C458.357 285.941 447.564 297.7 439.102 306.797C436.238 309.876 435.098 310.968 433.215 314.863C436.592 311.692 439.844 308.473 443.608 305.77C435.695 325.098 425.14 324.155 414.252 340.884C411.151 345.648 411.796 354.946 410.435 361.082C408.799 368.382 406.392 375.488 403.254 382.28C398.218 392.941 391.709 401.641 384.824 411.062C383.01 413.544 374.134 423.972 373.566 425.419C377.755 422.988 394.872 400.304 397.475 395.608L398.087 396.552C384.716 421.163 366.121 442.352 342.333 457.334C339.065 459.392 326.923 464.696 325.616 466.432L327.048 467.164C325.525 467.826 325.051 467.69 324.417 468.833C333.716 471.735 347.45 462.114 354.39 456.707L354.872 457.012C354.217 464.02 322.414 475.517 322.286 475.791C328.235 480.776 352.376 463.687 358.022 459.6C350.292 469.776 340.104 475.748 328.364 480.45C325.602 481.556 319.467 483.483 317.327 485.242L317.52 486.038C319.397 486.603 322.479 485.041 324.312 484.268L324.116 486.032L323.954 486.44L326.5 486.508L326.701 486.804C323.88 488.178 321.175 488.069 319.51 489.607L319.761 490.023L322.336 490.236C322.379 491.129 322.512 490.699 321.978 491.348C318.459 495.631 315.73 501.329 313.092 506.242C301.758 527.344 294.428 548.003 286.401 570.346C279.288 590.147 272.294 609.311 266.525 629.655C264.993 635.06 261.672 643.355 261.208 648.927C261.238 649.142 261.267 649.357 261.297 649.572C263.375 648.195 264.525 643.601 265.259 641.184L266.093 641.393L266.622 640.995C269.966 634.648 273.406 623.353 275.758 616.227C279.74 604.158 283.972 592.167 287.969 580.112C289.991 574.013 291.032 568.024 293.292 561.57C299.133 544.843 305.672 528.368 312.893 512.188C316.143 504.923 320.415 497.365 323.351 490.112C324.871 489.248 325.106 488.739 326.499 488.892C325.538 492.181 322.77 497.765 321.272 501.03C318.007 507.995 314.838 515.004 311.767 522.057C304.636 538.571 299.082 554.323 292.654 570.991C292.785 570.861 292.917 570.732 293.046 570.601C299.057 564.47 308.562 535.947 312.741 526.19C316.313 517.853 320.362 509.727 324.026 501.432C325.076 499.055 328.641 488.356 330.971 487.982C330.66 489.992 328.149 495.108 327.185 497.335C312.687 530.847 300.307 565.263 288.501 599.841C279.665 625.089 271.469 650.556 263.922 676.218C246.975 734.333 233.404 792.853 202.134 845.212C200.848 847.364 193.986 859.083 194.063 860.735C174.858 858.445 130.944 838.577 119.181 823.148C108.708 809.412 107.915 773.739 107.818 756.556C107.788 751.158 109.251 740.098 107.68 735.099C113.394 714.613 128.865 686.965 138.913 667.887C144.47 657.336 150.284 646.008 155.79 635.512C159.01 629.374 171.224 607.65 172.866 601.985L172.375 601.157L172.024 600.218Z"/><path fill="#060201" d="M432.939 265.954C439.964 258.123 442.828 255.75 453.763 258.962C467.402 262.969 457.637 272.529 452.92 280.229C444.163 294.524 432.567 301.533 419.474 286.504C423.458 276.139 424.818 278.272 429.79 271.277L429.184 270.238L432.085 265.532L432.939 265.954Z"/><path fill="#9F8E82" d="M432.085 265.532L432.939 265.954L429.79 271.277L429.184 270.238L432.085 265.532Z"/><path fill="#F0CEAD" d="M445.348 259.554C447.425 259.515 458.226 261.496 458.395 265.334C458.546 268.727 455.01 273.734 452.705 276.763C447.795 283.212 444.248 292.784 435.335 293.813C430.293 293.04 418.443 289.063 422.792 282.028C425.411 277.949 428.762 274.099 431.968 270.44C436.019 265.818 439.199 261.208 445.348 259.554Z"/><path fill="#E8C39D" d="M350.012 314.486C352.766 314.332 353.478 316.963 355.529 317.002C357.844 317.045 359.801 314.497 362.807 316.174C361.69 316.779 361.633 316.676 360.835 317.639L362.157 318.535C357.975 320.972 352.944 317.654 350.012 314.486Z"/><path fill="#060201" d="M187.608 814.616C193.412 787.181 209.581 755.88 221.214 730.23C226.166 719.311 235.577 690.525 242.93 683.177C238.82 699.127 232.135 714.942 226.376 730.312C218.633 750.979 210.946 771.648 201.051 791.415C200.162 793.192 197.68 798.372 196.574 799.713L194.551 799.955C192.273 805.043 190.206 809.67 187.608 814.616Z"/><path fill="#9F8E82" d="M194.551 799.955C200.434 782.174 209.78 764.446 216.077 746.668C218.284 740.436 221.791 734.532 224.01 727.943C223.254 733.358 216.853 747.445 214.372 753.436L202.696 782.157C200.922 786.479 197.102 795.307 196.574 799.713L194.551 799.955Z"/><path fill="#060201" d="M247.72 711.38C249.179 713.578 247.737 718.946 247.075 721.53C236.733 761.884 225.447 802.731 203.71 838.672C200.554 843.89 197.587 849.427 193.211 853.607L192.717 852.788C193.875 847.965 202.099 834.729 204.652 829.862C211.629 816.561 217.938 804.358 223.49 790.382C230.18 773.546 234.031 756.983 239.406 739.844C241.416 733.434 244.911 716.089 247.72 711.38Z"/><path fill="#060201" d="M180.232 602.412L180.224 603.652C160.414 636.271 139.733 678.401 124.566 713.518C122.021 719.382 119.58 725.29 117.244 731.24C116.239 733.864 112.975 744.321 111.132 745.511C107.559 733.135 167.93 611.572 180.232 602.412Z"/><path fill="#060201" d="M164.679 643.347C165.499 646.856 156.002 664.885 153.982 669.136C145.79 686.243 137.95 703.516 130.467 720.944C128.748 725.031 122.725 743.182 121.144 745.365C120.954 744.941 120.869 744.795 120.757 744.3C118.43 734.03 156.637 654.766 164.679 643.347Z"/><path fill="#060201" d="M227.873 751.184L228.792 751.661C229.234 753.962 227.273 757.79 226.498 760.05C220.246 778.278 212.72 795.595 203.982 812.772C202.903 812.016 202.818 812.04 202.471 810.784C204.222 804.103 207.927 797.385 210.56 790.968C215.447 779.058 220.607 761.422 227.873 751.184Z"/><path fill="#060201" d="M237.367 742.42C237.412 745.02 235.322 749.192 234.479 751.792C231.249 761.746 228.108 771.734 224.231 781.461C219.93 792.248 214.795 802.675 209.787 813.145C209.74 812.928 209.668 812.715 209.647 812.494C209.351 809.301 231.311 753.077 234.392 746.534C235.136 744.955 236.203 743.704 237.367 742.42Z"/><path fill="#060201" d="M259.292 451.342L259.811 451.915C259.781 461.938 235.345 506.786 228.195 516.066L227.793 515.329C228.828 512.104 232.864 504.942 234.639 501.582C238.734 493.859 242.76 486.1 246.717 478.306C250.989 469.844 255.041 459.087 259.292 451.342Z"/><path fill="#060201" d="M205.585 815.743C206.066 815.876 206.536 816.131 206.992 816.334C207.73 822.167 197.526 838.13 193.953 843.286C193.551 843.172 193.106 842.87 192.735 842.671C191.997 839.607 203.466 819.582 205.585 815.743Z"/><path fill="#060201" d="M197.265 818.333C197.466 819.084 197.602 819.79 197.571 820.574C197.322 826.75 191.018 841.062 186.483 845.205C185.456 841.162 194.82 822.808 197.265 818.333Z"/><path fill="#060201" d="M385.891 393.032L386.221 393.392C381.497 403.272 366.85 417.013 357.813 423.058L357.327 422.463C358.229 420.936 364.101 416.122 365.868 414.53C373.369 407.774 379.453 400.765 385.891 393.032Z"/><path fill="#060201" d="M376.389 283.199L377.391 283.872C380.199 290.687 386.106 296.963 388.51 302.576C385.672 301.098 381.181 294.956 379.463 292.113C377.379 288.665 375.565 287.004 376.389 283.199Z"/><path fill="#060201" d="M373.611 296.022L372.443 294.503L372.954 293.917C375.747 294.745 382.711 302.063 383.349 304.971C382.647 305.998 383.07 305.598 382.127 306.219C379.063 303.002 377.085 299.271 373.611 296.022Z"/><path fill="#060201" d="M401.685 344.689C402.715 345.387 402.339 344.938 402.682 346.172C401.561 349.905 399.945 353.47 397.877 356.774L396.74 356.272C396.256 353.694 400.2 347.194 401.685 344.689Z"/><path fill="#060201" d="M394.327 306.819C398.523 307.793 404.248 313.597 408.249 316.598C404.445 316.238 396.37 309.997 394.327 306.819Z"/><path fill="#060201" d="M409.435 303.4C410.586 303.916 416.873 309.2 417.659 310.181C413.835 310.931 411.084 306.291 409.435 303.4Z"/><path fill="#060201" d="M354.21 303.409C355.922 304.317 359.255 308.262 360.141 310.094C356.73 308.571 354.873 307.173 354.21 303.409Z"/><path fill="#060201" d="M392.664 353.344L393.129 353.873C393.218 355.611 392.162 358.129 391.574 359.869C389.084 357.739 390.806 355.098 392.664 353.344Z"/><path fill="#37322F" d="M328.801 470.777L329.325 470.54L329.599 470.925C327.072 471.91 325.283 472.199 322.652 472.745L321.829 472.699L322.164 472.093C325.121 471.037 325.653 470.979 328.801 470.777Z"/><path fill="#F0CEAD" d="M571.844 280.545C585.452 272.724 593.945 275.179 608.987 274.587C617.428 274.772 640.742 270.579 648.112 273.313C663.525 279.03 677.964 291.607 692.938 299.623C699.613 303.197 725.909 315.781 728.92 320.463C732.44 325.935 737.054 345.805 738.818 352.86C741.236 362.557 743.806 372.216 746.527 381.833C755.1 412.558 765.795 444.677 776.951 474.578C786.166 499.277 804.024 521.68 817.764 544.061C830.042 564.06 841.503 583.924 852.767 604.511C860.07 617.861 868.948 631.624 875.808 645.088C882.535 658.291 891.797 673.959 897.539 687.29C902.052 698.055 906.454 708.867 910.744 719.722C912.096 723.117 915.884 733.303 917.587 735.984C917.166 742.794 916.584 747.867 915.949 754.539L915.901 757.467C915.421 773.817 913.723 804.466 908.136 819.412C902.068 835.644 865.496 850.594 850.288 858.26C847.134 859.85 832.538 863.667 831.302 865.056C827.89 860.661 824.48 852.699 821.961 847.476L822.609 846.757C824.813 850.409 825.804 852.039 828.548 855.239C825.061 847.145 816.567 833.919 811.727 826.241C809.716 823.218 807.786 818.575 806.239 815.172L807.102 814.487C802.982 805.311 801.118 797.928 797.903 788.662C795.986 783.138 788.704 770.65 787.227 765.243L787.074 764.782C786.248 762.354 785.919 761.079 783.637 759.936C769.004 724.963 759.318 682.747 748.068 646.183C741.744 624.647 736.634 601.466 729.461 580.227C719.468 550.634 705.326 518.653 691.083 490.791L691.725 490.589C694.855 492.401 698.602 503.659 700.613 507.65C715.212 536.622 726.33 563.443 736.333 594.283C740.624 607.918 744.742 621.607 748.685 635.347C749.884 639.447 752.291 649.485 753.928 652.548C754.131 649.018 749.636 632.987 748.438 628.835C743.071 610.231 737.66 591.171 731.188 572.9C726.2 558.816 719.08 543.927 713.341 530.283C710.709 524.025 698.5 501.087 697.544 496.811L698.102 496.742C699.975 498.478 706.178 510.757 707.814 513.838L708.27 513.847L708.304 514.598L708.772 514.699C708.317 513.865 708.5 514.339 708.291 513.253L708.457 512.378C709.666 514.282 714.764 526.572 716.04 529.465C725.594 551.141 734.99 575.08 742.686 597.003C745.385 604.689 762.149 659.461 763.476 661.075C760.626 644.43 754.607 626.935 749.211 610.935C738.563 578.85 726.325 547.315 712.542 516.447C710.152 510.973 704.496 496.448 700.937 492.892C702.636 491.606 704.287 492.168 705.541 490.524L705.276 489.723C703.089 490.173 698.005 491.252 695.989 490.652C681.824 486.44 678.967 484.071 671.322 472.38C676.844 477.298 685.408 486.217 693.167 485.326L692.677 484.703C683.506 481.65 670.66 471.304 665.388 462.887C670.565 467.963 673.897 469.828 680.006 473.654C683.506 474.555 685.814 475.253 689.193 476.622C693.601 478.11 700.39 480.386 705.001 480.76C701.849 476.551 673.691 475.633 661.844 455.156C668.759 462.455 675.897 467.823 685.25 471.746C688.536 473.124 700.526 477.247 703.591 476.003L703.397 475.331L701.17 474.734L701.711 474.367L700.97 473.005C699.154 472.994 697.18 472.741 695.356 472.566C690.542 471.388 685.42 467.323 681.375 466.572C668.716 462.939 652.133 441.666 644.283 431.087C632.306 414.947 625.997 393.554 621.496 374.229C624.146 377.114 628.096 381.656 631.927 382.746L631.452 382.737L631.785 382.823L631.953 382.531C629.469 378.7 623.802 374.647 619.551 368.662C624.321 372.481 630.619 375.367 636.595 376.701C633.601 374.215 626.452 370.235 622.657 367.573C614.593 361.917 611.446 356.939 605.398 349.31C603.132 346.451 600.228 343.247 598.176 340.3C599.154 339.635 598.897 340.059 599.164 339.189C586.877 329.448 585.12 326.942 575.893 314.178L576.526 313.856C581.279 317.734 589.418 319.75 595.158 316.642C599.66 314.204 600.482 310.77 601.631 306.177C597.778 293.552 589.331 288.765 579.844 281.465C598.951 287.688 607.208 301.008 623.067 311.827C623.764 312.303 623.368 311.725 623.76 312.681L624.605 313.542C629.545 315.304 631.287 318.21 635.739 321.034C644.873 326.829 653.996 332.109 663.33 337.498C674.949 344.205 683.182 351.888 697.243 353.297C694.276 351.614 692.815 350.836 689.655 349.56C692.889 349.534 695.846 349.555 699.069 349.222C684.543 345.298 681.613 346.811 668.523 337.308C676.729 332.362 684.615 328.181 693.535 324.6C695.958 323.626 700.452 321.869 701.928 319.934L698.839 318.694C700.942 318.488 702.417 318.606 703.993 317.353C701.083 314.535 677.775 323.866 674.084 327.117C671.656 329.255 666.021 333.626 663.18 333.013C661.126 330.535 662.775 327.065 665.491 326.187L666.964 327.035C668.583 325.587 667.24 325.409 668.011 324.528C669.404 322.935 682.072 317.487 682.212 316.652C679.842 316.723 674.623 318.717 672.018 319.536C670.371 317.563 666.786 311.256 665.555 310.526C665.327 314.46 667.881 317.553 666.226 319.06C663.116 317.906 662.507 312.181 660.542 311.124L659.711 311.628C659.379 314.523 663.024 319.009 665.081 320.897L664.587 321.227C662.446 322.682 661.865 323.233 660.057 325.079C658.971 325.009 659.491 325.181 658.589 324.235C657.292 326.051 659.136 327.036 657.892 329.276C655.415 328.614 653.126 325.119 651.715 323.06C650.844 320.281 649.94 317.512 649.004 314.753L647.19 314.346L646.625 313.99C644.257 317.114 644.773 317.644 645.335 321.369C644.269 321.355 643.226 320.073 642.16 319.168C642.188 319.053 642.216 318.938 642.244 318.822C642.227 315.156 647.987 306.288 647.545 303.811C646.112 304.547 644.773 306.884 643.785 308.305C644.84 304.702 648.469 294.033 648.113 290.796C646.252 291.725 642.891 300.203 641.923 302.48C641.52 303.347 640.834 304.954 640.387 305.718C638.814 303.062 639.955 300.168 638.418 296.503L637.552 296.479C636.659 299.318 633.88 305.928 633.418 307.934L633.972 302.642L632.976 301.983C632.963 301.471 633.144 300.141 632.611 299.935C621.823 295.758 608.566 296.151 599.018 288.876C590.061 282.05 583.094 279.939 571.844 280.545Z"/><path fill="#060201" d="M841.719 600.6C858.807 619.461 910.556 729.356 915.949 754.539L915.901 757.467C912.011 751.324 909.004 742.583 906.415 735.635C900.08 718.638 892.523 702.588 884.832 686.185C878.511 672.399 871.901 658.747 865.006 645.238C860.164 636.015 855.227 626.841 850.198 617.718C847.674 613.057 843.293 605.419 841.719 600.6Z"/><path fill="#060201" d="M787.227 765.243C790.37 768.716 792.424 773.518 794.48 777.718C805.431 800.094 818.292 821.442 831.684 842.429C833.312 844.98 834.554 847.076 835.717 849.86C825.018 839.65 815.95 821.478 809.156 808.188C806.104 802.217 803.6 796.155 799.571 790.694C803.929 806.948 813.951 824.582 823.179 838.624C826.372 843.483 830.842 848.526 834.116 853.391C823.536 844.806 812.998 827.009 807.102 814.487C802.982 805.311 801.118 797.928 797.903 788.662C795.986 783.138 788.704 770.65 787.227 765.243Z"/><path fill="#060201" d="M657.798 442.56C667.441 451.136 673.178 458.841 685.168 465.275C689.268 467.475 697.975 470.888 700.97 473.005C699.154 472.994 697.18 472.741 695.356 472.566C690.542 471.388 685.42 467.323 681.375 466.572C672.494 460.06 663.573 452.027 657.798 442.56Z"/><path fill="#060201" d="M633.972 302.642C634.468 300.515 635.972 293.233 637.484 291.994C637.99 293.849 637.771 294.592 637.552 296.479C636.659 299.318 633.88 305.928 633.418 307.934L633.972 302.642Z"/><path fill="#F8E9D4" d="M680.006 473.654C683.506 474.555 685.814 475.253 689.193 476.622L688.364 477.966C686.132 476.438 684.081 476.061 681.471 475.321L680.006 473.654Z"/><path fill="#060201" d="M681.471 475.321C684.081 476.061 686.132 476.438 688.364 477.966C684.711 478.034 684.234 477.747 681.471 475.321Z"/><path fill="#37322F" d="M624.605 313.542C623.095 314.125 620.639 315.323 619.167 315.107C620.499 313.719 621.941 313.38 623.76 312.681L624.605 313.542Z"/><path fill="#060201" d="M782.952 691.268C785.103 692.429 786.696 697.734 787.554 700.055C799.221 731.634 812.356 762.723 827.013 793.03C829.514 798.201 832.541 803.321 834.649 808.665C824.794 801.517 784.69 705.147 782.952 691.268Z"/><path fill="#060201" d="M861.197 654.83C867.654 659.57 906.076 738.117 907.148 749.178C904.642 746.062 896.584 727.512 894.085 722.4L869.954 673.346C868.02 669.359 862.111 658.15 861.197 654.83Z"/><path fill="#060201" d="M868.953 639.02C880.654 660.66 892.642 682.368 902.141 705.014C905.907 713.992 909.585 721.245 911.554 730.905C905.961 720.1 902.326 709.429 897.309 698.807C888.429 680.006 878.533 657.711 868.387 639.651L868.953 639.02Z"/><path fill="#060201" d="M766.045 467.293C767.664 468.21 775.465 484.654 777.329 487.955C781.271 494.847 785.394 501.633 789.693 508.308C792.368 512.477 798.48 521.411 800.039 525.763C792.531 521.134 767.263 477.281 766.045 467.293Z"/><path fill="#060201" d="M780.904 729.798C782.294 730.663 782.908 731.954 783.529 733.414C790.901 750.734 796.644 768.465 805.155 785.325C807.54 790.051 809.107 795.324 811.619 800.201L810.164 799.79C808.496 798.248 806.691 792.732 805.485 790.309C795.694 770.628 788.765 750.279 780.904 729.798Z"/><path fill="#060201" d="M641.302 404.332C643.605 405.861 647.654 413.163 649.669 415.852C654.513 422.317 660.811 428.15 666.618 433.737C669.513 436.523 676.09 440.623 677.771 443.498C664.198 437.304 646.976 418.092 641.302 404.332Z"/><path fill="#060201" d="M802.287 767.813C804.716 769.804 817.211 801.863 819.579 807.736C819.289 807.595 818.977 807.494 818.711 807.312C813.357 803.658 804.534 775.332 802.287 767.813Z"/><path fill="#060201" d="M648.047 410.245C649.887 411.115 658.445 420.704 660.228 422.753C664.877 428.09 675.722 436.375 679.467 441.076C671.509 439.389 652.436 417.715 648.047 410.245Z"/><path fill="#060201" d="M817.681 553.291C821.92 554.774 836.996 579.373 839.739 584.203C836.382 582.754 820.193 557.923 817.681 553.291Z"/><path fill="#060201" d="M621.911 337.663C620.956 342.7 613.733 346.014 608.605 345.165C608.249 344.82 608.443 345.059 608.155 344.359C613.096 343.054 617.474 340.22 621.911 337.663Z"/><path fill="#060201" d="M615.856 332.921C616.464 333.46 616.208 333.088 616.356 334.18C613.857 337.793 605.458 340.034 601.132 340.131L600.736 339.373C600.993 339.105 612.396 335.353 615.856 332.921Z"/><path fill="#060201" d="M614.629 328.464L615.566 328.623C612.698 331.387 602.238 335.047 598.104 334.601C597.272 334.158 597.155 334.049 596.394 333.495L596.634 332.775C604.102 333.695 607.476 331.204 614.629 328.464Z"/><path fill="#060201" d="M653.072 305.342L653.592 305.81C654.322 312.023 657.213 316.134 658.575 322.13C654.844 319.319 652.854 309.909 653.072 305.342Z"/><path fill="#060201" d="M690.488 479.488C691.832 479.696 705.062 485.01 706.159 486.168C702.777 487.043 692.998 481.79 690.488 479.488Z"/><path fill="#060201" d="M612.37 323.517L612.623 323.942L612.341 324.655C609.504 326.944 605.558 328.748 602.165 330.065C601.812 329.752 602.003 329.979 601.781 329.263C604.67 326.979 608.98 324.97 612.37 323.517Z"/><path fill="#715F50" d="M868.387 639.651C866.436 636.785 865.143 633.629 863.706 630.469C865.955 633.015 867.353 636.013 868.953 639.02L868.387 639.651Z"/><path fill="#715F50" d="M787.369 760.365C789.782 763.538 791.545 768.194 793.379 771.805L792.843 771.748C790.668 768.385 787.991 764.371 787.369 760.365Z"/><path fill="#E8C39D" d="M172.375 601.157C154.783 631.438 138.299 662.35 122.956 693.831C121.937 695.905 115.13 710.645 114.366 711.017C114.984 708.191 116.372 705.985 117.568 703.377C132.046 671.815 147.436 640.768 165.377 611.008C167.441 607.585 169.521 603.263 172.024 600.218L172.375 601.157Z"/><path fill="#E8C39D" d="M783.637 759.936C785.919 761.079 786.248 762.354 787.074 764.782L787.227 765.243C788.704 770.65 795.986 783.138 797.903 788.662C801.118 797.928 802.982 805.311 807.102 814.487L806.239 815.172C805.154 812.823 804.191 810.363 803.286 807.935C797.258 791.773 789.096 776.293 783.637 759.936Z"/><path fill="#F0CEAD" d="M334.067 333.624C347.542 329.674 362.232 321.949 373.991 314.282C367.573 323.285 346.057 333.159 334.959 334.394L334.067 333.624Z"/><path fill="#E8C39D" d="M391.042 279.617L391.799 278.206C392.603 278.682 392.645 278.684 393.522 278.829C400.558 280.619 402.29 285.833 410.035 284.811L410.503 285.562C408.384 287.115 406.291 288.701 404.223 290.32C399.587 287.705 393.763 284.238 391.042 279.617Z"/><path fill="#F0CEAD" d="M701.928 319.934C692.157 319.71 676.416 330.409 668.122 335.218C666.742 336.018 666.816 335.927 665.549 335.479L665.256 334.787C670.93 328.155 690.288 321.47 698.839 318.694L701.928 319.934Z"/><path fill="#F0CEAD" d="M365.808 441.083L366.567 441.256C353.34 453.869 344.778 462.874 327.048 467.164L325.616 466.432C342.169 461.427 353.116 452.086 365.808 441.083Z"/><path fill="#9F8E82" d="M265.259 641.184C265.75 638.52 267.885 632.424 268.789 629.672C271.484 621.47 274.28 613.301 277.178 605.167C280.019 597.09 285.128 580.853 288.72 574.035C288.757 575.074 286.323 581.754 285.749 583.437L272.728 620.793C270.838 626.259 267.159 635.423 266.622 640.995L266.093 641.393L265.259 641.184Z"/><path fill="#E8C39D" d="M399.577 280.663C401.717 280.618 412.837 281.481 412.94 281.42C411.369 280.217 410.238 279.909 408.373 279.175C410.419 278.155 410.531 278.04 412.757 277.88C413.886 278.544 413.439 278.096 413.924 279.421C417.147 278.21 416.248 276.916 420.949 275.871C417.971 278.816 413.792 283.222 410.503 285.562L410.035 284.811C408.55 283.015 402.585 281.923 399.577 280.663Z"/><path fill="#F0CEAD" d="M626.687 308.497C626.01 308.994 626.449 308.767 625.276 308.953C623.165 308.132 619.41 306.939 618.5 304.887L619.22 304.225C621.922 303.812 626.863 304.353 629.581 304.892L629.705 307.9C629.062 308.01 628.338 308.233 627.799 308.097L626.687 308.497Z"/><path fill="#161212" d="M626.687 308.497C624.288 305.947 621.955 306.99 620.316 305.023C623.134 304.552 625.829 306.253 627.799 308.097L626.687 308.497Z"/><path fill="#F0CEAD" d="M637.552 296.479L638.418 296.503C637.54 299.991 638.655 310.179 636.539 311.826C635.362 309.368 636.817 307.807 635.796 307.413C635.14 308.366 634.265 310.105 633.447 310.262L632.791 310.003L633.381 310.111L632.835 309.501L633.418 307.934C633.88 305.928 636.659 299.318 637.552 296.479Z"/><path fill="#E8C39D" d="M647.19 314.346L649.004 314.753C649.94 317.512 650.844 320.281 651.715 323.06C651.429 323.782 651.11 324.868 650.624 325.368C647.449 322.118 646.692 318.756 647.19 314.346Z"/><path fill="#161212" d="M649.004 314.753C649.94 317.512 650.844 320.281 651.715 323.06C651.429 323.782 651.11 324.868 650.624 325.368C649.503 321.254 648.854 319.104 649.004 314.753Z"/><path fill="#E8C39D" d="M632.976 301.983L633.972 302.642L633.418 307.934C631.815 308.617 631.395 308.343 629.705 307.9L629.581 304.892L629.313 303.834L630.586 303.268L632.976 301.983Z"/><path fill="#CDC2AF" d="M324.312 484.268C330.243 481.71 336.097 478.98 341.868 476.081C341.286 478.425 327.107 484.2 324.116 486.032L324.312 484.268Z"/><path fill="#F8E9D4" d="M708.291 513.253C706.297 510.284 701.815 500.823 700.989 497.428C702.918 498.321 707.546 510.176 708.457 512.378L708.291 513.253Z"/><path fill="#8E888A" d="M575.893 314.178C572.346 310.335 565.426 302.19 565.597 296.809L565.742 296.617L566.068 297.519C568.04 302.893 572.562 309.763 576.526 313.856L575.893 314.178Z"/><path fill="#9F8E82" d="M810.905 827.364C815.074 832.625 819.354 840.816 822.609 846.757L821.961 847.476C820.167 844.805 812.569 830.567 810.905 827.364Z"/><path fill="#4F4A44" d="M615.853 300.854C619.453 301.157 627.944 301.647 630.586 303.268L629.313 303.834C627.769 303.317 618.567 302.085 616.985 302.486L615.853 300.854Z"/><path fill="#9F8E82" d="M681.375 466.572C685.42 467.323 690.542 471.388 695.356 472.566L695.057 473.373C691.858 472.24 683.263 469.145 681.375 466.572Z"/><path fill="#F0CEAD" d="M641.923 302.48L642.794 302.815C643.288 305.129 642.251 307.421 641.081 309.356L640.191 309.942C639.577 308.702 639.929 306.98 640.387 305.718C640.834 304.954 641.52 303.347 641.923 302.48Z"/><path fill="#F0CEAD" d="M610.274 298.713L615.853 300.854L616.985 302.486L616.772 303.496L615.831 303.533C613.638 302.339 612.06 300.5 610.274 298.713Z"/><path fill="#ACA79F" d="M397.475 395.608C398.889 392.985 401.375 388.053 403.056 385.875C401.82 389.362 400 393.396 398.087 396.552L397.475 395.608Z"/><path fill="#F8E9D4" d="M695.356 472.566C697.18 472.741 699.154 472.994 700.97 473.005L701.711 474.367L701.17 474.734C698.335 474.427 697.707 474.363 695.057 473.373L695.356 472.566Z"/><path fill="#6A6465" d="M365.808 441.083C367.29 439.448 368.547 437.74 370.479 436.78C370.241 438.322 367.818 440.217 366.567 441.256L365.808 441.083Z"/><path fill="#F4EDE2" d="M474.358 268.436C477.825 270.036 478.674 270.555 481.753 272.823C482.493 274.826 483.413 277.986 484.781 279.444L485.511 279.402C485.548 277.919 485.108 276.989 484.634 275.588C485.998 275.53 492.143 277.27 494.306 277.641C499.243 278.487 504.565 278.942 509.424 279.805C505.195 288.075 501.996 296.528 501.237 305.894C501.853 308.142 501.252 307.299 502.848 308.673L503.44 308.443C502.057 302.447 505.848 293.131 507.97 287.436L508.654 288.188C507.088 293.877 505.418 299.512 504.38 305.32C509.255 296.981 508.898 288.599 513.543 282.419L513.759 282.789C512.753 286.427 512.153 287.656 510.504 291.077C512.422 288.727 515.687 284.36 517.617 282.39C521.184 282.446 526.042 282.341 529.499 281.477C541.514 278.475 551.026 284.145 562.802 285.842C562.536 287.369 562.493 287.067 561.389 288.408C559.378 290.222 556.012 292.891 554.993 295.24L555.494 294.55L555.877 294.91L555.692 294.385L556.348 294.609C560.622 291.843 559.447 291.806 562.259 288.974L562.98 288.964C561.512 295.727 563.679 302.549 567.478 308.174C568.235 309.287 569.01 310.387 569.803 311.476C568.156 312.213 566.799 312.535 565.953 314.043L566.529 314.445C568.493 314.072 568.961 313.622 570.711 312.537C572.535 315.168 574.632 318.058 576.344 320.724L572.94 324.43L572.342 323.874C573.682 322.135 574.307 321.994 574.33 320.274C560.686 319.637 550.264 382.785 550.603 394.644C551.143 413.548 555.833 429.253 563.07 446.629C564.33 449.828 567.714 458.761 568.043 461.491C569.966 464.146 571.984 470.293 573.095 473.604C575.761 481.423 577.922 489.406 579.563 497.503C582.032 509.435 584.447 533.025 590.567 542.129C589.594 538.501 588.268 534.053 587.659 530.422L588.766 529.019C596.046 544.787 601.755 558.364 607.221 574.713C609.866 582.626 622.39 602.372 627.317 609.777C622.853 595.889 609.969 580.48 604.147 563.458C623.769 591.3 640.225 615.761 635.025 652.741C634.437 656.919 632.428 663.694 629.745 666.983C626.111 675.115 615.633 682.775 613.627 687.225L614.58 688.395C598.533 696.99 589.924 698.57 572.077 701.773C543.65 706.876 516.576 706.544 487.91 705.907C501.4 685.038 507.813 660.38 506.2 635.583C505.369 624.022 503.493 614.607 504.103 602.269L504.135 601.706L503.283 600.611C502.972 604.883 502.697 614.041 502.14 617.601C498.776 639.147 494.332 660.951 484.422 680.537C480.421 688.447 476.759 692.62 472.849 699.306C489.87 685.608 498.94 655.059 502.363 633.788L503.575 632.95C505.328 661.042 499.862 682.037 484.547 705.689C450.769 704.489 420.205 696.791 388.291 686.678C421 675.864 431.686 670.942 454.487 642.463C465.186 629.1 469.11 618.645 470.539 601.528C470.787 598.56 471.537 592.901 471.169 590.114L470.636 589.997C466.439 627.974 430.711 666.553 394.612 677.328C391.282 678.322 385.291 680.572 382.035 680.973C372.394 682.162 356.655 672.929 349.01 667.592C357.443 660.212 370.445 652.72 379.665 645.869C385.109 641.825 392.522 638.768 398.234 634.494C381.69 639.725 356.671 653.332 343.507 664.533C334.567 657.946 328.141 651.716 323.019 641.892L326.841 633.636C330.59 625.564 330.966 628.938 335.319 624.888L335.78 624.783C341.533 628.507 371.543 618.881 378.484 615.578C382.738 613.554 389.137 612.534 393.744 610.855C409.407 605.108 423.195 595.179 433.611 582.146C445.422 567.354 452.104 537.606 450.025 518.725C447.318 537.582 445.916 557.89 436.509 574.57L434.447 573.693L433.807 573.495L433.35 574.21C432.543 575.459 431.277 577.588 430.019 578.03L430.39 576.641C428.865 577.052 421.455 584.064 419.029 585.774C412.135 590.634 399.095 599.27 391.613 602.432C391.278 598.994 392.089 596.824 393.254 593.601C394.367 591.341 400.263 575.547 400.333 573.636L400.162 572.08C403.076 568.067 406.727 559.69 408.8 554.906C415.47 539.871 420.735 524.252 424.528 508.247C426.345 500.431 427.558 492.386 429.306 484.507L445.5 407.954C448.105 395.181 450.489 382.326 453.246 369.545C457.533 349.678 472.482 316.341 473.601 297.262C473.876 295.514 474.4 294.093 474.94 292.417C475.193 290.519 476.32 286.476 476.833 284.342C477.743 283.893 477.963 283.759 478.771 283.082L478.961 283.947L478.835 284.538C478.511 286.111 478.211 286.782 478.74 288.29C480.427 286.605 481.351 277.02 480.063 274.833L479.728 274.72L479.404 280.595C477.574 274.309 479.135 274.701 474.358 268.436Z"/><path fill="#F0CEAD" d="M568.043 461.491C569.966 464.146 571.984 470.293 573.095 473.604C575.761 481.423 577.922 489.406 579.563 497.503C582.032 509.435 584.447 533.025 590.567 542.129C589.594 538.501 588.268 534.053 587.659 530.422L588.766 529.019C596.046 544.787 601.755 558.364 607.221 574.713C609.866 582.626 622.39 602.372 627.317 609.777C622.853 595.889 609.969 580.48 604.147 563.458C623.769 591.3 640.225 615.761 635.025 652.741C634.437 656.919 632.428 663.694 629.745 666.983L629.446 666.247L628.246 667.518L627.423 667.222L626.425 663.785C626.746 662.765 627.036 661.735 627.294 660.697C630.634 647.063 628.35 631.997 624.68 618.692C617.126 591.302 595.728 569.959 586.299 543.737C581.514 529.703 580.864 514.387 578.471 500.002C577.032 491.35 572.217 470.281 567.75 462.995C567.509 462.328 567.679 462.49 568.043 461.491Z"/><path fill="#060201" d="M502.175 328.121L503.273 329.902C501.96 340.935 499.471 351.91 498.151 363.012C496.464 377.207 495.943 391.199 495.925 405.467L496.887 404.68C497.058 406.882 497.187 409.355 497.481 411.519C497.49 415.598 497.282 437.503 496.558 440.599C496.102 441.484 495.852 441.875 495.529 442.815C494.795 459.585 495.543 476.9 494.641 493.218C493.454 514.72 490.618 537.297 488.874 558.936C487.895 557.692 488.05 555.171 487.966 553.455C487.78 547.627 488.734 538.366 489.334 532.44C494.173 484.622 492.63 436.199 494.245 388.195C494.922 368.094 499.368 347.983 502.175 328.121Z"/><path fill="#F4EDE2" d="M496.887 404.68C497.058 406.882 497.187 409.355 497.481 411.519C497.49 415.598 497.282 437.503 496.558 440.599C496.102 441.484 495.852 441.875 495.529 442.815C495.901 436.001 496.028 429.176 495.912 422.353C495.832 417.224 495.279 410.376 495.925 405.467L496.887 404.68Z"/><path fill="#060201" d="M567.75 462.995C572.217 470.281 577.032 491.35 578.471 500.002C580.864 514.387 581.514 529.703 586.299 543.737C595.728 569.959 617.126 591.302 624.68 618.692C628.35 631.997 630.634 647.063 627.294 660.697C627.036 661.735 626.746 662.765 626.425 663.785C625.59 664.173 626 664.124 625.213 664.035C626.695 653.88 626.652 651.128 626.349 640.799C623.796 602.448 599.496 580.454 585.723 548.063C579.447 533.727 578.253 510.139 575.191 494.295C573.071 483.329 570.043 473.678 567.75 462.995Z"/><path fill="#F8E9D4" d="M585.723 548.063C599.496 580.454 623.796 602.448 626.349 640.799C625.218 638.525 625.656 640.964 624.717 638.758C620.733 623.895 618.279 613.157 610.961 599.075C602.136 582.097 588.099 569.089 583.949 550.33C583.77 550.159 583.405 549.467 583.26 549.217C583.859 548.291 584.312 548.464 585.723 548.063Z"/><path fill="#060201" d="M583.949 550.33C586.958 555.777 589.408 561.413 592.639 566.795C602.365 582.999 614.235 598.549 620.085 616.728C622.033 622.781 625.454 632.49 624.717 638.758C620.733 623.895 618.279 613.157 610.961 599.075C602.136 582.097 588.099 569.089 583.949 550.33Z"/><path fill="#161212" d="M497.481 411.519L498.512 412.411C498.812 415.123 500.218 418.631 500.322 420.754C500.82 430.994 501.061 442.517 499.209 452.587L498 453.545C498.581 459.524 497.44 465.188 497.586 471.067C498.017 488.347 497.942 505.282 495.391 522.433C494.916 525.625 494.917 532.604 493.128 535.065C493.125 533.435 493.604 530.165 493.826 528.353C497.431 498.873 496.258 470.206 496.558 440.599C497.282 437.503 497.49 415.598 497.481 411.519Z"/><path fill="#CDC2AF" d="M498.964 430.178C499.33 437.643 498.675 445.66 499.209 452.587L498 453.545C497.729 447.749 498.011 440.715 498.112 434.798C498.494 433.111 498.714 431.893 498.964 430.178Z"/><path fill="#8E888A" d="M498.112 434.798C497.935 431.935 498.161 423.825 499.262 421.39C499.632 425.225 499.453 426.328 498.964 430.178C498.714 431.893 498.494 433.111 498.112 434.798Z"/><path fill="#37322F" d="M501.237 305.894C501.853 308.142 501.252 307.299 502.848 308.673L503.44 308.443C503.436 311.619 504.054 320.962 503.561 323.092L503.046 323.016L502.58 323.637C503.292 316.911 502.798 313.562 501.951 306.871C499.531 326.761 496.061 347.33 494.053 367.13C492.688 362.432 499.846 313.864 501.237 305.894Z"/><path fill="#161212" d="M487.966 553.455C488.05 555.171 487.895 557.692 488.874 558.936C488.718 561.115 488.613 563.297 488.56 565.48L487.517 569.05C487.478 564.442 487.219 557.815 487.966 553.455Z"/><path fill="#161212" d="M476.833 284.342C477.743 283.893 477.963 283.759 478.771 283.082L478.961 283.947C477.395 287.118 476.962 289.736 474.94 292.417C475.193 290.519 476.32 286.476 476.833 284.342Z"/><path fill="#ACA79F" d="M503.283 600.611C503.257 598.787 502.963 595.738 503.762 594.278C505.031 595.998 504.56 599.703 504.135 601.706L503.283 600.611Z"/><path fill="#8E888A" d="M496.887 404.68L497.271 403.415C498.101 404.645 498.344 410.507 498.512 412.411L497.481 411.519C497.187 409.355 497.058 406.882 496.887 404.68Z"/><path fill="#161212" d="M502.58 323.637L503.046 323.016L503.561 323.092C503.506 324.837 503.501 328.31 503.273 329.902L502.175 328.121L502.58 323.637Z"/><path fill="#ACA79F" d="M488.56 565.48C488.538 568.168 488.641 569.437 487.828 572.06C487.313 570.736 487.458 570.507 487.517 569.05L488.56 565.48Z"/><path fill="#060201" d="M576.745 626.932C574.009 617.789 571.361 611.943 567.403 603.609C563.893 596.221 552.689 577.697 552.207 570.117C553.882 573.82 556.741 582.149 558.447 584.749C578.279 614.977 590.992 646.743 572.629 681.42C570.933 684.623 566.119 698.613 562.8 700.062L562.308 699.397C562.299 697.211 563.482 695.633 564.573 693.645C561.398 696.963 558.327 700.886 555.032 703.888C562.99 690.376 569.372 681.701 571.615 665.28C572.278 660.429 571.939 654.195 572.417 650.727L573.027 650.773C575.183 654.392 573.364 672.026 572.809 677.205C579.297 656.889 579.532 637.171 569.881 617.751C564.372 606.667 552.476 589.893 551.569 577.634C554.731 584.034 557.368 590.438 560.75 596.923C565.9 606.798 572.033 616.874 575.67 627.345L576.745 626.932Z"/><path fill="#8E888A" d="M575.67 627.345L576.745 626.932C579.905 638.851 580.801 648.943 577.967 660.998L578.121 659.685C578.023 657.833 578.362 652.478 578.447 650.407C578.816 641.408 578.014 635.908 575.67 627.345Z"/><defs><linearGradient id="gradient_0" gradientUnits="userSpaceOnUse" x1="532.57886" y1="493.45435" x2="537.68585" y2="492.40292"><stop offset="0" stop-color="black"/><stop offset="1" stop-color="#262322"/></linearGradient></defs><path fill="url(#gradient_0)" d="M527.243 439.012C527.744 444.28 527.714 449.603 528.451 454.807L529.835 456.81C531.616 461.201 533.14 471.754 534.388 476.988C537.444 489.809 540.536 502.65 542.837 515.63C544.045 522.443 545.514 528.237 545.444 535.189C545.547 536.57 545.671 537.949 545.818 539.326L545.434 539.554C545.567 542.06 545.622 542.904 546.22 545.324L545.264 546.726C544.711 543.949 542.63 538.15 541.765 534.968C539.489 526.596 536.931 518.048 535.233 509.522C532.2 494.296 529.385 478.588 527.667 463.153C526.803 455.388 527.024 447.096 526.141 439.282L527.243 439.012Z"/><path fill="#060201" d="M545.444 535.189C542.916 527.343 539.421 508.261 537.648 499.484C536.024 491.447 529.614 463.375 529.835 456.81C531.616 461.201 533.14 471.754 534.388 476.988C537.444 489.809 540.536 502.65 542.837 515.63C544.045 522.443 545.514 528.237 545.444 535.189Z"/><path fill="white" d="M528.451 454.807L529.835 456.81C529.614 463.375 536.024 491.447 537.648 499.484C539.421 508.261 542.916 527.343 545.444 535.189C545.547 536.57 545.671 537.949 545.818 539.326L545.434 539.554C542.414 534.045 528.859 463.516 528.451 454.807Z"/><path fill="#060201" d="M526.425 365.917C523.299 381.417 518.645 405.513 521.904 421.226L521.486 421.481C518.31 418.631 519.157 405.967 518.684 401.523C518.058 395.638 517.317 389.198 517.685 383.29C517.97 371.751 521.441 363.704 523.506 353.078C525.782 341.367 523.963 322.239 530.92 311.624C527.784 322.17 526.934 332.919 526.026 343.825C524.644 360.416 518.982 373.9 518.966 390.983L519.977 391.019C520.13 381.012 525.139 367.073 526.577 356.79C528.303 344.45 527.659 323.943 532.677 312.656C532.323 324.782 528.705 337.805 528.498 352.096L529.977 351.545C529.266 356.003 528.497 360.451 527.668 364.889L526.425 365.917Z"/><path fill="#CDC2AF" d="M528.498 352.096L529.977 351.545C529.266 356.003 528.497 360.451 527.668 364.889L526.425 365.917C527.437 360.965 528.161 357.123 528.498 352.096Z"/><path fill="#ACA79F" d="M518.966 390.983L519.977 391.019C520.004 393.199 520.108 394.399 519.684 396.514C519.038 395.032 519.065 392.67 518.966 390.983Z"/><path fill="#060201" d="M542.593 379.78C544.45 381.608 544.806 438.51 548.445 445.368C548.157 444.826 552.872 463.739 552.792 463.152L552.026 462.311C549.585 456.532 548.229 450.956 546.241 445.265C537.964 421.578 537.801 404.105 542.593 379.78Z"/><path fill="#F4EDE2" d="M542.792 389.085C543.79 396.643 542.255 409.333 543.506 418.299C544.097 422.536 546.954 440.596 546.622 443.15C541.859 426.776 540.069 405.904 542.792 389.085Z"/><path fill="#060201" d="M529.977 351.545C531.845 336.649 533.552 308.302 546.27 298.368C546.599 298.114 546.932 297.865 547.27 297.623L547.95 297.795C546.961 299.611 545.43 300.418 544.185 301.921C535.337 312.601 534.078 328.202 532.847 341.505C531.523 355.802 528.385 369.439 526.395 383.633C523.783 402.26 525.514 420.389 527.243 439.012L526.141 439.282C522.416 412.345 522.15 391.679 527.668 364.889C528.497 360.451 529.266 356.003 529.977 351.545Z"/><path fill="#060201" d="M467.193 402.612L468.232 404.586C466.899 417.872 464.459 431.701 462.659 445.011C459.945 464.184 458.38 483.501 457.971 502.861L457.314 503.091L457.681 504.279L458.012 503.926L457.864 504.293C457.254 502.607 456.844 495.445 456.803 493.306C456.217 463.039 462.617 432.336 467.193 402.612Z"/><path fill="#060201" d="M459.141 530.771L459.856 531.563C463.152 561.033 443.583 594.22 418.967 609.448L418.787 609.252C418.997 608.436 428.077 600.57 429.713 598.943C438.294 590.571 445.287 580.714 450.353 569.848C457.411 554.431 456.529 546.231 459.141 530.771Z"/><path fill="#060201" d="M481.629 387.665C481.656 385.653 481.55 383.975 482.097 382.036C483.425 384.317 483.09 391.906 482.539 394.579C482.577 398.139 481.692 404.984 481.312 408.894C480.553 416.563 479.994 424.25 479.635 431.948C479.459 436.289 479.968 450.354 478.887 453.29C474.182 443.084 480.287 399.211 481.629 387.665Z"/><path fill="#161212" d="M481.629 387.665C481.656 385.653 481.55 383.975 482.097 382.036C483.425 384.317 483.09 391.906 482.539 394.579C482.342 392.661 482.413 390.088 482.301 388.002L481.629 387.665Z"/><path fill="#060201" d="M588.709 592.349C598.531 599.23 609.121 642.708 611.121 655.168C609.829 653.861 608.054 647.84 607.416 645.91C602.432 630.831 599.289 614.905 592.503 600.495C591.227 597.787 589.982 595.059 588.709 592.349Z"/><path fill="white" d="M430.746 685.016C431.985 683.59 434.901 680.815 436.485 679.77C445.049 674.121 450.41 665.421 457.298 658.785L457.855 658.928L457.67 660.202L459.261 660.96C457.429 666.653 447.685 677.983 441.529 679.666L440.311 678.896C436.571 681.731 434.949 682.956 430.746 685.016Z"/><path fill="#060201" d="M430.746 685.016C431.985 683.59 434.901 680.815 436.485 679.77C445.049 674.121 450.41 665.421 457.298 658.785L457.855 658.928L457.67 660.202C452.728 665.626 445.638 674.223 440.311 678.896C436.571 681.731 434.949 682.956 430.746 685.016Z"/><path fill="#060201" d="M441.529 679.666C442.023 678.953 447.819 673.813 449.346 672.188C452.37 668.97 456.213 663.42 459.261 660.96C457.429 666.653 447.685 677.983 441.529 679.666Z"/><path fill="#060201" d="M514.359 593.82C513.627 591.047 513.437 589.847 513.079 587.017C519.307 599.049 522.584 616.358 525.046 629.755C523.54 626.66 521.808 623.457 521.088 620.096C520.473 619.008 519.996 618.806 519.254 617.633C516.813 612.576 514.516 601.935 513.907 596.319L513.562 595.501L514.359 593.82Z"/><path fill="#060201" d="M513.907 596.319L514.295 596.091C515.851 599.469 519.617 614.222 519.254 617.633C516.813 612.576 514.516 601.935 513.907 596.319Z"/><path fill="#6A6465" d="M514.359 593.82C516.413 597.229 520.76 615.796 521.088 620.096C520.473 619.008 519.996 618.806 519.254 617.633C519.617 614.222 515.851 599.469 514.295 596.091L513.907 596.319L513.562 595.501L514.359 593.82Z"/><path fill="#060201" d="M557.677 625.327C558.887 626.225 559.073 627.839 559.492 629.259C562.854 640.64 557.258 670.08 551.52 680.029L550.814 679.893C550.778 677.897 553.924 668.638 554.622 666.116C558.633 651.623 559.901 640.11 557.677 625.327Z"/><path fill="#060201" d="M564.918 543.361C567.624 545.906 575.314 566.684 577.979 571.767C579.683 575.018 583.792 583.288 585.407 586.703C578.595 581.362 566.446 552.796 564.918 543.361Z"/><path fill="#060201" d="M554.921 491.292C555.533 491.771 555.804 492.13 555.94 492.99C557.985 505.901 559.437 518.933 562.338 531.692C563.136 535.199 564.022 538.773 564.477 542.327C560.208 534.837 553.498 499.513 554.921 491.292Z"/><path fill="#060201" d="M436.211 635.996L436.198 636.977C427.383 647.532 406.298 657.073 393.11 660.356L393.074 660.023C393.904 658.734 408.843 653.153 411.394 651.88C420.221 647.473 428.389 641.977 436.211 635.996Z"/><path fill="#060201" d="M382.369 621.647C381.982 625.998 347.134 631.481 342.439 631.698L342.58 631.165C354.325 627.05 370.832 625.673 382.369 621.647Z"/><path fill="#060201" d="M476.693 343.349C479.557 347.267 476.239 373.942 475.769 379.138L475.113 378.272C474.508 374.029 475.99 348.079 476.693 343.349Z"/><path fill="#161212" d="M495.835 667.885C495.591 674.706 484.94 691.248 480.532 696.588C480.508 696.514 480.468 696.444 480.459 696.366C480.416 695.983 494.408 670.687 495.835 667.885Z"/><path fill="#060201" d="M386.454 672.501L387.262 672.596C386.244 676.72 380.136 678.248 376.344 678.052L375.715 678.186C378.764 674.942 382.266 674.083 386.454 672.501Z"/><path fill="#060201" d="M389.974 669.12L390.225 669.674C388.468 671.711 373.707 675.118 370.439 675.737L370.124 675.399C372.422 673.055 384.995 671.085 389.974 669.12Z"/><path fill="#161212" d="M558.284 326.798L558.617 327.1C558.885 328.268 553.464 340.872 552.625 343.065L552.106 342.772C552.04 339.303 556.511 329.939 558.284 326.798Z"/><path fill="#6A6465" d="M500.666 646.845C501.244 649.371 499.92 656.052 499.288 658.733L498.738 658.547C498.668 656.196 500.094 649.385 500.666 646.845Z"/><path fill="#161212" d="M467.193 402.612C467.427 400.621 467.5 398.213 468.452 396.524C469.218 398.294 468.484 402.453 468.232 404.586L467.193 402.612Z"/><path fill="#4F4A44" d="M546.22 545.324C546.497 546.936 547.015 548.887 546.588 550.383C545.696 548.963 545.644 548.33 545.264 546.726L546.22 545.324Z"/><path fill="#F4EDE2" d="M356.278 683.201C375.025 692.714 394.719 700.231 415.036 705.629C474.485 721.014 558.267 721.476 616.606 702.163C641.703 693.855 684.849 674.088 702.514 654.741C689.666 707.485 663.135 741.302 616.765 769.871C571.592 797.703 512.432 804.554 461.247 792.57C403.627 779.079 341.04 723.444 328.915 664.342C335.001 670.266 336.397 676.747 339.807 684.279C342.454 690.126 345.281 695.911 348.451 701.495C374.105 747.042 424.066 786.673 477.088 791.989L477.059 791.104C461.891 788.412 447.118 783.844 433.078 777.504C386.895 756.304 354.209 718.523 336.577 671.127C339.147 673.894 339.792 674.632 341.754 677.862C342.017 677.14 342.357 676.359 342.65 675.64L343.263 676.151C350.187 681.778 351.377 689.556 355.297 697.215C358.794 704.048 362.701 710.633 366.669 717.199L367.179 716.294C367.72 717.178 370.062 720.861 370.356 721.574C372.796 723.831 375.929 727.317 378.105 729.89C379.196 731.241 379.006 731.505 380.34 731.814L380.69 730.995C378.593 726.589 373.972 721.301 372.375 718.007C367.332 707.607 359.59 693.971 356.278 683.201Z"/><path fill="#161212" d="M341.754 677.862C342.017 677.14 342.357 676.359 342.65 675.64L343.263 676.151C350.187 681.778 351.377 689.556 355.297 697.215C358.794 704.048 362.701 710.633 366.669 717.199L367.179 716.294C367.72 717.178 370.062 720.861 370.356 721.574C372.796 723.831 375.929 727.317 378.105 729.89L375.549 730.217C400.849 759.976 442.539 784.296 481.88 788.55C486.191 789.017 516.721 791.029 518.866 792.322L518.558 793.962C517.333 793.906 517.486 793.916 516.314 793.663L517.4 792.658C515.607 792.043 501.64 792.112 498.262 791.838C500.024 791.66 501.366 792.262 503.454 792.158L503.405 791.694C499.881 789.721 493.41 790.09 489.27 789.905C483.369 789.686 477.487 789.097 471.66 788.141C466.435 787.264 449.966 782.628 445.205 780.709C392.525 759.474 364.47 728.238 341.754 677.862Z"/><path fill="#F4EDE2" d="M343.263 676.151C350.187 681.778 351.377 689.556 355.297 697.215C358.794 704.048 362.701 710.633 366.669 717.199L367.179 716.294C367.72 717.178 370.062 720.861 370.356 721.574C372.796 723.831 375.929 727.317 378.105 729.89L375.549 730.217C363.234 717.265 349.458 692.933 343.263 676.151Z"/><path fill="#8E888A" d="M367.179 716.294C367.72 717.178 370.062 720.861 370.356 721.574L369.998 721.821C368.653 720.84 367.619 718.737 366.669 717.199L367.179 716.294Z"/><path fill="#060201" d="M518.866 792.322C541.27 797.138 596.104 778.303 615.749 765.063C622.943 760.214 628.389 755.948 636.79 752.314C612.811 774.753 557.485 795.343 524.237 794.233C522.343 794.165 520.449 794.075 518.558 793.962L518.866 792.322Z"/><path fill="#4F4A44" d="M477.059 791.104C480.699 791.561 484.349 791.929 488.007 792.206C485.593 792.893 479.634 792.391 477.088 791.989L477.059 791.104Z"/><path fill="#060201" d="M690.729 668.864L691.155 668.972L691.357 669.584C688.579 673.691 679.225 678.704 674.886 683.208C679.501 681.214 683.266 678.447 687.59 676.733C687.162 677.993 671.955 689.291 669.67 690.832C662.467 695.305 662.084 695.404 653.594 697.112C657.864 694.679 667.31 689.532 670.733 686.573C677.327 680.874 682.77 673.531 690.729 668.864Z"/><path fill="#060201" d="M687.415 685.571L687.28 686.311C679.983 695.996 659.276 707.1 648.135 711.626L647.923 710.653C649.49 707.5 663.902 701.756 667.915 699.023C674.37 694.628 680.974 689.994 687.415 685.571Z"/><path fill="#060201" d="M683.025 694.054L683.336 694.545C677.889 701.725 657.763 714.819 649.123 719.03C648.593 718.631 648.877 718.917 648.448 718.027C649.702 715.87 679.184 696.748 683.025 694.054Z"/><path fill="#060201" d="M677.279 704.006L677.707 704.272C669.691 715.153 649.883 724.579 637.741 730.006L637.385 729.75L637.478 729.061C641.078 725.943 654.803 719.373 659.66 716.189C665.553 712.326 671.497 707.621 677.279 704.006Z"/><path fill="#060201" d="M609.689 708C613.002 705.84 634.425 700.63 640.447 698.217C633.821 704.647 620.564 710.63 611.245 709.701L610.307 709.404L609.689 708Z"/><path fill="white" d="M631.836 701.949C626.771 705.48 617.263 708.172 611.245 709.701L610.307 709.404L609.689 708C619.063 706.371 622.957 705.17 631.836 701.949Z"/><path fill="#060201" d="M688.412 680.581L688.186 681.381C679.857 688.313 669.502 696.305 659.936 701.394C656.989 701.074 656.447 701.154 653.695 702.256L653.282 702.315L653.057 701.806C655.089 698.788 659.603 698.683 663.989 696.35C672.684 691.727 679.915 684.767 688.412 680.581Z"/><path fill="#060201" d="M588.253 727.111C586.882 727.312 585.7 727.766 584.861 726.59C586.254 725.948 591.749 725.516 593.601 725.47C602.149 725.255 609.59 722.973 617.829 721.429C613.514 724.623 606.212 725.484 600.873 726.496C597.713 728.079 589.662 731.077 586.47 729.149L586.321 728.387L588.253 727.111Z"/><path fill="white" d="M599.598 726.15L600.873 726.496C597.713 728.079 589.662 731.077 586.47 729.149L586.321 728.387L588.253 727.111C591.9 726.454 595.877 726.346 599.598 726.15Z"/><path fill="#4F4A44" d="M599.598 726.15L600.873 726.496C597.713 728.079 589.662 731.077 586.47 729.149C589.891 729.051 596.613 727.875 599.598 726.15Z"/><path fill="#060201" d="M658.955 730.086L659.204 730.302C656.524 735.191 635.593 744.074 629.567 744.909L629.183 743.838C632.136 741.931 639.062 739.332 642.708 737.742C648.181 735.313 653.598 732.761 658.955 730.086Z"/><path fill="#060201" d="M655.166 737.084C646.11 743.78 642.935 746.09 632.455 750.541L631.626 749.561C629.642 749.85 625.115 751.405 623.745 751.247C627.135 747.145 630.79 748.782 635.679 746.475C642.745 743.14 647.708 739.718 655.166 737.084Z"/><path fill="#060201" d="M663.933 720.425L664.444 720.945L664.092 721.735C655.348 728.255 647.609 733.031 637.074 735.928L636.533 735.347C637.212 734.619 660.603 722.387 663.933 720.425Z"/><path fill="#060201" d="M605.763 753.173L605.759 753.678C599.559 757.856 584.33 761.004 577.12 760.23C576.94 759.997 576.93 759.672 576.86 759.386C580.346 758.262 584.248 758.044 587.869 757.415C593.989 756.352 599.831 755.022 605.763 753.173Z"/><path fill="#060201" d="M608.477 757.57C608.44 758.146 608.193 758.508 607.764 758.922C601.789 764.689 584.605 766.667 576.467 767.386L576.322 767.029C576.803 765.75 580.076 765.711 581.352 765.547C590.92 764.319 599.82 761.818 608.477 757.57Z"/><path fill="#060201" d="M604.163 748.151L604.727 748.201C597.014 752.745 586.296 755.051 577.491 755.642L576.919 755.355C580.047 753.11 598.923 749.423 604.163 748.151Z"/><path fill="#060201" d="M613.692 732.481L613.993 732.53L614.05 732.977C605.882 738.231 597.417 739.912 587.921 741.184L587.187 740.864L587.204 740.289C595.925 738.401 605.589 736.136 613.692 732.481Z"/><path fill="#060201" d="M588.631 732.591C595.992 731.528 602.147 728.706 609.968 727.942L610.15 728.533L611.103 728.072C607.813 730.193 592.306 733.912 588.496 733.64L588.631 732.591Z"/><path fill="#060201" d="M610.624 740.52L611.231 740.811C601.9 745.942 591.367 747.625 580.975 749.215L580.467 748.966L580.461 748.397C584.303 746.972 588.787 746.815 592.816 745.952C598.935 744.642 604.76 742.66 610.624 740.52Z"/><path fill="#161212" d="M573.65 777.657C582.377 776.185 589.875 774.61 598.152 771.371C599.261 770.937 601.241 770.117 602.323 770.144C592.95 774.925 584.444 777.661 573.976 778.733L573.65 777.657Z"/><path fill="#37322F" d="M618.634 715.104L619.257 715.498L619.118 716.44C614.481 719.189 600.309 722.267 594.606 723.434L594.344 723.382L594.227 723.166C603.104 720.036 609.572 719.86 618.634 715.104Z"/><path fill="#161212" d="M580.676 773.13C581.486 772.393 589.409 771.151 591.397 770.612C595.435 769.515 597.437 768.906 601.364 767.287C597.573 771.216 586.048 773.749 580.676 773.13Z"/><path fill="#4F4A44" d="M632.455 750.541C630.499 751.885 621.9 756.407 619.677 756.765C623.31 754.296 628.715 752.053 631.626 749.561L632.455 750.541Z"/><path fill="#6F6B62" d="M573.976 778.733C572.744 779.069 570.135 779.323 568.865 778.759C569.903 777.78 572.089 777.813 573.65 777.657L573.976 778.733Z"/><path fill="#ACA79F" d="M588.496 733.64C587.034 733.717 585.812 733.933 584.465 733.421L584.71 732.948C586.632 732.462 586.621 732.503 588.631 732.591L588.496 733.64Z"/><path fill="#ACA79F" d="M601.364 767.287C602.027 765.992 603.838 765.287 605.193 764.837C605.738 764.663 606.288 764.505 606.842 764.364C605.532 765.242 602.898 766.92 601.364 767.287Z"/><path fill="#CDC2AF" d="M601.831 525.386C643.056 529.115 725.489 563.141 720.349 614.31C718.438 633.33 706.531 650.039 691.81 661.452C677.989 672.945 645.115 690.156 628.084 695.258C546.42 728.064 404.736 720.559 331.785 663.272C321.321 655.054 310.227 636.263 309.486 622.572L309.821 618.601C309.946 621.539 310.026 622.514 310.674 625.368C311.922 626.083 311.247 625.834 312.854 625.749C314.099 623.709 312.269 620.752 312.749 617.462C320.056 644.334 325.262 658.302 351.327 672.593C422.581 711.66 527.497 718.858 604.896 697.657C614.393 695.017 623.75 691.896 632.93 688.305C636.049 686.172 649.637 680.388 653.521 678.544C684.325 663.919 727.011 628.467 709.037 590.126C704.827 581.143 695.095 568.639 686.942 564.671C695.103 573.928 704.631 581.616 708.249 593.756C708.909 595.972 710.336 599.107 709.943 601.368L708.916 600.918L708.373 601.568C706.946 599.218 706.229 595.952 704.395 594.344C703.625 592.691 703.762 593.585 704.375 591.529C702.666 587.093 700.735 583.673 697.176 580.47C696.792 579.62 696.563 579.635 695.747 578.936C691.973 579.962 694.866 585.476 695.801 588.183C693.251 584.474 691.653 582.388 688.559 579.051C696.669 596.175 707.994 607.612 700.59 628.441C700.125 629.783 699.589 631.098 698.983 632.382L698.713 631.588C697.647 630.703 697.925 630.834 697.183 629.532L697.101 628.964L695.812 629.912C695.614 631.781 695.439 633.737 695.185 635.59C694.117 641.658 693.527 644.132 689.879 649.034C696.914 629.349 694.722 613.103 685.863 594.714C684.898 592.711 683.873 590.228 683.376 588.07C676.653 582.096 675.915 575.243 665.318 568.078C667.327 570.798 669.407 573.421 671.69 575.886C686.407 591.782 700.936 635.668 683.076 653.597C683.111 652.805 687.81 644.057 688.696 639.431C692.48 619.677 684.699 594.529 671.159 579.825C668.79 577.252 661.302 569.385 658.303 569.165C658.915 570.324 669.541 580.462 671.4 582.715C686.434 600.935 691.933 631.668 681.182 653.173C680.103 655.332 679.285 659.208 676.973 660.432C676.898 659.683 676.859 660.192 677.217 659.43C681.175 651.028 685.181 641.706 685.153 632.25C685.126 623.327 683.11 612.777 680.642 604.208C677.62 593.712 669.909 584.496 662.064 577.234C660.858 576.121 657.833 573.039 656.44 572.534C656.376 574.087 662.687 581.333 663.976 582.604C672.646 591.154 679.077 599.175 680.287 611.698C680.922 618.271 684.794 639.612 680.635 644.562C680.619 633.787 682.096 611.89 675.524 602.884L674.737 602.628C673.742 604.729 674.309 609.309 674.475 611.845C677.743 625.608 678.917 637.32 674.494 651.051C672.231 658.076 670.938 663.473 664.695 668.263C662.114 669.869 661.238 670.477 658.899 672.469L658.287 672.072C669.422 660.857 675.011 631.872 668.059 617.222L667.348 618.138C670.459 628.676 669.033 646.362 664.127 656.083C659.642 664.509 660.276 669.797 650.336 676.404C657.749 665.613 662.065 650.539 661.955 637.43C661.301 635.791 661.852 636.25 660.62 635.58C659.992 638.721 659.011 647.624 658.159 649.551C656.606 659.995 651.497 677.177 641.325 682.086L639.332 683.062C645.467 676.637 649.134 670.943 652.323 662.471C652.858 661.051 653.52 657.459 653.882 656.599C657.623 636.582 658.346 619.939 650.828 600.468C640.328 573.278 611.552 552.646 601.831 525.386Z"/><path fill="#F4EDE2" d="M309.486 622.572L309.821 618.601C309.946 621.539 310.026 622.514 310.674 625.368C311.922 626.083 311.247 625.834 312.854 625.749C314.099 623.709 312.269 620.752 312.749 617.462C320.056 644.334 325.262 658.302 351.327 672.593C422.581 711.66 527.497 718.858 604.896 697.657C614.393 695.017 623.75 691.896 632.93 688.305L632.997 688.978C630.808 690.425 620.99 693.646 618.032 694.607C574.457 708.761 529.186 711.31 483.729 708.935C479.218 708.7 464.611 708.054 461.059 707.247C452.95 705.405 450.097 705.749 442.689 704.947C443.688 705.742 443.892 706.09 444.512 707.208C448.804 709.138 460.39 710.309 465.513 710.871C519.264 716.761 575.775 714.085 626.8 694.955C627.208 694.802 627.755 694.964 628.084 695.258C546.42 728.064 404.736 720.559 331.785 663.272C321.321 655.054 310.227 636.263 309.486 622.572Z"/><path fill="#060201" d="M681.214 580.325L686.642 585.436L687.057 584.942L690.314 589.666C694.099 601.236 701.219 611.221 698.612 623.99C698.291 625.563 698.025 628.237 697.183 629.532L697.101 628.964L695.812 629.912C695.614 631.781 695.439 633.737 695.185 635.59C694.117 641.658 693.527 644.132 689.879 649.034C696.914 629.349 694.722 613.103 685.863 594.714C684.898 592.711 683.873 590.228 683.376 588.07L683.623 587.47L681.214 580.325Z"/><path fill="#CDC2AF" d="M683.623 587.47C690.065 598.538 693.845 608.105 695.115 620.85C695.357 623.277 695.532 627.899 695.812 629.912C695.614 631.781 695.439 633.737 695.185 635.59C694.117 641.658 693.527 644.132 689.879 649.034C696.914 629.349 694.722 613.103 685.863 594.714C684.898 592.711 683.873 590.228 683.376 588.07L683.623 587.47Z"/><path fill="#CDC2AF" d="M687.057 584.942L690.314 589.666C694.099 601.236 701.219 611.221 698.612 623.99C698.291 625.563 698.025 628.237 697.183 629.532L697.101 628.964C697.31 618.343 697.137 608.597 692.335 598.866C690.353 594.85 688.499 588.913 686.642 585.436L687.057 584.942Z"/><path fill="#060201" d="M663.825 667.874L663.403 667.52L665.038 664.524C671.653 652.503 674.803 636.487 672.373 622.818C671.951 620.444 669.827 614.238 670.247 612.684C671.671 613.124 671.373 613.243 672.47 614.696C673.328 612.373 672.63 613.25 674.475 611.845C677.743 625.608 678.917 637.32 674.494 651.051C672.231 658.076 670.938 663.473 664.695 668.263L663.825 667.874Z"/><path fill="#CDC2AF" d="M674.475 611.845C677.743 625.608 678.917 637.32 674.494 651.051C672.231 658.076 670.938 663.473 664.695 668.263L663.825 667.874C665.603 667.026 668.649 662.532 669.458 660.653C676.801 643.591 678.129 631.767 672.47 614.696C673.328 612.373 672.63 613.25 674.475 611.845Z"/><path fill="#060201" d="M662.612 615.117C667.698 628.002 667.934 642.296 663.275 655.342L664.127 656.083C659.642 664.509 660.276 669.797 650.336 676.404C657.749 665.613 662.065 650.539 661.955 637.43L662.132 636.885C663.001 637.977 663.003 637.724 663.422 638.955C665.037 627.242 662.555 624.74 662.612 615.117Z"/><path fill="#CDC2AF" d="M662.132 636.885C663.001 637.977 663.003 637.724 663.422 638.955C663.977 650.897 658.603 658.772 655.955 669.684C659.7 664.434 661.024 661.467 663.275 655.342L664.127 656.083C659.642 664.509 660.276 669.797 650.336 676.404C657.749 665.613 662.065 650.539 661.955 637.43L662.132 636.885Z"/><path fill="#060201" d="M691.025 588.404C701.413 603.865 703.458 614.013 698.713 631.588C697.647 630.703 697.925 630.834 697.183 629.532C698.025 628.237 698.291 625.563 698.612 623.99C701.219 611.221 694.099 601.236 690.314 589.666L691.025 588.404Z"/><path fill="#F0CEAD" d="M653.882 656.599L654.313 657.072C654.197 658.554 654.064 660.036 653.913 661.515C654.867 659.779 656.919 651.978 657.594 649.515L658.159 649.551C656.606 659.995 651.497 677.177 641.325 682.086L639.332 683.062C645.467 676.637 649.134 670.943 652.323 662.471C652.858 661.051 653.52 657.459 653.882 656.599Z"/><path fill="#161212" d="M687.057 584.942C686.27 583.23 685.3 581.452 685.068 579.616C686.454 580.821 689.51 586.411 691.025 588.404L690.314 589.666L687.057 584.942Z"/><path fill="#37322F" d="M704.375 591.529C706.302 595.051 707.372 597.219 708.916 600.918L708.373 601.568C706.946 599.218 706.229 595.952 704.395 594.344C703.625 592.691 703.762 593.585 704.375 591.529Z"/><path fill="#6F6B62" d="M660.62 635.58C660.991 634.025 661.137 632.609 661.96 631.341C661.959 633.119 661.856 635.165 662.132 636.885L661.955 637.43C661.301 635.791 661.852 636.25 660.62 635.58Z"/><path fill="#37322F" d="M667.348 618.138C666.638 616.62 666.327 616.199 666.235 614.495L666.815 614.659L668.059 617.222L667.348 618.138Z"/><path fill="#F8E9D4" d="M467.097 269.764C476.036 279.344 471.835 287.228 469.022 298.426C464.374 316.937 452.094 338.406 451.979 357.544L453.24 358.591C446.551 381.11 443.944 405.191 438.812 428.128C438.069 431.447 437.256 434.751 436.598 438.086C436.036 438.119 435.508 438.036 435.197 438.288C430.365 452.834 426.926 471.48 423.139 486.453C420.649 496.298 417.988 505.183 415.04 514.899C414.996 507.345 416.77 496.401 416.124 489.447C414.278 469.609 415.179 453.572 417.065 433.811L420.045 399.779C420.781 391.029 423.711 329.707 430.36 328.081C430.525 329.061 430.504 328.895 430.212 329.801C428.101 336.365 426.834 344.076 425.761 350.901L426.794 352.897C428.095 347.303 433.851 323.604 437.392 320.699C435.912 324.434 434.828 330.921 435.29 334.789C436.192 333.627 437.177 327.293 437.756 325.107C439.328 319.372 441.572 313.843 444.439 308.633C442.257 318.131 438.16 332.758 437.055 341.957C441.032 333.391 444.154 320.108 445.955 310.779C447.447 305.585 449.102 301.005 452.115 296.507L452.39 295.385C453.497 296.111 453.043 295.892 453.729 297.524C456.279 289.318 463.723 280.654 467.097 269.764Z"/><path fill="#161212" d="M452.115 296.507L452.39 295.385C453.497 296.111 453.043 295.892 453.729 297.524C452.784 299.905 448.892 310.542 447.295 311.543L447.461 310.875C448.061 306.895 451.329 301.443 452.115 296.507Z"/><path fill="#161212" d="M425.761 350.901L426.794 352.897C426.514 354.771 426.492 356.655 425.547 358.137C425.023 355.705 425.482 353.407 425.761 350.901Z"/><path fill="#060201" d="M430.657 352.35C431.01 354.254 429.585 361.922 429.332 364.425C427.449 383.057 424.817 401.694 422.052 420.21C421.73 422.367 420.923 425.023 420.253 427.126C420.106 424.379 421.686 408.328 422.165 404.98C424.252 390.405 425.155 365.478 430.657 352.35Z"/><path fill="#060201" d="M447.596 343.824C448.743 346.858 446.128 370.918 444.62 375.395C444.2 370.748 445.879 347.762 447.596 343.824Z"/><path fill="#9F8E82" d="M452.022 339.741C453.151 342.017 452.144 345.65 451.71 348.314C450.516 346.051 451.423 342.204 452.022 339.741Z"/><path fill="#CDC2AF" d="M309.486 622.572C306.812 609.954 311.327 593.86 317.734 582.93C334.284 554.697 376.723 538.29 407.205 530.269C403.299 539.512 399.18 548.663 394.852 557.715C388.923 570.198 383.084 580.909 379.733 594.38L380.884 594.704L381.582 595.089C381.295 595.916 380.574 597.173 380.933 597.973C381.284 598.753 381.163 598.484 381.865 599.242L380.71 603.542L378.673 605.024C377.408 604.463 377.808 604.773 377.004 603.621C376.728 605.29 376.741 608.127 376.693 609.906L368.431 613.531C367.005 609.935 364.405 605.812 362.627 601.959L361.762 602.32C363.055 605.774 367.425 612.184 365.163 615.081L364.225 615.127C362.03 612.283 355.743 594.242 354.563 590.169C352.643 584.005 350.763 577.829 348.926 571.641C349.822 586.429 356.624 600.242 361.442 614.049C361.878 615.299 361.742 615.544 361.061 616.375C359.91 616.264 358.36 615.309 357.968 614.563C354.19 607.38 353.399 602.189 348.848 594.992C349.803 597.884 356.454 615.2 356.091 616.569C354.322 617.195 354.117 617.137 352.295 617.277C351.385 616.867 351.109 615.606 350.551 614.412C348.927 610.587 347.508 607.467 345.641 603.76C346.083 606.268 350.516 621.231 350.405 621.67L349.51 621.211C342.966 612.445 340.325 594.743 338.846 584.048C337.615 586.002 338.161 588.307 337.952 590.685C337.951 597.163 340.786 605.335 342.662 611.506C343.611 614.631 346.616 619.509 345.767 622.513L344.999 622.548C341.541 618.841 335.743 594.022 334.601 587.729C333.99 584.368 333.871 579.742 333.204 576.684C331.983 575.843 332.659 576.03 331.074 576.25L330.741 577.233C331.929 581.198 331.827 584.915 332.681 589.183C334.675 599.146 336.451 610.871 340.225 620.303C340.684 621.45 340.818 620.778 341.126 622.694L340.298 623.271L339.308 622.995C334.498 617.654 329.14 578.672 327.546 577.673C326.71 578.895 326.807 580.012 326.694 581.519L325.942 581.691L325.9 580.352L324.808 580.989C325.513 585.414 326.028 590.189 326.784 594.515C326.119 595.4 325.869 595.445 325.699 596.371C326.298 600.79 331.029 623.028 330.118 624.769L329.564 624.717C327.439 619.894 326.987 610.281 323.394 606.495L321.813 606.25C317.288 612.807 327.663 628.832 323.753 634.789C322.922 629.991 319.752 612.099 317.559 608.763L316.924 608.885C316.268 611.483 318.57 619.198 319.349 622.237L318.607 622.937C317.733 620.719 316.026 615.364 314.119 614.412C312.833 615.448 313.216 615.392 312.749 617.462C312.269 620.752 314.099 623.709 312.854 625.749C311.247 625.834 311.922 626.083 310.674 625.368C310.026 622.514 309.946 621.539 309.821 618.601L309.486 622.572Z"/><defs><linearGradient id="gradient_1" gradientUnits="userSpaceOnUse" x1="361.50534" y1="599.62561" x2="358.5181" y2="600.92816"><stop offset="0" stop-color="#BDAFA0"/><stop offset="1" stop-color="#DFD7BB"/></linearGradient></defs><path fill="url(#gradient_1)" d="M354.563 590.169C354.653 587.964 354.275 587.623 355.343 586.197C356.54 587.085 356.663 588.061 356.864 589.522C359.3 593.959 360.693 597.321 362.627 601.959L361.762 602.32C363.055 605.774 367.425 612.184 365.163 615.081L364.225 615.127C362.03 612.283 355.743 594.242 354.563 590.169Z"/><path fill="#37322F" d="M356.864 589.522C359.3 593.959 360.693 597.321 362.627 601.959L361.762 602.32C360.247 599.066 357.542 592.901 356.864 589.522Z"/><path fill="#161212" d="M377.004 603.621C377.828 601.603 379.08 596.683 379.733 594.38L380.884 594.704L381.582 595.089C381.295 595.916 380.574 597.173 380.933 597.973C381.284 598.753 381.163 598.484 381.865 599.242L380.71 603.542L378.673 605.024C377.408 604.463 377.808 604.773 377.004 603.621Z"/><path fill="#161212" d="M324.808 580.989C325.513 585.414 326.028 590.189 326.784 594.515C326.119 595.4 325.869 595.445 325.699 596.371C324.618 590.026 324.214 587.325 324.808 580.989Z"/><path fill="#161212" d="M337.952 590.685C337.279 587.665 337.236 581.674 338.119 578.724C338.831 580.031 338.765 582.44 338.846 584.048C337.615 586.002 338.161 588.307 337.952 590.685Z"/><path fill="#F8E9D4" d="M350.551 614.412L351.641 613.625L352.215 613.995C352.254 615.108 352.295 616.161 352.295 617.277C351.385 616.867 351.109 615.606 350.551 614.412Z"/><path fill="#F0CEAD" d="M582.327 466.146C585.647 482.96 594.622 519.606 602.516 534.454C618.563 564.637 644.923 581.163 651.582 617.696C653.648 629.594 653.431 641.777 650.944 653.595C649.159 662.001 644.68 667.774 643.115 673.501L641.709 673.491C652.825 649.726 654.206 631.52 645.084 606.061C633.621 574.069 605.298 553.935 592.326 523.006C582.847 500.404 580.481 490.256 582.327 466.146Z"/><path fill="#F0CEAD" d="M614.28 567.318C611.576 561.725 607.419 556.637 603.912 551.502C597.189 541.66 589.934 528.364 587.598 516.672C590.953 523.634 593.12 529.964 597.212 536.419C616.654 567.085 645.788 591.018 647.482 630.04C648.037 642.811 647.758 654.868 641.733 666.8C640.208 665.665 640.75 666.391 640.176 664.457C648.998 652.737 645.841 623.774 639.251 611.39C636.976 607.115 632.011 598.703 628.547 595.294L628.024 595.973L627.55 595.985C624.506 590.407 622.226 585.094 618.953 579.604C612.287 568.418 605.41 564.208 601.188 551.599C604.28 555.453 611.025 564.265 614.28 567.318Z"/><path fill="#F0CEAD" d="M571.04 358.159C582.047 362.518 590.984 363.852 602.627 365.635C603.841 367.125 603.266 367.019 604.589 367.305C604.959 366.243 605.135 365.498 605.93 364.668L610.505 365.489L611.577 366.443L612.329 367.439L613.754 366.87L615.734 366.864L616.932 370.133C619.598 375.296 620.43 378.873 621.949 384.471C620.289 383.473 618.574 382.401 616.887 381.465L614.498 380.019C613.011 380.035 612.78 379.77 611.446 379.108L611.071 379.196C608.924 379 600.921 376.838 598.442 376.239C590.572 374.389 582.692 372.58 574.802 370.812C573.371 366.468 572.248 362.57 571.04 358.159Z"/><path fill="#F0CEAD" d="M611.446 379.108C611.193 376.15 610.279 368.875 611.577 366.443L612.329 367.439L613.754 366.87L615.734 366.864L616.932 370.133C619.598 375.296 620.43 378.873 621.949 384.471C620.289 383.473 618.574 382.401 616.887 381.465L614.498 380.019C613.011 380.035 612.78 379.77 611.446 379.108Z"/><path fill="#F0CEAD" d="M616.932 370.133C619.598 375.296 620.43 378.873 621.949 384.471C620.289 383.473 618.574 382.401 616.887 381.465C618.536 376.491 615.498 374.212 616.932 370.133Z"/><path fill="#F8E9D4" d="M614.378 379.711C614.618 375.356 615.189 371.184 615.734 366.864L616.932 370.133C615.498 374.212 618.536 376.491 616.887 381.465L614.498 380.019L614.378 379.711Z"/><path fill="#161212" d="M613.754 366.87L615.734 366.864C615.189 371.184 614.618 375.356 614.378 379.711C612.405 377.162 613.99 370.767 613.754 366.87Z"/><path fill="#161212" d="M610.505 365.489L611.577 366.443C610.279 368.875 611.193 376.15 611.446 379.108L611.071 379.196C610.197 374.11 609.335 370.549 610.505 365.489Z"/><path fill="#F0CEAD" d="M569.244 335.633C578.749 340.041 586.151 340.9 596.387 342.712C598.875 345.149 609.527 357.632 610.423 360.417C601.193 354.748 581.249 352.989 569.275 350.409C568.139 344.238 567.311 341.642 569.244 335.633Z"/><path fill="#F0CEAD" d="M573.046 282.539C582.624 282.09 590.374 290.883 595.722 297.966C599.112 302.457 601.386 307.341 594.776 310.018C594.247 310.035 591.99 310.093 591.61 309.974C585.563 308.097 567.072 291.69 568.533 285.959C570.103 284.074 570.865 283.812 573.046 282.539Z"/><path fill="#F8E9D4" d="M572.342 323.874L572.94 324.43C566.213 333.322 563.324 346.464 561.219 357.209C559.51 365.933 555.899 378.471 555.827 387.295C555.678 405.478 560.516 425.43 565.886 442.742C570.669 456.901 574.536 462.591 576.776 477.79C568.765 455.913 559.415 437.237 555.066 413.12C553.473 404.682 552.876 396.086 553.289 387.509C554.235 370.014 562.257 338.347 572.342 323.874Z"/><path fill="#F8E9D4" d="M567.422 358.807L568.471 358.999C569.057 363.769 572.357 376.151 573.476 382.114C578.928 411.163 579.355 433.355 575.61 462.629C572.428 445.906 574.854 428.515 573.424 411.507C572.819 404.304 571.626 397.622 570.697 390.489C569.33 379.959 568.238 369.394 567.422 358.807Z"/><path fill="#F0CEAD" d="M593.845 315.815C581.081 317.316 574.111 310.082 568.421 299.765C567.257 297.655 564.888 291.779 567.724 290.087C568.935 291.376 571.069 294.618 572.281 296.198C578.908 304.834 583.557 308.936 594.046 311.854C592.339 313.08 592.703 312.321 592.41 313.931C592.889 314.577 593.328 315.199 593.845 315.815Z"/><path fill="#F8E9D4" d="M424.936 332.836L426.021 332.088C426.103 332.35 426.185 332.612 426.267 332.875C418.747 361.287 419.803 391.376 416.042 420.42C415.111 427.612 415.522 436.63 414.128 443.529L414.167 443.735C413.896 431.139 414.75 418.29 415.897 405.749C417.368 389.672 418.221 373.655 420.019 357.607C419.669 354.681 420.378 351.562 418.781 350.028C418.969 346.047 420.446 342.309 420.56 337.999C420.55 338.02 424.705 333.071 424.936 332.836Z"/><path fill="#240E02" d="M420.56 337.999C420.55 338.02 424.705 333.071 424.936 332.836C422.086 342.186 421.541 348.163 420.019 357.607C419.669 354.681 420.378 351.562 418.781 350.028C418.969 346.047 420.446 342.309 420.56 337.999Z"/><path fill="#F8E9D4" d="M466.3 613.387C466.338 614.621 465.918 616.129 465.474 617.342C457.368 639.519 438.17 660.792 417.7 672.178C407.98 677.584 396.858 680.832 387.419 685.751L386.668 686.146L382.097 684.388L380.99 683.784C381.611 682.937 385.598 683.139 387.112 682.707C423.588 672.305 451.887 649.346 466.3 613.387Z"/><path fill="#F4EDE2" d="M434.447 573.693L436.509 574.57C425.322 592.385 403.515 607.458 383.18 612.385C397.152 604.901 411.593 601.485 422.87 589.161C422.19 589.224 412.421 596.518 410.3 597.598C401.362 602.148 391.68 607.111 382.348 610.639L381.743 610.863C391.793 603.349 431.864 585.543 434.447 573.693Z"/><defs><linearGradient id="gradient_2" gradientUnits="userSpaceOnUse" x1="367.03818" y1="704.02673" x2="361.96323" y2="707.29431"><stop offset="0" stop-color="#FCECD6"/><stop offset="1" stop-color="#FBFAF8"/></linearGradient></defs><path fill="url(#gradient_2)" d="M367.179 716.294C359.413 702.114 355.144 693.328 348.398 678.527L354.507 682.228C359.205 696.669 370.52 719.867 380.69 730.995L380.34 731.814C379.006 731.505 379.196 731.241 378.105 729.89C375.929 727.317 372.796 723.831 370.356 721.574C370.062 720.861 367.72 717.178 367.179 716.294Z"/><path fill="#161212" d="M418.731 341.552C419.123 340.066 419.743 339.284 420.56 337.999C420.446 342.309 418.969 346.047 418.781 350.028C417.857 354.218 418.191 357.196 417.503 360.261C417.659 361.275 416.685 368.319 416.292 368.883C415.559 372.761 415.163 376.573 411.581 378.888L410.138 379.022L408.792 380.308L408.275 380.154C408.552 377.994 410.984 373.208 411.846 370.198C413.253 365.284 414.203 349.411 415.927 346.556C415.733 345.164 416.633 342.345 417.758 341.42L418.731 341.552Z"/><path fill="#E8C39D" d="M415.927 346.556C417.131 353.68 412.63 371.954 410.138 379.022L408.792 380.308L408.275 380.154C408.552 377.994 410.984 373.208 411.846 370.198C413.253 365.284 414.203 349.411 415.927 346.556Z"/><path fill="#9F8E82" d="M418.731 341.552C419.123 340.066 419.743 339.284 420.56 337.999C420.446 342.309 418.969 346.047 418.781 350.028C417.857 354.218 418.191 357.196 417.503 360.261C416.338 356.94 418.226 345.65 418.731 341.552Z"/><path fill="#9F8E82" d="M411.581 378.888C412.774 375.47 414.499 372.247 415.751 368.467L416.292 368.883C415.559 372.761 415.163 376.573 411.581 378.888Z"/><path fill="#F4EDE2" d="M415.731 526.738L416.703 527.573C414.797 533.565 412.725 539.557 410.567 545.163C409.043 549.121 400.328 569.246 400.162 572.08L400.333 573.636C400.263 575.547 394.367 591.341 393.254 593.601C392.089 596.824 391.278 598.994 391.613 602.432L387.378 604.921C388.881 600.201 390.173 593.144 391.894 588.822C395.967 578.597 400.171 568.184 404.326 557.99C408.643 547.396 411.811 537.363 415.731 526.738Z"/><path fill="#060201" d="M400.333 573.636C400.263 575.547 394.367 591.341 393.254 593.601C393.059 589.419 397.312 576.624 400.333 573.636Z"/><path fill="#F8E9D4" d="M579.243 404.898C584.476 419.151 583.173 441.808 581.967 456.904C581.538 462.269 579.559 469.493 579.342 474.773L578.868 474.707L578.327 472.601C578.532 457.943 580.722 443.196 580.843 428.518C580.906 420.914 580.001 412.475 579.243 404.898Z"/><path fill="#CDC2AF" d="M695.747 578.936C696.563 579.635 696.792 579.62 697.176 580.47C698.188 582.745 700.411 585.246 701.061 587.6C707.848 612.163 712.64 626.744 693.028 647.498C698.395 637.126 701.154 636.177 704.925 623.673C710.132 606.412 693.011 587.8 695.747 578.936Z"/><path fill="#F8E9D4" d="M564.908 368.269C564.926 366.2 564.864 364.625 565.261 362.566L565.913 362.891C567.68 385.792 571.081 408.207 571.156 430.995C571.169 435.123 571.574 443.233 571.034 446.91L571.096 446.266C569.75 443.893 569.106 422.662 569.131 418.345C569.226 401.761 565.375 384.542 564.908 368.269Z"/><path fill="#F4EDE2" d="M451.979 357.544C454.248 352.986 457.168 342.041 458.834 336.917C462.418 326.233 465.922 315.523 469.348 304.788C471.569 297.858 474.387 289.902 475.283 282.728C475.968 277.248 471.655 271.631 468.43 267.598L468.553 267.214C474.531 269.681 476.724 278.512 476.833 284.342C476.32 286.476 475.193 290.519 474.94 292.417C474.4 294.093 473.876 295.514 473.601 297.262C470.733 299.595 462.34 333.062 459.327 339.45C458.118 342.015 453.88 355.658 453.24 358.591L451.979 357.544Z"/><path fill="#F0CEAD" d="M703.527 520.952C708.51 532.993 714.307 544.816 719.074 556.94C724.756 571.391 729.206 586.379 733.754 601.223L732.898 601.595C731.933 598.057 729.255 591.654 727.937 587.592C722.651 570.902 716.668 554.441 710.004 538.251C707.974 533.323 705.273 526.225 702.893 521.591L703.527 520.952Z"/><path fill="#F0CEAD" d="M635.397 608.545C642.793 623.655 645.474 645.465 639.845 661.518C641.869 645.031 639.453 624.724 634.603 608.97L635.397 608.545Z"/><path fill="#CDC2AF" d="M415.558 517.424L416.401 518.739C414.769 522.828 413.29 526.557 411.95 530.742C410.992 533.732 410 539.138 408.858 541.77C403.333 554.497 398.215 567.307 392.981 580.142C389.685 588.226 387.61 596.818 384.315 604.593L384.064 604.227C385.855 597.384 387.048 590.015 389.712 583.359C391.1 579.98 393.145 576.695 394.444 573.284C399.824 559.164 407.062 545.932 411.027 531.301C412.245 526.807 414.821 522.016 415.558 517.424Z"/><path fill="#F0CEAD" d="M562.305 357.718C562.516 372.297 563.829 384.304 565.228 398.829C566.059 407.451 566.324 416.696 567.019 425.451L566.62 428.651C565.381 410.351 558.801 374.479 562.305 357.718Z"/><path fill="#F0CEAD" d="M575.363 372.133C585.307 375.361 620.124 381.698 623.179 390.815C608.212 380.313 593.777 380.342 575.974 374.414C575.042 373.182 575.326 373.89 575.363 372.133Z"/><path fill="#F0CEAD" d="M633.407 677.184C633.807 675.901 639.329 665.434 640.176 664.457C640.75 666.391 640.208 665.665 641.733 666.8C637.475 676.923 635.053 679.464 626.267 686.067C626.197 686.522 626.026 687.155 626.136 687.522C622.372 689.228 619.389 690.43 615.504 691.854C623.07 686.647 625.914 681.816 633.407 677.184Z"/><path fill="#CDC2AF" d="M324.808 580.989L325.9 580.352L325.942 581.691L326.694 581.519C328.209 593.906 331.678 610.926 335.336 622.842C335.617 623.757 335.661 623.724 335.78 624.783L335.319 624.888C334.889 623.752 334.974 623.748 334.081 622.957L332.744 623.589C330.947 619.503 328.064 600.359 326.784 594.515C326.028 590.189 325.513 585.414 324.808 580.989Z"/><path fill="#F0CEAD" d="M569.355 350.863C573.165 351.987 575.963 353.487 580.09 354.271C587.056 355.594 607.594 358.469 612.31 362.827C599.333 360.401 585.442 356.819 572.475 353.971C570.44 353.524 570.167 352.511 569.355 350.863Z"/><path fill="#F0CEAD" d="M558.717 374.372C560.056 388.336 563.761 410.436 563.365 423.646C561.593 418.087 556.931 379.239 558.717 374.372Z"/><path fill="#CDC2AF" d="M383.716 586.832C387.71 576.46 394.011 565.421 398.91 555.316C401.595 549.778 404.838 540.765 408.041 536.229C407.493 540.819 387.892 580.571 384.578 587.085L383.716 586.832Z"/><path fill="#F0CEAD" d="M602.627 365.635C598.213 361.858 575.881 362.167 571.255 355.85C573.754 356.414 576.153 357.203 578.63 357.857C587.587 360.224 597.136 361.751 605.93 364.668C605.135 365.498 604.959 366.243 604.589 367.305C603.266 367.019 603.841 367.125 602.627 365.635Z"/><path fill="#8E888A" d="M415.731 526.738C418.591 518.653 421.614 511.397 422.603 502.848C423.095 498.6 428.51 465.221 430.207 463.368L430.335 462.469C428.956 477.966 423.91 495.888 421.694 511.616C421.083 515.953 417.919 522.931 416.703 527.573L415.731 526.738Z"/><path fill="#F8E9D4" d="M613.627 687.225C618.744 684.85 623.879 678.298 627.663 674.152C629.196 672.472 631.103 669.15 632.946 668.028L634.491 668.962C634.311 672.676 618.449 686.251 614.58 688.395L613.627 687.225Z"/><path fill="#CDC2AF" d="M413.804 478.4C415.785 482.175 413.325 504.853 413.422 510.396C413.481 513.755 412.038 520.582 410.755 523.875C410.534 521.655 411.692 512.697 411.896 510.008C412.692 499.482 413.328 488.945 413.804 478.4Z"/><path fill="#F0CEAD" d="M579.21 324.864L580.771 325.912L580.866 326.677L577.415 328.755C580.042 329.24 580.395 329.057 583.103 328.562L590.512 335.505C587.315 334.759 583.595 334.322 580.306 333.856C578.54 333.418 574.833 332.717 573.904 331.348C577.23 331.368 580.934 332.451 585.135 332.306C581.224 331.355 579.383 330.965 575.805 329.153L575.081 328.781L579.21 324.864Z"/><path fill="#F0CEAD" d="M605.898 293.921C612.963 295.822 620.715 298.525 627.764 299.916C629.733 300.305 628.847 299.783 631.324 300.759C630.424 300.892 629.515 300.965 628.605 300.977C621.984 301.105 610.891 298.819 605.898 293.921Z"/><path fill="#F0CEAD" d="M385.409 283.298C387.237 284.64 389.908 287.129 391.485 288.726C390.135 288.725 389.617 288.612 388.298 288.425L388.018 288.929C390.871 293.459 397.071 293.632 401.879 293.466L402.875 293.271C400.616 295.753 395.098 296.092 392.213 294.263C387.651 291.371 386.654 288.167 385.409 283.298Z"/><path fill="#F8E9D4" d="M641.709 673.491L643.115 673.501C640.198 680.122 636.613 683.555 629.825 686.186C628.604 686.656 627.374 687.101 626.136 687.522C626.026 687.155 626.197 686.522 626.267 686.067C633.825 684.469 637.629 679.368 641.709 673.491Z"/><path fill="#F8E9D4" d="M321.813 606.25L323.394 606.495C323.621 611.749 327.166 623.418 328.129 630.069C324.148 620.429 323.086 616.562 321.813 606.25Z"/><path fill="#715F50" d="M702.893 521.591C700.428 515.252 695.417 506.208 692.644 499.675C691.832 497.761 687.005 490.698 686.988 489.566L687.703 489.58C690.771 492.171 700.577 515.375 703.527 520.952L702.893 521.591Z"/><path fill="#F4EDE2" d="M364.738 616.7L365.309 616.634L365.66 617.291L365.288 618.384C363.052 619.455 356.006 620.756 353.257 621.328L352.39 619.462C353.726 616.972 359.526 619.138 364.738 616.7Z"/><path fill="#F0CEAD" d="M638.331 649.465C640.127 652.551 637.042 664.557 635.212 667.916C634.888 667.5 634.098 666.239 634.223 665.751C635.642 660.225 637.24 655.1 638.331 649.465Z"/><path fill="#ACA79F" d="M381.865 599.242C382.946 596.256 384.071 592.937 385.336 590.058C384.292 595.277 381.165 608.324 378.725 612.635L378.362 612.629C378.924 608.603 379.788 607.248 380.71 603.542L381.865 599.242Z"/><path fill="#CDC2AF" d="M572.662 334.047C574.865 334.489 577.779 335.625 580.212 336.191C584.059 337.086 591.462 337.458 594.511 339.407C589.368 338.967 575.561 338.317 572.662 334.047Z"/><path fill="#ACA79F" d="M415.558 517.424C416.543 514.698 421.657 497.348 422.619 496.851C421.428 503.325 418.575 512.529 416.401 518.739L415.558 517.424Z"/><path fill="#E8C39D" d="M594.046 311.854C597.147 311.479 598.212 308.639 601.027 306.647C598.822 310.804 597.91 313.368 593.845 315.815C593.328 315.199 592.889 314.577 592.41 313.931C592.703 312.321 592.339 313.08 594.046 311.854Z"/><path fill="#161212" d="M697.101 628.964L697.183 629.532C697.925 630.834 697.647 630.703 698.713 631.588L698.983 632.382C698.283 634.378 698.03 635.609 696.729 637.223L695.889 637.254C695.249 636.184 695.475 636.742 695.185 635.59C695.439 633.737 695.614 631.781 695.812 629.912L697.101 628.964Z"/><path fill="#CDC2AF" d="M678.69 643.869C679.284 649.678 676.532 657.449 673.084 662.078C673.07 661.103 677.888 646.848 678.69 643.869Z"/><path fill="#CDC2AF" d="M704.395 594.344C706.229 595.952 706.946 599.218 708.373 601.568C709.328 605.621 709.43 607.548 709.531 611.677C708.13 605.754 706.023 600.245 704.395 594.344Z"/><path fill="#8E888A" d="M435.197 438.288C435.508 438.036 436.036 438.119 436.598 438.086C435.932 443.466 434.373 449.237 432.841 454.433C432.37 451.576 435.326 442.283 435.197 438.288Z"/><path fill="#CDC2AF" d="M670.457 320.152L670.564 320.533C664.455 323.499 663.585 325.357 660.308 331.2L659.781 330.693C659.058 325.964 666.504 321.278 670.457 320.152Z"/><path fill="#9F8E82" d="M564.908 368.269C563.646 360.977 565.543 357.461 566.147 351.145C566.346 354.518 565.952 359.377 565.913 362.891L565.261 362.566C564.864 364.625 564.926 366.2 564.908 368.269Z"/><path fill="#6F6B62" d="M577.479 322.405L577.839 322.751L577.842 323.629C574.213 327.358 572.947 329.01 570.506 333.547L570.372 333.535L569.99 333.03C572.379 327.669 573.462 326.525 577.479 322.405Z"/><path fill="#6A6465" d="M584.674 510.219C587.232 516.153 586.22 519.378 587.531 525.024L586.452 524.605C585.432 520.438 585.212 514.684 584.674 510.219Z"/><path fill="#CDC2AF" d="M674.868 605.302C677.573 607.184 677.899 614 678.078 617.192C676.863 614.282 675.11 608.37 674.868 605.302Z"/><path fill="#CDC2AF" d="M362.767 450.473L363.109 450.68C362.941 452.994 359.51 457.764 358.1 459.881L357.781 459.601C357.93 457.307 361.371 452.629 362.767 450.473Z"/><path fill="white" d="M317.324 626.85C319.744 629.755 321.603 633.872 321.683 637.716C320.138 636.077 318.116 629.223 317.324 626.85Z"/><path fill="#6A6465" d="M567.019 425.451C567.656 428.518 568.547 434.708 568.211 437.742L567.817 437.535C567.435 435.788 566.584 430.332 566.62 428.651L567.019 425.451Z"/><path fill="#F0CEAD" d="M390.471 294.686C392.419 295.413 394.98 296.009 395.248 298.232C394.375 298.654 394.468 298.579 393.513 298.807C391.92 297.936 391.348 296.342 390.471 294.686Z"/><path fill="#F4EDE2" d="M376.019 612.554L376.38 612.95C375.647 614.384 373.828 615.155 372.256 616.142C371.399 615.489 371.678 615.927 371.494 614.784C372.708 613.397 374.217 613.151 376.019 612.554Z"/><path fill="#6A6465" d="M733.754 601.223C734.9 604.437 735.516 606.914 736.339 610.217C734.613 606.9 734.068 605.179 732.898 601.595L733.754 601.223Z"/><path fill="#9F8E82" d="M578.327 472.601L578.868 474.707L579.342 474.773C579.265 477.243 578.819 480.671 577.989 482.965C577.981 479.459 577.882 476.081 578.327 472.601Z"/><path fill="#ACA79F" d="M507.97 287.436C509.497 283.994 509.327 283.906 511.603 280.912C511.217 283.359 509.762 285.899 508.654 288.188L507.97 287.436Z"/><path fill="#F0CEAD" d="M694.73 492.592C697.388 492.458 698.993 492.122 700.821 494.344C697.736 494.676 696.975 494.851 694.73 492.592Z"/><path fill="#8E888A" d="M380.884 594.704C382.033 591.962 382.045 590.329 383.716 586.832L384.578 587.085C383.477 589.582 381.994 592.46 381.582 595.089L380.884 594.704Z"/><path fill="#CDC2AF" d="M586.452 524.605L587.531 525.024C587.898 526.233 588.345 527.87 588.766 529.019L587.659 530.422C587.247 528.958 586.777 526.192 586.452 524.605Z"/><path fill="#E8C39D" d="M634.07 312.587C637.188 313.399 637.692 313.591 638.64 316.718C637.112 315.608 634.719 314.209 634.07 312.587Z"/><path fill="#8E888A" d="M634.603 608.97C633.69 607.28 632.234 605.04 632.084 603.219L632.055 603.585L632.829 603.845C633.642 605.229 634.836 607.118 635.397 608.545L634.603 608.97Z"/><path fill="#6A6465" d="M567.422 358.807C567.127 357.149 566.75 356.089 567.305 354.519C568.38 355.956 568.209 357.011 568.471 358.999L567.422 358.807Z"/><path fill="#6A6465" d="M319.349 622.237C319.766 623.734 320.497 625.473 320.085 626.856C319.16 625.475 319.028 624.529 318.607 622.937L319.349 622.237Z"/><path fill="#6A6465" d="M658.287 672.072L658.899 672.469C657.587 673.473 656.67 674.467 655.087 674.557C655.638 673.24 656.948 672.804 658.287 672.072Z"/><path fill="#4F4A44" d="M464.23 266.884L464.657 267.331C464.95 268.822 464.194 270.144 463.618 271.633L463.244 271.27C462.991 269.539 463.588 268.704 464.23 266.884Z"/><path fill="#ACA79F" d="M502.363 633.788C502.423 631.969 502.443 631.463 502.822 629.7C503.545 630.406 503.418 631.65 503.575 632.95L502.363 633.788Z"/></svg>