<?xml version="1.0" encoding="utf-8" ?><svg xmlns="http://www.w3.org/2000/svg" xmlns:xlink="http://www.w3.org/1999/xlink" width="1024" height="1024" viewBox="0 0 1024 1024"><path fill="white" d="M0 0L1024 0L1024 1024L0 1024L0 0Z"/><path fill="#010100" d="M503.369 292.222C531.316 290.281 581.423 293.834 608.145 301.702C616.298 304.183 624.351 306.982 632.286 310.091C635.687 311.433 643.16 314.978 646.36 315.628C709.24 328.405 773.622 354.542 823.046 396.087C844.688 414.279 863.656 444.975 865.138 473.445C866.13 492.516 860 513.401 856.454 532.149C841.632 598.701 828.637 652.969 782.096 704.85C743.048 750.276 688.215 776.115 631.34 791.717C614.082 796.452 594.807 800.302 577.061 803.708C564.746 806.071 553.715 808.343 540.988 809.076C539.924 809.182 538.857 809.264 537.79 809.323C501.638 811.235 452.52 805.553 417.031 796.979C366.808 784.846 313.414 758.627 275.017 723.747C260.955 710.974 246.728 694.616 235.218 679.32C222.791 660.988 215.349 640.571 207.812 620.115C194.201 583.172 186.208 545.136 181.377 506.133C180.193 496.577 178.083 487.497 177.611 477.689C172.56 372.754 301.067 330.221 383.396 312.035C396.614 309.114 409.379 304.712 422.496 302.107C449.191 296.804 476.205 293.371 503.369 292.222Z"/><path fill="#FBFAEC" d="M454.99 486.059L454.264 485.631C446.298 480.983 436.603 479.043 428.273 474.851C414.994 468.169 403.168 459.704 391.814 450.205C378.351 438.943 368.662 428.558 364.178 411.199C359.119 391.607 364.261 372.41 374.292 355.287C388.328 331.019 410.483 319.017 435.629 309.15C442.401 306.493 451.173 303.259 458.289 301.568C495.052 292.831 538.241 291.819 575.018 300.823C589.348 304.331 609.414 313.646 621.767 321.083C638.178 330.964 662.182 351.962 666.774 370.901C669.505 381.741 667.713 393.225 661.808 402.717C633.573 447.997 578.135 462.806 528.509 469.22C521.581 470.116 513.948 471.521 507.18 473.224C515.229 473.454 522.093 471.688 530.051 470.813C569.959 466.423 615.436 455.615 645.687 427.779C656.935 417.429 671.777 398.401 671.517 382.417C671.181 361.811 664.235 353.843 650.669 339.756C646.878 335.834 642.803 332.197 638.475 328.876C635.003 326.169 630.42 323.683 628.933 319.576L628.249 319.597L627.712 320.734C618.37 315.457 609.263 310.921 599.099 307.432C596.994 306.709 591.709 304.925 590.608 303.249C594.051 302.221 624.14 310.17 628.71 311.741C650.621 319.273 674.677 336.008 686.968 356.134C691.176 363.025 696.617 371.944 698.845 379.492C703.941 397.211 701.674 416.236 692.555 432.261C675.214 463.38 636.645 483.514 604.294 495.236C601.894 496.105 588.786 500.448 588.511 501.854C593.521 501.259 600.693 498.347 605.551 496.921C675.403 476.412 743.487 412.597 680.579 342.016C680.616 342.058 681.571 339.736 681.659 339.409L681.701 338.901C688.888 342.673 694.945 346.964 701.721 351.245C718.596 361.906 730.194 374.465 736.368 393.989C742.697 413.457 740.855 434.66 731.264 452.745C726.413 461.944 720.263 470.396 713.001 477.841C692.58 498.78 653.867 520.896 625.639 529.09C614.15 532.425 601.329 535.115 589.507 537.145C580.162 538.75 568.998 539.9 560.12 543.186C566.855 542.7 573.604 541.576 580.239 540.7C619.326 535.634 657.187 523.78 689.704 501.031C702.103 492.357 710.556 485.599 720.857 474.039C740.289 452.229 749.729 422.529 739.963 394.003L741.751 390.396L741.182 389.767C740.731 390.613 740.299 391.47 739.887 392.336C738.015 391.562 735.699 387.015 736.014 384.792L737.964 383.424L739.162 382.929C757.585 398.528 765.652 411.33 768.107 436.086C770.113 456.303 766.897 471.467 756.656 489.011C753.454 494.496 748.88 502.293 744.589 507.071C725.647 528.158 693.034 543.827 666.757 553.698C650.951 559.636 633.459 563.699 617.924 569.441C627.274 568.513 637.366 565.447 646.441 562.963C700.458 548.176 768.949 515.997 771.701 451.365L771.54 442.156C770.703 432.034 769.231 422.378 765.311 412.877C763.585 408.692 761.121 404.616 759.324 400.373C771.573 406.836 792.096 439.08 795.776 453.021C801.315 471.486 797.982 485.093 789.153 501.862C771.356 535.589 746.948 551.962 713.732 567.855C682.538 582.781 661.734 587.022 628.218 591.302C600.389 594.856 548.048 595.696 523.606 606.385C546.101 602.454 569.872 599.126 592.209 597.722C638.516 594.813 678.366 589.649 720.168 568.308C746.114 555.062 767.692 542.852 784.324 517.029C795.545 500.298 800.462 490.844 802.576 470.91C811.398 487.873 817.798 509.752 811.775 528.583C806.443 545.255 766.079 567.414 750.527 575.285C743.343 578.92 736.096 582.654 728.509 585.383C726.524 586.425 725.515 586.804 723.39 587.548C719.499 589.55 715.288 591.185 711.231 592.853C707.925 594.067 704.493 595.387 701.17 596.508C690.087 600.527 679.514 604.537 668.098 607.641C601.693 625.696 529.162 626.801 461.058 619.309C434.35 616.272 406.49 613.743 380.279 607.265C344.196 598.347 305.216 586.801 271.986 570.042C258.658 563.319 244.47 551.55 233.114 542.382C214.503 527.358 212.373 507.681 212.546 485.192C212.578 478.864 214.586 471.176 216.133 464.872C216.79 469.128 217.891 472.222 219.608 476.187C230.784 502.034 253.214 519.653 274.59 536.756C280.935 541.832 286.91 547.769 293.258 552.972C301.757 559.819 310.796 565.967 320.287 571.356C334.674 579.663 348.344 584.786 363.725 590.73L369.387 592.493C383.694 597.022 414.623 604.996 428.626 601.173C379.18 594.479 342.107 583.841 301.106 553.391C294.03 548.066 288.406 543.157 281.416 537.382C257.206 517.379 222.188 492.929 219.102 458.965C218.188 448.908 230.896 428.423 237.004 420.656C239.456 417.538 245.806 411.383 248.91 408.279C247.502 416.454 246.398 424.306 248.138 432.652C258.967 487.032 314.041 531.128 361.435 554.383C392.513 569.632 446.518 577.186 481.581 578.63C468.977 574.379 452.571 573.084 439.027 571.44C411.96 568.155 384.551 561.977 360.043 549.759C329.882 534.723 289.7 503.03 270.649 475.038C263.744 464.681 258.319 453.41 254.532 441.551C250.384 428.806 248.937 415.085 255.29 402.706C259.284 394.923 277.863 375.511 285.733 373.077L287.269 374.069L288.015 373.754L287.175 372.078C288.966 369.434 296.986 365.52 300.332 365.96C300.854 366.29 301.376 366.619 301.897 366.949C301.853 368.347 297.488 375.835 296.978 376.834C281.163 407.775 291.538 463.217 322.639 481.569C322.537 481.407 322.436 481.245 322.335 481.083L321.814 480.283C311.178 463.761 305.122 462.961 298.312 442.236C277.717 379.551 318.708 340.718 373.638 321.654L374.959 322.948C316.654 363.231 304.33 435.165 361.772 482.441C370.551 489.666 378.732 497.037 389.185 502.164C419.868 516.671 456.125 521.748 489.32 527.565C492.042 528.042 494.61 528.391 497.306 528.636C473.678 519.856 444.855 518.417 420.643 510.288C411.498 507.217 401.59 505.099 393.004 500.243C371.001 487.799 346.157 466.057 335.477 442.982C326.814 424.263 325.716 399.559 333.039 380.448C343.366 353.303 368.076 327.437 394.411 315.353C408.451 308.91 428.094 303.846 443.412 302.267C432.835 305.867 424.056 311.243 413.403 314.313L413.467 315.637C405.281 320.488 397.02 324.933 389.732 331.066C362.161 354.27 347.535 399.011 368.495 431.072C385.019 456.347 421.123 477.804 450 484.994C451.653 485.394 453.317 485.749 454.99 486.059Z"/><path fill="#EBE8DC" d="M717.527 582.34C721.144 581.393 722.462 579.174 722.756 575.603L722.363 575.081C720.522 575.49 721.32 575.646 719.848 574.915L720.181 575.409L720.484 575.436L720.002 574.414C721.201 572.939 721.127 572.873 722.926 572.041L724.062 572.084C724.743 573.024 724.679 572.98 724.888 574.136L725.711 574.118C726.72 574.1 727.38 574.156 728.396 574.257C729.864 575.865 729.126 576.455 728.108 578.257C728.912 579.526 729.466 579.801 730.635 580.794C729.934 583.608 728.308 582.177 727.942 584.738L728.509 585.383C726.524 586.425 725.515 586.804 723.39 587.548C723.911 586.753 724.517 586.287 725.285 585.67C724.031 584.081 715.726 585.63 712.968 584.998C715.332 584.417 716.468 584.742 717.845 583.386L717.527 582.34Z"/><path fill="#EBE8DC" d="M701.17 596.508C700.179 594.813 700.069 595.243 700.251 593.677C701.381 592.538 702.882 591.649 704.466 591.463C708.868 590.948 708.108 590.664 711.231 592.853C707.925 594.067 704.493 595.387 701.17 596.508Z"/><path fill="#EBE8DC" d="M363.725 590.73L369.387 592.493L367.855 594.911C365.56 594.194 365.043 593.836 362.788 594.286L362.325 594.082L362.457 593.585L363.668 593.11L363.725 590.73Z"/><path fill="#EBE8DC" d="M771.54 442.156L772.835 440.866L773.72 440.882C774.473 442.32 774.395 443.135 774.5 444.744L773.922 445.098L772.501 444.644C771.526 446.312 773.014 449.802 771.701 451.365L771.54 442.156Z"/><path fill="#010100" d="M712.968 584.998L712.238 584.782C713.301 582.868 715.52 582.361 717.527 582.34L717.845 583.386C716.468 584.742 715.332 584.417 712.968 584.998Z"/><path fill="#53524D" d="M362.788 594.286C365.043 593.836 365.56 594.194 367.855 594.911L369.5 595.759L369.536 596.256C366.965 595.935 365.212 595.163 362.788 594.286Z"/><path fill="#53524D" d="M362.325 594.082C360.817 593.669 359.54 593.55 358.578 592.402C360.269 592.167 360.573 592.713 362.457 593.585L362.325 594.082Z"/><path fill="#010100" d="M525.028 400.506C500.424 412.061 482.958 415.693 455.948 407.002C437.695 401.128 429.836 388.606 437.134 370.04C443.199 354.61 454.044 346.396 469.072 340.187C497.613 327.875 538.15 324.198 567.787 334.848C584.605 340.892 598.036 355.162 589.143 373.597C582.031 388.338 570.049 400.54 554.465 406.603C557.333 404.065 561.571 401.333 564.725 398.745C572.49 392.375 579.397 384.723 584.072 375.767C587.237 369.706 589.32 362.494 587.311 355.806C585.103 348.454 573.097 341.162 566.271 338.405C541.141 328.256 500.244 331.559 475.281 341.268C460.296 347.096 447.9 353.71 441.538 368.85C439.005 374.685 436.789 384.072 439.732 390.106C445.764 402.477 462.723 406.034 474.681 407.697C493.381 410.299 507.264 406.955 524.153 399.693L525.028 400.506Z"/><path fill="#010100" d="M511.365 303.219C540.038 301.594 579.339 317.283 604.672 331.298C631.243 345.997 643.826 362.835 625.932 391.961C614.026 411.341 594.05 422.214 573.44 430.69C566.352 433.604 560.359 436.634 552.534 438.505C572.694 426.38 595.122 420.937 612.294 403.396C621.262 394.235 629.993 380.474 630.035 367.185C630.063 357.936 625.48 351.714 619.377 345.563C615.906 342.412 610.399 338.731 606.393 336.193C598.401 331.12 590.056 326.627 581.42 322.751C566.965 316.427 535.352 306.888 519.762 305.722C506.217 304.709 484.362 308.822 471.023 311.571C447.361 316.087 427.89 326.284 410.303 342.669C400.452 351.847 397.593 355.325 390.38 366.701L389.573 366.63C389.023 362.562 398.509 350.68 401.367 347.449C428.535 316.734 471.775 305.384 511.365 303.219Z"/><path fill="#010100" d="M399.415 389.019C406.159 340.629 470.123 319.936 511.024 316.608C516.465 316.165 521.036 318.344 524.109 318.169C523.075 317.596 522.608 317.163 521.691 316.422L522.035 315.937C524.174 315.953 525.791 315.687 527.495 316.835L526.39 317.356C525.33 318.203 524.95 318.561 524.007 319.539C522.078 319.23 522.987 319.376 521.471 318.767C515.948 316.551 506.681 321.125 502.56 318.791C495.113 321.033 488.449 321.744 481.243 323.598C443.756 333.246 392.864 361.014 404.759 407.506C411.061 432.136 453.98 443.518 476.277 447.311C486.496 449.05 495.263 448.449 506.41 451.184C501.321 451.524 476.969 450.935 472.521 450.063C454.251 446.48 427.045 439.026 412.845 426.725C406.492 421.222 401.476 412.416 400.228 404.264C399.901 402.128 400.026 402.288 398.463 402.301C398.934 399.27 399.738 400.475 399.357 396.351C399.465 394.012 399.41 391.384 399.415 389.019Z"/><path fill="#010100" d="M495.441 381.344C487.494 382.295 458.308 383.384 463.175 365.286C466.516 357.806 478.383 354.582 484.144 351.997C491.849 348.54 545.063 342.999 546.829 350.907C544.549 351.75 536.8 349.998 533.136 350.057C514.582 350.354 491.199 351.028 474.56 359.655C472.107 360.945 466.07 364.941 466.02 367.928C465.841 378.526 486.498 379.774 492.937 380.029L495.441 381.344Z"/><path fill="#EBE8DC" d="M737.93 467.921C739.672 464.672 739.113 464.844 739.415 461.42L739.918 461.3L741.267 463.788C743.048 463.339 743.107 463.669 743.841 462.524C743.528 460.873 743.374 460.621 744.028 458.982C746.379 458.378 744.619 460.771 746.326 458.56C745.966 456.081 744.437 455.879 744.717 453.267C745.686 451.78 745.044 452.126 746.457 451.794L750.275 453.112C750.945 452.546 751.434 452.114 752.06 451.5L752.839 451.625L753.451 452.476C755.843 450.449 754.94 444.079 756.387 441.984L757.079 442.138C757.174 444.57 756.335 444.36 757.231 445.703L758.044 445.534L758.778 444.291L760.237 444.37C760.198 446.809 760.483 447.199 758.491 448.999C756.187 451.082 758.163 453.826 757.071 457.155C753.085 460.222 747.814 455.591 747.007 461.005C746.633 463.512 747.508 464.667 746.239 466.819C744.425 468.202 742.575 468.766 740.299 468.876L737.93 467.921Z"/><path fill="#010100" d="M533.552 579.135C545.653 576.417 588.883 569.012 599.118 573.027C597.301 574.054 592.004 574.074 589.684 574.269C572.264 575.734 550.551 577.049 533.595 580.264L533.552 579.135Z"/><path fill="#010100" d="M713.361 440.945L713.815 441.758C712.712 446.066 699.627 462.327 695.902 466.326C692.858 469.593 668.798 492.238 664.937 489.88C671.957 485.166 691.86 469.445 696.21 462.292L695.464 461.585C695.863 460.632 702.201 457.015 704.902 453.292C704.66 452.621 704.245 451.555 704.344 451.45C705.762 449.953 709.901 446.081 710.718 444.266C711.506 442.517 712.523 441.743 713.361 440.945Z"/><path fill="#EBE8DC" d="M781.023 533.918C782.155 533.772 781.721 533.879 782.748 533.21C781.407 530.925 779.242 531.222 778.448 529.428C780.559 526.888 782.419 528.026 785.798 526.683C788.019 525.8 785.622 522.341 786.991 518.52C788.054 518.462 787.543 518.317 788.463 519.127C788.674 521.928 788.212 522.038 790.822 522.713L791.219 523.77C790.905 525.369 790.971 525.562 790.078 526.965L788.88 527.831C786.619 528.733 787.416 528.012 786.165 529.772C786.421 531.344 786.685 531.611 787.434 533.002C787.378 534.749 787.635 533.986 786.713 535.399C784.615 536.613 782.318 536.31 780.685 534.579L781.023 533.918Z"/><path fill="#343634" d="M788.88 527.831C788.913 525.705 788.811 525.391 789.666 523.519C790.434 524.629 790.104 525.283 790.078 526.965L788.88 527.831Z"/><path fill="#EBE8DC" d="M287.271 441.361C289.859 443.458 293.765 447.717 289.42 450.252C289.014 450.963 289.326 450.669 288.344 450.954C286.815 450.897 286.777 450.961 285.361 450.457C283.123 448.063 282.136 446.377 283.735 443.145C285.312 441.765 285.217 441.831 287.271 441.361Z"/><path fill="#EBE8DC" d="M387.044 394.353C388.963 394.897 388.109 394.368 389.379 396.46C392.247 396.938 394.991 397.126 395.973 400.047C395.648 402.306 395.581 402.381 394.365 404.363C393.857 404.04 392.896 403.192 392.387 402.772C387.252 402.358 383.455 399.597 387.044 394.353Z"/><path fill="#343634" d="M390.47 397.24L391.871 397.703C392.814 399.219 392.469 398.945 392.275 401.177L392.196 401.152C391.256 400.023 390.99 398.709 390.47 397.24Z"/><path fill="#EBE8DC" d="M716.565 406.931L718.482 406.784C721.891 410.253 720.148 417.312 715.9 417.885L715.506 417.284C716.066 415.969 716.206 415.589 716.975 414.401L716.678 413.665L715.687 413.772L715.477 415.384L713.28 416.087C712.411 414.899 712.651 415.557 712.794 413.998C713.921 413.026 713.688 413.125 714.968 412.442L715.127 411.597L716.565 406.931Z"/><path fill="#343634" d="M715.127 411.597L716.565 406.931C716.958 409.208 717.03 409.359 716.626 411.585L715.893 412.134L715.127 411.597Z"/><path fill="#010100" d="M431.326 555.337C425.135 553.696 407.91 549.64 403.507 546.161C406.625 546.222 426.517 552.831 431.418 554.172L431.326 555.337Z"/><path fill="#181714" d="M582.367 606.085C589.984 605.127 602.256 602.984 609.354 603.796L609.606 604.18C604.991 605.91 587.477 606.352 581.357 607.166L582.367 606.085Z"/><path fill="#010100" d="M497.531 577.681C501.891 577.982 506.172 579.002 510.454 579.897C507.286 580.202 504.115 580.192 500.931 580.245C497.055 580.648 494.855 581.235 491.31 579.627L491.429 578.942C493.369 577.868 495.282 577.905 497.531 577.681Z"/><path fill="#010100" d="M466.422 487.65C469.52 487.348 483.541 490.345 486.088 491.493L486.205 492.493C482.207 492.182 469.774 490.281 466.334 488.442L466.422 487.65Z"/><path fill="#010100" d="M379.768 518.536C383.451 519.276 395.952 524.036 399.001 525.942C394.708 526.297 381.841 522.442 379.768 518.536Z"/><path fill="#181714" d="M712.908 397.845C712.954 392.903 709.782 385.471 710.833 381.606C712.23 384.984 713.298 394.231 714.207 394.898C715.254 394.206 715.268 394.131 716.111 393.179L717.188 393.108C718.034 394.988 716.204 398.794 715.706 401.516L715.643 400.847C715.499 399.402 715.609 398.395 714.705 397.353C713.78 397.614 714.096 397.383 713.637 397.842L712.908 397.845Z"/><path fill="#010100" d="M457.196 602.588C457.561 602.565 457.927 602.551 458.293 602.544C461.626 602.493 464.061 603.251 466.437 605.541L466.305 606.368C464.614 606.789 463.771 606.26 462.118 605.649C458.324 604.504 455.351 605.609 452.981 604.475L453.547 603.775L453.264 604.506L453.596 604.598L453.718 603.603C454.914 603.086 455.931 602.904 457.196 602.588Z"/><path fill="#010100" d="M536.086 443.606L537.293 443.615L537.307 444.092L537.023 444.027C535.096 446.127 523.723 448.895 520.613 449.585L519.89 449.732L519.541 449.183C521.914 447.046 532.707 444.333 536.086 443.606Z"/><path fill="#010100" d="M362.912 511.549C366.42 511.5 377.28 516.293 378.848 519.369C375.752 518.674 364.305 514.185 362.912 511.549Z"/><path fill="#EBE8DC" d="M747.632 558.67C748.992 557.016 748.185 557.413 749.868 556.935C751.209 558.873 750.681 561.312 748.38 562.498C746.83 563.296 745.083 562.168 743.418 561.589L743.353 560.992C744.298 559.931 746.243 559.271 747.632 558.67Z"/><path fill="#010100" d="M743.418 561.589L743.353 560.992C744.298 559.931 746.243 559.271 747.632 558.67C746.345 560.368 745.696 561.333 743.418 561.589Z"/><path fill="#EBE8DC" d="M383.481 376.663C385.353 376.85 384.605 376.483 385.906 377.551C386.331 379.469 385.305 382.458 384.955 384.89C383.139 385.188 383.89 385.406 382.56 384.492C381.839 382.664 383.011 378.755 383.481 376.663Z"/><path fill="#010100" d="M739.993 524.367L740.682 525.196L740.338 526.067C739.205 526.584 738.486 526.759 737.711 527.704L739.246 528.219C738.4 529.981 733.555 533.391 731.779 534.499C730.332 535.128 730.985 535.17 729.731 534.88C730.724 531.52 734.537 531.78 735.079 530.781C736.792 527.62 737.01 527 739.993 524.367Z"/><path fill="#EBE8DC" d="M713.631 575.374C715.171 575.221 716.779 574.858 717.705 576.26C716.841 578.601 716.126 577.7 715.136 580.396L714.686 580.459C713.511 578.593 713.631 580.604 711.772 578.337C711.87 576.663 712.108 576.977 713.631 575.374Z"/><path fill="#EBE8DC" d="M627.097 607.539L627.889 606.943L627.837 605.618C628.979 604.516 629.761 604.948 631.921 604.92L633.6 605.82L632.227 606.407C632.22 607.596 632.143 607.192 632.579 608.258C630.806 608.809 629.151 609.35 627.415 608.748L627.097 607.539Z"/><path fill="#181714" d="M627.097 607.539C629.219 607.512 630.776 607.244 632.579 608.258C630.806 608.809 629.151 609.35 627.415 608.748L627.097 607.539Z"/><path fill="#010100" d="M528.902 316.333C532.974 315.631 539.731 317.289 543.505 319.127C541.566 319.595 535.768 317.871 532.121 317.792C530.339 317.467 530.354 317.561 528.902 316.333Z"/><path fill="#010100" d="M678.354 523.916C679.586 522.281 686.464 519.019 688.509 518.485L689.19 518.7C687.158 520.755 681.908 523.434 679.174 524.584L678.354 523.916Z"/><path fill="#010100" d="M751.561 511.229C752.979 511.869 753.353 511.932 754.518 512.983C754.3 514.713 753.461 514.943 751.877 516.536C751.221 516.953 751.083 516.81 750.15 516.875L749.599 515.712C749.902 513.315 750.059 513.229 751.561 511.229Z"/><path fill="#010100" d="M648.156 437.299L649.149 437.611L649.079 438.53C648.39 439.282 641.979 443.842 640.912 444.373C639.861 444.094 639.712 444.015 638.71 443.601C641.363 441.222 644.368 441.126 648.156 437.299Z"/><path fill="#010100" d="M705.435 506.71L705.688 506.846C705.151 507.744 699.443 511.513 697.835 512.782L697.195 511.872L697.408 510.777C699.636 507.934 702.063 507.502 705.435 506.71Z"/><path fill="#EBE8DC" d="M352.306 387.081L353.303 387.756C353.999 389.79 354.973 390.658 355.004 392.41L353.38 393.376C351.924 393.034 350.946 392.621 350.798 391.092C351.686 389.517 351.727 389.332 352.19 387.541L352.306 387.081Z"/><path fill="#EBE8DC" d="M527.495 316.835L527.806 317.17L528.902 316.333C530.354 317.561 530.339 317.467 532.121 317.792C531.826 318.562 531.597 319.028 531.241 319.769C527.879 321.212 527.168 320.571 526.39 317.356L527.495 316.835Z"/><path fill="#010100" d="M507.992 527.725C510.568 527.441 516.134 527.175 518.183 528.76L517.816 529.644C515.439 529.266 508.078 529.23 507.088 528.315L507.992 527.725Z"/><path fill="#010100" d="M609.914 359.794C607.656 357.263 605.159 354.736 603.542 351.78L603.633 351.429C606.613 353.002 609.436 356.437 610.625 359.499L609.914 359.794Z"/><path fill="#181714" d="M386.6 413.205L387.811 413.567C389.712 415.582 393.064 419.391 393.005 421.97C390.774 421.223 387.634 415.378 386.6 413.205Z"/><path fill="#010100" d="M348.741 436.003L350.35 436.7C352.139 438.932 355.436 442.834 356.124 445.407C353.726 443.45 349.32 439.027 348.741 436.003Z"/><path fill="#010100" d="M404.086 528.518C407.721 528.208 412.451 530.687 415.615 532.443C411.527 532.258 407.396 530.948 404.086 528.518Z"/><path fill="#EBE8DC" d="M322.154 357.758C323.504 357.697 323.647 357.529 324.759 358.201L324.83 359.245C323.691 361.18 323.51 361.402 321.74 362.782L321.093 362.933C320.85 360.863 321.337 359.599 322.154 357.758Z"/><path fill="#010100" d="M635.589 447.862L635.848 447.925C632.591 450.816 630.96 450.872 626.703 451.835L626.562 451.35C627.883 448.574 631.367 449.839 635.589 447.862Z"/><path fill="#EBE8DC" d="M673.782 362.69C676.416 364.141 676.877 364.984 676.311 367.8C675.297 367.292 674.292 366.763 673.299 366.216C672.741 364.506 673.025 364.838 673.782 362.69Z"/><path fill="#010100" d="M545.382 342.47C547.557 341.732 549.357 342.644 551.095 343.882L551.316 344.664C549.187 345.399 547.492 344.484 545.34 343.71L545.382 342.47Z"/><path fill="#9CA09C" d="M623.77 359.351L624.474 359.542C624.358 363.669 627.341 364.11 626.478 368.447C624.992 366.154 622.743 362.007 623.77 359.351Z"/><path fill="#181714" d="M349.254 503.065C351.796 503.689 356.711 506.326 358.789 507.988C356.235 508.033 350.402 505.417 349.254 503.065Z"/><path fill="#53524D" d="M545.34 343.71C541.495 342.988 538.458 343.188 534.394 342.332C537.36 341.733 542.384 341.96 545.382 342.47L545.34 343.71Z"/><path fill="#181714" d="M240.513 521.704L241.11 521.335C244.665 524.245 245.917 523.693 246.96 528.046C244.491 525.166 241.382 524.096 240.513 521.704Z"/><path fill="#010100" d="M401.985 431.793C399.68 431.549 397.297 428.332 397.153 426.109L397.584 426.474C399.31 427.918 399.857 428.292 401.82 429.36C402.194 430.585 402.152 430.511 401.985 431.793Z"/><path fill="#010100" d="M365.235 455.353C367.83 455.763 370.422 459.04 371.79 461.119C368.461 460.837 366.875 457.948 365.235 455.353Z"/><path fill="#010100" d="M619.025 456.331L620.233 456.559L620.466 457.181C619.365 458.594 617.327 459.519 615.713 460.429L614.753 460.367L614.492 459.806C615.517 458.385 617.502 457.316 619.025 456.331Z"/><path fill="#53524D" d="M370.5 596.076C374.195 596.701 380.556 598.675 383.814 600.434C380.872 600.141 372.796 597.98 370.5 596.076Z"/><path fill="#010100" d="M326.135 485.9C328.832 486.065 332.104 489.117 333.807 491.082C331.047 490.998 327.808 487.909 326.135 485.9Z"/><path fill="#181714" d="M704.154 361.247C704.783 360.957 705.522 361.054 706.054 361.496C706.587 361.937 706.819 362.646 706.65 363.317C706.481 363.988 705.942 364.503 705.264 364.641C704.37 364.822 703.482 364.304 703.198 363.437C702.915 362.57 703.326 361.629 704.154 361.247Z"/><path fill="white" d="M661.601 595.595C664.181 596.316 665.569 596.432 667.383 598.383C665.86 598.572 664.969 598.654 663.44 598.708C661.887 597.615 662.352 597.824 661.601 595.595Z"/><path fill="#343634" d="M635.925 383.257C637.755 383.914 638.287 385.392 639.611 387.256L640.709 387.291L641.198 388.288C639.979 389.318 640.651 389.063 639.171 389.212C637.647 388.155 636.811 385.219 635.925 383.257Z"/><path fill="#010100" d="M693.976 513.332L695.374 513.713L695.607 514.474C694.626 515.764 693.232 516.263 691.752 517.018C690.947 516.842 691.347 517.035 690.645 516.273C691.582 514.754 692.438 514.434 693.976 513.332Z"/><path fill="#181714" d="M552.964 344.45C556.561 344.636 558.242 346.266 561.036 348.466C558.962 347.892 555.516 346.862 553.516 346.202L552.964 344.45Z"/><path fill="#181714" d="M328.172 551.223C331.15 552.229 335.411 553.796 338.042 555.442C334.477 555.772 330.69 553.572 328.172 551.223Z"/><path fill="#EBE8DC" d="M454.533 322.889C455.357 322.375 456.413 322.445 457.472 322.356L456.795 322.217L457.722 322.823L457.769 322.612L458.099 323.147C457.551 323.968 457.368 324.371 457.001 325.27C456.86 325.494 456.991 325.338 456.392 325.786L456.047 324.806L456.631 324.853C455.686 323.829 456.251 324.229 454.723 323.935L454.533 322.889Z"/><path fill="#010100" d="M292.363 471.417C294.751 472.207 296.612 473.589 297.735 475.843C294.684 476.128 293.421 473.82 292.363 471.417Z"/><path fill="#010100" d="M283.085 456.289C286.611 457.341 286.76 458.244 287.481 461.607C284.819 460.489 284.261 458.861 283.085 456.289Z"/><path fill="#010100" d="M624.139 452.293C625.355 452.717 624.986 452.483 625.869 453.352C625.316 454.737 624.776 454.713 623.282 455.74C621.813 455.793 622.378 456.062 621.423 455.215C621.851 453.95 623.061 453.197 624.139 452.293Z"/><path fill="#010100" d="M648.94 596.671L649.421 596.979L649.329 597.889C647.03 598.723 646.666 598.821 645.086 600.658C644.454 599.433 644.598 599.888 644.363 598.503C645.627 597.128 646.86 597.201 648.94 596.671Z"/><path fill="#010100" d="M241.446 457.736C243.583 458.697 244.214 461.717 244.857 463.8C243.797 463.424 243.83 463.369 242.853 462.771C241.601 461.117 241.706 459.896 241.446 457.736Z"/><path fill="#010100" d="M636.844 599.721C638.641 599.474 640.766 598.902 642.141 599.731L641.635 600.924C639.733 601.583 638.482 601.818 636.746 600.757L636.844 599.721Z"/><path fill="#010100" d="M340.923 415.187L342.369 415.728C343.292 417.851 343.57 418.343 344.954 420.218L345.293 420.671C344.045 420.617 344.06 420.649 342.893 420.236C341.477 418.753 341.388 417.237 340.923 415.187Z"/><path fill="#010100" d="M651.905 599.032L651.625 598.296C653.075 597.025 654.464 596.628 656.253 595.904L657.009 597.326L656.757 597.873C655.111 598.648 653.699 598.747 651.905 599.032Z"/><path fill="#010100" d="M701.47 444.267C702.713 445.412 702.347 444.71 702.482 446.502C701.7 448.171 701.107 448.464 699.683 449.605L699.269 449.164C699.374 447.692 700.698 445.665 701.47 444.267Z"/><path fill="#181714" d="M554.945 306.648C557.329 306.34 561.473 307.424 563.238 309.048C559.957 309.653 557.983 308.01 554.945 306.648Z"/><path fill="#010100" d="M744.589 522.34C744.91 522.469 745.134 522.769 745.394 522.998C745.076 524.547 743.591 525.88 742.475 527.122C742.051 526.935 741.812 526.605 741.443 526.244C741.992 524.433 743.097 523.81 744.589 522.34Z"/><path fill="#010100" d="M628.476 600.391C630.395 600.538 630.54 600.645 632.308 601.223L632.571 601.979L631.544 602.671C630.037 602.562 628.974 602.461 627.484 602.247L627.29 601.64L628.476 600.391Z"/><path fill="#181714" d="M386.827 368.118C387.369 368.197 388.112 368.417 388.662 368.558C389.353 370.396 388.865 370.963 388.494 373.245C386.398 371.409 386.435 370.826 386.827 368.118Z"/><path fill="#343634" d="M722.624 417.331C723.097 419.239 721.539 423.273 719.548 423.965C719.055 423.402 719.342 423.777 718.8 422.764C720.737 420.691 721.387 419.877 722.624 417.331Z"/><path fill="#010100" d="M561.802 348.538C564.784 349.108 565.414 349.099 566.727 351.901C563.905 351.688 562.832 351.169 561.802 348.538Z"/><path fill="#010100" d="M294.588 525.908C296.931 527.167 299.078 528.04 300.734 530.063C297.223 529.912 296.001 528.947 294.588 525.908Z"/><path fill="#010100" d="M584.666 316.934C588.047 317.356 588.923 317.44 591.014 320.017C588.391 320.425 586.365 318.655 584.666 316.934Z"/><path fill="#010100" d="M592.111 341.95C595.54 341.952 596.463 342.2 597.601 345.445C594.977 344.855 594.062 343.77 592.111 341.95Z"/><path fill="#010100" d="M401.985 431.793C404.726 432.151 406.899 432.781 407.908 435.697C405.193 434.853 403.851 433.958 401.985 431.793Z"/><path fill="#181714" d="M539.614 527.754C541.63 527.601 543.731 527.269 545.654 527.78L545.343 528.494C543.543 528.832 540.663 529.548 539.174 528.712L539.614 527.754Z"/><path fill="#010100" d="M712.072 419.799L712.743 420.813C712.744 423.079 712.315 423.547 711.265 425.66C710.509 424.984 710.812 425.19 710.398 424.013C710.73 421.931 710.99 421.68 712.072 419.799Z"/><path fill="#181714" d="M420.852 385.334C422.392 386.511 420.903 386.455 422.961 386.936L423.05 386.688L423.92 386.94L424.462 389.253L423.296 389.688L421.867 388.868C420.575 386.717 420.7 387.591 420.852 385.334Z"/><path fill="#010100" d="M408.495 435.958C411.405 436.369 412.684 436.939 414.762 439.028C411.389 438.99 410.466 438.611 408.495 435.958Z"/><path fill="#010100" d="M415.462 439.324C419.486 439.542 418.573 438.571 422.269 441.46C419.836 442.181 417.4 440.63 415.462 439.324Z"/><path fill="#9CA09C" d="M275.001 435.613C275.801 435.902 276.234 436.161 276.99 436.55C278.04 438.181 277.632 440.274 277.53 442.301L276.804 441.719C276.35 438.793 276.283 438.257 275.001 435.613Z"/><path fill="#181714" d="M306.407 535.534C308.726 536.252 311.169 538.193 312.125 540.464L311.581 540.172C309.469 539.019 307.116 537.89 306.407 535.534Z"/><path fill="#010100" d="M716.922 492.73C717.998 492.977 717.511 492.728 718.364 493.514C717.617 494.897 716.113 495.638 714.707 496.598C714.262 496.799 714.579 496.69 713.706 496.684C714.222 495.211 715.77 493.898 716.922 492.73Z"/><path fill="#010100" d="M445.454 409.907C446.226 410.638 447.129 411.16 448.027 411.745L447.65 412.164L445.308 412.266L442.087 410.983C443.775 410.837 443.997 410.77 445.454 409.907Z"/><path fill="#010100" d="M587.844 337.838C589.236 338.564 590.344 338.887 590.975 340.255L590.363 341.111C589.263 340.788 588.217 340.42 587.135 340.048L586.8 339.239L587.844 337.838Z"/><path fill="#010100" d="M227.078 499.365C229.224 500.793 231.174 502.189 231.653 504.832C229.223 503.178 227.562 502.321 227.078 499.365Z"/><path fill="#010100" d="M631.921 604.92C633.228 604.03 634.331 604.016 635.902 603.769L637.281 604.234C636.657 605.806 635.157 605.657 633.6 605.82L631.921 604.92Z"/><path fill="#010100" d="M570.907 311.032C574.058 310.708 574.912 311.136 576.965 313.53C574.081 313.265 572.99 313 570.907 311.032Z"/><path fill="#010100" d="M547.595 305.189C550.312 305.129 551.984 304.727 553.721 306.943C551.568 306.855 549.954 306.919 547.88 306.267L547.595 305.189Z"/><path fill="#010100" d="M619.284 608.188C621.17 608.072 622.81 607.838 624.639 608.301L624.579 609.185C622.769 609.592 621.515 610.082 619.746 609.615L619.284 608.188Z"/><path fill="#010100" d="M381.887 398.729L382.918 399.396C383.867 401.591 384.334 402.437 385.615 404.46C384.543 404.405 384.825 404.402 383.775 404.005C382.322 402.369 382.299 400.912 381.887 398.729Z"/><path fill="#010100" d="M656.253 595.904C658.583 594.498 660.015 593.53 662.797 593.467C660.594 595.9 659.568 596.223 656.253 595.904Z"/><path fill="#181714" d="M744.211 479.764L745.661 480.906C745.82 482.354 745.47 482.236 744.377 483.813C743.583 483.965 744.037 483.955 743.021 483.676C742.712 482.24 743.519 481.164 744.211 479.764Z"/><path fill="#181714" d="M737.93 467.921L740.299 468.876C739.597 471.536 738.958 472.23 736.54 473.594L736.471 472.99C738.679 470.396 738.404 471.034 737.93 467.921Z"/><path fill="#010100" d="M244.477 452.331C247.442 453.295 247.663 453.142 248.305 456.196L246.593 455.805C245.081 454.605 245.079 454.145 244.477 452.331Z"/><path fill="#010100" d="M683.18 592.233C684.772 592.607 685.52 592.61 687.134 593.226L686.569 593.996C685.357 594.24 684.147 594.492 682.938 594.755L682.479 594.1L683.18 592.233Z"/><path fill="#181714" d="M390.076 377.281C390.516 377.654 391.104 382.054 391.572 383.461C390.059 382.636 390.169 382.693 389.261 381.213C389.049 379.308 389.315 379.006 390.076 377.281Z"/><path fill="#181714" d="M256.866 488.025C259.761 489.79 261.013 490.165 262.153 493.329L261.574 492.918C259.576 491.488 257.225 490.23 256.866 488.025Z"/><path fill="#B4AD9F" d="M610.625 359.499C612.075 361.461 613.562 363.157 614.328 365.443L614.244 365.553L614.122 364.882L613.385 364.902C612.132 363.59 610.898 361.385 609.914 359.794L610.625 359.499Z"/><path fill="#010100" d="M243.391 467.175L245.337 467.858C246.737 469.483 246.303 468.927 246.777 471.265L245.361 470.888C243.944 469.862 243.888 468.885 243.391 467.175Z"/><path fill="#181714" d="M483.777 345.204C485.843 344.817 487.721 344.14 489.504 344.815L489.526 344.991C486.134 346.501 487.341 345.873 484.086 345.676L483.777 345.204Z"/><path fill="#181714" d="M714.092 431.348L714.399 431.625C715.103 433.895 715.532 434.859 714.971 437.094C712.89 434.956 712.732 433.838 714.092 431.348Z"/><path fill="#343634" d="M274.094 500.792C273.544 500.54 277.411 503.366 277.766 503.581L277.787 504.878C276.362 503.956 274.979 503.514 273.48 502.716C273.484 501.572 273.505 501.945 274.094 500.792Z"/><path fill="#010100" d="M259.597 495.504C262.381 495.722 263.035 496.506 264.167 498.852C261.798 498.179 260.664 497.832 259.597 495.504Z"/><path fill="#010100" d="M340.639 406.847C341.966 407.889 342.594 411.545 343.05 413.331L341.665 412.63C340.653 410.791 340.772 408.992 340.639 406.847Z"/><path fill="#010100" d="M720.318 424.883C720.42 427.416 719.737 428.759 718.314 430.704C717.305 428.03 718.607 426.738 720.318 424.883Z"/><path fill="#010100" d="M340.761 398.725C342.657 400.509 342.727 401.558 341.837 403.779L340.856 403.514C340.222 402.035 340.601 400.397 340.761 398.725Z"/><path fill="#181714" d="M346.079 374.236L346.977 374.551C348.109 375.773 348.096 377.173 348.375 378.88L346.687 378.086C345.683 376.461 346.052 376.528 346.079 374.236Z"/><path fill="#010100" d="M324.32 589.075C327.716 589.03 328.512 589.245 330.996 591.425C328.126 591.099 326.635 590.736 324.32 589.075Z"/><path fill="#010100" d="M316.995 410.445C318.712 411.687 319.387 412.983 319.703 415.01L317.121 413.312C316.24 411.55 316.343 412.469 316.995 410.445Z"/><path fill="#010100" d="M710.247 372.106C710.758 372.269 711.462 372.624 711.973 372.856C712.421 374.273 712.007 374.298 711.223 376.1L710.337 376.251C709.633 374.687 710.039 374.123 710.247 372.106Z"/><path fill="#010100" d="M427.998 371.198C429.218 371.839 429.113 371.957 429.773 373.217C429.829 374.854 429.486 375.028 428.552 376.4C428.278 376.424 428.493 376.435 427.715 376.194C428.268 373.877 428.36 373.537 427.998 371.198Z"/><path fill="#010100" d="M237.95 451.392C239.196 451.538 239.688 451.771 240.87 452.179C242 453.575 241.668 452.781 241.747 454.7C240.205 453.608 239.868 453.446 237.994 452.993L237.95 451.392Z"/><path fill="#181714" d="M315.93 383.866C317.471 385.303 318.341 387.573 318.729 389.621C316.231 388.116 316.096 386.502 315.93 383.866Z"/><path fill="#010100" d="M774.414 547.478L774.755 548.144C774.155 549.834 773.322 550.369 772.005 551.589L771.251 550.304C771.9 548.563 772.409 548.752 774.414 547.478Z"/><path fill="#010100" d="M581.134 335.407C583.583 335.864 584.304 336.235 585.219 338.53C582.722 337.946 581.466 338.1 581.134 335.407Z"/><path fill="#181714" d="M306.127 570.342C308.619 570.702 309.593 572.271 311.441 574.152C308.37 573.563 307.851 572.954 306.127 570.342Z"/><path fill="#79766A" d="M574.481 606.978C576.386 606.566 580.248 606.29 582.367 606.085L581.357 607.166L574.496 607.608L574.481 606.978Z"/><path fill="#010100" d="M618.991 379.83L620.11 381.022C620.361 382.957 620.313 382.312 619.223 384.371L618.467 384.016C618.006 382.169 618.426 381.969 618.991 379.83Z"/><path fill="#010100" d="M565.02 308.539C567.114 308.564 567.318 308.51 568.657 309.619L568.756 310.856C567.068 310.598 566.148 310.646 564.873 309.53L565.02 308.539Z"/><path fill="#010100" d="M727.069 569.892C729.062 570.048 729.364 569.687 730.376 570.771L730.206 572.077C728.336 572.076 727.819 572.448 726.781 571.516L727.069 569.892Z"/><path fill="#010100" d="M297.916 476.337C299.5 477.332 300.425 479.205 301.123 480.874C298.447 479.513 297.776 479.417 297.916 476.337Z"/><path fill="#010100" d="M612.746 602.737C614.304 602.508 615.836 602.029 617.136 602.711L617.016 603.768C614.896 604.253 613.598 604.987 612.746 602.737Z"/><path fill="#181714" d="M256.453 535.41C257.875 536.774 259.516 539.385 260.323 541.187L258.871 540.652C257.412 539.181 257.105 537.437 256.453 535.41Z"/><path fill="#010100" d="M754.555 417.341L755.586 417.897C756.54 419.422 756.406 420.002 756.455 421.788C754.194 420.245 753.961 419.883 754.555 417.341Z"/><path fill="#010100" d="M341.477 393.287C343.212 394.93 342.918 396.116 341.75 397.982L341.016 397.724C340.685 396.082 341.127 395.038 341.477 393.287Z"/><path fill="#010100" d="M622.761 410.866L623.344 411.805C622.593 413.446 622.197 413.222 620.267 414.362L619.818 413.472C620.599 411.742 620.781 412.085 622.761 410.866Z"/><path fill="#181714" d="M597.79 346.378C600.873 347.367 601.479 347.545 602.77 350.585C600.55 349.749 599.39 348.129 597.79 346.378Z"/><path fill="#53524D" d="M290.303 569.61C292.478 570.15 293.576 570.583 295.175 572.053L295.225 573.253C293.994 572.198 291.452 571.013 289.935 570.227L290.303 569.61Z"/><path fill="#010100" d="M382.134 392.316C383.821 393.456 383.785 394.809 384.258 396.91L382.577 396.302C381.656 394.715 382.04 394.532 382.134 392.316Z"/><path fill="#010100" d="M260.906 542.4C263.013 542.821 263.868 543.268 265.092 544.928C264.148 544.962 263.43 544.902 262.48 544.854C260.957 543.718 261.551 544.447 260.906 542.4Z"/><path fill="#343634" d="M678.403 588.366L678.861 589.145C677.589 589.97 677.037 590.364 675.962 591.491L674.995 591.467L675.007 590.8C676.517 589.228 676.43 589.283 678.403 588.366Z"/><path fill="#181714" d="M300.85 525.308C303.682 525.938 304.305 527.239 306.135 529.509C303.693 529.072 302.491 527.181 300.85 525.308Z"/><path fill="#010100" d="M229.834 516.411C232.115 517.494 232.496 519.338 233.122 521.574C231.071 520.116 230.4 518.748 229.834 516.411Z"/><path fill="#010100" d="M432.903 602.183C435.293 601.917 436.647 601.667 438.677 603C435.884 603.763 435.299 603.87 432.903 602.183Z"/><path fill="#010100" d="M685.912 586.61L686.011 586.652L686.099 587.235C684.673 588.672 684.483 588.7 682.61 589.581L681.645 588.756C682.461 587.583 684.324 587.211 685.912 586.61Z"/><path fill="#181714" d="M610.97 329.014C612.613 330.203 614.548 331.359 615.611 333.03C613.409 332.484 610.978 331.531 610.97 329.014Z"/><path fill="#181714" d="M712.383 401.338L713.481 403.247C713.79 404.632 713.748 404.738 713.71 406.177L713.22 406.636C712.003 404.966 712.331 403.496 712.383 401.338Z"/><path fill="#181714" d="M245.326 443.836C246.649 445.291 247.391 447.032 248.059 448.846C247.646 448.842 247.031 448.701 246.6 448.625C245.513 447.163 245.558 445.69 245.326 443.836Z"/><path fill="#181714" d="M384.024 407.43C385.335 408.285 387.124 410.151 387.557 411.772C386.967 411.715 386.484 411.477 385.896 411.266C384.517 409.781 384.558 409.473 384.024 407.43Z"/><path fill="#010100" d="M718.864 500.964L719.316 502.022C719.05 503.923 718.966 503.468 717.401 505.195L716.79 504.319C716.898 502.744 717.603 502.48 718.864 500.964Z"/><path fill="#181714" d="M308.104 581.666C310.75 581.694 311.875 581.436 314.043 582.92C311.604 583.872 310.122 582.957 308.104 581.666Z"/><path fill="#181714" d="M349.033 367.306L349.649 367.809C350.336 369.63 350.23 369.902 350.079 371.785L348.853 371.36C348.132 369.66 348.564 369.549 349.033 367.306Z"/><path fill="#79766A" d="M332.865 591.563C334.474 591.445 337.911 592.347 339.643 592.726L339.889 593.562C338.917 593.789 334.197 592.248 332.865 591.563Z"/><path fill="#010100" d="M248.583 478.414L250.177 478.811C251.605 480.451 251.163 479.942 251.677 482.316C249.517 480.829 249.317 480.649 248.583 478.414Z"/><path fill="#010100" d="M246.444 472.898C248.259 474.179 248.295 475.234 248.276 477.255L246.88 476.272C246.049 474.481 246.294 475.079 246.444 472.898Z"/><path fill="#181714" d="M719.492 494.632L720.465 495.421C720.596 497.482 720.228 497.376 719.177 499.543L718.901 499.233C718.707 497.718 719.176 496.159 719.492 494.632Z"/><path fill="#181714" d="M250.869 486.251L252.212 486.903C253.307 488.769 253.274 488.918 253.558 491.117C251.818 489.749 251.777 488.546 250.869 486.251Z"/><path fill="#181714" d="M643.652 376.182C644.278 376.439 644.637 376.741 645.212 377.123C645.92 378.626 645.633 379.201 645.313 380.841L644.339 380.003C644.239 378.753 644.21 378.307 643.891 377.079L643.652 376.182Z"/><path fill="#010100" d="M261.259 548.359C264.183 548.746 264.451 549.326 265.927 551.69C263.611 551.185 262.92 550.06 261.259 548.359Z"/><path fill="#181714" d="M493.247 341.524L497.113 341.875L497.064 342.561C495.866 342.788 494.67 343.032 493.478 343.294L492.966 342.783L493.247 341.524Z"/><path fill="#010100" d="M273.15 401.865C273.737 402.391 273.68 402.504 274.08 403.247C274.092 405.225 273.979 405.2 273.102 406.893L272.487 407.104C272.756 405.364 272.978 403.617 273.15 401.865Z"/><path fill="#181714" d="M524.153 399.693C525.574 398.877 526.799 397.919 528.37 397.927C527.41 399.402 526.672 399.533 525.028 400.506L524.153 399.693Z"/><path fill="#010100" d="M612.354 414.449C614.23 414.468 614.551 414.151 615.898 414.993L615.29 416.168C613.551 416.123 612.842 416.441 611.761 415.588L612.354 414.449Z"/><path fill="#343634" d="M272.953 540.903C273.958 541.732 275.857 544.003 277.154 545.157C275.9 544.97 275.684 544.858 274.459 544.475C272.973 542.792 273.435 543.38 272.953 540.903Z"/><path fill="#343634" d="M606.592 608.174C607.503 607.968 607.035 607.951 607.992 608.292C606.466 609.45 605.582 609.529 603.743 610.003L602.79 609.737L602.824 609.244L606.592 608.174Z"/><path fill="#010100" d="M651.181 335.831C653.586 336.039 653.874 336.722 655.175 338.367C652.66 338.748 652.415 337.614 651.181 335.831Z"/><path fill="#010100" d="M772.183 552.704L773.474 553.312L773.744 554.137L772.825 555.334L770.955 555.084L770.733 554.449L772.183 552.704Z"/><path fill="#181714" d="M492.937 380.029C495.021 379.993 496.287 379.764 498.144 380.553C497.008 381.377 497.031 381.156 495.441 381.344L492.937 380.029Z"/><path fill="#010100" d="M592.752 320.915C595.481 321.165 595.712 321.286 597.786 323.005C594.965 323.151 594.614 322.871 592.752 320.915Z"/><path fill="#181714" d="M671.386 415.231L672.128 415.659C672.224 417.026 671.249 418.192 670.491 419.448L669.865 419.392C669.55 418.161 670.671 416.655 671.386 415.231Z"/><path fill="#010100" d="M248.233 482.371C250.275 483.591 250.303 484.041 251.006 486.21C248.62 485.148 248.45 484.984 248.233 482.371Z"/><path fill="#181714" d="M711.538 581.188L711.808 581.543C711.207 582.905 710.079 582.87 708.154 583.616C707.803 583.038 707.959 583.408 707.876 582.444C709.3 581.711 710.02 581.584 711.538 581.188Z"/><path fill="#010100" d="M376.787 338.142L377.718 338.519L377.851 339.348L376.145 341.148L375.069 340.66L375.027 339.843L376.787 338.142Z"/><path fill="#9CA09C" d="M712.383 401.338C712.412 400.052 712.655 399.094 712.908 397.845L713.637 397.842L713.481 403.247L712.383 401.338Z"/><path fill="#181714" d="M722.746 409.326C724.101 410.518 723.434 412.188 723.184 413.881L722.166 413.084C721.801 411.378 722.169 411.265 722.746 409.326Z"/><path fill="#181714" d="M759.152 506.824L759.439 507.673C759.142 509.343 758.121 510.247 757.013 511.587L756.831 511.069C756.954 509.433 758.138 508.221 759.152 506.824Z"/><path fill="#53524D" d="M431.418 554.172C432.872 554.514 434.995 554.821 436.074 555.633C434.5 555.561 432.888 555.52 431.326 555.337L431.418 554.172Z"/><path fill="#343634" d="M394.005 404.893L395.406 406.133C395.916 407.94 395.631 407.653 394.965 409.808L394.595 410.044C394.522 407.893 394.409 407.01 394.005 404.893Z"/><path fill="#181714" d="M672.025 590.93L672.61 591.517L672.421 592.314L670.259 593.298L669.074 592.756L669.266 592.166L672.025 590.93Z"/><path fill="#181714" d="M780.685 534.579C779.45 535.258 779.483 535.208 778.082 535.462L777.732 535.197C778.817 533.564 778.125 534.272 780.171 533.313L781.023 533.918L780.685 534.579Z"/><path fill="#79766A" d="M484.086 345.676C482.794 346.461 481.159 347.302 479.687 347.138C480.604 345.958 482.255 345.691 483.777 345.204L484.086 345.676Z"/><path fill="#181714" d="M311.175 385.315C312.135 387.645 311.726 387.601 310.585 389.5L309.949 388.848C309.72 387.502 310.481 386.581 311.175 385.315Z"/><path fill="#53524D" d="M678.354 523.916L679.174 524.584C678.197 525.38 676.543 526.327 675.231 526.315C675.869 524.945 676.735 524.853 678.354 523.916Z"/><path fill="#181714" d="M432.828 405.602L433.461 405.443C435.18 406.25 435.103 406.364 436.106 407.911C434.379 407.392 433.603 407.217 432.828 405.602Z"/><path fill="#181714" d="M339.336 586.612C340.367 587.009 341.141 587.179 342.201 587.455L342.055 588.168C341.647 588.7 341.938 588.426 341.037 588.803C339.557 587.868 340.209 588.476 339.336 586.612Z"/><path fill="#181714" d="M351.573 378.753C352.949 379.827 352.562 380.282 352.108 381.693L351.326 381.89C350.728 380.917 351.215 380.292 351.573 378.753Z"/><path fill="#343634" d="M611.522 570.735L611.823 571.197C610.725 572.148 608.935 572.082 607.373 572.246L607.022 571.812C608.174 571.02 610.055 570.946 611.522 570.735Z"/><path fill="#343634" d="M300.892 578.446C303.535 578.733 304.101 579.192 306.474 580.484C303.779 580.654 302.889 580.017 300.892 578.446Z"/><path fill="#181714" d="M388.501 386.414C390.068 387.73 390.002 388.803 390.137 390.678C388.27 389.62 388.466 388.301 388.501 386.414Z"/><path fill="#79766A" d="M294.805 575.68C296.372 575.469 297.097 575.256 298.652 575.633L298.742 576.599C297.716 577.002 295.809 576.089 294.805 575.68Z"/><path fill="#343634" d="M673.583 596.83L673.942 597.067C672.535 598.119 672.043 597.937 670.159 598.253L669.711 597.575C670.541 596.653 671.887 596.94 673.583 596.83Z"/><path fill="#343634" d="M313.1 417.885C314.634 419.088 314.759 420.79 315.106 422.647C313.177 421.33 313.408 420.12 313.1 417.885Z"/><path fill="#181714" d="M449.843 411.586C451.973 412.177 452.719 412.676 454.346 414.043C451.536 413.717 451.404 413.74 449.843 411.586Z"/><path fill="#343634" d="M714.481 378.317C716.022 379.349 715.826 380.532 716.129 382.241C714.301 381.095 714.658 380.253 714.481 378.317Z"/><path fill="#53524D" d="M533.595 580.264C532.081 580.545 531.9 580.703 530.402 580.277C531.243 579.302 531.953 579.476 533.552 579.135L533.595 580.264Z"/><path fill="#181714" d="M424.642 441.458L425.137 441.209C426.818 441.468 426.269 441.359 427.715 442.897L425.116 442.288L424.642 441.458Z"/><path fill="#010100" d="M347.436 384.764C348.538 386.675 348.408 385.708 348.011 387.737L347.321 387.906L346.911 387.31L347.436 384.764Z"/><path fill="#B4AD9F" d="M574.496 607.608C572.801 607.966 572.937 608.206 571.46 607.764C572.546 606.885 573.048 607.046 574.481 606.978L574.496 607.608Z"/><path fill="#F4CB96" d="M817.173 559.883C830.326 547.71 841.144 536.038 850.772 520.831C853.791 516.062 856.197 510.907 858.911 506.571C854.695 526.157 850.108 545.661 845.15 565.073C830.938 621.963 811.679 673.488 767.92 714.613C756.879 725.868 746.348 735.625 733.105 744.354C689.156 773.323 643.721 785.543 593.381 797.167C535.796 810.464 481.945 808.041 424.216 795.534C385.716 787.193 335.275 765.347 302.943 742.183C286.027 729.992 270.56 715.908 256.844 700.204C239.759 680.905 230.891 667.345 220.877 643.575C205.197 606.355 194.947 568.737 187.667 529.081C186.485 522.737 185.752 516.229 184.602 509.854C193.258 525.517 199.667 536.867 212.238 550.077C251.99 589.532 317.51 618.496 370.565 633.924C490.602 668.83 628.337 654.16 742.488 605.682C759.923 598.278 802.936 580.225 813.475 565.28C814.568 565.108 817.096 561.059 817.173 559.883Z"/><path fill="#010100" d="M205.806 581.749C206.129 581.887 206.452 582.025 206.775 582.163C209.15 586.801 212.754 591.181 216.236 594.966C229.09 608.937 243.587 621.474 259.173 632.326C272.927 641.903 286.778 651.752 302.116 658.673C308.277 661.453 314.376 664.217 320.57 666.915C339.227 675.156 358.407 682.156 377.986 687.87C454.051 709.513 538.332 710.272 616.228 699.176C618.619 698.835 622.763 697.913 624.674 699.386L624.405 700.675C608.888 703.941 589.301 705.472 573.505 706.855C523.624 711.222 472.465 709.467 423.001 700.981C382.882 694.148 343.884 681.865 307.092 664.471C299.172 660.815 289.04 656.551 281.608 651.983C261.039 639.339 240.891 623.867 223.654 606.965C219.494 602.886 204.957 586.615 205.806 581.749Z"/><path fill="#010100" d="M227.577 650.357C232.427 651.809 251.193 669.162 257.997 673.622C264.709 678.022 272.554 683.373 279.57 687.794C305.385 704.149 332.899 717.653 361.628 728.071C394.649 739.735 437.457 746.506 472.111 749.203C481.118 749.895 490.137 750.418 499.163 750.774C502.779 750.915 516.249 750.802 518.725 751.64L519.127 753.397C515.449 754.259 501.647 753.642 497.329 753.463C457.84 751.827 413.446 746.587 375.331 735.859C330.627 723.277 283.77 698.25 247.528 669.439C242.208 665.21 230.562 655.651 227.577 650.357Z"/><path fill="#010100" d="M812.536 644.847L813.217 645.163C813.012 646.442 811.611 647.791 810.73 648.769C788.107 673.669 758.888 694.272 728.158 708.014C674.785 731.881 615.021 748.926 556.577 752.427C555.836 752.081 556.18 752.354 555.663 751.477C556.787 750.346 577.613 748.476 580.577 748.084C613.391 743.835 645.679 736.21 676.927 725.329C709.607 714.199 749.507 695.833 776.787 675.018C784.476 669.03 792.011 662.847 799.385 656.475C803.782 652.633 807.986 648.469 812.536 644.847Z"/><path fill="#010100" d="M285.212 720.765C290.007 724.475 295.941 728.029 301.244 731.16C335.921 751.344 373.299 772.727 412.721 781.886C438.347 787.841 469.151 792.969 495.214 794.573C507.119 795.345 519.051 795.632 530.979 795.434C539.083 795.221 552.645 793.782 559.929 794.947L560.679 795.07C558.004 795.795 553.697 796.337 550.836 796.531C497.679 799.903 437.034 794.472 386.628 776.674C356.295 765.964 308.58 741.592 283.811 721.104L285.212 720.765Z"/><path fill="#010100" d="M834.314 587.325C835.406 587.391 834.992 587.322 836.021 587.86C835.901 588.904 836.04 588.89 835.384 589.626C829.383 596.36 821.455 603.202 814.812 609.131C804.365 618.457 793.131 627.938 781.638 635.808C749.665 657.704 697.349 685.1 659.121 692.034C658.498 692.002 657.869 691.798 657.24 691.644L656.951 690.924C658.779 688.889 671.058 686.745 674.816 685.681C692.857 680.627 710.36 673.82 727.076 665.358C755.64 650.582 784.488 631.886 808.377 610.367C816.936 602.657 825.207 594.394 834.314 587.325Z"/><path fill="#010100" d="M269.109 706.28C280.239 712.631 291.709 717.754 302.727 723.923C335.934 742.516 369.039 761.669 406.729 769.524C409.881 770.181 421.606 772.004 423.282 773.989L423.05 774.709C419.146 775.355 407.868 772.26 403.59 771.395C362.537 763.088 326.723 741.878 291.128 720.802C286.406 718.007 281.509 714.715 276.676 712.179C276.074 711.601 275.774 711.775 274.626 711.575C272.84 709.866 270.833 708.02 269.109 706.28Z"/><path fill="#010100" d="M742.389 729.071L742.568 729.167L742.366 729.856C739.092 733.105 723.708 741.707 719.28 744.316C680.195 767.342 636.157 784.796 590.666 789.562L590.165 788.689C590.494 787.766 590.479 787.551 591.687 787.376C600.428 786.105 609.029 784.256 617.661 782.45C652.679 775.123 684.835 759.371 716.373 743.015C725.096 738.491 733.553 733.385 742.389 729.071Z"/><path fill="#010100" d="M828.92 601.438C829.328 601.85 829.145 601.567 829.243 602.395C823.739 609.21 812.858 618.636 806.365 624.942C788.412 642.38 770.472 656.333 747.958 667.442C744.026 669.382 739.673 670.885 735.605 672.676C728.586 675.764 721.98 679.117 714.737 681.718L714.503 681.486C714.523 680.043 729.233 673.488 732.024 671.916C768.433 651.409 799.515 631.535 828.92 601.438Z"/><path fill="#A4896B" d="M785.461 640.099L785.492 640.683C776.858 648.234 749.243 665.803 738.743 670.515L738.275 670.024C741.074 667.954 748.424 664.128 751.778 662.098C763.536 654.981 774.612 648.584 785.461 640.099Z"/><path fill="#010100" d="M772.67 702.409L772.964 702.591L773.063 703.228C754.911 719.702 735.171 727.765 713.929 739.152C685.63 754.323 657.699 764.163 627.197 773.922L626.789 773.588L626.756 772.755C629.315 770.346 643.099 766.524 647.098 765.188C656.077 762.211 664.956 758.943 673.722 755.387C704.435 743.264 746.511 722.018 772.67 702.409Z"/><path fill="#010100" d="M322.352 623.11C324.408 623.56 326.826 624.667 328.848 625.411C354.813 634.958 381.508 643.501 408.988 647.284C416.708 648.347 424.614 648.677 432.285 650.117C433.974 650.434 434.036 650.753 434.816 652.08C430.035 652.364 418.417 650.877 413.434 650.307C386.466 647.223 360.078 639.769 334.7 630.312C332.155 629.363 323.486 626.551 322.081 624.765L322.352 623.11Z"/><path fill="#010100" d="M803.442 661.007L803.803 661.554C803.736 661.93 803.651 662.619 803.395 662.887C775.292 692.297 738.316 713.011 700.947 728.301C693.709 731.263 687.396 733.959 680.636 736.112L680.23 735.656C681.434 733.757 698.127 727.503 701.139 726.24C711.849 721.742 722.38 716.827 732.707 711.507C757.82 698.337 783.179 680.958 803.442 661.007Z"/><path fill="#010100" d="M830.871 578.977L830.729 580.058C828.236 583.704 824.072 587.993 821.007 591.251C802.118 611.33 779.367 626.505 755.483 639.974C746.77 644.887 736.108 651.208 726.63 654.492L726.395 652.753C727.425 651.462 739.008 646.258 741.318 644.93C755.467 636.792 771.564 628.489 784.906 619.299C795.772 611.787 805.987 603.374 815.443 594.149C819.981 589.765 825.945 583.169 830.465 579.317L830.871 578.977Z"/><path fill="#010100" d="M819.873 618.926L820.297 619.349L820.116 620.274C817.948 622.775 815.281 625.141 812.825 627.374C801.587 637.592 790.89 648.511 779.193 658.202C756.342 677.135 729.463 688.234 702.186 699.075L701.889 698.637C702.085 697.509 702.893 697.022 703.95 696.616C739.506 682.946 771.927 665.636 798.554 637.878C804.443 631.74 813.086 624.635 819.873 618.926Z"/><path fill="#010100" d="M814.807 633.945L815.2 634.484C810.736 640.096 803.128 647.329 797.86 652.069C768.475 678.155 734.029 697.904 696.671 710.084L696.341 709.46C697.433 707.602 702.562 706.479 704.936 705.515C717.883 700.252 731.716 693.943 744.123 687.486C772.374 672.783 791.689 654.987 814.807 633.945Z"/><path fill="#010100" d="M848.927 528.259L849.83 528.644L849.906 529.68C844.583 541.043 812.523 573.009 801.681 581.641C789.025 591.717 764.439 601.775 749.283 610.052L748.981 610.023L748.747 609.565C752.566 606.07 763.401 601.112 768.327 598.694C783.414 591.291 798.382 584.11 810.003 571.525C812.769 568.529 816.134 564.787 819.035 562.007C830.048 551.456 839.042 539.674 848.927 528.259Z"/><path fill="#010100" d="M203.835 564.906C205.232 565.731 211.489 573.273 213.186 575.063C239.363 602.664 270.571 625.266 304.311 642.714C304.591 643.181 304.871 643.648 305.151 644.115C301.705 645.307 288.81 636.622 285.332 634.589C261.027 620.381 238.367 603.417 218.818 583.1C214.06 578.155 206.81 570.956 203.835 564.906Z"/><path fill="#010100" d="M848.447 538.501L848.76 538.935C848.368 540.245 837.283 553.244 835.51 555.284C826.863 565.235 818.447 575.796 808.667 584.643C796.153 595.962 780.707 603.231 766.218 611.605C756.866 616.979 747.582 622.903 737.974 627.778L737.63 627.263C738.435 625.342 767.437 608.498 771.487 606.693C800.478 593.771 818.802 572.892 838.574 549.113C841.616 545.455 845.025 541.254 848.447 538.501Z"/><path fill="#010100" d="M791.914 679.039L792.229 679.287C789.969 682.459 783.775 688.112 780.564 690.721C751.731 714.144 705.852 738.51 670.187 748.402C669.937 748.222 669.845 747.889 669.692 747.622C670.976 746.254 681.249 743.318 684.115 742.269C692.617 739.121 700.982 735.615 709.187 731.761C741.745 716.384 764.445 702.565 791.914 679.039Z"/><path fill="#010100" d="M832.329 568.407C832.678 568.764 832.471 568.501 832.724 569.331C811.564 596.879 765.997 625.997 733.914 639.44L733.401 638.499C734.3 636.207 741.178 633.69 743.725 632.435C749.288 629.627 754.798 626.715 760.252 623.7C785.894 609.621 813.125 590.749 832.329 568.407Z"/><path fill="#010100" d="M220.934 623.929C222.084 625.07 226.901 631.263 228.747 633.271C236.527 641.731 244.016 648.21 253.258 655.006C265.659 663.978 278.558 672.241 291.892 679.756C297.091 682.7 319.64 694.471 321.831 698.114C319.406 697.933 312.064 693.467 309.369 692.004C287.305 680.022 265.638 667.02 245.723 651.693C240.286 647.509 221.711 630.594 220.934 623.929Z"/><path fill="#010100" d="M204.408 555.47C222.044 574.768 239.586 589.224 260.667 604.804C264.863 607.905 285.731 621.297 287.162 623.616C281.278 624.222 244.288 595.604 237.433 589.818C227.492 581.427 211.03 566.759 203.903 556.137L204.408 555.47Z"/><path fill="#010100" d="M198.674 538.842C201.075 540.261 206.963 549.18 209.838 552.207C213.947 556.534 217.769 560.814 222.241 564.962C235.311 577.208 249.274 588.465 264.013 598.642C267.665 601.195 281.227 609.147 282.934 611.556C280.998 611.537 280.417 611.271 278.633 610.365C259.41 600.596 204.971 557.895 198.674 538.842Z"/><path fill="#010100" d="M270.341 698.859C274.283 699.984 284.714 708.034 289.357 710.431C310.993 721.6 331.874 734.222 354.516 743.319C359.902 745.483 381.209 751.871 383.493 755.447C380.773 755.13 371.329 751.541 368.744 750.503C361.135 747.447 346.212 742.355 339.278 738.71C324.144 730.753 280.905 710.106 270.341 698.859Z"/><path fill="#010100" d="M213.982 585.889C215.57 586.88 221.037 592.83 222.757 594.601C233.615 605.78 245.837 615.31 258.396 624.507C263.128 627.991 267.988 631.298 272.965 634.422C277.307 637.145 291.97 645.19 294.647 648.56C293.697 648.51 292.441 648.279 291.591 647.803C266.503 633.749 241.99 616.787 221.984 596.006C219.202 593.116 215.259 589.514 213.982 585.889Z"/><path fill="#010100" d="M238.863 651.305C249.69 663.259 271.844 676.863 285.793 685.742C294.97 691.583 317.496 701.253 323.932 708.418C317.073 705.482 309.686 700.871 302.957 697.297C280.36 685.294 256.401 670.458 238.375 652.121L238.863 651.305Z"/><path fill="#010100" d="M254.114 683.412C255.026 683.611 275.127 696.585 278.201 698.224C292.835 706.026 307.631 713.625 322.339 721.308C325.441 722.928 336.942 728.567 339.044 730.47C338.844 730.519 338.647 730.584 338.443 730.616C334.542 731.23 280.889 701.622 273.445 697.035C266.678 692.864 260.241 688.507 254.114 683.412Z"/><path fill="#010100" d="M217.522 607.47C219.714 609.43 223.371 614.209 225.566 616.574C239.794 631.901 256.13 644.223 274.139 654.777C278.319 657.226 285.142 661.072 288.828 664.085C274.59 662.272 222.937 621.716 217.522 607.47Z"/><path fill="#010100" d="M250.223 647.904C250.408 647.941 250.593 647.979 250.777 648.016C258.227 653.82 307.565 678.298 310.787 683.424C310.574 683.449 310.362 683.493 310.147 683.501C306.096 683.634 255.194 652.672 250.223 647.904Z"/><path fill="#010100" d="M567.244 712.297C570.926 711.934 571.961 711.565 575.339 712.868L575.084 713.432C560.242 716.165 547.793 715.87 532.9 715.38C530.401 715.174 527.17 715.208 525.305 713.582L525.623 713.034C527.585 712.57 531.219 712.832 533.317 712.932C544.768 713.476 555.827 713.217 567.244 712.297Z"/><path fill="#68523B" d="M238.375 652.121C235.269 649.739 226.884 640.003 225.176 636.497L225.748 637.412L225.885 637.029C229.382 640.398 235.122 647.33 238.863 651.305L238.375 652.121Z"/><path fill="#181714" d="M274.626 711.575C275.774 711.775 276.074 711.601 276.676 712.179C277.193 714.573 283.228 719.141 285.212 720.765L283.811 721.104C280.406 718.166 277.049 715.398 274.626 711.575Z"/><path fill="#68523B" d="M203.903 556.137C202.043 554.113 201.05 552.834 199.435 550.66L199.593 549.842L199.17 550.205L199.379 549.677L199.068 549.996L199.089 549.511C201.198 551.056 202.77 553.376 204.408 555.47L203.903 556.137Z"/><path fill="#68523B" d="M750.434 722.866L750.842 723.246L750.7 723.972L744.534 727.979L744.26 727.509C746.171 725.608 748.205 724.375 750.434 722.866Z"/><path fill="#F4CB96" d="M652.948 320.3C684.658 326.234 727.934 342.029 756.825 356.818C798.145 377.971 843.525 408.069 858.384 454.455C864.197 472.888 863.633 490.516 854.637 507.597C835.903 543.165 808.38 564.786 774.46 584.527C745.79 601.214 721.23 612.999 688.932 622.92C589.016 653.61 479.691 659.983 378.198 632.897C348.686 624.906 310.004 609.388 283.258 595.506C247.687 577.027 218.671 556.811 196.506 522.725C177.165 492.983 175.486 455.916 191.448 424.106C198.824 409.404 215.336 390.053 228.673 379.48C254.425 359.063 286.212 343.999 317.05 332.984C332.855 327.546 351.736 323.524 368.013 318.622L369.058 319.87C358.268 323.773 350.206 327.838 339.948 332.363C330.048 336.729 317.661 339.256 307.714 344.306C280.417 356.805 250.703 372.419 230.03 394.556C222.299 402.835 211.754 422.449 207.043 432.368C198.169 450.747 195.007 470.616 199.836 490.591C201.189 496.19 201.899 502.239 204.178 507.647C225.701 558.724 285.818 583.33 334.184 598.385C417.027 623.508 503.996 632.122 590.157 623.74C611.98 621.809 633.371 619.106 654.805 614.542C657.179 614.004 660.177 613.878 662.473 613.175C728.089 593.096 807.873 564.734 839.174 498.13C851.495 471.912 842.759 443.808 824.231 422.993C820.122 422.307 823.197 421.011 818.588 420.644L816.117 418.362L815.562 418.561C815.343 419.926 815.249 420.649 815.162 422.064C814.872 420.465 814.201 413.493 814.668 411.932C811.384 407.834 806.546 403.548 802.668 399.922C773.791 372.921 736.543 358.949 700.154 345.35C697.395 344.05 694.452 342.7 691.839 341.122C679.159 333.467 666.12 327.023 652.948 320.3Z"/><path fill="#181714" d="M814.668 411.932C818.453 415.705 821.382 418.465 824.231 422.993C820.122 422.307 823.197 421.011 818.588 420.644L816.117 418.362L815.562 418.561C815.343 419.926 815.249 420.649 815.162 422.064C814.872 420.465 814.201 413.493 814.668 411.932Z"/><path fill="#010100" d="M393.332 616.365C400.669 615.865 408.258 617.979 415.585 619.364C422.855 620.744 430.154 621.97 437.476 623.042C456.187 625.737 474.598 627.164 493.418 628.613L492.959 629.352C490.227 629.586 487.604 629.359 485.238 629.575C457.65 629.714 419.898 622.987 393.332 616.365Z"/><path fill="#010100" d="M613.049 623.436L612.998 624.452C595.612 628.49 554.343 632.368 537.701 628.148C558.882 628.056 592.027 626.696 613.049 623.436Z"/><path fill="#68523B" d="M493.418 628.613C497.251 628.634 501.011 629.023 504.827 629.361L504.828 629.419L503.893 629.355C501.777 630.367 488.12 630.03 485.238 629.575C487.604 629.359 490.227 629.586 492.959 629.352L493.418 628.613Z"/><path fill="#68523B" d="M613.049 623.436C616.23 622.884 618.364 622.523 621.598 622.298C618.999 622.97 615.575 623.945 612.998 624.452L613.049 623.436Z"/><path fill="#F4CB96" d="M734.811 362.468C752.47 369.748 773.775 379.09 787.92 392.156C788.136 396.544 788.153 419.487 789.014 420.679C790.948 415.084 791.195 400.313 791.05 394.199C794.238 396.719 797.289 399.032 800.176 401.909C800.686 413.892 799.59 431.189 800.718 442.094C802.837 430.671 802.076 415.948 801.918 404.027C802.348 404.794 803.901 407.59 804.014 408.308C806.326 423.074 802.456 441.588 802.476 455.999L800.909 456.504C795.549 437.532 781.3 414.824 765.851 401.873C764.47 400.716 760.734 399.829 758.844 399.36C753.787 392.472 748.319 385.818 741.496 380.605L740.171 379.49C732.702 374.907 734.209 370.3 734.811 362.468Z"/><path fill="#181714" d="M740.171 379.49C740.197 377.335 740.015 374.387 740.807 372.493C741.842 374.543 741.539 378.173 741.496 380.605L740.171 379.49Z"/><path fill="#E8B983" d="M802.476 455.999C805.655 446.002 808.823 414.343 804.129 405.38C806.48 407.959 809.272 410.566 811.796 413.016C815.124 429.936 813.889 446.579 812.32 463.575C812.061 466.384 811.622 470.412 812.4 473.127L813.104 473.269C814.363 470.944 815.45 451.816 815.92 447.765C816.779 440.351 816.256 429.349 815.162 422.064C815.249 420.649 815.343 419.926 815.562 418.561L816.117 418.362L818.588 420.644C824.562 430.66 817.698 465.238 817.451 476.786C816.972 480.051 816.98 481.482 816.996 484.756L817.96 484.906L819.176 485.695C818.44 490.414 816.939 498.286 818.248 502.694C821.491 480.571 827.638 460.481 830.814 437.831C844.236 459.457 834.154 493.415 820.544 512.529C827.805 492.5 831.168 477.814 834.115 456.552L833.676 449.371C831.219 470.65 824.904 494.046 817.583 514.204C817.868 510.564 817.877 508.461 817.752 504.803C816.043 497.251 816.032 494.351 813.281 486.287C811.397 479.013 807.575 469.629 802.435 464.086C802.019 461.008 801.674 459.472 800.909 456.504L802.476 455.999Z"/><path fill="#A4896B" d="M833.676 449.371L833.676 448.045C834.514 448.991 834.596 452.128 834.521 453.449C834.464 454.492 834.329 455.529 834.115 456.552L833.676 449.371Z"/><path fill="#010100" d="M805.889 459.829C806.409 455.006 807.449 440.093 808.343 436.515L808.665 436.377C810.11 442.083 808.104 458.878 806.446 464.801C806.397 465.562 806.203 465.866 805.941 466.616L805.704 466.321C805.455 463.377 805.455 462.744 805.889 459.829Z"/><path fill="#4A2F1F" d="M805.889 459.829C806.035 461.443 806.138 463.233 806.446 464.801C806.397 465.562 806.203 465.866 805.941 466.616L805.704 466.321C805.455 463.377 805.455 462.744 805.889 459.829Z"/><path fill="#F4CB96" d="M248.27 381.91C252.511 378.521 260.045 372.424 264.413 369.985C275.278 363.921 302.502 349.802 314.852 351.499L315.109 351.896C310.972 354.95 299.891 359.223 294.867 361.834C291.921 363.365 289.1 363.706 285.789 366.094L285.813 366.641L287.87 366.634C284.074 369.993 277.181 374.319 272.868 377.556C265.387 383.169 261.289 388.32 255.524 395.481C255.272 390.307 254.525 389.124 258.832 385.676L259.204 384.082L258.82 382.836L257.284 383.206C256.243 381.198 256.761 380.93 257.992 379.399L258.018 378.544C256.033 379.036 256.769 378.509 255.619 380.006C255.246 381.847 255.239 381.712 255.811 383.5L256.683 384.207L257.863 384.03C257.653 385.83 253.587 387.795 253.453 389.074C253.13 392.166 255.38 395.477 252.963 398.842C249.666 405.687 250.016 407.608 242.762 404.51L242.472 403.492C241.233 402.572 241.217 402.199 240.373 400.828L240.929 400.344C239.606 397.144 242.536 399.149 242.734 395.096C241.478 394.043 240.552 392.391 239.639 390.983L238.095 390.384C239.887 388.398 241.252 386.268 243.804 386.041L244.723 387.644C245.21 384.165 245.434 384.223 248.27 381.91Z"/><path fill="#E8B983" d="M244.723 387.644C245.21 384.165 245.434 384.223 248.27 381.91C249.379 384.111 249.949 384.295 249.742 386.317C249.462 386.627 248.641 387.466 248.485 387.785C246.636 390.466 246.467 391.823 247.732 394.881L246.841 395.294C246.234 397.584 246.194 396.506 246.758 398.65L247.44 399.193C247.813 398.16 248.21 397.135 248.617 396.111C249.687 395.699 249.188 395.754 250.09 395.797L250.977 397.908L252.963 398.842C249.666 405.687 250.016 407.608 242.762 404.51L242.472 403.492C241.233 402.572 241.217 402.199 240.373 400.828L240.929 400.344C239.606 397.144 242.536 399.149 242.734 395.096C241.478 394.043 240.552 392.391 239.639 390.983L238.095 390.384C239.887 388.398 241.252 386.268 243.804 386.041L244.723 387.644Z"/><path fill="#E8B983" d="M242.734 395.096L244.083 394.464C244.517 396.998 244.768 401.715 247.214 402.948C249.146 402.281 250.318 399.777 250.977 397.908L252.963 398.842C249.666 405.687 250.016 407.608 242.762 404.51L242.472 403.492C241.233 402.572 241.217 402.199 240.373 400.828L240.929 400.344C239.606 397.144 242.536 399.149 242.734 395.096Z"/><path fill="#181714" d="M240.929 400.344C242.429 401.671 242.662 401.414 242.472 403.492C241.233 402.572 241.217 402.199 240.373 400.828L240.929 400.344Z"/><path fill="#F4CB96" d="M238.095 390.384C239.887 388.398 241.252 386.268 243.804 386.041L244.723 387.644L243.919 390.404C243.472 392.21 243.698 392.673 244.083 394.464L242.734 395.096C241.478 394.043 240.552 392.391 239.639 390.983L238.095 390.384Z"/><path fill="#010100" d="M243.919 390.404C247.247 393.703 244.305 400.385 247.206 400.392C249.398 398.529 248.848 397.87 250.09 395.797L250.977 397.908C250.318 399.777 249.146 402.281 247.214 402.948C244.768 401.715 244.517 396.998 244.083 394.464C243.698 392.673 243.472 392.21 243.919 390.404Z"/><path fill="#010100" d="M259.964 378.584C260.406 377.26 260.756 375.932 261.486 374.755L262.155 374.844C262.752 376.368 262.901 376.901 263.285 378.434C265.485 377.708 265.889 376.897 267.394 377.426C267.656 378.925 267.721 378.164 266.71 379.71C263.188 381.272 264.322 376.919 259.592 381.462L259.964 378.584Z"/><path fill="#010100" d="M247.732 394.881C246.467 391.823 246.636 390.466 248.485 387.785C249.542 389.45 249.898 389.741 249.877 391.734C249.137 393.595 249.191 393.502 247.732 394.881Z"/><path fill="#E8B983" d="M258.018 378.544L259.964 378.584L259.592 381.462C259.611 383.15 259.769 382.581 259.204 384.082L258.82 382.836L257.284 383.206C256.243 381.198 256.761 380.93 257.992 379.399L258.018 378.544Z"/><path fill="#F4CB96" d="M199.794 476.08C197.827 452.318 214.265 420.389 228.223 401.635C228.073 403.866 228.077 406.259 228.039 408.508C215.964 427.508 200.678 450.911 201.173 474.384L199.794 476.08Z"/><path fill="#E8B983" d="M840.177 459.385C841.057 460.373 840.934 460.506 841.146 462.101C844.593 488.002 831.435 507.074 817.109 526.649C816.901 526.614 816.693 526.578 816.485 526.543C818.182 510.849 823.67 515.1 828.606 505.334C835.506 491.685 839.291 474.483 840.177 459.385Z"/><path fill="#E8B983" d="M822.887 426.521C824.968 428.965 827.286 431.501 828.974 434.211C827.658 447.292 825.49 458.684 822.562 471.542C821.575 475.877 819.957 481.51 819.176 485.695L817.96 484.906L818.345 482.388C821.933 462.695 823.484 446.659 822.887 426.521Z"/><path fill="#E8B983" d="M203.705 481.621C204.426 477.048 205.855 467.568 207.082 463.633C210.369 453.095 221.212 429.908 229.6 423.757C219.073 448.429 209.051 454.436 204.648 483.508L203.705 481.621Z"/><path fill="#F4CB96" d="M227.757 413.361C229.469 421.969 221.927 428.401 217.886 435.106C210.433 447.469 206.065 459.588 202.583 473.489C201.804 470.792 203.03 465.826 203.7 463.048C208.06 444.95 217.867 428.92 227.757 413.361Z"/><path fill="#F4CB96" d="M240.373 400.828C241.217 402.199 241.233 402.572 242.472 403.492L242.762 404.51C241.897 406.211 241.041 407.824 240.318 409.595C239.868 410.87 240.192 410.718 239.386 411.321C237.284 414.657 234.34 417.739 231.692 420.699C231.701 418.311 231.499 415.075 232.352 412.923L232.316 412.641C230.339 409.842 234.166 405.171 235.839 403.117C237.853 401.583 237.98 401.369 240.373 400.828Z"/><path fill="#F4CB96" d="M232.352 412.923C236.051 413.876 236.141 413.404 239.386 411.321C237.284 414.657 234.34 417.739 231.692 420.699C231.701 418.311 231.499 415.075 232.352 412.923Z"/><path fill="#E8B983" d="M240.373 400.828C241.217 402.199 241.233 402.572 242.472 403.492L242.762 404.51C241.897 406.211 241.041 407.824 240.318 409.595C240.006 408.182 239.957 405.994 239.902 404.512L239.409 404.73L235.839 403.117C237.853 401.583 237.98 401.369 240.373 400.828Z"/><path fill="#181714" d="M239.409 404.73L239.902 404.512C239.957 405.994 240.006 408.182 240.318 409.595C239.868 410.87 240.192 410.718 239.386 411.321C236.141 413.404 236.051 413.876 232.352 412.923L232.316 412.641C237.888 411.987 238.86 410.028 239.409 404.73Z"/><path fill="#E8B983" d="M216.511 451.116C214.388 461.054 212.262 466.189 210.041 474.922C207.881 483.485 206.475 492.221 205.841 501.03C206.094 502.157 206.08 502.258 206.168 503.409L205.755 503.105C205.02 500.556 204.403 497.217 205.387 494.659C205.877 485.368 208.439 475.974 210.42 466.881C211.551 461.691 214.51 456.103 216.511 451.116Z"/><path fill="#A4896B" d="M205.387 494.659C206.025 497.357 205.195 498.406 205.841 501.03C206.094 502.157 206.08 502.258 206.168 503.409L205.755 503.105C205.02 500.556 204.403 497.217 205.387 494.659Z"/><path fill="#A4896B" d="M817.173 559.883C817.096 561.059 814.568 565.108 813.475 565.28C809.63 567.286 805.794 571.028 802.233 573.325C794.53 578.294 783.825 585.551 775.497 588.939C776.689 587.741 785.262 582.926 787.255 581.812C798.37 575.598 807.144 567.363 817.173 559.883Z"/><path fill="#F4CB96" d="M320.805 344.59C322.185 344.424 322.311 344.327 323.65 344.586C321.004 348.661 312.069 348.865 307.609 349.447L305.429 349.768L305.262 349.531L306.068 349.531L306.003 349.031C310.348 347.169 316.193 345.603 320.805 344.59Z"/><path fill="#F4CB96" d="M209.033 493.731C209.019 501.988 210.423 509.869 211.997 517.943C205.985 508.047 208.523 505.453 207.93 496.35L209.033 493.731Z"/><path fill="#C79266" d="M368.013 318.622C375.806 316.757 384.831 314.31 392.735 313.49C384.032 316.578 377.41 317.45 369.058 319.87L368.013 318.622Z"/><path fill="#EBE8DC" d="M681.659 339.409C680.109 340.401 680.084 340.842 678.774 340.576C676.885 338.925 669.821 332.925 668.944 330.955C672.863 333.917 678.413 336.019 681.701 338.901L681.659 339.409Z"/><path fill="#E8B983" d="M725.364 365.326C723.764 362.528 721.865 359.51 720.889 356.487C724.117 358.519 726.58 359.787 727.563 363.773C727.868 365.004 728.096 366.252 728.245 367.512L726.723 368.229C726.348 366.866 726.359 366.293 725.364 365.326Z"/><path fill="#F4CB96" d="M727.469 359.707C728.934 360.148 731.044 361.102 732.508 361.707L731.525 371.826L731.304 372.132C730.215 371.538 730.191 366.729 729.702 365.096C728.987 362.706 728.744 361.894 727.469 359.707Z"/><path fill="#F4CB96" d="M234.397 393.57C236.211 394.632 235.814 393.919 236.265 395.442C236.977 397.235 237.485 397.552 237.119 399.067C235.924 399.369 236.006 399.353 234.787 399.144L231.879 397.782L231.673 396.718C232.077 395.07 233.022 394.627 234.397 393.57Z"/><path fill="#F4CB96" d="M203.705 481.621L204.648 483.508C204 488.262 203.604 493.028 203.168 497.806C201.631 490.259 201.785 488.874 203.705 481.621Z"/><path fill="#EBE8DC" d="M730.054 374.77C732.561 377.604 736.198 380.455 739.162 382.929L737.964 383.424C732.781 382.806 732.147 379.195 730.054 374.77Z"/><path fill="#EBE8DC" d="M308.311 358.964L308.72 359.39C306.293 362.747 304.907 365.278 300.788 365.758L300.193 364.72C300.938 363.363 306.617 360.05 308.311 358.964Z"/><path fill="#E8B983" d="M231.879 397.782L234.787 399.144C234.76 402.201 233.211 403.78 231.463 406.241L231.879 397.782Z"/><path fill="#E8B983" d="M201.173 474.384C202.918 477.891 201.507 480.314 200.338 484.438L199.794 476.08L201.173 474.384Z"/><path fill="#E8B983" d="M238.095 390.384L239.639 390.983C237.753 392.824 237.493 393.119 236.265 395.442C235.814 393.919 236.211 394.632 234.397 393.57C235.058 393.123 237.362 391.021 238.095 390.384Z"/><path fill="#79766A" d="M328.906 338.532L329.939 338.606L329.748 339.117C326.675 340.49 324.84 340.995 321.614 341.928C320.996 342.013 321.402 341.99 320.399 341.821C322.607 340.545 326.395 339.401 328.906 338.532Z"/><path fill="#79766A" d="M726.723 368.229C723.175 365.45 722.036 363.688 719.95 359.925C721.951 362.124 723.102 363.361 725.364 365.326C726.359 366.293 726.348 366.866 726.723 368.229Z"/><path fill="#E8B983" d="M728.245 367.512C728.641 370.14 728.906 371.718 729.587 374.324C728.361 372.145 727.357 370.657 726.723 368.229L728.245 367.512Z"/><path fill="#68523B" d="M207.93 496.35C207.862 493.972 208.147 491.342 209.3 489.24C209.721 491.329 209.454 491.683 209.033 493.731L207.93 496.35Z"/><path fill="#F4CB96" d="M373.638 321.654C376.074 321.089 378.607 320.46 381.046 319.952C379.101 320.903 376.84 321.937 374.959 322.948L373.638 321.654Z"/><path fill="#B4AD9F" d="M714.172 354.089C716.653 354.743 717.472 355.247 719.759 356.471C716.784 356.464 716.197 356.288 714.172 354.089Z"/></svg>