<svg xmlns="http://www.w3.org/2000/svg" height="1024" preserveAspectRatio="none" style="display: block;" version="1.1" viewBox="0 0 2048 2048" width="1024">
<path d="M 0 0 L 2048 0 L 2048 2048 L 0 2048 L 0 0 z" fill="rgb(248,240,225)" transform="translate(0,0)"></path>
<path d="M 1686.78 75.1673 C 1716.37 74.2507 1747.04 74.6622 1776.74 74.443 L 1996.04 73.841 L 1995.87 183.406 C 1995.86 189.459 1995.49 223.165 1996.46 227.468 C 1996.33 230.616 1996.98 231.768 1994.32 233.619 C 1986.24 239.239 1976.76 244.636 1968.33 249.58 L 1906.48 285.397 L 1834.79 327.141 C 1819.21 336.283 1804.11 345.33 1787.96 353.464 C 1763.46 365.797 1746.57 352.831 1732.27 333.094 L 1730.52 332.066 C 1724.89 334.084 1700.28 348.968 1693.99 352.625 C 1667.66 367.999 1641.24 383.199 1614.71 398.224 C 1617.11 422.315 1615.38 460.28 1606.04 482.778 C 1594.17 490.966 1553.49 513.837 1540.01 520.858 C 1539.2 547.801 1540.88 567.401 1513.25 581.481 C 1504.94 607.322 1488.83 607.777 1472.39 620.337 C 1450.81 636.831 1458.87 640.558 1428.36 644.175 C 1414.36 662.244 1383.16 671.228 1363.84 656.071 C 1361.66 654.362 1359.06 651.426 1357.18 649.385 C 1324.63 671.483 1297.28 688.695 1262.6 707.724 C 1264.15 724.313 1267.03 750.991 1265.56 767.48 C 1240.13 786.705 1205.35 806.876 1178.56 824.903 C 1153.91 841.492 1129.35 858.631 1104.59 874.973 L 1039.98 918.397 C 1027.05 927.036 1012.94 935.701 1000.52 944.861 C 1037.6 942.623 1073.18 944.914 1109.99 949.417 C 1115.99 950.151 1122.4 951.02 1128.4 951.453 C 1135.32 945.902 1179.72 928.084 1190.26 923.587 L 1322.81 866.896 L 1621.15 736.013 C 1670.12 714.392 1719.83 694.02 1768.46 671.683 C 1784.06 664.517 1912.37 605.31 1917.17 605.646 C 1917.5 605.669 1917.83 605.781 1918.16 605.848 C 1916.53 609.815 1910.83 614.059 1907.2 615.676 C 1888.62 623.945 1869.7 632.444 1851.21 640.842 C 1807.05 661.382 1762.55 681.178 1717.72 700.22 L 1537.46 779.854 C 1477.4 805.998 1412.83 832.723 1353.66 860.427 C 1499.81 897.318 1628.7 953.402 1747.64 1047.43 C 1813.96 1099.86 1872.31 1162.03 1915.73 1234.82 C 1939.83 1275.22 1994.87 1388.23 1983.33 1432.78 C 1980.56 1443.51 1973.61 1452.17 1964.01 1457.64 C 1948.49 1466.5 1930.75 1473.15 1914.44 1480.56 L 1816.21 1524.99 L 1502.1 1666.35 L 1081.67 1856.5 L 937.943 1921.08 C 910.953 1933.13 883.983 1945.94 856.286 1956.18 C 816.183 1971.01 784.514 1951.48 749.114 1937.89 C 740.004 1944.63 719.621 1950.24 708.715 1947.07 L 708.704 1946 C 714.066 1942.99 735.138 1938.82 744.789 1935.19 C 733.861 1929.09 721.62 1921.88 710.572 1916.31 C 699.208 1921.76 669.417 1931.08 657.282 1927.59 C 660.663 1923.44 695.447 1917.49 706.002 1913.63 C 694.74 1906.27 682.545 1897.75 671.252 1890.83 C 660.691 1895.9 625.143 1905.86 613.428 1903.32 C 615.597 1899.25 657.49 1890.12 665.66 1887.24 C 653.036 1878.01 640.22 1869.05 627.221 1860.37 C 619.221 1864.63 584.876 1875.13 575.632 1876.1 L 573.645 1875.09 L 573.442 1873.2 C 577.672 1868.55 611.645 1861.14 621.989 1857.59 C 608.99 1847.8 595.878 1838.15 582.658 1828.65 C 573.049 1831.32 534.561 1839.58 525.816 1839.02 L 524.304 1837.66 C 527.822 1831.4 566.628 1827.15 576.836 1824.13 C 566.483 1815.96 546.566 1801.76 537.664 1793.81 C 530.059 1797.44 495.931 1803.79 488.941 1801.92 L 488.387 1800.2 C 490.375 1797.41 491.044 1797.98 495.518 1797.2 C 508.213 1795 520.711 1793.37 533.298 1790.47 C 521.148 1779.15 505.061 1764.17 492.064 1754.04 C 484.305 1757.66 451.289 1765.78 445.38 1762.79 L 445.38 1761.36 C 452.346 1756.19 477.406 1753.48 487.729 1750.8 C 475.518 1739.16 463.097 1727.74 450.472 1716.55 C 443.489 1718.91 411.407 1724.56 404.969 1723.29 L 403.914 1721.79 C 407.471 1716.26 438.176 1713.33 445.628 1712.23 C 435.951 1702.53 425.971 1692.24 416.1 1682.82 C 408.618 1684.04 373.796 1688.35 368.431 1686.08 L 368.156 1684.44 C 373.144 1679.87 401.467 1679.14 410.985 1677.65 C 405.901 1672.39 377.135 1639.53 372.848 1639.66 C 371.293 1639.71 369.354 1640.44 367.837 1640.85 C 361.908 1642.2 335.142 1646.59 330.388 1643.29 L 331.235 1641.68 C 339.377 1637.72 361.595 1636.03 371.034 1636.08 C 367.345 1631.59 342.425 1601.18 337.859 1601.77 C 329.209 1602.88 296.62 1610.28 289.982 1606.71 L 290.079 1605.07 C 296.768 1600.74 323.9 1599.31 334.873 1596.92 L 336.312 1596.59 C 325.855 1584.44 315.907 1571.91 304.912 1560.25 C 295.587 1562.13 262.213 1568.67 254.535 1566.06 L 254.156 1564.72 C 257.728 1562.64 293.362 1555.82 299.426 1554.57 C 289.177 1542.38 281.048 1532.39 269.712 1521.22 C 262.181 1522.98 222.426 1533.33 218.142 1528.92 C 223.348 1524.92 255.755 1518.99 265.158 1516.65 C 256.502 1507.15 239.905 1488.17 230.233 1480.21 L 230.721 1478.54 C 228.618 1475.95 228.594 1476.21 225.39 1475.05 C 212.921 1464.92 200.306 1452.83 187.268 1442.13 C 178.003 1445.35 151.56 1452.96 142.364 1451.69 L 142.138 1450.48 C 149.112 1445.68 173.093 1440.49 182.665 1438.07 C 175.047 1432.33 148.254 1417.23 146.651 1409.64 C 151.13 1408.92 161.757 1416.85 165.681 1419.49 C 248.944 1475.69 308.016 1559.1 375.41 1632.01 C 394.259 1652.4 414.373 1672.67 434.118 1692.21 C 479.613 1736.95 527.713 1778.96 578.165 1818.02 C 627.208 1855.46 736.02 1932.73 792.294 1949.62 C 809.975 1954.93 827.332 1956.06 845.577 1953.59 C 846.313 1948.02 848.061 1940.42 849.221 1934.73 C 818.783 1920.85 768.935 1888.32 740.979 1869.8 C 683.81 1831.93 619.992 1787.25 567.594 1742.72 C 539.22 1718.27 511.895 1692.63 485.692 1665.86 C 407.844 1587.63 345.926 1491.99 259.442 1421.55 C 241.644 1407.05 224.03 1391.72 202.361 1383.21 C 187.16 1387.84 170.956 1396.39 156.141 1402.65 C 135.085 1411.55 114.007 1419.85 93.1987 1429.41 C 89.8682 1430.94 85.9394 1432.63 82.6573 1431.28 L 83.2526 1429.3 C 90.4536 1423.26 137.142 1404.27 146.778 1400.27 L 220.612 1369.54 L 386.789 1300.3 C 424.481 1284.68 466.157 1264.99 503.63 1251.03 C 535.058 1164.2 563.046 1126.85 634.81 1067.12 C 487.197 1082.62 315.431 1071.63 185.514 992.984 C 138.44 964.488 89.6329 919.302 76.2933 863.981 C 72.0275 846.29 71.0947 827.165 70.8946 808.984 C 70.0073 728.365 91.9249 641.478 134.457 572.64 C 147.157 552.087 162.425 531.541 179.496 514.413 C 232.058 461.678 319.833 414.229 392.169 397.142 C 392.949 398.391 393.699 399.659 394.417 400.945 C 404.259 418.984 435.478 481.045 433.321 503.094 C 432.964 506.748 421.807 514.253 417.888 516.042 C 413.161 518.888 406.934 513.796 401.779 511.892 C 324.795 483.466 246.802 496.443 174.803 524.707 C 230.473 518.455 284.393 518.01 339.56 529.474 C 345.878 530.787 363.843 534.176 367.382 540.123 C 368.417 541.862 365.737 544.202 364.227 545.667 C 345.246 564.095 326.595 580.195 308.001 599.336 C 259.032 649.743 226.903 713.815 205.484 780.364 C 254.036 703.59 305.827 631.588 377.718 575.023 C 386.062 568.457 404.69 553.405 413.298 548.798 C 429.085 560.003 470.361 599.127 479.36 615.425 C 410.492 665.143 347.002 738.336 306.125 812.74 C 324.225 794.625 341.443 775.384 359.567 757.207 C 402.531 713.554 448.608 673.077 497.435 636.098 C 506.144 642.408 519.857 657.867 527.261 666.265 C 564.544 708.554 601.451 754.446 635.205 799.669 C 622.657 749.536 601.176 703.636 574.593 659.47 C 564.453 642.624 552.602 625.926 542.043 609.154 C 558.558 594.113 610.405 569.179 631.715 561.306 C 645.621 563.939 664.743 570.551 678.601 575.001 C 767.337 604.364 852.182 644.389 931.273 694.199 C 882.283 641.027 819.276 597.685 754.89 565.389 C 743.979 559.877 732.835 554.839 721.489 550.29 C 714.138 547.285 698.018 541.325 692.224 537.373 L 692.619 535.098 C 696.952 531.308 719.916 524.685 726.338 522.638 C 784.703 504.581 845.291 494.71 906.369 493.307 C 922.243 492.855 941.172 495.198 953.75 494.591 C 951.582 489.322 913.351 483.812 906.186 482.508 C 840.348 470.52 772.739 477.953 709.156 497.655 C 690.17 503.538 671.734 510.893 652.703 516.598 C 621.521 508.662 589.455 504.737 557.28 504.919 C 550.042 500.375 546.817 497.435 541.175 491.262 C 550.679 484.537 571.973 475.124 583.122 470.102 C 621.767 452.7 661.548 437.938 702.191 425.918 C 725.622 418.992 753.582 412.706 775.93 405.223 C 705.096 403.175 634.662 416.545 569.505 444.409 C 551.937 451.803 535.713 460.441 518.598 468.739 C 508.354 461.448 498.778 449.841 488.936 441.622 C 472.634 428.009 455.969 415.096 438.651 402.796 C 434.194 399.631 425.465 395.868 423.557 391.045 C 426.628 386.943 465.963 381.233 473.35 380.009 C 618.872 355.89 798.075 376.144 922.483 460.516 C 986.777 504.119 1034.38 579.2 1055.85 652.678 C 1062.9 676.824 1066.81 699.333 1070.89 724.289 C 1078.93 719.424 1091.04 710.49 1099.13 704.889 L 1152.97 667.529 C 1170.31 655.392 1194.24 640.625 1209.85 628.618 C 1210.17 624.57 1210.53 620.525 1210.94 616.486 C 1213.17 595.38 1225.37 590.217 1240.96 577.684 C 1240.92 576.465 1240.92 575.245 1240.96 574.026 C 1241.56 558.272 1247.23 527.465 1250.09 511.245 C 1254.98 483.356 1260.55 455.589 1266.77 427.967 C 1269.95 413.848 1272.88 400.339 1276.98 386.455 C 1282.71 365.029 1293.06 358.908 1312.76 351.63 C 1379.74 326.893 1449.88 316.813 1505.51 268.801 C 1541.95 237.359 1579.74 208.243 1615.04 175.089 C 1602.88 134.234 1615.53 123.193 1646.05 99.4881 C 1656.16 91.6433 1665.83 82.1283 1676.73 75.2523 C 1677.72 74.629 1685.38 75.1 1686.78 75.1673 z" fill="rgb(90,32,7)" transform="translate(0,0)"></path>
<path d="M 1686.78 75.1673 C 1716.37 74.2507 1747.04 74.6622 1776.74 74.443 L 1996.04 73.841 L 1995.87 183.406 C 1995.86 189.459 1995.49 223.165 1996.46 227.468 C 1991.07 227.691 1949.29 253.826 1942.4 257.882 C 1905.92 279.365 1869.32 300.657 1832.62 321.757 C 1816.43 331.083 1789.06 348.434 1772.32 352.745 C 1766.56 309.814 1755.83 288.446 1734.65 250.63 C 1718.99 222.656 1662.91 151.791 1634.53 144.487 L 1633.9 145.845 C 1635.5 150.129 1636.94 150.571 1640.68 153.22 C 1634.62 159.03 1626.89 165.318 1620.42 170.846 C 1615.53 157.561 1616.07 149.306 1619.08 133.832 C 1621.33 122.255 1686.25 76.2864 1686.78 75.1673 z" fill="rgb(199,165,144)" transform="translate(0,0)"></path>
<path d="M 1301.48 883.119 C 1312.51 887.442 1332.02 891.609 1343.95 894.466 C 1360.96 898.598 1377.86 903.16 1394.64 908.147 C 1610.39 973.562 1814.31 1099.81 1914.02 1309.68 C 1933.76 1351.25 1946.94 1383.97 1957.62 1428.78 L 1237.71 1753.73 C 1150.55 1794.21 1063.07 1833.98 975.263 1873.02 L 891.972 1911.33 C 880.262 1916.59 865.097 1924.05 853.303 1928.06 C 834.162 1923.46 789.652 1894 770.817 1881.98 C 665.641 1814.85 563.278 1740.47 477.509 1649.29 C 449.088 1619.07 420.883 1584.43 393.987 1552.65 C 342.412 1493.13 279.575 1419.42 210.871 1380.34 C 287.475 1347.31 364.861 1316.25 441.553 1283.46 C 461.367 1274.99 481.684 1265.74 501.977 1258.63 C 498.155 1273.64 494.952 1288.79 492.375 1304.06 C 479.863 1378.62 486.041 1465.49 532.23 1527.31 C 605.135 1624.89 745.136 1676.79 860.773 1695.39 C 1038.98 1724.07 1257.52 1685.18 1404.8 1578.29 C 1458.58 1538.59 1512.58 1481.73 1522.3 1413.15 C 1535.88 1317.43 1510.03 1205.61 1452.5 1127.51 C 1380.18 1029.33 1254.37 972.286 1136.5 953.338 C 1143.51 949.871 1151.82 946.447 1159.12 943.588 C 1206.91 924.891 1253.79 901.748 1301.48 883.119 z" fill="rgb(248,240,225)" transform="translate(0,0)"></path>
<path d="M 1583.95 1078.25 C 1666.44 1072.4 1813.07 1237.14 1731.95 1253.82 C 1712.74 1254.56 1692.14 1243.31 1676.32 1233.6 C 1642.17 1212.63 1569.2 1151.1 1560.76 1112.81 C 1559.09 1105.23 1558.96 1096.83 1563.41 1090.13 C 1568.23 1082.89 1575.92 1080.15 1583.95 1078.25 z" fill="rgb(90,32,7)" transform="translate(0,0)"></path>
<path d="M 1588.89 1110.28 C 1607.38 1109.41 1624.17 1117.71 1639.53 1127.14 C 1679.49 1151.67 1731.18 1197.98 1734.53 1247.99 C 1728.37 1248.23 1723.37 1247.42 1717.28 1246.65 C 1715.74 1246.13 1714.21 1245.59 1712.68 1245.04 C 1667.69 1228.89 1619.01 1185.65 1588.54 1148.52 C 1582.17 1140.77 1573.86 1130.18 1569.67 1121.29 C 1575.7 1116.89 1581.79 1112.69 1588.89 1110.28 z" fill="rgb(248,240,225)" transform="translate(0,0)"></path>
<path d="M 1583.82 1084.21 C 1588.94 1083.92 1594.08 1084.2 1599.14 1085.04 C 1647.18 1093.07 1700.46 1139.42 1728.72 1178.44 C 1739.17 1192.85 1762.38 1231.09 1741.61 1244.86 L 1740.33 1244.35 C 1739.22 1239.76 1738.2 1235.15 1737.25 1230.52 C 1719.93 1175.97 1657.66 1119.18 1601.54 1105.23 C 1588.68 1102.04 1578.38 1107.45 1568.3 1114.84 L 1566.69 1114.42 C 1560.52 1108.01 1564.65 1099.66 1568.75 1093.09 C 1572.6 1086.92 1576.9 1085.51 1583.82 1084.21 z" fill="rgb(199,165,144)" transform="translate(0,0)"></path>
<path d="M 1085.62 953.178 C 1122.22 953.563 1206.18 972.749 1240.19 986.999 C 1182.69 1028.45 1136.81 1084.18 1093.01 1139.31 C 1012.28 1240.91 938.176 1349.77 895.629 1473.37 C 886.515 1499.85 875.099 1527.89 873.563 1556.16 C 888.011 1537.47 903.105 1504.32 914.159 1482.73 C 929.277 1452.53 945.496 1422.9 962.786 1393.9 C 969.529 1382.57 978.983 1365.07 989.07 1357.07 C 1021.16 1356.53 1101.32 1385.85 1132.47 1397.65 C 1143.98 1402.14 1155.53 1407.25 1166.68 1412.34 C 1174.02 1415.7 1196.72 1429.59 1203.98 1427.5 C 1202.21 1412.99 1054.53 1328.61 1028.81 1322.86 C 1025.58 1322.14 1018.78 1318.59 1017.42 1315.64 C 1017.7 1310.64 1019.45 1306.64 1021.81 1302.27 C 1028.47 1289.92 1036.99 1278.31 1044.96 1266.79 C 1058.34 1247.45 1072.01 1228.4 1085.76 1209.34 C 1097.41 1193.2 1111.45 1169.95 1125.88 1156.8 C 1130.3 1152.77 1134.37 1150.89 1140.36 1150.46 C 1178.08 1147.78 1300.74 1196.88 1339.59 1214.71 C 1347.25 1218.22 1387.17 1239.39 1392.27 1239.55 C 1395.37 1237.64 1394.35 1238.9 1395.85 1236.03 C 1394.3 1232.49 1378.02 1222.21 1374.37 1219.53 C 1312.67 1174.41 1244.91 1136.01 1170.66 1116.15 C 1168.77 1115.65 1166.74 1114.2 1165.6 1112.47 C 1166.27 1098.84 1227.17 1030.31 1239.23 1017.47 C 1244.41 1011.97 1256.67 1000.47 1262.79 994.888 C 1283.41 1003.42 1354.09 1036.27 1364.7 1053.53 C 1451.11 1194.08 1404.73 1344.87 1285.98 1448.05 C 1268.75 1463.02 1250.43 1476.32 1231.69 1489.95 C 1048.1 1609.4 884.567 1614.73 682.961 1544.59 C 651.415 1533.61 568.104 1514.93 535.424 1520.86 C 474.018 1438.64 486.491 1298.31 526.503 1208.71 C 560.138 1133.39 632.029 1067.62 704.145 1028.94 C 716.693 1022.21 729.854 1014.65 743.097 1009.57 C 733.044 1038.31 724.887 1059.95 715.956 1089.34 C 702.649 1093.22 647.637 1111.29 641.371 1121.92 L 642.11 1123.74 C 652.422 1128.01 683.961 1120.14 696.655 1119.82 C 709.963 1118.89 705.548 1117.98 710.845 1126.15 C 724.275 1146.86 754.386 1105.46 772.712 1103.54 C 804.663 1100.19 850.944 1096.07 878.342 1113.34 C 863.54 1137.13 845.454 1159.4 830.011 1182.91 C 822.493 1194.35 783.669 1260.78 779.27 1263.86 C 776.779 1265.61 774.418 1265.79 771.484 1265.88 C 756.409 1266.36 740.78 1264.35 725.635 1264.12 C 688.338 1263.29 651.064 1266.59 614.493 1273.96 C 607.39 1275.42 593.478 1277.7 588.134 1281.81 L 588.312 1283.37 C 594.042 1286.28 605.96 1286 612.475 1285.73 C 637.44 1284.7 742.19 1292.11 757.986 1308.02 C 761.423 1315.21 745.76 1347.77 742.375 1356.59 C 733.85 1379.45 725.967 1402.54 718.735 1425.84 C 714.797 1438.1 694.783 1498.37 701.774 1507.28 C 708.001 1506.94 715.065 1486.78 718.01 1480.68 L 746.773 1421.2 C 763.42 1386.51 782.342 1344.59 800.723 1311.09 C 869.559 1185.65 967.352 1035.75 1085.62 953.178 z" fill="rgb(248,240,225)" transform="translate(0,0)"></path>
<path d="M 702.839 536.871 C 778.145 511.692 882.147 490.878 961.86 502.142 C 968.895 507.676 980.152 521.246 985.653 528.401 C 1016.45 568.83 1039.17 614.819 1052.56 663.85 C 1058.76 686.627 1060.57 705.65 1065.2 727.73 C 996.331 781.411 923.57 830.322 855.003 884.91 C 800.246 928.503 779.798 935.613 747.026 1000.61 C 738.929 1004.73 730.735 1008.64 722.449 1012.36 L 718.687 1012.88 C 719.198 1009.47 719.504 1008.77 718.492 1005.39 C 704.502 989.467 629.018 1005.46 608.608 1007.72 C 544.721 1014.8 481.728 1017.03 417.767 1009.08 L 420.036 1005.39 C 326.675 996.747 212.58 964.001 133.849 911.254 C 115.791 899.157 98.7883 882.362 83.3889 866.983 C 62.2961 782.77 92.8706 651.299 138.184 578.274 C 148.235 562.078 160.994 542.607 174.807 529.654 C 240.718 525.182 295.515 522.11 360.376 541.529 C 341.353 558.801 322.101 575.32 303.692 594.583 C 252.901 647.729 217.602 717.349 197.382 787.586 C 196.936 789.137 197.92 789.977 198.716 791.205 C 206.725 791.148 218.961 769.278 223.675 762.182 C 231.65 750.17 239.842 738.303 248.249 726.589 C 287.453 671.325 327.083 622.84 380.391 580.162 C 390.094 572.394 402.346 562.11 412.844 555.726 C 434.219 573.144 453.934 592.507 471.735 613.566 C 408.946 664.075 352.636 719.581 312.252 789.957 C 308.064 797.256 294.897 816.5 296.039 824.124 C 298.119 825.074 297.28 825.161 299.248 824.465 C 306.568 821.879 386.753 738.625 401.058 725.324 C 420.313 707.562 440.024 690.302 460.173 673.561 C 471.602 664.019 485.24 652.272 497.573 644.258 C 514.872 661.043 528.127 675.769 546.362 697.428 C 575.223 731.71 607.504 775.369 637.125 810.309 C 638.085 810.602 639.045 810.894 640.005 811.187 L 642.846 810.374 C 645.424 804.882 631.178 763.959 628.324 755.932 C 610.152 704.822 580.73 654.977 550.026 610.373 C 569.713 596.794 610.395 575.081 633.005 567.265 C 707.79 587.878 782.287 619.477 850.793 655.316 C 863.817 662.13 935.375 705.272 943.291 706.169 C 947.761 700.892 931.909 686.215 927.81 681.965 C 891.69 644.823 850.801 612.637 806.214 586.25 C 776.8 569.008 735.205 547.155 702.839 536.871 z" fill="rgb(248,240,225)" transform="translate(0,0)"></path>
<path d="M 420.036 1005.39 C 479.364 1012.11 539.28 1011.73 598.521 1004.29 C 623.63 1001.31 670.459 993.059 693.474 993.401 C 703.938 993.531 714.184 996.409 723.186 1001.74 L 722.449 1012.36 L 718.687 1012.88 C 719.198 1009.47 719.504 1008.77 718.492 1005.39 C 704.502 989.467 629.018 1005.46 608.608 1007.72 C 544.721 1014.8 481.728 1017.03 417.767 1009.08 L 420.036 1005.39 z" fill="rgb(90,32,7)" transform="translate(0,0)"></path>
<path d="M 1374.62 1058.64 C 1381.04 1061.38 1399.66 1078.4 1404.88 1083.28 C 1451.57 1126.24 1483.94 1182.86 1501.88 1243.4 C 1521.47 1309.53 1532.15 1407.39 1497.28 1469.03 C 1440.87 1568.75 1319.22 1632.04 1213.11 1664.15 C 1030.3 1719.48 822.319 1711.36 652.338 1619.91 C 609.042 1596.56 568.812 1564.54 538.28 1525.85 C 612.457 1526.24 664.324 1545.16 734.031 1566.08 C 846.879 1600.66 953.869 1608.9 1067.71 1573.75 C 1205.65 1531.16 1346.23 1437.64 1398.11 1297.02 C 1430.31 1209.76 1413.7 1139.62 1374.62 1058.64 z" fill="rgb(248,240,225)" transform="translate(0,0)"></path>
<path d="M 1644.65 157.4 C 1684.93 179.278 1742.79 265.702 1756.72 310.786 C 1738.92 318.346 1718.32 331.468 1701.28 341.298 L 1612.56 392.54 C 1612.44 392.285 1612.32 392.029 1612.2 391.774 L 1611.57 390.509 C 1607.62 382.329 1602.51 376.807 1594.19 372.718 C 1587.29 369.329 1575.74 366.899 1568.73 370.94 C 1552.53 380.285 1536.92 390.674 1521.07 400.63 L 1428.95 458.486 C 1410.93 469.775 1388.88 481.466 1371.81 494.04 C 1366.02 498.308 1356.36 519.031 1351.13 527.088 C 1335.54 551.108 1310.63 581.482 1284.05 593.851 C 1277.79 596.762 1267.55 597.828 1261.31 594.801 C 1255.15 591.806 1253.95 585.886 1252.12 579.883 C 1259.39 569.534 1269.36 558.976 1276.97 548.232 C 1295.47 522.136 1310.82 490.914 1321.35 460.732 C 1325.35 449.275 1342.74 398.901 1338.85 390.757 L 1337.3 390.297 C 1334.87 391.878 1334 393.229 1333.28 396.231 C 1322.26 441.725 1307.5 486.735 1283.33 527.087 C 1272.85 544.594 1260.78 558.858 1247.71 574.347 C 1250.49 542.441 1274.44 392.323 1289.56 372.742 C 1293.44 367.717 1299.6 364.026 1305.27 361.315 C 1318.82 354.846 1334.58 350.82 1348.86 346.219 C 1388.74 333.371 1433.61 321.471 1470.28 301.288 C 1499.51 285.205 1525.63 260.551 1550.9 238.883 C 1582.46 212.081 1613.71 184.918 1644.65 157.4 z" fill="rgb(248,240,225)" transform="translate(0,0)"></path>
<path d="M 1203.7 660.854 C 1209.67 672.182 1216.9 773.888 1217.86 792.219 C 1122.09 855.099 1026.86 918.79 932.177 983.283 C 868.918 1026.36 807.471 1070.72 743.453 1112.74 L 733.03 1119.61 C 752.405 1049.86 765.045 984.561 824.086 936.033 C 850.523 914.304 879.072 894.637 906.328 874.046 C 975.122 821.233 1045 769.841 1115.9 719.904 C 1143.26 700.578 1178.19 680.268 1203.7 660.854 z" fill="rgb(248,240,225)" transform="translate(0,0)"></path>
<path d="M 87.3879 877.753 C 104.363 894.287 122.644 910.761 143.026 923.099 C 218.207 968.607 330.549 1002.85 417.767 1009.08 C 481.728 1017.03 544.721 1014.8 608.608 1007.72 C 629.018 1005.46 704.502 989.467 718.492 1005.39 C 719.504 1008.77 719.198 1009.47 718.687 1012.88 C 714.623 1016.93 689.226 1030.18 682.565 1034.06 C 668.101 1042.4 654.196 1051.66 640.936 1061.81 C 620.312 1062.86 599.448 1065.49 578.798 1066.72 C 423.665 1075.92 159.105 1042.2 87.3879 877.753 z" fill="rgb(199,165,144)" transform="translate(0,0)"></path>
<path d="M 1594.46 379.914 C 1598.81 382.697 1600.19 383.975 1603.98 387.526 C 1612.43 415.106 1609.17 437.614 1604.61 465.612 C 1602.21 480.37 1591.1 483.836 1579.6 490.819 C 1566.3 498.895 1552.65 506.179 1539.4 514.316 C 1536.79 493.903 1535.78 480.651 1513.56 474.661 C 1506.17 476.799 1504.77 477.373 1498.33 481.321 C 1480.76 472.949 1470.06 475.503 1466.33 495.788 L 1465.38 495.241 C 1462.13 493.328 1459.27 491.169 1455.39 491.111 C 1440.1 490.881 1432.09 507.747 1431.74 520.961 L 1429.76 523.064 C 1390.9 493.353 1374.49 622.223 1361.2 636.057 C 1340.21 657.915 1296.7 680.653 1270.5 696.612 C 1271.12 678.009 1271.45 656.469 1267.36 638.28 C 1261.74 613.335 1243.64 611.217 1224.21 599.668 C 1230.98 592.7 1237.49 588.142 1245.2 582.311 C 1245.6 583.235 1246 584.154 1246.42 585.069 C 1268.48 633.596 1324.96 573.551 1341.75 551.26 C 1347.91 544.398 1355.4 530.628 1362.82 525.486 C 1429.01 479.624 1498.52 438.219 1567.06 395.959 C 1576.07 390.403 1585.08 384.611 1594.46 379.914 z" fill="rgb(199,165,144)" transform="translate(0,0)"></path>
<path d="M 1561.22 430.034 C 1585.49 426.308 1589.17 460.662 1563.21 472.333 C 1538.91 475.913 1536.95 442.332 1561.22 430.034 z" fill="rgb(90,32,7)" transform="translate(0,0)"></path>
<path d="M 1562.35 435.866 C 1581.48 434.901 1576.28 457.242 1563.29 465.878 C 1543.57 466.974 1548.73 444.751 1562.35 435.866 z" fill="rgb(248,240,225)" transform="translate(0,0)"></path>
<path d="M 1314.48 607.134 C 1340.02 610.289 1333.43 640.797 1309.53 648.871 C 1283.83 647.599 1289.73 614.288 1314.48 607.134 z" fill="rgb(90,32,7)" transform="translate(0,0)"></path>
<path d="M 1314.5 612.85 C 1330.79 617.118 1324.52 636.392 1309.98 642.402 C 1290.53 640.589 1300.73 619.434 1314.5 612.85 z" fill="rgb(248,240,225)" transform="translate(0,0)"></path>
<path d="M 1976.66 1425.92 L 1977.63 1426.89 C 1977.85 1430.26 1978.04 1432.2 1976.67 1435.31 C 1973.13 1443.31 1962.51 1451.57 1954.58 1455.37 C 1931.75 1466.31 1908.27 1476.61 1885.18 1487.05 L 1768.88 1540.07 L 1353.12 1727.66 L 1044.47 1866.64 C 1007.78 1883.6 970.942 1900.21 933.951 1916.49 C 906.742 1928.72 881.289 1940.87 853.309 1951.39 C 851.904 1948.97 853.818 1937.84 854.247 1933.98 C 901.884 1914.14 946.498 1891.72 993.443 1870.87 L 1518.74 1632.97 L 1802.09 1505.96 C 1839.76 1489.31 1876.97 1472.41 1914.26 1454.95 C 1934.97 1445.25 1956.96 1437.4 1976.66 1425.92 z" fill="rgb(199,165,144)" transform="translate(0,0)"></path>
<path d="M 1343.82 864.992 C 1357.65 865.41 1390.62 875.874 1404.86 880.111 C 1622.64 944.948 1835.12 1077.3 1936.87 1287.56 C 1956.06 1327.19 1971.79 1370.88 1978.92 1414.48 C 1973.22 1420.82 1970.47 1422.15 1963.16 1426.11 L 1959.14 1410.42 C 1950.46 1368.21 1918.73 1299.74 1897.06 1263.01 C 1797.82 1094.85 1637.5 987.447 1456.72 922.09 C 1405.81 903.685 1361.92 892.776 1309.37 879.383 C 1321.08 874.226 1331.85 869.493 1343.82 864.992 z" fill="rgb(248,240,225)" transform="translate(0,0)"></path>
<path d="M 1248.68 989.878 C 1251.68 990.329 1253.48 990.8 1255.32 992.835 C 1238.59 1010.44 1158.53 1092.72 1159.1 1111.55 C 1159.17 1113.71 1159.66 1115.13 1160.77 1116.96 C 1162.37 1119.59 1165.77 1121.49 1168.53 1122.61 C 1175.1 1125.26 1182.69 1125.86 1189.52 1127.9 C 1204.81 1132.46 1220.11 1138.86 1234.76 1145.17 C 1269.31 1160.26 1302.55 1178.19 1334.14 1198.77 C 1342.94 1204.45 1354.5 1211.57 1362.15 1218.51 C 1318.5 1196.6 1187.01 1143.29 1141.8 1144.44 C 1130.66 1144.73 1124.64 1148.64 1117.31 1156.66 C 1106.25 1168.75 1097.25 1183.21 1087.51 1196.38 C 1068.02 1222.76 1048.74 1249.23 1030.94 1276.79 C 1024.92 1286.11 1018.22 1295.65 1013.24 1305.57 C 1011.42 1309.18 1009.47 1313.58 1009.91 1317.7 C 1010.28 1321.11 1022.75 1326.69 1025.9 1328.08 C 1073.34 1349.01 1122.56 1372.65 1164.3 1403.7 L 1165.32 1404.47 L 1151.25 1398.56 C 1112.15 1382.47 1031.79 1354.03 989.901 1349.84 C 974.422 1358.09 965.201 1377.68 956.242 1392.51 C 930.127 1435.73 907.838 1481.41 885.048 1526.45 C 885.661 1523.78 886.318 1521.13 887.018 1518.48 C 892.808 1496.41 901.252 1473.83 909.489 1452.49 C 959.602 1322.61 1045.63 1204.42 1134.59 1098.4 C 1162.98 1064.56 1210.85 1011.95 1248.68 989.878 z" fill="rgb(248,240,225)" transform="translate(0,0)"></path>
<path d="M 1075.95 952.419 C 1060.89 963.87 1043.3 976.936 1029.42 989.986 C 923.122 1089.93 839.93 1218.4 774.923 1348.43 C 758.279 1381.72 743.594 1415.01 726.992 1448.17 C 722.069 1458 713.27 1478.86 708.13 1486.95 C 717.279 1444.56 732.609 1403.19 746.624 1362.15 C 750.793 1349.94 770.29 1315.77 763.771 1305.47 C 756.519 1294 720.754 1290.32 707.483 1287.27 C 682.768 1282.64 655.692 1281 630.861 1280 L 629.009 1277.36 C 659.273 1272.28 689.914 1269.78 720.602 1269.88 C 738.409 1270.08 757.832 1272.09 775.353 1271.09 C 788.135 1270.36 802.695 1238.78 808.933 1228.47 C 820.124 1210.18 831.592 1192.06 843.332 1174.11 C 850.857 1162.61 883.274 1119.73 886.237 1112.49 C 863.186 1092.25 807.736 1091.91 778.088 1096.26 C 782.091 1093.63 791.051 1087.72 795.034 1086.69 C 819.158 1080.49 854.944 1075.31 879.701 1076.99 C 923.831 1079.99 921.838 1064.96 951.67 1038.04 C 984.556 1008.38 1034.25 967.446 1075.95 952.419 z" fill="rgb(248,240,225)" transform="translate(0,0)"></path>
<path d="M 783.538 405.192 C 788.387 404.741 805.309 410.178 810.516 411.972 C 857.82 427.965 902.025 451.967 941.202 482.928 C 852.616 461.924 788.248 467.609 702.221 492.846 C 685.759 498.079 669.573 504.493 653.14 510.041 C 623.382 502.589 589.216 499.675 558.66 498.828 C 555.819 497.015 552.966 494.864 550.215 492.878 C 597.639 466.701 665.494 444.029 717.391 427.912 C 736.217 422.066 755.838 417.813 774.603 411.882 C 779.764 410.251 780.751 409.645 783.538 405.192 z" fill="rgb(248,240,225)" transform="translate(0,0)"></path>
<path d="M 576.667 376.483 C 629.375 375.233 682.041 380.353 733.521 391.732 C 744.72 394.195 756.948 396.622 767.732 400.213 C 705.217 396.014 654.586 408.273 595.752 427.648 C 567.686 437.753 545.887 448.448 519.191 461.635 C 497.355 440.597 460.808 408.642 434.447 393.944 C 487.413 383.024 522.351 377.781 576.667 376.483 z" fill="rgb(248,240,225)" transform="translate(0,0)"></path>
<path d="M 385.623 405.024 C 388.237 404.977 386.999 404.78 389.289 405.977 C 399.895 421.94 426.239 478.634 427.106 499.521 C 427.229 502.479 417.24 509.491 414.207 511.807 C 402.06 503.862 392.715 501.61 378.642 498.334 C 331.734 487.414 288.417 487.857 241.246 496.639 C 224.485 500.152 208.066 505.139 192.183 511.544 C 246.984 460.427 314.089 426.035 385.623 405.024 z" fill="rgb(248,240,225)" transform="translate(0,0)"></path>
<path d="M 1016.46 950.551 C 1030.42 949.692 1044.44 950.163 1058.31 951.956 C 1017.9 976.573 978.752 1002.37 945.35 1036.16 C 934.919 1046.71 920.896 1061.69 909.065 1069.89 C 889.047 1071.65 866.999 1070.06 846.241 1071.76 C 832.19 1072.97 821.595 1074.52 807.85 1077.63 L 921.802 998.193 C 943.905 982.965 969.433 965.038 992.101 951.083 L 1016.46 950.551 z" fill="rgb(248,240,225)" transform="translate(0,0)"></path>
<path d="M 1201.37 654.908 C 1193.18 661.923 1174.35 673.572 1164.7 679.802 C 1148.86 689.946 1133.24 700.415 1117.84 711.203 C 1043.69 763.158 970.675 816.716 898.848 871.84 C 868.055 895.212 825.211 923.537 800.045 950.615 C 782.689 969.515 768.726 991.27 758.772 1014.92 C 744.859 1047.52 736.765 1082.38 728.551 1116.7 C 727.72 1120.17 726.152 1122.69 723.624 1125.13 C 720.098 1126.32 721.789 1126.31 718.382 1125.43 C 717.587 1124.55 717.422 1124.47 716.859 1123.24 C 709.479 1107.1 753.867 999.041 764.727 979.721 C 773.521 964.102 784.811 950.027 798.148 938.051 C 810.957 926.637 827.211 914.636 840.918 903.813 C 876.618 875.562 912.912 848.069 949.776 821.355 C 1018.63 770.813 1086.36 719.373 1157.57 672.124 C 1163.88 667.939 1185.7 651.423 1191.24 649.881 C 1195.02 651.952 1197.43 653.229 1201.37 654.908 z" fill="rgb(248,240,225)" transform="translate(0,0)"></path>
<path d="M 1240.82 637.833 C 1251.05 640.694 1259.54 749.239 1259.65 763.628 C 1251.18 770.16 1236.91 778.953 1227.61 785.044 C 1225.95 786.307 1226.91 785.891 1224.67 786.173 C 1223.46 783.335 1221.71 754.416 1221.57 749.441 C 1220.73 718.328 1212.05 686.038 1210.59 655.523 C 1220.84 649.411 1230.69 644.478 1240.82 637.833 z" fill="rgb(248,240,225)" transform="translate(0,0)"></path>
<path d="M 1451.19 497.804 C 1472.88 498.2 1473.05 521.415 1474.18 537.886 C 1475.82 561.686 1475 588.026 1467.53 610.874 C 1463.34 623.683 1455.45 629.023 1443.75 634.368 C 1440.21 635.495 1435.79 636.337 1432.11 637.146 C 1435.08 629.897 1438.28 620.968 1439.8 612.771 C 1444.05 589.926 1451.95 560.515 1447.14 537.62 C 1446 532.182 1439.8 523.101 1436.7 518.206 C 1440.39 508.87 1443.09 503.687 1451.19 497.804 z" fill="rgb(248,240,225)" transform="translate(0,0)"></path>
<path d="M 1479.81 482.924 C 1485.32 483.113 1492.92 484.016 1496.31 489.145 C 1502.59 499.371 1505.69 515.567 1506.02 527.557 C 1506.85 558.864 1516.6 581.469 1489.04 603.245 C 1484.59 606.405 1479.55 608.983 1474.75 611.623 C 1483.25 574.231 1484.25 532.949 1471.14 496.586 C 1473.69 489.805 1474.55 487.903 1479.81 482.924 z" fill="rgb(248,240,225)" transform="translate(0,0)"></path>
<path d="M 1414.3 525.991 C 1418.06 525.863 1419.53 525.638 1422.76 527.604 C 1424.48 532.711 1413.77 561.948 1411.22 569.315 C 1401.66 596.95 1401.5 629.207 1394.42 656.336 C 1386.95 657.257 1383.11 656.689 1375.98 655.553 C 1370.15 652.313 1368.42 650.227 1364.35 644.953 C 1379.79 617.848 1392.25 541.165 1414.3 525.991 z" fill="rgb(248,240,225)" transform="translate(0,0)"></path>
<path d="M 1431.74 520.961 C 1433.16 530.501 1439.84 527.986 1441.33 538.672 C 1444.28 559.905 1440.32 581.418 1435.9 602.186 C 1429.77 630.984 1428.94 642.891 1400.24 655.195 C 1404.36 639.132 1405.01 622.298 1408.7 606.622 C 1414.89 580.322 1421.17 548.506 1429.76 523.064 L 1431.74 520.961 z" fill="rgb(248,240,225)" transform="translate(0,0)"></path>
<path d="M 1577.36 374.106 C 1582.75 374.868 1585.23 376.074 1590.18 378.084 C 1517.31 420.4 1445.64 464.747 1375.26 511.074 L 1364.81 517.603 C 1366.45 513.833 1368.76 508.278 1370.81 504.869 C 1372.94 501.318 1375.77 498.238 1379.13 495.819 C 1391.24 487.155 1416.19 473.772 1430.02 465.233 L 1532.86 400.822 C 1541.18 395.611 1569.68 376.103 1577.36 374.106 z" fill="rgb(199,165,144)" transform="translate(0,0)"></path>
<path d="M 1510.15 482.1 C 1529.3 481.382 1532.06 499.849 1533.25 515.512 C 1534.54 532.474 1534.34 553.497 1522.74 567.087 C 1520.08 569.637 1516.68 572.424 1513.84 574.877 C 1513.72 556.254 1513.18 534.681 1510.57 516.286 C 1509.51 508.828 1505.9 496.743 1504.22 488.088 C 1505.55 484.827 1506.89 484.658 1510.15 482.1 z" fill="rgb(248,240,225)" transform="translate(0,0)"></path>
<path d="M 1220.27 604.083 C 1265.2 620.888 1264.79 639.122 1265.33 682.687 C 1265.4 688.172 1266.46 696.505 1262.61 700.5 L 1260.69 699.777 C 1257.96 682.351 1255.51 663.396 1251.58 646.247 C 1249.85 638.714 1244.2 629.484 1236.99 626.137 C 1228.2 622.06 1224.07 623.934 1215.59 626.696 C 1216.67 618.165 1216.89 612.007 1220.27 604.083 z" fill="rgb(199,165,144)" transform="translate(0,0)"></path>
<path d="M 1757.64 315.878 C 1762.75 320.004 1766.17 345.712 1767.4 353.278 C 1746.04 346.324 1747.76 338.383 1734.25 329.402 C 1741.23 326.302 1751.23 320.191 1757.64 315.878 z" fill="rgb(199,165,144)" transform="translate(0,0)"></path>
<path d="M 712.22 1097.2 L 713.1 1097.81 C 713.598 1100.73 710.488 1109.48 709.473 1112.85 C 694.716 1113.54 675.352 1116.16 659.725 1117.37 L 658.958 1117.45 C 665.109 1110.38 701.892 1099.73 712.22 1097.2 z" fill="rgb(248,240,225)" transform="translate(0,0)"></path>
<path d="M 1195.7 646.538 C 1203.91 640.303 1225.74 624.385 1235.7 631.257 L 1236.4 632.747 C 1231.44 637.725 1215 645.741 1207.74 650.285 C 1203.69 651.451 1204.74 651.383 1201.37 654.908 C 1197.43 653.229 1195.02 651.952 1191.24 649.881 C 1193.84 648.416 1193.42 648.582 1195.7 646.538 z" fill="rgb(248,240,225)" transform="translate(0,0)"></path>
<path d="M 1191.24 649.881 C 1193.84 648.416 1193.42 648.582 1195.7 646.538 C 1199.33 647.597 1204.37 648.878 1207.74 650.285 C 1203.69 651.451 1204.74 651.383 1201.37 654.908 C 1197.43 653.229 1195.02 651.952 1191.24 649.881 z" fill="rgb(90,32,7)" transform="translate(0,0)"></path>
<path d="M 614.649 1279.48 C 619.406 1278.62 624.217 1278.02 629.009 1277.36 L 630.861 1280 C 625.838 1280.12 619.75 1279.7 614.649 1279.48 z" fill="rgb(248,240,225)" transform="translate(0,0)"></path>
<path d="M 412.144 406.593 C 412.62 406.661 413.101 406.703 413.572 406.799 C 421.7 408.446 480.314 477.638 487.727 486.985 C 495.455 496.728 502.638 507.055 509.409 517.481 L 576.537 528.829 C 583.738 530.029 611.776 533.412 615.537 537.49 L 614.993 539.223 C 608.903 544.158 591.515 552.562 583.579 556.648 C 565.19 566.836 545.66 579.606 528.025 588.959 C 507.341 562.004 481.676 536.971 463.489 509.131 C 451.051 490.093 438.782 461.876 428.05 441.225 C 426.468 438.181 427.564 432.273 425.442 428.729 C 421.812 422.666 416.66 417.68 412.675 411.951 C 410.803 409.261 411.411 409.424 412.144 406.593 z" fill="rgb(90,32,7)" transform="translate(0,0)"></path>
<path d="M 431.961 434.705 C 438.504 437.699 480.206 487.978 486.97 496.375 C 490.027 500.171 501.736 517.853 506.159 523.578 C 539.685 527.977 571.548 534.536 605.175 538.802 C 595.659 543.614 586.189 548.519 576.769 553.517 C 561.141 562.136 545.548 571.829 530.029 580.825 C 482.49 528.363 460.87 498.598 431.961 434.705 z" fill="rgb(248,240,225)" transform="translate(0,0)"></path>
<path d="M 225.39 1475.05 C 228.594 1476.21 228.618 1475.95 230.721 1478.54 L 230.233 1480.21 C 223.804 1482.11 181.245 1491.87 177.518 1489.87 L 177.433 1488.15 C 183.465 1483.56 215.429 1477.55 225.39 1475.05 z" fill="rgb(90,32,7)" transform="translate(0,0)"></path>
<metadata><recraft-signature>{"signed_by": "recraft", "signature_b64": "yQaXQJhWkontn2kp5+lbUBFacoGJBOJfK46PwJLLjQbhyiu6cFyZecTEVn99RorFIsF7k9XeVKkMn7+VmK5ZAw==", "signing_algo": "Ed25519", "generation_timestamp": 1778091871, "identifier": "af836b3c-8589-421d-85e9-0f1699140f36"}</recraft-signature></metadata></svg>