<svg xmlns="http://www.w3.org/2000/svg" height="1024" preserveAspectRatio="none" style="display: block;" version="1.1" viewBox="0 0 2048 2048" width="1024">
<defs>
	<linearGradient gradientUnits="userSpaceOnUse" id="Gradient1" x1="194.213" x2="176.673" y1="742.196" y2="748.486">
		<stop class="stop0" offset="0" stop-color="rgb(75,1,0)" stop-opacity="1"></stop>
		<stop class="stop1" offset="1" stop-color="rgb(108,67,32)" stop-opacity="1"></stop>
	</linearGradient>
	<linearGradient gradientUnits="userSpaceOnUse" id="Gradient2" x1="390.829" x2="394.461" y1="817.93" y2="849.831">
		<stop class="stop0" offset="0" stop-color="rgb(73,4,0)" stop-opacity="1"></stop>
		<stop class="stop1" offset="1" stop-color="rgb(94,35,13)" stop-opacity="1"></stop>
	</linearGradient>
	<linearGradient gradientUnits="userSpaceOnUse" id="Gradient3" x1="1771.5" x2="1767.1" y1="1830.98" y2="1828.82">
		<stop class="stop0" offset="0" stop-color="rgb(176,115,89)" stop-opacity="1"></stop>
		<stop class="stop1" offset="1" stop-color="rgb(230,171,141)" stop-opacity="1"></stop>
	</linearGradient>
	<linearGradient gradientUnits="userSpaceOnUse" id="Gradient4" x1="603.331" x2="573.669" y1="285.76" y2="278.24">
		<stop class="stop0" offset="0" stop-color="rgb(68,0,0)" stop-opacity="1"></stop>
		<stop class="stop1" offset="1" stop-color="rgb(84,41,14)" stop-opacity="1"></stop>
	</linearGradient>
	<linearGradient gradientUnits="userSpaceOnUse" id="Gradient5" x1="546.725" x2="550.087" y1="547.763" y2="566.589">
		<stop class="stop0" offset="0" stop-color="rgb(64,1,0)" stop-opacity="1"></stop>
		<stop class="stop1" offset="1" stop-color="rgb(101,32,10)" stop-opacity="1"></stop>
	</linearGradient>
	<linearGradient gradientUnits="userSpaceOnUse" id="Gradient6" x1="461.648" x2="465.983" y1="692.49" y2="722.146">
		<stop class="stop0" offset="0" stop-color="rgb(68,0,0)" stop-opacity="1"></stop>
		<stop class="stop1" offset="1" stop-color="rgb(85,30,11)" stop-opacity="1"></stop>
	</linearGradient>
</defs>
<path d="M 0 0 L 1832.41 0 L 1839.89 0 L 2048 0 L 2048 294.664 L 2048 301.33 L 2048 1249.7 L 2048 2048 L 1695.57 2048 L 1689.99 2048 L 0 2048 L 0 678.876 L 0 0 z" fill="rgb(254,253,247)" transform="translate(0,0)"></path>
<path d="M 0 0 L 1832.41 0 C 1826.89 7.2923 1819.44 14.0679 1812.99 20.6656 C 1791.47 42.7003 1767.89 66.7528 1761.79 98.1348 C 1760.28 105.857 1756.8 124.38 1762.31 130.271 C 1766.13 131.062 1766.28 130.876 1770.03 130.436 L 1771.49 131.892 C 1760.24 143.853 1702.58 185.348 1702.4 197.306 C 1703.76 199.766 1703.78 199.59 1706.07 201.297 C 1709.24 202.626 1710.9 203.322 1713.86 205.042 C 1671.48 235.79 1631.9 268.69 1585.29 293.52 C 1571.09 301.084 1557.76 310.549 1542.04 315.284 C 1520.49 321.582 1495.44 319.464 1473.18 320.375 C 1387.83 323.867 1298.85 334.944 1248.87 414.096 C 1228.34 446.602 1201.4 489.808 1206.36 530.111 C 1185.51 554.334 1156.12 583.11 1133.58 606.122 L 1028.93 713.907 C 1023.36 706.338 995.816 701.583 985.927 698.404 C 903.726 671.973 819.995 656.945 734.017 649.605 C 709.033 647.472 683.974 647.525 659.426 645.518 L 655.443 652.9 C 639.486 681.321 604.092 699.684 573.762 708.589 C 520.168 724.324 465.51 719.788 411.385 731.244 C 385.995 736.617 359.087 745.649 335.401 756.347 C 328.513 759.458 313.297 769.678 308.129 771.571 L 305.128 772.545 L 303.735 771.589 L 302.149 772.595 C 303.422 771.259 304.446 769.863 305.44 768.31 L 303.494 767.806 L 303.22 766.366 L 306.629 761.99 L 304.898 760.267 C 302.258 761.491 300.337 763.692 299.749 766.572 L 301.79 768.018 C 297.515 769.742 297.599 764.94 294.186 768.749 L 293.512 767.095 C 307.155 739.465 339.684 694.764 357.056 666.35 C 357 654.335 356.439 642.327 355.374 630.358 C 337.305 628.986 306.541 621.008 290.421 626.153 C 273.709 569.121 236.49 521.886 256.438 460.212 C 257.448 457.089 260.006 450.104 258.702 447.624 L 256.192 447.609 C 248.905 451.743 239.185 468.486 235.13 476.07 C 211.344 520.555 218.278 569.819 233.092 616.182 C 208.016 618.763 194.533 622.673 171.309 627.765 C 170.355 619.769 169.756 614.26 169.995 606.273 C 170.238 598.144 171.823 588.289 171.204 580.448 L 169.809 579.617 C 164.295 581.647 161.445 587.28 159.054 592.4 C 154.17 602.867 150.28 613.77 147.436 624.965 C 147.04 626.484 144.507 638.489 144.424 638.679 C 136.388 630.897 18.7937 672.13 0 678.876 L 0 0 z" fill="rgb(245,233,216)" transform="translate(0,0)"></path>
<path d="M 656.379 310.164 C 668.234 256.417 687.678 227.619 735.341 197.371 C 764.217 179.363 796.186 166.873 829.622 160.536 C 835.692 159.44 846.75 156.516 851.358 161.291 C 851.194 167.256 803.333 230.01 796.572 238.197 C 789.996 246.231 782.92 253.842 775.387 260.985 C 744.113 290.377 702.854 308.239 660.597 314.367 C 623.761 351.025 583.832 385.87 548.723 424.661 C 542.252 431.811 526.082 448.644 521.151 456.437 L 519.055 457.137 C 518.996 460.068 518.909 458.928 520.267 461.831 C 528.203 456.835 538.847 447.935 547.443 442.156 C 574.864 423.721 598.95 410.787 629.982 399.409 C 692.623 376.44 762.165 382.04 818.655 345.454 C 819.105 344.476 819.919 341.658 820.294 340.486 C 823.493 339.877 822.232 339.463 824.434 340.869 C 825.235 346.747 813.876 362.939 809.943 368.036 C 756.942 436.717 670.36 431.383 593.988 451.119 C 559.052 460.147 530.599 471.679 497.375 484.68 C 480.364 506.368 464.003 529.077 447.831 551.4 C 438.7 564.005 426.277 577.824 417.905 590.653 L 421.422 592.31 C 466.074 545.21 519.974 520.103 584.93 519.181 C 628.134 518.567 671.26 526.288 711.866 506.635 C 722.11 501.677 731.967 494.997 741.649 488.865 C 725.015 523.253 700.261 540.16 664.996 552.944 C 630.17 565.57 599.753 565.274 564.408 570.91 C 513.082 578.792 463.222 594.296 416.477 616.91 C 407.987 620.954 397.609 624.867 390.449 631.027 C 380.505 639.581 312.916 743.965 306.103 757.637 C 353.816 704.624 424.968 668.371 496.367 665.495 C 544.731 663.546 612.266 671.427 653.031 642.424 L 656.186 640.3 L 658.123 640.824 C 659.135 643.115 659.23 643.057 659.426 645.518 L 655.443 652.9 C 639.486 681.321 604.092 699.684 573.762 708.589 C 520.168 724.324 465.51 719.788 411.385 731.244 C 385.995 736.617 359.087 745.649 335.401 756.347 C 328.513 759.458 313.297 769.678 308.129 771.571 L 305.128 772.545 L 303.735 771.589 L 302.149 772.595 C 303.422 771.259 304.446 769.863 305.44 768.31 L 303.494 767.806 L 303.22 766.366 L 306.629 761.99 L 304.898 760.267 C 302.258 761.491 300.337 763.692 299.749 766.572 L 301.79 768.018 C 297.515 769.742 297.599 764.94 294.186 768.749 L 293.512 767.095 C 307.155 739.465 339.684 694.764 357.056 666.35 C 357 654.335 356.439 642.327 355.374 630.358 C 349.002 551.03 300.917 488.462 317.223 411.751 C 322.787 386.963 334.437 363.725 351.85 345.135 C 356.105 340.593 366.714 328.162 373.195 329.996 C 374.69 335.363 360.814 360.175 358.675 370.076 C 355.669 383.988 353.005 389.712 353.61 405.093 C 354.691 432.618 363.291 453.215 370.537 478.93 C 380.121 512.94 385.567 556.581 381.369 591.762 C 379.227 609.718 374.362 628.635 370.099 646.257 C 384.794 628.293 397.781 609.728 411.217 590.889 C 426.54 569.405 434.193 564.598 436.409 537.152 C 444.57 436.081 371.162 327.48 454.336 240.254 C 458.151 236.254 469.914 221.221 475.065 220.742 L 476.217 222.763 C 475.164 229.345 469.563 238.572 466.974 245.305 C 451.019 286.81 463.759 335.802 470.852 378.101 C 479.471 429.508 473.91 471.23 457.568 519.792 C 456.703 523.134 455.108 528.526 454.882 531.782 C 464.443 518.16 474.33 504.77 484.536 491.623 C 494.786 478.216 506.344 464.791 513.378 449.572 L 516.052 447.732 C 518.82 448.93 517.882 448.259 519.728 450.812 C 521.888 448.435 530.499 436.423 533.359 432.815 C 572.382 391.295 614.094 348.404 656.379 310.164 z" fill="rgb(68,2,0)" transform="translate(0,0)"></path>
<path d="M 306.629 761.99 C 340.794 728.776 376.286 701.567 421.778 685.521 C 442.619 678.242 464.273 673.543 486.257 671.528 C 534.685 667.532 612.307 677.195 652.638 647.688 C 603.379 717.326 524.04 712.16 448.644 720.177 C 406.119 724.698 339.014 742.271 305.44 768.31 L 303.494 767.806 L 303.22 766.366 L 306.629 761.99 z" fill="rgb(153,172,147)" transform="translate(0,0)"></path>
<path d="M 590.198 682.386 C 593.222 681.879 593.201 681.672 596.101 682.437 L 595.923 683.571 C 581.316 691.728 499.401 691.743 480.035 694.028 C 434.258 699.428 372.84 719.076 334.246 744.269 C 331.391 745.608 332.578 745.681 330.031 745.388 C 359.031 718.48 437.736 692.557 477.081 689.752 C 515.212 687.033 551.524 687.209 590.198 682.386 z" fill="url(#Gradient6)" transform="translate(0,0)"></path>
<path d="M 326.823 746.996 L 327.384 748.418 C 322.265 754.939 318.483 757.582 311.195 761.042 L 310.397 760.026 C 311.434 758.958 323.754 749.635 326.823 746.996 z" fill="rgb(74,99,71)" transform="translate(0,0)"></path>
<path d="M 520.267 461.831 C 528.203 456.835 538.847 447.935 547.443 442.156 C 574.864 423.721 598.95 410.787 629.982 399.409 C 692.623 376.44 762.165 382.04 818.655 345.454 C 775.332 421.624 695.009 426.039 617.878 440.128 C 573.45 448.243 542.353 462.575 501.458 478.874 C 508.129 471.774 512.518 467.854 520.267 461.831 z" fill="rgb(153,172,147)" transform="translate(0,0)"></path>
<path d="M 765.821 382.35 C 738.275 402.273 653.289 418.199 619.098 426.881 C 595.73 432.814 571.733 441.802 549.328 451.296 L 547.541 449.674 C 599.79 423.366 641.295 417.233 697.655 403.697 C 719.704 398.402 743.355 388.337 765.821 382.35 z" fill="rgb(76,8,0)" transform="translate(0,0)"></path>
<path d="M 547.541 449.674 L 549.328 451.296 C 546.22 452.81 542.598 455.044 539.331 454.898 C 540.736 452.525 544.83 451.003 547.541 449.674 z" fill="rgb(87,85,67)" transform="translate(0,0)"></path>
<path d="M 438.838 553.746 C 448.06 478.732 427.735 434.144 419.691 361.652 C 416.572 333.553 422.664 294.94 437.658 270.704 C 444.379 259.841 457.357 244.51 465.862 234.364 C 461.277 246.106 456.25 261.018 455.078 273.605 C 450.613 321.575 468.193 369.42 469.471 417.975 C 470.568 459.654 464.545 480.322 455.256 518.764 L 457.568 519.792 C 456.703 523.134 455.108 528.526 454.882 531.782 C 452.781 535.312 454.141 533.791 450.21 536.086 C 448.382 541.519 442.336 549.166 438.838 553.746 z" fill="rgb(153,172,147)" transform="translate(0,0)"></path>
<path d="M 455.256 518.764 L 457.568 519.792 C 456.703 523.134 455.108 528.526 454.882 531.782 C 452.781 535.312 454.141 533.791 450.21 536.086 L 455.256 518.764 z" fill="rgb(76,8,0)" transform="translate(0,0)"></path>
<path d="M 447.942 272.834 C 447.594 284.025 446.047 294.89 445.302 306.011 C 443.233 336.886 448.595 368.193 451.623 398.877 C 453.552 419.184 454.307 439.586 453.886 459.98 L 452.209 458.912 L 451.001 452.962 C 450.226 398.294 430.248 320.953 447.942 272.834 z" fill="rgb(76,8,0)" transform="translate(0,0)"></path>
<path d="M 451.001 452.962 L 452.209 458.912 L 453.886 459.98 C 454.328 467.189 454.026 493.032 452.096 499.186 C 451.582 498.105 450.997 456.617 451.001 452.962 z" fill="rgb(110,86,63)" transform="translate(0,0)"></path>
<path d="M 409.059 604.411 C 412.275 598.773 413.954 595.857 417.905 590.653 L 421.422 592.31 C 417.873 596.099 412.87 600.71 409.059 604.411 z" fill="rgb(254,253,247)" transform="translate(0,0)"></path>
<path d="M 840.591 164.387 C 842.34 163.983 841.872 164.145 843.777 164.428 L 843.549 166.041 C 805.836 214.021 779.073 266.989 719.716 292.192 C 702.377 299.555 682.396 304.285 664.137 309.934 C 667.544 306.072 670.824 301.427 674.005 297.336 C 705.203 257.219 745.368 225.392 789.156 200.001 C 790.936 198.969 791.628 196.903 792.314 195.11 C 769.021 198.829 697.148 259.998 680.933 282.058 C 674.887 290.282 666.972 302.766 660.62 310.808 L 659.767 311.878 C 662.949 297.104 668.74 279.725 675.644 266.274 C 704.468 210.119 779.405 171.676 840.591 164.387 z" fill="rgb(153,172,147)" transform="translate(0,0)"></path>
<path d="M 725.506 505.122 L 725.521 506.681 C 689.392 553.314 626.288 557.085 574.208 564.164 C 556.489 566.615 538.897 569.91 521.492 574.036 C 469.099 586.694 445.787 596.298 398.941 620.193 L 398.871 619.611 C 401.086 614.403 425.027 595.589 431.544 589.155 C 483.9 537.464 540.253 521.532 612.562 524.954 C 656.477 527.032 685.06 525.925 725.506 505.122 z" fill="rgb(153,172,147)" transform="translate(0,0)"></path>
<path d="M 642.579 536.385 C 647.752 535.593 652.435 535.934 657.662 536.07 C 643.498 541.448 611.615 544.154 595.431 545.55 C 554.956 549.041 515.649 555.735 477.721 570.915 C 469.436 574.231 456.683 581.363 448.539 585.654 C 444.941 587.852 444.357 588.277 440.411 589.548 C 444.719 584.702 456.116 578.045 461.835 574.779 C 517.853 542.792 580.63 544.209 642.579 536.385 z" fill="url(#Gradient5)" transform="translate(0,0)"></path>
<path d="M 363.759 339.909 C 363.81 341.525 363.979 341.111 363.433 342.453 C 355.23 362.616 348.633 382.647 348.634 404.664 C 348.635 431.036 358.517 453.607 365.297 478.435 C 374.077 510.583 379.626 549.843 377.299 583.169 C 376.388 596.214 372.851 612.58 370.141 625.46 C 367.954 635.852 365.226 650.047 361.34 659.658 L 360.047 647.587 C 360.093 630.996 359.71 615.711 356.603 599.307 C 346.822 547.678 319.045 497.104 318.782 444.246 C 318.576 402.765 334.494 368.792 363.759 339.909 z" fill="rgb(153,172,147)" transform="translate(0,0)"></path>
<path d="M 338.333 397.292 L 339.701 397.899 C 341.679 400.886 340.136 415.68 340.023 419.984 C 339.296 447.703 347.113 474.082 353.55 500.755 C 363.764 543.075 372.683 588.583 366.532 632.171 L 365.564 630.924 C 365.315 618.388 365.469 605.816 365.025 593.288 C 364.795 586.808 362.977 579.253 362.467 572.711 C 358.123 516.984 327.196 452.438 338.333 397.292 z" fill="rgb(76,8,0)" transform="translate(0,0)"></path>
<path d="M 532.459 416.058 C 539.303 394.293 546.127 370.653 548.861 348.035 C 558.09 271.704 560.582 203.767 630.575 156.218 C 616.041 185.772 609.361 203.534 602.713 236.476 C 598.042 259.621 594.039 288.01 587.499 310.091 C 579.286 337.821 561.818 371.273 548.401 397.582 L 546.713 395.855 L 543.036 403.144 C 540.625 407.996 538.42 412.678 534.645 416.667 L 532.459 416.058 z" fill="rgb(153,172,147)" transform="translate(0,0)"></path>
<path d="M 541.715 401.555 C 551.809 382.152 560.946 352.696 565.139 331.231 C 572.334 294.39 571.388 258.02 587.361 222.928 C 592.202 212.295 593.203 204.038 602.484 195.368 L 603.169 196.016 C 601.037 203.775 595.869 213.062 592.538 220.558 C 578.394 252.386 577.345 284.607 572.221 318.215 C 568.502 342.605 557.483 373.281 546.713 395.855 L 543.036 403.144 L 541.715 401.555 z" fill="rgb(76,8,0)" transform="translate(0,0)"></path>
<path d="M 534.645 416.667 C 536.254 411.286 539.064 406.507 541.715 401.555 L 543.036 403.144 C 540.625 407.996 538.42 412.678 534.645 416.667 z" fill="rgb(87,85,67)" transform="translate(0,0)"></path>
<path d="M 513.378 449.572 C 531.749 411.457 542.302 370.875 546.195 328.861 C 552.888 256.608 564.853 190.493 631.7 149.064 C 632.019 152.495 632.366 153.255 630.575 156.218 C 560.582 203.767 558.09 271.704 548.861 348.035 C 546.127 370.653 539.303 394.293 532.459 416.058 L 534.645 416.667 C 538.42 412.678 540.625 407.996 543.036 403.144 L 546.713 395.855 L 548.401 397.582 C 545.462 403.322 535.695 419.806 535.545 424.727 C 534.79 426.868 533.854 428.52 532.683 430.46 L 533.359 432.815 C 530.499 436.423 521.888 448.435 519.728 450.812 C 517.882 448.259 518.82 448.93 516.052 447.732 L 513.378 449.572 z" fill="rgb(76,8,0)" transform="translate(0,0)"></path>
<path d="M 546.713 395.855 L 548.401 397.582 C 545.462 403.322 535.695 419.806 535.545 424.727 C 534.79 426.868 533.854 428.52 532.683 430.46 L 533.359 432.815 C 530.499 436.423 521.888 448.435 519.728 450.812 C 519.841 445.659 529.944 423.014 532.459 416.058 L 534.645 416.667 C 538.42 412.678 540.625 407.996 543.036 403.144 L 546.713 395.855 z" fill="rgb(153,172,147)" transform="translate(0,0)"></path>
<path d="M 521.151 456.437 C 525.165 453.707 528.888 450.647 532.785 447.766 C 556.478 430.256 583.309 413.303 610.506 401.809 C 634.477 391.907 659.38 384.433 684.842 379.501 C 717.878 372.831 752.577 367.745 784.779 357.391 C 794.798 354.169 810.108 345.397 820.294 340.486 C 819.919 341.658 819.105 344.476 818.655 345.454 C 762.165 382.04 692.623 376.44 629.982 399.409 C 598.95 410.787 574.864 423.721 547.443 442.156 C 538.847 447.935 528.203 456.835 520.267 461.831 C 518.909 458.928 518.996 460.068 519.055 457.137 L 521.151 456.437 z" fill="rgb(76,8,0)" transform="translate(0,0)"></path>
<path d="M 631.7 149.064 C 634.386 147.053 635.238 146.07 638.573 145.507 L 640.222 146.756 C 640.802 151.769 633.671 162.201 631.182 167.045 C 625.919 177.38 621.455 188.102 617.83 199.118 C 607.307 231.099 604.195 259.257 597.746 291.422 C 589.627 331.918 559.175 389.785 535.545 424.727 C 535.695 419.806 545.462 403.322 548.401 397.582 C 561.818 371.273 579.286 337.821 587.499 310.091 C 594.039 288.01 598.042 259.621 602.713 236.476 C 609.361 203.534 616.041 185.772 630.575 156.218 C 632.366 153.255 632.019 152.495 631.7 149.064 z" fill="url(#Gradient4)" transform="translate(0,0)"></path>
<path d="M 1007.58 231.588 C 1014.85 232.41 1021.05 238.513 1024.27 244.759 C 1044.35 283.631 1045.35 323.641 1035.79 365.223 C 1059.67 332.566 1074.9 299.578 1109.22 275.178 C 1117.44 269.335 1144.57 250.399 1153.99 251.681 C 1162 257.736 1156.03 268.438 1152.45 275.909 C 1132.31 317.853 1074.84 358.63 1031.96 373.916 C 1027.3 387.534 998.794 422.933 988.904 435.5 C 1005.66 424.321 1017.62 414.388 1036.45 405.201 C 1053.35 396.948 1133.13 377.486 1141.02 395.123 C 1139.08 407.109 1110.4 418.019 1100.33 422.021 C 1058.96 438.453 1014.82 443.75 972.003 454.178 C 968.487 455.035 961.298 463.022 958.892 466.022 C 949.829 477.324 940.483 486.542 929.296 495.69 C 969.079 479.819 1006.47 466.4 1049.82 477.824 C 1056.87 479.681 1065.1 480.648 1069.85 486.626 C 1072.26 508.267 943.67 520.087 927.238 521.842 C 917.609 522.875 908.992 523.742 899.277 524.238 L 899.638 523.913 C 876.022 543.893 804.621 597.286 777.646 606.347 C 787.026 596.56 798.576 590.616 809.611 583.246 C 820.461 576.009 887.31 533.446 886.054 522.872 C 882.703 503.306 877.881 485.616 876.279 465.584 C 874.868 447.95 876.44 380.414 891.535 372.849 C 893.917 373.488 895.4 373.762 896.844 376.518 C 900.306 383.124 902.488 394.6 904.105 402.038 C 910.248 430.299 911.017 459.228 904.038 487.402 C 901.356 498.232 897.261 508.46 894.907 519.643 L 894.613 521.074 C 908.109 510.787 947.468 474.619 955.855 460.823 C 955.555 446.933 954.993 435.253 952.946 421.399 C 947.594 385.169 922.739 307.382 950.078 278.217 C 955.357 284.987 958.271 289.933 961.284 298.044 C 979.767 347.807 989.403 402.487 968.065 452.392 C 991.804 423.071 1003.72 408.3 1024.66 376.474 C 1009.5 348.339 982.903 257.899 1007.58 231.588 z" fill="rgb(254,253,247)" transform="translate(0,0)"></path>
<path d="M 1006.66 479.395 C 1025.83 477.483 1049.43 479.681 1067.1 488.092 C 1039.59 503.392 993.122 509.307 961.5 513.51 C 943.258 515.927 923.176 517.528 904.704 519.44 C 930.904 494.691 971.304 482.579 1006.66 479.395 z" fill="rgb(245,233,216)" transform="translate(0,0)"></path>
<path d="M 1150.02 256.913 C 1151.61 257.446 1150.9 257.192 1152.22 258.964 C 1152.29 260.965 1152.32 262.595 1151.6 264.515 C 1134.01 311.342 1086.22 341.742 1044.97 363.167 L 1044.05 362.849 L 1044.06 361.693 C 1054.15 348.269 1059.04 339.225 1068 325.638 C 1086.34 297.806 1118.17 268.472 1150.02 256.913 z" fill="rgb(245,233,216)" transform="translate(0,0)"></path>
<path d="M 949.188 285.369 C 951.586 287.109 952.892 289.338 954.018 292.054 C 974.139 340.597 981.893 398.028 963.956 447.617 L 961.891 450.795 L 960.592 451.02 C 959.225 437.933 958.259 428.148 956.222 415.108 C 949.665 373.123 934.667 326.6 949.188 285.369 z" fill="rgb(245,233,216)" transform="translate(0,0)"></path>
<path d="M 1124.6 393.478 C 1128.22 393.532 1131.22 393.337 1133.97 395.655 C 1134.25 397.201 1134.69 397.763 1133.7 398.629 C 1104.95 423.825 1026.35 436.191 992.769 443.936 C 987.725 445.364 982.346 446.418 977.204 447.532 C 1001.17 433.727 1020.41 415.998 1046.7 406.63 C 1073.26 397.167 1096.88 394.435 1124.6 393.478 z" fill="rgb(245,233,216)" transform="translate(0,0)"></path>
<path d="M 1008.21 237.265 C 1022.38 243.243 1027.81 266.551 1031.35 280.132 C 1038.7 308.406 1037.29 338.92 1028.24 366.666 L 1026.64 367.168 C 1013 335.688 991.726 269.653 1008.21 237.265 z" fill="rgb(245,233,216)" transform="translate(0,0)"></path>
<path d="M 892.113 378.779 C 898.026 385.312 899.794 401.974 901.432 410.392 C 909.005 449.307 902.124 475.628 891.675 512.377 L 890.436 512.356 C 889.251 509.109 888.209 505.813 887.313 502.476 C 879.376 473.168 877.426 404.516 892.113 378.779 z" fill="rgb(245,233,216)" transform="translate(0,0)"></path>
<path d="M 1832.41 0 L 1839.89 0 L 2048 0 L 2048 294.664 L 2048 301.33 C 2009.45 321.788 1980.93 333.832 1937.34 342.044 C 1924.31 344.499 1905.48 344.765 1895.12 347.442 C 1883.26 350.505 1812.79 378.175 1804.6 378.006 C 1803.38 375.692 1803.72 376.894 1803.52 374.422 C 1803.66 371.173 1803.98 369.849 1802.66 366.849 C 1799.26 366.089 1799.22 366.975 1795.18 368.797 C 1783.83 373.639 1771.63 378.201 1760.01 382.561 C 1668.94 416.718 1583.93 464.249 1493.41 499.323 C 1487.79 501.497 1475.7 505.627 1470.97 508.59 C 1487.15 527.133 1475.96 534.31 1456.66 540.878 C 1427.88 550.677 1404.5 550.159 1377.01 537.178 C 1370.09 544.458 1357.48 554.23 1349.41 560.232 C 1361.93 579.508 1373.22 594.143 1371.91 618.123 C 1364.7 629.142 1350 644.04 1340.82 653.717 C 1327.7 667.735 1314.48 681.655 1301.16 695.475 C 1261.19 736.309 1221.84 777.744 1183.13 819.767 C 1145.61 857.874 1108.96 896.695 1071.66 934.983 C 1055.55 951.513 1038.56 969.88 1019.97 983.443 C 1001.39 997.009 980.966 986.434 962.144 981.475 C 956.64 986.541 950.903 991.584 945.505 996.738 C 924.949 1016.37 902.132 1032.53 879.185 1049.24 C 897.428 1055.4 917.948 1061.84 935.402 1069.53 C 1042.28 1116.59 1129.24 1190.94 1183.25 1294.95 C 1247.04 1437.97 1191.36 1521.13 1056.03 1579.47 C 960.255 1620.76 861.278 1639.8 757.778 1648.74 C 645.753 1657.14 540.583 1655.83 429.44 1635.74 C 355.446 1622.36 243.467 1597.75 198.077 1532.18 C 168.297 1488.11 160.726 1424.77 170.631 1373.63 C 194.46 1250.61 285.057 1147.44 393.295 1088.79 C 517.906 1021.26 683.008 1001.07 821.501 1027.08 C 846.705 980.07 861.54 959.009 899.647 920.856 C 880.484 893.934 875.495 873.589 900.883 847.761 C 944.14 803.997 985.807 757.989 1028.93 713.907 L 1133.58 606.122 C 1156.12 583.11 1185.51 554.334 1206.36 530.111 C 1201.4 489.808 1228.34 446.602 1248.87 414.096 C 1298.85 334.944 1387.83 323.867 1473.18 320.375 C 1495.44 319.464 1520.49 321.582 1542.04 315.284 C 1557.76 310.549 1571.09 301.084 1585.29 293.52 C 1631.9 268.69 1671.48 235.79 1713.86 205.042 C 1710.9 203.322 1709.24 202.626 1706.07 201.297 C 1703.78 199.59 1703.76 199.766 1702.4 197.306 C 1702.58 185.348 1760.24 143.853 1771.49 131.892 L 1770.03 130.436 C 1766.28 130.876 1766.13 131.062 1762.31 130.271 C 1756.8 124.38 1760.28 105.857 1761.79 98.1348 C 1767.89 66.7528 1791.47 42.7003 1812.99 20.6656 C 1819.44 14.0679 1826.89 7.2923 1832.41 0 z" fill="rgb(68,2,0)" transform="translate(0,0)"></path>
<path d="M 1222.17 521.43 C 1263.32 526.656 1298.23 554.826 1323.74 586.271 C 1339.58 605.797 1340.14 615.593 1349.39 636.243 C 1338.6 648.13 1327.07 659.216 1315.99 670.873 C 1289.66 698.904 1263.16 726.776 1236.49 754.488 C 1182.11 811.451 1128.31 869.074 1073.22 925.473 C 1059.57 939.453 1044.42 953.004 1031.32 966.577 C 1031.25 935.824 1019.51 911.938 997.855 890.198 C 981.241 873.523 946.02 848.467 921.417 848.892 C 914.07 849.668 908.128 850.015 900.883 847.761 C 944.14 803.997 985.807 757.989 1028.93 713.907 L 1133.58 606.122 C 1156.12 583.11 1185.51 554.334 1206.36 530.111 C 1207.73 531.419 1208.94 532.772 1210.52 533.743 C 1214.33 529.534 1218.01 525.289 1222.17 521.43 z" fill="rgb(245,233,216)" transform="translate(0,0)"></path>
<path d="M 1206.36 530.111 C 1207.73 531.419 1208.94 532.772 1210.52 533.743 C 1190.58 556.22 1167.41 579.415 1146.33 600.969 L 1054.48 695.173 C 1022.64 728.176 991.005 761.369 959.565 794.75 C 943.197 811.995 925.266 831.612 908.412 848.078 C 911.921 848.217 918.188 848.276 921.417 848.892 C 914.07 849.668 908.128 850.015 900.883 847.761 C 944.14 803.997 985.807 757.989 1028.93 713.907 L 1133.58 606.122 C 1156.12 583.11 1185.51 554.334 1206.36 530.111 z" fill="rgb(76,8,0)" transform="translate(0,0)"></path>
<path d="M 1720.47 207.54 C 1757.82 234.262 1776.05 265.472 1792.64 307.078 C 1798.61 325.708 1801.06 339.162 1802.03 358.861 L 1792.62 363.947 L 1796.79 364.911 L 1797.19 366.226 L 1795.18 368.797 C 1783.83 373.639 1771.63 378.201 1760.01 382.561 C 1668.94 416.718 1583.93 464.249 1493.41 499.323 C 1487.79 501.497 1475.7 505.627 1470.97 508.59 L 1466.6 509.743 L 1464.67 510.139 C 1457.29 511.711 1448.22 515.366 1440.73 517.334 C 1420.12 522.746 1396.64 529.216 1375.35 525.948 C 1366.92 522.544 1361.35 514.056 1364.38 504.905 C 1367.48 495.554 1372.56 492.511 1380.87 488.334 C 1382.04 486.485 1389.66 482.733 1391.88 481.562 L 1392.31 483.547 C 1389.3 485.033 1390.25 483.925 1388.58 486.38 C 1390.7 487.302 1393.69 486.073 1396.19 485.245 L 1396.7 485.439 C 1412.6 476.164 1431.86 468.056 1445.39 455.875 C 1457.83 444.676 1441.78 428.862 1431.99 423.043 C 1404.4 406.64 1371.82 410.715 1343.62 423.185 C 1305.16 440.187 1266.54 463.25 1238.75 495.21 C 1221.17 499.127 1225.06 509.213 1212.95 521.908 L 1211.81 523.09 C 1211.45 519.17 1211.04 512.955 1211.98 509.131 C 1227.25 447.122 1266.26 381.02 1325.74 352.894 C 1348.52 342.122 1370.32 337.636 1393.67 333.415 C 1419.4 328.882 1445.42 326.117 1471.53 325.139 C 1490.03 324.604 1527.62 326.311 1543.41 320.264 C 1605.99 296.305 1667.66 246.46 1720.47 207.54 z" fill="rgb(223,161,130)" transform="translate(0,0)"></path>
<path d="M 1552.8 469.23 C 1615.57 439.323 1678.38 408.83 1743.08 383.209 C 1759.59 376.673 1776.19 370.777 1792.62 363.947 L 1796.79 364.911 L 1797.19 366.226 L 1795.18 368.797 C 1783.83 373.639 1771.63 378.201 1760.01 382.561 C 1668.94 416.718 1583.93 464.249 1493.41 499.323 C 1487.79 501.497 1475.7 505.627 1470.97 508.59 L 1466.6 509.743 L 1464.67 510.139 C 1457.29 511.711 1448.22 515.366 1440.73 517.334 C 1420.12 522.746 1396.64 529.216 1375.35 525.948 C 1366.92 522.544 1361.35 514.056 1364.38 504.905 C 1367.48 495.554 1372.56 492.511 1380.87 488.334 C 1382.04 486.485 1389.66 482.733 1391.88 481.562 L 1392.31 483.547 C 1389.3 485.033 1390.25 483.925 1388.58 486.38 C 1390.7 487.302 1393.69 486.073 1396.19 485.245 L 1396.7 485.439 C 1415 489.212 1438.37 501.168 1415.05 518.324 C 1452.02 510.211 1492.16 494.702 1526.41 478.619 C 1549.71 467.674 1577.04 446.858 1586.95 422.578 C 1588.81 418.019 1588.53 403.549 1591.33 400.535 L 1593.1 401.19 C 1593.45 401.957 1593.91 402.804 1593.92 403.672 C 1594.51 432.951 1573.88 452.37 1552.8 469.23 z" fill="rgb(51,0,0)" transform="translate(0,0)"></path>
<path d="M 1391.88 481.562 L 1392.31 483.547 C 1389.3 485.033 1390.25 483.925 1388.58 486.38 C 1390.7 487.302 1393.69 486.073 1396.19 485.245 L 1396.7 485.439 C 1415 489.212 1438.37 501.168 1415.05 518.324 C 1410.76 520.703 1395.42 521.978 1390.9 521.042 C 1383.38 521.373 1370.31 522.023 1369.87 510.917 C 1369.57 503.269 1374.67 499.542 1379.5 494.544 C 1381.11 491.485 1382.86 491.052 1386.1 488.961 L 1385.62 488.058 C 1383.38 488.3 1384.13 488.271 1382.14 488.316 L 1380.87 488.334 C 1382.04 486.485 1389.66 482.733 1391.88 481.562 z" fill="rgb(245,233,216)" transform="translate(0,0)"></path>
<path d="M 1391.88 481.562 L 1392.31 483.547 C 1389.3 485.033 1390.25 483.925 1388.58 486.38 C 1390.7 487.302 1393.69 486.073 1396.19 485.245 L 1396.7 485.439 C 1415 489.212 1438.37 501.168 1415.05 518.324 C 1410.76 520.703 1395.42 521.978 1390.9 521.042 C 1441.5 509.189 1410.75 481.234 1379.5 494.544 C 1381.11 491.485 1382.86 491.052 1386.1 488.961 L 1385.62 488.058 C 1383.38 488.3 1384.13 488.271 1382.14 488.316 L 1380.87 488.334 C 1382.04 486.485 1389.66 482.733 1391.88 481.562 z" fill="rgb(68,2,0)" transform="translate(0,0)"></path>
<path d="M 1839.89 0 L 2048 0 L 2048 294.664 C 1999.85 319.054 1951.47 339.803 1896.15 340.039 C 1907.4 255.228 1845.76 152.13 1765.15 124.04 C 1763.5 78.1148 1787.85 52.4792 1818.46 21.7666 C 1824.44 15.77 1835.77 6.83142 1839.89 0 z" fill="rgb(254,253,247)" transform="translate(0,0)"></path>
<path d="M 1310.92 522.273 C 1328.34 473.49 1376.02 454.977 1410.68 419.849 C 1427.61 424.608 1460.28 440.803 1433.7 458.936 C 1420.95 467.633 1404.9 473.001 1391.88 481.562 C 1389.66 482.733 1382.04 486.485 1380.87 488.334 C 1372.56 492.511 1367.48 495.554 1364.38 504.905 C 1361.35 514.056 1366.92 522.544 1375.35 525.948 C 1375.56 527.182 1376.18 530.279 1376.13 531.352 C 1365.1 537.67 1360.35 547.206 1344.99 554.255 C 1332.62 541.357 1325.56 533.009 1310.92 522.273 z" fill="rgb(245,233,216)" transform="translate(0,0)"></path>
<path d="M 1796.04 302.163 C 1795.62 299.851 1795.68 299.887 1795.64 297.538 C 1801.26 292.932 1870.12 266.79 1883.01 260.925 C 1886.91 270.768 1888.76 281.658 1890.9 292.05 C 1890.26 294.892 1890.05 295.378 1888.32 297.727 C 1888.99 297.924 1890.06 298.307 1890.69 298.356 C 1891.92 306.604 1892.08 313.213 1892.37 321.586 C 1865.18 332.269 1836.98 341.714 1810.16 353.02 L 1810.81 355.178 C 1813.52 355.456 1814.73 355.084 1817.42 354.64 C 1806.83 359.42 1808.29 361.001 1809.06 371.836 L 1803.52 374.422 C 1803.66 371.173 1803.98 369.849 1802.66 366.849 C 1799.26 366.089 1799.22 366.975 1795.18 368.797 L 1797.19 366.226 L 1796.79 364.911 L 1792.62 363.947 L 1802.03 358.861 C 1801.06 339.162 1798.61 325.708 1792.64 307.078 C 1793.86 303.626 1792.02 302.595 1793.49 299.975 L 1796.04 302.163 z" fill="rgb(254,253,247)" transform="translate(0,0)"></path>
<path d="M 1804.76 329.405 C 1833.67 320.533 1862.52 309.349 1890.69 298.356 C 1891.92 306.604 1892.08 313.213 1892.37 321.586 C 1865.18 332.269 1836.98 341.714 1810.16 353.02 C 1805.44 348.035 1805.24 336.195 1804.76 329.405 z" fill="rgb(254,253,247)" transform="translate(0,0)"></path>
<path d="M 1890.9 292.05 C 1890.26 294.892 1890.05 295.378 1888.32 297.727 C 1888.99 297.924 1890.06 298.307 1890.69 298.356 C 1862.52 309.349 1833.67 320.533 1804.76 329.405 C 1805.24 336.195 1805.44 348.035 1810.16 353.02 L 1810.81 355.178 C 1813.52 355.456 1814.73 355.084 1817.42 354.64 C 1806.83 359.42 1808.29 361.001 1809.06 371.836 L 1803.52 374.422 C 1803.66 371.173 1803.98 369.849 1802.66 366.849 C 1799.26 366.089 1799.22 366.975 1795.18 368.797 L 1797.19 366.226 L 1796.79 364.911 L 1792.62 363.947 L 1802.03 358.861 C 1801.06 339.162 1798.61 325.708 1792.64 307.078 C 1793.86 303.626 1792.02 302.595 1793.49 299.975 L 1796.04 302.163 C 1798.22 307.431 1801.15 318.053 1802.95 323.861 C 1822.72 319.467 1871.48 300.217 1890.9 292.05 z" fill="rgb(76,8,0)" transform="translate(0,0)"></path>
<path d="M 1709.02 195.049 C 1713.66 185.882 1767.78 142.17 1778.58 134.667 C 1787.83 139.688 1794.12 143.713 1802.79 149.476 C 1785.61 162.133 1764.85 173.456 1746.78 185.07 C 1740.73 188.958 1726.78 197.042 1721.71 201.509 C 1717.05 199.329 1713.56 197.59 1709.02 195.049 z" fill="rgb(254,253,247)" transform="translate(0,0)"></path>
<path d="M 1375.35 525.948 C 1396.64 529.216 1420.12 522.746 1440.73 517.334 C 1448.22 515.366 1457.29 511.711 1464.67 510.139 L 1466.6 509.743 C 1472.98 520.374 1478.53 526.048 1463.16 532.369 C 1443.75 540.349 1421.84 544.06 1401.06 540.113 C 1394.54 538.796 1382.76 533.866 1376.13 531.352 C 1376.18 530.279 1375.56 527.182 1375.35 525.948 z" fill="rgb(223,161,130)" transform="translate(0,0)"></path>
<path d="M 1890.87 328.228 C 1891.22 332.413 1892.32 341.491 1888.89 343.314 C 1869.26 353.729 1827.97 363.64 1809.06 371.836 C 1808.29 361.001 1806.83 359.42 1817.42 354.64 C 1833.3 351.126 1873.44 334.447 1890.87 328.228 z" fill="rgb(254,253,247)" transform="translate(0,0)"></path>
<path d="M 1709.02 195.049 C 1713.56 197.59 1717.05 199.329 1721.71 201.509 C 1718.52 203.394 1717.54 204.2 1713.86 205.042 C 1710.9 203.322 1709.24 202.626 1706.07 201.297 C 1707.76 198.489 1707.98 198.297 1709.02 195.049 z" fill="rgb(76,8,0)" transform="translate(0,0)"></path>
<path d="M 680.086 1022.57 C 715.649 1019.65 785.629 1023.45 820.053 1032.68 C 813.932 1041.92 803.026 1051.57 800.086 1062 C 797.581 1070.89 813.495 1085.22 822.549 1080.88 C 831.097 1076.77 838.359 1069.01 844.998 1062.45 C 858.16 1060.53 860.63 1059.33 872.614 1053.22 C 911.984 1062.65 968.825 1090.75 1003.46 1111.25 C 866.326 1081.62 719.988 1077.24 591.724 1141.39 C 494.569 1189.97 414.429 1263.7 378.926 1368.8 C 373.593 1384.59 358.637 1446.47 365.39 1460.05 L 366.829 1460.42 C 370.518 1455.04 372.014 1420.67 373.792 1411.45 C 411.657 1215.05 623.676 1095.16 811.926 1096.33 C 868.543 1096.81 925.011 1102.19 980.7 1112.42 C 989.481 1114 1010.98 1117.44 1017.97 1121.5 C 1048 1138.96 1078.16 1166.43 1102.19 1190.85 C 1233.94 1338.03 1259.91 1490.51 1050.76 1575.34 C 934.851 1622.35 828.885 1639.95 703.968 1646.9 C 671.349 1648.79 638.662 1649.23 606.004 1648.22 C 502.941 1644.69 303.159 1623.89 224.426 1552.72 C 189.286 1520.95 175.366 1477.85 173.099 1431.52 C 168.78 1343.24 213.399 1254.39 272 1190.31 C 379.149 1073.16 525.555 1029.46 680.086 1022.57 z" fill="rgb(245,233,216)" transform="translate(0,0)"></path>
<path d="M 937.584 901.118 C 962.141 899.306 989.096 930.968 980.866 946.215 C 960.385 984.154 901.931 1029.76 864.66 1051.04 C 858.836 1054.57 853.234 1055.22 846.68 1056.35 C 835.156 1050.67 820.668 1042.47 828 1027.37 C 846.594 989.06 872.397 953.543 904.199 925.12 C 914.701 915.734 924.71 906.991 937.584 901.118 z" fill="rgb(245,233,216)" transform="translate(0,0)"></path>
<path d="M 913.511 854.316 C 950.653 854.588 995.773 886.237 1013.34 918.268 C 1039.57 966.102 1024.98 998.268 966.502 976.826 C 973.936 968.346 986.581 955.29 987.937 944.047 C 990.426 923.412 965.119 896.867 945.391 894.442 C 931.002 892.674 914.964 907.962 904.581 916.69 C 897.213 908.973 892.291 899.25 890.436 888.742 C 887.31 870.086 893.895 856.499 913.511 854.316 z" fill="rgb(245,233,216)" transform="translate(0,0)"></path>
<path d="M 1238.78 500.197 C 1293.63 501.512 1358.1 560.386 1367.61 614.027 C 1363.48 621.266 1358.78 625.893 1353.23 632.009 C 1347.6 615.904 1342.37 602.589 1332.3 588.651 C 1305.43 551.484 1269.58 524.087 1223.94 516.268 C 1227.97 507.057 1229.74 504.085 1238.78 500.197 z" fill="rgb(245,233,216)" transform="translate(0,0)"></path>
<path d="M 1861.92 218.915 C 1868.22 221.642 1878.02 248.763 1880.81 256.13 C 1853.57 268.218 1823.24 279.517 1795.25 291.49 L 1794.36 291.828 C 1790.66 290.386 1780.63 267.909 1778.11 262.769 C 1802.55 251.497 1839.14 227.21 1861.92 218.915 z" fill="rgb(254,253,247)" transform="translate(0,0)"></path>
<path d="M 1837.38 182.193 C 1845.15 189.742 1853.85 203.881 1859.18 213.268 C 1834.83 227.851 1801.08 244.876 1775.52 258.981 C 1769.06 249.237 1760.52 238.666 1753.31 229.297 C 1764.49 221.983 1778.33 214.963 1790.22 208.488 C 1806 199.831 1821.72 191.066 1837.38 182.193 z" fill="rgb(254,253,247)" transform="translate(0,0)"></path>
<path d="M 1380.86 418.36 C 1387.39 417.209 1398.15 418.143 1404.71 418.76 C 1395.84 428.8 1366.88 448.821 1354.36 459.744 C 1323.72 451.614 1289.65 476.028 1269.66 496.71 L 1267.71 498.592 C 1264.2 499.263 1250.53 495.87 1246.25 494.974 C 1277.92 463.072 1336.16 424.652 1380.86 418.36 z" fill="rgb(237,202,172)" transform="translate(0,0)"></path>
<path d="M 1807.15 154.682 C 1812.62 154.932 1828.92 172.589 1833.71 177.292 C 1806.67 193.515 1777.51 208.063 1751.49 224.318 L 1750.24 224.715 C 1748.02 224.308 1728.84 207.199 1725.54 204.578 C 1751.72 188.547 1780.74 169.234 1807.15 154.682 z" fill="rgb(254,253,247)" transform="translate(0,0)"></path>
<path d="M 1346.79 464.526 L 1347.12 464.766 C 1347.07 466.711 1339 472.868 1336.81 474.91 C 1321.44 489.184 1313.66 500.199 1305.51 519.245 C 1300.6 515.919 1294.02 512.223 1288.82 509.134 C 1302.12 493.967 1318.05 483.621 1334.6 472.771 L 1334.99 470.07 C 1320.74 470.249 1293.39 495.575 1284.13 506.635 L 1272.12 501.046 C 1295.3 478.691 1314.22 465.187 1346.79 464.526 z" fill="rgb(237,202,172)" transform="translate(0,0)"></path>
<path d="M 821.683 1040.94 L 822.196 1041.55 C 822.413 1048.99 833.603 1056.29 839.245 1060.09 C 833.647 1066.42 828.488 1070.42 821.683 1075.23 C 817.473 1075.83 815.91 1075.11 812.143 1073.04 C 797.055 1064.77 814.638 1049.15 821.683 1040.94 z" fill="rgb(245,233,216)" transform="translate(0,0)"></path>
<path d="M 1803.52 374.422 C 1803.72 376.894 1803.38 375.692 1804.6 378.006 C 1812.79 378.175 1883.26 350.505 1895.12 347.442 C 1905.48 344.765 1924.31 344.499 1937.34 342.044 C 1980.93 333.832 2009.45 321.788 2048 301.33 L 2048 1249.7 C 2040.64 1237.26 2032.27 1223.74 2021.48 1213.93 C 1963.81 1162.57 1880.63 1149.92 1807.47 1135.53 C 1771.19 1128.39 1738.8 1120.82 1701.87 1119.22 C 1689.27 1118.67 1677.28 1116.67 1664.54 1117 C 1667.81 1094.03 1661.35 1058.66 1650.03 1037.18 C 1648.84 1034.92 1646.89 1034.61 1644.85 1034.39 C 1639.09 1037.34 1636.54 1042.81 1632.89 1047.85 C 1618.96 1067.09 1610.22 1084.34 1602.79 1106.9 C 1597.22 1101.76 1564.89 1098.78 1556.1 1098.01 C 1579.29 1051.88 1598.17 1004.61 1578.92 955.188 C 1575.92 947.471 1573.68 936.36 1567.43 930.752 C 1565.65 930.486 1564.67 930.099 1563.21 931.704 C 1543.65 953.186 1526.45 990.069 1523.85 1018.49 C 1521.02 1049.47 1527.99 1080.72 1534.13 1109.89 C 1514.06 1088.48 1493.78 1067.02 1472.17 1047.13 C 1471.47 1037.14 1464.65 1026.75 1460.36 1018.15 C 1432.35 962.112 1374.11 935.294 1313.78 932.347 C 1311.69 932.245 1311.56 932.844 1310.04 933.975 C 1309.26 945.98 1338.19 984.376 1346.15 994.343 C 1370.18 1024.45 1432.77 1050.31 1471.01 1053.94 C 1495.83 1077.81 1514.57 1098.01 1537.86 1122.75 C 1503.28 1105.13 1458.2 1095.93 1420.41 1106.98 C 1416.66 1098.34 1368.46 1074.66 1358.12 1062.1 C 1348.21 1050.07 1336.57 1035.79 1326.76 1023.39 C 1288.65 975.216 1256.87 923.079 1220.75 873.447 C 1210.44 859.348 1196.58 828.665 1183.13 819.767 C 1221.84 777.744 1261.19 736.309 1301.16 695.475 C 1314.48 681.655 1327.7 667.735 1340.82 653.717 C 1350 644.04 1364.7 629.142 1371.91 618.123 C 1373.22 594.143 1361.93 579.508 1349.41 560.232 C 1357.48 554.23 1370.09 544.458 1377.01 537.178 C 1404.5 550.159 1427.88 550.677 1456.66 540.878 C 1475.96 534.31 1487.15 527.133 1470.97 508.59 C 1475.7 505.627 1487.79 501.497 1493.41 499.323 C 1583.93 464.249 1668.94 416.718 1760.01 382.561 C 1771.63 378.201 1783.83 373.639 1795.18 368.797 C 1799.22 366.975 1799.26 366.089 1802.66 366.849 C 1803.98 369.849 1803.66 371.173 1803.52 374.422 z" fill="rgb(245,233,216)" transform="translate(0,0)"></path>
<path d="M 1664.54 1117 C 1677.28 1116.67 1689.27 1118.67 1701.87 1119.22 C 1738.8 1120.82 1771.19 1128.39 1807.47 1135.53 C 1880.63 1149.92 1963.81 1162.57 2021.48 1213.93 C 2032.27 1223.74 2040.64 1237.26 2048 1249.7 L 2048 2048 L 1695.57 2048 C 1701.58 2035.23 1707.76 2022.54 1714.11 2009.94 C 1735.02 2000.84 1753.79 1998.51 1775.55 1993.67 C 1804.89 1987.14 1839.39 1975.17 1864.83 1959.64 C 1896.77 1940.4 1919.83 1909.36 1929.04 1873.24 C 1849.01 1914.11 1793.98 1886.65 1729.17 1974.53 C 1746.12 1926.89 1753.96 1894.9 1764.68 1845.75 C 1780.8 1834.55 1794.39 1825.61 1811.95 1816.52 C 1835.08 1804.53 1865.32 1792.68 1885.51 1776.5 C 1914.64 1753.14 1939.5 1714.9 1944.14 1677.47 C 1932.28 1682.31 1919.17 1690.19 1907.08 1695.44 C 1894.83 1700.75 1881.78 1705.47 1869.45 1710.51 C 1816.51 1732.18 1795.41 1751.43 1773.54 1803.83 L 1771.56 1801.34 C 1775.96 1767.5 1777.61 1716.14 1775.38 1681.98 C 1804.75 1658.95 1832.34 1636.54 1859.16 1610.36 C 1896.65 1573.75 1908.08 1534.39 1908.01 1482.92 C 1904.17 1485.9 1901.78 1488.32 1898.38 1491.7 C 1850.29 1528.82 1807.41 1554.5 1784.49 1615.82 C 1781.23 1624.55 1777.47 1634.72 1775.78 1643.81 L 1773.89 1643.24 C 1769.79 1598.55 1762.32 1554.23 1751.56 1510.66 C 1757.92 1500.74 1772.3 1485.94 1780.8 1477.04 C 1800.45 1456.47 1821.87 1435.51 1838.02 1411.82 C 1857.69 1382.97 1862.81 1344.67 1856.38 1310.74 C 1855.56 1306.39 1853.18 1296.21 1849.51 1293.97 C 1845.12 1297.25 1833.75 1319.78 1827.2 1324.99 C 1823.92 1327.59 1816.31 1337.89 1812.24 1341.66 C 1769.99 1380.84 1743.73 1421.57 1747.52 1481.52 L 1745.33 1485.78 C 1743.16 1479.79 1740.17 1467.4 1738.18 1460.64 C 1734.05 1446.86 1729.57 1433.18 1724.75 1419.62 C 1716.37 1396.07 1704.81 1372.4 1696.79 1348.97 C 1703.65 1333.57 1708.97 1318.63 1716.84 1303.26 C 1736.85 1264.15 1751.51 1250.75 1752 1205.61 C 1768.49 1206.7 1787.4 1211.19 1803.73 1214.25 C 1871.22 1226.94 1938.33 1249.34 1994.97 1289.01 C 2012.54 1301.32 2026.06 1314.66 2040.88 1329.78 C 2041.8 1330.72 2042.63 1330.18 2044.13 1330.03 L 2044.86 1328.43 C 2041.77 1320.16 2016.89 1297.98 2009.58 1292.41 C 1933.73 1234.6 1844.26 1214.36 1751.94 1199.62 C 1751.12 1185.89 1739.4 1133.01 1724.85 1130.59 C 1722.58 1132.47 1709.03 1162.98 1705.29 1169.32 C 1671.75 1226.21 1666.8 1259.65 1683.48 1322.88 C 1667.32 1288.89 1643.75 1256.67 1626.6 1223.24 C 1631.38 1213.72 1634.5 1201.94 1638.7 1192.24 C 1650.53 1164.92 1658.78 1146.8 1664.54 1117 z" fill="rgb(254,253,247)" transform="translate(0,0)"></path>
<path d="M 1534.13 1109.89 C 1527.99 1080.72 1521.02 1049.47 1523.85 1018.49 C 1526.45 990.069 1543.65 953.186 1563.21 931.704 C 1564.67 930.099 1565.65 930.486 1567.43 930.752 C 1573.68 936.36 1575.92 947.471 1578.92 955.188 C 1598.17 1004.61 1579.29 1051.88 1556.1 1098.01 C 1564.89 1098.78 1597.22 1101.76 1602.79 1106.9 C 1610.22 1084.34 1618.96 1067.09 1632.89 1047.85 C 1636.54 1042.81 1639.09 1037.34 1644.85 1034.39 C 1646.89 1034.61 1648.84 1034.92 1650.03 1037.18 C 1661.35 1058.66 1667.81 1094.03 1664.54 1117 C 1658.78 1146.8 1650.53 1164.92 1638.7 1192.24 C 1634.5 1201.94 1631.38 1213.72 1626.6 1223.24 C 1643.75 1256.67 1667.32 1288.89 1683.48 1322.88 C 1666.8 1259.65 1671.75 1226.21 1705.29 1169.32 C 1709.03 1162.98 1722.58 1132.47 1724.85 1130.59 C 1739.4 1133.01 1751.12 1185.89 1751.94 1199.62 C 1844.26 1214.36 1933.73 1234.6 2009.58 1292.41 C 2016.89 1297.98 2041.77 1320.16 2044.86 1328.43 L 2044.13 1330.03 C 2042.63 1330.18 2041.8 1330.72 2040.88 1329.78 C 2026.06 1314.66 2012.54 1301.32 1994.97 1289.01 C 1938.33 1249.34 1871.22 1226.94 1803.73 1214.25 C 1787.4 1211.19 1768.49 1206.7 1752 1205.61 C 1751.51 1250.75 1736.85 1264.15 1716.84 1303.26 C 1708.97 1318.63 1703.65 1333.57 1696.79 1348.97 C 1704.81 1372.4 1716.37 1396.07 1724.75 1419.62 C 1729.57 1433.18 1734.05 1446.86 1738.18 1460.64 C 1740.17 1467.4 1743.16 1479.79 1745.33 1485.78 L 1747.52 1481.52 C 1743.73 1421.57 1769.99 1380.84 1812.24 1341.66 C 1816.31 1337.89 1823.92 1327.59 1827.2 1324.99 C 1833.75 1319.78 1845.12 1297.25 1849.51 1293.97 C 1853.18 1296.21 1855.56 1306.39 1856.38 1310.74 C 1862.81 1344.67 1857.69 1382.97 1838.02 1411.82 C 1821.87 1435.51 1800.45 1456.47 1780.8 1477.04 C 1772.3 1485.94 1757.92 1500.74 1751.56 1510.66 C 1762.32 1554.23 1769.79 1598.55 1773.89 1643.24 L 1775.78 1643.81 C 1777.47 1634.72 1781.23 1624.55 1784.49 1615.82 C 1807.41 1554.5 1850.29 1528.82 1898.38 1491.7 C 1901.78 1488.32 1904.17 1485.9 1908.01 1482.92 C 1908.08 1534.39 1896.65 1573.75 1859.16 1610.36 C 1832.34 1636.54 1804.75 1658.95 1775.38 1681.98 C 1777.61 1716.14 1775.96 1767.5 1771.56 1801.34 L 1773.54 1803.83 C 1795.41 1751.43 1816.51 1732.18 1869.45 1710.51 C 1881.78 1705.47 1894.83 1700.75 1907.08 1695.44 C 1919.17 1690.19 1932.28 1682.31 1944.14 1677.47 C 1939.5 1714.9 1914.64 1753.14 1885.51 1776.5 C 1865.32 1792.68 1835.08 1804.53 1811.95 1816.52 C 1794.39 1825.61 1780.8 1834.55 1764.68 1845.75 C 1753.96 1894.9 1746.12 1926.89 1729.17 1974.53 C 1793.98 1886.65 1849.01 1914.11 1929.04 1873.24 C 1919.83 1909.36 1896.77 1940.4 1864.83 1959.64 C 1839.39 1975.17 1804.89 1987.14 1775.55 1993.67 C 1753.79 1998.51 1735.02 2000.84 1714.11 2009.94 C 1707.76 2022.54 1701.58 2035.23 1695.57 2048 L 1689.99 2048 C 1695.28 2034.8 1701.39 2023.64 1706.33 2009.63 C 1700.86 1999.48 1693.64 1991.64 1686.72 1982.8 C 1664.36 1954.26 1634.35 1930.41 1616.2 1899.04 C 1601.4 1873.4 1591.2 1844.25 1590.72 1814.42 C 1590.64 1809.5 1588.45 1800.55 1592.96 1798.14 C 1595.83 1798.76 1602.36 1807.23 1606.16 1809.64 C 1683.13 1858.42 1709.41 1893.55 1718.52 1985.32 C 1732.3 1952.63 1751.82 1884.98 1756.79 1849.6 C 1721.58 1809.02 1687.38 1796.79 1646.31 1765.41 C 1615.74 1742.05 1595.33 1705.35 1591.76 1666.69 C 1591.5 1663.82 1592.01 1663.04 1593.67 1661.42 C 1597.68 1661.82 1611.95 1671.15 1616.54 1673.28 C 1659.63 1693.3 1703.39 1718.3 1729.78 1759.23 C 1743.58 1780.64 1755.93 1810.91 1755.8 1836.8 L 1755.79 1838.09 L 1755.06 1840.71 L 1757.47 1845.57 C 1759.62 1841 1761.11 1829.03 1762.06 1823.18 C 1769.38 1778.42 1771.75 1732.99 1769.14 1687.71 C 1756.09 1681.54 1741.16 1666.56 1723.99 1658.58 C 1672.94 1634.86 1612.85 1626.2 1581.89 1573.15 C 1577.2 1565.11 1567.17 1540.68 1569.74 1531.9 L 1571.26 1531.18 C 1616.93 1548.09 1650.64 1546.67 1692.05 1576.03 C 1722.56 1597.65 1758.94 1638.91 1765.05 1676.51 L 1765.25 1677.87 L 1765.74 1679.41 L 1767.63 1681.2 L 1768.75 1679.49 C 1771.34 1637.62 1757.2 1560.34 1746.61 1519.28 C 1701.91 1488.38 1619.54 1492.91 1573.17 1463.37 C 1554.76 1451.64 1538.19 1430.7 1533.56 1409.08 C 1641.32 1408.58 1675.43 1414.34 1743.19 1505.14 C 1742.55 1498.97 1739.38 1487.78 1737.87 1481.44 C 1728.28 1441.17 1712.7 1404.09 1696.15 1366.34 C 1669.08 1359.43 1636.22 1355.57 1609.08 1353.61 C 1567.53 1350.59 1533.32 1350.53 1500.55 1321.46 C 1496.11 1317.52 1485.29 1310.46 1484.55 1304.24 C 1489.7 1300.94 1536.61 1292.41 1544.83 1291.34 C 1602.08 1283.88 1648.65 1319.92 1690.92 1354.77 C 1681.33 1331.26 1637.51 1248.52 1621.56 1231.72 C 1558.03 1231.45 1474 1277.96 1430.79 1207.91 C 1441.98 1206.34 1465.97 1199.12 1478.17 1196.05 C 1530.05 1182.97 1565.02 1195.25 1612.28 1216.26 C 1589.37 1187.57 1568.25 1159.05 1544.7 1130.25 C 1519.66 1144.41 1459.96 1155.04 1430.48 1158.86 C 1418.29 1160.44 1369.58 1145.94 1369.66 1132.34 C 1375.36 1124.78 1410.56 1110.1 1420.41 1106.98 C 1458.2 1095.93 1503.28 1105.13 1537.86 1122.75 C 1514.57 1098.01 1495.83 1077.81 1471.01 1053.94 C 1432.77 1050.31 1370.18 1024.45 1346.15 994.343 C 1338.19 984.376 1309.26 945.98 1310.04 933.975 C 1311.56 932.844 1311.69 932.245 1313.78 932.347 C 1374.11 935.294 1432.35 962.112 1460.36 1018.15 C 1464.65 1026.75 1471.47 1037.14 1472.17 1047.13 C 1493.78 1067.02 1514.06 1088.48 1534.13 1109.89 z" fill="rgb(68,2,0)" transform="translate(0,0)"></path>
<path d="M 1773.54 1803.83 C 1772.56 1807.55 1771.96 1807.22 1773.14 1810.1 C 1775.89 1808.46 1794.26 1773.24 1798.82 1766.59 C 1804.53 1758.27 1811.35 1750.77 1819.09 1744.29 C 1848.01 1719.98 1900.73 1706.3 1938.09 1685.54 C 1924.72 1730.09 1898.94 1768.13 1856.5 1788.57 C 1824.94 1803.76 1799.5 1816.93 1770.32 1836.63 C 1769.44 1837.91 1767.99 1838.76 1766.67 1839.76 L 1765.53 1839.18 C 1764.74 1835.65 1765.62 1833.85 1766.59 1830.36 C 1767.81 1821.83 1769.58 1809.69 1771.56 1801.34 L 1773.54 1803.83 z" fill="rgb(223,161,130)" transform="translate(0,0)"></path>
<path d="M 1927.82 1702.16 C 1917.1 1712.6 1887.08 1725.83 1872.75 1733.36 C 1860.72 1739.66 1849.34 1747.13 1838.79 1755.68 C 1816.76 1773.58 1799.99 1798.28 1782.6 1820.52 C 1779.3 1824.73 1777.32 1827.45 1773.23 1831.06 L 1771.69 1830.2 C 1791.98 1797.79 1822.74 1757.02 1855.57 1738.04 C 1875.26 1726.65 1906.41 1710.69 1927.82 1702.16 z" fill="rgb(68,2,0)" transform="translate(0,0)"></path>
<path d="M 1766.59 1830.36 L 1770.73 1823.42 L 1771.86 1823.29 C 1772.14 1826.34 1771.54 1828.16 1771.69 1830.2 L 1773.23 1831.06 C 1771.42 1833.57 1770.76 1833.79 1770.32 1836.63 C 1769.44 1837.91 1767.99 1838.76 1766.67 1839.76 L 1765.53 1839.18 C 1764.74 1835.65 1765.62 1833.85 1766.59 1830.36 z" fill="url(#Gradient3)" transform="translate(0,0)"></path>
<path d="M 1765.74 1679.41 C 1762.78 1678.04 1755.5 1672.21 1752.51 1670.02 C 1691.97 1625.71 1592.57 1629.4 1575.63 1539.18 C 1605.02 1548.73 1636.88 1551.89 1664.9 1566.21 C 1702.02 1585.18 1734.98 1616.34 1752.34 1654.6 C 1755.07 1660.64 1760.41 1674.17 1765.25 1677.87 L 1765.74 1679.41 z" fill="rgb(223,161,130)" transform="translate(0,0)"></path>
<path d="M 1582.47 1544.67 C 1594.68 1550.77 1609.99 1560.29 1622.36 1566.8 C 1656.71 1584.87 1735.95 1627.36 1753.46 1663.16 C 1749.58 1660.18 1746.29 1657.07 1742.98 1653.55 C 1705.11 1613.25 1654.03 1590.99 1607.42 1563.03 C 1599.92 1558.53 1588.13 1551.05 1582.47 1544.67 z" fill="rgb(68,2,0)" transform="translate(0,0)"></path>
<path d="M 1597.24 1669.05 C 1616.76 1681.19 1641.19 1689.68 1661.49 1702.76 C 1711.76 1735.18 1737.22 1767.58 1750.7 1824.75 L 1746.9 1825.21 C 1747.53 1827.12 1748.67 1830.21 1749.13 1832.06 L 1746.19 1830.24 C 1740.22 1826.92 1725.07 1811.55 1717.13 1806.31 C 1700.19 1795.15 1682.66 1784.28 1665.9 1772.91 C 1624.74 1745 1606.29 1717.18 1597.24 1669.05 z" fill="rgb(223,161,130)" transform="translate(0,0)"></path>
<path d="M 1746.19 1830.24 C 1742.95 1826.46 1739.67 1820.98 1736.91 1816.79 C 1711.09 1777.55 1677.33 1743.63 1641.89 1713.05 C 1635.96 1707.93 1607.95 1687.35 1606.25 1682 C 1612.91 1685.56 1623.57 1694.04 1629.89 1698.74 C 1671.77 1729.86 1721.29 1779.33 1746.9 1825.21 C 1747.53 1827.12 1748.67 1830.21 1749.13 1832.06 L 1746.19 1830.24 z" fill="rgb(68,2,0)" transform="translate(0,0)"></path>
<path d="M 1775.78 1643.81 C 1775.71 1646.91 1775.61 1647.3 1776.26 1650.43 C 1778.93 1649.08 1786.34 1625.78 1788.07 1620.82 C 1804.46 1573.93 1837.27 1542.5 1876.77 1514.56 C 1882.58 1510.45 1896.68 1497.89 1902.4 1495.3 C 1898.33 1561.15 1875.58 1591.2 1826.75 1632.43 C 1815.62 1641.83 1795.66 1661.8 1784.42 1669.33 C 1782.48 1667.56 1781.91 1667.66 1779.34 1666.82 L 1778.08 1667.07 L 1774.96 1670.39 C 1773.92 1662.72 1774.04 1651.26 1773.89 1643.24 L 1775.78 1643.81 z" fill="rgb(223,161,130)" transform="translate(0,0)"></path>
<path d="M 1778.08 1667.07 C 1802.96 1609.18 1842.46 1546.8 1897.4 1513.32 L 1896.31 1514.62 C 1888.31 1524 1877.31 1532.67 1868.24 1541.26 C 1850.74 1557.83 1835.99 1573.45 1822.62 1593.63 C 1817.02 1602 1811.73 1610.58 1806.78 1619.36 C 1801.71 1628.46 1785.76 1661.85 1779.34 1666.82 L 1778.08 1667.07 z" fill="rgb(68,2,0)" transform="translate(0,0)"></path>
<path d="M 1750.53 1495.49 L 1751.51 1495.03 C 1751.62 1485.53 1751.1 1477.43 1751.76 1467.88 C 1756.07 1405 1777.96 1384.2 1819.54 1341.67 C 1829.41 1331.57 1840.84 1315.62 1849.27 1303.57 C 1854.37 1328.55 1855.46 1347.2 1849.4 1372.11 C 1839.89 1411.27 1811.43 1435.74 1785.13 1464.04 C 1774.92 1475.03 1765.12 1487.3 1755.56 1499.08 L 1755.68 1497.42 C 1758.57 1460.67 1787.19 1412.19 1807.68 1381.58 C 1813.34 1373.13 1845.36 1336.47 1844.25 1329.7 L 1843.18 1329.52 C 1837.37 1335.98 1831.68 1344.83 1825.78 1351.75 C 1797.94 1384.39 1774.98 1420.26 1760.87 1460.98 C 1758.79 1467 1756.98 1473.35 1755.31 1479.57 C 1753.36 1486.85 1755.61 1501.87 1751.27 1507 C 1749.19 1504.63 1749.69 1503.66 1749.07 1499.96 L 1750.53 1495.49 z" fill="rgb(223,161,130)" transform="translate(0,0)"></path>
<path d="M 1618.91 1205.29 C 1616.01 1200.19 1614.46 1188.37 1612.64 1182.28 C 1604.99 1156.7 1600.17 1135.36 1607.52 1109.06 C 1615.16 1081.7 1629.07 1062.64 1645.19 1039.58 C 1670.18 1098.64 1660.48 1130.41 1634.3 1187.2 C 1630.57 1195.29 1628.3 1210.21 1623.36 1216.98 L 1624.57 1217.4 L 1624.37 1218.57 C 1621.64 1218.6 1620.62 1218.92 1618.32 1217.55 L 1619.32 1215.96 L 1618.33 1210.66 C 1619.53 1208.87 1619.44 1208.96 1620.32 1207 L 1618.91 1205.29 z" fill="rgb(223,161,130)" transform="translate(0,0)"></path>
<path d="M 1638.78 1062.49 C 1640.91 1079.13 1635.42 1104.25 1632.49 1121.56 C 1626.51 1156.8 1621.17 1181.01 1623.36 1216.98 L 1624.57 1217.4 L 1624.37 1218.57 C 1621.64 1218.6 1620.62 1218.92 1618.32 1217.55 L 1619.32 1215.96 L 1618.33 1210.66 C 1619.53 1208.87 1619.44 1208.96 1620.32 1207 L 1618.91 1205.29 C 1618.77 1166.3 1625.13 1136.57 1632.15 1098.55 C 1634.09 1088.03 1635.82 1072.12 1638.78 1062.49 z" fill="rgb(51,0,0)" transform="translate(0,0)"></path>
<path d="M 1556.1 1098.01 C 1564.89 1098.78 1597.22 1101.76 1602.79 1106.9 C 1595.11 1139.02 1598.8 1154.48 1608.93 1186.64 C 1610.82 1192.63 1615.53 1205.76 1618.33 1210.66 L 1619.32 1215.96 C 1606.2 1201.33 1595.14 1182 1582.31 1166.89 C 1569.29 1151.56 1557.22 1134.2 1543.33 1119.73 C 1548.75 1111.76 1551.6 1106.6 1556.1 1098.01 z" fill="rgb(254,253,247)" transform="translate(0,0)"></path>
<path d="M 1779.34 1666.82 C 1781.91 1667.66 1782.48 1667.56 1784.42 1669.33 C 1781.7 1671.97 1779.26 1674.83 1775.78 1676.18 C 1774.03 1673.95 1774.69 1674.15 1774.96 1670.39 L 1778.08 1667.07 L 1779.34 1666.82 z" fill="rgb(237,202,172)" transform="translate(0,0)"></path>
<path d="M 1750.7 1824.75 C 1751.43 1829.67 1751.41 1835.07 1755.79 1838.09 L 1755.06 1840.71 C 1751.83 1836.97 1751.18 1836.43 1749.13 1832.06 C 1748.67 1830.21 1747.53 1827.12 1746.9 1825.21 L 1750.7 1824.75 z" fill="rgb(226,147,106)" transform="translate(0,0)"></path>
<path d="M 1747.52 1481.52 C 1748.27 1486.83 1748.56 1490.42 1750.53 1495.49 L 1749.07 1499.96 C 1747.57 1494.96 1746.52 1490.82 1745.33 1485.78 L 1747.52 1481.52 z" fill="rgb(237,202,172)" transform="translate(0,0)"></path>
<path d="M 1596.89 1808.84 C 1607.86 1817.94 1622.09 1826.44 1633.63 1835.05 C 1665.98 1859.16 1691.55 1886.19 1703 1925.63 C 1707.97 1940.71 1710.18 1955.43 1711.92 1971.12 C 1713.33 1983.91 1718.56 1990.1 1712.04 2002.57 C 1709.76 2004.91 1711.03 2004.51 1708.43 2004.77 C 1697.15 1989.66 1689.75 1977.1 1676.55 1962.61 C 1660.49 1944.98 1643.09 1927.06 1628.95 1908.17 C 1612.54 1886.22 1592.05 1836.3 1596.89 1808.84 z" fill="rgb(223,161,130)" transform="translate(0,0)"></path>
<path d="M 1601.6 1819.84 C 1604.52 1822.32 1607.36 1824.91 1610.11 1827.59 C 1648.49 1864.93 1707.45 1940.02 1708.12 1995.45 C 1705.57 1993.17 1705.31 1991.8 1704.48 1988.17 C 1693.15 1938.34 1664.72 1894.82 1631.34 1856.92 C 1624.26 1848.88 1605.25 1828.08 1601.6 1819.84 z" fill="rgb(68,2,0)" transform="translate(0,0)"></path>
<path d="M 1918.68 1884.02 C 1919.75 1884.74 1919.21 1884.2 1919.85 1885.95 C 1918.28 1891.72 1916.26 1894.77 1913.55 1899.98 C 1884.68 1955.38 1830.34 1974.51 1773.45 1988.99 C 1757.71 1992.99 1743.42 1994.82 1727.17 1999.59 C 1748.57 1970.8 1789.96 1948.51 1822.64 1935.74 C 1850.47 1924.87 1889.68 1915.16 1912.21 1895.34 L 1903.24 1898.71 C 1855.77 1924.32 1803.67 1929.26 1760.64 1963.89 C 1743.86 1977.39 1737.38 1981.77 1725.11 1999.87 L 1716.42 2002.55 C 1733.69 1969.23 1762.15 1939.11 1796 1922.32 C 1816.7 1912.06 1841.93 1907.25 1864.35 1901.48 C 1882.83 1896.88 1900.98 1891.05 1918.68 1884.02 z" fill="rgb(223,161,130)" transform="translate(0,0)"></path>
<path d="M 1540.43 1414.42 C 1564.76 1414.51 1582.63 1413.61 1607.23 1416.1 C 1653.93 1420.82 1696.26 1451.79 1724.74 1488.21 C 1727.05 1491.58 1729.81 1495.38 1731.88 1498.84 C 1734.2 1500.76 1734.2 1500.55 1735.14 1503.37 L 1729.23 1501.96 L 1727.88 1504.5 C 1709.42 1497.94 1691.65 1491.97 1672.4 1487.86 C 1616.71 1475.97 1565.75 1473.27 1540.43 1414.42 z" fill="rgb(223,161,130)" transform="translate(0,0)"></path>
<path d="M 1545.28 1415.88 C 1605.02 1433.8 1670.73 1448.54 1720.38 1489.19 L 1724.74 1488.21 C 1727.05 1491.58 1729.81 1495.38 1731.88 1498.84 C 1734.2 1500.76 1734.2 1500.55 1735.14 1503.37 L 1729.23 1501.96 C 1705.77 1477.25 1640.14 1447.54 1606.46 1437.9 C 1586.94 1432.31 1561.69 1427.13 1545.28 1415.88 z" fill="rgb(51,0,0)" transform="translate(0,0)"></path>
<path d="M 1724.74 1488.21 C 1727.05 1491.58 1729.81 1495.38 1731.88 1498.84 C 1728.05 1496.59 1723.76 1492.28 1720.38 1489.19 L 1724.74 1488.21 z" fill="rgb(226,147,106)" transform="translate(0,0)"></path>
<path d="M 1691.92 1338.37 C 1685.67 1330.32 1687.33 1320.38 1685.36 1312.07 C 1679.55 1287.51 1677.5 1274.15 1680.21 1249.08 C 1684.77 1206.83 1711.3 1174.75 1726.69 1137.47 C 1744.11 1168.4 1752.41 1201.62 1743.42 1236.93 C 1739.32 1253.01 1727.3 1271.5 1719.2 1286.66 C 1713.05 1298.39 1707.54 1310.46 1702.71 1322.79 C 1700.87 1327.54 1696.59 1343.8 1694.68 1345.28 C 1692.49 1342.67 1693.14 1343.04 1692.43 1339.17 L 1691.92 1338.37 z" fill="rgb(223,161,130)" transform="translate(0,0)"></path>
<path d="M 1691.92 1338.37 C 1691.91 1292.16 1695.83 1253.55 1708.11 1208.91 C 1710.66 1199.67 1713.06 1187.11 1717.85 1178.93 L 1718.23 1178.87 L 1717.44 1179.85 C 1719.35 1184.9 1713.36 1204.85 1711.69 1211.12 C 1700.56 1252.9 1698.01 1295.49 1693.67 1337.97 C 1693.26 1338.37 1692.84 1338.77 1692.43 1339.17 L 1691.92 1338.37 z" fill="rgb(51,0,0)" transform="translate(0,0)"></path>
<path d="M 1316.22 938.239 C 1316.41 937.447 1316.21 937.983 1317.45 937.045 C 1365.22 940.83 1412.9 959.944 1442.2 999.253 C 1449.29 1008.78 1466.67 1035.43 1466.9 1046.87 L 1466.63 1048.11 C 1460.76 1049.02 1429.01 1038.46 1421.62 1035.94 C 1369.58 1018.23 1339.72 987.771 1316.22 938.239 z" fill="rgb(223,161,130)" transform="translate(0,0)"></path>
<path d="M 1343.46 951.679 C 1350.44 953.409 1362.73 961.172 1369.32 964.987 C 1404.1 985.101 1441.99 1015.06 1466.9 1046.87 C 1450.49 1036.16 1424.77 1008.62 1405.76 994.374 C 1393.59 985.254 1347.17 958.366 1343.46 951.679 z" fill="rgb(51,0,0)" transform="translate(0,0)"></path>
<path d="M 1547.95 1296.58 C 1592.07 1290.97 1630.38 1314.34 1664.42 1339.46 C 1673.66 1346.28 1683.47 1353.15 1691.8 1361.04 C 1676.89 1357.21 1658.2 1354.88 1642.76 1352.63 C 1630.22 1350.82 1617.63 1349.29 1605.02 1348.05 C 1547.17 1342.85 1537.62 1344.11 1490.41 1306.17 C 1509.9 1303.29 1528.07 1298.39 1547.95 1296.58 z" fill="rgb(223,161,130)" transform="translate(0,0)"></path>
<path d="M 1521.98 1313.47 C 1533.83 1310.93 1573.76 1313.65 1584.8 1316.01 C 1612.66 1321.95 1657.44 1336.79 1679.51 1354.11 C 1670.3 1353.11 1655.85 1344.75 1646.24 1340.66 C 1618.37 1328.82 1593.44 1319.8 1562.79 1317.04 C 1552.48 1316.11 1535.06 1316.78 1524.14 1315.51 C 1523.42 1314.83 1522.7 1314.15 1521.98 1313.47 z" fill="rgb(51,0,0)" transform="translate(0,0)"></path>
<path d="M 1565.6 936.088 C 1584.92 983.487 1588.34 1009.27 1567.63 1058.73 C 1560.24 1076.37 1550.36 1097.99 1541.07 1114.52 C 1540.18 1062.65 1554.01 1012.61 1562.13 962.008 C 1562.25 961.245 1562.25 959.439 1562.27 958.638 C 1551.17 982.141 1538.26 1068.17 1537.88 1094.89 L 1535.31 1094.09 C 1525.49 1034.3 1520.68 997.705 1558.79 944.913 C 1560.99 941.918 1563.26 938.976 1565.6 936.088 z" fill="rgb(223,161,130)" transform="translate(0,0)"></path>
<path d="M 1440.27 1212.19 C 1496.18 1190.94 1535.65 1190.01 1590.84 1212.34 C 1595.74 1214.31 1604.98 1217.75 1609.23 1220.25 C 1612.57 1221.68 1617.84 1224.99 1621.14 1226.93 C 1563.79 1226.33 1481.46 1267.21 1440.27 1212.19 z" fill="rgb(223,161,130)" transform="translate(0,0)"></path>
<path d="M 1601.16 1219.38 C 1574.18 1215.79 1551.31 1212.79 1523.93 1213.96 C 1514.7 1214.35 1473.27 1218.43 1467.53 1216.4 C 1478.7 1211.68 1535.67 1209.24 1550.44 1210.06 C 1559.69 1210.58 1576.22 1212.8 1586.07 1214.5 L 1590.84 1212.34 C 1595.74 1214.31 1604.98 1217.75 1609.23 1220.25 C 1604.53 1221.41 1604.79 1221.04 1601.16 1219.38 z" fill="rgb(68,2,0)" transform="translate(0,0)"></path>
<path d="M 1590.84 1212.34 C 1595.74 1214.31 1604.98 1217.75 1609.23 1220.25 C 1604.53 1221.41 1604.79 1221.04 1601.16 1219.38 C 1595.72 1216.58 1591.91 1215.89 1586.07 1214.5 L 1590.84 1212.34 z" fill="rgb(226,147,106)" transform="translate(0,0)"></path>
<path d="M 1535.23 1129.8 C 1510.9 1139.04 1447.68 1154.87 1421.6 1152.77 C 1409.47 1151.8 1385.22 1144.2 1377.16 1134.4 L 1377.52 1133.13 C 1382.01 1129.3 1386.55 1127.78 1391.42 1124.93 C 1432.7 1100.76 1480.69 1104.12 1524.2 1120.34 C 1529.01 1122.13 1536.82 1124 1540.93 1127.06 C 1538.74 1128.32 1537.63 1129.25 1535.23 1129.8 z" fill="rgb(223,161,130)" transform="translate(0,0)"></path>
<path d="M 1408.95 1131.95 C 1435.75 1121.36 1494.49 1120.61 1523.86 1124.28 C 1519.97 1126.69 1513.66 1125.76 1508.73 1126.17 C 1489.11 1125.99 1470.41 1125.99 1450.82 1127.53 C 1437.17 1128.61 1422.41 1131.72 1408.95 1131.95 z" fill="rgb(51,0,0)" transform="translate(0,0)"></path>
<path d="M 1523.86 1124.28 C 1530.95 1124.97 1534.55 1127.52 1540.93 1127.06 C 1538.74 1128.32 1537.63 1129.25 1535.23 1129.8 C 1525.53 1126.5 1518.88 1127.09 1508.73 1126.17 C 1513.66 1125.76 1519.97 1126.69 1523.86 1124.28 z" fill="rgb(76,8,0)" transform="translate(0,0)"></path>
<path d="M 1729.23 1501.96 L 1735.14 1503.37 C 1741.31 1506.57 1743.19 1509.54 1747.1 1515.31 C 1741.34 1511.86 1733.89 1507.08 1727.88 1504.5 L 1729.23 1501.96 z" fill="rgb(237,202,172)" transform="translate(0,0)"></path>
<path d="M 1535.31 1094.09 L 1537.88 1094.89 C 1537.98 1098.73 1538.48 1102.9 1537.16 1106.41 C 1535.46 1103.46 1535.55 1097.74 1535.31 1094.09 z" fill="rgb(180,118,83)" transform="translate(0,0)"></path>
<path d="M 233.092 616.182 C 218.278 569.819 211.344 520.555 235.13 476.07 C 239.185 468.486 248.905 451.743 256.192 447.609 L 258.702 447.624 C 260.006 450.104 257.448 457.089 256.438 460.212 C 236.49 521.886 273.709 569.121 290.421 626.153 C 306.541 621.008 337.305 628.986 355.374 630.358 C 356.439 642.327 357 654.335 357.056 666.35 C 339.684 694.764 307.155 739.465 293.512 767.095 L 294.186 768.749 C 297.599 764.94 297.515 769.742 301.79 768.018 L 299.749 766.572 C 300.337 763.692 302.258 761.491 304.898 760.267 L 306.629 761.99 L 303.22 766.366 L 303.494 767.806 L 305.44 768.31 C 304.446 769.863 303.422 771.259 302.149 772.595 L 303.735 771.589 L 305.128 772.545 L 308.129 771.571 C 303.452 775.352 299.103 776.876 293.512 779.043 L 294.323 778.161 C 276.765 802.89 240.427 863.703 228.35 891.834 C 230.411 892.169 230.377 892.606 231.478 891.877 C 242.864 870.019 269.359 845.884 289.315 832.293 C 304.843 821.767 321.513 813.032 339.006 806.255 C 384.702 788.283 421.645 788.661 469.213 792.796 C 502.73 795.71 535.81 795.523 566.9 782.418 C 571.444 780.503 578.951 777.597 583.419 779.726 C 584.267 789.486 561.132 807.42 553.212 812.423 C 490.926 851.77 414.203 836.38 345.856 852.755 C 299.352 863.897 250.651 888.683 215.772 921.667 C 208.553 928.702 197.082 955.478 192.487 965.346 C 162.339 1028.48 136.562 1093.62 115.339 1160.28 C 108.885 1180.07 102.507 1206.9 95.6691 1226.9 C 95.2617 1228.1 94.0579 1227.87 92.4956 1228.07 L 91.2993 1226.78 C 90.7694 1222.18 95.9561 1205.98 97.5652 1200.27 C 114.91 1138.35 136.263 1077.63 161.49 1018.48 C 170.791 996.517 193.899 952.05 196.248 931.106 C 200.805 890.46 196.637 835.461 183.884 796.304 C 165.346 739.387 137.992 702.597 144.424 638.679 C 144.507 638.489 147.04 626.484 147.436 624.965 C 150.28 613.77 154.17 602.867 159.054 592.4 C 161.445 587.28 164.295 581.647 169.809 579.617 L 171.204 580.448 C 171.823 588.289 170.238 598.144 169.995 606.273 C 169.756 614.26 170.355 619.769 171.309 627.765 C 194.533 622.673 208.016 618.763 233.092 616.182 z" fill="rgb(76,8,0)" transform="translate(0,0)"></path>
<path d="M 233.092 616.182 C 245.823 651.645 260.713 687.154 267.656 724.352 C 269.658 735.079 273.016 775.271 277.196 781.592 C 277.573 782.162 277.883 782.773 278.229 783.362 L 278.982 784.617 C 279.845 790.507 265.922 809.063 262.167 815.247 C 249.017 836.902 236.835 859.568 225.162 882.047 C 218.217 895.421 212.428 910.578 204.669 923.333 C 209.832 900.089 215.607 880.574 221.821 858.06 C 237.058 802.859 227.674 753.993 202.375 703.577 C 191.894 682.692 175.353 650.318 171.309 627.765 C 194.533 622.673 208.016 618.763 233.092 616.182 z" fill="rgb(254,253,247)" transform="translate(0,0)"></path>
<path d="M 576.27 783.648 C 519.189 853.274 417.534 827.929 339.993 849.21 C 310.925 857.187 279.712 869.645 254.227 885.676 C 242.473 893.07 232.677 902.128 221.285 909.195 L 219.959 910.01 C 221.803 904.622 225.089 896.559 228.35 891.834 C 230.411 892.169 230.377 892.606 231.478 891.877 L 233.44 894.222 C 236.332 893.31 236.8 890.806 238.967 887.89 C 246.925 877.182 255.607 866.605 265.406 857.597 C 292.064 833.574 323.653 815.674 357.96 805.151 C 403.309 790.795 443.693 796.121 490.029 798.444 C 525.918 800.244 543.28 798.167 576.27 783.648 z" fill="rgb(153,172,147)" transform="translate(0,0)"></path>
<path d="M 267.847 863.919 C 299.114 843.062 322.737 832.63 359.072 823.199 C 398.443 812.979 431.379 814.952 471.134 813.231 C 480.837 812.818 490.521 812.037 500.165 810.89 C 506.893 810.048 512.232 808.457 519.048 808.669 L 519.688 809.388 C 506.279 819.103 414.816 817.503 390.886 821.837 C 348.914 829.439 306.504 841.428 270.199 865.206 L 267.847 863.919 z" fill="url(#Gradient2)" transform="translate(0,0)"></path>
<path d="M 267.847 863.919 L 270.199 865.206 C 268.176 866.706 261.077 872.086 259.231 872.917 L 258.761 871.436 C 261.657 868.497 264.583 866.418 267.847 863.919 z" fill="rgb(110,86,63)" transform="translate(0,0)"></path>
<path d="M 290.421 626.153 C 306.541 621.008 337.305 628.986 355.374 630.358 C 356.439 642.327 357 654.335 357.056 666.35 C 339.684 694.764 307.155 739.465 293.512 767.095 C 290.833 770.069 284.731 779.877 282.224 783.721 C 286.668 771.011 292.399 759.246 295.506 745.807 C 303.997 709.073 301.354 661.909 290.421 626.153 z" fill="rgb(254,253,247)" transform="translate(0,0)"></path>
<path d="M 250.727 460.815 C 250.972 463.103 248.997 474.037 248.379 476.786 C 240.096 513.324 252.616 545.313 267.475 578.191 C 287.108 621.629 299.151 670.209 294.277 718.127 C 293.19 728.817 287.988 764.929 280.635 772.414 L 279.5 770.78 C 277.017 751.978 274.771 733.4 270.843 714.835 C 252.367 627.503 189.633 546.926 250.727 460.815 z" fill="rgb(153,172,147)" transform="translate(0,0)"></path>
<path d="M 283.088 718.638 C 282.674 684.983 269.323 640.986 258.934 609.25 C 249.849 581.495 236.13 550.918 237.239 521.638 C 254.48 597.199 286.075 645.364 286.008 726.16 C 286.155 731.765 284.475 738.932 283.326 744.494 C 283.039 735.536 282.89 727.588 283.088 718.638 z" fill="rgb(76,8,0)" transform="translate(0,0)"></path>
<path d="M 283.088 718.638 L 284.358 726.808 C 285.58 726.831 285.019 727.017 286.008 726.16 C 286.155 731.765 284.475 738.932 283.326 744.494 C 283.039 735.536 282.89 727.588 283.088 718.638 z" fill="rgb(110,86,63)" transform="translate(0,0)"></path>
<path d="M 164.612 593.685 C 165.457 596.982 165.393 604.348 165.257 607.855 C 163.844 644.405 184.757 679.943 201.036 712.46 C 236.334 782.971 223.871 831.497 204.808 902.788 L 203.656 904.5 C 202.575 901.09 203.085 879.541 202.491 873.142 C 200.56 855.157 199.087 835.609 195.098 817.992 C 177.171 738.825 120.686 676.74 164.612 593.685 z" fill="rgb(153,172,147)" transform="translate(0,0)"></path>
<path d="M 212.133 849.028 C 210.163 815.02 206.804 790.213 196.396 757.613 C 190.651 739.616 148.77 650.411 158.42 639.494 C 160.942 644.812 160.823 650.757 162.406 656.409 C 172.146 691.186 190.449 723.563 201.527 757.835 C 209.255 781.747 214.619 813.065 213.855 838.421 C 214.125 845.773 214.424 848.349 212.883 855.57 L 212.247 855.031 C 212.189 853.242 212.019 850.748 212.133 849.028 z" fill="url(#Gradient1)" transform="translate(0,0)"></path>
<path d="M 212.133 849.028 C 212.527 845.15 213.102 842.259 213.855 838.421 C 214.125 845.773 214.424 848.349 212.883 855.57 L 212.247 855.031 C 212.189 853.242 212.019 850.748 212.133 849.028 z" fill="rgb(87,85,67)" transform="translate(0,0)"></path>
<path d="M 1183.25 1294.95 C 1207.38 1306.87 1243.92 1348.15 1259.7 1370.66 C 1283.06 1403.99 1293.79 1444.59 1274.54 1482.38 C 1242.75 1544.78 1165.74 1574.78 1103.25 1595.25 C 1054.18 1611.1 1004.14 1623.8 953.446 1633.25 C 902.469 1642.24 847.365 1649 795.778 1651.15 C 786.804 1651.52 764.109 1652.86 756.713 1650.19 L 757.778 1648.74 C 861.278 1639.8 960.255 1620.76 1056.03 1579.47 C 1191.36 1521.13 1247.04 1437.97 1183.25 1294.95 z" fill="rgb(245,233,216)" transform="translate(0,0)"></path>
<path d="M 373.41 1823.19 C 357.01 1817.59 340.758 1811.57 324.67 1805.13 C 310.541 1799.41 295.191 1792.65 280.822 1787.7 C 263.667 1781.78 244.931 1779.74 226.842 1774.64 C 171.479 1759.04 134.648 1727.52 107.709 1676.86 C 105.49 1672.69 104.133 1668.84 105.373 1664.29 C 111.225 1656.03 126.238 1661.55 134.448 1663.76 C 170.369 1673.3 204.262 1689.27 234.483 1710.91 C 255.015 1725.9 281.44 1758.48 287.217 1783.66 C 316.543 1795.79 360.177 1814.89 390.168 1823.7 C 344.202 1796.99 314.055 1767.83 288.622 1720.62 C 284.401 1712.78 266.205 1686.88 277.671 1681.2 C 290.963 1682.03 337.294 1713 348.578 1721.94 C 356.012 1727.78 362.898 1734.28 369.151 1741.37 C 388.213 1762.98 407.956 1802.65 413.846 1831.24 C 446.089 1843.6 476.101 1854.49 509.59 1862.97 C 457.966 1836.46 427.483 1800.84 407.61 1745.85 C 405.989 1741.37 405.783 1738.65 408.041 1734.51 C 417.158 1730.52 443.23 1748.32 451.393 1753.25 C 490.992 1777.18 523.068 1822.55 534.814 1867.4 C 567.307 1876.18 606.883 1887.65 639.843 1889.32 C 580.202 1865.98 552.971 1830.4 524.813 1773.01 C 523.369 1770.07 523.292 1768.04 524.008 1764.87 C 529.71 1758.19 537.084 1764.2 543.98 1767.08 C 604.258 1792.2 645.111 1831.64 669.92 1892.34 C 688.027 1894.93 705.654 1898.21 723.863 1900.5 C 744.037 1903.04 763.016 1903.86 783.254 1904.95 C 776.86 1900.52 761.861 1897.08 754.071 1894.36 C 703.928 1876.89 661.172 1835.43 639.925 1787.17 C 639.108 1785.32 639.832 1783.01 640.717 1781.28 C 643.734 1778.96 646.453 1778.73 650.174 1779.39 C 657.939 1780.77 666.815 1784.55 674.237 1787.48 C 717.21 1804.44 760.877 1836.57 787.89 1874.36 C 794.669 1883.84 800.762 1895.49 806.074 1905.87 C 835.786 1906.54 864.883 1910.09 895.085 1908 C 912.627 1906.78 929.387 1907.96 947.092 1905.08 C 877.878 1894.95 828.579 1866.16 788.359 1809.71 C 785.754 1806.05 784.989 1804.74 784.071 1800.33 C 788.456 1782.98 858.829 1813.29 871.13 1819.08 C 910.949 1837.82 943.459 1868.13 964.564 1906.82 C 1006.4 1905.8 1052.23 1901.11 1093.66 1896.32 C 1144.96 1890.54 1196.04 1882.9 1246.79 1873.4 C 1268.83 1868.89 1290.76 1863.9 1312.58 1858.45 C 1318.99 1856.88 1341.42 1849.76 1346.61 1851.69 C 1346.23 1857.65 1318.34 1862.51 1312.52 1863.94 C 1215.66 1887.28 1116.99 1902.28 1017.57 1908.77 C 1008.81 1909.39 975.75 1912.71 968.779 1911.36 C 971.354 1932.69 942.001 1959.5 927.072 1971.57 C 918.638 1978.49 909.555 1984.57 899.95 1989.73 C 879.28 2000.84 854.898 2008.89 831.769 2013.58 C 825.094 2014.93 818.232 2015.78 813.754 2009.93 C 812.417 1998.81 828.341 1982.82 835.854 1975.46 C 858.136 1953.65 885.089 1936.09 914.021 1924.48 C 920.91 1921.7 927.92 1919.23 935.03 1917.08 C 940.157 1915.57 948.959 1913.85 953.066 1911.71 L 952.735 1910.85 C 923.989 1912.8 895.186 1913.78 866.375 1913.79 C 850.057 1913.72 829.017 1912.42 813.279 1913.07 C 796.011 1962.12 724.444 1992.17 677.543 2000.08 C 669.244 2001.47 654.141 2006.35 648.054 1999.43 C 647.067 1996.73 647.171 1993.91 648.71 1991.37 C 672.343 1952.71 716.982 1933.18 758.321 1919.34 C 767.996 1916.1 779.027 1915.67 788.221 1912.34 C 754.179 1907.46 710.546 1908.01 676.851 1899.49 C 646.299 1949.86 587.265 1971.9 530.536 1973.91 C 522.639 1974.19 509.193 1975.69 505.315 1967.53 C 505.422 1965.95 505.675 1963.86 506.715 1962.65 C 535.689 1928.85 593.196 1904.43 635.064 1896.06 C 618.24 1892.85 602.671 1889.78 586.017 1885.94 C 570.112 1882.26 550.106 1876.45 534.291 1874.31 C 488.462 1916.04 451.398 1931.42 387.633 1930.62 C 377.803 1930.49 356.125 1928.55 348.177 1922.59 C 341.569 1908.49 381.089 1893.49 390.896 1889.78 C 417.467 1879.79 445.208 1873.23 473.443 1870.28 C 484.298 1869.14 494.807 1868.99 505.446 1868.04 C 466.892 1857.39 437.668 1844.15 401.968 1833.13 C 388.055 1840.11 374.038 1847.33 359.302 1852.78 C 309.278 1871.29 250.773 1876.33 199.505 1859.87 C 193.461 1857.93 185.129 1853.95 181.459 1848.75 C 181.299 1843.26 193.251 1839.58 198.082 1837.89 C 243.897 1821.84 293.999 1819.2 342.145 1821.19 C 352.692 1821.65 363.174 1822.98 373.41 1823.19 z" fill="rgb(76,8,0)" transform="translate(0,0)"></path>
<path d="M 110.096 1664.94 C 131.614 1665.1 173.525 1682.57 193.211 1691.89 C 226.832 1707.81 269.189 1743.26 280.873 1780.38 C 231.329 1774.59 176.656 1757.45 143.304 1718.78 C 134.082 1708.08 111.569 1678.83 110.096 1664.94 z" fill="rgb(254,253,247)" transform="translate(0,0)"></path>
<path d="M 789.976 1800.07 C 811.901 1799.23 853.94 1816.82 874.544 1826.86 C 899.78 1839.15 944.676 1874.14 953.416 1901.7 C 892.74 1889.5 841.623 1870.85 803.071 1820.23 C 798.225 1813.86 792.484 1807.79 789.976 1800.07 z" fill="rgb(254,253,247)" transform="translate(0,0)"></path>
<path d="M 644.958 1784.88 C 651.672 1784.72 661.158 1787.98 667.451 1790.43 C 719.061 1810.53 773.39 1850.39 796.725 1901.66 C 735.308 1887.59 686.234 1857.81 653.6 1802.61 C 650.269 1796.98 646.958 1791.13 644.958 1784.88 z" fill="rgb(254,253,247)" transform="translate(0,0)"></path>
<path d="M 278.513 1687.32 C 283.951 1688.43 289.491 1691.11 294.391 1693.68 C 356.866 1726.39 386.593 1758.02 407.022 1827.28 C 402.161 1825.51 398.847 1823.16 394.549 1820.51 C 365.519 1802.65 339.217 1784.3 318.373 1756.63 C 302.594 1735.69 288.426 1711.83 278.513 1687.32 z" fill="rgb(254,253,247)" transform="translate(0,0)"></path>
<path d="M 529.099 1767.55 C 530.625 1767.87 531.925 1768.16 533.377 1768.74 C 600.051 1795.35 632.646 1826 662.712 1889.85 C 648.658 1886.37 627.915 1879.03 615.572 1872.26 C 583.069 1854.43 559.137 1826.14 541.743 1793.87 C 537.321 1785.66 531.774 1776.43 529.099 1767.55 z" fill="rgb(254,253,247)" transform="translate(0,0)"></path>
<path d="M 301.517 1825.44 C 320.274 1824.61 372.56 1827.05 389.627 1832.84 C 353.36 1853.13 320.338 1860.78 279.249 1863.91 C 253.709 1865.62 208.903 1862.89 187.493 1847.71 C 221.662 1832.74 264.375 1827.21 301.517 1825.44 z" fill="rgb(254,253,247)" transform="translate(0,0)"></path>
<path d="M 963.516 1913.8 C 964.583 1937.51 917.034 1974.85 897.791 1985.03 C 889.537 1989.4 824.261 2017.92 819.214 2006.19 C 821.448 1997.56 836.185 1983.04 842.398 1976.88 C 876.262 1943.31 916.597 1927.21 961.592 1914.43 L 963.516 1913.8 z" fill="rgb(254,253,247)" transform="translate(0,0)"></path>
<path d="M 801.088 1915.38 C 801.745 1915.26 804.443 1915.18 805.21 1915.14 L 805.814 1916.46 C 804.563 1922.34 801.259 1926.34 797.794 1931.11 C 770.118 1969.21 705.68 1992.13 660.238 1997.81 C 658.883 1997.91 657.177 1997.77 655.779 1997.72 L 654.48 1995.89 C 654.501 1991.52 656.396 1988.58 659.078 1985.15 C 689.92 1945.81 753.762 1921.99 801.088 1915.38 z" fill="rgb(254,253,247)" transform="translate(0,0)"></path>
<path d="M 651.087 1899.3 C 658.777 1898.81 664.284 1898.64 671.977 1898.81 C 665.603 1907.07 658.412 1916.16 650.845 1923.43 C 618.975 1954.03 565.673 1969.71 522.175 1969.07 C 517.925 1969.01 514.229 1969.02 511.37 1966.03 C 513.831 1959.93 528.251 1948.94 533.709 1945.06 C 568.651 1920.71 608.885 1905.02 651.087 1899.3 z" fill="rgb(254,253,247)" transform="translate(0,0)"></path>
<path d="M 483.77 1874.41 C 497.482 1873.54 511.235 1873.51 524.951 1874.31 L 523.972 1875.32 C 487.076 1913.05 444.79 1924.64 393.111 1925.17 C 384.257 1925.22 358.704 1924.42 352.445 1918.63 L 352.762 1916.81 C 377.878 1892.09 448.235 1877.63 483.77 1874.41 z" fill="rgb(254,253,247)" transform="translate(0,0)"></path>
<path d="M 411.739 1739.44 C 419.763 1740.84 429.841 1746.82 437.096 1750.68 C 479.507 1773.22 514.93 1817.79 527.762 1864.48 C 481.924 1848.3 444.019 1812.5 423.314 1768.96 C 418.418 1758.67 414.148 1750.68 411.739 1739.44 z" fill="rgb(254,253,247)" transform="translate(0,0)"></path>
<path d="M 1306.95 1372.58 L 1310.93 1372.96 C 1323.27 1382.71 1342.18 1424.59 1344.46 1441.49 C 1348.93 1474.72 1338.19 1505.45 1317.74 1531.37 C 1244.9 1623.68 1080.88 1664.19 970.782 1679.55 C 968.635 1678.82 969.434 1679.15 967.681 1677.36 L 968.674 1675.35 C 973.446 1672.93 1018.07 1665.7 1027.31 1663.92 C 1125.68 1644.9 1260.1 1604.47 1320.05 1518.28 C 1344.54 1482.45 1346.93 1437.01 1322.62 1400.47 C 1318.76 1394.66 1307.53 1378.58 1306.95 1372.58 z" fill="rgb(76,8,0)" transform="translate(0,0)"></path>
<path d="M 1405.96 1525.44 C 1406.68 1525.82 1407.85 1526.77 1408.55 1527.3 C 1409.75 1533.75 1401.56 1550.77 1398.38 1556.75 C 1356.95 1634.92 1269.6 1675.12 1190.24 1701.33 C 1188.24 1699.65 1189.11 1700.61 1188.1 1697.96 C 1190.55 1693.55 1197.03 1693.25 1201.83 1691.56 C 1211.72 1688.02 1221.56 1684.35 1231.36 1680.56 C 1290.93 1657.33 1349.05 1623.7 1385.12 1568.81 C 1394.86 1554.01 1399.05 1541.2 1405.96 1525.44 z" fill="rgb(76,8,0)" transform="translate(0,0)"></path>
<metadata><recraft-signature>{"signed_by": "recraft", "signature_b64": "8VwH0nLG46FbFGO+wc+OaGDam7XlwNkj5HOJRfsZec7nPUO4mzliwCfhEzMiTHZw4h/aUxVDjE+3MaRmHLtwBQ==", "signing_algo": "Ed25519", "generation_timestamp": 1778092804, "identifier": "c5756d72-a18f-419c-83da-a3b559b1aa19"}</recraft-signature></metadata></svg>