<svg xmlns="http://www.w3.org/2000/svg" height="1024" preserveAspectRatio="none" style="display: block;" version="1.1" viewBox="0 0 2048 2048" width="1024">
<defs>
	<linearGradient gradientUnits="userSpaceOnUse" id="Gradient1" x1="283.84" x2="298.631" y1="473.425" y2="478.745">
		<stop class="stop0" offset="0" stop-color="rgb(99,19,1)" stop-opacity="1"></stop>
		<stop class="stop1" offset="1" stop-color="rgb(75,0,1)" stop-opacity="1"></stop>
	</linearGradient>
	<linearGradient gradientUnits="userSpaceOnUse" id="Gradient2" x1="515.239" x2="596.662" y1="1315.53" y2="1476.39">
		<stop class="stop0" offset="0" stop-color="rgb(25,0,0)" stop-opacity="1"></stop>
		<stop class="stop1" offset="1" stop-color="rgb(41,0,0)" stop-opacity="1"></stop>
	</linearGradient>
	<linearGradient gradientUnits="userSpaceOnUse" id="Gradient3" x1="952.736" x2="928.428" y1="1221.53" y2="1212.15">
		<stop class="stop0" offset="0" stop-color="rgb(64,0,0)" stop-opacity="1"></stop>
		<stop class="stop1" offset="1" stop-color="rgb(93,30,11)" stop-opacity="1"></stop>
	</linearGradient>
	<linearGradient gradientUnits="userSpaceOnUse" id="Gradient4" x1="878.812" x2="868.968" y1="1881.56" y2="1787.89">
		<stop class="stop0" offset="0" stop-color="rgb(60,2,0)" stop-opacity="1"></stop>
		<stop class="stop1" offset="1" stop-color="rgb(96,10,1)" stop-opacity="1"></stop>
	</linearGradient>
	<linearGradient gradientUnits="userSpaceOnUse" id="Gradient5" x1="813.669" x2="599.531" y1="1204.61" y2="1969.87">
		<stop class="stop0" offset="0" stop-color="rgb(24,0,0)" stop-opacity="1"></stop>
		<stop class="stop1" offset="1" stop-color="rgb(50,0,0)" stop-opacity="1"></stop>
	</linearGradient>
	<linearGradient gradientUnits="userSpaceOnUse" id="Gradient6" x1="889.263" x2="1368.19" y1="750.41" y2="1266.56">
		<stop class="stop0" offset="0" stop-color="rgb(9,0,0)" stop-opacity="1"></stop>
		<stop class="stop1" offset="1" stop-color="rgb(32,0,0)" stop-opacity="1"></stop>
	</linearGradient>
</defs>
<path d="M 0 0 L 2048 0 L 2048 2048 L 0 2048 L 0 0 z" fill="rgb(253,251,245)" transform="translate(0,0)"></path>
<path d="M 1643.53 126.895 C 1649.59 119.135 1654.9 113.139 1661.46 105.866 C 1663.33 108.412 1664.45 109.564 1665.33 112.635 C 1660.48 118.363 1656.28 123.291 1651.05 128.66 C 1671.75 138.765 1694.19 148.964 1713.16 161.895 C 1827.08 239.572 1886.3 372.117 1903.32 505.348 C 1940.09 484.939 1973.34 463.375 2007 438.386 C 2009.27 436.702 2012.56 435.442 2015.41 435.408 L 2017.07 436.463 C 2017.92 446.773 1916.46 506.819 1903.24 514.338 C 1903.11 532.126 1899.37 543.809 1886.14 556.604 C 1871.27 570.983 1853.11 582.12 1835.42 592.578 C 1829.08 607.463 1821.76 620.81 1805.41 626.246 C 1748.6 645.124 1691.92 593.363 1655.26 558.232 C 1616.89 578.582 1584.61 595.303 1545.68 614.297 C 1549.71 619.765 1565.11 629.872 1571.22 634.777 C 1587.76 648.056 1604.96 660.767 1620.77 675.001 C 1693.63 740.271 1720.53 809.476 1724.1 905.396 C 1725.21 932.752 1724.53 960.15 1722.09 987.419 C 1715.94 1050.3 1698.26 1098.59 1669.47 1154.04 C 1590.58 1306 1423.99 1390.97 1259.51 1413.47 C 1250.3 1414.73 1183.72 1421.05 1180.3 1422.9 C 1189.81 1440.19 1199.7 1457.51 1207.93 1475.45 C 1241.53 1548.75 1265.02 1684.29 1236.1 1760.64 C 1214.76 1816.98 1141.91 1852.18 1090.14 1875.2 C 881.111 1968.16 522.243 1969.8 309.747 1887.96 C 250.751 1865.24 159.73 1818.11 133.564 1758.21 C 105.542 1694.07 125.623 1583.17 150.83 1519.54 C 198.231 1401.79 289.959 1307.36 406.279 1256.55 C 420.203 1250.39 430.85 1247.99 442.269 1243.33 L 442.101 1241.91 L 446.344 1240.15 C 453.004 1241.56 479.126 1229.25 487.139 1226.65 C 530.98 1212.44 573.619 1201.67 619.166 1194.52 C 616.911 1190.14 601.216 1181.1 596.48 1177.89 C 552.315 1147.96 513.853 1110.64 483.481 1066.93 C 473.542 1052.83 464.93 1037.84 457.752 1022.15 C 454.355 1014.63 446.528 993.1 440.579 988.968 C 443.927 955.756 438.201 939.799 425.656 909.059 C 423.139 902.892 419.902 894.542 416.215 889.053 C 415.251 887.617 414.189 888.016 411.802 887.711 C 403.981 835.703 400.614 819.954 412.302 766.252 C 408.061 735.637 419.717 683.727 435.554 657.821 C 435.926 645.941 464.797 583.401 472.964 572.937 C 477.419 553.09 484.323 538.299 494.282 520.534 C 496.89 515.883 503.15 506.99 504.61 502.883 C 511.336 475.835 549.133 445.776 554.297 425.209 C 558.662 386.902 587.537 360.754 611.982 332.285 C 615.792 342.097 620.097 360.968 622.803 371.58 C 642.311 351.63 651.948 345.451 676.5 332.277 C 670.145 279.497 711.912 255.106 752.262 231.699 C 757.015 228.942 763.117 225.213 768.691 225.746 C 770.178 225.888 770.743 228.292 771.436 229.691 C 778.221 229.311 801.405 221.239 809.596 218.933 C 829.172 213.403 849.074 209.097 869.185 206.039 C 994.102 186.179 1121.58 220.206 1219.98 299.675 C 1264.09 335.942 1300.33 383.183 1339.28 424.715 C 1344.99 430.809 1350.2 438.88 1355.36 444.33 C 1400.63 400.336 1446.72 355.608 1488.57 308.327 C 1487.29 301.072 1486.21 293.782 1485.33 286.467 C 1480.14 240.984 1487.62 180.73 1544.07 174.681 C 1557.62 159.914 1575.7 139.553 1592.59 129.072 C 1609.68 118.473 1625.67 122.231 1643.53 126.895 z" fill="url(#Gradient6)" transform="translate(0,0)"></path>
<path d="M 771.436 229.691 C 778.221 229.311 801.405 221.239 809.596 218.933 C 829.172 213.403 849.074 209.097 869.185 206.039 C 994.102 186.179 1121.58 220.206 1219.98 299.675 C 1264.09 335.942 1300.33 383.183 1339.28 424.715 C 1344.99 430.809 1350.2 438.88 1355.36 444.33 C 1282.79 517.361 1201.09 585.516 1102.67 619.359 C 1075.38 628.744 1046.59 634.746 1019.12 643.642 C 962.762 661.468 922.994 724.853 922.644 782.57 C 922.463 812.317 931.525 842.578 929.106 872.621 C 927.975 895.658 915.743 922.017 918.323 944.008 C 919.75 956.53 925.484 968.168 934.542 976.931 C 935.271 977.594 936 978.257 936.728 978.92 C 902.947 1058.55 866.525 1122.47 820.093 1195.08 C 796.805 1193.3 772.101 1190.51 749.019 1189.23 C 705.667 1186.64 662.163 1188.41 619.166 1194.52 C 616.911 1190.14 601.216 1181.1 596.48 1177.89 C 552.315 1147.96 513.853 1110.64 483.481 1066.93 C 473.542 1052.83 464.93 1037.84 457.752 1022.15 C 454.355 1014.63 446.528 993.1 440.579 988.968 C 443.927 955.756 438.201 939.799 425.656 909.059 C 423.139 902.892 419.902 894.542 416.215 889.053 C 415.251 887.617 414.189 888.016 411.802 887.711 C 403.981 835.703 400.614 819.954 412.302 766.252 C 408.061 735.637 419.717 683.727 435.554 657.821 C 435.926 645.941 464.797 583.401 472.964 572.937 C 477.419 553.09 484.323 538.299 494.282 520.534 C 496.89 515.883 503.15 506.99 504.61 502.883 C 511.336 475.835 549.133 445.776 554.297 425.209 C 558.662 386.902 587.537 360.754 611.982 332.285 C 615.792 342.097 620.097 360.968 622.803 371.58 C 642.311 351.63 651.948 345.451 676.5 332.277 C 670.145 279.497 711.912 255.106 752.262 231.699 C 757.015 228.942 763.117 225.213 768.691 225.746 C 770.178 225.888 770.743 228.292 771.436 229.691 z" fill="rgb(244,228,205)" transform="translate(0,0)"></path>
<path d="M 806.034 321.005 C 821.167 293.644 846.202 258.515 877.882 249.521 C 901.93 242.693 944.683 246.001 968.35 252.631 C 952.662 295.968 919.432 326.261 873.514 323.915 C 853.633 322.899 831.177 324.201 811.287 324.922 C 790.181 328.765 749.573 363.304 733.397 379.047 C 785.883 352.899 827.342 353.568 877.005 383.548 C 883.324 387.363 897.252 389.905 900.488 396.488 C 898.002 400.175 893.756 400.642 889.645 402.588 C 867.439 413.101 849.553 430.642 824.85 435.46 C 794.619 441.355 770.842 423.417 742.586 416.391 C 728.712 412.942 712.199 411.058 697.585 412.856 C 678.6 429.362 650.956 470.672 636.701 492.307 C 630.984 500.984 624.435 513.91 618.573 523.236 C 649.533 494.919 683.591 468.481 728.177 470.508 C 754.763 471.717 780.55 482.034 805.795 490.348 C 794.86 502.014 783.127 513.669 772.192 525.074 C 740.88 557.734 705.8 542.722 665.946 543.626 C 645.874 544.081 625.744 547.969 605.374 548.422 C 592.419 573.889 581.015 600.116 571.225 626.96 C 568.874 633.381 555.502 673.545 553.603 676.736 L 552.765 682.618 C 556.712 679.4 560.937 672.799 564.211 668.652 C 571.241 659.749 578.124 650.624 586.443 642.846 C 622.942 608.298 663.665 607.166 710.707 604.517 C 720.781 603.949 731.081 601.695 741.012 600.503 C 730.077 618.784 706.516 651.774 691.672 667.403 C 670.416 689.783 611.631 678.558 583.711 689.162 C 573.74 692.949 557.139 698.974 547.578 700.417 C 535.363 745.175 519.529 820.844 520.077 867.613 C 555.847 767.639 597.932 756.197 696.304 736.948 C 677.564 761.235 676.566 787.473 658.322 808.805 C 632.11 839.453 582.31 840.444 549.115 860.234 C 535.319 868.459 529.597 877.98 518.408 887.839 C 514.425 952.952 519.279 1018.3 532.839 1082.11 C 534.017 1087.67 541.543 1111.53 539.005 1113.87 C 535.324 1111.67 533.448 1101.48 532.349 1097.11 C 517.278 1037.23 512.486 975.486 513.085 913.879 C 513.164 905.793 513.111 885.742 517.219 879.273 C 514.227 876.359 512.654 874.622 510.027 871.374 C 478.852 816.373 427.773 828.59 412.302 766.252 C 408.061 735.637 419.717 683.727 435.554 657.821 C 435.926 645.941 464.797 583.401 472.964 572.937 C 477.419 553.09 484.323 538.299 494.282 520.534 C 496.89 515.883 503.15 506.99 504.61 502.883 C 511.336 475.835 549.133 445.776 554.297 425.209 C 558.662 386.902 587.537 360.754 611.982 332.285 C 615.792 342.097 620.097 360.968 622.803 371.58 C 633.343 415.196 634.676 441.26 621.784 485.873 C 618.296 497.944 611.552 514.484 611.449 526.888 C 613.241 524.451 615.034 521.482 616.685 518.895 C 636.261 485.84 659.594 446.626 686.096 418.662 C 719.844 383.054 762.592 343.412 806.034 321.005 z" fill="rgb(93,17,2)" transform="translate(0,0)"></path>
<path d="M 435.554 657.821 C 435.926 645.941 464.797 583.401 472.964 572.937 C 471.231 631.075 514.483 645.883 536.94 693.675 C 537.8 695.506 540.819 697.018 542.531 698.009 C 543.632 700.959 539.152 715.61 538.119 719.739 C 533.75 737.955 529.938 756.301 526.686 774.75 C 524.146 789.349 521.933 803.786 519.986 818.477 C 518.857 826.995 518.663 838.257 517.277 846.274 C 515.856 845.013 515.547 834.307 515.38 831.416 C 514.167 810.471 509.137 782.961 504.411 763.447 C 498.556 739.279 453.703 671.349 435.554 657.821 z" fill="rgb(244,228,205)" transform="translate(0,0)"></path>
<path d="M 504.61 502.883 C 511.336 475.835 549.133 445.776 554.297 425.209 C 556.534 450.43 573.176 476.264 582.84 499.923 C 588.228 513.112 595.392 534.004 601.982 545.655 C 589.459 570.437 578.91 596.054 568.771 621.898 C 563.192 636.118 557.956 656.145 551.849 669.426 C 563.329 603.885 548.311 562.441 514.58 507.04 C 512.916 504.306 511.12 502.113 508.06 501.385 L 504.61 502.883 z" fill="rgb(244,228,205)" transform="translate(0,0)"></path>
<path d="M 619.642 527.864 C 651.787 499.139 683.492 471.929 729.81 474.304 C 755.353 475.613 774.777 484.101 798.526 491.762 C 741.371 556.786 738.749 541.669 657.165 540.359 C 648.897 540.226 611.269 545.728 606.961 543.476 C 607.868 541.329 607.9 541.376 609.392 539.559 C 612.672 535.45 616.113 531.749 619.642 527.864 z" fill="rgb(223,191,159)" transform="translate(0,0)"></path>
<path d="M 508.538 505.604 C 527.019 532.476 548.582 576.263 551.013 608.594 C 552.452 627.725 550.522 647.957 548.937 667.029 C 551.054 671.002 550.451 674.01 553.603 676.736 L 552.765 682.618 L 551.989 684.538 C 554.082 686.062 553.18 685.649 555.855 685.957 L 549.186 695.865 L 544.863 695.588 C 542.106 694.74 538.001 687.577 536.39 684.672 C 513.705 643.765 462.317 613.244 480.173 559.446 C 486.801 539.476 496.628 521.184 508.538 505.604 z" fill="rgb(223,191,159)" transform="translate(0,0)"></path>
<path d="M 548.937 667.029 C 551.054 671.002 550.451 674.01 553.603 676.736 L 552.765 682.618 L 551.989 684.538 C 554.082 686.062 553.18 685.649 555.855 685.957 L 549.186 695.865 L 544.863 695.588 C 544.621 686.978 547.269 675.711 548.937 667.029 z" fill="rgb(74,6,1)" transform="translate(0,0)"></path>
<path d="M 522.629 871.714 C 527.452 859.425 531.223 847.03 536.793 835.011 C 551.092 803.51 576.438 778.34 608.039 764.262 C 638.892 750.649 658.024 751.006 687.491 742.858 C 676.789 760.51 673.724 774.675 665.101 791.961 C 645.547 831.16 594.938 835.018 559.314 850.515 C 549.607 854.738 540.525 861.622 532.58 868.555 C 530.566 870.313 522.592 877.616 520.774 878.468 L 522.629 871.714 z" fill="rgb(223,191,159)" transform="translate(0,0)"></path>
<path d="M 610.957 340.604 C 623.112 386.49 634.117 424.102 621.496 471.799 C 615.768 493.446 609.987 507.552 606.642 530.04 C 606.413 532.648 606.077 535.237 606.15 537.837 L 605.196 540.601 L 603.954 540.585 C 600.702 536.39 589.201 505.019 585.935 497.694 C 578.303 480.203 569.364 463.563 562.672 445.667 C 551.991 417.105 566.078 392.813 583.483 370.991 C 592.406 359.804 600.849 350.58 610.957 340.604 z" fill="rgb(223,191,159)" transform="translate(0,0)"></path>
<path d="M 555.855 685.957 C 582.045 648.475 608.057 621.297 654.506 613.374 C 680.876 608.876 707.49 610.372 732.741 606.124 C 721.456 621.883 700.808 654.158 687.232 666.347 C 670.458 681.408 620.118 677.654 597.002 681.936 C 582.677 684.589 560.63 694.976 549.186 695.865 L 555.855 685.957 z" fill="rgb(223,191,159)" transform="translate(0,0)"></path>
<path d="M 616.685 518.895 C 618.366 521.691 619.523 524.594 619.642 527.864 C 616.113 531.749 612.672 535.45 609.392 539.559 L 606.15 537.837 C 606.077 535.237 606.413 532.648 606.642 530.04 C 609.334 528.813 609.414 528.957 611.449 526.888 C 613.241 524.451 615.034 521.482 616.685 518.895 z" fill="rgb(74,6,1)" transform="translate(0,0)"></path>
<path d="M 510.027 871.374 C 513.832 868.869 519.842 866.152 522.629 871.714 L 520.774 878.468 L 517.219 879.273 C 514.227 876.359 512.654 874.622 510.027 871.374 z" fill="rgb(42,0,0)" transform="translate(0,0)"></path>
<path d="M 436.613 663.677 C 443.694 668.764 454.486 686.384 460.314 693.956 C 479.28 718.952 498.692 747.417 504.27 778.916 C 509.472 808.297 513.551 839.838 514.608 869.636 C 511.346 864.908 508.028 860.219 504.655 855.571 C 475.39 819.626 429.339 816.105 417.421 770.628 C 410.173 742.971 422.595 686.737 436.613 663.677 z" fill="rgb(223,191,159)" transform="translate(0,0)"></path>
<path d="M 794.114 364.392 C 840.248 359.81 856.519 381.502 892.599 394.878 L 894.206 395.466 C 861.208 410.676 841.572 436.782 802.42 432.183 C 790.142 429.653 774.445 423.377 762.401 418.784 C 738.734 409.76 725.796 408.622 701.395 408.032 C 725.955 382.442 759.177 368.16 794.114 364.392 z" fill="rgb(223,191,159)" transform="translate(0,0)"></path>
<path d="M 894.645 250.36 C 917.023 248.262 940.993 251.179 963.096 254.902 C 959.695 267.716 949.679 282.591 940.554 292.06 C 921.785 311.533 907.963 319.017 881.451 320.034 C 857.326 319.837 834.795 319.705 810.712 320.69 C 816.464 310.309 823.015 300.39 830.303 291.022 C 849.112 267.127 864.456 254.028 894.645 250.36 z" fill="rgb(223,191,159)" transform="translate(0,0)"></path>
<path d="M 676.5 332.277 C 670.145 279.497 711.912 255.106 752.262 231.699 C 757.015 228.942 763.117 225.213 768.691 225.746 C 770.178 225.888 770.743 228.292 771.436 229.691 L 771.359 231.492 C 770.708 248.785 773.292 260.542 770.356 279.718 C 764.448 318.312 741.437 347.246 717.735 376.863 C 709.992 386.539 700.886 399.009 692.403 407.785 C 686.901 383.105 682.091 356.384 676.5 332.277 z" fill="rgb(93,17,2)" transform="translate(0,0)"></path>
<path d="M 766.875 229.1 C 767.205 229.842 767.642 230.698 767.668 231.496 C 768.529 258.273 769.43 284.625 757.912 309.315 C 742.422 342.519 717.747 370.717 694.99 398.775 L 692.207 388.5 C 686.728 362.714 675.228 325.74 683.234 300.611 C 694.271 265.972 737.036 244.547 766.875 229.1 z" fill="rgb(223,191,159)" transform="translate(0,0)"></path>
<path d="M 633.976 1262.67 C 683.289 1239.39 749.662 1224.46 804.106 1222.02 C 790.205 1251.99 766.39 1280.04 754.87 1310.77 C 751.444 1319.91 778.153 1319.57 782.845 1319.26 C 828.961 1316.19 885.88 1316.15 922.267 1283.72 C 933.404 1273.74 943.621 1260.98 953.017 1249.79 L 952.598 1249.19 C 954.89 1247.55 956.416 1245.19 958.156 1242.93 C 1050.87 1280.36 1125.36 1338.56 1180.3 1422.9 C 1189.81 1440.19 1199.7 1457.51 1207.93 1475.45 C 1241.53 1548.75 1265.02 1684.29 1236.1 1760.64 C 1214.76 1816.98 1141.91 1852.18 1090.14 1875.2 C 881.111 1968.16 522.243 1969.8 309.747 1887.96 C 250.751 1865.24 159.73 1818.11 133.564 1758.21 C 105.542 1694.07 125.623 1583.17 150.83 1519.54 C 198.231 1401.79 289.959 1307.36 406.279 1256.55 C 407.088 1258.22 408.328 1261.03 409.258 1262.51 L 412.128 1262.53 C 413.137 1264.5 413.452 1266.24 414.884 1266.44 C 421.73 1267.37 432.303 1267.77 439.155 1267.99 C 453.574 1268.47 507.901 1272.75 517.938 1279.11 L 518.742 1280.79 C 515.447 1289.97 476.993 1317.3 465.472 1327.61 C 442.83 1347.95 421.831 1370.05 402.671 1393.7 C 392.18 1406.65 374.621 1432.45 363.135 1442.04 C 345.695 1442.3 327.423 1440.17 310.18 1440.94 C 296.793 1441.53 259.827 1445 249.827 1453.74 C 245.884 1468.18 331.392 1471.09 327.16 1486.92 C 319.744 1514.66 296.426 1543 291.556 1573.03 L 293.209 1573.09 L 294.005 1571.68 L 295.285 1571.16 L 297.758 1575.87 C 299.786 1571.93 301.877 1568.02 304.03 1564.14 C 314.276 1545.86 344.988 1498.82 364.947 1494.39 C 389.161 1489.01 443.354 1512.61 464.553 1524.87 C 475.615 1531.27 489.979 1543.81 488.89 1556.73 C 487.577 1572.3 468.46 1601.41 460.694 1616.88 C 440.636 1655.62 425.594 1695.83 418.426 1739 C 417.312 1745.71 410.825 1767.42 417.4 1771.35 C 418.62 1770.46 419.265 1769.72 419.939 1768.36 C 424.114 1759.91 426.857 1750.72 430.701 1742.11 C 434.345 1733.95 439.011 1726.05 443.141 1718.1 C 461.441 1682.91 482.925 1650.19 506.145 1618.06 C 515.416 1605.23 524.619 1591.55 536.346 1580.8 C 544.184 1573.62 551.433 1569.85 562.313 1570.23 C 608.751 1571.85 778.837 1687.72 793.439 1686.05 C 796.113 1685.75 796.591 1684.74 797.933 1682.72 C 797.932 1672.33 786.008 1660.74 779.286 1653.52 C 740.316 1611.68 693.962 1581.34 644.596 1553.2 C 635.341 1547.92 603.524 1532.92 599.736 1524.18 C 597.94 1520.03 598.829 1515.31 600.782 1511.4 C 612.778 1487.39 741.892 1404.87 770.752 1395.56 C 779.941 1392.6 788.416 1391.67 797.675 1394.93 C 835.759 1408.32 933.511 1503.01 967.006 1537.8 C 979.116 1550.38 1004.67 1581.24 1019.58 1588.33 C 1022.36 1589.65 1024.21 1589.95 1027.09 1588.95 C 1027.79 1588 1027.96 1587.89 1028.39 1586.63 C 1031.31 1578.13 1021.24 1561.36 1017.04 1554.16 C 990.103 1507.89 951.117 1468.82 910.297 1434.74 C 899.904 1426.06 842.111 1385.74 840.117 1381.2 C 839.115 1378.91 839.268 1378.42 840.215 1376.33 C 844.494 1373.16 848.398 1371.73 853.346 1370 C 914.612 1348.63 980.793 1340.61 1045.47 1342.87 C 1050.18 1343.03 1053.91 1343.66 1058.55 1342.22 L 1059.19 1340.54 C 1054.02 1332.78 1017.53 1327.72 1006.96 1325.78 C 953.778 1316.05 900.688 1311.84 848.083 1327.33 C 836.458 1330.76 791.15 1347.92 782.92 1343.27 C 759.138 1329.85 735.16 1314.24 711.203 1300.47 C 686.943 1286.51 658.738 1276.39 634.862 1263.17 L 633.976 1262.67 z" fill="rgb(244,228,205)" transform="translate(0,0)"></path>
<path d="M 952.598 1249.19 C 954.89 1247.55 956.416 1245.19 958.156 1242.93 C 1050.87 1280.36 1125.36 1338.56 1180.3 1422.9 C 1189.81 1440.19 1199.7 1457.51 1207.93 1475.45 C 1241.53 1548.75 1265.02 1684.29 1236.1 1760.64 C 1214.76 1816.98 1141.91 1852.18 1090.14 1875.2 C 881.111 1968.16 522.243 1969.8 309.747 1887.96 C 250.751 1865.24 159.73 1818.11 133.564 1758.21 C 105.542 1694.07 125.623 1583.17 150.83 1519.54 C 198.231 1401.79 289.959 1307.36 406.279 1256.55 C 407.088 1258.22 408.328 1261.03 409.258 1262.51 C 405.004 1266.63 372.921 1281.05 364.449 1285.92 C 259.928 1346.04 173.85 1449.15 142.345 1566.63 C 127.771 1620.97 116.33 1715 145.487 1764.86 C 188.228 1837.95 310.015 1885.59 388.534 1905.71 C 604.666 1961.08 950.911 1955.55 1146.42 1839.27 C 1182.96 1817.55 1223.1 1788.31 1233.78 1745.04 C 1253.72 1664.23 1236.28 1560.86 1204.37 1485.12 C 1196.04 1465.35 1185.58 1446.05 1174.44 1427.74 C 1132.72 1359.16 1031.9 1269.05 953.017 1249.79 L 952.598 1249.19 z" fill="url(#Gradient5)" transform="translate(0,0)"></path>
<path d="M 291.556 1573.03 L 293.209 1573.09 L 294.005 1571.68 L 295.285 1571.16 L 297.758 1575.87 C 296.085 1580.15 294.864 1586.54 289.96 1587.13 L 288.888 1585.25 C 288.655 1580.44 290.019 1577.6 291.556 1573.03 z" fill="rgb(42,0,0)" transform="translate(0,0)"></path>
<path d="M 1202.83 1750.75 C 1203.56 1751.34 1204.19 1752.28 1204.81 1753.06 C 1204 1757.09 1191.13 1768.13 1187.32 1770.94 C 1045 1875.94 831.505 1895.89 659.87 1897.13 C 623.205 1897.39 577.86 1896.04 543.161 1892.02 C 541.672 1891.51 542.442 1891.96 541.106 1890.31 L 542.05 1888.82 C 551.53 1887.46 567.082 1889.89 576.834 1890.39 C 667.533 1895.02 756.224 1893.67 846.395 1881.8 C 947.972 1868.43 1050.12 1848.01 1140.13 1796.46 C 1160.3 1784.9 1187.96 1768.12 1202.83 1750.75 z" fill="url(#Gradient4)" transform="translate(0,0)"></path>
<path d="M 1191.21 1790.87 L 1192 1791.23 L 1192.56 1792.91 C 1185.83 1803.91 1130.55 1833.77 1116.84 1839.86 C 955.829 1911.32 766.254 1929.41 592.054 1919.9 C 590.156 1919 590.875 1919.7 589.955 1917.73 C 591.023 1916.29 591.523 1915.58 594.247 1915.78 C 605.048 1916.57 616.201 1917.11 626.96 1917.48 C 650.418 1918.26 673.892 1918.44 697.359 1918.04 C 836.23 1915.32 996.036 1892.38 1122.71 1831.91 C 1147.56 1820.04 1168.23 1805.75 1191.21 1790.87 z" fill="rgb(74,6,1)" transform="translate(0,0)"></path>
<path d="M 164.818 1575.4 L 167.474 1577.05 C 167.917 1579.78 166.604 1583.29 165.727 1585.9 C 150.849 1630.32 148.244 1677.25 152.404 1723.62 C 153.125 1731.65 161.327 1761.07 159.998 1766.23 C 158.871 1764.72 157.11 1762.15 156.505 1760.46 C 138.057 1709.07 145.809 1624.22 164.818 1575.4 z" fill="rgb(74,6,1)" transform="translate(0,0)"></path>
<path d="M 1203.32 1716.72 L 1205.11 1718.54 C 1204.47 1723.24 1186.37 1738.39 1182.2 1741.58 C 1143.81 1770.99 1099.04 1798.44 1050.42 1804.97 L 1049.38 1802.96 C 1051.79 1799.63 1062.86 1798.88 1067.69 1797.66 C 1078.3 1794.87 1088.68 1791.25 1098.72 1786.83 C 1135.57 1770.98 1174.36 1744.42 1203.32 1716.72 z" fill="rgb(74,6,1)" transform="translate(0,0)"></path>
<path d="M 183.6 1632.53 L 185.503 1634.52 C 170.549 1677.55 169.778 1709 177.658 1754.68 C 179.113 1763.12 187.571 1779.77 186.167 1786.03 C 162.622 1760.96 162.865 1660.29 183.6 1632.53 z" fill="rgb(74,6,1)" transform="translate(0,0)"></path>
<path d="M 1210.76 1664.57 L 1212.39 1665.98 C 1212.42 1667.25 1212.4 1668.27 1211.59 1669.38 C 1189.54 1699.39 1148.89 1735.2 1113.24 1745.23 L 1111.25 1743.98 C 1111.35 1743.39 1111.46 1742.79 1111.57 1742.2 C 1117.34 1739.39 1126.82 1735.94 1132.26 1733.05 C 1163.41 1716.46 1188.05 1690.93 1210.76 1664.57 z" fill="rgb(74,6,1)" transform="translate(0,0)"></path>
<path d="M 200.397 1682.38 L 201.926 1683.17 C 201.753 1682.75 200.227 1728.95 200.26 1735.53 C 200.421 1767.49 206.905 1780.82 215.8 1810.22 C 193.996 1799.6 192.76 1704.66 200.397 1682.38 z" fill="rgb(74,6,1)" transform="translate(0,0)"></path>
<path d="M 1210.16 1616.6 L 1211.37 1618.35 C 1209.54 1631.36 1171.91 1674.42 1160.61 1684.05 L 1158.89 1681.49 C 1160.46 1677.86 1175.85 1662.59 1179.85 1657.9 C 1191.31 1644.44 1199.88 1630.62 1210.16 1616.6 z" fill="rgb(93,17,2)" transform="translate(0,0)"></path>
<path d="M 224.33 1745.35 C 227.881 1747.48 227.287 1755.09 226.907 1759.19 C 224.543 1784.74 233.125 1800.15 241.31 1822.7 L 241.81 1824.12 C 223.403 1815.21 220.825 1762.5 224.33 1745.35 z" fill="rgb(74,6,1)" transform="translate(0,0)"></path>
<path d="M 1204.02 1557.5 L 1205.71 1559.55 C 1206.49 1572.87 1185.17 1614.54 1176.39 1625.21 L 1175.39 1623.61 C 1175.93 1620.46 1177.32 1617.5 1178.98 1614.79 C 1190.05 1596.74 1195.58 1576.3 1204.02 1557.5 z" fill="rgb(74,6,1)" transform="translate(0,0)"></path>
<path d="M 244.237 1789.25 C 246.134 1789.74 245.915 1789.78 247.677 1790.74 C 250.712 1799.31 252.606 1803.46 256.763 1811.59 C 259.922 1817.77 265.317 1824.33 266.568 1830.39 C 255.952 1826.88 245.87 1800 244.237 1789.25 z" fill="rgb(74,6,1)" transform="translate(0,0)"></path>
<path d="M 1307.99 708.902 C 1388.27 680.07 1467.55 648.517 1545.68 614.297 C 1549.71 619.765 1565.11 629.872 1571.22 634.777 C 1587.76 648.056 1604.96 660.767 1620.77 675.001 C 1693.63 740.271 1720.53 809.476 1724.1 905.396 C 1725.21 932.752 1724.53 960.15 1722.09 987.419 C 1715.94 1050.3 1698.26 1098.59 1669.47 1154.04 C 1590.58 1306 1423.99 1390.97 1259.51 1413.47 C 1250.3 1414.73 1183.72 1421.05 1180.3 1422.9 C 1125.36 1338.56 1050.87 1280.36 958.156 1242.93 C 972.293 1221.73 987.609 1196.82 994.482 1172.18 L 993.066 1172.1 L 991.829 1173.2 C 989.855 1171.82 990.095 1170.66 989.154 1167.76 C 991.907 1157.77 992.595 1154.17 991.867 1143.7 C 983.442 1133.66 967.126 1129.81 954.952 1125.23 C 938.18 1118.92 921.308 1113.4 904.879 1106.1 L 904.942 1105.14 L 906.45 1104.82 C 916.145 1109.33 926.86 1113.02 936.955 1116.68 L 938.23 1116.03 C 938.281 1115.74 938.892 1112.24 939.152 1111.93 C 952.526 1095.74 967.513 1077.96 980.197 1061.3 C 989.821 1048.67 996.498 1039.76 1005.19 1027.25 C 1007.88 1023.39 1020.08 1004.37 1020.75 1004.58 C 1033.97 1008.62 1045.44 1011.13 1059.58 1004.52 C 1076.59 996.562 1080.58 974.904 1085.94 958.653 C 1087.29 954.585 1088.81 951.603 1093.19 950.264 C 1098.69 948.581 1109.29 941.587 1113.82 943.247 C 1119.85 941.45 1128.96 937.295 1134.96 934.872 C 1166.73 922.056 1210.56 904.538 1234.23 879.461 C 1276.34 834.842 1291.75 766.457 1307.99 708.902 z" fill="rgb(244,228,205)" transform="translate(0,0)"></path>
<path d="M 904.879 1106.1 L 904.942 1105.14 L 906.45 1104.82 C 916.145 1109.33 926.86 1113.02 936.955 1116.68 L 938.23 1116.03 C 938.281 1115.74 938.892 1112.24 939.152 1111.93 C 952.526 1095.74 967.513 1077.96 980.197 1061.3 C 989.821 1048.67 996.498 1039.76 1005.19 1027.25 C 1007.88 1023.39 1020.08 1004.37 1020.75 1004.58 C 1033.97 1008.62 1045.44 1011.13 1059.58 1004.52 C 1076.59 996.562 1080.58 974.904 1085.94 958.653 C 1087.29 954.585 1088.81 951.603 1093.19 950.264 C 1098.69 948.581 1109.29 941.587 1113.82 943.247 C 1105.89 946.765 1097.74 950.51 1089.72 953.759 C 1081.43 980.218 1074.13 1012.39 1039.02 1010.4 C 1034.06 1010.12 1030.45 1009.5 1025.65 1007.83 C 1024.2 1007.33 1022.78 1006.77 1021.37 1006.14 C 995.425 1047.56 970.79 1075.85 940.768 1113.04 L 942.195 1113.68 C 959.542 1121.26 992.093 1125.28 998.961 1143.84 C 996.285 1143.65 994.514 1143.33 991.867 1143.7 C 983.442 1133.66 967.126 1129.81 954.952 1125.23 C 938.18 1118.92 921.308 1113.4 904.879 1106.1 z" fill="rgb(5,0,0)" transform="translate(0,0)"></path>
<path d="M 998.961 1143.84 C 999.459 1152.73 998.91 1164.23 994.482 1172.18 L 993.066 1172.1 L 991.829 1173.2 C 989.855 1171.82 990.095 1170.66 989.154 1167.76 C 991.907 1157.77 992.595 1154.17 991.867 1143.7 C 994.514 1143.33 996.285 1143.65 998.961 1143.84 z" fill="rgb(42,0,0)" transform="translate(0,0)"></path>
<path d="M 887.21 1099.42 C 893.266 1102.03 898.664 1103.92 904.879 1106.1 C 921.308 1113.4 938.18 1118.92 954.952 1125.23 C 967.126 1129.81 983.442 1133.66 991.867 1143.7 C 992.595 1154.17 991.907 1157.77 989.154 1167.76 C 990.095 1170.66 989.855 1171.82 991.829 1173.2 L 993.066 1172.1 L 994.482 1172.18 C 987.609 1196.82 972.293 1221.73 958.156 1242.93 C 956.416 1245.19 954.89 1247.55 952.598 1249.19 C 950.711 1248.63 948.1 1246.99 946.275 1245.97 C 928.13 1268 909.95 1292.14 881.14 1299.64 C 847.406 1308.43 794.861 1316.26 760.69 1311.71 C 768.473 1294.63 790.65 1259.41 800.935 1242.13 L 887.21 1099.42 z" fill="rgb(253,251,245)" transform="translate(0,0)"></path>
<path d="M 989.154 1167.76 C 990.095 1170.66 989.855 1171.82 991.829 1173.2 L 993.066 1172.1 L 994.482 1172.18 C 987.609 1196.82 972.293 1221.73 958.156 1242.93 C 956.416 1245.19 954.89 1247.55 952.598 1249.19 C 950.711 1248.63 948.1 1246.99 946.275 1245.97 C 966.147 1219.12 977.125 1198.74 989.154 1167.76 z" fill="rgb(5,0,0)" transform="translate(0,0)"></path>
<path d="M 976.431 1152.14 L 979.022 1153.21 L 979.782 1155.42 C 978.907 1161.64 974.713 1170.91 972.294 1176.98 C 957.951 1212.96 932.436 1255.75 903.639 1281.76 C 902.738 1281.84 902.09 1281.56 901.138 1281.34 C 901.614 1278.28 910.65 1269.4 913.428 1266.13 C 920.076 1258.29 926.262 1250.08 931.952 1241.52 C 952.941 1209.99 963.319 1187.03 976.431 1152.14 z" fill="url(#Gradient3)" transform="translate(0,0)"></path>
<path d="M 1579.36 219.549 C 1591.28 221.972 1602.84 225.856 1613.81 231.113 C 1703.08 273.003 1746.47 369.565 1777.71 456.612 C 1659.91 577.722 1463.13 640.066 1309.51 702.216 C 1313.34 690.286 1327.09 652.912 1325.16 642.759 C 1316.04 647.775 1289.31 753.863 1282.72 772.364 C 1277.76 786.304 1272.24 804.568 1265.33 819.2 C 1255.11 840.821 1242.63 864.562 1223.83 880.288 C 1186.36 911.623 1136.27 927.115 1091.68 945.61 C 1075.5 952.321 1060.92 956.132 1045.56 964.812 C 1052.33 959.251 1065.44 950.957 1061.13 941.051 C 1048.59 930.727 1022.84 943.153 1010.77 949.877 C 1017.12 909.236 1054.49 903.814 1086.02 888.872 C 1098.47 883.115 1109.93 875.405 1119.96 866.032 C 1137.2 849.913 1146.49 833.518 1147.21 809.39 C 1147.3 806.221 1147.38 802.648 1145.15 800.29 C 1141.11 802.222 1141 814.317 1140.09 819.647 C 1135.99 843.702 1121.93 855.837 1104.98 871.394 C 1110.3 861.249 1116.08 850.742 1120.61 840.26 C 1129.41 816.82 1152.5 746.061 1097.73 747.638 C 1081.13 748.115 1059.16 776.16 1049.35 789.34 C 1036.15 773.254 1023.45 771.736 1012.45 791.016 C 1001.27 810.59 1000.83 831.656 1006.45 852.988 C 999.195 864.049 992.598 875.525 986.688 887.357 C 986.929 863.406 986.573 834.789 991.165 811.139 C 994.961 791.589 1010.36 763.7 1027.13 751.907 C 1029.05 750.55 1029.1 750.823 1031.61 748.653 C 1031.63 745.51 1032.07 746.895 1030.24 744.352 L 1027.63 744.314 C 1022.41 746.825 1015.96 753.775 1012.15 758.119 C 986.183 787.69 981.842 816.902 981.267 854.932 C 981.056 868.902 980.311 881.285 981.215 895.603 C 965.792 922.634 953.38 945.129 939.622 973.22 C 916.162 944.003 926.317 928.19 932.573 896.465 C 945.827 829.251 911.659 785.706 945.259 719.395 C 982.004 646.878 1036.26 647.468 1104.33 625.531 C 1191.16 597.549 1256.47 544.289 1322.12 484.485 C 1374.57 435.847 1425.49 385.595 1474.82 333.799 C 1507.25 299.924 1540.17 264.259 1572.72 230.3 C 1575.32 227.589 1577.7 222.941 1579.36 219.549 z" fill="rgb(171,136,118)" transform="translate(0,0)"></path>
<path d="M 802.57 1211.39 C 805.84 1211.12 806.136 1210.94 809.429 1211.67 L 809.497 1213.34 L 807.439 1215.07 C 788.672 1215.31 769.31 1217.98 750.775 1220.87 C 731.159 1223.94 636.097 1246.57 628.829 1260.66 C 627.618 1263.01 627.919 1263.89 628.452 1266.31 C 630.824 1269.2 654.312 1279.78 659.636 1282.22 C 701.028 1301.21 739.801 1322.97 777.826 1348.05 C 784.224 1352.27 794.133 1350.87 801.069 1349.01 C 878.774 1316.87 944.201 1317.53 1026.53 1336.53 C 978.187 1337.31 928.888 1341.12 882.27 1354.6 C 871.001 1357.86 830.22 1364.99 831.69 1379.73 C 832.21 1384.14 836.259 1388.86 839.799 1391.19 C 893.831 1426.8 944.497 1467.18 984.994 1518.14 C 992.978 1528.18 1025.59 1571.99 1020.93 1581.47 C 1012.68 1580.97 963.747 1524.6 952.796 1514.45 C 922.415 1486.28 828.014 1391.44 790.905 1386.93 C 784.007 1386.14 777.02 1386.78 770.378 1388.8 C 734.116 1399.99 649.522 1460.36 616.963 1486.11 C 609.108 1492.32 593.196 1505.91 592.591 1516.65 C 592.195 1523.66 595.018 1529.9 600.638 1534.04 C 615.808 1545.21 635.374 1554.73 651.868 1564.39 C 703.69 1594.75 743.932 1621.38 782.886 1667.65 C 786.005 1671.57 788.822 1676 791.619 1680.17 C 770.858 1670.93 750.695 1657.25 730.976 1645.87 C 688.298 1621.24 645.578 1596.24 600.9 1575.37 C 585.727 1568.29 564.886 1559.64 548.165 1566.18 C 518.253 1577.86 460.688 1672.27 443.631 1703.49 C 435.601 1718.18 428.853 1733.26 421.973 1748.51 C 427.036 1718.57 435.264 1689.25 446.518 1661.04 C 453.512 1643.11 465.002 1621.24 474.134 1603.76 C 488.612 1576.05 511.459 1550.25 476.029 1525.16 C 450.343 1506.97 398.637 1485.36 366.838 1487.2 C 345.132 1488.45 314.549 1537.23 303.049 1554.38 C 307.135 1542.19 312.256 1531.24 317.907 1520.41 C 321.515 1511.98 338.022 1489.36 330.676 1480.22 C 322.045 1469.49 300.611 1466.64 287.539 1463.03 C 278.626 1460.56 267.289 1458.26 257.898 1456.09 C 295.836 1441.9 326.267 1449.45 362.24 1448.78 L 363.766 1448.74 C 376.172 1440.95 393.69 1412.53 403.926 1399.95 C 434.215 1361.73 469.556 1329.09 508.687 1300.18 C 538.079 1278.46 526.347 1272.09 498.788 1266.99 C 471.045 1261.86 445.66 1262.22 418.305 1259.13 C 437.071 1252.72 451.275 1247.63 470.886 1247.77 C 490.751 1247.89 510.584 1249.38 530.245 1252.23 C 535.391 1253.01 542.347 1254.23 547.2 1256.06 C 566.017 1263.18 581.947 1254.74 600.031 1248.95 C 619.398 1242.74 638.861 1235.87 658.848 1230.75 C 706.158 1218.65 754.213 1216.49 802.57 1211.39 z" fill="rgb(223,191,159)" transform="translate(0,0)"></path>
<path d="M 583.571 1285.23 C 608.073 1283.41 679.761 1319.28 704.972 1330.47 C 721.555 1337.83 745.11 1354.67 721.54 1372.29 C 675.809 1406.48 625.407 1435.24 583.21 1474.31 C 570.845 1485.78 556.263 1506.34 537.875 1504.21 C 517.918 1497.87 495.268 1485.13 472.379 1477.68 C 460.948 1474.06 449.386 1470.87 437.718 1468.12 C 427.489 1465.71 387.076 1460.77 386.311 1449.43 C 385.191 1432.83 414.467 1405.31 426.246 1393.81 C 465.49 1355.52 529.039 1295.21 583.571 1285.23 z" fill="url(#Gradient2)" transform="translate(0,0)"></path>
<path d="M 584.109 1291.24 C 603.704 1289.75 701.62 1333.65 717.917 1346.08 C 721.699 1348.96 725.065 1351.63 725.768 1356.57 C 723.758 1364.98 699.692 1381.25 691.394 1386.72 C 651.203 1413.14 611.596 1439.62 576.434 1472.68 C 567.057 1481.5 551.788 1501.01 537.787 1498.17 C 527.991 1494.81 513.881 1487.72 503.943 1483.33 C 490.251 1477.31 476.181 1472.2 461.823 1468.02 C 451.736 1465.01 441.538 1462.39 431.253 1460.15 C 425.155 1458.82 390.309 1455.21 391.982 1446.84 C 394.934 1432.07 417.722 1411.41 428.373 1400.87 C 466.676 1362.95 530.305 1301.13 584.109 1291.24 z" fill="rgb(244,228,205)" transform="translate(0,0)"></path>
<path d="M 1554.6 173.995 C 1565.78 160.544 1594.64 129.38 1611.86 129.337 C 1653.7 129.233 1711.19 165.98 1741.65 192.37 C 1829.19 268.198 1883.7 387.635 1895.55 501.733 C 1897.21 517.695 1896.86 535.6 1885.78 547.49 C 1872.44 561.816 1854.07 574.646 1836.73 583.469 C 1839.18 534.072 1834.16 488.411 1818.39 441.391 C 1816.38 435.391 1814.02 421.54 1808.94 418.794 L 1806.3 419.215 C 1804.93 421.347 1804.82 422.851 1805.74 425.419 C 1816.18 454.52 1825.96 487.251 1828.6 518.238 C 1831.44 551.478 1841.31 611.414 1797.58 621.495 C 1747.47 633.048 1693.6 587.996 1661.06 554.502 C 1698.93 531.648 1735.87 506.506 1767.75 475.886 C 1770.59 473.161 1776.8 465.597 1780.23 465.566 L 1781.26 467.837 L 1787.89 467.098 C 1760.03 367.121 1688.4 232.855 1576.77 212.363 C 1574.92 214.73 1573.99 216.03 1573.73 219.263 C 1556.45 238.236 1538.87 256.923 1520.99 275.319 C 1513.4 283.175 1502.6 294.979 1494.8 302.001 C 1489.88 273.267 1488.17 235.295 1501.87 209.715 C 1524.43 167.633 1585.36 180.534 1620.65 195.249 C 1622.65 196.083 1623.36 194.805 1624.43 193.585 C 1621.8 179.922 1566.54 174.704 1554.6 173.995 z" fill="rgb(253,251,245)" transform="translate(0,0)"></path>
<path d="M 1787.89 467.098 C 1802.53 517.284 1838.1 641.954 1729.1 585.702 C 1724.22 583.18 1707.46 572.17 1705.28 567.44 L 1705.2 565.03 C 1709.19 562.877 1724.36 572.819 1727.82 575.989 C 1742.99 589.881 1790.45 606.013 1796.85 575.599 C 1803.22 545.36 1789.27 498.578 1781.26 467.837 L 1787.89 467.098 z" fill="rgb(42,0,0)" transform="translate(0,0)"></path>
<path d="M 1518.51 230.338 C 1529.72 209.038 1556.41 209.267 1576.77 212.363 C 1574.92 214.73 1573.99 216.03 1573.73 219.263 C 1552.2 214.556 1538.67 218.055 1523.47 234.31 C 1522.5 234.499 1521.54 234.697 1520.58 234.906 L 1520.02 235.917 L 1519.25 235.799 C 1519.62 233.105 1519.74 232.879 1518.51 230.338 z" fill="rgb(42,0,0)" transform="translate(0,0)"></path>
<path d="M 1518.51 230.338 C 1519.74 232.879 1519.62 233.105 1519.25 235.799 L 1520.02 235.917 L 1520.58 234.906 C 1521.54 234.697 1522.5 234.499 1523.47 234.31 C 1521.73 239.528 1521.35 243.927 1515.71 245.673 L 1514.62 244.262 C 1513.76 237.903 1515.08 235.884 1518.51 230.338 z" fill="rgb(5,0,0)" transform="translate(0,0)"></path>
<path d="M 1096.21 754.111 C 1128.85 751.925 1129.43 782.061 1124.68 805.835 C 1119.58 831.369 1107.14 854.252 1095.39 877.162 C 1064.58 894.031 993.408 907.88 1006.85 960.77 C 1011.41 978.736 1028.66 973.145 1041.42 967.642 C 1026.26 983.501 1016.51 1002.14 1004.19 1020.25 C 991.215 1039.2 977.415 1057.56 962.831 1075.3 L 952.563 1088.11 C 938.197 1077.45 922.636 1069.85 906.825 1061.55 C 920.62 1030.72 944.252 977.704 959.117 949.554 C 982.175 905.887 1053.91 771.752 1096.21 754.111 z" fill="rgb(223,191,159)" transform="translate(0,0)"></path>
<path d="M 681.539 1195.41 C 716.359 1192.23 784.818 1197.99 819.143 1202.44 C 813.78 1203.98 800.409 1205.16 794.224 1205.93 C 770.379 1208.87 746.251 1210.41 722.361 1213.11 C 676.44 1218.31 639.157 1229.63 595.761 1244.01 C 562.658 1255.77 565.576 1253.29 531.751 1246 C 514.946 1242.38 484.184 1241.79 466.734 1241.61 C 535.419 1214.87 607.934 1199.28 681.539 1195.41 z" fill="rgb(244,228,205)" transform="translate(0,0)"></path>
<path d="M 1080.16 956.997 C 1080.69 957.141 1081.06 957.624 1081.48 957.97 C 1073.88 986.126 1062.69 1009.21 1029.22 1002.59 L 1026.46 1001.23 L 1026.11 999.111 C 1040.31 973.339 1053.96 967.712 1080.16 956.997 z" fill="rgb(171,136,118)" transform="translate(0,0)"></path>
<path d="M 903.756 1067.83 C 920.521 1076.34 931.858 1082.75 947.525 1093.12 C 943.47 1098.47 938.253 1104.21 933.798 1109.34 C 928.191 1108.64 897.177 1096.18 890.856 1093.7 C 894.806 1084.9 899.11 1076.27 903.756 1067.83 z" fill="rgb(253,251,245)" transform="translate(0,0)"></path>
<path d="M 1027.44 781.822 C 1035.9 783.38 1039.45 787.539 1046.05 793.157 C 1036.21 807.123 1027.67 819.32 1018.39 833.76 L 1010.66 846.005 C 1006.67 822.931 1008.14 797.993 1027.44 781.822 z" fill="rgb(171,136,118)" transform="translate(0,0)"></path>
<path d="M 1045.24 942.344 C 1050.39 942.2 1053.56 941.155 1056.7 945.458 C 1056.52 955.77 1033.94 965.094 1025.48 967.336 C 1020.06 967.111 1013.43 965.801 1012.34 959.727 C 1014.97 948.582 1035.18 943.324 1045.24 942.344 z" fill="rgb(253,251,245)" transform="translate(0,0)"></path>
<path d="M 411.802 887.711 C 414.189 888.016 415.251 887.617 416.215 889.053 C 419.902 894.542 423.139 902.892 425.656 909.059 C 438.201 939.799 443.927 955.756 440.579 988.968 C 446.528 993.1 454.355 1014.63 457.752 1022.15 C 464.93 1037.84 473.542 1052.83 483.481 1066.93 C 513.853 1110.64 552.315 1147.96 596.48 1177.89 C 601.216 1181.1 616.911 1190.14 619.166 1194.52 C 573.619 1201.67 530.98 1212.44 487.139 1226.65 C 479.126 1229.25 453.004 1241.56 446.344 1240.15 L 442.101 1241.91 C 426.049 1227.5 404.659 1195.57 390.468 1177.83 C 382.093 1167.6 374.413 1152.83 363.175 1145.31 C 340.148 1129.91 313.059 1122.12 285.694 1122.84 C 256.275 1123.11 221.647 1133.14 195.459 1114.78 C 182.542 1105.73 169.576 1090.84 162.144 1077.12 C 147.494 1050.06 130.59 1018.41 124.531 988.303 L 128.181 990.919 C 141.937 1000.86 176.762 1008.12 194.854 1013.62 C 253.221 1031.33 293.291 1065.22 335.042 1107.87 C 340.701 1113.65 345.635 1120.38 351.157 1126.49 L 352.024 1126.41 C 348.266 1119.58 340.512 1108.84 335.95 1101.87 C 326.826 1087.76 317.975 1073.49 309.403 1059.04 C 288.558 1023.28 279.86 998.142 264.91 960.696 L 269.67 961.355 C 280.137 1004.64 338.629 1105.93 368.526 1140.02 C 363.649 1106.6 353.422 1079.78 350.846 1046.1 C 346.924 994.832 356.099 976.338 389.821 939.556 C 400.964 927.402 413.365 905.361 411.802 887.711 z" fill="rgb(253,251,245)" transform="translate(0,0)"></path>
<path d="M 411.802 887.711 C 414.189 888.016 415.251 887.617 416.215 889.053 C 419.902 894.542 423.139 902.892 425.656 909.059 C 438.201 939.799 443.927 955.756 440.579 988.968 C 436.786 1004.96 432.003 1018.19 421.949 1031.87 C 398.328 1064.03 368.087 1076.53 370.67 1121.17 C 373.094 1163.07 405.743 1187.93 428.844 1220.2 C 433.716 1227.01 441.193 1233.51 446.344 1240.15 L 442.101 1241.91 C 426.049 1227.5 404.659 1195.57 390.468 1177.83 C 382.093 1167.6 374.413 1152.83 363.175 1145.31 C 340.148 1129.91 313.059 1122.12 285.694 1122.84 C 256.275 1123.11 221.647 1133.14 195.459 1114.78 C 182.542 1105.73 169.576 1090.84 162.144 1077.12 C 147.494 1050.06 130.59 1018.41 124.531 988.303 L 128.181 990.919 C 141.937 1000.86 176.762 1008.12 194.854 1013.62 C 253.221 1031.33 293.291 1065.22 335.042 1107.87 C 340.701 1113.65 345.635 1120.38 351.157 1126.49 L 352.024 1126.41 C 348.266 1119.58 340.512 1108.84 335.95 1101.87 C 326.826 1087.76 317.975 1073.49 309.403 1059.04 C 288.558 1023.28 279.86 998.142 264.91 960.696 L 269.67 961.355 C 280.137 1004.64 338.629 1105.93 368.526 1140.02 C 363.649 1106.6 353.422 1079.78 350.846 1046.1 C 346.924 994.832 356.099 976.338 389.821 939.556 C 400.964 927.402 413.365 905.361 411.802 887.711 z" fill="rgb(93,17,2)" transform="translate(0,0)"></path>
<path d="M 131.498 998.504 C 158.127 1008.44 185.939 1013.78 212.266 1023.97 C 226.755 1029.54 240.698 1036.43 253.915 1044.57 C 277.735 1059.5 333.384 1106.37 347.294 1128.84 L 346.589 1130.13 C 327.34 1123.78 320.188 1121.21 299.543 1119.34 C 266.275 1116.33 230.908 1129.99 201.187 1113.78 C 170.473 1097.03 140.076 1030.56 131.498 998.504 z" fill="rgb(253,251,245)" transform="translate(0,0)"></path>
<path d="M 415.672 897.85 C 419.533 902.338 430.115 931.722 432.305 938.273 C 444.367 974.361 436.131 1012.95 410.072 1040.8 C 393.451 1058.56 376.488 1071.91 368.699 1095.94 C 367.586 1099.54 366.846 1103.76 366.083 1107.49 C 356.151 1067.83 343.677 1007.09 368.863 971.33 C 386.46 946.343 409.173 930.719 415.672 897.85 z" fill="rgb(253,251,245)" transform="translate(0,0)"></path>
<path d="M 123.091 509.22 C 173.907 550.714 209.959 606.585 218.834 671.741 C 221.352 690.23 225.31 709.381 228.628 727.795 L 232.552 727.158 C 233.832 675.131 240.581 609.604 255.064 560.145 C 255.989 563.235 256.002 563.108 257.85 565.791 C 245.827 603.151 240.709 657.382 238.293 696.825 C 237.756 705.591 236.528 721.176 237.159 729.411 L 237.444 731.217 C 240.105 721.784 242.037 712.931 245.065 703.9 C 266.876 638.858 321.602 608.466 381.692 585.354 C 388.01 582.924 396.189 575.97 402.404 574.226 L 402.862 575.881 L 401.762 577.54 C 395.834 586.578 397.129 591.431 395.931 601.734 C 394.227 616.384 392.29 632.944 386.379 646.448 C 363.693 698.268 299.807 707.073 259.108 739.387 C 251.597 745.268 244.562 752.547 236.901 757.889 C 236.996 817.535 250.616 883.08 262.96 941.864 C 262.965 858.083 289.759 821.442 353.36 773.232 C 359.053 768.917 368.982 752.561 374.152 750.84 C 380.321 756.418 384.466 795.814 385.054 804.5 C 387.738 844.168 372.85 866.256 339.626 886.423 C 311.535 903.474 285.996 924.112 272.816 955.639 L 269.67 961.355 L 264.91 960.696 L 262.295 957.755 C 250.121 947.207 236.741 937.121 222.509 929.655 C 194.421 914.921 169.061 907.596 143.801 887.175 C 106.382 856.924 104.353 815.515 98.859 771.408 C 97.2872 758.788 93.7331 746.96 92.4337 734.2 C 104.66 745.179 120.892 754.462 134.907 763.298 C 157.594 777.599 173.355 792.315 190.065 813.213 C 200.097 825.758 205.66 835.945 213.148 848.597 C 221.365 862.483 245.335 911.808 254.752 920.873 C 246.56 881.485 239.141 844.266 234.87 804.004 C 233.617 792.19 233.997 757.894 230.206 750.492 C 228.09 750.93 228.111 750.928 226.063 751.081 C 217.662 743.436 210.369 732.624 202.664 724.428 C 190.582 711.573 175.365 694.184 162.723 682.065 C 106.09 627.777 121.8 579.58 123.091 509.22 z" fill="rgb(93,17,2)" transform="translate(0,0)"></path>
<path d="M 98.2586 744.675 C 116.768 757.627 136.721 767.737 154.364 781.863 C 196.495 815.593 216.286 865.509 242.238 911.08 C 248.123 921.414 254.125 931.475 259.585 942.095 L 262.62 951.612 C 260.405 951.084 234.643 931.424 227.28 927.636 C 203.288 915.294 180.76 906.86 157.765 892.441 C 102.216 857.608 110.163 801.698 98.2586 744.675 z" fill="rgb(253,251,245)" transform="translate(0,0)"></path>
<path d="M 267.709 937.139 C 266.684 892.607 278.232 849.068 309.751 816.352 C 331.568 793.706 353.846 782.291 373.273 756.592 C 380.426 785.687 388.091 825.964 371.332 852.991 C 360.035 871.211 336.236 883.153 318.802 895.569 C 310.511 901.565 302.683 908.177 295.386 915.349 C 287.4 923.225 282.613 929.392 276.386 938.701 C 273.847 942.499 270.427 950.742 268.395 952.17 L 267.523 949.259 C 268 945.196 267.784 941.234 267.709 937.139 z" fill="rgb(253,251,245)" transform="translate(0,0)"></path>
<path d="M 259.585 942.095 C 260.293 942.039 261.002 941.982 261.71 941.926 C 264.352 939.806 264.558 939.298 265.883 936.364 L 267.709 937.139 C 267.784 941.234 268 945.196 267.523 949.259 C 266.295 952.002 266.264 950.668 267.06 953.322 L 268.243 953.754 C 269.86 954.359 271.239 954.953 272.816 955.639 L 269.67 961.355 L 264.91 960.696 L 262.295 957.755 C 262.497 955.973 262.533 953.465 262.62 951.612 L 259.585 942.095 z" fill="rgb(74,6,1)" transform="translate(0,0)"></path>
<path d="M 228.628 727.795 L 232.552 727.158 L 232.372 730.055 C 232.304 734.028 232.348 734.903 231.43 738.703 C 229.632 736.164 229.238 731.206 228.628 727.795 z" fill="rgb(244,228,205)" transform="translate(0,0)"></path>
<path d="M 392.943 583.993 L 393.418 584.42 C 395.978 589.886 387.19 634.298 384.099 642.314 C 367.297 685.892 318.417 698.87 281.406 719.85 C 266.015 728.575 253.344 738.29 239.974 749.711 L 239.723 749.51 C 238.046 744.07 245.475 716.124 247.616 709.573 C 262.26 664.763 292.84 630.998 335.045 610.321 C 354.116 600.978 374.089 593.586 392.943 583.993 z" fill="rgb(253,251,245)" transform="translate(0,0)"></path>
<path d="M 127.197 518.467 C 133.091 521.819 148.976 539.558 154.346 545.266 C 178.001 571.074 203.343 612.541 209.989 647.569 C 216.051 679.519 221.729 713.151 227.871 745.541 L 226.945 746.64 C 210.028 724 183.562 697.409 163.494 677.048 C 111.236 624.03 125.971 584.102 127.197 518.467 z" fill="rgb(253,251,245)" transform="translate(0,0)"></path>
<path d="M 1587.54 1391.61 C 1594.76 1408.56 1600.5 1428.69 1606.23 1446.47 C 1624.11 1501.94 1625.95 1558.17 1601.08 1612.12 C 1594.63 1626.12 1583.48 1638.28 1576.27 1651.88 L 1575.63 1653.11 C 1581.57 1649.46 1582.34 1647.99 1586.69 1642.64 C 1589.45 1645.31 1587.95 1644.89 1590.99 1645.17 C 1592.66 1642.68 1593.1 1642.01 1595.57 1640.33 L 1597.3 1639.58 C 1608.55 1634.63 1621.68 1625.97 1632.7 1620.14 C 1673.79 1598.37 1717.11 1585.13 1764.04 1589.41 C 1775.37 1590.44 1801.33 1590.27 1810.02 1596.88 C 1813.2 1605.37 1753.16 1659.21 1744.57 1663.67 C 1737.97 1667.87 1726.71 1675.26 1718.89 1676.52 C 1672.51 1684.03 1622.11 1652.31 1575.49 1660.34 C 1573.33 1660.71 1540.31 1695.35 1535.36 1699.88 C 1513.68 1719.73 1492.44 1740.37 1469.39 1758.65 C 1519.48 1739.19 1571.45 1721.41 1626.06 1729.35 C 1638.76 1731.2 1688.35 1736.61 1696.46 1744.49 C 1695.83 1751.97 1666.43 1770.82 1659.39 1775.96 C 1634.5 1794.14 1604.94 1810.74 1573.02 1808 C 1556.61 1806.51 1531.61 1797.15 1514.99 1792.29 C 1485.39 1783.65 1468.09 1781.98 1438.27 1781.97 C 1411.91 1809.04 1299.88 1887.92 1264.56 1897.09 C 1264.88 1896.78 1265.19 1896.46 1265.51 1896.16 C 1278.3 1884.03 1299.64 1876.06 1315.01 1866.95 C 1336.91 1853.97 1424.36 1797.09 1435.27 1777.36 C 1441.99 1765.21 1443.49 1745.55 1444.03 1731.79 C 1445.18 1702.86 1438.73 1677.28 1434.38 1649.13 C 1427.31 1603.34 1432.36 1568.24 1459.84 1530.42 C 1467.19 1520.3 1475.61 1509.71 1484.92 1501.3 C 1485.72 1500.58 1486.57 1499.9 1487.4 1499.22 C 1486.08 1502.07 1482.37 1509.95 1481.72 1512.68 C 1475.25 1539.92 1489.55 1568 1495.84 1593.95 C 1500.67 1613.92 1502 1632.43 1499.05 1652.58 C 1493.75 1688.79 1476.61 1718.89 1457.42 1749.26 C 1451.59 1758.5 1444.24 1766.5 1441.54 1776.61 C 1447.34 1770.74 1458.03 1762.55 1464.77 1757.25 C 1466.42 1755.05 1477.2 1745.9 1479.87 1743.72 C 1513.08 1716.6 1542.24 1686.33 1572.91 1656.55 C 1573.04 1647.93 1573.88 1639.42 1573.88 1630.71 C 1573.88 1587.14 1554.38 1547.87 1546.49 1505.81 C 1540.87 1475.85 1555.92 1449.79 1569.21 1424.1 C 1574.58 1413.72 1580.66 1401.09 1587.54 1391.61 z" fill="rgb(93,17,2)" transform="translate(0,0)"></path>
<path d="M 1469.08 1763.97 C 1532.31 1738.41 1573.47 1724.01 1644.55 1736 C 1661.5 1738.86 1675.15 1740.01 1692.14 1745.53 C 1665.3 1770.16 1614.05 1807.69 1577.29 1804.52 C 1551.97 1802.34 1517.34 1787.73 1490.74 1781.93 C 1470.84 1777.59 1463.58 1779.36 1445.81 1777.66 C 1444.2 1778.71 1444.96 1778.27 1442.69 1778.42 L 1441.54 1776.61 C 1447.34 1770.74 1458.03 1762.55 1464.77 1757.25 C 1466.32 1764.6 1465.06 1760.13 1469.08 1763.97 z" fill="rgb(223,191,159)" transform="translate(0,0)"></path>
<path d="M 1464.77 1757.25 C 1466.32 1764.6 1465.06 1760.13 1469.08 1763.97 C 1459.39 1768.44 1454.68 1771.68 1445.81 1777.66 C 1444.2 1778.71 1444.96 1778.27 1442.69 1778.42 L 1441.54 1776.61 C 1447.34 1770.74 1458.03 1762.55 1464.77 1757.25 z" fill="rgb(74,6,1)" transform="translate(0,0)"></path>
<path d="M 1731.45 1593.4 C 1751.62 1591.82 1787.46 1594.32 1807.29 1597.87 C 1791.44 1619.65 1762.89 1646.31 1740.9 1661.24 C 1712.71 1680.4 1697.67 1674.86 1666.76 1668.49 C 1638.4 1661.48 1609.49 1655.21 1580.34 1654.67 C 1589.63 1650.02 1601.59 1642.69 1610.76 1637.45 C 1652.81 1613.43 1682.33 1597.86 1731.45 1593.4 z" fill="rgb(223,191,159)" transform="translate(0,0)"></path>
<path d="M 1586.57 1399.77 C 1592.16 1407.94 1612.33 1482.15 1613.81 1495.4 C 1619.91 1549.9 1611.74 1595.17 1579.15 1638.91 C 1578.36 1594.29 1565.07 1562.02 1553.3 1520.52 C 1543.61 1486.33 1551.88 1465.89 1567.7 1435.5 C 1573.89 1423.62 1579.53 1411.67 1586.57 1399.77 z" fill="rgb(223,191,159)" transform="translate(0,0)"></path>
<path d="M 1476.59 1515.78 C 1477.56 1521.99 1475.39 1532.89 1477.28 1541.58 C 1481.65 1561.57 1488.75 1578.54 1493.25 1598.67 C 1506.3 1657.14 1481.85 1705.84 1449.99 1753.58 C 1448.78 1755.47 1447.58 1757.13 1446.29 1758.96 L 1445.45 1758.7 C 1447.23 1739.78 1449.27 1715.35 1446.61 1696.9 C 1442.66 1669.34 1435.84 1646.05 1435.05 1617.64 C 1433.88 1575.64 1447.75 1545.95 1476.59 1515.78 z" fill="rgb(223,191,159)" transform="translate(0,0)"></path>
<path d="M 240.76 311.364 L 243.004 311.297 C 244.612 314.07 243.67 313.901 243.411 317.269 C 240.512 354.995 269.184 387.329 270.001 424.816 C 270.214 434.596 269.627 443.837 268.274 453.503 C 266.209 468.144 252.484 535.325 258.724 547.426 L 259.041 547.92 C 261.076 546.725 261.707 547.619 264.678 545.893 L 265.744 544.411 C 270.808 537.27 276.58 525.57 281.5 517.896 C 304.071 482.689 328.543 444.376 373.475 437.649 C 389.84 435.199 406.096 432.795 422.479 430.613 C 433.048 429.206 446.967 425.713 457.18 425.479 C 458.577 428.74 448.063 444.535 446.13 449.7 C 434.926 479.635 425.603 504.145 393.144 515.677 C 354.087 529.552 314.47 534.039 278.518 556.455 C 273.502 559.582 263.143 565.716 257.85 565.791 C 256.002 563.108 255.989 563.235 255.064 560.145 C 254.939 557.787 254.576 554.963 253.327 552.922 C 248.345 544.782 240.923 538.109 234.991 530.349 C 210.675 498.539 186.471 465.405 187.989 423.45 C 189.245 388.709 203.975 361.988 223.383 334.085 C 227.848 327.666 235.309 316.469 240.76 311.364 z" fill="rgb(93,17,2)" transform="translate(0,0)"></path>
<path d="M 240.76 311.364 L 243.004 311.297 C 244.612 314.07 243.67 313.901 243.411 317.269 C 240.512 354.995 269.184 387.329 270.001 424.816 C 270.214 434.596 269.627 443.837 268.274 453.503 C 266.209 468.144 252.484 535.325 258.724 547.426 L 259.041 547.92 C 255.758 547.099 255.569 547.276 252.943 544.983 C 225.881 513.009 192.89 473.486 192.096 429.83 C 191.499 396.991 203.192 372.151 220.808 345.014 C 225.759 337.386 232.636 327.08 238.727 320.702 C 238.33 316.274 238.934 315.631 240.76 311.364 z" fill="rgb(253,251,245)" transform="translate(0,0)"></path>
<path d="M 240.76 311.364 L 243.004 311.297 C 244.612 314.07 243.67 313.901 243.411 317.269 C 240.512 354.995 269.184 387.329 270.001 424.816 C 270.214 434.596 269.627 443.837 268.274 453.503 C 266.209 468.144 252.484 535.325 258.724 547.426 L 259.041 547.92 C 255.758 547.099 255.569 547.276 252.943 544.983 C 252.612 500.287 267.633 460.761 265.374 419.144 C 263.715 388.578 238.729 356.648 238.727 320.702 C 238.33 316.274 238.934 315.631 240.76 311.364 z" fill="rgb(93,17,2)" transform="translate(0,0)"></path>
<path d="M 450.107 430.533 L 450.483 432.049 C 440.625 450.211 435.664 470.06 424.59 486.609 C 402.547 519.549 353.156 520.39 318.887 533.033 C 300.151 539.946 281.477 549.104 264.478 559.641 L 263.655 558.459 C 264.28 550.02 301.743 494.964 309.76 484.806 C 337.886 449.168 357.69 442.365 401.332 437.564 C 415.616 435.993 434.989 432.443 450.107 430.533 z" fill="rgb(253,251,245)" transform="translate(0,0)"></path>
<path d="M 308.096 412.067 C 311.766 394.699 313.079 375.7 315.223 357.984 C 323.115 292.752 353.734 225.033 419.58 200.503 C 430.671 224.744 429.51 262.779 428.961 288.894 C 445.786 294.888 456.309 304.495 447.46 322.965 C 425.556 368.681 366.081 385.368 325.968 412.268 C 302.817 426.471 272.552 513.095 265.71 541.42 C 265.351 542.908 265.007 544.399 264.678 545.893 C 261.707 547.619 261.076 546.725 259.041 547.92 L 258.724 547.426 C 264.564 522.029 278.089 486.933 288.746 462.925 C 292.893 453.582 307.884 428.531 309.485 421.053 C 306.704 416.388 306.507 416.933 308.096 412.067 z" fill="rgb(93,17,2)" transform="translate(0,0)"></path>
<path d="M 312.994 413.821 C 312.626 404.21 315.232 393.187 316.086 383.568 C 322.376 312.695 345.052 235.514 417.435 205.427 C 426.314 233.909 425.985 258.78 424.851 287.781 C 371.848 290.564 361.457 337.777 339.943 377.243 C 335.18 385.98 326.512 396.668 320.616 405.123 C 318.867 407.303 315.033 412.583 312.994 413.821 z" fill="rgb(253,251,245)" transform="translate(0,0)"></path>
<path d="M 320.616 405.123 L 322.965 406.437 C 324.149 411.079 322.954 409.34 325.968 412.268 C 302.817 426.471 272.552 513.095 265.71 541.42 C 265.351 542.908 265.007 544.399 264.678 545.893 C 261.707 547.619 261.076 546.725 259.041 547.92 L 258.724 547.426 C 264.564 522.029 278.089 486.933 288.746 462.925 C 292.893 453.582 307.884 428.531 309.485 421.053 C 306.704 416.388 306.507 416.933 308.096 412.067 L 312.994 413.821 C 315.033 412.583 318.867 407.303 320.616 405.123 z" fill="url(#Gradient1)" transform="translate(0,0)"></path>
<path d="M 417.452 292.224 C 423.516 291.903 429.119 292.484 434.583 295.15 C 463.926 309.467 431.149 343.221 416.297 354.549 C 393.158 372.199 369.524 382.534 344.517 395.799 C 337.253 399.651 330.686 404.142 323.839 408.662 C 331.889 397.101 340.461 384.298 346.999 371.86 C 364.498 338.571 375.444 299.829 417.452 292.224 z" fill="rgb(253,251,245)" transform="translate(0,0)"></path>
<path d="M 1685.86 1526.03 C 1683.69 1511.26 1686.63 1498.38 1682.35 1479.73 C 1673.79 1442.32 1654.78 1415.18 1641.3 1380.72 C 1629.81 1351.37 1644.9 1328.71 1655.34 1302.16 C 1658.25 1294.75 1659.88 1284.41 1662.8 1278.52 C 1667.82 1274.88 1671.46 1279.56 1674.51 1283.63 C 1714.09 1336.45 1734.02 1388.72 1718.74 1455.01 C 1716.59 1464.31 1708 1490.16 1707.45 1497.94 C 1707.03 1499.75 1707.15 1499.15 1705.88 1500.77 C 1704.25 1498.85 1704.32 1498.51 1703.4 1496.11 C 1699.84 1505.41 1697.89 1508.99 1691.66 1517.13 C 1690.04 1518.89 1689.58 1518.9 1687.25 1519.39 C 1685.77 1522.25 1686.12 1522.67 1685.86 1526.03 z" fill="rgb(223,191,159)" transform="translate(0,0)"></path>
<path d="M 1685.86 1526.03 C 1683.69 1511.26 1686.63 1498.38 1682.35 1479.73 C 1673.79 1442.32 1654.78 1415.18 1641.3 1380.72 C 1629.81 1351.37 1644.9 1328.71 1655.34 1302.16 C 1658.25 1294.75 1659.88 1284.41 1662.8 1278.52 C 1667.82 1274.88 1671.46 1279.56 1674.51 1283.63 C 1714.09 1336.45 1734.02 1388.72 1718.74 1455.01 C 1716.59 1464.31 1708 1490.16 1707.45 1497.94 C 1707.03 1499.75 1707.15 1499.15 1705.88 1500.77 C 1704.25 1498.85 1704.32 1498.51 1703.4 1496.11 C 1722.05 1435.89 1729.49 1386.95 1698.89 1329.21 C 1689.52 1311.79 1678.7 1295.19 1666.55 1279.58 C 1659.56 1303.99 1646.98 1327.06 1641.51 1350.22 C 1636.18 1372.82 1657.46 1404.7 1665.78 1424.07 C 1671.32 1436.52 1676.93 1448.17 1681.02 1461.21 C 1688.45 1482 1688.07 1497.46 1691.66 1517.13 C 1690.04 1518.89 1689.58 1518.9 1687.25 1519.39 C 1685.77 1522.25 1686.12 1522.67 1685.86 1526.03 z" fill="rgb(93,17,2)" transform="translate(0,0)"></path>
<path d="M 1879.94 1122.94 C 1894.34 1022.23 1848.57 971.132 1942.21 886.767 C 1962.97 922.159 1966.8 958.038 1956.91 997.774 C 1948.68 1030.84 1934.28 1048.27 1916.26 1075.54 C 1904.86 1092.8 1902.92 1109.71 1884.25 1123.64 L 1879.94 1122.94 z" fill="rgb(93,17,2)" transform="translate(0,0)"></path>
<path d="M 1940.82 892.805 C 1945.75 897.82 1952.29 916.286 1953.9 923.457 C 1962.55 962.035 1956.87 1002.16 1936.99 1036.45 C 1929.6 1049.65 1919.95 1061.83 1912.2 1074.76 C 1905.51 1085.92 1900.03 1097.8 1893.26 1109.05 C 1891.13 1112.33 1887.3 1116.26 1884.59 1119.24 C 1890.54 1073.29 1881.64 1036.96 1885.57 996.597 C 1889.36 956 1909.26 918.615 1940.82 892.805 z" fill="rgb(223,191,159)" transform="translate(0,0)"></path>
<path d="M 1695.15 1523.54 C 1695.92 1523.45 1696.75 1523.58 1697.47 1523.26 C 1701.78 1521.37 1708.4 1511.91 1711.88 1508.37 C 1720.31 1499.81 1730.07 1492.2 1739.96 1485.4 C 1771.91 1463.41 1860.07 1428.04 1899.12 1432.8 C 1902.72 1433.24 1908.08 1433.59 1910.9 1435.97 C 1911.16 1436.19 1911.35 1436.48 1911.58 1436.73 C 1911.08 1444.11 1877.15 1483.7 1870.51 1493.12 C 1834.74 1543.88 1757.63 1516.55 1706.05 1532.65 C 1700.62 1534.35 1689.23 1538.06 1684.78 1535.18 C 1687.91 1530.86 1690.81 1524.97 1695.15 1523.54 z" fill="rgb(93,17,2)" transform="translate(0,0)"></path>
<path d="M 1877.91 1436.36 C 1888.2 1434.89 1898.27 1436.3 1908.38 1437.99 L 1875.24 1481.01 C 1846.69 1517.8 1833.87 1520.43 1785.95 1522.14 C 1765.37 1522.88 1746.01 1522.49 1725.46 1525.33 C 1715.99 1526.74 1706.32 1528.4 1696.84 1529.92 C 1710.23 1514.91 1730.44 1496.13 1747.38 1485.36 C 1777.24 1466.4 1843.73 1441.12 1877.91 1436.36 z" fill="rgb(223,191,159)" transform="translate(0,0)"></path>
<path d="M 1727.63 1150.41 C 1746.85 1164.79 1785.2 1211.15 1795.19 1232.77 C 1814.33 1274.18 1803.97 1327.35 1788.59 1368.52 L 1790.89 1370.79 C 1788.73 1375.27 1787.1 1378.64 1784.48 1382.94 C 1782.77 1385.03 1780.52 1387.38 1780 1389.89 C 1775.34 1364.27 1769.09 1344.07 1757.7 1320.4 C 1742.48 1288.76 1717.04 1258.27 1722.03 1221.19 C 1725.13 1198.16 1722.9 1173.23 1727.63 1150.41 z" fill="rgb(93,17,2)" transform="translate(0,0)"></path>
<path d="M 1784.48 1382.94 C 1783.5 1377.25 1786.06 1373.82 1788.59 1368.52 L 1790.89 1370.79 C 1788.73 1375.27 1787.1 1378.64 1784.48 1382.94 z" fill="rgb(223,191,159)" transform="translate(0,0)"></path>
<path d="M 1730.2 1158.47 C 1742.7 1165.71 1783.14 1216.49 1790.45 1232.19 C 1809.16 1272.4 1801.33 1320.97 1787.53 1361.26 C 1786.11 1365.74 1784.15 1369.93 1782.27 1374.24 C 1775.42 1357.5 1771.75 1338.78 1763.01 1321.74 C 1754.41 1304.97 1745.18 1288.44 1736.44 1271.77 C 1723 1246.14 1725.56 1231.37 1727.24 1203.72 C 1728.12 1188.63 1729.1 1173.54 1730.2 1158.47 z" fill="rgb(223,191,159)" transform="translate(0,0)"></path>
<path d="M 1797.38 1373.22 C 1810.59 1353.99 1818.08 1348.7 1831.8 1333.93 C 1874.54 1287.87 1903.81 1288.66 1961.47 1275.81 C 1964.56 1275.12 1967.52 1274.91 1970.54 1276.09 C 1972.04 1278.54 1971.77 1279.87 1970.91 1282.73 C 1960.66 1316.67 1949.51 1343.83 1917.05 1361.64 C 1883.56 1380.02 1851.37 1385.34 1813.56 1385.79 C 1809.16 1385.86 1794.24 1386.81 1790.92 1386.29 C 1792.43 1380.65 1794.35 1378.08 1797.38 1373.22 z" fill="rgb(93,17,2)" transform="translate(0,0)"></path>
<path d="M 1965.87 1279.36 L 1966.91 1280.49 C 1966.07 1285.49 1963.96 1288.98 1962.71 1293.42 C 1953.18 1327.21 1939.72 1345.23 1908.87 1361.83 C 1870.46 1382.5 1838.04 1379.87 1797.15 1382.49 L 1796.71 1382.27 L 1796.66 1380.75 C 1814.83 1355.51 1846.29 1321.16 1872.56 1305.09 C 1895.6 1290.99 1938.23 1284.15 1965.87 1279.36 z" fill="rgb(223,191,159)" transform="translate(0,0)"></path>
<path d="M 1862.11 1216.83 L 1861.58 1218.44 C 1884.92 1187.99 1903.51 1151.37 1936.14 1126.62 C 1947.14 1118.28 1962.32 1111.24 1974.28 1103.38 C 1982.14 1098.23 1991.45 1085.11 1996.44 1083.1 L 1998.24 1083.73 C 2001.58 1100.38 1990.6 1153.93 1984.97 1169.56 C 1969.47 1212.57 1920.73 1225.28 1881.47 1237.21 C 1875.89 1238.96 1858.85 1243.58 1853.41 1243.13 L 1848.96 1240.65 C 1849.36 1238.37 1851.31 1232.1 1852.02 1229.57 C 1853.95 1226.02 1856.64 1216.1 1857.96 1211.68 L 1862.11 1216.83 z" fill="rgb(93,17,2)" transform="translate(0,0)"></path>
<path d="M 1993.61 1090.85 C 1993.98 1091.28 1994.46 1091.72 1994.43 1092.36 C 1992.4 1126.47 1988.2 1174.75 1960.2 1198.61 C 1934.85 1220.22 1889.13 1230.93 1856.94 1239.71 C 1856.49 1239.27 1856.77 1239.69 1856.3 1237.61 C 1866.1 1212.06 1918.34 1141.86 1940.67 1127.63 C 1962.14 1113.95 1972.1 1113.04 1993.61 1090.85 z" fill="rgb(223,191,159)" transform="translate(0,0)"></path>
<path d="M 1782.92 1017.51 L 1783.18 1013.5 C 1795.16 1003.75 1840.11 1052.66 1844.22 1067.47 C 1857.77 1116.27 1856.53 1179.3 1852.02 1229.57 L 1849.25 1232.49 L 1847.62 1232.26 C 1844.21 1227.7 1832.74 1196.22 1828.18 1186.62 C 1806.9 1141.7 1769.73 1117.75 1778.68 1063 C 1781.82 1043.79 1783.87 1036.68 1782.92 1017.51 z" fill="rgb(93,17,2)" transform="translate(0,0)"></path>
<path d="M 1786.58 1015.22 C 1800.61 1021.74 1813.15 1032 1823.8 1043.1 C 1851.22 1071.68 1848.94 1113.61 1850.55 1150.38 C 1851.59 1174.06 1849.64 1198.22 1848.58 1221.88 L 1847.29 1222.33 C 1840.53 1203.55 1831.17 1181.15 1820.84 1164.23 C 1804.27 1137.12 1784.42 1121.03 1781.64 1086.98 C 1780.07 1067.72 1784.13 1055.88 1786.67 1036.86 C 1787.44 1031.12 1786.87 1021.19 1786.58 1015.22 z" fill="rgb(223,191,159)" transform="translate(0,0)"></path>
<path d="M 1848.96 1240.65 L 1853.41 1243.13 C 1836.09 1286.87 1819.42 1330.58 1795.48 1371.59 L 1797.38 1373.22 C 1794.35 1378.08 1792.43 1380.65 1790.92 1386.29 L 1789.09 1385.84 C 1770.96 1412.95 1754.16 1440.78 1735.43 1467.47 C 1727.63 1478.49 1719.74 1489.44 1711.74 1500.32 C 1707.28 1506.32 1698.13 1517.37 1695.15 1523.54 C 1690.81 1524.97 1687.91 1530.86 1684.78 1535.18 C 1678.02 1544.85 1663.91 1561.56 1656.08 1570.82 C 1637.65 1592.62 1615.54 1620.2 1595.57 1640.33 C 1593.1 1642.01 1592.66 1642.68 1590.99 1645.17 C 1587.95 1644.89 1589.45 1645.31 1586.69 1642.64 C 1593.49 1634.16 1601.44 1626.27 1608.58 1618.05 C 1634.25 1588.51 1662.82 1557.47 1685.86 1526.03 C 1686.12 1522.67 1685.77 1522.25 1687.25 1519.39 C 1689.58 1518.9 1690.04 1518.89 1691.66 1517.13 C 1697.89 1508.99 1699.84 1505.41 1703.4 1496.11 C 1704.32 1498.51 1704.25 1498.85 1705.88 1500.77 C 1707.15 1499.15 1707.03 1499.75 1707.45 1497.94 C 1725.12 1475.23 1743.28 1447 1759.36 1423.03 C 1764.67 1415.11 1776.06 1397.96 1780 1389.89 C 1780.52 1387.38 1782.77 1385.03 1784.48 1382.94 C 1787.1 1378.64 1788.73 1375.27 1790.89 1370.79 C 1812.06 1334.22 1835.52 1280.68 1848.96 1240.65 z" fill="rgb(74,6,1)" transform="translate(0,0)"></path>
<path d="M 1795.48 1371.59 L 1797.38 1373.22 C 1794.35 1378.08 1792.43 1380.65 1790.92 1386.29 L 1789.09 1385.84 C 1791.33 1379.43 1791.95 1377.48 1795.48 1371.59 z" fill="rgb(223,191,159)" transform="translate(0,0)"></path>
<path d="M 1661.46 105.866 C 1673.05 92.2969 1684.36 78.4991 1695.4 64.4811 C 1700.59 57.9513 1710.78 42.3582 1716.3 38.4413 L 1718.62 38.3579 C 1721.11 40.7362 1720.57 39.3621 1720.75 42.4104 C 1709.92 59.632 1678.79 97.8564 1665.33 112.635 C 1664.45 109.564 1663.33 108.412 1661.46 105.866 z" fill="rgb(5,0,0)" transform="translate(0,0)"></path>
<path d="M 1879.94 1122.94 L 1884.25 1123.64 C 1881.45 1139.2 1878.03 1154.64 1873.99 1169.92 C 1872.22 1176.75 1862 1212.38 1862.11 1216.83 L 1857.96 1211.68 C 1860.33 1205.61 1863.63 1191.88 1865.46 1185.25 C 1871.2 1164.51 1876.23 1144.15 1879.94 1122.94 z" fill="rgb(93,17,2)" transform="translate(0,0)"></path>
<metadata><recraft-signature>{"signed_by": "recraft", "signature_b64": "ZxyJrIWEgVCKfWTiZwPdu3GhXeVBNbkq9HNuTTmLy8MKw0tWLUkaMS5QvhBp7ThpCYookuIVCj1VfKaRyAGmDg==", "signing_algo": "Ed25519", "generation_timestamp": 1778093015, "identifier": "47fee00a-a494-4ab3-8f27-685fcdc1eea0"}</recraft-signature></metadata></svg>