<svg xmlns="http://www.w3.org/2000/svg" height="1024" preserveAspectRatio="none" style="display: block;" version="1.1" viewBox="0 0 2048 2048" width="1024">
<path d="M 0 0 L 2048 0 L 2048 2048 L 0 2048 L 0 0 z" fill="rgb(255,255,254)" transform="translate(0,0)"></path>
<path d="M 1471.15 86.9466 C 1476.92 87.3264 1480.31 90.9582 1482.31 95.9124 C 1507.33 157.92 1535.07 228.327 1598.09 260.861 C 1606.29 265.095 1621.89 268.503 1628.12 275.61 L 1627.59 277.705 C 1616.49 289.2 1544.24 312.003 1524.68 320.021 C 1530.43 335.979 1542.5 361.907 1549.51 378.731 L 1624.51 554.072 L 1831.17 1051.17 C 1857.63 1116.45 1889.21 1185.36 1913.16 1251.19 C 1892.48 1262.35 1870.52 1270.66 1848.83 1279.76 C 1816.73 1293.58 1784.46 1306.98 1752.02 1319.97 L 1475 1434.85 L 1078.08 1601.16 L 985.006 1639.65 C 978.746 1642.22 961.155 1650.97 956.144 1651.27 C 949.081 1646.14 927.004 1598.8 921.692 1588.22 L 856.731 1615.29 C 843.455 1620.83 772.147 1651.98 764.027 1652.97 C 756.752 1650.33 720.751 1578.06 714.036 1565.75 C 620.182 1394.86 529.632 1222.18 442.437 1047.8 C 418.686 999.698 395.827 951.162 373.872 902.215 C 329.414 803.03 282.569 696.084 282.68 585.393 C 282.693 573.235 283.281 563.736 287.126 552.19 C 293.666 547.705 316.496 539.483 324.553 536.368 L 385.69 512.446 L 634.55 414.123 L 1471.15 86.9466 z" fill="rgb(82,56,38)" transform="translate(0,0)"></path>
<path d="M 1043.64 484.434 C 1274.12 473.631 1547.56 644.274 1565.49 890.157 C 1573.88 1005.19 1529.86 1117.2 1450.05 1199.74 C 1352.77 1300.35 1237.02 1346.63 1098.76 1357.31 C 1090.16 1358.1 1081.55 1358.68 1072.93 1359.02 C 945.56 1364.35 780.544 1321.86 685.661 1232.74 C 526.744 1083.48 551.5 824.077 679.952 663.576 C 771.202 549.559 898.035 490.123 1043.64 484.434 z" fill="rgb(250,240,213)" transform="translate(0,0)"></path>
<path d="M 1301 549.301 C 1307.06 548.351 1315.9 548.672 1318.97 554.979 C 1319.28 562.58 1306.43 568.033 1300.37 571.771 C 1227.65 616.602 1164.58 676.438 1111.65 743.239 C 1099.37 758.738 1086.42 773.699 1076.01 790.585 C 1162.46 819.255 1266.98 904.215 1323.92 974.342 C 1344.78 1000.52 1363.3 1028.49 1379.27 1057.91 C 1384.95 1068.36 1408.63 1112.16 1404.28 1121.57 L 1402.24 1122.24 C 1399.62 1121.11 1397.16 1119.42 1395.39 1117.17 C 1375.98 1092.35 1354.28 1069.93 1332.03 1047.57 C 1292.63 1008.32 1249.77 972.712 1203.97 941.169 C 1170.43 917.452 1134.9 896.677 1097.78 879.076 C 1084.12 872.503 1062.21 863.291 1048.13 856.434 C 1047.06 855.916 1047.4 854.587 1047.4 853.179 L 1049.16 852.146 C 1057.69 852.172 1074.94 860.024 1083.54 863.763 C 1160.63 897.304 1231.63 947.922 1295.45 1002.13 C 1287.23 989.968 1272.38 977.494 1261.58 966.966 C 1202.5 909.401 1142.84 874.549 1067.36 842.953 C 1059.7 839.797 1052.96 837.352 1045.11 834.649 C 963.497 943.911 908.052 1058.85 881.866 1192.34 C 879.603 1203.88 870.668 1250.75 861.16 1254.18 C 852.567 1250.8 848.06 1222.43 846.982 1213.97 C 834.95 1119.5 855.821 1013.42 895.958 927.737 C 915.349 886.776 939.139 848.046 966.908 812.23 C 891.197 782.882 773.421 784.375 693.968 797.775 C 682.525 799.705 670.903 802.192 659.771 805.497 C 654.375 807.099 649.494 810.133 643.929 810.998 C 641.953 809.591 641.564 809.819 640.638 807.862 C 639.252 804.888 639.121 801.482 640.275 798.41 C 642.028 793.781 646.733 788.35 650.248 784.763 C 677.48 756.972 719.007 746.596 756.303 740.6 C 838.296 728.214 922.063 735.614 1000.62 762.181 C 1020.17 741.228 1034.31 721.805 1055.92 700.444 C 1107.5 648.731 1167.42 606.066 1233.16 574.238 C 1258.54 561.88 1272.78 554.494 1301 549.301 z" fill="rgb(82,56,38)" transform="translate(0,0)"></path>
<path d="M 1304.14 556.292 C 1306.78 555.847 1308.46 556.035 1311.08 556.153 L 1311.3 557.17 C 1293.36 565.671 1273.34 580.084 1256.18 592.72 C 1183.83 646.006 1119 715.072 1067.5 788.482 C 1064.45 792.824 1070.4 796.305 1074.11 798.454 C 1090.45 807.913 1108.28 814.943 1125.22 823.501 C 1139.26 830.612 1152.93 838.43 1166.18 846.925 C 1246.22 898.739 1354.8 1004.75 1388.65 1095.61 L 1389.15 1096.98 C 1373.4 1078.77 1357.01 1061.13 1340.01 1044.08 C 1323.9 1027.69 1311.84 1017.79 1300.53 997.426 C 1296.2 989.62 1281.03 975.418 1274.3 968.709 C 1220.86 915.424 1157.58 873.019 1087.98 843.847 C 1074.13 838.019 1055.5 830.175 1041.02 827.588 C 1030.97 840.085 1019.03 857.657 1009.88 871.002 C 965.845 934.11 930.399 1002.8 904.477 1075.25 C 896.895 1097.85 888.689 1122.96 883.179 1146 C 875.498 1178.11 869.507 1209.53 860.807 1241.54 C 836.293 1108.93 872.537 963.59 947.491 852.467 C 957.029 838.326 966.777 821.047 980.506 810.848 C 977.961 809.03 975.268 807.429 972.457 806.06 C 963.406 801.723 942.45 796.977 932.137 794.6 C 867.403 779.684 803.045 778.386 737.19 785.218 C 705.15 788.541 678.903 791.047 647.944 802.306 C 679.787 754.784 772.399 742.942 826.284 742.91 C 864.972 743.185 903.549 747.082 941.51 754.551 C 953.06 756.842 963.176 759.779 974.262 762.762 C 981.208 764.631 1002.32 772.424 1007.46 772.432 C 1050.21 690.946 1214.38 573.678 1304.14 556.292 z" fill="rgb(228,182,134)" transform="translate(0,0)"></path>
<path d="M 1480.26 1098.48 C 1483.74 1100.27 1482.46 1099.03 1484.46 1102.1 C 1484.5 1110.81 1466.23 1137.48 1460.42 1145.83 C 1399.61 1233.15 1276.82 1305.17 1173.7 1324.77 C 1110.98 1336.69 964.689 1333.45 905.926 1308 C 903.355 1306.38 903.334 1306.05 901.379 1303.63 L 901.798 1301.87 C 905.78 1299.94 924.036 1306.09 929.105 1307.33 C 943.434 1310.77 957.894 1313.64 972.451 1315.93 C 1027.37 1324.55 1116.16 1326.54 1171.75 1316.68 C 1260.41 1300.94 1367.76 1240.35 1428.02 1173.49 C 1440.82 1158.57 1452.95 1142.94 1463.57 1126.39 C 1469.44 1117.23 1473.83 1107.24 1480.26 1098.48 z" fill="rgb(82,56,38)" transform="translate(0,0)"></path>
<path d="M 798.013 801.44 C 813.701 800.855 923.976 801.492 925.461 818.4 C 921.46 822.384 920.598 818.717 915.248 822.09 C 861.282 903.341 829.161 974.219 818.578 1072.14 C 817.106 1084.91 816.343 1097.75 816.292 1110.61 C 816.333 1117.78 818.672 1139.85 814.022 1143.24 L 812.583 1141.84 C 801.909 1111.79 815.53 1041.38 821.793 1009.52 C 838.245 940.203 868.576 874.939 910.952 817.669 C 847.294 805.944 792.439 806.615 727.87 815.013 C 715.881 816.557 703.917 818.293 691.983 820.219 C 683.332 821.666 657.683 827.579 650.639 826.548 L 649.997 825.309 C 659.272 811.799 776.01 802.436 798.013 801.44 z" fill="rgb(82,56,38)" transform="translate(0,0)"></path>
<path d="M 1202.21 552.998 C 1202.54 553.17 1204.05 554.583 1204.39 554.888 C 1204.63 556.925 1204.69 558.683 1202.28 559.823 C 1117.14 600.143 1044.69 654.541 986.756 728.902 C 979.505 726.97 963.082 720.091 955.213 717.211 C 922.689 705.31 900.353 700.3 865.752 699.018 L 863.466 698.921 C 860.844 697.065 861.713 698.276 860.837 695.119 L 861.906 693.609 C 889.42 686.29 957.875 708.813 985.414 721.166 C 1017.42 665.023 1141.3 573.554 1202.21 552.998 z" fill="rgb(82,56,38)" transform="translate(0,0)"></path>
<path d="M 787.12 603.688 C 789.56 603.526 789.1 603.743 791.649 604.61 L 792.223 606.314 C 790.713 611.462 773.988 620 767.617 625.077 C 738.604 648.2 715.551 674.652 693.299 703.902 C 641.119 772.489 611.703 829.523 600.686 915.607 C 598.099 915.584 598.939 915.788 596.701 914.743 C 593.625 908.983 603.062 864.432 604.972 856.854 C 626.106 773.022 712.193 646.52 787.12 603.688 z" fill="rgb(82,56,38)" transform="translate(0,0)"></path>
<path d="M 1051.11 861.557 L 1054.5 863.125 C 1055.89 868.521 1041.92 886.688 1038.5 892.595 C 1032.08 903.688 1026.05 914.906 1019.97 926.173 C 989.353 981.847 964.406 1040.45 945.502 1101.11 C 940.497 1117.45 935.857 1133.89 931.586 1150.43 C 929.044 1160.69 925.141 1180.54 921.17 1189.13 L 918.501 1187.96 C 914.136 1180.73 924.428 1149 927.078 1139.05 C 948.254 1059.51 979.269 982.328 1020.12 910.835 C 1028.52 896.144 1039.79 873.896 1051.11 861.557 z" fill="rgb(82,56,38)" transform="translate(0,0)"></path>
<path d="M 621.118 896.106 C 625.551 897.749 625.456 900.733 624.965 905.93 C 621.238 945.323 625.207 980.428 636.269 1018.58 C 652.357 1072.42 682.03 1121.21 722.433 1160.26 C 732.107 1169.65 743.958 1178.48 752.947 1187.81 C 753.916 1188.81 752.903 1190.41 752.298 1192.34 C 741.515 1187.09 732.029 1178.77 723.098 1170.8 C 687.273 1138.43 659.001 1098.59 640.281 1054.08 C 624.203 1016.46 613.701 964.02 616.51 923.73 C 617.13 914.834 617.79 904.405 621.118 896.106 z" fill="rgb(82,56,38)" transform="translate(0,0)"></path>
<path d="M 632.648 1108.61 C 638.167 1110.43 646.905 1124.37 650.178 1129.64 C 690.678 1194.81 746.316 1247.18 818.848 1274.57 C 830.528 1278.98 843.669 1281.81 854.887 1287.29 C 857.169 1288.4 856.917 1291.01 857.067 1293.07 C 852.832 1293.36 850.324 1293.1 846.28 1292.04 C 764.287 1270.52 697.565 1217.44 652.852 1146.03 C 648.106 1138.45 630.717 1116.5 632.648 1108.61 z" fill="rgb(82,56,38)" transform="translate(0,0)"></path>
<path d="M 1128.73 776.88 C 1138.85 776.953 1157.33 786.825 1166.4 791.633 C 1225.23 822.848 1278.62 864.965 1323.02 914.559 C 1330.14 922.508 1350.5 947.808 1349.72 957.663 C 1342.08 954.945 1325.66 928.503 1318.09 920.338 C 1302.66 903.699 1287.23 887.919 1270.2 872.837 C 1239.39 845.838 1205.91 822.046 1170.29 801.831 C 1158 794.871 1144.91 789.058 1132.35 782.612 C 1129.2 780.994 1129.46 779.788 1128.73 776.88 z" fill="rgb(82,56,38)" transform="translate(0,0)"></path>
<path d="M 1454.17 687.061 C 1473.21 700.725 1488.31 731.005 1498.28 752.178 C 1519.39 796.997 1531.81 836.982 1535.7 886.513 C 1535.36 892.085 1533.18 907.125 1533.33 910.227 C 1532.58 913.787 1531.96 919.098 1528.3 920.489 C 1524.85 914.676 1528.33 875.947 1526.18 863.449 C 1524.15 851.662 1522.6 843.106 1519.29 830.993 C 1509.57 795.454 1495.82 761.14 1478.33 728.716 C 1471.18 715.555 1459.47 700.386 1454.17 687.061 z" fill="rgb(82,56,38)" transform="translate(0,0)"></path>
<path d="M 1248.05 1265.17 C 1249.94 1265.24 1249.84 1265.61 1251.79 1266.8 L 1252.11 1268.98 C 1240.73 1281.98 1121.16 1294.61 1097.23 1295.67 C 1072.06 1296.77 1046.85 1296.46 1021.72 1294.76 C 1017.66 1293.77 1017.21 1293.21 1015.97 1289.6 C 1016.51 1288.73 1016.92 1287.41 1018.12 1287.48 C 1092.72 1291.74 1175.76 1284.67 1248.05 1265.17 z" fill="rgb(82,56,38)" transform="translate(0,0)"></path>
<path d="M 1535.7 886.513 C 1537.38 883.455 1537.68 880.107 1539.51 878.084 C 1540.67 881.244 1540.22 884.925 1539.63 888.27 C 1541.24 885.822 1541.8 884.896 1543.78 882.668 C 1552.62 899.766 1530.03 1040.97 1510.03 1056.04 L 1508.18 1056.3 C 1503.2 1051.72 1509.89 1044.92 1511.69 1039.59 C 1515.56 1028.09 1523.2 1010.72 1524.13 998.74 C 1521.7 991.046 1539.87 920.954 1533.33 910.227 C 1533.18 907.125 1535.36 892.085 1535.7 886.513 z" fill="rgb(82,56,38)" transform="translate(0,0)"></path>
<path d="M 1535.7 886.513 C 1537.38 883.455 1537.68 880.107 1539.51 878.084 C 1540.67 881.244 1540.22 884.925 1539.63 888.27 L 1537.24 888.511 C 1535.4 890.896 1535.9 903.757 1535.99 907.741 C 1536.44 927.264 1531.14 981.796 1524.13 998.74 C 1521.7 991.046 1539.87 920.954 1533.33 910.227 C 1533.18 907.125 1535.36 892.085 1535.7 886.513 z" fill="rgb(228,182,134)" transform="translate(0,0)"></path>
<path d="M 1326.41 579.722 C 1329.63 581.366 1328.59 580.174 1330.08 582.955 C 1328.32 587.297 1316.38 592.754 1311.92 595.51 C 1270.13 621.323 1233.03 653.905 1197.89 688.038 C 1187.23 698.4 1178.11 710.265 1167.14 720.301 L 1165.84 721.475 C 1162.75 720.14 1162.31 719.501 1162 716.597 C 1164.7 711.629 1179.01 696.629 1183.57 692 C 1227.52 647.456 1271.85 610.157 1326.41 579.722 z" fill="rgb(82,56,38)" transform="translate(0,0)"></path>
<path d="M 1412.27 676.476 C 1419.99 676.762 1426.54 689.47 1430.64 695.384 C 1444.45 715.313 1486.98 800.052 1482.25 820.621 C 1475.92 818.651 1475.42 812.02 1473.46 806.061 C 1461.16 768.586 1444.19 730.079 1422.81 696.893 C 1419.04 691.04 1412.15 683.206 1412.27 676.476 z" fill="rgb(82,56,38)" transform="translate(0,0)"></path>
<path d="M 1485.99 1024.29 L 1488.29 1025.24 C 1490.13 1028.31 1489.74 1031.75 1488.86 1035.18 C 1475.82 1086.23 1448.52 1137.52 1404.77 1167.43 C 1402.1 1164.86 1401.31 1164.67 1401.18 1161.82 C 1438.96 1133.85 1457.69 1102.18 1474.75 1058.98 C 1479.05 1048.11 1481.55 1036.34 1485.59 1025.37 L 1485.99 1024.29 z" fill="rgb(82,56,38)" transform="translate(0,0)"></path>
<path d="M 691.297 1044.31 C 697.512 1045.23 697.809 1049.02 701.077 1054.1 C 723.85 1089.47 749.827 1120.99 779.935 1150.15 C 781.186 1151.36 780.301 1152.66 779.85 1154.43 L 776.997 1154.75 C 759.526 1147.92 689.469 1061.61 691.297 1044.31 z" fill="rgb(82,56,38)" transform="translate(0,0)"></path>
<path d="M 1364.23 1184.86 C 1366.34 1185.98 1367.14 1187.2 1367.61 1189.31 C 1352.37 1205.95 1301.14 1242.53 1279.26 1251.49 C 1278.1 1251.03 1276.74 1250.03 1275.63 1249.32 L 1275.31 1247.27 C 1277.9 1244.59 1284.7 1240.71 1288.3 1238.62 C 1315.43 1222.93 1339.65 1204.28 1364.23 1184.86 z" fill="rgb(82,56,38)" transform="translate(0,0)"></path>
<path d="M 1205.3 1232.22 L 1209.37 1232.2 L 1211.24 1234.25 L 1210.93 1236.46 C 1206.13 1240.82 1188.07 1244 1181.11 1245.53 C 1159.34 1250.33 1137.6 1256.6 1115.18 1256.29 C 1111.75 1255.82 1109.63 1255.57 1109.1 1251.96 C 1112.04 1249.48 1133.13 1247.74 1139.1 1246.51 C 1161.21 1241.93 1183.29 1237.23 1205.3 1232.22 z" fill="rgb(82,56,38)" transform="translate(0,0)"></path>
<path d="M 1498.15 890.324 C 1502.22 892.014 1503.03 895.781 1503.53 899.941 C 1506.75 926.963 1497.91 974.664 1482.07 996.435 C 1478.76 995.563 1480.12 996.402 1477.86 993.814 C 1477.36 987.197 1485.21 973.454 1487.81 966.403 C 1497.2 940.979 1495.8 916.55 1498.15 890.324 z" fill="rgb(82,56,38)" transform="translate(0,0)"></path>
<path d="M 932.528 531 C 935.218 531.03 935.028 530.992 937.273 532.487 L 937.37 534.578 C 933.077 539.07 913.853 544.409 906.831 547.263 C 883.011 556.945 862.808 565.974 841.507 580.798 C 839.611 582.022 840.382 581.617 837.949 581.925 C 837.596 580.999 837.634 580.248 837.536 579.207 C 846.664 562.176 913.054 536.979 932.528 531 z" fill="rgb(82,56,38)" transform="translate(0,0)"></path>
<path d="M 1301.36 1179.79 C 1303.07 1179.68 1302.9 1179.87 1304.66 1180.4 L 1305.41 1182.14 C 1299.82 1193.6 1256.88 1214.55 1244.25 1218.18 C 1241.48 1217.8 1240.37 1217.29 1239.39 1214.84 C 1242.64 1211.69 1265.25 1201.46 1271.43 1197.8 C 1281.11 1192.05 1291.63 1185.76 1301.36 1179.79 z" fill="rgb(82,56,38)" transform="translate(0,0)"></path>
<path d="M 800.472 637.778 C 802.755 638.291 801.906 638.072 803.891 639.904 C 803.869 642.109 804.233 642.393 802.062 643.96 C 786.001 655.547 771.132 664.974 757.204 679.401 C 754.852 678.78 755.629 679.192 753.876 677.506 C 753.593 665.969 790.464 644.08 800.472 637.778 z" fill="rgb(82,56,38)" transform="translate(0,0)"></path>
<path d="M 1449.67 835.275 C 1451.86 835.488 1451.66 835.553 1453.8 836.24 C 1459.78 844.314 1468.7 881.916 1467.87 892.417 L 1463.59 892.666 C 1460.13 889.114 1451.09 843.001 1449.67 835.275 z" fill="rgb(82,56,38)" transform="translate(0,0)"></path>
<path d="M 970.822 1239.77 C 980.074 1241.17 988.581 1244 997.564 1245.94 C 1005.29 1247.6 1013.32 1248.78 1021.17 1250.37 C 1023.7 1253.39 1022.94 1252.21 1023.14 1256.97 C 1010.79 1256.51 982.14 1253.33 971.578 1244.92 C 970.398 1243.98 970.829 1241.65 970.822 1239.77 z" fill="rgb(82,56,38)" transform="translate(0,0)"></path>
<path d="M 599.729 990.319 C 601.752 990.973 601.826 991.14 603.711 992.186 C 606.037 997.551 606.708 1007.98 608.448 1014.6 C 611.017 1024.36 621.742 1040.52 620.101 1049.14 C 617.068 1048.22 616.453 1048.46 614.538 1045.27 C 607.554 1033.62 596.95 1002.9 599.729 990.319 z" fill="rgb(82,56,38)" transform="translate(0,0)"></path>
<path d="M 1118.64 1143.67 C 1124.34 1147.45 1133.16 1164.31 1136.11 1171 C 1137.3 1173.7 1136.12 1174.64 1134.82 1176.78 C 1127.75 1171.94 1117.97 1155.87 1116.21 1147.26 C 1115.97 1146.1 1117.84 1144.56 1118.64 1143.67 z" fill="rgb(82,56,38)" transform="translate(0,0)"></path>
<path d="M 1346.5 755.638 C 1348.98 756.305 1347.85 755.768 1349.69 757.643 C 1350.01 763.162 1338.43 775.957 1334.51 780.393 L 1331.66 779.622 L 1330.77 777.562 C 1331.98 769.943 1340.87 760.78 1346.5 755.638 z" fill="rgb(82,56,38)" transform="translate(0,0)"></path>
<path d="M 1015.16 566.712 C 1022.13 572.62 1010.52 587.508 1005.92 592.358 L 1003.63 590.149 C 1003.15 583.972 1011.42 571.584 1015.16 566.712 z" fill="rgb(82,56,38)" transform="translate(0,0)"></path>
<path d="M 688.93 965.967 C 690.771 967.007 690.385 966.945 691.87 968.633 L 691.555 970.774 C 687.437 974.862 677.948 977.205 672.237 978.926 C 670.705 978.752 670.743 978.53 669.262 977.761 L 669.231 975.697 C 673.663 970.96 682.73 968.154 688.93 965.967 z" fill="rgb(82,56,38)" transform="translate(0,0)"></path>
<path d="M 1092.51 1160.48 C 1098.92 1162.9 1102.06 1176.62 1099.73 1182.56 C 1092.16 1178.82 1089.2 1168.23 1092.51 1160.48 z" fill="rgb(82,56,38)" transform="translate(0,0)"></path>
<path d="M 704.068 994.799 C 705.605 995.452 704.999 995.269 706.248 996.963 L 705.768 999.372 C 701.47 1004.46 695.425 1007.49 689.394 1010.04 L 687.353 1007.72 L 687.714 1005.3 C 691.344 1001.37 698.965 997.753 704.068 994.799 z" fill="rgb(82,56,38)" transform="translate(0,0)"></path>
<path d="M 1371.97 780.451 C 1373.81 781.311 1373.69 781.48 1375.28 782.883 L 1375.28 785.264 C 1372.41 789.612 1367.59 792.321 1363.19 795.375 C 1361.27 794.63 1361.44 794.457 1359.76 793.064 L 1359.85 790.888 C 1362.81 786.572 1367.65 783.617 1371.97 780.451 z" fill="rgb(82,56,38)" transform="translate(0,0)"></path>
<path d="M 973.937 570.438 C 977.652 573.02 976.426 571.404 978.221 575.071 C 978.332 580.28 976.021 584.77 974.078 589.736 C 972.595 589.408 971.863 589.038 970.447 588.484 C 967.269 583.085 971.382 575.449 973.937 570.438 z" fill="rgb(82,56,38)" transform="translate(0,0)"></path>
<path d="M 1377.43 814.879 L 1379.94 815.608 L 1380.91 817.474 C 1379.45 822.663 1375.27 825.122 1370.84 827.704 C 1367.24 824.63 1367.68 825.267 1367.39 822.137 C 1369.37 818.983 1374.04 816.85 1377.43 814.879 z" fill="rgb(82,56,38)" transform="translate(0,0)"></path>
<path d="M 1461.23 102.027 C 1463.34 103.025 1461.38 106.088 1460.96 108.765 C 1451.11 171.173 1482.1 245.619 1505.76 302.413 C 1536.4 375.994 1568.92 448.46 1600.02 521.516 C 1661.01 663.96 1720.76 806.93 1779.27 950.407 L 1850.54 1122.79 C 1867.71 1163.67 1884.49 1204.72 1900.88 1245.93 C 1838.32 1274.62 1774.73 1299.12 1711.63 1325.89 L 1258.79 1515.49 C 1160.31 1556.21 1057.43 1597 960.261 1640.36 L 957.897 1640.38 C 953.875 1635.75 932.654 1592.77 929.301 1584.97 C 964.8 1568.74 1004.41 1553.26 1040.66 1538.49 L 1160.52 1488.82 L 1590.84 1309.36 L 1727.46 1252.33 C 1750.87 1242.64 1775.43 1233.04 1798.37 1222.38 C 1800.85 1221.22 1807.15 1217.77 1806.45 1215.74 C 1795.91 1185.5 1772 1128.42 1760.55 1100.98 C 1692.65 934.464 1623.67 768.383 1553.63 602.752 L 1468.65 402.792 C 1448.22 354.643 1423.67 301.168 1409.48 251.348 C 1398.13 211.506 1388.41 166.34 1400.96 125.964 C 1420.76 117.287 1440.87 109.303 1461.23 102.027 z" fill="rgb(255,255,254)" transform="translate(0,0)"></path>
<path d="M 707.954 396.015 C 737.828 415.131 776.904 435.884 808.497 452.911 C 800.912 472.518 759.629 565.968 748.899 579.172 C 738.781 591.625 723.84 601.064 712.178 612.245 C 693.083 630.554 675.758 652.083 659.427 672.842 L 639.562 662.084 C 601.123 640.556 563.042 618.395 525.335 595.61 C 539.963 559.674 562.963 519.007 579.555 483.471 C 586.076 469.504 595.637 453.197 600.917 439.032 C 635.219 424.441 673.198 409.885 707.954 396.015 z" fill="rgb(255,255,254)" transform="translate(0,0)"></path>
<path d="M 1076.93 252.093 C 1088.47 256.832 1106.81 266.764 1118.31 272.774 C 1111.06 288.912 1102.38 305.375 1094.65 321.401 C 1069.65 373.225 1043.9 423.777 1019.64 476.065 C 980.134 480.11 942.904 486.216 904.869 498.207 C 895.412 493.33 885.98 488.403 876.574 483.427 C 857.194 472.483 837.149 460.528 817.365 450.561 C 835.618 412.122 854.221 370.136 873.65 332.656 C 893.805 323.329 916.7 315.522 937.4 307.104 C 983.376 288.406 1031.22 271.286 1076.93 252.093 z" fill="rgb(255,255,254)" transform="translate(0,0)"></path>
<path d="M 382.099 525.045 C 390.39 524.22 402.218 532.589 409.564 536.924 C 444.631 557.616 480.291 577.428 515.239 598.307 C 482.847 669.748 448.684 739.584 416.33 811.742 L 411.933 821.063 C 381.827 805.23 360.652 791.593 332.374 774.27 C 309.386 720.187 284.196 616.016 296.114 558.237 C 323.739 547.678 354.817 534.757 382.099 525.045 z" fill="rgb(255,255,254)" transform="translate(0,0)"></path>
<path d="M 787.953 1311.8 C 859.556 1347.49 953.28 1366.17 1032.73 1369.25 C 1027.53 1378.08 1022.59 1387.06 1017.91 1396.18 C 1016.34 1399.24 1010.31 1411.62 1008.67 1413.82 C 986.847 1457.36 963.914 1501.22 943.084 1545.21 C 874.271 1507.11 802.103 1473.12 734.498 1435.48 C 747.074 1405.31 758.195 1376.14 772.313 1346.58 C 777.459 1334.96 782.672 1323.37 787.953 1311.8 z" fill="rgb(255,255,254)" transform="translate(0,0)"></path>
<path d="M 787.953 1311.8 C 859.556 1347.49 953.28 1366.17 1032.73 1369.25 C 1027.53 1378.08 1022.59 1387.06 1017.91 1396.18 C 1016.34 1399.24 1010.31 1411.62 1008.67 1413.82 C 1005.73 1410.77 979.697 1409.89 973.765 1409.01 C 953.933 1406.04 929.991 1404.66 910.753 1399.71 C 867.111 1388.47 809.614 1372.34 772.313 1346.58 C 777.459 1334.96 782.672 1323.37 787.953 1311.8 z" fill="rgb(250,240,213)" transform="translate(0,0)"></path>
<path d="M 521.22 602.417 C 526.11 604.212 555.327 621.31 561.092 624.597 L 655.313 678.62 C 607.123 751.84 579.08 822.631 567.624 909.466 L 557.328 903.702 C 511.282 876.313 464.678 849.873 417.546 824.399 C 423.485 809.974 430.023 795.27 436.807 781.204 C 465.199 722.334 490.919 660.236 521.22 602.417 z" fill="rgb(255,255,254)" transform="translate(0,0)"></path>
<path d="M 1124.62 276.239 C 1130.56 279.104 1137.14 282.467 1142.91 285.715 C 1195.74 315.438 1251.38 341.803 1304.2 371.25 C 1284.22 414.89 1259.15 460.832 1239.69 504.839 C 1232.01 502.591 1224.35 500.278 1216.71 497.899 C 1151.79 478.035 1094.39 472.363 1027.06 475.279 C 1055.93 410.947 1092.79 339.7 1124.62 276.239 z" fill="rgb(255,255,254)" transform="translate(0,0)"></path>
<path d="M 415.227 830.466 C 428.186 836.905 441.945 845.281 454.865 852.263 C 492.635 872.671 529.546 895.228 567.081 915.934 C 565.859 924.748 565.38 935.415 564.75 944.414 C 564.681 1008.33 573.887 1074.07 601.014 1132.39 C 598.965 1136.95 596.949 1141.38 595.09 1146.02 C 592.234 1144.37 587.245 1141.73 584.895 1139.74 L 506.352 1095.88 C 494.356 1089.15 479.362 1079.57 467.553 1073.93 C 437.418 1019.34 410.044 954.301 383.171 897.613 C 391.578 877.857 405.009 848.969 415.227 830.466 z" fill="rgb(255,255,254)" transform="translate(0,0)"></path>
<path d="M 584.895 1139.74 C 584.825 1137.28 575.558 1111.55 573.648 1104.33 C 559.532 1050.98 553.058 999.014 564.75 944.414 C 564.681 1008.33 573.887 1074.07 601.014 1132.39 C 598.965 1136.95 596.949 1141.38 595.09 1146.02 C 592.234 1144.37 587.245 1141.73 584.895 1139.74 z" fill="rgb(250,240,213)" transform="translate(0,0)"></path>
<path d="M 1556.06 738.541 L 1609.81 765.855 C 1615.48 774.906 1619.26 785.564 1623.61 795.352 C 1631.97 814.145 1639.3 833.391 1647.23 852.347 L 1688.55 951.947 C 1693.58 964.354 1699.96 978.072 1704.34 990.434 C 1698.73 999.396 1691.98 1014.79 1687.59 1024.77 C 1673.17 1057.6 1654.63 1090.95 1640.67 1123.77 C 1614.17 1108.47 1587.33 1093.51 1561.84 1076.59 C 1557.19 1073.7 1552.56 1070.76 1547.97 1067.78 C 1560.66 1034.72 1564.79 1017.03 1571.54 982.559 C 1580.46 925.974 1576.91 868.124 1561.14 813.053 C 1555.84 795.016 1550 780.966 1543.48 763.525 C 1548.5 755.343 1551.7 746.895 1556.06 738.541 z" fill="rgb(255,255,254)" transform="translate(0,0)"></path>
<path d="M 1547.97 1067.78 C 1560.66 1034.72 1564.79 1017.03 1571.54 982.559 C 1575.94 1001 1565.92 1057.51 1561.84 1076.59 C 1557.19 1073.7 1552.56 1070.76 1547.97 1067.78 z" fill="rgb(250,240,213)" transform="translate(0,0)"></path>
<path d="M 1039.5 1369.89 C 1121.84 1371.13 1193.87 1357.92 1271.2 1331.47 C 1265.59 1344.9 1254.47 1366.38 1247.74 1379.68 C 1235.16 1406.12 1219.62 1432.43 1207.66 1458.16 C 1159.16 1478.05 1110.77 1498.21 1062.5 1518.66 C 1032.75 1531.15 997.525 1546.47 967.236 1557.11 C 962.088 1554.76 952.717 1551.44 950.391 1546.52 C 951.912 1538.26 970.196 1503.01 974.903 1493.77 C 988.258 1467.56 1001.65 1438.58 1015.81 1412.91 C 1023.55 1397.2 1029.81 1384.6 1039.5 1369.89 z" fill="rgb(255,255,254)" transform="translate(0,0)"></path>
<path d="M 1039.5 1369.89 C 1121.84 1371.13 1193.87 1357.92 1271.2 1331.47 C 1265.59 1344.9 1254.47 1366.38 1247.74 1379.68 L 1246.35 1378.09 C 1238.84 1377.85 1227.64 1382.89 1220.22 1384.76 C 1197.61 1390.49 1176.65 1396.88 1153.71 1401.48 C 1106.63 1410.93 1063.67 1412.91 1015.81 1412.91 C 1023.55 1397.2 1029.81 1384.6 1039.5 1369.89 z" fill="rgb(250,240,213)" transform="translate(0,0)"></path>
<path d="M 1386.69 131.019 L 1388.36 131.231 C 1389.28 133.991 1387.23 139.826 1386.62 143.107 C 1383.33 160.832 1385.79 179.338 1389.33 196.87 C 1383.68 212.217 1369.2 239.737 1361.34 255.914 C 1343.7 292.724 1325.79 329.409 1307.62 365.965 C 1271.31 347.804 1231.71 325.482 1195.58 306.334 C 1174.41 294.745 1149.71 280.986 1127.97 270.802 C 1134.64 255.963 1142.29 241.414 1149.14 225.951 C 1159.08 220.815 1173.28 215.679 1183.98 211.475 L 1235.32 191.191 L 1386.69 131.019 z" fill="rgb(255,255,254)" transform="translate(0,0)"></path>
<path d="M 595.289 1157.61 L 596.693 1155.08 C 600.535 1155.35 612.039 1163.06 617.938 1165.19 C 657.593 1228.87 715.9 1276.14 782.651 1309.33 C 778.972 1317.39 770.699 1337.01 766.79 1343.87 C 753.717 1373.23 741.002 1402.74 728.648 1432.41 C 693.842 1416.19 661.753 1396.79 625.206 1380.34 C 622.296 1375.5 619.727 1370.43 617.238 1365.35 C 597.514 1325.13 575.172 1286.39 555.712 1246.04 C 557.527 1241.13 559.585 1236.34 561.787 1231.59 C 573.174 1207.04 583.335 1181.9 595.289 1157.61 z" fill="rgb(255,255,254)" transform="translate(0,0)"></path>
<path d="M 595.289 1157.61 L 596.693 1155.08 C 600.535 1155.35 612.039 1163.06 617.938 1165.19 C 657.593 1228.87 715.9 1276.14 782.651 1309.33 C 778.972 1317.39 770.699 1337.01 766.79 1343.87 C 765.667 1342.8 766.368 1343.31 765.002 1342.6 C 696.459 1307.04 636.503 1247.67 604.362 1177.11 C 601.304 1170.39 598.582 1164.16 595.289 1157.61 z" fill="rgb(250,240,213)" transform="translate(0,0)"></path>
<path d="M 1310.75 375.025 C 1325.45 381.727 1348.12 394.834 1362.78 402.792 L 1486 471.052 C 1487.76 474.019 1489.21 477.432 1490.65 480.598 C 1481.4 497.753 1433.36 611.081 1428.2 613.764 C 1368.69 563.958 1319.55 534.708 1246.03 507.145 C 1250.35 494.707 1266.68 463.199 1273.05 450.012 C 1284.78 425.75 1297.32 397.932 1310.75 375.025 z" fill="rgb(255,255,254)" transform="translate(0,0)"></path>
<path d="M 1545.31 1072.72 C 1550.03 1075.6 1555.14 1079.19 1559.79 1082.3 L 1636.63 1129.57 C 1620.16 1164.95 1603.39 1200.19 1586.31 1235.28 C 1574.5 1259.67 1557.62 1295.22 1544.28 1318.13 C 1531.94 1323.32 1519.38 1328.77 1507 1333.77 C 1481.78 1316.39 1451.81 1298.1 1425.83 1281.34 C 1419.71 1279.01 1400.8 1266.44 1394.28 1262.52 C 1465.49 1204.96 1508.84 1157.04 1545.31 1072.72 z" fill="rgb(255,255,254)" transform="translate(0,0)"></path>
<path d="M 1545.31 1072.72 C 1550.03 1075.6 1555.14 1079.19 1559.79 1082.3 C 1551.3 1094.67 1550.08 1107.53 1544.89 1120.63 C 1522.15 1177.95 1489.82 1232.16 1440.06 1270.03 C 1436.34 1272.86 1429.1 1278.12 1425.83 1281.34 C 1419.71 1279.01 1400.8 1266.44 1394.28 1262.52 C 1465.49 1204.96 1508.84 1157.04 1545.31 1072.72 z" fill="rgb(250,240,213)" transform="translate(0,0)"></path>
<path d="M 732.083 1439.94 C 736.607 1444.54 768.558 1460.69 776.295 1464.72 L 882.09 1519.47 C 897.15 1527.2 927.331 1541.74 940.688 1550.27 C 936.721 1558.3 933.724 1564.62 930.417 1572.91 C 909.085 1582.25 887.619 1591.27 866.025 1599.99 C 832.963 1613.45 799.165 1628.58 766.295 1642.75 C 743.285 1600.43 721.594 1559.16 697.977 1516.85 C 710.193 1494.34 720.289 1464.1 732.083 1439.94 z" fill="rgb(255,255,254)" transform="translate(0,0)"></path>
<path d="M 1388.39 1265.5 C 1397.46 1271.7 1410.85 1279.23 1420.53 1285.02 C 1445.1 1300.44 1476.6 1319.99 1499.83 1336.95 C 1461.17 1354.06 1419.3 1369.53 1379.98 1386.51 C 1340.95 1403.6 1301.63 1420 1262.02 1435.69 C 1248.91 1440.98 1229.04 1450.23 1216.39 1454.43 C 1230.38 1426.05 1245.76 1397.98 1259.96 1369.21 C 1265.99 1355.57 1273.91 1341.62 1280.61 1327.99 C 1319.39 1312.51 1355.7 1291.46 1388.39 1265.5 z" fill="rgb(255,255,254)" transform="translate(0,0)"></path>
<path d="M 1388.39 1265.5 C 1397.46 1271.7 1410.85 1279.23 1420.53 1285.02 C 1413.46 1290.37 1397.73 1302.15 1391.01 1306.55 C 1368.52 1321.25 1284.67 1367.3 1259.96 1369.21 C 1265.99 1355.57 1273.91 1341.62 1280.61 1327.99 C 1319.39 1312.51 1355.7 1291.46 1388.39 1265.5 z" fill="rgb(250,240,213)" transform="translate(0,0)"></path>
<path d="M 1642.38 1132.76 C 1690.34 1160.12 1736.89 1189.98 1785.29 1216.94 C 1742.35 1233.88 1697.05 1253.85 1654.34 1271.84 C 1621 1285.26 1587.44 1300.51 1554.4 1313.6 C 1566.34 1285.88 1583.93 1254.38 1597.28 1226.89 C 1612.48 1195.61 1626.93 1163.87 1642.38 1132.76 z" fill="rgb(255,255,254)" transform="translate(0,0)"></path>
<path d="M 1493.61 489.469 C 1497.22 491.755 1568.93 664.331 1576.57 684.51 C 1569.02 700.051 1561.35 715.531 1553.55 730.946 C 1546.82 728.34 1536.09 722.814 1529.26 719.571 C 1524.29 717.667 1522.82 717.428 1517.53 716.617 C 1494.87 679.019 1465.85 650.342 1434.86 619.984 C 1441.91 607.119 1449.52 588.451 1455.65 574.631 C 1468.14 546.173 1480.8 517.785 1493.61 489.469 z" fill="rgb(255,255,254)" transform="translate(0,0)"></path>
<path d="M 1389.4 211.635 C 1390.97 213.278 1404.98 267.417 1407.25 274.204 C 1428.77 338.452 1458.8 399.186 1482.71 462.454 C 1467.2 453.211 1451.52 444.26 1435.68 435.605 C 1395.13 414.261 1354.52 390.189 1313.96 369.59 C 1321.25 351.334 1332.5 329.323 1341.21 311.256 L 1389.4 211.635 z" fill="rgb(255,255,254)" transform="translate(0,0)"></path>
<path d="M 1706.19 998.558 C 1707.68 999.95 1707.69 1000.06 1708.53 1001.97 C 1738.02 1069.17 1764.79 1137.56 1792.85 1205.36 C 1793.95 1208.03 1794.66 1209.77 1793.74 1212.37 C 1787.8 1212.79 1760.99 1196.21 1754.4 1192.31 C 1718.07 1170.92 1681.87 1149.31 1645.79 1127.5 C 1648.2 1121.83 1650.76 1116.09 1653.52 1110.59 C 1671.94 1073.86 1687.6 1035.13 1706.19 998.558 z" fill="rgb(255,255,254)" transform="translate(0,0)"></path>
<path d="M 589.489 442.919 C 590.392 443.056 589.797 442.889 591.015 443.971 C 590.27 447.01 573.154 481.89 570.305 487.397 C 552.554 521.716 536.634 558.511 518.938 592.538 C 492.749 578.334 466.936 563.446 441.528 547.889 C 425.969 538.392 409.859 529.87 394.4 520.148 C 458.168 493.578 525.037 468.277 589.489 442.919 z" fill="rgb(255,255,254)" transform="translate(0,0)"></path>
<path d="M 1474.31 102.721 C 1477.29 106.474 1484.4 126.667 1486.55 131.875 C 1511.7 192.757 1546.55 255.032 1612.44 277.104 C 1603.22 280.945 1592.63 284.793 1583.24 288.432 C 1562.2 295.768 1541.21 303.259 1520.27 310.905 C 1519.68 309.534 1519.1 308.159 1518.54 306.78 C 1497.65 255.909 1452.41 155.4 1474.31 102.721 z" fill="rgb(250,240,213)" transform="translate(0,0)"></path>
<path d="M 471.903 1082.45 C 477.315 1084.7 484.073 1088.89 489.278 1091.96 C 523.208 1111.99 558.519 1130.46 591.936 1151.28 C 582.057 1170.66 572.936 1190.41 564.594 1210.5 C 560.57 1220.1 556.419 1229.65 552.142 1239.14 C 549.079 1233.94 546.177 1228.22 543.351 1222.84 C 518.984 1176.47 493.26 1130.29 471.903 1082.45 z" fill="rgb(255,255,254)" transform="translate(0,0)"></path>
<path d="M 861.631 337.056 C 862.116 337.426 862.271 338.096 862.548 338.639 C 845.418 373.537 828.374 411.666 811.696 447.184 C 795.586 439.645 768.204 423.038 751.869 413.781 C 739.945 407.445 727.562 399.997 715.816 393.179 C 763.861 375.926 812.535 354.717 861.631 337.056 z" fill="rgb(255,255,254)" transform="translate(0,0)"></path>
<path d="M 814.503 456.176 C 825.107 460.616 844.419 472.664 855.321 478.733 C 866.413 484.908 884.5 494.248 894.286 501.029 C 863.303 513.244 840.623 522.532 811.336 538.567 C 792.204 549.133 780.148 557.2 762.159 569.696 C 778.837 531.378 797.867 494.276 814.503 456.176 z" fill="rgb(255,255,254)" transform="translate(0,0)"></path>
<path d="M 629.549 1388.53 C 638.911 1391.81 659.484 1403.47 668.63 1408.37 L 725.921 1438.52 C 720.422 1453.52 710.403 1475.12 703.884 1490.65 C 700.893 1498.04 697.663 1505.27 696.068 1513.08 C 672.261 1472.46 650.07 1430.91 629.549 1388.53 z" fill="rgb(255,255,254)" transform="translate(0,0)"></path>
<path d="M 334.087 781.473 C 338.033 782.826 366.79 802.255 372.675 805.91 C 384.749 813.407 396.774 819.874 409.277 826.833 C 403.51 839.906 396.385 853.832 390.065 866.758 L 379.044 889.289 C 375.984 883.1 373.314 876.672 370.672 870.292 C 358.424 840.716 345.154 811.507 334.087 781.473 z" fill="rgb(255,255,254)" transform="translate(0,0)"></path>
<path d="M 1579.19 692.594 C 1586.05 700.662 1603.52 746.906 1607.58 758.291 C 1602.39 755.899 1597.22 753.444 1592.08 750.928 L 1559.02 733.489 C 1564.75 720.603 1572.3 704.747 1579.19 692.594 z" fill="rgb(250,240,213)" transform="translate(0,0)"></path>
<path d="M 1138.74 229.155 L 1139.49 229.77 C 1139.37 234.472 1124.91 262.113 1122.07 267.709 C 1114.64 264.039 1106.8 259.692 1099.42 255.786 L 1085.63 249.242 C 1100.22 242.291 1123.18 234.371 1138.74 229.155 z" fill="rgb(255,255,254)" transform="translate(0,0)"></path>
<path d="M 1522.64 723.534 C 1530.17 725.762 1543.48 732.583 1551.12 736.194 L 1543.93 750.287 C 1542.85 752.64 1542.25 753.381 1540.75 755.526 C 1539.26 754.807 1524.68 727.217 1522.64 723.534 z" fill="rgb(250,240,213)" transform="translate(0,0)"></path>
<path d="M 946.395 1552.28 C 951.665 1554.92 955.987 1557.33 961.073 1560.26 L 948.244 1565.47 L 937.996 1569.55 L 946.395 1552.28 z" fill="rgb(255,255,254)" transform="translate(0,0)"></path>
<path d="M 602.647 1137.73 C 606.365 1141.69 610.424 1150.88 612.501 1155.98 L 600.456 1148.33 C 601.307 1144.79 601.954 1141.31 602.647 1137.73 z" fill="rgb(255,255,254)" transform="translate(0,0)"></path>
<path d="M 1742.55 1439.43 C 1841.43 1436.18 1946.86 1468.46 1969 1577.23 C 1982.76 1633.98 1966.68 1681.76 1921.19 1719.51 C 1864.66 1766.43 1788.59 1801.64 1721.11 1831.33 C 1636.77 1868.43 1546 1908.81 1455.83 1928.71 C 1439.32 1931.96 1422.64 1934.27 1405.87 1935.61 C 1360.95 1938.82 1306.7 1929.26 1271.92 1898.69 C 1245.93 1875.5 1230.35 1842.84 1228.67 1808.05 C 1225.89 1758.92 1250.17 1713.41 1279.67 1676.26 C 1289.83 1662.89 1299.63 1649.01 1311.08 1636.67 C 1422.26 1516.8 1580.85 1448.08 1742.55 1439.43 z" fill="rgb(82,56,38)" transform="translate(0,0)"></path>
<path d="M 1735.71 1448.46 C 1787.41 1446.55 1843.02 1453.31 1888.3 1479.64 C 1930.29 1504.06 1946.05 1530.52 1958.49 1576.42 C 1980.02 1655.82 1933.66 1705.71 1869.37 1744.54 C 1825.32 1771.14 1780.14 1792.99 1733.35 1814.23 C 1645.67 1853.38 1555.45 1894.84 1461.78 1916.89 C 1398.13 1928.93 1327.7 1934.16 1275.44 1886.97 C 1252.3 1866.08 1239.99 1835.53 1238.8 1804.5 C 1236.22 1739.32 1288.58 1674.02 1332.64 1629.13 C 1433.04 1526.87 1593.71 1453.14 1735.71 1448.46 z" fill="rgb(228,182,134)" transform="translate(0,0)"></path>
<path d="M 1537.51 1546.4 C 1607.32 1536.7 1706.18 1601.33 1735.08 1664.19 C 1738.42 1671.87 1742.39 1681.51 1738.75 1689.66 C 1729.65 1710.05 1684.83 1683.76 1669.82 1676.94 C 1623.28 1655.42 1576.06 1635.42 1528.22 1616.96 C 1514.23 1611.48 1453.92 1591.66 1446.78 1583.18 C 1443.95 1564.88 1522.18 1547.79 1537.51 1546.4 z" fill="rgb(82,56,38)" transform="translate(0,0)"></path>
<path d="M 1545.31 1555.44 C 1614.9 1554.42 1687.2 1601.8 1723.4 1659.74 C 1732.04 1673.56 1738.63 1696.93 1712.92 1686.29 C 1698.38 1680.28 1684.41 1673.7 1670.18 1667.06 C 1627.44 1647.47 1584.2 1629.02 1540.49 1611.73 C 1513.03 1601.08 1485.32 1591.74 1457.92 1580.7 C 1483.35 1564 1515.33 1557.22 1545.31 1555.44 z" fill="rgb(250,240,213)" transform="translate(0,0)"></path>
<path d="M 1516.22 1575.39 C 1547.32 1575.03 1595.4 1592.38 1621.43 1609.32 C 1631.78 1616.06 1667.55 1641.78 1669.85 1651.5 L 1668.97 1652.89 C 1665.12 1652.91 1663.18 1650.42 1659.47 1647.72 C 1617.32 1611.88 1573.31 1585.34 1516.23 1582.54 C 1511.34 1582.3 1503.29 1583.64 1499.66 1580.45 C 1503.17 1576.08 1510.58 1576.03 1516.22 1575.39 z" fill="rgb(82,56,38)" transform="translate(0,0)"></path>
<path d="M 1389.63 1661.39 C 1401.98 1659.39 1428.97 1662.23 1441.22 1665.03 C 1486.12 1675.31 1531.68 1702.47 1556.92 1741.75 C 1561.24 1748.35 1564.74 1756.75 1562.63 1764.77 C 1556.31 1788.79 1517.67 1770.97 1503.23 1765.98 C 1466.42 1752.35 1429.46 1739.13 1392.35 1726.32 C 1367.78 1718.02 1342.69 1710.28 1318.69 1700.59 C 1314.03 1699.21 1313.81 1692.7 1317.01 1689.57 C 1335.22 1671.74 1365.67 1663.98 1389.63 1661.39 z" fill="rgb(82,56,38)" transform="translate(0,0)"></path>
<path d="M 1389.88 1669.4 C 1440.81 1664.19 1504.77 1691.41 1537.81 1731 C 1551.51 1747.41 1570.42 1776.25 1529.71 1764.99 C 1521.25 1762.65 1512.38 1759.08 1504.03 1756.04 C 1470.83 1743.69 1437.48 1731.75 1403.99 1720.21 C 1379.65 1711.96 1349.22 1702.64 1325.79 1693.35 C 1341.9 1678.28 1368.59 1671.8 1389.88 1669.4 z" fill="rgb(250,240,213)" transform="translate(0,0)"></path>
<path d="M 1381.65 1686.42 C 1403.26 1685.25 1422.76 1688.9 1443.15 1696.5 C 1456.96 1701.65 1503.95 1723.91 1509.56 1736.4 L 1508.49 1737.44 C 1503.83 1737.03 1503.15 1736.55 1499.12 1734.11 C 1469.8 1715.58 1438.12 1698.37 1403.04 1693.93 C 1392.19 1692.56 1374.5 1694.25 1364.5 1691.99 L 1364.27 1690.43 C 1367.31 1686.55 1376.86 1686.74 1381.65 1686.42 z" fill="rgb(82,56,38)" transform="translate(0,0)"></path>
<path d="M 1685.61 1471.42 C 1707.2 1469.36 1748.89 1474.17 1769.98 1480.09 C 1807.81 1490.71 1845.88 1523.74 1865.1 1557.67 C 1870.08 1566.86 1876.45 1579.59 1872.9 1590.18 C 1867.89 1605.07 1845.28 1594.85 1835.75 1591.31 C 1806.15 1579.06 1777.27 1565.14 1749.24 1549.63 C 1722.99 1535.25 1699 1519.2 1670.55 1508.58 C 1665.89 1505.88 1643.87 1500.42 1641.01 1497.1 C 1622.96 1476.17 1681.28 1471.8 1685.61 1471.42 z" fill="rgb(82,56,38)" transform="translate(0,0)"></path>
<path d="M 1694.62 1479.42 C 1755.5 1478.98 1810.24 1497.19 1846.68 1548.23 C 1851.68 1555.23 1872.53 1581.87 1859.21 1588 C 1851 1587.87 1838.72 1581.86 1830.75 1578.49 C 1783.78 1558.68 1751.49 1537.76 1707.4 1515.51 C 1695.92 1509.75 1684.24 1504.42 1672.36 1499.53 C 1665.06 1496.6 1657.74 1494.45 1650.71 1490.96 C 1651.37 1481.9 1686.99 1479.91 1694.62 1479.42 z" fill="rgb(250,240,213)" transform="translate(0,0)"></path>
<path d="M 1702.83 1489.07 C 1724.29 1487.27 1813.38 1535.47 1822.41 1556.4 C 1821.86 1556.47 1818.62 1556.79 1818.16 1556.51 C 1799.58 1544.29 1780.92 1531.48 1762.08 1519.57 C 1749.82 1511.82 1707.21 1496.83 1702.83 1489.07 z" fill="rgb(82,56,38)" transform="translate(0,0)"></path>
<path d="M 1257.24 1765.42 C 1258.67 1766.5 1259.95 1767.22 1259.66 1769.43 C 1255.19 1803.12 1258.12 1837.28 1285.72 1861.19 C 1331.04 1900.43 1402.13 1900.99 1457.09 1885.42 C 1462.51 1883.88 1474.73 1877.77 1479.4 1881 C 1478.4 1884.72 1479.22 1882.93 1475.72 1886.05 C 1470.07 1888.02 1464.38 1889.89 1458.65 1891.66 C 1405.67 1907.96 1355.71 1909.47 1304.74 1883.27 C 1280.43 1870.77 1263.65 1852.17 1255.36 1825.86 C 1250.13 1809.25 1248.83 1781.1 1257.24 1765.42 z" fill="rgb(82,56,38)" transform="translate(0,0)"></path>
<path d="M 1904.24 1508.61 L 1908.47 1509.08 C 1912.5 1511.48 1915.05 1514.73 1917.66 1518.58 C 1945.91 1559.02 1953.7 1624.34 1924.33 1666.21 C 1903.64 1695.69 1853.69 1728.06 1821.18 1745.14 C 1818.57 1745.69 1818.76 1745.72 1816.3 1744.68 C 1816.3 1742.17 1816.69 1741.48 1818.95 1739.93 C 1856.37 1714.23 1910.77 1689.84 1928.18 1645.08 C 1943.41 1605.93 1935.57 1556.37 1911.88 1522.34 C 1909.11 1518.36 1906.19 1513.08 1904.24 1508.61 z" fill="rgb(82,56,38)" transform="translate(0,0)"></path>
<path d="M 1272.83 1800.56 C 1277.07 1803.23 1284.7 1822.14 1289.25 1828.96 C 1294.03 1836.17 1300.1 1842.45 1307.14 1847.49 C 1328.5 1862.94 1346.31 1863.36 1369.85 1870.87 C 1371.07 1871.26 1370.46 1873.78 1370.39 1874.91 C 1330.15 1875.86 1286.03 1852.05 1273.52 1813.6 C 1271.84 1808.43 1270.46 1805.56 1272.83 1800.56 z" fill="rgb(82,56,38)" transform="translate(0,0)"></path>
<path d="M 1919.98 1575.24 C 1926.63 1577.2 1925.96 1588.16 1925.66 1593.65 C 1923.81 1627.56 1911.07 1649.89 1885.56 1671.84 L 1883.97 1672.68 L 1882.43 1671.7 C 1882.57 1665.49 1895.81 1654.7 1900.36 1648.89 C 1918.66 1625.52 1915.49 1603.8 1919.83 1576.17 L 1919.98 1575.24 z" fill="rgb(82,56,38)" transform="translate(0,0)"></path>
<path d="M 98.2101 739.121 C 113.56 739.19 130.095 759.795 139.791 770.833 C 186.595 824.12 227.566 891.311 247.891 959.523 C 276.654 956.274 303.243 958.091 313.103 990.115 C 321.824 988.463 343.315 986.004 348.777 994.122 C 373.991 1031.59 394.791 1072.6 417.103 1111.64 C 506.043 1267.11 598.171 1420.95 683.868 1578.19 C 697.801 1603.76 692.358 1647.4 669.128 1665.25 C 680.784 1679.44 703.63 1705.78 713.195 1719.17 C 741.552 1758.85 788.03 1836.44 799.44 1883.93 C 793.898 1907.33 776.716 1921.19 752.566 1920.98 C 733.482 1916.16 723.332 1898.06 711.47 1883.53 C 665.898 1827.68 630.111 1768.39 601.594 1702.2 C 596.527 1703.95 591.45 1705.68 586.364 1707.38 C 559.538 1716.28 540.372 1712.49 523.511 1687.32 C 510.05 1667.23 498.082 1645.81 485.493 1625.12 C 458.02 1580.36 430.931 1535.36 404.23 1490.13 L 236.517 1212.62 C 215.26 1176.69 187.585 1138.19 170.046 1100.05 C 165.943 1091.12 175.223 1075.07 179.691 1066.48 C 154.751 1039 164.966 1021.17 185.214 996.115 C 140.299 942.649 96.9621 878.523 74.1731 812.173 C 61.1317 774.203 53.2433 753.28 98.2101 739.121 z" fill="rgb(82,56,38)" transform="translate(0,0)"></path>
<path d="M 324.126 998.408 C 330.441 997.553 336.447 998.177 342.716 998.881 C 368.719 1041.03 391.514 1084.54 416.012 1127.31 L 562.507 1381.8 L 631.1 1501.5 C 645.903 1527.18 670.107 1566.32 679.89 1593.55 C 640.776 1572.3 599.762 1593.13 566.5 1617.51 C 547.056 1631.77 535.516 1652.57 533.234 1676.75 L 533.914 1686.42 C 516.206 1661.02 498.477 1629.45 482.441 1602.64 L 414.865 1490.8 C 360.517 1400.04 303.436 1310.81 251.331 1218.69 C 237.481 1194.2 220.388 1170.58 206.231 1146.14 C 196.3 1129.01 184.878 1112.69 177.313 1094.28 C 178.197 1086.57 189.284 1069.07 194.537 1063.12 C 233.409 1019.09 267.824 1004.09 324.126 998.408 z" fill="rgb(250,240,213)" transform="translate(0,0)"></path>
<path d="M 271.438 1218.51 C 272.931 1219.03 274.402 1219.48 275.375 1220.89 C 293.395 1247.01 308.705 1274.63 324.952 1301.82 C 352.222 1347 379.857 1391.96 407.854 1436.69 L 446.073 1499.26 C 453.279 1511.1 461.11 1523.59 467.306 1536.01 C 469.183 1539.77 469.053 1540.64 468.239 1544.08 C 458.606 1537.61 428.677 1486.67 420.603 1473.68 C 398.969 1439.53 377.684 1405.16 356.752 1370.57 C 327.145 1322.21 297.691 1274.15 271.302 1223.95 C 269.804 1221.1 270.381 1221.03 271.438 1218.51 z" fill="rgb(82,56,38)" transform="translate(0,0)"></path>
<path d="M 359.47 1071.6 C 360.347 1071.93 360.88 1072.08 361.694 1072.66 C 367.256 1076.63 498.14 1304.41 510.651 1329.43 C 512.641 1333.41 513.994 1336.71 514.316 1341.21 C 512.849 1341.23 510.568 1341.62 509.93 1340.61 C 464.484 1268.38 421.872 1191.28 380.283 1116.69 C 373.803 1105.06 360.535 1079.07 359.47 1071.6 z" fill="rgb(82,56,38)" transform="translate(0,0)"></path>
<path d="M 533.602 1373.68 C 538.827 1377.28 549.616 1396.23 553.576 1402.79 C 564.635 1421.08 575.457 1439.52 586.037 1458.09 C 591.117 1466.97 605.436 1488.38 604.974 1497.22 C 600.272 1495.19 595.172 1486.57 592.457 1482.07 C 571.99 1448.15 550.956 1414.09 533.44 1378.55 C 532.791 1377.23 533.304 1375.02 533.602 1373.68 z" fill="rgb(82,56,38)" transform="translate(0,0)"></path>
<path d="M 634.96 1647.09 L 639.996 1647.02 C 647.038 1650.28 656.267 1666.15 662.214 1672.69 C 715.331 1731.04 758.278 1797.8 785.991 1872.48 C 766.26 1864.49 752.599 1876.33 741.544 1891.54 C 740.09 1894.79 739.369 1898.73 738.564 1902.26 C 690.503 1842.65 647.4 1784.57 616.035 1714.43 C 611.241 1703.71 601.065 1685.19 597.859 1674.79 C 598.206 1674.06 598.564 1673.35 598.935 1672.64 C 606.363 1658.5 620.53 1651.76 634.96 1647.09 z" fill="rgb(250,240,213)" transform="translate(0,0)"></path>
<path d="M 617.096 1676.45 L 620.409 1677.12 C 623.754 1680.99 633.076 1706.35 636.249 1713.1 C 641.613 1724.53 647.059 1735.62 652.986 1747.07 C 668.572 1777.18 686.402 1804.96 704.782 1833.56 C 712.065 1844.89 725.476 1861.93 732.631 1874.37 C 732.573 1875.68 732.515 1876.99 732.457 1878.31 C 727.281 1875.54 717.214 1860.31 713.479 1854.95 C 679.545 1806.24 647.745 1754.81 624.606 1700 C 622.07 1694 617.569 1682.38 617.096 1676.45 z" fill="rgb(82,56,38)" transform="translate(0,0)"></path>
<path d="M 98.9234 746.897 C 103.312 746.788 109.331 752.449 112.529 755.515 C 156.176 797.348 191.443 850.28 217.716 904.526 C 226.168 921.978 233.155 943.054 239.901 961.126 C 225.199 965.846 215.754 969.387 203.279 978.445 C 198.971 981.927 195.166 985.648 191.166 989.461 C 158.838 949.772 129.802 910.659 106.038 863.906 C 95.7921 843.746 70.7369 788.785 74.4583 764.45 C 75.7493 756.008 91.4175 750.132 98.9234 746.897 z" fill="rgb(250,240,213)" transform="translate(0,0)"></path>
<path d="M 86.2106 772.532 C 91.8061 774.937 101.097 806.18 103.907 813.615 C 123.375 865.119 144.43 897.288 176.251 942.397 C 182.932 951.867 190.258 960.827 196.825 970.388 C 184.418 966.29 170.959 943.587 163.199 932.761 C 129.539 885.8 96.4463 830.183 86.2106 772.532 z" fill="rgb(82,56,38)" transform="translate(0,0)"></path>
<path d="M 639.544 1611.34 C 645.479 1610.8 654.22 1610.57 659.586 1613.56 C 662.806 1615.34 665.149 1618.36 666.063 1621.93 C 668.679 1631.76 662.455 1643.12 657.907 1651.49 C 654.242 1645.99 652.113 1642.53 647.509 1637.78 C 637.409 1636.67 632.741 1637.03 623.13 1640.94 C 607.849 1647.17 582.449 1665.21 590.621 1684.49 L 595.419 1693.86 C 533.957 1713.57 560.629 1622.45 639.544 1611.34 z" fill="rgb(250,240,213)" transform="translate(0,0)"></path>
<path d="M 259.609 967.372 C 273.987 965.12 291.991 969.891 301.448 981.311 C 295.26 980.893 287.316 980.306 281.195 980.617 C 249.072 982.253 215.359 1001.82 194.001 1025.16 C 185.411 1035.59 184.023 1038.51 178.741 1051.15 C 176.746 1047.69 174.981 1043.71 173.262 1040.07 C 182.811 998.064 218.017 972.494 259.609 967.372 z" fill="rgb(250,240,213)" transform="translate(0,0)"></path>
<path d="M 565.177 1703.42 C 558.193 1701.66 550.698 1699.1 547.6 1692.24 C 531.697 1657 566.182 1623.45 595.31 1609.94 C 617.288 1599.75 639.693 1589.99 663.758 1596.54 C 680.066 1601.38 684.31 1614.7 679.214 1630.06 C 678.8 1631.29 678.347 1632.49 677.856 1633.69 L 676.515 1632.9 L 675.945 1626.65 C 675.647 1605.37 659.912 1599.86 640.956 1601.19 C 602.626 1603.88 552.749 1637.47 552.725 1679.36 C 552.72 1689.78 558.272 1696.71 565.177 1703.42 z" fill="rgb(250,240,213)" transform="translate(0,0)"></path>
<path d="M 281.646 988.391 C 291.422 987.447 297.474 988.468 307.12 989.861 C 258.561 1000.82 232.959 1010.77 196.847 1046.9 C 193.483 1050.81 190.198 1054.69 186.674 1058.46 C 184.574 1057.15 185.509 1058.01 184.525 1054.98 C 185.298 1049 188.613 1044.43 192.104 1039.63 C 212.333 1011.83 247.803 992.083 281.646 988.391 z" fill="rgb(250,240,213)" transform="translate(0,0)"></path>
<path d="M 773.485 1879.33 C 779.548 1879.36 784.922 1879 788.165 1884.82 C 789.375 1896.26 773.874 1905.93 764.468 1908.96 C 736.866 1914.57 748.379 1883.01 773.485 1879.33 z" fill="rgb(228,182,134)" transform="translate(0,0)"></path>
<path d="M 677.856 1633.69 C 676.772 1639.65 672.824 1646.8 668.661 1651.29 L 667.497 1651.19 C 672.013 1641 674.139 1637.75 675.945 1626.65 L 676.515 1632.9 L 677.856 1633.69 z" fill="rgb(228,182,134)" transform="translate(0,0)"></path>
<metadata><recraft-signature>{"signed_by": "recraft", "signature_b64": "g8vL3O7l2EqMHxgGkDYcNT0loGJim3v+0JcgsDajnpP6rxF/U900hxaCZPB7u7VSXHDGk2wCoB7kw81wjwuNDg==", "signing_algo": "Ed25519", "generation_timestamp": 1778093026, "identifier": "087de8d4-d0f5-4c98-b861-80bd1612b7e6"}</recraft-signature></metadata></svg>