<svg xmlns="http://www.w3.org/2000/svg" height="1024" preserveAspectRatio="none" style="display: block;" version="1.1" viewBox="0 0 2048 2048" width="1024">
<defs>
	<linearGradient gradientUnits="userSpaceOnUse" id="Gradient1" x1="516.007" x2="494.57" y1="1337.65" y2="1335.48">
		<stop class="stop0" offset="0" stop-color="rgb(17,0,0)" stop-opacity="1"></stop>
		<stop class="stop1" offset="1" stop-color="rgb(49,2,0)" stop-opacity="1"></stop>
	</linearGradient>
	<linearGradient gradientUnits="userSpaceOnUse" id="Gradient2" x1="1188.39" x2="1171.44" y1="945.693" y2="918.026">
		<stop class="stop0" offset="0" stop-color="rgb(14,0,0)" stop-opacity="1"></stop>
		<stop class="stop1" offset="1" stop-color="rgb(41,0,0)" stop-opacity="1"></stop>
	</linearGradient>
	<linearGradient gradientUnits="userSpaceOnUse" id="Gradient3" x1="583.66" x2="586.491" y1="1865.31" y2="1911">
		<stop class="stop0" offset="0" stop-color="rgb(19,0,0)" stop-opacity="1"></stop>
		<stop class="stop1" offset="1" stop-color="rgb(39,0,0)" stop-opacity="1"></stop>
	</linearGradient>
	<linearGradient gradientUnits="userSpaceOnUse" id="Gradient4" x1="1103.47" x2="565.126" y1="452.607" y2="1926.48">
		<stop class="stop0" offset="0" stop-color="rgb(24,0,0)" stop-opacity="1"></stop>
		<stop class="stop1" offset="1" stop-color="rgb(49,1,0)" stop-opacity="1"></stop>
	</linearGradient>
</defs>
<path d="M 0 0 L 2048 0 L 2048 2048 L 0 2048 L 0 0 z" fill="rgb(253,246,234)" transform="translate(0,0)"></path>
<path d="M 4.01575 3.18952 L 201.855 3.09819 C 205.731 3.9346 206.55 4.31943 209.466 7.88952 C 225.214 27.1726 240.569 47.7197 255.654 67.4876 L 345.516 183.654 C 361.937 204.981 390.922 244.123 409.227 263.629 C 434.343 260.254 517.225 252.353 540.373 256.9 C 602.206 257.941 681.226 301.402 722.679 346.608 C 772.72 401.18 820.936 474.92 825.978 550.838 C 827.368 571.767 815.004 582.3 799.35 592.304 C 804.758 616.899 808.796 639.703 818.353 664.319 C 830.561 695.762 860.545 730.855 867.224 763.25 C 868.955 771.644 858.062 787.602 853.652 795.205 C 856.515 805.081 862.597 817.348 866.978 826.928 C 873.436 840.867 879.663 854.913 885.657 869.058 C 928.279 859.287 969.64 850.511 1013.52 846.241 C 1121.8 835.704 1229.63 844.719 1331.57 884.062 C 1421.98 918.953 1493.81 988.413 1533.85 1076.53 C 1539.65 1089.29 1544.72 1102.55 1553.42 1113.62 C 1629.78 1217.23 1724.15 1290.34 1830.69 1361.72 C 1848.31 1373.44 1866.01 1385.01 1883.81 1396.45 C 1893.78 1402.9 1906.84 1411.81 1916.98 1417.4 C 1917.05 1425.95 1917.16 1431.59 1916.22 1439.98 C 1905.25 1445.5 1871.45 1456.43 1858.52 1460.91 C 1820.04 1474.61 1781.39 1487.86 1742.59 1500.63 C 1651.1 1531.41 1559.51 1564.83 1467.96 1596.22 L 830.104 1817.2 C 768.149 1838.32 705.629 1861.67 643.347 1881.65 C 620.355 1889.79 597.309 1897.78 574.209 1905.62 C 565.407 1908.69 542.383 1919.16 534.376 1915.7 C 397.172 1862.72 256.362 1794.64 220.787 1636.94 C 206.948 1575.59 192.313 1448.76 138.756 1409.46 C 137.962 1402.61 134.843 1391.06 143.041 1388.19 C 163.18 1381.16 183.441 1374.45 203.66 1367.64 L 304.214 1333.78 C 328.44 1325.69 355.034 1317.31 378.62 1308.01 C 381.667 1289.3 384.97 1270.15 390.391 1251.97 C 407.974 1192.99 444.243 1127.67 487.688 1084.2 C 523.426 1042.2 580.541 997.823 627.202 968.984 C 638.389 962.07 657.06 950.459 668.978 945.607 C 699.108 926.567 789.904 892.674 825.818 882.043 C 818.969 864.877 809.053 847.061 803.267 830.11 L 800.736 825.445 C 791.996 824.594 775.755 823.739 769.001 818.262 C 744.867 797.295 741.205 756.751 728.247 729.272 C 721.183 714.291 706.167 675.166 695.689 664.296 L 693.949 664.713 C 692.54 666.935 689.282 672.39 687.774 674.159 C 667.777 698.824 636.506 688.36 612.906 675.659 C 590.051 705.047 564.947 692.196 539.637 675.259 C 498.357 696.731 468.294 654.423 455.072 620.949 C 387.132 592.327 326.026 526.562 278.812 471.173 C 270.624 461.567 262.883 447.532 252.873 440.481 C 248.442 439.029 214.387 413.579 208.374 409.302 C 158.389 374.086 108.591 338.604 58.982 302.859 L 21.3936 276.75 C 15.8139 272.899 9.48897 268.672 4.10249 264.515 C 1.771 262.716 2.35237 261.146 2.50995 258.827 C 3.8344 253.611 3.2139 198.143 3.23361 190.034 L 4.01575 3.18952 z" fill="url(#Gradient4)" transform="translate(0,0)"></path>
<path d="M 4.01575 3.18952 L 201.855 3.09819 C 205.731 3.9346 206.55 4.31943 209.466 7.88952 C 225.214 27.1726 240.569 47.7197 255.654 67.4876 L 345.516 183.654 C 361.937 204.981 390.922 244.123 409.227 263.629 C 434.343 260.254 517.225 252.353 540.373 256.9 C 526.598 258.627 510.171 257.555 495.769 258.254 C 476.589 259.185 458.139 259.842 438.996 262.356 C 429.621 263.587 418.232 263.48 409.329 266.687 C 406.823 267.589 406.434 267.551 404.014 266.838 C 347.277 284.631 291.433 350.494 267.019 403.326 C 262.229 413.692 259.143 426.289 256.415 437.436 C 248.151 430.125 233.668 420.194 224.539 413.655 L 172.046 376.149 C 133.187 347.938 94.087 320.059 54.7513 292.516 C 45.0695 285.757 11.5628 261.805 2.50995 258.827 C 3.8344 253.611 3.2139 198.143 3.23361 190.034 L 4.01575 3.18952 z" fill="rgb(219,182,145)" transform="translate(0,0)"></path>
<path d="M 201.855 3.09819 C 205.731 3.9346 206.55 4.31943 209.466 7.88952 C 225.214 27.1726 240.569 47.7197 255.654 67.4876 L 345.516 183.654 C 361.937 204.981 390.922 244.123 409.227 263.629 C 434.343 260.254 517.225 252.353 540.373 256.9 C 526.598 258.627 510.171 257.555 495.769 258.254 C 476.589 259.185 458.139 259.842 438.996 262.356 C 429.621 263.587 418.232 263.48 409.329 266.687 C 406.823 267.589 406.434 267.551 404.014 266.838 C 403.536 265.262 372.636 228.604 368.822 223.812 C 319.021 161.443 270.303 98.2164 222.69 34.161 C 218.417 28.4454 201.678 8.00363 201.855 3.09819 z" fill="rgb(32,0,0)" transform="translate(0,0)"></path>
<path d="M 161.753 1387.9 C 188.792 1378.45 215.983 1369.43 243.315 1360.85 C 311.844 1427.58 303.365 1525.57 329.898 1609.33 C 340.012 1641.88 356.604 1672.06 378.677 1698.04 C 423.794 1750.6 497.706 1793 557.74 1826.47 C 567.152 1831.72 616.223 1855.81 618.992 1862.68 C 624.453 1861.93 626.767 1860.7 630.68 1865.03 C 633.987 1869.82 634.795 1871.72 637.131 1876.94 C 640.827 1877.77 640.428 1879.48 643.347 1881.65 C 620.355 1889.79 597.309 1897.78 574.209 1905.62 C 565.407 1908.69 542.383 1919.16 534.376 1915.7 L 534.823 1909.56 C 535.263 1904.39 535.482 1897.65 534.107 1892.69 L 536.498 1889.01 C 535.094 1886.7 488.502 1866.12 482.846 1863.56 C 411.44 1831.26 349.943 1791.82 299.752 1730.71 C 232.176 1648.44 249.613 1545.4 206.8 1453.82 C 194.335 1427.15 179.993 1410.35 161.753 1387.9 z" fill="rgb(253,246,234)" transform="translate(0,0)"></path>
<path d="M 618.992 1862.68 C 624.453 1861.93 626.767 1860.7 630.68 1865.03 C 633.987 1869.82 634.795 1871.72 637.131 1876.94 C 640.827 1877.77 640.428 1879.48 643.347 1881.65 C 620.355 1889.79 597.309 1897.78 574.209 1905.62 C 565.407 1908.69 542.383 1919.16 534.376 1915.7 L 534.823 1909.56 C 535.263 1904.39 535.482 1897.65 534.107 1892.69 L 536.498 1889.01 C 545.367 1890.23 602.407 1866.4 618.992 1862.68 z" fill="url(#Gradient3)" transform="translate(0,0)"></path>
<path d="M 623.11 1867.08 L 624.256 1867.49 C 627.83 1871.22 628.817 1874.46 630.886 1879.19 C 607.933 1889 572.756 1900.11 548.242 1908.57 C 544.907 1909.41 546.088 1909.49 542.903 1909.03 C 540.579 1905.23 541.478 1899.76 541.581 1894.81 C 568.661 1885.29 595.839 1876.05 623.11 1867.08 z" fill="rgb(251,226,182)" transform="translate(0,0)"></path>
<path d="M 720.065 928.188 L 730.784 928.462 L 729.063 930.176 L 729.902 930.881 C 742.227 928.083 836.906 939.58 847.633 945.586 C 833.889 948.935 761.277 928.319 750.138 935.498 C 771.704 936.93 793.183 939.457 814.491 943.071 C 827.965 945.366 843.292 948.934 856.579 950.742 C 867.278 974.137 876.865 997.882 887.186 1021.41 L 836.463 1065.65 C 828.085 1073.06 817.874 1082.99 809.425 1089.73 C 712.23 1050.95 599.177 1040.26 501.204 1082.56 C 499.808 1083.16 498.416 1083.77 497.027 1084.39 C 493.369 1087.1 494.402 1087.26 490.907 1087.02 L 487.688 1084.2 C 523.426 1042.2 580.541 997.823 627.202 968.984 C 638.389 962.07 657.06 950.459 668.978 945.607 C 676.868 945.182 691.331 935.035 699.832 932.378 C 706.134 930.409 715.043 931.349 720.065 928.188 z" fill="rgb(251,226,182)" transform="translate(0,0)"></path>
<path d="M 720.065 928.188 L 730.784 928.462 L 729.063 930.176 L 729.902 930.881 C 742.227 928.083 836.906 939.58 847.633 945.586 C 833.889 948.935 761.277 928.319 750.138 935.498 C 708.068 933.531 705.903 932.162 668.507 952.501 C 621.158 977.679 577.039 1008.51 537.117 1044.32 C 530.164 1050.64 501.474 1077.28 497.027 1084.39 C 493.369 1087.1 494.402 1087.26 490.907 1087.02 L 487.688 1084.2 C 523.426 1042.2 580.541 997.823 627.202 968.984 C 638.389 962.07 657.06 950.459 668.978 945.607 C 676.868 945.182 691.331 935.035 699.832 932.378 C 706.134 930.409 715.043 931.349 720.065 928.188 z" fill="rgb(32,0,0)" transform="translate(0,0)"></path>
<path d="M 630.68 1865.03 C 648.013 1857.98 671.69 1850.52 689.999 1844.22 C 723.932 1832.71 757.789 1820.97 791.567 1809.01 L 1154.83 1683.38 L 1557.58 1543.3 L 1712.64 1488.73 C 1743.3 1478.04 1778.63 1465.32 1809.69 1456.28 L 1820.87 1467.65 L 1073.75 1726.51 C 928.67 1777.97 783.123 1828.11 637.131 1876.94 C 634.795 1871.72 633.987 1869.82 630.68 1865.03 z" fill="rgb(251,226,182)" transform="translate(0,0)"></path>
<path d="M 145.288 1405.36 C 144.601 1401.68 143.478 1398.22 144.804 1394.84 C 147.296 1391.9 151.006 1391.43 154.839 1390.38 C 241.252 1476.57 218.797 1570.81 259.085 1672.25 C 302.501 1781.57 429.367 1850.59 534.107 1892.69 C 535.482 1897.65 535.263 1904.39 534.823 1909.56 C 498.872 1896.49 463.758 1881.23 429.677 1863.86 C 327.408 1811.76 249.023 1745.12 224.47 1625.74 C 211.658 1563.45 205.406 1496.43 171.694 1440.85 C 163.413 1427.2 155.347 1417.43 145.288 1405.36 z" fill="rgb(253,246,234)" transform="translate(0,0)"></path>
<path d="M 683.21 670.357 C 653.416 702.424 600.48 662.818 579.636 638.063 C 558.783 613.298 550.218 581.79 543.961 550.588 C 541.372 537.676 533.925 508.449 557.112 511.553 C 566.808 513.036 580.198 527.008 584.719 535.333 C 586.469 538.556 587.968 545.359 589.337 548.908 C 602.773 595.085 628.61 652.018 681.805 662.347 L 683.006 662.569 L 686.035 663.714 C 686.536 666.588 685.321 667.038 683.21 670.357 z" fill="rgb(253,246,234)" transform="translate(0,0)"></path>
<path d="M 720.065 928.188 C 731.872 919.712 806.099 895.443 824.684 889.693 C 827.441 888.84 827.738 889.646 829.287 890.852 L 854.049 944.29 C 806.994 935.29 779.059 930.262 730.784 928.462 L 720.065 928.188 z" fill="rgb(219,182,145)" transform="translate(0,0)"></path>
<path d="M 683.006 662.569 L 684.648 661.393 C 688.242 662.152 688.461 662.508 690.033 666.176 L 690.175 665.588 L 693.949 664.713 C 692.54 666.935 689.282 672.39 687.774 674.159 L 683.896 675.355 L 682.862 674.601 L 683.21 670.357 C 685.321 667.038 686.536 666.588 686.035 663.714 L 683.006 662.569 z" fill="rgb(32,0,0)" transform="translate(0,0)"></path>
<path d="M 1243.17 913.673 C 1275.34 907.217 1323.99 898.322 1357.38 902.455 C 1363.29 903.187 1384.64 916.454 1390.61 920.483 C 1481.56 981.807 1536.84 1065.14 1557.24 1173.26 C 1570.38 1241.33 1570.23 1323.55 1531.1 1383.17 C 1510.43 1413.9 1482.27 1439.47 1452.42 1461.08 C 1321.12 1556.15 1156.12 1605.4 995.921 1623.78 C 823.1 1643.61 622.092 1626.63 471.96 1530.86 C 406.676 1489.21 379.882 1428.2 382.632 1353.27 C 383.058 1275.92 407.053 1207.08 449.917 1142.8 C 457.037 1132.12 469.557 1114.46 478.439 1105.67 C 491.059 1101.76 504.304 1097.58 517.352 1095.67 C 598.264 1083.82 693.796 1096.91 769.919 1124.76 C 773.693 1126.46 773.768 1126.57 777.786 1127.25 C 767.009 1133.63 747.158 1152.99 737.925 1162.56 C 679.579 1223.05 634.842 1300.53 612.627 1381.62 C 608.479 1396.76 601.643 1435.94 601.863 1451.25 L 602.598 1452.4 L 604.436 1449.27 L 605.767 1450.1 L 606.742 1449.28 L 610.002 1450.28 C 635.36 1369.33 726.611 1259.23 786.755 1199.68 C 802.019 1184.56 828.328 1158.95 846.082 1147.33 C 859.06 1150.02 876.75 1155.55 889.271 1160.17 C 1010.56 1204.87 1124.87 1280.5 1220.61 1366.79 C 1231.38 1376.49 1241.71 1387.56 1253.02 1396.56 L 1254.19 1397.48 C 1215.46 1290.39 1127.66 1199.13 1031.67 1140.39 C 1020.19 1133.36 1008.65 1126.28 996.966 1119.58 C 987.086 1097.6 977.396 1075.54 967.896 1053.39 C 995.564 1027.56 1023.39 1016.04 1052.24 995.734 C 1082.26 1005.07 1109.45 1013.55 1138.77 1025.15 C 1234.29 1062.3 1321.42 1118.16 1395.05 1189.47 C 1421.02 1215.02 1441.36 1243.41 1465.41 1267.61 C 1464.81 1264.92 1464.04 1262.27 1463.09 1259.68 C 1454.94 1236.75 1442.29 1215.67 1430.21 1194.84 C 1369.03 1089.33 1265.38 1020.54 1156 972.543 C 1143.62 967.112 1130.48 962.434 1118.26 956.6 L 1113.67 951.698 C 1135.55 939.898 1213.27 914.079 1238.29 909.559 C 1240.23 911.663 1241.56 912.179 1244.48 910.448 L 1244.3 911.947 L 1243.37 912.438 L 1243.17 913.673 z" fill="rgb(251,226,182)" transform="translate(0,0)"></path>
<path d="M 769.919 1124.76 C 773.693 1126.46 773.768 1126.57 777.786 1127.25 C 767.009 1133.63 747.158 1152.99 737.925 1162.56 C 679.579 1223.05 634.842 1300.53 612.627 1381.62 C 608.479 1396.76 601.643 1435.94 601.863 1451.25 L 602.598 1452.4 L 604.436 1449.27 L 605.767 1450.1 L 606.742 1449.28 L 610.002 1450.28 C 607.813 1456.47 602.327 1483.93 597.329 1483.83 C 595.698 1481.57 595.813 1480.47 595.758 1477.82 C 593.264 1357.18 655.629 1237.41 739.046 1153.18 C 748.718 1143.42 761.005 1134.76 769.919 1124.76 z" fill="rgb(32,0,0)" transform="translate(0,0)"></path>
<path d="M 1113.67 951.698 C 1135.55 939.898 1213.27 914.079 1238.29 909.559 C 1240.23 911.663 1241.56 912.179 1244.48 910.448 L 1244.3 911.947 L 1243.37 912.438 L 1243.17 913.673 C 1210.39 923.084 1177.89 931.755 1146.19 944.531 C 1138.44 947.655 1125.35 952.531 1118.26 956.6 L 1113.67 951.698 z" fill="url(#Gradient2)" transform="translate(0,0)"></path>
<path d="M 497.544 1138.51 C 499.657 1139.27 498.968 1139.04 500.767 1140.67 C 500.636 1145.86 490.677 1154.9 486.435 1161.5 C 473.705 1180.96 462.826 1201.56 453.942 1223.05 C 431.531 1277.1 423.811 1317.28 418.584 1374.79 C 416.796 1374.8 417.195 1374.76 415.426 1374.24 C 413.223 1368.85 417.123 1337.98 418.188 1330.84 C 428.784 1259.83 453.168 1195.32 497.544 1138.51 z" fill="rgb(54,4,0)" transform="translate(0,0)"></path>
<path d="M 526.765 1223.6 C 528.861 1224.97 528.232 1224.53 529.887 1226.53 C 529.671 1230.18 523.886 1238.98 522.35 1243.32 C 504.068 1294.93 492.31 1353.57 496.402 1408.46 C 497.13 1418.23 506.694 1446.71 503.956 1452.95 C 494.079 1445.04 489.046 1400 489.58 1387.67 C 491.751 1337.62 501.321 1266.89 526.765 1223.6 z" fill="url(#Gradient1)" transform="translate(0,0)"></path>
<path d="M 420.324 1438.37 C 424.501 1439.29 436.643 1453.05 440.596 1456.73 C 477.644 1491.17 520.834 1518.02 567.695 1536.99 C 576.539 1540.57 594.453 1543.52 601.375 1547.64 L 602.027 1551.13 C 571.294 1552.94 497.536 1508.86 471.04 1489.38 C 460.125 1481.36 420.06 1450.54 420.324 1438.37 z" fill="rgb(32,0,0)" transform="translate(0,0)"></path>
<path d="M 502.549 1186.51 C 504.139 1187.58 503.906 1187.54 505.209 1189.01 C 504.422 1191.95 491.087 1216.63 488.781 1221.58 C 477.935 1244.85 470.8 1267.96 465.158 1292.99 C 461.703 1308.72 459.315 1324.66 458.01 1340.71 C 457.349 1348.08 455.723 1393.19 454.705 1395.7 L 452.594 1394.07 C 451.493 1392.14 450.907 1390.49 450.868 1388.22 C 450.215 1349.93 453.882 1310.12 464.559 1273.24 C 472.491 1245.85 484.537 1208.19 502.549 1186.51 z" fill="rgb(54,4,0)" transform="translate(0,0)"></path>
<path d="M 528.365 1346.62 L 530.044 1347.82 C 531.551 1351.62 521.924 1397.45 528.558 1407.52 C 529.395 1408.79 534.564 1432.15 534.24 1433.45 C 518.423 1428.03 517.514 1359.43 528.365 1346.62 z" fill="rgb(32,0,0)" transform="translate(0,0)"></path>
<path d="M 1571.95 1268.63 C 1643.32 1337.65 1721.72 1399.01 1805.87 1451.71 C 1722.73 1476.98 1637.45 1509.61 1554.87 1538.04 L 1017.06 1724.43 C 966.431 1741.86 915.586 1760.15 864.935 1777.11 C 859.583 1773.38 836.349 1753.7 834.135 1752.97 L 832.894 1753.92 C 834.689 1760.94 853.702 1774.63 860.247 1779.78 C 830.022 1788.34 787.858 1803.82 757.382 1814.58 L 627.832 1859.61 C 608.734 1843.85 575.132 1829.09 553.095 1816.65 C 493.399 1782.96 425.567 1743.89 380.711 1691.1 C 308.704 1604.87 329.691 1499.53 283.306 1403.56 C 275.044 1386.47 263.444 1372.6 251.035 1358.43 C 290.221 1343.23 336.91 1328.73 377.35 1316.17 C 369.953 1422.53 388.057 1490.38 484.85 1547.11 C 579.678 1602.7 688.331 1626.57 796.758 1634.87 C 887.071 1641.2 977.818 1636.67 1067.05 1621.35 C 1205.94 1597.62 1378.12 1537.37 1485.16 1444.05 C 1545.94 1391.06 1565.93 1346.85 1571.95 1268.63 z" fill="rgb(253,246,234)" transform="translate(0,0)"></path>
<path d="M 456.525 1571.62 C 458.638 1572.07 459.36 1572.04 460.778 1574.04 C 481.178 1602.73 502.221 1625.18 529.536 1647.51 C 566.756 1677.5 609.296 1700.21 654.928 1714.45 C 676.359 1721.11 699.232 1725.86 721.376 1729.55 C 726.653 1730.43 739.365 1730.55 742.412 1733.33 L 742.524 1736.58 C 731.146 1736.92 712.843 1732.79 700.963 1730.62 C 622.779 1716.38 548.553 1678.07 493.556 1620.45 C 485.655 1612.17 457.216 1579.99 456.525 1571.62 z" fill="rgb(54,4,0)" transform="translate(0,0)"></path>
<path d="M 1552.08 1431.7 C 1560.66 1433.77 1607.73 1475.16 1614.2 1483.27 C 1605.8 1480.47 1557.25 1439.48 1552.08 1431.7 z" fill="rgb(54,4,0)" transform="translate(0,0)"></path>
<path d="M 262.627 437.038 C 265.499 427.752 267.339 418.599 271.531 409.341 C 297.912 351.073 348.137 293.67 409.193 271.159 C 419.7 267.285 439.48 266.197 450.767 265.125 C 486.746 261.705 523.439 259.767 559.314 265.169 C 643.161 279.584 708.444 330.897 757.336 399.171 C 786.143 439.397 823.488 507.411 818.709 558.747 C 817.546 571.241 807.802 578.707 798.5 585.295 C 792.495 564.868 788.348 543.838 781.337 523.521 C 762.553 468.585 734.24 416.096 698.353 370.723 C 675.76 343.227 660.534 300.918 617.06 321.639 C 583.447 337.661 575.498 347.298 572.908 384.97 L 563.437 388.462 C 567.472 390.196 567.266 389.864 571.318 387.412 L 571.3 389.615 C 569.654 390.131 568 390.62 566.338 391.081 C 566.612 391.893 567.288 392.217 568.131 392.959 L 570.023 393.116 L 573.036 393.409 L 573.593 394.959 C 572.291 396.842 571.581 397.944 570.129 399.688 C 571.676 401.626 572.549 403.012 574.471 404.557 C 576.499 406.561 586.096 453.044 590.249 459.964 C 592.017 462.911 605.567 496.014 605.53 497.984 L 604.163 499.282 C 588.985 502.484 587.589 508.674 582.669 522.297 C 571.354 506.823 556.405 499.428 539.216 510.717 C 530.132 501.539 517.412 493.438 504.352 501.08 C 493.205 507.601 489.944 521.042 487.025 532.754 C 479.937 522.687 462.888 514.16 455.759 527.712 C 442.994 551.973 447.884 586.58 452.72 612.659 C 391.357 588.807 328.667 518.612 285.661 470.201 C 279.813 463.618 263.865 444.98 262.627 437.038 z" fill="rgb(253,246,234)" transform="translate(0,0)"></path>
<path d="M 574.471 404.557 C 536.483 436.289 492.75 458.596 443.666 466.923 C 437.875 467.905 427.394 470.481 424.294 464.846 C 424.772 461.816 424.656 461.848 428.444 461.572 C 442.434 460.55 453.979 459.42 467.495 455.33 C 505.243 444.218 540.218 425.256 570.129 399.688 C 571.676 401.626 572.549 403.012 574.471 404.557 z" fill="rgb(54,4,0)" transform="translate(0,0)"></path>
<path d="M 570.023 393.116 C 560.267 397.56 537.542 401.862 524.498 402.647 C 492.372 404.58 450.649 400.013 422.137 383.232 C 420.919 382.516 421.302 380.966 421.264 379.523 C 422.358 378.275 423.221 377.087 425.413 378.225 C 467.66 400.157 518.524 400.719 563.437 388.462 C 567.472 390.196 567.266 389.864 571.318 387.412 L 571.3 389.615 C 569.654 390.131 568 390.62 566.338 391.081 C 566.612 391.893 567.288 392.217 568.131 392.959 L 570.023 393.116 z" fill="rgb(54,4,0)" transform="translate(0,0)"></path>
<path d="M 811.389 1096.8 C 835.189 1074.76 864.345 1047.47 890.062 1027.69 L 912.651 1075.01 C 904.086 1079.39 881.521 1090.77 876.175 1097.71 L 876.119 1099.75 C 878.912 1102.22 932.931 1114.93 942.641 1120.1 C 958.592 1128.58 1017.19 1191.2 1027.86 1191.46 C 1027.7 1187.1 1003.91 1137.46 1000.42 1128.07 C 1029.25 1145.6 1064.92 1168.7 1091.23 1189.85 C 1142.32 1230.93 1214.57 1313.14 1238.83 1374.78 C 1139.4 1280.33 982.972 1176.34 845.43 1140.98 C 844.411 1140.72 842.55 1141.85 841.674 1142.41 C 829.656 1152.94 812.923 1166.26 801.81 1176.79 C 732.432 1242.56 632.896 1357.02 604.436 1449.27 L 602.598 1452.4 L 601.863 1451.25 C 601.643 1435.94 608.479 1396.76 612.627 1381.62 C 634.842 1300.53 679.579 1223.05 737.925 1162.56 C 747.158 1152.99 767.009 1133.63 777.786 1127.25 L 779.973 1124.42 L 779.66 1122.51 C 775.191 1119.57 752.005 1111.99 745.689 1110.07 C 676.655 1089.08 577.686 1077.46 506.713 1092 C 499.425 1093.57 492.164 1095.26 484.934 1097.07 C 508.291 1083.34 531.524 1077.02 557.423 1070.67 C 642.348 1049.85 730.943 1065.04 811.389 1096.8 z" fill="rgb(219,182,145)" transform="translate(0,0)"></path>
<path d="M 630.728 322.157 C 662.447 319.515 673.544 350.134 690.361 371.441 C 700.353 384.102 711.053 398.617 719.932 412.113 C 750.952 460.092 773.763 512.902 787.432 568.376 C 794.363 595.644 800.375 633.213 809.732 658.435 C 821.4 689.888 841.95 718.34 856.768 751.057 C 836.461 746.637 829.626 749.532 810.709 757.001 C 796.319 763.367 791.153 766.218 778.616 775.651 C 765.368 743.439 756.751 709.274 740.569 678.36 C 696.78 594.707 598.461 459.385 602.429 364.175 C 602.897 352.923 607.142 342.717 609.902 331.949 C 617.779 326.714 621.951 324.937 630.728 322.157 z" fill="rgb(219,182,145)" transform="translate(0,0)"></path>
<path d="M 637.996 354.127 C 663.416 351.424 684.545 385.087 663.597 404.109 C 651.785 406.263 643.059 401.14 636.785 391.268 C 629.618 379.99 624.017 362.19 637.996 354.127 z" fill="rgb(0,0,0)" transform="translate(0,0)"></path>
<path d="M 639.355 361.078 C 660.023 359.884 670.019 380.138 661.601 397.795 C 642.691 398.932 630.787 373.523 639.355 361.078 z" fill="rgb(219,182,145)" transform="translate(0,0)"></path>
<path d="M 1550.66 1118.38 C 1619.56 1215.27 1709.84 1286.73 1807.02 1353.22 C 1838.65 1374.86 1875.23 1395.84 1905.55 1418.54 C 1907.06 1419.57 1908.53 1420.53 1909.96 1421.67 C 1910.26 1426.25 1910.5 1430.95 1910.94 1435.51 C 1887.29 1446.19 1852.96 1456.88 1827.65 1465.23 C 1823.68 1460.19 1821.25 1457.36 1816.24 1453.15 L 1815.42 1452.66 L 1815.34 1448.29 C 1778.61 1432.58 1737.9 1399.35 1706.38 1375.29 C 1659.16 1339.24 1616.34 1301.83 1572.34 1262.04 C 1573.39 1205.53 1565.83 1172.24 1550.66 1118.38 z" fill="rgb(253,246,234)" transform="translate(0,0)"></path>
<path d="M 1905.55 1418.54 C 1907.06 1419.57 1908.53 1420.53 1909.96 1421.67 C 1910.26 1426.25 1910.5 1430.95 1910.94 1435.51 C 1887.29 1446.19 1852.96 1456.88 1827.65 1465.23 C 1823.68 1460.19 1821.25 1457.36 1816.24 1453.15 L 1815.42 1452.66 L 1815.34 1448.29 C 1839.09 1439.17 1881.12 1424.85 1905.55 1418.54 z" fill="rgb(251,226,182)" transform="translate(0,0)"></path>
<path d="M 1905.55 1418.54 C 1907.06 1419.57 1908.53 1420.53 1909.96 1421.67 C 1878.15 1432.48 1848.41 1442.76 1816.24 1453.15 L 1815.42 1452.66 L 1815.34 1448.29 C 1839.09 1439.17 1881.12 1424.85 1905.55 1418.54 z" fill="rgb(54,4,0)" transform="translate(0,0)"></path>
<path d="M 1056.15 952.089 C 1062.46 948.475 1068.9 945.106 1075.46 941.991 C 1144.23 909.569 1238.83 886.997 1316.38 886.551 C 1320.93 886.525 1337.1 892.861 1342.3 894.735 C 1315.57 896.004 1263.25 900.303 1238.29 909.559 C 1213.27 914.079 1135.55 939.898 1113.67 951.698 C 1110.12 953.585 1108.86 954.021 1108.26 957.86 C 1110.54 962.07 1115.79 963.027 1120.06 964.649 C 1237.29 1009.25 1353.46 1081.79 1419.97 1191.07 C 1428.22 1204.63 1437.63 1219.18 1443.77 1233.37 C 1417.29 1202.73 1379.21 1162.93 1347.43 1137.66 C 1265 1072.14 1151.49 1015.8 1049.72 989.241 C 1042.77 995.783 1032.98 1000.91 1025 1006.18 C 1005.78 1018.87 981.862 1031.49 964.621 1046.31 C 958.867 1033.45 953.213 1020.56 947.66 1007.61 C 955.86 999.828 995.512 977.008 997.287 971.955 C 997.824 970.426 996.932 969.692 996.24 968.375 C 988.389 962.718 932.761 949.15 920.384 946.265 C 914.184 935.51 905.644 914.107 900.417 901.864 C 950.718 911.695 1008.83 932.948 1056.15 952.089 z" fill="rgb(219,182,145)" transform="translate(0,0)"></path>
<path d="M 1058.32 849.414 C 1065.95 848.693 1080.21 848.773 1088.07 848.709 C 1152.34 848.185 1241.61 858.093 1301.67 880.574 C 1235.2 883.745 1169.69 897.738 1107.73 922.001 C 1086.45 929.536 1072.91 937.855 1054.54 945.147 C 998.667 921.764 955.802 909.317 897.573 895.129 C 894.459 888.605 891.455 882.029 888.564 875.403 C 905.241 870.432 921.076 868.136 937.774 864.595 C 979.347 855.779 1016.14 852.157 1058.32 849.414 z" fill="rgb(251,226,182)" transform="translate(0,0)"></path>
<path d="M 801.044 810.936 C 805.981 806.49 817.37 799.654 824.13 798.36 C 826.749 797.858 826.791 798.58 828.998 800.1 C 829.053 808.237 876.221 907.854 883.915 925.019 L 982.389 1145.29 C 967.552 1132.12 941.552 1109.82 930.758 1094.65 C 922.267 1082.71 907.777 1050.36 901.168 1035.84 C 878.95 987.027 857.519 937.521 835.542 888.564 C 825.847 866.792 817.059 845.256 806.622 823.735 C 804.66 819.726 802.812 815.083 801.044 810.936 z" fill="rgb(253,246,234)" transform="translate(0,0)"></path>
<path d="M 602.006 335.579 C 598.974 345.119 596.188 354.692 595.813 364.77 C 593.813 418.597 623.166 479.251 647.342 525.978 C 663.037 556.118 679.569 585.814 696.917 615.033 C 709.157 635.701 726.341 663.01 736.656 684.203 C 750.666 712.988 761.862 749.676 773.487 780.571 C 766.948 787.884 765.809 792.38 762.772 801.454 C 752.649 783.551 741.197 744.883 732.902 724.35 C 722.082 697.571 711.669 679.108 698.279 653.919 C 690.696 642.184 684.279 630.017 676.515 618.25 C 670.361 606.801 658.43 589.678 652.768 577.965 C 623.232 516.856 570.543 430.596 582.577 361.598 C 584.481 350.683 594.227 341.768 602.006 335.579 z" fill="rgb(219,182,145)" transform="translate(0,0)"></path>
<path d="M 508.503 505.055 C 521.503 504.386 526.377 506.359 534.085 517.433 C 533.478 531.736 536.047 546.872 539.196 560.765 C 550.415 610.268 565.044 643.342 608.435 671.29 C 602.586 679.315 600.585 680.754 592.096 685.235 C 565.635 692.595 538.207 666.908 524.157 647.254 C 500.918 614.745 488.816 570.59 494.528 530.783 C 496.028 520.328 499.787 511.23 508.503 505.055 z" fill="rgb(253,246,234)" transform="translate(0,0)"></path>
<path d="M 589.948 517.613 C 592.366 513.177 603.918 499.394 608.661 507.291 C 621.817 529.193 633.243 554.443 645.01 577.665 C 656.821 600.975 682.843 634.071 691.662 656.759 C 689.423 656.988 685.502 656.911 683.11 656.932 C 674.618 653.496 664.14 649.795 656.351 645.19 C 622.083 624.928 591.117 555.769 589.948 517.613 z" fill="rgb(253,246,234)" transform="translate(0,0)"></path>
<path d="M 464.803 526.755 C 473.892 527.619 478.609 531.181 483.055 539.63 C 487.653 548.366 486.106 561.733 487.682 571.517 C 494.181 611.84 507.28 640.798 534.609 670.451 L 523.929 674.435 C 509.462 676.072 498.985 670.574 488.408 661.13 C 465.835 640.973 456.182 610.316 454.866 580.825 C 454.169 565.202 453.623 539.12 464.803 526.755 z" fill="rgb(253,246,234)" transform="translate(0,0)"></path>
<path d="M 1003.96 1165.5 C 996.924 1159.05 991.104 1153.75 984.633 1146.66 C 985.4 1145.79 984.99 1146.2 986.1 1145.26 L 986.985 1144.53 C 987.034 1139.44 875.408 891.94 864.941 869.053 C 860.58 859.517 834.974 805.954 834.338 798.035 L 835.715 796.698 C 837.987 796.356 843.927 795.94 845.371 797.296 C 851.229 803.825 853.712 814.391 857.561 822.264 C 877.589 863.236 893.637 905.845 913.93 946.772 C 922.399 963.853 929.279 983.003 937.068 1000.44 C 955.154 1039.93 972.833 1079.6 990.104 1119.45 C 995.896 1133.02 1003.79 1149.49 1008.62 1163.07 L 1003.96 1165.5 z" fill="rgb(251,226,182)" transform="translate(0,0)"></path>
<path d="M 796.207 817.382 C 783.043 817.841 761.01 816.146 771.049 796.862 C 782.455 774.954 813.412 758.318 837.282 755.562 C 871.149 751.652 861.197 770.372 850.725 789.393 C 845.391 788.711 841.671 787.934 836.307 788.589 C 825.25 789.273 785.716 800.899 796.207 817.382 z" fill="rgb(219,182,145)" transform="translate(0,0)"></path>
<path d="M 923.759 953.41 C 938.094 955.376 976.259 967.292 990.574 972.073 C 985.265 975.487 978.454 979.209 972.902 982.438 C 962.509 988.945 954.236 994.61 944.285 1001.79 C 937.063 986.035 930.414 969.454 923.759 953.41 z" fill="rgb(251,226,182)" transform="translate(0,0)"></path>
<path d="M 915.102 1080.99 C 915.606 1081.35 929.873 1104.65 935.094 1110.22 L 914.381 1104.5 C 905.183 1102.34 895.84 1099.65 886.71 1097.14 C 896.258 1091.05 905.139 1086.34 915.102 1080.99 z" fill="rgb(251,226,182)" transform="translate(0,0)"></path>
<path d="M 1003.96 1165.5 L 1008.62 1163.07 L 1014.88 1175.74 L 1003.96 1165.5 z" fill="rgb(251,226,182)" transform="translate(0,0)"></path>
<path d="M 1226.5 679.452 C 1321.84 676.221 1428.08 698.327 1515.13 736.47 C 1643.39 792.669 1735.38 875.287 1787.04 1006.99 C 1806.69 1056.49 1817.76 1108.98 1819.76 1162.2 C 1820.03 1168.36 1821.06 1183.79 1818.88 1188.79 L 1817.35 1188.53 C 1816.48 1185.16 1816.83 1175.23 1816.66 1170.84 C 1816.3 1160.82 1815.61 1150.82 1814.6 1140.85 C 1809.06 1088.88 1800.35 1048.69 1780.45 1000.26 C 1774.66 986.523 1768.38 973 1761.64 959.713 C 1732.86 904.102 1692.68 855.181 1643.73 816.143 C 1619.42 796.654 1593.31 780.074 1565.57 765.123 C 1411.89 682.288 1220.81 656.123 1054.1 713.64 C 1048.97 715.41 1040.66 720.403 1035.53 718.749 L 1034.88 716.889 L 1035.87 715.434 C 1041.31 712.772 1054.71 708.842 1060.93 706.865 C 1114.6 690.184 1170.31 680.96 1226.5 679.452 z" fill="rgb(219,182,145)" transform="translate(0,0)"></path>
<path d="M 690.714 830.155 C 693.653 829.81 694.289 829.461 697.055 830.494 C 693.522 833.659 671.533 838.257 665.03 839.999 C 641.409 846.47 618.107 854.057 595.204 862.735 C 418.455 927.928 268.916 1050.92 170.843 1211.77 C 169.336 1214.24 169.975 1213.4 167.637 1215.26 L 166.779 1214.4 C 171.65 1188.36 253.929 1089.1 275.578 1066.75 C 383.401 955.412 538.563 862.447 690.714 830.155 z" fill="rgb(219,182,145)" transform="translate(0,0)"></path>
<path d="M 588.996 797.051 C 592.658 796.752 592.224 796.242 595.106 797.579 C 591.587 800.73 572.434 805.748 566.659 807.606 C 543.865 815.163 521.431 823.766 499.429 833.388 C 386.218 882.35 281.398 954.311 201.597 1049.11 C 181.535 1072.94 163.939 1099.92 145.884 1125.38 C 144.403 1127.28 144.868 1126.72 142.841 1128.16 C 142.697 1125.68 143.427 1124.58 144.758 1122.37 C 241.368 961.543 413.674 849.83 588.996 797.051 z" fill="rgb(219,182,145)" transform="translate(0,0)"></path>
<path d="M 1330.81 762.314 C 1344.27 760.541 1375.69 769.202 1389.85 772.77 C 1472.34 793.554 1547.09 833.831 1609.8 891.385 C 1644.45 923.64 1672.4 962.408 1692.06 1005.47 C 1695.6 1013.41 1700.9 1026.03 1701.26 1034.68 C 1700.51 1034.32 1699.75 1033.96 1698.99 1033.6 C 1696.08 1026.61 1693.83 1019.3 1690.95 1012.29 C 1645.83 902.357 1532.1 820.828 1422.45 786.273 C 1407.59 781.458 1392.56 777.153 1377.4 773.365 C 1369.06 771.326 1334.15 765.436 1330.81 762.314 z" fill="rgb(219,182,145)" transform="translate(0,0)"></path>
<path d="M 417.744 812.172 C 418.961 811.907 420.002 811.974 421.276 811.941 C 420.987 815.186 397.075 821.999 392.824 823.542 C 377.167 829.223 361.813 835.709 346.824 842.971 C 274.737 877.929 241.271 904.807 183.408 957.262 C 181.433 958.351 182.454 958.214 180.363 957.798 L 180.541 956.258 C 184.584 950.413 201.478 935.628 207.408 930.232 C 261.867 880.679 345.87 829.974 417.744 812.172 z" fill="rgb(219,182,145)" transform="translate(0,0)"></path>
<metadata><recraft-signature>{"signed_by": "recraft", "signature_b64": "mRZdoPacsaKTnuOI5VoxebenQ/VxnFJPhBJ9HjksAySUxuqEY0TbEIC7b3Np5AZ6+P/cDhE9xz/NQ+IQU9KcAA==", "signing_algo": "Ed25519", "generation_timestamp": 1778091871, "identifier": "dfd93aaa-f7b8-423d-8324-de46750c65dc"}</recraft-signature></metadata></svg>