<svg xmlns="http://www.w3.org/2000/svg" height="1024" preserveAspectRatio="none" style="display: block;" version="1.1" viewBox="0 0 2048 2048" width="1024">
<defs>
	<linearGradient gradientUnits="userSpaceOnUse" id="Gradient1" x1="1816.07" x2="1806.06" y1="1540.28" y2="1523.86">
		<stop class="stop0" offset="0" stop-color="rgb(80,29,6)" stop-opacity="1"></stop>
		<stop class="stop1" offset="1" stop-color="rgb(119,65,20)" stop-opacity="1"></stop>
	</linearGradient>
	<linearGradient gradientUnits="userSpaceOnUse" id="Gradient2" x1="1589.39" x2="1589.55" y1="1825.92" y2="1816.98">
		<stop class="stop0" offset="0" stop-color="rgb(69,22,3)" stop-opacity="1"></stop>
		<stop class="stop1" offset="1" stop-color="rgb(96,44,16)" stop-opacity="1"></stop>
	</linearGradient>
	<linearGradient gradientUnits="userSpaceOnUse" id="Gradient3" x1="1751.32" x2="1725.98" y1="537.402" y2="543.792">
		<stop class="stop0" offset="0" stop-color="rgb(160,166,133)" stop-opacity="1"></stop>
		<stop class="stop1" offset="1" stop-color="rgb(211,198,153)" stop-opacity="1"></stop>
	</linearGradient>
</defs>
<path d="M 0 0 L 2048 0 L 2048 2048 L 0 2048 L 0 0 z" fill="rgb(251,244,231)" transform="translate(0,0)"></path>
<path d="M 1808.1 73.1789 C 1847.23 70.8491 1882.33 63.6101 1914.64 91.9918 C 1931.41 106.728 1940.22 130.096 1940.67 151.952 C 1941.38 185.935 1941.05 220.621 1941.02 254.649 L 1940.69 426.566 C 1940.47 446.384 1940.03 466.198 1939.37 486.005 C 1939.16 493.634 1938.38 515.676 1939.38 522.402 C 1940.22 525.831 1940.95 527.153 1939.52 530.339 C 1930.32 538.074 1784.18 572.839 1763.21 577.495 C 1752.46 571.273 1721.27 543.561 1710.33 534.187 C 1680.97 554.977 1648.9 574.703 1620.29 595.493 C 1628.17 639.755 1630.51 692.983 1576.97 706.813 C 1566.71 730.621 1541.7 739.33 1518.08 743.936 C 1508.24 757.814 1494.87 772.565 1477.37 774.886 C 1453.64 778.035 1450.55 759.343 1451.18 741.989 L 1449.91 742.964 C 1437.91 752.282 1420.85 769.46 1409.24 780.237 C 1381.35 805.822 1353.77 831.733 1326.49 857.964 C 1319.6 864.575 1311.16 872.44 1304.51 879.057 C 1273.6 909.826 1267.22 912.503 1226.06 900.634 C 1211.23 918.935 1181.67 959.411 1169.13 979.26 C 1178.63 1008.3 1177.71 1017.32 1172.07 1046.88 C 1304.2 1114.81 1431.96 1214.83 1479.54 1361.56 C 1499.8 1424.02 1510.98 1535.13 1480.22 1594.69 C 1471.32 1612.02 1460.17 1628.1 1447.05 1642.5 C 1403.76 1689.88 1325.69 1735.15 1266.98 1760.75 C 1208.86 1786.08 1146.37 1805.97 1089.17 1834.47 C 1075.59 1841.25 1061.57 1847.75 1047.88 1854.28 C 1046.06 1855.13 1044.88 1854.82 1043.17 1854.25 C 1043.89 1848.7 1048.33 1848.42 1052.7 1846.15 C 1076.65 1833.65 1104.33 1823.22 1127.85 1810.48 C 1103.11 1816.83 1078.28 1822.81 1053.36 1828.43 C 1040.59 1831.22 1030.67 1831.64 1012.61 1836.9 C 997.619 1841.27 960.759 1862.81 943.224 1867.97 C 942.671 1867.65 942.118 1867.32 941.565 1867 C 941.699 1865.02 941.289 1864.72 942.867 1863.68 C 956.516 1854.67 977.341 1846.93 992.119 1839.85 C 977.413 1840.51 962.714 1842.83 948.254 1843.62 C 925.976 1844.82 911.794 1856.52 891.112 1862.9 C 884.464 1864.95 872.762 1872.92 866.408 1871.02 L 865.542 1869.69 C 867.72 1864.54 909.156 1849.11 917.105 1845.71 C 904.25 1845.85 868.376 1845.3 858.046 1848.05 C 845.718 1851.32 801.427 1876.31 787.696 1875.34 L 787.168 1873.95 C 793.861 1867.82 834.108 1851.7 845.036 1847.04 C 831.655 1846.91 799.278 1845.45 787.335 1847.16 C 776.002 1848.78 732.11 1873.18 720.209 1873.06 L 718.98 1871.56 C 719.707 1869.2 719.911 1868.33 722.97 1867.06 C 739.735 1860.11 758.838 1853.96 774.706 1845.16 C 757.752 1844.4 741.152 1841.64 724.95 1840.8 C 711.681 1848.62 675.166 1864.36 659.964 1869.23 L 657.472 1868.43 L 657.067 1866.74 C 660.585 1862.01 705.154 1844.55 714.591 1839.81 C 700.843 1838.13 685.659 1836.58 672.182 1834.02 C 663.489 1838.01 606.971 1861.85 602.09 1862.09 L 600.603 1861.42 C 603.001 1853.21 650.125 1837.06 659.18 1833.74 C 650.934 1831.78 626.956 1826.55 619.256 1827.06 L 618.609 1824.71 L 616.739 1823.67 L 612.196 1825.54 C 607.962 1823.23 583.934 1818.37 577.976 1817.06 C 567.17 1821.63 556.409 1826.3 545.694 1831.08 C 538.546 1834.35 528.667 1839.45 521.414 1841.71 C 518.948 1840.71 519.863 1841.5 518.798 1839.08 C 521.125 1834.8 560.458 1818.31 567.766 1815.01 C 561.935 1813.37 548.809 1810.23 544.495 1806.67 C 526.542 1807.99 497.756 1828.37 479.58 1833.28 C 478.378 1833.6 478.196 1832.85 477.257 1831.71 L 478.096 1829.79 C 485.277 1823.78 522.261 1807.77 532.071 1804.25 C 522.708 1800.69 514.241 1797.84 504.755 1794.77 C 497.538 1798.7 488.639 1802.73 480.739 1804.96 C 475.601 1807.89 448.104 1819.69 443.481 1819.96 L 442.622 1818.67 C 448.706 1810.32 484.772 1797.69 496.653 1792.86 C 486.943 1788.54 478.889 1786.15 468.828 1783.11 C 459.085 1786.46 410.645 1809.36 404.989 1806.07 C 407.77 1800.53 450.689 1784.64 459.835 1778.99 L 434.041 1768.71 C 424.668 1771.87 382.691 1792.16 377.003 1788.5 C 380.302 1782.72 416.864 1769.23 425.729 1765.45 C 417.006 1761.26 408.409 1756.8 399.948 1752.1 C 391.891 1755.72 348.733 1773.29 342.695 1771.26 C 347.437 1764.05 383.71 1752.8 393.434 1749.78 C 385.182 1745.1 376.79 1739.98 368.603 1735.14 C 356.508 1741.6 329.228 1751.54 315.421 1755.98 C 314.283 1756.35 314.125 1755.72 313.073 1754.64 L 313.502 1752.65 C 318.193 1747.58 353.168 1734.94 361.958 1731.49 C 356.045 1727.52 348.47 1723.22 342.277 1719.49 C 330.037 1723.9 283.674 1742.17 273.603 1742.11 L 273.489 1741.05 C 281.002 1734.38 324.679 1719.21 336.369 1715.17 C 329.068 1710.38 321.763 1705.37 314.508 1700.49 C 295.767 1706.05 276.934 1715.77 258.251 1721.77 C 254.263 1723.05 253.252 1723.55 250.159 1721.88 L 250.347 1719.83 C 252.815 1717.31 301.714 1698.52 308.845 1695.91 C 303.006 1691.43 297.159 1686.62 291.407 1681.99 C 270.815 1687.95 250.945 1695.66 230.617 1702.31 C 228.816 1702.9 228.273 1702.39 227.014 1701.45 L 227.564 1699.75 C 232.657 1695.28 276.568 1680.13 286.163 1677.45 L 270.269 1660.74 C 268.659 1658.19 268.604 1658.41 265.911 1656.93 C 261.729 1653.49 252.62 1641.88 248.681 1637.06 C 240.825 1639.96 203.934 1654.63 197.987 1651.51 C 201.395 1645.26 236.472 1635.08 244.984 1632.39 C 239.429 1624.04 234.869 1615.82 230.096 1607.03 C 220.967 1609.3 204.242 1616.41 195.781 1615.76 L 195.783 1614.54 C 202.132 1609.03 218.847 1604.11 227.449 1601.2 C 196.745 1541.57 209.185 1435.29 226.684 1372.47 C 262.953 1242.26 368.202 1133.74 484.322 1069.69 C 616.384 996.851 779.474 970.531 928.903 980.841 C 959.688 982.965 1014.05 987.92 1043.51 996.214 C 1064.85 973.459 1079.01 963.247 1110.94 957.705 C 1115.75 952.654 1120.27 947.005 1124.25 941.279 C 1142.3 915.326 1160.64 888.898 1177.2 861.97 C 1145.06 836.707 1163.29 815.099 1178.99 787.337 C 1188.64 770.287 1199.28 753.691 1209.11 736.758 C 1191.35 729.228 1177.17 720.097 1181.17 697.83 C 1185.77 672.215 1198.88 649.704 1205.55 624.458 C 1213.26 595.255 1214.73 566.178 1219.67 536.576 C 1222.67 519.172 1229.63 495.775 1241.48 482.374 C 1272.25 447.558 1318.82 415.892 1356.4 388.366 C 1407.14 350.819 1458.6 314.263 1510.76 278.717 C 1505.08 277.799 1496.22 277.303 1493.4 271.879 C 1493.72 270.889 1493.99 269.828 1494.62 269.112 C 1503.58 258.909 1520.84 246.144 1531.3 238.122 C 1599.61 185.739 1726.34 98.3165 1808.1 73.1789 z" fill="rgb(91,47,21)" transform="translate(0,0)"></path>
<path d="M 1808.1 73.1789 C 1847.23 70.8491 1882.33 63.6101 1914.64 91.9918 C 1931.41 106.728 1940.22 130.096 1940.67 151.952 C 1941.38 185.935 1941.05 220.621 1941.02 254.649 L 1940.69 426.566 C 1940.47 446.384 1940.03 466.198 1939.37 486.005 C 1939.16 493.634 1938.38 515.676 1939.38 522.402 C 1931.21 523.419 1898.09 533.989 1887.11 536.984 C 1848.09 548.03 1808.73 557.84 1769.09 566.401 C 1768.46 539.486 1746.83 494.696 1732.47 471.54 C 1690.67 404.113 1635.77 338.185 1566.59 297.591 C 1546.46 285.778 1530 276.742 1507.08 271.043 C 1521.83 257.086 1539.92 243.774 1556.26 231.45 C 1610.3 191.24 1666.78 154.431 1725.39 121.236 C 1736.44 114.973 1807.94 80.7848 1809.89 76.0016 L 1808.1 73.1789 z" fill="rgb(160,161,130)" transform="translate(0,0)"></path>
<path d="M 480.739 1804.96 L 480.985 1803.54 C 480.82 1803.63 505.231 1793.26 503.28 1793.4 C 508.228 1793.05 528.143 1800.26 532.998 1802.7 L 532.987 1806.52 C 536.147 1807.12 542.463 1802.73 544.949 1806.38 L 544.495 1806.67 C 526.542 1807.99 497.756 1828.37 479.58 1833.28 C 478.378 1833.6 478.196 1832.85 477.257 1831.71 L 478.096 1829.79 C 485.277 1823.78 522.261 1807.77 532.071 1804.25 C 522.708 1800.69 514.241 1797.84 504.755 1794.77 C 497.538 1798.7 488.639 1802.73 480.739 1804.96 z" fill="rgb(91,47,21)" transform="translate(0,0)"></path>
<path d="M 627.263 1066.43 C 688.533 1062.82 746.223 1071.06 805.98 1082.56 C 794.143 1094.41 780.393 1105.93 768.311 1117.74 C 754.329 1131.41 741.097 1145.29 727.921 1159.72 C 715.95 1172.66 704.364 1185.95 693.179 1199.58 C 684.764 1209.74 674.475 1223.02 665.406 1232.21 C 607.45 1223.29 548.619 1221.49 490.227 1226.88 C 438.305 1232.08 386.898 1243.79 341.246 1269.88 C 333.566 1274.27 317.371 1281.73 319.326 1291.98 C 325.326 1295.85 350.087 1288.39 357.549 1286.54 C 429.059 1268.84 503.171 1272.23 575.625 1281.51 C 591.812 1283.58 610.846 1285.61 626.622 1289.27 L 628.019 1289.6 C 582.655 1374.29 545.43 1470.27 532.722 1565.99 C 530.91 1579.64 524.612 1634.39 531.81 1648.3 C 532.422 1649.49 533.991 1649.17 535.718 1649.29 C 544.833 1645.52 548.518 1623.77 551.23 1614.38 C 554.408 1603.35 557.895 1592.4 561.689 1581.56 C 590.316 1498.35 632.117 1417.59 679.547 1343.56 C 687.368 1331.36 697.508 1314.62 706.605 1303.7 C 741.109 1311.53 775.414 1320.21 809.49 1329.74 C 826.047 1334.38 850.663 1341.33 866.33 1347.89 C 859.708 1359.88 851.474 1371.66 844.658 1383.71 C 803.833 1455.85 769.859 1534.39 754.86 1616.27 C 752.593 1628.65 742.563 1675.51 751.833 1683.05 C 758.429 1681.32 760.65 1671.32 762.672 1665.4 C 766.574 1653.98 770.419 1642.55 774.522 1631.2 C 803.843 1552.15 843.017 1477.12 891.116 1407.88 C 898.444 1397.3 909.968 1379.72 917.935 1370.27 L 918.749 1369.32 C 1008.9 1404.87 1073.19 1437.98 1150.48 1497.44 C 1165.98 1509.46 1181.16 1521.9 1196.01 1534.72 C 1207.51 1544.73 1228.09 1565.86 1243.33 1570.73 C 1245.21 1571.34 1247.15 1569.41 1248.5 1568.17 C 1251.84 1559.04 1240 1544.65 1234.73 1537.24 C 1164.63 1438.69 1061.8 1373.75 956.656 1318.22 C 992.623 1276.38 1031.94 1236.03 1069.6 1195.73 C 1093.57 1170.09 1113.32 1140.64 1136.02 1114.18 C 1159.15 1107.39 1219.25 1094.28 1242.53 1099.21 C 1240.87 1101.18 1218.07 1103.96 1213.4 1104.9 C 1196.32 1108.32 1122.96 1133.22 1121.92 1149.86 C 1124.66 1155.78 1151.1 1167.32 1158.6 1171.2 C 1174.79 1179.75 1190.76 1188.71 1206.5 1198.07 C 1250.24 1224.61 1336.89 1287.49 1367.04 1329.5 C 1356.73 1321.24 1346.96 1312.35 1336.38 1304.19 C 1286.21 1265.16 1232.14 1231.42 1175.04 1203.5 C 1163.17 1197.62 1103.9 1167.25 1095.84 1169.98 C 1095 1172.44 1095.32 1171.25 1096.25 1174.49 C 1100.47 1179.29 1187.07 1220.22 1201.61 1227.98 C 1247.73 1252.61 1286.37 1277.95 1328.28 1309.66 C 1340.9 1319.4 1353.23 1329.51 1365.24 1340 C 1370.86 1344.9 1386.57 1363.29 1392.74 1354.42 C 1393.62 1343.88 1374.78 1323.7 1367.74 1315.92 C 1308.97 1250.98 1213.75 1180.7 1132.87 1148.77 C 1165.45 1124.27 1219.32 1111.06 1259.47 1109.94 C 1327.55 1153.8 1387.15 1209.7 1430.05 1278.55 C 1470.25 1343.06 1489.57 1417.28 1489.2 1493.01 C 1489.11 1513.22 1488.18 1541.95 1483.11 1561.43 C 1466.9 1623.74 1406.63 1671.66 1354.31 1703.75 C 1232.51 1778.44 1080.08 1822.88 938.272 1834.35 C 894.448 1837.9 838.466 1837.59 794.489 1835.77 C 720.354 1833.16 646.663 1823.19 574.501 1806 C 460.556 1778.18 264.813 1699.4 225.974 1571.5 C 211.087 1522.47 220.093 1439.65 232.209 1389.29 C 262.683 1262.6 357.808 1157.32 466.989 1090.53 C 473.404 1086.58 502.664 1068.88 508.038 1070.21 C 508.154 1073.48 507.842 1075.73 509.618 1078.41 C 512.601 1080.68 514.887 1081.22 518.634 1080.73 C 533.913 1078.71 549.437 1075.3 564.645 1072.68 C 585.365 1069.28 606.28 1067.19 627.263 1066.43 z" fill="rgb(252,224,170)" transform="translate(0,0)"></path>
<path d="M 254.652 1426.28 C 257.613 1426.67 257.472 1426.62 260.145 1427.94 C 262.145 1431.09 258.214 1477.64 258.644 1488.85 C 260.449 1535.97 293.704 1590.59 329.16 1621.2 C 447.512 1723.38 639.311 1760.89 791.808 1770.57 C 821.612 1772.46 851.466 1771.36 881.084 1770.21 C 887.481 1769.96 895.838 1768.54 900.19 1772.54 C 900.832 1776.75 900.959 1774.66 899.261 1779 C 883.708 1782.05 855.866 1781.45 839.815 1781.34 C 708.486 1780.37 577.407 1757.92 455.585 1708.03 C 348.387 1664.13 232.501 1581.18 250.305 1449.58 C 251.346 1441.94 252.165 1433.56 254.652 1426.28 z" fill="rgb(91,47,21)" transform="translate(0,0)"></path>
<path d="M 1455.91 1472.25 L 1458.88 1473.37 C 1459.27 1473.93 1459.94 1474.79 1459.97 1475.46 C 1462.91 1529.36 1433.19 1572.55 1394.56 1606.32 C 1302.9 1686.46 1188.75 1726.4 1072.64 1755.38 C 1069.31 1752.56 1069.69 1752.66 1069.16 1749.44 C 1072 1743.78 1093.63 1740.18 1101.08 1738.3 C 1156.21 1724.4 1212.93 1703.87 1264.28 1679.56 C 1321.4 1652.51 1411.62 1594.58 1438.58 1536.16 C 1443.98 1524.37 1447.91 1511.96 1450.29 1499.21 C 1451.78 1491.11 1452.95 1479.68 1455.91 1472.25 z" fill="rgb(91,47,21)" transform="translate(0,0)"></path>
<path d="M 1569.94 358.378 C 1589.91 356.909 1608.19 361.8 1622.92 375.207 C 1702.75 447.846 1604 545.458 1554.34 602.525 C 1543.6 614.865 1531.25 624.228 1520.99 636.341 L 1519.96 637.572 C 1479.75 648.936 1465.93 692.422 1453.2 727.718 C 1440.88 736.871 1415.94 760.629 1403.47 771.903 C 1361.9 809.446 1321.15 847.885 1281.25 887.192 C 1276.78 885.402 1272.1 883.256 1267.66 881.324 C 1232.53 864.735 1204.22 841.137 1175.81 815.128 C 1189.02 785.457 1210.08 754.405 1227.51 726.527 C 1243.53 701.129 1259.86 675.926 1276.49 650.924 C 1295.75 621.448 1323.57 578.44 1345.94 551.203 C 1393.88 493.671 1441.92 435.368 1503.22 391.4 C 1526.22 374.91 1540.92 361.876 1569.94 358.378 z" fill="rgb(204,156,125)" transform="translate(0,0)"></path>
<path d="M 1549.05 409.191 C 1583.95 410.008 1544.94 457.06 1536.57 466.667 C 1479.47 532.224 1418.49 595.578 1357.25 657.25 C 1334.43 680.224 1299.52 719.828 1272.71 736.244 C 1212.27 751.524 1372.35 566.643 1377.29 558.764 C 1383.45 551.742 1389.7 544.666 1396.08 537.843 C 1414.85 517.732 1433.81 496.952 1453.4 477.677 C 1478.67 452.813 1514.03 417.102 1549.05 409.191 z" fill="rgb(91,47,21)" transform="translate(0,0)"></path>
<path d="M 1544.93 420.116 C 1548.25 419.653 1548.2 419.466 1551.38 420.281 C 1556.98 429.34 1527.75 462.998 1520.34 471.242 C 1473.88 522.907 1425.83 574.054 1376.7 623.18 C 1344.43 655.443 1311.59 694.567 1275.73 722.396 C 1272.21 724.582 1273.88 724.427 1270.46 724.384 C 1269.63 720.769 1273.68 714.936 1275.44 711.774 C 1311.04 647.802 1481.46 437.054 1544.93 420.116 z" fill="rgb(204,156,125)" transform="translate(0,0)"></path>
<path d="M 1183.97 870.458 C 1189.41 872.76 1209.95 890.149 1218.15 895.186 C 1201.53 920.654 1172.62 952.621 1159.09 977.969 C 1165.65 998.768 1169.68 1015.29 1164.87 1037.09 C 1150.09 1104.11 1033.44 1219.55 985.576 1272.43 C 973.998 1285.22 952.599 1304.37 945.536 1319.59 C 945.708 1321.78 945.883 1323.36 948.332 1324.82 C 964.069 1334.21 982.447 1342.29 998.508 1351.36 C 1077.98 1396.23 1151.5 1448.68 1209.93 1519.68 C 1219.93 1531.83 1230.94 1548.04 1239.83 1561.16 C 1229.73 1553.75 1207.87 1532.98 1197.54 1523.82 C 1178.14 1506.82 1157.96 1490.74 1137.07 1475.62 C 1078.31 1433.14 1022.94 1401.1 955.567 1373.98 C 945.492 1369.93 925.222 1359.04 915.207 1360.65 C 908.439 1364.65 895.746 1385.57 890.216 1393.36 C 846.888 1453.97 810.523 1519.27 781.806 1588.01 C 773.028 1609.06 766.951 1628.7 758.864 1649.45 C 770.1 1552.61 811.895 1457.24 861.576 1374.32 C 865.681 1367.47 878.92 1349.44 875.81 1342.22 C 860.161 1330.83 729.144 1299.61 703.402 1293.67 C 695.607 1301.32 678.678 1327.7 672.274 1337.54 C 626.279 1407.54 588.212 1482.45 558.774 1560.87 C 550.095 1584.18 543.893 1600.22 537.925 1624.15 C 538.472 1544 563.499 1457.91 593.603 1384.33 C 600.73 1366.44 608.506 1348.81 616.915 1331.49 C 623.517 1318.03 630.535 1304.78 637.194 1291.36 C 638.349 1288.34 641.213 1283.98 636.958 1282.03 C 631.52 1279.53 624.823 1279.1 618.89 1278.2 C 570.499 1270.86 521.581 1264.71 472.589 1264.1 C 429.044 1263.56 385.696 1269.7 343.429 1279.8 C 362.688 1267.11 383.995 1259.75 405.788 1252.91 C 490.033 1227.03 583.441 1230.73 669.633 1242.49 C 673.956 1238.17 677.4 1233.3 681.27 1228.55 C 719.072 1182.2 759.235 1136.56 804.701 1097.55 C 808.9 1093.94 821.033 1085.1 821.616 1080.26 C 817.18 1074.27 794.254 1070.84 786.436 1069.22 C 717.858 1055.18 647.448 1052.46 577.992 1061.16 C 568.952 1062.26 530.393 1069.65 525.061 1069.24 L 525.245 1068.69 C 540.81 1065.32 554.196 1060.17 571.155 1056.86 C 652.354 1040.79 735.781 1039.45 817.452 1052.91 C 831.837 1055.27 844.217 1059.01 858.278 1061.7 C 896.783 1032.74 942.692 1018.75 989.706 1011.12 C 996.956 1009.94 1028.49 1003.76 1033.96 1007.31 C 1025.06 1010.33 1009.61 1011.48 999.659 1013.35 C 962.564 1020.3 929.774 1036.81 901.46 1061.7 C 899.267 1063.63 899.539 1065.03 899.72 1067.56 C 904.868 1075.25 969.202 1090.42 981.845 1094.34 C 978.906 1100.84 975.782 1107.37 972.75 1113.84 C 941.939 1106.83 911.864 1095.72 878.815 1088.33 C 870.549 1095.3 859.295 1106.94 851.22 1114.76 C 822.486 1142.57 794.948 1171.58 768.681 1201.73 C 762.273 1209.06 730.041 1246.04 730.502 1252.99 C 734.713 1257.61 754.524 1259.96 761.342 1261.35 C 774.168 1264.06 786.924 1267.09 799.598 1270.44 C 825.131 1277.17 850.802 1284.62 875.625 1293.67 C 887.249 1297.91 898.774 1302.24 910.649 1305.74 C 936.789 1283.75 964.495 1253.43 987.751 1228.21 C 1041.5 1169.94 1095.1 1108.63 1138.06 1041.96 C 1148.28 1026.1 1093.82 1008.72 1082.76 1004.57 C 1056.34 1031.92 1007.96 1156.55 1004.81 1195.42 C 998.333 1204.01 986.057 1216.35 978.392 1224.66 L 920.371 1286.59 C 949.996 1194.31 979.988 1095.47 1039.41 1017.37 C 1046.89 1007.54 1054.21 996.905 1063.4 988.59 C 1082.16 971.622 1096.45 973.922 1115.26 964.166 C 1128.66 957.222 1173.35 886.788 1183.97 870.458 z" fill="rgb(252,224,170)" transform="translate(0,0)"></path>
<path d="M 1520.71 283.888 C 1531.52 285.072 1549.08 297.693 1558.79 303.35 C 1615.21 336.227 1660.68 384.852 1698.34 437.607 C 1712.22 457.052 1724.94 475.797 1735.15 497.495 C 1724.7 515.009 1705.39 525.63 1689.14 537.341 C 1665.89 554.097 1641.84 569.501 1617.39 584.438 C 1613.23 572.68 1611.6 570.652 1601.47 564.042 C 1629.12 528.206 1659.05 490.109 1661.22 442.964 C 1664.9 397.513 1624.04 348.09 1577.17 348.879 C 1523.54 349.782 1459.92 411.562 1423.91 447.635 C 1371.68 501.37 1324.58 559.859 1283.21 622.342 C 1269.29 642.679 1255.7 663.24 1242.45 684.017 C 1235.95 694.13 1221.32 718.139 1213.89 726.234 C 1181.28 718.288 1190.24 694.385 1200.49 670.199 C 1219.49 625.407 1223.4 582.771 1229.49 535.308 C 1231.03 523.316 1237.74 502.877 1244.94 492.586 C 1276.62 455.552 1323.78 424.513 1362.66 396.042 C 1414.41 357.365 1467.11 319.969 1520.71 283.888 z" fill="rgb(251,244,231)" transform="translate(0,0)"></path>
<path d="M 883.003 1098.74 C 891.072 1099.93 907.252 1104.95 915.694 1107.4 C 932.89 1112.4 951.61 1117.24 968.417 1123.1 C 950.078 1166.57 932.735 1211.23 919.876 1256.66 C 916.155 1269.8 912.846 1283.01 908.909 1296.1 C 895.678 1292.59 867.194 1280.85 851.168 1275.74 C 813.175 1264.42 782.39 1256.67 743.919 1248.01 C 756.282 1229.14 783.881 1198.98 799.221 1182.28 C 824.174 1155.12 854.801 1122.27 883.003 1098.74 z" fill="rgb(252,224,170)" transform="translate(0,0)"></path>
<path d="M 822.795 989.424 C 837.459 988.222 855.159 988.848 869.996 988.611 C 916.899 987.863 957.849 992.127 1003.88 998.985 C 993.105 1001.32 980.733 1002.61 969.515 1004.79 C 939.549 1010.44 910.509 1020.2 883.218 1033.8 C 874.861 1038.07 862.494 1044.71 855.913 1051.34 C 805.758 1038.45 757.879 1035.33 706.476 1034.06 C 641.342 1033.47 590.744 1042.27 528.592 1057.74 C 543.243 1050.42 564.32 1043 579.865 1037.34 C 660.952 1007.82 737.183 994.369 822.795 989.424 z" fill="rgb(252,224,170)" transform="translate(0,0)"></path>
<path d="M 1515.31 648.906 C 1531.14 649.981 1528.38 668.793 1527.19 680.581 C 1524 712.051 1509.62 759.427 1473.47 766.037 C 1453.84 763.174 1461.68 739.461 1465.03 726.387 C 1472.22 698.365 1487.33 661.67 1515.31 648.906 z" fill="rgb(251,244,231)" transform="translate(0,0)"></path>
<path d="M 1085.29 1015.48 C 1101.05 1021.14 1117.05 1028.54 1131.1 1037.69 C 1115.78 1060.5 1093.93 1088.5 1076.83 1110.3 L 1070.27 1118.43 C 1060.33 1114.47 1050.34 1110.66 1040.28 1107.01 C 1054.27 1073.75 1065.68 1045.89 1085.29 1015.48 z" fill="rgb(252,224,170)" transform="translate(0,0)"></path>
<path d="M 1594.8 571.664 C 1600.01 573.697 1603.6 576.541 1605.8 581.988 C 1614.99 604.767 1618.13 644.972 1609.56 668.224 C 1604.04 683.183 1597.38 688.445 1584.32 694.268 C 1582.33 695.105 1581.74 695.189 1579.64 695.735 C 1578.35 692.072 1579.78 679.999 1579.74 675.077 C 1579.56 655.153 1579.89 619.721 1566.45 604.556 C 1575.9 593.911 1584.66 581.53 1594.8 571.664 z" fill="rgb(251,244,231)" transform="translate(0,0)"></path>
<path d="M 1559.89 611.789 C 1572.04 620.963 1574.3 691.87 1565.75 707.679 C 1558.02 721.983 1539.71 728.455 1525.5 733.366 L 1525.05 733.443 L 1524.13 732.563 C 1532.51 708.488 1546.9 663.683 1527.46 642.357 C 1536.12 632.564 1549.89 620.623 1559.89 611.789 z" fill="rgb(251,244,231)" transform="translate(0,0)"></path>
<path d="M 1020.63 1020.45 L 1023.57 1020.18 C 1024.15 1022.21 1019.26 1028.69 1017.61 1031.05 C 1005.55 1048.31 996.747 1066.18 987.011 1084.74 C 969.631 1079.94 952.206 1075.3 934.739 1070.83 C 927.662 1069.19 919.768 1067.6 913.048 1065 C 939.412 1038.14 983.861 1023.92 1020.63 1020.45 z" fill="rgb(252,224,170)" transform="translate(0,0)"></path>
<path d="M 1171.15 823.42 C 1173.1 824.968 1183.77 835.906 1186.95 838.768 C 1200.11 850.537 1214.05 861.409 1228.67 871.311 C 1234.15 874.989 1268.28 893.065 1269.68 894.985 L 1268.57 896.443 C 1237.51 903.148 1187.64 865.032 1171.77 839.708 C 1168.23 834.072 1169.28 829.323 1171.15 823.42 z" fill="rgb(216,175,100)" transform="translate(0,0)"></path>
<path d="M 1169.36 1056.19 C 1187.4 1065.49 1208.43 1078.56 1226.19 1088.96 C 1213.28 1088.79 1200.75 1090.39 1187.99 1092.28 C 1171.24 1094.87 1159.04 1098.35 1142.83 1102.95 C 1152.36 1088.79 1162.58 1071.7 1169.36 1056.19 z" fill="rgb(252,224,170)" transform="translate(0,0)"></path>
<path d="M 1740.28 510.852 C 1748.95 518.65 1757.13 552.097 1759.69 563.753 C 1751.21 556.927 1742.86 549.938 1734.65 542.79 L 1719.09 528.537 L 1733.68 516.333 C 1734.1 523.432 1734.31 533.092 1739.2 538.199 L 1740.26 537.548 C 1741.08 533.301 1740.25 516.569 1740.28 510.852 z" fill="url(#Gradient3)" transform="translate(0,0)"></path>
<path d="M 1036.84 1116.56 C 1043.79 1118.02 1057.58 1123.89 1064.64 1126.75 L 1054.8 1137.61 C 1047.83 1146.21 1038.76 1139.87 1029.2 1136.6 C 1031.66 1129.88 1034.2 1123.2 1036.84 1116.56 z" fill="rgb(252,224,170)" transform="translate(0,0)"></path>
<path d="M 1026.3 1145.38 C 1033.13 1147.42 1036.28 1148.73 1042.78 1151.66 C 1037.78 1158.19 1030.39 1166.03 1024.8 1172.3 L 1015.72 1181.93 L 1026.3 1145.38 z" fill="rgb(252,224,170)" transform="translate(0,0)"></path>
<path d="M 1816.15 1341.67 C 1799.17 1290.71 1805.17 1225.82 1826.89 1177 C 1837.12 1153.3 1865.15 1138.48 1874.28 1172.36 C 1883.51 1206.65 1875.11 1247.08 1864.24 1280.01 C 1858 1298.94 1847.05 1315.55 1835.76 1331.8 C 1833.06 1335.69 1824.96 1340.68 1821.03 1343.75 C 1813.35 1371.82 1803.16 1419.04 1792.58 1444.47 C 1802.5 1431.41 1812.54 1418.92 1822.14 1405.59 C 1844.61 1374.4 1863.96 1310.26 1907.54 1305.28 C 1931.96 1312.92 1929.71 1333.88 1923.25 1353.8 C 1909.53 1396.06 1870.87 1425.32 1830.04 1439.03 C 1817.44 1443.26 1803.8 1446.02 1791.59 1450.82 C 1775.29 1490.04 1764.88 1519.64 1742.47 1557.43 C 1776.98 1570.66 1814.25 1560.85 1846.9 1546.79 C 1866.29 1538.44 1888.63 1523.3 1896.01 1502.65 C 1906.22 1474.1 1884.38 1466.1 1861.37 1478.31 C 1831.85 1493.99 1809.48 1518.61 1782.92 1538.43 C 1773.6 1545.42 1760.74 1549.79 1754.25 1554.55 L 1750.09 1552.45 C 1758.96 1544.8 1771.73 1539.4 1781.44 1532.24 C 1806.31 1513.91 1833.79 1482.56 1862.59 1471.16 C 1916.75 1449.72 1912.28 1512.48 1877.54 1535.41 C 1840.98 1559.54 1780.64 1580.41 1739.17 1560.93 C 1734.91 1567.64 1730.88 1574.49 1726.9 1581.38 C 1715.4 1601.29 1702.16 1620.19 1689.27 1639.2 C 1720.85 1630.99 1752.76 1615.68 1783.29 1604.07 C 1797.7 1598.6 1811.01 1591.41 1826.01 1588.2 C 1851.87 1582.45 1865.03 1608.31 1851.94 1629.41 C 1839.36 1649.71 1815.74 1659.37 1793.45 1664.83 C 1754.6 1674.34 1714.55 1668.86 1678.47 1652.74 C 1666.37 1667.04 1654.98 1680.47 1642.24 1694.23 C 1633.23 1703.98 1616.24 1719.9 1608.76 1730.15 C 1658.58 1729.88 1710.22 1704.45 1759.78 1700.71 C 1788.39 1698.56 1797.17 1730.04 1775.63 1746.17 C 1731.46 1779.24 1643.25 1768.36 1603.11 1734.54 C 1571.79 1760.48 1544.49 1780.98 1512.83 1805.5 C 1561.16 1808.94 1600.76 1801.33 1648.1 1793.52 C 1659.96 1791.56 1677.37 1791.19 1685.77 1801.22 C 1690.06 1806.43 1692 1813.18 1691.12 1819.87 C 1686.53 1857.2 1623.59 1857.16 1596.98 1852.04 C 1562.38 1845.39 1531.49 1834.25 1506.79 1808.47 C 1480.15 1827.21 1448.21 1843.88 1419.3 1859 C 1409.29 1864.23 1358.04 1887.25 1350.08 1885.02 L 1349.99 1883.24 C 1356.21 1878.91 1365.87 1876 1373.07 1872.92 C 1440.83 1843.94 1518.6 1799.19 1573.45 1749.38 C 1566.8 1738.32 1557.95 1724.37 1553.46 1712.51 C 1538.7 1673.57 1535.57 1629.43 1544.11 1588.74 C 1549.48 1563.21 1572.58 1546.46 1587.6 1575.66 C 1604.03 1607.62 1597.38 1653.1 1590.71 1686.97 C 1586.85 1705.57 1580.48 1726.98 1579.59 1745.21 C 1608.76 1720.32 1647.54 1680.91 1670.4 1650.45 C 1635.02 1628.8 1617.21 1596.1 1607.75 1556.5 C 1600.93 1527.93 1592.51 1472.75 1630.27 1462.51 C 1693.97 1479.54 1656.8 1636.61 1673.41 1645.12 C 1685.66 1637.84 1721.43 1579.01 1729 1563.1 C 1699.04 1524.09 1670.42 1449 1672.47 1398.44 C 1673.66 1368.94 1706.12 1361.44 1719.17 1388.58 C 1746.91 1439.47 1736.97 1499.24 1733.54 1554.25 C 1733.58 1555.18 1733.62 1556.1 1733.66 1557.03 C 1751.69 1528.62 1772.85 1484.31 1784.41 1452.07 C 1771.31 1427.56 1749.56 1402.35 1735.14 1377.71 C 1719.9 1351.66 1688.38 1300.25 1697.2 1268.85 C 1699.15 1261.93 1704.94 1254.76 1711.42 1251.79 C 1717.6 1248.94 1722.67 1248.99 1728.87 1251.73 C 1743.48 1258.18 1754.87 1276.06 1760.46 1290.19 C 1775.35 1327.76 1777.28 1368.11 1782.28 1407.72 C 1783.88 1420.36 1784.9 1433.58 1787.8 1445.83 C 1796.36 1419.15 1810.91 1368.75 1816.15 1341.67 z" fill="rgb(91,47,21)" transform="translate(0,0)"></path>
<path d="M 1819.51 1333.25 C 1804.09 1304.1 1814.14 1231.81 1824.28 1199.59 C 1828.39 1186.53 1839.75 1152.28 1858.91 1159.59 C 1862.71 1160.98 1865.41 1164.51 1866.9 1168.29 C 1878.73 1205.76 1867.66 1259.14 1852.66 1294.13 C 1847.08 1307.14 1832.33 1332.46 1822.75 1340.62 L 1821.52 1340.42 C 1821.55 1337.97 1821.51 1337.58 1822.03 1335.21 L 1819.51 1333.25 z" fill="rgb(252,224,170)" transform="translate(0,0)"></path>
<path d="M 1819.51 1333.25 C 1826.2 1304.47 1833.83 1274.79 1839.05 1245.9 C 1841.21 1233.7 1843.15 1221.47 1844.87 1209.21 C 1845.62 1203.61 1845.42 1191.08 1849.9 1187.92 C 1858.38 1197.92 1827.92 1317.86 1822.03 1335.21 L 1819.51 1333.25 z" fill="rgb(91,47,21)" transform="translate(0,0)"></path>
<path d="M 1661.48 1635.92 C 1662.15 1637.38 1662.11 1637.66 1662.47 1639.23 C 1660.81 1638.64 1660.88 1638.87 1659.78 1637.95 C 1626.58 1609.55 1611.33 1564.17 1608.17 1521.66 C 1606.82 1503.47 1606.86 1470.32 1631.76 1468.36 C 1635.33 1468.07 1641.36 1470.74 1643.37 1473.52 C 1670.82 1511.53 1663.95 1588.53 1663.53 1633.16 L 1661.48 1635.92 z" fill="rgb(252,224,170)" transform="translate(0,0)"></path>
<path d="M 1661.48 1635.92 C 1654.12 1626.5 1645.28 1600.16 1643.14 1589.01 C 1639.86 1571.87 1626.59 1504.53 1630.71 1490.75 L 1632.38 1489.95 C 1633.51 1492.26 1636.08 1514.53 1636.55 1518.27 C 1641.64 1558.22 1646.05 1596.19 1663.53 1633.16 L 1661.48 1635.92 z" fill="rgb(91,47,21)" transform="translate(0,0)"></path>
<path d="M 1697.86 1641.79 L 1698.78 1641.55 C 1707.7 1639.07 1721.4 1633.61 1730.37 1630.27 C 1751.17 1622.49 1771.9 1614.54 1792.57 1606.43 C 1799.18 1603.86 1806.45 1601.14 1813.09 1598.3 C 1827.23 1592.1 1846.49 1587.34 1851.25 1607.4 C 1852.78 1613.85 1848.81 1624.76 1844.89 1629.68 C 1815.61 1666.4 1736.9 1670.59 1697.7 1654.4 C 1692.9 1653.08 1686.24 1652 1683.59 1647.95 L 1684.15 1645.83 C 1686.6 1643.95 1686.99 1643.46 1690.16 1642.97 L 1697.86 1641.79 z" fill="rgb(252,224,170)" transform="translate(0,0)"></path>
<path d="M 1698.7 1646.93 C 1732.3 1646.55 1768.26 1637.53 1800.33 1627.55 C 1805.09 1626.06 1813.08 1622.23 1817.69 1623.91 L 1818.08 1625.26 C 1805.98 1637.56 1716.73 1653.35 1699.16 1649.88 L 1698.7 1646.93 z" fill="rgb(91,47,21)" transform="translate(0,0)"></path>
<path d="M 1697.7 1654.4 C 1692.9 1653.08 1686.24 1652 1683.59 1647.95 L 1684.15 1645.83 C 1686.6 1643.95 1686.99 1643.46 1690.16 1642.97 L 1697.86 1641.79 L 1702.26 1643.38 C 1701.09 1646.02 1701.61 1644.87 1698.7 1646.93 L 1699.16 1649.88 C 1697.64 1652.59 1697.88 1651.46 1697.7 1654.4 z" fill="rgb(251,244,231)" transform="translate(0,0)"></path>
<path d="M 1905.99 1310.26 C 1935.3 1314.34 1918.65 1356.42 1909.48 1371.89 C 1885.8 1411.82 1849.05 1429.51 1805.99 1441.12 C 1837.08 1422.77 1870.34 1388.77 1890.22 1358.42 C 1892.97 1353.99 1896.24 1349.57 1896.64 1344.46 L 1895.29 1343.13 C 1891.28 1346.89 1881.5 1363.49 1877.1 1368.85 C 1855.81 1394.83 1834.68 1418.39 1805.83 1435.84 C 1809.83 1429.39 1818.6 1417.4 1823.66 1411.32 C 1845.96 1384.52 1867.11 1314.77 1905.99 1310.26 z" fill="rgb(252,224,170)" transform="translate(0,0)"></path>
<path d="M 1775.65 1427.11 C 1771.64 1424.06 1761.93 1409.17 1758.67 1404.45 C 1743.62 1382.63 1729.77 1359.44 1717.88 1335.76 C 1712 1322.18 1700.99 1299.88 1700.94 1284.75 C 1700.82 1241.46 1733.9 1251.01 1748.85 1280.2 C 1766.35 1314.4 1769.68 1346.57 1774.26 1383.68 C 1775.79 1396.06 1778.33 1409.4 1778.41 1421.17 C 1772.11 1405 1765.89 1388.8 1759.75 1372.57 C 1752.22 1352.24 1734.34 1298.6 1721.03 1283.84 L 1719.26 1283.35 C 1718.76 1287.43 1721.26 1290.91 1723.04 1294.53 C 1743.84 1336.93 1756.93 1384.05 1775.65 1427.11 z" fill="rgb(252,224,170)" transform="translate(0,0)"></path>
<path d="M 1755.96 1706.4 C 1790.98 1703.93 1787.93 1733.89 1764.67 1746.84 C 1731.94 1765.07 1681.45 1760.92 1646.77 1752.11 C 1634.31 1748.48 1620.35 1743.44 1610.93 1734.24 C 1654.17 1733.91 1710.29 1711.43 1755.96 1706.4 z" fill="rgb(252,224,170)" transform="translate(0,0)"></path>
<path d="M 1738.09 1731.41 C 1741.28 1730.85 1743.35 1730.88 1745.95 1732.92 C 1739.68 1740.73 1654.3 1743.22 1639.76 1742.76 C 1635.28 1742.25 1634.38 1742.34 1630.38 1740.51 L 1629.97 1738.95 C 1634.71 1737.97 1649.56 1739.19 1655.7 1739.09 C 1683.41 1738.66 1710.65 1734.86 1738.09 1731.41 z" fill="rgb(91,47,21)" transform="translate(0,0)"></path>
<path d="M 1654.54 1798.39 C 1664.28 1797.47 1678.72 1797.41 1683.76 1807.27 C 1691.15 1821.73 1678.29 1836.02 1665.97 1841.31 C 1632.72 1855.56 1590.19 1847.48 1557.81 1836.01 C 1538.46 1827.91 1529.96 1822.64 1514.1 1809.34 C 1552.44 1818.77 1615.48 1802.7 1654.54 1798.39 z" fill="rgb(252,224,170)" transform="translate(0,0)"></path>
<path d="M 1528.14 1814.13 C 1535.82 1814.67 1545.97 1817.63 1553.75 1819.05 C 1585.36 1824.84 1617.18 1823.44 1648.85 1821.62 C 1650.07 1821.55 1650.57 1823.47 1650.99 1824.38 C 1632.06 1831.27 1540.47 1829.99 1528.14 1814.13 z" fill="url(#Gradient2)" transform="translate(0,0)"></path>
<path d="M 1565.45 1564.93 C 1609.17 1569.89 1587.29 1690.06 1578.58 1717.85 C 1577.21 1722.22 1578.1 1731.77 1575.25 1735.29 C 1572.45 1729.55 1572.31 1717.1 1571.91 1710.36 C 1570.19 1683.71 1569.9 1656.99 1571.04 1630.31 C 1571.53 1616.39 1572.86 1602.88 1573.09 1588.94 L 1571.89 1586.59 L 1570.5 1586.61 C 1567.86 1591.12 1566.25 1626.42 1566.12 1633.53 C 1565.53 1665.6 1564.76 1700.39 1569.6 1732.15 C 1544.85 1698.44 1540.41 1630.08 1548.49 1589.8 C 1550.8 1578.27 1555.22 1570.82 1565.45 1564.93 z" fill="rgb(252,224,170)" transform="translate(0,0)"></path>
<path d="M 1691.77 1376.1 C 1740.63 1380.51 1733.93 1504.73 1729.3 1540.84 C 1725.6 1523.7 1706.14 1403.97 1697.99 1400.23 L 1697.08 1401.53 C 1697.01 1407.15 1699.27 1413.79 1700.79 1419.38 C 1702.95 1435.03 1708.01 1451.86 1710.47 1467.75 C 1714.97 1496.74 1720.59 1523.83 1727.71 1552.26 C 1708.91 1526.01 1650.29 1393.13 1691.77 1376.1 z" fill="rgb(252,224,170)" transform="translate(0,0)"></path>
<path d="M 311.818 431.778 C 289.439 416.044 276.878 371.86 274.433 345.811 C 271.307 312.518 275.978 279.329 286.597 248.175 C 305.67 192.217 351.676 204.185 349.821 260.951 C 349.13 305.868 340.341 346.89 329.128 390.331 C 325.688 403.657 320.549 417.977 319.235 431.452 C 324.515 470.814 341.2 511.125 355.253 548.121 C 371.045 520.355 368.081 514.127 371.692 483.009 C 377.533 432.667 378.17 367.873 416.405 329.926 C 422.367 324.008 433.671 319.111 442.202 320.015 C 448.283 320.663 453.789 323.901 457.309 328.901 C 464.214 338.544 463.403 352.226 461.157 363.176 C 450.465 415.309 402.099 532.442 360.859 561.025 C 374.468 592.337 403.689 639.933 426.628 665.527 C 433.059 634.567 433.506 600.227 435.879 568.674 C 437.847 549.657 437.19 527.594 443.803 509.457 C 462.543 458.064 514.255 469.601 505.258 525.792 C 497.763 572.594 482.072 617.281 457.229 657.691 C 452.651 665.137 443.021 673.207 436.371 678.51 C 459.037 707.296 472.133 719.137 499.584 743.173 C 536.985 706.3 508.924 582.701 551.393 539.723 C 555.968 535.094 563.503 532.567 570.136 533.304 C 577.141 534.102 583.521 537.715 587.81 543.311 C 609.249 570.727 586.606 632.104 573.81 659.849 C 556.386 697.626 539.046 722.887 505.636 747.798 C 515.42 755.972 525.657 763.607 535.803 771.33 L 533.581 774.752 L 534.137 775.973 C 522.192 779.126 496.218 796.301 478.44 802.174 C 434.015 817.045 379.803 817.24 336.499 798.657 C 320.533 791.805 301.621 770.406 312.934 753.145 C 331.548 724.744 385.722 747.63 409.486 755.155 C 422.886 759.366 436.438 763.08 450.114 766.288 C 474.087 771.849 497.7 775.346 521.904 769.237 C 495.928 749.607 471.268 728.253 449.778 703.742 C 443.431 696.502 437.267 689.118 430.724 682.051 C 411.017 691.237 390.49 701.79 368.253 703.439 C 322.739 706.746 280.73 692.445 245.222 664.169 C 227.76 650.264 212.683 625.324 232.128 606.712 C 260.705 579.358 314.227 627.261 338.912 643.119 C 370.176 663.204 385.51 674.514 423.571 674.029 C 415.644 659.338 402.061 643.805 392.48 629.555 C 378.465 608.709 365.623 585.815 354.788 563.204 C 291.469 577.006 200.672 520.69 177.933 461.832 C 170.764 443.274 175.564 424.879 195.889 419.681 C 231.282 410.631 258.337 453.794 277.199 476.735 C 298.725 503.169 320.269 538.83 350.619 555.7 L 352.01 556.465 C 347.505 541.29 337.711 518.749 331.958 503.043 C 322.35 476.812 317.688 459.014 311.818 431.778 z" fill="rgb(91,47,21)" transform="translate(0,0)"></path>
<path d="M 318.343 218.015 C 374.076 214.012 322.804 395.65 314.788 423.222 C 298.204 369.206 304.454 312.866 314.97 259.476 C 315.231 258.153 313.962 257.788 313.024 257.162 L 310.782 258.197 C 300.205 298.095 296.992 339.587 301.3 380.637 C 302.805 394.53 305.843 408.215 307.686 422.177 C 274.438 370.235 271.904 311.147 290.475 253.286 C 295.484 237.681 303.206 225.271 318.343 218.015 z" fill="rgb(252,224,170)" transform="translate(0,0)"></path>
<path d="M 437.623 325.177 C 465.896 328.228 456.525 364.567 450.826 382.463 C 438.292 421.827 394.449 534.702 359.6 554.425 C 358.608 550.923 363.581 542.586 365.289 539.037 C 381.811 504.708 392.17 467.406 405.511 431.759 C 409.962 419.583 431.043 374.394 431.11 367.026 L 429.687 367.3 C 411.03 388.964 387.636 473.768 375.557 501.432 C 380.996 457.301 382.094 337.397 437.623 325.177 z" fill="rgb(252,224,170)" transform="translate(0,0)"></path>
<path d="M 203.299 424.338 C 233.953 426.205 255.28 457.619 272.202 480.471 C 296.225 512.912 314.165 534.338 344.854 560.747 C 304.448 544.884 268.054 520.275 238.28 488.688 C 233.24 483.417 228.829 478.576 224.237 472.871 C 221.327 469.257 217.97 463.265 214.727 460.612 L 213.014 461.105 C 211.654 464.441 211.775 462.708 213.2 466.498 C 247.481 514.527 282.061 532.909 330.789 560.916 C 293.24 553.115 267.13 544.626 234.254 521.694 C 211.268 504.965 187.385 478.732 181.035 450.287 C 177.534 434.604 189.471 426.352 203.299 424.338 z" fill="rgb(252,224,170)" transform="translate(0,0)"></path>
<path d="M 248.496 604.089 C 274.269 602.313 303.431 627.185 324.354 641.127 C 360.771 665.393 380.801 680.396 425.973 678.817 C 423.833 680.136 418.344 683.52 415.758 683.837 C 374.684 688.867 328.731 664.577 292.891 646.487 C 286.345 643.183 270.025 632.472 265.313 631.927 L 264.445 633.37 L 265.706 636.049 C 299.851 661.508 359.606 686.644 401.598 689.484 C 363.624 702.873 325.379 699.1 288.251 683.591 C 266.885 673.344 239.227 657.656 229.794 634.714 C 223.543 619.512 234.754 608.589 248.496 604.089 z" fill="rgb(252,224,170)" transform="translate(0,0)"></path>
<path d="M 314.769 766.176 C 323.976 718.945 413.685 766.918 442.734 770.638 C 451.207 771.723 486.635 777.015 492.755 779.309 L 494.66 782.661 C 500.448 781.015 506.559 780.213 512.52 779.244 C 498.309 788.416 482.706 794.409 466.71 799.515 C 429.837 811.284 328.055 813.827 314.769 766.176 z" fill="rgb(252,224,170)" transform="translate(0,0)"></path>
<path d="M 494.66 782.661 C 455.951 793.14 411.071 789.892 372.684 779.331 C 366.566 777.649 355.764 774.648 350.51 771.197 L 350.648 769.953 C 352.52 769.198 354.696 769.151 356.595 769.666 C 377.057 775.218 391.299 779.718 412.48 782.405 C 439.23 785.708 466.339 784.663 492.755 779.309 L 494.66 782.661 z" fill="rgb(91,47,21)" transform="translate(0,0)"></path>
<path d="M 566.193 538.115 C 593.179 540.138 592.795 574.399 589.026 594.163 C 580.046 641.245 549.726 709.956 510.153 738.379 C 532.049 702.407 543.113 672.82 553.86 632.818 C 556.681 622.335 567.007 582.42 565.515 573.587 L 564.41 573.284 C 559.717 580.248 552.518 616.109 549.756 626.808 C 543.951 649.292 534.64 683.46 523.167 703.645 C 530.734 659.236 526.394 605.739 543.572 562.466 C 548.315 550.518 554.243 543.02 566.193 538.115 z" fill="rgb(252,224,170)" transform="translate(0,0)"></path>
<path d="M 475.133 482.185 C 507.205 480.303 501.096 522.09 496.695 542.312 C 489.312 576.233 462.966 654.922 434.371 673.76 L 432.696 673.252 C 431.928 666.644 437.795 663.745 440.411 658.716 C 459.914 621.221 464.622 575.364 473.154 534.223 C 475.678 523.761 478.099 514.112 479.823 503.468 C 466.207 521.992 458.906 591.244 451.095 617.194 C 444.298 639.773 440.617 648.847 431.061 671.024 C 434.355 652.663 436.663 638.544 438.355 619.544 C 441.445 584.857 439.613 542.985 450.008 509.972 C 453.985 497.34 463.06 487.594 475.133 482.185 z" fill="rgb(252,224,170)" transform="translate(0,0)"></path>
<path d="M 1590.14 836.497 C 1590.65 836.829 1592.53 838.474 1592.58 838.675 C 1594.31 846.544 1595.08 857.288 1599 864.305 C 1617.32 897.119 1635.9 906.236 1669.3 916.399 L 1669.81 918.113 C 1667.1 921.004 1661.75 921.413 1658.01 922.934 C 1624.23 936.673 1600.66 968.981 1592.34 1003.64 C 1591.45 1004.26 1591.04 1004.15 1589.82 1004.38 L 1588.52 1002.56 C 1586.92 974.198 1555.5 938.918 1531.47 926.102 C 1525.87 923.114 1521.04 922.053 1515.9 919.308 C 1515.75 918.752 1515.6 918.197 1515.45 917.641 C 1519.89 914.194 1534.33 910.978 1539.11 908.005 C 1558.81 895.763 1572.89 883.008 1582.93 862.02 C 1588.32 850.75 1586.44 847.83 1590.14 836.497 z" fill="rgb(91,47,21)" transform="translate(0,0)"></path>
<path d="M 1590.7 857.873 C 1592.17 859.591 1597.55 873.427 1601.08 878.482 C 1615.6 899.302 1631.05 909.095 1654.25 918.735 C 1620.87 935.437 1607.12 952.09 1591.77 985.654 L 1591.06 986.212 C 1590.89 986.127 1579.03 963.826 1577.2 961.187 C 1564.52 942.922 1548.87 929.463 1529.45 918.83 C 1532.03 917.832 1534.55 916.695 1537 915.423 C 1561.03 903.067 1582.17 884.071 1590.7 857.873 z" fill="rgb(252,224,170)" transform="translate(0,0)"></path>
<path d="M 186.402 1051.66 C 190.942 1055.01 190.884 1061.89 193.306 1067.35 C 209.255 1103.29 238.328 1113.18 269.858 1127.12 C 229.392 1134.59 205.53 1164.71 189.954 1200.96 C 188.155 1204.53 189.477 1203.64 186.589 1204.8 C 184.284 1202.6 182.787 1194.61 181.447 1190.74 C 175.278 1172.91 161.313 1151.89 144.759 1142.17 C 137.605 1137.97 123.408 1132.78 115.067 1128.79 L 114.666 1127.45 C 118.014 1124.35 134.964 1120.83 141.383 1116.93 C 167.751 1100.89 177.31 1078.41 186.402 1051.66 z" fill="rgb(91,47,21)" transform="translate(0,0)"></path>
<path d="M 187.268 1067.66 C 189.207 1069.84 195.122 1082.51 197.913 1086.31 C 211.654 1104.98 230.699 1116.05 250.799 1126.16 C 221.47 1140.83 204.443 1159.55 189.147 1188.58 C 188.685 1189.69 189.064 1188.95 187.562 1190.5 C 185.262 1186.47 182.217 1178.55 179.404 1173.55 C 165.446 1148.73 154.244 1140.28 129.226 1129.13 C 157.969 1118.83 175.641 1094.64 187.268 1067.66 z" fill="rgb(252,224,170)" transform="translate(0,0)"></path>
<path d="M 751.151 192.612 C 754.15 195.591 758.89 209.236 760.823 214.401 C 768.559 235.075 785.898 248.488 804.738 258.685 C 810.074 261.574 817.438 262.524 823.617 266.409 C 821.44 270.929 800.606 279.583 793.703 284.001 C 787.602 287.844 781.96 292.37 776.885 297.493 C 763.429 311.104 756.357 326.675 747.958 343.545 C 746.89 344.988 746.956 344.707 745.433 345.805 C 742.166 343.73 740.982 335.56 739.864 331.505 C 733.838 309.659 721.305 290.83 701.83 278.841 C 696.887 275.798 681.645 272.494 678.841 268.707 C 680.102 267.039 696.867 260.005 700.212 258.585 C 722.082 249.296 733.776 231.224 742.788 210.115 C 745.097 204.706 747.564 197.783 751.151 192.612 z" fill="rgb(91,47,21)" transform="translate(0,0)"></path>
<path d="M 751.194 207.611 C 763.866 241.55 778.76 252.764 810.846 267.877 C 778.691 284.488 764.52 297.462 748.632 329.965 C 747.784 331.719 747.947 331.296 746.597 332.789 C 743.476 328.937 741.191 315.491 738.55 310.201 C 727.937 288.947 713.688 277.24 692.502 268.46 C 726.206 255.618 736.383 238.713 751.194 207.611 z" fill="rgb(252,224,170)" transform="translate(0,0)"></path>
<path d="M 1424.4 1689.65 C 1427.16 1690.2 1425.97 1689.59 1428.02 1691.64 L 1427.43 1693.53 C 1424.26 1696.34 1391.99 1712.67 1386.46 1715.6 C 1354.07 1732.98 1321.5 1750.02 1288.77 1766.74 C 1266.78 1778.08 1243.38 1790.47 1220.71 1800.24 C 1218 1799.75 1219.07 1800.45 1217.25 1798.47 C 1219.32 1794.9 1267.48 1771.53 1275.01 1767.57 L 1424.4 1689.65 z" fill="rgb(91,47,21)" transform="translate(0,0)"></path>
<path d="M 1817.41 1023.69 C 1828.1 1021.11 1838.88 1027.58 1841.64 1038.22 C 1844.4 1048.86 1838.11 1059.75 1827.51 1062.68 C 1820.5 1064.62 1812.99 1062.63 1807.86 1057.47 C 1802.73 1052.31 1800.78 1044.79 1802.76 1037.79 C 1804.74 1030.79 1810.34 1025.4 1817.41 1023.69 z" fill="rgb(91,47,21)" transform="translate(0,0)"></path>
<path d="M 1821.1 1027.63 C 1826.75 1027.27 1832.14 1029.98 1835.22 1034.73 C 1838.29 1039.48 1838.56 1045.51 1835.93 1050.52 C 1833.29 1055.52 1828.16 1058.71 1822.5 1058.85 C 1813.99 1059.07 1806.87 1052.44 1806.49 1043.93 C 1806.1 1035.42 1812.6 1028.17 1821.1 1027.63 z" fill="rgb(252,224,170)" transform="translate(0,0)"></path>
<path d="M 1212.52 183.064 C 1219.4 181.138 1226.79 183.11 1231.79 188.21 C 1236.85 193.361 1238.67 200.872 1236.52 207.764 C 1234.38 214.655 1228.63 219.813 1221.54 221.189 C 1211.22 223.196 1201.15 216.696 1198.72 206.459 C 1196.3 196.223 1202.39 185.899 1212.52 183.064 z" fill="rgb(91,47,21)" transform="translate(0,0)"></path>
<path d="M 1216.58 188.048 C 1219.32 187.968 1222.02 188.118 1224.53 189.332 C 1228.07 191.01 1230.69 194.158 1231.7 197.941 C 1234.31 207.716 1227.64 213.789 1218.82 215.901 C 1198.25 213.033 1197.29 193.841 1216.58 188.048 z" fill="rgb(251,244,231)" transform="translate(0,0)"></path>
<path d="M 535.803 771.33 C 573.402 801.246 613.514 827.859 655.692 850.873 C 664.961 855.974 718.759 881.541 721.002 885.403 L 719.46 886.861 C 713.733 886.282 700.249 879.181 694.475 876.455 C 645.507 853.343 597.985 825.49 554.732 792.87 C 550.097 789.374 537.265 780.158 534.137 775.973 L 533.581 774.752 L 535.803 771.33 z" fill="rgb(91,47,21)" transform="translate(0,0)"></path>
<path d="M 1754.25 1554.55 C 1778.88 1558.74 1820.32 1534.63 1839.48 1521.08 C 1844.59 1517.46 1862.57 1501.9 1866.06 1501.57 C 1873.85 1516.15 1755.21 1581.68 1750.09 1552.45 L 1754.25 1554.55 z" fill="url(#Gradient1)" transform="translate(0,0)"></path>
<path d="M 612.196 1825.54 L 616.739 1823.67 L 618.609 1824.71 L 619.256 1827.06 C 613.073 1832.7 571.691 1847.1 562.124 1852.15 C 559.53 1853.52 558.156 1853.23 555.936 1852.22 L 556.022 1850.46 C 561.24 1844.62 602.809 1828.59 612.196 1825.54 z" fill="rgb(91,47,21)" transform="translate(0,0)"></path>
<path d="M 270.269 1660.74 C 254.43 1666.75 229.565 1677 213.258 1678.44 L 212.284 1676.78 C 222.677 1669.8 252.56 1661.24 265.911 1656.93 C 268.604 1658.41 268.659 1658.19 270.269 1660.74 z" fill="rgb(91,47,21)" transform="translate(0,0)"></path>
<metadata><recraft-signature>{"signed_by": "recraft", "signature_b64": "QaJtgF9YgsdJdB+3h274/a7A0hjGei6wgl9lFnEdNidJu3cCKPcxl7byVHVCYz6SkxcbgBEm4kDDrZZDUh2xAg==", "signing_algo": "Ed25519", "generation_timestamp": 1778091871, "identifier": "32ba1169-1722-4fcb-bafd-356d68bb3a4f"}</recraft-signature></metadata></svg>