<svg xmlns="http://www.w3.org/2000/svg" height="1024" preserveAspectRatio="none" style="display: block;" version="1.1" viewBox="0 0 2048 2048" width="1024">
<path d="M 0 0 L 2048 0 L 2048 2048 L 0 2048 L 0 0 z" fill="rgb(253,243,220)" transform="translate(0,0)"></path>
<path d="M 1334.64 209.635 C 1335.5 207.526 1336.46 205.456 1337.5 203.429 C 1352.81 173.081 1373.32 145.649 1398.1 122.377 C 1403.66 117.19 1413.31 106.682 1420.81 110.717 C 1424.12 113.27 1469.15 112.338 1476.35 112.342 L 1577.07 112.306 L 1809.57 112.069 C 1854.87 112.021 1901.79 111.478 1947.01 112.295 L 1946.97 326.934 C 1946.97 337.101 1945.9 400.401 1947.82 406.101 C 1947.61 410.702 1948.53 409.048 1945.96 411.735 C 1908.99 422.46 1879.84 433.473 1846.05 452.164 C 1795.97 479.857 1752.62 511.075 1694.55 521.039 C 1665.81 526.305 1636.46 526.675 1607.54 523.538 C 1582.38 520.81 1548.67 510.308 1523.76 515.335 C 1506.14 518.891 1484.98 532.149 1464.97 536.733 C 1438.95 542.692 1420.46 548.739 1395.25 533.901 C 1368.36 518.776 1355.94 502.64 1337.87 479.098 C 1285.51 522.075 1219.71 591.345 1159.98 621.651 C 1169.84 639.291 1182.44 655.378 1191.89 673.185 C 1195.61 680.199 1195.51 684.419 1194.8 692.179 C 1220.26 729.414 1244.93 767.361 1271.31 803.918 C 1303.15 848.038 1333.31 892.664 1363.31 938.009 C 1426.6 917.851 1495.67 899.194 1559.71 881.395 L 1709.17 838.715 L 1859.73 794.846 C 1885.44 787.266 1911.56 779.55 1937.34 772.057 C 1940.96 771.006 1943.43 771.294 1946.95 772.294 L 1947.26 773.77 C 1941.06 779.991 1919.13 784.581 1910.37 787.317 C 1877.61 797.396 1844.74 807.12 1811.78 816.485 L 1538.88 894.721 C 1485.81 909.652 1419.84 926.601 1368.84 944.213 L 1503.21 1135.69 C 1514.22 1151.72 1548.88 1200.34 1555.23 1215.3 C 1550.52 1231.73 1542.54 1249.17 1536.54 1265.38 C 1542.98 1279.65 1550.07 1294.14 1555.86 1308.5 C 1582.43 1374.39 1594 1446.33 1582.42 1516.87 C 1581.56 1522.08 1580.8 1527.49 1579.48 1532.63 C 1585.98 1536.92 1616.18 1557.55 1620.64 1562.52 C 1620.36 1565.3 1620.88 1564.12 1619.06 1566.2 C 1611.08 1565.29 1586.68 1544.75 1577.39 1538.83 C 1573.09 1551.07 1569.3 1561.91 1563.28 1573.53 C 1571.06 1579.24 1612 1608.7 1614.95 1613.83 L 1615.01 1615.77 C 1608.45 1619.14 1567.45 1584.35 1560.72 1579.02 C 1554.3 1589.9 1547.03 1602.49 1539.26 1612.36 C 1546.7 1617.33 1594.84 1652.55 1598.48 1657.49 L 1597.61 1659.7 C 1596.17 1660.32 1595 1661.13 1593.21 1659.99 C 1574.59 1648.1 1553.54 1628.44 1535.05 1617.15 C 1528.78 1624.86 1516.59 1640.55 1509.05 1646.08 L 1505.96 1646.24 C 1504.02 1648.86 1504.73 1647.38 1504.37 1651.09 C 1493.88 1660.74 1483.12 1670.08 1472.08 1679.11 C 1479.49 1685.1 1533.36 1726.82 1535.01 1730.29 L 1534.9 1731.61 C 1532.6 1732.72 1531.4 1732.71 1528.95 1731.84 C 1523.78 1729.99 1473.64 1689.55 1466.06 1683.22 C 1463.49 1684.92 1459.78 1687.53 1457.15 1688.79 C 1450.65 1688.98 1426.39 1707.58 1419.45 1712 L 1418.89 1713.14 C 1413.26 1718.51 1384.75 1733.57 1376.96 1737.68 C 1385.83 1744.36 1442.13 1784.38 1444.07 1791.95 L 1442.93 1793.74 C 1435.95 1793.98 1379.34 1746.92 1371.3 1739.73 C 1357.11 1746.41 1342.82 1752.87 1328.44 1759.12 C 1344.68 1771.82 1360.15 1785.35 1376.91 1797.43 C 1383.09 1801.89 1394.03 1807.62 1393.71 1816.22 L 1392.34 1817.19 C 1388.08 1816.07 1329.39 1767.83 1321.6 1761.14 C 1305.49 1767.67 1289.1 1773.45 1272.46 1778.48 C 1295.43 1795.54 1317.34 1814.06 1340.8 1830.49 C 1342.6 1831.75 1343.53 1833.59 1343.99 1835.67 C 1342.61 1838.19 1343.65 1837.39 1341.15 1838.48 C 1336.4 1836.01 1320.91 1823.74 1316.04 1820.03 C 1298.53 1806.68 1282 1793.48 1263.82 1780.93 C 1247.11 1785.68 1228.59 1789.97 1212.42 1795.34 C 1220.36 1803.2 1230.94 1810.24 1239.92 1817.04 C 1250.55 1825.2 1261.06 1833.51 1271.46 1841.96 C 1275.43 1845.16 1284.6 1852.12 1287.37 1855.54 L 1286.3 1857.49 C 1274.05 1855.74 1261.79 1842.62 1252 1834.64 C 1236.91 1822.34 1219.01 1810.81 1205.58 1796.95 C 1185.58 1801.1 1165.54 1805 1145.44 1808.64 C 1155.69 1816.73 1223.48 1865.84 1225.99 1872.56 L 1225.09 1874.75 C 1220.85 1875.28 1215.24 1871.43 1212.24 1868.49 C 1191.23 1847.94 1157.78 1829.56 1137.67 1809.6 C 1116.05 1813.76 1098.23 1815.67 1077.15 1819.05 C 1088.76 1827.85 1153.51 1879.41 1156.91 1887.21 C 1147.91 1886.73 1132.17 1871.92 1125.2 1865.39 C 1108.95 1850.16 1083.96 1835.65 1069.05 1819.78 C 1051.13 1821.29 1022.94 1822.76 1005.83 1825.2 C 1028.54 1845.5 1052.32 1864.73 1075.58 1884.41 C 1079.97 1888.13 1083.3 1889.92 1087.02 1894.6 C 1086.94 1897.8 1087.53 1896.51 1085.34 1898.64 C 1080.06 1898.56 1006.45 1833.76 996.836 1825.67 C 975.71 1826.45 954.575 1826.93 933.436 1827.09 C 955.49 1845.76 976.501 1865.77 998.39 1884.65 C 1003.14 1888.74 1013.31 1896.57 1015.17 1902.35 L 1014.17 1903.61 C 1010.88 1903.4 1009.71 1902.87 1006.85 1900.27 C 992.074 1886.88 975.35 1872.86 960.832 1859.41 C 952.437 1851.63 931.749 1834.75 925.171 1827.31 C 909.621 1826.68 874.206 1826.14 859.957 1824.24 C 869.66 1833.68 938.663 1894.95 940.102 1900.72 L 939.644 1902.43 C 931.522 1903.23 874.28 1844.05 863.476 1836.09 C 861.553 1834.67 851.568 1825.24 849.612 1823.28 C 827.284 1821.99 800.479 1816.89 780.104 1815.97 C 778.747 1819.78 779.963 1818.54 776.71 1820.16 L 770.014 1813.54 C 750.642 1811.57 711.959 1803.67 692.801 1799.3 L 755.064 1857.6 C 761.39 1863.55 781.401 1881.87 785.469 1887.65 L 785.025 1889.65 L 783.424 1890.3 C 780.784 1889.65 778.338 1888.3 776.386 1886.39 C 745.862 1856.4 712.576 1827.9 682.593 1797.49 C 652.582 1791 620.849 1781.14 591.551 1771.9 C 601.026 1782.84 616.265 1796.09 627.139 1805.95 C 643.181 1820.36 659.025 1834.99 674.666 1849.84 C 679.912 1854.8 696.973 1868.57 696.628 1874.48 C 691.92 1874.33 686.535 1869.63 683.009 1866.32 C 647.973 1833.45 612.747 1800.5 577.117 1768.34 C 573.331 1764.92 552.225 1757.97 546.211 1755.64 C 535.636 1751.52 525.192 1747.08 514.895 1742.31 C 495.014 1733.15 475.756 1723.29 457.247 1711.59 C 445.289 1704.02 434.479 1695.67 422.738 1687.83 L 422.58 1688.27 C 460.984 1722.41 498.9 1757.09 536.315 1792.31 C 550.831 1805.86 566.079 1819.7 580.487 1833.44 C 582.486 1835.35 582.034 1835.26 581.883 1837.44 L 579.83 1838.74 C 574.683 1837.94 535.221 1799.69 528.676 1793.57 L 459.868 1730.28 L 346.928 1626.56 C 339.954 1620.17 291.593 1578.87 291.214 1573.47 L 293.209 1572.75 C 300.724 1574.79 338.11 1609.54 345.868 1617.01 L 348.506 1616.07 C 331.252 1595.23 319.051 1569.37 310.415 1543.78 C 308.205 1537.24 305.426 1522.78 302.699 1517.6 C 302.487 1515.07 302.67 1513.36 302.846 1510.85 C 298.354 1479.6 296.729 1449.4 301.703 1418.06 C 312.823 1347.99 342.394 1282.07 378.777 1221.67 C 319.61 1234.95 260.494 1255.48 201.704 1270.51 C 188.591 1273.86 96.4928 1303.67 90.5305 1300.51 L 91.3362 1298.65 C 98.2153 1293.57 155.671 1276.43 163.951 1276.26 C 166.826 1274.59 167.63 1273.99 170.915 1273.04 C 186.996 1267.26 205.123 1262.8 221.747 1258.35 C 275.873 1243.89 329.877 1226.59 384.098 1212.77 C 395.844 1196.9 415.219 1171.95 428.648 1158.1 C 472.006 1113.39 525.843 1074.2 580.753 1045.3 C 664.534 1000.53 754.91 976.864 848.726 965.626 C 916.24 957.539 980.461 952.507 1048.74 958.205 C 1101.33 962.595 1143.54 973.811 1193.45 989.331 C 1181.13 973.161 1168.52 958.386 1156.63 941.466 C 1142.63 921.53 1128.49 901.369 1114.97 881.115 C 1106.2 867.988 1091.52 849.64 1085.17 836.014 C 1088 831.659 1094.21 824.737 1097.72 820.393 C 1120.06 792.774 1136.47 763.234 1132.64 726.859 C 1119.58 728.45 1113.74 727.734 1105.19 716.907 C 1089.03 696.449 1074.75 673.479 1060.21 651.888 L 980.527 534.19 C 972.286 587.557 979.888 685.323 1038.72 710.612 C 1044.57 713.126 1062.97 717.402 1067.35 720.837 C 1079 729.969 1067.31 739.693 1056.03 739.203 C 1027.92 741.466 1007.97 726.821 983.784 715.945 C 978.319 713.83 971.619 714.283 966.034 713.112 C 921.359 703.744 904.028 667.24 900.717 625.023 C 854.706 561.611 887.452 515.67 935.108 468.114 C 913.436 436.645 892.437 404.409 870.213 373.231 C 847.391 341.214 824.962 308.891 802.844 276.384 C 792.355 260.967 788.311 246.576 792.331 227.987 C 796.227 210.602 806.834 195.46 821.843 185.86 C 851.288 167.221 885.89 172.232 905.394 202.822 C 915.745 219.056 926.456 235.513 936.778 251.835 L 1026.97 396.661 C 1070.32 376.391 1116.39 360.928 1161.55 345.197 C 1180.02 338.761 1238.86 323.992 1250.69 314.632 C 1269.55 299.725 1269.18 287.36 1279.27 267.822 C 1291.69 243.788 1312.42 224.455 1334.64 209.635 z" fill="rgb(77,28,0)" transform="translate(0,0)"></path>
<path d="M 1420.81 110.717 C 1424.12 113.27 1469.15 112.338 1476.35 112.342 L 1577.07 112.306 L 1809.57 112.069 C 1854.87 112.021 1901.79 111.478 1947.01 112.295 L 1946.97 326.934 C 1946.97 337.101 1945.9 400.401 1947.82 406.101 C 1940.55 405.767 1924.13 410.666 1917.25 412.994 C 1891.96 421.656 1867.47 432.498 1844.05 445.399 C 1793.35 473.565 1749.03 505.242 1690.08 514.98 C 1645.12 522.405 1604.79 516.093 1560.68 508.904 C 1551.07 507.338 1539.7 508.127 1529.84 507.444 C 1553.91 492.124 1569.04 479.407 1580.11 452.551 C 1598.27 408.511 1592.87 363.242 1575.02 320.166 C 1554.2 269.272 1513.64 228.987 1462.61 208.505 C 1425.09 193.274 1383.44 188.273 1345.52 204.293 C 1373.14 156.624 1379.99 148.158 1420.81 110.717 z" fill="rgb(147,141,116)" transform="translate(0,0)"></path>
<path d="M 1898.9 299.603 C 1901.82 301.232 1902.36 301.381 1902.7 304.257 C 1899.14 309.756 1882.62 324.274 1876.95 329.068 C 1823.67 373.357 1760.64 404.369 1693.04 419.556 C 1690.1 418.402 1689.8 417.478 1688.86 415.329 C 1691.71 409.457 1702.13 409.661 1708.52 408.17 C 1717.61 405.975 1726.6 403.355 1735.45 400.318 C 1797.69 379.048 1851.39 344.701 1898.9 299.603 z" fill="rgb(77,28,0)" transform="translate(0,0)"></path>
<path d="M 348.506 1616.07 C 351.513 1619.7 354.571 1623.28 357.678 1626.82 L 356.94 1628.24 L 358.138 1627.39 L 359.031 1629.15 C 356.43 1627.97 348.335 1619.45 345.868 1617.01 L 348.506 1616.07 z" fill="rgb(191,149,108)" transform="translate(0,0)"></path>
<path d="M 1117.99 1050.95 C 1119.22 1050.84 1120.45 1050.81 1121.67 1050.86 C 1132.43 1051.41 1160.32 1060.14 1171.47 1063.58 C 1254.54 1088.55 1332.03 1129.24 1399.75 1183.43 C 1410.61 1192.24 1433.74 1211.1 1442.66 1222.18 C 1456.76 1239.67 1470.77 1270.23 1486.29 1288.37 C 1492.58 1295.72 1496.77 1306.13 1503.96 1313.6 C 1515.84 1317.05 1528.2 1282.49 1532.14 1273.75 C 1548.96 1301.38 1564.16 1352.09 1571.41 1383.72 C 1559.19 1407.25 1550.51 1424.43 1535.53 1446.33 C 1475.38 1534.32 1375.49 1591.5 1277.46 1627.66 C 1051.76 1710.89 769.39 1715.77 549.369 1611.59 C 469.829 1573.92 394.548 1524.42 342.067 1452.15 C 331.083 1437.02 318.89 1418.63 312.518 1401.24 C 313.232 1397.76 313.967 1394.29 314.724 1390.82 C 328.554 1327.65 361.883 1259.33 398.394 1206.02 C 403.531 1198.52 417.369 1180.35 424.807 1176.71 C 459.951 1159.47 532.175 1150.99 569.522 1159.96 C 529.558 1210.14 503.051 1257.25 485.418 1319.18 C 472.375 1363.26 466.149 1411.22 471.584 1457.56 C 471.988 1461 473.001 1465.38 475.978 1467.45 L 478.199 1467.05 C 484.563 1459.28 499.968 1404.26 505.946 1389.93 C 536.143 1317.57 571.219 1248.46 618.864 1185.86 C 623.179 1180.2 631.942 1166.59 637.856 1164.75 C 647.89 1161.63 666.358 1161.87 677.112 1162.1 C 729.21 1163.22 808.354 1170.38 856.495 1191.35 C 853.102 1197.28 847.173 1204.75 842.848 1209.83 C 767.103 1298.83 722.669 1416.76 719.652 1533.45 C 719.413 1542.71 718.752 1573.75 724.615 1579.77 C 726.706 1579.41 728.016 1578.28 728.792 1576.23 C 734.874 1560.14 740.449 1539.56 745.596 1523.17 C 772.833 1436.43 812.187 1359.07 867.119 1286.69 C 883.646 1264.91 910.491 1230.19 932.652 1214.27 L 933.813 1213.45 C 963.708 1215.79 990.176 1224.48 1017.83 1235.27 C 1106.03 1269.69 1185.84 1317.99 1260.66 1375.6 C 1273.3 1385.38 1285.58 1395.62 1297.48 1406.29 C 1302.06 1410.45 1322.41 1430.37 1325.52 1432.07 C 1328.63 1431.56 1327.39 1432.3 1329.33 1429.73 C 1328.84 1425.88 1327.41 1423.41 1325.54 1420.05 C 1260.13 1302.84 1108.99 1192.99 980.506 1157.17 C 1010.49 1126.14 1080.49 1072.04 1117.99 1050.95 z" fill="rgb(253,243,220)" transform="translate(0,0)"></path>
<path d="M 1572.58 1395.72 C 1574.97 1398.19 1576.4 1409.61 1576.88 1413.38 C 1580.7 1447.57 1582.49 1491.68 1574.11 1525.05 C 1541.07 1656.69 1384.19 1737.49 1267.15 1772.44 C 1057.89 1834.93 831.428 1834.7 622.77 1774.17 C 500.287 1738.64 353.934 1663.94 314.651 1533.45 C 304.084 1494.03 304.233 1451.43 309.812 1411.29 C 349.541 1500.95 459.226 1576.93 545.193 1617.42 C 763.904 1720.21 1030.24 1718.09 1256.82 1642.38 C 1389.79 1597.95 1509.41 1525.05 1572.58 1395.72 z" fill="rgb(240,205,150)" transform="translate(0,0)"></path>
<path d="M 885.468 970.995 C 901.412 969.842 917.584 966.842 933.78 965.864 C 1003.67 961.643 1082.92 963.839 1150.31 984.054 C 1139.43 987.438 1106.54 997.326 1097.32 1002.72 L 1100.07 1006.5 C 1104.25 1007.21 1155.74 990.618 1165.18 988.21 C 1176.24 991.075 1191.31 996.919 1202.01 1001.09 C 1192.25 1002.96 1159.85 1012.77 1155.18 1021.2 C 1155.3 1023.4 1155.11 1024.39 1157.74 1025.46 C 1187.46 1037.63 1223.48 1046.22 1252.62 1059.13 C 1281.15 1071.77 1337.18 1092.55 1359.95 1112.86 C 1379.82 1130.58 1409.32 1173.89 1425.34 1196.01 C 1416.34 1187.35 1406.93 1180.77 1397.58 1173 C 1344.08 1128.57 1288.04 1099.42 1223.44 1074.53 C 1188.11 1060.91 1156.87 1049.2 1118.7 1042.04 C 1093.77 1055.35 976.207 1139.48 971.518 1159.61 C 973.903 1162.77 994.387 1168.63 1000.04 1170.54 C 1030.23 1180.56 1059.43 1193.34 1087.26 1208.73 C 1172.9 1256.22 1254.26 1323.53 1308.32 1405.74 C 1278.01 1381.23 1249.2 1357.01 1216.83 1334.01 C 1156.77 1291.32 1004.43 1205.82 932.343 1206.94 C 911.766 1218.13 886.863 1250.08 872.108 1268.66 C 814.011 1341.82 769.421 1423.52 741.748 1512.83 C 736.968 1528.26 732.43 1544.5 727.001 1559.77 C 723.02 1442.28 765.91 1314.22 841.145 1223.48 C 847.771 1215.48 861.134 1199.44 865.147 1190.94 C 864.906 1188.99 864.264 1187.28 862.294 1186.46 C 799.539 1160.18 697.998 1149.01 633.142 1157.37 C 624.649 1165.7 604.485 1194.09 597.388 1204.21 C 557.72 1260.98 525.115 1322.37 500.293 1387.03 C 491.967 1408.81 484.946 1432.07 477.337 1454.27 C 472.823 1375.78 491.773 1291.18 532.873 1223.97 C 540.104 1212.3 547.666 1200.83 555.55 1189.59 C 560.801 1182.2 572.458 1167.19 575.659 1159.67 C 572.581 1149.89 557.4 1150.26 548.676 1149.68 C 508.312 1147.04 470.102 1153.66 431.831 1166.32 C 456.954 1141.71 515.12 1124.55 550.385 1118.86 C 566.066 1116.33 596.268 1115.66 613.179 1114.95 C 615.513 1111.75 617.902 1108.58 620.345 1105.46 C 655.383 1061.21 714.02 1018.58 764.787 995.553 C 770.471 992.976 778.292 985.748 783.373 984.54 C 809.141 978.414 838.202 974.757 864.32 971.655 C 868.827 968.945 880.87 967.935 885.468 970.995 z" fill="rgb(240,205,150)" transform="translate(0,0)"></path>
<path d="M 885.468 970.995 C 901.412 969.842 917.584 966.842 933.78 965.864 C 1003.67 961.643 1082.92 963.839 1150.31 984.054 C 1139.43 987.438 1106.54 997.326 1097.32 1002.72 C 1094.13 1003.26 1092.69 1003.12 1089.48 1003.14 C 1089.39 1006.07 1089.66 1006.88 1088.2 1009.4 C 1082.21 1011.68 1077.1 1007.71 1071.03 1005.89 C 1060.39 1002.67 1050.6 1000.88 1039.73 998.007 C 978.888 981.891 915.323 980.333 852.882 984.378 C 847.877 984.702 831.391 993.739 826.22 996.395 C 901.056 987.891 975.408 1001.16 1047.58 1020.72 C 1052.42 1022.03 1062.01 1024.18 1064.37 1028.35 C 1062.82 1034.21 1039.85 1048.27 1033.55 1052.57 C 989.523 1082.61 957.99 1112.35 921.37 1149.99 C 872.591 1133.25 845.712 1126.14 793.315 1118.56 C 771.376 1115.42 749.292 1113.39 727.148 1112.5 C 718.545 1112.07 683.168 1111.48 678.213 1108.4 C 678.532 1105.36 680.181 1103.4 682.078 1101.08 C 712.281 1064.21 816.751 978.941 861.464 974.396 L 864.32 971.655 C 868.827 968.945 880.87 967.935 885.468 970.995 z" fill="rgb(77,28,0)" transform="translate(0,0)"></path>
<path d="M 885.468 970.995 C 901.412 969.842 917.584 966.842 933.78 965.864 C 1003.67 961.643 1082.92 963.839 1150.31 984.054 C 1139.43 987.438 1106.54 997.326 1097.32 1002.72 C 1094.13 1003.26 1092.69 1003.12 1089.48 1003.14 C 1059.93 995.867 1029.77 987.644 999.8 982.421 C 962.815 975.976 925.273 974.755 887.806 975.469 C 885.007 974.169 886.166 975.148 884.572 972.063 L 885.468 970.995 z" fill="rgb(253,243,220)" transform="translate(0,0)"></path>
<path d="M 864.32 971.655 C 868.827 968.945 880.87 967.935 885.468 970.995 L 884.572 972.063 C 880.604 972.278 872.574 972.407 870.406 976.182 C 867.535 977.91 864.327 975.652 861.464 974.396 L 864.32 971.655 z" fill="rgb(91,40,0)" transform="translate(0,0)"></path>
<path d="M 870.406 976.182 C 872.574 972.407 880.604 972.278 884.572 972.063 C 886.166 975.148 885.007 974.169 887.806 975.469 L 870.406 976.182 z" fill="rgb(240,205,150)" transform="translate(0,0)"></path>
<path d="M 857.545 1001.43 C 907.928 998.825 1007.31 1012.2 1054.24 1030.73 C 998.97 1065.18 963.856 1095.82 919.59 1142.4 C 912.685 1139.66 905.73 1137.05 898.727 1134.58 C 834.018 1112.41 757.156 1105.43 689.276 1103.85 C 712.143 1071.75 773.82 1028.21 807.208 1007.27 C 811.984 1004.27 849.445 1001.94 857.545 1001.43 z" fill="rgb(253,243,220)" transform="translate(0,0)"></path>
<path d="M 1139.02 722.181 C 1143.54 718.866 1151.08 712.951 1154.35 708.351 C 1160.28 700.021 1170.44 675.422 1182.34 674.935 C 1190.04 678.514 1187.22 684.845 1185.51 691.38 C 1197.08 710.184 1211.95 730.551 1224.67 749.059 C 1249.51 785.693 1274.73 822.062 1300.34 858.161 L 1397.41 998.799 C 1448.48 1071.72 1497.96 1140.68 1547.63 1214.87 C 1538.94 1241.99 1523.29 1281.27 1507.81 1305.55 C 1513.51 1281.38 1528.76 1242.92 1538.08 1219.55 C 1533.73 1208.66 1522.32 1193.64 1515.31 1183.57 L 1473.59 1124.44 L 1297.16 874 L 1207.18 743.573 C 1202.61 736.954 1178.81 701.026 1175.38 697.672 C 1172.06 697.003 1173.49 696.683 1170.89 698.133 C 1169.94 703.11 1175.3 710.783 1178.17 714.972 L 1397.35 1029.88 C 1441.3 1092.11 1488.16 1155.4 1530.07 1218.9 C 1527.18 1225.84 1524.4 1233.04 1522.12 1240.2 C 1515.87 1259.85 1507.89 1278.66 1502.36 1298.53 C 1498.82 1293.6 1494.75 1288.28 1491.79 1283.05 L 1487.42 1279.85 L 1488.08 1278.55 C 1487.14 1275.74 1481.19 1267.48 1479.16 1264.51 C 1484.8 1262.28 1489.91 1260.84 1494.26 1256.77 C 1485.37 1250.93 1480.28 1260.41 1474.21 1259.07 C 1457.75 1235.21 1442.27 1210.7 1425.58 1186.95 C 1421.28 1180.83 1396.89 1149.33 1396.52 1143.79 C 1396.1 1142.87 1391.34 1136.39 1390.44 1135.14 L 1387.8 1130.74 C 1383.21 1127.7 1371.68 1111.61 1367.56 1106.24 L 1368.83 1105.09 C 1371.99 1102.14 1372.45 1101.28 1372.57 1097.5 L 1370.76 1096.09 C 1366.51 1095.5 1364.53 1096.8 1360.37 1098.45 C 1356.54 1093.48 1352.55 1088.5 1348.66 1083.56 C 1351.97 1079.85 1353.04 1080.43 1353.99 1076.5 C 1352.48 1073.35 1353.57 1074.58 1350.56 1072.71 C 1346.76 1073.35 1346.15 1075.09 1342.97 1078.27 C 1337.84 1073.22 1332.64 1068.25 1327.36 1063.36 C 1326.59 1062.86 1325.38 1061.49 1324.68 1060.77 C 1318.3 1054.66 1314.41 1051.16 1307.42 1045.84 C 1312.6 1043.48 1315.27 1043.52 1315.94 1037.75 C 1313.77 1035.02 1315.17 1036.02 1311.21 1035.25 C 1307.06 1036.04 1305.68 1038.18 1302.48 1041.31 C 1295.6 1035.52 1288.36 1032.2 1282.98 1027.82 L 1280.08 1025.73 C 1274.97 1024.62 1266.88 1022.15 1265.39 1016.84 C 1266.67 1013.6 1267.17 1013.54 1266.88 1010.31 C 1255.48 1003.72 1255.76 1021 1248.26 1010.3 C 1247.91 1006.96 1247.85 1005.96 1246.98 1002.63 L 1245.15 1001.82 C 1240.93 1002.56 1240.49 1003.3 1237.01 1006.11 C 1233.6 1004.57 1230.16 1003.08 1226.69 1001.66 C 1223.44 1000.33 1223.98 1001.06 1221.81 998.532 C 1223.14 997.026 1223.88 996.458 1225.46 995.249 L 1225.11 992.471 C 1222.32 989.221 1223.97 990.366 1219.99 988.866 C 1215.66 989.952 1216.11 990.65 1212.34 994.221 C 1208.86 991.4 1201.46 986.149 1200.37 982.383 L 1202.72 981.238 C 1198.9 980.618 1199.08 980.7 1195.83 978.602 C 1192.13 974.756 1186.38 970.267 1185.28 965.716 C 1186.39 962.196 1186.69 963.053 1191.03 960.545 C 1185.08 961.175 1184.84 962.205 1181 957.667 C 1177.4 956.439 1171.78 947.727 1169.12 944.107 C 1167.98 941.932 1166.98 941.021 1165.39 939.145 C 1162.36 935.289 1153.53 924.873 1152.1 921.024 C 1153.44 912.131 1164.18 913.431 1159.96 907.102 C 1154.31 904.831 1150.54 910.112 1147.12 914.179 L 1094.68 836.807 C 1119.19 805.388 1148.92 764.537 1139.02 722.181 z" fill="rgb(253,243,220)" transform="translate(0,0)"></path>
<path d="M 1494.26 1256.77 C 1485.37 1250.93 1480.28 1260.41 1474.21 1259.07 C 1457.75 1235.21 1442.27 1210.7 1425.58 1186.95 C 1421.28 1180.83 1396.89 1149.33 1396.52 1143.79 C 1399.4 1146.95 1401.66 1148.97 1403.38 1152.91 L 1405.12 1155.71 C 1407.59 1159.94 1417.89 1173.56 1421.53 1176.69 C 1425.65 1172.32 1422.49 1172.42 1426.96 1170.56 C 1430.38 1172.34 1429.06 1171.09 1431 1174.49 C 1430.62 1178.34 1428.46 1179.05 1424.92 1182.32 L 1436.33 1200.18 C 1437.32 1201.85 1437.22 1201.99 1438.56 1203.32 L 1449.3 1217.71 C 1452.36 1215.68 1455.57 1212.86 1458.99 1213.14 C 1461.56 1215.65 1460.76 1214.14 1461.16 1217.99 C 1459.28 1221.47 1457.67 1221.05 1453.32 1223.53 C 1454.5 1227.42 1460.72 1236.84 1463.64 1239.43 L 1464.2 1239.34 C 1466.5 1235.64 1466.59 1235.05 1470.23 1233 C 1474.52 1232.68 1472.7 1232.15 1476.04 1234 C 1476.79 1237 1476.86 1235.49 1475.25 1238.65 C 1472.02 1240.95 1471.68 1241.24 1468.11 1242.81 L 1467.36 1243.97 C 1469.71 1248.8 1471.88 1252.87 1474.47 1257.54 C 1481.51 1254.84 1489.63 1249.44 1494.26 1256.77 z" fill="rgb(66,16,0)" transform="translate(0,0)"></path>
<path d="M 1324.68 1060.77 C 1326.98 1057.02 1327.78 1054.8 1331.48 1052.76 C 1335.04 1052.41 1333.43 1052.04 1336.49 1053.87 C 1337.87 1057.57 1337.76 1055.73 1336.82 1059.58 C 1333.75 1063.26 1331.85 1063.3 1327.36 1063.36 C 1326.59 1062.86 1325.38 1061.49 1324.68 1060.77 z" fill="rgb(91,40,0)" transform="translate(0,0)"></path>
<path d="M 1280.08 1025.73 C 1278.9 1022.62 1279.19 1022.67 1279.88 1019.32 C 1282.6 1016.82 1281.03 1017.71 1284.96 1016.92 C 1288.34 1017.93 1288.53 1017.73 1291 1020.4 C 1291.58 1023.27 1291.67 1021.89 1290.28 1024.56 C 1287.64 1026.18 1286.05 1027.52 1282.98 1027.82 L 1280.08 1025.73 z" fill="rgb(66,16,0)" transform="translate(0,0)"></path>
<path d="M 1403.38 1152.91 C 1405.68 1148.85 1408.87 1143.31 1414.1 1145.76 C 1415.41 1149.51 1415.35 1147.67 1414.27 1151.49 C 1411.89 1154.17 1408.93 1156.44 1405.12 1155.71 L 1403.38 1152.91 z" fill="rgb(66,16,0)" transform="translate(0,0)"></path>
<path d="M 1436.33 1200.18 C 1438.44 1195.37 1437.49 1195.58 1441.13 1192.87 C 1444.73 1192.71 1443.24 1192.16 1445.84 1194.34 C 1446.35 1197.93 1446.59 1196.23 1444.94 1199.59 C 1442.15 1201.58 1441.81 1201.93 1438.56 1203.32 C 1437.22 1201.99 1437.32 1201.85 1436.33 1200.18 z" fill="rgb(66,16,0)" transform="translate(0,0)"></path>
<path d="M 1165.39 939.145 C 1167.73 935.994 1168.27 934.749 1171.84 933.033 L 1174.45 933.085 C 1176.51 935.662 1175.96 934.158 1175.57 937.933 C 1173.4 941.162 1172.18 941.808 1169.12 944.107 C 1167.98 941.932 1166.98 941.021 1165.39 939.145 z" fill="rgb(77,28,0)" transform="translate(0,0)"></path>
<path d="M 1195.83 978.602 C 1198.84 975.439 1200.82 972.544 1204.88 971.449 L 1207.67 971.974 C 1209.41 976.021 1205.92 979.065 1202.72 981.238 C 1198.9 980.618 1199.08 980.7 1195.83 978.602 z" fill="rgb(66,16,0)" transform="translate(0,0)"></path>
<path d="M 1387.8 1130.74 C 1390.55 1127.95 1392.71 1125.02 1396.45 1124.32 L 1398.54 1125.26 C 1399.46 1130.8 1394.89 1133.13 1390.44 1135.14 L 1387.8 1130.74 z" fill="rgb(77,28,0)" transform="translate(0,0)"></path>
<path d="M 1488.08 1278.55 C 1491.36 1274.89 1489.95 1275.46 1494.14 1274.2 C 1497.92 1275.18 1496.71 1274.11 1498.38 1276.94 C 1497.28 1281.31 1495.83 1281.29 1491.79 1283.05 L 1487.42 1279.85 L 1488.08 1278.55 z" fill="rgb(66,16,0)" transform="translate(0,0)"></path>
<path d="M 1181 957.667 C 1184.74 954.968 1187.9 952.44 1192.55 954.971 C 1193.74 957.37 1192.78 958.587 1191.03 960.545 C 1185.08 961.175 1184.84 962.205 1181 957.667 z" fill="rgb(66,16,0)" transform="translate(0,0)"></path>
<path d="M 1314.85 283.228 C 1334.96 281.686 1353.91 290.311 1371.04 299.96 C 1401.63 317.189 1424.66 344.21 1440.85 375.043 L 1301.9 500.459 C 1253.18 543.799 1205.18 592.158 1145.27 619.915 C 1135.97 624.221 1109.87 635.866 1103.89 622.4 C 1103.19 614.593 1111.78 604.642 1116.48 598.828 C 1125.74 587.386 1134.03 575.695 1142.32 563.543 C 1152.66 548.032 1213.21 455.769 1206.06 439.928 C 1205.74 439.817 1205.43 439.659 1205.09 439.594 C 1192.82 437.249 1102.89 489.187 1087.56 497.901 C 1068.35 466.773 1050.6 434.606 1031.25 403.46 C 1062.98 386.106 1105.18 374.252 1138.91 361.129 C 1153.91 355.291 1170.32 350.278 1185.62 345.134 C 1200.2 338.454 1232.61 333.596 1245.56 326.061 C 1272.93 310.142 1279.46 291.078 1314.85 283.228 z" fill="rgb(253,243,220)" transform="translate(0,0)"></path>
<path d="M 857.857 182.402 C 890.575 184.129 896.182 201.729 912.239 226.484 C 926.432 248.389 940.433 270.418 954.242 292.567 C 1013.15 386.29 1068.14 480.844 1125.65 575.231 C 1116.38 586.927 1104.83 600.594 1097.48 613.421 C 1095.36 616.908 1094.91 621.975 1096.61 625.841 C 1106.13 647.501 1139.07 630.355 1152.65 624.266 C 1161.6 638.616 1170.68 652.882 1179.89 667.061 C 1153.98 679.015 1161.28 688.781 1146.98 706.564 C 1140.82 712.505 1123.81 726.914 1116.36 718.094 C 1095.34 693.212 1075.74 660.88 1057.41 633.957 L 915.6 426.123 L 841.754 319.502 C 828.896 301.004 799.252 265.813 797.83 244.588 C 795.402 208.34 823.324 185.209 857.857 182.402 z" fill="rgb(191,149,108)" transform="translate(0,0)"></path>
<path d="M 879.924 240.061 C 912.034 237.491 923.457 278.866 898.974 287.883 C 871.775 288.329 852.394 253.445 879.924 240.061 z" fill="rgb(66,16,0)" transform="translate(0,0)"></path>
<path d="M 880.841 246.974 C 901.846 246.152 912.252 272.529 897.884 280.948 L 896.217 280.934 C 880.378 280.919 865.797 259.761 880.841 246.974 z" fill="rgb(253,243,220)" transform="translate(0,0)"></path>
<path d="M 1381.56 202.394 C 1442.98 196.019 1508.71 232.09 1544.43 280.655 C 1589.74 342.174 1607.41 446.538 1535.01 496.023 C 1508.93 513.843 1452.98 539.976 1420 535.505 C 1391.62 531.657 1361.66 499.447 1345.81 476.437 L 1343.96 474.634 C 1345.96 469.449 1362.86 455.37 1367.85 450.959 C 1377.91 466.73 1386 480.139 1400.4 492.274 C 1433.91 520.514 1461.68 500.243 1465.03 460.603 C 1471.09 389.201 1426.12 318.838 1363.02 287.337 C 1332.22 271.959 1304.34 270.16 1276.69 293.021 C 1293.63 246.512 1330.22 207.334 1381.56 202.394 z" fill="rgb(147,141,116)" transform="translate(0,0)"></path>
<path d="M 763.402 987.268 L 764.191 987.348 C 764.215 987.286 716.306 1013.94 710.882 1017.31 C 671.911 1041.95 637.316 1072.91 608.52 1108.92 C 538.476 1108.9 518.465 1116.17 456.51 1141.4 L 456.209 1141.45 L 456.104 1140.78 C 472.811 1123.47 489.967 1112.45 508.848 1098.53 C 589.279 1039.27 667.597 1010.48 763.402 987.268 z" fill="rgb(253,243,220)" transform="translate(0,0)"></path>
<path d="M 956.958 500.865 C 962.545 507.86 969.916 518.099 974.595 525.522 C 962.801 581.554 971.772 681.676 1028.38 713.717 C 1036.89 718.538 1057.64 723.296 1062.64 727.97 L 1062.36 729.72 C 1059.29 732.069 1056.44 732.072 1052.57 732.685 C 1033.25 732.978 1013.34 723.372 996.567 714.46 C 952.847 691.235 941.014 630.649 940.784 585.89 C 940.657 561.302 944.93 521.648 956.958 500.865 z" fill="rgb(253,243,220)" transform="translate(0,0)"></path>
<path d="M 1443.38 381.721 C 1448.2 387.511 1454.09 408.464 1455.5 416.519 C 1459.15 438.702 1462.2 468.679 1448.77 488.346 C 1436.33 506.57 1417.74 495.763 1404.38 485.9 C 1390.52 474.019 1382.55 461.656 1373.76 445.97 C 1393.83 425.502 1421.73 401.324 1443.38 381.721 z" fill="rgb(147,141,116)" transform="translate(0,0)"></path>
<path d="M 938.436 475.016 C 942.39 477.933 949.5 488.008 952.803 492.463 C 922.116 556.013 926.624 650.957 971.931 706.897 C 968.597 706.202 965.067 705.296 961.731 704.506 C 912.135 686.92 906.358 640.327 906.496 593.165 C 906.506 579.43 907.625 565.718 909.842 552.163 C 912.809 534.609 925.704 487.617 938.436 475.016 z" fill="rgb(253,243,220)" transform="translate(0,0)"></path>
<path d="M 1195.93 450.093 L 1196.48 450.618 C 1197.11 466.591 1141.32 552.663 1129.99 568.477 C 1125.64 562.122 1121.13 554.13 1117.12 547.432 C 1108.39 533.382 1099 518.741 1091.84 503.886 C 1116.62 487.958 1168.84 461.436 1195.93 450.093 z" fill="rgb(253,243,220)" transform="translate(0,0)"></path>
<path d="M 1210.36 1006.32 C 1222.92 1004.89 1254.35 1024.81 1266.4 1031.1 C 1295.05 1046.04 1328.12 1074.39 1350.34 1098.12 C 1340.39 1092.04 1332.58 1087.41 1322.16 1082.09 C 1279.06 1058.86 1213.64 1036.25 1167.12 1021.08 C 1183.93 1014.67 1192.26 1008.71 1210.36 1006.32 z" fill="rgb(253,243,220)" transform="translate(0,0)"></path>
<path d="M 918.673 495.854 C 919.109 498.73 907.795 527.525 906.317 532.889 C 899.237 558.588 898.834 582.586 898.918 608.778 L 893.711 598.666 C 877.204 556.782 889.13 527.745 918.673 495.854 z" fill="rgb(253,243,220)" transform="translate(0,0)"></path>
<path d="M 388.821 146.173 C 413.378 147.821 416.782 174.343 415.861 194.076 C 412.464 262.137 371.879 316.965 338.605 372.853 C 327.821 390.965 271.468 476.242 270.556 492.626 C 272.61 492.984 275.549 488.397 277.412 486.628 C 315.992 449.82 377.068 414.71 432.126 424.038 C 466.442 429.851 468.824 460.166 436.943 474.726 C 392.781 494.894 343.792 501.439 295.667 503.039 C 286.546 503.342 276.002 503.837 267.311 501.267 C 265.713 500.796 266.931 500.73 264.998 501.339 C 259.656 507.998 254.675 518.816 250.72 526.616 C 165.785 694.133 112.977 888.757 117.366 1077.66 C 118.018 1115.82 121.303 1153.89 127.199 1191.6 C 129.224 1204.26 131.521 1216.78 134.083 1229.35 C 135.516 1236.37 142.18 1254.41 139.659 1260.24 L 137.725 1259.92 C 131.946 1254.91 124.927 1214.11 123.303 1204.54 C 101.031 1073.18 111.614 935.755 141.188 806.356 C 146.15 784.645 143.678 772.645 141.065 750.731 C 138.118 737.385 139.77 709.022 134.702 697.195 C 125.707 676.205 117.168 654.836 109.535 633.251 C 109.265 632.515 109.009 631.774 108.767 631.027 C 99.9096 603.976 79.1077 533.79 91.61 507.048 C 93.8534 502.25 101.031 500.162 105.781 498.634 C 159.545 513.019 163.544 601.274 153.994 644.197 C 151.436 655.693 142.25 685.442 142.541 695.009 C 143.275 719.14 147.165 746.637 149.769 770.91 C 154.75 757.26 160.273 734.505 164.94 719.432 C 174.325 688.175 185.447 657.466 198.253 627.448 C 200.434 622.2 207.555 606.423 208.499 600.202 C 208.501 600.194 203.266 593.584 203.082 592.195 C 202.141 585.076 202.233 576.756 201.753 569.702 C 200.427 550.184 199.686 529.352 196.542 510.164 C 196.148 507.758 191.046 496.759 189.583 491.583 C 179.257 455.047 168.105 418.789 159.951 381.641 C 157.07 368.518 150.493 343.301 158.625 331.748 C 161.957 327.014 167.322 323.027 173.134 322.157 C 179.293 321.235 185.88 324.049 190.524 328.001 C 211.598 345.935 221.873 374.17 225.495 400.486 C 229.762 431.485 223.248 481.678 203.721 506.403 L 202.807 507.549 C 205.015 534.499 206.835 572.253 210.543 597.877 C 221.329 568.128 247.762 516.78 264.565 489.485 C 263.572 470.806 266.697 451.882 264.12 433.222 C 262.585 422.105 258.577 411.177 256.281 400.156 C 249.616 368.172 227.086 254.232 242.054 229.396 C 244.383 225.532 247.837 222.474 252.387 221.69 C 258.343 220.663 264.319 223.06 268.968 226.663 C 286.883 240.549 296.908 270.058 299.832 291.725 C 304.928 329.478 293.698 388.539 270.293 419.046 L 269.387 420.216 C 271.445 438.26 271.285 454.634 271.237 472.757 C 277.414 462.512 282.912 450.723 289.364 440.386 C 308.015 410.499 326.217 379.979 345.368 350.449 C 338.403 303.663 344.225 204.447 368.277 160.506 C 372.505 152.784 379.957 147.935 388.821 146.173 z" fill="rgb(77,28,0)" transform="translate(0,0)"></path>
<path d="M 401.198 429.34 C 439.764 425.572 483.217 444.75 427.849 471.803 C 400.161 485.331 360.197 491.33 329.239 494.8 C 311.348 496.001 294.715 496.718 276.78 496.229 C 307.524 462.779 356.2 436.256 401.198 429.34 z" fill="rgb(253,243,220)" transform="translate(0,0)"></path>
<path d="M 387.066 152.015 C 399.39 152.491 405.289 159.981 407.472 171.753 C 417.482 225.745 385.655 284.043 358.677 328.511 C 356.042 333.236 353.783 336.786 350.839 341.246 C 344.3 296.826 352.736 216.28 368.621 173.8 C 372.253 164.086 377.21 156.117 387.066 152.015 z" fill="rgb(253,243,220)" transform="translate(0,0)"></path>
<path d="M 251.991 227.862 C 270.507 226.97 279.736 248.534 285.458 263.186 C 303.72 309.955 293.266 356.094 274.005 400.332 C 271.686 405.248 268.891 410.504 266.408 415.388 C 253.707 369.383 244.286 298.706 243.593 250.566 C 243.466 241.723 245.285 233.946 251.991 227.862 z" fill="rgb(253,243,220)" transform="translate(0,0)"></path>
<path d="M 100.668 506.015 C 117.166 505.281 128.184 517.95 135.757 531.29 C 162.057 577.62 150.855 631.991 139.074 680.804 L 137.351 684.448 L 136.153 683.562 C 122.774 655.013 76.4103 529.346 100.668 506.015 z" fill="rgb(253,243,220)" transform="translate(0,0)"></path>
<path d="M 174.269 327.94 C 192.612 329.756 206.163 355.399 212.016 370.985 C 227.226 411.497 220.471 458.577 202.987 497.292 L 201.586 499.338 L 199.848 499.362 C 197.537 496.477 193.516 482.355 192.185 477.578 C 180.722 436.433 167.389 394.908 161.468 352.551 C 159.72 340.042 162.766 332.696 174.269 327.94 z" fill="rgb(253,243,220)" transform="translate(0,0)"></path>
<path d="M 571.151 591.713 C 570.764 590.359 570.403 588.997 570.068 587.629 C 561.531 553.016 548.178 469.969 567.524 438.222 C 585.687 408.417 608.85 434.893 613.676 461.218 C 615.389 470.977 615.512 480.95 614.042 490.748 C 611.214 510.746 591.988 570.817 580.665 587.234 C 581.483 586.792 582.306 586.363 583.135 585.945 C 625.146 565.05 675.727 552.958 722.686 567.366 C 729.312 569.399 737.769 574.846 740.605 581.596 C 742.304 585.603 742.244 590.14 740.439 594.101 C 736.815 602.158 726.836 607.426 718.819 610.142 C 669.644 626.8 622.278 615.065 577.345 595.078 C 545.956 622.872 517.745 657.909 490.632 689.823 C 455.527 730.269 420.53 769.106 390.696 813.693 C 359.243 860.699 329.971 905.354 302.094 954.774 C 329.231 927.871 357.105 914.12 394.502 904.78 C 413.781 900.938 440.121 896.941 458.029 906.852 C 466.405 912.123 469.975 922.107 463.614 930.17 C 441.108 958.699 325.636 983.155 298.859 962.786 L 297.365 963.049 C 291.336 970.99 278.186 997.287 273.366 1006.91 C 257.159 1039.29 237.484 1075.68 224.154 1109.31 C 238.909 1093.19 257.737 1075.3 277.15 1063.62 C 300.487 1049.89 352.625 1026.28 380.337 1034.46 C 423.503 1047.19 372.762 1080.61 355.99 1087.9 C 320.503 1103.33 255.794 1133.59 218.395 1121.04 C 202.723 1160.5 188.605 1199.15 178.033 1240.33 C 175.902 1248.63 171.117 1264.88 170.915 1273.04 C 167.63 1273.99 166.826 1274.59 163.951 1276.26 C 166.013 1261.3 174.153 1230.01 178.628 1215.24 C 226.608 1056.83 317.009 907.853 410.984 773.414 C 388.753 748.122 366.392 665.891 375.213 632.177 C 383.129 601.921 409.791 611.451 419.937 635.237 C 437.877 677.295 428.774 728.528 414.396 770.188 C 417.742 765.326 421.771 760.063 425.674 755.574 C 467.747 707.191 508.303 657.223 552.537 610.801 C 558.7 604.333 565.151 598.326 571.151 591.713 z" fill="rgb(77,28,0)" transform="translate(0,0)"></path>
<path d="M 365.317 1039.43 C 373.563 1039.33 399.098 1041.76 388.832 1057.36 C 380.122 1070.6 354.885 1081.38 340.278 1088.22 C 313.302 1100.85 283.933 1110.07 254.761 1116.64 C 249.137 1117.49 232.302 1121.59 229.055 1115.98 C 229.817 1113.05 230.442 1112.44 232.351 1110.14 C 263.69 1072.36 316.561 1044.06 365.317 1039.43 z" fill="rgb(253,243,220)" transform="translate(0,0)"></path>
<path d="M 419.31 907.402 C 429.661 906.502 457.53 906.474 460.452 919.767 C 462.885 930.836 435.966 942.379 427.789 945.738 C 403.035 955.904 376.778 960.157 350.339 962.89 C 333.358 963.333 322.857 964.35 306.612 959.801 C 336.165 929.473 377.494 911.789 419.31 907.402 z" fill="rgb(253,243,220)" transform="translate(0,0)"></path>
<path d="M 668.823 567.419 C 686.697 566.184 714.085 567.199 729.529 577.914 C 736.835 582.983 735.607 592.885 728.495 597.876 C 707.976 612.277 677.632 612.959 653.756 610.882 C 634.101 610.821 602.874 599.482 584.75 591.642 C 616.293 577.523 633.994 570.678 668.823 567.419 z" fill="rgb(253,243,220)" transform="translate(0,0)"></path>
<path d="M 583.771 431.026 C 593.289 432.91 600.94 439.692 604.182 448.718 C 618.021 487.236 595.177 539.808 579.97 575.075 L 575.534 584.464 C 568.337 554.407 549.541 447.563 583.771 431.026 z" fill="rgb(253,243,220)" transform="translate(0,0)"></path>
<path d="M 389.811 618.885 C 402.644 618.989 411.181 630.154 415.606 640.967 C 428.957 673.59 423.532 728.912 411.12 760.305 L 409.657 759.698 C 396.445 741.348 376.464 672.298 378.987 648.345 C 380.232 636.533 380.463 627.352 389.811 618.885 z" fill="rgb(253,243,220)" transform="translate(0,0)"></path>
<path d="M 601.105 153.361 C 612.142 152.737 630.027 153.404 634.168 165.508 C 639.278 180.443 614.235 199.149 604.427 206.225 C 561.497 237.195 511.121 253.925 461.609 270.58 C 454.488 272.849 435.374 281.388 433.19 269.982 C 432.286 265.263 438.85 254.826 442.136 251.098 C 480.428 207.662 542.906 160.743 601.105 153.361 z" fill="rgb(77,28,0)" transform="translate(0,0)"></path>
<path d="M 602.641 159.395 C 609.127 158.996 625.317 159.418 627.482 166.846 C 631.251 179.774 609.245 195.18 600.626 201.335 C 557.956 231.804 509.293 247.904 460.252 264.496 C 454.733 266.458 446.414 270.12 440.953 269.014 L 439.852 267.108 C 440.499 262.927 443.12 259.642 445.798 256.398 C 480.211 214.715 548.75 165.561 602.641 159.395 z" fill="rgb(253,243,220)" transform="translate(0,0)"></path>
<path d="M 461.194 319.37 C 485.925 317.116 518.935 319.51 540.387 333.576 C 548.368 338.809 552.003 351.262 543.987 357.526 C 519.293 376.822 473.584 380.489 443.202 381.028 C 425.992 381.299 360.463 379.698 354.892 364.193 C 357.094 351.543 410.289 331.253 422.224 327.654 C 434.95 323.771 447.989 320.999 461.194 319.37 z" fill="rgb(77,28,0)" transform="translate(0,0)"></path>
<path d="M 462.538 325.375 C 483.026 322.495 518.093 326.874 536.089 337.927 C 555.547 349.878 528.954 360.614 518.917 363.992 C 494.28 372.282 469.426 373.577 443.75 374.369 C 417.718 374.49 385.224 372.897 361.021 363.728 C 390.368 344.204 427.773 329.602 462.538 325.375 z" fill="rgb(253,243,220)" transform="translate(0,0)"></path>
<path d="M 334.584 547.325 C 348.209 545.709 365.638 546.401 377.994 553.094 C 387.051 558 388.322 570.151 381.808 577.51 C 354.55 608.303 299.013 620.94 259.838 626.872 C 249.987 628.632 221.173 632.655 212.128 630.693 C 209.452 628.334 210.2 629.747 209.578 626.438 C 210.048 624.853 210.473 623.366 211.611 622.097 C 243.157 586.926 287.218 554.397 334.584 547.325 z" fill="rgb(77,28,0)" transform="translate(0,0)"></path>
<path d="M 336.065 553.361 C 365.327 550.123 403.607 559.879 361.233 587.413 C 331.741 606.576 294.788 614.914 260.367 620.689 C 245.808 622.917 233.838 623.828 219.124 624.186 C 242.643 593.239 296.831 558.618 336.065 553.361 z" fill="rgb(253,243,220)" transform="translate(0,0)"></path>
<path d="M 512.59 764.403 C 525.135 762.761 554.282 763.778 556.767 781.256 C 558.37 792.53 539.933 803.911 531.322 809.399 C 499.201 829.873 462.806 840.218 425.237 844.762 C 415.885 845.869 381.499 850.62 378.654 838.86 C 379.385 836.745 380.369 834.446 382.006 832.867 C 416.967 799.141 463.696 769.187 512.59 764.403 z" fill="rgb(77,28,0)" transform="translate(0,0)"></path>
<path d="M 514.678 770.407 C 550.99 766.35 564.794 783.592 527.375 804.977 C 490.196 826.225 463.849 833.371 422.235 838.761 C 414.63 839.463 393.832 842.091 387.727 838.528 C 388.889 831.012 413.037 814.326 419.627 809.641 C 448.097 789.399 479.415 773.6 514.678 770.407 z" fill="rgb(253,243,220)" transform="translate(0,0)"></path>
<path d="M 601.34 649.372 C 617.829 647.594 663.726 648.837 662.125 670.157 C 659.543 704.556 573.006 710.971 552.275 711.216 C 539.928 711.239 496.857 711.315 490.638 698.548 C 491.108 689.841 501.393 684.986 508.34 680.83 C 536.81 663.979 568.487 653.264 601.34 649.372 z" fill="rgb(77,28,0)" transform="translate(0,0)"></path>
<path d="M 605.585 655.407 C 620.261 654.064 641.108 655.066 653.232 664.149 C 665.316 673.201 644.436 685.225 637.745 688.432 C 610.522 701.48 580.065 704.68 550.255 704.988 C 530.566 704.897 514.63 704.949 496.716 696.665 C 525.532 673.505 569.025 658.931 605.585 655.407 z" fill="rgb(253,243,220)" transform="translate(0,0)"></path>
<path d="M 272.911 710.103 C 290.543 707.95 305.632 721.242 314.365 736.664 C 336.654 776.022 336.597 826.863 330.775 870.565 C 330.433 873.131 329.057 874.145 327.053 875.164 L 324.165 874.143 C 317.62 867.097 309.701 854.71 304.576 846.35 C 288.402 819.963 237.098 731.541 272.911 710.103 z" fill="rgb(77,28,0)" transform="translate(0,0)"></path>
<path d="M 274.862 715.994 C 315.171 714.843 328.839 790.549 327.725 820.009 C 327.502 825.914 327.806 860.981 324.657 864.304 L 323.173 863.03 C 306.398 838.662 244.46 739.988 274.862 715.994 z" fill="rgb(253,243,220)" transform="translate(0,0)"></path>
<path d="M 153.323 961.179 C 199.196 965.571 212.313 1032.14 209.66 1068.47 C 208.945 1078.26 208.034 1119.18 203.038 1125.04 C 199.641 1125.62 201.318 1125.79 197.921 1123.98 C 183.601 1099.36 104.646 976.514 153.323 961.179 z" fill="rgb(77,28,0)" transform="translate(0,0)"></path>
<path d="M 150.826 969.044 C 171.127 967.439 183.152 982.461 191.104 999.107 C 205.155 1028.52 205.04 1062.11 202.197 1093.9 C 201.761 1098.78 201.666 1108.81 200.275 1112.85 L 198.806 1112.56 C 184.457 1087.84 123.95 993.685 150.826 969.044 z" fill="rgb(253,243,220)" transform="translate(0,0)"></path>
<path d="M 759.088 421.296 C 769.136 420.416 782.093 420.207 786.625 431.355 C 791.827 444.513 776.825 457.592 768.186 465.396 C 739.406 491.394 705.33 504.663 669.725 518.248 C 663.527 520.655 653.004 525.626 646.677 524.758 C 638.556 517.619 654.425 495.85 659.138 489.01 C 683.523 453.618 716.323 429.048 759.088 421.296 z" fill="rgb(77,28,0)" transform="translate(0,0)"></path>
<path d="M 760.664 427.245 C 767.624 426.742 777.418 426.273 780.897 433.754 C 785.15 442.9 770.387 454.605 764.64 459.989 C 736.715 486.151 703.436 498.423 668.485 511.623 L 649.503 518.958 C 671.905 471.903 708.419 436.915 760.664 427.245 z" fill="rgb(253,243,220)" transform="translate(0,0)"></path>
<path d="M 200.76 833.056 C 232.068 830.085 251.588 864.369 260.824 889.561 C 270.692 916.475 270.611 945.148 268.725 973.339 C 268.422 977.86 268.562 987.617 266.908 991.087 C 264.011 992.527 264.37 991.953 260.528 991.558 C 260.097 991.01 259.666 990.462 259.235 989.914 C 238.846 955.565 213.381 923.537 198.186 886.349 C 191.535 870.074 181.943 844.619 200.76 833.056 z" fill="rgb(77,28,0)" transform="translate(0,0)"></path>
<path d="M 202.684 838.981 C 227.429 838.696 242.881 862.53 251.72 882.794 C 262.693 907.951 264.235 937.361 263.273 964.44 C 263.128 968.525 262.972 976.949 261.607 980.354 L 260.096 979.515 C 239.816 948.249 198.44 890.668 196.113 852.324 C 195.761 846.521 198.551 842.693 202.684 838.981 z" fill="rgb(253,243,220)" transform="translate(0,0)"></path>
<path d="M 464.925 520.039 C 475.373 520.213 484.528 524.379 489.822 533.92 C 511.017 572.118 502.863 619.926 494.584 660.681 C 492.848 669.224 487.271 675.434 486.339 682.967 C 462.935 659.472 425.394 537.694 464.925 520.039 z" fill="rgb(77,28,0)" transform="translate(0,0)"></path>
<path d="M 464.77 525.943 C 511.854 523.645 495.429 641.572 485.337 669.767 C 484.578 669.455 483.409 668.717 483.035 668.022 C 467.281 638.802 438.323 551.035 464.77 525.943 z" fill="rgb(253,243,220)" transform="translate(0,0)"></path>
<path d="M 303.988 1654.57 C 310.961 1654.48 322.962 1668.41 328.606 1673.73 L 375.071 1717.26 C 388.523 1729.97 416.299 1756.19 429.614 1771.05 C 429.647 1772.21 429.679 1773.37 429.711 1774.53 C 425.618 1774.15 424.654 1773.75 421.623 1770.81 C 383.704 1734 344.742 1698.26 306.729 1661.55 C 304.072 1658.98 304.152 1657.94 303.988 1654.57 z" fill="rgb(91,40,0)" transform="translate(0,0)"></path>
<path d="M 776.71 1820.16 C 779.963 1818.54 778.747 1819.78 780.104 1815.97 C 791.985 1829.14 860.2 1886.7 865.217 1896.67 L 864.285 1898.45 C 861.372 1898.44 859.475 1897.9 857.138 1895.88 C 831.414 1873.6 807.558 1849.02 782.39 1826.08 C 780.97 1824.78 777.846 1821.63 776.71 1820.16 z" fill="rgb(91,40,0)" transform="translate(0,0)"></path>
<path d="M 1418.89 1713.14 L 1419.45 1712 C 1426.39 1707.58 1450.65 1688.98 1457.15 1688.79 C 1454.42 1691.64 1430.5 1707 1425.57 1710.51 C 1438.21 1720.33 1481.6 1752.57 1489.55 1761.33 C 1489.89 1764.38 1490.33 1763.12 1488.9 1765.4 C 1485.8 1765.69 1482.39 1763.48 1480.27 1761.41 C 1463.08 1744.6 1435.11 1729.84 1418.89 1713.14 z" fill="rgb(91,40,0)" transform="translate(0,0)"></path>
<path d="M 1504.37 1651.09 C 1504.73 1647.38 1504.02 1648.86 1505.96 1646.24 L 1509.05 1646.08 C 1521.26 1657.95 1567.91 1692.91 1569.74 1701.05 C 1568.74 1702.1 1568.98 1702.35 1567.62 1702.24 C 1562.79 1701.86 1511.68 1657.74 1504.37 1651.09 z" fill="rgb(91,40,0)" transform="translate(0,0)"></path>
<path d="M 302.699 1517.6 C 297.122 1515.38 293.033 1514.91 290.969 1508.91 L 292.379 1507.64 C 296.462 1507.19 299.029 1509.01 302.846 1510.85 C 302.67 1513.36 302.487 1515.07 302.699 1517.6 z" fill="rgb(66,16,0)" transform="translate(0,0)"></path>
<metadata><recraft-signature>{"signed_by": "recraft", "signature_b64": "1hputmTwIu9m0yR5Fd86MEOJlzzZj3P3ZK1OT5Bts7m5RRePyJh07d62nkBegMpvaHi43RSGX76n0YUEZDJ7Ag==", "signing_algo": "Ed25519", "generation_timestamp": 1778091871, "identifier": "65a660e5-2901-4e19-bf2b-94eceeca1a35"}</recraft-signature></metadata></svg>