<svg xmlns="http://www.w3.org/2000/svg" height="1024" preserveAspectRatio="none" style="display: block;" version="1.1" viewBox="0 0 2048 2048" width="1024">
<defs>
	<linearGradient gradientUnits="userSpaceOnUse" id="Gradient1" x1="736.944" x2="796.408" y1="1122.79" y2="1161.67">
		<stop class="stop0" offset="0" stop-color="rgb(254,237,225)" stop-opacity="1"></stop>
		<stop class="stop1" offset="1" stop-color="rgb(255,255,255)" stop-opacity="1"></stop>
	</linearGradient>
</defs>
<path d="M 0 0 L 2048 0 L 2048 2048 L 0 2048 L 0 0 z" fill="rgb(254,253,251)" transform="translate(0,0)"></path>
<path d="M 1202.42 256.458 C 1247.51 198.362 1331.27 80.5123 1401.64 57.7697 C 1412.67 54.202 1425.9 52.3094 1436.48 58.1795 C 1444.88 62.8402 1450.28 71.3898 1452.76 80.4811 C 1468.13 136.832 1398.15 259.616 1368.98 308.884 C 1392.32 309.29 1417.01 311.229 1439.02 308.35 C 1576.36 290.39 1689.61 192.642 1777.48 92.0925 C 1778.74 90.6473 1780.96 90.7439 1782.71 91.2425 C 1786.77 97.5436 1780.99 102.382 1776.92 106.538 C 1787.4 114.245 1812.12 140.87 1821.21 151.03 C 1894.6 233.101 1949.69 341.26 1967.31 450.332 C 1970.29 468.771 1971.84 492.563 1970.15 510.804 C 1978.49 507.114 1986.95 502.312 1995.98 503.43 L 1997.78 504.736 C 1996.76 510.371 1988.24 513.608 1983.29 515.597 C 1966.85 522.208 1950.6 529.246 1934.29 536.165 C 1837.64 576.514 1739.16 612.297 1639.15 643.394 C 1565.34 666.795 1452.54 703.46 1376.13 701.915 C 1283.67 700.046 1273.12 620.897 1157.71 655.647 L 973.153 968.147 C 945.635 1015.69 918.243 1064 890.847 1111.63 C 883.375 1124.63 850.234 1122.28 836.787 1120.67 C 822.41 1145.6 805.192 1172.05 786.254 1193.6 C 780.459 1200.19 754.136 1199.31 745.655 1198.39 C 720.331 1241.73 697.09 1279.9 669.93 1321.85 C 733.362 1325.93 771.426 1333.08 832.52 1351.9 C 929.608 1381.8 1006.8 1430.09 1074.88 1505.62 C 1157.07 1596.79 1229.61 1777.06 1113.85 1870.6 C 1016.7 1949.1 856.232 1979.11 733.561 1989.07 C 663.563 1994.24 593.29 1994.57 523.247 1990.05 C 366.872 1978.64 41.3437 1928.09 59.0121 1709.48 C 66.7257 1614.04 137.28 1515.98 209.761 1456.68 C 325.876 1359.84 466.932 1322.47 615.045 1318.95 L 672.936 1218.56 C 680.935 1204.72 694.429 1184.19 700.153 1170.56 L 700.141 1168.88 C 697.297 1164.24 694.76 1159.36 693.403 1154.06 C 691.688 1147.61 691.494 1140.85 692.834 1134.31 C 696.29 1117.76 721.011 1077.05 730.435 1061.83 C 718.519 1050.03 707.244 1035.85 702.156 1019.65 C 696.387 1002.23 707.796 993.415 716.393 980.554 C 744.921 937.872 781.857 896.13 807.337 851.828 L 808.06 850.558 C 797.667 828.658 791.324 796.466 786.965 772.994 C 784.31 786.42 780.002 803.467 767.813 811.314 C 761.346 815.492 753.415 816.743 745.976 814.758 C 732.909 811.262 733.293 805.807 735.3 794.189 C 739.353 770.724 741.833 746.567 742.666 722.763 C 743.516 696.878 742.434 670.965 739.43 645.241 C 736.258 616.516 716.022 538.477 728.325 514.322 C 743.003 485.503 835.283 408.577 864.428 383.331 C 906.664 346.744 948.02 308.486 993.886 276.377 C 1013.95 262.332 1036.3 249.455 1059.51 241.597 C 1105.96 225.874 1159.31 234.914 1202.42 256.458 z" fill="rgb(114,38,33)" transform="translate(0,0)"></path>
<path d="M 1364.77 316.721 C 1379.84 318.983 1399.56 318.962 1415.04 318.451 C 1542.62 314.239 1657.52 231.69 1743.58 143.55 C 1755.17 131.685 1765.61 118.639 1776.92 106.538 C 1787.4 114.245 1812.12 140.87 1821.21 151.03 C 1894.6 233.101 1949.69 341.26 1967.31 450.332 C 1970.29 468.771 1971.84 492.563 1970.15 510.804 C 1966.66 513.274 1933.28 526.739 1927.49 529.169 C 1812.01 577.616 1692.6 618.181 1572.42 653.93 C 1508.64 672.902 1407.88 703.813 1341.34 687.278 C 1322.27 682.539 1296.35 665.001 1278.45 655.11 C 1258.32 643.989 1231.88 636.345 1208.03 637.54 C 1135.29 641.184 1057.61 679.878 990.754 707.612 C 965.464 719.037 940.754 732.271 914.407 741.103 C 904.577 744.397 887.628 746.01 885.714 732.11 C 883.317 714.7 897.815 690.189 908.235 677.113 C 918.165 664.816 930.145 654.327 943.647 646.111 C 974 627.678 1016.67 612.733 1049.69 598.813 C 1091.21 581.313 1132.86 564.04 1174.33 546.335 C 1189.61 539.812 1224.69 524.425 1237.09 514.483 C 1244.64 508.425 1262.15 479.993 1269.04 470.078 C 1303.53 420.462 1333.08 367.91 1364.77 316.721 z" fill="rgb(222,208,185)" transform="translate(0,0)"></path>
<path d="M 970.044 657.305 C 983.85 656.941 1005.64 665.634 997.32 682.062 C 986.506 703.421 943.403 717.746 921.243 726.477 C 871.881 744.708 898.045 670.992 970.044 657.305 z" fill="rgb(114,38,33)" transform="translate(0,0)"></path>
<path d="M 969.143 668.193 C 977.006 667.115 984.411 666.612 988.345 674.729 C 989.877 691.01 938.566 709.018 924.413 715.006 C 919.316 717.299 914.69 719.566 909.158 719.21 C 906.02 717.355 907.014 718.661 906.031 715.197 C 910.585 690.292 947.775 673.976 969.143 668.193 z" fill="rgb(254,253,251)" transform="translate(0,0)"></path>
<path d="M 709.43 1180 C 712.14 1182.92 719.054 1187.8 722.511 1190.4 C 713.254 1210.41 684.828 1254.78 672.429 1274.97 C 640.484 1327.01 606.566 1388.87 568.438 1435.76 C 577.92 1406.69 596.943 1374.18 611.415 1347.41 C 642.123 1290.66 674.412 1234.79 708.246 1179.84 L 709.43 1180 z" fill="rgb(254,253,251)" transform="translate(0,0)"></path>
<path d="M 700.141 1168.88 C 705.347 1172.23 708.89 1173.28 709.43 1180 L 708.246 1179.84 C 705.811 1175.72 703.854 1173.46 700.153 1170.56 L 700.141 1168.88 z" fill="rgb(137,47,41)" transform="translate(0,0)"></path>
<path d="M 593.594 1329.42 C 597.742 1328.96 606.038 1329 610.517 1328.91 C 591.605 1367.93 572.462 1396.01 555.96 1439.07 L 554.793 1438.39 C 527.384 1422.92 468.75 1404.74 437.51 1399.89 C 433.737 1399.31 425.75 1397.19 422.383 1398.16 C 420.746 1401.04 421.071 1401.41 421.273 1404.7 C 424.436 1408.03 441.459 1410.74 446.566 1411.69 C 483.434 1418.52 517.337 1432.13 551.62 1447.03 C 551.978 1451 552.079 1455.31 552.251 1459.32 C 505.054 1472.62 466.58 1500.6 428.644 1529.97 C 405.713 1521.72 380.151 1512.92 356.498 1507.34 C 342.534 1504.05 280.435 1492.9 271.137 1498.71 C 268.869 1502.11 269.249 1500.36 269.328 1503.97 C 269.957 1504.62 270.587 1505.26 271.216 1505.91 C 283.907 1508.28 303.229 1507.83 315.698 1509.61 C 351.724 1514.76 387.28 1523.2 420.452 1537.82 C 367.146 1585.25 325.053 1642.7 300.221 1709.91 C 297.14 1718.25 279.608 1764.06 289.298 1766.63 C 290.465 1766.2 291.631 1765.77 292.798 1765.33 C 297.158 1753.74 304.548 1727.5 308.296 1716.38 C 329.087 1654.71 379.252 1582.22 430.737 1542.2 C 482.94 1562.74 520.309 1591.07 561.244 1628.87 C 571.92 1638.73 582.835 1652.18 593.458 1660.96 C 597.567 1660.71 596.019 1661.54 598.525 1658.91 C 599.011 1651.97 585.303 1639.77 580.138 1634.44 C 538.066 1591.07 494.287 1560.37 439.705 1534.81 C 471.412 1504.55 517.201 1481.07 558.134 1466.29 C 570.503 1461.82 565.517 1472.69 581.769 1457.63 C 642.341 1478.23 699.05 1517.06 743.744 1562.63 C 759.078 1578.26 771.741 1595.72 785.928 1610.32 C 790.071 1611.21 788.345 1611.62 791.459 1610.12 C 791.975 1607.38 791.523 1604.68 789.81 1602.36 C 749.259 1547.32 695.841 1501.83 635.22 1470.22 C 619.07 1461.8 603.944 1454.36 586.478 1449.6 C 604.146 1426.87 619.188 1402.93 634.526 1378.63 C 644.107 1362.63 653.928 1346.77 663.985 1331.06 C 796.401 1334.75 923.637 1383.3 1024.85 1468.77 C 1097.99 1531.35 1156.27 1626.59 1163.72 1724.04 C 1166.96 1766.41 1158.05 1809.62 1129.15 1841.85 C 1044.06 1936.78 849.554 1970.74 729.562 1980.04 C 576.022 1991.95 402.518 1980.8 257.344 1928.54 C 211.597 1912.37 169.204 1891.56 131.91 1860.24 C 16.8348 1763.6 75.5875 1617.24 157.754 1521.31 C 244.853 1419.63 367.324 1361.58 498.183 1338.86 C 529.766 1333.37 561.585 1331.57 593.594 1329.42 z" fill="rgb(254,253,251)" transform="translate(0,0)"></path>
<path d="M 696.856 1376.67 C 712.48 1376.87 745.773 1392.97 761.027 1399.84 C 814.712 1424.02 864.371 1458.17 903.886 1501.87 C 905.435 1503.59 904.334 1505.58 903.825 1507.46 C 902.21 1507.81 899.781 1508.19 898.501 1507.16 C 887.44 1498.28 875.267 1486.16 864.709 1476.92 C 853.731 1467.34 842.28 1458.32 830.399 1449.88 C 788.352 1419.87 745.958 1403.27 698.692 1383.93 C 696.674 1383.1 696.979 1378.58 696.856 1376.67 z" fill="rgb(114,38,33)" transform="translate(0,0)"></path>
<path d="M 966.196 1877.86 C 968.449 1878.59 967.529 1877.9 968.866 1880.03 C 965.854 1891.55 902.674 1909.9 889.166 1913.98 C 886.702 1911.5 887.407 1912.9 886.592 1909.83 C 889.013 1906.67 956.302 1881.91 966.196 1877.86 z" fill="rgb(114,38,33)" transform="translate(0,0)"></path>
<path d="M 1079.43 1676.4 L 1082.57 1676.99 C 1087.81 1681.46 1086.13 1697.45 1085.73 1704.13 C 1084.68 1721.33 1081.64 1738.72 1073.02 1753.85 C 1070.79 1754.82 1071.93 1754.77 1069.58 1753.95 C 1067.9 1749.46 1072.93 1733.79 1074.53 1727.56 C 1077.87 1714.54 1076.23 1686.62 1079.43 1676.4 z" fill="rgb(114,38,33)" transform="translate(0,0)"></path>
<path d="M 449.43 1915.66 C 459.99 1916.7 497.611 1917.38 502.827 1921.16 C 504.378 1924.5 504.045 1922.7 503.177 1926.81 C 491.113 1927.74 459.544 1928.07 449.386 1922.71 C 447.927 1919.47 448.559 1919.98 449.43 1915.66 z" fill="rgb(114,38,33)" transform="translate(0,0)"></path>
<path d="M 972.793 1476.5 C 983.998 1478.11 1003.64 1499.87 1007.08 1511.23 C 1005.14 1510.98 1002.75 1510.67 1000.74 1508.68 C 991.768 1499.78 980.772 1490.45 973.189 1480.43 C 973.057 1479.12 972.925 1477.81 972.793 1476.5 z" fill="rgb(114,38,33)" transform="translate(0,0)"></path>
<path d="M 243.196 1586.24 C 244.536 1586.39 247.557 1586.79 247.931 1588.12 C 249.999 1595.46 243.747 1608.96 241.133 1615.92 C 237.901 1616.13 239.272 1616.63 236.765 1615 C 234.754 1607.82 240.038 1592.89 243.196 1586.24 z" fill="rgb(114,38,33)" transform="translate(0,0)"></path>
<path d="M 778.157 1766.74 L 780.738 1767.34 C 785.77 1773.6 768.49 1782.53 763.812 1785.17 C 761.184 1784.64 762.047 1785.03 759.991 1783.37 L 759.89 1781.03 C 763.225 1775.04 772.226 1770.35 778.157 1766.74 z" fill="rgb(114,38,33)" transform="translate(0,0)"></path>
<path d="M 769.656 1752.98 C 771.378 1755.64 771.106 1754.24 770.597 1757.29 C 765.963 1763.05 751.481 1770.44 744.185 1771.75 L 742.957 1769.95 C 746.291 1763.76 763.03 1755.95 769.656 1752.98 z" fill="rgb(114,38,33)" transform="translate(0,0)"></path>
<path d="M 433.096 1749.85 C 441.716 1750.33 452.102 1755.06 453.558 1764.44 C 445.124 1763.51 434.027 1759.56 433.096 1749.85 z" fill="rgb(114,38,33)" transform="translate(0,0)"></path>
<path d="M 144.015 1690.11 C 146.53 1690.8 145.825 1690.56 148.112 1691.87 C 150.502 1697.62 147.411 1704.94 145.624 1711.03 C 141.851 1710.32 143.254 1711.25 141.055 1708.51 C 139.786 1701.69 141.997 1696.81 144.015 1690.11 z" fill="rgb(114,38,33)" transform="translate(0,0)"></path>
<path d="M 205.697 1826.83 C 207.614 1826.94 208.083 1827.11 209.97 1827.52 L 210.49 1829.14 C 207.854 1833.55 202.232 1836.24 197.585 1838.05 C 193.874 1837.68 195.324 1838.4 192.746 1836.52 L 193.214 1834.42 C 197.337 1830.52 200.627 1829.31 205.697 1826.83 z" fill="rgb(114,38,33)" transform="translate(0,0)"></path>
<path d="M 213.775 1847.66 C 216.378 1847.66 215.542 1847.41 217.692 1848.71 L 217.428 1850.71 C 213.986 1855.12 210.061 1857.51 205.526 1860.81 L 203.397 1860.54 L 202.27 1858.97 C 203.717 1853.96 209.569 1850.42 213.775 1847.66 z" fill="rgb(114,38,33)" transform="translate(0,0)"></path>
<path d="M 454.182 1735.46 C 461.417 1736.58 466.73 1740.16 468.625 1747.47 C 459.587 1748.2 455.354 1744 454.182 1735.46 z" fill="rgb(114,38,33)" transform="translate(0,0)"></path>
<path d="M 781.161 470.451 C 809.366 441.079 844.92 413.275 875.624 386.089 C 922.879 344.246 970.426 301.973 1023.76 268.029 C 1078.72 233.046 1139.45 238.255 1197.36 263.569 L 1135.7 347.848 C 1130.08 355.484 1116.8 374.997 1111.41 380.767 C 1107.66 380.687 1110.2 380.39 1107.59 379.766 C 1089.57 375.46 1052.38 388.016 1037.4 394.082 C 964.844 423.456 904.22 473.834 873.55 547.195 C 846.899 610.943 845.95 680.503 836.317 748.357 L 835.891 743.655 L 835.248 743.243 L 835.565 744.59 L 834.149 744.047 C 833.4 744.74 832.882 744.831 831.887 745.282 C 829.332 742.656 830.016 742.252 829.149 737.89 C 827.609 728.893 829.792 719.445 826.028 710.143 C 822.44 701.277 815.352 691.674 804.631 698.505 C 796.303 703.811 794.434 712.65 792.55 721.795 C 791.129 719.607 790.975 712.373 790.214 708.425 C 789.311 685.531 788.774 661.832 787.064 639.091 C 784.758 608.425 781.34 578.509 780.175 547.703 C 779.664 533.2 779.648 518.684 780.125 504.18 C 780.496 494.751 781.7 479.311 781.161 470.451 z" fill="rgb(222,208,185)" transform="translate(0,0)"></path>
<path d="M 1101.45 672.974 L 1102.82 673.534 C 1101.29 677.156 1089.85 694.424 1086.78 699.386 C 1074.44 719.268 1062.28 739.266 1050.32 759.378 C 1005.67 833.666 961.479 908.235 917.762 983.079 C 885.204 975.796 856.909 961.778 830.496 941.725 C 811.682 927.766 802.271 917.559 788.394 899.482 C 821.071 849.262 851.004 797.428 883.572 747.631 C 885.147 748.583 886.762 749.466 888.413 750.279 C 894.961 753.471 901.89 753.853 908.88 752.101 C 934.067 745.79 959.072 732.554 982.814 722.414 C 1021.34 705.961 1062.12 686.638 1101.45 672.974 z" fill="rgb(254,253,251)" transform="translate(0,0)"></path>
<path d="M 1418.36 63.3482 C 1423.8 63.4823 1429.24 64.4476 1433.62 67.8766 C 1440.22 73.0492 1442.73 81.8306 1443.51 89.8433 C 1450.3 159.712 1365.27 297.159 1328.45 356.797 C 1316.52 376.115 1302.64 401.691 1288.5 418.807 C 1281.08 418.968 1278.06 418.594 1270.67 417.588 C 1280.45 395.047 1302.09 364.942 1315.08 342.33 C 1331.5 313.734 1350.69 285.193 1367.18 256.388 C 1377.17 238.949 1386.02 221.485 1395.92 203.335 C 1413.25 171.172 1438.74 137.198 1435.71 98.8167 C 1433.98 83.0781 1422.21 74.1285 1406.67 78.0187 C 1391.4 81.8401 1379.07 91.9791 1367.39 102.204 C 1348.89 118.399 1334.28 137.274 1320.97 157.908 C 1306.94 179.795 1294.58 205.453 1292.74 231.648 C 1290.96 257.028 1306.71 274.358 1331.82 262.11 C 1347.87 254.282 1359.05 242.777 1371.4 230.349 C 1347.2 274.814 1314.67 320.807 1289.36 365.261 C 1281.83 378.491 1266.06 402.332 1260.57 415.391 C 1218.25 402.123 1181.86 371.476 1156 336.027 C 1167.08 320.128 1181.46 300.491 1193.09 285.243 C 1239.14 224.846 1339.43 74.924 1418.36 63.3482 z" fill="rgb(254,253,251)" transform="translate(0,0)"></path>
<path d="M 1137.44 360.875 C 1142.29 365.906 1148.79 377.27 1154.33 383.675 C 1177.74 410.331 1208.07 429.997 1241.96 440.501 L 1184.01 530.899 C 1133.28 555.074 1070.48 580.135 1018.33 600.967 C 999.987 608.281 962.48 624.813 945.638 634.782 C 951.167 628.079 956.005 620.26 961.364 613.551 C 980.938 589.045 997.822 563.485 1015.5 537.623 L 1088.51 431.804 C 1104.67 408.276 1120.62 383.779 1137.44 360.875 z" fill="rgb(254,253,251)" transform="translate(0,0)"></path>
<path d="M 1098.36 387.386 C 1101.13 386.967 1104.24 387.009 1106.09 389.27 C 1102.23 396.269 1092.68 408.917 1087.73 415.901 C 1078.25 429.345 1068.94 442.909 1059.8 456.591 C 1058.62 456.257 1057.43 455.939 1056.23 455.637 C 1035.15 450.304 979.028 447.123 956.304 457.056 C 952.656 458.651 949.914 466.434 949.432 470.519 C 945.047 507.681 949.065 553.024 970.667 584.249 C 960.543 597.317 937.398 632.083 926.768 642.739 C 923.881 641.351 923.718 639.964 921.611 636.863 C 901.149 606.883 893.507 593.285 878.965 560.191 C 887.035 537.809 898.405 516.76 912.699 497.74 C 955.118 441.162 1027.97 397.232 1098.36 387.386 z" fill="rgb(222,208,185)" transform="translate(0,0)"></path>
<path d="M 1410.82 87.222 C 1464.43 86.0201 1375.03 240.937 1320.31 256.264 C 1264.96 255.749 1350.35 98.6432 1410.82 87.222 z" fill="rgb(254,253,251)" transform="translate(0,0)"></path>
<path d="M 771.817 477.773 L 772.563 478.475 C 773.579 481.6 771.929 495.164 771.602 499.552 C 768.311 543.704 773.307 586.38 776.683 630.259 C 779.246 662.122 780.384 694.084 780.093 726.049 C 779.897 746.855 779.148 769.242 772.729 789.155 C 768.964 800.835 757.046 810.062 744.732 804.693 L 744.839 803.386 C 749.749 799.93 753.947 800.964 761.281 796.496 C 766.809 790.298 771.155 781.781 772.461 773.553 C 775.628 753.594 773.537 742.938 752.917 739.685 C 752.924 706.682 753.274 672.896 748.95 640.054 C 744.407 605.542 735.258 570.93 734.028 536.055 C 733.205 512.726 755.724 493.536 771.817 477.773 z" fill="rgb(222,208,185)" transform="translate(0,0)"></path>
<path d="M 1120.24 666.904 C 1128.65 663.83 1136.15 661.477 1144.72 658.878 C 1106.1 722.351 1068.14 786.224 1030.86 850.489 L 1000.84 902.386 C 998.942 905.607 990.782 919.653 988.707 921.967 C 978.48 941.362 963.224 965.684 951.848 984.76 C 944.58 984.595 936.968 984.153 929.674 983.845 C 941.061 962.167 955.071 938.811 967.336 917.482 C 982.622 893.561 996.767 868.49 1011.3 844.034 L 1071.77 743.759 C 1085.59 720.898 1104.71 687.663 1120.24 666.904 z" fill="rgb(254,253,251)" transform="translate(0,0)"></path>
<path d="M 985.872 460.413 C 1011.32 458.546 1029.96 460.472 1055.09 462.886 C 1035.58 490.591 1016.66 519.229 997.109 547.147 L 975.896 577.457 C 955.895 543.569 953.63 502.962 958.817 464.706 C 967.975 462.309 976.489 461.337 985.872 460.413 z" fill="rgb(222,208,185)" transform="translate(0,0)"></path>
<path d="M 701.075 1139.6 C 704.885 1127.98 732.652 1073.38 739.578 1067.58 L 743.82 1070.94 L 743.43 1071.81 C 740.207 1072.58 739.87 1073.17 738.628 1075.84 C 739.87 1081.08 746.003 1085.66 749.962 1089.13 C 766.877 1103.96 785.552 1111.88 806.658 1118.78 C 796.179 1136.77 780.916 1159.08 769.357 1177.07 C 737.6 1178.67 720.139 1162.78 701.075 1139.6 z" fill="rgb(254,253,251)" transform="translate(0,0)"></path>
<path d="M 732.398 976.577 C 735.146 979.094 747.088 997.358 752.85 1003.26 C 785.225 1036.4 824.846 1055.92 869.226 1067.49 C 863.175 1077.38 858.71 1087.89 852.564 1097.78 C 845.09 1096.42 831.892 1091.82 824.348 1089.01 C 776.088 1071.05 744.163 1043.48 714.274 1002.73 C 719.541 993.432 726.027 985.142 732.398 976.577 z" fill="rgb(254,253,251)" transform="translate(0,0)"></path>
<path d="M 782.627 907.694 C 789.15 914.096 796.469 925.556 804.442 933.061 C 836.037 962.803 871.469 980.979 913.143 990.957 C 908.648 999.376 903.043 1008.7 898.295 1017.07 C 843.995 1004.62 801.27 973.454 767.231 930.088 C 771.782 922.509 777.452 914.923 782.627 907.694 z" fill="rgb(254,253,251)" transform="translate(0,0)"></path>
<path d="M 752.997 946.792 C 755.102 948.69 763.546 961.447 766.376 964.761 C 798.451 1002.32 841.327 1023.39 887.104 1038.13 C 883.436 1043.63 879.181 1056.01 874.99 1058.57 C 819.069 1047.95 769.712 1015.42 737.899 968.217 C 742.53 960.691 747.743 953.88 752.997 946.792 z" fill="rgb(254,253,251)" transform="translate(0,0)"></path>
<path d="M 875.341 569.869 C 877.282 573.326 880.24 581.731 881.648 585.721 C 890.291 610.218 907.277 627.972 920.46 649.817 C 909.318 660.6 902.622 666.318 893.906 679.199 L 887.822 689.831 C 881.89 678.628 876.474 667.131 870.957 655.722 C 867.4 648.366 867.452 643.22 861.079 637.7 C 859.382 626.108 871.085 582.617 875.341 569.869 z" fill="rgb(222,208,185)" transform="translate(0,0)"></path>
<path d="M 858.507 648.802 C 863.287 654.295 877.53 688.564 883.343 698.75 C 877.809 711.99 873.491 723.136 877.008 737.804 C 870.729 748.732 865.119 758.362 858.212 768.903 C 855.051 773.592 852.307 777.394 848.878 781.876 C 847.668 777.144 845.037 768.195 845.436 763.767 C 848.814 726.322 853.401 685.881 858.507 648.802 z" fill="rgb(222,208,185)" transform="translate(0,0)"></path>
<path d="M 1150.26 343.726 C 1171.32 377.506 1218.26 415.637 1257.25 424.194 C 1263.33 425.53 1281.46 427.485 1282.98 428.636 L 1282.81 430.699 C 1280.08 434.532 1281.78 433.466 1278.13 434.961 C 1270.94 435.045 1263.76 434.618 1256.63 433.685 C 1224.62 429.293 1187.31 404.836 1165.36 381.711 C 1158.24 374.213 1149.07 361.796 1142.62 353.362 C 1144.98 350.124 1147.73 346.859 1150.26 343.726 z" fill="rgb(254,253,251)" transform="translate(0,0)"></path>
<path d="M 1252.91 443.536 C 1260.03 444.495 1265.27 444.832 1272.47 445.149 C 1263.44 459.323 1253.81 473.28 1244.75 487.464 C 1235.78 501.518 1232.23 508.9 1216.68 515.575 C 1211.06 518.341 1205.17 521.024 1199.49 523.702 C 1217.35 497.02 1234.36 469.693 1252.91 443.536 z" fill="rgb(254,253,251)" transform="translate(0,0)"></path>
<path d="M 836.993 778.043 C 838.731 780.62 840.83 789.935 841.78 793.518 C 832.968 808.702 824.681 823.242 815.126 838.013 L 811.885 831.63 C 807.437 820.828 803.854 804.584 801.022 792.979 C 816.47 797.471 829.538 792.807 836.993 778.043 z" fill="rgb(222,208,185)" transform="translate(0,0)"></path>
<path d="M 810.18 705.499 C 824.582 708.998 819.289 742.893 816.395 753.537 C 814.259 761.397 812.359 764.721 805.322 768.516 C 801.732 769.812 801.448 769.905 797.683 770.424 C 793.7 763.518 802.715 720.865 805.521 711.177 C 806.049 709.353 808.687 706.82 810.18 705.499 z" fill="rgb(254,253,251)" transform="translate(0,0)"></path>
<path d="M 808.232 1108.7 C 815.34 1111.81 821.192 1114.37 828.523 1116.86 C 817.13 1135.69 803.907 1153.85 791.247 1171.86 C 786.351 1178.83 780.479 1187.55 771.659 1189.2 C 747.784 1193.67 713.488 1178.65 703.305 1155.88 C 706.007 1157.63 711.977 1164.27 716.1 1167.66 C 729.642 1178.78 751.329 1188 768.844 1185.89 C 778.642 1184.71 788.828 1165.27 794.005 1156.79 C 801.838 1143.77 809.767 1130.81 817.793 1117.91 C 813.573 1114.66 811.478 1112.87 806.692 1110.39 L 808.232 1108.7 z" fill="url(#Gradient1)" transform="translate(0,0)"></path>
<path d="M 877.185 1107.73 C 875.79 1108.63 873.19 1110.32 871.571 1110.55 C 818.232 1117.9 726.27 1062 711.372 1012.17 C 742.27 1064.07 798.295 1092.97 854.905 1108.53 C 856.054 1108.07 857.203 1107.6 858.353 1107.14 C 862.01 1107.42 875.818 1107.45 877.185 1107.73 z" fill="rgb(254,253,251)" transform="translate(0,0)"></path>
<path d="M 577.013 1444.32 C 588.612 1423.32 599.558 1410.49 611.713 1391.03 C 634.049 1355.29 656.338 1319.35 678.574 1283.54 C 690.919 1263.72 703.016 1243.74 714.863 1223.62 C 718.48 1217.47 728.306 1199.23 731.962 1194.74 L 733.559 1195 C 735.392 1200.69 722.058 1218.13 718.312 1224.23 C 673.075 1297.82 628.405 1374.06 578.261 1444.31 L 577.013 1444.32 z" fill="rgb(254,253,251)" transform="translate(0,0)"></path>
<path d="M 879.032 1069.17 L 902.651 1068.91 C 897.678 1078.16 892.842 1087.53 887.12 1096.33 C 882.428 1103.7 880.442 1103.47 877.185 1107.73 C 875.818 1107.45 862.01 1107.42 858.353 1107.14 C 860.561 1102.88 861.341 1101.54 864.287 1097.77 C 869.033 1088.15 873.949 1078.62 879.032 1069.17 z" fill="rgb(254,253,251)" transform="translate(0,0)"></path>
<path d="M 887.12 1096.33 C 882.428 1103.7 880.442 1103.47 877.185 1107.73 C 875.818 1107.45 862.01 1107.42 858.353 1107.14 C 860.561 1102.88 861.341 1101.54 864.287 1097.77 C 872.264 1097.46 879.191 1097.13 887.12 1096.33 z" fill="rgb(137,47,41)" transform="translate(0,0)"></path>
<path d="M 762.56 935.806 C 765.095 939.766 766.21 942.91 769.197 946.909 C 794.652 980.986 831.652 1003.12 870.686 1018.47 C 878.195 1021.42 888.829 1021.38 892.713 1025.99 L 891.371 1029.55 C 868.632 1023.17 846.796 1013.92 826.387 1002.03 C 817.976 997.19 809.924 991.75 802.291 985.754 C 793.096 978.555 764.959 953.555 759.773 941.344 C 759.247 940.107 761.541 937.381 762.56 935.806 z" fill="rgb(254,253,251)" transform="translate(0,0)"></path>
<path d="M 923.005 992.707 L 947.9 993.175 C 943.344 1001.43 938.205 1009.36 932.522 1016.89 C 924.831 1017.27 917.138 1017.59 909.443 1017.86 C 913.735 1009.36 918.258 1000.97 923.005 992.707 z" fill="rgb(254,253,251)" transform="translate(0,0)"></path>
<path d="M 829.149 737.89 C 830.016 742.252 829.332 742.656 831.887 745.282 C 832.882 744.831 833.4 744.74 834.149 744.047 L 835.565 744.59 L 835.248 743.243 L 835.891 743.655 L 836.317 748.357 C 835.908 750.923 835.432 753.479 834.889 756.02 C 832.586 766.47 828.438 777.582 818.734 783.636 C 814.001 786.588 802.404 789.879 799.358 782.189 C 798.472 779.953 798.323 780.282 799.338 778.32 C 822.15 781.08 827.151 754.717 829.149 737.89 z" fill="rgb(254,253,251)" transform="translate(0,0)"></path>
<path d="M 752.736 748.615 C 773.374 749.65 761.718 779.704 755.218 790.044 C 752.206 792.116 751.137 793.072 747.599 792.303 C 747.219 789.525 752.047 754.716 752.736 748.615 z" fill="rgb(254,253,251)" transform="translate(0,0)"></path>
<path d="M 896.712 1039.11 C 904.414 1039.09 912.115 1039 919.815 1038.84 C 916.014 1046.25 912.253 1052.01 907.735 1059.04 C 900.538 1060.55 892.106 1060.34 884.799 1060.22 C 888.539 1052.87 892.525 1046.2 896.712 1039.11 z" fill="rgb(254,253,251)" transform="translate(0,0)"></path>
<path d="M 743.82 1070.94 C 769.153 1090.54 779.735 1094.9 808.232 1108.7 L 806.692 1110.39 C 780.511 1099.91 764.064 1091.2 743.43 1071.81 L 743.82 1070.94 z" fill="rgb(254,253,251)" transform="translate(0,0)"></path>
<path d="M 563.796 1440.32 C 568.472 1442.76 571.883 1445.17 577.013 1444.32 L 578.261 1444.31 C 575.523 1448.64 571.35 1452.8 566.722 1455.08 C 563.644 1454.98 564.961 1455.52 562.704 1453.25 C 561.382 1449.02 562.852 1444.85 563.796 1440.32 z" fill="rgb(254,253,251)" transform="translate(0,0)"></path>
<path d="M 903.974 1025.82 C 910.099 1026.43 922.874 1024.84 925.902 1027.49 L 924.787 1029.2 C 920.252 1029.89 906.835 1031.66 903.377 1028.9 L 903.974 1025.82 z" fill="rgb(254,253,251)" transform="translate(0,0)"></path>
<path d="M 790.214 708.425 C 790.975 712.373 791.129 719.607 792.55 721.795 C 792.014 728.852 791.55 732.577 790.17 739.506 C 789.805 729.437 790.114 718.558 790.214 708.425 z" fill="rgb(217,188,186)" transform="translate(0,0)"></path>
<path d="M 1412.63 1275.42 C 1456.07 1269.34 1517.52 1284.42 1555.48 1308 C 1626.32 1352 1661 1440.26 1613.25 1514.76 C 1583.95 1560.48 1537.66 1586.34 1485.02 1596.38 C 1475.32 1598.24 1452.86 1603.07 1444.51 1597.6 L 1444.22 1595.89 C 1445.23 1594.36 1447.14 1592.57 1448.88 1591.97 C 1468.61 1585.12 1485.11 1577.62 1503.07 1566.67 C 1508.26 1563.32 1513.37 1559.85 1518.4 1556.28 C 1574.45 1516.47 1605.68 1441.14 1560.75 1381.42 C 1515.15 1320.83 1419.14 1301.76 1348.43 1320.36 C 1341.34 1322.23 1334.35 1324.89 1327.55 1327.56 C 1319.67 1330.68 1306.52 1344.65 1298.1 1343.16 C 1296.42 1342.86 1296.58 1342.31 1295.46 1340.67 C 1295.47 1329.38 1315.21 1305.75 1324.34 1299.81 C 1350.13 1282.99 1382.44 1277.75 1412.63 1275.42 z" fill="rgb(114,38,33)" transform="translate(0,0)"></path>
<path d="M 1418.02 1284.43 C 1460.38 1281.57 1507.24 1291.59 1545.05 1312.7 C 1611.64 1349.96 1649.98 1434.02 1608.73 1504.02 C 1578.18 1555.85 1535.33 1574.68 1480.01 1588.93 C 1505.28 1574.47 1513.07 1572.85 1537.82 1552.66 C 1562.45 1529.82 1579.28 1506.32 1587.73 1473.53 C 1595.31 1444.11 1592.2 1414.56 1576.4 1388.19 C 1551.18 1346.12 1507.48 1322.86 1461.01 1311.05 C 1422.63 1301.3 1375.17 1300.61 1337.34 1313.84 C 1327.85 1317.16 1317.98 1323.24 1309.28 1328.42 C 1338.33 1291.88 1373.06 1287.18 1418.02 1284.43 z" fill="rgb(254,253,251)" transform="translate(0,0)"></path>
<path d="M 1570.71 1194.42 C 1626.48 1190.38 1687.82 1202.44 1732.26 1238.78 C 1845.02 1330.99 1825.27 1519.3 1666.63 1541.09 C 1659.8 1542.03 1641.17 1542.96 1635.93 1538.55 C 1634.95 1535.31 1634.86 1536.83 1636.03 1533.82 C 1643.5 1527.17 1668.39 1518.48 1679.24 1513.96 C 1699.41 1504.5 1713.85 1496.53 1728.17 1479.25 C 1779.57 1417.26 1758.96 1325.71 1699.67 1277.08 C 1653.83 1239.48 1578.92 1221.66 1521.27 1232.48 C 1511.66 1234.31 1502.2 1236.9 1493 1240.24 C 1487.45 1242.23 1477.39 1247.36 1472.56 1247.84 C 1466.9 1242.19 1476.67 1233.11 1480.41 1228.18 C 1500.28 1202 1540.42 1196.83 1570.71 1194.42 z" fill="rgb(114,38,33)" transform="translate(0,0)"></path>
<path d="M 1573.11 1203.42 C 1620.17 1198.91 1679.58 1211.74 1718.7 1240.22 C 1808.74 1305.76 1829.18 1454.3 1721.78 1514.11 C 1697.98 1527.37 1682.23 1530.05 1655.22 1533.64 C 1674.38 1525.03 1685.9 1521.22 1704.81 1510.32 C 1783.63 1458.37 1784.55 1354.27 1724.3 1287.45 C 1667.33 1224.27 1564.98 1206.76 1486.17 1233.3 C 1511.53 1208.99 1538.49 1206.34 1573.11 1203.42 z" fill="rgb(254,253,251)" transform="translate(0,0)"></path>
<path d="M 1392.25 1398.85 C 1403.89 1398.38 1434.86 1414.75 1444.06 1423.98 C 1457.58 1437.54 1462.52 1447.42 1463.37 1466.24 C 1465.12 1504.54 1433.01 1533.76 1401.65 1550.12 C 1370.01 1566.62 1345.38 1571.68 1318.97 1599.49 C 1290 1629.98 1310.43 1658.54 1310.99 1696.9 C 1311.87 1757.05 1287.07 1794.73 1247.98 1836.27 C 1243.12 1841.17 1232.01 1855.5 1225.52 1849.15 C 1225.91 1845.87 1233.36 1838.63 1235.85 1835.92 C 1266.87 1802.22 1276.84 1758.16 1268.23 1713.53 C 1260.81 1675 1243.87 1639.86 1254.13 1599.81 C 1262.16 1563.79 1294.66 1535.46 1327.73 1521.76 C 1372.05 1503.4 1439.92 1477.84 1398.79 1417.15 C 1395.1 1411.7 1390.67 1405.55 1392.25 1398.85 z" fill="rgb(114,38,33)" transform="translate(0,0)"></path>
<path d="M 1405.11 1410.39 C 1423.27 1414.74 1447.5 1433.35 1452.95 1451.22 C 1465.87 1492.89 1425.87 1530.11 1391.26 1545.85 C 1352.7 1563.39 1291.96 1587.39 1295.75 1639.81 C 1297.39 1662.45 1303.95 1683.92 1302.89 1707.51 C 1301.64 1735.26 1294.05 1755.98 1281.41 1780.43 C 1278.03 1786.28 1273.25 1793.15 1269.47 1798.9 C 1275.31 1779.25 1278.84 1767.81 1279.67 1747.01 C 1281.61 1698.48 1249.89 1646.68 1263.01 1599.79 C 1279.25 1541.73 1332.75 1531.84 1378.97 1507.2 C 1395.69 1498.28 1412.89 1481.85 1417.57 1462.92 C 1422.64 1442.42 1415.29 1427.38 1405.11 1410.39 z" fill="rgb(202,125,116)" transform="translate(0,0)"></path>
<metadata><recraft-signature>{"signed_by": "recraft", "signature_b64": "Lj7y9uH3I4STnU8Dl8hrqAVgOitCVTJ0vd6LYTq3ORz1wX6dgAhlie8G7FfLtUcO/UK9SEZ8Wa+aZf+ec5h/CA==", "signing_algo": "Ed25519", "generation_timestamp": 1778092746, "identifier": "3604bdc3-f49f-4353-bf96-404c2255e54f"}</recraft-signature></metadata></svg>