<svg xmlns="http://www.w3.org/2000/svg" height="1024" preserveAspectRatio="none" style="display: block;" version="1.1" viewBox="0 0 2048 2048" width="1024">
<path d="M 0 0 L 2048 0 L 2048 2048 L 0 2048 L 0 0 z" fill="rgb(254,253,249)" transform="translate(0,0)"></path>
<path d="M 197.686 521.395 C 268.836 512.272 324.811 559.07 371.566 605.989 C 404.855 639.394 435.701 678.447 484.966 686.479 C 584.101 702.641 671.767 633.073 763.153 611.173 C 797.269 602.78 832.776 601.714 867.334 608.044 C 902.41 614.498 954.325 642.125 986.946 658.826 C 1054.46 693.93 1120.87 731.128 1186.07 770.367 L 1328.53 854.809 L 1581.28 1009.44 C 1674.95 1067.13 1768.06 1124.34 1857.36 1188.93 C 1887.58 1213.02 1929.91 1239.02 1952.38 1270.68 C 1976.66 1304.9 1971.48 1359.29 1942.21 1389 C 1915.13 1416.48 1884.03 1438.34 1853.67 1461.46 C 1754.17 1537.25 1648.5 1603.81 1544.03 1672.27 C 1488.69 1707.94 1435.14 1744.33 1377.29 1775.99 C 1351.45 1790.13 1328.94 1804.44 1300.76 1814.29 C 1239.9 1835.55 1182.75 1817.46 1128.73 1787.73 C 1070.65 1755.83 1015.57 1719.56 959.981 1683.77 L 720.744 1529.78 L 404.279 1326.14 C 347.844 1289.77 292.724 1254.44 238.101 1215.21 C 204.283 1190.93 170.417 1169.61 141.368 1139.13 C 116.838 1113.4 111.849 1086.77 112.297 1052.35 C 113.678 946.34 228.608 893.565 308.715 851.11 C 326.612 841.625 356.63 824.103 371.633 810.133 L 372.779 809.057 C 355.065 754.189 294.329 730.911 243.211 717.205 C 203.448 706.543 161.923 703.159 128.083 677.192 C 91.7068 649.278 88.2236 594.199 116.127 559.294 C 135.396 535.467 167.848 524.711 197.686 521.395 z" fill="rgb(0,0,0)" transform="translate(0,0)"></path>
<path d="M 195.624 529.336 C 266.169 517.452 334.072 574.968 377.761 623.454 C 454.643 708.779 504.591 708.622 611.153 678.132 C 663.991 720.787 716.937 761.618 774.151 798.314 C 792.329 809.973 823.514 830.737 843.004 839.422 C 832.169 826.293 794.942 804.686 778.859 794.168 C 762.721 783.617 746.819 772.71 731.164 761.455 C 690.614 732.656 656.889 706.342 618.014 675.618 C 652.914 662.551 687.039 646.291 722.563 632.729 C 727.659 637.972 733.602 643.338 739.164 648.129 C 798.996 699.658 862.164 747.439 929.362 788.973 C 951.933 802.924 974.946 819.563 999.748 829.156 C 998.38 827.382 996.081 824.518 994.242 823.332 C 959.342 800.807 923.013 779.365 888.798 755.802 C 854.909 732.454 821.93 707.812 789.934 681.931 C 771.259 667.022 746.24 646.815 729.583 630.016 C 786.258 611.382 835.603 602.346 893.71 623.377 C 935.078 638.349 977.458 661.978 1016.32 682.827 C 1100.73 728.106 1182.67 777.386 1265.08 826.12 C 1339.97 870.147 1414.36 915.009 1488.24 960.697 C 1516.02 977.797 1543.1 995.904 1571.2 1012.78 C 1689.74 1083.97 1807.92 1156.99 1915.7 1243.97 C 1932.26 1257.34 1946.81 1272.53 1955.94 1291.88 C 1952 1299.63 1947.4 1307.02 1942.2 1313.99 C 1933.09 1307.2 1920.58 1300.53 1910.52 1294.72 C 1892.8 1284.59 1875.17 1274.29 1857.63 1263.83 L 1651.45 1142.26 C 1629.46 1129.28 1607.29 1116.59 1584.96 1104.19 C 1568.79 1095.15 1555.05 1086.35 1537.49 1080.33 C 1547.66 1092.99 1671.51 1160.91 1694.9 1174.65 C 1755.86 1210 1816.45 1245.98 1876.66 1282.59 C 1897.34 1294.96 1918.18 1306.63 1938.7 1319.31 C 1929.54 1331.34 1919.62 1341.25 1908.92 1351.82 C 1889.81 1343.25 1766.29 1280.24 1755.96 1280.09 L 1755.43 1281.33 C 1760.52 1288.01 1886.46 1348.57 1903.71 1356.04 C 1884.02 1374.75 1853.99 1399.83 1831.49 1415.02 C 1781.02 1388.18 1730.03 1362.33 1678.56 1337.48 C 1671.88 1334.23 1631.56 1313.25 1627.47 1316.07 C 1632.47 1323.03 1765 1387.39 1785.56 1398.25 C 1799.14 1405.42 1812.83 1412.38 1826.63 1419.11 C 1751.19 1474.44 1672.11 1525.07 1594.88 1577.96 C 1562.12 1560.62 1529.89 1543 1496.33 1527.17 C 1480.33 1519.62 1461.91 1509.19 1445.06 1504.6 C 1455.24 1514.6 1506.53 1539.05 1522.81 1547.34 C 1544.89 1558.55 1566.78 1570.1 1588.49 1582 C 1568.84 1596.89 1539.79 1615.12 1518.58 1629.38 C 1485.15 1652.16 1451.13 1674.08 1416.56 1695.09 C 1395.61 1707.97 1365.08 1726.5 1342.41 1736.31 C 1245.41 1683.07 1147.94 1630.67 1050.03 1579.13 C 1021.89 1564.05 985.994 1543.18 956.455 1529.36 C 954.498 1528.44 952.559 1529.38 950.961 1530.42 L 951.216 1532.54 C 953.664 1535.3 991.007 1553.94 998.058 1557.78 L 1230.21 1682.89 L 1287.11 1714.14 C 1302.42 1722.4 1320.03 1731.3 1334.67 1740.36 C 1326.73 1744.35 1318.49 1747.88 1310.42 1751.6 C 1280.45 1765.92 1232.14 1770.59 1200.55 1757.68 C 1152.23 1737.93 1101.01 1703.5 1056.88 1675.24 L 822.041 1522.36 L 477.557 1303.8 C 390.09 1248.22 301.547 1191.83 218.515 1129.67 C 183.178 1103.21 142.202 1069.35 122.642 1029.31 C 125.875 1015.92 127.678 1009.05 133.539 996.733 C 160.815 1015.05 188.371 1032.95 216.199 1050.42 C 234.178 1061.86 261.986 1080.04 280.611 1088.48 C 270.984 1077.55 247.278 1063.48 234.356 1054.77 C 202.181 1033.1 168.476 1013.59 137.148 990.585 C 144.621 976.702 150.409 969.339 161.066 957.972 C 180.757 968.914 207.615 987.862 227.521 1000.59 C 272.23 1029.67 317.724 1057.53 363.95 1084.14 C 380.282 1093.5 407.734 1110.19 424.494 1115.23 C 415.256 1106.47 388.712 1091.84 376.913 1084.92 C 353.619 1071.36 330.456 1057.56 307.429 1043.55 C 259.397 1014.22 212.916 982.41 165.199 953.315 C 182.557 936.294 201.734 921.232 222.384 908.401 C 266.095 881.41 361.503 841.282 390.553 802.424 C 399.311 790.709 403.517 776.533 401.066 761.94 C 398.314 745.554 387.698 732.346 375.618 721.589 C 331.859 682.619 253.416 663.342 197.729 644.771 C 176.593 637.723 154.37 631.202 136.084 618.035 C 126.196 610.914 117.126 601.219 115.337 588.68 C 113.993 579.262 117.268 570.048 123.023 562.627 C 139.299 541.636 170.633 532.953 195.624 529.336 z" fill="rgb(182,161,138)" transform="translate(0,0)"></path>
<path d="M 1034.03 856.445 C 1114.4 855.709 1177.4 870.77 1251.4 902.014 C 1374.52 953.999 1493.08 1035.8 1550.45 1160.21 C 1613.01 1295.85 1507.32 1438.17 1384.86 1489.92 C 1225.48 1557.28 1037.98 1535.39 881.06 1472 C 813.525 1444.35 752.464 1402.98 701.742 1350.52 C 690.727 1339.23 672.174 1310.89 664.134 1305.61 C 656.003 1300.26 630.803 1286.79 621.011 1281.23 L 502.071 1212.16 C 482.6 1200.81 462.936 1189.63 443.984 1177.39 C 442.328 1176.32 441.901 1174.99 441.163 1173.28 L 441.925 1171.68 C 446.615 1171.28 493.448 1200.11 500.332 1204.13 C 534.284 1223.98 568.355 1243.62 602.541 1263.06 C 621.112 1273.65 641.576 1285.9 660.464 1295.61 C 643.192 1262.05 630.276 1229.23 629.12 1190.99 C 622.828 982.892 855.522 863.137 1034.03 856.445 z" fill="rgb(0,0,0)" transform="translate(0,0)"></path>
<path d="M 1020.45 864.405 C 1085.25 855.979 1182.52 881.921 1241.76 906.47 C 1225.11 904.428 1211.13 901.531 1193.9 900.352 C 1099.42 893.888 1035.89 913.806 955.062 958.325 C 919.003 948.432 874.987 942.467 837.479 943.227 C 829.763 943.383 796.877 945.892 793.334 949.781 C 797.421 952.726 816.081 951.561 822.232 951.714 C 860.081 952.655 896.871 961.102 933.672 969.251 C 845.195 1012.47 783.902 1091.8 754.437 1185.34 C 750.961 1196.37 747.444 1209.84 747.224 1221.32 C 752.553 1210.44 758.83 1188.09 764.342 1174.47 C 793.568 1102.3 860.412 1042.94 926.051 1003.67 C 936.81 997.227 952.011 988.122 963.373 983.349 C 1018 1001.77 1076.52 1031.15 1122.78 1065.49 C 1108.24 1072.1 1091.56 1079.52 1077.98 1087.83 C 994.101 1139.15 936.68 1229.58 912.977 1323.82 C 911.006 1331.66 903.246 1362.26 906.573 1367.76 L 908.352 1367.53 C 910.812 1362.48 912.641 1350.39 914.049 1344.22 C 916.088 1335.33 918.689 1326.57 921.833 1318 C 946.889 1248.99 1012.66 1181.13 1072.76 1140.3 C 1103.11 1119.69 1126.8 1108.37 1159.52 1092.95 C 1206.28 1125.41 1270 1203.72 1295.03 1254.21 C 1219.68 1279.39 1159.2 1334.32 1112.95 1397.43 C 1101.62 1412.89 1088.8 1430.35 1081.53 1448.02 C 1093.22 1436.65 1108.16 1412.56 1121.85 1397.9 C 1178.07 1337.68 1232.93 1310.04 1306.7 1278.19 C 1321.95 1300.5 1335.34 1334.43 1344.28 1360.19 C 1347.67 1369.98 1353.29 1397.88 1357.53 1404.17 C 1361.56 1390.74 1333.74 1289.03 1328.01 1270.58 C 1359.1 1259.44 1387.5 1252.89 1419.85 1246.79 C 1433.08 1244.58 1447.9 1242.53 1461.21 1241.57 C 1475.79 1240.53 1490.36 1240.69 1504.98 1239.21 C 1447.97 1223.27 1372.99 1231.54 1316.25 1246.35 C 1288.52 1187.07 1242.04 1125.36 1193.91 1081.35 C 1258.5 1060.67 1326.69 1053.63 1394.14 1060.7 C 1406.22 1062.02 1418.24 1063.8 1430.18 1066.05 C 1435.24 1067.03 1446.77 1070.59 1450.57 1070.49 L 1451.13 1069.12 C 1448.36 1064.35 1439.13 1060.89 1433.99 1058.74 C 1349.52 1023.39 1242.64 1014.56 1156.72 1051.89 C 1111.82 1014.89 1049.83 984.132 994.027 968.132 C 1073.28 931.96 1179.1 902.537 1267.79 917.817 C 1275.02 919.064 1291.86 928.37 1298.88 932.027 C 1345.26 956.173 1390.47 984.558 1430.54 1018.24 C 1490.79 1069.05 1554.22 1150.23 1560.44 1230.84 C 1565.29 1293.62 1539.89 1349.9 1499.01 1396.22 C 1477.4 1420.7 1448.84 1446.89 1420.5 1463.73 C 1365.04 1496.66 1278.58 1518.39 1214.01 1522.17 C 1059.12 1531.24 867.323 1483.28 746.912 1383.07 C 690.257 1335.04 641.642 1271.38 637.397 1194.49 C 626.384 995.033 849.484 875.725 1020.45 864.405 z" fill="rgb(254,253,249)" transform="translate(0,0)"></path>
<path d="M 725.448 1330.29 C 726.383 1330.64 726.582 1330.7 727.581 1331.17 C 731.004 1332.81 758.267 1360.06 764.851 1365.65 C 786.137 1383.73 808.587 1400.44 832.916 1414.19 C 838.05 1417.09 865.592 1430.09 866.856 1433.97 L 865.178 1436.9 C 826.644 1425.49 772.19 1381.1 742.011 1353.72 C 735.742 1348.03 723.517 1338.5 725.448 1330.29 z" fill="rgb(0,0,0)" transform="translate(0,0)"></path>
<path d="M 1330.87 1474.21 C 1331.96 1474.6 1332.45 1475.21 1333.43 1476.01 L 1333.21 1478.09 C 1322.47 1486.99 1257.81 1499.9 1240.23 1502.67 L 1236.98 1502.22 C 1236.67 1501 1236.97 1501.22 1237.7 1499.54 C 1242.37 1496.46 1253.31 1494.24 1258.93 1493.37 C 1283.44 1489.56 1306.83 1479.85 1330.87 1474.21 z" fill="rgb(0,0,0)" transform="translate(0,0)"></path>
<path d="M 1516.61 1330.3 L 1518.37 1331.09 C 1524.49 1343.73 1489.46 1377.06 1479.74 1384.26 C 1478.93 1383.94 1478.35 1383.22 1477.62 1382.56 C 1477.98 1377.31 1502.59 1355.13 1507.62 1346.66 C 1511.46 1340.2 1512.84 1338.52 1516.61 1330.3 z" fill="rgb(0,0,0)" transform="translate(0,0)"></path>
<path d="M 1187.83 1499.43 C 1195.06 1498.9 1196.73 1498.31 1203.32 1500.94 L 1203.6 1502.58 C 1197.12 1506.42 1171.63 1505.8 1163.25 1505.92 C 1157.6 1506.17 1150.58 1507.34 1146.36 1504.11 L 1147.03 1502.53 C 1154.28 1499.29 1178.31 1499.87 1187.83 1499.43 z" fill="rgb(0,0,0)" transform="translate(0,0)"></path>
<path d="M 890.239 1444.89 C 899.34 1445.17 923.142 1457.2 932.253 1461.46 C 932.741 1462.64 933.23 1463.82 933.718 1464.99 C 924.45 1465.87 904.791 1456.33 896.203 1452.11 C 891.389 1449.75 891.476 1449.02 890.239 1444.89 z" fill="rgb(0,0,0)" transform="translate(0,0)"></path>
<path d="M 1458.9 1404.83 C 1459.6 1405.41 1460.02 1406.2 1460.57 1407.01 C 1459.27 1413.64 1430.49 1433.24 1423.52 1437.25 C 1421.62 1436.77 1422.46 1437.28 1421.14 1435.54 C 1422.64 1429.99 1452.55 1409.56 1458.9 1404.83 z" fill="rgb(0,0,0)" transform="translate(0,0)"></path>
<path d="M 1000.57 881.424 C 1004.22 881.138 1006.96 880.848 1009.98 882.925 C 1007.27 885.781 969.764 890.03 961.376 892.086 C 955.682 893.442 952.012 893.869 946.292 894.531 C 966.468 884.958 978.81 883.263 1000.57 881.424 z" fill="rgb(0,0,0)" transform="translate(0,0)"></path>
<path d="M 952.9 964.977 C 965.494 959.115 978.92 950.655 992.6 944.339 C 1058.73 913.81 1114.89 905.09 1186.91 905.986 L 1193.49 907.897 C 1129.12 915.434 1071.86 927.443 1012.23 954.149 C 999.836 959.698 987.411 963.238 976.101 970.916 C 1023.57 975.194 1087.24 1011.23 1126.83 1037.53 C 1138.62 1045.36 1160.06 1063.01 1172.02 1066.38 L 1172.49 1065.87 C 1169.35 1061.54 1165.86 1059.02 1161.75 1055.6 C 1242.28 1022.72 1326.25 1030.91 1407.38 1055.11 C 1393.01 1054.45 1379.3 1053.05 1364.8 1052.59 C 1335.31 1051.83 1305.81 1053.1 1276.49 1056.38 C 1153.17 1070.3 1029.3 1143.53 955.68 1243.12 C 948.881 1252.31 943.305 1262.01 936.912 1271.35 C 976.439 1180.26 1032.08 1107.82 1127.6 1069.91 C 1128.47 1069.57 1129.34 1069.24 1130.21 1068.93 C 1134.96 1071.65 1140.61 1075.05 1145.41 1077.52 C 1111.38 1038.85 991.324 981.44 939.741 974.637 L 936.917 972.693 C 939.314 971.343 940.99 970.699 942.574 968.452 C 927.608 960.878 887.71 955.208 870.749 950.966 C 888.992 951.097 937.796 957.082 952.9 964.977 z" fill="rgb(254,253,249)" transform="translate(0,0)"></path>
<path d="M 1186.71 1083.73 C 1231.4 1117.06 1291.26 1202.47 1311.92 1254.14 C 1341.73 1244.66 1372.66 1239.2 1403.91 1237.89 C 1412.01 1236.45 1439.22 1236.46 1446.77 1238.02 L 1429.62 1239.69 C 1384.65 1245.93 1360.03 1254.17 1316.96 1268 C 1326.79 1283.98 1331.44 1302.89 1336.34 1320.91 C 1329.52 1304.8 1319.82 1285.34 1311.3 1270.06 C 1271.13 1285.3 1227.57 1306.98 1191.47 1330.37 C 1179.53 1338.1 1164.22 1350.65 1152.8 1359.64 L 1153.79 1358.65 L 1153.68 1357.9 C 1185.86 1317.48 1238.14 1282.78 1285.98 1264.04 C 1291.34 1261.94 1300.63 1259.46 1304.9 1255.99 C 1292.01 1237.91 1280.67 1217.48 1267.96 1198.8 C 1237.38 1153.85 1208.22 1124.68 1166.28 1090.95 C 1172.94 1088.35 1179.93 1086.05 1186.71 1083.73 z" fill="rgb(254,253,249)" transform="translate(0,0)"></path>
<path d="M 1403.91 1237.89 C 1412.01 1236.45 1439.22 1236.46 1446.77 1238.02 L 1429.62 1239.69 L 1429.54 1238.94 C 1426.84 1237.53 1408.38 1237.93 1403.91 1237.89 z" fill="rgb(109,103,99)" transform="translate(0,0)"></path>
<path d="M 795.575 1108.51 C 820.34 1061.19 886.086 991.857 936.917 972.693 L 939.741 974.637 C 942.775 979.212 948.125 980.192 953.588 982.183 C 942.147 989.07 928.867 995.288 916.802 1002.63 C 867.271 1032.78 831.36 1063.22 795.575 1108.51 z" fill="rgb(254,253,249)" transform="translate(0,0)"></path>
<path d="M 1186.91 905.986 C 1192.83 905.873 1198.67 905.384 1204.31 907.143 C 1202.7 908.282 1195.44 908.144 1193.49 907.897 L 1186.91 905.986 z" fill="rgb(109,103,99)" transform="translate(0,0)"></path>
<path d="M 224.742 559.209 C 252.38 556.981 279.696 572.558 263.843 605.32 C 259.698 613.887 247.971 617.148 239 618.967 C 228.071 619.615 220.249 619.522 210.216 615.153 C 186.034 604.62 188.66 576.988 210.054 565.078 C 215.282 562.168 219.146 560.995 224.742 559.209 z" fill="rgb(0,0,0)" transform="translate(0,0)"></path>
<path d="M 224.263 565.159 C 228.725 564.684 232.589 564.225 237.081 564.859 C 245.605 566.095 253.258 570.753 258.271 577.758 C 262.909 584.352 266.587 594.034 258.157 599.08 C 253.425 599.705 244.478 596.714 239.17 595.348 C 223.995 592.336 217.157 595.109 202.34 595.435 C 200.169 595.483 199.409 593.078 198.723 591.41 C 200.176 576.796 211.85 569.69 224.263 565.159 z" fill="rgb(182,161,138)" transform="translate(0,0)"></path>
<path d="M 213.92 600.259 C 221.653 599.125 246.769 599.575 250.267 607.582 C 248.221 610.564 247.537 609.952 243.256 611.485 C 234.34 612.753 211.09 612.629 207.237 602.81 C 209.436 600.436 209.996 601.055 213.92 600.259 z" fill="rgb(254,253,249)" transform="translate(0,0)"></path>
<path d="M 932.451 685.58 C 942.239 687.235 1089.76 806.004 1116.63 816.214 C 1121.03 817.889 1154.09 839.129 1155.85 842.947 C 1133.31 843.153 966.627 719.328 941.008 697 C 936.473 693.048 932.549 691.796 932.451 685.58 z" fill="rgb(0,0,0)" transform="translate(0,0)"></path>
<path d="M 435.785 748.65 C 440.724 749.648 447.407 756.482 451.285 759.981 C 496.209 800.507 548.701 832.377 598.404 866.594 C 600.901 868.314 601.902 869.451 603.466 871.948 C 582.852 867.756 465.209 784.598 445.256 763.613 C 439.796 757.872 436.048 756.652 435.785 748.65 z" fill="rgb(0,0,0)" transform="translate(0,0)"></path>
<path d="M 342.289 897.019 C 345.163 897.393 346.908 897.858 349.388 899.487 C 391.374 927.058 433.792 953.67 477.525 978.404 C 481.396 980.594 488.664 984.521 489.77 988.969 C 471.601 985.132 348.17 912.005 342.289 897.019 z" fill="rgb(0,0,0)" transform="translate(0,0)"></path>
<path d="M 120.454 1043.62 C 125.04 1047 144.49 1075.86 152.791 1083.52 C 230.861 1155.6 323.207 1213.42 412.359 1271.24 C 494.203 1324.32 578.185 1375.37 660.457 1428.31 C 692.145 1449.13 724.06 1469.59 756.196 1489.71 C 781.103 1505.42 807.209 1521.13 831.684 1537.28 L 1016.61 1658.38 C 1053.55 1682.23 1089.66 1705.58 1127.36 1728.28 C 1176.08 1757.62 1226.2 1783.58 1284.98 1768.09 C 1319.89 1758.88 1369.49 1731.1 1400.74 1712.79 C 1483.51 1664.31 1561.88 1607.61 1641.43 1553.92 C 1730.37 1493.9 1823.7 1436.64 1904.71 1366.11 C 1923.31 1349.92 1946.3 1324.93 1958.76 1303.69 C 1961.09 1320.04 1960.62 1329.45 1957.45 1345.55 C 1949.98 1367.97 1941.1 1382.67 1922.52 1397.91 C 1806.69 1492.95 1680.9 1575.61 1554.95 1656.43 C 1519.85 1678.95 1485.64 1702.4 1450.47 1724.25 C 1425.29 1739.6 1399.79 1754.42 1374 1768.72 C 1354.32 1779.8 1329.91 1794.63 1309.51 1803.06 C 1285.99 1813.02 1260.48 1817.39 1234.98 1815.83 C 1200.29 1813.68 1164.76 1798.85 1134.43 1782.11 C 1075.35 1749.52 1018.12 1712 961.385 1675.66 L 696.496 1505.21 L 473.459 1361.52 C 395.939 1312.35 319.21 1264.02 244.515 1210.47 C 212.718 1187.68 173.689 1162.72 147.013 1133.9 C 123.521 1108.52 118.144 1077.24 120.454 1043.62 z" fill="rgb(182,161,138)" transform="translate(0,0)"></path>
<path d="M 108.095 590.671 C 119.488 631.513 158.386 638.722 193.732 651.548 C 242.763 669.341 437.544 713.733 384.326 796.938 C 381.878 800.056 378.998 803.22 376.374 806.221 C 372.615 779.674 360.472 766.837 339.129 751.432 C 301.883 724.547 256.815 711.838 212.496 702.269 C 178.188 694.861 140.125 685.402 118.087 655.647 C 103.636 636.107 104.282 613.484 108.095 590.671 z" fill="rgb(182,161,138)" transform="translate(0,0)"></path>
<path d="M 558.221 112.235 C 570.451 113.329 596.955 121.256 609.023 124.706 C 667.62 141.405 724.219 161.541 776.098 194.126 C 796.647 207.033 818.543 226.185 839.443 238.713 C 841.389 239.879 856.552 243.131 860.988 244.681 C 881.645 230.366 916.731 205.95 944.412 214.619 C 958.944 219.171 980.576 232.207 994.571 239.893 L 1075.5 284.854 C 1212.82 361.689 1348.98 440.558 1483.95 521.437 L 1626.74 605.34 C 1647.84 617.93 1669.84 630.757 1690.45 644.077 C 1702.83 652.081 1709.73 661.85 1716.08 674.891 C 1731.17 705.83 1731.7 725.742 1720.82 757.616 C 1797.35 792.04 1864.06 842.67 1924.34 900.377 C 1942.81 918.054 1974.83 932.998 1947.88 958.248 C 1941.38 964.34 1937.47 965.49 1928.94 964.005 C 1913.46 960.093 1894.29 951.879 1878.86 946.484 C 1833.55 930.637 1789.23 910.561 1747.91 886.074 C 1722.47 870.998 1698.16 853.109 1673.33 836.813 C 1658.65 847.858 1614.39 876.168 1596.66 876.944 C 1585.48 877.434 1473.93 809.05 1456.68 798.635 L 951.825 497.8 C 920.014 478.814 888.103 459.998 856.092 441.351 C 844.888 434.802 814.469 418.019 806.523 410.756 C 796.577 381.53 800.316 357.894 807.173 328.924 C 794.765 324.334 782.627 318.485 770.518 313.148 C 742.973 301.009 715.753 288.535 689.971 272.904 C 671.11 261.47 652.162 248.838 634.457 235.663 C 616.487 222.291 538.375 158.194 534.94 140.26 C 534.027 135.492 536.271 130.486 538.88 126.629 C 543.562 119.704 549.959 114.038 558.221 112.235 z" fill="rgb(0,0,0)" transform="translate(0,0)"></path>
<path d="M 927.211 221.289 C 934.87 220.534 940.995 221.174 947.985 224.649 C 965.634 233.425 982.804 243.128 1000.11 252.556 C 1039.08 273.844 1077.85 295.473 1116.44 317.441 C 1242.63 388.565 1367.88 461.344 1492.16 535.757 L 1617.6 608.969 C 1627.49 614.853 1660.57 633.875 1667.95 640.783 C 1623.38 643.008 1593.8 664.098 1569.83 701.823 C 1545.57 740.001 1533.63 787.608 1543.62 832.416 L 1547.25 841.646 C 1528.16 832.231 1509.73 820.477 1491.28 809.674 L 1371.42 738.539 C 1232.84 657.319 1094.86 575.076 957.495 491.815 C 924.851 472.024 891.272 452.908 858.528 433.325 C 849.704 428.048 819.609 411.449 813.262 405.505 C 790.153 332.703 851.083 233.771 927.211 221.289 z" fill="rgb(254,253,249)" transform="translate(0,0)"></path>
<path d="M 1211.25 612.493 C 1219.6 614.199 1242.44 628.959 1251.11 634.123 C 1278.15 649.994 1305.03 666.121 1331.76 682.502 C 1369.11 705.144 1407.56 726.735 1445.19 748.958 C 1448.62 750.986 1453.71 754.508 1455.52 758.018 L 1454.38 760.953 C 1453.74 760.938 1453.09 760.965 1452.45 760.909 C 1447.93 760.516 1237.16 634.896 1216.62 621.874 C 1214.53 620.546 1212.46 619.151 1211.07 617.055 C 1210.08 615.564 1210.91 614.127 1211.25 612.493 z" fill="rgb(0,0,0)" transform="translate(0,0)"></path>
<path d="M 831.89 389.617 C 832.97 389.627 833.344 389.588 834.335 389.729 C 840.281 390.579 1068.52 526.314 1069.75 528.174 C 1070.54 529.354 1069.42 531.553 1069.07 532.843 C 1055.85 530.272 924.247 449.537 903.04 437.014 L 856.352 409.448 C 849.246 405.22 841.228 400.444 834.313 395.74 C 831.58 393.881 832.102 392.554 831.89 389.617 z" fill="rgb(0,0,0)" transform="translate(0,0)"></path>
<path d="M 1378.78 496.704 C 1388.83 496.457 1434.5 525.405 1446.44 532.464 L 1529.3 581.489 L 1574.86 608.492 C 1581.61 612.502 1588.88 616.728 1595.47 621.033 C 1598.1 622.748 1597.96 624.752 1598.42 627.469 C 1595.67 627.263 1594.08 627.014 1591.66 625.639 C 1557.94 606.458 1524.75 586.012 1491.36 566.403 L 1416.95 522.244 C 1405.62 515.615 1394.03 509.214 1382.62 502.69 C 1378.99 500.61 1379.58 500.22 1378.78 496.704 z" fill="rgb(0,0,0)" transform="translate(0,0)"></path>
<path d="M 1133.63 353.929 C 1141.24 356.367 1189.56 384.644 1199.7 390.391 L 1252.98 420.351 C 1263.58 426.329 1274.76 432.602 1284.8 439.548 C 1288.08 441.818 1288.57 443.579 1288.97 447.268 C 1282.13 447.115 1241.3 421.956 1231.2 416.114 L 1133.98 360.176 C 1132.19 357.096 1132.62 358.38 1133.63 353.929 z" fill="rgb(0,0,0)" transform="translate(0,0)"></path>
<path d="M 845.533 365.655 C 853.404 367.238 978.38 438.463 989.914 446.455 C 991.008 449.351 990.61 448.523 989.274 452.303 C 977.946 449.108 858.113 380.382 844.976 370.946 C 843.74 367.959 843.997 369.596 845.533 365.655 z" fill="rgb(0,0,0)" transform="translate(0,0)"></path>
<path d="M 951.492 246.722 C 965.839 252.41 1050.82 299.818 1054.37 308.222 C 1045.49 307.254 964.192 259.497 952.5 251.617 C 951.003 250.608 951.593 249.386 951.492 246.722 z" fill="rgb(0,0,0)" transform="translate(0,0)"></path>
<path d="M 1075.6 317.433 C 1080.35 318.535 1089.53 323.996 1093.35 327.069 L 1093.55 329.426 C 1085.28 329.659 1074.37 327.628 1075.6 317.433 z" fill="rgb(0,0,0)" transform="translate(0,0)"></path>
<path d="M 1507.63 784.599 C 1513.86 786.089 1515.48 790.829 1516.95 796.376 C 1509.09 798.749 1507.88 790.135 1507.63 784.599 z" fill="rgb(0,0,0)" transform="translate(0,0)"></path>
<path d="M 554.815 119.889 C 566.009 119.678 594.041 128.222 606.327 131.777 C 694.677 157.339 756.363 183.542 828.073 241.227 C 803.951 250.012 793.545 258.73 785.017 283.136 C 781.747 293.749 783.025 300.113 785.008 310.52 C 765.664 302.407 734.278 288.862 716.102 278.719 C 667.654 251.682 618.24 216.081 577.931 177.829 C 567.039 167.493 547.71 150.309 539.874 138.157 C 544.603 128.954 546.968 126.528 554.815 119.889 z" fill="rgb(218,193,175)" transform="translate(0,0)"></path>
<path d="M 590.28 164.469 C 591.892 164.716 694.604 251.29 711.001 253.065 C 713.464 253.331 732.477 264.76 733.57 266.533 C 707.741 264.262 591.1 184.533 590.28 164.469 z" fill="rgb(0,0,0)" transform="translate(0,0)"></path>
<path d="M 1699.13 757.154 C 1789.51 792.483 1861.53 852.16 1931.87 917.699 C 1942.94 928.011 1964.17 938.197 1937.94 955.169 C 1933.47 958.062 1925.62 954.906 1920.53 953.289 C 1867.28 934.136 1816.04 915.697 1766.5 887.763 C 1731.08 867.795 1698.89 844.864 1665.55 821.848 C 1661.81 794.453 1673.36 768.873 1699.13 757.154 z" fill="rgb(218,193,175)" transform="translate(0,0)"></path>
<path d="M 1731.85 844.458 C 1736.78 845.118 1760.22 861.929 1766.52 865.945 C 1788.86 879.932 1812.05 892.524 1835.94 903.649 C 1844.92 907.87 1860.13 913.525 1867.99 919.001 C 1869.26 919.891 1868.66 920.883 1868.42 922.894 C 1862.49 921.673 1853.64 917.524 1847.73 915.126 C 1807.17 898.681 1768.71 877.676 1734.19 850.656 C 1731.46 848.518 1731.89 847.594 1731.85 844.458 z" fill="rgb(0,0,0)" transform="translate(0,0)"></path>
<path d="M 1668.54 661.163 C 1690.76 658.957 1703.44 668.743 1712.82 688.415 C 1723.24 710.275 1721.26 732.589 1713.35 754.839 C 1698.36 746.49 1686.09 739.898 1669.51 735.52 C 1645.73 742.907 1624.46 775.048 1626.66 800.091 C 1627.99 815.124 1662.97 825.489 1664.62 833.475 L 1661.59 836.432 C 1648.48 845.762 1627.09 857.904 1612.05 862.769 C 1564.82 848.859 1572.01 769.06 1587.9 734.383 C 1604.5 698.137 1628.69 669.852 1668.54 661.163 z" fill="rgb(254,253,249)" transform="translate(0,0)"></path>
<path d="M 1661.85 648.386 C 1668.68 647.89 1689.23 648.338 1690.64 656.762 C 1690.35 656.668 1690.06 656.574 1689.77 656.48 L 1688.32 656.043 C 1654.42 645.6 1622.81 672.705 1602.12 696.427 C 1567.78 735.793 1549.57 827.348 1595.87 864.446 C 1598.31 865.983 1598.7 866.287 1600.83 868.232 L 1600.31 869.309 C 1591.08 869.853 1576.44 861.077 1569.25 855.242 C 1555.92 844.529 1549.03 828.378 1547.86 811.48 C 1543.14 742.802 1587.12 655.261 1661.85 648.386 z" fill="rgb(254,253,249)" transform="translate(0,0)"></path>
<path d="M 841.114 247.438 C 845.536 247.736 850.752 249.084 855.158 250.045 C 840.351 264.273 830.218 276.197 821.548 295.182 C 818.845 301.1 813.443 316.55 809.88 320.878 L 807.69 320.86 C 803.315 319.075 798.911 316.886 794.628 314.855 C 784.798 290.373 796.456 265.226 819.247 253.045 C 827.03 248.885 832.621 248.339 841.114 247.438 z" fill="rgb(218,193,175)" transform="translate(0,0)"></path>
<path d="M 1667.28 742.851 C 1678.1 744.294 1683.37 747.647 1692.65 753.014 C 1666.16 766.384 1657.14 789.539 1658.39 817.949 C 1655.79 818.176 1637.59 805.4 1636.38 802.777 C 1626.98 782.402 1652.76 751.521 1667.28 742.851 z" fill="rgb(218,193,175)" transform="translate(0,0)"></path>
<path d="M 101.604 1305.31 C 102.334 1305.34 104.752 1305.47 105.191 1305.82 C 118.072 1316.06 138.083 1342 146.359 1354.4 C 150.911 1361.23 154.977 1368.38 158.527 1375.78 C 169.672 1398.82 185.014 1438.49 176.057 1464.38 C 190.088 1497.44 228.332 1549.14 250.549 1578.32 C 245.205 1558.16 233.364 1538.33 228.359 1515.17 C 221.021 1485.79 219.604 1453.74 230.796 1425.1 C 232.893 1419.73 237.096 1405.13 243.347 1403.8 C 243.726 1404.09 244.119 1404.37 244.485 1404.68 C 250.331 1409.58 254.407 1421.62 257.556 1428.78 C 261.261 1437.2 265.103 1446.28 266.938 1455.33 C 273.198 1486.21 266.179 1520.51 260.07 1550.88 C 258.33 1559.53 254.478 1571.3 255.658 1580.04 C 258.818 1603.43 380.365 1717.75 403.306 1734.1 C 404.931 1710.67 391.073 1693.91 380.08 1673.44 C 375.051 1664.11 370.965 1654.31 367.883 1644.17 C 356.461 1605.98 359.983 1568.94 358.278 1529.69 C 358.143 1526.6 358.648 1525.56 360.794 1523.73 C 364.022 1523.86 367.055 1527 369.243 1529.37 C 405.489 1568.56 425.259 1621.66 418.833 1675.05 C 416.058 1698.11 409.273 1714.38 408.943 1738.7 C 417.946 1747.03 430.456 1754.98 440.619 1762.14 C 463.882 1778.53 484.578 1792.36 510.095 1805.06 C 504.04 1780.31 488.845 1771.77 473.626 1753.04 C 453.631 1728.43 442.913 1695.92 439.693 1664.68 C 438.893 1656.92 434.293 1616.99 437.253 1612.46 L 439.545 1612.18 C 444.235 1615.59 457.968 1632.24 461.809 1637.01 C 492.784 1675.5 506.245 1723.09 512.26 1771.32 C 513.71 1782.94 516.519 1796.55 515.232 1808.21 C 535.924 1820.66 587.807 1846.45 609.368 1855.26 C 608.087 1849.71 607.111 1843.06 604.85 1837.88 C 601.592 1830.42 592.962 1825.3 587.386 1819.64 C 583.154 1815.34 579.295 1810.52 575.624 1805.75 C 536.95 1755.43 538.14 1713.22 520.782 1656.97 C 519.115 1651.57 508.127 1627.2 508.521 1624.28 C 520.785 1622.59 552.561 1656.63 560.246 1665.86 C 595.574 1708.32 609.032 1758.89 611.634 1813.07 C 612.423 1829.49 611.701 1843.54 618.541 1859.04 C 655.711 1874.73 681.12 1883.92 720.182 1894.99 C 713.636 1879.3 706.51 1873.06 693.435 1863.19 C 641.214 1823.78 645.463 1757.24 625.75 1701.29 C 624.948 1699.01 624.911 1696.41 625.573 1694.04 L 627.508 1693.08 C 635.113 1694.9 647.253 1707.82 653.234 1713.12 C 698.224 1753.01 707.799 1811.28 717.886 1867.2 C 719.281 1874.93 725.225 1888.96 728.154 1896.88 C 743.819 1901.58 768.512 1906.66 784.612 1909.85 C 835.616 1920.32 887.327 1927 939.318 1929.81 C 950.284 1930.52 1021.31 1931.26 1027.21 1934.06 L 1026.53 1935.23 C 1009.81 1941.74 921.036 1935.94 900.241 1934.24 C 836.563 1928.73 773.53 1917.35 711.943 1900.26 C 636.904 1941.24 570.191 1952.46 486.462 1935.66 C 480.3 1934.43 464.152 1935.13 463.298 1928.14 L 464.498 1926.67 C 477.886 1922.22 499.506 1918.28 513.765 1914.77 C 571.163 1900.65 624.197 1891.43 683.392 1890.76 C 655.534 1882.89 620.44 1868.16 593.629 1856.22 C 583.609 1860.86 573.212 1867.57 562.644 1872.52 C 532.029 1886.88 492.65 1896.36 458.781 1894.54 C 448.882 1893.95 439.036 1892.67 429.317 1890.7 C 417.014 1888.24 357.565 1872.84 351.349 1865.85 C 351.272 1864.86 350.767 1863.51 351.716 1862.87 C 354.855 1860.72 360.25 1860.17 364.102 1859.7 C 393.769 1856.09 423.533 1849.97 453.278 1847.36 C 491.515 1844 530.234 1844.75 568.588 1845.08 L 489.039 1802.55 C 427.021 1828.44 376.866 1830.24 312.628 1807.34 C 302.832 1803.85 260.71 1790.31 257.522 1783.7 L 258.4 1782.08 C 265.201 1779.08 285.678 1778.13 293.941 1777.71 C 326.325 1776.09 361.132 1775.87 393.059 1781.97 C 424.607 1787.99 446.874 1797.28 479.688 1797.06 C 455.386 1782.83 431.601 1765.12 408.626 1748.8 C 401.821 1743.97 392.94 1735.34 387.512 1731.99 C 381.105 1739.35 362.471 1746.72 353.087 1749.13 C 323.694 1756.67 286.967 1756.36 257.504 1749.1 C 243.28 1745.59 174 1717.71 170.61 1705.54 L 171.56 1704.15 C 181.392 1700.9 199.963 1701.51 210.592 1700.82 C 272.08 1696.85 324.544 1716 383.522 1727.76 C 364.332 1711.65 336.908 1685.63 319.222 1667.76 C 248.944 1693.56 193.474 1660.13 135.225 1624.57 C 131.341 1622.2 127.416 1619.79 126.439 1615.25 L 128.362 1613.63 C 137 1611.6 149.875 1613.03 158.885 1613.25 C 211.227 1614.51 257.59 1639.88 303.44 1662.22 C 306.377 1663.65 311.158 1663.85 314.19 1662.49 C 311.077 1658.16 298.602 1645.52 294.452 1641.03 C 278.763 1624.04 263.262 1607.69 250.442 1588.29 C 233.373 1589.82 224.471 1590.47 207.477 1589.21 C 166.183 1586.15 133.199 1564.63 101.085 1540.34 C 95.3526 1536 86.6995 1530.9 81.7315 1525.59 C 80.6082 1524.39 81.2092 1523.92 81.6328 1521.75 C 85.7602 1518.37 106.22 1520.14 111.865 1520.62 C 134.549 1522.57 158.005 1529.36 177.944 1540.19 C 202.02 1553.26 223.804 1571.05 247.052 1585.02 C 231.831 1562.89 214.389 1542.66 199.443 1520.05 C 189.954 1505.69 181.909 1488.58 172.147 1475.39 C 169.116 1471.29 153.077 1460.35 147.648 1454.61 C 115.68 1420.79 101.996 1349.69 101.604 1305.31 z" fill="rgb(0,0,0)" transform="translate(0,0)"></path>
<path d="M 518.995 1635.38 C 537.516 1643.77 561.686 1677.45 572.399 1694.35 C 598.949 1736.21 604.364 1780.12 605.848 1828.43 C 599.228 1823.66 587.575 1810.63 582.123 1804.02 C 540.038 1752.94 541.625 1695.93 518.995 1635.38 z" fill="rgb(190,190,164)" transform="translate(0,0)"></path>
<path d="M 534.783 1850.54 C 552.974 1849.88 570.706 1848.31 588.162 1853.17 C 533.111 1883.94 486.883 1896.28 424.239 1883.55 C 410.495 1880 379.889 1871.39 367.622 1865.21 C 401.47 1859.92 435.385 1853.96 469.62 1852.19 C 491.334 1851.07 513.047 1850.86 534.783 1850.54 z" fill="rgb(190,190,164)" transform="translate(0,0)"></path>
<path d="M 633.407 1704.54 C 692.006 1741.7 701.308 1809.47 711.852 1871.4 C 646.974 1828.15 653.794 1770.03 633.407 1704.54 z" fill="rgb(190,190,164)" transform="translate(0,0)"></path>
<path d="M 365.044 1533.99 C 406.782 1581.66 423.367 1637.16 408.091 1699.33 L 406.586 1706.41 L 405.261 1706.04 C 398.221 1691.46 389.361 1678.11 381.938 1662.79 C 362.514 1622.69 363.933 1577.94 365.044 1533.99 z" fill="rgb(190,190,164)" transform="translate(0,0)"></path>
<path d="M 205.31 1707.4 C 262.551 1702.51 323.264 1720.03 378.051 1732.68 C 370.627 1737.65 363.246 1740.42 354.878 1743.28 C 338.953 1747.29 325.866 1747.9 309.74 1748.4 C 258.612 1749.98 227.75 1732.68 184.742 1709.38 C 191.09 1708.31 198.785 1707.91 205.31 1707.4 z" fill="rgb(190,190,164)" transform="translate(0,0)"></path>
<path d="M 682.894 1895.41 C 691.924 1894.41 695.542 1896.09 704.279 1898.59 C 632.9 1932.36 588.007 1944.2 507.772 1932.92 L 480.146 1928.81 C 486.095 1926.83 493.89 1925.34 500.116 1923.97 C 536.147 1916.06 572.231 1906.81 608.813 1901.84 C 633.418 1898.49 658.187 1897.22 682.894 1895.41 z" fill="rgb(190,190,164)" transform="translate(0,0)"></path>
<path d="M 311.825 1782.55 C 336.826 1781.15 371.119 1783.43 395.214 1788.43 C 423.292 1794.26 446.392 1801.62 475.512 1803.25 C 460.423 1808.19 448.049 1812.16 432.231 1814.83 C 370.955 1823.93 328.418 1807.17 272.866 1785.66 C 286.033 1782.98 298.468 1782.94 311.825 1782.55 z" fill="rgb(190,190,164)" transform="translate(0,0)"></path>
<path d="M 441.799 1623.52 C 448.792 1628.77 459.013 1642.83 463.895 1649.93 C 490.921 1689.24 502.92 1736.53 508.161 1783.41 C 504.654 1779.99 501.782 1774.45 497.547 1770.55 C 453.006 1729.49 445.531 1681.56 441.799 1623.52 z" fill="rgb(190,190,164)" transform="translate(0,0)"></path>
<path d="M 108.862 1317.84 C 128.757 1336.99 144.838 1359.75 156.253 1384.9 C 163.206 1400.08 178.896 1438.39 172.649 1455.25 C 167.552 1453.84 150.426 1409.22 145.777 1402.31 C 144.745 1401.74 143.713 1401.16 142.68 1400.59 L 142.138 1401.96 C 142.85 1412.48 163.101 1453.06 168.719 1464.57 C 127.003 1437.94 109.33 1364.53 108.862 1317.84 z" fill="rgb(190,190,164)" transform="translate(0,0)"></path>
<path d="M 242.557 1413.77 C 245.908 1417.1 248.98 1423.49 251.028 1427.79 C 256.368 1439.09 259.976 1451.14 261.732 1463.52 C 264.724 1486.17 259.416 1540.88 251.475 1562.94 C 247.537 1552.48 243.656 1542 239.833 1531.5 C 224.929 1489.87 223.578 1453.72 242.557 1413.77 z" fill="rgb(190,190,164)" transform="translate(0,0)"></path>
<path d="M 137.917 1619.05 C 194.811 1613.68 251.037 1642.43 300.719 1666.45 L 299.776 1667.88 C 235.236 1681.41 191.5 1650.14 137.917 1619.05 z" fill="rgb(190,190,164)" transform="translate(0,0)"></path>
<path d="M 92.6812 1526.05 C 154.569 1523.84 188.505 1553.96 236.164 1584.88 C 173.394 1586.51 140.722 1562.94 92.6812 1526.05 z" fill="rgb(190,190,164)" transform="translate(0,0)"></path>
<path d="M 1410.19 95.894 C 1425.45 99.4893 1454.38 120.126 1465.58 131.56 C 1491.53 158.055 1503.29 178.376 1504.06 214.898 C 1517.63 223.765 1536.32 232.348 1550.81 240.906 C 1565.66 249.68 1578.45 258.471 1592.69 268.164 C 1575.05 234.192 1571.22 213.189 1568.62 175.087 C 1567.75 162.205 1566.47 150.533 1566.65 137.361 C 1586.25 147.561 1608.63 177.067 1619.28 196.241 C 1632.74 220.48 1634.64 266.117 1622.98 291.176 C 1629.83 296.751 1637.45 302.426 1644.51 307.803 C 1670.45 327.552 1693.69 349.049 1717.34 371.383 C 1714.4 358.616 1707.61 342.17 1703.76 328.623 C 1696.12 304.323 1701.19 279.135 1705.74 254.756 C 1706.82 248.958 1710.84 221.748 1715.46 219.182 C 1716.5 219.775 1717.9 220.684 1718.53 221.733 C 1746.36 268.121 1776.79 337.334 1726.02 379.324 C 1756.07 409.21 1776.39 439.36 1799.78 474.047 C 1797.74 462.272 1794.24 427.927 1797.66 417.525 C 1802.73 402.084 1819.67 344.908 1828.63 335.178 L 1830.35 335.295 C 1832.72 337.372 1833.94 339.869 1834.52 343.122 C 1840.58 376.729 1847.25 420.907 1834.8 453.293 C 1831.06 463.03 1816.82 481.245 1810.77 490.533 C 1827.35 530.946 1848.19 565.28 1852.84 610.062 C 1853.65 617.86 1856.7 624.32 1855.21 632.566 C 1852.85 634.642 1854.2 634.12 1851.03 634.153 C 1846.66 631.017 1846.53 617.61 1845.67 612.083 C 1843.99 601.387 1841.79 590.779 1839.08 580.296 C 1831.89 552.662 1813.46 512.408 1799.37 487.383 C 1788.25 491.022 1776.29 494.856 1764.73 496.442 C 1728.83 501.366 1687.77 490.502 1655.89 474.387 C 1657.49 473.65 1658.71 473.141 1660.38 472.543 C 1704.56 456.713 1738.27 442.069 1783.38 462.586 C 1770.76 444.706 1736.13 396.891 1719.95 385.489 C 1716.48 385.496 1715.94 386.621 1712.4 388.71 C 1700.2 395.667 1686.95 400.59 1673.17 403.285 C 1642.03 409.147 1604.59 403.776 1574.65 394.628 C 1569.33 393.001 1560.99 391.31 1556.68 388.391 L 1556.53 386.445 C 1561.26 380.568 1580.18 375.321 1587.77 372.436 C 1630.21 356.312 1662.61 354.703 1705.67 369.127 C 1678.72 345.206 1652.27 323.492 1624.47 300.483 C 1584.04 328.017 1534.4 327.086 1488.13 318.616 C 1484.3 317.914 1481.73 317.034 1479.61 313.788 C 1481.45 310.747 1497.72 304.744 1501.96 302.854 C 1539.19 286.289 1567.26 281.954 1607.2 286.432 C 1575.76 264.451 1545.36 247.02 1512.4 227.912 C 1480.43 251.579 1445.91 263.343 1406.29 264.618 C 1400.21 264.814 1382.92 265.121 1378.63 261.185 L 1378.72 259.511 C 1381.53 256.278 1392.55 250.462 1396.72 247.976 C 1427.53 229.606 1454.91 218.302 1490.71 215.389 C 1476.31 209.161 1462.12 202.196 1447.61 196.214 C 1429.12 188.594 1410.2 181.722 1391.44 174.782 C 1370.51 212.865 1320.55 232.485 1279.08 233.034 C 1274.04 233.101 1261.61 234.482 1258.92 229.998 L 1259.77 227.75 C 1280.29 212.767 1299.04 197.54 1321.44 185.096 C 1342.94 173.156 1360.72 174.96 1384.12 173.369 C 1364.98 165.592 1342.95 159.579 1322.75 154.953 C 1273.09 179.627 1208.73 145.139 1162.56 124.247 C 1159.06 122.661 1154.27 120.106 1153.08 116.311 L 1153.95 114.882 C 1175.89 104.388 1229.7 104.073 1254 107.941 C 1279.22 111.954 1310.85 126.295 1324.96 148.673 C 1374.38 159.903 1413.23 175.732 1460.03 193.096 C 1450.23 180.921 1441.63 167.815 1434.38 153.967 C 1426.25 138.466 1417.25 118.1 1409.55 102.037 C 1408.5 99.8645 1409.5 98.0805 1410.19 95.894 z" fill="rgb(0,0,0)" transform="translate(0,0)"></path>
<path d="M 1202.13 111.4 C 1242.3 106.978 1292.9 118.178 1320.23 149.88 C 1311.38 147.393 1284.85 132.343 1280.23 134.083 C 1283.51 139.349 1297.64 146.262 1303.64 149.508 C 1306.4 150.831 1310.33 152.322 1313.24 153.535 C 1311.3 154.392 1309.32 155.145 1307.31 155.792 C 1268.23 168.186 1198.44 135.472 1163.21 117.611 C 1178.38 113.408 1186.63 112.726 1202.13 111.4 z" fill="rgb(190,190,164)" transform="translate(0,0)"></path>
<path d="M 1572.53 148.6 C 1584.02 156.098 1600.55 177.324 1607.76 188.964 C 1626.23 218.746 1628.4 248.997 1620.38 282.641 L 1618.93 284.459 L 1616.87 284.596 C 1580.77 261.882 1572.83 187.987 1572.53 148.6 z" fill="rgb(190,190,164)" transform="translate(0,0)"></path>
<path d="M 1715.95 229.723 C 1718.08 232.545 1724.02 243.747 1725.82 247.324 C 1738.34 272.116 1748.39 297.932 1746.55 326.184 C 1745.13 347.904 1738.5 362.259 1722.49 376.676 C 1725.15 366.359 1726.87 356.705 1728.63 346.256 C 1729.67 338.728 1729.88 325.022 1729.47 317.606 C 1724.96 326.572 1722.27 351.332 1720.91 362.391 C 1698.14 310.633 1705.58 282.011 1715.95 229.723 z" fill="rgb(190,190,164)" transform="translate(0,0)"></path>
<path d="M 1636.49 365.338 C 1660.24 361.615 1693.54 367.209 1714.12 380.2 C 1688.81 396.323 1677.06 398.459 1647.22 400.02 C 1619.24 400.468 1592.23 394.72 1565.83 385.944 C 1594.49 377.483 1602.69 369.773 1636.49 365.338 z" fill="rgb(190,190,164)" transform="translate(0,0)"></path>
<path d="M 1732.53 458.378 C 1754.05 455.4 1782.8 464.261 1796.19 482.028 C 1775.12 490.183 1760.49 492.357 1737.98 491.402 C 1711.99 490.097 1692.83 483.568 1668.74 474.664 C 1691.76 467.001 1708.2 460.816 1732.53 458.378 z" fill="rgb(190,190,164)" transform="translate(0,0)"></path>
<path d="M 1828.34 346.551 C 1830.4 351.004 1832.54 363.13 1833.27 368.174 C 1835.21 382.11 1836.14 396.168 1836.06 410.238 C 1835.69 444.32 1829.44 454.943 1809.52 481.465 L 1808.77 481.677 L 1807.48 480.591 C 1794.73 429.352 1809.27 393.729 1828.34 346.551 z" fill="rgb(190,190,164)" transform="translate(0,0)"></path>
<path d="M 1416.79 104.501 C 1427.37 108.274 1449.1 124.713 1457.19 132.448 C 1481.18 155.373 1496.56 177.424 1498.18 210.846 C 1491.08 207.533 1479.21 201.855 1473.44 196.953 C 1448.77 175.997 1431.22 133.802 1416.79 104.501 z" fill="rgb(190,190,164)" transform="translate(0,0)"></path>
<path d="M 1566.85 290.392 C 1575.35 289.65 1612.42 288.963 1616.59 296.321 C 1614.49 303.451 1594.69 309.519 1588.16 311.745 C 1573.75 316.662 1557.81 317.738 1542.71 318.477 C 1524.93 318.615 1507.18 316.856 1489.77 313.231 C 1518.07 301.732 1536.11 293.497 1566.85 290.392 z" fill="rgb(190,190,164)" transform="translate(0,0)"></path>
<path d="M 1379.67 178.455 L 1382.52 178.336 L 1382.44 179.774 C 1350.28 215.388 1321.31 223.894 1274.83 228.036 L 1271.65 227.502 L 1272.01 226.359 C 1283.89 216.327 1292.1 210.69 1304.18 202.334 C 1333.13 182.323 1345.79 179.924 1379.67 178.455 z" fill="rgb(190,190,164)" transform="translate(0,0)"></path>
<path d="M 1484.22 221.357 C 1490.27 220.783 1500.69 218.724 1504.87 223.917 L 1504.12 226.425 C 1498.54 232.228 1492.99 234.291 1486.14 237.903 C 1460.02 251.657 1440.58 256.099 1411.25 258.558 C 1404.17 259.19 1394.74 258.951 1387.44 258.961 C 1395.12 255.202 1404.68 249.017 1412.65 244.874 C 1438.07 231.653 1456.23 224.878 1484.22 221.357 z" fill="rgb(190,190,164)" transform="translate(0,0)"></path>
<path d="M 308.014 1480.15 C 314.508 1481.46 324.032 1503.58 327.481 1509.93 C 349.782 1550.96 347.316 1610.22 333.266 1653.17 C 327.632 1652.12 321.273 1636.69 318.56 1631.88 C 297.453 1594.42 294.206 1557.32 301.951 1515.59 C 304.05 1504.28 304.282 1491.44 308.014 1480.15 z" fill="rgb(0,0,0)" transform="translate(0,0)"></path>
<path d="M 311.031 1492.82 C 311.95 1494.1 312.83 1495.41 313.67 1496.75 C 334.894 1530.85 340.546 1555.87 337.624 1595.92 C 336.369 1613.13 335.107 1624.96 330.999 1642.31 C 330.613 1641.75 330.228 1641.2 329.843 1640.64 C 299.262 1589.76 299.855 1549 311.031 1492.82 z" fill="rgb(190,190,164)" transform="translate(0,0)"></path>
<metadata><recraft-signature>{"signed_by": "recraft", "signature_b64": "PJB3g6CPF311pAwiIHodAjQfFM2tLAZGLow3Lg8wqVrDVXFQp1Jj7RX6QOtfXQxYLWaSZ8ncqjtAW/w6EkyuBw==", "signing_algo": "Ed25519", "generation_timestamp": 1778092756, "identifier": "7ca310f8-bb57-4f73-98b6-057907a96976"}</recraft-signature></metadata></svg>