<svg xmlns="http://www.w3.org/2000/svg" height="1024" preserveAspectRatio="none" style="display: block;" version="1.1" viewBox="0 0 2048 2048" width="1024">
<defs>
	<linearGradient gradientUnits="userSpaceOnUse" id="Gradient1" x1="922.912" x2="911.814" y1="222.857" y2="215.973">
		<stop class="stop0" offset="0" stop-color="rgb(57,21,4)" stop-opacity="1"></stop>
		<stop class="stop1" offset="1" stop-color="rgb(91,28,9)" stop-opacity="1"></stop>
	</linearGradient>
	<linearGradient gradientUnits="userSpaceOnUse" id="Gradient2" x1="319.734" x2="392.24" y1="1158" y2="1240.67">
		<stop class="stop0" offset="0" stop-color="rgb(45,4,0)" stop-opacity="1"></stop>
		<stop class="stop1" offset="1" stop-color="rgb(71,30,13)" stop-opacity="1"></stop>
	</linearGradient>
	<linearGradient gradientUnits="userSpaceOnUse" id="Gradient3" x1="472.502" x2="243.521" y1="1019.64" y2="876.502">
		<stop class="stop0" offset="0" stop-color="rgb(192,155,131)" stop-opacity="1"></stop>
		<stop class="stop1" offset="1" stop-color="rgb(213,187,157)" stop-opacity="1"></stop>
	</linearGradient>
	<linearGradient gradientUnits="userSpaceOnUse" id="Gradient4" x1="385.176" x2="187.345" y1="1050.67" y2="1022.74">
		<stop class="stop0" offset="0" stop-color="rgb(55,9,1)" stop-opacity="1"></stop>
		<stop class="stop1" offset="1" stop-color="rgb(76,29,10)" stop-opacity="1"></stop>
	</linearGradient>
</defs>
<path d="M 0 0 L 2048 0 L 2048 2048 L 0 2048 L 0 0 z" fill="rgb(253,251,241)" transform="translate(0,0)"></path>
<path d="M 1421.17 1192.57 C 1549.88 1183.92 1682.35 1220.93 1779.56 1307.56 C 1902.3 1416.94 1905.21 1580.1 1797.27 1699.81 C 1774.17 1725.43 1755.1 1737.36 1722.75 1748.38 C 1651.27 1776.57 1579.03 1787.6 1502.71 1791.83 C 1457.02 1793.91 1411.24 1791.97 1365.89 1786.04 C 1268.61 1772.42 1137.61 1723.94 1089.46 1631.85 C 1043.25 1543.46 1026.87 1404.61 1100.72 1326.19 C 1179.28 1242.77 1308.58 1198.89 1421.17 1192.57 z" fill="rgb(73,30,15)" transform="translate(0,0)"></path>
<path d="M 1440.75 1203.49 C 1539.13 1202.9 1628.42 1219.92 1712.9 1272.49 C 1730.4 1283.38 1756.11 1300.67 1770.98 1314.75 C 1822.54 1363.54 1861.13 1425.34 1863.81 1498.12 C 1866.68 1571.94 1834.77 1640.4 1785.96 1694.43 C 1759.97 1723.21 1745.07 1726.23 1710.48 1739.56 C 1636.93 1767.92 1562.99 1777.19 1484.81 1780.12 L 1483.37 1780.19 C 1463.9 1781.11 1445.35 1779.63 1426 1779 C 1329.79 1775.87 1212.5 1743.81 1139.97 1677.14 C 1126.09 1664.54 1114.05 1650.05 1104.21 1634.1 C 1080.76 1595.25 1063.95 1530.12 1062.4 1484.64 C 1058.92 1429.23 1071.19 1375.15 1110.39 1333.45 C 1191.43 1247.26 1325.45 1207.62 1440.75 1203.49 z" fill="rgb(253,251,241)" transform="translate(0,0)"></path>
<path d="M 1209.2 1275.9 C 1264.38 1256.03 1330.84 1253.18 1388.38 1260.56 C 1406.48 1262.89 1425.22 1267.13 1443.36 1268.75 C 1449.59 1269.31 1459.59 1264.62 1465.58 1263.06 C 1527.53 1242.25 1596.06 1234.97 1659.36 1254.17 C 1662.15 1255.02 1663.14 1256.13 1664.14 1258.55 C 1661.22 1260.32 1653.64 1260.11 1650.07 1260.07 C 1598.7 1259.61 1547.36 1273.71 1500 1293.03 C 1523.92 1299.68 1549.73 1310.48 1572.45 1320.75 C 1584.95 1326.41 1598.84 1334.97 1611.15 1340.19 C 1651.5 1333.27 1690.49 1327.04 1731.54 1332.88 C 1735.9 1333.51 1743.49 1334.7 1746.82 1337.46 C 1745.41 1339.69 1741.74 1340.75 1738.97 1341.57 C 1709.65 1350.21 1681.95 1357.53 1653.26 1368.42 C 1709.72 1413.04 1758.75 1480.38 1770.26 1554.01 C 1771.05 1559.08 1773.01 1588.19 1771.83 1591.73 C 1766.18 1591.25 1761.49 1571.39 1759.31 1566.38 C 1731.86 1503.4 1675.27 1421.26 1610.35 1393.29 C 1528.89 1416.89 1443.98 1505.54 1404.42 1579.38 C 1397.53 1592.22 1390.57 1605.28 1384.2 1618.42 C 1380.28 1626.5 1376.84 1636.49 1372.8 1644.15 C 1373.8 1619.38 1378.29 1601.76 1385.55 1578.43 C 1404.88 1516.34 1438.46 1464.99 1486.07 1421.09 C 1515.43 1394.02 1533.4 1383.23 1566.91 1363.33 C 1533.31 1346.06 1489.22 1328.1 1451.18 1321.97 C 1446.82 1321.27 1436.95 1323.46 1432.42 1325.07 C 1359 1351.21 1278.86 1414.55 1227.31 1471.54 C 1218.98 1480.75 1211.02 1490.29 1203.45 1500.15 C 1198.11 1507.21 1187.14 1522.99 1181.54 1527.9 C 1179.31 1529.92 1177.9 1535.2 1175.9 1538.95 L 1174.52 1538.55 C 1173.98 1535.5 1174.58 1534.05 1175.55 1531.14 C 1209.82 1427.97 1286.23 1350.68 1381.44 1302.14 C 1342.2 1292.6 1296.71 1287.49 1256.33 1285.96 C 1235.05 1285.16 1210.64 1286.42 1189.87 1284.68 C 1197.31 1280.6 1201.22 1278.95 1209.2 1275.9 z" fill="rgb(253,251,241)" transform="translate(0,0)"></path>
<path d="M 1209.2 1275.9 C 1264.38 1256.03 1330.84 1253.18 1388.38 1260.56 C 1406.48 1262.89 1425.22 1267.13 1443.36 1268.75 C 1449.59 1269.31 1459.59 1264.62 1465.58 1263.06 C 1527.53 1242.25 1596.06 1234.97 1659.36 1254.17 C 1662.15 1255.02 1663.14 1256.13 1664.14 1258.55 C 1661.22 1260.32 1653.64 1260.11 1650.07 1260.07 C 1598.7 1259.61 1547.36 1273.71 1500 1293.03 C 1523.92 1299.68 1549.73 1310.48 1572.45 1320.75 C 1584.95 1326.41 1598.84 1334.97 1611.15 1340.19 C 1651.5 1333.27 1690.49 1327.04 1731.54 1332.88 C 1735.9 1333.51 1743.49 1334.7 1746.82 1337.46 C 1745.41 1339.69 1741.74 1340.75 1738.97 1341.57 C 1709.65 1350.21 1681.95 1357.53 1653.26 1368.42 C 1709.72 1413.04 1758.75 1480.38 1770.26 1554.01 C 1771.05 1559.08 1773.01 1588.19 1771.83 1591.73 C 1766.18 1591.25 1761.49 1571.39 1759.31 1566.38 C 1731.86 1503.4 1675.27 1421.26 1610.35 1393.29 C 1528.89 1416.89 1443.98 1505.54 1404.42 1579.38 C 1397.53 1592.22 1390.57 1605.28 1384.2 1618.42 C 1380.28 1626.5 1376.84 1636.49 1372.8 1644.15 C 1373.8 1619.38 1378.29 1601.76 1385.55 1578.43 C 1404.88 1516.34 1438.46 1464.99 1486.07 1421.09 C 1515.43 1394.02 1533.4 1383.23 1566.91 1363.33 C 1533.31 1346.06 1489.22 1328.1 1451.18 1321.97 C 1446.82 1321.27 1436.95 1323.46 1432.42 1325.07 C 1359 1351.21 1278.86 1414.55 1227.31 1471.54 C 1218.98 1480.75 1211.02 1490.29 1203.45 1500.15 C 1198.11 1507.21 1187.14 1522.99 1181.54 1527.9 C 1182.86 1525.72 1182.77 1525.49 1183.39 1522.97 C 1228.53 1438.03 1338.89 1347.39 1430.77 1316.05 C 1435.87 1314.31 1445.4 1312.44 1450.84 1313.21 C 1488.16 1318.44 1529.44 1334.94 1563.01 1351.96 C 1568.08 1354.52 1577.25 1359.56 1579.26 1364.31 C 1577.73 1366.07 1554.83 1378.92 1550.57 1381.58 C 1541.73 1387.05 1533.13 1392.9 1524.79 1399.1 C 1476.92 1434.51 1438.28 1480.93 1412.15 1534.44 C 1403.35 1552.88 1397.2 1570.55 1389.76 1589.48 L 1390.89 1592.46 C 1413.44 1530.72 1470.32 1470 1521.93 1430.61 C 1552.23 1407.48 1575.36 1392.68 1612.65 1383.68 C 1676.23 1413.42 1728.57 1483.14 1759.26 1544.57 C 1759.66 1545.12 1760.06 1545.67 1760.47 1546.22 C 1750.75 1493.87 1712.21 1435.38 1674.26 1398.72 C 1662.09 1386.97 1650.02 1377.57 1636.61 1367.44 C 1651.02 1359.56 1670.16 1352.8 1685.96 1347.78 C 1694.99 1344.92 1705.38 1342.64 1713.95 1338.89 C 1674.27 1338.64 1650.91 1342.73 1612.33 1350.45 C 1600.97 1346.33 1586.27 1336.99 1574.53 1331.5 C 1551.95 1320.94 1528.42 1310.82 1504.86 1302.62 C 1500.03 1300.94 1483.97 1297.96 1477.96 1296.66 L 1477.83 1295.62 C 1484.8 1289.75 1497.45 1285.83 1506 1282.32 C 1544.59 1266.49 1578.87 1259.16 1619.71 1252.66 C 1550.81 1247.17 1508.96 1258.27 1444.62 1279.38 C 1418 1273.12 1387.35 1270.08 1360.15 1267.68 C 1309.52 1263.22 1257.57 1270.29 1207.98 1280.36 L 1206.67 1280.83 L 1205.76 1280.11 L 1209.2 1275.9 z" fill="rgb(73,30,15)" transform="translate(0,0)"></path>
<path d="M 1389.76 1589.48 L 1390.89 1592.46 C 1389.24 1596.55 1387.55 1600.62 1385.8 1604.67 L 1384.34 1605.09 L 1384.05 1607.18 L 1383.96 1605.88 L 1384.69 1606.29 L 1384.07 1605.23 C 1385.22 1600.13 1387.78 1594.42 1389.76 1589.48 z" fill="rgb(205,176,150)" transform="translate(0,0)"></path>
<path d="M 1209.2 1275.9 L 1205.76 1280.11 L 1206.67 1280.83 L 1207.98 1280.36 C 1208.28 1280.39 1208.57 1280.41 1208.87 1280.44 C 1263.94 1276.02 1318.46 1278.29 1372.48 1290.71 C 1378.33 1292.06 1395.26 1294.77 1399.61 1298.44 C 1399.32 1303.95 1386.93 1307.11 1381.51 1309.97 C 1371.49 1315.35 1361.74 1321.23 1352.31 1327.59 C 1312.35 1354.1 1273.46 1384.61 1244.18 1423.06 C 1231 1440.36 1184.33 1504.53 1183.39 1522.97 C 1182.77 1525.49 1182.86 1525.72 1181.54 1527.9 C 1179.31 1529.92 1177.9 1535.2 1175.9 1538.95 L 1174.52 1538.55 C 1173.98 1535.5 1174.58 1534.05 1175.55 1531.14 C 1209.82 1427.97 1286.23 1350.68 1381.44 1302.14 C 1342.2 1292.6 1296.71 1287.49 1256.33 1285.96 C 1235.05 1285.16 1210.64 1286.42 1189.87 1284.68 C 1197.31 1280.6 1201.22 1278.95 1209.2 1275.9 z" fill="rgb(73,30,15)" transform="translate(0,0)"></path>
<path d="M 1128.82 1543.41 L 1129.92 1543.78 C 1131.01 1546.4 1127.33 1570.87 1126.67 1574.96 C 1123.1 1597.05 1125.36 1618.58 1128.27 1640.59 L 1126.64 1642.43 C 1112.53 1622.29 1117.7 1564.53 1128.82 1543.41 z" fill="rgb(73,30,15)" transform="translate(0,0)"></path>
<path d="M 1200.93 1635.5 C 1204.24 1637.76 1207.4 1653.42 1207.86 1658.01 C 1210.08 1680.29 1234.02 1706.03 1238.3 1724.46 C 1219.64 1713.58 1194.52 1658.06 1200.93 1635.5 z" fill="rgb(73,30,15)" transform="translate(0,0)"></path>
<path d="M 1446.12 1713.61 L 1447.6 1714.32 C 1446.59 1720.08 1440.86 1726.94 1436.93 1731.21 C 1422.54 1746.85 1402.27 1757.17 1380.96 1757.94 L 1378.6 1755.98 C 1379.23 1752.09 1387.24 1751.13 1390.86 1750.09 C 1413.52 1743.58 1429.88 1730.12 1446.12 1713.61 z" fill="rgb(73,30,15)" transform="translate(0,0)"></path>
<path d="M 1238.26 1675.31 C 1242.15 1677.42 1246.76 1684.99 1249.03 1689.07 C 1259.68 1708.17 1275.33 1722.7 1288.21 1739.69 C 1269.9 1738.13 1240.8 1693.25 1238.26 1675.31 z" fill="rgb(73,30,15)" transform="translate(0,0)"></path>
<path d="M 1620.12 1698.54 C 1620.83 1699.27 1621.18 1700.13 1621.64 1701.04 C 1621 1707.8 1618.94 1713.52 1615.65 1719.45 C 1606.72 1735.57 1592.51 1751.13 1574.4 1756.45 C 1573.7 1755.51 1574.12 1756.18 1573.55 1754.23 C 1576.31 1750.51 1586.08 1743.76 1590.23 1739.93 C 1604.05 1727.16 1611.21 1714.58 1620.12 1698.54 z" fill="rgb(73,30,15)" transform="translate(0,0)"></path>
<path d="M 1843.66 1559.9 C 1846.09 1564.71 1837.25 1582.65 1834.78 1587.37 C 1826.49 1603.2 1815.08 1616.33 1799.56 1625.33 C 1798.7 1624.57 1799.07 1625.1 1798.86 1623.52 C 1803.13 1617.31 1813.28 1607.28 1819.28 1599.29 C 1826.75 1589.33 1837.31 1566.65 1843.66 1559.9 z" fill="rgb(73,30,15)" transform="translate(0,0)"></path>
<path d="M 1520.63 1732.86 L 1521.66 1734.57 C 1521.42 1736.03 1521.11 1737.31 1520.38 1738.62 C 1511.16 1755.16 1484.82 1766.26 1467.38 1770.76 C 1466.82 1769.25 1466.6 1768.18 1466.39 1766.6 C 1468.84 1764.31 1471.86 1763.08 1474.84 1761.62 C 1481.07 1758.56 1487.82 1756.09 1493.72 1752.43 C 1503.07 1746.62 1511.53 1739.11 1520.63 1732.86 z" fill="rgb(73,30,15)" transform="translate(0,0)"></path>
<path d="M 1109.33 1500.53 L 1110.43 1501.55 C 1111.23 1505.8 1105.57 1531.38 1104.6 1537.76 C 1103.55 1544.63 1101.55 1573.38 1099.35 1577.26 C 1089.98 1564.02 1100.47 1513.88 1109.33 1500.53 z" fill="rgb(73,30,15)" transform="translate(0,0)"></path>
<path d="M 1086.27 1476.68 L 1087.48 1478.5 C 1086.39 1494.07 1084.26 1508.94 1084.63 1524.8 C 1084.78 1530.76 1085.9 1546.82 1084.18 1551.57 L 1082.07 1551.77 C 1081.5 1550.36 1080.99 1548.93 1080.53 1547.49 C 1074.72 1529.56 1077.2 1494.01 1086.27 1476.68 z" fill="rgb(73,30,15)" transform="translate(0,0)"></path>
<path d="M 1174.26 1629.53 C 1177.15 1631.75 1178.95 1642.51 1179.01 1646 C 1179.31 1662.91 1191.29 1688.24 1192.07 1703.08 C 1175.76 1695.62 1172.12 1645.24 1174.26 1629.53 z" fill="rgb(73,30,15)" transform="translate(0,0)"></path>
<path d="M 1476.63 1721.86 L 1477.44 1722.89 C 1476.7 1726.91 1474.99 1729.67 1472.62 1732.98 C 1462.58 1746.99 1445.53 1759.62 1428.38 1762.32 C 1427.69 1761.31 1427.22 1760.11 1426.69 1759.01 C 1429.07 1754.72 1446.04 1748.47 1451.13 1744.96 C 1460.48 1738.49 1468.61 1729.88 1476.63 1721.86 z" fill="rgb(73,30,15)" transform="translate(0,0)"></path>
<path d="M 1654.6 1694.61 C 1657.24 1700.49 1650.8 1717.33 1648.06 1723.24 C 1642.85 1734.48 1635.62 1746.16 1623.62 1750.85 C 1623.03 1747.76 1622.36 1747.56 1624.42 1744.76 C 1628.65 1738.99 1634.55 1733.42 1638.25 1727.35 C 1644.15 1717.67 1648.5 1703.85 1654.6 1694.61 z" fill="rgb(73,30,15)" transform="translate(0,0)"></path>
<path d="M 1143.9 1590.37 L 1145.66 1591.79 C 1146.99 1595.13 1147.35 1624.98 1148 1632.02 C 1148.46 1637.02 1151.95 1664.05 1151.58 1667.28 C 1140.53 1652.01 1138.88 1607.17 1143.9 1590.37 z" fill="rgb(73,30,15)" transform="translate(0,0)"></path>
<path d="M 1444.51 1218.19 C 1451.25 1218.09 1454.64 1217.77 1459.49 1222.12 C 1462 1229.29 1455.56 1230.49 1449.93 1232.52 C 1442.82 1233.31 1438.31 1233.87 1433.99 1227.45 C 1433.4 1220.3 1438.77 1219.48 1444.51 1218.19 z" fill="rgb(73,30,15)" transform="translate(0,0)"></path>
<path d="M 1767.91 1693.14 C 1770.68 1692.78 1769.69 1692.83 1772.52 1693.44 L 1772.9 1694.78 C 1769.27 1703.59 1742.68 1708.99 1734.25 1709.07 C 1731.27 1709.08 1730.67 1709.19 1727.69 1708.54 L 1728.03 1707.05 C 1734.95 1702.18 1758.85 1695.84 1767.91 1693.14 z" fill="rgb(73,30,15)" transform="translate(0,0)"></path>
<path d="M 1690.25 1692.45 L 1691.91 1694.53 C 1691.82 1710.16 1677.62 1731.32 1664.34 1739.17 L 1663.29 1737.52 C 1663.19 1733.76 1673.89 1720.91 1676.84 1716.4 C 1682.14 1708.32 1685.96 1701.03 1690.25 1692.45 z" fill="rgb(73,30,15)" transform="translate(0,0)"></path>
<path d="M 1391.32 1406.93 C 1404.54 1409.62 1405.55 1420.19 1393 1425.88 C 1376.23 1423.26 1377.64 1412.9 1391.32 1406.93 z" fill="rgb(73,30,15)" transform="translate(0,0)"></path>
<path d="M 1796.48 1662.93 C 1796.93 1662.94 1798.71 1663.44 1799.23 1663.58 L 1799.02 1664.96 C 1786.45 1675.86 1769.83 1680.61 1753.87 1683.61 C 1752.26 1682.99 1753.05 1683.45 1751.59 1682.06 C 1754.58 1677.43 1789.31 1665.57 1796.48 1662.93 z" fill="rgb(73,30,15)" transform="translate(0,0)"></path>
<path d="M 1508.55 1589.19 C 1521.3 1589.08 1528.82 1597.02 1515.03 1604.63 L 1513.93 1604.62 C 1501.28 1604.4 1496.15 1596.38 1508.55 1589.19 z" fill="rgb(73,30,15)" transform="translate(0,0)"></path>
<path d="M 1231.46 1333.07 C 1242.85 1331.65 1251.28 1338.73 1241.25 1348.54 C 1228.16 1350.25 1221.65 1344.52 1231.46 1333.07 z" fill="rgb(73,30,15)" transform="translate(0,0)"></path>
<path d="M 1324.9 1492.95 C 1325.59 1492.94 1326.28 1492.94 1326.97 1492.95 C 1333.33 1493.13 1338.49 1496.3 1337.03 1503.36 C 1334.61 1506.68 1334.11 1506.64 1330.1 1508.21 C 1317.18 1507.98 1312.24 1500.87 1324.9 1492.95 z" fill="rgb(73,30,15)" transform="translate(0,0)"></path>
<path d="M 1793.09 1410.92 C 1805.73 1411.74 1811.31 1423.1 1797.9 1426.96 C 1786.79 1425.3 1780.8 1417.54 1793.09 1410.92 z" fill="rgb(73,30,15)" transform="translate(0,0)"></path>
<path d="M 1809.88 1637.13 C 1812.54 1636.69 1813.39 1636.25 1815.87 1637.18 L 1816.34 1638.74 C 1811.98 1644.51 1793.83 1651.01 1786.84 1653.39 C 1783.98 1653.92 1783.74 1654.26 1781.04 1653.43 L 1780.53 1651.75 C 1783.93 1647.54 1803.85 1639.73 1809.88 1637.13 z" fill="rgb(73,30,15)" transform="translate(0,0)"></path>
<path d="M 1139.8 1386.02 C 1151.51 1387.94 1156.14 1394.67 1143.96 1401.55 C 1137.42 1400.93 1131.08 1399.83 1132.64 1391.59 C 1135.16 1388.05 1135.75 1388.02 1139.8 1386.02 z" fill="rgb(73,30,15)" transform="translate(0,0)"></path>
<path d="M 1683.33 1638.07 C 1687.49 1636.12 1692.44 1637.88 1694.43 1642.02 C 1696.43 1646.15 1694.72 1651.12 1690.61 1653.16 C 1687.91 1654.5 1684.7 1654.29 1682.2 1652.6 C 1679.7 1650.91 1678.3 1648.01 1678.53 1645.01 C 1678.77 1642 1680.6 1639.35 1683.33 1638.07 z" fill="rgb(73,30,15)" transform="translate(0,0)"></path>
<path d="M 1626.21 1541.16 C 1630.18 1539.67 1634.62 1541.57 1636.27 1545.48 C 1637.92 1549.39 1636.18 1553.9 1632.34 1555.7 C 1629.72 1556.92 1626.64 1556.62 1624.31 1554.9 C 1621.98 1553.18 1620.78 1550.33 1621.18 1547.47 C 1621.57 1544.6 1623.51 1542.18 1626.21 1541.16 z" fill="rgb(73,30,15)" transform="translate(0,0)"></path>
<path d="M 1815.25 1513.72 C 1819.31 1512.32 1823.73 1514.44 1825.18 1518.48 C 1826.63 1522.52 1824.55 1526.97 1820.53 1528.47 C 1817.88 1529.44 1814.92 1528.93 1812.76 1527.11 C 1810.6 1525.3 1809.59 1522.46 1810.1 1519.69 C 1810.62 1516.92 1812.58 1514.64 1815.25 1513.72 z" fill="rgb(73,30,15)" transform="translate(0,0)"></path>
<path d="M 1730.83 1718.13 L 1732.56 1719.42 L 1731.99 1721.37 C 1724.08 1727.94 1711.19 1730.39 1701.23 1731.94 L 1699.41 1731.33 L 1699.3 1729.45 C 1704.97 1724.81 1723.18 1720.28 1730.83 1718.13 z" fill="rgb(73,30,15)" transform="translate(0,0)"></path>
<path d="M 1305.33 655.32 C 1334.43 654.651 1359.45 682.849 1361.12 710.834 C 1363.2 745.624 1344.72 782.998 1323.89 809.775 C 1314.91 821.955 1302.54 831.686 1292.17 842.256 C 1272.45 862.361 1254.97 871.244 1229.38 882.451 C 1198.99 895.766 1171.3 914.421 1149.95 940.377 C 1159.77 956.365 1167.33 968.933 1173.24 987.498 C 1180.3 1009.66 1186.16 1047.36 1174.87 1069.18 C 1169.22 1080.1 1146.3 1101.81 1136.87 1111.57 C 1115.48 1133.73 1092.71 1155 1070.79 1176.79 C 977.618 1270.1 882.837 1361.78 786.49 1451.81 C 743.517 1492.82 699.994 1533.24 655.933 1573.07 C 638.982 1588.53 589.025 1638.51 568.986 1645.2 C 537.018 1655.88 486.063 1626.22 458.482 1609.38 C 436.756 1628.25 425.344 1653.21 411.847 1678.58 C 374.466 1748.85 312.269 1802.37 237.448 1830.39 C 214.818 1837.26 183.584 1843.31 165.837 1823.19 C 154.96 1810.9 149.623 1794.67 151.079 1778.33 C 152.658 1758.91 162.154 1738.99 171.535 1722.19 C 201.599 1667.55 246.605 1622.61 301.283 1592.62 C 324.853 1579.48 361.4 1567.49 380.036 1550.31 C 368.353 1526.85 361.146 1503.15 362.855 1476.69 C 363.491 1466.85 369.017 1444.02 375.303 1436.89 C 400.478 1408.32 429.227 1381.98 456.635 1355.42 L 602.749 1213.91 L 754.151 1069.22 C 822.769 1002.8 891.77 938.094 965.206 876.949 C 998.779 848.995 1036.77 852.208 1073.6 871.329 C 1092.34 854.186 1112.13 841.178 1127 819.404 C 1143.41 795.359 1152.82 770.305 1170.9 747.063 C 1199.98 709.682 1258.48 661.777 1305.33 655.32 z" fill="rgb(73,30,15)" transform="translate(0,0)"></path>
<path d="M 931.596 926.401 C 944.493 925.929 957.389 927.371 969.863 930.68 C 1044.29 950.498 1114.83 1029.84 1108.65 1111.7 C 1108.37 1115.41 1106.5 1121.32 1105.46 1125.07 C 1001.94 1229.52 896.334 1331.88 788.707 1432.1 C 751.409 1466.97 706.809 1513.06 667.869 1545.17 C 666.789 1544.01 667.153 1539.67 667.093 1537.5 C 667.322 1499.34 644.873 1453 619.979 1424.94 C 583.306 1383.6 536.829 1353.93 481.025 1349.94 C 518.462 1309.9 563.852 1268.21 603.952 1230.24 L 732.768 1107.03 C 795.712 1047.15 857.456 986.251 923.314 929.493 C 925.905 927.26 928.313 926.776 931.596 926.401 z" fill="rgb(243,231,208)" transform="translate(0,0)"></path>
<path d="M 937.598 1258.53 C 940.784 1259.15 939.454 1258.45 941.78 1260.59 L 941.682 1262.8 C 937.188 1270.54 869.251 1333.15 859.056 1342.9 L 806.337 1393.78 C 794.461 1405.31 780.899 1419.01 768.148 1429.28 C 765.491 1428.49 764.781 1427.53 764.495 1425.04 C 767.482 1418.55 920.2 1273.56 937.598 1258.53 z" fill="rgb(73,30,15)" transform="translate(0,0)"></path>
<path d="M 1074.18 1128.65 C 1076.63 1129.72 1075.52 1128.98 1077.15 1131.44 C 1076.12 1136.65 987.206 1221.02 973.805 1234.07 C 971.496 1232.08 971.243 1232.24 970.302 1229.43 C 972.319 1223.81 1063.62 1136.29 1074.18 1128.65 z" fill="rgb(73,30,15)" transform="translate(0,0)"></path>
<path d="M 445.685 1501.8 C 454.461 1503.55 462.81 1507.01 470.262 1511.96 C 484.347 1521.15 498.105 1537.37 501.983 1554.33 C 506.466 1567.68 490.927 1576.17 479.611 1581.33 C 424.876 1606.27 413.376 1658.19 380.778 1705.35 C 344.775 1757.44 276.278 1811.17 212.435 1822.77 L 212.795 1821.97 L 213.378 1820.62 C 223.401 1797.91 214.547 1777.95 192.713 1767.37 C 188.098 1765.82 181.396 1763.73 176.931 1766.2 C 177.995 1772.39 193.403 1775.71 200.544 1783.55 C 211.073 1795.12 214.237 1811.18 200.057 1821.79 C 197.38 1823.79 188.366 1823.09 184.441 1822.92 C 147.352 1798 167.824 1752.75 185.23 1722.65 C 216.403 1669.56 262.061 1626.46 316.853 1598.38 C 338.604 1587.21 359.243 1580.22 379.794 1565.89 C 406.973 1546.95 424.679 1526.65 445.685 1501.8 z" fill="rgb(243,231,208)" transform="translate(0,0)"></path>
<path d="M 393.078 1642.48 C 397.347 1643.03 396.676 1642.31 399.595 1644.6 C 399.8 1646.12 399.866 1646.45 399.196 1647.94 C 378.988 1692.72 346.129 1735.19 306.243 1764.04 C 290.89 1775.15 269.82 1784.71 252.517 1791.89 C 249.995 1792.14 250.885 1792.1 248.31 1791.43 L 247.455 1789.78 C 248.838 1787.37 294.073 1764.6 301.486 1759.14 C 340.317 1730.5 376.717 1688.28 393.078 1642.48 z" fill="rgb(73,30,15)" transform="translate(0,0)"></path>
<path d="M 175.517 1786.46 C 177.394 1787.08 179.314 1787.73 181.022 1788.74 C 185.871 1791.62 190.205 1797.06 191.39 1802.62 C 192.307 1806.92 191.318 1809.24 188.931 1812.68 C 185.954 1812.35 183.156 1812.05 180.621 1810.35 C 176.695 1807.71 173.631 1803.5 172.716 1798.84 C 171.725 1793.78 172.574 1790.6 175.517 1786.46 z" fill="rgb(73,30,15)" transform="translate(0,0)"></path>
<path d="M 1303.55 667.164 C 1329.01 664.952 1344.73 685.378 1348.2 708.405 C 1352.68 738.108 1336.49 770.157 1319.81 793.373 C 1297.16 824.909 1269.01 851.584 1232.93 866.651 C 1213.48 875.177 1188.72 888.697 1172.05 901.506 C 1165.53 906.506 1159.38 911.969 1153.64 917.852 C 1150.78 920.772 1145.03 928.467 1141.69 929.021 L 1138.8 926.292 C 1119.96 904.44 1109.04 894.542 1085.72 878.265 C 1099.29 863.582 1115.42 853.394 1129.57 835.987 C 1147.8 813.553 1157.51 787.168 1172.58 764.849 C 1197.89 727.37 1260.09 676.433 1303.55 667.164 z" fill="rgb(243,231,208)" transform="translate(0,0)"></path>
<path d="M 1326.23 742.403 L 1328.98 743.988 C 1331.49 750.553 1317.25 773.839 1313.15 779.967 C 1299.49 800.38 1281.65 820.761 1261.53 835.037 C 1234.77 854.028 1202.73 864.358 1174.93 881.694 C 1164.26 888.356 1155.58 898.488 1145.69 906.433 C 1142.9 904.566 1143.77 905.773 1142.62 902.995 C 1150.48 881.572 1219.32 852.155 1239.01 841.248 C 1250.55 834.952 1261.39 827.444 1271.34 818.852 C 1299.41 794.306 1310.11 773.674 1326.23 742.403 z" fill="rgb(73,30,15)" transform="translate(0,0)"></path>
<path d="M 1330.41 706.598 C 1336.09 711.364 1334.85 726.505 1329.47 732.089 C 1325.16 728.649 1326.81 711.4 1330.41 706.598 z" fill="rgb(73,30,15)" transform="translate(0,0)"></path>
<path d="M 418.586 1429.39 C 482.512 1422.24 559.736 1498.64 575.554 1555.78 C 605.242 1663 534.478 1640.71 472.762 1603.96 L 470.731 1601.97 L 470.991 1600.31 C 482.078 1590.35 512.741 1583.31 513.59 1565.64 C 514.872 1531.87 485.071 1499.96 453.467 1491.84 C 435.196 1487.15 424.862 1507.86 413.607 1519.99 C 405.914 1528.3 397.653 1536.06 388.883 1543.22 C 376.47 1516.23 367.081 1470.51 386.166 1443.21 C 393.369 1432.9 406.815 1430.66 418.586 1429.39 z" fill="rgb(243,231,208)" transform="translate(0,0)"></path>
<path d="M 444.814 1384.03 C 447.471 1384.15 450.126 1384.32 452.779 1384.51 C 539.913 1391.01 633.465 1477.15 629.059 1568.23 C 628.166 1586.68 605.12 1603.88 591.545 1615.48 C 609.374 1538.57 531.715 1446.62 462.294 1422.96 C 445.389 1417.19 428.337 1416.88 410.761 1417.08 C 422.197 1407.26 433.311 1394.65 444.814 1384.03 z" fill="rgb(243,231,208)" transform="translate(0,0)"></path>
<path d="M 1017.48 868.41 C 1093.65 866.826 1183.77 977.273 1167.95 1051.84 C 1164.71 1067.1 1156.39 1074.95 1146.35 1085.44 C 1146.34 1077.97 1146.49 1071.03 1145.62 1063.61 C 1135.79 978.842 1055.23 897.375 969.426 890.952 C 984.716 876.24 996.53 870.127 1017.48 868.41 z" fill="rgb(243,231,208)" transform="translate(0,0)"></path>
<path d="M 470.667 1358.82 C 511.868 1358.81 566.635 1386.08 595.195 1414.91 C 637.027 1457.14 656.619 1495.29 658.364 1553.7 C 653.627 1558.71 646.791 1564.79 641.655 1569.62 L 639.76 1570.56 C 638.014 1566.96 639.817 1554.69 639.487 1549.87 C 635.987 1498.82 607.023 1456.05 569.34 1423.31 C 535.14 1393.6 499.745 1379.61 455.843 1372.96 C 460.195 1368.43 466.012 1363.22 470.667 1358.82 z" fill="rgb(243,231,208)" transform="translate(0,0)"></path>
<path d="M 957.418 900.693 C 961.889 901.617 966.565 901.983 971.112 902.488 C 1055.34 911.825 1133.83 995.476 1135.31 1080.59 C 1135.55 1094.39 1129.63 1101.57 1120.3 1110.26 C 1118.74 1101.08 1119.55 1088.94 1118 1078.79 C 1105.38 995.919 1025.22 920.215 941.369 914.821 C 947.209 908.895 950.763 905.53 957.418 900.693 z" fill="rgb(243,231,208)" transform="translate(0,0)"></path>
<path d="M 1338.54 216.405 C 1419.37 209.328 1541.21 252.405 1612.24 287.262 C 1656.38 308.925 1713.65 351.065 1728.23 399.759 C 1738.14 432.854 1734.88 461.603 1719.66 492.424 C 1695.7 540.95 1655.78 561.325 1606.71 577.506 C 1527.84 598.41 1447.99 581.8 1376.09 546.161 C 1352.22 534.328 1337.58 527.216 1316.39 510.22 C 1267.2 470.754 1226.79 417.96 1219.78 353.512 C 1216.43 322.167 1220.57 283.504 1241.97 259.014 C 1268.43 228.74 1300.33 219.677 1338.54 216.405 z" fill="rgb(243,231,208)" transform="translate(0,0)"></path>
<path d="M 1391.09 387.618 L 1393.04 388.194 L 1393.82 390.434 C 1392.17 396.42 1365.77 416.404 1359.72 421.238 C 1357.62 420.745 1358.61 421.247 1356.87 419.531 C 1358.67 414.6 1384.51 394.105 1391.09 387.618 z" fill="rgb(73,30,15)" transform="translate(0,0)"></path>
<path d="M 1366.73 338.486 C 1371.53 339.906 1393.55 372.648 1395.03 378.651 C 1387.18 378.422 1366.81 346.683 1366.73 338.486 z" fill="rgb(73,30,15)" transform="translate(0,0)"></path>
<path d="M 1407.76 391.218 C 1413.83 393.017 1439.97 407.277 1441.98 412.872 L 1438.52 413.703 C 1430.93 411.827 1409.45 399.024 1407.76 391.218 z" fill="rgb(73,30,15)" transform="translate(0,0)"></path>
<path d="M 1348 374.746 C 1358.1 377.597 1378.04 382.784 1386.57 387.523 L 1386.61 389.318 C 1379.25 388.898 1354.57 383.706 1347.75 378.713 C 1346.83 378.038 1347.63 376.422 1348 374.746 z" fill="rgb(73,30,15)" transform="translate(0,0)"></path>
<path d="M 1397.24 398.48 L 1399.19 399.72 C 1401.67 404.759 1403.53 431.55 1402.16 437.308 C 1399.64 436.823 1400.46 437.146 1398.36 435.828 C 1395.78 429.941 1395.66 405.005 1397.24 398.48 z" fill="rgb(73,30,15)" transform="translate(0,0)"></path>
<path d="M 1414.13 334.172 C 1416.35 334.962 1415.68 334.518 1417.25 336.441 C 1417.63 345.985 1411.63 361.783 1407.11 370.138 C 1405.62 369.886 1406.44 370.159 1404.78 369.016 C 1404.83 363.745 1412 340.815 1414.13 334.172 z" fill="rgb(73,30,15)" transform="translate(0,0)"></path>
<path d="M 1437.6 372.185 L 1442.51 371.72 C 1443.19 372.034 1444.89 372.696 1445.32 373.154 C 1442.25 376.731 1426.54 380.144 1420.78 381.754 C 1418.41 382.23 1418.35 382.19 1415.94 382.309 L 1414.81 381.018 C 1417.83 376.311 1431.96 373.368 1437.6 372.185 z" fill="rgb(73,30,15)" transform="translate(0,0)"></path>
<path d="M 1745.29 648.261 C 1730.03 608.341 1754.09 527.354 1785 497.919 C 1806.81 477.155 1810.61 512.383 1811.99 526.833 C 1814.08 548.855 1812.94 569.458 1805.66 590.442 C 1798.34 609.924 1771.81 639.291 1753.3 647.603 L 1751.69 648.066 C 1744.37 656.324 1728.6 688.97 1719.43 701.91 L 1721.2 703.158 C 1728.3 694.158 1754.04 674.343 1765.27 668.089 C 1784.72 657.254 1824.3 635.67 1847.1 640.487 C 1853.55 641.85 1856.24 647.28 1859.12 652.429 C 1863.43 655.09 1868.17 660.078 1871.58 664.014 C 2001.16 813.618 1901.77 1024.79 1696.03 960.988 C 1685.56 957.739 1665.21 950.708 1654.4 948.626 C 1644.26 967.891 1616.46 970.748 1597.02 969.891 C 1580.48 969.161 1533.24 960.56 1522.46 948.689 L 1521.48 943.654 C 1509.79 941.033 1487.54 946.648 1473.09 942.503 C 1468.81 942.494 1429.22 967.796 1421.52 972.222 C 1408.26 979.843 1393.35 987.43 1379.6 994.457 C 1397.55 997.141 1418.14 998.944 1436.36 1001.03 C 1460.63 978.552 1497.66 978.143 1529.5 985.479 C 1553.62 991.037 1589.83 1014.27 1551.08 1034.43 C 1524.08 1044.93 1489.97 1035.29 1464.29 1025.53 C 1452.19 1020.92 1438.4 1016.16 1433.7 1005.07 C 1416.45 1000.88 1396.18 1004.47 1375.08 997.006 C 1356.23 1005.28 1319.12 1022.49 1300.34 1023.73 L 1299.8 1022.64 L 1300.23 1023.64 L 1300.3 1022.38 C 1335.91 1009.03 1378.08 988.879 1411.36 971.108 C 1419.33 946.082 1415.21 939.314 1413.51 913.95 C 1411.72 883.901 1418.5 853.96 1433.08 827.623 C 1437.98 818.924 1453.85 790.135 1466.41 797.763 C 1482.35 821.918 1458.07 905.814 1444.02 929.384 C 1437.17 940.862 1428.42 955.104 1421.12 966.602 C 1425.19 964.518 1429.73 961.405 1433.66 958.896 C 1463.85 939.631 1495.44 921.452 1523.63 899.333 C 1501.87 870.912 1515.49 802.245 1529.02 770.8 C 1536.39 753.677 1569.93 696.202 1586.28 740.961 C 1589.8 750.594 1587.15 766.674 1585.09 776.875 C 1576.81 817.955 1549.76 850.362 1526.78 883.998 C 1523.9 888.222 1522.99 892.081 1524.29 897.111 C 1537.26 896.002 1611.53 827.59 1623.23 814.954 C 1624.19 777.132 1612.79 740.442 1620.73 700.758 C 1630.91 649.918 1666.53 656.485 1663.53 706.381 C 1661.54 739.564 1649.68 766.709 1636.64 796.672 C 1634.72 801.069 1629.43 805.287 1628.78 808.057 L 1630.06 807.925 C 1635.21 803.607 1644.85 791.434 1649.67 785.674 C 1666.3 765.823 1689.24 742.393 1702.02 719.894 C 1700.04 712.92 1698.18 705.912 1696.43 698.873 C 1689.27 666.014 1675.04 646.27 1676.76 609.214 C 1677.26 598.427 1679.88 584.939 1688.43 577.609 C 1691.64 574.858 1696.88 572.637 1701.19 573.355 C 1704.83 573.962 1708.34 575.862 1710.4 578.995 C 1723 598.123 1714.41 684.434 1709.33 709.486 C 1723.58 688.782 1733.16 670.225 1745.29 648.261 z" fill="rgb(243,231,208)" transform="translate(0,0)"></path>
<path d="M 1745.29 648.261 C 1730.03 608.341 1754.09 527.354 1785 497.919 C 1806.81 477.155 1810.61 512.383 1811.99 526.833 C 1814.08 548.855 1812.94 569.458 1805.66 590.442 C 1798.34 609.924 1771.81 639.291 1753.3 647.603 L 1751.69 648.066 C 1744.37 656.324 1728.6 688.97 1719.43 701.91 L 1721.2 703.158 C 1728.3 694.158 1754.04 674.343 1765.27 668.089 C 1784.72 657.254 1824.3 635.67 1847.1 640.487 C 1853.55 641.85 1856.24 647.28 1859.12 652.429 C 1845.79 694.143 1747.15 723.022 1706.65 725.501 C 1686.8 750.603 1672.38 769.245 1650.84 793.165 C 1682.56 770.444 1711.48 751.311 1750.52 743.337 C 1762.2 740.953 1775.26 739.399 1787.1 741.539 C 1792.36 742.49 1797.23 744.748 1800.17 749.414 C 1802.6 753.29 1803.1 758.292 1802.05 762.701 C 1800.23 770.389 1793.97 776.747 1787.28 780.527 C 1759.52 796.199 1674.82 820.102 1644.44 812.496 C 1642.99 812.131 1643.36 812.19 1641.81 811.328 C 1647.36 808.511 1648.44 806.057 1645.64 800.155 C 1615 830.632 1589.75 859.543 1554.39 886.108 L 1573.92 885.654 C 1574.41 885.192 1574.9 884.73 1575.39 884.267 C 1604.98 865.67 1640.6 852.096 1674.47 844.041 C 1689.67 840.428 1735.52 837.348 1730.63 863.113 C 1727.27 880.776 1696.38 888.836 1681.43 891.608 C 1661.11 895.374 1641.07 898.07 1620.45 896.515 C 1594.01 895.009 1564.47 881.703 1539.37 896.3 C 1530.28 901.585 1522.39 909.541 1513.53 915.218 C 1503.35 922.686 1484.88 932.082 1475.96 939.663 C 1475.35 940.25 1473.52 941.899 1473.09 942.503 C 1468.81 942.494 1429.22 967.796 1421.52 972.222 C 1408.26 979.843 1393.35 987.43 1379.6 994.457 C 1397.55 997.141 1418.14 998.944 1436.36 1001.03 C 1460.63 978.552 1497.66 978.143 1529.5 985.479 C 1553.62 991.037 1589.83 1014.27 1551.08 1034.43 C 1524.08 1044.93 1489.97 1035.29 1464.29 1025.53 C 1452.19 1020.92 1438.4 1016.16 1433.7 1005.07 C 1416.45 1000.88 1396.18 1004.47 1375.08 997.006 C 1356.23 1005.28 1319.12 1022.49 1300.34 1023.73 L 1299.8 1022.64 L 1300.23 1023.64 L 1300.3 1022.38 C 1335.91 1009.03 1378.08 988.879 1411.36 971.108 C 1419.33 946.082 1415.21 939.314 1413.51 913.95 C 1411.72 883.901 1418.5 853.96 1433.08 827.623 C 1437.98 818.924 1453.85 790.135 1466.41 797.763 C 1482.35 821.918 1458.07 905.814 1444.02 929.384 C 1437.17 940.862 1428.42 955.104 1421.12 966.602 C 1425.19 964.518 1429.73 961.405 1433.66 958.896 C 1463.85 939.631 1495.44 921.452 1523.63 899.333 C 1501.87 870.912 1515.49 802.245 1529.02 770.8 C 1536.39 753.677 1569.93 696.202 1586.28 740.961 C 1589.8 750.594 1587.15 766.674 1585.09 776.875 C 1576.81 817.955 1549.76 850.362 1526.78 883.998 C 1523.9 888.222 1522.99 892.081 1524.29 897.111 C 1537.26 896.002 1611.53 827.59 1623.23 814.954 C 1624.19 777.132 1612.79 740.442 1620.73 700.758 C 1630.91 649.918 1666.53 656.485 1663.53 706.381 C 1661.54 739.564 1649.68 766.709 1636.64 796.672 C 1634.72 801.069 1629.43 805.287 1628.78 808.057 L 1630.06 807.925 C 1635.21 803.607 1644.85 791.434 1649.67 785.674 C 1666.3 765.823 1689.24 742.393 1702.02 719.894 C 1700.04 712.92 1698.18 705.912 1696.43 698.873 C 1689.27 666.014 1675.04 646.27 1676.76 609.214 C 1677.26 598.427 1679.88 584.939 1688.43 577.609 C 1691.64 574.858 1696.88 572.637 1701.19 573.355 C 1704.83 573.962 1708.34 575.862 1710.4 578.995 C 1723 598.123 1714.41 684.434 1709.33 709.486 C 1723.58 688.782 1733.16 670.225 1745.29 648.261 z" fill="rgb(73,30,15)" transform="translate(0,0)"></path>
<path d="M 1751.69 648.066 C 1751.99 643.672 1760.06 626.587 1761.78 621.44 C 1766.88 606.183 1795.02 532.892 1793.3 520.426 C 1783.42 532.411 1756.55 640.463 1747.26 643.03 C 1743.98 638.741 1744.69 626.484 1744.75 621.007 C 1744.85 586.799 1753.79 553.198 1770.7 523.464 C 1816.59 444.5 1813.37 564.335 1800.91 590.784 C 1789.22 615.597 1772.03 627.342 1753.89 646.763 C 1753.69 647.043 1753.49 647.323 1753.3 647.603 L 1751.69 648.066 z" fill="rgb(205,176,150)" transform="translate(0,0)"></path>
<path d="M 1645.64 800.155 C 1679.61 776.729 1709.66 753.583 1751.66 746.887 C 1764.25 744.879 1800.82 737.725 1797.97 760.62 C 1797.16 767.037 1789.78 774.074 1784.44 777.168 C 1751.75 794.305 1710.97 802.066 1674.86 808.995 C 1664.31 811.02 1650.75 809.494 1641.81 811.328 C 1647.36 808.511 1648.44 806.057 1645.64 800.155 z" fill="rgb(205,176,150)" transform="translate(0,0)"></path>
<path d="M 1767.54 751.899 L 1769.13 752.059 L 1769.37 753.136 C 1765.21 756.181 1760.32 758.115 1755.56 760.004 C 1726.6 771.481 1697.14 781.724 1668.59 794.19 L 1667.14 793.711 C 1672.2 786.022 1754.46 756.541 1767.54 751.899 z" fill="rgb(73,30,15)" transform="translate(0,0)"></path>
<path d="M 1698.05 689.261 C 1688.6 679.291 1677.1 612.94 1681.68 597.024 C 1685.24 584.677 1696.17 566.08 1709.61 584.251 C 1716.53 617.544 1713.13 675.817 1705.12 708.353 C 1705.94 712.693 1704.96 717.508 1703.13 721.498 L 1702.25 722.22 L 1702.02 719.894 C 1700.04 712.92 1698.18 705.912 1696.43 698.873 C 1697.31 693.07 1700.76 695.566 1698.05 689.261 z" fill="rgb(205,176,150)" transform="translate(0,0)"></path>
<path d="M 1698.05 684.366 C 1697.31 663.595 1691.7 616.752 1694.55 598.458 L 1696.18 597.733 C 1699.99 602.622 1697.04 628.06 1698.81 636.894 C 1699.64 651.276 1701.2 669.048 1701.07 683.108 L 1698.05 684.366 z" fill="rgb(73,30,15)" transform="translate(0,0)"></path>
<path d="M 1698.05 684.366 L 1701.07 683.108 C 1701.89 691.284 1702.61 700.505 1705.12 708.353 C 1705.94 712.693 1704.96 717.508 1703.13 721.498 L 1702.25 722.22 L 1702.02 719.894 C 1700.04 712.92 1698.18 705.912 1696.43 698.873 C 1697.31 693.07 1700.76 695.566 1698.05 689.261 L 1698.05 684.366 z" fill="rgb(73,30,15)" transform="translate(0,0)"></path>
<path d="M 1698.81 636.894 C 1698.92 633.953 1698.69 629.763 1700.13 627.464 C 1703.57 627.52 1701.85 627.129 1705.18 629.644 C 1706.91 633.509 1707.49 633.047 1706.74 636.302 C 1703.87 637.386 1701.87 637.027 1698.81 636.894 z" fill="rgb(243,231,208)" transform="translate(0,0)"></path>
<path d="M 1719.43 701.91 L 1721.2 703.158 C 1717.79 707.768 1714.79 712.34 1710.23 715.831 C 1713.22 710.463 1715.33 706.534 1719.43 701.91 z" fill="rgb(132,93,75)" transform="translate(0,0)"></path>
<path d="M 1566.21 728.885 C 1575.72 728.049 1581.65 732.965 1582.96 742.566 C 1590.03 794.314 1552.71 838.558 1525.9 878.401 L 1520.77 888.701 C 1508.91 846.423 1524.62 752.363 1566.21 728.885 z" fill="rgb(205,176,150)" transform="translate(0,0)"></path>
<path d="M 1562.66 753.603 L 1564.68 755.247 C 1564.67 755.153 1531.3 856.701 1528.74 864.457 L 1527.3 864.334 C 1525.22 858.108 1557.39 764.354 1562.66 753.603 z" fill="rgb(73,30,15)" transform="translate(0,0)"></path>
<path d="M 1488.85 985.401 C 1503.85 983.806 1547.43 990.111 1557.02 1002.89 C 1579.39 1032.7 1532.32 1035.24 1513.3 1033.83 C 1484.84 1030.03 1461.16 1021.75 1436.24 1007.89 C 1449.3 990.648 1468.61 987.701 1488.85 985.401 z" fill="rgb(205,176,150)" transform="translate(0,0)"></path>
<path d="M 1465.29 1002.4 C 1474.24 1002.34 1522.5 1007.93 1527.62 1011.27 L 1524.77 1013.69 C 1511.95 1011.09 1499.07 1008.84 1486.14 1006.93 C 1480.26 1006.09 1466.35 1005.27 1462.14 1003.48 L 1465.29 1002.4 z" fill="rgb(73,30,15)" transform="translate(0,0)"></path>
<path d="M 1836.57 643.327 C 1839.85 643.037 1849.08 643.779 1851.03 645.899 C 1862.41 658.261 1835.4 675.438 1828.93 679.829 C 1797.38 701.253 1762.29 711.244 1725.79 719.138 C 1719.01 720.387 1712.23 721.698 1705.47 723.072 C 1715.38 714.219 1724.03 704.538 1734.28 695.517 C 1758.56 674.133 1804.16 648.07 1836.57 643.327 z" fill="rgb(205,176,150)" transform="translate(0,0)"></path>
<path d="M 1825.72 660.867 L 1827 661.558 L 1827.46 663.431 C 1822.51 670.261 1762.75 694.636 1751.64 699.077 L 1749.95 697.942 C 1750.86 695.809 1751.08 695.507 1753.44 694.475 C 1777.91 683.753 1802.29 673.842 1825.72 660.867 z" fill="rgb(73,30,15)" transform="translate(0,0)"></path>
<path d="M 1684.62 846.358 C 1700.26 843.605 1745.42 846.947 1720.72 871.1 C 1702.48 888.945 1646.17 893.146 1622.71 892.881 C 1605.93 891.339 1592.25 889.217 1575.78 886.182 C 1606.42 870.849 1651.42 850.869 1684.62 846.358 z" fill="rgb(205,176,150)" transform="translate(0,0)"></path>
<path d="M 1690.68 857.442 C 1692.6 857.257 1693.65 857.405 1695.58 857.507 C 1696.41 856.691 1622.26 877.311 1617.07 878.652 C 1613.66 879.465 1613.05 879.457 1609.67 879.643 L 1608.8 878.561 C 1618.59 872.886 1678.28 858.359 1690.68 857.442 z" fill="rgb(73,30,15)" transform="translate(0,0)"></path>
<path d="M 1420 941.74 C 1416.17 893.852 1416.61 850.547 1449.2 810.796 C 1452.35 806.962 1456.63 802.393 1461.06 800.222 C 1473.94 802.551 1462.32 864.215 1459.91 873.282 C 1452.09 902.705 1441.98 927.742 1425.27 953.207 C 1424.01 955.883 1423.06 956.864 1421.24 959.119 L 1422.6 948.926 C 1420.99 946.447 1420.82 944.667 1420 941.74 z" fill="rgb(205,176,150)" transform="translate(0,0)"></path>
<path d="M 1458.77 819.117 C 1454.59 833.976 1446.35 853.988 1443.54 867.786 C 1438.8 891.117 1425.84 930.409 1425.27 953.207 C 1424.01 955.883 1423.06 956.864 1421.24 959.119 L 1422.6 948.926 C 1428.92 916.756 1442.49 846.661 1458.77 819.117 z" fill="rgb(73,30,15)" transform="translate(0,0)"></path>
<path d="M 1627.7 797.635 L 1626.32 797.009 C 1624.02 790.2 1623.35 774.599 1623.03 766.785 C 1622.02 738.835 1618.78 707.758 1630.88 681.641 C 1632.61 677.903 1638 669.361 1642.17 668.867 C 1655.41 667.301 1658.64 685.993 1659.06 694.454 C 1660.59 724.765 1651.23 754.241 1638.9 781.5 C 1637.01 785.637 1633.39 794.339 1630.76 797.518 L 1627.7 797.635 z" fill="rgb(205,176,150)" transform="translate(0,0)"></path>
<path d="M 1627.7 797.635 C 1629.62 780.527 1632.28 761.415 1635.07 744.42 C 1637.47 729.754 1638.94 699.714 1643.96 687.559 C 1647.29 691.791 1633.16 786.04 1630.76 797.518 L 1627.7 797.635 z" fill="rgb(73,30,15)" transform="translate(0,0)"></path>
<path d="M 1420 941.74 C 1420.82 944.667 1420.99 946.447 1422.6 948.926 L 1421.24 959.119 C 1420.01 963.053 1419.92 964.14 1417.45 967.288 C 1416.98 964.134 1420.21 951.31 1420.04 943.243 L 1420 941.74 z" fill="rgb(205,176,150)" transform="translate(0,0)"></path>
<path d="M 1523.79 937.52 C 1542.6 920.707 1580.31 916.283 1604.41 917.924 C 1623 919.191 1657.73 922.594 1654.4 948.626 C 1644.26 967.891 1616.46 970.748 1597.02 969.891 C 1580.48 969.161 1533.24 960.56 1522.46 948.689 L 1524.38 948.115 C 1523.73 943.088 1524.06 942.666 1527.01 938.797 L 1523.79 937.52 z" fill="rgb(205,176,150)" transform="translate(0,0)"></path>
<path d="M 1523.79 937.52 C 1542.6 920.707 1580.31 916.283 1604.41 917.924 C 1623 919.191 1657.73 922.594 1654.4 948.626 C 1644.26 967.891 1616.46 970.748 1597.02 969.891 C 1580.48 969.161 1533.24 960.56 1522.46 948.689 L 1524.38 948.115 C 1532.08 950.556 1538.13 953.548 1546.91 955.952 C 1574.41 963.487 1609.37 970.344 1636.95 959.56 C 1641.84 957.432 1648.35 952.591 1649.9 947.305 C 1654.31 932.261 1636.11 926.418 1624.76 924.426 C 1593.71 918.977 1553.86 920.666 1527.01 938.797 L 1523.79 937.52 z" fill="rgb(73,30,15)" transform="translate(0,0)"></path>
<path d="M 1595.97 934.579 C 1601.18 933.962 1617.48 932.663 1621.63 935.386 C 1621.17 935.661 1566.84 941.11 1560.07 942.21 C 1551.31 943.76 1543.98 945.241 1535.01 945.509 C 1552.75 937.641 1576.52 936.092 1595.97 934.579 z" fill="rgb(73,30,15)" transform="translate(0,0)"></path>
<path d="M 1523.79 937.52 L 1527.01 938.797 C 1524.06 942.666 1523.73 943.088 1524.38 948.115 L 1522.46 948.689 L 1521.48 943.654 C 1509.79 941.033 1487.54 946.648 1473.09 942.503 C 1473.52 941.899 1475.35 940.25 1475.96 939.663 C 1483.85 939.164 1519.51 940.994 1523.79 937.52 z" fill="rgb(73,30,15)" transform="translate(0,0)"></path>
<path d="M 547.193 428.531 C 581.974 413.153 599.386 420.323 635.828 416.653 C 662.779 413.939 681.65 405.966 705.216 393.992 C 713.714 398.71 691.697 427.737 687.507 432.783 C 669.405 454.339 643.517 467.868 615.484 470.42 C 569.932 474.253 559.428 456.998 511.617 470.715 C 501.3 481.204 491.308 497.291 483.329 510.016 C 496.195 498.914 515.388 489.734 532.241 487.033 C 555.225 483.349 578.914 493.773 601.788 494.896 C 607.447 495.174 619.841 492.157 623.2 493.939 C 625.059 500.387 611.457 512.022 607.018 516.332 C 588.093 534.707 565.942 549.838 539.851 555.575 C 504.226 563.823 491.78 543.754 457.138 559.614 C 448.602 575.88 444.35 587.215 438.137 604.262 C 483.738 554.781 519.097 580.289 576.633 566.466 C 590.042 563.244 601.42 558.278 613.58 552.077 C 615.719 550.947 616.579 551.039 618.729 551.616 C 619.04 560.836 593.718 590.944 587.74 597.616 C 558.365 630.404 526.784 637.198 485.011 632.991 C 465.555 631.032 437.225 645.658 423.955 659.078 C 417.856 664.713 415.178 689.658 413.472 698.888 C 425.125 682.099 443.527 665.104 464.245 663.177 C 507.715 659.135 536.09 655.302 575.273 632.725 C 560.446 686.745 525.502 712.803 473.799 727.478 C 449.757 734.302 422.471 739.601 406.309 760.135 C 404.166 775.173 404.747 796.914 404.791 812.447 C 415.326 794.846 425.588 777.126 442.643 764.992 C 463.31 750.288 490.592 747.316 514.19 739.295 C 529.193 734.195 543.442 725.914 555.565 715.81 C 559.652 712.4 565.281 704.639 569.407 702.302 L 571.063 703.04 C 574.086 711.385 563.274 738.472 559.586 746.558 C 538.207 793.435 501.691 817.178 455.785 837.079 C 434.803 846.175 421.083 851.58 404.998 868.37 C 406.241 887.876 407.158 905.625 406.964 925.186 L 408.013 923.779 C 416.76 911.917 421.276 902.741 431.827 889.845 C 458.717 856.981 492.68 849.153 526.896 827.019 C 544.22 815.811 556.575 802.092 572.264 789.862 C 571.105 873.358 523.698 916.166 452.28 948.608 C 434.226 956.809 419.311 966.187 405.148 980.098 C 403.943 998.859 402.413 1028.82 398.54 1046.99 C 413.114 1025.7 433.93 995.634 455.944 982.062 C 495.165 957.882 529.278 954.128 563.405 918.696 C 567.609 913.891 577.836 900.653 583.225 899.499 C 586.334 904.921 579.995 931.464 578.223 937.779 C 566.269 980.376 550.455 1018.76 510.114 1041.35 C 462.733 1067.89 428.834 1063.11 389.515 1105.39 C 389.429 1103.03 389.699 1100.16 389.84 1097.76 L 388.769 1097.45 L 387.234 1092.47 C 387.853 1083.66 392.502 1059.85 393.879 1048.03 C 398.184 1011.06 401.545 977.493 401.744 939.972 C 401.986 894.297 398.877 850.898 399.147 805.081 C 399.725 706.773 421.313 609.936 469.972 524.001 C 476.899 511.767 483.731 499.205 492.061 487.855 C 504.599 469.884 522.615 448.215 537.423 431.504 L 543.639 425.025 C 544.93 427.126 545.28 427.816 545.696 430.243 C 547.15 429.456 546.666 430.04 547.193 428.531 z" fill="rgb(73,30,15)" transform="translate(0,0)"></path>
<path d="M 563.405 918.696 C 567.609 913.891 577.836 900.653 583.225 899.499 C 586.334 904.921 579.995 931.464 578.223 937.779 C 566.269 980.376 550.455 1018.76 510.114 1041.35 C 462.733 1067.89 428.834 1063.11 389.515 1105.39 C 389.429 1103.03 389.699 1100.16 389.84 1097.76 C 392.62 1089.1 390.28 1088.51 397.423 1080.53 C 395.02 1080.03 393.606 1080.25 392.384 1078.79 L 394.147 1078.86 C 396.475 1053.47 401.75 1047.24 416.74 1027.52 C 428.642 1011.87 448.032 991.776 465.226 982.257 C 505.749 959.822 530.252 957.853 564.95 922.618 L 563.405 918.696 z" fill="rgb(205,176,150)" transform="translate(0,0)"></path>
<path d="M 563.405 918.696 C 567.609 913.891 577.836 900.653 583.225 899.499 C 586.334 904.921 579.995 931.464 578.223 937.779 C 566.269 980.376 550.455 1018.76 510.114 1041.35 C 462.733 1067.89 428.834 1063.11 389.515 1105.39 C 389.429 1103.03 389.699 1100.16 389.84 1097.76 C 401.845 1089.9 407.32 1080.26 424.165 1072.01 C 456.822 1056.03 494.191 1049.03 523.15 1026.87 C 555.129 1002.41 574.794 946.217 579.662 907.305 C 574.831 912.038 569.674 917.679 564.95 922.618 L 563.405 918.696 z" fill="rgb(73,30,15)" transform="translate(0,0)"></path>
<path d="M 394.147 1078.86 C 430.385 1034.85 471.594 1014.38 520.046 987.196 C 531.137 980.973 540.733 967.184 551.173 960.758 C 528.873 994.296 501.612 1001.26 468.674 1021.19 C 441.987 1037.34 416.853 1055.98 397.423 1080.53 C 395.02 1080.03 393.606 1080.25 392.384 1078.79 L 394.147 1078.86 z" fill="rgb(73,30,15)" transform="translate(0,0)"></path>
<path d="M 566.593 799.816 C 568.512 811.815 557.152 849.812 551.366 861.223 C 526.785 909.705 476.389 930.791 430.65 954.009 C 424.857 956.95 409.369 969.769 405.581 971.066 C 404.94 958.721 408.492 958.844 415.929 949.394 C 441.677 916.675 476.618 900.31 509.599 876.864 C 519.742 869.725 529.316 861.81 538.234 853.19 C 543.901 847.537 545.172 845.755 549.412 839.087 C 543.664 843.079 537.443 848.91 532.034 853.702 C 496.41 885.262 450.791 903.177 419.047 939.491 C 414.698 944.466 410.248 949.748 405.719 954.437 C 406.994 929.791 411.42 925.865 424.824 906.127 C 452.026 866.07 484.32 857.894 523.43 834.359 C 536.928 826.237 554.443 810.879 566.593 799.816 z" fill="rgb(205,176,150)" transform="translate(0,0)"></path>
<path d="M 565.896 711.914 C 566.243 721.326 556.905 743.046 552.57 751.486 C 532.618 790.329 497.103 814.087 457.926 830.924 C 438.361 839.332 421.597 847.085 405.201 861.375 C 405.224 859.46 405.108 851.953 405.672 850.515 C 424.35 802.914 486.379 785.213 523.58 758.884 C 529.989 753.99 532.509 751.235 537.808 745.286 C 528.172 751.916 516.763 759.819 506.698 765.451 C 463.312 789.726 433.282 799.14 405.093 842.274 C 404.549 820.158 406.626 817.548 417.162 799.098 C 443.433 753.093 490.46 754.672 533.68 735.719 C 544.597 730.931 556.984 720.084 565.896 711.914 z" fill="rgb(205,176,150)" transform="translate(0,0)"></path>
<path d="M 415.59 703.148 C 428.082 685.201 443.954 670.7 466.239 667.687 C 507.686 662.083 530.175 661.845 568.132 641.328 C 553.88 676.485 537.637 696.774 501.99 712.28 C 469.125 726.577 432.839 727.591 406.193 753.123 C 407.13 742.974 406.371 740.339 412.362 732.465 C 409.981 732.192 410.006 732.306 407.898 731.238 C 406.94 725.446 411.023 705.798 415.59 703.148 z" fill="rgb(205,176,150)" transform="translate(0,0)"></path>
<path d="M 408.594 730.591 C 417.492 722.145 428.305 711.094 438.621 704.763 C 456.626 693.714 479.778 690.366 499.882 684.224 C 517.995 678.69 526.87 674.397 541.966 664.116 L 543.606 664.562 C 542.613 668.047 531.881 674.379 528.548 676.141 C 479.371 702.133 453.448 688.288 412.362 732.465 C 409.981 732.192 410.006 732.306 407.898 731.238 C 406.94 725.446 411.023 705.798 415.59 703.148 C 413.21 710.975 409.994 722.694 408.594 730.591 z" fill="rgb(73,30,15)" transform="translate(0,0)"></path>
<path d="M 609.706 559.082 L 610.481 560.087 C 605.07 570.023 592.639 584.459 584.985 593.401 C 528.143 659.812 484.269 600.673 422.576 653.591 C 432.909 612.342 491.444 605.331 526.491 603.815 C 536.978 603.362 548.582 599.286 558.249 595.489 C 567.235 591.874 569.233 590.771 576.472 584.775 L 576.488 583.805 C 573.573 583.454 562.835 588.615 560.102 589.993 C 527.124 606.622 489.54 596.314 456.295 613.04 C 445.083 618.681 438.704 623.411 428.856 631.349 C 435.504 608.607 449.667 594.343 470.883 583.946 C 497.473 570.915 529.854 578.142 558.462 574.272 C 576.882 571.78 592.707 566.523 609.706 559.082 z" fill="rgb(205,176,150)" transform="translate(0,0)"></path>
<path d="M 533.422 491.248 C 555.316 489.685 573.523 495.986 594.891 498.646 C 601.813 499.507 609.614 499.143 616.608 498.862 C 594.354 526.876 552.365 555.104 515.08 552.369 C 490.243 550.548 485.453 543.723 460.58 552.698 C 470.676 538.585 497.095 529.018 513.332 524.437 C 546.42 515.58 567.368 527.153 603.627 502.277 C 592.06 505.814 578.746 512.5 567.384 514.509 C 558.709 516.042 544.056 516.427 534.817 516.885 C 509.686 518.132 487.247 527.909 465.963 540.959 C 482.584 511.075 498.857 498.243 533.422 491.248 z" fill="rgb(205,176,150)" transform="translate(0,0)"></path>
<path d="M 699.23 402.097 C 699.961 402.706 699.502 402.225 699.984 403.944 C 697.293 411.717 689.897 422.413 684.767 428.843 C 670.137 447.069 648.684 460.353 625.73 464.741 C 599.554 469.745 574.542 463.07 548.585 461.127 C 538.448 460.367 527.648 461.664 517.589 462.831 C 519.188 460.663 520.822 458.521 522.492 456.408 C 538.728 436.015 579.625 445.264 602.5 445.898 C 611.74 446.155 616.607 445.888 625.889 444.818 C 639.952 441.977 648.705 437.41 660.575 429.572 C 648.867 433.139 635.349 440.344 623.125 441.625 C 589.01 445.2 569.255 434.053 533.899 442.434 C 561.092 416.772 598.994 423.448 632.139 421.279 C 654.416 419.821 679.543 412.86 699.23 402.097 z" fill="rgb(205,176,150)" transform="translate(0,0)"></path>
<path d="M 1138.6 209.906 L 1140.51 210.035 C 1141.35 210.762 1142.54 211.393 1142.51 212.559 C 1141.29 273.544 1106.46 318.209 1055.33 348.432 C 1046.65 353.56 1035.59 360.414 1026.33 362.478 C 1007.03 389.335 983.328 417.442 963.134 445.06 C 968.362 445.667 974.407 445.865 979.72 446.168 C 985.854 439.848 1000.7 427.628 1008.9 421.471 C 1034.65 402.159 1072.18 375.106 1105.75 377.346 C 1110.43 377.832 1116.63 381.494 1118.86 385.63 C 1127.85 402.303 1106.15 418.076 1094.23 425.155 C 1055.91 447.895 1002.21 459.415 958.672 447.946 C 952.235 462.595 934.2 486.477 924.433 500.569 C 910.667 520.479 897.378 540.715 884.576 561.259 L 885.455 562.574 C 892.968 564.166 893.847 564.678 899.874 559.411 C 910.599 550.04 920.902 540.142 931.868 531.052 C 950.106 516.2 969.847 503.297 990.77 492.554 C 999.992 487.883 1051.4 463.352 1046.88 501.4 C 1045.44 513.491 1006.49 531.749 993.635 536.752 C 963.843 548.346 926.607 560.678 895.061 567.509 C 891.024 568.396 885.567 566.603 881.941 565.112 C 860.425 599.831 840.376 635.438 821.846 671.838 C 844.38 667.794 845.4 661.473 860.766 646.568 C 866.375 641.127 876.05 633.683 882.496 629.04 C 902.504 614.821 924.368 603.413 947.476 595.134 C 956.692 591.934 975.579 585.968 984.516 590.669 C 994.046 595.683 990.059 610.699 984.524 617.409 C 959.465 647.791 909.861 657.86 873.156 667.315 C 856.292 671.659 836.611 672.876 819.427 676.388 C 811.628 691.502 778.803 758.071 779.478 771.281 C 790.312 774.51 816.771 748.064 826.053 741.583 C 858.791 718.725 895.234 688.366 936.869 687.119 C 940.061 687.023 944.68 689.592 946.507 692.119 C 956.52 704.983 935.144 723.908 925.138 730.254 C 889.346 752.952 818.685 783.924 776.308 776.21 C 771.209 790.01 748.353 853.577 749.573 864.639 C 754.464 867.487 763.101 856.158 766.602 852.37 C 787.072 830.221 813.235 814.258 840.747 802.18 C 850.989 797.684 874.17 791.686 875.021 809.971 C 874.997 821.101 865.149 832.276 857.441 839.953 C 824.976 867.122 788.791 872.65 747.672 870.08 C 743.281 896.579 735.01 923.248 731.285 950.061 C 729.77 960.972 728.58 976.451 724.212 986.261 L 724.346 985.496 L 723.129 984.673 C 721.795 956.539 739.544 896.619 743.906 866.544 C 728.372 843.058 726.528 847.232 706.571 830.45 C 695.046 820.899 684.787 809.916 676.043 797.768 C 660.863 776.581 649.173 746.878 653.994 720.436 C 655.195 713.849 657.958 704.878 664.02 701.132 C 666.81 699.408 669.937 698.917 673.128 699.726 C 696.175 705.57 719.028 781.616 725.2 804.603 C 728.738 817.776 730.356 831.375 734.832 844.295 C 737.082 850.791 741.025 856.688 744.59 862.522 C 749.2 843.73 754.649 825.154 760.919 806.85 C 765.801 792.455 771.957 777.437 775.523 762.842 C 745.778 730.153 719.486 688.305 712.188 643.953 C 709.651 626.132 709.726 605.884 720.536 590.667 C 725.865 583.167 736.101 586.683 740.235 592.419 C 767.24 629.885 776.636 716.332 777.01 760.879 C 786.854 735.559 795.881 712.614 808.468 688.412 C 813.846 678.07 825.811 656.781 827.979 646.099 C 798.406 623.694 780.945 592.861 770.726 556.162 C 766.321 540.344 756.83 488.559 781.859 479.466 C 784.16 478.63 790.347 481.146 791.776 483.28 C 818.234 522.793 830.751 596.269 831.296 643.037 C 859.393 590.949 895.377 535.875 928.569 486.759 C 935.423 476.616 950.276 454.394 957.294 445.948 C 942.523 424.274 939.111 401.629 941.697 374.368 C 943.253 357.96 949.158 299.234 975.403 298.636 C 982.532 299.972 985.466 313.98 986.27 318.913 C 993.408 362.723 967.779 400.06 961.166 442.097 C 976.893 417.906 1003.91 384.648 1022.11 361.495 C 1024.71 293.011 1074.59 231.919 1138.6 209.906 z" fill="rgb(73,30,15)" transform="translate(0,0)"></path>
<path d="M 1134.87 216.01 C 1135.5 216.003 1136.92 216.326 1137.61 216.454 C 1139.68 221.031 1133.27 246.87 1131.56 252.586 C 1115.38 306.681 1071.64 334.946 1025.13 360.304 L 1028.31 357.102 C 1032.43 352.954 1035.42 348.55 1038.66 343.683 C 1062.07 308.432 1089.66 277.698 1118.87 247.241 L 1120.31 244.672 L 1119.48 244.552 C 1090.05 268.312 1046.64 325.124 1026.66 356.848 C 1029.24 297.13 1079.58 235.924 1134.87 216.01 z" fill="rgb(253,251,241)" transform="translate(0,0)"></path>
<path d="M 727.018 589.63 C 760.888 597.134 771.579 724.403 772.642 754.345 C 770.676 752.008 768.482 749.007 766.574 746.546 C 742.29 714.095 715.389 668.96 714.96 627.26 C 714.822 613.785 717.239 599.585 727.018 589.63 z" fill="rgb(253,251,241)" transform="translate(0,0)"></path>
<path d="M 730.239 625.757 C 731.974 629.349 733.412 636.281 734.225 640.284 C 739.351 665.539 746.964 689.455 757.383 713.014 C 760.108 719.177 763.303 726.778 765.069 733.248 C 753.545 720.413 729.126 643.219 730.239 625.757 z" fill="rgb(102,55,35)" transform="translate(0,0)"></path>
<path d="M 826.091 641.642 C 792.262 608.196 771.102 566.88 769.877 518.837 C 769.617 508.648 771.265 486.397 783.435 484.085 C 807.136 488.589 827.851 610.951 826.327 634.534 L 825.37 635.517 C 821.92 631.574 791.78 548.406 789.139 538.989 L 787.869 539.028 C 793.752 561.993 802.17 582.172 810.571 604.23 C 815.993 618.465 818.272 628.349 826.091 641.642 z" fill="rgb(253,251,241)" transform="translate(0,0)"></path>
<path d="M 787.869 539.028 C 785.989 532.707 782.381 522.211 783.449 515.84 C 785.786 521.713 787.743 532.404 789.139 538.989 L 787.869 539.028 z" fill="rgb(168,137,121)" transform="translate(0,0)"></path>
<path d="M 723.685 837.983 C 685.502 810.367 641.751 757.534 664.028 707.604 C 666.302 702.508 674.164 703.756 677.508 707.395 C 696.444 728 730.322 812.697 727.652 840.282 C 724.369 839.478 725.532 840.416 723.685 837.983 z" fill="rgb(253,251,241)" transform="translate(0,0)"></path>
<path d="M 723.685 837.983 C 718.033 828.384 711.044 819.337 705.229 809.782 C 693.036 789.747 681.104 765.995 673.598 743.769 L 673.874 743.091 C 681.883 756.377 690.272 778.916 698.981 794.503 C 705.096 805.448 724.675 833.225 727.652 840.282 C 724.369 839.478 725.532 840.416 723.685 837.983 z" fill="rgb(102,55,35)" transform="translate(0,0)"></path>
<path d="M 926.444 692.227 C 930.509 691.835 937.654 690.817 940.883 693.747 C 945.66 697.571 945.446 704.907 941.485 709.338 C 915.145 738.801 851.325 764.119 813.827 770.681 C 806.682 771.615 799.405 771.987 792.206 772.459 C 802.486 765.838 812.687 756.862 822.572 749.441 C 853.072 726.544 888.622 700.067 926.444 692.227 z" fill="rgb(253,251,241)" transform="translate(0,0)"></path>
<path d="M 915.448 708.955 C 916.176 709.505 915.769 709.095 916.322 710.451 C 890.982 724.691 844.009 750.123 817.51 760.927 L 816.894 760.116 C 837.533 748.569 859.687 738 880.713 727.168 C 891.814 721.449 905.063 715.633 915.448 708.955 z" fill="rgb(102,55,35)" transform="translate(0,0)"></path>
<path d="M 970.482 593.27 C 975.606 592.821 979.065 592.342 983.452 595.135 C 987.913 601.112 984.695 610.641 980.43 615.593 C 955.626 644.386 896.971 658.275 861.226 665.04 L 846.099 667.613 C 875.586 634.33 926.363 600.955 970.482 593.27 z" fill="rgb(253,251,241)" transform="translate(0,0)"></path>
<path d="M 941.169 620.006 L 942.111 621.23 C 936.058 623.516 924.81 629.561 918.341 632.519 C 903.656 639.235 889.301 646.821 874.219 652.824 C 868.881 654.948 865.377 657.991 859.465 659.889 L 859.544 659.43 C 867.041 652.539 927.749 626.02 941.169 620.006 z" fill="rgb(102,55,35)" transform="translate(0,0)"></path>
<path d="M 941.169 620.006 C 946.188 617.472 950.37 614.958 955.856 613.834 L 956.329 614.382 L 955.724 614.967 L 955.135 613.917 L 954.681 615.672 C 950.52 617.588 946.329 619.441 942.111 621.23 L 941.169 620.006 z" fill="rgb(168,137,121)" transform="translate(0,0)"></path>
<path d="M 1093.35 382.242 C 1125 378.525 1122.76 398.576 1103.75 413.27 C 1073.02 437.029 1026.67 450.898 987.71 447.092 C 1021.09 436.882 1046.49 423.953 1077.35 407.949 L 1087.62 400.831 L 1087.38 400.098 C 1058.5 414.485 1029.73 431.787 998.718 441.446 C 993.756 442.991 990.309 445.764 985.024 446.65 L 984.236 446.016 C 1011.07 421.751 1058.12 388.852 1093.35 382.242 z" fill="rgb(253,251,241)" transform="translate(0,0)"></path>
<path d="M 1023.88 485.211 C 1033.99 484.32 1050.27 492.341 1043.2 500.367 C 1014.22 533.244 956.789 542.57 917.25 558.316 L 899.877 564.337 C 909.588 556.631 919.094 547.154 928.744 539.143 C 954.98 517.363 990.788 493.114 1023.88 485.211 z" fill="rgb(253,251,241)" transform="translate(0,0)"></path>
<path d="M 1021.88 499.082 C 1022.33 499.329 1022.78 499.577 1023.23 499.825 C 995.308 511.59 957.034 532.511 928.715 546.792 L 928.193 546.67 L 927.923 545.979 C 937.105 540.233 954.06 531.829 964.384 526.569 C 980.089 518.567 1005.5 504.206 1021.88 499.082 z" fill="rgb(132,93,75)" transform="translate(0,0)"></path>
<path d="M 855.017 802.159 C 878.456 800.983 871.044 817.947 860.922 829.825 C 838.32 856.348 805.313 863.621 772.242 866.767 L 756.381 866.97 C 782.934 841.032 818.154 811.835 855.017 802.159 z" fill="rgb(253,251,241)" transform="translate(0,0)"></path>
<path d="M 842.968 822.07 L 842.811 823.255 C 832.349 836.655 786.906 854.992 770.042 862.182 L 770.105 861.417 C 774.013 858.333 798.321 847.498 804.613 844.574 C 820.966 836.974 828.481 832.386 842.968 822.07 z" fill="rgb(132,93,75)" transform="translate(0,0)"></path>
<path d="M 953.166 431.87 C 943.353 410.355 944.948 377.478 948.568 354.804 C 950.38 343.454 958.488 304.606 971.442 302.1 C 974.869 303.163 977.117 305.888 978.534 309.04 C 994.516 344.587 968.822 392.681 959.858 424.594 L 959.411 426.21 L 957.384 440.423 L 953.166 431.87 z" fill="rgb(253,251,241)" transform="translate(0,0)"></path>
<path d="M 954.069 431.474 C 953.152 408.468 957.411 388.146 961.325 365.659 C 963.153 355.156 963.202 337.709 967.494 328.728 C 967.712 330.244 963.958 361.386 963.509 365.192 C 961.097 385.62 955.546 403.789 956.171 424.899 L 959.411 426.21 L 957.384 440.423 L 953.166 431.87 L 954.069 431.474 z" fill="rgb(132,93,75)" transform="translate(0,0)"></path>
<path d="M 956.171 424.899 L 959.411 426.21 L 957.384 440.423 L 953.166 431.87 L 954.069 431.474 L 955.171 432.621 C 956.451 430.983 956.06 427.531 956.171 424.899 z" fill="rgb(243,231,208)" transform="translate(0,0)"></path>
<path d="M 470.7 511.982 C 476.809 502.645 482.059 494.672 488.838 485.761 L 492.061 487.855 C 483.731 499.205 476.899 511.767 469.972 524.001 C 421.313 609.936 399.725 706.773 399.147 805.081 C 398.877 850.898 401.986 894.297 401.744 939.972 C 401.545 977.493 398.184 1011.06 393.879 1048.03 C 392.502 1059.85 387.853 1083.66 387.234 1092.47 L 388.769 1097.45 L 389.84 1097.76 C 389.699 1100.16 389.429 1103.03 389.515 1105.39 C 385.367 1123.66 381.118 1140.38 376.628 1158.42 C 379.21 1156.4 388.768 1145.19 390.493 1142.83 C 422.272 1099.27 465.069 1090.94 513.471 1077.48 C 526.225 1073.94 543.737 1062.84 556.079 1055.26 C 558.563 1053.67 559.59 1052.59 562.485 1052.85 C 564.05 1054.96 564.181 1055.59 563.347 1059.12 C 553.218 1102.04 510.82 1143.03 475.805 1167.19 C 445.9 1187.82 422.156 1188.36 388.623 1194.35 C 379.637 1195.96 366.372 1201.58 357.827 1205.17 C 340.321 1259.84 253.319 1374.79 205.376 1406.37 C 201.664 1403.04 198.542 1400.2 195.037 1396.6 C 193.88 1394.31 193.753 1393.8 192.904 1391.36 C 194.261 1384.96 224.246 1361.11 231.769 1352.97 C 264.493 1317.55 305.193 1268.75 326.653 1225.61 C 324.283 1218.55 319.713 1205.7 315.141 1200.41 C 283.457 1163.78 234.98 1162.21 210.822 1111.98 C 202.862 1095.42 189.721 1054.46 195.351 1037.29 L 196.605 1036.89 C 205.116 1042.75 214.867 1057.45 223.083 1062.68 C 254.214 1082.49 295.309 1085.24 322.94 1110.54 C 343.21 1129.1 348.4 1152.52 349.543 1178.71 C 354.146 1166.45 365.274 1144.03 363.547 1132.17 C 363.536 1131.38 363.865 1129.84 364.01 1128.99 C 365.787 1128.36 366.217 1128.24 367.894 1127.22 C 369.474 1120.92 371.309 1112.43 373.874 1106.68 L 374.132 1104.34 C 376.81 1089.78 378.528 1081.63 375.302 1067.25 L 379.771 1066.22 C 382.64 1052.24 384.534 1029.86 386.378 1015.08 C 387.269 1011.61 387.118 1011.45 386.954 1008 C 386.915 1003.81 387.809 998.362 388.366 994.093 L 384.242 983.769 L 388.128 982.862 C 391.465 976.159 391.982 947.278 392.097 938.514 C 393.033 920.031 392.586 901.267 392.313 882.751 C 369.225 842.227 341.977 834.097 303.072 811.735 C 269.879 793.731 249.875 761.671 240.45 725.871 C 238.255 717.537 229.14 660.215 240.823 659.581 C 244.628 663.883 245.683 669.053 248.427 673.966 C 257.33 689.912 274.996 702.946 290.846 711.19 C 321.834 727.308 353.997 741.044 376.377 769.155 C 381.595 775.709 385.744 785.551 390.39 792.882 L 391.284 790.837 C 393.034 792.727 393.583 793.492 395.676 794.948 C 397.068 766.652 398.705 737.556 402.281 709.43 C 405.342 685.364 413.53 660.543 417.43 637.56 L 417.613 636.433 C 415.419 630.679 418.846 631.509 416.302 626.761 C 419.642 615.804 427.61 594.5 426.821 584.624 L 427.711 583.079 C 430.696 583.715 432.842 583.748 434.812 585.956 C 447.071 560.545 453.941 537.371 470.7 511.982 z" fill="url(#Gradient4)" transform="translate(0,0)"></path>
<path d="M 556.079 1055.26 L 558.62 1056.41 L 558.983 1057.48 C 554.93 1089.21 510.771 1135.4 485.582 1154.18 C 451.829 1179.35 432.464 1182.53 392.482 1189.07 C 385.38 1190.24 368.025 1196.2 360.479 1198.7 C 366.077 1184.03 369.537 1172.2 380.033 1160.25 C 378.204 1159.63 378.288 1159.5 376.628 1158.42 C 379.21 1156.4 388.768 1145.19 390.493 1142.83 C 422.272 1099.27 465.069 1090.94 513.471 1077.48 C 526.225 1073.94 543.737 1062.84 556.079 1055.26 z" fill="rgb(205,176,150)" transform="translate(0,0)"></path>
<path d="M 556.079 1055.26 L 558.62 1056.41 L 558.983 1057.48 C 540.387 1070.88 524.287 1078.83 502.175 1085.59 C 478.66 1092.78 456.259 1096.88 434.577 1109.49 C 416.816 1119.82 405.843 1131.86 392.406 1146.95 C 390.344 1149.27 381.996 1158.72 380.033 1160.25 C 378.204 1159.63 378.288 1159.5 376.628 1158.42 C 379.21 1156.4 388.768 1145.19 390.493 1142.83 C 422.272 1099.27 465.069 1090.94 513.471 1077.48 C 526.225 1073.94 543.737 1062.84 556.079 1055.26 z" fill="rgb(73,30,15)" transform="translate(0,0)"></path>
<path d="M 525.169 1097.92 L 526.099 1099.08 C 519.927 1108.59 441.59 1142.11 426.449 1150.67 C 415.055 1157.11 391.596 1172.45 380.45 1178.03 C 379.492 1176.6 379.975 1177.49 379.242 1175.24 C 409.078 1152.17 457.677 1130.4 491.453 1114.69 C 502.302 1109.65 514.66 1102.18 525.169 1097.92 z" fill="rgb(73,30,15)" transform="translate(0,0)"></path>
<path d="M 470.7 511.982 C 476.809 502.645 482.059 494.672 488.838 485.761 L 492.061 487.855 C 483.731 499.205 476.899 511.767 469.972 524.001 C 421.313 609.936 399.725 706.773 399.147 805.081 C 398.877 850.898 401.986 894.297 401.744 939.972 C 401.545 977.493 398.184 1011.06 393.879 1048.03 C 392.502 1059.85 387.853 1083.66 387.234 1092.47 L 388.769 1097.45 L 389.84 1097.76 C 389.699 1100.16 389.429 1103.03 389.515 1105.39 C 385.367 1123.66 381.118 1140.38 376.628 1158.42 C 378.288 1159.5 378.204 1159.63 380.033 1160.25 C 369.537 1172.2 366.077 1184.03 360.479 1198.7 C 368.025 1196.2 385.38 1190.24 392.482 1189.07 C 432.464 1182.53 451.829 1179.35 485.582 1154.18 C 510.771 1135.4 554.93 1089.21 558.983 1057.48 L 558.62 1056.41 L 556.079 1055.26 C 558.563 1053.67 559.59 1052.59 562.485 1052.85 C 564.05 1054.96 564.181 1055.59 563.347 1059.12 C 553.218 1102.04 510.82 1143.03 475.805 1167.19 C 445.9 1187.82 422.156 1188.36 388.623 1194.35 C 379.637 1195.96 366.372 1201.58 357.827 1205.17 C 340.321 1259.84 253.319 1374.79 205.376 1406.37 C 201.664 1403.04 198.542 1400.2 195.037 1396.6 L 198.268 1392.22 C 203.548 1386.03 220.453 1371.25 227.772 1364.04 C 270.409 1322.08 313.447 1265.44 341.143 1212.4 C 355.875 1177.59 373.792 1136.96 379.919 1099.29 C 389.779 1038.68 396.542 973.007 397.115 911.581 C 397.481 872.271 395.488 833.918 395.676 794.948 C 397.068 766.652 398.705 737.556 402.281 709.43 C 405.342 685.364 413.53 660.543 417.43 637.56 L 417.613 636.433 C 415.419 630.679 418.846 631.509 416.302 626.761 C 419.642 615.804 427.61 594.5 426.821 584.624 L 427.711 583.079 C 430.696 583.715 432.842 583.748 434.812 585.956 C 447.071 560.545 453.941 537.371 470.7 511.982 z" fill="url(#Gradient3)" transform="translate(0,0)"></path>
<path d="M 556.079 1055.26 C 558.563 1053.67 559.59 1052.59 562.485 1052.85 C 564.05 1054.96 564.181 1055.59 563.347 1059.12 C 553.218 1102.04 510.82 1143.03 475.805 1167.19 C 445.9 1187.82 422.156 1188.36 388.623 1194.35 C 379.637 1195.96 366.372 1201.58 357.827 1205.17 C 340.321 1259.84 253.319 1374.79 205.376 1406.37 C 201.664 1403.04 198.542 1400.2 195.037 1396.6 L 198.268 1392.22 C 200.365 1394.83 203.153 1397.55 205.505 1400 C 231.171 1381.1 255.972 1351.18 276.53 1326.89 C 334.715 1258.12 370.69 1180.74 387.234 1092.47 L 388.769 1097.45 L 389.84 1097.76 C 389.699 1100.16 389.429 1103.03 389.515 1105.39 C 385.367 1123.66 381.118 1140.38 376.628 1158.42 C 378.288 1159.5 378.204 1159.63 380.033 1160.25 C 369.537 1172.2 366.077 1184.03 360.479 1198.7 C 368.025 1196.2 385.38 1190.24 392.482 1189.07 C 432.464 1182.53 451.829 1179.35 485.582 1154.18 C 510.771 1135.4 554.93 1089.21 558.983 1057.48 L 558.62 1056.41 L 556.079 1055.26 z" fill="url(#Gradient2)" transform="translate(0,0)"></path>
<path d="M 426.821 584.624 L 427.711 583.079 C 430.696 583.715 432.842 583.748 434.812 585.956 C 428.245 602.968 422.501 618.833 417.613 636.433 C 415.419 630.679 418.846 631.509 416.302 626.761 C 419.642 615.804 427.61 594.5 426.821 584.624 z" fill="rgb(41,3,0)" transform="translate(0,0)"></path>
<path d="M 240.645 668.092 C 266.794 722.126 330.307 723.183 367.876 765.809 C 389.627 790.486 391.652 806.588 390.593 837.188 L 391.289 838.939 L 389.219 839.544 C 390.467 841.4 390.664 841.569 391.343 843.712 L 390.311 844.029 C 391.878 852.531 392.001 865.536 392.167 874.432 C 384.812 865.21 380.426 856.217 371.116 847.707 C 343.225 822.213 300.416 811.966 275.768 783.043 C 246.735 748.975 237.974 711.546 240.645 668.092 z" fill="rgb(205,176,150)" transform="translate(0,0)"></path>
<path d="M 390.311 844.029 C 389.152 842.821 381.367 830.455 379.778 828.135 C 371.827 816.594 362.766 805.857 352.726 796.079 C 331.318 775.595 307.739 764.489 285.277 746.18 C 277.008 739.44 256.569 716.773 255.855 706.598 L 256.88 706.445 C 277.166 736.712 293.646 748.527 323.981 767.531 C 351.478 784.758 374.866 808.609 390.593 837.188 L 391.289 838.939 L 389.219 839.544 C 390.467 841.4 390.664 841.569 391.343 843.712 L 390.311 844.029 z" fill="rgb(73,30,15)" transform="translate(0,0)"></path>
<path d="M 198.562 1044.96 C 239.293 1092.74 287.459 1078.98 326.392 1121.42 C 340.989 1137.33 346.098 1167.65 344.582 1188.42 C 344.275 1192.62 341.005 1205.19 337.43 1208.08 L 336.11 1205.36 L 336.134 1206.99 C 336.177 1208.87 336.261 1209.97 336.457 1211.81 C 335.608 1213.18 334.897 1214.3 334.134 1215.72 C 333.128 1217.31 332.197 1218.67 331.129 1220.22 C 328.22 1219.74 325.844 1209.3 324.129 1205.69 C 322.412 1202.13 320.311 1198.76 317.862 1195.66 C 300.825 1173.98 265 1162.4 243.089 1144.28 C 209.515 1116.51 203.254 1085.1 198.562 1044.96 z" fill="rgb(205,176,150)" transform="translate(0,0)"></path>
<path d="M 203.428 1058.67 C 206.86 1062.02 212.475 1068.79 215.231 1072.82 C 242.39 1112.49 294.74 1123.57 320.266 1164.12 C 326.806 1174.51 335.318 1193.27 336.11 1205.36 L 336.134 1206.99 C 336.177 1208.87 336.261 1209.97 336.457 1211.81 C 335.608 1213.18 334.897 1214.3 334.134 1215.72 C 322.33 1121.43 237.036 1131.06 203.428 1058.67 z" fill="rgb(73,30,15)" transform="translate(0,0)"></path>
<path d="M 579.001 383.11 C 592.701 339.403 599.247 300.361 642.539 276.882 C 672.731 260.506 695.499 245.19 714.999 217.259 C 716.401 215.252 718.381 214.87 720.675 214.976 C 723.747 218.074 723.827 223.75 724.435 227.91 C 729.624 263.416 723.006 300.032 703.936 330.75 C 675.86 375.973 618.65 378.57 576.49 403.347 C 565.658 409.713 555.731 419.342 547.193 428.531 C 546.666 430.04 547.15 429.456 545.696 430.243 C 545.28 427.816 544.93 427.126 543.639 425.025 L 537.423 431.504 C 522.615 448.215 504.599 469.884 492.061 487.855 L 488.838 485.761 C 482.059 494.672 476.809 502.645 470.7 511.982 L 467.376 509.688 L 468.044 507.959 C 471.254 504.179 476.604 495.43 479.693 491.03 C 486.093 481.913 492.877 472.679 498.899 463.355 C 499.105 454.355 499.455 439.264 497.501 430.744 C 491.616 405.093 486.016 394.528 488.994 367.012 C 493.746 323.09 521.614 280.576 555.138 252.875 C 559.669 249.131 580.235 233.124 585.383 233.696 L 586.434 235.238 C 584.693 240.832 580.549 248.122 577.532 253.322 C 564.913 275.08 554.447 306.639 553.651 332.092 C 552.33 374.285 551.445 391.799 529.514 428.726 C 541.792 415.803 564.994 393.436 579.001 383.11 z" fill="rgb(73,30,15)" transform="translate(0,0)"></path>
<path d="M 717.312 220.104 C 726.277 254.196 720.282 293.144 702.942 323.464 C 677.05 368.739 626.412 372.934 583.994 393.796 C 567.386 401.964 556.151 411.523 543.639 425.025 L 537.423 431.504 C 537.67 429.837 539.077 427.367 539.67 425.242 C 576.91 383.546 624.753 359.8 667.593 325.683 C 676.072 318.931 711.846 270.183 708.416 261.579 C 705.214 263.195 694.527 284.893 690.936 290.483 C 685.523 298.941 679.349 306.888 672.491 314.225 C 648.95 339.306 608.208 358.609 579.237 384.496 L 580.176 383.167 C 595.541 361.239 597.105 323.387 616.901 303.73 C 652.321 268.561 688.839 266.296 717.312 220.104 z" fill="rgb(205,176,150)" transform="translate(0,0)"></path>
<path d="M 539.67 425.242 C 539.077 427.367 537.67 429.837 537.423 431.504 C 522.615 448.215 504.599 469.884 492.061 487.855 L 488.838 485.761 C 505.524 461.754 519.052 445.675 539.67 425.242 z" fill="rgb(243,231,208)" transform="translate(0,0)"></path>
<path d="M 503.988 457.183 C 503.512 446.145 503.246 436.871 500.964 425.905 C 498.835 415.675 495.052 404.625 493.62 394.449 C 487.375 350.095 510.042 307.567 538.268 275.098 C 547.178 264.848 566.155 249.498 577.973 242.862 C 565.232 267.156 558.192 281.885 552.595 309.088 C 543.676 352.44 555.046 383.054 528.389 421.738 C 523.441 428.919 520.198 438.274 512.683 445.541 C 510.13 441.454 511.541 436.075 510.981 429.721 L 510.876 428.61 C 509.388 440.581 511.461 447.81 503.988 457.183 z" fill="rgb(205,176,150)" transform="translate(0,0)"></path>
<path d="M 510.876 428.61 C 509.897 377.618 504.655 358.326 530.509 309.618 C 536.783 297.798 540.84 286.022 549.53 273.916 L 549.166 275.43 C 542.419 302.917 522.613 329.648 516.266 360.903 C 510.581 388.899 519.137 421.582 512.683 445.541 C 510.13 441.454 511.541 436.075 510.981 429.721 L 510.876 428.61 z" fill="rgb(73,30,15)" transform="translate(0,0)"></path>
<path d="M 407.295 637.984 C 391.328 601.114 365.213 578.875 350.527 542.624 C 333.774 501.273 341.72 460.015 360.227 420.975 C 361.474 418.344 362.267 417.788 364.853 417.097 C 367.476 419.451 366.424 417.995 367.309 422.112 C 365.499 424.21 364.829 425.257 362.622 426.947 C 369.792 462.468 376.412 466.69 396.74 495.128 C 404.101 505.549 410.223 516.792 414.981 528.63 C 419.151 539.075 421.178 550.405 423.308 561.316 C 423.976 564.74 426.062 583.221 426.821 584.624 C 427.61 594.5 419.642 615.804 416.302 626.761 C 418.846 631.509 415.419 630.679 417.613 636.433 L 417.43 637.56 C 413.53 660.543 405.342 685.364 402.281 709.43 C 398.705 737.556 397.068 766.652 395.676 794.948 C 393.583 793.492 393.034 792.727 391.284 790.837 C 391.152 783.188 392.187 771.652 392.653 763.747 C 390.884 735.062 351.98 702.73 331.781 683.959 C 293.894 648.751 278.412 604.97 289.63 553.947 C 291.095 547.283 295.471 525.955 301.063 522.313 L 302.407 523.57 C 307.386 547.731 324.745 576.669 341.6 593.399 C 367.119 618.728 386.606 639.899 396.603 675.272 C 397.723 679.233 399.387 686.041 400.933 689.841 L 401.514 691.233 C 404.492 673.166 412.532 653.832 407.295 637.984 z" fill="rgb(205,176,150)" transform="translate(0,0)"></path>
<path d="M 407.295 637.984 C 391.328 601.114 365.213 578.875 350.527 542.624 C 333.774 501.273 341.72 460.015 360.227 420.975 C 361.474 418.344 362.267 417.788 364.853 417.097 C 367.476 419.451 366.424 417.995 367.309 422.112 C 365.499 424.21 364.829 425.257 362.622 426.947 C 369.792 462.468 376.412 466.69 396.74 495.128 C 404.101 505.549 410.223 516.792 414.981 528.63 C 419.151 539.075 421.178 550.405 423.308 561.316 C 423.976 564.74 426.062 583.221 426.821 584.624 C 427.61 594.5 419.642 615.804 416.302 626.761 L 415.538 626.983 C 407.143 587.51 394.143 552.032 377.348 515.442 C 374.459 509.147 363.042 473.981 361.403 471.978 L 360.225 472.618 C 369.01 513.863 390.401 550.466 402.547 590.491 C 406.738 604.3 410.495 618.67 413.583 632.77 C 413.279 634.597 413.24 635.872 412.543 637.518 C 409.251 637.312 410.028 636.9 407.295 637.984 z" fill="rgb(205,176,150)" transform="translate(0,0)"></path>
<path d="M 407.295 637.984 C 391.328 601.114 365.213 578.875 350.527 542.624 C 333.774 501.273 341.72 460.015 360.227 420.975 C 361.474 418.344 362.267 417.788 364.853 417.097 C 367.476 419.451 366.424 417.995 367.309 422.112 C 365.499 424.21 364.829 425.257 362.622 426.947 C 344.366 473.405 337.793 497.499 357.736 547.775 C 367.375 572.076 382.453 586.1 396.37 607.49 C 401.238 614.973 410.079 634.166 412.543 637.518 C 409.251 637.312 410.028 636.9 407.295 637.984 z" fill="rgb(73,30,15)" transform="translate(0,0)"></path>
<path d="M 413.583 632.77 C 410.495 618.67 406.738 604.3 402.547 590.491 C 390.401 550.466 369.01 513.863 360.225 472.618 L 361.403 471.978 C 363.042 473.981 374.459 509.147 377.348 515.442 C 394.143 552.032 407.143 587.51 415.538 626.983 L 416.302 626.761 C 418.846 631.509 415.419 630.679 417.613 636.433 L 417.43 637.56 C 413.53 660.543 405.342 685.364 402.281 709.43 C 398.705 737.556 397.068 766.652 395.676 794.948 C 393.583 793.492 393.034 792.727 391.284 790.837 C 391.152 783.188 392.187 771.652 392.653 763.747 C 393.599 762.276 394.5 750.947 393.963 748.086 C 394.036 739.074 394.233 733.93 395.371 725.043 C 391.677 720.913 379.934 691.094 373.719 682.254 C 347.078 644.358 304.935 614.164 298.032 565.583 C 302.04 573.716 305.324 582.394 309.286 590.591 C 323.346 619.677 346.71 641.068 366.865 665.639 C 379.293 680.791 388.683 699.253 396.396 717.311 C 398.598 705.77 398.25 702.795 396.67 691.293 C 399.384 693.658 397.88 693.167 401.222 693.128 L 401.514 691.233 C 404.492 673.166 412.532 653.832 407.295 637.984 C 410.028 636.9 409.251 637.312 412.543 637.518 C 413.24 635.872 413.279 634.597 413.583 632.77 z" fill="rgb(73,30,15)" transform="translate(0,0)"></path>
<path d="M 392.653 763.747 C 390.884 735.062 351.98 702.73 331.781 683.959 C 293.894 648.751 278.412 604.97 289.63 553.947 C 291.095 547.283 295.471 525.955 301.063 522.313 L 302.407 523.57 C 307.386 547.731 324.745 576.669 341.6 593.399 C 367.119 618.728 386.606 639.899 396.603 675.272 C 397.723 679.233 399.387 686.041 400.933 689.841 L 401.514 691.233 L 401.222 693.128 C 397.88 693.167 399.384 693.658 396.67 691.293 C 388.427 660.779 377.277 634.499 353.919 612.626 C 327.78 588.149 314.13 565.437 299.63 533.11 C 288.039 569.355 286.069 604.469 303.745 639.315 C 319.873 671.11 348.807 691.537 372.78 716.704 C 381.616 725.979 386.721 738.66 393.963 748.086 C 394.5 750.947 393.599 762.276 392.653 763.747 z" fill="rgb(73,30,15)" transform="translate(0,0)"></path>
<path d="M 710.544 1782.39 C 710.891 1782.33 711.235 1782.25 711.585 1782.22 C 752.336 1777.77 815.71 1795.4 846.174 1822.86 C 853.007 1829.02 860.111 1838.29 860.258 1847.92 C 860.33 1852.65 858.48 1856.96 855.184 1860.31 C 841.163 1874.6 797.867 1873.49 777.744 1873.27 C 738.693 1872.92 668.937 1870.96 637.481 1847.41 C 632.349 1843.56 627.822 1838.35 627.007 1831.77 C 626.152 1824.86 629.554 1817.78 633.759 1812.51 C 650.149 1791.96 686.061 1785.02 710.544 1782.39 z" fill="rgb(243,231,208)" transform="translate(0,0)"></path>
<path d="M 386.378 1015.08 C 363.698 977.515 344.526 959.218 305.256 939.679 C 254.368 914.359 228.518 864.505 224.869 809.111 C 224.694 806.453 224.858 805.185 226.729 803.325 C 233.306 804.705 242.73 824.514 248.357 829.518 C 272.255 850.768 305.364 852.023 333.377 866.962 C 366.546 884.652 377.302 907.713 388.19 941.994 L 392.097 938.514 C 391.982 947.278 391.465 976.159 388.128 982.862 L 384.242 983.769 L 388.366 994.093 C 387.809 998.362 386.915 1003.81 386.954 1008 C 387.118 1011.45 387.269 1011.61 386.378 1015.08 z" fill="rgb(205,176,150)" transform="translate(0,0)"></path>
<path d="M 386.378 1015.08 C 363.698 977.515 344.526 959.218 305.256 939.679 C 254.368 914.359 228.518 864.505 224.869 809.111 C 224.694 806.453 224.858 805.185 226.729 803.325 C 233.306 804.705 242.73 824.514 248.357 829.518 C 272.255 850.768 305.364 852.023 333.377 866.962 C 366.546 884.652 377.302 907.713 388.19 941.994 L 387.174 944.893 L 385.611 945.102 C 382.451 941.343 380.288 933.275 378.506 928.293 C 372.534 911.605 365.459 897.977 352.477 885.771 C 322.412 857.502 276.166 860.11 246.082 833.169 C 241.151 828.753 233.456 817.52 229.255 811.637 C 233.138 850.781 248.353 891.957 279.938 916.598 C 308.609 938.965 340.338 949.497 365.517 976.688 C 375.897 987.896 379.41 997.758 386.954 1008 C 387.118 1011.45 387.269 1011.61 386.378 1015.08 z" fill="rgb(73,30,15)" transform="translate(0,0)"></path>
<path d="M 245.784 843.928 C 261.143 864.986 273.662 874.984 297.51 886.222 C 347.391 909.728 366.867 931.602 388.128 982.862 L 384.242 983.769 C 373.898 956.597 358.683 931.87 335.772 913.514 C 303.486 887.645 262.91 885.074 245.784 843.928 z" fill="rgb(73,30,15)" transform="translate(0,0)"></path>
<path d="M 212.932 923.83 C 218.159 929.195 225.435 938.657 230.953 943.223 C 252.096 960.715 282.472 965.594 307.509 977.307 C 335.079 989.56 359.969 1007.88 371.166 1036.87 C 374.821 1046.33 376.156 1057.42 379.771 1066.22 L 375.302 1067.25 C 378.528 1081.63 376.81 1089.78 374.132 1104.34 L 373.874 1106.68 C 371.309 1112.43 369.474 1120.92 367.894 1127.22 C 366.217 1128.24 365.787 1128.36 364.01 1128.99 C 363.865 1129.84 363.536 1131.38 363.547 1132.17 C 361.968 1124.87 359.234 1111.92 355.881 1105.35 C 331.758 1058.05 277.268 1046.67 242.404 1010.93 C 220.511 988.486 212.225 954.266 212.932 923.83 z" fill="rgb(205,176,150)" transform="translate(0,0)"></path>
<path d="M 212.932 923.83 C 218.159 929.195 225.435 938.657 230.953 943.223 C 252.096 960.715 282.472 965.594 307.509 977.307 C 335.079 989.56 359.969 1007.88 371.166 1036.87 C 374.821 1046.33 376.156 1057.42 379.771 1066.22 L 375.302 1067.25 C 353.067 960.005 267.798 992.355 216.517 934.049 C 227.231 1057.4 341.068 1023.35 367.894 1127.22 C 366.217 1128.24 365.787 1128.36 364.01 1128.99 C 363.865 1129.84 363.536 1131.38 363.547 1132.17 C 361.968 1124.87 359.234 1111.92 355.881 1105.35 C 331.758 1058.05 277.268 1046.67 242.404 1010.93 C 220.511 988.486 212.225 954.266 212.932 923.83 z" fill="rgb(73,30,15)" transform="translate(0,0)"></path>
<path d="M 373.874 1106.68 C 372.319 1105.83 369.884 1104.32 369.221 1102.61 C 362.41 1085 357.086 1066.46 343.901 1052.12 C 334.602 1042 323.96 1033.19 312.272 1025.96 C 285.171 1008.84 245.377 994.356 229.714 965.079 C 239.501 975.595 250.643 985.668 262.82 993.192 C 294.616 1012.84 329.242 1025.13 352.125 1056.61 C 363.836 1072.72 365.384 1086.56 373.683 1103.62 C 373.833 1103.86 373.982 1104.1 374.132 1104.34 L 373.874 1106.68 z" fill="rgb(73,30,15)" transform="translate(0,0)"></path>
<path d="M 430.353 584.153 C 433.123 578.302 442.198 560.016 442.686 555.126 C 443.99 542.059 437.976 513.292 432.763 501.635 C 416.16 464.512 402.692 430.45 422.577 390.952 C 427.058 382.051 452.421 337.05 459.938 333.346 C 461.339 334.351 461.677 334.231 461.789 336.988 C 462.555 355.887 459.237 372.875 460.813 392.146 C 462.03 407.013 465.584 418.159 469.694 432.306 C 477.397 458.814 473.949 481.749 468.044 507.959 L 467.376 509.688 L 470.7 511.982 C 453.941 537.371 447.071 560.545 434.812 585.956 C 432.842 583.748 430.696 583.715 427.711 583.079 L 426.821 584.624 C 426.062 583.221 423.976 564.74 423.308 561.316 C 421.178 550.405 419.151 539.075 414.981 528.63 C 410.223 516.792 404.101 505.549 396.74 495.128 C 376.412 466.69 369.792 462.468 362.622 426.947 C 364.829 425.257 365.499 424.21 367.309 422.112 C 365.654 444.401 377.544 463.347 391.018 480.002 C 416.261 511.205 428.43 543.749 430.353 584.153 z" fill="rgb(73,30,15)" transform="translate(0,0)"></path>
<path d="M 456.224 343.552 L 457.648 345.499 C 457.493 358.75 453.401 383.01 456.419 394.964 C 470.384 450.276 478.419 481.52 452.153 537.46 C 450.685 520.284 452.681 502.695 451.23 485.315 C 449.701 467.013 446.249 449.946 445.023 431.593 C 444.101 417.788 446.093 399.753 444.274 386.686 C 441.623 400.122 440.931 407.47 440.753 421.178 C 440.762 445.088 444.923 462.2 447.55 485.564 C 448.971 498.202 447.508 513.661 447.949 526.516 C 448.149 532.348 450.532 543.843 447.637 547.946 C 445.57 542.827 445.213 534.62 444.446 529.008 C 439.163 490.381 412.317 462.938 417.265 422.257 C 421.09 390.817 440.849 369.821 456.224 343.552 z" fill="rgb(205,176,150)" transform="translate(0,0)"></path>
<path d="M 613.186 124.468 C 615.537 124.549 615.396 124.467 617.464 125.557 L 618.164 127.947 C 616.656 129.689 616.922 129.807 614.315 129.843 C 478.294 131.729 344.304 198.428 280.461 322.397 C 250.617 380.346 237.602 440.1 221.367 505.106 C 209.94 552.072 197.152 598.697 183.019 644.921 C 152.667 742.543 104.944 835.77 88.7721 937.867 C 73.1635 1036.41 105.083 1134 170.472 1208.42 C 177.822 1216.79 188.47 1225.14 194.732 1234.07 L 191.482 1234.64 C 187.406 1233.17 185.751 1231.13 182.572 1228.11 C 121.04 1169.63 81.417 1081.36 79.683 996.477 C 77.7533 902.012 118.319 808.258 150.344 721.232 C 165.822 679.759 179.823 637.75 192.32 595.283 C 216.687 512.709 228.718 427.874 262.029 347.84 C 322.195 203.286 460.904 127.993 613.186 124.468 z" fill="rgb(73,30,15)" transform="translate(0,0)"></path>
<path d="M 876.524 383.801 C 910.847 385.393 881.908 495.642 879.374 517.229 C 877.842 530.276 876.113 551.648 873.018 563.577 L 865.907 551.24 C 860.656 542.926 856.064 535.128 851.838 526.21 C 836.308 493.018 834.55 455.028 846.947 420.544 C 852.672 405.007 861.064 390.999 876.524 383.801 z" fill="rgb(73,30,15)" transform="translate(0,0)"></path>
<path d="M 869.257 546.075 C 870.403 549.072 870.422 549.983 870.912 553.116 C 868.197 550.71 865.958 545.14 863.999 541.789 C 838.291 498.503 833.445 437.949 865.578 396.627 C 881.96 375.559 888.737 399.7 888.937 414.38 C 889.309 441.726 883.513 467.327 879.149 494.017 C 876.364 511.049 874.071 527.697 871.16 544.465 L 869.257 546.075 z" fill="rgb(253,251,241)" transform="translate(0,0)"></path>
<path d="M 866.447 436.041 C 859.524 469.388 861.879 511.971 871.16 544.465 L 869.257 546.075 C 867.977 544.004 866.091 537.16 865.377 534.595 C 856.906 504.115 860.134 469.79 864.05 438.76 L 866.447 436.041 z" fill="rgb(102,55,35)" transform="translate(0,0)"></path>
<path d="M 864.05 438.76 C 865.022 431.572 865.553 427.996 867.477 421.029 L 869.007 420.399 L 867.901 419.824 L 869.052 419.338 L 868.494 418.574 L 869.104 418.928 L 868.41 418.876 L 869.128 419.902 L 868.85 418.355 L 867.794 420.441 L 869.032 421.36 C 868.256 426.269 867.394 431.163 866.447 436.041 L 864.05 438.76 z" fill="rgb(168,137,121)" transform="translate(0,0)"></path>
<path d="M 621.052 1696.42 C 636.542 1694.97 661.819 1695.91 677.505 1696.84 C 782.438 1703.08 881.088 1746.58 973.829 1792.99 C 998.712 1805.58 1023.28 1818.76 1048.48 1830.74 C 1146.53 1877.36 1243.56 1908.45 1352.53 1917.05 C 1369.04 1918.44 1385.6 1919.1 1402.17 1919.01 C 1408.04 1919.01 1425.94 1917.38 1429.55 1919.86 L 1429.22 1921.7 C 1416.88 1930.4 1308.88 1918.3 1289.74 1915.59 C 1170.63 1896.56 1069.85 1849.92 963.78 1794.98 C 848.401 1735.22 715.098 1684.79 583.126 1706.56 C 571.147 1708.55 559.251 1711.01 547.467 1713.94 C 539.297 1715.99 500.348 1728.6 495.647 1726.35 L 494.875 1727.16 L 495.749 1727.4 L 495.183 1726.61 C 511.419 1711.59 595.908 1698.29 621.052 1696.42 z" fill="rgb(73,30,15)" transform="translate(0,0)"></path>
<path d="M 1971.87 1468.4 C 1973.69 1469.17 1975.36 1469.45 1975.75 1471.99 C 1977.3 1482.17 1977.17 1494.61 1977.11 1504.78 C 1976.27 1572.62 1958.71 1639.2 1925.99 1698.63 C 1862.09 1815.7 1759.12 1867.85 1636.34 1903.99 C 1633.88 1903.81 1634.85 1904.31 1633.31 1902.75 C 1635.17 1897.17 1657.7 1891.6 1664.14 1889.62 C 1734.05 1868.08 1805.35 1832.05 1857.16 1779.98 C 1918.38 1717.6 1957.43 1636.85 1968.31 1550.13 C 1970.13 1537.28 1971.09 1524.32 1971.2 1511.34 C 1971.18 1500.99 1969.76 1477.54 1971.87 1468.4 z" fill="rgb(73,30,15)" transform="translate(0,0)"></path>
<path d="M 151.997 1534.87 C 150.954 1533.19 149.42 1531.64 150.026 1530.43 C 154.33 1521.86 171.712 1505.65 178.914 1501.23 L 180.37 1500.32 C 174.457 1511.66 165.516 1520.45 156.884 1529.89 C 167.021 1533.44 175.96 1534.52 183.438 1541.66 L 183.232 1542.85 C 173.757 1543.29 161.295 1536.16 153.613 1535.29 L 151.997 1534.87 z" fill="rgb(73,30,15)" transform="translate(0,0)"></path>
<path d="M 916.583 200.659 C 905.574 203.482 898.915 210.451 890.332 211.583 C 890.42 200.785 933.81 183.15 948.078 212.585 L 947.855 213.663 C 937.962 209.571 936.381 201.983 919.153 200.558 L 916.583 200.659 z" fill="rgb(73,30,15)" transform="translate(0,0)"></path>
<path d="M 133.578 1500.58 C 140.082 1504.25 152.508 1529.22 145.381 1534.89 C 141.417 1538.04 126.869 1543.07 121.366 1545.2 C 120.393 1543.75 120.779 1544.67 120.704 1542.3 C 125.285 1537.29 138.971 1533.13 145.854 1530.69 C 142.157 1523.41 133.061 1508.1 133.578 1500.58 z" fill="rgb(73,30,15)" transform="translate(0,0)"></path>
<path d="M 822.668 1544.7 C 827.722 1547.22 836.707 1560.43 839.968 1565.49 C 842.644 1569.64 844.442 1571.81 843.402 1576.3 C 834.513 1572.24 825.677 1557.24 821.555 1548.43 C 820.755 1546.72 821.698 1546.29 822.668 1544.7 z" fill="rgb(73,30,15)" transform="translate(0,0)"></path>
<path d="M 843.994 1600.52 L 846.32 1602.19 C 846.607 1606.86 830.366 1628.29 826.731 1633.43 L 825.619 1633.82 L 824.106 1633.06 C 822.581 1626.54 839.177 1605.19 843.994 1600.52 z" fill="rgb(73,30,15)" transform="translate(0,0)"></path>
<path d="M 856.273 1579.84 L 858.459 1579.28 C 862.036 1582.98 861.247 1589.12 860.891 1594.03 C 856.911 1597.73 851.981 1596.99 847.675 1594.4 C 844.938 1589.64 846.428 1585.76 851.028 1583 L 856.273 1579.84 z" fill="rgb(102,55,35)" transform="translate(0,0)"></path>
<path d="M 856.273 1579.84 L 858.459 1579.28 C 862.036 1582.98 861.247 1589.12 860.891 1594.03 C 859.159 1593.88 859.359 1593.79 857.685 1593.15 C 855.769 1588.57 856.251 1584.86 856.273 1579.84 z" fill="rgb(73,30,15)" transform="translate(0,0)"></path>
<path d="M 1737.16 1043.6 C 1743.17 1045.82 1752.76 1059.96 1757.14 1065.39 C 1758.18 1066.69 1757.51 1067.2 1756.88 1069.34 C 1754.53 1069.29 1754.43 1069.19 1752.1 1068.75 C 1745.89 1064.25 1735.14 1051.5 1737.16 1043.6 z" fill="rgb(73,30,15)" transform="translate(0,0)"></path>
<path d="M 864.293 1536.67 C 865.539 1537.46 866.875 1538.54 866.831 1540.06 C 866.59 1548.53 864.018 1568.54 859.348 1574.99 L 857.731 1573.85 C 856.698 1567.28 860.206 1541.54 864.293 1536.67 z" fill="rgb(73,30,15)" transform="translate(0,0)"></path>
<path d="M 1781.62 1043.51 C 1784.37 1044.32 1783.27 1043.55 1784.93 1046.02 C 1784.58 1053.15 1774.92 1065.45 1770.29 1071.04 L 1766.97 1067.43 C 1766.89 1061.27 1777.5 1048.93 1781.62 1043.51 z" fill="rgb(73,30,15)" transform="translate(0,0)"></path>
<path d="M 1774.44 1100.52 C 1780.48 1100.83 1791.02 1109.55 1795.21 1114.08 C 1799.46 1118.65 1799.09 1118.44 1798.94 1123.66 C 1793.84 1121.65 1781.08 1111.96 1776.95 1107.43 C 1773.86 1104.04 1774.38 1104.34 1774.44 1100.52 z" fill="rgb(73,30,15)" transform="translate(0,0)"></path>
<path d="M 901.749 1563.89 C 903.209 1564.3 903.07 1564.48 904.379 1565.53 L 904.542 1567.43 C 901.572 1572.26 883.474 1579.94 877.55 1582.55 L 876.281 1582.46 L 875.313 1581.14 C 877.861 1574.4 895.299 1566.91 901.749 1563.89 z" fill="rgb(73,30,15)" transform="translate(0,0)"></path>
<path d="M 876.023 1602 C 883.238 1601.52 905.15 1607 908.692 1614.39 C 903.43 1615.59 891.356 1612.24 886.279 1610.12 C 880.23 1607.59 878.366 1607.52 876.023 1602 z" fill="rgb(73,30,15)" transform="translate(0,0)"></path>
<path d="M 1758.62 1109.2 L 1761.46 1110.47 C 1765.61 1117.36 1767.96 1132.82 1767.3 1140.74 C 1764.8 1140.43 1764.95 1140.53 1762.98 1138.98 C 1758.86 1131.79 1757.39 1117.16 1758.62 1109.2 z" fill="rgb(73,30,15)" transform="translate(0,0)"></path>
<path d="M 858.672 1607.42 C 865.09 1609.53 873.757 1633.55 874.322 1640.01 C 864.653 1639.69 859.582 1615.63 858.672 1607.42 z" fill="rgb(73,30,15)" transform="translate(0,0)"></path>
<path d="M 805.634 1589.26 C 812.661 1588.98 827.678 1587.63 833.181 1590.67 L 833.623 1592.5 L 831.23 1594.81 C 825.497 1594.99 807.194 1596.36 803.342 1593.35 L 803.304 1591.44 L 805.634 1589.26 z" fill="rgb(73,30,15)" transform="translate(0,0)"></path>
<path d="M 153.613 1535.29 C 153.936 1541.34 153.383 1564.65 150.737 1569.29 L 149.414 1568.08 C 146.727 1559.53 147.537 1544.2 149.664 1535.77 L 151.997 1534.87 L 153.613 1535.29 z" fill="rgb(73,30,15)" transform="translate(0,0)"></path>
<path d="M 916.583 200.659 L 919.153 200.558 L 919.465 201.946 C 920.935 208.766 923.856 233.83 915.263 235.649 C 912.354 232.03 917.425 212.731 916.691 202.034 L 916.583 200.659 z" fill="url(#Gradient1)" transform="translate(0,0)"></path>
<path d="M 1178.4 528.775 L 1179.39 529.472 C 1180.73 532.373 1180.58 530.903 1179.82 534.036 C 1177.41 536.312 1153.05 540.69 1148 541.898 L 1146.38 540.583 C 1146.49 532.431 1169.94 537.131 1178.4 528.775 z" fill="rgb(73,30,15)" transform="translate(0,0)"></path>
<path d="M 1741.52 1100.63 C 1744.27 1101.41 1743.12 1100.72 1745.1 1102.75 C 1743.71 1108.95 1733.8 1116.75 1728.74 1121.31 L 1727.13 1121.94 L 1725.47 1121.15 L 1725.36 1118.85 C 1729.43 1112.16 1735.84 1106.01 1741.52 1100.63 z" fill="rgb(73,30,15)" transform="translate(0,0)"></path>
<path d="M 1781.5 1079.33 C 1788.13 1078.61 1810.47 1076.42 1813.22 1082.62 C 1807.7 1084.41 1791.54 1085.19 1785.3 1083.55 C 1782.73 1082.87 1782.9 1081.85 1781.5 1079.33 z" fill="rgb(73,30,15)" transform="translate(0,0)"></path>
<path d="M 1717.06 1079.48 C 1722.17 1079.4 1738.77 1078.65 1741.57 1083.09 C 1739.22 1085 1740.52 1084.23 1737.19 1084.72 C 1731.63 1084.77 1715.15 1085.08 1711.71 1081.73 L 1712.68 1080.3 L 1717.06 1079.48 z" fill="rgb(73,30,15)" transform="translate(0,0)"></path>
<path d="M 1162.34 502.716 C 1169.24 505.096 1176.76 520.303 1176.47 527.322 C 1169.89 524.929 1163.14 509.281 1162.34 502.716 z" fill="rgb(73,30,15)" transform="translate(0,0)"></path>
<path d="M 1175.91 538.473 C 1182.25 542.854 1181.54 559.217 1178.66 565.181 L 1176.84 564.553 C 1173.83 559.601 1174.6 544.172 1175.91 538.473 z" fill="rgb(73,30,15)" transform="translate(0,0)"></path>
<path d="M 900.273 169.842 C 907.966 171.235 917.104 185.663 916.138 193.23 C 911.621 191.716 901.131 174.518 900.273 169.842 z" fill="rgb(73,30,15)" transform="translate(0,0)"></path>
<path d="M 1182.8 531.357 C 1189.45 535.502 1197.43 538.082 1203.52 542.608 C 1205.14 543.815 1204.59 543.936 1204.57 546.436 C 1198.49 544.108 1184.16 540.056 1181.5 535.305 L 1182.8 531.357 z" fill="rgb(73,30,15)" transform="translate(0,0)"></path>
<path d="M 938.522 170.82 L 939.489 171.917 C 938.896 176.976 928.705 187.348 924.781 191.793 C 919.292 185.17 933.295 173.82 938.522 170.82 z" fill="rgb(73,30,15)" transform="translate(0,0)"></path>
<path d="M 1760.79 1080.54 C 1763.57 1079.26 1766.87 1080.47 1768.15 1083.25 C 1769.44 1086.03 1768.24 1089.32 1765.46 1090.62 C 1762.68 1091.91 1759.37 1090.71 1758.07 1087.92 C 1756.78 1085.13 1758 1081.82 1760.79 1080.54 z" fill="rgb(73,30,15)" transform="translate(0,0)"></path>
<path d="M 1198.86 510.704 L 1200.1 511.868 C 1199.2 516.831 1189.61 524.923 1185.68 528.724 C 1184.83 528.777 1185.41 528.807 1184.04 528.097 C 1185.13 521.041 1193.34 514.705 1198.86 510.704 z" fill="rgb(73,30,15)" transform="translate(0,0)"></path>
<metadata><recraft-signature>{"signed_by": "recraft", "signature_b64": "UQF4Gh8MfzluI7Pa8rApte0aFnRwhmaumP8o1fT8zBfJISOck+Pe0MrIPEKsjT/Rh3pQlc5JWw4WTweZ1e3aAQ==", "signing_algo": "Ed25519", "generation_timestamp": 1778092768, "identifier": "8e1ca6ec-638e-450b-875a-0fad1002ed7a"}</recraft-signature></metadata></svg>