<svg xmlns="http://www.w3.org/2000/svg" height="1024" preserveAspectRatio="none" style="display: block;" version="1.1" viewBox="0 0 2048 2048" width="1024">
<defs>
	<linearGradient gradientUnits="userSpaceOnUse" id="Gradient1" x1="450.824" x2="230.47" y1="1362.78" y2="1357.89">
		<stop class="stop0" offset="0" stop-color="rgb(43,11,2)" stop-opacity="1"></stop>
		<stop class="stop1" offset="1" stop-color="rgb(81,32,7)" stop-opacity="1"></stop>
	</linearGradient>
	<linearGradient gradientUnits="userSpaceOnUse" id="Gradient2" x1="1066.48" x2="1044.02" y1="1441.19" y2="1888.13">
		<stop class="stop0" offset="0" stop-color="rgb(57,9,0)" stop-opacity="1"></stop>
		<stop class="stop1" offset="1" stop-color="rgb(74,37,12)" stop-opacity="1"></stop>
	</linearGradient>
</defs>
<path d="M 0 0 L 2048 0 L 2048 2048 L 0 2048 L 0 0 z" fill="rgb(253,253,248)" transform="translate(0,0)"></path>
<path d="M 812.473 206.426 C 906.989 200.49 1022.48 243.098 1103.99 287.278 C 1171.59 323.925 1238.22 376.407 1308.8 407.142 C 1325.73 414.562 1343.1 420.928 1360.82 426.203 C 1373.92 430.117 1450.53 448.162 1454.29 452.672 C 1455.77 454.448 1456.34 457.056 1455.96 459.334 C 1455.62 461.316 1454.87 462.648 1453.41 464.005 C 1448.01 469.022 1339.29 491.919 1319.69 497.91 C 1284.96 508.524 1250.56 521.945 1222.1 545.068 C 1190.7 570.579 1166.49 606.726 1142.69 639.128 C 1124.83 663.434 1106.22 688.109 1087.11 711.475 C 1033.49 778.115 973.354 839.231 907.585 893.913 C 879.821 916.756 846.539 940.8 817.414 962.412 C 850.517 988.764 860.844 998.694 889.073 1030.54 C 911.557 1013.42 979.971 974.851 1006.65 992.901 C 1087.87 1047.85 1165.71 1109.31 1244.55 1167.93 L 1501.51 1359.81 C 1526.53 1378.56 1551.42 1397.46 1576.2 1416.51 C 1622.82 1452 1670.9 1479.39 1659.83 1546.66 C 1656.05 1569.61 1648.77 1584.18 1637.93 1604.27 C 1645.94 1613.84 1660.06 1629.89 1664.66 1640.79 C 1725.32 1664.96 1770.63 1702.2 1815.1 1749.78 C 1834.83 1772.72 1879.1 1821.52 1875.8 1853.09 C 1870.7 1902.01 1798 1868.74 1776.5 1857.47 C 1718.27 1826.94 1662.11 1783.68 1621.38 1732.5 C 1616.47 1725.88 1611.78 1718.43 1607.24 1711.5 C 1587.11 1706.71 1580.91 1707.48 1558.8 1699.87 C 1475.93 1761.27 1434.08 1721.13 1365.15 1668.6 L 1281.17 1603.72 L 1043.06 1416.98 C 969.397 1358.96 894.388 1302.8 822.82 1242.05 C 801.998 1224.37 798.236 1206.95 802.215 1180.88 C 805.854 1157.03 812.484 1137.53 820.068 1114.96 C 803.511 1107.3 790.766 1095.23 774.894 1086.35 C 765.483 1095.43 749.362 1104.71 738.071 1113.65 C 698.927 1144.67 656.99 1174.21 624.593 1212.61 C 613.735 1225.47 605.13 1240.48 592.136 1251.57 C 586.854 1256.08 579.755 1259.46 573.749 1254.22 C 565 1246.6 557.874 1237.24 549.542 1229.14 C 530.333 1210.46 509.469 1193.56 487.207 1178.65 C 428.073 1139.06 361.971 1106.87 295.899 1080.57 C 247.15 1061.16 197.901 1044.09 153.572 1015.33 C 130.268 1000.21 108.568 983.664 86.5686 966.741 C 79.6029 961.394 71.7888 958.662 64.9268 953.372 C 63.6194 950.467 63.051 947.856 64.4149 944.792 C 90.3182 886.598 153.437 831.798 207.264 802.96 C 180.856 780.73 133.877 755.158 100.417 749.549 C 91.194 748.002 77.1054 750.496 70.7809 746.916 C 69.8639 745.226 68.9281 743.429 68.9219 741.448 C 68.8704 724.871 81.0996 698.368 88.6854 684.482 C 101.113 661.733 116.692 642.299 133.803 623.364 C 222.065 525.698 347.067 484.226 461.016 425.983 C 480.173 416.191 498.505 403.155 516.89 391.587 C 536.829 379.04 559.536 366.796 578.54 352.805 C 604.207 333.91 634.559 313.128 651.565 285.751 C 657.363 276.416 663.659 256.79 671.118 249.857 C 701.489 221.632 773.447 208.461 812.473 206.426 z" fill="rgb(93,57,38)" transform="translate(0,0)"></path>
<path d="M 981.631 1004.25 C 989.119 1003.09 992.868 1003.25 999.394 1007.23 C 1019.48 1019.47 1039.52 1034.54 1058.47 1048.54 L 1169.64 1132.15 L 1459.54 1348.55 C 1504.72 1382.45 1550.72 1419.22 1596.44 1452.01 C 1588.58 1450.78 1580.6 1450.52 1572.68 1451.25 C 1530.38 1455.27 1484.21 1490.76 1457.6 1522.53 C 1427.71 1558.22 1403.41 1616.92 1408.21 1664.18 C 1409.29 1671.95 1410.28 1676.44 1412.22 1684.07 C 1406.36 1679.12 1399.37 1674.01 1393.15 1669.43 C 1344.11 1633.29 1296.56 1595.32 1248.29 1558.16 L 979.898 1347.55 C 942.13 1317.75 903.116 1288.84 866.252 1257.68 C 854.133 1245.5 817.891 1222.33 816.745 1205.12 C 814.458 1170.77 835.483 1113.46 853.833 1087.33 C 880.654 1049.13 937.312 1012.25 981.631 1004.25 z" fill="rgb(237,208,176)" transform="translate(0,0)"></path>
<path d="M 1068.18 1078.7 C 1076.29 1082.09 1121.79 1116.17 1131.25 1123.15 L 1312.4 1259.3 C 1368.84 1301.63 1428.44 1341.43 1481.92 1387.6 C 1484.49 1389.82 1483.78 1393.26 1483.37 1396.03 C 1478.48 1394.01 1458.78 1378.27 1453.69 1374.35 C 1438.42 1362.63 1423.08 1351 1407.66 1339.48 L 1172.99 1165.54 C 1138.28 1139.7 1103.15 1114.15 1069.82 1086.45 C 1067.54 1084.56 1068.14 1081.31 1068.18 1078.7 z" fill="rgb(93,57,38)" transform="translate(0,0)"></path>
<path d="M 1004.25 1323.48 C 1013.2 1326.78 1050.17 1357.3 1059.93 1364.94 L 1150.12 1435.28 C 1167.74 1449.06 1215.66 1483.14 1228.5 1497.48 C 1228.96 1501.18 1228.68 1500.21 1226.6 1504.21 C 1214.65 1500.55 1017.24 1346.3 1002.07 1330.39 C 1001.21 1326.96 1001.76 1327.72 1004.25 1323.48 z" fill="rgb(93,57,38)" transform="translate(0,0)"></path>
<path d="M 983.868 1020.23 C 984.835 1020.35 986.424 1021.2 987.424 1021.64 L 987.823 1023.67 C 984.833 1028.75 960.708 1036.66 954.089 1039.32 C 886.543 1066.47 853.216 1143.19 856.264 1212.6 C 856.507 1218.12 856.747 1220.4 853.074 1224.46 C 851.316 1223.18 850.099 1222.5 849.74 1220.07 C 843.463 1177.62 854.889 1126.91 877.83 1091.79 C 902.277 1054.81 940.425 1029.07 983.868 1020.23 z" fill="rgb(93,57,38)" transform="translate(0,0)"></path>
<path d="M 1531.31 1435.09 L 1536.61 1435.1 C 1539.68 1436.84 1538.78 1435.62 1539.84 1438.5 C 1536.53 1442.62 1526.82 1444.15 1521.58 1446.22 C 1478.54 1463.25 1441.56 1496.02 1417.22 1535.17 C 1399.97 1562.9 1394.12 1592.06 1388.35 1623.5 C 1385.78 1625.36 1385.21 1625.23 1382.57 1624.64 C 1382.19 1624.15 1381.27 1623.1 1381.29 1622.5 C 1384.69 1538.43 1452.73 1456.7 1531.31 1435.09 z" fill="rgb(93,57,38)" transform="translate(0,0)"></path>
<path d="M 1058.92 1337.1 C 1064.95 1339.02 1077.31 1350.5 1082.81 1354.88 L 1129.52 1391.92 C 1150.98 1408.97 1182.68 1431.77 1202.05 1449.63 C 1203.25 1452.94 1202.95 1451.76 1201.14 1456.03 C 1193.47 1455.63 1173.67 1438.37 1166.78 1432.94 L 1114.97 1391.29 C 1098.92 1378.35 1071.56 1358.64 1057.74 1344.93 C 1056.73 1342.15 1057.93 1340.04 1058.92 1337.1 z" fill="rgb(93,57,38)" transform="translate(0,0)"></path>
<path d="M 595.041 456.815 C 611.134 456.218 628.864 456.748 645.115 456.703 C 713.901 456.512 775.635 460.659 840.834 483.061 L 841.963 482.236 C 843.069 486.897 841.546 485.731 840.048 489.327 C 832.834 506.646 823.844 523.343 815.4 539.922 C 801.557 567.099 783.454 589.284 765.553 613.454 C 767.315 613.811 769.331 614.318 770.71 612.63 C 786.775 592.96 801.991 569.852 814.306 547.941 C 820.421 537.216 826.115 526.257 831.374 515.087 C 834.301 508.745 843.096 486.189 848.025 483.07 C 851.455 484.059 852.437 485.348 856.757 486.302 C 856.942 486.869 857.126 487.437 857.311 488.004 C 906.342 506.569 952.544 533.135 998.468 558.411 C 977.085 575.165 924.343 616.627 909.203 636.628 C 919.17 631.978 929.855 622.046 938.175 614.723 C 959.393 596.045 983.083 580.219 1004.82 562.337 C 1029.73 574.517 1054.24 587.358 1079.07 599.638 C 1096.56 608.286 1116.85 618.912 1135.42 624.125 C 1104.05 662.648 1075.67 703.367 1042.09 740.206 C 1037.04 745.751 1031.15 752.244 1026.59 758.09 L 1024.43 759.406 C 1021.7 762.553 1019.66 765.424 1016.11 767.519 L 1014.27 767.65 L 1013.35 768.127 C 1013.39 774.625 989.799 794.009 984.941 801.862 L 984.181 803.429 L 983.272 803.18 C 979.661 806.035 978.24 807.425 975.091 810.801 L 976.095 811.834 L 973.814 812.464 C 952.153 836.022 919.892 864.168 894.487 884.179 C 892.981 882.746 889.384 879.161 887.92 878.056 C 888.45 881.941 889.435 882.519 891.996 885.2 L 891.443 886.325 L 888.832 886.632 C 884.353 894.098 826.465 935.759 816.996 942.028 C 758.727 872.712 642.797 826.522 557.149 803.995 C 531.183 797.165 502.483 794.46 475.581 787.565 C 489.187 777.986 517.133 755.064 527.209 742.018 C 527.579 738.393 538.831 725.731 542.441 721.152 C 549.549 712.136 558.114 694.769 564.046 687.014 L 565.427 687.111 C 569.366 682.395 592.361 638.634 594.15 632.924 C 593.733 630.334 594.325 629.673 595.461 627.345 L 598.211 621.616 L 599.503 621.469 C 604.915 612.393 609.97 615.382 619.55 616.977 C 618.531 614.388 619.262 615.469 617.062 613.887 L 617.121 612.675 C 615.29 611.981 607.41 611.137 604.994 610.822 L 604.787 611.345 L 604.107 611.107 C 604.277 608.561 610.203 593.239 611.563 590.331 C 620.243 571.77 630.092 541.469 634.091 521.972 L 635.34 522.091 C 638.926 513.91 643.162 488.208 642.166 478.521 L 641.279 478.347 C 633.951 494.479 633.835 517.398 625.87 535.494 C 607.988 533.288 581.056 524.413 564.1 518.275 C 572.735 498.76 585.347 478.557 595.041 456.815 z" fill="rgb(253,253,248)" transform="translate(0,0)"></path>
<path d="M 617.121 612.675 C 650.723 615.086 683.803 617.289 717.507 616.915 C 722.413 616.861 729.652 616.679 734.436 617.13 C 744.883 619.434 762.508 615.88 768.918 617.664 C 767.487 618.111 740.085 645.819 738.103 648.943 L 739.719 649.439 C 735.333 654.277 733.235 656.467 728.193 660.753 L 728.348 663.401 C 724.696 664.268 725.302 663.35 723.804 665.413 C 724.12 665.872 724.979 667.223 725.346 667.524 C 789.97 692.185 863.263 739.358 922.345 776.357 C 937.547 785.876 960.597 800.566 975.091 810.801 L 976.095 811.834 L 973.814 812.464 C 952.153 836.022 919.892 864.168 894.487 884.179 C 892.981 882.746 889.384 879.161 887.92 878.056 C 888.45 881.941 889.435 882.519 891.996 885.2 L 891.443 886.325 L 888.832 886.632 C 884.353 894.098 826.465 935.759 816.996 942.028 C 758.727 872.712 642.797 826.522 557.149 803.995 C 531.183 797.165 502.483 794.46 475.581 787.565 C 489.187 777.986 517.133 755.064 527.209 742.018 C 527.579 738.393 538.831 725.731 542.441 721.152 C 549.549 712.136 558.114 694.769 564.046 687.014 L 565.427 687.111 C 569.366 682.395 592.361 638.634 594.15 632.924 C 593.733 630.334 594.325 629.673 595.461 627.345 L 598.211 621.616 L 599.503 621.469 C 604.915 612.393 609.97 615.382 619.55 616.977 C 618.531 614.388 619.262 615.469 617.062 613.887 L 617.121 612.675 z" fill="rgb(193,194,161)" transform="translate(0,0)"></path>
<path d="M 725.346 667.524 C 789.97 692.185 863.263 739.358 922.345 776.357 C 937.547 785.876 960.597 800.566 975.091 810.801 L 976.095 811.834 L 973.814 812.464 C 952.153 836.022 919.892 864.168 894.487 884.179 C 892.981 882.746 889.384 879.161 887.92 878.056 C 881.707 870.241 859.277 851.555 850.783 844.616 C 783.46 789.626 714.272 755.228 629.482 737.515 C 651.68 724.568 672.935 710.069 693.09 694.126 C 699.419 689.1 718.738 669.984 723.448 668.676 L 725.346 667.524 z" fill="rgb(253,253,248)" transform="translate(0,0)"></path>
<path d="M 725.346 667.524 C 789.97 692.185 863.263 739.358 922.345 776.357 C 937.547 785.876 960.597 800.566 975.091 810.801 L 976.095 811.834 L 973.814 812.464 C 885.162 755.847 820.052 712.721 723.448 668.676 L 725.346 667.524 z" fill="rgb(53,16,4)" transform="translate(0,0)"></path>
<path d="M 594.15 632.924 C 598.138 627.212 604.014 626.776 610.374 629.285 C 629.17 636.701 734.305 630.833 743.426 634.708 C 742.209 637.335 742.052 637.364 740.144 639.6 C 734.221 644.764 727.576 652.318 722.114 658.192 C 718.576 657.431 714.592 656.314 711.072 656.57 L 710.192 657.981 C 712.92 662.528 716.217 659.211 717.565 662.763 C 699.267 682.716 642.52 725.147 618.148 735.193 C 594.179 730.559 568.418 726.016 544.68 720.714 C 549.584 713.455 562.088 694.919 565.427 687.111 C 569.366 682.395 592.361 638.634 594.15 632.924 z" fill="rgb(253,253,248)" transform="translate(0,0)"></path>
<path d="M 617.121 612.675 C 650.723 615.086 683.803 617.289 717.507 616.915 C 722.413 616.861 729.652 616.679 734.436 617.13 C 744.883 619.434 762.508 615.88 768.918 617.664 C 767.487 618.111 740.085 645.819 738.103 648.943 L 739.719 649.439 C 735.333 654.277 733.235 656.467 728.193 660.753 L 728.348 663.401 C 724.696 664.268 725.302 663.35 723.804 665.413 C 724.12 665.872 724.979 667.223 725.346 667.524 L 723.448 668.676 C 718.738 669.984 699.419 689.1 693.09 694.126 C 672.935 710.069 651.68 724.568 629.482 737.515 C 714.272 755.228 783.46 789.626 850.783 844.616 C 859.277 851.555 881.707 870.241 887.92 878.056 C 888.45 881.941 889.435 882.519 891.996 885.2 L 891.443 886.325 L 888.832 886.632 C 876.659 873.252 853.9 854.093 839.513 842.788 C 769.314 787.629 706.98 758.619 620.399 741.455 C 606.067 747.865 559.934 769.845 546.275 762.84 L 546.472 761.095 C 547.096 760.501 547.893 759.636 548.752 759.415 C 566.901 754.752 592.482 749.413 608.698 739.764 C 591.463 734.928 559.747 729.995 540.691 726.379 C 536.136 731.974 532.226 736.845 527.209 742.018 C 527.579 738.393 538.831 725.731 542.441 721.152 C 549.549 712.136 558.114 694.769 564.046 687.014 L 565.427 687.111 C 562.088 694.919 549.584 713.455 544.68 720.714 C 568.418 726.016 594.179 730.559 618.148 735.193 C 642.52 725.147 699.267 682.716 717.565 662.763 C 716.217 659.211 712.92 662.528 710.192 657.981 L 711.072 656.57 C 714.592 656.314 718.576 657.431 722.114 658.192 C 727.576 652.318 734.221 644.764 740.144 639.6 C 742.052 637.364 742.209 637.335 743.426 634.708 C 734.305 630.833 629.17 636.701 610.374 629.285 C 604.014 626.776 598.138 627.212 594.15 632.924 C 593.733 630.334 594.325 629.673 595.461 627.345 L 598.211 621.616 L 599.503 621.469 C 604.915 612.393 609.97 615.382 619.55 616.977 C 618.531 614.388 619.262 615.469 617.062 613.887 L 617.121 612.675 z" fill="rgb(77,35,12)" transform="translate(0,0)"></path>
<path d="M 599.503 621.469 C 604.915 612.393 609.97 615.382 619.55 616.977 C 643.217 618.08 665.959 620.235 689.948 620.968 C 710.089 621.583 738.142 619.059 756.981 620.353 L 757.766 619.748 C 757.867 622.943 757.095 624.406 754.386 626.52 C 750.591 629.481 744.141 638.44 740.144 639.6 C 742.052 637.364 742.209 637.335 743.426 634.708 C 734.305 630.833 629.17 636.701 610.374 629.285 C 604.014 626.776 598.138 627.212 594.15 632.924 C 593.733 630.334 594.325 629.673 595.461 627.345 L 598.211 621.616 L 599.503 621.469 z" fill="rgb(193,194,161)" transform="translate(0,0)"></path>
<path d="M 756.981 620.353 L 757.766 619.748 C 757.867 622.943 757.095 624.406 754.386 626.52 C 750.591 629.481 744.141 638.44 740.144 639.6 C 742.052 637.364 742.209 637.335 743.426 634.708 C 734.305 630.833 629.17 636.701 610.374 629.285 C 604.014 626.776 598.138 627.212 594.15 632.924 C 593.733 630.334 594.325 629.673 595.461 627.345 L 598.211 621.616 L 599.503 621.469 L 599.286 623.921 C 612.597 630.894 728.012 631.418 748.49 630.06 L 756.981 620.353 z" fill="rgb(67,23,5)" transform="translate(0,0)"></path>
<path d="M 595.041 456.815 C 611.134 456.218 628.864 456.748 645.115 456.703 C 713.901 456.512 775.635 460.659 840.834 483.061 C 823.608 520.414 807.352 556.416 781.369 588.831 C 733.046 568.864 682.774 550.597 631.911 538.116 C 632.925 533.514 634.663 526.556 635.34 522.091 C 638.926 513.91 643.162 488.208 642.166 478.521 L 641.279 478.347 C 633.951 494.479 633.835 517.398 625.87 535.494 C 607.988 533.288 581.056 524.413 564.1 518.275 C 572.735 498.76 585.347 478.557 595.041 456.815 z" fill="rgb(253,253,248)" transform="translate(0,0)"></path>
<path d="M 756.622 632.573 C 767.38 632.852 780.491 632.999 790.973 635.377 C 853.933 649.665 914.259 688.758 964.137 728.718 C 973.055 735.863 1006.96 764.998 1013.35 768.127 C 1013.39 774.625 989.799 794.009 984.941 801.862 L 984.181 803.429 L 983.272 803.18 C 979.661 806.035 978.24 807.425 975.091 810.801 C 960.597 800.566 937.547 785.876 922.345 776.357 C 863.263 739.358 789.97 692.185 725.346 667.524 C 724.979 667.223 724.12 665.872 723.804 665.413 C 725.302 663.35 724.696 664.268 728.348 663.401 L 728.193 660.753 C 733.235 656.467 735.333 654.277 739.719 649.439 C 745.26 644.922 751.561 637.899 756.622 632.573 z" fill="rgb(253,253,248)" transform="translate(0,0)"></path>
<path d="M 725.346 667.524 C 724.979 667.223 724.12 665.872 723.804 665.413 C 725.302 663.35 724.696 664.268 728.348 663.401 C 744.308 669.803 761.681 676.244 777.063 683.886 C 820.599 705.514 864.233 731.289 905.805 756.523 L 955.119 786.413 C 963.241 791.345 975.031 799.111 983.272 803.18 C 979.661 806.035 978.24 807.425 975.091 810.801 C 960.597 800.566 937.547 785.876 922.345 776.357 C 863.263 739.358 789.97 692.185 725.346 667.524 z" fill="rgb(193,194,161)" transform="translate(0,0)"></path>
<path d="M 728.193 660.753 C 769.731 668.428 887.228 743.048 929.458 767.311 C 937.59 771.982 979.123 797.068 984.941 801.862 L 984.181 803.429 L 983.272 803.18 C 975.031 799.111 963.241 791.345 955.119 786.413 L 905.805 756.523 C 864.233 731.289 820.599 705.514 777.063 683.886 C 761.681 676.244 744.308 669.803 728.348 663.401 L 728.193 660.753 z" fill="rgb(53,16,4)" transform="translate(0,0)"></path>
<path d="M 630.977 541.879 C 661.345 549.988 691.453 559.041 721.257 569.025 C 740.829 575.796 761.135 584.098 780.555 590.445 C 773.808 599.355 767.254 608.317 759.811 616.654 L 734.436 617.13 C 729.652 616.679 722.413 616.861 717.507 616.915 C 683.803 617.289 650.723 615.086 617.121 612.675 C 615.29 611.981 607.41 611.137 604.994 610.822 C 615.188 588.448 623.869 565.416 630.977 541.879 z" fill="rgb(253,253,248)" transform="translate(0,0)"></path>
<path d="M 840.834 483.061 L 841.963 482.236 C 843.069 486.897 841.546 485.731 840.048 489.327 C 832.834 506.646 823.844 523.343 815.4 539.922 C 801.557 567.099 783.454 589.284 765.553 613.454 C 767.315 613.811 769.331 614.318 770.71 612.63 C 786.775 592.96 801.991 569.852 814.306 547.941 C 820.421 537.216 826.115 526.257 831.374 515.087 C 834.301 508.745 843.096 486.189 848.025 483.07 C 851.455 484.059 852.437 485.348 856.757 486.302 C 856.942 486.869 857.126 487.437 857.311 488.004 C 854.169 487.055 850.605 486.065 847.57 484.943 C 821.042 540.833 808.616 566.529 770.808 616.119 C 834.082 616.127 926.662 678.286 975.207 716.351 C 988.354 726.659 1013.95 745.548 1025.53 757.027 L 1026.59 758.09 L 1024.43 759.406 C 1021.7 762.553 1019.66 765.424 1016.11 767.519 L 1014.27 767.65 L 1013.35 768.127 C 1006.96 764.998 973.055 735.863 964.137 728.718 C 914.259 688.758 853.933 649.665 790.973 635.377 C 780.491 632.999 767.38 632.852 756.622 632.573 C 751.561 637.899 745.26 644.922 739.719 649.439 L 738.103 648.943 C 740.085 645.819 767.487 618.111 768.918 617.664 C 762.508 615.88 744.883 619.434 734.436 617.13 L 759.811 616.654 C 767.254 608.317 773.808 599.355 780.555 590.445 C 761.135 584.098 740.829 575.796 721.257 569.025 C 691.453 559.041 661.345 549.988 630.977 541.879 C 623.869 565.416 615.188 588.448 604.994 610.822 L 604.787 611.345 L 604.107 611.107 C 604.277 608.561 610.203 593.239 611.563 590.331 C 620.243 571.77 630.092 541.469 634.091 521.972 L 635.34 522.091 C 634.663 526.556 632.925 533.514 631.911 538.116 C 682.774 550.597 733.046 568.864 781.369 588.831 C 807.352 556.416 823.608 520.414 840.834 483.061 z" fill="rgb(67,23,5)" transform="translate(0,0)"></path>
<path d="M 768.459 619.912 C 796.918 619.575 809.485 625.343 835.74 635.964 C 889.539 657.728 934.722 690.293 980.573 725.21 C 995.348 736.462 1009.34 748.447 1024.43 759.406 C 1021.7 762.553 1019.66 765.424 1016.11 767.519 L 1014.27 767.65 C 1010.23 761.047 986.131 743.143 978.748 737.119 C 918.28 687.785 839.741 632.306 759.473 629.007 L 768.459 619.912 z" fill="rgb(193,194,161)" transform="translate(0,0)"></path>
<path d="M 225.221 812.68 C 263.73 834.191 300.234 853.023 342.824 865.307 C 364.493 871.557 387.294 874.815 408.545 882.23 C 409.041 882.403 409.544 882.557 410.039 882.734 C 418.424 885.736 493.255 949.598 508.055 960.312 C 529.191 975.759 550.972 990.304 573.34 1003.91 C 598.557 1018.96 627.769 1034.54 652.015 1050.35 C 676.711 1066.69 700.262 1084.69 722.504 1104.23 C 706.555 1116.49 688.847 1131.81 673.301 1144.81 C 659.144 1156.66 632.786 1177.85 621.482 1191.72 L 618.907 1193.45 L 616.868 1196.38 L 615.914 1198.86 C 608.54 1205.56 592.996 1228.49 582.457 1238.89 C 568.038 1225.83 554.333 1209.22 539.396 1196.85 C 473.73 1142.47 397.682 1104.71 319.448 1072.19 C 277.809 1054.88 231.828 1039.34 192.059 1018.93 C 154.396 999.605 118.612 969.526 83.3288 945.267 C 88.4866 934.32 103.345 908.051 112.697 901.543 L 113.91 900.57 C 114.824 896.668 116.466 895.583 119.403 893.31 L 120.152 891.72 C 145.85 862.705 189.456 827.311 225.221 812.68 z" fill="rgb(253,253,248)" transform="translate(0,0)"></path>
<path d="M 113.91 900.57 C 114.824 896.668 116.466 895.583 119.403 893.31 C 207.638 971.485 275.899 997.967 383.584 1041.71 C 453.712 1070.19 560.211 1127.87 610.274 1182.74 C 612.844 1185.94 616.258 1190.49 618.907 1193.45 L 616.868 1196.38 L 615.914 1198.86 C 608.54 1205.56 592.996 1228.49 582.457 1238.89 C 568.038 1225.83 554.333 1209.22 539.396 1196.85 C 473.73 1142.47 397.682 1104.71 319.448 1072.19 C 277.809 1054.88 231.828 1039.34 192.059 1018.93 C 154.396 999.605 118.612 969.526 83.3288 945.267 C 88.4866 934.32 103.345 908.051 112.697 901.543 L 113.91 900.57 z" fill="rgb(253,253,248)" transform="translate(0,0)"></path>
<path d="M 113.91 900.57 C 114.824 896.668 116.466 895.583 119.403 893.31 C 207.638 971.485 275.899 997.967 383.584 1041.71 C 453.712 1070.19 560.211 1127.87 610.274 1182.74 L 606.72 1186.15 C 593.296 1172.67 575.086 1154.91 559.27 1143.79 C 491.929 1096.42 412.71 1061.5 337.218 1029.41 C 298.057 1012.76 264.986 999.364 227.489 979.259 C 203.812 966.355 181.123 951.716 159.605 935.465 C 150.296 928.319 122.973 905.463 113.91 900.57 z" fill="rgb(193,194,161)" transform="translate(0,0)"></path>
<path d="M 113.91 900.57 C 122.973 905.463 150.296 928.319 159.605 935.465 C 181.123 951.716 203.812 966.355 227.489 979.259 C 264.986 999.364 298.057 1012.76 337.218 1029.41 C 412.71 1061.5 491.929 1096.42 559.27 1143.79 C 575.086 1154.91 593.296 1172.67 606.72 1186.15 L 610.274 1182.74 C 612.844 1185.94 616.258 1190.49 618.907 1193.45 L 616.868 1196.38 L 615.914 1198.86 C 595.493 1181.08 579.044 1161.54 556.378 1145.22 C 444.838 1064.99 309.526 1032.02 192.945 961.961 C 163.616 944.337 140.851 921.049 113.804 902.304 L 112.697 901.543 L 113.91 900.57 z" fill="rgb(53,16,4)" transform="translate(0,0)"></path>
<path d="M 610.274 1182.74 C 612.844 1185.94 616.258 1190.49 618.907 1193.45 L 616.868 1196.38 L 606.72 1186.15 L 610.274 1182.74 z" fill="rgb(253,246,226)" transform="translate(0,0)"></path>
<path d="M 120.152 891.72 C 130.486 897.65 146.844 913.601 156.85 921.653 C 178.509 938.93 201.57 954.374 225.793 967.822 C 279.31 997.039 327.419 1014.17 382.038 1037.97 C 452.415 1068.63 575.795 1128.72 621.482 1191.72 L 618.907 1193.45 C 616.258 1190.49 612.844 1185.94 610.274 1182.74 C 560.211 1127.87 453.712 1070.19 383.584 1041.71 C 275.899 997.967 207.638 971.485 119.403 893.31 L 120.152 891.72 z" fill="rgb(53,16,4)" transform="translate(0,0)"></path>
<path d="M 407.319 470.903 C 417.108 465.552 453.692 446.674 463.041 443.23 C 495.933 473.844 514.493 495.646 553.683 519.214 C 540.984 545.494 528.61 559.912 516.778 582.252 C 517.101 582.489 523.001 586.559 522.73 586.258 C 539.202 564.053 548.69 545.894 561.616 521.787 C 584.854 530.263 601.892 534.964 625.94 540.135 L 627.083 539.933 C 624.595 548.478 622.221 557.826 619.342 565.977 C 616.271 574.673 599.525 611.801 598.984 617.023 C 597.565 616.694 598.08 617.049 597.303 616.187 L 596.013 619.134 C 596.232 623.39 595.895 622.333 592.83 626.761 L 591.938 627.101 C 587.011 633.602 574.892 658.437 570.062 667.227 C 560.16 684.995 549.379 702.26 537.761 718.958 C 505.791 713.383 479.273 707.155 449.044 694.618 C 444.79 692.853 435.842 690.04 432.632 687.707 L 432.569 686.812 C 427.309 686.103 423.952 687.358 418.78 688.604 C 417.775 693.042 399.724 704.496 394.857 707.87 C 378.424 719.266 360.508 728.33 341.63 734.874 C 324.604 721.551 305.613 707.019 290.333 691.785 C 268.792 670.308 249.676 646.351 226.965 625.918 C 213.482 613.788 200.558 605.201 185.515 595.508 C 206.125 577.114 227.424 566.731 248.038 551.301 C 251.299 548.737 251.094 548.626 255.108 548.402 C 257.205 540.787 386.113 477.132 393.408 478.688 L 395.808 477.758 C 398.563 474.249 401.08 473.783 405.269 472.163 L 407.319 470.903 z" fill="rgb(77,35,12)" transform="translate(0,0)"></path>
<path d="M 255.108 548.402 C 257.205 540.787 386.113 477.132 393.408 478.688 L 395.808 477.758 C 420.199 505.427 441.38 535.288 467.919 561.87 C 475.26 569.317 483.115 576.241 491.425 582.591 C 495.656 585.865 504.035 591.657 507.634 595.031 L 505.473 596.511 C 499.942 608.213 437.307 674.157 424.328 684.634 C 383.295 666.322 338.453 618.298 304.937 587.918 C 290.004 574.382 273.738 556.98 255.108 548.402 z" fill="rgb(253,253,248)" transform="translate(0,0)"></path>
<path d="M 395.808 477.758 C 420.199 505.427 441.38 535.288 467.919 561.87 C 475.26 569.317 483.115 576.241 491.425 582.591 C 495.656 585.865 504.035 591.657 507.634 595.031 L 505.473 596.511 C 477.036 581.113 438.553 533.288 416.806 508.299 C 411.633 502.355 397.14 485.29 393.408 478.688 L 395.808 477.758 z" fill="rgb(67,23,5)" transform="translate(0,0)"></path>
<path d="M 248.038 551.301 C 265.921 557.801 279.361 571.635 293.326 583.756 C 324.979 611.228 380.944 672.502 418.78 688.604 C 417.775 693.042 399.724 704.496 394.857 707.87 C 378.424 719.266 360.508 728.33 341.63 734.874 C 324.604 721.551 305.613 707.019 290.333 691.785 C 268.792 670.308 249.676 646.351 226.965 625.918 C 213.482 613.788 200.558 605.201 185.515 595.508 C 206.125 577.114 227.424 566.731 248.038 551.301 z" fill="rgb(193,194,161)" transform="translate(0,0)"></path>
<path d="M 513.402 600.833 C 528.023 607.152 541.236 612.946 556.374 617.976 C 564.384 620.639 586.206 624.283 591.938 627.101 C 587.011 633.602 574.892 658.437 570.062 667.227 C 560.16 684.995 549.379 702.26 537.761 718.958 C 505.791 713.383 479.273 707.155 449.044 694.618 C 444.79 692.853 435.842 690.04 432.632 687.707 L 432.569 686.812 C 439.486 681.812 451.056 669.085 457.163 662.545 C 469.853 649.204 482.231 635.571 494.287 621.655 C 498.22 617.152 509.211 603.86 513.402 600.833 z" fill="rgb(253,253,248)" transform="translate(0,0)"></path>
<path d="M 407.319 470.903 C 417.108 465.552 453.692 446.674 463.041 443.23 C 495.933 473.844 514.493 495.646 553.683 519.214 C 540.984 545.494 528.61 559.912 516.778 582.252 C 476.574 557.85 436.099 507.571 407.319 470.903 z" fill="rgb(253,253,248)" transform="translate(0,0)"></path>
<path d="M 561.616 521.787 C 584.854 530.263 601.892 534.964 625.94 540.135 C 623.55 544.948 622.154 550.104 620.548 555.228 C 614.638 574.079 606.69 592.413 598.805 610.511 C 576.615 607.439 541.932 598.361 522.73 586.258 C 539.202 564.053 548.69 545.894 561.616 521.787 z" fill="rgb(253,253,248)" transform="translate(0,0)"></path>
<path d="M 395.808 477.758 C 398.563 474.249 401.08 473.783 405.269 472.163 C 430.047 509.771 476.778 559.412 513.404 585.28 C 511.434 588.407 509.137 591.71 507.634 595.031 C 504.035 591.657 495.656 585.865 491.425 582.591 C 483.115 576.241 475.26 569.317 467.919 561.87 C 441.38 535.288 420.199 505.427 395.808 477.758 z" fill="rgb(193,194,161)" transform="translate(0,0)"></path>
<path d="M 514.13 598.028 L 520.716 589.591 C 541.223 600.27 561.136 607.864 584.004 611.705 C 588.3 612.427 595.895 612.772 597.303 616.187 L 596.013 619.134 C 596.232 623.39 595.895 622.333 592.83 626.761 L 591.938 627.101 C 586.206 624.283 564.384 620.639 556.374 617.976 C 541.236 612.946 528.023 607.152 513.402 600.833 L 514.13 598.028 z" fill="rgb(193,194,161)" transform="translate(0,0)"></path>
<path d="M 513.402 600.833 L 514.13 598.028 C 530.562 607.101 574.056 621.104 592.279 623.56 C 594.753 621.935 594.556 621.793 596.013 619.134 C 596.232 623.39 595.895 622.333 592.83 626.761 L 591.938 627.101 C 586.206 624.283 564.384 620.639 556.374 617.976 C 541.236 612.946 528.023 607.152 513.402 600.833 z" fill="rgb(53,16,4)" transform="translate(0,0)"></path>
<path d="M 180.769 598.71 C 219.375 624.004 240.821 646.375 270.627 680.392 C 308.663 723.802 360.347 758.296 413.98 778.93 C 427.18 784.008 444.122 787.762 458.105 791.747 C 441.746 802.604 419.099 811.189 399.657 814.511 L 398.265 816.675 C 406.624 829.819 459.833 797.281 468.403 792.332 C 494.267 797.886 523.92 802.29 548.939 808.466 C 623.06 827.128 696.156 854.869 758.982 899.125 C 769.78 906.731 810.475 936.204 808.621 948.075 C 801.883 952.789 781.149 935.903 773.762 931.201 C 751.448 916.768 732.119 906.237 707.588 895.914 C 670.839 880.449 636.945 884.809 649.218 934.157 C 604.021 916.795 559.191 900.639 512.014 889.171 C 483.687 882.365 455.295 875.84 426.84 869.597 C 365.215 856.137 300.541 841.517 246.312 807.857 C 191.577 773.883 154.104 739.069 86.8746 731.213 C 100.242 679.211 143.824 635.011 180.769 598.71 z" fill="rgb(253,253,248)" transform="translate(0,0)"></path>
<path d="M 661.458 298.718 C 678.558 256.533 688.084 251.055 730.999 237.451 C 763.978 227.01 798.392 221.81 832.984 222.041 C 920.299 222.774 1022.54 260.35 1098.08 302.24 C 1150.7 331.416 1205.12 372.073 1257.93 399.483 C 1246.75 405.414 1234.62 410.644 1223.92 417.074 C 1213.59 422.009 1178.98 442.447 1171.04 443.196 L 1167.27 441.599 C 1160.69 435.867 1127.67 420.354 1117.88 415.002 C 1021.31 362.211 938.177 302.208 825.592 289.824 C 835.494 279.524 843.75 271.895 854.988 263.047 C 863.133 256.635 877.296 247.999 883.6 240.625 C 860.809 243.21 831.663 272.605 815.512 289.084 C 756.755 285.083 719.414 286.781 661.458 298.718 z" fill="rgb(253,253,248)" transform="translate(0,0)"></path>
<path d="M 818.928 295.917 C 904.863 298.579 1004.83 356.914 1077.23 397.813 C 1106.65 414.432 1136.79 430.078 1166.25 446.694 C 1148.81 456.655 1131.37 466.541 1114.43 477.353 C 1106.27 482.567 1098 487.506 1089.21 491.62 C 1075.19 484.672 1061.23 477.613 1047.32 470.443 C 997.338 446.214 947.141 412.719 894.665 389.36 C 901.487 377.123 907.921 367.284 916.855 356.362 C 922.949 348.913 929.893 342.114 934.918 333.981 C 916.017 343.334 899.501 369.027 888.028 387.004 C 847.117 373.968 810.673 362.758 767.568 358.631 C 781.908 337.086 800.194 313.712 818.928 295.917 z" fill="rgb(253,253,248)" transform="translate(0,0)"></path>
<path d="M 1588.07 1464.42 C 1615.58 1465.36 1636.09 1480.55 1642.45 1507.71 C 1649.1 1536.09 1640.04 1565.27 1625.39 1589.55 C 1611.58 1578.5 1594.36 1564.07 1576.96 1560.03 C 1539.34 1551.29 1506.21 1579.37 1497.69 1614.79 C 1489.92 1647.09 1504.14 1660.44 1527.78 1679.28 C 1531.58 1682.31 1539.76 1686.49 1541.87 1690 L 1540.43 1692.07 C 1522.72 1704.42 1510.46 1710.49 1488.74 1712.84 C 1449.12 1717.13 1425.58 1698.6 1423.81 1658.36 C 1420.03 1572.23 1499.79 1469.19 1588.07 1464.42 z" fill="rgb(253,246,226)" transform="translate(0,0)"></path>
<path d="M 687.509 361.421 C 706.682 359.941 736.945 361.24 756.305 362.144 C 747.639 376.389 721.182 418.7 716.594 431.765 L 717.552 431.843 C 729.012 423.346 755.424 377.692 764.625 362.613 C 813.375 368.913 838.244 376.223 885.046 391.17 C 874.922 408.074 869.317 419.851 861.327 437.738 C 854.807 451.372 848.675 465.189 842.94 479.171 C 769.615 452.156 674.343 449.747 596.824 453.17 C 608.017 424.503 619.46 395.933 631.151 367.465 C 651.733 364.029 666.58 362.759 687.509 361.421 z" fill="rgb(193,194,161)" transform="translate(0,0)"></path>
<path d="M 1643.78 1654.37 C 1709.34 1655.7 1837.17 1780.71 1858.77 1843.54 C 1865.95 1864.45 1845.9 1863.33 1832.54 1861.65 C 1806.23 1854.81 1760.37 1833.05 1735.33 1814.51 C 1690.93 1779.98 1631.74 1738.88 1613.42 1683.6 C 1607.5 1665.72 1629.26 1656.17 1643.78 1654.37 z" fill="rgb(237,208,176)" transform="translate(0,0)"></path>
<path d="M 1708.11 1767.53 C 1716.98 1768.9 1750.01 1802.59 1761.53 1807.94 C 1766.86 1810.42 1795.68 1826.93 1797.01 1830.37 L 1795.32 1833.91 C 1770.86 1829.91 1731.98 1798.71 1713.05 1780.93 C 1708.29 1776.47 1705.97 1773.66 1708.11 1767.53 z" fill="rgb(93,57,38)" transform="translate(0,0)"></path>
<path d="M 1730.68 1768.38 C 1732.31 1768.56 1734.66 1769 1735.94 1770.05 C 1756.06 1786.42 1775.61 1799.32 1798.11 1812.24 C 1799.52 1815.55 1798.97 1814.8 1798.08 1819.08 C 1783.6 1817.2 1744.27 1789.03 1732.79 1777.53 C 1729.62 1774.36 1730.35 1772.1 1730.68 1768.38 z" fill="rgb(93,57,38)" transform="translate(0,0)"></path>
<path d="M 423.322 885.836 C 435.585 887.014 459.451 894.153 472.392 897.223 C 536.072 912.328 596.673 929.362 656.601 956.03 C 691.272 1006.08 718.159 1036.7 764.726 1074.97 C 759.825 1078.05 754.993 1081.55 750.237 1084.87 C 742.994 1090.52 734.197 1096.54 726.658 1101.97 C 722.478 1096.66 713.085 1088.5 707.914 1084.02 C 671.544 1052.63 629.92 1028.95 588.029 1005.83 C 527.226 972.268 476.979 929.146 423.322 885.836 z" fill="rgb(193,194,161)" transform="translate(0,0)"></path>
<path d="M 892.01 393.48 C 958.394 425.83 1019.65 463.769 1084.53 495.162 C 1064.29 507.703 1043.13 524.024 1024.52 538.701 C 1017.44 544.375 1010.26 549.915 1002.98 555.319 C 949.562 529.178 908.914 500.915 850.051 480.917 C 862.266 450.953 876.278 421.755 892.01 393.48 z" fill="rgb(193,194,161)" transform="translate(0,0)"></path>
<path d="M 669.262 904.008 C 708.697 904.799 804.468 969.236 834.656 997.588 C 847.846 1009.98 862.751 1025.94 875.681 1039.22 C 862.266 1051.2 852.536 1061.51 841.785 1075.94 C 835.58 1084.34 830.211 1093.33 825.756 1102.78 C 818.32 1097.2 810.822 1091.47 803.583 1085.65 C 781.272 1067.75 758.218 1049.96 738.421 1029.23 C 720.551 1010.52 641.966 927.719 669.262 904.008 z" fill="rgb(237,208,176)" transform="translate(0,0)"></path>
<path d="M 689.998 947.499 C 693.412 948.987 726.705 989.881 732.207 996.379 C 760.166 1029.39 792.285 1055.95 824.783 1084.15 C 826.644 1085.77 827.375 1087.92 827.943 1090.2 C 821.391 1091.25 808.154 1078.57 803.025 1074.37 C 768.433 1046.03 737.438 1013.55 710.623 977.77 C 703.667 968.489 695.409 957.671 689.998 947.499 z" fill="rgb(67,23,5)" transform="translate(0,0)"></path>
<path d="M 1093.15 499.119 C 1127.72 513.495 1165.95 530.552 1201.03 542.826 C 1190.38 553.587 1180.21 564.346 1171.04 576.447 C 1160.3 590.603 1150.56 606.008 1139.08 619.532 C 1133.96 618.038 1128.8 616.208 1123.74 614.494 C 1095.07 604.179 1039.29 573.673 1009.5 558.712 C 1030.7 540.808 1069.81 514.821 1093.15 499.119 z" fill="rgb(193,194,161)" transform="translate(0,0)"></path>
<path d="M 636.656 325.906 C 637.012 329.79 624.977 356.418 622.378 363.146 C 602.208 415.374 582.869 465.353 556.317 514.922 C 535.212 503.532 523.276 493.975 505.996 478.205 L 467.205 441.107 C 485.023 430.753 501.723 418.723 519.313 408.269 C 561.659 383.102 599.782 358.711 636.656 325.906 z" fill="rgb(253,253,248)" transform="translate(0,0)"></path>
<path d="M 1264.21 402.935 C 1286.11 414.221 1316.99 428.885 1339.73 436.333 C 1364.37 444.407 1392.14 451.726 1417.31 459.011 C 1385.34 465.174 1353.59 472.408 1322.11 480.703 L 1282.82 493.455 C 1254.21 484.84 1208.61 461.516 1181.52 447.651 C 1203.1 434.073 1240.55 415.486 1264.21 402.935 z" fill="rgb(253,253,248)" transform="translate(0,0)"></path>
<path d="M 1561.34 1574.35 C 1591.16 1574.65 1629.02 1615.44 1644.01 1638.74 C 1622.52 1640.49 1602.64 1649.43 1597.03 1672.38 C 1595.64 1678.06 1597.56 1686.33 1596.7 1692.92 C 1572.69 1688.2 1563.36 1683.38 1542.66 1669.75 C 1509.29 1647.77 1500.19 1628.6 1525.32 1594.04 C 1534.28 1581.72 1545.96 1576.05 1561.34 1574.35 z" fill="rgb(237,208,176)" transform="translate(0,0)"></path>
<path d="M 1515.68 1624.98 C 1522.23 1627.14 1546.68 1651.11 1554.95 1656.55 C 1559.38 1659.46 1579.19 1670.92 1581.45 1673.39 L 1580.76 1677.5 C 1568.58 1679.82 1529.83 1647.07 1521.35 1637.09 C 1517.58 1632.65 1515.04 1630.98 1515.68 1624.98 z" fill="rgb(93,57,38)" transform="translate(0,0)"></path>
<path d="M 427.269 692.332 C 471.996 711.043 485.277 714.259 533.248 724.721 C 521.204 743.366 491.524 767.987 473.078 781.579 C 466.635 786.327 465.869 786.846 459.065 785.63 C 414.375 774.207 389.086 763.722 349.485 739.758 C 381.663 725.495 400.059 714.935 427.269 692.332 z" fill="rgb(193,194,161)" transform="translate(0,0)"></path>
<path d="M 736.493 293.412 C 755.563 291.456 790.074 293.155 809.181 295.274 C 790.662 314.482 774.002 335.4 759.425 357.748 C 745.374 355.879 716.944 356.109 702.751 356.413 C 676.236 357.146 658.955 358.594 632.824 363.162 C 637.889 348.495 651.311 317.275 658.56 304.084 C 682.754 296.951 711.416 295.208 736.493 293.412 z" fill="rgb(253,253,248)" transform="translate(0,0)"></path>
<path d="M 1223.92 417.074 L 1225.8 418.089 C 1223.4 421.035 1179.55 440.436 1176.77 444.989 C 1181.45 448.954 1178.41 443.839 1181.57 446.701 C 1180.26 449.455 1180.9 448.427 1178.22 450.43 C 1183.04 454.323 1189.07 453.885 1190.72 458.555 C 1210.41 471.422 1251.35 487.936 1273.32 496.836 C 1243.5 511.124 1233.36 516.161 1207.55 537.585 C 1194.95 533.999 1103.89 500.364 1099.55 495.289 C 1100.79 493.837 1101.49 492.96 1102.86 491.634 L 1101.17 491.115 C 1122.85 476.35 1146.86 464.788 1169.37 451.363 C 1169.7 451.214 1170.03 451.064 1170.36 450.914 C 1171.23 448.525 1171.01 448.497 1170.65 445.915 C 1169.01 444.334 1168.27 443.643 1167.27 441.599 L 1171.04 443.196 C 1178.98 442.447 1213.59 422.009 1223.92 417.074 z" fill="rgb(253,253,248)" transform="translate(0,0)"></path>
<path d="M 1223.92 417.074 L 1225.8 418.089 C 1223.4 421.035 1179.55 440.436 1176.77 444.989 C 1181.45 448.954 1178.41 443.839 1181.57 446.701 C 1180.26 449.455 1180.9 448.427 1178.22 450.43 C 1183.04 454.323 1189.07 453.885 1190.72 458.555 C 1185.48 456.084 1179.42 453.075 1174.13 450.884 C 1159.26 459.095 1144.49 467.485 1129.82 476.051 C 1125.68 478.495 1106.02 490.542 1102.86 491.634 L 1101.17 491.115 C 1122.85 476.35 1146.86 464.788 1169.37 451.363 C 1169.7 451.214 1170.03 451.064 1170.36 450.914 C 1171.23 448.525 1171.01 448.497 1170.65 445.915 C 1169.01 444.334 1168.27 443.643 1167.27 441.599 L 1171.04 443.196 C 1178.98 442.447 1213.59 422.009 1223.92 417.074 z" fill="rgb(84,42,11)" transform="translate(0,0)"></path>
<path d="M 1483.42 608.415 C 1485 608.315 1486.59 608.224 1488.17 608.143 C 1666 599.014 1897.38 716.783 1911.07 914.684 C 1924.1 1103.12 1756.3 1185.41 1592.75 1191.13 C 1478.54 1197.46 1324.03 1178.65 1234.81 1099.85 C 1186.18 1057.22 1171.94 1002.36 1166.79 940.515 C 1151.36 755.52 1307 619.392 1483.42 608.415 z" fill="rgb(93,57,38)" transform="translate(0,0)"></path>
<path d="M 1490.24 623.421 C 1506.3 622.202 1529.22 623.815 1545.23 625.367 C 1639.59 634.865 1728.88 672.621 1801.43 733.697 C 1900.01 816.76 1932.7 973.161 1843.47 1076.31 C 1781.75 1147.65 1678.68 1168.2 1588.72 1174.85 C 1477.67 1177.6 1337.7 1164.51 1248.75 1090.39 C 1204.46 1053.48 1188.34 1006.89 1183.05 950.806 C 1175.97 875.769 1193.68 800.441 1243.92 742.119 C 1291.07 687.394 1354.29 648.946 1424.57 632.255 C 1447.36 627.035 1467.08 625.144 1490.24 623.421 z" fill="rgb(253,246,226)" transform="translate(0,0)"></path>
<path d="M 1373.6 658.257 C 1425.88 655.744 1467.79 680.235 1508.25 710.253 C 1597.19 674.754 1712.35 694.385 1788.62 751.692 C 1792.86 754.875 1795.06 759.412 1793.02 764.563 C 1792.25 765.267 1791.49 765.972 1790.72 766.677 C 1780.85 765.458 1759.99 759.183 1751.3 757.277 C 1676.49 740.878 1632.89 740.422 1561.5 768.402 C 1595.7 822.955 1618.89 873.447 1628.97 937.776 C 1631.17 951.853 1641.35 1027.14 1626.02 1029.27 C 1617.57 1024.19 1603.65 983.937 1598.94 972.347 C 1571.04 899.505 1547.7 844.581 1498.56 783.297 C 1439.89 810.643 1382.52 853.577 1333.6 895.638 C 1323.31 904.485 1277.09 950.44 1268.11 949.614 C 1259.98 945.176 1266.94 924.717 1269.48 917.584 C 1291.44 856.08 1339.45 804.823 1392.05 767.566 C 1410.13 754.757 1433.06 744.074 1452.74 733.976 C 1435.42 716.737 1413.9 700.351 1394.27 685.739 C 1384.73 678.637 1373.45 671.6 1364.49 664.069 L 1365.07 661.402 C 1367.66 658.841 1369.96 658.894 1373.6 658.257 z" fill="rgb(84,42,11)" transform="translate(0,0)"></path>
<path d="M 1376.66 665.127 C 1440.09 661.96 1516.87 718.531 1551.4 768.514 C 1589.41 823.548 1614.25 887.451 1622.72 953.886 C 1625.06 972.244 1628.08 995.146 1625.13 1013.29 C 1622.08 1012.88 1618.4 999.652 1617.13 996.145 C 1603.14 956.654 1587.26 917.855 1569.55 879.884 C 1528.28 789.605 1459.75 718.022 1376.66 665.127 z" fill="rgb(253,246,226)" transform="translate(0,0)"></path>
<path d="M 1458.47 740.83 C 1463.21 742.037 1487.94 771.148 1492.95 776.892 C 1476.09 783.741 1455.28 797.229 1439.48 806.705 C 1381.89 841.248 1338.89 879.307 1290.03 924.339 L 1270.96 941.777 C 1286.35 877.959 1333.76 821.885 1385.4 782.845 C 1408.8 765.159 1432.27 753.542 1458.47 740.83 z" fill="rgb(253,246,226)" transform="translate(0,0)"></path>
<path d="M 1591.03 700.424 C 1591.32 700.4 1591.6 700.375 1591.88 700.35 C 1652.27 699.023 1731.99 717.28 1777.68 756.415 C 1755.31 748.203 1718.12 742.068 1694.18 739.131 C 1634.79 736.415 1611.8 740.82 1557.11 762.221 C 1543.26 743.887 1531.5 731.857 1515.26 715.967 C 1539.05 706.646 1565.63 702.215 1591.03 700.424 z" fill="rgb(253,246,226)" transform="translate(0,0)"></path>
<path d="M 1849.24 1032.56 C 1850.51 1033.6 1849.85 1032.88 1850.88 1034.99 C 1849.53 1043.59 1839.68 1057.85 1834.01 1064.34 C 1785.06 1120.33 1706.06 1148.92 1634.31 1156.06 C 1634.02 1155.66 1633.36 1153.98 1633.13 1153.45 C 1635.16 1150.09 1646.12 1149.53 1650.71 1148.53 C 1712.05 1135.17 1773.33 1113 1819.4 1068.71 C 1830.69 1057.86 1839.04 1041.94 1849.24 1032.56 z" fill="rgb(77,35,12)" transform="translate(0,0)"></path>
<path d="M 1217.17 1011.28 C 1222.36 1013.38 1232.2 1029.58 1235.63 1034.74 C 1258.96 1069.84 1291.55 1090.14 1327.89 1109.4 C 1330.86 1110.97 1331 1112.23 1331.59 1115.22 C 1300.37 1115.21 1215.73 1044.61 1217.17 1011.28 z" fill="rgb(84,42,11)" transform="translate(0,0)"></path>
<path d="M 1373.11 1127.95 C 1380.36 1127.47 1424.13 1140.08 1438.3 1142.56 C 1454.72 1145.39 1471.22 1147.73 1487.79 1149.56 C 1495.07 1150.36 1514.42 1151.46 1520.34 1153.36 L 1520.44 1154.64 C 1493.26 1160.7 1430.37 1150.62 1403.36 1142.28 C 1394.71 1139.61 1383.76 1137.75 1375.82 1132.84 C 1373.03 1131.11 1373.75 1131.11 1373.11 1127.95 z" fill="rgb(77,35,12)" transform="translate(0,0)"></path>
<path d="M 1400.82 960.653 C 1402.99 959.316 1405.71 959.282 1407.91 960.564 C 1410.11 961.847 1411.43 964.237 1411.33 966.782 C 1411.24 969.326 1409.75 971.612 1407.46 972.727 C 1404.16 974.337 1400.17 973.071 1398.4 969.85 C 1396.62 966.629 1397.69 962.584 1400.82 960.653 z" fill="rgb(77,35,12)" transform="translate(0,0)"></path>
<path d="M 1487.81 649.091 C 1486.64 646.201 1487.57 642.88 1490.08 641.023 C 1492.58 639.165 1496.03 639.243 1498.45 641.211 C 1500.87 643.179 1501.65 646.538 1500.35 649.372 C 1499.21 651.845 1496.71 653.405 1493.99 653.344 C 1491.27 653.283 1488.84 651.612 1487.81 649.091 z" fill="rgb(77,35,12)" transform="translate(0,0)"></path>
<path d="M 1487.81 649.091 C 1492.02 648.633 1496.83 647.469 1500.35 649.372 C 1499.21 651.845 1496.71 653.405 1493.99 653.344 C 1491.27 653.283 1488.84 651.612 1487.81 649.091 z" fill="rgb(84,42,11)" transform="translate(0,0)"></path>
<path d="M 1799.58 913.79 C 1801.94 913.389 1804.34 914.299 1805.84 916.169 C 1807.34 918.038 1807.71 920.574 1806.8 922.794 C 1805.9 925.014 1803.86 926.569 1801.48 926.858 C 1797.92 927.29 1794.67 924.802 1794.15 921.253 C 1793.63 917.704 1796.04 914.391 1799.58 913.79 z" fill="rgb(67,23,5)" transform="translate(0,0)"></path>
<path d="M 1454.95 1039.73 C 1456.82 1038.34 1459.3 1038.07 1461.43 1039.03 C 1463.55 1039.99 1465 1042.03 1465.19 1044.36 C 1465.39 1046.68 1464.32 1048.93 1462.38 1050.24 C 1459.48 1052.2 1455.55 1051.48 1453.52 1048.62 C 1451.5 1045.76 1452.13 1041.81 1454.95 1039.73 z" fill="rgb(77,35,12)" transform="translate(0,0)"></path>
<path d="M 1729.3 893.697 C 1731.2 892.278 1733.72 892.017 1735.87 893.018 C 1738.02 894.019 1739.44 896.119 1739.57 898.485 C 1739.71 900.85 1738.53 903.097 1736.51 904.333 C 1733.58 906.124 1729.76 905.297 1727.83 902.453 C 1725.9 899.609 1726.55 895.754 1729.3 893.697 z" fill="rgb(77,35,12)" transform="translate(0,0)"></path>
<path d="M 1739.3 1002.79 C 1741.32 1001.5 1743.89 1001.44 1745.97 1002.64 C 1748.04 1003.85 1749.27 1006.1 1749.16 1008.5 C 1749.05 1010.89 1747.61 1013.03 1745.43 1014.03 C 1742.37 1015.43 1738.74 1014.23 1737.12 1011.27 C 1735.51 1008.31 1736.46 1004.61 1739.3 1002.79 z" fill="rgb(77,35,12)" transform="translate(0,0)"></path>
<path d="M 1533.64 925.909 C 1536.61 924.276 1540.34 925.251 1542.13 928.129 C 1543.93 931.007 1543.16 934.786 1540.39 936.737 C 1538.45 938.099 1535.92 938.279 1533.81 937.204 C 1531.7 936.13 1530.36 933.976 1530.32 931.609 C 1530.28 929.242 1531.56 927.048 1533.64 925.909 z" fill="rgb(77,35,12)" transform="translate(0,0)"></path>
<path d="M 1446.11 894.744 C 1448.01 893.352 1450.53 893.133 1452.64 894.174 C 1454.75 895.215 1456.11 897.344 1456.17 899.7 C 1456.22 902.055 1454.97 904.246 1452.9 905.385 C 1449.98 906.999 1446.31 906.065 1444.51 903.252 C 1442.72 900.439 1443.42 896.715 1446.11 894.744 z" fill="rgb(67,23,5)" transform="translate(0,0)"></path>
<path d="M 1325.03 701.241 C 1328.2 700.183 1331.63 701.795 1332.84 704.904 C 1334.05 708.013 1332.6 711.522 1329.56 712.878 C 1327.45 713.813 1325 713.515 1323.18 712.102 C 1321.36 710.688 1320.47 708.388 1320.86 706.117 C 1321.24 703.846 1322.85 701.973 1325.03 701.241 z" fill="rgb(67,23,5)" transform="translate(0,0)"></path>
<path d="M 1744.26 792.645 C 1746.41 791.838 1748.84 792.306 1750.55 793.857 C 1752.26 795.407 1752.95 797.781 1752.36 800.008 C 1751.76 802.235 1749.97 803.942 1747.71 804.43 C 1744.56 805.115 1741.41 803.245 1740.5 800.147 C 1739.59 797.049 1741.23 793.774 1744.26 792.645 z" fill="rgb(77,35,12)" transform="translate(0,0)"></path>
<path d="M 1674.22 839.628 C 1676.96 837.73 1680.71 838.359 1682.68 841.046 C 1684.65 843.734 1684.12 847.501 1681.49 849.542 C 1679.72 850.912 1677.35 851.215 1675.29 850.333 C 1673.24 849.45 1671.82 847.522 1671.6 845.297 C 1671.38 843.073 1672.38 840.902 1674.22 839.628 z" fill="rgb(77,35,12)" transform="translate(0,0)"></path>
<path d="M 1619.13 809.68 C 1620.9 810.197 1621.96 810.729 1623.65 811.461 C 1626.21 814.823 1625.67 813.022 1625.76 816.902 C 1624.11 820.394 1623.25 820.497 1619.83 822.247 C 1617.02 821.613 1617.34 821.616 1614.66 820.41 C 1612.4 817.197 1612.88 818.916 1613.04 815.114 C 1614.96 811.61 1615.65 811.516 1619.13 809.68 z" fill="rgb(77,35,12)" transform="translate(0,0)"></path>
<path d="M 1252.08 810.728 C 1253.98 809.596 1256.33 809.57 1258.25 810.659 C 1260.17 811.748 1261.36 813.785 1261.36 815.992 C 1261.36 818.199 1260.18 820.237 1258.26 821.327 C 1255.33 822.987 1251.62 821.986 1249.93 819.082 C 1248.23 816.177 1249.2 812.452 1252.08 810.728 z" fill="rgb(67,23,5)" transform="translate(0,0)"></path>
<path d="M 1293.36 757.564 C 1296.36 756.756 1299.48 758.372 1300.55 761.288 C 1301.62 764.204 1300.29 767.455 1297.48 768.781 C 1295.43 769.75 1293 769.477 1291.22 768.075 C 1289.43 766.673 1288.59 764.382 1289.04 762.158 C 1289.5 759.933 1291.17 758.155 1293.36 757.564 z" fill="rgb(67,23,5)" transform="translate(0,0)"></path>
<path d="M 1516.32 990.558 C 1518.26 989.535 1520.6 989.65 1522.43 990.857 C 1524.26 992.064 1525.28 994.17 1525.1 996.353 C 1524.92 998.535 1523.56 1000.45 1521.56 1001.34 C 1518.61 1002.65 1515.14 1001.39 1513.73 998.481 C 1512.32 995.573 1513.46 992.067 1516.32 990.558 z" fill="rgb(67,23,5)" transform="translate(0,0)"></path>
<path d="M 1585.28 656.589 C 1589.71 656.793 1592.09 656.657 1594.99 660.469 C 1595.51 664.46 1595.47 663.041 1593.71 667.148 C 1588.53 667.351 1586.09 668.084 1582.97 663.663 C 1582.83 660.132 1583.47 659.583 1585.28 656.589 z" fill="rgb(67,23,5)" transform="translate(0,0)"></path>
<path d="M 682.42 1612.13 C 680.978 1611.02 679.55 1609.9 678.135 1608.76 C 626.668 1567.38 592.833 1508.88 610.666 1440.93 C 612.213 1435.03 616.542 1423.69 620.264 1419.07 C 627.51 1415.73 633.073 1425.09 636.971 1430.66 C 679.822 1491.95 684.468 1569.31 720.653 1634.27 C 731.602 1639.96 748.069 1646.64 759.543 1651.82 C 772.196 1657.54 789.829 1665.81 802.781 1669.99 C 747.711 1627.9 702.46 1553.97 726.112 1483.16 C 732.444 1478.98 739.574 1490.36 743.768 1495.46 C 791.148 1553.09 815.013 1623.38 852.377 1687.19 C 853.062 1688.19 853.746 1689.19 854.43 1690.2 C 876.51 1699.89 923.285 1716.6 944.563 1723.75 L 947.399 1721.15 C 950.687 1722.78 957.84 1726.06 960.648 1727.87 L 963.177 1727.37 C 973.476 1733.5 983.394 1736.71 994.683 1740.74 C 997.375 1742.62 997.399 1742.36 1000.73 1742.75 C 1003.7 1743.91 1005.42 1744.91 1008.51 1745.19 L 1011.7 1743.8 C 1017.11 1751.14 1073.66 1767.53 1087.08 1771.87 C 1090.24 1769.17 1090.41 1763.29 1090.45 1759.37 C 1036.32 1721.72 995.382 1665.11 999.78 1595.19 C 1000.11 1589.89 1001.3 1582.77 1005.65 1579.31 C 1009.78 1578.75 1007.71 1578.57 1011.98 1580.62 C 1030.07 1599.51 1048.37 1617.9 1064.28 1638.85 C 1106.46 1694.4 1136.25 1749.5 1184.59 1800.47 C 1278.16 1828.09 1371.37 1854.03 1461.98 1890.81 C 1472.69 1895.16 1494.03 1902.34 1502.33 1909.41 L 1502.93 1911.23 C 1496 1914.8 1461.79 1898.9 1453.33 1895.66 C 1427.08 1885.75 1400.71 1876.15 1374.24 1866.85 C 1307.95 1844.04 1240.26 1825.31 1173.04 1805.46 C 1160.95 1801.88 1122.97 1788.2 1113.43 1788.75 L 1112.09 1787.52 C 1107.87 1785.26 1105.54 1786.11 1100.87 1786.99 L 1098.96 1784.36 C 1096.07 1782.25 1080.86 1777.89 1076.78 1776.57 C 1058.77 1770.82 1040.79 1764.96 1022.85 1758.99 C 1012.77 1755.56 957.125 1733.05 949.926 1734.31 L 948.824 1733.19 C 945.68 1730.52 923.827 1723.99 919.14 1722.95 C 903.954 1719.59 834.675 1688.36 826.108 1689.46 L 824.159 1687.37 L 821.969 1685.78 L 819.744 1684.55 C 778.318 1668.91 737 1648.28 697.461 1633.51 L 694.097 1635.94 L 693.108 1633.37 L 692.664 1631.52 C 691.625 1630.68 692.368 1631.15 690.151 1630.73 L 690.017 1629.8 C 690.293 1627.93 690.545 1626.06 690.775 1624.18 L 692.804 1622.84 L 692.854 1622.29 L 694.366 1620.76 C 689.912 1618.23 686.437 1615.29 682.42 1612.13 z" fill="url(#Gradient2)" transform="translate(0,0)"></path>
<path d="M 1090.45 1759.37 C 1036.32 1721.72 995.382 1665.11 999.78 1595.19 C 1000.11 1589.89 1001.3 1582.77 1005.65 1579.31 C 1009.78 1578.75 1007.71 1578.57 1011.98 1580.62 L 1008.34 1583.03 C 1021.02 1592.94 1042.76 1619.24 1053.12 1632.31 C 1097.43 1688.24 1129.08 1745.71 1177.23 1799.15 C 1167.86 1795.99 1141.62 1787.76 1133.97 1783.67 L 1130.33 1783.91 C 1122.89 1778.15 1108.73 1770.62 1100.21 1765.87 L 1090.45 1759.37 z" fill="rgb(237,208,176)" transform="translate(0,0)"></path>
<path d="M 1090.45 1759.37 C 1036.32 1721.72 995.382 1665.11 999.78 1595.19 C 1000.11 1589.89 1001.3 1582.77 1005.65 1579.31 C 1009.78 1578.75 1007.71 1578.57 1011.98 1580.62 L 1008.34 1583.03 C 999.031 1600.77 1005.17 1630.52 1010.76 1648.9 C 1026.38 1700.29 1058.08 1730.56 1100.39 1760.77 C 1109.97 1767.61 1125.79 1776.67 1133.97 1783.67 L 1130.33 1783.91 C 1122.89 1778.15 1108.73 1770.62 1100.21 1765.87 L 1090.45 1759.37 z" fill="rgb(67,23,5)" transform="translate(0,0)"></path>
<path d="M 1035.33 1647.58 C 1040.71 1651.17 1064.81 1690.67 1070.69 1699.57 C 1092.4 1732.46 1119.87 1753.43 1146.21 1781.35 L 1147.03 1782.23 C 1139.47 1778.97 1128.28 1768.11 1121.78 1762.42 C 1089.97 1734.56 1051.76 1686.96 1035.33 1647.58 z" fill="rgb(23,5,2)" transform="translate(0,0)"></path>
<path d="M 726.112 1483.16 C 732.444 1478.98 739.574 1490.36 743.768 1495.46 C 791.148 1553.09 815.013 1623.38 852.377 1687.19 L 848.709 1688 C 844.819 1688.84 840.227 1683.46 838.117 1680.85 L 836.761 1682.43 C 833.627 1683 826.269 1679.08 823.199 1677.37 C 795.215 1661.8 764.591 1629.73 747.784 1602.59 C 726.113 1567.48 719.176 1525.24 728.48 1485.05 L 726.112 1483.16 z" fill="rgb(237,208,176)" transform="translate(0,0)"></path>
<path d="M 726.112 1483.16 C 732.444 1478.98 739.574 1490.36 743.768 1495.46 C 791.148 1553.09 815.013 1623.38 852.377 1687.19 L 848.709 1688 C 844.766 1680.2 833.105 1660.99 828.758 1653.06 C 811.805 1622.15 758.127 1501.66 728.48 1485.05 L 726.112 1483.16 z" fill="rgb(67,23,5)" transform="translate(0,0)"></path>
<path d="M 752.39 1558.78 C 757.651 1566.51 768.657 1589.35 774.018 1599.03 C 793.134 1633.52 810.686 1653.15 838.117 1680.85 L 836.761 1682.43 C 802.043 1650.89 763.846 1604.78 752.39 1558.78 z" fill="rgb(53,16,4)" transform="translate(0,0)"></path>
<path d="M 623.48 1420.83 C 657.5 1455.65 675.407 1529.87 691.387 1576.18 C 697.836 1594.86 706.974 1612.63 712.911 1629.08 L 712.69 1630.69 L 711.582 1631 C 709.082 1630.04 709.798 1630.33 707.591 1628.68 L 696.513 1623.38 L 692.804 1622.84 L 692.854 1622.29 L 694.366 1620.76 C 689.912 1618.23 686.437 1615.29 682.42 1612.13 L 683.499 1609.7 C 646.06 1576.49 614.459 1538.29 610.848 1486.03 C 609.379 1464.77 612.167 1439.39 623.48 1420.83 z" fill="rgb(237,208,176)" transform="translate(0,0)"></path>
<path d="M 630.141 1480.56 C 634.822 1489.11 642.841 1513.83 647.247 1524.95 C 661.165 1560.1 676.978 1584.09 700.041 1613.47 L 698.719 1615.97 C 693.894 1611.4 686.347 1600.85 682.173 1595.29 C 657.065 1561.82 638.077 1521.88 630.141 1480.56 z" fill="rgb(23,5,2)" transform="translate(0,0)"></path>
<path d="M 700.041 1613.47 C 703.91 1618.33 709.995 1625.16 711.582 1631 C 709.082 1630.04 709.798 1630.33 707.591 1628.68 L 696.513 1623.38 L 699.092 1617.37 L 698.719 1615.97 L 700.041 1613.47 z" fill="rgb(77,35,12)" transform="translate(0,0)"></path>
<path d="M 699.092 1617.37 C 701.379 1620.03 706.883 1625.71 707.591 1628.68 L 696.513 1623.38 L 699.092 1617.37 z" fill="rgb(253,246,226)" transform="translate(0,0)"></path>
<path d="M 683.499 1609.7 C 687.865 1613.52 691.544 1616.58 695.429 1620.93 L 694.366 1620.76 C 689.912 1618.23 686.437 1615.29 682.42 1612.13 L 683.499 1609.7 z" fill="rgb(77,35,12)" transform="translate(0,0)"></path>
<path d="M 1100.21 1765.87 C 1108.73 1770.62 1122.89 1778.15 1130.33 1783.91 C 1124.25 1783.63 1105.99 1777.71 1098.9 1775.76 C 1100.09 1772.47 1100 1769.38 1100.21 1765.87 z" fill="rgb(248,227,199)" transform="translate(0,0)"></path>
<path d="M 1090.45 1759.37 L 1100.21 1765.87 C 1100 1769.38 1100.09 1772.47 1098.9 1775.76 L 1087.08 1771.87 C 1090.24 1769.17 1090.41 1763.29 1090.45 1759.37 z" fill="rgb(253,246,226)" transform="translate(0,0)"></path>
<path d="M 947.399 1721.15 C 950.687 1722.78 957.84 1726.06 960.648 1727.87 C 954.986 1727.26 949.903 1725.55 944.563 1723.75 L 947.399 1721.15 z" fill="rgb(248,227,199)" transform="translate(0,0)"></path>
<path d="M 347.136 1420.77 C 320.806 1389.79 305.311 1356.3 308.948 1314.91 C 310.575 1296.39 325.073 1239 341.744 1229.96 C 343.507 1230.21 343.699 1229.8 344.559 1231.22 C 348.037 1236.95 349.039 1245.05 350.291 1251.61 C 357.499 1289.36 359.515 1327.63 360.48 1365.97 C 361.047 1388.52 361.543 1411.34 366.579 1433.45 C 382.135 1444.48 413.494 1467.34 429.366 1476.6 C 401.055 1440.59 386.382 1400.25 392.387 1354.17 C 393.679 1344.26 403.674 1289.82 415.654 1291.33 C 421.125 1296.21 425.664 1312.06 428.095 1319.53 C 439.12 1352.71 447.198 1386.8 452.235 1421.4 C 454.415 1437.43 455.344 1453.85 456.913 1469.98 C 457.385 1474.84 460.519 1492.06 459.137 1495.13 L 456.452 1494.27 C 451.539 1491.02 449.593 1487.69 446.456 1482.93 C 447.316 1487.2 448.267 1488.04 446.917 1491.47 C 442.432 1491.71 441.659 1487.99 436.277 1486.66 C 432.466 1485.53 423.608 1478.92 419.977 1476.99 C 406.331 1469.73 355.359 1433.56 345.058 1431.34 L 344.614 1429.88 L 345.206 1428.48 C 343.207 1425.13 339.93 1423.69 336.534 1421.67 L 339.526 1421.95 L 340.422 1421.15 C 338.727 1418.02 335.602 1416.85 332.189 1414.72 C 311.717 1402.8 281.995 1377.28 262.215 1363.38 C 254.326 1357.83 239.019 1343.16 231.2 1339.7 L 230.01 1337.75 C 228.296 1335.72 224.166 1332.81 221.862 1331.06 L 224.033 1329.19 L 224.849 1328.79 L 227.433 1328.76 L 229.054 1330.73 C 233.579 1330.69 234.105 1330.81 237.866 1333.3 C 238.413 1333.35 248.908 1335.11 248.872 1335.09 L 249.522 1334.78 C 252.527 1338.54 255.952 1344.54 258.689 1347.45 C 261.694 1349.6 263.841 1351.41 266.662 1353.81 C 268.824 1356.7 269.201 1357.45 270.887 1360.7 C 272.879 1361.97 273.173 1362.51 274.289 1364.59 C 276 1363.27 275.456 1363.91 276.19 1362.93 L 278.163 1365.29 L 279.14 1364.83 L 281.171 1366.44 C 281.379 1364.3 281.38 1363.95 282.809 1362.33 L 283.091 1371.64 C 303.791 1387 327.18 1407.19 347.136 1420.77 z" fill="url(#Gradient1)" transform="translate(0,0)"></path>
<path d="M 429.366 1476.6 C 401.055 1440.59 386.382 1400.25 392.387 1354.17 C 393.679 1344.26 403.674 1289.82 415.654 1291.33 C 421.125 1296.21 425.664 1312.06 428.095 1319.53 C 439.12 1352.71 447.198 1386.8 452.235 1421.4 C 454.415 1437.43 455.344 1453.85 456.913 1469.98 C 457.385 1474.84 460.519 1492.06 459.137 1495.13 L 456.452 1494.27 C 451.539 1491.02 449.593 1487.69 446.456 1482.93 C 445.775 1479.99 442.163 1472.16 440.774 1469.23 C 425.604 1437.22 422.262 1403.62 415.559 1369.24 L 413.141 1372.08 C 419.625 1420.15 424.023 1442.37 445.399 1486.88 C 439.982 1483.38 438.482 1482.13 433.749 1477.85 C 432.31 1478.93 433.175 1478.48 431.052 1478.95 L 429.366 1476.6 z" fill="rgb(237,208,176)" transform="translate(0,0)"></path>
<path d="M 429.366 1476.6 C 401.055 1440.59 386.382 1400.25 392.387 1354.17 C 393.679 1344.26 403.674 1289.82 415.654 1291.33 C 421.125 1296.21 425.664 1312.06 428.095 1319.53 C 439.12 1352.71 447.198 1386.8 452.235 1421.4 C 454.415 1437.43 455.344 1453.85 456.913 1469.98 C 457.385 1474.84 460.519 1492.06 459.137 1495.13 L 456.452 1494.27 C 449.755 1452.27 448.24 1409.71 438.071 1368.5 C 435.361 1357.52 420.471 1301.4 414.195 1296.66 C 406.595 1301.36 398.495 1339.91 397.173 1349.16 C 390.234 1397.72 404.68 1439.24 433.749 1477.85 C 432.31 1478.93 433.175 1478.48 431.052 1478.95 L 429.366 1476.6 z" fill="rgb(67,23,5)" transform="translate(0,0)"></path>
<path d="M 413.141 1372.08 C 412.922 1367.53 412.52 1365.94 413.952 1361.76 C 415.56 1363.85 415.351 1366.46 415.559 1369.24 L 413.141 1372.08 z" fill="rgb(53,16,4)" transform="translate(0,0)"></path>
<path d="M 237.866 1333.3 C 238.413 1333.35 248.908 1335.11 248.872 1335.09 L 249.522 1334.78 C 252.527 1338.54 255.952 1344.54 258.689 1347.45 C 261.694 1349.6 263.841 1351.41 266.662 1353.81 C 268.824 1356.7 269.201 1357.45 270.887 1360.7 C 264.155 1357.27 242.108 1339.54 237.866 1333.3 z" fill="rgb(248,227,199)" transform="translate(0,0)"></path>
<path d="M 341.659 1233.05 C 352.708 1276.55 354.426 1311.52 355.533 1356.39 C 356.026 1376.39 356.874 1410.81 361.418 1429.71 C 356.277 1425.03 355.048 1423.92 352.34 1417.47 C 351.07 1418.96 351.16 1419.49 349.96 1419.6 C 334.908 1405.52 320.78 1375.92 315.926 1356.04 C 305.593 1313.71 319.825 1269.26 341.659 1233.05 z" fill="rgb(237,208,176)" transform="translate(0,0)"></path>
<path d="M 349.96 1419.6 C 350.411 1415.32 343.483 1399.86 341.842 1394.11 C 336.681 1376.01 328.332 1337.51 331.887 1319.6 C 334.383 1327.19 336.402 1352.2 337.718 1362.38 C 340.579 1384.49 346.235 1397.07 352.34 1417.47 C 351.07 1418.96 351.16 1419.49 349.96 1419.6 z" fill="rgb(23,5,2)" transform="translate(0,0)"></path>
<path d="M 865.902 1518.29 C 900.485 1552.12 933.601 1620.45 957.386 1662.62 C 973.845 1691.8 991.656 1716.96 1011.7 1743.8 L 1008.51 1745.19 C 1005.42 1744.91 1003.7 1743.91 1000.73 1742.75 C 997.399 1742.36 997.375 1742.62 994.683 1740.74 C 983.394 1736.71 973.476 1733.5 963.177 1727.37 L 960.648 1727.87 C 957.84 1726.06 950.687 1722.78 947.399 1721.15 C 936.77 1713.04 925.033 1704.41 915.617 1695.13 C 886.243 1666.17 863.339 1627.03 858.121 1585.66 C 855.457 1564.54 854.527 1537.11 865.902 1518.29 z" fill="rgb(237,208,176)" transform="translate(0,0)"></path>
<path d="M 865.902 1518.29 C 900.485 1552.12 933.601 1620.45 957.386 1662.62 C 973.845 1691.8 991.656 1716.96 1011.7 1743.8 L 1008.51 1745.19 C 1005.74 1740.69 1000.14 1734.28 996.581 1729.99 C 944.842 1667.57 920.129 1584.84 866.598 1524.46 C 859.699 1544 859.268 1569.41 863.146 1589.51 C 875.496 1653.52 913.735 1691.32 963.177 1727.37 L 960.648 1727.87 C 957.84 1726.06 950.687 1722.78 947.399 1721.15 C 936.77 1713.04 925.033 1704.41 915.617 1695.13 C 886.243 1666.17 863.339 1627.03 858.121 1585.66 C 855.457 1564.54 854.527 1537.11 865.902 1518.29 z" fill="rgb(67,23,5)" transform="translate(0,0)"></path>
<path d="M 886.196 1595.27 C 905.13 1630.31 929.912 1666.29 955.875 1696.57 C 965.13 1707.36 978.465 1718.69 986.584 1728.45 L 984.818 1728.2 C 982.668 1726.15 981.73 1724.92 978.92 1723.88 C 945.123 1693.53 899.55 1638.49 886.196 1595.27 z" fill="rgb(23,5,2)" transform="translate(0,0)"></path>
<path d="M 978.92 1723.88 C 981.73 1724.92 982.668 1726.15 984.818 1728.2 L 986.584 1728.45 C 991.093 1731.86 996.704 1738.37 1000.73 1742.75 C 997.399 1742.36 997.375 1742.62 994.683 1740.74 C 993.462 1737.45 982.365 1727.61 978.92 1723.88 z" fill="rgb(93,57,38)" transform="translate(0,0)"></path>
<path d="M 1486.87 218.981 C 1491.3 221.995 1516.31 234.517 1523.18 237.73 C 1540.21 245.697 1565.96 261.725 1582.37 268.057 C 1584.91 268.679 1586.74 268.922 1588.94 270.35 L 1590.42 272.129 L 1590.21 270.476 L 1593.59 268.936 C 1597.87 278.634 1621.6 293.244 1631.14 300.322 C 1646.88 312.128 1662.1 324.605 1676.77 337.719 L 1678.28 339.687 L 1680.22 339.068 C 1682.37 341.716 1683.56 343.973 1686.75 344.715 L 1688.32 344.195 L 1691.17 343.553 C 1691.07 351.522 1692.75 352.12 1699.36 358.737 C 1710.78 370.165 1721.91 381.116 1733 392.868 C 1740.61 400.926 1753.23 417.33 1760.57 423.799 C 1762.26 425.715 1764.27 428.462 1766.4 429.387 L 1767.12 429.957 C 1769.34 432.705 1768.02 432.176 1770.83 432.484 L 1771.87 430.861 L 1772.68 428.699 L 1775.1 429.566 C 1774.96 431.138 1774.48 435.498 1775.27 436.724 C 1786.76 454.377 1800.57 471.054 1813.71 487.574 C 1821.1 496.875 1831.11 515.175 1838.59 522.385 C 1840.34 524.398 1840.53 524.947 1842.82 526.201 L 1843.3 525.781 C 1843.99 529.672 1846.66 535.276 1849.37 538.052 L 1851.73 539.283 C 1851.55 540.168 1851.37 541.053 1851.19 541.937 C 1859.55 557.946 1869.36 573.33 1878.03 589.228 C 1906.98 641.92 1932.35 696.499 1953.97 752.595 C 1957.13 760.96 1977.48 811.966 1971.38 816.055 C 1964.18 812.166 1959.5 788.607 1956.56 780.449 C 1928.01 701.125 1890.99 622.923 1848.65 550.095 L 1846.94 551.039 C 1844.37 551.749 1843.06 551.778 1840.42 552.063 C 1777.98 558.78 1718.24 533.209 1670.77 492.148 C 1667.99 489.714 1665.56 486.524 1663.19 483.637 C 1746.8 493.342 1762.38 490.598 1839.27 535.423 C 1796.09 469.204 1738.32 405.399 1681.16 350.791 C 1656.08 326.831 1628.67 306.996 1599.79 287.832 C 1596.18 288.938 1592.42 290.264 1588.82 291.464 L 1585.69 289.46 L 1586.74 287.881 L 1587.78 286.796 L 1585.8 285.12 C 1589.35 285.171 1589.93 285.097 1593.46 284.519 C 1590.45 279.248 1555.61 261.007 1548.29 258.055 C 1545.83 255.385 1547.26 256.161 1544.07 255.269 C 1531.63 246.938 1505.74 236.428 1490.87 226.792 L 1485.54 223.333 C 1485.73 222.309 1486.52 220.08 1486.87 218.981 z" fill="rgb(67,23,5)" transform="translate(0,0)"></path>
<path d="M 1672.5 490.247 L 1672.7 488.615 C 1680 488.301 1690.79 490.575 1698.53 491.495 C 1734.87 495.815 1762 500.356 1795.74 515.878 C 1811.26 523.021 1830.46 535.747 1843.93 541.499 L 1848.65 550.095 L 1846.94 551.039 C 1844.37 551.749 1843.06 551.778 1840.42 552.063 C 1777.98 558.78 1718.24 533.209 1670.77 492.148 L 1672.5 490.247 z" fill="rgb(237,208,176)" transform="translate(0,0)"></path>
<path d="M 1672.5 490.247 C 1712.38 521.638 1752.14 542.962 1804.19 549.284 C 1815.39 550.645 1828.57 549.262 1839.95 549.056 L 1839.04 548.67 C 1828.45 544.264 1742.53 516.768 1739.31 513.964 C 1745.33 508.243 1830.49 545.031 1843.16 547.7 C 1844.32 547.943 1846.14 550.123 1846.94 551.039 C 1844.37 551.749 1843.06 551.778 1840.42 552.063 C 1777.98 558.78 1718.24 533.209 1670.77 492.148 L 1672.5 490.247 z" fill="rgb(23,5,2)" transform="translate(0,0)"></path>
<path d="M 520.335 1355.18 C 523.225 1351.97 522.074 1352.26 525.482 1351.73 C 535.012 1358.46 549.101 1422.7 552.023 1437.49 C 559.53 1475.5 560.119 1526.78 571.742 1562.71 C 602.7 1577.41 664.434 1614.46 692.854 1622.29 L 692.804 1622.84 L 690.775 1624.18 C 690.545 1626.06 690.293 1627.93 690.017 1629.8 C 675.475 1623.03 674.33 1625.34 658.845 1624.19 L 658.676 1623.34 C 661.888 1623.9 667.238 1625.05 669.653 1622.59 C 668.228 1619.86 654.289 1612.51 651.435 1611.76 C 637.848 1608.17 563.371 1563.75 554.239 1563.44 L 552.65 1561.45 C 552.304 1559.75 550.089 1558.83 548.171 1557.47 C 525.966 1541.9 496.035 1527.7 472.648 1513.02 C 464.302 1507.78 450.233 1500.51 443.159 1494.05 L 441.083 1491.7 C 439.357 1490.1 437.863 1488.39 436.277 1486.66 C 441.659 1487.99 442.432 1491.71 446.917 1491.47 C 448.267 1488.04 447.316 1487.2 446.456 1482.93 C 449.593 1487.69 451.539 1491.02 456.452 1494.27 L 459.137 1495.13 C 462.112 1499.8 523.932 1535.28 533.061 1540.79 L 536.944 1537.76 C 510.437 1505.68 496.204 1479.67 496.561 1437.01 C 496.829 1404.89 504.354 1382.62 520.335 1355.18 z" fill="rgb(237,208,176)" transform="translate(0,0)"></path>
<path d="M 520.335 1355.18 C 523.225 1351.97 522.074 1352.26 525.482 1351.73 C 535.012 1358.46 549.101 1422.7 552.023 1437.49 C 559.53 1475.5 560.119 1526.78 571.742 1562.71 C 602.7 1577.41 664.434 1614.46 692.854 1622.29 L 692.804 1622.84 L 690.775 1624.18 C 690.545 1626.06 690.293 1627.93 690.017 1629.8 C 675.475 1623.03 674.33 1625.34 658.845 1624.19 L 658.676 1623.34 C 661.888 1623.9 667.238 1625.05 669.653 1622.59 C 668.228 1619.86 654.289 1612.51 651.435 1611.76 C 637.848 1608.17 563.371 1563.75 554.239 1563.44 L 552.65 1561.45 C 552.304 1559.75 550.089 1558.83 548.171 1557.47 C 525.966 1541.9 496.035 1527.7 472.648 1513.02 C 464.302 1507.78 450.233 1500.51 443.159 1494.05 L 441.083 1491.7 C 439.357 1490.1 437.863 1488.39 436.277 1486.66 C 441.659 1487.99 442.432 1491.71 446.917 1491.47 C 448.267 1488.04 447.316 1487.2 446.456 1482.93 C 449.593 1487.69 451.539 1491.02 456.452 1494.27 L 459.137 1495.13 C 462.112 1499.8 523.932 1535.28 533.061 1540.79 L 536.944 1537.76 C 539.218 1540.16 541.507 1542.53 543.812 1544.9 L 545.333 1544.45 C 546.841 1547.18 547.206 1548.52 549.98 1549.9 L 553.785 1551.1 L 554.359 1550.7 C 558.313 1555.04 561.364 1556.68 566.245 1559.77 C 560.774 1541.32 558.285 1518.04 555.662 1498.95 C 550.402 1460.68 546.605 1422.34 535.161 1385.26 C 532.593 1376.94 529.01 1364.62 523.721 1357.71 L 520.335 1355.18 z" fill="rgb(67,23,5)" transform="translate(0,0)"></path>
<path d="M 536.944 1537.76 C 539.218 1540.16 541.507 1542.53 543.812 1544.9 L 542.759 1545.26 C 539.633 1544.86 535.96 1542.42 533.061 1540.79 L 536.944 1537.76 z" fill="rgb(253,246,226)" transform="translate(0,0)"></path>
<path d="M 520.335 1355.18 L 523.721 1357.71 C 502.71 1391.37 495.826 1431.95 504.567 1470.65 C 510.708 1497.11 524.108 1517.55 540.619 1538.82 L 545.333 1544.45 L 543.812 1544.9 C 541.507 1542.53 539.218 1540.16 536.944 1537.76 C 510.437 1505.68 496.204 1479.67 496.561 1437.01 C 496.829 1404.89 504.354 1382.62 520.335 1355.18 z" fill="rgb(67,23,5)" transform="translate(0,0)"></path>
<path d="M 519.086 1420.92 C 522.863 1429.69 523.413 1437.28 524.476 1446.72 C 528.442 1481.97 538.056 1519.16 554.359 1550.7 L 553.785 1551.1 L 549.98 1549.9 C 547.206 1548.52 546.841 1547.18 545.333 1544.45 L 540.619 1538.82 L 543.843 1534.86 C 526.259 1496.22 521.345 1462.54 519.086 1420.92 z" fill="rgb(23,5,2)" transform="translate(0,0)"></path>
<path d="M 543.843 1534.86 C 546.037 1539.54 548.952 1544.96 549.98 1549.9 C 547.206 1548.52 546.841 1547.18 545.333 1544.45 L 540.619 1538.82 L 543.843 1534.86 z" fill="rgb(240,196,143)" transform="translate(0,0)"></path>
<path d="M 1006.13 1772.75 C 1017.75 1770.87 1037.21 1772.63 1049.21 1774.46 L 1051.36 1774.83 C 1053.19 1783.1 1052.16 1783.5 1056.25 1791.31 C 1068.75 1788.84 1088.21 1787.42 1098.96 1784.36 L 1100.87 1786.99 C 1105.54 1786.11 1107.87 1785.26 1112.09 1787.52 L 1113.43 1788.75 C 1108.56 1793.79 1076.92 1807.59 1068.95 1811.71 C 1010.72 1841.84 952.111 1856.31 887.455 1837.69 C 882.035 1836.13 874.795 1835.3 871.553 1829.99 C 872.864 1825.86 883.654 1818.26 887.382 1815.71 C 923.333 1791.07 959.617 1778.89 1002.5 1772.79 L 1006.13 1772.75 z" fill="rgb(237,208,176)" transform="translate(0,0)"></path>
<path d="M 1113.43 1788.75 C 1108.56 1793.79 1076.92 1807.59 1068.95 1811.71 C 1010.72 1841.84 952.111 1856.31 887.455 1837.69 C 882.035 1836.13 874.795 1835.3 871.553 1829.99 C 872.864 1825.86 883.654 1818.26 887.382 1815.71 C 923.333 1791.07 959.617 1778.89 1002.5 1772.79 L 1005.19 1776.15 C 959.339 1782.42 911.842 1800.04 875.801 1829.6 C 951.954 1851.68 999.474 1839.64 1069.23 1807.2 C 1081.49 1801.5 1100.87 1793.64 1112.09 1787.52 L 1113.43 1788.75 z" fill="rgb(53,16,4)" transform="translate(0,0)"></path>
<path d="M 1056.25 1791.31 C 1068.75 1788.84 1088.21 1787.42 1098.96 1784.36 L 1100.87 1786.99 C 1081.53 1791.26 1061.94 1794.35 1042.53 1798.36 C 1007.79 1805.56 979.922 1813.02 944.014 1814.33 C 954.573 1810.71 970.717 1809.39 982.109 1806.89 C 1006.87 1801.45 1031.34 1796.12 1056.25 1791.31 z" fill="rgb(23,5,2)" transform="translate(0,0)"></path>
<path d="M 1006.13 1772.75 C 1017.75 1770.87 1037.21 1772.63 1049.21 1774.46 C 1038.99 1774.96 1029.4 1774.99 1019.19 1775 C 1013.89 1775.19 1010.53 1775.31 1005.19 1776.15 L 1002.5 1772.79 L 1006.13 1772.75 z" fill="rgb(93,57,38)" transform="translate(0,0)"></path>
<path d="M 1002.5 1772.79 L 1006.13 1772.75 C 1010.12 1772.94 1019.28 1772.56 1021.98 1773.74 L 1019.19 1775 C 1013.89 1775.19 1010.53 1775.31 1005.19 1776.15 L 1002.5 1772.79 z" fill="rgb(53,16,4)" transform="translate(0,0)"></path>
<path d="M 231.2 1339.7 C 216.408 1340.34 186.912 1329.51 173.698 1322.46 C 125.675 1296.88 95.7057 1245.9 86.9138 1193.23 C 85.5687 1185.17 81.6594 1167.54 85.3365 1160.66 C 86.976 1160.14 87.8249 1159.83 89.452 1161.06 C 142.669 1201.43 203.597 1267.31 227.433 1328.76 L 224.849 1328.79 L 224.033 1329.19 L 221.862 1331.06 C 224.166 1332.81 228.296 1335.72 230.01 1337.75 L 231.2 1339.7 z" fill="rgb(237,208,176)" transform="translate(0,0)"></path>
<path d="M 231.2 1339.7 C 216.408 1340.34 186.912 1329.51 173.698 1322.46 C 125.675 1296.88 95.7057 1245.9 86.9138 1193.23 C 85.5687 1185.17 81.6594 1167.54 85.3365 1160.66 C 86.976 1160.14 87.8249 1159.83 89.452 1161.06 C 142.669 1201.43 203.597 1267.31 227.433 1328.76 L 224.849 1328.79 C 196.405 1274.35 164.655 1232.98 119.047 1191.31 C 109.504 1182.6 97.8612 1171.13 87.5409 1163.49 C 92.0249 1240.2 131.749 1308.31 206.932 1331.47 C 215.636 1334.15 220.217 1336.97 230.01 1337.75 L 231.2 1339.7 z" fill="rgb(67,23,5)" transform="translate(0,0)"></path>
<path d="M 116.513 1220.13 C 125.83 1228.02 135.79 1243.58 144.799 1253.28 C 167.817 1278.05 197.622 1308.59 224.033 1329.19 L 221.862 1331.06 C 179.857 1299.41 145.275 1264.1 116.513 1220.13 z" fill="rgb(53,16,4)" transform="translate(0,0)"></path>
<path d="M 826.108 1689.46 C 823.147 1692.66 815.256 1697.33 811.526 1699.84 C 756.837 1736.62 688.621 1756.07 624.448 1733.68 C 617.751 1731.34 596.723 1725.42 594.606 1719.01 C 598.083 1714.17 615.184 1706.88 621.171 1704.45 C 656.332 1690.17 693.091 1678.89 731.063 1675.76 C 748.688 1674.31 763.48 1676 780.807 1678.32 C 789.283 1678.83 794.084 1680.27 802.27 1682.5 C 806.763 1683.9 809.347 1684.81 813.643 1686.72 L 819.744 1684.55 L 821.969 1685.78 L 824.159 1687.37 L 826.108 1689.46 z" fill="rgb(237,208,176)" transform="translate(0,0)"></path>
<path d="M 826.108 1689.46 C 823.147 1692.66 815.256 1697.33 811.526 1699.84 C 756.837 1736.62 688.621 1756.07 624.448 1733.68 C 617.751 1731.34 596.723 1725.42 594.606 1719.01 C 598.083 1714.17 615.184 1706.88 621.171 1704.45 C 656.332 1690.17 693.091 1678.89 731.063 1675.76 C 748.688 1674.31 763.48 1676 780.807 1678.32 L 776.929 1680.51 C 761.633 1679.33 746.654 1678.43 731.295 1679.68 C 692.839 1682.81 633.849 1700.57 599.881 1719 C 649.097 1743.09 698.832 1743.86 749.873 1725.77 C 770.978 1718.3 806.153 1701.24 824.159 1687.37 L 826.108 1689.46 z" fill="rgb(53,16,4)" transform="translate(0,0)"></path>
<path d="M 808.331 1687.96 L 809.872 1689.77 C 782.841 1698.33 686.249 1717.17 661.006 1713.95 C 662.947 1712.92 696.374 1708.17 700.653 1707.52 C 737.228 1701.98 772.275 1696.34 808.331 1687.96 z" fill="rgb(23,5,2)" transform="translate(0,0)"></path>
<path d="M 780.807 1678.32 C 789.283 1678.83 794.084 1680.27 802.27 1682.5 C 797.974 1683.33 782.709 1681.01 776.929 1680.51 L 780.807 1678.32 z" fill="rgb(77,35,12)" transform="translate(0,0)"></path>
<path d="M 819.744 1684.55 L 821.969 1685.78 L 809.872 1689.77 L 808.331 1687.96 L 813.643 1686.72 L 819.744 1684.55 z" fill="rgb(93,57,38)" transform="translate(0,0)"></path>
<path d="M 694.097 1635.94 C 673.479 1649.77 628.67 1669.91 604.661 1675.44 C 569.802 1683.78 531.911 1679.23 498.252 1667.9 C 493.187 1666.2 476.999 1661.42 476.108 1656.18 C 477.871 1653.87 479.496 1652.5 482.067 1651.09 C 537.221 1620.99 597.318 1608.13 658.676 1623.34 L 658.845 1624.19 C 674.33 1625.34 675.475 1623.03 690.017 1629.8 L 690.151 1630.73 C 692.368 1631.15 691.625 1630.68 692.664 1631.52 L 693.108 1633.37 L 694.097 1635.94 z" fill="rgb(237,208,176)" transform="translate(0,0)"></path>
<path d="M 694.097 1635.94 C 673.479 1649.77 628.67 1669.91 604.661 1675.44 C 569.802 1683.78 531.911 1679.23 498.252 1667.9 C 493.187 1666.2 476.999 1661.42 476.108 1656.18 C 477.871 1653.87 479.496 1652.5 482.067 1651.09 C 537.221 1620.99 597.318 1608.13 658.676 1623.34 L 658.845 1624.19 C 605.635 1619.54 572.471 1617.17 520.886 1637.46 C 507.768 1642.63 492.879 1648.11 481.07 1656.19 C 526.396 1677.82 578.404 1680.77 625.89 1664.42 C 643.139 1658.48 676.682 1642.75 693.108 1633.37 L 694.097 1635.94 z" fill="rgb(53,16,4)" transform="translate(0,0)"></path>
<path d="M 690.151 1630.73 C 692.368 1631.15 691.625 1630.68 692.664 1631.52 C 678.756 1640.69 581.842 1649.42 563.541 1647.73 L 563.128 1646.75 C 566.247 1645.16 597.689 1643.23 603.533 1642.59 C 632.555 1639.41 661.768 1638.2 690.151 1630.73 z" fill="rgb(23,5,2)" transform="translate(0,0)"></path>
<path d="M 949.926 1734.31 C 944.326 1740.9 932.148 1746.32 925.234 1750.89 C 870.795 1786.85 813.52 1811.99 747.53 1791.94 C 742.462 1790.4 730.471 1789.17 729.524 1783.16 C 732.375 1776.43 764.012 1761.41 772.185 1756.95 C 830.265 1725.24 878.553 1724.6 942.143 1732.2 C 944.761 1733.21 943.748 1732.34 945.484 1734.49 L 948.824 1733.19 L 949.926 1734.31 z" fill="rgb(237,208,176)" transform="translate(0,0)"></path>
<path d="M 949.926 1734.31 C 944.326 1740.9 932.148 1746.32 925.234 1750.89 C 870.795 1786.85 813.52 1811.99 747.53 1791.94 C 742.462 1790.4 730.471 1789.17 729.524 1783.16 C 732.375 1776.43 764.012 1761.41 772.185 1756.95 C 830.265 1725.24 878.553 1724.6 942.143 1732.2 C 927.998 1744.46 820.472 1768.63 797.039 1772.18 C 806.208 1768.19 828.202 1762.65 838.618 1760 C 869.91 1752.06 909.518 1739.27 941.248 1735.14 C 926.293 1731.16 911.803 1730.71 896.585 1730.58 C 843.748 1730.11 797.53 1745.62 752.487 1771.97 C 746.8 1775.3 738.72 1780.42 733.03 1783.35 C 822.563 1812.55 872.767 1778.39 945.484 1734.49 L 948.824 1733.19 L 949.926 1734.31 z" fill="rgb(53,16,4)" transform="translate(0,0)"></path>
<path d="M 135.951 1384.61 C 133.109 1381.7 132.952 1382.49 132.518 1379.28 C 137.031 1375.25 166.037 1373.63 173.991 1373.4 C 220.34 1372.03 267.044 1383.55 308.27 1404.58 C 315.06 1408.04 323.238 1410.17 328.996 1414.48 L 332.189 1414.72 C 335.602 1416.85 338.727 1418.02 340.422 1421.15 L 339.526 1421.95 L 336.534 1421.67 C 339.93 1423.69 343.207 1425.13 345.206 1428.48 L 344.614 1429.88 L 345.058 1431.34 C 339.854 1433.63 315.266 1438.77 309.472 1439.69 C 265.555 1446.71 216.693 1435.06 178.33 1413.35 C 164.38 1405.45 149.112 1394.12 135.951 1384.61 z" fill="rgb(237,208,176)" transform="translate(0,0)"></path>
<path d="M 137.63 1381.01 C 144.441 1387.11 155.386 1394.35 163.298 1399.43 C 204.471 1425.89 246.502 1438.94 295.538 1436.66 C 309.911 1435.99 333.498 1430 344.614 1429.88 L 345.058 1431.34 C 339.854 1433.63 315.266 1438.77 309.472 1439.69 C 265.555 1446.71 216.693 1435.06 178.33 1413.35 C 164.38 1405.45 149.112 1394.12 135.951 1384.61 L 137.63 1381.01 z" fill="rgb(53,16,4)" transform="translate(0,0)"></path>
<path d="M 135.951 1384.61 C 133.109 1381.7 132.952 1382.49 132.518 1379.28 C 137.031 1375.25 166.037 1373.63 173.991 1373.4 C 220.34 1372.03 267.044 1383.55 308.27 1404.58 C 315.06 1408.04 323.238 1410.17 328.996 1414.48 L 332.189 1414.72 C 335.602 1416.85 338.727 1418.02 340.422 1421.15 L 339.526 1421.95 L 336.534 1421.67 C 332.733 1419.97 328.12 1416.39 324.138 1414.39 C 274.608 1389.52 221.359 1374.91 165.522 1378 C 158.189 1378.41 144.324 1378.22 137.63 1381.01 L 135.951 1384.61 z" fill="rgb(67,23,5)" transform="translate(0,0)"></path>
<path d="M 207.801 1402.03 C 213.03 1402.14 246.855 1409.4 254.415 1410.79 L 308.16 1420.14 C 317.287 1421.73 334.971 1424.63 343.438 1427.63 C 325.92 1429.35 226.138 1410.24 207.801 1402.03 z" fill="rgb(23,5,2)" transform="translate(0,0)"></path>
<path d="M 340.204 1585.29 C 343.185 1584.33 357.999 1577.2 361.717 1575.5 C 383.69 1565.47 401.644 1556.56 425.438 1550.78 C 454.906 1543.61 478.111 1545.18 507.332 1552.56 C 515.335 1554.57 525.813 1556.89 532.915 1561.23 C 535.322 1561.7 537.094 1562.1 539.573 1562.25 L 540.383 1562.41 C 544.163 1560.6 544.81 1560.07 548.171 1557.47 C 550.089 1558.83 552.304 1559.75 552.65 1561.45 L 554.239 1563.44 C 549.746 1567.7 537.823 1574.27 531.996 1577.43 C 497.047 1596.41 459.233 1609.13 419.016 1608 C 400.226 1607.46 354.682 1600.34 339.555 1589.56 L 338.892 1587.6 L 340.204 1585.29 z" fill="rgb(237,208,176)" transform="translate(0,0)"></path>
<path d="M 552.65 1561.45 L 554.239 1563.44 C 549.746 1567.7 537.823 1574.27 531.996 1577.43 C 497.047 1596.41 459.233 1609.13 419.016 1608 C 400.226 1607.46 354.682 1600.34 339.555 1589.56 L 338.892 1587.6 L 340.204 1585.29 L 344.89 1588.78 C 403.673 1609.94 459.412 1607.81 516.014 1580.89 C 528.473 1574.97 540.509 1568.01 552.65 1561.45 z" fill="rgb(67,23,5)" transform="translate(0,0)"></path>
<path d="M 340.204 1585.29 C 343.185 1584.33 357.999 1577.2 361.717 1575.5 C 383.69 1565.47 401.644 1556.56 425.438 1550.78 C 454.906 1543.61 478.111 1545.18 507.332 1552.56 C 515.335 1554.57 525.813 1556.89 532.915 1561.23 C 513.101 1557.91 495.311 1552.29 475.124 1550.48 C 437.759 1547.14 401.244 1561.69 367.91 1577.1 C 362.167 1579.75 349.885 1585.63 344.89 1588.78 L 340.204 1585.29 z" fill="rgb(67,23,5)" transform="translate(0,0)"></path>
<path d="M 540.383 1562.41 C 534.091 1569.8 465.793 1576.12 453.98 1577.01 C 451.918 1577.17 449.853 1577.27 447.786 1577.31 C 442.441 1576.68 440.392 1578.03 433.122 1576.39 L 433.616 1575.2 C 444.63 1574.82 460.929 1572.7 472.171 1571.47 C 493.661 1569.13 518.417 1566.63 539.573 1562.25 L 540.383 1562.41 z" fill="rgb(23,5,2)" transform="translate(0,0)"></path>
<path d="M 447.786 1577.31 C 445.254 1578.48 417.752 1578.78 413.694 1578.31 C 416.36 1576.52 429.84 1575.14 433.616 1575.2 L 433.122 1576.39 C 440.392 1578.03 442.441 1576.68 447.786 1577.31 z" fill="rgb(93,57,38)" transform="translate(0,0)"></path>
<path d="M 229.891 1506.04 C 227.823 1503.63 226.913 1503.29 227.313 1500.44 C 233.08 1496.16 254.155 1490.05 261.909 1487.61 C 309.869 1472.55 356.882 1470.01 405.252 1484.86 C 413.047 1487.28 422.289 1490.48 430.206 1491.61 C 434.772 1492.4 436.961 1493.29 441.083 1491.7 L 443.159 1494.05 C 439.721 1495.36 435.699 1496.77 432.373 1498.21 C 368.888 1528.69 310.344 1549.69 243.265 1513.74 C 239.078 1511.5 233.887 1507.95 229.891 1506.04 z" fill="rgb(237,208,176)" transform="translate(0,0)"></path>
<path d="M 441.083 1491.7 L 443.159 1494.05 C 439.721 1495.36 435.699 1496.77 432.373 1498.21 C 368.888 1528.69 310.344 1549.69 243.265 1513.74 C 239.078 1511.5 233.887 1507.95 229.891 1506.04 C 231.18 1503.41 231.077 1503.38 233.08 1501.31 C 236.066 1510.8 275.981 1522.25 285.634 1524.49 C 329.479 1534.65 370.365 1520.74 410.546 1504.48 C 409.714 1500.88 409.681 1500.27 407.783 1496.95 C 413.834 1495.03 419.692 1494.27 425.966 1493.67 L 430.206 1491.61 C 434.772 1492.4 436.961 1493.29 441.083 1491.7 z" fill="rgb(67,23,5)" transform="translate(0,0)"></path>
<path d="M 441.083 1491.7 L 443.159 1494.05 C 439.721 1495.36 435.699 1496.77 432.373 1498.21 L 431.162 1496.33 C 424.216 1498.86 417.342 1501.57 410.546 1504.48 C 409.714 1500.88 409.681 1500.27 407.783 1496.95 C 413.834 1495.03 419.692 1494.27 425.966 1493.67 L 430.206 1491.61 C 434.772 1492.4 436.961 1493.29 441.083 1491.7 z" fill="rgb(248,227,199)" transform="translate(0,0)"></path>
<path d="M 441.083 1491.7 L 443.159 1494.05 C 439.721 1495.36 435.699 1496.77 432.373 1498.21 L 431.162 1496.33 L 433.624 1494.84 L 433.351 1493.85 L 425.966 1493.67 L 430.206 1491.61 C 434.772 1492.4 436.961 1493.29 441.083 1491.7 z" fill="rgb(84,42,11)" transform="translate(0,0)"></path>
<path d="M 229.891 1506.04 C 227.823 1503.63 226.913 1503.29 227.313 1500.44 C 233.08 1496.16 254.155 1490.05 261.909 1487.61 C 309.869 1472.55 356.882 1470.01 405.252 1484.86 L 404.876 1487.53 C 338.689 1471.35 295.428 1480.97 233.08 1501.31 C 231.077 1503.38 231.18 1503.41 229.891 1506.04 z" fill="rgb(53,16,4)" transform="translate(0,0)"></path>
<path d="M 405.252 1484.86 C 413.047 1487.28 422.289 1490.48 430.206 1491.61 L 425.966 1493.67 C 419.692 1494.27 413.834 1495.03 407.783 1496.95 C 389.556 1498.88 362.339 1500.94 344.182 1501.1 C 337.043 1500.4 330.355 1501.69 322.989 1500.41 L 323.761 1499.07 C 334.641 1499.15 350.997 1497.6 362.299 1496.83 C 383.229 1495.54 404.149 1494.06 425.054 1492.4 C 419.118 1490.24 411.2 1488.85 404.876 1487.53 L 405.252 1484.86 z" fill="rgb(23,5,2)" transform="translate(0,0)"></path>
<path d="M 300.823 1501.64 C 308.4 1500.25 316.065 1499.39 323.761 1499.07 L 322.989 1500.41 C 330.355 1501.69 337.043 1500.4 344.182 1501.1 C 336.517 1502.7 309.355 1501.94 300.823 1501.64 z" fill="rgb(93,57,38)" transform="translate(0,0)"></path>
<path d="M 249.522 1334.78 C 242.511 1318.92 235.321 1303.99 230.844 1286.85 C 220.984 1249.1 227.728 1208.71 239.721 1172.23 C 241.087 1168.07 243.964 1162.76 246.917 1159.68 L 248.703 1159.53 C 254.137 1165.31 258.14 1179.07 261.237 1186.78 C 283.352 1241.84 284.79 1295.43 283.179 1354.2 C 283.101 1356.91 282.978 1359.62 282.809 1362.33 C 281.38 1363.95 281.379 1364.3 281.171 1366.44 L 279.14 1364.83 L 278.163 1365.29 L 276.19 1362.93 C 275.456 1363.91 276 1363.27 274.289 1364.59 C 273.173 1362.51 272.879 1361.97 270.887 1360.7 C 269.201 1357.45 268.824 1356.7 266.662 1353.81 C 263.841 1351.41 261.694 1349.6 258.689 1347.45 C 255.952 1344.54 252.527 1338.54 249.522 1334.78 z" fill="rgb(237,208,176)" transform="translate(0,0)"></path>
<path d="M 249.522 1334.78 C 242.511 1318.92 235.321 1303.99 230.844 1286.85 C 220.984 1249.1 227.728 1208.71 239.721 1172.23 C 241.087 1168.07 243.964 1162.76 246.917 1159.68 L 248.703 1159.53 C 254.137 1165.31 258.14 1179.07 261.237 1186.78 C 283.352 1241.84 284.79 1295.43 283.179 1354.2 C 283.101 1356.91 282.978 1359.62 282.809 1362.33 C 281.38 1363.95 281.379 1364.3 281.171 1366.44 L 279.14 1364.83 C 279.792 1351.38 278.603 1336.17 278.978 1322.79 C 280.603 1264.63 271.307 1216.51 248.249 1162.73 C 240.56 1177.84 239.3 1185.6 235.628 1202.13 C 227.239 1238.43 227.809 1273.26 241.556 1308.15 C 245.74 1318.77 257.074 1337.55 258.689 1347.45 C 255.952 1344.54 252.527 1338.54 249.522 1334.78 z" fill="rgb(67,23,5)" transform="translate(0,0)"></path>
<path d="M 266.662 1353.81 C 255.888 1322.58 245.302 1266.99 248.314 1235.07 C 250.955 1238.12 250.363 1255.93 251.006 1261.04 C 255.277 1294.99 260.769 1332.29 276.19 1362.93 C 275.456 1363.91 276 1363.27 274.289 1364.59 C 273.173 1362.51 272.879 1361.97 270.887 1360.7 C 269.201 1357.45 268.824 1356.7 266.662 1353.81 z" fill="rgb(23,5,2)" transform="translate(0,0)"></path>
<path d="M 1485.54 223.333 C 1478.53 225.216 1463.06 222.182 1455.39 221.568 C 1413.33 218.2 1374.43 208.449 1336.8 188.897 C 1323.91 182.196 1310.1 176.664 1297.44 169.087 L 1297.31 167.746 C 1301.47 164.226 1309.87 162.966 1315.2 161.847 C 1340.32 156.575 1365.66 156.522 1390.8 161.433 C 1419.34 167.01 1444.17 180.662 1466.46 199.062 C 1474.29 205.448 1481.15 210.383 1486.87 218.981 C 1486.52 220.08 1485.73 222.309 1485.54 223.333 z" fill="rgb(53,16,4)" transform="translate(0,0)"></path>
<path d="M 1303.25 168.773 C 1324.22 163.005 1346.03 160.905 1367.72 162.567 C 1412.15 166.228 1454.37 186.551 1483.18 220.803 L 1473.56 215.437 L 1471.7 217.309 C 1474.02 218.644 1474.99 218.631 1475.93 220.597 C 1450.83 219.307 1403.06 211.523 1380.37 203.272 C 1357.18 194.838 1325.83 179.785 1303.25 168.773 z" fill="rgb(237,208,176)" transform="translate(0,0)"></path>
<path d="M 1471.7 217.309 C 1450.6 206.316 1430.92 199.693 1408.52 192.2 C 1402.27 190.11 1375.71 184.59 1373.52 181.714 C 1377.07 180.969 1382.11 182.516 1385.98 183.252 C 1416.47 189.047 1446.26 200.852 1473.56 215.437 L 1471.7 217.309 z" fill="rgb(23,5,2)" transform="translate(0,0)"></path>
<path d="M 1642.02 405.458 C 1682.58 405.331 1711.15 411.338 1746.5 432.002 C 1756.07 437.598 1762.39 443.461 1772.31 448.817 C 1743.43 448.755 1726.95 452.141 1699.25 453.993 C 1665.44 455.677 1633.9 449.744 1602.42 437.309 C 1596.24 434.864 1572.65 424.812 1569.93 418.567 C 1578.62 410.323 1629.05 406.026 1642.02 405.458 z" fill="rgb(53,16,4)" transform="translate(0,0)"></path>
<path d="M 1573.66 418.755 C 1621.9 408.101 1669.67 403.263 1717.08 421.278 C 1724.33 424.03 1753.56 437.943 1757.14 443.88 L 1756.09 444.756 C 1751.64 444.962 1748.09 443.324 1743.8 441.88 L 1741.78 443.27 C 1744.31 443.693 1744.21 443.681 1746.49 444.854 L 1744.92 446.06 C 1735.84 447.84 1726.87 447.815 1717.83 448.9 C 1670.87 454.539 1614.63 443.464 1573.66 418.755 z" fill="rgb(237,208,176)" transform="translate(0,0)"></path>
<path d="M 1634.94 422.74 C 1669.45 424.385 1710.32 433.98 1743.8 441.88 L 1741.78 443.27 C 1724.98 441.326 1704.69 436.35 1687.73 433.189 C 1670.75 430.023 1651.4 427.089 1634.94 422.74 z" fill="rgb(23,5,2)" transform="translate(0,0)"></path>
<path d="M 1480.62 115.527 C 1520.14 137.106 1552.31 167.037 1574.3 206.589 C 1585.25 226.281 1589.32 247.103 1593.59 268.936 L 1590.21 270.476 L 1590.42 272.129 L 1588.94 270.35 C 1586.74 268.922 1584.91 268.679 1582.37 268.057 C 1531.57 226.986 1488.31 184.507 1480.62 115.527 z" fill="rgb(237,208,176)" transform="translate(0,0)"></path>
<path d="M 1480.62 115.527 C 1520.14 137.106 1552.31 167.037 1574.3 206.589 C 1585.25 226.281 1589.32 247.103 1593.59 268.936 L 1590.21 270.476 C 1590.22 264.338 1586.69 250.189 1584.97 243.854 C 1570.9 192.169 1530.36 147.482 1484.28 121.492 C 1500.41 191.655 1536.03 225.131 1588.94 270.35 C 1586.74 268.922 1584.91 268.679 1582.37 268.057 C 1531.57 226.986 1488.31 184.507 1480.62 115.527 z" fill="rgb(53,16,4)" transform="translate(0,0)"></path>
<path d="M 1528.15 175.666 C 1542.31 185.178 1580.4 245.06 1585.48 263.342 C 1583.17 260.569 1567.87 234.6 1564.3 228.791 C 1554.83 213.364 1535.57 190.077 1528.15 175.666 z" fill="rgb(23,5,2)" transform="translate(0,0)"></path>
<path d="M 1830.19 352.131 C 1854.73 374.897 1870.29 442.819 1866.85 475.43 C 1865.55 487.741 1857.92 528.961 1851.73 539.283 L 1849.37 538.052 C 1846.66 535.276 1843.99 529.672 1843.3 525.781 L 1842.82 526.201 C 1840.53 524.947 1840.34 524.398 1838.59 522.385 C 1816.41 466.122 1808.06 410.027 1830.19 352.131 z" fill="rgb(237,208,176)" transform="translate(0,0)"></path>
<path d="M 1830.19 352.131 C 1854.73 374.897 1870.29 442.819 1866.85 475.43 C 1865.55 487.741 1857.92 528.961 1851.73 539.283 L 1849.37 538.052 C 1849.66 537.355 1849.88 536.865 1850.19 535.854 C 1871.29 465.587 1866.91 421.626 1831.86 358.262 C 1812.05 408.797 1822.62 476.645 1843.3 525.781 L 1842.82 526.201 C 1840.53 524.947 1840.34 524.398 1838.59 522.385 C 1816.41 466.122 1808.06 410.027 1830.19 352.131 z" fill="rgb(53,16,4)" transform="translate(0,0)"></path>
<path d="M 1838.04 417.344 C 1839.31 417.92 1839.32 418.124 1840.4 419.06 C 1844.32 438.144 1851.39 512.424 1846.92 528.857 L 1846.85 528.877 C 1846.13 527.435 1846.09 527.79 1846.13 526.285 C 1847 490.237 1840.09 452.63 1838.04 417.344 z" fill="rgb(23,5,2)" transform="translate(0,0)"></path>
<path d="M 1760.57 423.799 C 1757.39 415.411 1754.17 406.43 1750.57 398.253 C 1733.99 360.671 1732.2 317.884 1736.59 277.571 C 1737.24 271.603 1738.42 256.391 1742.87 252.544 C 1751.71 253.396 1762.98 279.557 1766.44 286.495 C 1790.42 334.582 1788.01 378.407 1775.1 429.566 L 1772.68 428.699 L 1771.87 430.861 L 1770.83 432.484 C 1768.02 432.176 1769.34 432.705 1767.12 429.957 L 1766.4 429.387 C 1764.27 428.462 1762.26 425.715 1760.57 423.799 z" fill="rgb(237,208,176)" transform="translate(0,0)"></path>
<path d="M 1760.57 423.799 C 1757.39 415.411 1754.17 406.43 1750.57 398.253 C 1733.99 360.671 1732.2 317.884 1736.59 277.571 C 1737.24 271.603 1738.42 256.391 1742.87 252.544 C 1751.71 253.396 1762.98 279.557 1766.44 286.495 C 1790.42 334.582 1788.01 378.407 1775.1 429.566 L 1772.68 428.699 C 1779.31 385.444 1787.85 350.643 1771 307.614 C 1763.09 287.427 1756.85 272.797 1743.73 255.295 C 1731.85 322.408 1738.23 367.728 1766.4 429.387 C 1764.27 428.462 1762.26 425.715 1760.57 423.799 z" fill="rgb(53,16,4)" transform="translate(0,0)"></path>
<path d="M 1768.29 419.819 C 1767.26 405.502 1759.34 333.533 1761.3 324.995 C 1765.54 337.896 1769.41 395.702 1770.23 410.755 C 1769.96 414.183 1770.17 417.057 1768.29 419.819 z" fill="rgb(23,5,2)" transform="translate(0,0)"></path>
<path d="M 1770.23 410.755 C 1770.72 415.064 1771.07 428.475 1771.87 430.861 L 1770.83 432.484 C 1768.02 432.176 1769.34 432.705 1767.12 429.957 C 1768.91 427.058 1768.36 423.368 1768.29 419.819 C 1770.17 417.057 1769.96 414.183 1770.23 410.755 z" fill="rgb(93,57,38)" transform="translate(0,0)"></path>
<path d="M 1628.74 166.695 C 1663.37 195.945 1691.68 244.766 1694.39 290.312 C 1695.15 303.236 1695.41 331.399 1691.17 343.553 L 1688.32 344.195 L 1686.75 344.715 C 1683.56 343.973 1682.37 341.716 1680.22 339.068 L 1678.28 339.687 L 1676.77 337.719 L 1676.27 336.24 C 1671.27 321.749 1660.38 302.819 1653.4 288.795 C 1635.64 253.09 1621.36 206.842 1628.74 166.695 z" fill="rgb(237,208,176)" transform="translate(0,0)"></path>
<path d="M 1628.74 166.695 C 1663.37 195.945 1691.68 244.766 1694.39 290.312 C 1695.15 303.236 1695.41 331.399 1691.17 343.553 L 1688.32 344.195 C 1701.01 278.263 1677.97 217.599 1630.19 171.755 C 1627.28 237.383 1654.82 281.448 1680.22 339.068 L 1678.28 339.687 L 1676.77 337.719 L 1676.27 336.24 C 1671.27 321.749 1660.38 302.819 1653.4 288.795 C 1635.64 253.09 1621.36 206.842 1628.74 166.695 z" fill="rgb(53,16,4)" transform="translate(0,0)"></path>
<path d="M 1681.36 321.955 C 1677.94 307.885 1674.68 294.334 1670.41 280.493 C 1665.23 263.691 1658.52 247.322 1655.27 230.06 C 1669.45 259.29 1677.34 290.074 1683.59 321.779 L 1681.36 321.955 z" fill="rgb(23,5,2)" transform="translate(0,0)"></path>
<path d="M 1681.36 321.955 L 1683.59 321.779 C 1685.18 329.65 1685.87 333.087 1686.11 341.019 C 1684.41 334.079 1682.8 329.215 1681.36 321.955 z" fill="rgb(93,57,38)" transform="translate(0,0)"></path>
<path d="M 1602.99 337.409 C 1643.1 335.216 1661.55 349.937 1694.02 363.548 C 1677.29 364.261 1656.12 369.437 1639.2 372.87 C 1624.66 375.822 1609.99 378.112 1595.24 379.733 C 1581.38 382.056 1515.26 382.035 1507.14 371.464 L 1507.96 369.029 C 1512.67 364.218 1520.03 361.55 1526.14 358.581 C 1552.26 345.889 1573.92 339.428 1602.99 337.409 z" fill="rgb(53,16,4)" transform="translate(0,0)"></path>
<path d="M 1590.87 342.394 C 1622.96 337.899 1652.83 346.504 1680.78 361.248 C 1652.84 366.352 1626.6 371.879 1598.24 375.571 C 1574.24 381.648 1535.72 376.312 1511.56 370.705 C 1534.56 356.841 1564.1 345.447 1590.87 342.394 z" fill="rgb(237,208,176)" transform="translate(0,0)"></path>
<path d="M 1605.63 356.419 C 1619.29 354.888 1653.41 355.511 1666.13 359.167 C 1653.52 360.34 1631.79 359.332 1617.5 359.744 C 1596.1 360.334 1574.71 363.87 1554.05 364.21 C 1568.84 359.767 1590.17 357.473 1605.63 356.419 z" fill="rgb(23,5,2)" transform="translate(0,0)"></path>
<path d="M 1418.97 341.649 C 1441.7 311.179 1488.14 290.416 1525.13 285.283 C 1544.65 282.576 1566.12 283.79 1585.8 285.12 L 1587.78 286.796 L 1586.74 287.881 L 1585.69 289.46 L 1588.82 291.464 C 1576.62 297.06 1565.76 306.053 1553.79 312.618 C 1508.47 337.482 1469.64 343.538 1418.97 341.649 z" fill="rgb(237,208,176)" transform="translate(0,0)"></path>
<path d="M 1418.97 341.649 C 1441.7 311.179 1488.14 290.416 1525.13 285.283 C 1544.65 282.576 1566.12 283.79 1585.8 285.12 L 1587.78 286.796 L 1586.74 287.881 C 1570.51 287.941 1555.56 286.283 1538.83 287.195 C 1497.82 289.432 1454.09 310.197 1424.62 338.534 C 1473.36 340.091 1513.02 330.932 1556 307.563 C 1561.7 304.463 1581.94 290.41 1585.69 289.46 L 1588.82 291.464 C 1576.62 297.06 1565.76 306.053 1553.79 312.618 C 1508.47 337.482 1469.64 343.538 1418.97 341.649 z" fill="rgb(53,16,4)" transform="translate(0,0)"></path>
<path d="M 1571.71 291.428 L 1575.97 291.314 C 1572.24 292.908 1566.22 294.289 1562.08 295.284 C 1532.94 302.285 1504.77 310.629 1476.25 319.811 C 1474.01 320.399 1474.7 320.272 1472.38 320.252 C 1485.48 310.035 1553 294.127 1571.71 291.428 z" fill="rgb(23,5,2)" transform="translate(0,0)"></path>
<path d="M 1360.54 266.319 C 1410.31 230.356 1488.57 249.867 1544.07 255.269 C 1547.26 256.161 1545.83 255.385 1548.29 258.055 C 1512.04 258.299 1517.49 251.645 1482.5 267.14 C 1453.56 279.96 1388.86 284.694 1360.54 266.319 z" fill="rgb(53,16,4)" transform="translate(0,0)"></path>
<path d="M 1365.21 266.519 C 1407.17 247.596 1454.16 242.913 1499.03 253.183 C 1503.94 253.488 1506.58 254.249 1511.25 256.015 C 1489.65 256.086 1474.41 256.339 1452.76 258.192 C 1448.88 259.067 1426.48 259.949 1419.62 260.786 C 1447.38 265.339 1471.74 257.914 1499.44 257.822 C 1458.9 275.388 1407.64 280.784 1365.21 266.519 z" fill="rgb(237,208,176)" transform="translate(0,0)"></path>
<path d="M 1499.03 253.183 C 1503.94 253.488 1506.58 254.249 1511.25 256.015 C 1489.65 256.086 1474.41 256.339 1452.76 258.192 C 1464.91 252.115 1490.86 257.927 1499.03 253.183 z" fill="rgb(248,227,199)" transform="translate(0,0)"></path>
<path d="M 177.529 1761.19 C 198.153 1760.28 435.365 1760.34 437.91 1761.66 C 439.23 1762.35 439.345 1764.68 439.72 1766.02 C 400.976 1767.69 350.379 1766.4 311.038 1766.28 L 214.74 1765.97 C 206.31 1765.95 187.286 1767.3 178.642 1765.1 C 177.503 1764.81 177.693 1762.61 177.529 1761.19 z" fill="rgb(23,5,2)" transform="translate(0,0)"></path>
<path d="M 1753.1 1425.33 C 1808.62 1423.01 1866.76 1426.99 1922.53 1424.96 C 1926.33 1424.82 1927.91 1425.56 1928.46 1429.07 L 1926.83 1430.74 C 1883.07 1431.14 1839.31 1431.18 1795.55 1430.87 C 1783.24 1430.86 1766.15 1432.11 1753.82 1430.38 C 1752.14 1430.15 1752.45 1429.95 1751.55 1428.16 L 1753.1 1425.33 z" fill="rgb(67,23,5)" transform="translate(0,0)"></path>
<path d="M 393.1 233.422 C 404.911 232.959 498.464 232.235 501.683 235.045 L 501.842 238.646 C 475.708 240.211 447.995 238.401 421.785 239.086 C 413.109 239.312 402.768 239.253 394.136 238.574 C 392.126 236.081 392.85 237.553 393.1 233.422 z" fill="rgb(53,16,4)" transform="translate(0,0)"></path>
<path d="M 288.646 1802.91 L 347.336 1802.74 C 358.154 1802.74 372.579 1802.35 382.95 1803.35 L 384.236 1805 L 383.731 1807.95 C 374.315 1808.19 291.448 1809.36 288.496 1806.62 L 288.646 1802.91 z" fill="rgb(53,16,4)" transform="translate(0,0)"></path>
<path d="M 759.719 1355.44 C 769.099 1354.73 787.976 1354.36 796.533 1357.03 L 797.092 1358.1 C 791.246 1361.16 773.492 1360.56 766.067 1360.62 C 758.75 1360.79 729.92 1363.48 724.854 1360.32 L 724.842 1360.34 C 730.347 1356.24 751.829 1355.87 759.719 1355.44 z" fill="rgb(67,23,5)" transform="translate(0,0)"></path>
<path d="M 1817.61 1470.03 L 1819.01 1469.95 C 1826.35 1469.54 1875.89 1468.71 1878.91 1471.44 L 1878.86 1475.33 C 1870.1 1475.62 1821.42 1477.16 1817.85 1474.02 L 1817.61 1470.03 z" fill="rgb(53,16,4)" transform="translate(0,0)"></path>
<path d="M 788.696 1394.43 C 796.747 1393.75 824.906 1392.71 830.899 1396.32 L 830.279 1397.84 C 825.912 1400.34 808.423 1398.88 802.218 1398.69 C 792.293 1398.8 766.848 1401.39 759.963 1400.17 L 759.666 1399.08 C 768.999 1394.33 778.246 1394.9 788.696 1394.43 z" fill="rgb(67,23,5)" transform="translate(0,0)"></path>
<path d="M 247.531 367.357 C 256.384 367.178 295.607 365.531 301.434 368.732 L 302.079 370.996 L 300.784 372.949 C 284.696 372.711 265.534 373.682 249.443 372.33 C 247.102 372.134 247.04 371.237 246.345 369.945 L 247.531 367.357 z" fill="rgb(53,16,4)" transform="translate(0,0)"></path>
<path d="M 405.668 277.202 C 412.585 276.562 453.762 275.26 458.287 278.386 L 458.845 281.589 C 449.134 282.634 418.253 283.193 407.83 281.012 C 406.515 280.736 406.328 278.956 405.668 277.202 z" fill="rgb(23,5,2)" transform="translate(0,0)"></path>
<path d="M 1854.6 1380.36 C 1863.24 1379.46 1889.24 1378.33 1897.76 1380.98 C 1899.14 1381.41 1899.06 1382.87 1899.56 1384.72 C 1892 1384.79 1858.62 1386.22 1854.85 1383.39 L 1854.6 1380.36 z" fill="rgb(53,16,4)" transform="translate(0,0)"></path>
<metadata><recraft-signature>{"signed_by": "recraft", "signature_b64": "CwVM8QkwHiojQPFmRiDXJ+4EbaRSi6NL3cgHfois3m4ObxRa6PQUup1AuYtgB9Yz7CVJ+r4aV4NjNe9viy3VDw==", "signing_algo": "Ed25519", "generation_timestamp": 1778092792, "identifier": "c4e320c5-ed0d-432f-99af-fcc7ca6430d3"}</recraft-signature></metadata></svg>